<?xml version="1.0" encoding="UTF-8" standalone="no"?><svg xmlns="http://www.w3.org/2000/svg" xmlns:xlink="http://www.w3.org/1999/xlink" contentScriptType="application/ecmascript" contentStyleType="text/css" height="480px" preserveAspectRatio="none" style="width:1723px;height:480px;" version="1.1" viewBox="0 0 1723 480" width="1723px" zoomAndPan="magnify"><defs><filter height="300%" id="fuvxceednxkwa" width="300%" x="-1" y="-1"><feGaussianBlur result="blurOut" stdDeviation="2.0"/><feColorMatrix in="blurOut" result="blurOut2" type="matrix" values="0 0 0 0 0 0 0 0 0 0 0 0 0 0 0 0 0 0 .4 0"/><feOffset dx="4.0" dy="4.0" in="blurOut2" result="blurOut3"/><feBlend in="SourceGraphic" in2="blurOut3" mode="normal"/></filter></defs><g><!--MD5=[64182ab34c08ac367bbf699869515711]
cluster tictactoe.views.console--><polygon fill="#FFFFFF" filter="url(#fuvxceednxkwa)" points="426,86,625,86,632,108.2969,1290,108.2969,1290,369,426,369,426,86" style="stroke:#000000;stroke-width:1.5;"/><line style="stroke:#000000;stroke-width:1.5;" x1="426" x2="632" y1="108.2969" y2="108.2969"/><text fill="#000000" font-family="sans-serif" font-size="14" font-weight="bold" lengthAdjust="spacingAndGlyphs" textLength="193" x="430" y="100.9951">tictactoe.views.console</text><!--MD5=[bde0c8ed193d8d2dbac1dee471354ab0]
class tictactoe.views.console.ConsoleView--><rect codeLine="14" fill="#FEFECE" filter="url(#fuvxceednxkwa)" height="73.6094" id="tictactoe.views.console.ConsoleView" style="stroke:#A80036;stroke-width:1.5;" width="132" x="955" y="127"/><ellipse cx="979.9" cy="143" fill="#ADD1B2" rx="11" ry="11" style="stroke:#A80036;stroke-width:1.0;"/><path d="M982.2438,138.6719 C981.3063,138.2344 980.7125,138.0938 979.8375,138.0938 C977.2125,138.0938 975.2125,140.1719 975.2125,142.8906 L975.2125,144.0156 C975.2125,146.5938 977.3219,148.4844 980.2125,148.4844 C981.4313,148.4844 982.5875,148.1875 983.3375,147.6406 C983.9156,147.2344 984.2438,146.7813 984.2438,146.3906 C984.2438,145.9375 983.8531,145.5469 983.3844,145.5469 C983.1656,145.5469 982.9625,145.625 982.775,145.8125 C982.3219,146.2969 982.3219,146.2969 982.1344,146.3906 C981.7125,146.6563 981.025,146.7813 980.2594,146.7813 C978.2125,146.7813 976.9156,145.6875 976.9156,143.9844 L976.9156,142.8906 C976.9156,141.1094 978.1656,139.7969 979.9,139.7969 C980.4781,139.7969 981.0875,139.9531 981.5563,140.2031 C982.0406,140.4844 982.2125,140.7031 982.3063,141.1094 C982.3688,141.5156 982.4,141.6406 982.5406,141.7656 C982.6813,141.9063 982.9156,142.0156 983.1344,142.0156 C983.4,142.0156 983.6656,141.875 983.8375,141.6563 C983.9469,141.5 983.9781,141.3125 983.9781,140.8906 L983.9781,139.4688 C983.9781,139.0313 983.9625,138.9063 983.8688,138.75 C983.7125,138.4844 983.4313,138.3438 983.1344,138.3438 C982.8375,138.3438 982.6344,138.4375 982.4156,138.75 L982.2438,138.6719 Z " fill="#000000"/><text fill="#000000" font-family="sans-serif" font-size="12" lengthAdjust="spacingAndGlyphs" textLength="78" x="996.1" y="147.1543">ConsoleView</text><line style="stroke:#A80036;stroke-width:1.5;" x1="956" x2="1086" y1="159" y2="159"/><line style="stroke:#A80036;stroke-width:1.5;" x1="956" x2="1086" y1="167" y2="167"/><ellipse cx="966" cy="178" fill="#84BE84" rx="3" ry="3" style="stroke:#038048;stroke-width:1.0;"/><text fill="#000000" font-family="sans-serif" font-size="11" lengthAdjust="spacingAndGlyphs" textLength="82" x="975" y="181.2104">ConsoleView()</text><ellipse cx="966" cy="190.8047" fill="#84BE84" rx="3" ry="3" style="stroke:#038048;stroke-width:1.0;"/><text fill="#000000" font-family="sans-serif" font-size="11" lengthAdjust="spacingAndGlyphs" textLength="106" x="975" y="194.0151">interact(Controller)</text><!--MD5=[54aa299435631381f3c0c028f26a058f]
class tictactoe.views.console.StartView--><rect codeLine="66" fill="#FEFECE" filter="url(#fuvxceednxkwa)" height="60.8047" id="tictactoe.views.console.StartView" style="stroke:#A80036;stroke-width:1.5;" width="159" x="558.5" y="279.5"/><ellipse cx="605.25" cy="295.5" fill="#ADD1B2" rx="11" ry="11" style="stroke:#A80036;stroke-width:1.0;"/><path d="M607.5938,291.1719 C606.6563,290.7344 606.0625,290.5938 605.1875,290.5938 C602.5625,290.5938 600.5625,292.6719 600.5625,295.3906 L600.5625,296.5156 C600.5625,299.0938 602.6719,300.9844 605.5625,300.9844 C606.7813,300.9844 607.9375,300.6875 608.6875,300.1406 C609.2656,299.7344 609.5938,299.2813 609.5938,298.8906 C609.5938,298.4375 609.2031,298.0469 608.7344,298.0469 C608.5156,298.0469 608.3125,298.125 608.125,298.3125 C607.6719,298.7969 607.6719,298.7969 607.4844,298.8906 C607.0625,299.1563 606.375,299.2813 605.6094,299.2813 C603.5625,299.2813 602.2656,298.1875 602.2656,296.4844 L602.2656,295.3906 C602.2656,293.6094 603.5156,292.2969 605.25,292.2969 C605.8281,292.2969 606.4375,292.4531 606.9063,292.7031 C607.3906,292.9844 607.5625,293.2031 607.6563,293.6094 C607.7188,294.0156 607.75,294.1406 607.8906,294.2656 C608.0313,294.4063 608.2656,294.5156 608.4844,294.5156 C608.75,294.5156 609.0156,294.375 609.1875,294.1563 C609.2969,294 609.3281,293.8125 609.3281,293.3906 L609.3281,291.9688 C609.3281,291.5313 609.3125,291.4063 609.2188,291.25 C609.0625,290.9844 608.7813,290.8438 608.4844,290.8438 C608.1875,290.8438 607.9844,290.9375 607.7656,291.25 L607.5938,291.1719 Z " fill="#000000"/><text fill="#000000" font-family="sans-serif" font-size="12" lengthAdjust="spacingAndGlyphs" textLength="57" x="625.75" y="299.6543">StartView</text><line style="stroke:#A80036;stroke-width:1.5;" x1="559.5" x2="716.5" y1="311.5" y2="311.5"/><line style="stroke:#A80036;stroke-width:1.5;" x1="559.5" x2="716.5" y1="319.5" y2="319.5"/><polygon fill="#4177AF" points="569.5,326.5,565.5,332.5,573.5,332.5" style="stroke:#1963A0;stroke-width:1.0;"/><text fill="#000000" font-family="sans-serif" font-size="11" lengthAdjust="spacingAndGlyphs" textLength="133" x="578.5" y="333.7104">interact(StartController)</text><!--MD5=[0158df0baddf48f83142f472e341eacc]
class tictactoe.views.console.PlayView--><rect codeLine="48" fill="#FEFECE" filter="url(#fuvxceednxkwa)" height="86.4141" id="tictactoe.views.console.PlayView" style="stroke:#A80036;stroke-width:1.5;" width="155" x="814.5" y="267"/><ellipse cx="861.75" cy="283" fill="#ADD1B2" rx="11" ry="11" style="stroke:#A80036;stroke-width:1.0;"/><path d="M864.0938,278.6719 C863.1563,278.2344 862.5625,278.0938 861.6875,278.0938 C859.0625,278.0938 857.0625,280.1719 857.0625,282.8906 L857.0625,284.0156 C857.0625,286.5938 859.1719,288.4844 862.0625,288.4844 C863.2813,288.4844 864.4375,288.1875 865.1875,287.6406 C865.7656,287.2344 866.0938,286.7813 866.0938,286.3906 C866.0938,285.9375 865.7031,285.5469 865.2344,285.5469 C865.0156,285.5469 864.8125,285.625 864.625,285.8125 C864.1719,286.2969 864.1719,286.2969 863.9844,286.3906 C863.5625,286.6563 862.875,286.7813 862.1094,286.7813 C860.0625,286.7813 858.7656,285.6875 858.7656,283.9844 L858.7656,282.8906 C858.7656,281.1094 860.0156,279.7969 861.75,279.7969 C862.3281,279.7969 862.9375,279.9531 863.4063,280.2031 C863.8906,280.4844 864.0625,280.7031 864.1563,281.1094 C864.2188,281.5156 864.25,281.6406 864.3906,281.7656 C864.5313,281.9063 864.7656,282.0156 864.9844,282.0156 C865.25,282.0156 865.5156,281.875 865.6875,281.6563 C865.7969,281.5 865.8281,281.3125 865.8281,280.8906 L865.8281,279.4688 C865.8281,279.0313 865.8125,278.9063 865.7188,278.75 C865.5625,278.4844 865.2813,278.3438 864.9844,278.3438 C864.6875,278.3438 864.4844,278.4375 864.2656,278.75 L864.0938,278.6719 Z " fill="#000000"/><text fill="#000000" font-family="sans-serif" font-size="12" lengthAdjust="spacingAndGlyphs" textLength="52" x="882.25" y="287.1543">PlayView</text><line style="stroke:#A80036;stroke-width:1.5;" x1="815.5" x2="968.5" y1="299" y2="299"/><line style="stroke:#A80036;stroke-width:1.5;" x1="815.5" x2="968.5" y1="307" y2="307"/><polygon fill="#4177AF" points="825.5,314,821.5,320,829.5,320" style="stroke:#1963A0;stroke-width:1.0;"/><text fill="#000000" font-family="sans-serif" font-size="11" lengthAdjust="spacingAndGlyphs" textLength="129" x="834.5" y="321.2104">interact(PlayController)</text><rect fill="#F24D5C" height="6" style="stroke:#C82930;stroke-width:1.0;" width="6" x="822.5" y="327.8047"/><text fill="#000000" font-family="sans-serif" font-size="11" lengthAdjust="spacingAndGlyphs" textLength="104" x="834.5" y="334.0151">put(PlayController)</text><rect fill="#F24D5C" height="6" style="stroke:#C82930;stroke-width:1.0;" width="6" x="822.5" y="340.6094"/><text fill="#000000" font-family="sans-serif" font-size="11" lengthAdjust="spacingAndGlyphs" textLength="119" x="834.5" y="346.8198">move(PlayController)</text><!--MD5=[863eeac66a77264bd74e28cbddefcd23]
class tictactoe.views.console.ResumeView--><rect codeLine="59" fill="#FEFECE" filter="url(#fuvxceednxkwa)" height="60.8047" id="tictactoe.views.console.ResumeView" style="stroke:#A80036;stroke-width:1.5;" width="232" x="1005" y="279.5"/><ellipse cx="1078.25" cy="295.5" fill="#ADD1B2" rx="11" ry="11" style="stroke:#A80036;stroke-width:1.0;"/><path d="M1080.5938,291.1719 C1079.6563,290.7344 1079.0625,290.5938 1078.1875,290.5938 C1075.5625,290.5938 1073.5625,292.6719 1073.5625,295.3906 L1073.5625,296.5156 C1073.5625,299.0938 1075.6719,300.9844 1078.5625,300.9844 C1079.7813,300.9844 1080.9375,300.6875 1081.6875,300.1406 C1082.2656,299.7344 1082.5938,299.2813 1082.5938,298.8906 C1082.5938,298.4375 1082.2031,298.0469 1081.7344,298.0469 C1081.5156,298.0469 1081.3125,298.125 1081.125,298.3125 C1080.6719,298.7969 1080.6719,298.7969 1080.4844,298.8906 C1080.0625,299.1563 1079.375,299.2813 1078.6094,299.2813 C1076.5625,299.2813 1075.2656,298.1875 1075.2656,296.4844 L1075.2656,295.3906 C1075.2656,293.6094 1076.5156,292.2969 1078.25,292.2969 C1078.8281,292.2969 1079.4375,292.4531 1079.9063,292.7031 C1080.3906,292.9844 1080.5625,293.2031 1080.6563,293.6094 C1080.7188,294.0156 1080.75,294.1406 1080.8906,294.2656 C1081.0313,294.4063 1081.2656,294.5156 1081.4844,294.5156 C1081.75,294.5156 1082.0156,294.375 1082.1875,294.1563 C1082.2969,294 1082.3281,293.8125 1082.3281,293.3906 L1082.3281,291.9688 C1082.3281,291.5313 1082.3125,291.4063 1082.2188,291.25 C1082.0625,290.9844 1081.7813,290.8438 1081.4844,290.8438 C1081.1875,290.8438 1080.9844,290.9375 1080.7656,291.25 L1080.5938,291.1719 Z " fill="#000000"/><text fill="#000000" font-family="sans-serif" font-size="12" lengthAdjust="spacingAndGlyphs" textLength="77" x="1098.75" y="299.6543">ResumeView</text><line style="stroke:#A80036;stroke-width:1.5;" x1="1006" x2="1236" y1="311.5" y2="311.5"/><line style="stroke:#A80036;stroke-width:1.5;" x1="1006" x2="1236" y1="319.5" y2="319.5"/><polygon fill="#4177AF" points="1016,326.5,1012,332.5,1020,332.5" style="stroke:#1963A0;stroke-width:1.0;"/><text fill="#000000" font-family="sans-serif" font-size="11" lengthAdjust="spacingAndGlyphs" textLength="206" x="1025" y="333.7104">interact(ResumeController): boolean</text><!--MD5=[8830b246a550294711e6eb5af1606829]
class tictactoe.views.console.CoordinateView--><rect codeLine="23" fill="#FEFECE" filter="url(#fuvxceednxkwa)" height="60.8047" id="tictactoe.views.console.CoordinateView" style="stroke:#A80036;stroke-width:1.5;" width="162" x="758" y="133.5"/><ellipse cx="788.75" cy="149.5" fill="#ADD1B2" rx="11" ry="11" style="stroke:#A80036;stroke-width:1.0;"/><path d="M791.0938,145.1719 C790.1563,144.7344 789.5625,144.5938 788.6875,144.5938 C786.0625,144.5938 784.0625,146.6719 784.0625,149.3906 L784.0625,150.5156 C784.0625,153.0938 786.1719,154.9844 789.0625,154.9844 C790.2813,154.9844 791.4375,154.6875 792.1875,154.1406 C792.7656,153.7344 793.0938,153.2813 793.0938,152.8906 C793.0938,152.4375 792.7031,152.0469 792.2344,152.0469 C792.0156,152.0469 791.8125,152.125 791.625,152.3125 C791.1719,152.7969 791.1719,152.7969 790.9844,152.8906 C790.5625,153.1563 789.875,153.2813 789.1094,153.2813 C787.0625,153.2813 785.7656,152.1875 785.7656,150.4844 L785.7656,149.3906 C785.7656,147.6094 787.0156,146.2969 788.75,146.2969 C789.3281,146.2969 789.9375,146.4531 790.4063,146.7031 C790.8906,146.9844 791.0625,147.2031 791.1563,147.6094 C791.2188,148.0156 791.25,148.1406 791.3906,148.2656 C791.5313,148.4063 791.7656,148.5156 791.9844,148.5156 C792.25,148.5156 792.5156,148.375 792.6875,148.1563 C792.7969,148 792.8281,147.8125 792.8281,147.3906 L792.8281,145.9688 C792.8281,145.5313 792.8125,145.4063 792.7188,145.25 C792.5625,144.9844 792.2813,144.8438 791.9844,144.8438 C791.6875,144.8438 791.4844,144.9375 791.2656,145.25 L791.0938,145.1719 Z " fill="#000000"/><text fill="#000000" font-family="sans-serif" font-size="12" lengthAdjust="spacingAndGlyphs" textLength="95" x="806.25" y="153.6543">CoordinateView</text><line style="stroke:#A80036;stroke-width:1.5;" x1="759" x2="919" y1="165.5" y2="165.5"/><line style="stroke:#A80036;stroke-width:1.5;" x1="759" x2="919" y1="173.5" y2="173.5"/><ellipse cx="769" cy="184.5" fill="#84BE84" rx="3" ry="3" style="stroke:#038048;stroke-width:1.0;"/><text fill="#000000" font-family="sans-serif" font-size="11" lengthAdjust="spacingAndGlyphs" textLength="136" x="778" y="187.7104">read(String): Coordinate</text><!--MD5=[1ca4e66fd27a79cb5d7093d90b3139a4]
class tictactoe.views.console.ErrorView--><rect codeLine="31" fill="#FEFECE" filter="url(#fuvxceednxkwa)" height="73.6094" id="tictactoe.views.console.ErrorView" style="stroke:#A80036;stroke-width:1.5;" width="114" x="609" y="127"/><ellipse cx="634.35" cy="143" fill="#ADD1B2" rx="11" ry="11" style="stroke:#A80036;stroke-width:1.0;"/><path d="M636.6938,138.6719 C635.7563,138.2344 635.1625,138.0938 634.2875,138.0938 C631.6625,138.0938 629.6625,140.1719 629.6625,142.8906 L629.6625,144.0156 C629.6625,146.5938 631.7719,148.4844 634.6625,148.4844 C635.8813,148.4844 637.0375,148.1875 637.7875,147.6406 C638.3656,147.2344 638.6938,146.7813 638.6938,146.3906 C638.6938,145.9375 638.3031,145.5469 637.8344,145.5469 C637.6156,145.5469 637.4125,145.625 637.225,145.8125 C636.7719,146.2969 636.7719,146.2969 636.5844,146.3906 C636.1625,146.6563 635.475,146.7813 634.7094,146.7813 C632.6625,146.7813 631.3656,145.6875 631.3656,143.9844 L631.3656,142.8906 C631.3656,141.1094 632.6156,139.7969 634.35,139.7969 C634.9281,139.7969 635.5375,139.9531 636.0063,140.2031 C636.4906,140.4844 636.6625,140.7031 636.7563,141.1094 C636.8188,141.5156 636.85,141.6406 636.9906,141.7656 C637.1313,141.9063 637.3656,142.0156 637.5844,142.0156 C637.85,142.0156 638.1156,141.875 638.2875,141.6563 C638.3969,141.5 638.4281,141.3125 638.4281,140.8906 L638.4281,139.4688 C638.4281,139.0313 638.4125,138.9063 638.3188,138.75 C638.1625,138.4844 637.8813,138.3438 637.5844,138.3438 C637.2875,138.3438 637.0844,138.4375 636.8656,138.75 L636.6938,138.6719 Z " fill="#000000"/><text fill="#000000" font-family="sans-serif" font-size="12" lengthAdjust="spacingAndGlyphs" textLength="59" x="650.65" y="147.1543">ErrorView</text><line style="stroke:#A80036;stroke-width:1.5;" x1="610" x2="722" y1="159" y2="159"/><line style="stroke:#A80036;stroke-width:1.5;" x1="610" x2="722" y1="167" y2="167"/><polygon fill="#4177AF" points="620,174,616,180,624,180" style="stroke:#1963A0;stroke-width:1.0;"/><text fill="#000000" font-family="sans-serif" font-size="11" lengthAdjust="spacingAndGlyphs" textLength="88" x="629" y="181.2104">ErrorView(Error)</text><polygon fill="#4177AF" points="620,186.8047,616,192.8047,624,192.8047" style="stroke:#1963A0;stroke-width:1.0;"/><text fill="#000000" font-family="sans-serif" font-size="11" lengthAdjust="spacingAndGlyphs" textLength="46" x="629" y="194.0151">writeln()</text><!--MD5=[e933b4291156428da126c4c01236555b]
class tictactoe.views.console.GameView--><rect codeLine="39" fill="#FEFECE" filter="url(#fuvxceednxkwa)" height="73.6094" id="tictactoe.views.console.GameView" style="stroke:#A80036;stroke-width:1.5;" width="152" x="1122" y="127"/><ellipse cx="1162.2" cy="143" fill="#ADD1B2" rx="11" ry="11" style="stroke:#A80036;stroke-width:1.0;"/><path d="M1164.5438,138.6719 C1163.6063,138.2344 1163.0125,138.0938 1162.1375,138.0938 C1159.5125,138.0938 1157.5125,140.1719 1157.5125,142.8906 L1157.5125,144.0156 C1157.5125,146.5938 1159.6219,148.4844 1162.5125,148.4844 C1163.7313,148.4844 1164.8875,148.1875 1165.6375,147.6406 C1166.2156,147.2344 1166.5438,146.7813 1166.5438,146.3906 C1166.5438,145.9375 1166.1531,145.5469 1165.6844,145.5469 C1165.4656,145.5469 1165.2625,145.625 1165.075,145.8125 C1164.6219,146.2969 1164.6219,146.2969 1164.4344,146.3906 C1164.0125,146.6563 1163.325,146.7813 1162.5594,146.7813 C1160.5125,146.7813 1159.2156,145.6875 1159.2156,143.9844 L1159.2156,142.8906 C1159.2156,141.1094 1160.4656,139.7969 1162.2,139.7969 C1162.7781,139.7969 1163.3875,139.9531 1163.8563,140.2031 C1164.3406,140.4844 1164.5125,140.7031 1164.6063,141.1094 C1164.6688,141.5156 1164.7,141.6406 1164.8406,141.7656 C1164.9813,141.9063 1165.2156,142.0156 1165.4344,142.0156 C1165.7,142.0156 1165.9656,141.875 1166.1375,141.6563 C1166.2469,141.5 1166.2781,141.3125 1166.2781,140.8906 L1166.2781,139.4688 C1166.2781,139.0313 1166.2625,138.9063 1166.1688,138.75 C1166.0125,138.4844 1165.7313,138.3438 1165.4344,138.3438 C1165.1375,138.3438 1164.9344,138.4375 1164.7156,138.75 L1164.5438,138.6719 Z " fill="#000000"/><text fill="#000000" font-family="sans-serif" font-size="12" lengthAdjust="spacingAndGlyphs" textLength="64" x="1181.8" y="147.1543">GameView</text><line style="stroke:#A80036;stroke-width:1.5;" x1="1123" x2="1273" y1="159" y2="159"/><line style="stroke:#A80036;stroke-width:1.5;" x1="1123" x2="1273" y1="167" y2="167"/><polygon fill="#4177AF" points="1133,174,1129,180,1137,180" style="stroke:#1963A0;stroke-width:1.0;"/><text fill="#000000" font-family="sans-serif" font-size="11" lengthAdjust="spacingAndGlyphs" textLength="126" x="1142" y="181.2104">GameView(Controller)</text><polygon fill="#4177AF" points="1133,186.8047,1129,192.8047,1137,192.8047" style="stroke:#1963A0;stroke-width:1.0;"/><text fill="#000000" font-family="sans-serif" font-size="11" lengthAdjust="spacingAndGlyphs" textLength="36" x="1142" y="194.0151">write()</text><!--MD5=[85374d0a3ee4b3ef5b557089b06e5446]
class tictactoe.views.console.TokenView--><rect codeLine="73" fill="#FEFECE" filter="url(#fuvxceednxkwa)" height="86.4141" id="tictactoe.views.console.TokenView" style="stroke:#A80036;stroke-width:1.5;" width="132" x="442" y="121"/><ellipse cx="472.3" cy="137" fill="#ADD1B2" rx="11" ry="11" style="stroke:#A80036;stroke-width:1.0;"/><path d="M474.6438,132.6719 C473.7063,132.2344 473.1125,132.0938 472.2375,132.0938 C469.6125,132.0938 467.6125,134.1719 467.6125,136.8906 L467.6125,138.0156 C467.6125,140.5938 469.7219,142.4844 472.6125,142.4844 C473.8313,142.4844 474.9875,142.1875 475.7375,141.6406 C476.3156,141.2344 476.6438,140.7813 476.6438,140.3906 C476.6438,139.9375 476.2531,139.5469 475.7844,139.5469 C475.5656,139.5469 475.3625,139.625 475.175,139.8125 C474.7219,140.2969 474.7219,140.2969 474.5344,140.3906 C474.1125,140.6563 473.425,140.7813 472.6594,140.7813 C470.6125,140.7813 469.3156,139.6875 469.3156,137.9844 L469.3156,136.8906 C469.3156,135.1094 470.5656,133.7969 472.3,133.7969 C472.8781,133.7969 473.4875,133.9531 473.9563,134.2031 C474.4406,134.4844 474.6125,134.7031 474.7063,135.1094 C474.7688,135.5156 474.8,135.6406 474.9406,135.7656 C475.0813,135.9063 475.3156,136.0156 475.5344,136.0156 C475.8,136.0156 476.0656,135.875 476.2375,135.6563 C476.3469,135.5 476.3781,135.3125 476.3781,134.8906 L476.3781,133.4688 C476.3781,133.0313 476.3625,132.9063 476.2688,132.75 C476.1125,132.4844 475.8313,132.3438 475.5344,132.3438 C475.2375,132.3438 475.0344,132.4375 474.8156,132.75 L474.6438,132.6719 Z " fill="#000000"/><text fill="#000000" font-family="sans-serif" font-size="12" lengthAdjust="spacingAndGlyphs" textLength="66" x="489.7" y="141.1543">TokenView</text><line style="stroke:#A80036;stroke-width:1.5;" x1="443" x2="573" y1="153" y2="153"/><ellipse cx="453" cy="164" fill="none" rx="3" ry="3" style="stroke:#038048;stroke-width:1.0;"/><text fill="#000000" font-family="sans-serif" font-size="11" lengthAdjust="spacingAndGlyphs" text-decoration="underline" textLength="94" x="462" y="167.2104">SYMBOLS: char[]</text><line style="stroke:#A80036;stroke-width:1.5;" x1="443" x2="573" y1="173.8047" y2="173.8047"/><polygon fill="#4177AF" points="453,180.8047,449,186.8047,457,186.8047" style="stroke:#1963A0;stroke-width:1.0;"/><text fill="#000000" font-family="sans-serif" font-size="11" lengthAdjust="spacingAndGlyphs" textLength="106" x="462" y="188.0151">TokenView(Token)</text><polygon fill="#4177AF" points="453,193.6094,449,199.6094,457,199.6094" style="stroke:#1963A0;stroke-width:1.0;"/><text fill="#000000" font-family="sans-serif" font-size="11" lengthAdjust="spacingAndGlyphs" textLength="36" x="462" y="200.8198">write()</text><!--MD5=[b8cfd8c4119a3b0a7a46bfc5fc780f85]
class Error--><rect codeLine="1" fill="#FEFECE" filter="url(#fuvxceednxkwa)" height="53.9375" id="Error" style="stroke:#A80036;stroke-width:1.5;" width="135" x="172.5" y="413"/><ellipse cx="187.5" cy="431.9688" fill="#ADD1B2" rx="11" ry="11" style="stroke:#A80036;stroke-width:1.0;"/><path d="M189.8438,427.6406 C188.9063,427.2031 188.3125,427.0625 187.4375,427.0625 C184.8125,427.0625 182.8125,429.1406 182.8125,431.8594 L182.8125,432.9844 C182.8125,435.5625 184.9219,437.4531 187.8125,437.4531 C189.0313,437.4531 190.1875,437.1563 190.9375,436.6094 C191.5156,436.2031 191.8438,435.75 191.8438,435.3594 C191.8438,434.9063 191.4531,434.5156 190.9844,434.5156 C190.7656,434.5156 190.5625,434.5938 190.375,434.7813 C189.9219,435.2656 189.9219,435.2656 189.7344,435.3594 C189.3125,435.625 188.625,435.75 187.8594,435.75 C185.8125,435.75 184.5156,434.6563 184.5156,432.9531 L184.5156,431.8594 C184.5156,430.0781 185.7656,428.7656 187.5,428.7656 C188.0781,428.7656 188.6875,428.9219 189.1563,429.1719 C189.6406,429.4531 189.8125,429.6719 189.9063,430.0781 C189.9688,430.4844 190,430.6094 190.1406,430.7344 C190.2813,430.875 190.5156,430.9844 190.7344,430.9844 C191,430.9844 191.2656,430.8438 191.4375,430.625 C191.5469,430.4688 191.5781,430.2813 191.5781,429.8594 L191.5781,428.4375 C191.5781,428 191.5625,427.875 191.4688,427.7188 C191.3125,427.4531 191.0313,427.3125 190.7344,427.3125 C190.4375,427.3125 190.2344,427.4063 190.0156,427.7188 L189.8438,427.6406 Z " fill="#000000"/><text fill="#000000" font-family="sans-serif" font-size="12" lengthAdjust="spacingAndGlyphs" textLength="103" x="201.5" y="429.1387">tictactoe.models.</text><text fill="#000000" font-family="sans-serif" font-size="12" lengthAdjust="spacingAndGlyphs" textLength="30" x="238" y="443.1074">Error</text><line style="stroke:#A80036;stroke-width:1.5;" x1="173.5" x2="306.5" y1="450.9375" y2="450.9375"/><line style="stroke:#A80036;stroke-width:1.5;" x1="173.5" x2="306.5" y1="458.9375" y2="458.9375"/><!--MD5=[8c7d7abc12e214c3cc12c9ab70edee11]
class Coordinate--><rect codeLine="2" fill="#FEFECE" filter="url(#fuvxceednxkwa)" height="53.9375" id="Coordinate" style="stroke:#A80036;stroke-width:1.5;" width="135" x="1574.5" y="413"/><ellipse cx="1589.5" cy="431.9688" fill="#ADD1B2" rx="11" ry="11" style="stroke:#A80036;stroke-width:1.0;"/><path d="M1591.8438,427.6406 C1590.9063,427.2031 1590.3125,427.0625 1589.4375,427.0625 C1586.8125,427.0625 1584.8125,429.1406 1584.8125,431.8594 L1584.8125,432.9844 C1584.8125,435.5625 1586.9219,437.4531 1589.8125,437.4531 C1591.0313,437.4531 1592.1875,437.1563 1592.9375,436.6094 C1593.5156,436.2031 1593.8438,435.75 1593.8438,435.3594 C1593.8438,434.9063 1593.4531,434.5156 1592.9844,434.5156 C1592.7656,434.5156 1592.5625,434.5938 1592.375,434.7813 C1591.9219,435.2656 1591.9219,435.2656 1591.7344,435.3594 C1591.3125,435.625 1590.625,435.75 1589.8594,435.75 C1587.8125,435.75 1586.5156,434.6563 1586.5156,432.9531 L1586.5156,431.8594 C1586.5156,430.0781 1587.7656,428.7656 1589.5,428.7656 C1590.0781,428.7656 1590.6875,428.9219 1591.1563,429.1719 C1591.6406,429.4531 1591.8125,429.6719 1591.9063,430.0781 C1591.9688,430.4844 1592,430.6094 1592.1406,430.7344 C1592.2813,430.875 1592.5156,430.9844 1592.7344,430.9844 C1593,430.9844 1593.2656,430.8438 1593.4375,430.625 C1593.5469,430.4688 1593.5781,430.2813 1593.5781,429.8594 L1593.5781,428.4375 C1593.5781,428 1593.5625,427.875 1593.4688,427.7188 C1593.3125,427.4531 1593.0313,427.3125 1592.7344,427.3125 C1592.4375,427.3125 1592.2344,427.4063 1592.0156,427.7188 L1591.8438,427.6406 Z " fill="#000000"/><text fill="#000000" font-family="sans-serif" font-size="12" lengthAdjust="spacingAndGlyphs" textLength="103" x="1603.5" y="429.1387">tictactoe.models.</text><text fill="#000000" font-family="sans-serif" font-size="12" lengthAdjust="spacingAndGlyphs" textLength="66" x="1622" y="443.1074">Coordinate</text><line style="stroke:#A80036;stroke-width:1.5;" x1="1575.5" x2="1708.5" y1="450.9375" y2="450.9375"/><line style="stroke:#A80036;stroke-width:1.5;" x1="1575.5" x2="1708.5" y1="458.9375" y2="458.9375"/><!--MD5=[315b61b427ec618d6861d47eee00cca3]
class Console--><rect codeLine="3" fill="#FEFECE" filter="url(#fuvxceednxkwa)" height="53.9375" id="Console" style="stroke:#A80036;stroke-width:1.5;" width="130" x="7" y="413"/><ellipse cx="22" cy="431.9688" fill="#ADD1B2" rx="11" ry="11" style="stroke:#A80036;stroke-width:1.0;"/><path d="M24.3438,427.6406 C23.4063,427.2031 22.8125,427.0625 21.9375,427.0625 C19.3125,427.0625 17.3125,429.1406 17.3125,431.8594 L17.3125,432.9844 C17.3125,435.5625 19.4219,437.4531 22.3125,437.4531 C23.5313,437.4531 24.6875,437.1563 25.4375,436.6094 C26.0156,436.2031 26.3438,435.75 26.3438,435.3594 C26.3438,434.9063 25.9531,434.5156 25.4844,434.5156 C25.2656,434.5156 25.0625,434.5938 24.875,434.7813 C24.4219,435.2656 24.4219,435.2656 24.2344,435.3594 C23.8125,435.625 23.125,435.75 22.3594,435.75 C20.3125,435.75 19.0156,434.6563 19.0156,432.9531 L19.0156,431.8594 C19.0156,430.0781 20.2656,428.7656 22,428.7656 C22.5781,428.7656 23.1875,428.9219 23.6563,429.1719 C24.1406,429.4531 24.3125,429.6719 24.4063,430.0781 C24.4688,430.4844 24.5,430.6094 24.6406,430.7344 C24.7813,430.875 25.0156,430.9844 25.2344,430.9844 C25.5,430.9844 25.7656,430.8438 25.9375,430.625 C26.0469,430.4688 26.0781,430.2813 26.0781,429.8594 L26.0781,428.4375 C26.0781,428 26.0625,427.875 25.9688,427.7188 C25.8125,427.4531 25.5313,427.3125 25.2344,427.3125 C24.9375,427.3125 24.7344,427.4063 24.5156,427.7188 L24.3438,427.6406 Z " fill="#000000"/><text fill="#000000" font-family="sans-serif" font-size="12" lengthAdjust="spacingAndGlyphs" textLength="98" x="36" y="429.1387">usantatecla.utils.</text><text fill="#000000" font-family="sans-serif" font-size="12" lengthAdjust="spacingAndGlyphs" textLength="49" x="60.5" y="443.1074">Console</text><line style="stroke:#A80036;stroke-width:1.5;" x1="8" x2="136" y1="450.9375" y2="450.9375"/><line style="stroke:#A80036;stroke-width:1.5;" x1="8" x2="136" y1="458.9375" y2="458.9375"/><!--MD5=[1d7ba1c7002d54515419844fbd155368]
class Controller--><rect codeLine="4" fill="#FEFECE" filter="url(#fuvxceednxkwa)" height="53.9375" id="Controller" style="stroke:#A80036;stroke-width:1.5;" width="155" x="1343.5" y="283"/><ellipse cx="1358.5" cy="301.9688" fill="#ADD1B2" rx="11" ry="11" style="stroke:#A80036;stroke-width:1.0;"/><path d="M1360.8438,297.6406 C1359.9063,297.2031 1359.3125,297.0625 1358.4375,297.0625 C1355.8125,297.0625 1353.8125,299.1406 1353.8125,301.8594 L1353.8125,302.9844 C1353.8125,305.5625 1355.9219,307.4531 1358.8125,307.4531 C1360.0313,307.4531 1361.1875,307.1563 1361.9375,306.6094 C1362.5156,306.2031 1362.8438,305.75 1362.8438,305.3594 C1362.8438,304.9063 1362.4531,304.5156 1361.9844,304.5156 C1361.7656,304.5156 1361.5625,304.5938 1361.375,304.7813 C1360.9219,305.2656 1360.9219,305.2656 1360.7344,305.3594 C1360.3125,305.625 1359.625,305.75 1358.8594,305.75 C1356.8125,305.75 1355.5156,304.6563 1355.5156,302.9531 L1355.5156,301.8594 C1355.5156,300.0781 1356.7656,298.7656 1358.5,298.7656 C1359.0781,298.7656 1359.6875,298.9219 1360.1563,299.1719 C1360.6406,299.4531 1360.8125,299.6719 1360.9063,300.0781 C1360.9688,300.4844 1361,300.6094 1361.1406,300.7344 C1361.2813,300.875 1361.5156,300.9844 1361.7344,300.9844 C1362,300.9844 1362.2656,300.8438 1362.4375,300.625 C1362.5469,300.4688 1362.5781,300.2813 1362.5781,299.8594 L1362.5781,298.4375 C1362.5781,298 1362.5625,297.875 1362.4688,297.7188 C1362.3125,297.4531 1362.0313,297.3125 1361.7344,297.3125 C1361.4375,297.3125 1361.2344,297.4063 1361.0156,297.7188 L1360.8438,297.6406 Z " fill="#000000"/><text fill="#000000" font-family="sans-serif" font-size="12" lengthAdjust="spacingAndGlyphs" textLength="123" x="1372.5" y="299.1387">tictactoe.controllers.</text><text fill="#000000" font-family="sans-serif" font-size="12" lengthAdjust="spacingAndGlyphs" textLength="59" x="1404.5" y="313.1074">Controller</text><line style="stroke:#A80036;stroke-width:1.5;" x1="1344.5" x2="1497.5" y1="320.9375" y2="320.9375"/><line style="stroke:#A80036;stroke-width:1.5;" x1="1344.5" x2="1497.5" y1="328.9375" y2="328.9375"/><!--MD5=[cc8600b868f8dfab2c8d497bce62f90a]
class PlayController--><rect codeLine="5" fill="#FEFECE" filter="url(#fuvxceednxkwa)" height="53.9375" id="PlayController" style="stroke:#A80036;stroke-width:1.5;" width="155" x="868.5" y="413"/><ellipse cx="883.5" cy="431.9688" fill="#ADD1B2" rx="11" ry="11" style="stroke:#A80036;stroke-width:1.0;"/><path d="M885.8438,427.6406 C884.9063,427.2031 884.3125,427.0625 883.4375,427.0625 C880.8125,427.0625 878.8125,429.1406 878.8125,431.8594 L878.8125,432.9844 C878.8125,435.5625 880.9219,437.4531 883.8125,437.4531 C885.0313,437.4531 886.1875,437.1563 886.9375,436.6094 C887.5156,436.2031 887.8438,435.75 887.8438,435.3594 C887.8438,434.9063 887.4531,434.5156 886.9844,434.5156 C886.7656,434.5156 886.5625,434.5938 886.375,434.7813 C885.9219,435.2656 885.9219,435.2656 885.7344,435.3594 C885.3125,435.625 884.625,435.75 883.8594,435.75 C881.8125,435.75 880.5156,434.6563 880.5156,432.9531 L880.5156,431.8594 C880.5156,430.0781 881.7656,428.7656 883.5,428.7656 C884.0781,428.7656 884.6875,428.9219 885.1563,429.1719 C885.6406,429.4531 885.8125,429.6719 885.9063,430.0781 C885.9688,430.4844 886,430.6094 886.1406,430.7344 C886.2813,430.875 886.5156,430.9844 886.7344,430.9844 C887,430.9844 887.2656,430.8438 887.4375,430.625 C887.5469,430.4688 887.5781,430.2813 887.5781,429.8594 L887.5781,428.4375 C887.5781,428 887.5625,427.875 887.4688,427.7188 C887.3125,427.4531 887.0313,427.3125 886.7344,427.3125 C886.4375,427.3125 886.2344,427.4063 886.0156,427.7188 L885.8438,427.6406 Z " fill="#000000"/><text fill="#000000" font-family="sans-serif" font-size="12" lengthAdjust="spacingAndGlyphs" textLength="123" x="897.5" y="429.1387">tictactoe.controllers.</text><text fill="#000000" font-family="sans-serif" font-size="12" lengthAdjust="spacingAndGlyphs" textLength="82" x="918" y="443.1074">PlayController</text><line style="stroke:#A80036;stroke-width:1.5;" x1="869.5" x2="1022.5" y1="450.9375" y2="450.9375"/><line style="stroke:#A80036;stroke-width:1.5;" x1="869.5" x2="1022.5" y1="458.9375" y2="458.9375"/><!--MD5=[1a47bbf44ccee225df9b18c5b6629853]
class ResumeController--><rect codeLine="6" fill="#FEFECE" filter="url(#fuvxceednxkwa)" height="53.9375" id="ResumeController" style="stroke:#A80036;stroke-width:1.5;" width="155" x="1218.5" y="413"/><ellipse cx="1233.5" cy="431.9688" fill="#ADD1B2" rx="11" ry="11" style="stroke:#A80036;stroke-width:1.0;"/><path d="M1235.8438,427.6406 C1234.9063,427.2031 1234.3125,427.0625 1233.4375,427.0625 C1230.8125,427.0625 1228.8125,429.1406 1228.8125,431.8594 L1228.8125,432.9844 C1228.8125,435.5625 1230.9219,437.4531 1233.8125,437.4531 C1235.0313,437.4531 1236.1875,437.1563 1236.9375,436.6094 C1237.5156,436.2031 1237.8438,435.75 1237.8438,435.3594 C1237.8438,434.9063 1237.4531,434.5156 1236.9844,434.5156 C1236.7656,434.5156 1236.5625,434.5938 1236.375,434.7813 C1235.9219,435.2656 1235.9219,435.2656 1235.7344,435.3594 C1235.3125,435.625 1234.625,435.75 1233.8594,435.75 C1231.8125,435.75 1230.5156,434.6563 1230.5156,432.9531 L1230.5156,431.8594 C1230.5156,430.0781 1231.7656,428.7656 1233.5,428.7656 C1234.0781,428.7656 1234.6875,428.9219 1235.1563,429.1719 C1235.6406,429.4531 1235.8125,429.6719 1235.9063,430.0781 C1235.9688,430.4844 1236,430.6094 1236.1406,430.7344 C1236.2813,430.875 1236.5156,430.9844 1236.7344,430.9844 C1237,430.9844 1237.2656,430.8438 1237.4375,430.625 C1237.5469,430.4688 1237.5781,430.2813 1237.5781,429.8594 L1237.5781,428.4375 C1237.5781,428 1237.5625,427.875 1237.4688,427.7188 C1237.3125,427.4531 1237.0313,427.3125 1236.7344,427.3125 C1236.4375,427.3125 1236.2344,427.4063 1236.0156,427.7188 L1235.8438,427.6406 Z " fill="#000000"/><text fill="#000000" font-family="sans-serif" font-size="12" lengthAdjust="spacingAndGlyphs" textLength="123" x="1247.5" y="429.1387">tictactoe.controllers.</text><text fill="#000000" font-family="sans-serif" font-size="12" lengthAdjust="spacingAndGlyphs" textLength="107" x="1255.5" y="443.1074">ResumeController</text><line style="stroke:#A80036;stroke-width:1.5;" x1="1219.5" x2="1372.5" y1="450.9375" y2="450.9375"/><line style="stroke:#A80036;stroke-width:1.5;" x1="1219.5" x2="1372.5" y1="458.9375" y2="458.9375"/><!--MD5=[d93cf99d2b92276f27fe8dbf15140505]
class YesNoDialog--><rect codeLine="7" fill="#FEFECE" filter="url(#fuvxceednxkwa)" height="53.9375" id="YesNoDialog" style="stroke:#A80036;stroke-width:1.5;" width="130" x="1409" y="413"/><ellipse cx="1424" cy="431.9688" fill="#ADD1B2" rx="11" ry="11" style="stroke:#A80036;stroke-width:1.0;"/><path d="M1426.3438,427.6406 C1425.4063,427.2031 1424.8125,427.0625 1423.9375,427.0625 C1421.3125,427.0625 1419.3125,429.1406 1419.3125,431.8594 L1419.3125,432.9844 C1419.3125,435.5625 1421.4219,437.4531 1424.3125,437.4531 C1425.5313,437.4531 1426.6875,437.1563 1427.4375,436.6094 C1428.0156,436.2031 1428.3438,435.75 1428.3438,435.3594 C1428.3438,434.9063 1427.9531,434.5156 1427.4844,434.5156 C1427.2656,434.5156 1427.0625,434.5938 1426.875,434.7813 C1426.4219,435.2656 1426.4219,435.2656 1426.2344,435.3594 C1425.8125,435.625 1425.125,435.75 1424.3594,435.75 C1422.3125,435.75 1421.0156,434.6563 1421.0156,432.9531 L1421.0156,431.8594 C1421.0156,430.0781 1422.2656,428.7656 1424,428.7656 C1424.5781,428.7656 1425.1875,428.9219 1425.6563,429.1719 C1426.1406,429.4531 1426.3125,429.6719 1426.4063,430.0781 C1426.4688,430.4844 1426.5,430.6094 1426.6406,430.7344 C1426.7813,430.875 1427.0156,430.9844 1427.2344,430.9844 C1427.5,430.9844 1427.7656,430.8438 1427.9375,430.625 C1428.0469,430.4688 1428.0781,430.2813 1428.0781,429.8594 L1428.0781,428.4375 C1428.0781,428 1428.0625,427.875 1427.9688,427.7188 C1427.8125,427.4531 1427.5313,427.3125 1427.2344,427.3125 C1426.9375,427.3125 1426.7344,427.4063 1426.5156,427.7188 L1426.3438,427.6406 Z " fill="#000000"/><text fill="#000000" font-family="sans-serif" font-size="12" lengthAdjust="spacingAndGlyphs" textLength="98" x="1438" y="429.1387">usantatecla.utils.</text><text fill="#000000" font-family="sans-serif" font-size="12" lengthAdjust="spacingAndGlyphs" textLength="76" x="1449" y="443.1074">YesNoDialog</text><line style="stroke:#A80036;stroke-width:1.5;" x1="1410" x2="1538" y1="450.9375" y2="450.9375"/><line style="stroke:#A80036;stroke-width:1.5;" x1="1410" x2="1538" y1="458.9375" y2="458.9375"/><!--MD5=[47c371471411cfedeee61b1a5bdaee47]
class StartController--><rect codeLine="8" fill="#FEFECE" filter="url(#fuvxceednxkwa)" height="53.9375" id="StartController" style="stroke:#A80036;stroke-width:1.5;" width="155" x="678.5" y="413"/><ellipse cx="693.5" cy="431.9688" fill="#ADD1B2" rx="11" ry="11" style="stroke:#A80036;stroke-width:1.0;"/><path d="M695.8438,427.6406 C694.9063,427.2031 694.3125,427.0625 693.4375,427.0625 C690.8125,427.0625 688.8125,429.1406 688.8125,431.8594 L688.8125,432.9844 C688.8125,435.5625 690.9219,437.4531 693.8125,437.4531 C695.0313,437.4531 696.1875,437.1563 696.9375,436.6094 C697.5156,436.2031 697.8438,435.75 697.8438,435.3594 C697.8438,434.9063 697.4531,434.5156 696.9844,434.5156 C696.7656,434.5156 696.5625,434.5938 696.375,434.7813 C695.9219,435.2656 695.9219,435.2656 695.7344,435.3594 C695.3125,435.625 694.625,435.75 693.8594,435.75 C691.8125,435.75 690.5156,434.6563 690.5156,432.9531 L690.5156,431.8594 C690.5156,430.0781 691.7656,428.7656 693.5,428.7656 C694.0781,428.7656 694.6875,428.9219 695.1563,429.1719 C695.6406,429.4531 695.8125,429.6719 695.9063,430.0781 C695.9688,430.4844 696,430.6094 696.1406,430.7344 C696.2813,430.875 696.5156,430.9844 696.7344,430.9844 C697,430.9844 697.2656,430.8438 697.4375,430.625 C697.5469,430.4688 697.5781,430.2813 697.5781,429.8594 L697.5781,428.4375 C697.5781,428 697.5625,427.875 697.4688,427.7188 C697.3125,427.4531 697.0313,427.3125 696.7344,427.3125 C696.4375,427.3125 696.2344,427.4063 696.0156,427.7188 L695.8438,427.6406 Z " fill="#000000"/><text fill="#000000" font-family="sans-serif" font-size="12" lengthAdjust="spacingAndGlyphs" textLength="123" x="707.5" y="429.1387">tictactoe.controllers.</text><text fill="#000000" font-family="sans-serif" font-size="12" lengthAdjust="spacingAndGlyphs" textLength="87" x="725.5" y="443.1074">StartController</text><line style="stroke:#A80036;stroke-width:1.5;" x1="679.5" x2="832.5" y1="450.9375" y2="450.9375"/><line style="stroke:#A80036;stroke-width:1.5;" x1="679.5" x2="832.5" y1="458.9375" y2="458.9375"/><!--MD5=[58767b3ac92ed88fc68bd4b9dc66dad3]
class LimitedIntDialog--><rect codeLine="9" fill="#FEFECE" filter="url(#fuvxceednxkwa)" height="53.9375" id="LimitedIntDialog" style="stroke:#A80036;stroke-width:1.5;" width="130" x="343" y="413"/><ellipse cx="358" cy="431.9688" fill="#ADD1B2" rx="11" ry="11" style="stroke:#A80036;stroke-width:1.0;"/><path d="M360.3438,427.6406 C359.4063,427.2031 358.8125,427.0625 357.9375,427.0625 C355.3125,427.0625 353.3125,429.1406 353.3125,431.8594 L353.3125,432.9844 C353.3125,435.5625 355.4219,437.4531 358.3125,437.4531 C359.5313,437.4531 360.6875,437.1563 361.4375,436.6094 C362.0156,436.2031 362.3438,435.75 362.3438,435.3594 C362.3438,434.9063 361.9531,434.5156 361.4844,434.5156 C361.2656,434.5156 361.0625,434.5938 360.875,434.7813 C360.4219,435.2656 360.4219,435.2656 360.2344,435.3594 C359.8125,435.625 359.125,435.75 358.3594,435.75 C356.3125,435.75 355.0156,434.6563 355.0156,432.9531 L355.0156,431.8594 C355.0156,430.0781 356.2656,428.7656 358,428.7656 C358.5781,428.7656 359.1875,428.9219 359.6563,429.1719 C360.1406,429.4531 360.3125,429.6719 360.4063,430.0781 C360.4688,430.4844 360.5,430.6094 360.6406,430.7344 C360.7813,430.875 361.0156,430.9844 361.2344,430.9844 C361.5,430.9844 361.7656,430.8438 361.9375,430.625 C362.0469,430.4688 362.0781,430.2813 362.0781,429.8594 L362.0781,428.4375 C362.0781,428 362.0625,427.875 361.9688,427.7188 C361.8125,427.4531 361.5313,427.3125 361.2344,427.3125 C360.9375,427.3125 360.7344,427.4063 360.5156,427.7188 L360.3438,427.6406 Z " fill="#000000"/><text fill="#000000" font-family="sans-serif" font-size="12" lengthAdjust="spacingAndGlyphs" textLength="98" x="372" y="429.1387">usantatecla.utils.</text><text fill="#000000" font-family="sans-serif" font-size="12" lengthAdjust="spacingAndGlyphs" textLength="95" x="373.5" y="443.1074">LimitedIntDialog</text><line style="stroke:#A80036;stroke-width:1.5;" x1="344" x2="472" y1="450.9375" y2="450.9375"/><line style="stroke:#A80036;stroke-width:1.5;" x1="344" x2="472" y1="458.9375" y2="458.9375"/><!--MD5=[d8c8cfd5ca149094f5b67f9f607a5ec7]
class Token--><rect codeLine="10" fill="#FEFECE" filter="url(#fuvxceednxkwa)" height="53.9375" id="Token" style="stroke:#A80036;stroke-width:1.5;" width="135" x="508.5" y="413"/><ellipse cx="523.5" cy="431.9688" fill="#ADD1B2" rx="11" ry="11" style="stroke:#A80036;stroke-width:1.0;"/><path d="M525.8438,427.6406 C524.9063,427.2031 524.3125,427.0625 523.4375,427.0625 C520.8125,427.0625 518.8125,429.1406 518.8125,431.8594 L518.8125,432.9844 C518.8125,435.5625 520.9219,437.4531 523.8125,437.4531 C525.0313,437.4531 526.1875,437.1563 526.9375,436.6094 C527.5156,436.2031 527.8438,435.75 527.8438,435.3594 C527.8438,434.9063 527.4531,434.5156 526.9844,434.5156 C526.7656,434.5156 526.5625,434.5938 526.375,434.7813 C525.9219,435.2656 525.9219,435.2656 525.7344,435.3594 C525.3125,435.625 524.625,435.75 523.8594,435.75 C521.8125,435.75 520.5156,434.6563 520.5156,432.9531 L520.5156,431.8594 C520.5156,430.0781 521.7656,428.7656 523.5,428.7656 C524.0781,428.7656 524.6875,428.9219 525.1563,429.1719 C525.6406,429.4531 525.8125,429.6719 525.9063,430.0781 C525.9688,430.4844 526,430.6094 526.1406,430.7344 C526.2813,430.875 526.5156,430.9844 526.7344,430.9844 C527,430.9844 527.2656,430.8438 527.4375,430.625 C527.5469,430.4688 527.5781,430.2813 527.5781,429.8594 L527.5781,428.4375 C527.5781,428 527.5625,427.875 527.4688,427.7188 C527.3125,427.4531 527.0313,427.3125 526.7344,427.3125 C526.4375,427.3125 526.2344,427.4063 526.0156,427.7188 L525.8438,427.6406 Z " fill="#000000"/><text fill="#000000" font-family="sans-serif" font-size="12" lengthAdjust="spacingAndGlyphs" textLength="103" x="537.5" y="429.1387">tictactoe.models.</text><text fill="#000000" font-family="sans-serif" font-size="12" lengthAdjust="spacingAndGlyphs" textLength="37" x="570.5" y="443.1074">Token</text><line style="stroke:#A80036;stroke-width:1.5;" x1="509.5" x2="642.5" y1="450.9375" y2="450.9375"/><line style="stroke:#A80036;stroke-width:1.5;" x1="509.5" x2="642.5" y1="458.9375" y2="458.9375"/><!--MD5=[bea5b0d46523efab5ea1c1d339f396f0]
class Message--><rect codeLine="11" fill="#FEFECE" filter="url(#fuvxceednxkwa)" height="53.9375" id="Message" style="stroke:#A80036;stroke-width:1.5;" width="125" x="1058.5" y="413"/><ellipse cx="1073.5" cy="431.9688" fill="#ADD1B2" rx="11" ry="11" style="stroke:#A80036;stroke-width:1.0;"/><path d="M1075.8438,427.6406 C1074.9063,427.2031 1074.3125,427.0625 1073.4375,427.0625 C1070.8125,427.0625 1068.8125,429.1406 1068.8125,431.8594 L1068.8125,432.9844 C1068.8125,435.5625 1070.9219,437.4531 1073.8125,437.4531 C1075.0313,437.4531 1076.1875,437.1563 1076.9375,436.6094 C1077.5156,436.2031 1077.8438,435.75 1077.8438,435.3594 C1077.8438,434.9063 1077.4531,434.5156 1076.9844,434.5156 C1076.7656,434.5156 1076.5625,434.5938 1076.375,434.7813 C1075.9219,435.2656 1075.9219,435.2656 1075.7344,435.3594 C1075.3125,435.625 1074.625,435.75 1073.8594,435.75 C1071.8125,435.75 1070.5156,434.6563 1070.5156,432.9531 L1070.5156,431.8594 C1070.5156,430.0781 1071.7656,428.7656 1073.5,428.7656 C1074.0781,428.7656 1074.6875,428.9219 1075.1563,429.1719 C1075.6406,429.4531 1075.8125,429.6719 1075.9063,430.0781 C1075.9688,430.4844 1076,430.6094 1076.1406,430.7344 C1076.2813,430.875 1076.5156,430.9844 1076.7344,430.9844 C1077,430.9844 1077.2656,430.8438 1077.4375,430.625 C1077.5469,430.4688 1077.5781,430.2813 1077.5781,429.8594 L1077.5781,428.4375 C1077.5781,428 1077.5625,427.875 1077.4688,427.7188 C1077.3125,427.4531 1077.0313,427.3125 1076.7344,427.3125 C1076.4375,427.3125 1076.2344,427.4063 1076.0156,427.7188 L1075.8438,427.6406 Z " fill="#000000"/><text fill="#000000" font-family="sans-serif" font-size="12" lengthAdjust="spacingAndGlyphs" textLength="93" x="1087.5" y="429.1387">tictactoe.views.</text><text fill="#000000" font-family="sans-serif" font-size="12" lengthAdjust="spacingAndGlyphs" textLength="55" x="1106.5" y="443.1074">Message</text><line style="stroke:#A80036;stroke-width:1.5;" x1="1059.5" x2="1182.5" y1="450.9375" y2="450.9375"/><line style="stroke:#A80036;stroke-width:1.5;" x1="1059.5" x2="1182.5" y1="458.9375" y2="458.9375"/><!--MD5=[86cec68673cafdfc1c204348d5b2cca6]
class ErrorView--><rect codeLine="12" fill="#FEFECE" filter="url(#fuvxceednxkwa)" height="53.9375" id="ErrorView" style="stroke:#A80036;stroke-width:1.5;" width="125" x="603.5" y="7"/><ellipse cx="618.5" cy="25.9688" fill="#ADD1B2" rx="11" ry="11" style="stroke:#A80036;stroke-width:1.0;"/><path d="M620.8438,21.6406 C619.9063,21.2031 619.3125,21.0625 618.4375,21.0625 C615.8125,21.0625 613.8125,23.1406 613.8125,25.8594 L613.8125,26.9844 C613.8125,29.5625 615.9219,31.4531 618.8125,31.4531 C620.0313,31.4531 621.1875,31.1563 621.9375,30.6094 C622.5156,30.2031 622.8438,29.75 622.8438,29.3594 C622.8438,28.9063 622.4531,28.5156 621.9844,28.5156 C621.7656,28.5156 621.5625,28.5938 621.375,28.7813 C620.9219,29.2656 620.9219,29.2656 620.7344,29.3594 C620.3125,29.625 619.625,29.75 618.8594,29.75 C616.8125,29.75 615.5156,28.6563 615.5156,26.9531 L615.5156,25.8594 C615.5156,24.0781 616.7656,22.7656 618.5,22.7656 C619.0781,22.7656 619.6875,22.9219 620.1563,23.1719 C620.6406,23.4531 620.8125,23.6719 620.9063,24.0781 C620.9688,24.4844 621,24.6094 621.1406,24.7344 C621.2813,24.875 621.5156,24.9844 621.7344,24.9844 C622,24.9844 622.2656,24.8438 622.4375,24.625 C622.5469,24.4688 622.5781,24.2813 622.5781,23.8594 L622.5781,22.4375 C622.5781,22 622.5625,21.875 622.4688,21.7188 C622.3125,21.4531 622.0313,21.3125 621.7344,21.3125 C621.4375,21.3125 621.2344,21.4063 621.0156,21.7188 L620.8438,21.6406 Z " fill="#000000"/><text fill="#000000" font-family="sans-serif" font-size="12" lengthAdjust="spacingAndGlyphs" textLength="93" x="632.5" y="23.1387">tictactoe.views.</text><text fill="#000000" font-family="sans-serif" font-size="12" lengthAdjust="spacingAndGlyphs" textLength="59" x="649.5" y="37.1074">ErrorView</text><line style="stroke:#A80036;stroke-width:1.5;" x1="604.5" x2="727.5" y1="44.9375" y2="44.9375"/><line style="stroke:#A80036;stroke-width:1.5;" x1="604.5" x2="727.5" y1="52.9375" y2="52.9375"/><!--MD5=[9113815f8bbc012213d6467f94b3dc5b]
link tictactoe.views.console.ConsoleView to tictactoe.views.console.StartView--><path codeLine="18" d="M943.9562,204.0057 C943.9562,204.0057 938.925,206.195 937,207 C868.977,235.456 789.94,262.154 730.217,281.093 " fill="none" id="tictactoe.views.console.ConsoleView-tictactoe.views.console.StartView" style="stroke:#A80036;stroke-width:1.0;"/><polygon fill="#A80036" points="717.776,285.015,727.5622,286.124,722.5447,283.5117,725.157,278.4941,717.776,285.015" style="stroke:#A80036;stroke-width:1.0;"/><line style="stroke:#A80036;stroke-width:1.0;" x1="722.5447" x2="730.175" y1="283.5117" y2="281.1065"/><polygon fill="#A80036" points="954.9,199.083,947.7872,197.8964,943.9562,204.0057,951.069,205.1923,954.9,199.083" style="stroke:#A80036;stroke-width:1.0;"/><!--MD5=[1735144fa38f1aa47117a26d071db586]
link tictactoe.views.console.ConsoleView to tictactoe.views.console.PlayView--><path codeLine="19" d="M980.441,210.275 C980.441,210.275 952.056,241.961 938.787,256.772 " fill="none" id="tictactoe.views.console.ConsoleView-tictactoe.views.console.PlayView" style="stroke:#A80036;stroke-width:1.0;"/><polygon fill="#A80036" points="929.805,266.799,938.7896,262.7645,933.1413,263.0748,932.8309,257.4265,929.805,266.799" style="stroke:#A80036;stroke-width:1.0;"/><line style="stroke:#A80036;stroke-width:1.0;" x1="933.1413" x2="938.48" y1="263.0748" y2="257.116"/><polygon fill="#A80036" points="988.448,201.337,981.4652,203.137,980.441,210.275,987.4238,208.475,988.448,201.337" style="stroke:#A80036;stroke-width:1.0;"/><!--MD5=[a983e760d9bef84c565434062749d875]
link tictactoe.views.console.ConsoleView to tictactoe.views.console.ResumeView--><path codeLine="20" d="M1053.0708,211.1962 C1053.0708,211.1962 1080.7,250.97 1092.85,268.464 " fill="none" id="tictactoe.views.console.ConsoleView-tictactoe.views.console.ResumeView" style="stroke:#A80036;stroke-width:1.0;"/><polygon fill="#A80036" points="1100.48,279.458,1098.6349,269.7835,1097.6293,275.3503,1092.0625,274.3446,1100.48,279.458" style="stroke:#A80036;stroke-width:1.0;"/><line style="stroke:#A80036;stroke-width:1.0;" x1="1097.6293" x2="1093.07" y1="275.3503" y2="268.7795"/><polygon fill="#A80036" points="1046.23,201.337,1046.364,208.5469,1053.0708,211.1962,1052.9368,203.9863,1046.23,201.337" style="stroke:#A80036;stroke-width:1.0;"/><!--MD5=[85f245ef36a3f8c430e482e5bef25ade]
link tictactoe.views.console.ConsoleView to Controller--><path codeLine="21" d="M1087.08,199.852 C1092.74,202.405 1098.43,204.827 1104,207 C1195.22,242.605 1223.3,235.44 1316,267 C1328.39,271.218 1341.44,276.086 1353.98,280.981 " fill="none" id="tictactoe.views.console.ConsoleView-to-Controller" style="stroke:#A80036;stroke-width:1.0;stroke-dasharray:7.0,7.0;"/><polygon fill="#A80036" points="1358.94,282.93,1352.0267,275.9153,1354.2865,281.1012,1349.1006,283.3609,1358.94,282.93" style="stroke:#A80036;stroke-width:1.0;"/><!--MD5=[a06a410d0f6c1be87ea9d2d5c8f79243]
link tictactoe.views.console.CoordinateView to Console--><path codeLine="27" d="M775.661,194.581 C763.982,199.254 751.759,203.643 740,207 C573.9,254.424 511.962,192.744 356,267 C290.082,298.385 296.256,338.863 234,377 C217.78,386.9361 178.119,402.1636 142.102,415.0407 " fill="none" id="tictactoe.views.console.CoordinateView-to-Console" style="stroke:#A80036;stroke-width:1.0;stroke-dasharray:7.0,7.0;"/><polygon fill="#A80036" points="137.275,416.7603,147.0955,417.5068,141.9848,415.0818,144.4099,409.9711,137.275,416.7603" style="stroke:#A80036;stroke-width:1.0;"/><!--MD5=[3ea4caf7e48eaae8f655dde5cd3263f2]
link tictactoe.views.console.CoordinateView to Error--><path codeLine="28" d="M772.023,194.57 C761.385,198.931 750.447,203.222 740,207 C653.13,238.418 625.369,229.378 541,267 C455.026,305.338 442.087,330.923 360,377 C339.659,388.418 317.006,400.3241 296.911,410.6148 " fill="none" id="tictactoe.views.console.CoordinateView-to-Error" style="stroke:#A80036;stroke-width:1.0;stroke-dasharray:7.0,7.0;"/><polygon fill="#A80036" points="292.397,412.9211,302.2314,412.3868,296.8492,410.6455,298.5904,405.2633,292.397,412.9211" style="stroke:#A80036;stroke-width:1.0;"/><!--MD5=[6e79601aef612c06e9891b4875f898f3]
link tictactoe.views.console.CoordinateView to Coordinate--><path codeLine="29" d="M902.565,194.607 C913.878,199.192 925.668,203.545 937,207 C1074.16,248.823 1134.78,187.325 1254,267 C1302.58,299.467 1276.91,345.309 1326,377 C1412.93,433.1166 1455.13,389.9738 1556,413 C1560.36,413.9942 1564.81,415.0914 1569.29,416.256 " fill="none" id="tictactoe.views.console.CoordinateView-to-Coordinate" style="stroke:#A80036;stroke-width:1.0;stroke-dasharray:7.0,7.0;"/><polygon fill="#A80036" points="1574.16,417.5446,1566.4907,411.3655,1569.328,416.2593,1564.4342,419.0967,1574.16,417.5446" style="stroke:#A80036;stroke-width:1.0;"/><!--MD5=[5e3154eeb00ff673e3597b7a5033dd40]
link tictactoe.views.console.ErrorView to Error--><path codeLine="35" d="M608.836,198.476 C602.89,201.515 596.874,204.416 591,207 C513.04,241.299 481.328,222.024 409,267 C347.43,305.286 291.819,370.4908 262.283,408.6691 " fill="none" id="tictactoe.views.console.ErrorView-to-Error" style="stroke:#A80036;stroke-width:1.0;stroke-dasharray:7.0,7.0;"/><polygon fill="#A80036" points="259.16,412.7321,267.8172,408.0361,262.208,408.7685,261.4755,403.1593,259.16,412.7321" style="stroke:#A80036;stroke-width:1.0;"/><!--MD5=[8ec17c1eeb1fabb729f4f45734e470f6]
link tictactoe.views.console.ErrorView to Console--><path codeLine="36" d="M608.73,199.456 C602.857,202.262 596.885,204.842 591,207 C460.062,255.01 409.288,207.83 283,267 C207.959,302.159 136.727,369.8464 99.2901,409.0079 " fill="none" id="tictactoe.views.console.ErrorView-to-Console" style="stroke:#A80036;stroke-width:1.0;stroke-dasharray:7.0,7.0;"/><polygon fill="#A80036" points="95.7737,412.7067,104.8739,408.9402,99.2188,409.083,99.076,403.428,95.7737,412.7067" style="stroke:#A80036;stroke-width:1.0;"/><!--MD5=[09df14cf147ebf3fa601d40955ce3c27]
reverse link ErrorView to tictactoe.views.console.ErrorView--><path codeLine="37" d="M666,81.321 C666,96.237 666,112.542 666,126.635 " fill="none" id="ErrorView-backto-tictactoe.views.console.ErrorView" style="stroke:#A80036;stroke-width:1.0;"/><polygon fill="none" points="659,81.212,666,61.212,673,81.212,659,81.212" style="stroke:#A80036;stroke-width:1.0;"/><!--MD5=[cd0d4672137ef597b8c17bafce16f393]
link tictactoe.views.console.GameView to Controller--><path codeLine="44" d="M1264.0649,207.6544 C1264.0649,207.6544 1338.53,255.747 1369.49,275.739 " fill="none" id="tictactoe.views.console.GameView-Controller" style="stroke:#A80036;stroke-width:1.0;"/><polygon fill="#A80036" points="1380.47,282.829,1375.0822,274.5845,1376.2706,280.1151,1370.74,281.3035,1380.47,282.829" style="stroke:#A80036;stroke-width:1.0;"/><line style="stroke:#A80036;stroke-width:1.0;" x1="1376.2706" x2="1369.55" y1="280.1151" y2="275.777"/><polygon fill="#A80036" points="1253.98,201.151,1256.8547,207.7643,1264.0649,207.6544,1261.1903,201.0411,1253.98,201.151" style="stroke:#A80036;stroke-width:1.0;"/><!--MD5=[0e43d69a696b22bc5281d1cc9667df5e]
link tictactoe.views.console.GameView to Coordinate--><path codeLine="45" d="M1274.21,169.391 C1352.37,177.557 1473.57,200.826 1554,267 C1598.74,303.814 1623.17,369.262 1634.33,407.9381 " fill="none" id="tictactoe.views.console.GameView-to-Coordinate" style="stroke:#A80036;stroke-width:1.0;stroke-dasharray:7.0,7.0;"/><polygon fill="#A80036" points="1635.75,412.9806,1637.1562,403.2326,1634.3925,408.1684,1629.4567,405.4047,1635.75,412.9806" style="stroke:#A80036;stroke-width:1.0;"/><!--MD5=[08b09d3eac180f3c67266adaed935b89]
link tictactoe.views.console.GameView to Message--><path codeLine="46" d="M1274.15,165.558 C1349.4,170.685 1460.99,191.585 1516,267 C1544.81,306.498 1548.55,340.52 1516,377 C1469.09,429.5721 1269.85,398.0365 1201,413 C1196.9,413.8917 1192.71,414.9111 1188.5,416.0181 " fill="none" id="tictactoe.views.console.GameView-to-Message" style="stroke:#A80036;stroke-width:1.0;stroke-dasharray:7.0,7.0;"/><polygon fill="#A80036" points="1183.56,417.3556,1193.2906,418.8771,1188.3879,416.0552,1191.2099,411.1525,1183.56,417.3556" style="stroke:#A80036;stroke-width:1.0;"/><!--MD5=[a10986738d33eef60265d57fa5080b93]
link tictactoe.views.console.PlayView to PlayController--><path codeLine="54" d="M909.831,353.267 C917.348,371.0847 925.941,391.453 932.865,407.8645 " fill="none" id="tictactoe.views.console.PlayView-to-PlayController" style="stroke:#A80036;stroke-width:1.0;stroke-dasharray:7.0,7.0;"/><polygon fill="#A80036" points="934.957,412.8235,935.1443,402.9764,933.0136,408.2167,927.7733,406.0859,934.957,412.8235" style="stroke:#A80036;stroke-width:1.0;"/><!--MD5=[3b49bdf6c7f6ce83eed251a9af28dbf3]
link tictactoe.views.console.PlayView to Coordinate--><path codeLine="55" d="M941.951,353.173 C955.739,362.652 971.259,371.517 987,377 C1106.65,418.6763 1431.31,390.5186 1556,413 C1560.4,413.7927 1564.89,414.7335 1569.39,415.7792 " fill="none" id="tictactoe.views.console.PlayView-to-Coordinate" style="stroke:#A80036;stroke-width:1.0;stroke-dasharray:7.0,7.0;"/><polygon fill="#A80036" points="1574.28,416.9532,1566.4673,410.9564,1569.4191,415.782,1564.5934,418.7338,1574.28,416.9532" style="stroke:#A80036;stroke-width:1.0;"/><!--MD5=[f335b251d0d5a458b635239e43cc0bb5]
link tictactoe.views.console.PlayView to Message--><path codeLine="56" d="M949.239,353.134 C961.45,361.446 974.454,369.812 987,377 C1008.28,389.1939 1032.38,400.9348 1054.21,410.8574 " fill="none" id="tictactoe.views.console.PlayView-to-Message" style="stroke:#A80036;stroke-width:1.0;stroke-dasharray:7.0,7.0;"/><polygon fill="#A80036" points="1058.83,412.9467,1052.2734,405.5975,1054.273,410.8892,1048.9813,412.8887,1058.83,412.9467" style="stroke:#A80036;stroke-width:1.0;"/><!--MD5=[b8eae5493de689ae966fe038f1428b07]
link tictactoe.views.console.PlayView to Error--><path codeLine="57" d="M814.167,349.331 C789.408,359.985 761.548,370.4254 735,377 C557.441,420.9727 504.555,378.056 325,413 C321.059,413.7669 317.042,414.6465 313.003,415.6079 " fill="none" id="tictactoe.views.console.PlayView-to-Error" style="stroke:#A80036;stroke-width:1.0;stroke-dasharray:7.0,7.0;"/><polygon fill="#A80036" points="307.882,416.8671,317.5769,418.6017,312.7373,415.6729,315.6661,410.8332,307.882,416.8671" style="stroke:#A80036;stroke-width:1.0;"/><!--MD5=[248c182d20997509763909b55503e1c8]
link tictactoe.views.console.ResumeView to ResumeController--><path codeLine="62" d="M1161.59,340.688 C1190.07,361.523 1227.98,389.2474 1256.27,409.9423 " fill="none" id="tictactoe.views.console.ResumeView-to-ResumeController" style="stroke:#A80036;stroke-width:1.0;stroke-dasharray:7.0,7.0;"/><polygon fill="#A80036" points="1260.38,412.943,1255.465,404.4082,1256.3401,409.997,1250.7513,410.8721,1260.38,412.943" style="stroke:#A80036;stroke-width:1.0;"/><!--MD5=[45d6b98411685f94cdacdaac3bc1e164]
link tictactoe.views.console.ResumeView to Message--><path codeLine="63" d="M1121,340.688 C1121,360.84 1121,387.4368 1121,407.8846 " fill="none" id="tictactoe.views.console.ResumeView-to-Message" style="stroke:#A80036;stroke-width:1.0;stroke-dasharray:7.0,7.0;"/><polygon fill="#A80036" points="1121,412.943,1125,403.943,1121,407.943,1117,403.943,1121,412.943" style="stroke:#A80036;stroke-width:1.0;"/><!--MD5=[8fe1c1d6283f66daa4ac51944081ccb1]
link tictactoe.views.console.ResumeView to YesNoDialog--><path codeLine="64" d="M1179.61,340.567 C1205.15,352.787 1235.66,366.517 1264,377 C1319.02,397.3548 1334.78,396.2296 1391,413 C1395.25,414.2679 1399.62,415.5872 1404.02,416.9294 " fill="none" id="tictactoe.views.console.ResumeView-to-YesNoDialog" style="stroke:#A80036;stroke-width:1.0;stroke-dasharray:7.0,7.0;"/><polygon fill="#A80036" points="1408.81,418.3934,1401.3847,411.9231,1404.0312,416.9227,1399.0316,419.5693,1408.81,418.3934" style="stroke:#A80036;stroke-width:1.0;"/><!--MD5=[05cc99d857866a96ee1f197cb8d1830a]
link tictactoe.views.console.StartView to StartController--><path codeLine="69" d="M665.368,340.688 C684.34,361.267 709.507,388.5667 728.506,409.1758 " fill="none" id="tictactoe.views.console.StartView-to-StartController" style="stroke:#A80036;stroke-width:1.0;stroke-dasharray:7.0,7.0;"/><polygon fill="#A80036" points="731.979,412.943,728.8191,403.6148,728.5897,409.267,722.9375,409.0376,731.979,412.943" style="stroke:#A80036;stroke-width:1.0;"/><!--MD5=[cbe56104a70ea1577228555875c75924]
link tictactoe.views.console.StartView to Message--><path codeLine="70" d="M699.422,340.668 C728.424,353.584 763.874,367.8332 797,377 C902.648,406.2352 934.277,387.9713 1041,413 C1045.09,413.9587 1049.27,415.0299 1053.46,416.1764 " fill="none" id="tictactoe.views.console.StartView-to-Message" style="stroke:#A80036;stroke-width:1.0;stroke-dasharray:7.0,7.0;"/><polygon fill="#A80036" points="1058.4,417.5546,1050.8052,411.2841,1053.5838,416.2116,1048.6563,418.9901,1058.4,417.5546" style="stroke:#A80036;stroke-width:1.0;"/><!--MD5=[f18569398a34687a26f0429a50bef928]
link tictactoe.views.console.StartView to LimitedIntDialog--><path codeLine="71" d="M584.945,340.527 C547.21,361.527 496.792,389.5856 459.428,410.379 " fill="none" id="tictactoe.views.console.StartView-to-LimitedIntDialog" style="stroke:#A80036;stroke-width:1.0;stroke-dasharray:7.0,7.0;"/><polygon fill="#A80036" points="454.938,412.8778,464.7473,411.9964,459.307,410.4464,460.8571,405.006,454.938,412.8778" style="stroke:#A80036;stroke-width:1.0;"/><!--MD5=[6ea791314a7012eef494e5b69e119c48]
link tictactoe.views.console.StartView to Token--><path codeLine="78" d="M618.3889,351.4878 C618.3889,351.4878 601.86,385.6117 594.495,400.8161 " fill="none" id="tictactoe.views.console.StartView-Token" style="stroke:#A80036;stroke-width:1.0;"/><polygon fill="#A80036" points="588.621,412.943,596.1446,406.5872,590.8008,408.4432,588.9449,403.0995,588.621,412.943" style="stroke:#A80036;stroke-width:1.0;"/><line style="stroke:#A80036;stroke-width:1.0;" x1="590.8008" x2="594.2885" y1="408.4432" y2="401.2432"/><polygon fill="#A80036" points="623.62,340.688,617.4045,344.3442,618.3889,351.4878,624.6044,347.8316,623.62,340.688" style="stroke:#A80036;stroke-width:1.0;"/><!--MD5=[e5fc69a5d7b9edfb586c1b6276c53e05]
link tictactoe.views.console.StartView to Console--><path codeLine="79" d="M558.29,331.249 C502.863,345.004 427.165,363.142 360,377 C269.403,395.6921 244.882,391.1277 155,413 C150.69,414.0488 146.276,415.1992 141.84,416.4142 " fill="none" id="tictactoe.views.console.StartView-to-Console" style="stroke:#A80036;stroke-width:1.0;stroke-dasharray:7.0,7.0;"/><polygon fill="#A80036" points="137.02,417.7561,146.7632,419.195,141.8367,416.4147,144.617,411.4882,137.02,417.7561" style="stroke:#A80036;stroke-width:1.0;"/><!--MD5=[d0c3c26037205ffe53445ffb48160480]
@startuml
class Error as "tictactoe.models.\nError" {}
class Coordinate as "tictactoe.models.\nCoordinate" {}
class Console as "usantatecla.utils.\nConsole" {}
class Controller as "tictactoe.controllers.\nController" {}
class PlayController as "tictactoe.controllers.\nPlayController" {}
class ResumeController as "tictactoe.controllers.\nResumeController" {}
class YesNoDialog as "usantatecla.utils.\nYesNoDialog" {}
class StartController as "tictactoe.controllers.\nStartController" {}
class LimitedIntDialog as "usantatecla.utils.\nLimitedIntDialog" {}
class Token as "tictactoe.models.\nToken" {}
class Message as "tictactoe.views.\nMessage" {}
class ErrorView as "tictactoe.views.\nErrorView" {}

class tictactoe.views.console.ConsoleView{
+ ConsoleView()
+ interact(Controller)
}
tictactoe.views.console.ConsoleView *-down-> tictactoe.views.console.StartView
tictactoe.views.console.ConsoleView *-down-> tictactoe.views.console.PlayView
tictactoe.views.console.ConsoleView *-down-> tictactoe.views.console.ResumeView
tictactoe.views.console.ConsoleView .down.> Controller

class tictactoe.views.console.CoordinateView {
+ read(String): Coordinate
}

tictactoe.views.console.CoordinateView .down.> Console
tictactoe.views.console.CoordinateView .down.> Error
tictactoe.views.console.CoordinateView .down.> Coordinate

class  tictactoe.views.console.ErrorView{
~ ErrorView(Error)
~ writeln()
}
tictactoe.views.console.ErrorView .down.> Error
tictactoe.views.console.ErrorView .down.> Console
ErrorView <|-down- tictactoe.views.console.ErrorView

class  tictactoe.views.console.GameView{
~ GameView(Controller)
~ write()
}

tictactoe.views.console.GameView *-down-> Controller
tictactoe.views.console.GameView .down.> Coordinate
tictactoe.views.console.GameView .down.> Message

class  tictactoe.views.console.PlayView{
~ interact(PlayController)
- put(PlayController)
- move(PlayController)
}

tictactoe.views.console.PlayView .down.> PlayController
tictactoe.views.console.PlayView .down.> Coordinate
tictactoe.views.console.PlayView .down.> Message
tictactoe.views.console.PlayView .down.> Error

class  tictactoe.views.console.ResumeView{
~ interact(ResumeController): boolean
}
tictactoe.views.console.ResumeView .down.> ResumeController
tictactoe.views.console.ResumeView .down.> Message
tictactoe.views.console.ResumeView .down.> YesNoDialog

class tictactoe.views.console.StartView{
~ interact(StartController)
}
tictactoe.views.console.StartView .down.> StartController
tictactoe.views.console.StartView .down.> Message
tictactoe.views.console.StartView .down.> LimitedIntDialog

class tictactoe.views.console.TokenView{
+ {static} SYMBOLS: char[]
~ TokenView(Token)
~ write()
}
tictactoe.views.console.StartView *-down-> Token
tictactoe.views.console.StartView .down.> Console
@enduml

PlantUML version 1.2020.22(Sun Dec 06 09:36:27 UTC 2020)
(GPL source distribution)
Java Runtime: Java(TM) SE Runtime Environment
JVM: Java HotSpot(TM) 64-Bit Server VM
Default Encoding: UTF-8
Language: en
Country: US
--></g></svg>