<?xml version="1.0" encoding="UTF-8" standalone="no"?><svg xmlns="http://www.w3.org/2000/svg" xmlns:xlink="http://www.w3.org/1999/xlink" contentScriptType="application/ecmascript" contentStyleType="text/css" height="159px" preserveAspectRatio="none" style="width:1756px;height:159px;" version="1.1" viewBox="0 0 1756 159" width="1756px" zoomAndPan="magnify"><defs><filter height="300%" id="f7q6es78975c9" width="300%" x="-1" y="-1"><feGaussianBlur result="blurOut" stdDeviation="2.0"/><feColorMatrix in="blurOut" result="blurOut2" type="matrix" values="0 0 0 0 0 0 0 0 0 0 0 0 0 0 0 0 0 0 .4 0"/><feOffset dx="4.0" dy="4.0" in="blurOut2" result="blurOut3"/><feBlend in="SourceGraphic" in2="blurOut3" mode="normal"/></filter></defs><g><!--MD5=[483b12a8a4a1981ac5430bdda5fd5916]
entity tictactoe--><polygon fill="#FFFFFF" filter="url(#f7q6es78975c9)" points="16,113,110,113,117,135.2969,134,135.2969,134,152.2969,16,152.2969,16,113" style="stroke:#000000;stroke-width:1.5;"/><line style="stroke:#000000;stroke-width:1.5;" x1="16" x2="117" y1="135.2969" y2="135.2969"/><text fill="#000000" font-family="sans-serif" font-size="14" font-weight="bold" lengthAdjust="spacingAndGlyphs" textLength="76" x="26" y="128.9951">tictactoe</text><!--MD5=[21ee9191f94b37e164ce8850dd375de6]
entity tictactoe.models--><polygon fill="#FFFFFF" filter="url(#f7q6es78975c9)" points="169.5,113,326.5,113,333.5,135.2969,350.5,135.2969,350.5,152.2969,169.5,152.2969,169.5,113" style="stroke:#000000;stroke-width:1.5;"/><line style="stroke:#000000;stroke-width:1.5;" x1="169.5" x2="333.5" y1="135.2969" y2="135.2969"/><text fill="#000000" font-family="sans-serif" font-size="14" font-weight="bold" lengthAdjust="spacingAndGlyphs" textLength="139" x="179.5" y="128.9951">tictactoe.models</text><!--MD5=[d35223fd8f7d7c99496ee8d9b067ffdf]
entity tictactoe.controllers--><polygon fill="#FFFFFF" filter="url(#f7q6es78975c9)" points="386,113,574,113,581,135.2969,598,135.2969,598,152.2969,386,152.2969,386,113" style="stroke:#000000;stroke-width:1.5;"/><line style="stroke:#000000;stroke-width:1.5;" x1="386" x2="581" y1="135.2969" y2="135.2969"/><text fill="#000000" font-family="sans-serif" font-size="14" font-weight="bold" lengthAdjust="spacingAndGlyphs" textLength="170" x="396" y="128.9951">tictactoe.controllers</text><!--MD5=[170e9aa8a7c5483a45070c603c759464]
entity tictactoe.views--><polygon fill="#FFFFFF" filter="url(#f7q6es78975c9)" points="633,113,777,113,784,135.2969,801,135.2969,801,152.2969,633,152.2969,633,113" style="stroke:#000000;stroke-width:1.5;"/><line style="stroke:#000000;stroke-width:1.5;" x1="633" x2="784" y1="135.2969" y2="135.2969"/><text fill="#000000" font-family="sans-serif" font-size="14" font-weight="bold" lengthAdjust="spacingAndGlyphs" textLength="126" x="643" y="128.9951">tictactoe.views</text><!--MD5=[24db386dca859e5b235897d0a3aa8c72]
entity tictactoe.views.console--><polygon fill="#FFFFFF" filter="url(#f7q6es78975c9)" points="836.5,113,1047.5,113,1054.5,135.2969,1071.5,135.2969,1071.5,152.2969,836.5,152.2969,836.5,113" style="stroke:#000000;stroke-width:1.5;"/><line style="stroke:#000000;stroke-width:1.5;" x1="836.5" x2="1054.5" y1="135.2969" y2="135.2969"/><text fill="#000000" font-family="sans-serif" font-size="14" font-weight="bold" lengthAdjust="spacingAndGlyphs" textLength="193" x="846.5" y="128.9951">tictactoe.views.console</text><!--MD5=[af2691941f33ba1a7826daed975acade]
entity tictactoe.views.graphics--><polygon fill="#FFFFFF" filter="url(#f7q6es78975c9)" points="1106.5,113,1325.5,113,1332.5,135.2969,1349.5,135.2969,1349.5,152.2969,1106.5,152.2969,1106.5,113" style="stroke:#000000;stroke-width:1.5;"/><line style="stroke:#000000;stroke-width:1.5;" x1="1106.5" x2="1332.5" y1="135.2969" y2="135.2969"/><text fill="#000000" font-family="sans-serif" font-size="14" font-weight="bold" lengthAdjust="spacingAndGlyphs" textLength="201" x="1116.5" y="128.9951">tictactoe.views.graphics</text><!--MD5=[815e17c207bbf712f7f26918c1feb6f8]
entity utils--><polygon fill="#FFFFFF" filter="url(#f7q6es78975c9)" points="1384.5,113,1439.5,113,1446.5,135.2969,1463.5,135.2969,1463.5,152.2969,1384.5,152.2969,1384.5,113" style="stroke:#000000;stroke-width:1.5;"/><line style="stroke:#000000;stroke-width:1.5;" x1="1384.5" x2="1446.5" y1="135.2969" y2="135.2969"/><text fill="#000000" font-family="sans-serif" font-size="14" font-weight="bold" lengthAdjust="spacingAndGlyphs" textLength="37" x="1394.5" y="128.9951">utils</text><!--MD5=[48fa9072fd51d9920e6db8484beec696]
entity java.io--><polygon fill="#FFFFFF" filter="url(#f7q6es78975c9)" points="1499,113,1571,113,1578,135.2969,1595,135.2969,1595,152.2969,1499,152.2969,1499,113" style="stroke:#000000;stroke-width:1.5;"/><line style="stroke:#000000;stroke-width:1.5;" x1="1499" x2="1578" y1="135.2969" y2="135.2969"/><text fill="#000000" font-family="sans-serif" font-size="14" font-weight="bold" lengthAdjust="spacingAndGlyphs" textLength="54" x="1509" y="128.9951">java.io</text><!--MD5=[034f0f7ed136bf78fc117f7e41f76e93]
entity java.util--><polygon fill="#FFFFFF" filter="url(#f7q6es78975c9)" points="1630.5,113,1715.5,113,1722.5,135.2969,1739.5,135.2969,1739.5,152.2969,1630.5,152.2969,1630.5,113" style="stroke:#000000;stroke-width:1.5;"/><line style="stroke:#000000;stroke-width:1.5;" x1="1630.5" x2="1722.5" y1="135.2969" y2="135.2969"/><text fill="#000000" font-family="sans-serif" font-size="14" font-weight="bold" lengthAdjust="spacingAndGlyphs" textLength="67" x="1640.5" y="128.9951">java.util</text><!--MD5=[c2796faf4134bd8b5f3bc71f44d02e74]
entity jar--><rect fill="#FEFECE" filter="url(#f7q6es78975c9)" height="46.2969" style="stroke:#A80036;stroke-width:1.5;" width="130" x="889" y="7"/><rect fill="#FEFECE" height="10" style="stroke:#A80036;stroke-width:1.5;" width="15" x="999" y="12"/><rect fill="#FEFECE" height="2" style="stroke:#A80036;stroke-width:1.5;" width="4" x="997" y="14"/><rect fill="#FEFECE" height="2" style="stroke:#A80036;stroke-width:1.5;" width="4" x="997" y="18"/><text fill="#000000" font-family="sans-serif" font-size="14" lengthAdjust="spacingAndGlyphs" textLength="90" x="904" y="39.9951">tictactoe.jar</text><!--MD5=[db071693898cb010136cdcd0ecfb308f]
link jar to tictactoe--><path d="M876.9121,35.437 C876.9121,35.437 415.143,68.1437 152,113 C150.361,113.2794 148.705,113.5737 147.037,113.8808 " fill="none" id="jar-tictactoe" style="stroke:#A80036;stroke-width:1.0;"/><polygon fill="#A80036" points="134.109,116.4537,143.7166,118.6203,139.0129,115.4779,142.1553,110.7741,134.109,116.4537" style="stroke:#A80036;stroke-width:1.0;"/><line style="stroke:#A80036;stroke-width:1.0;" x1="139.0129" x2="146.859" y1="115.4779" y2="113.9162"/><polygon fill="#A80036" points="888.889,34.692,882.6522,31.0722,876.9121,35.437,883.1489,39.0568,888.889,34.692" style="stroke:#A80036;stroke-width:1.0;"/><!--MD5=[6b3133dd7dabc2019ad83d1281580956]
link jar to tictactoe.models--><path d="M876.9702,41.0147 C876.9702,41.0147 549.427,84.7743 368,113 C366.59,113.2193 365.17,113.4417 363.742,113.6667 " fill="none" id="jar-tictactoe.models" style="stroke:#A80036;stroke-width:1.0;"/><polygon fill="#A80036" points="350.714,115.7538,360.2336,118.2792,355.651,114.9626,358.9676,110.38,350.714,115.7538" style="stroke:#A80036;stroke-width:1.0;"/><line style="stroke:#A80036;stroke-width:1.0;" x1="355.651" x2="363.55" y1="114.9626" y2="113.6974"/><polygon fill="#A80036" points="888.868,39.452,882.3982,36.2674,876.9702,41.0147,883.44,44.1993,888.868,39.452" style="stroke:#A80036;stroke-width:1.0;"/><!--MD5=[a80195ddb4f09d1000c65393133bbdfd]
link jar to tictactoe.controllers--><path d="M877.0614,47.7375 C877.0614,47.7375 675.355,91.6142 590.12,110.1557 " fill="none" id="jar-tictactoe.controllers" style="stroke:#A80036;stroke-width:1.0;"/><polygon fill="#A80036" points="577.293,112.946,586.9375,114.9418,582.1788,111.8833,585.2373,107.1246,577.293,112.946" style="stroke:#A80036;stroke-width:1.0;"/><line style="stroke:#A80036;stroke-width:1.0;" x1="582.1788" x2="589.996" y1="111.8833" y2="110.1826"/><polygon fill="#A80036" points="888.787,45.186,882.0737,42.5532,877.0614,47.7375,883.7747,50.3703,888.787,45.186" style="stroke:#A80036;stroke-width:1.0;"/><!--MD5=[c97a190b1fd883cd6d17f82504278168]
link jar to tictactoe.views--><path d="M890.9409,57.7393 C890.9409,57.7393 808.404,92.74 773.357,107.6016 " fill="none" id="jar-tictactoe.views" style="stroke:#A80036;stroke-width:1.0;"/><polygon fill="#A80036" points="760.938,112.868,770.7854,113.0366,765.5412,110.9158,767.662,105.6716,760.938,112.868" style="stroke:#A80036;stroke-width:1.0;"/><line style="stroke:#A80036;stroke-width:1.0;" x1="765.5412" x2="772.9065" y1="110.9158" y2="107.7928"/><polygon fill="#A80036" points="901.989,53.0552,894.9036,51.7146,890.9409,57.7393,898.0263,59.0799,901.989,53.0552" style="stroke:#A80036;stroke-width:1.0;"/><!--MD5=[f1530ed960fc683699116a1240ff9d77]
link jar to tictactoe.views.console--><path d="M954,65.3042 C954,65.3042 954,89.2598 954,99.9085 " fill="none" id="jar-tictactoe.views.console" style="stroke:#A80036;stroke-width:1.0;"/><polygon fill="#A80036" points="954,112.9606,958,103.9606,954,107.9606,950,103.9606,954,112.9606" style="stroke:#A80036;stroke-width:1.0;"/><line style="stroke:#A80036;stroke-width:1.0;" x1="954" x2="954" y1="107.9606" y2="99.9607"/><polygon fill="#A80036" points="954,53.3042,950,59.3042,954,65.3042,958,59.3042,954,53.3042" style="stroke:#A80036;stroke-width:1.0;"/><!--MD5=[ce1a0edc1bf4393e7cbd7df974f6190c]
link jar to tictactoe.views.graphics--><path d="M1025.3976,57.1832 C1025.3976,57.1832 1123.56,93.1919 1164.83,108.3298 " fill="none" id="jar-tictactoe.views.graphics" style="stroke:#A80036;stroke-width:1.0;"/><polygon fill="#A80036" points="1177.2,112.868,1170.1253,106.0161,1172.5052,111.148,1167.3733,113.5279,1177.2,112.868" style="stroke:#A80036;stroke-width:1.0;"/><line style="stroke:#A80036;stroke-width:1.0;" x1="1172.5052" x2="1164.995" y1="111.148" y2="108.3913"/><polygon fill="#A80036" points="1014.13,53.0552,1018.3878,58.8751,1025.3976,57.1832,1021.1398,51.3633,1014.13,53.0552" style="stroke:#A80036;stroke-width:1.0;"/><!--MD5=[2b24531f65345f8226c8757364dc2f7a]
link jar to utils--><path d="M1031.1114,43.5154 C1031.1114,43.5154 1251.68,82.9482 1367,113 C1368.59,113.4132 1370.19,113.8456 1371.81,114.2932 " fill="none" id="jar-utils" style="stroke:#A80036;stroke-width:1.0;"/><polygon fill="#A80036" points="1384.31,117.9586,1376.7988,111.5883,1379.5119,116.552,1374.5482,119.2652,1384.31,117.9586" style="stroke:#A80036;stroke-width:1.0;"/><line style="stroke:#A80036;stroke-width:1.0;" x1="1379.5119" x2="1371.84" y1="116.552" y2="114.3012"/><polygon fill="#A80036" points="1019.28,41.511,1024.5276,46.457,1031.1114,43.5154,1025.8638,38.5694,1019.28,41.511" style="stroke:#A80036;stroke-width:1.0;"/><!--MD5=[f17a38c250a1605cd3da9b9fac2ef94b]
link jar to java.io--><path d="M1031.2704,40.0937 C1031.2704,40.0937 1323.23,78.7416 1481,113 C1482.73,113.3748 1484.47,113.7684 1486.24,114.1772 " fill="none" id="jar-java.io" style="stroke:#A80036;stroke-width:1.0;"/><polygon fill="#A80036" points="1498.86,117.2941,1491.0803,111.2545,1494.0056,116.0963,1489.1638,119.0216,1498.86,117.2941" style="stroke:#A80036;stroke-width:1.0;"/><line style="stroke:#A80036;stroke-width:1.0;" x1="1494.0056" x2="1486.24" y1="116.0963" y2="114.1791"/><polygon fill="#A80036" points="1019.36,38.63,1024.8273,43.332,1031.2704,40.0937,1025.8031,35.3917,1019.36,38.63" style="stroke:#A80036;stroke-width:1.0;"/><!--MD5=[a929e6d2b54380e4c3e4c2b17ce7cd9b]
link jar to java.util--><path d="M1031.3935,37.4059 C1031.3935,37.4059 1405.08,73.5201 1613,113 C1614.39,113.2648 1615.8,113.5411 1617.22,113.8272 " fill="none" id="jar-java.util" style="stroke:#A80036;stroke-width:1.0;"/><polygon fill="#A80036" points="1630.13,116.6311,1622.1831,110.8132,1625.2438,115.5706,1620.4864,118.6312,1630.13,116.6311" style="stroke:#A80036;stroke-width:1.0;"/><line style="stroke:#A80036;stroke-width:1.0;" x1="1625.2438" x2="1617.425" y1="115.5706" y2="113.8715"/><polygon fill="#A80036" points="1019.44,36.351,1025.0651,40.863,1031.3935,37.4059,1025.7684,32.8939,1019.44,36.351" style="stroke:#A80036;stroke-width:1.0;"/><!--MD5=[e2d37858593f27513d35fafc2e085673]
@startuml
package "  "  as tictactoe {
}
package "  "  as tictactoe.models {
}
package "  "  as tictactoe.controllers {
}
package "  "  as tictactoe.views {
}
package "  "  as tictactoe.views.console {
}
package "  "  as tictactoe.views.graphics {
}
package "  "  as utils {
}
package "  "  as java.io {
}
package "  "  as java.util {
}

[tictactoe.jar] as jar

jar *- -> tictactoe
jar *- -> tictactoe.models
jar *- -> tictactoe.controllers
jar *- -> tictactoe.views
jar *- -> tictactoe.views.console
jar *- -> tictactoe.views.graphics
jar *- -> utils
jar *- -> java.io
jar *- -> java.util
@enduml

PlantUML version 1.2020.27beta2(Unknown compile time)
(GPL source distribution)
Java Runtime: Java(TM) SE Runtime Environment
JVM: Java HotSpot(TM) 64-Bit Server VM
Default Encoding: UTF-8
Language: en
Country: US
--></g></svg>