<?xml version="1.0" encoding="UTF-8" standalone="no"?><svg xmlns="http://www.w3.org/2000/svg" xmlns:xlink="http://www.w3.org/1999/xlink" contentScriptType="application/ecmascript" contentStyleType="text/css" height="159px" preserveAspectRatio="none" style="width:493px;height:159px;" version="1.1" viewBox="0 0 493 159" width="493px" zoomAndPan="magnify"><defs><filter height="300%" id="f18b87ai6i40bz" width="300%" x="-1" y="-1"><feGaussianBlur result="blurOut" stdDeviation="2.0"/><feColorMatrix in="blurOut" result="blurOut2" type="matrix" values="0 0 0 0 0 0 0 0 0 0 0 0 0 0 0 0 0 0 .4 0"/><feOffset dx="4.0" dy="4.0" in="blurOut2" result="blurOut3"/><feBlend in="SourceGraphic" in2="blurOut3" mode="normal"/></filter></defs><g><!--MD5=[483b12a8a4a1981ac5430bdda5fd5916]
entity tictactoe--><polygon fill="#FFFFFF" filter="url(#f18b87ai6i40bz)" points="16,113,98,113,105,135.2969,122,135.2969,122,152.2969,16,152.2969,16,113" style="stroke: #000000; stroke-width: 1.5;"/><line style="stroke: #000000; stroke-width: 1.5;" x1="16" x2="105" y1="135.2969" y2="135.2969"/><text fill="#000000" font-family="sans-serif" font-size="14" font-weight="bold" lengthAdjust="spacingAndGlyphs" textLength="76" x="20" y="128.9951">tictactoe</text><!--MD5=[815e17c207bbf712f7f26918c1feb6f8]
entity utils--><polygon fill="#FFFFFF" filter="url(#f18b87ai6i40bz)" points="157.5,113,200.5,113,207.5,135.2969,224.5,135.2969,224.5,152.2969,157.5,152.2969,157.5,113" style="stroke: #000000; stroke-width: 1.5;"/><line style="stroke: #000000; stroke-width: 1.5;" x1="157.5" x2="207.5" y1="135.2969" y2="135.2969"/><text fill="#000000" font-family="sans-serif" font-size="14" font-weight="bold" lengthAdjust="spacingAndGlyphs" textLength="37" x="161.5" y="128.9951">utils</text><!--MD5=[48fa9072fd51d9920e6db8484beec696]
entity java.io--><polygon fill="#FFFFFF" filter="url(#f18b87ai6i40bz)" points="260,113,320,113,327,135.2969,344,135.2969,344,152.2969,260,152.2969,260,113" style="stroke: #000000; stroke-width: 1.5;"/><line style="stroke: #000000; stroke-width: 1.5;" x1="260" x2="327" y1="135.2969" y2="135.2969"/><text fill="#000000" font-family="sans-serif" font-size="14" font-weight="bold" lengthAdjust="spacingAndGlyphs" textLength="54" x="264" y="128.9951">java.io</text><!--MD5=[034f0f7ed136bf78fc117f7e41f76e93]
entity java.util--><polygon fill="#FFFFFF" filter="url(#f18b87ai6i40bz)" points="379.5,113,452.5,113,459.5,135.2969,476.5,135.2969,476.5,152.2969,379.5,152.2969,379.5,113" style="stroke: #000000; stroke-width: 1.5;"/><line style="stroke: #000000; stroke-width: 1.5;" x1="379.5" x2="459.5" y1="135.2969" y2="135.2969"/><text fill="#000000" font-family="sans-serif" font-size="14" font-weight="bold" lengthAdjust="spacingAndGlyphs" textLength="67" x="383.5" y="128.9951">java.util</text><!--MD5=[c2796faf4134bd8b5f3bc71f44d02e74]
entity jar--><rect fill="#FEFECE" filter="url(#f18b87ai6i40bz)" height="46.2969" style="stroke: #A80036; stroke-width: 1.5;" width="130" x="181" y="7"/><rect fill="#FEFECE" height="10" style="stroke: #A80036; stroke-width: 1.5;" width="15" x="291" y="12"/><rect fill="#FEFECE" height="2" style="stroke: #A80036; stroke-width: 1.5;" width="4" x="289" y="14"/><rect fill="#FEFECE" height="2" style="stroke: #A80036; stroke-width: 1.5;" width="4" x="289" y="18"/><text fill="#000000" font-family="sans-serif" font-size="14" lengthAdjust="spacingAndGlyphs" textLength="90" x="196" y="39.9951">tictactoe.jar</text><!--MD5=[db071693898cb010136cdcd0ecfb308f]
link jar to tictactoe--><path d="M196.7217,58.9801 C196.7217,58.9801 138.207,92.2045 113.1791,106.4153 " fill="none" id="jar-tictactoe" style="stroke: #A80036; stroke-width: 1.0;"/><polygon fill="#A80036" points="101.8145,112.868,111.6159,111.9025,106.1625,110.3992,107.6658,104.9458,101.8145,112.868" style="stroke: #A80036; stroke-width: 1.0;"/><line style="stroke: #A80036; stroke-width: 1.0;" x1="106.1625" x2="113.1193" y1="110.3992" y2="106.4492"/><polygon fill="#A80036" points="207.157,53.0552,199.9644,52.5392,196.7217,58.9801,203.9143,59.4961,207.157,53.0552" style="stroke: #A80036; stroke-width: 1.0;"/><!--MD5=[2b24531f65345f8226c8757364dc2f7a]
link jar to utils--><path d="M228.0332,63.831 C228.0332,63.831 213.783,89.8692 207.513,101.3255 " fill="none" id="jar-utils" style="stroke: #A80036; stroke-width: 1.0;"/><polygon fill="#A80036" points="201.146,112.9606,208.9758,106.9862,203.5466,108.5746,201.9582,103.1453,201.146,112.9606" style="stroke: #A80036; stroke-width: 1.0;"/><line style="stroke: #A80036; stroke-width: 1.0;" x1="203.5466" x2="207.387" y1="108.5746" y2="101.5566"/><polygon fill="#A80036" points="233.794,53.3042,227.4047,56.6473,228.0332,63.831,234.4225,60.4879,233.794,53.3042" style="stroke: #A80036; stroke-width: 1.0;"/><!--MD5=[f17a38c250a1605cd3da9b9fac2ef94b]
link jar to java.io--><path d="M264.2686,63.7869 C264.2686,63.7869 278.803,89.8692 285.186,101.3255 " fill="none" id="jar-java.io" style="stroke: #A80036; stroke-width: 1.0;"/><polygon fill="#A80036" points="291.67,112.9606,290.7832,103.1517,289.2362,108.5929,283.795,107.0459,291.67,112.9606" style="stroke: #A80036; stroke-width: 1.0;"/><line style="stroke: #A80036; stroke-width: 1.0;" x1="289.2362" x2="285.3415" y1="108.5929" y2="101.6046"/><polygon fill="#A80036" points="258.428,53.3042,257.8541,60.4924,264.2686,63.7869,264.8426,56.5987,258.428,53.3042" style="stroke: #A80036; stroke-width: 1.0;"/><!--MD5=[a929e6d2b54380e4c3e4c2b17ce7cd9b]
link jar to java.util--><path d="M296.4458,58.8561 C296.4458,58.8561 356.955,92.2689 382.869,106.579 " fill="none" id="jar-java.util" style="stroke: #A80036; stroke-width: 1.0;"/><polygon fill="#A80036" points="394.259,112.868,388.3141,105.0158,389.882,110.451,384.4468,112.0189,394.259,112.868" style="stroke: #A80036; stroke-width: 1.0;"/><line style="stroke: #A80036; stroke-width: 1.0;" x1="389.882" x2="382.8785" y1="110.451" y2="106.5839"/><polygon fill="#A80036" points="285.941,53.0552,289.2597,59.4572,296.4458,58.8561,293.127,52.4541,285.941,53.0552" style="stroke: #A80036; stroke-width: 1.0;"/><!--MD5=[c9865f9b94643f61d8c4dca23ccb2bb4]
@startuml
package "  "  as tictactoe {
}
package "  "  as utils {
}
package "  "  as java.io {
}
package "  "  as java.util {
}

[tictactoe.jar] as jar

jar *- -> tictactoe
jar *- -> utils
jar *- -> java.io
jar *- -> java.util
@enduml

PlantUML version 1.2020.20beta2(Unknown compile time)
(GPL source distribution)
Java Runtime: Java(TM) SE Runtime Environment
JVM: Java HotSpot(TM) 64-Bit Server VM
Default Encoding: UTF-8
Language: en
Country: US
--></g></svg>