<?xml version="1.0" encoding="UTF-8" standalone="no"?><svg xmlns="http://www.w3.org/2000/svg" xmlns:xlink="http://www.w3.org/1999/xlink" contentScriptType="application/ecmascript" contentStyleType="text/css" height="679px" preserveAspectRatio="none" style="width:1738px;height:679px;" version="1.1" viewBox="0 0 1738 679" width="1738px" zoomAndPan="magnify"><defs><filter height="300%" id="fti9q5e3z48zi" width="300%" x="-1" y="-1"><feGaussianBlur result="blurOut" stdDeviation="2.0"/><feColorMatrix in="blurOut" result="blurOut2" type="matrix" values="0 0 0 0 0 0 0 0 0 0 0 0 0 0 0 0 0 0 .4 0"/><feOffset dx="4.0" dy="4.0" in="blurOut2" result="blurOut3"/><feBlend in="SourceGraphic" in2="blurOut3" mode="normal"/></filter></defs><g><!--MD5=[ee7e9a007a7c4d40c0679a27f272732d]
cluster tictactoe.controllers--><polygon fill="#FFFFFF" filter="url(#fti9q5e3z48zi)" points="653.5,6,829.5,6,836.5,28.2969,1413.5,28.2969,1413.5,672,653.5,672,653.5,6" style="stroke:#000000;stroke-width:1.5;"/><line style="stroke:#000000;stroke-width:1.5;" x1="653.5" x2="836.5" y1="28.2969" y2="28.2969"/><text fill="#000000" font-family="sans-serif" font-size="14" font-weight="bold" lengthAdjust="spacingAndGlyphs" textLength="170" x="657.5" y="20.9951">tictactoe.controllers</text><!--MD5=[957eef6538bab7382edbc29d98579a60]
class tictactoe.controllers.Controller--><rect codeLine="9" fill="#FEFECE" filter="url(#fti9q5e3z48zi)" height="99.2188" id="tictactoe.controllers.Controller" style="stroke:#A80036;stroke-width:1.5;" width="192" x="839.5" y="175"/><ellipse cx="902.25" cy="191" fill="#A9DCDF" rx="11" ry="11" style="stroke:#A80036;stroke-width:1.0;"/><path d="M904.3281,192.8125 L904.7188,193.7969 L904.3281,193.7969 C903.875,193.7969 903.7656,193.8125 903.6094,193.9219 C903.3594,194.0781 903.2031,194.3594 903.2031,194.6563 C903.2031,194.9219 903.3438,195.1719 903.5625,195.3281 C903.7031,195.4531 903.9063,195.5 904.3281,195.5 L906.6875,195.5 C907.0469,195.5 907.2656,195.4688 907.4063,195.375 C907.6563,195.2344 907.8125,194.9375 907.8125,194.6563 C907.8125,194.375 907.6719,194.125 907.4531,193.9688 C907.2813,193.8281 907.125,193.7969 906.6563,193.7969 L903.2656,185.5938 L899.5938,185.5938 C899.1406,185.5938 899.0156,185.6094 898.8594,185.7031 C898.6094,185.875 898.4531,186.1563 898.4531,186.4375 C898.4531,186.7188 898.5938,186.9688 898.8125,187.1406 C898.9844,187.25 899.1563,187.2813 899.5938,187.2813 L900.6719,187.2813 L898.0313,193.7969 C897.6094,193.7969 897.4531,193.8125 897.2969,193.9219 C897.0469,194.0781 896.8906,194.3594 896.8906,194.6563 C896.8906,195.2188 897.2656,195.5 898.0156,195.5 L900.2813,195.5 C900.6406,195.5 900.8594,195.4688 900.9844,195.375 C901.25,195.2344 901.3906,194.9375 901.3906,194.6563 C901.3906,194.375 901.2656,194.125 901.0469,193.9531 C900.875,193.8281 900.7344,193.7969 900.2813,193.7969 L899.8906,193.7969 L900.2813,192.8125 L904.3281,192.8125 Z M903.625,191.1094 L900.9531,191.1094 L902.2969,187.8438 L903.625,191.1094 Z " fill="#000000"/><text fill="#000000" font-family="sans-serif" font-size="12" font-style="italic" lengthAdjust="spacingAndGlyphs" textLength="58" x="922.75" y="195.1543">Controller</text><line style="stroke:#A80036;stroke-width:1.5;" x1="840.5" x2="1030.5" y1="207" y2="207"/><line style="stroke:#A80036;stroke-width:1.5;" x1="840.5" x2="1030.5" y1="215" y2="215"/><polygon fill="#4177AF" points="850.5,222,846.5,228,854.5,228" style="stroke:#1963A0;stroke-width:1.0;"/><text fill="#000000" font-family="sans-serif" font-size="11" lengthAdjust="spacingAndGlyphs" textLength="132" x="859.5" y="229.2104">Controller(Game,State)</text><ellipse cx="850.5" cy="238.8047" fill="#84BE84" rx="3" ry="3" style="stroke:#038048;stroke-width:1.0;"/><text fill="#000000" font-family="sans-serif" font-size="11" lengthAdjust="spacingAndGlyphs" textLength="166" x="859.5" y="242.0151">getToken(Coordinate): Token</text><ellipse cx="850.5" cy="251.6094" fill="#84BE84" rx="3" ry="3" style="stroke:#038048;stroke-width:1.0;"/><text fill="#000000" font-family="sans-serif" font-size="11" lengthAdjust="spacingAndGlyphs" textLength="34" x="859.5" y="254.8198">next()</text><ellipse cx="850.5" cy="264.4141" fill="#84BE84" rx="3" ry="3" style="stroke:#038048;stroke-width:1.0;"/><text fill="#000000" font-family="sans-serif" font-size="11" font-style="italic" lengthAdjust="spacingAndGlyphs" textLength="143" x="859.5" y="267.6245">accept(ControllersVisitor)</text><!--MD5=[cd4f094777041ea0b287ad7c5b510f06]
class tictactoe.controllers.ControllersVisitor--><rect codeLine="21" fill="#FEFECE" filter="url(#fti9q5e3z48zi)" height="86.4141" id="tictactoe.controllers.ControllersVisitor" style="stroke:#A80036;stroke-width:1.5;" width="159" x="856" y="570"/><ellipse cx="882.7" cy="586" fill="#B4A7E5" rx="11" ry="11" style="stroke:#A80036;stroke-width:1.0;"/><path d="M883.6531,582.7813 L885.3719,582.7813 C885.7625,582.7813 885.95,582.75 886.075,582.6719 C886.3406,582.5156 886.4813,582.2344 886.4813,581.9375 C886.4813,581.6719 886.3719,581.4063 886.1375,581.2344 C885.9656,581.125 885.825,581.0938 885.3719,581.0938 L880.2313,581.0938 C879.7938,581.0938 879.6688,581.1094 879.5125,581.2031 C879.2625,581.3594 879.1063,581.6563 879.1063,581.9375 C879.1063,582.2188 879.2469,582.4688 879.4656,582.6406 C879.6219,582.75 879.8094,582.7813 880.2313,582.7813 L881.95,582.7813 L881.95,589.2969 L880.2313,589.2969 C879.7938,589.2969 879.6688,589.3125 879.5125,589.4219 C879.2625,589.5781 879.1063,589.8594 879.1063,590.1563 C879.1063,590.4063 879.2469,590.6719 879.4656,590.8281 C879.6219,590.9531 879.825,591 880.2313,591 L885.3719,591 C886.1219,591 886.4813,590.7188 886.4813,590.1563 C886.4813,589.875 886.3719,589.625 886.1375,589.4531 C885.9656,589.3281 885.825,589.2969 885.3719,589.2969 L883.6531,589.2969 L883.6531,582.7813 Z " fill="#000000"/><text fill="#000000" font-family="sans-serif" font-size="12" font-style="italic" lengthAdjust="spacingAndGlyphs" textLength="101" x="899.3" y="590.1543">ControllersVisitor</text><line style="stroke:#A80036;stroke-width:1.5;" x1="857" x2="1014" y1="602" y2="602"/><line style="stroke:#A80036;stroke-width:1.5;" x1="857" x2="1014" y1="610" y2="610"/><polygon fill="#4177AF" points="867,617,863,623,871,623" style="stroke:#1963A0;stroke-width:1.0;"/><text fill="#000000" font-family="sans-serif" font-size="11" lengthAdjust="spacingAndGlyphs" textLength="113" x="876" y="624.2104">visit(StartController)</text><polygon fill="#4177AF" points="867,629.8047,863,635.8047,871,635.8047" style="stroke:#1963A0;stroke-width:1.0;"/><text fill="#000000" font-family="sans-serif" font-size="11" lengthAdjust="spacingAndGlyphs" textLength="109" x="876" y="637.0151">visit(PlayController)</text><polygon fill="#4177AF" points="867,642.6094,863,648.6094,871,648.6094" style="stroke:#1963A0;stroke-width:1.0;"/><text fill="#000000" font-family="sans-serif" font-size="11" lengthAdjust="spacingAndGlyphs" textLength="133" x="876" y="649.8198">visit(ResumeController)</text><!--MD5=[3b8962fd5847b9038b2e29740dae8054]
class tictactoe.controllers.Logic--><rect codeLine="27" fill="#FEFECE" filter="url(#fti9q5e3z48zi)" height="73.6094" id="tictactoe.controllers.Logic" style="stroke:#A80036;stroke-width:1.5;" width="170" x="1038.5" y="41"/><ellipse cx="1103.25" cy="57" fill="#ADD1B2" rx="11" ry="11" style="stroke:#A80036;stroke-width:1.0;"/><path d="M1105.5938,52.6719 C1104.6563,52.2344 1104.0625,52.0938 1103.1875,52.0938 C1100.5625,52.0938 1098.5625,54.1719 1098.5625,56.8906 L1098.5625,58.0156 C1098.5625,60.5938 1100.6719,62.4844 1103.5625,62.4844 C1104.7813,62.4844 1105.9375,62.1875 1106.6875,61.6406 C1107.2656,61.2344 1107.5938,60.7813 1107.5938,60.3906 C1107.5938,59.9375 1107.2031,59.5469 1106.7344,59.5469 C1106.5156,59.5469 1106.3125,59.625 1106.125,59.8125 C1105.6719,60.2969 1105.6719,60.2969 1105.4844,60.3906 C1105.0625,60.6563 1104.375,60.7813 1103.6094,60.7813 C1101.5625,60.7813 1100.2656,59.6875 1100.2656,57.9844 L1100.2656,56.8906 C1100.2656,55.1094 1101.5156,53.7969 1103.25,53.7969 C1103.8281,53.7969 1104.4375,53.9531 1104.9063,54.2031 C1105.3906,54.4844 1105.5625,54.7031 1105.6563,55.1094 C1105.7188,55.5156 1105.75,55.6406 1105.8906,55.7656 C1106.0313,55.9063 1106.2656,56.0156 1106.4844,56.0156 C1106.75,56.0156 1107.0156,55.875 1107.1875,55.6563 C1107.2969,55.5 1107.3281,55.3125 1107.3281,54.8906 L1107.3281,53.4688 C1107.3281,53.0313 1107.3125,52.9063 1107.2188,52.75 C1107.0625,52.4844 1106.7813,52.3438 1106.4844,52.3438 C1106.1875,52.3438 1105.9844,52.4375 1105.7656,52.75 L1105.5938,52.6719 Z " fill="#000000"/><text fill="#000000" font-family="sans-serif" font-size="12" lengthAdjust="spacingAndGlyphs" textLength="32" x="1123.75" y="61.1543">Logic</text><line style="stroke:#A80036;stroke-width:1.5;" x1="1039.5" x2="1207.5" y1="73" y2="73"/><line style="stroke:#A80036;stroke-width:1.5;" x1="1039.5" x2="1207.5" y1="81" y2="81"/><ellipse cx="1049.5" cy="92" fill="#84BE84" rx="3" ry="3" style="stroke:#038048;stroke-width:1.0;"/><text fill="#000000" font-family="sans-serif" font-size="11" lengthAdjust="spacingAndGlyphs" textLength="37" x="1058.5" y="95.2104">Logic()</text><ellipse cx="1049.5" cy="104.8047" fill="#84BE84" rx="3" ry="3" style="stroke:#038048;stroke-width:1.0;"/><text fill="#000000" font-family="sans-serif" font-size="11" lengthAdjust="spacingAndGlyphs" textLength="144" x="1058.5" y="108.0151">getController(): Controller</text><!--MD5=[b574e60c06c50037ff1b014277a67d62]
class tictactoe.controllers.PlayController--><rect codeLine="37" fill="#FEFECE" filter="url(#fti9q5e3z48zi)" height="176.0469" id="tictactoe.controllers.PlayController" style="stroke:#A80036;stroke-width:1.5;" width="230" x="669.5" y="334"/><ellipse cx="739.25" cy="350" fill="#ADD1B2" rx="11" ry="11" style="stroke:#A80036;stroke-width:1.0;"/><path d="M741.5938,345.6719 C740.6563,345.2344 740.0625,345.0938 739.1875,345.0938 C736.5625,345.0938 734.5625,347.1719 734.5625,349.8906 L734.5625,351.0156 C734.5625,353.5938 736.6719,355.4844 739.5625,355.4844 C740.7813,355.4844 741.9375,355.1875 742.6875,354.6406 C743.2656,354.2344 743.5938,353.7813 743.5938,353.3906 C743.5938,352.9375 743.2031,352.5469 742.7344,352.5469 C742.5156,352.5469 742.3125,352.625 742.125,352.8125 C741.6719,353.2969 741.6719,353.2969 741.4844,353.3906 C741.0625,353.6563 740.375,353.7813 739.6094,353.7813 C737.5625,353.7813 736.2656,352.6875 736.2656,350.9844 L736.2656,349.8906 C736.2656,348.1094 737.5156,346.7969 739.25,346.7969 C739.8281,346.7969 740.4375,346.9531 740.9063,347.2031 C741.3906,347.4844 741.5625,347.7031 741.6563,348.1094 C741.7188,348.5156 741.75,348.6406 741.8906,348.7656 C742.0313,348.9063 742.2656,349.0156 742.4844,349.0156 C742.75,349.0156 743.0156,348.875 743.1875,348.6563 C743.2969,348.5 743.3281,348.3125 743.3281,347.8906 L743.3281,346.4688 C743.3281,346.0313 743.3125,345.9063 743.2188,345.75 C743.0625,345.4844 742.7813,345.3438 742.4844,345.3438 C742.1875,345.3438 741.9844,345.4375 741.7656,345.75 L741.5938,345.6719 Z " fill="#000000"/><text fill="#000000" font-family="sans-serif" font-size="12" lengthAdjust="spacingAndGlyphs" textLength="82" x="759.75" y="354.1543">PlayController</text><line style="stroke:#A80036;stroke-width:1.5;" x1="670.5" x2="898.5" y1="366" y2="366"/><line style="stroke:#A80036;stroke-width:1.5;" x1="670.5" x2="898.5" y1="374" y2="374"/><ellipse cx="680.5" cy="385" fill="#84BE84" rx="3" ry="3" style="stroke:#038048;stroke-width:1.0;"/><text fill="#000000" font-family="sans-serif" font-size="11" lengthAdjust="spacingAndGlyphs" textLength="155" x="689.5" y="388.2104">PlayController(Game,State)</text><ellipse cx="680.5" cy="397.8047" fill="#84BE84" rx="3" ry="3" style="stroke:#038048;stroke-width:1.0;"/><text fill="#000000" font-family="sans-serif" font-size="11" lengthAdjust="spacingAndGlyphs" textLength="159" x="689.5" y="401.0151">isBoardComplete(): boolean</text><ellipse cx="680.5" cy="410.6094" fill="#84BE84" rx="3" ry="3" style="stroke:#038048;stroke-width:1.0;"/><text fill="#000000" font-family="sans-serif" font-size="11" lengthAdjust="spacingAndGlyphs" textLength="128" x="689.5" y="413.8198">isTicTacToe(): boolean</text><ellipse cx="680.5" cy="423.4141" fill="#84BE84" rx="3" ry="3" style="stroke:#038048;stroke-width:1.0;"/><text fill="#000000" font-family="sans-serif" font-size="11" lengthAdjust="spacingAndGlyphs" textLength="104" x="689.5" y="426.6245">getToken(): Token</text><ellipse cx="680.5" cy="436.2188" fill="#84BE84" rx="3" ry="3" style="stroke:#038048;stroke-width:1.0;"/><text fill="#000000" font-family="sans-serif" font-size="11" lengthAdjust="spacingAndGlyphs" textLength="96" x="689.5" y="439.4292">isUser(): boolean</text><ellipse cx="680.5" cy="449.0234" fill="#84BE84" rx="3" ry="3" style="stroke:#038048;stroke-width:1.0;"/><text fill="#000000" font-family="sans-serif" font-size="11" lengthAdjust="spacingAndGlyphs" textLength="202" x="689.5" y="452.2339">isValidCoordinate(Coordinate): Error</text><ellipse cx="680.5" cy="461.8281" fill="#84BE84" rx="3" ry="3" style="stroke:#038048;stroke-width:1.0;"/><text fill="#000000" font-family="sans-serif" font-size="11" lengthAdjust="spacingAndGlyphs" textLength="204" x="689.5" y="465.0386">getRandomCoordinate(): Coordinate</text><ellipse cx="680.5" cy="474.6328" fill="#84BE84" rx="3" ry="3" style="stroke:#038048;stroke-width:1.0;"/><text fill="#000000" font-family="sans-serif" font-size="11" lengthAdjust="spacingAndGlyphs" textLength="121" x="689.5" y="477.8433">put(Coordinate): Error</text><ellipse cx="680.5" cy="487.4375" fill="#84BE84" rx="3" ry="3" style="stroke:#038048;stroke-width:1.0;"/><text fill="#000000" font-family="sans-serif" font-size="11" lengthAdjust="spacingAndGlyphs" textLength="201" x="689.5" y="490.6479">move(Coordinate,Coordinate): Error</text><ellipse cx="680.5" cy="500.2422" fill="#84BE84" rx="3" ry="3" style="stroke:#038048;stroke-width:1.0;"/><text fill="#000000" font-family="sans-serif" font-size="11" lengthAdjust="spacingAndGlyphs" textLength="142" x="689.5" y="503.4526">accept(ControllersVisitor)</text><!--MD5=[d75e1ad11e6a17be2ba08b218e20e3d7]
class tictactoe.controllers.ResumeController--><rect codeLine="58" fill="#FEFECE" filter="url(#fti9q5e3z48zi)" height="73.6094" id="tictactoe.controllers.ResumeController" style="stroke:#A80036;stroke-width:1.5;" width="205" x="972" y="385"/><ellipse cx="1016.75" cy="401" fill="#ADD1B2" rx="11" ry="11" style="stroke:#A80036;stroke-width:1.0;"/><path d="M1019.0938,396.6719 C1018.1563,396.2344 1017.5625,396.0938 1016.6875,396.0938 C1014.0625,396.0938 1012.0625,398.1719 1012.0625,400.8906 L1012.0625,402.0156 C1012.0625,404.5938 1014.1719,406.4844 1017.0625,406.4844 C1018.2813,406.4844 1019.4375,406.1875 1020.1875,405.6406 C1020.7656,405.2344 1021.0938,404.7813 1021.0938,404.3906 C1021.0938,403.9375 1020.7031,403.5469 1020.2344,403.5469 C1020.0156,403.5469 1019.8125,403.625 1019.625,403.8125 C1019.1719,404.2969 1019.1719,404.2969 1018.9844,404.3906 C1018.5625,404.6563 1017.875,404.7813 1017.1094,404.7813 C1015.0625,404.7813 1013.7656,403.6875 1013.7656,401.9844 L1013.7656,400.8906 C1013.7656,399.1094 1015.0156,397.7969 1016.75,397.7969 C1017.3281,397.7969 1017.9375,397.9531 1018.4063,398.2031 C1018.8906,398.4844 1019.0625,398.7031 1019.1563,399.1094 C1019.2188,399.5156 1019.25,399.6406 1019.3906,399.7656 C1019.5313,399.9063 1019.7656,400.0156 1019.9844,400.0156 C1020.25,400.0156 1020.5156,399.875 1020.6875,399.6563 C1020.7969,399.5 1020.8281,399.3125 1020.8281,398.8906 L1020.8281,397.4688 C1020.8281,397.0313 1020.8125,396.9063 1020.7188,396.75 C1020.5625,396.4844 1020.2813,396.3438 1019.9844,396.3438 C1019.6875,396.3438 1019.4844,396.4375 1019.2656,396.75 L1019.0938,396.6719 Z " fill="#000000"/><text fill="#000000" font-family="sans-serif" font-size="12" lengthAdjust="spacingAndGlyphs" textLength="107" x="1037.25" y="405.1543">ResumeController</text><line style="stroke:#A80036;stroke-width:1.5;" x1="973" x2="1176" y1="417" y2="417"/><line style="stroke:#A80036;stroke-width:1.5;" x1="973" x2="1176" y1="425" y2="425"/><ellipse cx="983" cy="436" fill="#84BE84" rx="3" ry="3" style="stroke:#038048;stroke-width:1.0;"/><text fill="#000000" font-family="sans-serif" font-size="11" lengthAdjust="spacingAndGlyphs" textLength="179" x="992" y="439.2104">ResumeController(Game,State)</text><ellipse cx="983" cy="448.8047" fill="#84BE84" rx="3" ry="3" style="stroke:#038048;stroke-width:1.0;"/><text fill="#000000" font-family="sans-serif" font-size="11" lengthAdjust="spacingAndGlyphs" textLength="52" x="992" y="452.0151">resume()</text><!--MD5=[8ede4dbfb3b498095887802b64b699f0]
class tictactoe.controllers.StartController--><rect codeLine="66" fill="#FEFECE" filter="url(#fti9q5e3z48zi)" height="99.2188" id="tictactoe.controllers.StartController" style="stroke:#A80036;stroke-width:1.5;" width="185" x="1212" y="372.5"/><ellipse cx="1256.75" cy="388.5" fill="#ADD1B2" rx="11" ry="11" style="stroke:#A80036;stroke-width:1.0;"/><path d="M1259.0938,384.1719 C1258.1563,383.7344 1257.5625,383.5938 1256.6875,383.5938 C1254.0625,383.5938 1252.0625,385.6719 1252.0625,388.3906 L1252.0625,389.5156 C1252.0625,392.0938 1254.1719,393.9844 1257.0625,393.9844 C1258.2813,393.9844 1259.4375,393.6875 1260.1875,393.1406 C1260.7656,392.7344 1261.0938,392.2813 1261.0938,391.8906 C1261.0938,391.4375 1260.7031,391.0469 1260.2344,391.0469 C1260.0156,391.0469 1259.8125,391.125 1259.625,391.3125 C1259.1719,391.7969 1259.1719,391.7969 1258.9844,391.8906 C1258.5625,392.1563 1257.875,392.2813 1257.1094,392.2813 C1255.0625,392.2813 1253.7656,391.1875 1253.7656,389.4844 L1253.7656,388.3906 C1253.7656,386.6094 1255.0156,385.2969 1256.75,385.2969 C1257.3281,385.2969 1257.9375,385.4531 1258.4063,385.7031 C1258.8906,385.9844 1259.0625,386.2031 1259.1563,386.6094 C1259.2188,387.0156 1259.25,387.1406 1259.3906,387.2656 C1259.5313,387.4063 1259.7656,387.5156 1259.9844,387.5156 C1260.25,387.5156 1260.5156,387.375 1260.6875,387.1563 C1260.7969,387 1260.8281,386.8125 1260.8281,386.3906 L1260.8281,384.9688 C1260.8281,384.5313 1260.8125,384.4063 1260.7188,384.25 C1260.5625,383.9844 1260.2813,383.8438 1259.9844,383.8438 C1259.6875,383.8438 1259.4844,383.9375 1259.2656,384.25 L1259.0938,384.1719 Z " fill="#000000"/><text fill="#000000" font-family="sans-serif" font-size="12" lengthAdjust="spacingAndGlyphs" textLength="87" x="1277.25" y="392.6543">StartController</text><line style="stroke:#A80036;stroke-width:1.5;" x1="1213" x2="1396" y1="404.5" y2="404.5"/><line style="stroke:#A80036;stroke-width:1.5;" x1="1213" x2="1396" y1="412.5" y2="412.5"/><ellipse cx="1223" cy="423.5" fill="#84BE84" rx="3" ry="3" style="stroke:#038048;stroke-width:1.0;"/><text fill="#000000" font-family="sans-serif" font-size="11" lengthAdjust="spacingAndGlyphs" textLength="159" x="1232" y="426.7104">StartController(Game,State)</text><ellipse cx="1223" cy="436.3047" fill="#84BE84" rx="3" ry="3" style="stroke:#038048;stroke-width:1.0;"/><text fill="#000000" font-family="sans-serif" font-size="11" lengthAdjust="spacingAndGlyphs" textLength="72" x="1232" y="439.5151">setUsers(int)</text><ellipse cx="1223" cy="449.1094" fill="#84BE84" rx="3" ry="3" style="stroke:#038048;stroke-width:1.0;"/><text fill="#000000" font-family="sans-serif" font-size="11" lengthAdjust="spacingAndGlyphs" textLength="112" x="1232" y="452.3198">getMaxPlayers(): int</text><ellipse cx="1223" cy="461.9141" fill="#84BE84" rx="3" ry="3" style="stroke:#038048;stroke-width:1.0;"/><text fill="#000000" font-family="sans-serif" font-size="11" lengthAdjust="spacingAndGlyphs" textLength="142" x="1232" y="465.1245">accept(ControllersVisitor)</text><!--MD5=[b6dcce5e5ef3c84b0b048d11301373dd]
class Game--><rect codeLine="1" fill="#FEFECE" filter="url(#fti9q5e3z48zi)" height="53.9375" id="Game" style="stroke:#A80036;stroke-width:1.5;" width="135" x="337" y="586"/><ellipse cx="352" cy="604.9688" fill="#ADD1B2" rx="11" ry="11" style="stroke:#A80036;stroke-width:1.0;"/><path d="M354.3438,600.6406 C353.4063,600.2031 352.8125,600.0625 351.9375,600.0625 C349.3125,600.0625 347.3125,602.1406 347.3125,604.8594 L347.3125,605.9844 C347.3125,608.5625 349.4219,610.4531 352.3125,610.4531 C353.5313,610.4531 354.6875,610.1563 355.4375,609.6094 C356.0156,609.2031 356.3438,608.75 356.3438,608.3594 C356.3438,607.9063 355.9531,607.5156 355.4844,607.5156 C355.2656,607.5156 355.0625,607.5938 354.875,607.7813 C354.4219,608.2656 354.4219,608.2656 354.2344,608.3594 C353.8125,608.625 353.125,608.75 352.3594,608.75 C350.3125,608.75 349.0156,607.6563 349.0156,605.9531 L349.0156,604.8594 C349.0156,603.0781 350.2656,601.7656 352,601.7656 C352.5781,601.7656 353.1875,601.9219 353.6563,602.1719 C354.1406,602.4531 354.3125,602.6719 354.4063,603.0781 C354.4688,603.4844 354.5,603.6094 354.6406,603.7344 C354.7813,603.875 355.0156,603.9844 355.2344,603.9844 C355.5,603.9844 355.7656,603.8438 355.9375,603.625 C356.0469,603.4688 356.0781,603.2813 356.0781,602.8594 L356.0781,601.4375 C356.0781,601 356.0625,600.875 355.9688,600.7188 C355.8125,600.4531 355.5313,600.3125 355.2344,600.3125 C354.9375,600.3125 354.7344,600.4063 354.5156,600.7188 L354.3438,600.6406 Z " fill="#000000"/><text fill="#000000" font-family="sans-serif" font-size="12" lengthAdjust="spacingAndGlyphs" textLength="103" x="366" y="602.1387">tictactoe.models.</text><text fill="#000000" font-family="sans-serif" font-size="12" lengthAdjust="spacingAndGlyphs" textLength="35" x="400" y="616.1074">Game</text><line style="stroke:#A80036;stroke-width:1.5;" x1="338" x2="471" y1="623.9375" y2="623.9375"/><line style="stroke:#A80036;stroke-width:1.5;" x1="338" x2="471" y1="631.9375" y2="631.9375"/><!--MD5=[8c7d7abc12e214c3cc12c9ab70edee11]
class Coordinate--><rect codeLine="2" fill="#FEFECE" filter="url(#fti9q5e3z48zi)" height="53.9375" id="Coordinate" style="stroke:#A80036;stroke-width:1.5;" width="135" x="7" y="586"/><ellipse cx="22" cy="604.9688" fill="#ADD1B2" rx="11" ry="11" style="stroke:#A80036;stroke-width:1.0;"/><path d="M24.3438,600.6406 C23.4063,600.2031 22.8125,600.0625 21.9375,600.0625 C19.3125,600.0625 17.3125,602.1406 17.3125,604.8594 L17.3125,605.9844 C17.3125,608.5625 19.4219,610.4531 22.3125,610.4531 C23.5313,610.4531 24.6875,610.1563 25.4375,609.6094 C26.0156,609.2031 26.3438,608.75 26.3438,608.3594 C26.3438,607.9063 25.9531,607.5156 25.4844,607.5156 C25.2656,607.5156 25.0625,607.5938 24.875,607.7813 C24.4219,608.2656 24.4219,608.2656 24.2344,608.3594 C23.8125,608.625 23.125,608.75 22.3594,608.75 C20.3125,608.75 19.0156,607.6563 19.0156,605.9531 L19.0156,604.8594 C19.0156,603.0781 20.2656,601.7656 22,601.7656 C22.5781,601.7656 23.1875,601.9219 23.6563,602.1719 C24.1406,602.4531 24.3125,602.6719 24.4063,603.0781 C24.4688,603.4844 24.5,603.6094 24.6406,603.7344 C24.7813,603.875 25.0156,603.9844 25.2344,603.9844 C25.5,603.9844 25.7656,603.8438 25.9375,603.625 C26.0469,603.4688 26.0781,603.2813 26.0781,602.8594 L26.0781,601.4375 C26.0781,601 26.0625,600.875 25.9688,600.7188 C25.8125,600.4531 25.5313,600.3125 25.2344,600.3125 C24.9375,600.3125 24.7344,600.4063 24.5156,600.7188 L24.3438,600.6406 Z " fill="#000000"/><text fill="#000000" font-family="sans-serif" font-size="12" lengthAdjust="spacingAndGlyphs" textLength="103" x="36" y="602.1387">tictactoe.models.</text><text fill="#000000" font-family="sans-serif" font-size="12" lengthAdjust="spacingAndGlyphs" textLength="66" x="54.5" y="616.1074">Coordinate</text><line style="stroke:#A80036;stroke-width:1.5;" x1="8" x2="141" y1="623.9375" y2="623.9375"/><line style="stroke:#A80036;stroke-width:1.5;" x1="8" x2="141" y1="631.9375" y2="631.9375"/><!--MD5=[b8cfd8c4119a3b0a7a46bfc5fc780f85]
class Error--><rect codeLine="3" fill="#FEFECE" filter="url(#fti9q5e3z48zi)" height="53.9375" id="Error" style="stroke:#A80036;stroke-width:1.5;" width="124" x="1429.5" y="586"/><ellipse cx="1444.5" cy="604.9688" fill="#ADD1B2" rx="11" ry="11" style="stroke:#A80036;stroke-width:1.0;"/><path d="M1446.8438,600.6406 C1445.9063,600.2031 1445.3125,600.0625 1444.4375,600.0625 C1441.8125,600.0625 1439.8125,602.1406 1439.8125,604.8594 L1439.8125,605.9844 C1439.8125,608.5625 1441.9219,610.4531 1444.8125,610.4531 C1446.0313,610.4531 1447.1875,610.1563 1447.9375,609.6094 C1448.5156,609.2031 1448.8438,608.75 1448.8438,608.3594 C1448.8438,607.9063 1448.4531,607.5156 1447.9844,607.5156 C1447.7656,607.5156 1447.5625,607.5938 1447.375,607.7813 C1446.9219,608.2656 1446.9219,608.2656 1446.7344,608.3594 C1446.3125,608.625 1445.625,608.75 1444.8594,608.75 C1442.8125,608.75 1441.5156,607.6563 1441.5156,605.9531 L1441.5156,604.8594 C1441.5156,603.0781 1442.7656,601.7656 1444.5,601.7656 C1445.0781,601.7656 1445.6875,601.9219 1446.1563,602.1719 C1446.6406,602.4531 1446.8125,602.6719 1446.9063,603.0781 C1446.9688,603.4844 1447,603.6094 1447.1406,603.7344 C1447.2813,603.875 1447.5156,603.9844 1447.7344,603.9844 C1448,603.9844 1448.2656,603.8438 1448.4375,603.625 C1448.5469,603.4688 1448.5781,603.2813 1448.5781,602.8594 L1448.5781,601.4375 C1448.5781,601 1448.5625,600.875 1448.4688,600.7188 C1448.3125,600.4531 1448.0313,600.3125 1447.7344,600.3125 C1447.4375,600.3125 1447.2344,600.4063 1447.0156,600.7188 L1446.8438,600.6406 Z " fill="#000000"/><text fill="#000000" font-family="sans-serif" font-size="12" lengthAdjust="spacingAndGlyphs" textLength="92" x="1458.5" y="602.1387">tictactoe.types.</text><text fill="#000000" font-family="sans-serif" font-size="12" lengthAdjust="spacingAndGlyphs" textLength="30" x="1489.5" y="616.1074">Error</text><line style="stroke:#A80036;stroke-width:1.5;" x1="1430.5" x2="1552.5" y1="623.9375" y2="623.9375"/><line style="stroke:#A80036;stroke-width:1.5;" x1="1430.5" x2="1552.5" y1="631.9375" y2="631.9375"/><!--MD5=[d8c8cfd5ca149094f5b67f9f607a5ec7]
class Token--><rect codeLine="4" fill="#FEFECE" filter="url(#fti9q5e3z48zi)" height="53.9375" id="Token" style="stroke:#A80036;stroke-width:1.5;" width="124" x="177.5" y="586"/><ellipse cx="192.5" cy="604.9688" fill="#ADD1B2" rx="11" ry="11" style="stroke:#A80036;stroke-width:1.0;"/><path d="M194.8438,600.6406 C193.9063,600.2031 193.3125,600.0625 192.4375,600.0625 C189.8125,600.0625 187.8125,602.1406 187.8125,604.8594 L187.8125,605.9844 C187.8125,608.5625 189.9219,610.4531 192.8125,610.4531 C194.0313,610.4531 195.1875,610.1563 195.9375,609.6094 C196.5156,609.2031 196.8438,608.75 196.8438,608.3594 C196.8438,607.9063 196.4531,607.5156 195.9844,607.5156 C195.7656,607.5156 195.5625,607.5938 195.375,607.7813 C194.9219,608.2656 194.9219,608.2656 194.7344,608.3594 C194.3125,608.625 193.625,608.75 192.8594,608.75 C190.8125,608.75 189.5156,607.6563 189.5156,605.9531 L189.5156,604.8594 C189.5156,603.0781 190.7656,601.7656 192.5,601.7656 C193.0781,601.7656 193.6875,601.9219 194.1563,602.1719 C194.6406,602.4531 194.8125,602.6719 194.9063,603.0781 C194.9688,603.4844 195,603.6094 195.1406,603.7344 C195.2813,603.875 195.5156,603.9844 195.7344,603.9844 C196,603.9844 196.2656,603.8438 196.4375,603.625 C196.5469,603.4688 196.5781,603.2813 196.5781,602.8594 L196.5781,601.4375 C196.5781,601 196.5625,600.875 196.4688,600.7188 C196.3125,600.4531 196.0313,600.3125 195.7344,600.3125 C195.4375,600.3125 195.2344,600.4063 195.0156,600.7188 L194.8438,600.6406 Z " fill="#000000"/><text fill="#000000" font-family="sans-serif" font-size="12" lengthAdjust="spacingAndGlyphs" textLength="92" x="206.5" y="602.1387">tictactoe.types.</text><text fill="#000000" font-family="sans-serif" font-size="12" lengthAdjust="spacingAndGlyphs" textLength="37" x="234" y="616.1074">Token</text><line style="stroke:#A80036;stroke-width:1.5;" x1="178.5" x2="300.5" y1="623.9375" y2="623.9375"/><line style="stroke:#A80036;stroke-width:1.5;" x1="178.5" x2="300.5" y1="631.9375" y2="631.9375"/><!--MD5=[60d6b92408f98aed8df94d5c6e04aa63]
class State--><rect codeLine="5" fill="#FEFECE" filter="url(#fti9q5e3z48zi)" height="53.9375" id="State" style="stroke:#A80036;stroke-width:1.5;" width="135" x="1589" y="586"/><ellipse cx="1604" cy="604.9688" fill="#ADD1B2" rx="11" ry="11" style="stroke:#A80036;stroke-width:1.0;"/><path d="M1606.3438,600.6406 C1605.4063,600.2031 1604.8125,600.0625 1603.9375,600.0625 C1601.3125,600.0625 1599.3125,602.1406 1599.3125,604.8594 L1599.3125,605.9844 C1599.3125,608.5625 1601.4219,610.4531 1604.3125,610.4531 C1605.5313,610.4531 1606.6875,610.1563 1607.4375,609.6094 C1608.0156,609.2031 1608.3438,608.75 1608.3438,608.3594 C1608.3438,607.9063 1607.9531,607.5156 1607.4844,607.5156 C1607.2656,607.5156 1607.0625,607.5938 1606.875,607.7813 C1606.4219,608.2656 1606.4219,608.2656 1606.2344,608.3594 C1605.8125,608.625 1605.125,608.75 1604.3594,608.75 C1602.3125,608.75 1601.0156,607.6563 1601.0156,605.9531 L1601.0156,604.8594 C1601.0156,603.0781 1602.2656,601.7656 1604,601.7656 C1604.5781,601.7656 1605.1875,601.9219 1605.6563,602.1719 C1606.1406,602.4531 1606.3125,602.6719 1606.4063,603.0781 C1606.4688,603.4844 1606.5,603.6094 1606.6406,603.7344 C1606.7813,603.875 1607.0156,603.9844 1607.2344,603.9844 C1607.5,603.9844 1607.7656,603.8438 1607.9375,603.625 C1608.0469,603.4688 1608.0781,603.2813 1608.0781,602.8594 L1608.0781,601.4375 C1608.0781,601 1608.0625,600.875 1607.9688,600.7188 C1607.8125,600.4531 1607.5313,600.3125 1607.2344,600.3125 C1606.9375,600.3125 1606.7344,600.4063 1606.5156,600.7188 L1606.3438,600.6406 Z " fill="#000000"/><text fill="#000000" font-family="sans-serif" font-size="12" lengthAdjust="spacingAndGlyphs" textLength="103" x="1618" y="602.1387">tictactoe.models.</text><text fill="#000000" font-family="sans-serif" font-size="12" lengthAdjust="spacingAndGlyphs" textLength="31" x="1654" y="616.1074">State</text><line style="stroke:#A80036;stroke-width:1.5;" x1="1590" x2="1723" y1="623.9375" y2="623.9375"/><line style="stroke:#A80036;stroke-width:1.5;" x1="1590" x2="1723" y1="631.9375" y2="631.9375"/><!--MD5=[167506e288131cdf3986fedef83acd94]
class StateValue--><rect codeLine="6" fill="#FEFECE" filter="url(#fti9q5e3z48zi)" height="53.9375" id="StateValue" style="stroke:#A80036;stroke-width:1.5;" width="135" x="1575" y="197.5"/><ellipse cx="1590" cy="216.4688" fill="#ADD1B2" rx="11" ry="11" style="stroke:#A80036;stroke-width:1.0;"/><path d="M1592.3438,212.1406 C1591.4063,211.7031 1590.8125,211.5625 1589.9375,211.5625 C1587.3125,211.5625 1585.3125,213.6406 1585.3125,216.3594 L1585.3125,217.4844 C1585.3125,220.0625 1587.4219,221.9531 1590.3125,221.9531 C1591.5313,221.9531 1592.6875,221.6563 1593.4375,221.1094 C1594.0156,220.7031 1594.3438,220.25 1594.3438,219.8594 C1594.3438,219.4063 1593.9531,219.0156 1593.4844,219.0156 C1593.2656,219.0156 1593.0625,219.0938 1592.875,219.2813 C1592.4219,219.7656 1592.4219,219.7656 1592.2344,219.8594 C1591.8125,220.125 1591.125,220.25 1590.3594,220.25 C1588.3125,220.25 1587.0156,219.1563 1587.0156,217.4531 L1587.0156,216.3594 C1587.0156,214.5781 1588.2656,213.2656 1590,213.2656 C1590.5781,213.2656 1591.1875,213.4219 1591.6563,213.6719 C1592.1406,213.9531 1592.3125,214.1719 1592.4063,214.5781 C1592.4688,214.9844 1592.5,215.1094 1592.6406,215.2344 C1592.7813,215.375 1593.0156,215.4844 1593.2344,215.4844 C1593.5,215.4844 1593.7656,215.3438 1593.9375,215.125 C1594.0469,214.9688 1594.0781,214.7813 1594.0781,214.3594 L1594.0781,212.9375 C1594.0781,212.5 1594.0625,212.375 1593.9688,212.2188 C1593.8125,211.9531 1593.5313,211.8125 1593.2344,211.8125 C1592.9375,211.8125 1592.7344,211.9063 1592.5156,212.2188 L1592.3438,212.1406 Z " fill="#000000"/><text fill="#000000" font-family="sans-serif" font-size="12" lengthAdjust="spacingAndGlyphs" textLength="103" x="1604" y="213.6387">tictactoe.models.</text><text fill="#000000" font-family="sans-serif" font-size="12" lengthAdjust="spacingAndGlyphs" textLength="64" x="1623.5" y="227.6074">StateValue</text><line style="stroke:#A80036;stroke-width:1.5;" x1="1576" x2="1709" y1="235.4375" y2="235.4375"/><line style="stroke:#A80036;stroke-width:1.5;" x1="1576" x2="1709" y1="243.4375" y2="243.4375"/><!--MD5=[f0e50675208408ddbf1ed7a91f4eb071]
class ClosedInterval--><rect codeLine="7" fill="#FEFECE" filter="url(#fti9q5e3z48zi)" height="53.9375" id="ClosedInterval" style="stroke:#A80036;stroke-width:1.5;" width="130" x="507.5" y="586"/><ellipse cx="522.5" cy="604.9688" fill="#ADD1B2" rx="11" ry="11" style="stroke:#A80036;stroke-width:1.0;"/><path d="M524.8438,600.6406 C523.9063,600.2031 523.3125,600.0625 522.4375,600.0625 C519.8125,600.0625 517.8125,602.1406 517.8125,604.8594 L517.8125,605.9844 C517.8125,608.5625 519.9219,610.4531 522.8125,610.4531 C524.0313,610.4531 525.1875,610.1563 525.9375,609.6094 C526.5156,609.2031 526.8438,608.75 526.8438,608.3594 C526.8438,607.9063 526.4531,607.5156 525.9844,607.5156 C525.7656,607.5156 525.5625,607.5938 525.375,607.7813 C524.9219,608.2656 524.9219,608.2656 524.7344,608.3594 C524.3125,608.625 523.625,608.75 522.8594,608.75 C520.8125,608.75 519.5156,607.6563 519.5156,605.9531 L519.5156,604.8594 C519.5156,603.0781 520.7656,601.7656 522.5,601.7656 C523.0781,601.7656 523.6875,601.9219 524.1563,602.1719 C524.6406,602.4531 524.8125,602.6719 524.9063,603.0781 C524.9688,603.4844 525,603.6094 525.1406,603.7344 C525.2813,603.875 525.5156,603.9844 525.7344,603.9844 C526,603.9844 526.2656,603.8438 526.4375,603.625 C526.5469,603.4688 526.5781,603.2813 526.5781,602.8594 L526.5781,601.4375 C526.5781,601 526.5625,600.875 526.4688,600.7188 C526.3125,600.4531 526.0313,600.3125 525.7344,600.3125 C525.4375,600.3125 525.2344,600.4063 525.0156,600.7188 L524.8438,600.6406 Z " fill="#000000"/><text fill="#000000" font-family="sans-serif" font-size="12" lengthAdjust="spacingAndGlyphs" textLength="98" x="536.5" y="602.1387">usantatecla.utils.</text><text fill="#000000" font-family="sans-serif" font-size="12" lengthAdjust="spacingAndGlyphs" textLength="86" x="542.5" y="616.1074">ClosedInterval</text><line style="stroke:#A80036;stroke-width:1.5;" x1="508.5" x2="636.5" y1="623.9375" y2="623.9375"/><line style="stroke:#A80036;stroke-width:1.5;" x1="508.5" x2="636.5" y1="631.9375" y2="631.9375"/><!--MD5=[6068204d1fdba78d641ceb3415898910]
link tictactoe.controllers.Controller to Game--><path codeLine="15" d="M827.8761,248.5118 C827.8761,248.5118 701.644,292.037 651.5,334 C581.473,392.603 607.295,442.772 545.5,510 C520.971,536.686 488.466,560.761 460.848,578.812 " fill="none" id="tictactoe.controllers.Controller-Game" style="stroke:#A80036;stroke-width:1.0;"/><polygon fill="#A80036" points="449.744,585.921,459.4804,584.4368,453.9548,583.2249,455.1667,577.6994,449.744,585.921" style="stroke:#A80036;stroke-width:1.0;"/><line style="stroke:#A80036;stroke-width:1.0;" x1="453.9548" x2="460.6925" y1="583.2249" y2="578.911"/><polygon fill="#A80036" points="839.433,245.281,832.5776,243.0441,827.8761,248.5118,834.7315,250.7487,839.433,245.281" style="stroke:#A80036;stroke-width:1.0;"/><!--MD5=[dfe8d9a445fb1aefc03baf228bcfa309]
link tictactoe.controllers.Controller to State--><path codeLine="16" d="M1043.4999,238.7259 C1043.4999,238.7259 1358.58,288.674 1414.5,334 C1481.4,388.219 1438.81,445.189 1495.5,510 C1510.87,527.567 1558.19,556.748 1597.58,579.408 " fill="none" id="tictactoe.controllers.Controller-State" style="stroke:#A80036;stroke-width:1.0;"/><polygon fill="#A80036" points="1608.98,585.91,1603.1454,577.9754,1604.6372,583.432,1599.1806,584.9239,1608.98,585.91" style="stroke:#A80036;stroke-width:1.0;"/><line style="stroke:#A80036;stroke-width:1.0;" x1="1604.6372" x2="1597.685" y1="583.432" y2="579.467"/><polygon fill="#A80036" points="1031.61,237.104,1037.0143,241.8782,1043.4999,238.7259,1038.0956,233.9516,1031.61,237.104" style="stroke:#A80036;stroke-width:1.0;"/><!--MD5=[342bd2846cb7233760b6e78f5d6e228f]
link tictactoe.controllers.Controller to Coordinate--><path codeLine="17" d="M839.301,234.834 C689.966,250.6 410.478,285.586 323.5,334 C213.975,394.965 127.786,522.549 92.2113,581.248 " fill="none" id="tictactoe.controllers.Controller-to-Coordinate" style="stroke:#A80036;stroke-width:1.0;stroke-dasharray:7.0,7.0;"/><polygon fill="#A80036" points="89.5344,585.693,97.6032,580.0454,92.1132,581.4093,90.7493,575.9194,89.5344,585.693" style="stroke:#A80036;stroke-width:1.0;"/><!--MD5=[46f9f2e2fca1b0ad7cf51ac0d9d0f196]
link tictactoe.controllers.Controller to Token--><path codeLine="18" d="M839.131,238.917 C756.229,253.439 635.499,281.867 541.5,334 C421.304,400.663 310.8,524.675 263.609,581.783 " fill="none" id="tictactoe.controllers.Controller-to-Token" style="stroke:#A80036;stroke-width:1.0;stroke-dasharray:7.0,7.0;"/><polygon fill="#A80036" points="260.322,585.778,269.1299,581.3712,263.4995,581.9175,262.9532,576.2871,260.322,585.778" style="stroke:#A80036;stroke-width:1.0;"/><!--MD5=[4127cc8c86163a8135ac1ffbe5841b27]
link tictactoe.controllers.Controller to tictactoe.controllers.ControllersVisitor--><path codeLine="19" d="M935.5,274.059 C935.5,348.703 935.5,490.735 935.5,564.646 " fill="none" id="tictactoe.controllers.Controller-to-tictactoe.controllers.ControllersVisitor" style="stroke:#A80036;stroke-width:1.0;stroke-dasharray:7.0,7.0;"/><polygon fill="#A80036" points="935.5,569.848,939.5,560.848,935.5,564.848,931.5,560.848,935.5,569.848" style="stroke:#A80036;stroke-width:1.0;"/><!--MD5=[44e666a769b5edea767f63d227a49329]
link tictactoe.controllers.Logic to Game--><path codeLine="32" d="M1026.7645,96.4046 C1026.7645,96.4046 670.681,191.989 537.5,334 C470.949,404.963 431.838,515.374 414.763,573.39 " fill="none" id="tictactoe.controllers.Logic-Game" style="stroke:#A80036;stroke-width:1.0;"/><polygon fill="#A80036" points="411.171,585.951,417.4914,578.3977,412.5458,581.1437,409.7997,576.1981,411.171,585.951" style="stroke:#A80036;stroke-width:1.0;"/><line style="stroke:#A80036;stroke-width:1.0;" x1="412.5458" x2="414.7455" y1="581.1437" y2="573.452"/><polygon fill="#A80036" points="1038.5,93.899,1031.797,91.24,1026.7645,96.4046,1033.4675,99.0636,1038.5,93.899" style="stroke:#A80036;stroke-width:1.0;"/><!--MD5=[b570711734804a279ee943a47a4c4fab]
link tictactoe.controllers.Logic to State--><path codeLine="33" d="M1199.4621,121.0999 C1199.4621,121.0999 1397.4,244.955 1481.5,334 C1552.49,409.165 1610.7,517.287 1638.62,573.993 " fill="none" id="tictactoe.controllers.Logic-State" style="stroke:#A80036;stroke-width:1.0;"/><polygon fill="#A80036" points="1644.43,585.941,1644.0902,576.098,1642.2429,581.4447,1636.8962,579.5974,1644.43,585.941" style="stroke:#A80036;stroke-width:1.0;"/><line style="stroke:#A80036;stroke-width:1.0;" x1="1642.2429" x2="1638.75" y1="581.4447" y2="574.2495"/><polygon fill="#A80036" points="1189.1,115.048,1192.2638,121.528,1199.4621,121.0999,1196.2984,114.6199,1189.1,115.048" style="stroke:#A80036;stroke-width:1.0;"/><!--MD5=[69f3bd2f5484c60601538f4b457ba790]
link tictactoe.controllers.Logic to StateValue--><path codeLine="34" d="M1220.3614,93.8326 C1220.3614,93.8326 1438.88,135.677 1547.5,175 C1560.04,179.539 1573.04,185.361 1585.25,191.385 " fill="none" id="tictactoe.controllers.Logic-StateValue" style="stroke:#A80036;stroke-width:1.0;"/><polygon fill="#A80036" points="1597.15,197.437,1590.9373,189.7948,1592.6921,195.1726,1587.3143,196.9274,1597.15,197.437" style="stroke:#A80036;stroke-width:1.0;"/><line style="stroke:#A80036;stroke-width:1.0;" x1="1592.6921" x2="1585.56" y1="195.1726" y2="191.5445"/><polygon fill="#A80036" points="1208.53,91.828,1213.7775,96.7741,1220.3614,93.8326,1215.1139,88.8865,1208.53,91.828" style="stroke:#A80036;stroke-width:1.0;"/><!--MD5=[12d6b2ee7a1b6faf9fe809f483963ab7]
link tictactoe.controllers.Logic to tictactoe.controllers.Controller--><path codeLine="35" d="M1067.028,122.4069 C1067.028,122.4069 1028.1,152.329 1009.21,166.843 " fill="none" id="tictactoe.controllers.Logic-tictactoe.controllers.Controller" style="stroke:#A80036;stroke-width:1.0;"/><polygon fill="#A80036" points="998.862,174.799,1008.4357,172.4871,1002.8267,171.7525,1003.5613,166.1436,998.862,174.799" style="stroke:#A80036;stroke-width:1.0;"/><line style="stroke:#A80036;stroke-width:1.0;" x1="1002.8267" x2="1009.168" y1="171.7525" y2="166.8765"/><polygon fill="#A80036" points="1076.54,115.091,1069.3454,115.5783,1067.028,122.4069,1074.2226,121.9196,1076.54,115.091" style="stroke:#A80036;stroke-width:1.0;"/><text fill="#000000" font-family="sans-serif" font-size="13" lengthAdjust="spacingAndGlyphs" textLength="7" x="1000.2801" y="163.816">*</text><!--MD5=[5700b97431232c099330215bddfcc855]
reverse link tictactoe.controllers.Controller to tictactoe.controllers.PlayController--><path codeLine="49" d="M885.695,289.983 C874.862,304.008 863.228,319.071 851.844,333.81 " fill="none" id="tictactoe.controllers.Controller-backto-tictactoe.controllers.PlayController" style="stroke:#A80036;stroke-width:1.0;"/><polygon fill="none" points="880.215,285.626,897.98,274.077,891.295,294.184,880.215,285.626" style="stroke:#A80036;stroke-width:1.0;"/><!--MD5=[fe83eea10e25d043c5deb7f71d3efefa]
link tictactoe.controllers.PlayController to Coordinate--><path codeLine="50" d="M669.337,441.942 C542.191,464.716 332.586,507.804 159.5,570 C148.888,573.813 137.868,578.593 127.419,583.55 " fill="none" id="tictactoe.controllers.PlayController-to-Coordinate" style="stroke:#A80036;stroke-width:1.0;stroke-dasharray:7.0,7.0;"/><polygon fill="#A80036" points="122.662,585.837,132.5064,585.5419,127.1682,583.6703,129.0398,578.3321,122.662,585.837" style="stroke:#A80036;stroke-width:1.0;"/><!--MD5=[17f566e5019e25cb4796a68af68f3905]
link tictactoe.controllers.PlayController to Error--><path codeLine="51" d="M899.789,488.594 C917.694,496.832 936.296,504.339 954.5,510 C1150.96,571.093 1217.69,506.854 1413.5,570 C1424.16,573.439 1435.07,578.321 1445.23,583.547 " fill="none" id="tictactoe.controllers.PlayController-to-Error" style="stroke:#A80036;stroke-width:1.0;stroke-dasharray:7.0,7.0;"/><polygon fill="#A80036" points="1449.83,585.968,1443.7267,578.2382,1445.4048,583.6404,1440.0026,585.3186,1449.83,585.968" style="stroke:#A80036;stroke-width:1.0;"/><!--MD5=[ba4453740163cde41a3c637e3b1e755a]
link tictactoe.controllers.PlayController to Game--><path codeLine="52" d="M669.49,491.271 C657.45,497.813 645.3,504.172 633.5,510 C571.335,540.703 552.612,541.295 489.5,570 C480.1,574.275 470.203,578.977 460.617,583.64 " fill="none" id="tictactoe.controllers.PlayController-to-Game" style="stroke:#A80036;stroke-width:1.0;stroke-dasharray:7.0,7.0;"/><polygon fill="#A80036" points="455.939,585.924,465.7814,585.5686,460.4318,583.7297,462.2706,578.3801,455.939,585.924" style="stroke:#A80036;stroke-width:1.0;"/><!--MD5=[2ada365b675ffc8168b7291fcf650ab7]
link tictactoe.controllers.PlayController to Token--><path codeLine="53" d="M669.425,467.253 C630.346,481.648 586.259,497.199 545.5,510 C446.351,541.139 416.336,532.277 319.5,570 C309.486,573.901 299.103,578.722 289.265,583.691 " fill="none" id="tictactoe.controllers.PlayController-to-Token" style="stroke:#A80036;stroke-width:1.0;stroke-dasharray:7.0,7.0;"/><polygon fill="#A80036" points="284.787,585.982,294.6212,585.4443,289.2384,583.7049,290.9778,578.3221,284.787,585.982" style="stroke:#A80036;stroke-width:1.0;"/><!--MD5=[df6061b2bf3aad39d3892863768243a0]
link tictactoe.controllers.PlayController to State--><path codeLine="54" d="M899.625,489.138 C917.552,497.3 936.205,504.641 954.5,510 C1218.9,587.457 1306.56,494.407 1571.5,570 C1583.27,573.359 1595.38,578.311 1606.63,583.647 " fill="none" id="tictactoe.controllers.PlayController-to-State" style="stroke:#A80036;stroke-width:1.0;stroke-dasharray:7.0,7.0;"/><polygon fill="#A80036" points="1611.4,585.954,1605.0327,578.4402,1606.8969,583.7811,1601.556,585.6452,1611.4,585.954" style="stroke:#A80036;stroke-width:1.0;"/><!--MD5=[635b380301c260d9705613349eb74f13]
link tictactoe.controllers.PlayController to ClosedInterval--><path codeLine="55" d="M686.877,510.032 C657.823,535.934 627.924,562.589 605.985,582.148 " fill="none" id="tictactoe.controllers.PlayController-to-ClosedInterval" style="stroke:#A80036;stroke-width:1.0;stroke-dasharray:7.0,7.0;"/><polygon fill="#A80036" points="601.983,585.716,611.3631,582.7137,605.7156,582.3891,606.0401,576.7416,601.983,585.716" style="stroke:#A80036;stroke-width:1.0;"/><!--MD5=[23cbcec275552d5168a12b754cf1cb3c]
link tictactoe.controllers.PlayController to tictactoe.controllers.ControllersVisitor--><path codeLine="56" d="M854.033,510.032 C869.303,529.145 884.901,548.668 898.307,565.447 " fill="none" id="tictactoe.controllers.PlayController-to-tictactoe.controllers.ControllersVisitor" style="stroke:#A80036;stroke-width:1.0;stroke-dasharray:7.0,7.0;"/><polygon fill="#A80036" points="901.666,569.652,899.1736,560.1237,898.5451,565.7456,892.9233,565.1171,901.666,569.652" style="stroke:#A80036;stroke-width:1.0;"/><!--MD5=[549c2b0fc6f493adecd03b65ab276634]
reverse link tictactoe.controllers.Controller to tictactoe.controllers.ResumeController--><path codeLine="62" d="M981.689,290.464 C1004.071,321.944 1030.1,358.554 1048.89,384.979 " fill="none" id="tictactoe.controllers.Controller-backto-tictactoe.controllers.ResumeController" style="stroke:#A80036;stroke-width:1.0;"/><polygon fill="none" points="975.922,294.433,970.038,274.077,987.332,286.321,975.922,294.433" style="stroke:#A80036;stroke-width:1.0;"/><!--MD5=[a35ef516318c5bb82096013ec88f75bf]
link tictactoe.controllers.ResumeController to Game--><path codeLine="63" d="M1020.46,459.193 C990.945,477.271 953.043,497.831 916.5,510 C734.675,570.551 672.624,513.5 489.5,570 C478.077,573.524 466.295,578.429 455.276,583.648 " fill="none" id="tictactoe.controllers.ResumeController-to-Game" style="stroke:#A80036;stroke-width:1.0;stroke-dasharray:7.0,7.0;"/><polygon fill="#A80036" points="450.603,585.9,460.4471,585.5949,455.107,583.7287,456.9731,578.3886,450.603,585.9" style="stroke:#A80036;stroke-width:1.0;"/><!--MD5=[d25719629d58aae1ac339b0027e60a9e]
link tictactoe.controllers.ResumeController to State--><path codeLine="64" d="M1114.07,459.022 C1136.18,477.167 1165.14,497.842 1194.5,510 C1351.26,574.907 1409.84,518.504 1571.5,570 C1582.75,573.585 1594.38,578.459 1605.28,583.619 " fill="none" id="tictactoe.controllers.ResumeController-to-State" style="stroke:#A80036;stroke-width:1.0;stroke-dasharray:7.0,7.0;"/><polygon fill="#A80036" points="1609.9,585.845,1603.5096,578.3508,1605.3902,583.6859,1600.0551,585.5665,1609.9,585.845" style="stroke:#A80036;stroke-width:1.0;"/><!--MD5=[5deb1e5c7bf9906a35de112138d88f9c]
reverse link tictactoe.controllers.Controller to tictactoe.controllers.StartController--><path codeLine="72" d="M1050.35,265.82 C1096.51,284 1149.38,307.387 1194.5,334 C1213.16,345.01 1232.15,358.88 1248.97,372.29 " fill="none" id="tictactoe.controllers.Controller-backto-tictactoe.controllers.StartController" style="stroke:#A80036;stroke-width:1.0;"/><polygon fill="none" points="1047.82,272.346,1031.68,258.607,1052.86,259.287,1047.82,272.346" style="stroke:#A80036;stroke-width:1.0;"/><!--MD5=[479e7112b5bc5a94513afe00b27faaff]
link tictactoe.controllers.StartController to Game--><path codeLine="73" d="M1255.6,471.702 C1237.79,486.558 1216.57,501.26 1194.5,510 C902.122,625.7762 792.412,485.541 489.5,570 C477.708,573.288 465.593,578.211 454.338,583.54 " fill="none" id="tictactoe.controllers.StartController-to-Game" style="stroke:#A80036;stroke-width:1.0;stroke-dasharray:7.0,7.0;"/><polygon fill="#A80036" points="449.571,585.846,459.4147,585.5271,454.0719,583.6684,455.9306,578.3256,449.571,585.846" style="stroke:#A80036;stroke-width:1.0;"/><!--MD5=[8d9c52d5c7700f08e92c7dd078a553a4]
link tictactoe.controllers.StartController to State--><path codeLine="74" d="M1365.52,471.558 C1383.88,484.966 1404.48,498.871 1424.5,510 C1486.17,544.289 1507.16,541.018 1571.5,570 C1580.92,574.241 1590.82,578.926 1600.41,583.582 " fill="none" id="tictactoe.controllers.StartController-to-State" style="stroke:#A80036;stroke-width:1.0;stroke-dasharray:7.0,7.0;"/><polygon fill="#A80036" points="1605.09,585.863,1598.7458,578.3297,1600.5936,583.6762,1595.247,585.524,1605.09,585.863" style="stroke:#A80036;stroke-width:1.0;"/><!--MD5=[3982cc41c3ae9900c4a9f558e21fa5e9]
link tictactoe.controllers.StartController to tictactoe.controllers.ControllersVisitor--><path codeLine="75" d="M1249.69,471.515 C1232.73,485.073 1213.49,499.07 1194.5,510 C1139.21,541.815 1072.09,567.938 1020.02,585.781 " fill="none" id="tictactoe.controllers.StartController-to-tictactoe.controllers.ControllersVisitor" style="stroke:#A80036;stroke-width:1.0;stroke-dasharray:7.0,7.0;"/><polygon fill="#A80036" points="1015.03,587.482,1024.8394,588.3625,1019.7623,585.8679,1022.2569,580.7908,1015.03,587.482" style="stroke:#A80036;stroke-width:1.0;"/><!--MD5=[12260ca403a1384392ca9369674e765f]
@startuml
class Game as "tictactoe.models.\nGame" {}
class Coordinate as "tictactoe.models.\nCoordinate" {}
class Error as "tictactoe.types.\nError" {}
class Token as "tictactoe.types.\nToken" {}
class State as "tictactoe.models.\nState" {}
class StateValue as "tictactoe.models.\nStateValue" {}
class ClosedInterval as "usantatecla.utils.\nClosedInterval" {}

abstract class tictactoe.controllers.Controller{
  ~ Controller(Game,State)
  + getToken(Coordinate): Token
  + next()
  + {abstract} accept(ControllersVisitor)
}
tictactoe.controllers.Controller *-down-> Game
tictactoe.controllers.Controller *-down-> State
tictactoe.controllers.Controller .down.> Coordinate
tictactoe.controllers.Controller .down.> Token
tictactoe.controllers.Controller .down.> tictactoe.controllers.ControllersVisitor

interface tictactoe.controllers.ControllersVisitor{
  ~ visit(StartController)
  ~ visit(PlayController)
  ~ visit(ResumeController)
}

class tictactoe.controllers.Logic{
  + Logic()
  + getController(): Controller
}

tictactoe.controllers.Logic *-down-> Game
tictactoe.controllers.Logic *-down-> State
tictactoe.controllers.Logic *-down-> StateValue
tictactoe.controllers.Logic *-down-> "*"tictactoe.controllers.Controller

class tictactoe.controllers.PlayController{
  + PlayController(Game,State)
  + isBoardComplete(): boolean
  + isTicTacToe(): boolean
  + getToken(): Token
  + isUser(): boolean
  + isValidCoordinate(Coordinate): Error
  + getRandomCoordinate(): Coordinate
  + put(Coordinate): Error
  + move(Coordinate,Coordinate): Error
  + accept(ControllersVisitor)
}
tictactoe.controllers.Controller <|-down- tictactoe.controllers.PlayController
tictactoe.controllers.PlayController .down.> Coordinate
tictactoe.controllers.PlayController .down.> Error
tictactoe.controllers.PlayController .down.> Game
tictactoe.controllers.PlayController .down.> Token
tictactoe.controllers.PlayController .down.> State
tictactoe.controllers.PlayController .down.> ClosedInterval
tictactoe.controllers.PlayController .down.> tictactoe.controllers.ControllersVisitor

class tictactoe.controllers.ResumeController{
  + ResumeController(Game,State)
  + resume()
}
tictactoe.controllers.Controller <|-down- tictactoe.controllers.ResumeController
tictactoe.controllers.ResumeController .down.> Game
tictactoe.controllers.ResumeController .down.> State

class tictactoe.controllers.StartController{
  + StartController(Game,State)
  + setUsers(int)
  + getMaxPlayers(): int
  + accept(ControllersVisitor)
}
tictactoe.controllers.Controller <|-down- tictactoe.controllers.StartController
tictactoe.controllers.StartController .down.> Game
tictactoe.controllers.StartController .down.> State
tictactoe.controllers.StartController .down.> tictactoe.controllers.ControllersVisitor
@enduml

PlantUML version 1.2020.22(Sun Dec 06 09:36:27 UTC 2020)
(GPL source distribution)
Java Runtime: Java(TM) SE Runtime Environment
JVM: Java HotSpot(TM) 64-Bit Server VM
Default Encoding: UTF-8
Language: en
Country: US
--></g></svg>