<?xml version="1.0" encoding="UTF-8" standalone="no"?><svg xmlns="http://www.w3.org/2000/svg" xmlns:xlink="http://www.w3.org/1999/xlink" contentScriptType="application/ecmascript" contentStyleType="text/css" height="299px" preserveAspectRatio="none" style="width:354px;height:299px;" version="1.1" viewBox="0 0 354 299" width="354px" zoomAndPan="magnify"><defs><filter height="300%" id="fvkwmtiiaj7yb" width="300%" x="-1" y="-1"><feGaussianBlur result="blurOut" stdDeviation="2.0"/><feColorMatrix in="blurOut" result="blurOut2" type="matrix" values="0 0 0 0 0 0 0 0 0 0 0 0 0 0 0 0 0 0 .4 0"/><feOffset dx="4.0" dy="4.0" in="blurOut2" result="blurOut3"/><feBlend in="SourceGraphic" in2="blurOut3" mode="normal"/></filter></defs><g><!--MD5=[807bc46d8103c809ff053af9e140e1f5]
cluster tictactoe--><polygon fill="#FFFFFF" filter="url(#fvkwmtiiaj7yb)" points="98,6,180,6,187,28.2969,264,28.2969,264,169,98,169,98,6" style="stroke: #000000; stroke-width: 1.5;"/><line style="stroke: #000000; stroke-width: 1.5;" x1="98" x2="187" y1="28.2969" y2="28.2969"/><text fill="#000000" font-family="sans-serif" font-size="14" font-weight="bold" lengthAdjust="spacingAndGlyphs" textLength="76" x="102" y="20.9951">tictactoe</text><!--MD5=[51cd642fcc96b47682a93d9084d46dec]
cluster tictactoe.models--><polygon fill="#FFFFFF" filter="url(#fvkwmtiiaj7yb)" points="16,193,161,193,168,215.2969,171,215.2969,171,292,16,292,16,193" style="stroke: #000000; stroke-width: 1.5;"/><line style="stroke: #000000; stroke-width: 1.5;" x1="16" x2="168" y1="215.2969" y2="215.2969"/><text fill="#000000" font-family="sans-serif" font-size="14" font-weight="bold" lengthAdjust="spacingAndGlyphs" textLength="139" x="20" y="207.9951">tictactoe.models</text><!--MD5=[f4e83a21a957c5b9ba9691e6361db36b]
cluster tictactoe.views--><polygon fill="#FFFFFF" filter="url(#fvkwmtiiaj7yb)" points="195,193,327,193,334,215.2969,337,215.2969,337,292,195,292,195,193" style="stroke: #000000; stroke-width: 1.5;"/><line style="stroke: #000000; stroke-width: 1.5;" x1="195" x2="334" y1="215.2969" y2="215.2969"/><text fill="#000000" font-family="sans-serif" font-size="14" font-weight="bold" lengthAdjust="spacingAndGlyphs" textLength="126" x="199" y="207.9951">tictactoe.views</text><!--MD5=[dcfee6ff2a733e6a859ce2b7bcbe021e]
class tictactoe.TicTacToe--><rect codeLine="1" fill="#FEFECE" filter="url(#fvkwmtiiaj7yb)" height="112.0234" id="tictactoe.TicTacToe" style="stroke: #A80036; stroke-width: 1.5;" width="134" x="114" y="41"/><ellipse cx="147.45" cy="57" fill="#ADD1B2" rx="11" ry="11" style="stroke: #A80036; stroke-width: 1.0;"/><path d="M149.7938,52.6719 C148.8563,52.2344 148.2625,52.0938 147.3875,52.0938 C144.7625,52.0938 142.7625,54.1719 142.7625,56.8906 L142.7625,58.0156 C142.7625,60.5938 144.8719,62.4844 147.7625,62.4844 C148.9813,62.4844 150.1375,62.1875 150.8875,61.6406 C151.4656,61.2344 151.7938,60.7813 151.7938,60.3906 C151.7938,59.9375 151.4031,59.5469 150.9344,59.5469 C150.7156,59.5469 150.5125,59.625 150.325,59.8125 C149.8719,60.2969 149.8719,60.2969 149.6844,60.3906 C149.2625,60.6563 148.575,60.7813 147.8094,60.7813 C145.7625,60.7813 144.4656,59.6875 144.4656,57.9844 L144.4656,56.8906 C144.4656,55.1094 145.7156,53.7969 147.45,53.7969 C148.0281,53.7969 148.6375,53.9531 149.1063,54.2031 C149.5906,54.4844 149.7625,54.7031 149.8563,55.1094 C149.9188,55.5156 149.95,55.6406 150.0906,55.7656 C150.2313,55.9063 150.4656,56.0156 150.6844,56.0156 C150.95,56.0156 151.2156,55.875 151.3875,55.6563 C151.4969,55.5 151.5281,55.3125 151.5281,54.8906 L151.5281,53.4688 C151.5281,53.0313 151.5125,52.9063 151.4188,52.75 C151.2625,52.4844 150.9813,52.3438 150.6844,52.3438 C150.3875,52.3438 150.1844,52.4375 149.9656,52.75 L149.7938,52.6719 Z "/><text fill="#000000" font-family="sans-serif" font-size="12" lengthAdjust="spacingAndGlyphs" textLength="61" x="165.55" y="61.1543">TicTacToe</text><line style="stroke: #A80036; stroke-width: 1.5;" x1="115" x2="247" y1="73" y2="73"/><rect fill="none" height="6" style="stroke: #C82930; stroke-width: 1.0;" width="6" x="122" y="81"/><text fill="#000000" font-family="sans-serif" font-size="11" lengthAdjust="spacingAndGlyphs" textLength="75" x="134" y="87.2104">game: Game</text><rect fill="none" height="6" style="stroke: #C82930; stroke-width: 1.0;" width="6" x="122" y="93.8047"/><text fill="#000000" font-family="sans-serif" font-size="11" lengthAdjust="spacingAndGlyphs" textLength="62" x="134" y="100.0151">view: View</text><line style="stroke: #A80036; stroke-width: 1.5;" x1="115" x2="247" y1="106.6094" y2="106.6094"/><polygon fill="#4177AF" points="125,113.6094,121,119.6094,129,119.6094" style="stroke: #1963A0; stroke-width: 1.0;"/><text fill="#000000" font-family="sans-serif" font-size="11" lengthAdjust="spacingAndGlyphs" textLength="66" x="134" y="120.8198">TicTacToe()</text><rect fill="#F24D5C" height="6" style="stroke: #C82930; stroke-width: 1.0;" width="6" x="122" y="127.4141"/><text fill="#000000" font-family="sans-serif" font-size="11" lengthAdjust="spacingAndGlyphs" textLength="63" x="134" y="133.6245">play(): void</text><ellipse cx="125" cy="143.2188" fill="#84BE84" rx="3" ry="3" style="stroke: #038048; stroke-width: 1.0;"/><text fill="#000000" font-family="sans-serif" font-size="11" lengthAdjust="spacingAndGlyphs" textLength="108" x="134" y="146.4292">main(String[]): void</text><!--MD5=[8d3188f3c370ea7d5d91d12bca83b67a]
class tictactoe.models.Game--><rect fill="#FEFECE" filter="url(#fvkwmtiiaj7yb)" height="48" id="tictactoe.models.Game" style="stroke: #A80036; stroke-width: 1.5;" width="67" x="87.5" y="228"/><ellipse cx="102.5" cy="244" fill="#ADD1B2" rx="11" ry="11" style="stroke: #A80036; stroke-width: 1.0;"/><path d="M104.8438,239.6719 C103.9063,239.2344 103.3125,239.0938 102.4375,239.0938 C99.8125,239.0938 97.8125,241.1719 97.8125,243.8906 L97.8125,245.0156 C97.8125,247.5938 99.9219,249.4844 102.8125,249.4844 C104.0313,249.4844 105.1875,249.1875 105.9375,248.6406 C106.5156,248.2344 106.8438,247.7813 106.8438,247.3906 C106.8438,246.9375 106.4531,246.5469 105.9844,246.5469 C105.7656,246.5469 105.5625,246.625 105.375,246.8125 C104.9219,247.2969 104.9219,247.2969 104.7344,247.3906 C104.3125,247.6563 103.625,247.7813 102.8594,247.7813 C100.8125,247.7813 99.5156,246.6875 99.5156,244.9844 L99.5156,243.8906 C99.5156,242.1094 100.7656,240.7969 102.5,240.7969 C103.0781,240.7969 103.6875,240.9531 104.1563,241.2031 C104.6406,241.4844 104.8125,241.7031 104.9063,242.1094 C104.9688,242.5156 105,242.6406 105.1406,242.7656 C105.2813,242.9063 105.5156,243.0156 105.7344,243.0156 C106,243.0156 106.2656,242.875 106.4375,242.6563 C106.5469,242.5 106.5781,242.3125 106.5781,241.8906 L106.5781,240.4688 C106.5781,240.0313 106.5625,239.9063 106.4688,239.75 C106.3125,239.4844 106.0313,239.3438 105.7344,239.3438 C105.4375,239.3438 105.2344,239.4375 105.0156,239.75 L104.8438,239.6719 Z "/><text fill="#000000" font-family="sans-serif" font-size="12" lengthAdjust="spacingAndGlyphs" textLength="35" x="116.5" y="248.1543">Game</text><line style="stroke: #A80036; stroke-width: 1.5;" x1="88.5" x2="153.5" y1="260" y2="260"/><line style="stroke: #A80036; stroke-width: 1.5;" x1="88.5" x2="153.5" y1="268" y2="268"/><!--MD5=[015754420c4cdd9bacda884b3fa8c6ca]
class tictactoe.views.View--><rect fill="#FEFECE" filter="url(#fvkwmtiiaj7yb)" height="48" id="tictactoe.views.View" style="stroke: #A80036; stroke-width: 1.5;" width="61" x="211.5" y="228"/><ellipse cx="226.5" cy="244" fill="#ADD1B2" rx="11" ry="11" style="stroke: #A80036; stroke-width: 1.0;"/><path d="M228.8438,239.6719 C227.9063,239.2344 227.3125,239.0938 226.4375,239.0938 C223.8125,239.0938 221.8125,241.1719 221.8125,243.8906 L221.8125,245.0156 C221.8125,247.5938 223.9219,249.4844 226.8125,249.4844 C228.0313,249.4844 229.1875,249.1875 229.9375,248.6406 C230.5156,248.2344 230.8438,247.7813 230.8438,247.3906 C230.8438,246.9375 230.4531,246.5469 229.9844,246.5469 C229.7656,246.5469 229.5625,246.625 229.375,246.8125 C228.9219,247.2969 228.9219,247.2969 228.7344,247.3906 C228.3125,247.6563 227.625,247.7813 226.8594,247.7813 C224.8125,247.7813 223.5156,246.6875 223.5156,244.9844 L223.5156,243.8906 C223.5156,242.1094 224.7656,240.7969 226.5,240.7969 C227.0781,240.7969 227.6875,240.9531 228.1563,241.2031 C228.6406,241.4844 228.8125,241.7031 228.9063,242.1094 C228.9688,242.5156 229,242.6406 229.1406,242.7656 C229.2813,242.9063 229.5156,243.0156 229.7344,243.0156 C230,243.0156 230.2656,242.875 230.4375,242.6563 C230.5469,242.5 230.5781,242.3125 230.5781,241.8906 L230.5781,240.4688 C230.5781,240.0313 230.5625,239.9063 230.4688,239.75 C230.3125,239.4844 230.0313,239.3438 229.7344,239.3438 C229.4375,239.3438 229.2344,239.4375 229.0156,239.75 L228.8438,239.6719 Z "/><text fill="#000000" font-family="sans-serif" font-size="12" lengthAdjust="spacingAndGlyphs" textLength="29" x="240.5" y="248.1543">View</text><line style="stroke: #A80036; stroke-width: 1.5;" x1="212.5" x2="271.5" y1="260" y2="260"/><line style="stroke: #A80036; stroke-width: 1.5;" x1="212.5" x2="271.5" y1="268" y2="268"/><!--MD5=[427a7078435b5233cd633bc45f56fbf5]
link tictactoe.TicTacToe to tictactoe.models.Game--><path codeLine="8" d="M154.9584,164.4088 C154.9584,164.4088 140.757,200.621 134.905,215.5428 " fill="none" id="tictactoe.TicTacToe-tictactoe.models.Game" style="stroke: #A80036; stroke-width: 1.0;"/><polygon fill="#A80036" points="130.096,227.8042,137.1057,220.8858,131.9215,223.1493,129.6579,217.9651,130.096,227.8042" style="stroke: #A80036; stroke-width: 1.0;"/><line style="stroke: #A80036; stroke-width: 1.0;" x1="131.9215" x2="134.843" y1="223.1493" y2="215.7015"/><polygon fill="#A80036" points="159.339,153.237,153.4247,157.3627,154.9584,164.4088,160.8726,160.2831,159.339,153.237" style="stroke: #A80036; stroke-width: 1.0;"/><!--MD5=[2e9845d2d438f1c6c29fdc19d0711783]
link tictactoe.TicTacToe to tictactoe.views.View--><path codeLine="9" d="M207.466,164.3838 C207.466,164.3838 221.914,200.621 227.863,215.5428 " fill="none" id="tictactoe.TicTacToe-tictactoe.views.View" style="stroke: #A80036; stroke-width: 1.0;"/><polygon fill="#A80036" points="232.752,227.8042,233.1344,217.9628,230.9003,223.1597,225.7033,220.9256,232.752,227.8042" style="stroke: #A80036; stroke-width: 1.0;"/><line style="stroke: #A80036; stroke-width: 1.0;" x1="230.9003" x2="227.9375" y1="223.1597" y2="215.7285"/><polygon fill="#A80036" points="203.022,153.237,201.5284,160.2917,207.466,164.3838,208.9596,157.3291,203.022,153.237" style="stroke: #A80036; stroke-width: 1.0;"/><!--MD5=[eb243d21fa673995190efe698d47a8ed]
@startuml
class  tictactoe.TicTacToe{
- game: Game
- view: View
~ TicTacToe()
- play(): void
+ main(String[]): void
}
tictactoe.TicTacToe *-down-> tictactoe.models.Game
tictactoe.TicTacToe *-down-> tictactoe.views.View
@enduml

PlantUML version 1.2020.20beta2(Unknown compile time)
(GPL source distribution)
Java Runtime: Java(TM) SE Runtime Environment
JVM: Java HotSpot(TM) 64-Bit Server VM
Default Encoding: UTF-8
Language: en
Country: US
--></g></svg>