<?xml version="1.0" encoding="UTF-8" standalone="no"?><svg xmlns="http://www.w3.org/2000/svg" xmlns:xlink="http://www.w3.org/1999/xlink" contentScriptType="application/ecmascript" contentStyleType="text/css" height="868px" preserveAspectRatio="none" style="width:1462px;height:868px;" version="1.1" viewBox="0 0 1462 868" width="1462px" zoomAndPan="magnify"><defs><filter height="300%" id="fs4dxiwgejz2i" width="300%" x="-1" y="-1"><feGaussianBlur result="blurOut" stdDeviation="2.0"/><feColorMatrix in="blurOut" result="blurOut2" type="matrix" values="0 0 0 0 0 0 0 0 0 0 0 0 0 0 0 0 0 0 .4 0"/><feOffset dx="4.0" dy="4.0" in="blurOut2" result="blurOut3"/><feBlend in="SourceGraphic" in2="blurOut3" mode="normal"/></filter></defs><g><!--MD5=[f4e83a21a957c5b9ba9691e6361db36b]
cluster tictactoe.views--><polygon fill="#FFFFFF" filter="url(#fs4dxiwgejz2i)" points="93.469,6,225.469,6,232.469,28.2969,683.4693,28.2969,683.4693,762,93.469,762,93.469,6" style="stroke: #000000; stroke-width: 1.5;"/><line style="stroke: #000000; stroke-width: 1.5;" x1="93.469" x2="232.469" y1="28.2969" y2="28.2969"/><text fill="#000000" font-family="sans-serif" font-size="14" font-weight="bold" lengthAdjust="spacingAndGlyphs" textLength="126" x="97.469" y="20.9951">tictactoe.views</text><!--MD5=[5dff601402b9962ae61c7ab4dc9cae89]
class tictactoe.views.CoordinateView--><rect codeLine="8" fill="#FEFECE" filter="url(#fs4dxiwgejz2i)" height="60.8047" id="tictactoe.views.CoordinateView" style="stroke: #A80036; stroke-width: 1.5;" width="162" x="109.469" y="340.5"/><ellipse cx="140.219" cy="356.5" fill="#ADD1B2" rx="11" ry="11" style="stroke: #A80036; stroke-width: 1.0;"/><path d="M142.5628,352.1719 C141.6253,351.7344 141.0315,351.5938 140.1565,351.5938 C137.5315,351.5938 135.5315,353.6719 135.5315,356.3906 L135.5315,357.5156 C135.5315,360.0938 137.6409,361.9844 140.5315,361.9844 C141.7503,361.9844 142.9065,361.6875 143.6565,361.1406 C144.2346,360.7344 144.5628,360.2813 144.5628,359.8906 C144.5628,359.4375 144.1721,359.0469 143.7034,359.0469 C143.4846,359.0469 143.2815,359.125 143.094,359.3125 C142.6409,359.7969 142.6409,359.7969 142.4534,359.8906 C142.0315,360.1563 141.344,360.2813 140.5784,360.2813 C138.5315,360.2813 137.2346,359.1875 137.2346,357.4844 L137.2346,356.3906 C137.2346,354.6094 138.4846,353.2969 140.219,353.2969 C140.7971,353.2969 141.4065,353.4531 141.8753,353.7031 C142.3596,353.9844 142.5315,354.2031 142.6253,354.6094 C142.6878,355.0156 142.719,355.1406 142.8596,355.2656 C143.0003,355.4063 143.2346,355.5156 143.4534,355.5156 C143.719,355.5156 143.9846,355.375 144.1565,355.1563 C144.2659,355 144.2971,354.8125 144.2971,354.3906 L144.2971,352.9688 C144.2971,352.5313 144.2815,352.4063 144.1878,352.25 C144.0315,351.9844 143.7503,351.8438 143.4534,351.8438 C143.1565,351.8438 142.9534,351.9375 142.7346,352.25 L142.5628,352.1719 Z " fill="#000000"/><text fill="#000000" font-family="sans-serif" font-size="12" lengthAdjust="spacingAndGlyphs" textLength="95" x="157.719" y="360.6543">CoordinateView</text><line style="stroke: #A80036; stroke-width: 1.5;" x1="110.469" x2="270.469" y1="372.5" y2="372.5"/><line style="stroke: #A80036; stroke-width: 1.5;" x1="110.469" x2="270.469" y1="380.5" y2="380.5"/><ellipse cx="120.469" cy="391.5" fill="#84BE84" rx="3" ry="3" style="stroke: #038048; stroke-width: 1.0;"/><text fill="#000000" font-family="sans-serif" font-size="11" lengthAdjust="spacingAndGlyphs" textLength="136" x="129.469" y="394.7104">read(String): Coordinate</text><!--MD5=[17799e03bfee0ccb3aa03b93da9c26d6]
class tictactoe.views.ErrorView--><rect codeLine="15" fill="#FEFECE" filter="url(#fs4dxiwgejz2i)" height="86.4141" id="tictactoe.views.ErrorView" style="stroke: #A80036; stroke-width: 1.5;" width="138" x="109.469" y="564"/><ellipse cx="145.619" cy="580" fill="#ADD1B2" rx="11" ry="11" style="stroke: #A80036; stroke-width: 1.0;"/><path d="M147.9628,575.6719 C147.0253,575.2344 146.4315,575.0938 145.5565,575.0938 C142.9315,575.0938 140.9315,577.1719 140.9315,579.8906 L140.9315,581.0156 C140.9315,583.5938 143.0409,585.4844 145.9315,585.4844 C147.1503,585.4844 148.3065,585.1875 149.0565,584.6406 C149.6346,584.2344 149.9628,583.7813 149.9628,583.3906 C149.9628,582.9375 149.5721,582.5469 149.1034,582.5469 C148.8846,582.5469 148.6815,582.625 148.494,582.8125 C148.0409,583.2969 148.0409,583.2969 147.8534,583.3906 C147.4315,583.6563 146.744,583.7813 145.9784,583.7813 C143.9315,583.7813 142.6346,582.6875 142.6346,580.9844 L142.6346,579.8906 C142.6346,578.1094 143.8846,576.7969 145.619,576.7969 C146.1971,576.7969 146.8065,576.9531 147.2753,577.2031 C147.7596,577.4844 147.9315,577.7031 148.0253,578.1094 C148.0878,578.5156 148.119,578.6406 148.2596,578.7656 C148.4003,578.9063 148.6346,579.0156 148.8534,579.0156 C149.119,579.0156 149.3846,578.875 149.5565,578.6563 C149.6659,578.5 149.6971,578.3125 149.6971,577.8906 L149.6971,576.4688 C149.6971,576.0313 149.6815,575.9063 149.5878,575.75 C149.4315,575.4844 149.1503,575.3438 148.8534,575.3438 C148.5565,575.3438 148.3534,575.4375 148.1346,575.75 L147.9628,575.6719 Z " fill="#000000"/><text fill="#000000" font-family="sans-serif" font-size="12" lengthAdjust="spacingAndGlyphs" textLength="59" x="164.319" y="584.1543">ErrorView</text><line style="stroke: #A80036; stroke-width: 1.5;" x1="110.469" x2="246.469" y1="596" y2="596"/><rect fill="none" height="6" style="stroke: #C82930; stroke-width: 1.0;" width="6" x="117.469" y="604"/><text fill="#000000" font-family="sans-serif" font-size="11" lengthAdjust="spacingAndGlyphs" text-decoration="underline" textLength="112" x="129.469" y="610.2104">MESSAGES: String[]</text><line style="stroke: #A80036; stroke-width: 1.5;" x1="110.469" x2="246.469" y1="616.8047" y2="616.8047"/><polygon fill="#4177AF" points="120.469,623.8047,116.469,629.8047,124.469,629.8047" style="stroke: #1963A0; stroke-width: 1.0;"/><text fill="#000000" font-family="sans-serif" font-size="11" lengthAdjust="spacingAndGlyphs" textLength="88" x="129.469" y="631.0151">ErrorView(Error)</text><polygon fill="#4177AF" points="120.469,636.6094,116.469,642.6094,124.469,642.6094" style="stroke: #1963A0; stroke-width: 1.0;"/><text fill="#000000" font-family="sans-serif" font-size="11" lengthAdjust="spacingAndGlyphs" textLength="46" x="129.469" y="643.8198">writeln()</text><!--MD5=[1daa0cf4ddb9741fae105c8ad335ce98]
class tictactoe.views.GameView--><rect codeLine="23" fill="#FEFECE" filter="url(#fs4dxiwgejz2i)" height="73.6094" id="tictactoe.views.GameView" style="stroke: #A80036; stroke-width: 1.5;" width="132" x="532.4693" y="334"/><ellipse cx="563.6693" cy="350" fill="#ADD1B2" rx="11" ry="11" style="stroke: #A80036; stroke-width: 1.0;"/><path d="M566.0131,345.6719 C565.0756,345.2344 564.4818,345.0938 563.6068,345.0938 C560.9818,345.0938 558.9818,347.1719 558.9818,349.8906 L558.9818,351.0156 C558.9818,353.5938 561.0912,355.4844 563.9818,355.4844 C565.2006,355.4844 566.3568,355.1875 567.1068,354.6406 C567.6849,354.2344 568.0131,353.7813 568.0131,353.3906 C568.0131,352.9375 567.6224,352.5469 567.1537,352.5469 C566.9349,352.5469 566.7318,352.625 566.5443,352.8125 C566.0912,353.2969 566.0912,353.2969 565.9037,353.3906 C565.4818,353.6563 564.7943,353.7813 564.0287,353.7813 C561.9818,353.7813 560.6849,352.6875 560.6849,350.9844 L560.6849,349.8906 C560.6849,348.1094 561.9349,346.7969 563.6693,346.7969 C564.2474,346.7969 564.8568,346.9531 565.3256,347.2031 C565.8099,347.4844 565.9818,347.7031 566.0756,348.1094 C566.1381,348.5156 566.1693,348.6406 566.3099,348.7656 C566.4506,348.9063 566.6849,349.0156 566.9037,349.0156 C567.1693,349.0156 567.4349,348.875 567.6068,348.6563 C567.7162,348.5 567.7474,348.3125 567.7474,347.8906 L567.7474,346.4688 C567.7474,346.0313 567.7318,345.9063 567.6381,345.75 C567.4818,345.4844 567.2006,345.3438 566.9037,345.3438 C566.6068,345.3438 566.4037,345.4375 566.1849,345.75 L566.0131,345.6719 Z " fill="#000000"/><text fill="#000000" font-family="sans-serif" font-size="12" lengthAdjust="spacingAndGlyphs" textLength="64" x="581.2693" y="354.1543">GameView</text><line style="stroke: #A80036; stroke-width: 1.5;" x1="533.4693" x2="663.4693" y1="366" y2="366"/><line style="stroke: #A80036; stroke-width: 1.5;" x1="533.4693" x2="663.4693" y1="374" y2="374"/><polygon fill="#4177AF" points="543.4693,381,539.4693,387,547.4693,387" style="stroke: #1963A0; stroke-width: 1.0;"/><text fill="#000000" font-family="sans-serif" font-size="11" lengthAdjust="spacingAndGlyphs" textLength="106" x="552.4693" y="388.2104">GameView(Game)</text><polygon fill="#4177AF" points="543.4693,393.8047,539.4693,399.8047,547.4693,399.8047" style="stroke: #1963A0; stroke-width: 1.0;"/><text fill="#000000" font-family="sans-serif" font-size="11" lengthAdjust="spacingAndGlyphs" textLength="36" x="552.4693" y="401.0151">write()</text><!--MD5=[8b95091471898ea6b0cbbbb1cd164db3]
class tictactoe.views.Message--><rect codeLine="32" fill="#FEFECE" filter="url(#fs4dxiwgejz2i)" height="278.4844" id="tictactoe.views.Message" style="stroke: #A80036; stroke-width: 1.5;" width="218" x="282.4693" y="468"/><ellipse cx="359.7193" cy="484" fill="#EB937F" rx="11" ry="11" style="stroke: #A80036; stroke-width: 1.0;"/><path d="M358.5162,484.875 L359.9693,484.875 L359.9693,484.9844 C359.9693,485.3906 360.0006,485.5469 360.0787,485.7031 C360.2349,485.9531 360.5162,486.1094 360.8131,486.1094 C361.0631,486.1094 361.3287,485.9688 361.4849,485.75 C361.6099,485.5938 361.6412,485.4375 361.6412,484.9844 L361.6412,483.0625 C361.6412,482.9063 361.6412,482.8594 361.6256,482.7031 C361.5631,482.2344 361.2506,481.9219 360.7974,481.9219 C360.5474,481.9219 360.2818,482.0625 360.1099,482.2813 C360.0006,482.4531 359.9693,482.6094 359.9693,483.0625 L359.9693,483.1875 L358.5162,483.1875 L358.5162,480.7813 L362.5006,480.7813 L362.5006,481.6406 C362.5006,482.0469 362.5318,482.2188 362.6099,482.375 C362.7818,482.625 363.0631,482.7813 363.3443,482.7813 C363.6099,482.7813 363.8756,482.6406 364.0474,482.4219 C364.1568,482.25 364.1881,482.1094 364.1881,481.6406 L364.1881,479.0938 L356.5631,479.0938 C356.1256,479.0938 356.0006,479.1094 355.8443,479.2031 C355.5943,479.3594 355.4381,479.6563 355.4381,479.9375 C355.4381,480.2188 355.5787,480.4688 355.7974,480.6406 C355.9537,480.75 356.1412,480.7813 356.5631,480.7813 L356.8131,480.7813 L356.8131,487.2969 L356.5631,487.2969 C356.1568,487.2969 356.0006,487.3125 355.8443,487.4219 C355.5943,487.5938 355.4381,487.8594 355.4381,488.1563 C355.4381,488.4219 355.5787,488.6719 355.7974,488.8281 C355.9381,488.9531 356.1724,489 356.5631,489 L364.5631,489 L364.5631,486.4219 C364.5631,485.9844 364.5318,485.8438 364.4537,485.6875 C364.2818,485.4375 364.0006,485.2813 363.7193,485.2813 C363.4537,485.2813 363.1881,485.3906 363.0162,485.6406 C362.9068,485.7969 362.8756,485.9375 362.8756,486.4219 L362.8756,487.2969 L358.5162,487.2969 L358.5162,484.875 Z " fill="#000000"/><text fill="#000000" font-family="sans-serif" font-size="12" lengthAdjust="spacingAndGlyphs" textLength="55" x="380.2193" y="488.1543">Message</text><line style="stroke: #A80036; stroke-width: 1.5;" x1="283.4693" x2="499.4693" y1="500" y2="500"/><ellipse cx="293.4693" cy="511" fill="none" rx="3" ry="3" style="stroke: #038048; stroke-width: 1.0;"/><text fill="#000000" font-family="sans-serif" font-size="11" lengthAdjust="spacingAndGlyphs" textLength="30" x="302.4693" y="514.2104">TITLE</text><ellipse cx="293.4693" cy="523.8047" fill="none" rx="3" ry="3" style="stroke: #038048; stroke-width: 1.0;"/><text fill="#000000" font-family="sans-serif" font-size="11" lengthAdjust="spacingAndGlyphs" textLength="102" x="302.4693" y="527.0151">NUMBER_PLAYERS</text><ellipse cx="293.4693" cy="536.6094" fill="none" rx="3" ry="3" style="stroke: #038048; stroke-width: 1.0;"/><text fill="#000000" font-family="sans-serif" font-size="11" lengthAdjust="spacingAndGlyphs" textLength="67" x="302.4693" y="539.8198">SEPARATOR</text><ellipse cx="293.4693" cy="549.4141" fill="none" rx="3" ry="3" style="stroke: #038048; stroke-width: 1.0;"/><text fill="#000000" font-family="sans-serif" font-size="11" lengthAdjust="spacingAndGlyphs" textLength="116" x="302.4693" y="552.6245">VERTICAL_LINE_LEFT</text><ellipse cx="293.4693" cy="562.2188" fill="none" rx="3" ry="3" style="stroke: #038048; stroke-width: 1.0;"/><text fill="#000000" font-family="sans-serif" font-size="11" lengthAdjust="spacingAndGlyphs" textLength="150" x="302.4693" y="565.4292">VERTICAL_LINE_CENTERED</text><ellipse cx="293.4693" cy="575.0234" fill="none" rx="3" ry="3" style="stroke: #038048; stroke-width: 1.0;"/><text fill="#000000" font-family="sans-serif" font-size="11" lengthAdjust="spacingAndGlyphs" textLength="124" x="302.4693" y="578.2339">VERTICAL_LINE_RIGHT</text><ellipse cx="293.4693" cy="587.8281" fill="none" rx="3" ry="3" style="stroke: #038048; stroke-width: 1.0;"/><text fill="#000000" font-family="sans-serif" font-size="11" lengthAdjust="spacingAndGlyphs" textLength="166" x="302.4693" y="591.0386">ENTER_COORDINATE_TO_PUT</text><ellipse cx="293.4693" cy="600.6328" fill="none" rx="3" ry="3" style="stroke: #038048; stroke-width: 1.0;"/><text fill="#000000" font-family="sans-serif" font-size="11" lengthAdjust="spacingAndGlyphs" textLength="192" x="302.4693" y="603.8433">ENTER_COORDINATE_TO_REMOVE</text><ellipse cx="293.4693" cy="613.4375" fill="none" rx="3" ry="3" style="stroke: #038048; stroke-width: 1.0;"/><text fill="#000000" font-family="sans-serif" font-size="11" lengthAdjust="spacingAndGlyphs" textLength="124" x="302.4693" y="616.6479">COORDINATE_TO_PUT</text><ellipse cx="293.4693" cy="626.2422" fill="none" rx="3" ry="3" style="stroke: #038048; stroke-width: 1.0;"/><text fill="#000000" font-family="sans-serif" font-size="11" lengthAdjust="spacingAndGlyphs" textLength="150" x="302.4693" y="629.4526">COORDINATE_TO_REMOVE</text><ellipse cx="293.4693" cy="639.0469" fill="none" rx="3" ry="3" style="stroke: #038048; stroke-width: 1.0;"/><text fill="#000000" font-family="sans-serif" font-size="11" lengthAdjust="spacingAndGlyphs" textLength="136" x="302.4693" y="642.2573">COORDINATE_TO_MOVE</text><ellipse cx="293.4693" cy="651.8516" fill="none" rx="3" ry="3" style="stroke: #038048; stroke-width: 1.0;"/><text fill="#000000" font-family="sans-serif" font-size="11" lengthAdjust="spacingAndGlyphs" textLength="69" x="302.4693" y="655.062">PLAYER_WIN</text><ellipse cx="293.4693" cy="664.6563" fill="none" rx="3" ry="3" style="stroke: #038048; stroke-width: 1.0;"/><text fill="#000000" font-family="sans-serif" font-size="11" lengthAdjust="spacingAndGlyphs" textLength="46" x="302.4693" y="667.8667">RESUME</text><rect fill="none" height="6" style="stroke: #C82930; stroke-width: 1.0;" width="6" x="290.4693" y="674.4609"/><text fill="#000000" font-family="sans-serif" font-size="11" lengthAdjust="spacingAndGlyphs" textLength="93" x="302.4693" y="680.6714">message: String</text><line style="stroke: #A80036; stroke-width: 1.5;" x1="283.4693" x2="499.4693" y1="687.2656" y2="687.2656"/><rect fill="#F24D5C" height="6" style="stroke: #C82930; stroke-width: 1.0;" width="6" x="290.4693" y="695.2656"/><text fill="#000000" font-family="sans-serif" font-size="11" lengthAdjust="spacingAndGlyphs" textLength="92" x="302.4693" y="701.4761">Message(String)</text><polygon fill="#4177AF" points="293.4693,707.0703,289.4693,713.0703,297.4693,713.0703" style="stroke: #1963A0; stroke-width: 1.0;"/><text fill="#000000" font-family="sans-serif" font-size="11" lengthAdjust="spacingAndGlyphs" textLength="67" x="302.4693" y="714.2808">write(): void</text><polygon fill="#4177AF" points="293.4693,719.875,289.4693,725.875,297.4693,725.875" style="stroke: #1963A0; stroke-width: 1.0;"/><text fill="#000000" font-family="sans-serif" font-size="11" lengthAdjust="spacingAndGlyphs" textLength="77" x="302.4693" y="727.0854">writeln(): void</text><ellipse cx="293.4693" cy="736.6797" fill="#84BE84" rx="3" ry="3" style="stroke: #038048; stroke-width: 1.0;"/><text fill="#000000" font-family="sans-serif" font-size="11" lengthAdjust="spacingAndGlyphs" textLength="92" x="302.4693" y="739.8901">toString(): String</text><!--MD5=[24b5a9b67986ee811680be72c33ee9c1]
class tictactoe.views.TokenView--><rect codeLine="93" fill="#FEFECE" filter="url(#fs4dxiwgejz2i)" height="86.4141" id="tictactoe.views.TokenView" style="stroke: #A80036; stroke-width: 1.5;" width="132" x="535.4693" y="564"/><ellipse cx="565.7693" cy="580" fill="#ADD1B2" rx="11" ry="11" style="stroke: #A80036; stroke-width: 1.0;"/><path d="M568.113,575.6719 C567.1755,575.2344 566.5818,575.0938 565.7068,575.0938 C563.0818,575.0938 561.0818,577.1719 561.0818,579.8906 L561.0818,581.0156 C561.0818,583.5938 563.1912,585.4844 566.0818,585.4844 C567.3005,585.4844 568.4568,585.1875 569.2068,584.6406 C569.7849,584.2344 570.113,583.7813 570.113,583.3906 C570.113,582.9375 569.7224,582.5469 569.2537,582.5469 C569.0349,582.5469 568.8318,582.625 568.6443,582.8125 C568.1912,583.2969 568.1912,583.2969 568.0037,583.3906 C567.5818,583.6563 566.8943,583.7813 566.1287,583.7813 C564.0818,583.7813 562.7849,582.6875 562.7849,580.9844 L562.7849,579.8906 C562.7849,578.1094 564.0349,576.7969 565.7693,576.7969 C566.3474,576.7969 566.9568,576.9531 567.4255,577.2031 C567.9099,577.4844 568.0818,577.7031 568.1755,578.1094 C568.238,578.5156 568.2693,578.6406 568.4099,578.7656 C568.5505,578.9063 568.7849,579.0156 569.0037,579.0156 C569.2693,579.0156 569.5349,578.875 569.7068,578.6563 C569.8162,578.5 569.8474,578.3125 569.8474,577.8906 L569.8474,576.4688 C569.8474,576.0313 569.8318,575.9063 569.738,575.75 C569.5818,575.4844 569.3005,575.3438 569.0037,575.3438 C568.7068,575.3438 568.5037,575.4375 568.2849,575.75 L568.113,575.6719 Z " fill="#000000"/><text fill="#000000" font-family="sans-serif" font-size="12" lengthAdjust="spacingAndGlyphs" textLength="66" x="583.1693" y="584.1543">TokenView</text><line style="stroke: #A80036; stroke-width: 1.5;" x1="536.4693" x2="666.4693" y1="596" y2="596"/><rect fill="none" height="6" style="stroke: #C82930; stroke-width: 1.0;" width="6" x="543.4693" y="604"/><text fill="#000000" font-family="sans-serif" font-size="11" lengthAdjust="spacingAndGlyphs" text-decoration="underline" textLength="86" x="555.4693" y="610.2104">SYMBOLS: char</text><line style="stroke: #A80036; stroke-width: 1.5;" x1="536.4693" x2="666.4693" y1="616.8047" y2="616.8047"/><polygon fill="#4177AF" points="546.4693,623.8047,542.4693,629.8047,550.4693,629.8047" style="stroke: #1963A0; stroke-width: 1.0;"/><text fill="#000000" font-family="sans-serif" font-size="11" lengthAdjust="spacingAndGlyphs" textLength="106" x="555.4693" y="631.0151">TokenView(Token)</text><polygon fill="#4177AF" points="546.4693,636.6094,542.4693,642.6094,550.4693,642.6094" style="stroke: #1963A0; stroke-width: 1.0;"/><text fill="#000000" font-family="sans-serif" font-size="11" lengthAdjust="spacingAndGlyphs" textLength="36" x="555.4693" y="643.8198">write()</text><!--MD5=[d0ec73423b3bfd3954fbf7197d3af4d8]
class tictactoe.views.PlayView--><rect codeLine="54" fill="#FEFECE" filter="url(#fs4dxiwgejz2i)" height="99.2188" id="tictactoe.views.PlayView" style="stroke: #A80036; stroke-width: 1.5;" width="120" x="209.4693" y="175"/><ellipse cx="240.6693" cy="191" fill="#ADD1B2" rx="11" ry="11" style="stroke: #A80036; stroke-width: 1.0;"/><path d="M243.013,186.6719 C242.0755,186.2344 241.4818,186.0938 240.6068,186.0938 C237.9818,186.0938 235.9818,188.1719 235.9818,190.8906 L235.9818,192.0156 C235.9818,194.5938 238.0912,196.4844 240.9818,196.4844 C242.2005,196.4844 243.3568,196.1875 244.1068,195.6406 C244.6849,195.2344 245.013,194.7813 245.013,194.3906 C245.013,193.9375 244.6224,193.5469 244.1537,193.5469 C243.9349,193.5469 243.7318,193.625 243.5443,193.8125 C243.0912,194.2969 243.0912,194.2969 242.9037,194.3906 C242.4818,194.6563 241.7943,194.7813 241.0287,194.7813 C238.9818,194.7813 237.6849,193.6875 237.6849,191.9844 L237.6849,190.8906 C237.6849,189.1094 238.9349,187.7969 240.6693,187.7969 C241.2474,187.7969 241.8568,187.9531 242.3255,188.2031 C242.8099,188.4844 242.9818,188.7031 243.0755,189.1094 C243.138,189.5156 243.1693,189.6406 243.3099,189.7656 C243.4505,189.9063 243.6849,190.0156 243.9037,190.0156 C244.1693,190.0156 244.4349,189.875 244.6068,189.6563 C244.7162,189.5 244.7474,189.3125 244.7474,188.8906 L244.7474,187.4688 C244.7474,187.0313 244.7318,186.9063 244.638,186.75 C244.4818,186.4844 244.2005,186.3438 243.9037,186.3438 C243.6068,186.3438 243.4037,186.4375 243.1849,186.75 L243.013,186.6719 Z " fill="#000000"/><text fill="#000000" font-family="sans-serif" font-size="12" lengthAdjust="spacingAndGlyphs" textLength="52" x="258.2693" y="195.1543">PlayView</text><line style="stroke: #A80036; stroke-width: 1.5;" x1="210.4693" x2="328.4693" y1="207" y2="207"/><line style="stroke: #A80036; stroke-width: 1.5;" x1="210.4693" x2="328.4693" y1="215" y2="215"/><polygon fill="#4177AF" points="220.4693,222,216.4693,228,224.4693,228" style="stroke: #1963A0; stroke-width: 1.0;"/><text fill="#000000" font-family="sans-serif" font-size="11" lengthAdjust="spacingAndGlyphs" textLength="94" x="229.4693" y="229.2104">PlayView(Game)</text><polygon fill="#4177AF" points="220.4693,234.8047,216.4693,240.8047,224.4693,240.8047" style="stroke: #1963A0; stroke-width: 1.0;"/><text fill="#000000" font-family="sans-serif" font-size="11" lengthAdjust="spacingAndGlyphs" textLength="51" x="229.4693" y="242.0151">interact()</text><rect fill="#F24D5C" height="6" style="stroke: #C82930; stroke-width: 1.0;" width="6" x="217.4693" y="248.6094"/><text fill="#000000" font-family="sans-serif" font-size="11" lengthAdjust="spacingAndGlyphs" textLength="26" x="229.4693" y="254.8198">put()</text><rect fill="#F24D5C" height="6" style="stroke: #C82930; stroke-width: 1.0;" width="6" x="217.4693" y="261.4141"/><text fill="#000000" font-family="sans-serif" font-size="11" lengthAdjust="spacingAndGlyphs" textLength="41" x="229.4693" y="267.6245">move()</text><!--MD5=[b0dded3726fc172471b94f99f117339d]
class tictactoe.views.SubView--><rect codeLine="87" fill="#FEFECE" filter="url(#fs4dxiwgejz2i)" height="60.8047" id="tictactoe.views.SubView" style="stroke: #A80036; stroke-width: 1.5;" width="119" x="382.9693" y="47.5"/><ellipse cx="413.7193" cy="63.5" fill="#ADD1B2" rx="11" ry="11" style="stroke: #A80036; stroke-width: 1.0;"/><path d="M416.0631,59.1719 C415.1256,58.7344 414.5318,58.5938 413.6568,58.5938 C411.0318,58.5938 409.0318,60.6719 409.0318,63.3906 L409.0318,64.5156 C409.0318,67.0938 411.1412,68.9844 414.0318,68.9844 C415.2506,68.9844 416.4068,68.6875 417.1568,68.1406 C417.7349,67.7344 418.0631,67.2813 418.0631,66.8906 C418.0631,66.4375 417.6724,66.0469 417.2037,66.0469 C416.9849,66.0469 416.7818,66.125 416.5943,66.3125 C416.1412,66.7969 416.1412,66.7969 415.9537,66.8906 C415.5318,67.1563 414.8443,67.2813 414.0787,67.2813 C412.0318,67.2813 410.7349,66.1875 410.7349,64.4844 L410.7349,63.3906 C410.7349,61.6094 411.9849,60.2969 413.7193,60.2969 C414.2974,60.2969 414.9068,60.4531 415.3756,60.7031 C415.8599,60.9844 416.0318,61.2031 416.1256,61.6094 C416.1881,62.0156 416.2193,62.1406 416.3599,62.2656 C416.5006,62.4063 416.7349,62.5156 416.9537,62.5156 C417.2193,62.5156 417.4849,62.375 417.6568,62.1563 C417.7662,62 417.7974,61.8125 417.7974,61.3906 L417.7974,59.9688 C417.7974,59.5313 417.7818,59.4063 417.6881,59.25 C417.5318,58.9844 417.2506,58.8438 416.9537,58.8438 C416.6568,58.8438 416.4537,58.9375 416.2349,59.25 L416.0631,59.1719 Z " fill="#000000"/><text fill="#000000" font-family="sans-serif" font-size="12" lengthAdjust="spacingAndGlyphs" textLength="52" x="431.2193" y="67.6543">SubView</text><line style="stroke: #A80036; stroke-width: 1.5;" x1="383.9693" x2="500.9693" y1="79.5" y2="79.5"/><line style="stroke: #A80036; stroke-width: 1.5;" x1="383.9693" x2="500.9693" y1="87.5" y2="87.5"/><polygon fill="#4177AF" points="393.9693,94.5,389.9693,100.5,397.9693,100.5" style="stroke: #1963A0; stroke-width: 1.0;"/><text fill="#000000" font-family="sans-serif" font-size="11" lengthAdjust="spacingAndGlyphs" textLength="93" x="402.9693" y="101.7104">SubView(Game)</text><!--MD5=[137f690b5283483823808e0278817ad3]
class tictactoe.views.ResumeView--><rect codeLine="68" fill="#FEFECE" filter="url(#fs4dxiwgejz2i)" height="73.6094" id="tictactoe.views.ResumeView" style="stroke: #A80036; stroke-width: 1.5;" width="144" x="364.4693" y="187.5"/><ellipse cx="395.2193" cy="203.5" fill="#ADD1B2" rx="11" ry="11" style="stroke: #A80036; stroke-width: 1.0;"/><path d="M397.5631,199.1719 C396.6256,198.7344 396.0318,198.5938 395.1568,198.5938 C392.5318,198.5938 390.5318,200.6719 390.5318,203.3906 L390.5318,204.5156 C390.5318,207.0938 392.6412,208.9844 395.5318,208.9844 C396.7506,208.9844 397.9068,208.6875 398.6568,208.1406 C399.2349,207.7344 399.5631,207.2813 399.5631,206.8906 C399.5631,206.4375 399.1724,206.0469 398.7037,206.0469 C398.4849,206.0469 398.2818,206.125 398.0943,206.3125 C397.6412,206.7969 397.6412,206.7969 397.4537,206.8906 C397.0318,207.1563 396.3443,207.2813 395.5787,207.2813 C393.5318,207.2813 392.2349,206.1875 392.2349,204.4844 L392.2349,203.3906 C392.2349,201.6094 393.4849,200.2969 395.2193,200.2969 C395.7974,200.2969 396.4068,200.4531 396.8756,200.7031 C397.3599,200.9844 397.5318,201.2031 397.6256,201.6094 C397.6881,202.0156 397.7193,202.1406 397.8599,202.2656 C398.0006,202.4063 398.2349,202.5156 398.4537,202.5156 C398.7193,202.5156 398.9849,202.375 399.1568,202.1563 C399.2662,202 399.2974,201.8125 399.2974,201.3906 L399.2974,199.9688 C399.2974,199.5313 399.2818,199.4063 399.1881,199.25 C399.0318,198.9844 398.7506,198.8438 398.4537,198.8438 C398.1568,198.8438 397.9537,198.9375 397.7349,199.25 L397.5631,199.1719 Z " fill="#000000"/><text fill="#000000" font-family="sans-serif" font-size="12" lengthAdjust="spacingAndGlyphs" textLength="77" x="412.7193" y="207.6543">ResumeView</text><line style="stroke: #A80036; stroke-width: 1.5;" x1="365.4693" x2="507.4693" y1="219.5" y2="219.5"/><line style="stroke: #A80036; stroke-width: 1.5;" x1="365.4693" x2="507.4693" y1="227.5" y2="227.5"/><polygon fill="#4177AF" points="375.4693,234.5,371.4693,240.5,379.4693,240.5" style="stroke: #1963A0; stroke-width: 1.0;"/><text fill="#000000" font-family="sans-serif" font-size="11" lengthAdjust="spacingAndGlyphs" textLength="118" x="384.4693" y="241.7104">ResumeView(Game)</text><polygon fill="#4177AF" points="375.4693,247.3047,371.4693,253.3047,379.4693,253.3047" style="stroke: #1963A0; stroke-width: 1.0;"/><text fill="#000000" font-family="sans-serif" font-size="11" lengthAdjust="spacingAndGlyphs" textLength="104" x="384.4693" y="254.5151">interact(): boolean</text><!--MD5=[50a4c98617440bec164bf073e81d587d]
class tictactoe.views.StartView--><rect codeLine="77" fill="#FEFECE" filter="url(#fs4dxiwgejz2i)" height="73.6094" id="tictactoe.views.StartView" style="stroke: #A80036; stroke-width: 1.5;" width="124" x="543.4693" y="187.5"/><ellipse cx="574.2193" cy="203.5" fill="#ADD1B2" rx="11" ry="11" style="stroke: #A80036; stroke-width: 1.0;"/><path d="M576.5631,199.1719 C575.6256,198.7344 575.0318,198.5938 574.1568,198.5938 C571.5318,198.5938 569.5318,200.6719 569.5318,203.3906 L569.5318,204.5156 C569.5318,207.0938 571.6412,208.9844 574.5318,208.9844 C575.7506,208.9844 576.9068,208.6875 577.6568,208.1406 C578.2349,207.7344 578.5631,207.2813 578.5631,206.8906 C578.5631,206.4375 578.1724,206.0469 577.7037,206.0469 C577.4849,206.0469 577.2818,206.125 577.0943,206.3125 C576.6412,206.7969 576.6412,206.7969 576.4537,206.8906 C576.0318,207.1563 575.3443,207.2813 574.5787,207.2813 C572.5318,207.2813 571.2349,206.1875 571.2349,204.4844 L571.2349,203.3906 C571.2349,201.6094 572.4849,200.2969 574.2193,200.2969 C574.7974,200.2969 575.4068,200.4531 575.8756,200.7031 C576.3599,200.9844 576.5318,201.2031 576.6256,201.6094 C576.6881,202.0156 576.7193,202.1406 576.8599,202.2656 C577.0006,202.4063 577.2349,202.5156 577.4537,202.5156 C577.7193,202.5156 577.9849,202.375 578.1568,202.1563 C578.2662,202 578.2974,201.8125 578.2974,201.3906 L578.2974,199.9688 C578.2974,199.5313 578.2818,199.4063 578.1881,199.25 C578.0318,198.9844 577.7506,198.8438 577.4537,198.8438 C577.1568,198.8438 576.9537,198.9375 576.7349,199.25 L576.5631,199.1719 Z " fill="#000000"/><text fill="#000000" font-family="sans-serif" font-size="12" lengthAdjust="spacingAndGlyphs" textLength="57" x="591.7193" y="207.6543">StartView</text><line style="stroke: #A80036; stroke-width: 1.5;" x1="544.4693" x2="666.4693" y1="219.5" y2="219.5"/><line style="stroke: #A80036; stroke-width: 1.5;" x1="544.4693" x2="666.4693" y1="227.5" y2="227.5"/><polygon fill="#4177AF" points="554.4693,234.5,550.4693,240.5,558.4693,240.5" style="stroke: #1963A0; stroke-width: 1.0;"/><text fill="#000000" font-family="sans-serif" font-size="11" lengthAdjust="spacingAndGlyphs" textLength="98" x="563.4693" y="241.7104">StartView(Game)</text><polygon fill="#4177AF" points="554.4693,247.3047,550.4693,253.3047,558.4693,253.3047" style="stroke: #1963A0; stroke-width: 1.0;"/><text fill="#000000" font-family="sans-serif" font-size="11" lengthAdjust="spacingAndGlyphs" textLength="51" x="563.4693" y="254.5151">interact()</text><!--MD5=[015754420c4cdd9bacda884b3fa8c6ca]
class tictactoe.views.View--><rect codeLine="101" fill="#FEFECE" filter="url(#fs4dxiwgejz2i)" height="73.6094" id="tictactoe.views.View" style="stroke: #A80036; stroke-width: 1.5;" width="97" x="549.9693" y="41"/><ellipse cx="581.1693" cy="57" fill="#ADD1B2" rx="11" ry="11" style="stroke: #A80036; stroke-width: 1.0;"/><path d="M583.5131,52.6719 C582.5756,52.2344 581.9818,52.0938 581.1068,52.0938 C578.4818,52.0938 576.4818,54.1719 576.4818,56.8906 L576.4818,58.0156 C576.4818,60.5938 578.5912,62.4844 581.4818,62.4844 C582.7006,62.4844 583.8568,62.1875 584.6068,61.6406 C585.1849,61.2344 585.5131,60.7813 585.5131,60.3906 C585.5131,59.9375 585.1224,59.5469 584.6537,59.5469 C584.4349,59.5469 584.2318,59.625 584.0443,59.8125 C583.5912,60.2969 583.5912,60.2969 583.4037,60.3906 C582.9818,60.6563 582.2943,60.7813 581.5287,60.7813 C579.4818,60.7813 578.1849,59.6875 578.1849,57.9844 L578.1849,56.8906 C578.1849,55.1094 579.4349,53.7969 581.1693,53.7969 C581.7474,53.7969 582.3568,53.9531 582.8256,54.2031 C583.3099,54.4844 583.4818,54.7031 583.5756,55.1094 C583.6381,55.5156 583.6693,55.6406 583.8099,55.7656 C583.9506,55.9063 584.1849,56.0156 584.4037,56.0156 C584.6693,56.0156 584.9349,55.875 585.1068,55.6563 C585.2162,55.5 585.2474,55.3125 585.2474,54.8906 L585.2474,53.4688 C585.2474,53.0313 585.2318,52.9063 585.1381,52.75 C584.9818,52.4844 584.7006,52.3438 584.4037,52.3438 C584.1068,52.3438 583.9037,52.4375 583.6849,52.75 L583.5131,52.6719 Z " fill="#000000"/><text fill="#000000" font-family="sans-serif" font-size="12" lengthAdjust="spacingAndGlyphs" textLength="29" x="598.7693" y="61.1543">View</text><line style="stroke: #A80036; stroke-width: 1.5;" x1="550.9693" x2="645.9693" y1="73" y2="73"/><line style="stroke: #A80036; stroke-width: 1.5;" x1="550.9693" x2="645.9693" y1="81" y2="81"/><ellipse cx="560.9693" cy="92" fill="#84BE84" rx="3" ry="3" style="stroke: #038048; stroke-width: 1.0;"/><text fill="#000000" font-family="sans-serif" font-size="11" lengthAdjust="spacingAndGlyphs" textLength="71" x="569.9693" y="95.2104">View(Game)</text><ellipse cx="560.9693" cy="104.8047" fill="#84BE84" rx="3" ry="3" style="stroke: #038048; stroke-width: 1.0;"/><text fill="#000000" font-family="sans-serif" font-size="11" lengthAdjust="spacingAndGlyphs" textLength="51" x="569.9693" y="108.0151">interact()</text><!--MD5=[315b61b427ec618d6861d47eee00cca3]
class Console--><rect codeLine="1" fill="#FEFECE" filter="url(#fs4dxiwgejz2i)" height="48" id="Console" style="stroke: #A80036; stroke-width: 1.5;" width="108" x="317.4693" y="806"/><ellipse cx="332.4693" cy="822" fill="#ADD1B2" rx="11" ry="11" style="stroke: #A80036; stroke-width: 1.0;"/><path d="M334.8131,817.6719 C333.8756,817.2344 333.2818,817.0938 332.4068,817.0938 C329.7818,817.0938 327.7818,819.1719 327.7818,821.8906 L327.7818,823.0156 C327.7818,825.5938 329.8912,827.4844 332.7818,827.4844 C334.0006,827.4844 335.1568,827.1875 335.9068,826.6406 C336.4849,826.2344 336.8131,825.7813 336.8131,825.3906 C336.8131,824.9375 336.4224,824.5469 335.9537,824.5469 C335.7349,824.5469 335.5318,824.625 335.3443,824.8125 C334.8912,825.2969 334.8912,825.2969 334.7037,825.3906 C334.2818,825.6563 333.5943,825.7813 332.8287,825.7813 C330.7818,825.7813 329.4849,824.6875 329.4849,822.9844 L329.4849,821.8906 C329.4849,820.1094 330.7349,818.7969 332.4693,818.7969 C333.0474,818.7969 333.6568,818.9531 334.1256,819.2031 C334.6099,819.4844 334.7818,819.7031 334.8756,820.1094 C334.9381,820.5156 334.9693,820.6406 335.1099,820.7656 C335.2506,820.9063 335.4849,821.0156 335.7037,821.0156 C335.9693,821.0156 336.2349,820.875 336.4068,820.6563 C336.5162,820.5 336.5474,820.3125 336.5474,819.8906 L336.5474,818.4688 C336.5474,818.0313 336.5318,817.9063 336.4381,817.75 C336.2818,817.4844 336.0006,817.3438 335.7037,817.3438 C335.4068,817.3438 335.2037,817.4375 334.9849,817.75 L334.8131,817.6719 Z " fill="#000000"/><text fill="#000000" font-family="sans-serif" font-size="12" lengthAdjust="spacingAndGlyphs" textLength="76" x="346.4693" y="826.1543">utils.Console</text><line style="stroke: #A80036; stroke-width: 1.5;" x1="318.4693" x2="424.4693" y1="838" y2="838"/><line style="stroke: #A80036; stroke-width: 1.5;" x1="318.4693" x2="424.4693" y1="846" y2="846"/><!--MD5=[8c7d7abc12e214c3cc12c9ab70edee11]
class Coordinate--><rect codeLine="2" fill="#FEFECE" filter="url(#fs4dxiwgejz2i)" height="48" id="Coordinate" style="stroke: #A80036; stroke-width: 1.5;" width="201" x="699.9693" y="347"/><ellipse cx="714.9693" cy="363" fill="#ADD1B2" rx="11" ry="11" style="stroke: #A80036; stroke-width: 1.0;"/><path d="M717.3131,358.6719 C716.3756,358.2344 715.7818,358.0938 714.9068,358.0938 C712.2818,358.0938 710.2818,360.1719 710.2818,362.8906 L710.2818,364.0156 C710.2818,366.5938 712.3912,368.4844 715.2818,368.4844 C716.5006,368.4844 717.6568,368.1875 718.4068,367.6406 C718.9849,367.2344 719.3131,366.7813 719.3131,366.3906 C719.3131,365.9375 718.9224,365.5469 718.4537,365.5469 C718.2349,365.5469 718.0318,365.625 717.8443,365.8125 C717.3912,366.2969 717.3912,366.2969 717.2037,366.3906 C716.7818,366.6563 716.0943,366.7813 715.3287,366.7813 C713.2818,366.7813 711.9849,365.6875 711.9849,363.9844 L711.9849,362.8906 C711.9849,361.1094 713.2349,359.7969 714.9693,359.7969 C715.5474,359.7969 716.1568,359.9531 716.6256,360.2031 C717.1099,360.4844 717.2818,360.7031 717.3756,361.1094 C717.4381,361.5156 717.4693,361.6406 717.6099,361.7656 C717.7506,361.9063 717.9849,362.0156 718.2037,362.0156 C718.4693,362.0156 718.7349,361.875 718.9068,361.6563 C719.0162,361.5 719.0474,361.3125 719.0474,360.8906 L719.0474,359.4688 C719.0474,359.0313 719.0318,358.9063 718.9381,358.75 C718.7818,358.4844 718.5006,358.3438 718.2037,358.3438 C717.9068,358.3438 717.7037,358.4375 717.4849,358.75 L717.3131,358.6719 Z " fill="#000000"/><text fill="#000000" font-family="sans-serif" font-size="12" lengthAdjust="spacingAndGlyphs" textLength="169" x="728.9693" y="367.1543">tictactoe.models.Coordinate</text><line style="stroke: #A80036; stroke-width: 1.5;" x1="700.9693" x2="899.9693" y1="379" y2="379"/><line style="stroke: #A80036; stroke-width: 1.5;" x1="700.9693" x2="899.9693" y1="387" y2="387"/><!--MD5=[b6dcce5e5ef3c84b0b048d11301373dd]
class Game--><rect codeLine="3" fill="#FEFECE" filter="url(#fs4dxiwgejz2i)" height="48" id="Game" style="stroke: #A80036; stroke-width: 1.5;" width="170" x="1072.4733" y="583"/><ellipse cx="1087.4733" cy="599" fill="#ADD1B2" rx="11" ry="11" style="stroke: #A80036; stroke-width: 1.0;"/><path d="M1089.8171,594.6719 C1088.8796,594.2344 1088.2858,594.0938 1087.4108,594.0938 C1084.7858,594.0938 1082.7858,596.1719 1082.7858,598.8906 L1082.7858,600.0156 C1082.7858,602.5938 1084.8952,604.4844 1087.7858,604.4844 C1089.0046,604.4844 1090.1608,604.1875 1090.9108,603.6406 C1091.4889,603.2344 1091.8171,602.7813 1091.8171,602.3906 C1091.8171,601.9375 1091.4264,601.5469 1090.9577,601.5469 C1090.7389,601.5469 1090.5358,601.625 1090.3483,601.8125 C1089.8952,602.2969 1089.8952,602.2969 1089.7077,602.3906 C1089.2858,602.6563 1088.5983,602.7813 1087.8327,602.7813 C1085.7858,602.7813 1084.4889,601.6875 1084.4889,599.9844 L1084.4889,598.8906 C1084.4889,597.1094 1085.7389,595.7969 1087.4733,595.7969 C1088.0514,595.7969 1088.6608,595.9531 1089.1296,596.2031 C1089.6139,596.4844 1089.7858,596.7031 1089.8796,597.1094 C1089.9421,597.5156 1089.9733,597.6406 1090.1139,597.7656 C1090.2546,597.9063 1090.4889,598.0156 1090.7077,598.0156 C1090.9733,598.0156 1091.2389,597.875 1091.4108,597.6563 C1091.5202,597.5 1091.5514,597.3125 1091.5514,596.8906 L1091.5514,595.4688 C1091.5514,595.0313 1091.5358,594.9063 1091.4421,594.75 C1091.2858,594.4844 1091.0046,594.3438 1090.7077,594.3438 C1090.4108,594.3438 1090.2077,594.4375 1089.9889,594.75 L1089.8171,594.6719 Z " fill="#000000"/><text fill="#000000" font-family="sans-serif" font-size="12" lengthAdjust="spacingAndGlyphs" textLength="138" x="1101.4733" y="603.1543">tictactoe.models.Game</text><line style="stroke: #A80036; stroke-width: 1.5;" x1="1073.4733" x2="1241.4733" y1="615" y2="615"/><line style="stroke: #A80036; stroke-width: 1.5;" x1="1073.4733" x2="1241.4733" y1="623" y2="623"/><!--MD5=[58767b3ac92ed88fc68bd4b9dc66dad3]
class LimitedIntDialog--><rect codeLine="4" fill="#FEFECE" filter="url(#fs4dxiwgejz2i)" height="48" id="LimitedIntDialog" style="stroke: #A80036; stroke-width: 1.5;" width="158" x="1078.4733" y="347"/><ellipse cx="1093.4733" cy="363" fill="#ADD1B2" rx="11" ry="11" style="stroke: #A80036; stroke-width: 1.0;"/><path d="M1095.8171,358.6719 C1094.8796,358.2344 1094.2858,358.0938 1093.4108,358.0938 C1090.7858,358.0938 1088.7858,360.1719 1088.7858,362.8906 L1088.7858,364.0156 C1088.7858,366.5938 1090.8952,368.4844 1093.7858,368.4844 C1095.0046,368.4844 1096.1608,368.1875 1096.9108,367.6406 C1097.4889,367.2344 1097.8171,366.7813 1097.8171,366.3906 C1097.8171,365.9375 1097.4264,365.5469 1096.9577,365.5469 C1096.7389,365.5469 1096.5358,365.625 1096.3483,365.8125 C1095.8952,366.2969 1095.8952,366.2969 1095.7077,366.3906 C1095.2858,366.6563 1094.5983,366.7813 1093.8327,366.7813 C1091.7858,366.7813 1090.4889,365.6875 1090.4889,363.9844 L1090.4889,362.8906 C1090.4889,361.1094 1091.7389,359.7969 1093.4733,359.7969 C1094.0514,359.7969 1094.6608,359.9531 1095.1296,360.2031 C1095.6139,360.4844 1095.7858,360.7031 1095.8796,361.1094 C1095.9421,361.5156 1095.9733,361.6406 1096.1139,361.7656 C1096.2546,361.9063 1096.4889,362.0156 1096.7077,362.0156 C1096.9733,362.0156 1097.2389,361.875 1097.4108,361.6563 C1097.5202,361.5 1097.5514,361.3125 1097.5514,360.8906 L1097.5514,359.4688 C1097.5514,359.0313 1097.5358,358.9063 1097.4421,358.75 C1097.2858,358.4844 1097.0046,358.3438 1096.7077,358.3438 C1096.4108,358.3438 1096.2077,358.4375 1095.9889,358.75 L1095.8171,358.6719 Z " fill="#000000"/><text fill="#000000" font-family="sans-serif" font-size="12" lengthAdjust="spacingAndGlyphs" textLength="122" x="1111.4733" y="367.1543">utils.LimitedIntDialog</text><line style="stroke: #A80036; stroke-width: 1.5;" x1="1079.4733" x2="1235.4733" y1="379" y2="379"/><line style="stroke: #A80036; stroke-width: 1.5;" x1="1079.4733" x2="1235.4733" y1="387" y2="387"/><!--MD5=[d8c8cfd5ca149094f5b67f9f607a5ec7]
class Token--><rect codeLine="5" fill="#FEFECE" filter="url(#fs4dxiwgejz2i)" height="48" id="Token" style="stroke: #A80036; stroke-width: 1.5;" width="172" x="515.4693" y="806"/><ellipse cx="530.4693" cy="822" fill="#ADD1B2" rx="11" ry="11" style="stroke: #A80036; stroke-width: 1.0;"/><path d="M532.8131,817.6719 C531.8756,817.2344 531.2818,817.0938 530.4068,817.0938 C527.7818,817.0938 525.7818,819.1719 525.7818,821.8906 L525.7818,823.0156 C525.7818,825.5938 527.8912,827.4844 530.7818,827.4844 C532.0006,827.4844 533.1568,827.1875 533.9068,826.6406 C534.4849,826.2344 534.8131,825.7813 534.8131,825.3906 C534.8131,824.9375 534.4224,824.5469 533.9537,824.5469 C533.7349,824.5469 533.5318,824.625 533.3443,824.8125 C532.8912,825.2969 532.8912,825.2969 532.7037,825.3906 C532.2818,825.6563 531.5943,825.7813 530.8287,825.7813 C528.7818,825.7813 527.4849,824.6875 527.4849,822.9844 L527.4849,821.8906 C527.4849,820.1094 528.7349,818.7969 530.4693,818.7969 C531.0474,818.7969 531.6568,818.9531 532.1256,819.2031 C532.6099,819.4844 532.7818,819.7031 532.8756,820.1094 C532.9381,820.5156 532.9693,820.6406 533.1099,820.7656 C533.2506,820.9063 533.4849,821.0156 533.7037,821.0156 C533.9693,821.0156 534.2349,820.875 534.4068,820.6563 C534.5162,820.5 534.5474,820.3125 534.5474,819.8906 L534.5474,818.4688 C534.5474,818.0313 534.5318,817.9063 534.4381,817.75 C534.2818,817.4844 534.0006,817.3438 533.7037,817.3438 C533.4068,817.3438 533.2037,817.4375 532.9849,817.75 L532.8131,817.6719 Z " fill="#000000"/><text fill="#000000" font-family="sans-serif" font-size="12" lengthAdjust="spacingAndGlyphs" textLength="140" x="544.4693" y="826.1543">tictactoe.models.Token</text><line style="stroke: #A80036; stroke-width: 1.5;" x1="516.4693" x2="686.4693" y1="838" y2="838"/><line style="stroke: #A80036; stroke-width: 1.5;" x1="516.4693" x2="686.4693" y1="846" y2="846"/><!--MD5=[b8cfd8c4119a3b0a7a46bfc5fc780f85]
class Error--><rect codeLine="6" fill="#FEFECE" filter="url(#fs4dxiwgejz2i)" height="48" id="Error" style="stroke: #A80036; stroke-width: 1.5;" width="165" x="95.969" y="806"/><ellipse cx="110.969" cy="822" fill="#ADD1B2" rx="11" ry="11" style="stroke: #A80036; stroke-width: 1.0;"/><path d="M113.3128,817.6719 C112.3753,817.2344 111.7815,817.0938 110.9065,817.0938 C108.2815,817.0938 106.2815,819.1719 106.2815,821.8906 L106.2815,823.0156 C106.2815,825.5938 108.3909,827.4844 111.2815,827.4844 C112.5003,827.4844 113.6565,827.1875 114.4065,826.6406 C114.9846,826.2344 115.3128,825.7813 115.3128,825.3906 C115.3128,824.9375 114.9221,824.5469 114.4534,824.5469 C114.2346,824.5469 114.0315,824.625 113.844,824.8125 C113.3909,825.2969 113.3909,825.2969 113.2034,825.3906 C112.7815,825.6563 112.094,825.7813 111.3284,825.7813 C109.2815,825.7813 107.9846,824.6875 107.9846,822.9844 L107.9846,821.8906 C107.9846,820.1094 109.2346,818.7969 110.969,818.7969 C111.5471,818.7969 112.1565,818.9531 112.6253,819.2031 C113.1096,819.4844 113.2815,819.7031 113.3753,820.1094 C113.4378,820.5156 113.469,820.6406 113.6096,820.7656 C113.7503,820.9063 113.9846,821.0156 114.2034,821.0156 C114.469,821.0156 114.7346,820.875 114.9065,820.6563 C115.0159,820.5 115.0471,820.3125 115.0471,819.8906 L115.0471,818.4688 C115.0471,818.0313 115.0315,817.9063 114.9378,817.75 C114.7815,817.4844 114.5003,817.3438 114.2034,817.3438 C113.9065,817.3438 113.7034,817.4375 113.4846,817.75 L113.3128,817.6719 Z " fill="#000000"/><text fill="#000000" font-family="sans-serif" font-size="12" lengthAdjust="spacingAndGlyphs" textLength="133" x="124.969" y="826.1543">tictactoe.models.Error</text><line style="stroke: #A80036; stroke-width: 1.5;" x1="96.969" x2="259.969" y1="838" y2="838"/><line style="stroke: #A80036; stroke-width: 1.5;" x1="96.969" x2="259.969" y1="846" y2="846"/><!--MD5=[99d6336bba19e3fafbecd9dc1fd92438]
reverse link Console to tictactoe.views.CoordinateView--><path codeLine="11" d="M311.9293,813.7852 C300.8323,811.0887 289.3163,808.3837 278.4693,806 C195.8043,787.834 145.3633,835.2597 91.469,770 C6,666.508 39.1521,591.606 91.469,468 C102.7605,441.322 125.495,418.416 146.3323,401.677 " fill="none" id="Console-backto-tictactoe.views.CoordinateView" style="stroke: #A80036; stroke-width: 1.0; stroke-dasharray: 7.0,7.0;"/><polygon fill="#A80036" points="316.9953,815.0224,309.2023,809,312.1383,813.8353,307.303,816.7712,316.9953,815.0224" style="stroke: #A80036; stroke-width: 1.0;"/><!--MD5=[a2aa97973bbec00dc7da22191c4cd233]
reverse link Coordinate to tictactoe.views.CoordinateView--><path codeLine="12" d="M759.3333,344.25 C733.6363,329.168 699.2163,311.823 665.9693,304 C529.4313,271.875 366.9753,310.917 271.6463,341.457 " fill="none" id="Coordinate-backto-tictactoe.views.CoordinateView" style="stroke: #A80036; stroke-width: 1.0; stroke-dasharray: 7.0,7.0;"/><polygon fill="#A80036" points="763.7033,346.843,758.0044,338.8104,759.4033,344.2916,753.9221,345.6904,763.7033,346.843" style="stroke: #A80036; stroke-width: 1.0;"/><!--MD5=[4b31c31b5e3724f6ae6047fba7d06c34]
link tictactoe.views.CoordinateView to tictactoe.views.ErrorView--><path codeLine="13" d="M188.9493,401.636 C186.9173,441.268 183.2913,511.97 180.8833,558.931 " fill="none" id="tictactoe.views.CoordinateView-to-tictactoe.views.ErrorView" style="stroke: #A80036; stroke-width: 1.0; stroke-dasharray: 7.0,7.0;"/><polygon fill="#A80036" points="180.6243,563.967,185.0794,555.1834,180.88,558.9735,177.0899,554.7742,180.6243,563.967" style="stroke: #A80036; stroke-width: 1.0;"/><!--MD5=[ae1c90b1b0d5f5c9b4678c8c2697d89e]
reverse link Console to tictactoe.views.ErrorView--><path codeLine="20" d="M312.5193,804.332 C295.6003,795.2921 278.0703,783.8194 264.4693,770 C230.7413,735.732 206.8803,685.527 192.9823,650.108 " fill="none" id="Console-backto-tictactoe.views.ErrorView" style="stroke: #A80036; stroke-width: 1.0; stroke-dasharray: 7.0,7.0;"/><polygon fill="#A80036" points="317.2713,806.8172,311.1498,799.1018,312.8406,804.5001,307.4424,806.1909,317.2713,806.8172" style="stroke: #A80036; stroke-width: 1.0;"/><!--MD5=[6b5fb949459e9919da652f12454cf9c5]
link tictactoe.views.ErrorView to Error--><path codeLine="21" d="M178.4693,662.089 C178.4693,662.089 178.4693,757.1173 178.4693,792.3224 " fill="none" id="tictactoe.views.ErrorView-Error" style="stroke: #A80036; stroke-width: 1.0;"/><polygon fill="#A80036" points="178.4693,805.7416,182.4693,796.7416,178.4693,800.7416,174.4693,796.7416,178.4693,805.7416" style="stroke: #A80036; stroke-width: 1.0;"/><line style="stroke: #A80036; stroke-width: 1.0;" x1="178.4693" x2="178.4693" y1="800.7416" y2="792.7416"/><polygon fill="#A80036" points="178.4693,650.089,174.4693,656.089,178.4693,662.089,182.4693,656.089,178.4693,650.089" style="stroke: #A80036; stroke-width: 1.0;"/><!--MD5=[2d62c9e24925bf6e46393aff0f5327bb]
link tictactoe.views.GameView to tictactoe.views.Message--><path codeLine="27" d="M566.5793,408.05 C549.3923,427.478 527.0383,452.748 504.0813,478.699 " fill="none" id="tictactoe.views.GameView-to-tictactoe.views.Message" style="stroke: #A80036; stroke-width: 1.0; stroke-dasharray: 7.0,7.0;"/><polygon fill="#A80036" points="500.6913,482.532,509.6508,478.4421,504.0045,478.7873,503.6593,473.141,500.6913,482.532" style="stroke: #A80036; stroke-width: 1.0;"/><!--MD5=[b0809fa13c6285ff7f2bc12aeb84d60f]
link tictactoe.views.GameView to Game--><path codeLine="28" d="M675.5162,405.0547 C675.5162,405.0547 680.5513,407.189 682.4693,408 C827.0373,469.108 996.8753,539.589 1089.2233,577.801 " fill="none" id="tictactoe.views.GameView-Game" style="stroke: #A80036; stroke-width: 1.0;"/><polygon fill="#A80036" points="1101.4533,582.862,1094.6669,575.7245,1096.8333,580.95,1091.6077,583.1165,1101.4533,582.862" style="stroke: #A80036; stroke-width: 1.0;"/><line style="stroke: #A80036; stroke-width: 1.0;" x1="1096.8333" x2="1089.4433" y1="580.95" y2="577.8925"/><polygon fill="#A80036" points="664.4723,400.361,668.4297,406.3892,675.5162,405.0547,671.5589,399.0266,664.4723,400.361" style="stroke: #A80036; stroke-width: 1.0;"/><!--MD5=[78ea98ccf120cf292015349721830810]
link tictactoe.views.GameView to Coordinate--><path codeLine="29" d="M664.7503,371 C674.6823,371 684.6143,371 694.5463,371 " fill="none" id="tictactoe.views.GameView-to-Coordinate" style="stroke: #A80036; stroke-width: 1.0; stroke-dasharray: 7.0,7.0;"/><polygon fill="#A80036" points="699.7403,371,690.7403,367,694.7403,371,690.7403,375,699.7403,371" style="stroke: #A80036; stroke-width: 1.0;"/><!--MD5=[904dab0eb1b1724711a4ab89a03eca73]
link tictactoe.views.GameView to tictactoe.views.TokenView--><path codeLine="30" d="M598.9313,408.05 C599.4503,448.539 600.2943,514.398 600.8653,558.921 " fill="none" id="tictactoe.views.GameView-to-tictactoe.views.TokenView" style="stroke: #A80036; stroke-width: 1.0; stroke-dasharray: 7.0,7.0;"/><polygon fill="#A80036" points="600.9303,563.971,604.8143,554.9203,600.866,558.9714,596.8149,555.0232,600.9303,563.971" style="stroke: #A80036; stroke-width: 1.0;"/><!--MD5=[c07da26758a9269fd0b37bd7c33bafaa]
link tictactoe.views.Message to Console--><path codeLine="52" d="M378.9733,746.079 C377.1163,766.594 375.3823,785.7541 374.0503,800.4774 " fill="none" id="tictactoe.views.Message-to-Console" style="stroke: #A80036; stroke-width: 1.0; stroke-dasharray: 7.0,7.0;"/><polygon fill="#A80036" points="373.5783,805.6953,378.3737,797.0927,374.0293,800.7157,370.4063,796.3712,373.5783,805.6953" style="stroke: #A80036; stroke-width: 1.0;"/><!--MD5=[3b58a40937d8141bb780ee6a75fdf0bf]
reverse link tictactoe.views.SubView to tictactoe.views.PlayView--><path codeLine="60" d="M391.4123,121.646 C371.3973,138.364 348.3213,157.638 327.6653,174.891 " fill="none" id="tictactoe.views.SubView-backto-tictactoe.views.PlayView" style="stroke: #A80036; stroke-width: 1.0;"/><polygon fill="none" points="387.2053,116.039,407.0423,108.59,396.1803,126.784,387.2053,116.039" style="stroke: #A80036; stroke-width: 1.0;"/><!--MD5=[8a2f3cfb4b5d7142c733f9f54479b825]
link tictactoe.views.PlayView to Game--><path codeLine="61" d="M329.5413,266.838 C335.1103,269.586 340.7963,272.036 346.4693,274 C588.0183,357.629 694.7923,210.271 918.4693,334 C955.0343,354.227 949.4633,376.111 976.4693,408 C1029.6133,470.753 1095.5533,541.132 1131.3533,578.766 " fill="none" id="tictactoe.views.PlayView-to-Game" style="stroke: #A80036; stroke-width: 1.0; stroke-dasharray: 7.0,7.0;"/><polygon fill="#A80036" points="1135.1433,582.748,1131.8244,573.4752,1131.6917,579.1305,1126.0364,578.9978,1135.1433,582.748" style="stroke: #A80036; stroke-width: 1.0;"/><!--MD5=[2af3c02359f604461a6754505e8f13b5]
link tictactoe.views.PlayView to tictactoe.views.TokenView--><path codeLine="62" d="M326.9243,274.163 C379.9583,320.74 459.1023,394.584 517.4693,468 C540.1673,496.551 561.4813,531.705 576.9593,559.387 " fill="none" id="tictactoe.views.PlayView-to-tictactoe.views.TokenView" style="stroke: #A80036; stroke-width: 1.0; stroke-dasharray: 7.0,7.0;"/><polygon fill="#A80036" points="579.3923,563.763,578.5143,553.9534,576.9624,559.3932,571.5226,557.8412,579.3923,563.763" style="stroke: #A80036; stroke-width: 1.0;"/><!--MD5=[edca281b580e2448c9d00b790a7895f2]
link tictactoe.views.PlayView to tictactoe.views.Message--><path codeLine="63" d="M285.0443,274.077 C300.2883,321.621 324.2633,396.396 345.6013,462.947 " fill="none" id="tictactoe.views.PlayView-to-tictactoe.views.Message" style="stroke: #A80036; stroke-width: 1.0; stroke-dasharray: 7.0,7.0;"/><polygon fill="#A80036" points="347.1333,467.724,348.1935,457.9324,345.6063,462.9629,340.5757,460.3756,347.1333,467.724" style="stroke: #A80036; stroke-width: 1.0;"/><!--MD5=[5fb24374968393b651bd455dcfd11bf0]
link tictactoe.views.PlayView to Coordinate--><path codeLine="64" d="M329.7023,266.399 C335.2363,269.242 340.8703,271.834 346.4693,274 C488.3543,328.892 535.6013,298.23 683.4693,334 C697.1753,337.316 711.6363,341.331 725.5393,345.46 " fill="none" id="tictactoe.views.PlayView-to-Coordinate" style="stroke: #A80036; stroke-width: 1.0; stroke-dasharray: 7.0,7.0;"/><polygon fill="#A80036" points="730.6343,346.986,723.1599,340.5724,725.8444,345.5518,720.8651,348.2363,730.6343,346.986" style="stroke: #A80036; stroke-width: 1.0;"/><!--MD5=[14039a5e13b9bfd9b970da3bde7393a0]
link tictactoe.views.PlayView to tictactoe.views.CoordinateView--><path codeLine="65" d="M242.9433,274.018 C231.8693,294.275 219.2633,317.331 209.1833,335.769 " fill="none" id="tictactoe.views.PlayView-to-tictactoe.views.CoordinateView" style="stroke: #A80036; stroke-width: 1.0; stroke-dasharray: 7.0,7.0;"/><polygon fill="#A80036" points="206.6783,340.352,214.5054,334.374,209.0769,335.9649,207.486,330.5363,206.6783,340.352" style="stroke: #A80036; stroke-width: 1.0;"/><!--MD5=[b56be4d7a9b2d9a2091a76170ee182ed]
link tictactoe.views.PlayView to tictactoe.views.ErrorView--><path codeLine="66" d="M283.8043,274.232 C292.5253,311.401 299.9753,363.595 288.4693,408 C280.4023,439.131 237.7393,511.309 207.9813,559.374 " fill="none" id="tictactoe.views.PlayView-to-tictactoe.views.ErrorView" style="stroke: #A80036; stroke-width: 1.0; stroke-dasharray: 7.0,7.0;"/><polygon fill="#A80036" points="205.3243,563.658,213.467,558.1176,207.9595,559.4088,206.6683,553.9013,205.3243,563.658" style="stroke: #A80036; stroke-width: 1.0;"/><!--MD5=[f6ded20cf481ac8d1ae1b1d01efed252]
reverse link tictactoe.views.SubView to tictactoe.views.ResumeView--><path codeLine="73" d="M440.4083,128.624 C439.6083,147.889 438.7093,169.54 437.9723,187.29 " fill="none" id="tictactoe.views.SubView-backto-tictactoe.views.ResumeView" style="stroke: #A80036; stroke-width: 1.0;"/><polygon fill="none" points="433.4163,128.283,441.2403,108.59,447.4043,128.864,433.4163,128.283" style="stroke: #A80036; stroke-width: 1.0;"/><!--MD5=[20aa125ab4b33aeda3c954a9f4bbe726]
link tictactoe.views.ResumeView to Game--><path codeLine="74" d="M495.4413,261.503 C505.2083,266.327 515.4303,270.729 525.4693,274 C719.4033,337.2 807.9243,225.219 980.4693,334 C1073.9233,392.916 1128.0533,521.154 1148.2733,577.956 " fill="none" id="tictactoe.views.ResumeView-to-Game" style="stroke: #A80036; stroke-width: 1.0; stroke-dasharray: 7.0,7.0;"/><polygon fill="#A80036" points="1150.0133,582.9,1150.7997,573.0826,1148.3539,578.1834,1143.2531,575.7376,1150.0133,582.9" style="stroke: #A80036; stroke-width: 1.0;"/><!--MD5=[12846fc21134289c63f2daf74f167f26]
link tictactoe.views.ResumeView to tictactoe.views.Message--><path codeLine="75" d="M432.1953,261.64 C426.7533,307.654 417.0253,389.907 408.4413,462.487 " fill="none" id="tictactoe.views.ResumeView-to-tictactoe.views.Message" style="stroke: #A80036; stroke-width: 1.0; stroke-dasharray: 7.0,7.0;"/><polygon fill="#A80036" points="407.8253,467.695,412.8568,459.2284,408.4138,462.7298,404.9124,458.2867,407.8253,467.695" style="stroke: #A80036; stroke-width: 1.0;"/><!--MD5=[47bac97083a4cd91adbb3fa451b343e4]
reverse link tictactoe.views.SubView to tictactoe.views.StartView--><path codeLine="81" d="M490.9003,121.934 C514.3693,142.74 542.2453,167.452 564.6233,187.29 " fill="none" id="tictactoe.views.SubView-backto-tictactoe.views.StartView" style="stroke: #A80036; stroke-width: 1.0;"/><polygon fill="none" points="486.1703,127.096,475.8483,108.59,495.4573,116.62,486.1703,127.096" style="stroke: #A80036; stroke-width: 1.0;"/><!--MD5=[0989c8eb96f2ddfeaeb985b30ad5cc8c]
link tictactoe.views.StartView to Game--><path codeLine="82" d="M667.4963,226.142 C814.9053,229.114 1179.4933,245.454 1254.4733,334 C1317.3033,408.209 1229.2533,526.095 1182.8833,578.884 " fill="none" id="tictactoe.views.StartView-to-Game" style="stroke: #A80036; stroke-width: 1.0; stroke-dasharray: 7.0,7.0;"/><polygon fill="#A80036" points="1179.3433,582.875,1188.3131,578.8077,1182.6659,579.1387,1182.3349,573.4915,1179.3433,582.875" style="stroke: #A80036; stroke-width: 1.0;"/><!--MD5=[e9ea9a3a2f4b72faec74d460f05a15ac]
link tictactoe.views.StartView to tictactoe.views.GameView--><path codeLine="83" d="M603.7203,261.591 C602.7313,282.021 601.4893,307.65 600.4623,328.858 " fill="none" id="tictactoe.views.StartView-to-tictactoe.views.GameView" style="stroke: #A80036; stroke-width: 1.0; stroke-dasharray: 7.0,7.0;"/><polygon fill="#A80036" points="600.2193,333.869,604.6492,325.0726,600.4607,328.8748,596.6585,324.6864,600.2193,333.869" style="stroke: #A80036; stroke-width: 1.0;"/><!--MD5=[aae6db7922926f7b92f87c46defcfd6f]
link tictactoe.views.StartView to LimitedIntDialog--><path codeLine="84" d="M667.6133,238.787 C754.2153,257.718 915.8403,294.556 1051.4733,334 C1063.3333,337.45 1075.8333,341.406 1087.9333,345.404 " fill="none" id="tictactoe.views.StartView-to-LimitedIntDialog" style="stroke: #A80036; stroke-width: 1.0; stroke-dasharray: 7.0,7.0;"/><polygon fill="#A80036" points="1092.7333,346.997,1085.4475,340.37,1087.9869,345.4249,1082.9321,347.9643,1092.7333,346.997" style="stroke: #A80036; stroke-width: 1.0;"/><!--MD5=[90c2339cba62045155a0011492a1a8d7]
link tictactoe.views.StartView to tictactoe.views.Message--><path codeLine="85" d="M570.7793,261.708 C552.5533,281.929 530.6963,308.192 514.4693,334 C489.2503,374.109 466.3573,420.259 447.3453,463.019 " fill="none" id="tictactoe.views.StartView-to-tictactoe.views.Message" style="stroke: #A80036; stroke-width: 1.0; stroke-dasharray: 7.0,7.0;"/><polygon fill="#A80036" points="445.2823,467.68,452.5838,461.0703,447.3068,463.1082,445.2689,457.8312,445.2823,467.68" style="stroke: #A80036; stroke-width: 1.0;"/><!--MD5=[63fa4748a13526c9c00ceb9b8f87920d]
link tictactoe.views.SubView to Game--><path codeLine="91" d="M513.4014,108.122 C513.4014,108.122 526.6103,112.987 532.4693,115 C864.1153,228.924 1079.7133,53.733 1290.4733,334 C1349.3333,412.274 1252.0633,520.686 1194.7533,573.908 " fill="none" id="tictactoe.views.SubView-Game" style="stroke: #A80036; stroke-width: 1.0;"/><polygon fill="#A80036" points="1184.9033,582.879,1194.25,579.7743,1188.5993,579.5115,1188.8621,573.8608,1184.9033,582.879" style="stroke: #A80036; stroke-width: 1.0;"/><line style="stroke: #A80036; stroke-width: 1.0;" x1="1188.5993" x2="1194.5183" y1="579.5115" y2="574.125"/><polygon fill="#A80036" points="502.1883,103.848,506.3702,109.7227,513.4014,108.122,509.2195,102.2473,502.1883,103.848" style="stroke: #A80036; stroke-width: 1.0;"/><!--MD5=[fa91d124da9b204e4c31d21c089b516f]
link tictactoe.views.TokenView to Token--><path codeLine="98" d="M601.4693,662.089 C601.4693,662.089 601.4693,757.1173 601.4693,792.3224 " fill="none" id="tictactoe.views.TokenView-Token" style="stroke: #A80036; stroke-width: 1.0;"/><polygon fill="#A80036" points="601.4693,805.7416,605.4693,796.7416,601.4693,800.7416,597.4693,796.7416,601.4693,805.7416" style="stroke: #A80036; stroke-width: 1.0;"/><line style="stroke: #A80036; stroke-width: 1.0;" x1="601.4693" x2="601.4693" y1="800.7416" y2="792.7416"/><polygon fill="#A80036" points="601.4693,650.089,597.4693,656.089,601.4693,662.089,605.4693,656.089,601.4693,650.089" style="stroke: #A80036; stroke-width: 1.0;"/><!--MD5=[f6386cb6917808910ca4d6690df09727]
link tictactoe.views.TokenView to Console--><path codeLine="99" d="M588.9033,650.084 C576.1723,686.221 553.2043,737.485 517.4693,770 C493.1923,792.0884 459.5763,806.4352 430.7193,815.4436 " fill="none" id="tictactoe.views.TokenView-to-Console" style="stroke: #A80036; stroke-width: 1.0; stroke-dasharray: 7.0,7.0;"/><polygon fill="#A80036" points="425.7613,816.9539,435.5363,818.1574,430.5443,815.4968,433.2049,810.5047,425.7613,816.9539" style="stroke: #A80036; stroke-width: 1.0;"/><!--MD5=[b9dbb39a1c61277113646da44606cabc]
link tictactoe.views.View to Game--><path codeLine="105" d="M659.1125,81.8421 C659.1125,81.8421 1338.4333,120.763 1386.4733,175 C1455.1233,252.526 1429.5333,313.826 1386.4733,408 C1351.2633,484.973 1269.7333,543.459 1214.0833,576.255 " fill="none" id="tictactoe.views.View-Game" style="stroke: #A80036; stroke-width: 1.0;"/><polygon fill="#A80036" points="1202.6333,582.861,1212.4286,581.8356,1206.9661,580.3656,1208.4361,574.9031,1202.6333,582.861" style="stroke: #A80036; stroke-width: 1.0;"/><line style="stroke: #A80036; stroke-width: 1.0;" x1="1206.9661" x2="1213.8933" y1="580.3656" y2="576.3665"/><polygon fill="#A80036" points="647.1273,81.246,652.9212,85.5391,659.1125,81.8421,653.3186,77.549,647.1273,81.246" style="stroke: #A80036; stroke-width: 1.0;"/><!--MD5=[162e61ccfe0c70dae4a3356c790f8713]
link tictactoe.views.View to tictactoe.views.StartView--><path codeLine="106" d="M600.7988,127.0769 C600.7988,127.0769 602.3653,159.429 603.0833,174.247 " fill="none" id="tictactoe.views.View-tictactoe.views.StartView" style="stroke: #A80036; stroke-width: 1.0;"/><polygon fill="#A80036" points="603.7183,187.369,607.2784,178.1861,603.4765,182.3748,599.2878,178.5729,603.7183,187.369" style="stroke: #A80036; stroke-width: 1.0;"/><line style="stroke: #A80036; stroke-width: 1.0;" x1="603.4765" x2="603.0898" y1="182.3748" y2="174.384"/><polygon fill="#A80036" points="600.2173,115.091,596.5127,121.2778,600.7988,127.0769,604.5033,120.8901,600.2173,115.091" style="stroke: #A80036; stroke-width: 1.0;"/><!--MD5=[b154bf5c27e08267002d89cc620f84e6]
link tictactoe.views.View to tictactoe.views.PlayView--><path codeLine="107" d="M538.9147,106.8435 C538.9147,106.8435 525.3683,112.639 519.4693,115 C443.9143,145.24 419.8213,139.751 346.4693,175 C344.7333,175.834 342.9883,176.699 341.2393,177.589 " fill="none" id="tictactoe.views.View-tictactoe.views.PlayView" style="stroke: #A80036; stroke-width: 1.0;"/><polygon fill="#A80036" points="329.6813,183.787,339.5032,183.0586,334.0877,181.4239,335.7223,176.0084,329.6813,183.787" style="stroke: #A80036; stroke-width: 1.0;"/><line style="stroke: #A80036; stroke-width: 1.0;" x1="334.0877" x2="341.1378" y1="181.4239" y2="177.643"/><polygon fill="#A80036" points="549.8933,101.999,542.7891,100.7617,538.9147,106.8435,546.0188,108.0808,549.8933,101.999" style="stroke: #A80036; stroke-width: 1.0;"/><!--MD5=[7b150ce1c9f94aa8e3a34d59dc556e30]
link tictactoe.views.View to tictactoe.views.ResumeView--><path codeLine="108" d="M549.0519,123.0785 C549.0519,123.0785 506.3813,161.14 486.8883,178.527 " fill="none" id="tictactoe.views.View-tictactoe.views.ResumeView" style="stroke: #A80036; stroke-width: 1.0;"/><polygon fill="#A80036" points="476.9763,187.369,486.3554,184.3635,480.7077,184.0409,481.0304,178.3932,476.9763,187.369" style="stroke: #A80036; stroke-width: 1.0;"/><line style="stroke: #A80036; stroke-width: 1.0;" x1="480.7077" x2="486.6778" y1="184.0409" y2="178.7155"/><polygon fill="#A80036" points="558.0073,115.091,550.8671,116.0996,549.0519,123.0785,556.1921,122.0699,558.0073,115.091" style="stroke: #A80036; stroke-width: 1.0;"/><!--MD5=[e365d2b5c1b83a9418d117fceee1e3d8]
@startuml
class Console as "utils.Console"{}
class Coordinate as "tictactoe.models.Coordinate" {}
class Game as "tictactoe.models.Game"{}
class LimitedIntDialog as " utils.LimitedIntDialog"{}
class Token as "tictactoe.models.Token"{}
class Error as "tictactoe.models.Error"{}

class  tictactoe.views.CoordinateView{
+ read(String): Coordinate
}
Console <..-down- tictactoe.views.CoordinateView
Coordinate <..-down- tictactoe.views.CoordinateView
tictactoe.views.CoordinateView ..> tictactoe.views.ErrorView

class  tictactoe.views.ErrorView{
- {static} MESSAGES: String[]
~ ErrorView(Error)
~ writeln()
}
Console <..-down- tictactoe.views.ErrorView
tictactoe.views.ErrorView *-down-> Error

class  tictactoe.views.GameView{
~ GameView(Game)
~ write()
}
tictactoe.views.GameView ..> tictactoe.views.Message
tictactoe.views.GameView *-down-> Game
tictactoe.views.GameView ..> Coordinate
tictactoe.views.GameView ..> tictactoe.views.TokenView

enum  tictactoe.views.Message{
+ TITLE
+ NUMBER_PLAYERS 
+ SEPARATOR
+ VERTICAL_LINE_LEFT
+ VERTICAL_LINE_CENTERED
+ VERTICAL_LINE_RIGHT
+ ENTER_COORDINATE_TO_PUT
+ ENTER_COORDINATE_TO_REMOVE
+ COORDINATE_TO_PUT
+ COORDINATE_TO_REMOVE
+ COORDINATE_TO_MOVE
+	PLAYER_WIN
+ RESUME
- message: String
- Message(String)
~ write(): void
~ writeln(): void
+ toString(): String
}
tictactoe.views.Message ..> Console

class  tictactoe.views.PlayView{
~ PlayView(Game)
~ interact()
- put()
- move()
}
tictactoe.views.SubView <|-down- tictactoe.views.PlayView
tictactoe.views.PlayView ..> Game
tictactoe.views.PlayView ..> tictactoe.views.TokenView
tictactoe.views.PlayView ..> tictactoe.views.Message
tictactoe.views.PlayView ..> Coordinate
tictactoe.views.PlayView ..> tictactoe.views.CoordinateView
tictactoe.views.PlayView ..> tictactoe.views.ErrorView

class  tictactoe.views.ResumeView{
~ ResumeView(Game)
~ interact(): boolean

}
tictactoe.views.SubView <|-down- tictactoe.views.ResumeView
tictactoe.views.ResumeView ..> Game
tictactoe.views.ResumeView ..> tictactoe.views.Message

class tictactoe.views.StartView{
~ StartView(Game)
~ interact()
}
tictactoe.views.SubView <|-down- tictactoe.views.StartView
tictactoe.views.StartView ..> Game
tictactoe.views.StartView ..> tictactoe.views.GameView
tictactoe.views.StartView ..> LimitedIntDialog
tictactoe.views.StartView ..> tictactoe.views.Message

class tictactoe.views.SubView{
~ SubView(Game)
}

tictactoe.views.SubView *- -> Game

class tictactoe.views.TokenView{
- {static} SYMBOLS: char
~ TokenView(Token)
~ write()
}
tictactoe.views.TokenView *- -> Token
tictactoe.views.TokenView ..> Console

class  tictactoe.views.View{
+ View(Game)
+ interact()
}
tictactoe.views.View *-down-> Game
tictactoe.views.View *-down-> tictactoe.views.StartView
tictactoe.views.View *-down-> tictactoe.views.PlayView
tictactoe.views.View *-down-> tictactoe.views.ResumeView
@enduml

PlantUML version 1.2020.20beta8(Unknown compile time)
(GPL source distribution)
Java Runtime: Java(TM) SE Runtime Environment
JVM: Java HotSpot(TM) 64-Bit Server VM
Default Encoding: UTF-8
Language: en
Country: US
--></g></svg>