<?xml version="1.0" encoding="UTF-8" standalone="no"?><svg xmlns="http://www.w3.org/2000/svg" xmlns:xlink="http://www.w3.org/1999/xlink" contentScriptType="application/ecmascript" contentStyleType="text/css" height="1137px" preserveAspectRatio="none" style="width:1374px;height:1137px;" version="1.1" viewBox="0 0 1374 1137" width="1374px" zoomAndPan="magnify"><defs><filter height="300%" id="fyuefly87xgk8" width="300%" x="-1" y="-1"><feGaussianBlur result="blurOut" stdDeviation="2.0"/><feColorMatrix in="blurOut" result="blurOut2" type="matrix" values="0 0 0 0 0 0 0 0 0 0 0 0 0 0 0 0 0 0 .4 0"/><feOffset dx="4.0" dy="4.0" in="blurOut2" result="blurOut3"/><feBlend in="SourceGraphic" in2="blurOut3" mode="normal"/></filter></defs><g><!--MD5=[f4e83a21a957c5b9ba9691e6361db36b]
cluster tictactoe.views--><polygon fill="#FFFFFF" filter="url(#fyuefly87xgk8)" points="186,6,318,6,325,28.2969,932,28.2969,932,838,186,838,186,6" style="stroke: #000000; stroke-width: 1.5;"/><line style="stroke: #000000; stroke-width: 1.5;" x1="186" x2="325" y1="28.2969" y2="28.2969"/><text fill="#000000" font-family="sans-serif" font-size="14" font-weight="bold" lengthAdjust="spacingAndGlyphs" textLength="126" x="190" y="20.9951">tictactoe.views</text><!--MD5=[c52f45833d539af9e29a9d34b8b7302b]
cluster utils--><polygon fill="#FFFFFF" filter="url(#fyuefly87xgk8)" points="16,1031,59,1031,66,1053.2969,414,1053.2969,414,1130,16,1130,16,1031" style="stroke: #000000; stroke-width: 1.5;"/><line style="stroke: #000000; stroke-width: 1.5;" x1="16" x2="66" y1="1053.2969" y2="1053.2969"/><text fill="#000000" font-family="sans-serif" font-size="14" font-weight="bold" lengthAdjust="spacingAndGlyphs" textLength="37" x="20" y="1045.9951">utils</text><!--MD5=[51cd642fcc96b47682a93d9084d46dec]
cluster tictactoe.models--><polygon fill="#FFFFFF" filter="url(#fyuefly87xgk8)" points="775,908,920,908,927,930.2969,1113,930.2969,1113,1007,775,1007,775,908" style="stroke: #000000; stroke-width: 1.5;"/><line style="stroke: #000000; stroke-width: 1.5;" x1="775" x2="927" y1="930.2969" y2="930.2969"/><text fill="#000000" font-family="sans-serif" font-size="14" font-weight="bold" lengthAdjust="spacingAndGlyphs" textLength="139" x="779" y="922.9951">tictactoe.models</text><!--MD5=[5dff601402b9962ae61c7ab4dc9cae89]
class tictactoe.views.CoordinateView--><rect codeLine="1" fill="#FEFECE" filter="url(#fyuefly87xgk8)" height="60.8047" id="tictactoe.views.CoordinateView" style="stroke: #A80036; stroke-width: 1.5;" width="162" x="754" y="493.5"/><ellipse cx="784.75" cy="509.5" fill="#ADD1B2" rx="11" ry="11" style="stroke: #A80036; stroke-width: 1.0;"/><path d="M787.0938,505.1719 C786.1563,504.7344 785.5625,504.5938 784.6875,504.5938 C782.0625,504.5938 780.0625,506.6719 780.0625,509.3906 L780.0625,510.5156 C780.0625,513.0938 782.1719,514.9844 785.0625,514.9844 C786.2813,514.9844 787.4375,514.6875 788.1875,514.1406 C788.7656,513.7344 789.0938,513.2813 789.0938,512.8906 C789.0938,512.4375 788.7031,512.0469 788.2344,512.0469 C788.0156,512.0469 787.8125,512.125 787.625,512.3125 C787.1719,512.7969 787.1719,512.7969 786.9844,512.8906 C786.5625,513.1563 785.875,513.2813 785.1094,513.2813 C783.0625,513.2813 781.7656,512.1875 781.7656,510.4844 L781.7656,509.3906 C781.7656,507.6094 783.0156,506.2969 784.75,506.2969 C785.3281,506.2969 785.9375,506.4531 786.4063,506.7031 C786.8906,506.9844 787.0625,507.2031 787.1563,507.6094 C787.2188,508.0156 787.25,508.1406 787.3906,508.2656 C787.5313,508.4063 787.7656,508.5156 787.9844,508.5156 C788.25,508.5156 788.5156,508.375 788.6875,508.1563 C788.7969,508 788.8281,507.8125 788.8281,507.3906 L788.8281,505.9688 C788.8281,505.5313 788.8125,505.4063 788.7188,505.25 C788.5625,504.9844 788.2813,504.8438 787.9844,504.8438 C787.6875,504.8438 787.4844,504.9375 787.2656,505.25 L787.0938,505.1719 Z "/><text fill="#000000" font-family="sans-serif" font-size="12" lengthAdjust="spacingAndGlyphs" textLength="95" x="802.25" y="513.6543">CoordinateView</text><line style="stroke: #A80036; stroke-width: 1.5;" x1="755" x2="915" y1="525.5" y2="525.5"/><line style="stroke: #A80036; stroke-width: 1.5;" x1="755" x2="915" y1="533.5" y2="533.5"/><ellipse cx="765" cy="544.5" fill="#84BE84" rx="3" ry="3" style="stroke: #038048; stroke-width: 1.0;"/><text fill="#000000" font-family="sans-serif" font-size="11" lengthAdjust="spacingAndGlyphs" textLength="136" x="774" y="547.7104">read(String): Coordinate</text><!--MD5=[17799e03bfee0ccb3aa03b93da9c26d6]
class tictactoe.views.ErrorView--><rect codeLine="8" fill="#FEFECE" filter="url(#fyuefly87xgk8)" height="99.2188" id="tictactoe.views.ErrorView" style="stroke: #A80036; stroke-width: 1.5;" width="138" x="565" y="723"/><ellipse cx="601.15" cy="739" fill="#ADD1B2" rx="11" ry="11" style="stroke: #A80036; stroke-width: 1.0;"/><path d="M603.4938,734.6719 C602.5563,734.2344 601.9625,734.0938 601.0875,734.0938 C598.4625,734.0938 596.4625,736.1719 596.4625,738.8906 L596.4625,740.0156 C596.4625,742.5938 598.5719,744.4844 601.4625,744.4844 C602.6813,744.4844 603.8375,744.1875 604.5875,743.6406 C605.1656,743.2344 605.4938,742.7813 605.4938,742.3906 C605.4938,741.9375 605.1031,741.5469 604.6344,741.5469 C604.4156,741.5469 604.2125,741.625 604.025,741.8125 C603.5719,742.2969 603.5719,742.2969 603.3844,742.3906 C602.9625,742.6563 602.275,742.7813 601.5094,742.7813 C599.4625,742.7813 598.1656,741.6875 598.1656,739.9844 L598.1656,738.8906 C598.1656,737.1094 599.4156,735.7969 601.15,735.7969 C601.7281,735.7969 602.3375,735.9531 602.8063,736.2031 C603.2906,736.4844 603.4625,736.7031 603.5563,737.1094 C603.6188,737.5156 603.65,737.6406 603.7906,737.7656 C603.9313,737.9063 604.1656,738.0156 604.3844,738.0156 C604.65,738.0156 604.9156,737.875 605.0875,737.6563 C605.1969,737.5 605.2281,737.3125 605.2281,736.8906 L605.2281,735.4688 C605.2281,735.0313 605.2125,734.9063 605.1188,734.75 C604.9625,734.4844 604.6813,734.3438 604.3844,734.3438 C604.0875,734.3438 603.8844,734.4375 603.6656,734.75 L603.4938,734.6719 Z "/><text fill="#000000" font-family="sans-serif" font-size="12" lengthAdjust="spacingAndGlyphs" textLength="59" x="619.85" y="743.1543">ErrorView</text><line style="stroke: #A80036; stroke-width: 1.5;" x1="566" x2="702" y1="755" y2="755"/><rect fill="none" height="6" style="stroke: #C82930; stroke-width: 1.0;" width="6" x="573" y="763"/><text fill="#000000" font-family="sans-serif" font-size="11" lengthAdjust="spacingAndGlyphs" text-decoration="underline" textLength="112" x="585" y="769.2104">MESSAGES: String[]</text><rect fill="none" height="6" style="stroke: #C82930; stroke-width: 1.0;" width="6" x="573" y="775.8047"/><text fill="#000000" font-family="sans-serif" font-size="11" lengthAdjust="spacingAndGlyphs" textLength="60" x="585" y="782.0151">error: Error</text><line style="stroke: #A80036; stroke-width: 1.5;" x1="566" x2="702" y1="788.6094" y2="788.6094"/><polygon fill="#4177AF" points="576,795.6094,572,801.6094,580,801.6094" style="stroke: #1963A0; stroke-width: 1.0;"/><text fill="#000000" font-family="sans-serif" font-size="11" lengthAdjust="spacingAndGlyphs" textLength="88" x="585" y="802.8198">ErrorView(Error)</text><polygon fill="#4177AF" points="576,808.4141,572,814.4141,580,814.4141" style="stroke: #1963A0; stroke-width: 1.0;"/><text fill="#000000" font-family="sans-serif" font-size="11" lengthAdjust="spacingAndGlyphs" textLength="46" x="585" y="815.6245">writeln()</text><!--MD5=[1daa0cf4ddb9741fae105c8ad335ce98]
class tictactoe.views.GameView--><rect codeLine="16" fill="#FEFECE" filter="url(#fyuefly87xgk8)" height="86.4141" id="tictactoe.views.GameView" style="stroke: #A80036; stroke-width: 1.5;" width="132" x="550" y="481"/><ellipse cx="581.2" cy="497" fill="#ADD1B2" rx="11" ry="11" style="stroke: #A80036; stroke-width: 1.0;"/><path d="M583.5438,492.6719 C582.6063,492.2344 582.0125,492.0938 581.1375,492.0938 C578.5125,492.0938 576.5125,494.1719 576.5125,496.8906 L576.5125,498.0156 C576.5125,500.5938 578.6219,502.4844 581.5125,502.4844 C582.7313,502.4844 583.8875,502.1875 584.6375,501.6406 C585.2156,501.2344 585.5438,500.7813 585.5438,500.3906 C585.5438,499.9375 585.1531,499.5469 584.6844,499.5469 C584.4656,499.5469 584.2625,499.625 584.075,499.8125 C583.6219,500.2969 583.6219,500.2969 583.4344,500.3906 C583.0125,500.6563 582.325,500.7813 581.5594,500.7813 C579.5125,500.7813 578.2156,499.6875 578.2156,497.9844 L578.2156,496.8906 C578.2156,495.1094 579.4656,493.7969 581.2,493.7969 C581.7781,493.7969 582.3875,493.9531 582.8563,494.2031 C583.3406,494.4844 583.5125,494.7031 583.6063,495.1094 C583.6688,495.5156 583.7,495.6406 583.8406,495.7656 C583.9813,495.9063 584.2156,496.0156 584.4344,496.0156 C584.7,496.0156 584.9656,495.875 585.1375,495.6563 C585.2469,495.5 585.2781,495.3125 585.2781,494.8906 L585.2781,493.4688 C585.2781,493.0313 585.2625,492.9063 585.1688,492.75 C585.0125,492.4844 584.7313,492.3438 584.4344,492.3438 C584.1375,492.3438 583.9344,492.4375 583.7156,492.75 L583.5438,492.6719 Z "/><text fill="#000000" font-family="sans-serif" font-size="12" lengthAdjust="spacingAndGlyphs" textLength="64" x="598.8" y="501.1543">GameView</text><line style="stroke: #A80036; stroke-width: 1.5;" x1="551" x2="681" y1="513" y2="513"/><rect fill="none" height="6" style="stroke: #C82930; stroke-width: 1.0;" width="6" x="558" y="521"/><text fill="#000000" font-family="sans-serif" font-size="11" lengthAdjust="spacingAndGlyphs" textLength="75" x="570" y="527.2104">game: Game</text><line style="stroke: #A80036; stroke-width: 1.5;" x1="551" x2="681" y1="533.8047" y2="533.8047"/><polygon fill="#4177AF" points="561,540.8047,557,546.8047,565,546.8047" style="stroke: #1963A0; stroke-width: 1.0;"/><text fill="#000000" font-family="sans-serif" font-size="11" lengthAdjust="spacingAndGlyphs" textLength="106" x="570" y="548.0151">GameView(Game)</text><polygon fill="#4177AF" points="561,553.6094,557,559.6094,565,559.6094" style="stroke: #1963A0; stroke-width: 1.0;"/><text fill="#000000" font-family="sans-serif" font-size="11" lengthAdjust="spacingAndGlyphs" textLength="36" x="570" y="560.8198">write()</text><!--MD5=[24b5a9b67986ee811680be72c33ee9c1]
class tictactoe.views.TokenView--><rect codeLine="88" fill="#FEFECE" filter="url(#fyuefly87xgk8)" height="99.2188" id="tictactoe.views.TokenView" style="stroke: #A80036; stroke-width: 1.5;" width="132" x="398" y="723"/><ellipse cx="428.3" cy="739" fill="#ADD1B2" rx="11" ry="11" style="stroke: #A80036; stroke-width: 1.0;"/><path d="M430.6438,734.6719 C429.7063,734.2344 429.1125,734.0938 428.2375,734.0938 C425.6125,734.0938 423.6125,736.1719 423.6125,738.8906 L423.6125,740.0156 C423.6125,742.5938 425.7219,744.4844 428.6125,744.4844 C429.8313,744.4844 430.9875,744.1875 431.7375,743.6406 C432.3156,743.2344 432.6438,742.7813 432.6438,742.3906 C432.6438,741.9375 432.2531,741.5469 431.7844,741.5469 C431.5656,741.5469 431.3625,741.625 431.175,741.8125 C430.7219,742.2969 430.7219,742.2969 430.5344,742.3906 C430.1125,742.6563 429.425,742.7813 428.6594,742.7813 C426.6125,742.7813 425.3156,741.6875 425.3156,739.9844 L425.3156,738.8906 C425.3156,737.1094 426.5656,735.7969 428.3,735.7969 C428.8781,735.7969 429.4875,735.9531 429.9563,736.2031 C430.4406,736.4844 430.6125,736.7031 430.7063,737.1094 C430.7688,737.5156 430.8,737.6406 430.9406,737.7656 C431.0813,737.9063 431.3156,738.0156 431.5344,738.0156 C431.8,738.0156 432.0656,737.875 432.2375,737.6563 C432.3469,737.5 432.3781,737.3125 432.3781,736.8906 L432.3781,735.4688 C432.3781,735.0313 432.3625,734.9063 432.2688,734.75 C432.1125,734.4844 431.8313,734.3438 431.5344,734.3438 C431.2375,734.3438 431.0344,734.4375 430.8156,734.75 L430.6438,734.6719 Z "/><text fill="#000000" font-family="sans-serif" font-size="12" lengthAdjust="spacingAndGlyphs" textLength="66" x="445.7" y="743.1543">TokenView</text><line style="stroke: #A80036; stroke-width: 1.5;" x1="399" x2="529" y1="755" y2="755"/><rect fill="none" height="6" style="stroke: #C82930; stroke-width: 1.0;" width="6" x="406" y="763"/><text fill="#000000" font-family="sans-serif" font-size="11" lengthAdjust="spacingAndGlyphs" text-decoration="underline" textLength="86" x="418" y="769.2104">SYMBOLS: char</text><rect fill="none" height="6" style="stroke: #C82930; stroke-width: 1.0;" width="6" x="406" y="775.8047"/><text fill="#000000" font-family="sans-serif" font-size="11" lengthAdjust="spacingAndGlyphs" textLength="74" x="418" y="782.0151">token: Token</text><line style="stroke: #A80036; stroke-width: 1.5;" x1="399" x2="529" y1="788.6094" y2="788.6094"/><polygon fill="#4177AF" points="409,795.6094,405,801.6094,413,801.6094" style="stroke: #1963A0; stroke-width: 1.0;"/><text fill="#000000" font-family="sans-serif" font-size="11" lengthAdjust="spacingAndGlyphs" textLength="106" x="418" y="802.8198">TokenView(Token)</text><polygon fill="#4177AF" points="409,808.4141,405,814.4141,413,814.4141" style="stroke: #1963A0; stroke-width: 1.0;"/><text fill="#000000" font-family="sans-serif" font-size="11" lengthAdjust="spacingAndGlyphs" textLength="36" x="418" y="815.6245">write()</text><!--MD5=[8b95091471898ea6b0cbbbb1cd164db3]
class tictactoe.views.Message--><rect codeLine="26" fill="#FEFECE" filter="url(#fyuefly87xgk8)" height="278.4844" id="tictactoe.views.Message" style="stroke: #A80036; stroke-width: 1.5;" width="276" x="202" y="385"/><ellipse cx="308.25" cy="401" fill="#EB937F" rx="11" ry="11" style="stroke: #A80036; stroke-width: 1.0;"/><path d="M307.0469,401.875 L308.5,401.875 L308.5,401.9844 C308.5,402.3906 308.5313,402.5469 308.6094,402.7031 C308.7656,402.9531 309.0469,403.1094 309.3438,403.1094 C309.5938,403.1094 309.8594,402.9688 310.0156,402.75 C310.1406,402.5938 310.1719,402.4375 310.1719,401.9844 L310.1719,400.0625 C310.1719,399.9063 310.1719,399.8594 310.1563,399.7031 C310.0938,399.2344 309.7813,398.9219 309.3281,398.9219 C309.0781,398.9219 308.8125,399.0625 308.6406,399.2813 C308.5313,399.4531 308.5,399.6094 308.5,400.0625 L308.5,400.1875 L307.0469,400.1875 L307.0469,397.7813 L311.0313,397.7813 L311.0313,398.6406 C311.0313,399.0469 311.0625,399.2188 311.1406,399.375 C311.3125,399.625 311.5938,399.7813 311.875,399.7813 C312.1406,399.7813 312.4063,399.6406 312.5781,399.4219 C312.6875,399.25 312.7188,399.1094 312.7188,398.6406 L312.7188,396.0938 L305.0938,396.0938 C304.6563,396.0938 304.5313,396.1094 304.375,396.2031 C304.125,396.3594 303.9688,396.6563 303.9688,396.9375 C303.9688,397.2188 304.1094,397.4688 304.3281,397.6406 C304.4844,397.75 304.6719,397.7813 305.0938,397.7813 L305.3438,397.7813 L305.3438,404.2969 L305.0938,404.2969 C304.6875,404.2969 304.5313,404.3125 304.375,404.4219 C304.125,404.5938 303.9688,404.8594 303.9688,405.1563 C303.9688,405.4219 304.1094,405.6719 304.3281,405.8281 C304.4688,405.9531 304.7031,406 305.0938,406 L313.0938,406 L313.0938,403.4219 C313.0938,402.9844 313.0625,402.8438 312.9844,402.6875 C312.8125,402.4375 312.5313,402.2813 312.25,402.2813 C311.9844,402.2813 311.7188,402.3906 311.5469,402.6406 C311.4375,402.7969 311.4063,402.9375 311.4063,403.4219 L311.4063,404.2969 L307.0469,404.2969 L307.0469,401.875 Z "/><text fill="#000000" font-family="sans-serif" font-size="12" lengthAdjust="spacingAndGlyphs" textLength="55" x="328.75" y="405.1543">Message</text><line style="stroke: #A80036; stroke-width: 1.5;" x1="203" x2="477" y1="417" y2="417"/><ellipse cx="213" cy="428" fill="none" rx="3" ry="3" style="stroke: #038048; stroke-width: 1.0;"/><text fill="#000000" font-family="sans-serif" font-size="11" lengthAdjust="spacingAndGlyphs" textLength="88" x="222" y="431.2104">TITLE: Message</text><ellipse cx="213" cy="440.8047" fill="none" rx="3" ry="3" style="stroke: #038048; stroke-width: 1.0;"/><text fill="#000000" font-family="sans-serif" font-size="11" lengthAdjust="spacingAndGlyphs" textLength="160" x="222" y="444.0151">NUMBER_PLAYERS: Message</text><ellipse cx="213" cy="453.6094" fill="none" rx="3" ry="3" style="stroke: #038048; stroke-width: 1.0;"/><text fill="#000000" font-family="sans-serif" font-size="11" lengthAdjust="spacingAndGlyphs" textLength="125" x="222" y="456.8198">SEPARATOR: Message</text><ellipse cx="213" cy="466.4141" fill="none" rx="3" ry="3" style="stroke: #038048; stroke-width: 1.0;"/><text fill="#000000" font-family="sans-serif" font-size="11" lengthAdjust="spacingAndGlyphs" textLength="174" x="222" y="469.6245">VERTICAL_LINE_LEFT: Message</text><ellipse cx="213" cy="479.2188" fill="none" rx="3" ry="3" style="stroke: #038048; stroke-width: 1.0;"/><text fill="#000000" font-family="sans-serif" font-size="11" lengthAdjust="spacingAndGlyphs" textLength="208" x="222" y="482.4292">VERTICAL_LINE_CENTERED: Message</text><ellipse cx="213" cy="492.0234" fill="none" rx="3" ry="3" style="stroke: #038048; stroke-width: 1.0;"/><text fill="#000000" font-family="sans-serif" font-size="11" lengthAdjust="spacingAndGlyphs" textLength="182" x="222" y="495.2339">VERTICAL_LINE_RIGHT: Message</text><ellipse cx="213" cy="504.8281" fill="none" rx="3" ry="3" style="stroke: #038048; stroke-width: 1.0;"/><text fill="#000000" font-family="sans-serif" font-size="11" lengthAdjust="spacingAndGlyphs" textLength="224" x="222" y="508.0386">ENTER_COORDINATE_TO_PUT: Message</text><ellipse cx="213" cy="517.6328" fill="none" rx="3" ry="3" style="stroke: #038048; stroke-width: 1.0;"/><text fill="#000000" font-family="sans-serif" font-size="11" lengthAdjust="spacingAndGlyphs" textLength="250" x="222" y="520.8433">ENTER_COORDINATE_TO_REMOVE: Message</text><ellipse cx="213" cy="530.4375" fill="none" rx="3" ry="3" style="stroke: #038048; stroke-width: 1.0;"/><text fill="#000000" font-family="sans-serif" font-size="11" lengthAdjust="spacingAndGlyphs" textLength="182" x="222" y="533.6479">COORDINATE_TO_PUT: Message</text><ellipse cx="213" cy="543.2422" fill="none" rx="3" ry="3" style="stroke: #038048; stroke-width: 1.0;"/><text fill="#000000" font-family="sans-serif" font-size="11" lengthAdjust="spacingAndGlyphs" textLength="208" x="222" y="546.4526">COORDINATE_TO_REMOVE: Message</text><ellipse cx="213" cy="556.0469" fill="none" rx="3" ry="3" style="stroke: #038048; stroke-width: 1.0;"/><text fill="#000000" font-family="sans-serif" font-size="11" lengthAdjust="spacingAndGlyphs" textLength="194" x="222" y="559.2573">COORDINATE_TO_MOVE: Message</text><ellipse cx="213" cy="568.8516" fill="none" rx="3" ry="3" style="stroke: #038048; stroke-width: 1.0;"/><text fill="#000000" font-family="sans-serif" font-size="11" lengthAdjust="spacingAndGlyphs" textLength="127" x="222" y="572.062">PLAYER_WIN: Message</text><ellipse cx="213" cy="581.6563" fill="none" rx="3" ry="3" style="stroke: #038048; stroke-width: 1.0;"/><text fill="#000000" font-family="sans-serif" font-size="11" lengthAdjust="spacingAndGlyphs" textLength="104" x="222" y="584.8667">RESUME: Message</text><rect fill="none" height="6" style="stroke: #C82930; stroke-width: 1.0;" width="6" x="210" y="591.4609"/><text fill="#000000" font-family="sans-serif" font-size="11" lengthAdjust="spacingAndGlyphs" textLength="93" x="222" y="597.6714">message: String</text><line style="stroke: #A80036; stroke-width: 1.5;" x1="203" x2="477" y1="604.2656" y2="604.2656"/><rect fill="#F24D5C" height="6" style="stroke: #C82930; stroke-width: 1.0;" width="6" x="210" y="612.2656"/><text fill="#000000" font-family="sans-serif" font-size="11" lengthAdjust="spacingAndGlyphs" textLength="92" x="222" y="618.4761">Message(String)</text><polygon fill="#4177AF" points="213,624.0703,209,630.0703,217,630.0703" style="stroke: #1963A0; stroke-width: 1.0;"/><text fill="#000000" font-family="sans-serif" font-size="11" lengthAdjust="spacingAndGlyphs" textLength="67" x="222" y="631.2808">write(): void</text><polygon fill="#4177AF" points="213,636.875,209,642.875,217,642.875" style="stroke: #1963A0; stroke-width: 1.0;"/><text fill="#000000" font-family="sans-serif" font-size="11" lengthAdjust="spacingAndGlyphs" textLength="77" x="222" y="644.0854">writeln(): void</text><ellipse cx="213" cy="653.6797" fill="#84BE84" rx="3" ry="3" style="stroke: #038048; stroke-width: 1.0;"/><text fill="#000000" font-family="sans-serif" font-size="11" lengthAdjust="spacingAndGlyphs" textLength="92" x="222" y="656.8901">toString(): String</text><!--MD5=[d0ec73423b3bfd3954fbf7197d3af4d8]
class tictactoe.views.PlayView--><rect codeLine="48" fill="#FEFECE" filter="url(#fyuefly87xgk8)" height="99.2188" id="tictactoe.views.PlayView" style="stroke: #A80036; stroke-width: 1.5;" width="120" x="617" y="226"/><ellipse cx="648.2" cy="242" fill="#ADD1B2" rx="11" ry="11" style="stroke: #A80036; stroke-width: 1.0;"/><path d="M650.5438,237.6719 C649.6063,237.2344 649.0125,237.0938 648.1375,237.0938 C645.5125,237.0938 643.5125,239.1719 643.5125,241.8906 L643.5125,243.0156 C643.5125,245.5938 645.6219,247.4844 648.5125,247.4844 C649.7313,247.4844 650.8875,247.1875 651.6375,246.6406 C652.2156,246.2344 652.5438,245.7813 652.5438,245.3906 C652.5438,244.9375 652.1531,244.5469 651.6844,244.5469 C651.4656,244.5469 651.2625,244.625 651.075,244.8125 C650.6219,245.2969 650.6219,245.2969 650.4344,245.3906 C650.0125,245.6563 649.325,245.7813 648.5594,245.7813 C646.5125,245.7813 645.2156,244.6875 645.2156,242.9844 L645.2156,241.8906 C645.2156,240.1094 646.4656,238.7969 648.2,238.7969 C648.7781,238.7969 649.3875,238.9531 649.8563,239.2031 C650.3406,239.4844 650.5125,239.7031 650.6063,240.1094 C650.6688,240.5156 650.7,240.6406 650.8406,240.7656 C650.9813,240.9063 651.2156,241.0156 651.4344,241.0156 C651.7,241.0156 651.9656,240.875 652.1375,240.6563 C652.2469,240.5 652.2781,240.3125 652.2781,239.8906 L652.2781,238.4688 C652.2781,238.0313 652.2625,237.9063 652.1688,237.75 C652.0125,237.4844 651.7313,237.3438 651.4344,237.3438 C651.1375,237.3438 650.9344,237.4375 650.7156,237.75 L650.5438,237.6719 Z "/><text fill="#000000" font-family="sans-serif" font-size="12" lengthAdjust="spacingAndGlyphs" textLength="52" x="665.8" y="246.1543">PlayView</text><line style="stroke: #A80036; stroke-width: 1.5;" x1="618" x2="736" y1="258" y2="258"/><line style="stroke: #A80036; stroke-width: 1.5;" x1="618" x2="736" y1="266" y2="266"/><polygon fill="#4177AF" points="628,273,624,279,632,279" style="stroke: #1963A0; stroke-width: 1.0;"/><text fill="#000000" font-family="sans-serif" font-size="11" lengthAdjust="spacingAndGlyphs" textLength="94" x="637" y="280.2104">PlayView(Game)</text><polygon fill="#4177AF" points="628,285.8047,624,291.8047,632,291.8047" style="stroke: #1963A0; stroke-width: 1.0;"/><text fill="#000000" font-family="sans-serif" font-size="11" lengthAdjust="spacingAndGlyphs" textLength="51" x="637" y="293.0151">interact()</text><rect fill="#F24D5C" height="6" style="stroke: #C82930; stroke-width: 1.0;" width="6" x="625" y="299.6094"/><text fill="#000000" font-family="sans-serif" font-size="11" lengthAdjust="spacingAndGlyphs" textLength="26" x="637" y="305.8198">put()</text><rect fill="#F24D5C" height="6" style="stroke: #C82930; stroke-width: 1.0;" width="6" x="625" y="312.4141"/><text fill="#000000" font-family="sans-serif" font-size="11" lengthAdjust="spacingAndGlyphs" textLength="41" x="637" y="318.6245">move()</text><!--MD5=[b0dded3726fc172471b94f99f117339d]
class tictactoe.views.SubView--><rect codeLine="81" fill="#FEFECE" filter="url(#fyuefly87xgk8)" height="73.6094" id="tictactoe.views.SubView" style="stroke: #A80036; stroke-width: 1.5;" width="119" x="581.5" y="66.5"/><ellipse cx="612.25" cy="82.5" fill="#ADD1B2" rx="11" ry="11" style="stroke: #A80036; stroke-width: 1.0;"/><path d="M614.5938,78.1719 C613.6563,77.7344 613.0625,77.5938 612.1875,77.5938 C609.5625,77.5938 607.5625,79.6719 607.5625,82.3906 L607.5625,83.5156 C607.5625,86.0938 609.6719,87.9844 612.5625,87.9844 C613.7813,87.9844 614.9375,87.6875 615.6875,87.1406 C616.2656,86.7344 616.5938,86.2813 616.5938,85.8906 C616.5938,85.4375 616.2031,85.0469 615.7344,85.0469 C615.5156,85.0469 615.3125,85.125 615.125,85.3125 C614.6719,85.7969 614.6719,85.7969 614.4844,85.8906 C614.0625,86.1563 613.375,86.2813 612.6094,86.2813 C610.5625,86.2813 609.2656,85.1875 609.2656,83.4844 L609.2656,82.3906 C609.2656,80.6094 610.5156,79.2969 612.25,79.2969 C612.8281,79.2969 613.4375,79.4531 613.9063,79.7031 C614.3906,79.9844 614.5625,80.2031 614.6563,80.6094 C614.7188,81.0156 614.75,81.1406 614.8906,81.2656 C615.0313,81.4063 615.2656,81.5156 615.4844,81.5156 C615.75,81.5156 616.0156,81.375 616.1875,81.1563 C616.2969,81 616.3281,80.8125 616.3281,80.3906 L616.3281,78.9688 C616.3281,78.5313 616.3125,78.4063 616.2188,78.25 C616.0625,77.9844 615.7813,77.8438 615.4844,77.8438 C615.1875,77.8438 614.9844,77.9375 614.7656,78.25 L614.5938,78.1719 Z "/><text fill="#000000" font-family="sans-serif" font-size="12" lengthAdjust="spacingAndGlyphs" textLength="52" x="629.75" y="86.6543">SubView</text><line style="stroke: #A80036; stroke-width: 1.5;" x1="582.5" x2="699.5" y1="98.5" y2="98.5"/><polygon fill="none" points="592.5,104.5,596.5,108.5,592.5,112.5,588.5,108.5" style="stroke: #B38D22; stroke-width: 1.0;"/><text fill="#000000" font-family="sans-serif" font-size="11" lengthAdjust="spacingAndGlyphs" textLength="75" x="601.5" y="112.7104">game: Game</text><line style="stroke: #A80036; stroke-width: 1.5;" x1="582.5" x2="699.5" y1="119.3047" y2="119.3047"/><polygon fill="#4177AF" points="592.5,126.3047,588.5,132.3047,596.5,132.3047" style="stroke: #1963A0; stroke-width: 1.0;"/><text fill="#000000" font-family="sans-serif" font-size="11" lengthAdjust="spacingAndGlyphs" textLength="93" x="601.5" y="133.5151">SubView(Game)</text><!--MD5=[137f690b5283483823808e0278817ad3]
class tictactoe.views.ResumeView--><rect codeLine="62" fill="#FEFECE" filter="url(#fyuefly87xgk8)" height="73.6094" id="tictactoe.views.ResumeView" style="stroke: #A80036; stroke-width: 1.5;" width="144" x="772" y="238.5"/><ellipse cx="802.75" cy="254.5" fill="#ADD1B2" rx="11" ry="11" style="stroke: #A80036; stroke-width: 1.0;"/><path d="M805.0938,250.1719 C804.1563,249.7344 803.5625,249.5938 802.6875,249.5938 C800.0625,249.5938 798.0625,251.6719 798.0625,254.3906 L798.0625,255.5156 C798.0625,258.0938 800.1719,259.9844 803.0625,259.9844 C804.2813,259.9844 805.4375,259.6875 806.1875,259.1406 C806.7656,258.7344 807.0938,258.2813 807.0938,257.8906 C807.0938,257.4375 806.7031,257.0469 806.2344,257.0469 C806.0156,257.0469 805.8125,257.125 805.625,257.3125 C805.1719,257.7969 805.1719,257.7969 804.9844,257.8906 C804.5625,258.1563 803.875,258.2813 803.1094,258.2813 C801.0625,258.2813 799.7656,257.1875 799.7656,255.4844 L799.7656,254.3906 C799.7656,252.6094 801.0156,251.2969 802.75,251.2969 C803.3281,251.2969 803.9375,251.4531 804.4063,251.7031 C804.8906,251.9844 805.0625,252.2031 805.1563,252.6094 C805.2188,253.0156 805.25,253.1406 805.3906,253.2656 C805.5313,253.4063 805.7656,253.5156 805.9844,253.5156 C806.25,253.5156 806.5156,253.375 806.6875,253.1563 C806.7969,253 806.8281,252.8125 806.8281,252.3906 L806.8281,250.9688 C806.8281,250.5313 806.8125,250.4063 806.7188,250.25 C806.5625,249.9844 806.2813,249.8438 805.9844,249.8438 C805.6875,249.8438 805.4844,249.9375 805.2656,250.25 L805.0938,250.1719 Z "/><text fill="#000000" font-family="sans-serif" font-size="12" lengthAdjust="spacingAndGlyphs" textLength="77" x="820.25" y="258.6543">ResumeView</text><line style="stroke: #A80036; stroke-width: 1.5;" x1="773" x2="915" y1="270.5" y2="270.5"/><line style="stroke: #A80036; stroke-width: 1.5;" x1="773" x2="915" y1="278.5" y2="278.5"/><polygon fill="#4177AF" points="783,285.5,779,291.5,787,291.5" style="stroke: #1963A0; stroke-width: 1.0;"/><text fill="#000000" font-family="sans-serif" font-size="11" lengthAdjust="spacingAndGlyphs" textLength="118" x="792" y="292.7104">ResumeView(Game)</text><polygon fill="#4177AF" points="783,298.3047,779,304.3047,787,304.3047" style="stroke: #1963A0; stroke-width: 1.0;"/><text fill="#000000" font-family="sans-serif" font-size="11" lengthAdjust="spacingAndGlyphs" textLength="104" x="792" y="305.5151">interact(): boolean</text><!--MD5=[50a4c98617440bec164bf073e81d587d]
class tictactoe.views.StartView--><rect codeLine="71" fill="#FEFECE" filter="url(#fyuefly87xgk8)" height="73.6094" id="tictactoe.views.StartView" style="stroke: #A80036; stroke-width: 1.5;" width="124" x="458" y="238.5"/><ellipse cx="488.75" cy="254.5" fill="#ADD1B2" rx="11" ry="11" style="stroke: #A80036; stroke-width: 1.0;"/><path d="M491.0938,250.1719 C490.1563,249.7344 489.5625,249.5938 488.6875,249.5938 C486.0625,249.5938 484.0625,251.6719 484.0625,254.3906 L484.0625,255.5156 C484.0625,258.0938 486.1719,259.9844 489.0625,259.9844 C490.2813,259.9844 491.4375,259.6875 492.1875,259.1406 C492.7656,258.7344 493.0938,258.2813 493.0938,257.8906 C493.0938,257.4375 492.7031,257.0469 492.2344,257.0469 C492.0156,257.0469 491.8125,257.125 491.625,257.3125 C491.1719,257.7969 491.1719,257.7969 490.9844,257.8906 C490.5625,258.1563 489.875,258.2813 489.1094,258.2813 C487.0625,258.2813 485.7656,257.1875 485.7656,255.4844 L485.7656,254.3906 C485.7656,252.6094 487.0156,251.2969 488.75,251.2969 C489.3281,251.2969 489.9375,251.4531 490.4063,251.7031 C490.8906,251.9844 491.0625,252.2031 491.1563,252.6094 C491.2188,253.0156 491.25,253.1406 491.3906,253.2656 C491.5313,253.4063 491.7656,253.5156 491.9844,253.5156 C492.25,253.5156 492.5156,253.375 492.6875,253.1563 C492.7969,253 492.8281,252.8125 492.8281,252.3906 L492.8281,250.9688 C492.8281,250.5313 492.8125,250.4063 492.7188,250.25 C492.5625,249.9844 492.2813,249.8438 491.9844,249.8438 C491.6875,249.8438 491.4844,249.9375 491.2656,250.25 L491.0938,250.1719 Z "/><text fill="#000000" font-family="sans-serif" font-size="12" lengthAdjust="spacingAndGlyphs" textLength="57" x="506.25" y="258.6543">StartView</text><line style="stroke: #A80036; stroke-width: 1.5;" x1="459" x2="581" y1="270.5" y2="270.5"/><line style="stroke: #A80036; stroke-width: 1.5;" x1="459" x2="581" y1="278.5" y2="278.5"/><polygon fill="#4177AF" points="469,285.5,465,291.5,473,291.5" style="stroke: #1963A0; stroke-width: 1.0;"/><text fill="#000000" font-family="sans-serif" font-size="11" lengthAdjust="spacingAndGlyphs" textLength="98" x="478" y="292.7104">StartView(Game)</text><polygon fill="#4177AF" points="469,298.3047,465,304.3047,473,304.3047" style="stroke: #1963A0; stroke-width: 1.0;"/><text fill="#000000" font-family="sans-serif" font-size="11" lengthAdjust="spacingAndGlyphs" textLength="51" x="478" y="305.5151">interact()</text><!--MD5=[015754420c4cdd9bacda884b3fa8c6ca]
class tictactoe.views.View--><rect codeLine="97" fill="#FEFECE" filter="url(#fyuefly87xgk8)" height="124.8281" id="tictactoe.views.View" style="stroke: #A80036; stroke-width: 1.5;" width="180" x="736" y="41"/><ellipse cx="807.25" cy="57" fill="#ADD1B2" rx="11" ry="11" style="stroke: #A80036; stroke-width: 1.0;"/><path d="M809.5938,52.6719 C808.6563,52.2344 808.0625,52.0938 807.1875,52.0938 C804.5625,52.0938 802.5625,54.1719 802.5625,56.8906 L802.5625,58.0156 C802.5625,60.5938 804.6719,62.4844 807.5625,62.4844 C808.7813,62.4844 809.9375,62.1875 810.6875,61.6406 C811.2656,61.2344 811.5938,60.7813 811.5938,60.3906 C811.5938,59.9375 811.2031,59.5469 810.7344,59.5469 C810.5156,59.5469 810.3125,59.625 810.125,59.8125 C809.6719,60.2969 809.6719,60.2969 809.4844,60.3906 C809.0625,60.6563 808.375,60.7813 807.6094,60.7813 C805.5625,60.7813 804.2656,59.6875 804.2656,57.9844 L804.2656,56.8906 C804.2656,55.1094 805.5156,53.7969 807.25,53.7969 C807.8281,53.7969 808.4375,53.9531 808.9063,54.2031 C809.3906,54.4844 809.5625,54.7031 809.6563,55.1094 C809.7188,55.5156 809.75,55.6406 809.8906,55.7656 C810.0313,55.9063 810.2656,56.0156 810.4844,56.0156 C810.75,56.0156 811.0156,55.875 811.1875,55.6563 C811.2969,55.5 811.3281,55.3125 811.3281,54.8906 L811.3281,53.4688 C811.3281,53.0313 811.3125,52.9063 811.2188,52.75 C811.0625,52.4844 810.7813,52.3438 810.4844,52.3438 C810.1875,52.3438 809.9844,52.4375 809.7656,52.75 L809.5938,52.6719 Z "/><text fill="#000000" font-family="sans-serif" font-size="12" lengthAdjust="spacingAndGlyphs" textLength="29" x="827.75" y="61.1543">View</text><line style="stroke: #A80036; stroke-width: 1.5;" x1="737" x2="915" y1="73" y2="73"/><rect fill="none" height="6" style="stroke: #C82930; stroke-width: 1.0;" width="6" x="744" y="81"/><text fill="#000000" font-family="sans-serif" font-size="11" lengthAdjust="spacingAndGlyphs" textLength="75" x="756" y="87.2104">game: Game</text><rect fill="none" height="6" style="stroke: #C82930; stroke-width: 1.0;" width="6" x="744" y="93.8047"/><text fill="#000000" font-family="sans-serif" font-size="11" lengthAdjust="spacingAndGlyphs" textLength="115" x="756" y="100.0151">startView: StartView</text><rect fill="none" height="6" style="stroke: #C82930; stroke-width: 1.0;" width="6" x="744" y="106.6094"/><text fill="#000000" font-family="sans-serif" font-size="11" lengthAdjust="spacingAndGlyphs" textLength="110" x="756" y="112.8198">playView: PlayView</text><rect fill="none" height="6" style="stroke: #C82930; stroke-width: 1.0;" width="6" x="744" y="119.4141"/><text fill="#000000" font-family="sans-serif" font-size="11" lengthAdjust="spacingAndGlyphs" textLength="154" x="756" y="125.6245">resumeView: ResumeView</text><line style="stroke: #A80036; stroke-width: 1.5;" x1="737" x2="915" y1="132.2188" y2="132.2188"/><ellipse cx="747" cy="143.2188" fill="#84BE84" rx="3" ry="3" style="stroke: #038048; stroke-width: 1.0;"/><text fill="#000000" font-family="sans-serif" font-size="11" lengthAdjust="spacingAndGlyphs" textLength="71" x="756" y="146.4292">View(Game)</text><ellipse cx="747" cy="156.0234" fill="#84BE84" rx="3" ry="3" style="stroke: #038048; stroke-width: 1.0;"/><text fill="#000000" font-family="sans-serif" font-size="11" lengthAdjust="spacingAndGlyphs" textLength="51" x="756" y="159.2339">interact()</text><!--MD5=[8af4fdb787b135b7271f9ce04b92f747]
class utils.Console--><rect fill="#FEFECE" filter="url(#fyuefly87xgk8)" height="48" id="utils.Console" style="stroke: #A80036; stroke-width: 1.5;" width="81" x="316.5" y="1066"/><ellipse cx="331.5" cy="1082" fill="#ADD1B2" rx="11" ry="11" style="stroke: #A80036; stroke-width: 1.0;"/><path d="M333.8438,1077.6719 C332.9063,1077.2344 332.3125,1077.0938 331.4375,1077.0938 C328.8125,1077.0938 326.8125,1079.1719 326.8125,1081.8906 L326.8125,1083.0156 C326.8125,1085.5938 328.9219,1087.4844 331.8125,1087.4844 C333.0313,1087.4844 334.1875,1087.1875 334.9375,1086.6406 C335.5156,1086.2344 335.8438,1085.7813 335.8438,1085.3906 C335.8438,1084.9375 335.4531,1084.5469 334.9844,1084.5469 C334.7656,1084.5469 334.5625,1084.625 334.375,1084.8125 C333.9219,1085.2969 333.9219,1085.2969 333.7344,1085.3906 C333.3125,1085.6563 332.625,1085.7813 331.8594,1085.7813 C329.8125,1085.7813 328.5156,1084.6875 328.5156,1082.9844 L328.5156,1081.8906 C328.5156,1080.1094 329.7656,1078.7969 331.5,1078.7969 C332.0781,1078.7969 332.6875,1078.9531 333.1563,1079.2031 C333.6406,1079.4844 333.8125,1079.7031 333.9063,1080.1094 C333.9688,1080.5156 334,1080.6406 334.1406,1080.7656 C334.2813,1080.9063 334.5156,1081.0156 334.7344,1081.0156 C335,1081.0156 335.2656,1080.875 335.4375,1080.6563 C335.5469,1080.5 335.5781,1080.3125 335.5781,1079.8906 L335.5781,1078.4688 C335.5781,1078.0313 335.5625,1077.9063 335.4688,1077.75 C335.3125,1077.4844 335.0313,1077.3438 334.7344,1077.3438 C334.4375,1077.3438 334.2344,1077.4375 334.0156,1077.75 L333.8438,1077.6719 Z "/><text fill="#000000" font-family="sans-serif" font-size="12" lengthAdjust="spacingAndGlyphs" textLength="49" x="345.5" y="1086.1543">Console</text><line style="stroke: #A80036; stroke-width: 1.5;" x1="317.5" x2="396.5" y1="1098" y2="1098"/><line style="stroke: #A80036; stroke-width: 1.5;" x1="317.5" x2="396.5" y1="1106" y2="1106"/><!--MD5=[f8d80ce17c82616ebc0519cd174a80be]
class utils.Message--><rect fill="#FEFECE" filter="url(#fyuefly87xgk8)" height="48" id="utils.Message" style="stroke: #A80036; stroke-width: 1.5;" width="87" x="194.5" y="1066"/><ellipse cx="209.5" cy="1082" fill="#ADD1B2" rx="11" ry="11" style="stroke: #A80036; stroke-width: 1.0;"/><path d="M211.8438,1077.6719 C210.9063,1077.2344 210.3125,1077.0938 209.4375,1077.0938 C206.8125,1077.0938 204.8125,1079.1719 204.8125,1081.8906 L204.8125,1083.0156 C204.8125,1085.5938 206.9219,1087.4844 209.8125,1087.4844 C211.0313,1087.4844 212.1875,1087.1875 212.9375,1086.6406 C213.5156,1086.2344 213.8438,1085.7813 213.8438,1085.3906 C213.8438,1084.9375 213.4531,1084.5469 212.9844,1084.5469 C212.7656,1084.5469 212.5625,1084.625 212.375,1084.8125 C211.9219,1085.2969 211.9219,1085.2969 211.7344,1085.3906 C211.3125,1085.6563 210.625,1085.7813 209.8594,1085.7813 C207.8125,1085.7813 206.5156,1084.6875 206.5156,1082.9844 L206.5156,1081.8906 C206.5156,1080.1094 207.7656,1078.7969 209.5,1078.7969 C210.0781,1078.7969 210.6875,1078.9531 211.1563,1079.2031 C211.6406,1079.4844 211.8125,1079.7031 211.9063,1080.1094 C211.9688,1080.5156 212,1080.6406 212.1406,1080.7656 C212.2813,1080.9063 212.5156,1081.0156 212.7344,1081.0156 C213,1081.0156 213.2656,1080.875 213.4375,1080.6563 C213.5469,1080.5 213.5781,1080.3125 213.5781,1079.8906 L213.5781,1078.4688 C213.5781,1078.0313 213.5625,1077.9063 213.4688,1077.75 C213.3125,1077.4844 213.0313,1077.3438 212.7344,1077.3438 C212.4375,1077.3438 212.2344,1077.4375 212.0156,1077.75 L211.8438,1077.6719 Z "/><text fill="#000000" font-family="sans-serif" font-size="12" lengthAdjust="spacingAndGlyphs" textLength="55" x="223.5" y="1086.1543">Message</text><line style="stroke: #A80036; stroke-width: 1.5;" x1="195.5" x2="280.5" y1="1098" y2="1098"/><line style="stroke: #A80036; stroke-width: 1.5;" x1="195.5" x2="280.5" y1="1106" y2="1106"/><!--MD5=[ead0935fc76aaf0e6250f3f010faf07a]
class utils.LimitedIntDialog--><rect fill="#FEFECE" filter="url(#fyuefly87xgk8)" height="48" id="utils.LimitedIntDialog" style="stroke: #A80036; stroke-width: 1.5;" width="127" x="32.5" y="1066"/><ellipse cx="47.5" cy="1082" fill="#ADD1B2" rx="11" ry="11" style="stroke: #A80036; stroke-width: 1.0;"/><path d="M49.8438,1077.6719 C48.9063,1077.2344 48.3125,1077.0938 47.4375,1077.0938 C44.8125,1077.0938 42.8125,1079.1719 42.8125,1081.8906 L42.8125,1083.0156 C42.8125,1085.5938 44.9219,1087.4844 47.8125,1087.4844 C49.0313,1087.4844 50.1875,1087.1875 50.9375,1086.6406 C51.5156,1086.2344 51.8438,1085.7813 51.8438,1085.3906 C51.8438,1084.9375 51.4531,1084.5469 50.9844,1084.5469 C50.7656,1084.5469 50.5625,1084.625 50.375,1084.8125 C49.9219,1085.2969 49.9219,1085.2969 49.7344,1085.3906 C49.3125,1085.6563 48.625,1085.7813 47.8594,1085.7813 C45.8125,1085.7813 44.5156,1084.6875 44.5156,1082.9844 L44.5156,1081.8906 C44.5156,1080.1094 45.7656,1078.7969 47.5,1078.7969 C48.0781,1078.7969 48.6875,1078.9531 49.1563,1079.2031 C49.6406,1079.4844 49.8125,1079.7031 49.9063,1080.1094 C49.9688,1080.5156 50,1080.6406 50.1406,1080.7656 C50.2813,1080.9063 50.5156,1081.0156 50.7344,1081.0156 C51,1081.0156 51.2656,1080.875 51.4375,1080.6563 C51.5469,1080.5 51.5781,1080.3125 51.5781,1079.8906 L51.5781,1078.4688 C51.5781,1078.0313 51.5625,1077.9063 51.4688,1077.75 C51.3125,1077.4844 51.0313,1077.3438 50.7344,1077.3438 C50.4375,1077.3438 50.2344,1077.4375 50.0156,1077.75 L49.8438,1077.6719 Z "/><text fill="#000000" font-family="sans-serif" font-size="12" lengthAdjust="spacingAndGlyphs" textLength="95" x="61.5" y="1086.1543">LimitedIntDialog</text><line style="stroke: #A80036; stroke-width: 1.5;" x1="33.5" x2="158.5" y1="1098" y2="1098"/><line style="stroke: #A80036; stroke-width: 1.5;" x1="33.5" x2="158.5" y1="1106" y2="1106"/><!--MD5=[55d70ecb9e3ba4786ec1f15d0b7dce13]
class tictactoe.models.Coordinate--><rect fill="#FEFECE" filter="url(#fyuefly87xgk8)" height="48" id="tictactoe.models.Coordinate" style="stroke: #A80036; stroke-width: 1.5;" width="98" x="896" y="943"/><ellipse cx="911" cy="959" fill="#ADD1B2" rx="11" ry="11" style="stroke: #A80036; stroke-width: 1.0;"/><path d="M913.3438,954.6719 C912.4063,954.2344 911.8125,954.0938 910.9375,954.0938 C908.3125,954.0938 906.3125,956.1719 906.3125,958.8906 L906.3125,960.0156 C906.3125,962.5938 908.4219,964.4844 911.3125,964.4844 C912.5313,964.4844 913.6875,964.1875 914.4375,963.6406 C915.0156,963.2344 915.3438,962.7813 915.3438,962.3906 C915.3438,961.9375 914.9531,961.5469 914.4844,961.5469 C914.2656,961.5469 914.0625,961.625 913.875,961.8125 C913.4219,962.2969 913.4219,962.2969 913.2344,962.3906 C912.8125,962.6563 912.125,962.7813 911.3594,962.7813 C909.3125,962.7813 908.0156,961.6875 908.0156,959.9844 L908.0156,958.8906 C908.0156,957.1094 909.2656,955.7969 911,955.7969 C911.5781,955.7969 912.1875,955.9531 912.6563,956.2031 C913.1406,956.4844 913.3125,956.7031 913.4063,957.1094 C913.4688,957.5156 913.5,957.6406 913.6406,957.7656 C913.7813,957.9063 914.0156,958.0156 914.2344,958.0156 C914.5,958.0156 914.7656,957.875 914.9375,957.6563 C915.0469,957.5 915.0781,957.3125 915.0781,956.8906 L915.0781,955.4688 C915.0781,955.0313 915.0625,954.9063 914.9688,954.75 C914.8125,954.4844 914.5313,954.3438 914.2344,954.3438 C913.9375,954.3438 913.7344,954.4375 913.5156,954.75 L913.3438,954.6719 Z "/><text fill="#000000" font-family="sans-serif" font-size="12" lengthAdjust="spacingAndGlyphs" textLength="66" x="925" y="963.1543">Coordinate</text><line style="stroke: #A80036; stroke-width: 1.5;" x1="897" x2="993" y1="975" y2="975"/><line style="stroke: #A80036; stroke-width: 1.5;" x1="897" x2="993" y1="983" y2="983"/><!--MD5=[8d3188f3c370ea7d5d91d12bca83b67a]
class tictactoe.models.Game--><rect fill="#FEFECE" filter="url(#fyuefly87xgk8)" height="48" id="tictactoe.models.Game" style="stroke: #A80036; stroke-width: 1.5;" width="67" x="1029.5" y="943"/><ellipse cx="1044.5" cy="959" fill="#ADD1B2" rx="11" ry="11" style="stroke: #A80036; stroke-width: 1.0;"/><path d="M1046.8438,954.6719 C1045.9063,954.2344 1045.3125,954.0938 1044.4375,954.0938 C1041.8125,954.0938 1039.8125,956.1719 1039.8125,958.8906 L1039.8125,960.0156 C1039.8125,962.5938 1041.9219,964.4844 1044.8125,964.4844 C1046.0313,964.4844 1047.1875,964.1875 1047.9375,963.6406 C1048.5156,963.2344 1048.8438,962.7813 1048.8438,962.3906 C1048.8438,961.9375 1048.4531,961.5469 1047.9844,961.5469 C1047.7656,961.5469 1047.5625,961.625 1047.375,961.8125 C1046.9219,962.2969 1046.9219,962.2969 1046.7344,962.3906 C1046.3125,962.6563 1045.625,962.7813 1044.8594,962.7813 C1042.8125,962.7813 1041.5156,961.6875 1041.5156,959.9844 L1041.5156,958.8906 C1041.5156,957.1094 1042.7656,955.7969 1044.5,955.7969 C1045.0781,955.7969 1045.6875,955.9531 1046.1563,956.2031 C1046.6406,956.4844 1046.8125,956.7031 1046.9063,957.1094 C1046.9688,957.5156 1047,957.6406 1047.1406,957.7656 C1047.2813,957.9063 1047.5156,958.0156 1047.7344,958.0156 C1048,958.0156 1048.2656,957.875 1048.4375,957.6563 C1048.5469,957.5 1048.5781,957.3125 1048.5781,956.8906 L1048.5781,955.4688 C1048.5781,955.0313 1048.5625,954.9063 1048.4688,954.75 C1048.3125,954.4844 1048.0313,954.3438 1047.7344,954.3438 C1047.4375,954.3438 1047.2344,954.4375 1047.0156,954.75 L1046.8438,954.6719 Z "/><text fill="#000000" font-family="sans-serif" font-size="12" lengthAdjust="spacingAndGlyphs" textLength="35" x="1058.5" y="963.1543">Game</text><line style="stroke: #A80036; stroke-width: 1.5;" x1="1030.5" x2="1095.5" y1="975" y2="975"/><line style="stroke: #A80036; stroke-width: 1.5;" x1="1030.5" x2="1095.5" y1="983" y2="983"/><!--MD5=[f99d6ba965ae285bf04848666e285ab1]
class tictactoe.models.Token--><rect fill="#FEFECE" filter="url(#fyuefly87xgk8)" height="48" id="tictactoe.models.Token" style="stroke: #A80036; stroke-width: 1.5;" width="69" x="791.5" y="943"/><ellipse cx="806.5" cy="959" fill="#ADD1B2" rx="11" ry="11" style="stroke: #A80036; stroke-width: 1.0;"/><path d="M808.8438,954.6719 C807.9063,954.2344 807.3125,954.0938 806.4375,954.0938 C803.8125,954.0938 801.8125,956.1719 801.8125,958.8906 L801.8125,960.0156 C801.8125,962.5938 803.9219,964.4844 806.8125,964.4844 C808.0313,964.4844 809.1875,964.1875 809.9375,963.6406 C810.5156,963.2344 810.8438,962.7813 810.8438,962.3906 C810.8438,961.9375 810.4531,961.5469 809.9844,961.5469 C809.7656,961.5469 809.5625,961.625 809.375,961.8125 C808.9219,962.2969 808.9219,962.2969 808.7344,962.3906 C808.3125,962.6563 807.625,962.7813 806.8594,962.7813 C804.8125,962.7813 803.5156,961.6875 803.5156,959.9844 L803.5156,958.8906 C803.5156,957.1094 804.7656,955.7969 806.5,955.7969 C807.0781,955.7969 807.6875,955.9531 808.1563,956.2031 C808.6406,956.4844 808.8125,956.7031 808.9063,957.1094 C808.9688,957.5156 809,957.6406 809.1406,957.7656 C809.2813,957.9063 809.5156,958.0156 809.7344,958.0156 C810,958.0156 810.2656,957.875 810.4375,957.6563 C810.5469,957.5 810.5781,957.3125 810.5781,956.8906 L810.5781,955.4688 C810.5781,955.0313 810.5625,954.9063 810.4688,954.75 C810.3125,954.4844 810.0313,954.3438 809.7344,954.3438 C809.4375,954.3438 809.2344,954.4375 809.0156,954.75 L808.8438,954.6719 Z "/><text fill="#000000" font-family="sans-serif" font-size="12" lengthAdjust="spacingAndGlyphs" textLength="37" x="820.5" y="963.1543">Token</text><line style="stroke: #A80036; stroke-width: 1.5;" x1="792.5" x2="859.5" y1="975" y2="975"/><line style="stroke: #A80036; stroke-width: 1.5;" x1="792.5" x2="859.5" y1="983" y2="983"/><!--MD5=[be9263a396b46b6f04756f6ae59552a2]
link tictactoe.views.CoordinateView to utils.Console--><path codeLine="4" d="M814.451,554.735 C790.582,586.824 748.138,636.834 699,663 C571.664,730.806 475.539,614.906 380,723 C294.527,819.706 329.998,992.758 348.467,1060.6037 " fill="none" id="tictactoe.views.CoordinateView-to-utils.Console" style="stroke: #A80036; stroke-width: 1.0; stroke-dasharray: 7.0,7.0;"/><polygon fill="#A80036" points="349.873,1065.6888,351.3296,1055.9482,348.5404,1060.8697,343.619,1058.0804,349.873,1065.6888" style="stroke: #A80036; stroke-width: 1.0;"/><!--MD5=[de391d611c08fa7c83fd0d9610b12624]
link tictactoe.views.CoordinateView to tictactoe.models.Coordinate--><path codeLine="5" d="M842.388,554.62 C862.539,635.405 918.258,858.79 937.975,937.835 " fill="none" id="tictactoe.views.CoordinateView-to-tictactoe.models.Coordinate" style="stroke: #A80036; stroke-width: 1.0; stroke-dasharray: 7.0,7.0;"/><polygon fill="#A80036" points="939.22,942.829,940.9204,933.128,938.0087,937.978,933.1588,935.0662,939.22,942.829" style="stroke: #A80036; stroke-width: 1.0;"/><!--MD5=[4b31c31b5e3724f6ae6047fba7d06c34]
link tictactoe.views.CoordinateView to tictactoe.views.ErrorView--><path codeLine="6" d="M812.411,554.644 C790.816,582.796 757.172,626.169 727,663 C711.945,681.378 695.141,701.188 680.002,718.788 " fill="none" id="tictactoe.views.CoordinateView-to-tictactoe.views.ErrorView" style="stroke: #A80036; stroke-width: 1.0; stroke-dasharray: 7.0,7.0;"/><polygon fill="#A80036" points="676.597,722.741,685.5002,718.5299,679.8591,718.9517,679.4373,713.3106,676.597,722.741" style="stroke: #A80036; stroke-width: 1.0;"/><!--MD5=[3c8be1cae5b75fa2da4329c7a33ab895]
link tictactoe.views.ErrorView to utils.Console--><path codeLine="14" d="M593.778,822.329 C552.838,871.628 487.159,949.618 428,1015 C413.587,1030.929 396.988,1048.2811 383.466,1062.1763 " fill="none" id="tictactoe.views.ErrorView-to-utils.Console" style="stroke: #A80036; stroke-width: 1.0; stroke-dasharray: 7.0,7.0;"/><polygon fill="#A80036" points="379.738,1065.9998,388.8849,1062.3483,383.2285,1062.4198,383.157,1056.7634,379.738,1065.9998" style="stroke: #A80036; stroke-width: 1.0;"/><!--MD5=[0063aa840e9a43174c4c25732b321504]
link tictactoe.views.GameView to utils.Message--><path codeLine="21" d="M588.221,567.114 C566.186,597.569 532.868,637.659 495,663 C426.317,708.962 374.113,661.418 319,723 C231.019,821.307 231.585,993.425 235.632,1060.8118 " fill="none" id="tictactoe.views.GameView-to-utils.Message" style="stroke: #A80036; stroke-width: 1.0; stroke-dasharray: 7.0,7.0;"/><polygon fill="#A80036" points="235.954,1065.8621,239.3733,1056.6259,235.6359,1060.8722,231.3896,1057.1348,235.954,1065.8621" style="stroke: #A80036; stroke-width: 1.0;"/><!--MD5=[a3a73eeb825e92573b543266d7d8fbb6]
link tictactoe.views.GameView to tictactoe.models.Game--><path codeLine="22" d="M649.956,567.149 C673.21,595.22 705.288,632.423 736,663 C850.343,776.838 899.447,783.427 1011,900 C1022.51,912.026 1034.09,926.443 1043.39,938.73 " fill="none" id="tictactoe.views.GameView-to-tictactoe.models.Game" style="stroke: #A80036; stroke-width: 1.0; stroke-dasharray: 7.0,7.0;"/><polygon fill="#A80036" points="1046.45,942.809,1044.2456,933.21,1043.4482,938.8104,1037.8478,938.0129,1046.45,942.809" style="stroke: #A80036; stroke-width: 1.0;"/><!--MD5=[1812aca24f482f8fc859eefcdd21666c]
link tictactoe.views.GameView to tictactoe.models.Coordinate--><path codeLine="23" d="M637.396,567.21 C676.529,643.48 759.426,800.561 801,846 C829.216,876.839 845.889,873.241 878,900 C892.437,912.03 907.435,926.584 919.571,938.96 " fill="none" id="tictactoe.views.GameView-to-tictactoe.models.Coordinate" style="stroke: #A80036; stroke-width: 1.0; stroke-dasharray: 7.0,7.0;"/><polygon fill="#A80036" points="923.242,942.726,919.8238,933.4894,919.7518,939.1457,914.0954,939.0737,923.242,942.726" style="stroke: #A80036; stroke-width: 1.0;"/><!--MD5=[904dab0eb1b1724711a4ab89a03eca73]
link tictactoe.views.GameView to tictactoe.views.TokenView--><path codeLine="24" d="M590.043,567.095 C564.251,608.923 524.616,673.199 496.69,718.486 " fill="none" id="tictactoe.views.GameView-to-tictactoe.views.TokenView" style="stroke: #A80036; stroke-width: 1.0; stroke-dasharray: 7.0,7.0;"/><polygon fill="#A80036" points="494.025,722.808,502.1536,717.2469,496.6494,718.5521,495.3442,713.0479,494.025,722.808" style="stroke: #A80036; stroke-width: 1.0;"/><!--MD5=[48d1e876b0dee99b614e22c3cfbf9d43]
link tictactoe.views.Message to utils.Console--><path codeLine="46" d="M313.866,663.215 C299.959,762.479 290.889,898.717 319,1015 C322.933,1031.27 331.094,1047.9749 338.848,1061.3869 " fill="none" id="tictactoe.views.Message-to-utils.Console" style="stroke: #A80036; stroke-width: 1.0; stroke-dasharray: 7.0,7.0;"/><polygon fill="#A80036" points="341.455,1065.8037,340.3242,1056.02,338.9132,1061.498,333.4351,1060.0869,341.455,1065.8037" style="stroke: #A80036; stroke-width: 1.0;"/><!--MD5=[3b58a40937d8141bb780ee6a75fdf0bf]
reverse link tictactoe.views.SubView to tictactoe.views.PlayView--><path codeLine="54" d="M652.8,160.223 C657.292,181.436 662.371,205.42 666.712,225.92 " fill="none" id="tictactoe.views.SubView-backto-tictactoe.views.PlayView" style="stroke: #A80036; stroke-width: 1.0;"/><polygon fill="none" points="645.93,161.569,648.635,140.55,659.626,158.669,645.93,161.569" style="stroke: #A80036; stroke-width: 1.0;"/><!--MD5=[ce514773479788e4563c803901aa0e8a]
link tictactoe.views.PlayView to tictactoe.models.Game--><path codeLine="55" d="M737.266,317.315 C742.793,320.176 748.416,322.795 754,325 C885.341,376.857 976.072,276.131 1066,385 C1136.2,469.986 1084.35,833.344 1067.68,937.808 " fill="none" id="tictactoe.views.PlayView-to-tictactoe.models.Game" style="stroke: #A80036; stroke-width: 1.0; stroke-dasharray: 7.0,7.0;"/><polygon fill="#A80036" points="1066.86,942.874,1072.2349,934.6211,1067.6519,937.9371,1064.3359,933.3541,1066.86,942.874" style="stroke: #A80036; stroke-width: 1.0;"/><!--MD5=[2af3c02359f604461a6754505e8f13b5]
link tictactoe.views.PlayView to tictactoe.views.TokenView--><path codeLine="56" d="M616.854,314.557 C581.884,337.953 542.656,366.828 532,385 C468.949,492.522 520.411,540.973 495,663 C491.222,681.145 486.002,700.696 480.923,718.137 " fill="none" id="tictactoe.views.PlayView-to-tictactoe.views.TokenView" style="stroke: #A80036; stroke-width: 1.0; stroke-dasharray: 7.0,7.0;"/><polygon fill="#A80036" points="479.495,722.997,485.8706,715.4902,480.905,718.1999,478.1953,713.2343,479.495,722.997" style="stroke: #A80036; stroke-width: 1.0;"/><!--MD5=[edca281b580e2448c9d00b790a7895f2]
link tictactoe.views.PlayView to tictactoe.views.Message--><path codeLine="57" d="M616.63,314.031 C571.396,342.246 515.558,377.308 505,385 C497.487,390.474 489.876,396.187 482.255,402.043 " fill="none" id="tictactoe.views.PlayView-to-tictactoe.views.Message" style="stroke: #A80036; stroke-width: 1.0; stroke-dasharray: 7.0,7.0;"/><polygon fill="#A80036" points="478.022,405.31,487.5911,402.9791,481.9807,402.2557,482.7041,396.6452,478.022,405.31" style="stroke: #A80036; stroke-width: 1.0;"/><!--MD5=[d00e1bb9efd7e19fdbb6a735a6715f8d]
link tictactoe.views.PlayView to tictactoe.models.Coordinate--><path codeLine="58" d="M737.182,316.276 C742.774,319.399 748.433,322.36 754,325 C829.815,360.948 883.042,317.588 933,385 C1061.38,558.228 983.777,847.13 954.636,937.854 " fill="none" id="tictactoe.views.PlayView-to-tictactoe.models.Coordinate" style="stroke: #A80036; stroke-width: 1.0; stroke-dasharray: 7.0,7.0;"/><polygon fill="#A80036" points="953.037,942.785,959.6191,935.4586,954.5799,938.029,952.0095,932.9899,953.037,942.785" style="stroke: #A80036; stroke-width: 1.0;"/><!--MD5=[14039a5e13b9bfd9b970da3bde7393a0]
link tictactoe.views.PlayView to tictactoe.views.CoordinateView--><path codeLine="59" d="M708.216,325.2 C739.256,373.627 786.061,446.65 813.271,489.101 " fill="none" id="tictactoe.views.PlayView-to-tictactoe.views.CoordinateView" style="stroke: #A80036; stroke-width: 1.0; stroke-dasharray: 7.0,7.0;"/><polygon fill="#A80036" points="816.004,493.364,814.5133,483.6286,813.3051,489.155,807.7788,487.9468,816.004,493.364" style="stroke: #A80036; stroke-width: 1.0;"/><!--MD5=[b56be4d7a9b2d9a2091a76170ee182ed]
link tictactoe.views.PlayView to tictactoe.views.ErrorView--><path codeLine="60" d="M689.627,325.161 C706.734,399.493 731.612,545.106 699,663 C693.702,682.151 684.028,701.321 673.733,718.102 " fill="none" id="tictactoe.views.PlayView-to-tictactoe.views.ErrorView" style="stroke: #A80036; stroke-width: 1.0; stroke-dasharray: 7.0,7.0;"/><polygon fill="#A80036" points="670.816,722.77,678.978,717.258,673.466,718.53,672.194,713.018,670.816,722.77" style="stroke: #A80036; stroke-width: 1.0;"/><!--MD5=[f6ded20cf481ac8d1ae1b1d01efed252]
reverse link tictactoe.views.SubView to tictactoe.views.ResumeView--><path codeLine="67" d="M699.76,153.708 C732.113,180.802 771.554,213.831 801.011,238.499 " fill="none" id="tictactoe.views.SubView-backto-tictactoe.views.ResumeView" style="stroke: #A80036; stroke-width: 1.0;"/><polygon fill="none" points="694.89,158.76,684.051,140.55,703.879,148.027,694.89,158.76" style="stroke: #A80036; stroke-width: 1.0;"/><!--MD5=[feeb46d67333c649ff50a132b34072f7]
link tictactoe.views.ResumeView to tictactoe.models.Game--><path codeLine="68" d="M916.116,280.818 C985.679,289.269 1087.5,313.878 1137,385 C1263.44,566.659 1215.81,676.174 1137,883 C1128.7,904.786 1111.76,924.488 1096.18,939.224 " fill="none" id="tictactoe.views.ResumeView-to-tictactoe.models.Game" style="stroke: #A80036; stroke-width: 1.0; stroke-dasharray: 7.0,7.0;"/><polygon fill="#A80036" points="1092.26,942.862,1101.58,939.678,1095.9272,939.4633,1096.142,933.8105,1092.26,942.862" style="stroke: #A80036; stroke-width: 1.0;"/><!--MD5=[12846fc21134289c63f2daf74f167f26]
link tictactoe.views.ResumeView to tictactoe.views.Message--><path codeLine="69" d="M781.45,312.564 C772.395,317.088 763.069,321.387 754,325 C659.051,362.827 624.315,341.135 532,385 C515.478,392.851 498.891,402.149 482.761,412.154 " fill="none" id="tictactoe.views.ResumeView-to-tictactoe.views.Message" style="stroke: #A80036; stroke-width: 1.0; stroke-dasharray: 7.0,7.0;"/><polygon fill="#A80036" points="478.224,414.994,487.9751,413.6098,482.4623,412.3413,483.7308,406.8285,478.224,414.994" style="stroke: #A80036; stroke-width: 1.0;"/><!--MD5=[47bac97083a4cd91adbb3fa451b343e4]
reverse link tictactoe.views.SubView to tictactoe.views.StartView--><path codeLine="75" d="M603.577,157.077 C584.769,183.502 562.46,214.845 545.624,238.499 " fill="none" id="tictactoe.views.SubView-backto-tictactoe.views.StartView" style="stroke: #A80036; stroke-width: 1.0;"/><polygon fill="none" points="598.038,152.788,615.339,140.55,609.444,160.906,598.038,152.788" style="stroke: #A80036; stroke-width: 1.0;"/><!--MD5=[38c294e5e74476c7cee307f42d87ec6f]
link tictactoe.views.StartView to tictactoe.models.Game--><path codeLine="76" d="M573.019,312.693 C581.453,317.368 590.278,321.675 599,325 C739.93,378.718 824.118,280.637 933,385 C1014.64,463.248 1051.69,832.176 1060.73,937.726 " fill="none" id="tictactoe.views.StartView-to-tictactoe.models.Game" style="stroke: #A80036; stroke-width: 1.0; stroke-dasharray: 7.0,7.0;"/><polygon fill="#A80036" points="1061.17,942.844,1064.3951,933.5382,1060.7474,937.8619,1056.4237,934.2142,1061.17,942.844" style="stroke: #A80036; stroke-width: 1.0;"/><!--MD5=[e9ea9a3a2f4b72faec74d460f05a15ac]
link tictactoe.views.StartView to tictactoe.views.GameView--><path codeLine="77" d="M534.062,312.607 C550.879,355.789 579.076,428.189 597.609,475.776 " fill="none" id="tictactoe.views.StartView-to-tictactoe.views.GameView" style="stroke: #A80036; stroke-width: 1.0; stroke-dasharray: 7.0,7.0;"/><polygon fill="#A80036" points="599.483,480.589,599.9442,470.7509,597.6685,475.9299,592.4896,473.6542,599.483,480.589" style="stroke: #A80036; stroke-width: 1.0;"/><!--MD5=[dc99c08cd1c62cceb55e18cdd81e51a8]
link tictactoe.views.StartView to utils.LimitedIntDialog--><path codeLine="78" d="M457.829,278.418 C381.627,284.291 254.02,306.173 184,385 C67.7358,515.886 108,596.433 108,771.5 C108,771.5 108,771.5 108,883 C108,946.599 102.229,1021.056 98.6913,1060.7266 " fill="none" id="tictactoe.views.StartView-to-utils.LimitedIntDialog" style="stroke: #A80036; stroke-width: 1.0; stroke-dasharray: 7.0,7.0;"/><polygon fill="#A80036" points="98.229,1065.8555,103.021,1057.251,98.678,1060.8757,95.0533,1056.5327,98.229,1065.8555" style="stroke: #A80036; stroke-width: 1.0;"/><!--MD5=[90c2339cba62045155a0011492a1a8d7]
link tictactoe.views.StartView to tictactoe.views.Message--><path codeLine="79" d="M493.634,312.607 C479.962,331.33 462.279,355.546 443.801,380.851 " fill="none" id="tictactoe.views.StartView-to-tictactoe.views.Message" style="stroke: #A80036; stroke-width: 1.0; stroke-dasharray: 7.0,7.0;"/><polygon fill="#A80036" points="440.829,384.921,449.3666,380.0108,443.7773,380.8828,442.9054,375.2935,440.829,384.921" style="stroke: #A80036; stroke-width: 1.0;"/><!--MD5=[4cd3e83109ba73e7cce8c36fccb0d554]
link tictactoe.views.SubView to tictactoe.models.Game--><path codeLine="86" d="M680.042,140.65 C691.613,149.944 704.75,159.219 718,166 C806.312,211.199 841.74,187.094 933,226 C1060.75,280.464 1113.01,278.376 1202,385 C1243.9,435.201 1253,457.612 1253,523 C1253,523 1253,523 1253,773.5 C1253,859.137 1156.57,920.455 1101.11,948.641 " fill="none" id="tictactoe.views.SubView-to-tictactoe.models.Game" style="stroke: #A80036; stroke-width: 1.0; stroke-dasharray: 7.0,7.0;"/><polygon fill="#A80036" points="1096.53,950.94,1106.368,950.4777,1100.9987,948.6971,1102.7793,943.3278,1096.53,950.94" style="stroke: #A80036; stroke-width: 1.0;"/><!--MD5=[27fbad4ea5ed6038394fa8bfcf4497c7]
link tictactoe.views.TokenView to tictactoe.models.Token--><path codeLine="94" d="M514.731,822.153 C524.975,830.701 535.991,839.066 547,846 C626.471,896.055 730.424,934.55 786.315,953.338 " fill="none" id="tictactoe.views.TokenView-to-tictactoe.models.Token" style="stroke: #A80036; stroke-width: 1.0; stroke-dasharray: 7.0,7.0;"/><polygon fill="#A80036" points="791.242,954.985,783.973,948.3396,786.4996,953.4009,781.4383,955.9275,791.242,954.985" style="stroke: #A80036; stroke-width: 1.0;"/><!--MD5=[d6c221e7e18bd324b959afea54d81b16]
link tictactoe.views.TokenView to utils.Console--><path codeLine="95" d="M447.516,822.105 C424.857,888.918 384.822,1006.965 366.561,1060.8091 " fill="none" id="tictactoe.views.TokenView-to-utils.Console" style="stroke: #A80036; stroke-width: 1.0; stroke-dasharray: 7.0,7.0;"/><polygon fill="#A80036" points="364.863,1065.8155,371.5422,1058.5775,366.4692,1061.0805,363.9662,1056.0076,364.863,1065.8155" style="stroke: #A80036; stroke-width: 1.0;"/><!--MD5=[0696a78a81f063c18f1c08fd8fb67371]
link tictactoe.views.View to tictactoe.models.Game--><path codeLine="105" d="M927.9267,118.7291 C927.9267,118.7291 1232.83,174.368 1279,226 C1367.99,325.525 1324,389.493 1324,523 C1324,523 1324,523 1324,773.5 C1324,826.116 1316.63,846.226 1279,883 C1232.25,928.683 1157.68,949.824 1109.53,959.166 " fill="none" id="tictactoe.views.View-tictactoe.models.Game" style="stroke: #A80036; stroke-width: 1.0;"/><polygon fill="#A80036" points="1096.69,961.499,1106.2609,963.8224,1101.6092,960.6035,1104.8281,955.9518,1096.69,961.499" style="stroke: #A80036; stroke-width: 1.0;"/><line style="stroke: #A80036; stroke-width: 1.0;" x1="1101.6092" x2="1109.485" y1="960.6035" y2="959.174"/><polygon fill="#A80036" points="916.07,116.88,921.382,121.7568,927.9267,118.7291,922.6147,113.8523,916.07,116.88" style="stroke: #A80036; stroke-width: 1.0;"/><!--MD5=[162e61ccfe0c70dae4a3356c790f8713]
link tictactoe.views.View to tictactoe.views.StartView--><path codeLine="106" d="M725.205,162.1065 C725.205,162.1065 720.084,164.882 718,166 C665.803,193.997 650.728,197.147 599,226 C595.706,227.837 592.353,229.745 588.979,231.694 " fill="none" id="tictactoe.views.View-tictactoe.views.StartView" style="stroke: #A80036; stroke-width: 1.0;"/><polygon fill="#A80036" points="577.485,238.442,587.2714,237.3348,581.7968,235.9105,583.2211,230.4359,577.485,238.442" style="stroke: #A80036; stroke-width: 1.0;"/><line style="stroke: #A80036; stroke-width: 1.0;" x1="581.7968" x2="588.6955" y1="235.9105" y2="231.8605"/><polygon fill="#A80036" points="735.733,156.348,728.5495,155.7179,725.205,162.1065,732.3885,162.7366,735.733,156.348" style="stroke: #A80036; stroke-width: 1.0;"/><!--MD5=[b154bf5c27e08267002d89cc620f84e6]
link tictactoe.views.View to tictactoe.views.PlayView--><path codeLine="107" d="M763.8762,175.3791 C763.8762,175.3791 739.521,203.167 728.438,215.812 " fill="none" id="tictactoe.views.View-tictactoe.views.PlayView" style="stroke: #A80036; stroke-width: 1.0;"/><polygon fill="#A80036" points="719.733,225.744,728.6734,221.6126,723.0288,221.984,722.6574,216.3393,719.733,225.744" style="stroke: #A80036; stroke-width: 1.0;"/><line style="stroke: #A80036; stroke-width: 1.0;" x1="723.0288" x2="728.302" y1="221.984" y2="215.9675"/><polygon fill="#A80036" points="771.786,166.355,764.8231,168.2305,763.8762,175.3791,770.8391,173.5037,771.786,166.355" style="stroke: #A80036; stroke-width: 1.0;"/><!--MD5=[7b150ce1c9f94aa8e3a34d59dc556e30]
link tictactoe.views.View to tictactoe.views.ResumeView--><path codeLine="108" d="M833.8137,178.2882 C833.8137,178.2882 837.26,210.843 838.767,225.079 " fill="none" id="tictactoe.views.View-tictactoe.views.ResumeView" style="stroke: #A80036; stroke-width: 1.0;"/><polygon fill="#A80036" points="840.153,238.163,843.1833,228.7919,839.6266,233.1908,835.2277,229.6341,840.153,238.163" style="stroke: #A80036; stroke-width: 1.0;"/><line style="stroke: #A80036; stroke-width: 1.0;" x1="839.6266" x2="838.7835" y1="233.1908" y2="225.235"/><polygon fill="#A80036" points="832.549,166.355,829.2036,172.7431,833.8137,178.2882,837.1591,171.9,832.549,166.355" style="stroke: #A80036; stroke-width: 1.0;"/><!--MD5=[a81f0998b87326c0591c970361846632]
@startuml
class  tictactoe.views.CoordinateView{
+ read(String): Coordinate
}
utils.Console <..-down- tictactoe.views.CoordinateView
tictactoe.models.Coordinate <..-down- tictactoe.views.CoordinateView
tictactoe.views.CoordinateView ..> tictactoe.views.ErrorView

class  tictactoe.views.ErrorView{
- {static} MESSAGES: String[]
- error: Error
~ ErrorView(Error)
~ writeln()
}
utils.Console <..-down- tictactoe.views.ErrorView

class  tictactoe.views.GameView{
- game: Game
~ GameView(Game)
~ write()
}
utils.Message <..-down- tictactoe.views.GameView
tictactoe.views.GameView ..> tictactoe.models.Game
tictactoe.views.GameView ..> tictactoe.models.Coordinate
tictactoe.views.GameView ..> tictactoe.views.TokenView

enum  tictactoe.views.Message{
+ TITLE: Message
+ NUMBER_PLAYERS: Message 
+ SEPARATOR: Message
+ VERTICAL_LINE_LEFT: Message
+ VERTICAL_LINE_CENTERED: Message
+ VERTICAL_LINE_RIGHT: Message
+ ENTER_COORDINATE_TO_PUT: Message
+ ENTER_COORDINATE_TO_REMOVE: Message
+ COORDINATE_TO_PUT: Message
+ COORDINATE_TO_REMOVE: Message
+ COORDINATE_TO_MOVE: Message
+	PLAYER_WIN: Message
+ RESUME: Message
- message: String
- Message(String)
~ write(): void
~ writeln(): void
+ toString(): String
}
tictactoe.views.Message ..> utils.Console

class  tictactoe.views.PlayView{
~ PlayView(Game)
~ interact()
- put()
- move()
}
tictactoe.views.SubView <|-down- tictactoe.views.PlayView
tictactoe.views.PlayView ..> tictactoe.models.Game
tictactoe.views.PlayView ..> tictactoe.views.TokenView
tictactoe.views.PlayView ..> tictactoe.views.Message
tictactoe.views.PlayView ..> tictactoe.models.Coordinate
tictactoe.views.PlayView ..> tictactoe.views.CoordinateView
tictactoe.views.PlayView ..> tictactoe.views.ErrorView

class  tictactoe.views.ResumeView{
~ ResumeView(Game)
~ interact(): boolean

}
tictactoe.views.SubView <|-down- tictactoe.views.ResumeView
tictactoe.views.ResumeView ..> tictactoe.models.Game
tictactoe.views.ResumeView ..> tictactoe.views.Message

class tictactoe.views.StartView{
~ StartView(Game)
~ interact()
}
tictactoe.views.SubView <|-down- tictactoe.views.StartView
tictactoe.views.StartView ..> tictactoe.models.Game
tictactoe.views.StartView ..> tictactoe.views.GameView
tictactoe.views.StartView ..> utils.LimitedIntDialog
tictactoe.views.StartView ..> tictactoe.views.Message

class tictactoe.views.SubView{
# game: Game
~ SubView(Game)
}

tictactoe.views.SubView ..> tictactoe.models.Game

class tictactoe.views.TokenView{
- {static} SYMBOLS: char
- token: Token
~ TokenView(Token)
~ write()
}
tictactoe.views.TokenView ..> tictactoe.models.Token
tictactoe.views.TokenView ..> utils.Console

class  tictactoe.views.View{
- game: Game
- startView: StartView
- playView: PlayView
- resumeView: ResumeView
+ View(Game)
+ interact()
}
tictactoe.views.View *-down-> tictactoe.models.Game
tictactoe.views.View *-down-> tictactoe.views.StartView
tictactoe.views.View *-down-> tictactoe.views.PlayView
tictactoe.views.View *-down-> tictactoe.views.ResumeView
@enduml

PlantUML version 1.2020.20beta4(Unknown compile time)
(GPL source distribution)
Java Runtime: Java(TM) SE Runtime Environment
JVM: Java HotSpot(TM) 64-Bit Server VM
Default Encoding: UTF-8
Language: en
Country: US
--></g></svg>