<?xml version="1.0" encoding="UTF-8" standalone="no"?><svg xmlns="http://www.w3.org/2000/svg" xmlns:xlink="http://www.w3.org/1999/xlink" contentScriptType="application/ecmascript" contentStyleType="text/css" height="638px" preserveAspectRatio="none" style="width:859px;height:638px;" version="1.1" viewBox="0 0 859 638" width="859px" zoomAndPan="magnify"><defs><filter height="300%" id="f1rfqg29ml60sa" width="300%" x="-1" y="-1"><feGaussianBlur result="blurOut" stdDeviation="2.0"/><feColorMatrix in="blurOut" result="blurOut2" type="matrix" values="0 0 0 0 0 0 0 0 0 0 0 0 0 0 0 0 0 0 .4 0"/><feOffset dx="4.0" dy="4.0" in="blurOut2" result="blurOut3"/><feBlend in="SourceGraphic" in2="blurOut3" mode="normal"/></filter></defs><g><!--MD5=[c52f45833d539af9e29a9d34b8b7302b]
cluster utils--><polygon fill="#FFFFFF" filter="url(#f1rfqg29ml60sa)" points="16,6,59,6,66,28.2969,606,28.2969,606,508,16,508,16,6" style="stroke: #000000; stroke-width: 1.5;"/><line style="stroke: #000000; stroke-width: 1.5;" x1="16" x2="66" y1="28.2969" y2="28.2969"/><text fill="#000000" font-family="sans-serif" font-size="14" font-weight="bold" lengthAdjust="spacingAndGlyphs" textLength="37" x="20" y="20.9951">utils</text><!--MD5=[0d852700fdad35b7061d461d6907a324]
cluster java.io--><polygon fill="#FFFFFF" filter="url(#f1rfqg29ml60sa)" points="59,532,119,532,126,554.2969,219,554.2969,219,631,59,631,59,532" style="stroke: #000000; stroke-width: 1.5;"/><line style="stroke: #000000; stroke-width: 1.5;" x1="59" x2="126" y1="554.2969" y2="554.2969"/><text fill="#000000" font-family="sans-serif" font-size="14" font-weight="bold" lengthAdjust="spacingAndGlyphs" textLength="54" x="63" y="546.9951">java.io</text><!--MD5=[f2bedc297083edee028363469990e0f1]
cluster mastermind.utils--><polygon fill="#FFFFFF" filter="url(#f1rfqg29ml60sa)" points="630,83,776,83,783,105.2969,842,105.2969,842,488.5,630,488.5,630,83" style="stroke: #000000; stroke-width: 1.5;"/><line style="stroke: #000000; stroke-width: 1.5;" x1="630" x2="783" y1="105.2969" y2="105.2969"/><text fill="#000000" font-family="sans-serif" font-size="14" font-weight="bold" lengthAdjust="spacingAndGlyphs" textLength="140" x="634" y="97.9951">mastermind.utils</text><!--MD5=[8af4fdb787b135b7271f9ce04b92f747]
class utils.Console--><rect codeLine="1" fill="#FEFECE" filter="url(#f1rfqg29ml60sa)" height="188.8516" id="utils.Console" style="stroke: #A80036; stroke-width: 1.5;" width="214" x="32" y="303"/><ellipse cx="110.25" cy="319" fill="#ADD1B2" rx="11" ry="11" style="stroke: #A80036; stroke-width: 1.0;"/><path d="M112.5938,314.6719 C111.6563,314.2344 111.0625,314.0938 110.1875,314.0938 C107.5625,314.0938 105.5625,316.1719 105.5625,318.8906 L105.5625,320.0156 C105.5625,322.5938 107.6719,324.4844 110.5625,324.4844 C111.7813,324.4844 112.9375,324.1875 113.6875,323.6406 C114.2656,323.2344 114.5938,322.7813 114.5938,322.3906 C114.5938,321.9375 114.2031,321.5469 113.7344,321.5469 C113.5156,321.5469 113.3125,321.625 113.125,321.8125 C112.6719,322.2969 112.6719,322.2969 112.4844,322.3906 C112.0625,322.6563 111.375,322.7813 110.6094,322.7813 C108.5625,322.7813 107.2656,321.6875 107.2656,319.9844 L107.2656,318.8906 C107.2656,317.1094 108.5156,315.7969 110.25,315.7969 C110.8281,315.7969 111.4375,315.9531 111.9063,316.2031 C112.3906,316.4844 112.5625,316.7031 112.6563,317.1094 C112.7188,317.5156 112.75,317.6406 112.8906,317.7656 C113.0313,317.9063 113.2656,318.0156 113.4844,318.0156 C113.75,318.0156 114.0156,317.875 114.1875,317.6563 C114.2969,317.5 114.3281,317.3125 114.3281,316.8906 L114.3281,315.4688 C114.3281,315.0313 114.3125,314.9063 114.2188,314.75 C114.0625,314.4844 113.7813,314.3438 113.4844,314.3438 C113.1875,314.3438 112.9844,314.4375 112.7656,314.75 L112.5938,314.6719 Z "/><text fill="#000000" font-family="sans-serif" font-size="12" lengthAdjust="spacingAndGlyphs" textLength="49" x="130.75" y="323.1543">Console</text><line style="stroke: #A80036; stroke-width: 1.5;" x1="33" x2="245" y1="335" y2="335"/><rect fill="none" height="6" style="stroke: #C82930; stroke-width: 1.0;" width="6" x="40" y="343"/><text fill="#000000" font-family="sans-serif" font-size="11" lengthAdjust="spacingAndGlyphs" textLength="188" x="52" y="349.2104">bufferedReader: BufferedReader</text><line style="stroke: #A80036; stroke-width: 1.5;" x1="33" x2="245" y1="355.8047" y2="355.8047"/><ellipse cx="43" cy="366.8047" fill="#84BE84" rx="3" ry="3" style="stroke: #038048; stroke-width: 1.0;"/><text fill="#000000" font-family="sans-serif" font-size="11" lengthAdjust="spacingAndGlyphs" textLength="54" x="52" y="370.0151">Console()</text><ellipse cx="43" cy="379.6094" fill="#84BE84" rx="3" ry="3" style="stroke: #038048; stroke-width: 1.0;"/><text fill="#000000" font-family="sans-serif" font-size="11" lengthAdjust="spacingAndGlyphs" textLength="91" x="52" y="382.8198">write(char): void</text><ellipse cx="43" cy="392.4141" fill="#84BE84" rx="3" ry="3" style="stroke: #038048; stroke-width: 1.0;"/><text fill="#000000" font-family="sans-serif" font-size="11" lengthAdjust="spacingAndGlyphs" textLength="100" x="52" y="395.6245">write(String): void</text><ellipse cx="43" cy="405.2188" fill="#84BE84" rx="3" ry="3" style="stroke: #038048; stroke-width: 1.0;"/><text fill="#000000" font-family="sans-serif" font-size="11" lengthAdjust="spacingAndGlyphs" textLength="102" x="52" y="408.4292">readInt(String): int</text><ellipse cx="43" cy="418.0234" fill="#84BE84" rx="3" ry="3" style="stroke: #038048; stroke-width: 1.0;"/><text fill="#000000" font-family="sans-serif" font-size="11" lengthAdjust="spacingAndGlyphs" textLength="124" x="52" y="421.2339">readChar(String): char</text><ellipse cx="43" cy="430.8281" fill="#84BE84" rx="3" ry="3" style="stroke: #038048; stroke-width: 1.0;"/><text fill="#000000" font-family="sans-serif" font-size="11" lengthAdjust="spacingAndGlyphs" textLength="140" x="52" y="434.0386">readString(String): String</text><ellipse cx="43" cy="443.6328" fill="#84BE84" rx="3" ry="3" style="stroke: #038048; stroke-width: 1.0;"/><text fill="#000000" font-family="sans-serif" font-size="11" lengthAdjust="spacingAndGlyphs" textLength="91" x="52" y="446.8433">writeln(int): void</text><ellipse cx="43" cy="456.4375" fill="#84BE84" rx="3" ry="3" style="stroke: #038048; stroke-width: 1.0;"/><text fill="#000000" font-family="sans-serif" font-size="11" lengthAdjust="spacingAndGlyphs" textLength="110" x="52" y="459.6479">writeln(String): void</text><ellipse cx="43" cy="469.2422" fill="#84BE84" rx="3" ry="3" style="stroke: #038048; stroke-width: 1.0;"/><text fill="#000000" font-family="sans-serif" font-size="11" lengthAdjust="spacingAndGlyphs" textLength="77" x="52" y="472.4526">writeln(): void</text><ellipse cx="43" cy="482.0469" fill="#84BE84" rx="3" ry="3" style="stroke: #038048; stroke-width: 1.0;"/><text fill="#000000" font-family="sans-serif" font-size="11" lengthAdjust="spacingAndGlyphs" textLength="126" x="52" y="485.2573">writeError(String): void</text><!--MD5=[4517a9099db328c27576a0137eb33da6]
class utils.Coordinate--><rect codeLine="16" fill="#FEFECE" filter="url(#f1rfqg29ml60sa)" height="201.6563" id="utils.Coordinate" style="stroke: #A80036; stroke-width: 1.5;" width="250" x="340" y="41"/><ellipse cx="427.75" cy="57" fill="#ADD1B2" rx="11" ry="11" style="stroke: #A80036; stroke-width: 1.0;"/><path d="M430.0938,52.6719 C429.1563,52.2344 428.5625,52.0938 427.6875,52.0938 C425.0625,52.0938 423.0625,54.1719 423.0625,56.8906 L423.0625,58.0156 C423.0625,60.5938 425.1719,62.4844 428.0625,62.4844 C429.2813,62.4844 430.4375,62.1875 431.1875,61.6406 C431.7656,61.2344 432.0938,60.7813 432.0938,60.3906 C432.0938,59.9375 431.7031,59.5469 431.2344,59.5469 C431.0156,59.5469 430.8125,59.625 430.625,59.8125 C430.1719,60.2969 430.1719,60.2969 429.9844,60.3906 C429.5625,60.6563 428.875,60.7813 428.1094,60.7813 C426.0625,60.7813 424.7656,59.6875 424.7656,57.9844 L424.7656,56.8906 C424.7656,55.1094 426.0156,53.7969 427.75,53.7969 C428.3281,53.7969 428.9375,53.9531 429.4063,54.2031 C429.8906,54.4844 430.0625,54.7031 430.1563,55.1094 C430.2188,55.5156 430.25,55.6406 430.3906,55.7656 C430.5313,55.9063 430.7656,56.0156 430.9844,56.0156 C431.25,56.0156 431.5156,55.875 431.6875,55.6563 C431.7969,55.5 431.8281,55.3125 431.8281,54.8906 L431.8281,53.4688 C431.8281,53.0313 431.8125,52.9063 431.7188,52.75 C431.5625,52.4844 431.2813,52.3438 430.9844,52.3438 C430.6875,52.3438 430.4844,52.4375 430.2656,52.75 L430.0938,52.6719 Z "/><text fill="#000000" font-family="sans-serif" font-size="12" lengthAdjust="spacingAndGlyphs" textLength="66" x="448.25" y="61.1543">Coordinate</text><line style="stroke: #A80036; stroke-width: 1.5;" x1="341" x2="589" y1="73" y2="73"/><polygon fill="none" points="351,79,355,83,351,87,347,83" style="stroke: #B38D22; stroke-width: 1.0;"/><text fill="#000000" font-family="sans-serif" font-size="11" lengthAdjust="spacingAndGlyphs" textLength="41" x="360" y="87.2104">row: int</text><polygon fill="none" points="351,91.8047,355,95.8047,351,99.8047,347,95.8047" style="stroke: #B38D22; stroke-width: 1.0;"/><text fill="#000000" font-family="sans-serif" font-size="11" lengthAdjust="spacingAndGlyphs" textLength="62" x="360" y="100.0151">column: int</text><line style="stroke: #A80036; stroke-width: 1.5;" x1="341" x2="589" y1="106.6094" y2="106.6094"/><polygon fill="#FFFF44" points="351,112.6094,355,116.6094,351,120.6094,347,116.6094" style="stroke: #B38D22; stroke-width: 1.0;"/><text fill="#000000" font-family="sans-serif" font-size="11" lengthAdjust="spacingAndGlyphs" textLength="70" x="360" y="120.8198">Coordinate()</text><polygon fill="#FFFF44" points="351,125.4141,355,129.4141,351,133.4141,347,129.4141" style="stroke: #B38D22; stroke-width: 1.0;"/><text fill="#000000" font-family="sans-serif" font-size="11" lengthAdjust="spacingAndGlyphs" textLength="105" x="360" y="133.6245">Coordinate(int, int)</text><polygon fill="#FFFF44" points="351,138.2188,355,142.2188,351,146.2188,347,142.2188" style="stroke: #B38D22; stroke-width: 1.0;"/><text fill="#000000" font-family="sans-serif" font-size="11" lengthAdjust="spacingAndGlyphs" textLength="224" x="360" y="146.4292">getMainDirection(Coordinate): Direction</text><rect fill="#F24D5C" height="6" style="stroke: #C82930; stroke-width: 1.0;" width="6" x="348" y="153.0234"/><text fill="#000000" font-family="sans-serif" font-size="11" lengthAdjust="spacingAndGlyphs" textLength="147" x="360" y="159.2339">inMainDiagonal(): boolean</text><rect fill="#F24D5C" height="6" style="stroke: #C82930; stroke-width: 1.0;" width="6" x="348" y="165.8281"/><text fill="#000000" font-family="sans-serif" font-size="11" lengthAdjust="spacingAndGlyphs" textLength="176" x="360" y="172.0386">inVertical(Coordinate): boolean</text><rect fill="#F24D5C" height="6" style="stroke: #C82930; stroke-width: 1.0;" width="6" x="348" y="178.6328"/><text fill="#000000" font-family="sans-serif" font-size="11" lengthAdjust="spacingAndGlyphs" textLength="190" x="360" y="184.8433">inHorizontal(Coordinate): boolean</text><ellipse cx="351" cy="194.4375" fill="#84BE84" rx="3" ry="3" style="stroke: #038048; stroke-width: 1.0;"/><text fill="#000000" font-family="sans-serif" font-size="11" lengthAdjust="spacingAndGlyphs" textLength="71" x="360" y="197.6479">getRow(): int</text><ellipse cx="351" cy="207.2422" fill="#84BE84" rx="3" ry="3" style="stroke: #038048; stroke-width: 1.0;"/><text fill="#000000" font-family="sans-serif" font-size="11" lengthAdjust="spacingAndGlyphs" textLength="91" x="360" y="210.4526">getColumn(): int</text><ellipse cx="351" cy="220.0469" fill="#84BE84" rx="3" ry="3" style="stroke: #038048; stroke-width: 1.0;"/><text fill="#000000" font-family="sans-serif" font-size="11" lengthAdjust="spacingAndGlyphs" textLength="86" x="360" y="223.2573">hashCode(): int</text><ellipse cx="351" cy="232.8516" fill="#84BE84" rx="3" ry="3" style="stroke: #038048; stroke-width: 1.0;"/><text fill="#000000" font-family="sans-serif" font-size="11" lengthAdjust="spacingAndGlyphs" textLength="136" x="360" y="236.062">equals(Object): boolean</text><!--MD5=[63e92a92e730259d201bb8566c78f275]
class utils.Direction--><rect codeLine="32" fill="#FEFECE" filter="url(#f1rfqg29ml60sa)" height="99.2188" id="utils.Direction" style="stroke: #A80036; stroke-width: 1.5;" width="126" x="464" y="348"/><ellipse cx="497" cy="364" fill="#EB937F" rx="11" ry="11" style="stroke: #A80036; stroke-width: 1.0;"/><path d="M495.7969,364.875 L497.25,364.875 L497.25,364.9844 C497.25,365.3906 497.2813,365.5469 497.3594,365.7031 C497.5156,365.9531 497.7969,366.1094 498.0938,366.1094 C498.3438,366.1094 498.6094,365.9688 498.7656,365.75 C498.8906,365.5938 498.9219,365.4375 498.9219,364.9844 L498.9219,363.0625 C498.9219,362.9063 498.9219,362.8594 498.9063,362.7031 C498.8438,362.2344 498.5313,361.9219 498.0781,361.9219 C497.8281,361.9219 497.5625,362.0625 497.3906,362.2813 C497.2813,362.4531 497.25,362.6094 497.25,363.0625 L497.25,363.1875 L495.7969,363.1875 L495.7969,360.7813 L499.7813,360.7813 L499.7813,361.6406 C499.7813,362.0469 499.8125,362.2188 499.8906,362.375 C500.0625,362.625 500.3438,362.7813 500.625,362.7813 C500.8906,362.7813 501.1563,362.6406 501.3281,362.4219 C501.4375,362.25 501.4688,362.1094 501.4688,361.6406 L501.4688,359.0938 L493.8438,359.0938 C493.4063,359.0938 493.2813,359.1094 493.125,359.2031 C492.875,359.3594 492.7188,359.6563 492.7188,359.9375 C492.7188,360.2188 492.8594,360.4688 493.0781,360.6406 C493.2344,360.75 493.4219,360.7813 493.8438,360.7813 L494.0938,360.7813 L494.0938,367.2969 L493.8438,367.2969 C493.4375,367.2969 493.2813,367.3125 493.125,367.4219 C492.875,367.5938 492.7188,367.8594 492.7188,368.1563 C492.7188,368.4219 492.8594,368.6719 493.0781,368.8281 C493.2188,368.9531 493.4531,369 493.8438,369 L501.8438,369 L501.8438,366.4219 C501.8438,365.9844 501.8125,365.8438 501.7344,365.6875 C501.5625,365.4375 501.2813,365.2813 501,365.2813 C500.7344,365.2813 500.4688,365.3906 500.2969,365.6406 C500.1875,365.7969 500.1563,365.9375 500.1563,366.4219 L500.1563,367.2969 L495.7969,367.2969 L495.7969,364.875 Z "/><text fill="#000000" font-family="sans-serif" font-size="12" lengthAdjust="spacingAndGlyphs" textLength="54" x="515" y="368.1543">Direction</text><line style="stroke: #A80036; stroke-width: 1.5;" x1="465" x2="589" y1="380" y2="380"/><text fill="#000000" font-family="sans-serif" font-size="11" lengthAdjust="spacingAndGlyphs" textLength="54" x="470" y="394.2104">VERTICAL</text><text fill="#000000" font-family="sans-serif" font-size="11" lengthAdjust="spacingAndGlyphs" textLength="73" x="470" y="407.0151">HORIZONTAL</text><text fill="#000000" font-family="sans-serif" font-size="11" lengthAdjust="spacingAndGlyphs" textLength="94" x="470" y="419.8198">MAIN_DIAGONAL</text><text fill="#000000" font-family="sans-serif" font-size="11" lengthAdjust="spacingAndGlyphs" textLength="114" x="470" y="432.6245">INVERSE_DIAGONAL</text><line style="stroke: #A80036; stroke-width: 1.5;" x1="465" x2="589" y1="439.2188" y2="439.2188"/><!--MD5=[55e41f1e5a8b39b15e1066bc4af42afb]
class utils.PlayersDialog--><rect codeLine="39" fill="#FEFECE" filter="url(#f1rfqg29ml60sa)" height="73.6094" id="utils.PlayersDialog" style="stroke: #A80036; stroke-width: 1.5;" width="147" x="281.5" y="360.5"/><ellipse cx="311.8" cy="376.5" fill="#ADD1B2" rx="11" ry="11" style="stroke: #A80036; stroke-width: 1.0;"/><path d="M314.1438,372.1719 C313.2063,371.7344 312.6125,371.5938 311.7375,371.5938 C309.1125,371.5938 307.1125,373.6719 307.1125,376.3906 L307.1125,377.5156 C307.1125,380.0938 309.2219,381.9844 312.1125,381.9844 C313.3313,381.9844 314.4875,381.6875 315.2375,381.1406 C315.8156,380.7344 316.1438,380.2813 316.1438,379.8906 C316.1438,379.4375 315.7531,379.0469 315.2844,379.0469 C315.0656,379.0469 314.8625,379.125 314.675,379.3125 C314.2219,379.7969 314.2219,379.7969 314.0344,379.8906 C313.6125,380.1563 312.925,380.2813 312.1594,380.2813 C310.1125,380.2813 308.8156,379.1875 308.8156,377.4844 L308.8156,376.3906 C308.8156,374.6094 310.0656,373.2969 311.8,373.2969 C312.3781,373.2969 312.9875,373.4531 313.4563,373.7031 C313.9406,373.9844 314.1125,374.2031 314.2063,374.6094 C314.2688,375.0156 314.3,375.1406 314.4406,375.2656 C314.5813,375.4063 314.8156,375.5156 315.0344,375.5156 C315.3,375.5156 315.5656,375.375 315.7375,375.1563 C315.8469,375 315.8781,374.8125 315.8781,374.3906 L315.8781,372.9688 C315.8781,372.5313 315.8625,372.4063 315.7688,372.25 C315.6125,371.9844 315.3313,371.8438 315.0344,371.8438 C314.7375,371.8438 314.5344,371.9375 314.3156,372.25 L314.1438,372.1719 Z "/><text fill="#000000" font-family="sans-serif" font-size="12" lengthAdjust="spacingAndGlyphs" textLength="81" x="329.2" y="380.6543">PlayersDialog</text><line style="stroke: #A80036; stroke-width: 1.5;" x1="282.5" x2="427.5" y1="392.5" y2="392.5"/><rect fill="none" height="6" style="stroke: #C82930; stroke-width: 1.0;" width="6" x="289.5" y="400.5"/><text fill="#000000" font-family="sans-serif" font-size="11" lengthAdjust="spacingAndGlyphs" text-decoration="underline" textLength="121" x="301.5" y="406.7104">USERS_ERROR: String</text><line style="stroke: #A80036; stroke-width: 1.5;" x1="282.5" x2="427.5" y1="413.3047" y2="413.3047"/><ellipse cx="292.5" cy="424.3047" fill="#84BE84" rx="3" ry="3" style="stroke: #038048; stroke-width: 1.0;"/><text fill="#000000" font-family="sans-serif" font-size="11" lengthAdjust="spacingAndGlyphs" textLength="69" x="301.5" y="427.5151">read(int): int</text><!--MD5=[2dcb8e10b6e8b78f41f52f48677e1ea3]
class utils.WithConsoleView--><rect codeLine="45" fill="#FEFECE" filter="url(#f1rfqg29ml60sa)" height="73.6094" id="utils.WithConsoleView" style="stroke: #A80036; stroke-width: 1.5;" width="136" x="120" y="105"/><ellipse cx="135" cy="121" fill="#ADD1B2" rx="11" ry="11" style="stroke: #A80036; stroke-width: 1.0;"/><path d="M137.3438,116.6719 C136.4063,116.2344 135.8125,116.0938 134.9375,116.0938 C132.3125,116.0938 130.3125,118.1719 130.3125,120.8906 L130.3125,122.0156 C130.3125,124.5938 132.4219,126.4844 135.3125,126.4844 C136.5313,126.4844 137.6875,126.1875 138.4375,125.6406 C139.0156,125.2344 139.3438,124.7813 139.3438,124.3906 C139.3438,123.9375 138.9531,123.5469 138.4844,123.5469 C138.2656,123.5469 138.0625,123.625 137.875,123.8125 C137.4219,124.2969 137.4219,124.2969 137.2344,124.3906 C136.8125,124.6563 136.125,124.7813 135.3594,124.7813 C133.3125,124.7813 132.0156,123.6875 132.0156,121.9844 L132.0156,120.8906 C132.0156,119.1094 133.2656,117.7969 135,117.7969 C135.5781,117.7969 136.1875,117.9531 136.6563,118.2031 C137.1406,118.4844 137.3125,118.7031 137.4063,119.1094 C137.4688,119.5156 137.5,119.6406 137.6406,119.7656 C137.7813,119.9063 138.0156,120.0156 138.2344,120.0156 C138.5,120.0156 138.7656,119.875 138.9375,119.6563 C139.0469,119.5 139.0781,119.3125 139.0781,118.8906 L139.0781,117.4688 C139.0781,117.0313 139.0625,116.9063 138.9688,116.75 C138.8125,116.4844 138.5313,116.3438 138.2344,116.3438 C137.9375,116.3438 137.7344,116.4375 137.5156,116.75 L137.3438,116.6719 Z "/><text fill="#000000" font-family="sans-serif" font-size="12" lengthAdjust="spacingAndGlyphs" textLength="104" x="149" y="125.1543">WithConsoleView</text><line style="stroke: #A80036; stroke-width: 1.5;" x1="121" x2="255" y1="137" y2="137"/><polygon fill="none" points="131,143,135,147,131,151,127,147" style="stroke: #B38D22; stroke-width: 1.0;"/><text fill="#000000" font-family="sans-serif" font-size="11" lengthAdjust="spacingAndGlyphs" textLength="97" x="140" y="151.2104">console: Console</text><line style="stroke: #A80036; stroke-width: 1.5;" x1="121" x2="255" y1="157.8047" y2="157.8047"/><polygon fill="#FFFF44" points="131,163.8047,135,167.8047,131,171.8047,127,167.8047" style="stroke: #B38D22; stroke-width: 1.0;"/><text fill="#000000" font-family="sans-serif" font-size="11" lengthAdjust="spacingAndGlyphs" textLength="107" x="140" y="172.0151">WithConsoleView()</text><!--MD5=[06343bf850d7d7a24456cd327e63b99b]
class java.io.BufferedReader--><rect fill="#FEFECE" filter="url(#f1rfqg29ml60sa)" height="48" id="java.io.BufferedReader" style="stroke: #A80036; stroke-width: 1.5;" width="127" x="75.5" y="567"/><ellipse cx="90.5" cy="583" fill="#ADD1B2" rx="11" ry="11" style="stroke: #A80036; stroke-width: 1.0;"/><path d="M92.8438,578.6719 C91.9063,578.2344 91.3125,578.0938 90.4375,578.0938 C87.8125,578.0938 85.8125,580.1719 85.8125,582.8906 L85.8125,584.0156 C85.8125,586.5938 87.9219,588.4844 90.8125,588.4844 C92.0313,588.4844 93.1875,588.1875 93.9375,587.6406 C94.5156,587.2344 94.8438,586.7813 94.8438,586.3906 C94.8438,585.9375 94.4531,585.5469 93.9844,585.5469 C93.7656,585.5469 93.5625,585.625 93.375,585.8125 C92.9219,586.2969 92.9219,586.2969 92.7344,586.3906 C92.3125,586.6563 91.625,586.7813 90.8594,586.7813 C88.8125,586.7813 87.5156,585.6875 87.5156,583.9844 L87.5156,582.8906 C87.5156,581.1094 88.7656,579.7969 90.5,579.7969 C91.0781,579.7969 91.6875,579.9531 92.1563,580.2031 C92.6406,580.4844 92.8125,580.7031 92.9063,581.1094 C92.9688,581.5156 93,581.6406 93.1406,581.7656 C93.2813,581.9063 93.5156,582.0156 93.7344,582.0156 C94,582.0156 94.2656,581.875 94.4375,581.6563 C94.5469,581.5 94.5781,581.3125 94.5781,580.8906 L94.5781,579.4688 C94.5781,579.0313 94.5625,578.9063 94.4688,578.75 C94.3125,578.4844 94.0313,578.3438 93.7344,578.3438 C93.4375,578.3438 93.2344,578.4375 93.0156,578.75 L92.8438,578.6719 Z "/><text fill="#000000" font-family="sans-serif" font-size="12" lengthAdjust="spacingAndGlyphs" textLength="95" x="104.5" y="587.1543">BufferedReader</text><line style="stroke: #A80036; stroke-width: 1.5;" x1="76.5" x2="201.5" y1="599" y2="599"/><line style="stroke: #A80036; stroke-width: 1.5;" x1="76.5" x2="201.5" y1="607" y2="607"/><!--MD5=[8fefce232ba7ae99aa926d324ff560e5]
class mastermind.utils.YesNoDialog--><rect codeLine="51" fill="#FEFECE" filter="url(#f1rfqg29ml60sa)" height="150.4375" id="mastermind.utils.YesNoDialog" style="stroke: #A80036; stroke-width: 1.5;" width="179" x="646.5" y="322.5"/><ellipse cx="693.75" cy="338.5" fill="#ADD1B2" rx="11" ry="11" style="stroke: #A80036; stroke-width: 1.0;"/><path d="M696.0938,334.1719 C695.1563,333.7344 694.5625,333.5938 693.6875,333.5938 C691.0625,333.5938 689.0625,335.6719 689.0625,338.3906 L689.0625,339.5156 C689.0625,342.0938 691.1719,343.9844 694.0625,343.9844 C695.2813,343.9844 696.4375,343.6875 697.1875,343.1406 C697.7656,342.7344 698.0938,342.2813 698.0938,341.8906 C698.0938,341.4375 697.7031,341.0469 697.2344,341.0469 C697.0156,341.0469 696.8125,341.125 696.625,341.3125 C696.1719,341.7969 696.1719,341.7969 695.9844,341.8906 C695.5625,342.1563 694.875,342.2813 694.1094,342.2813 C692.0625,342.2813 690.7656,341.1875 690.7656,339.4844 L690.7656,338.3906 C690.7656,336.6094 692.0156,335.2969 693.75,335.2969 C694.3281,335.2969 694.9375,335.4531 695.4063,335.7031 C695.8906,335.9844 696.0625,336.2031 696.1563,336.6094 C696.2188,337.0156 696.25,337.1406 696.3906,337.2656 C696.5313,337.4063 696.7656,337.5156 696.9844,337.5156 C697.25,337.5156 697.5156,337.375 697.6875,337.1563 C697.7969,337 697.8281,336.8125 697.8281,336.3906 L697.8281,334.9688 C697.8281,334.5313 697.8125,334.4063 697.7188,334.25 C697.5625,333.9844 697.2813,333.8438 696.9844,333.8438 C696.6875,333.8438 696.4844,333.9375 696.2656,334.25 L696.0938,334.1719 Z "/><text fill="#000000" font-family="sans-serif" font-size="12" lengthAdjust="spacingAndGlyphs" textLength="76" x="714.25" y="342.6543">YesNoDialog</text><line style="stroke: #A80036; stroke-width: 1.5;" x1="647.5" x2="824.5" y1="354.5" y2="354.5"/><rect fill="none" height="6" style="stroke: #C82930; stroke-width: 1.0;" width="6" x="654.5" y="362.5"/><text fill="#000000" font-family="sans-serif" font-size="11" lengthAdjust="spacingAndGlyphs" text-decoration="underline" textLength="97" x="666.5" y="368.7104">AFIRMATIVE: char</text><rect fill="none" height="6" style="stroke: #C82930; stroke-width: 1.0;" width="6" x="654.5" y="375.3047"/><text fill="#000000" font-family="sans-serif" font-size="11" lengthAdjust="spacingAndGlyphs" text-decoration="underline" textLength="88" x="666.5" y="381.5151">NEGATIVE: char</text><rect fill="none" height="6" style="stroke: #C82930; stroke-width: 1.0;" width="6" x="654.5" y="388.1094"/><text fill="#000000" font-family="sans-serif" font-size="11" lengthAdjust="spacingAndGlyphs" text-decoration="underline" textLength="99" x="666.5" y="394.3198">QUESTION: String</text><rect fill="none" height="6" style="stroke: #C82930; stroke-width: 1.0;" width="6" x="654.5" y="400.9141"/><text fill="#000000" font-family="sans-serif" font-size="11" lengthAdjust="spacingAndGlyphs" text-decoration="underline" textLength="96" x="666.5" y="407.1245">MESSAGE: String</text><line style="stroke: #A80036; stroke-width: 1.5;" x1="647.5" x2="824.5" y1="413.7188" y2="413.7188"/><ellipse cx="657.5" cy="424.7188" fill="#84BE84" rx="3" ry="3" style="stroke: #038048; stroke-width: 1.0;"/><text fill="#000000" font-family="sans-serif" font-size="11" lengthAdjust="spacingAndGlyphs" textLength="80" x="666.5" y="427.9292">YesNoDialog()</text><ellipse cx="657.5" cy="437.5234" fill="#84BE84" rx="3" ry="3" style="stroke: #038048; stroke-width: 1.0;"/><text fill="#000000" font-family="sans-serif" font-size="11" lengthAdjust="spacingAndGlyphs" textLength="120" x="666.5" y="440.7339">read(String): boolean</text><rect fill="#F24D5C" height="6" style="stroke: #C82930; stroke-width: 1.0;" width="6" x="654.5" y="447.3281"/><text fill="#000000" font-family="sans-serif" font-size="11" lengthAdjust="spacingAndGlyphs" text-decoration="underline" textLength="153" x="666.5" y="453.5386">isAfirmative(char): boolean</text><rect fill="#F24D5C" height="6" style="stroke: #C82930; stroke-width: 1.0;" width="6" x="654.5" y="460.1328"/><text fill="#000000" font-family="sans-serif" font-size="11" lengthAdjust="spacingAndGlyphs" text-decoration="underline" textLength="146" x="666.5" y="466.3433">isNegative(char): boolean</text><!--MD5=[418484cb0ecde680b0da58aa805d4175]
class mastermind.utils.WithConsoleView--><rect fill="#FEFECE" filter="url(#f1rfqg29ml60sa)" height="48" id="mastermind.utils.WithConsoleView" style="stroke: #A80036; stroke-width: 1.5;" width="136" x="668" y="118"/><ellipse cx="683" cy="134" fill="#ADD1B2" rx="11" ry="11" style="stroke: #A80036; stroke-width: 1.0;"/><path d="M685.3438,129.6719 C684.4063,129.2344 683.8125,129.0938 682.9375,129.0938 C680.3125,129.0938 678.3125,131.1719 678.3125,133.8906 L678.3125,135.0156 C678.3125,137.5938 680.4219,139.4844 683.3125,139.4844 C684.5313,139.4844 685.6875,139.1875 686.4375,138.6406 C687.0156,138.2344 687.3438,137.7813 687.3438,137.3906 C687.3438,136.9375 686.9531,136.5469 686.4844,136.5469 C686.2656,136.5469 686.0625,136.625 685.875,136.8125 C685.4219,137.2969 685.4219,137.2969 685.2344,137.3906 C684.8125,137.6563 684.125,137.7813 683.3594,137.7813 C681.3125,137.7813 680.0156,136.6875 680.0156,134.9844 L680.0156,133.8906 C680.0156,132.1094 681.2656,130.7969 683,130.7969 C683.5781,130.7969 684.1875,130.9531 684.6563,131.2031 C685.1406,131.4844 685.3125,131.7031 685.4063,132.1094 C685.4688,132.5156 685.5,132.6406 685.6406,132.7656 C685.7813,132.9063 686.0156,133.0156 686.2344,133.0156 C686.5,133.0156 686.7656,132.875 686.9375,132.6563 C687.0469,132.5 687.0781,132.3125 687.0781,131.8906 L687.0781,130.4688 C687.0781,130.0313 687.0625,129.9063 686.9688,129.75 C686.8125,129.4844 686.5313,129.3438 686.2344,129.3438 C685.9375,129.3438 685.7344,129.4375 685.5156,129.75 L685.3438,129.6719 Z "/><text fill="#000000" font-family="sans-serif" font-size="12" lengthAdjust="spacingAndGlyphs" textLength="104" x="697" y="138.1543">WithConsoleView</text><line style="stroke: #A80036; stroke-width: 1.5;" x1="669" x2="803" y1="150" y2="150"/><line style="stroke: #A80036; stroke-width: 1.5;" x1="669" x2="803" y1="158" y2="158"/><!--MD5=[dea1a6a5eb2726644cb5ba3fdbe3e8f5]
link utils.Console to java.io.BufferedReader--><path codeLine="14" d="M139,504.006 C139,504.006 139,539.542 139,553.5964 " fill="none" id="utils.Console-java.io.BufferedReader" style="stroke: #A80036; stroke-width: 1.0;"/><polygon fill="#A80036" points="139,566.6261,143,557.6261,139,561.6261,135,557.6261,139,566.6261" style="stroke: #A80036; stroke-width: 1.0;"/><line style="stroke: #A80036; stroke-width: 1.0;" x1="139" x2="139" y1="561.6261" y2="553.6261"/><polygon fill="#A80036" points="139,492.006,135,498.006,139,504.006,143,498.006,139,492.006" style="stroke: #A80036; stroke-width: 1.0;"/><!--MD5=[7a93099a4dadc944cf6faf031ca4e2bf]
link utils.Coordinate to utils.Direction--><path codeLine="30" d="M489.504,243.19 C497.823,277.205 506.796,313.891 513.877,342.846 " fill="none" id="utils.Coordinate-to-utils.Direction" style="stroke: #A80036; stroke-width: 1.0; stroke-dasharray: 7.0,7.0;"/><polygon fill="#A80036" points="515.087,347.791,516.8358,338.0987,513.8999,342.934,509.0646,339.998,515.087,347.791" style="stroke: #A80036; stroke-width: 1.0;"/><!--MD5=[a811d1bc5220b24febe296f2ebb8ff56]
reverse link utils.WithConsoleView to utils.PlayersDialog--><path codeLine="43" d="M222.953,196.058 C255.371,245.267 302.746,317.181 331.062,360.163 " fill="none" id="utils.WithConsoleView-backto-utils.PlayersDialog" style="stroke: #A80036; stroke-width: 1.0;"/><polygon fill="none" points="216.907,199.604,211.75,179.051,228.598,191.902,216.907,199.604" style="stroke: #A80036; stroke-width: 1.0;"/><!--MD5=[da832c9da4ef95f5f2858fb2fdd7fbea]
link utils.WithConsoleView to utils.Console--><path codeLine="49" d="M178.7547,190.8329 C178.7547,190.8329 166.187,255.849 159.594,289.956 " fill="none" id="utils.WithConsoleView-utils.Console" style="stroke: #A80036; stroke-width: 1.0;"/><polygon fill="#A80036" points="157.091,302.909,162.7273,294.8324,158.0405,298,154.8729,293.3132,157.091,302.909" style="stroke: #A80036; stroke-width: 1.0;"/><line style="stroke: #A80036; stroke-width: 1.0;" x1="158.0405" x2="159.558" y1="298" y2="290.145"/><polygon fill="#A80036" points="181.032,179.051,175.9661,184.1829,178.7547,190.8329,183.8207,185.7011,181.032,179.051" style="stroke: #A80036; stroke-width: 1.0;"/><!--MD5=[6ecc60e00d827fdddc2b895f15bd4c4f]
reverse link mastermind.utils.WithConsoleView to mastermind.utils.YesNoDialog--><path codeLine="61" d="M736,186.636 C736,223.889 736,278.275 736,322.347 " fill="none" id="mastermind.utils.WithConsoleView-backto-mastermind.utils.YesNoDialog" style="stroke: #A80036; stroke-width: 1.0;"/><polygon fill="none" points="729,186.394,736,166.394,743,186.394,729,186.394" style="stroke: #A80036; stroke-width: 1.0;"/><!--MD5=[44a151f7d89b561bfd1bd2c7bddace57]
@startuml
class  utils.Console{
- bufferedReader: BufferedReader
+ Console()
+ write(char): void
+ write(String): void
+ readInt(String): int
+ readChar(String): char
+ readString(String): String
+ writeln(int): void
+ writeln(String): void
+ writeln(): void
+ writeError(String): void
}
utils.Console *-down-> java.io.BufferedReader

class  utils.Coordinate{
# row: int
# column: int
# Coordinate()
# Coordinate(int, int)
# getMainDirection(Coordinate): Direction
- inMainDiagonal(): boolean
- inVertical(Coordinate): boolean
- inHorizontal(Coordinate): boolean
+ getRow(): int
+ getColumn(): int
+ hashCode(): int
+ equals(Object): boolean
}
utils.Coordinate ..> utils.Direction

enum  utils.Direction{
  VERTICAL
  HORIZONTAL
  MAIN_DIAGONAL
  INVERSE_DIAGONAL
}

class  utils.PlayersDialog{
- {static} USERS_ERROR: String
+ read(int): int
}
utils.WithConsoleView <|-down- utils.PlayersDialog

class  utils.WithConsoleView{
# console: Console
# WithConsoleView()
}
utils.WithConsoleView *-down-> utils.Console

class  mastermind.utils.YesNoDialog{
- {static} AFIRMATIVE: char
- {static} NEGATIVE: char
- {static} QUESTION: String
- {static} MESSAGE: String
+ YesNoDialog()
+ read(String): boolean
- {static} isAfirmative(char): boolean
- {static} isNegative(char): boolean
}
mastermind.utils.WithConsoleView <|-down- mastermind.utils.YesNoDialog
@enduml

PlantUML version 1.2020.20beta2(Unknown compile time)
(GPL source distribution)
Java Runtime: Java(TM) SE Runtime Environment
JVM: Java HotSpot(TM) 64-Bit Server VM
Default Encoding: UTF-8
Language: en
Country: US
--></g></svg>