<?xml version="1.0" encoding="UTF-8" standalone="no"?><svg xmlns="http://www.w3.org/2000/svg" xmlns:xlink="http://www.w3.org/1999/xlink" contentScriptType="application/ecmascript" contentStyleType="text/css" height="1012px" preserveAspectRatio="none" style="width:869px;height:1012px;" version="1.1" viewBox="0 0 869 1012" width="869px" zoomAndPan="magnify"><defs><filter height="300%" id="f31cp00s03kif" width="300%" x="-1" y="-1"><feGaussianBlur result="blurOut" stdDeviation="2.0"/><feColorMatrix in="blurOut" result="blurOut2" type="matrix" values="0 0 0 0 0 0 0 0 0 0 0 0 0 0 0 0 0 0 .4 0"/><feOffset dx="4.0" dy="4.0" in="blurOut2" result="blurOut3"/><feBlend in="SourceGraphic" in2="blurOut3" mode="normal"/></filter></defs><g><!--MD5=[c52f45833d539af9e29a9d34b8b7302b]
cluster utils--><polygon fill="#FFFFFF" filter="url(#f31cp00s03kif)" points="16,6,59,6,66,28.2969,668,28.2969,668,1005,16,1005,16,6" style="stroke: #000000; stroke-width: 1.5;"/><line style="stroke: #000000; stroke-width: 1.5;" x1="16" x2="66" y1="28.2969" y2="28.2969"/><text fill="#000000" font-family="sans-serif" font-size="14" font-weight="bold" lengthAdjust="spacingAndGlyphs" textLength="37" x="20" y="20.9951">utils</text><!--MD5=[0d852700fdad35b7061d461d6907a324]
cluster java.io--><polygon fill="#FFFFFF" filter="url(#f31cp00s03kif)" points="692,625,752,625,759,647.2969,852,647.2969,852,724,692,724,692,625" style="stroke: #000000; stroke-width: 1.5;"/><line style="stroke: #000000; stroke-width: 1.5;" x1="692" x2="759" y1="647.2969" y2="647.2969"/><text fill="#000000" font-family="sans-serif" font-size="14" font-weight="bold" lengthAdjust="spacingAndGlyphs" textLength="54" x="696" y="639.9951">java.io</text><!--MD5=[1c2e2afe87d69baa60dd94a73d0524e3]
class utils.ClosedInterval--><rect codeLine="1" fill="#FEFECE" filter="url(#f31cp00s03kif)" height="112.0234" id="utils.ClosedInterval" style="stroke: #A80036; stroke-width: 1.5;" width="158" x="245" y="321.5"/><ellipse cx="278" cy="337.5" fill="#ADD1B2" rx="11" ry="11" style="stroke: #A80036; stroke-width: 1.0;"/><path d="M280.3438,333.1719 C279.4063,332.7344 278.8125,332.5938 277.9375,332.5938 C275.3125,332.5938 273.3125,334.6719 273.3125,337.3906 L273.3125,338.5156 C273.3125,341.0938 275.4219,342.9844 278.3125,342.9844 C279.5313,342.9844 280.6875,342.6875 281.4375,342.1406 C282.0156,341.7344 282.3438,341.2813 282.3438,340.8906 C282.3438,340.4375 281.9531,340.0469 281.4844,340.0469 C281.2656,340.0469 281.0625,340.125 280.875,340.3125 C280.4219,340.7969 280.4219,340.7969 280.2344,340.8906 C279.8125,341.1563 279.125,341.2813 278.3594,341.2813 C276.3125,341.2813 275.0156,340.1875 275.0156,338.4844 L275.0156,337.3906 C275.0156,335.6094 276.2656,334.2969 278,334.2969 C278.5781,334.2969 279.1875,334.4531 279.6563,334.7031 C280.1406,334.9844 280.3125,335.2031 280.4063,335.6094 C280.4688,336.0156 280.5,336.1406 280.6406,336.2656 C280.7813,336.4063 281.0156,336.5156 281.2344,336.5156 C281.5,336.5156 281.7656,336.375 281.9375,336.1563 C282.0469,336 282.0781,335.8125 282.0781,335.3906 L282.0781,333.9688 C282.0781,333.5313 282.0625,333.4063 281.9688,333.25 C281.8125,332.9844 281.5313,332.8438 281.2344,332.8438 C280.9375,332.8438 280.7344,332.9375 280.5156,333.25 L280.3438,333.1719 Z "/><text fill="#000000" font-family="sans-serif" font-size="12" lengthAdjust="spacingAndGlyphs" textLength="86" x="296" y="341.6543">ClosedInterval</text><line style="stroke: #A80036; stroke-width: 1.5;" x1="246" x2="402" y1="353.5" y2="353.5"/><rect fill="none" height="6" style="stroke: #C82930; stroke-width: 1.0;" width="6" x="253" y="361.5"/><text fill="#000000" font-family="sans-serif" font-size="11" lengthAdjust="spacingAndGlyphs" textLength="42" x="265" y="367.7104">min: int</text><rect fill="none" height="6" style="stroke: #C82930; stroke-width: 1.0;" width="6" x="253" y="374.3047"/><text fill="#000000" font-family="sans-serif" font-size="11" lengthAdjust="spacingAndGlyphs" textLength="46" x="265" y="380.5151">max: int</text><line style="stroke: #A80036; stroke-width: 1.5;" x1="246" x2="402" y1="387.1094" y2="387.1094"/><ellipse cx="256" cy="398.1094" fill="#84BE84" rx="3" ry="3" style="stroke: #038048; stroke-width: 1.0;"/><text fill="#000000" font-family="sans-serif" font-size="11" lengthAdjust="spacingAndGlyphs" textLength="121" x="265" y="401.3198">ClosedInterval(int,int)</text><ellipse cx="256" cy="410.9141" fill="#84BE84" rx="3" ry="3" style="stroke: #038048; stroke-width: 1.0;"/><text fill="#000000" font-family="sans-serif" font-size="11" lengthAdjust="spacingAndGlyphs" textLength="132" x="265" y="414.1245">isIncluded(int): boolean</text><ellipse cx="256" cy="423.7188" fill="#84BE84" rx="3" ry="3" style="stroke: #038048; stroke-width: 1.0;"/><text fill="#000000" font-family="sans-serif" font-size="11" lengthAdjust="spacingAndGlyphs" textLength="92" x="265" y="426.9292">toString(): String</text><!--MD5=[d41a8529e1b5d253e0afeab11abf467e]
class utils.ConcreteCoordinate--><rect codeLine="9" fill="#FEFECE" filter="url(#f31cp00s03kif)" height="265.6797" id="utils.ConcreteCoordinate" style="stroke: #A80036; stroke-width: 1.5;" width="224" x="291" y="551"/><ellipse cx="338.25" cy="567" fill="#ADD1B2" rx="11" ry="11" style="stroke: #A80036; stroke-width: 1.0;"/><path d="M340.5938,562.6719 C339.6563,562.2344 339.0625,562.0938 338.1875,562.0938 C335.5625,562.0938 333.5625,564.1719 333.5625,566.8906 L333.5625,568.0156 C333.5625,570.5938 335.6719,572.4844 338.5625,572.4844 C339.7813,572.4844 340.9375,572.1875 341.6875,571.6406 C342.2656,571.2344 342.5938,570.7813 342.5938,570.3906 C342.5938,569.9375 342.2031,569.5469 341.7344,569.5469 C341.5156,569.5469 341.3125,569.625 341.125,569.8125 C340.6719,570.2969 340.6719,570.2969 340.4844,570.3906 C340.0625,570.6563 339.375,570.7813 338.6094,570.7813 C336.5625,570.7813 335.2656,569.6875 335.2656,567.9844 L335.2656,566.8906 C335.2656,565.1094 336.5156,563.7969 338.25,563.7969 C338.8281,563.7969 339.4375,563.9531 339.9063,564.2031 C340.3906,564.4844 340.5625,564.7031 340.6563,565.1094 C340.7188,565.5156 340.75,565.6406 340.8906,565.7656 C341.0313,565.9063 341.2656,566.0156 341.4844,566.0156 C341.75,566.0156 342.0156,565.875 342.1875,565.6563 C342.2969,565.5 342.3281,565.3125 342.3281,564.8906 L342.3281,563.4688 C342.3281,563.0313 342.3125,562.9063 342.2188,562.75 C342.0625,562.4844 341.7813,562.3438 341.4844,562.3438 C341.1875,562.3438 340.9844,562.4375 340.7656,562.75 L340.5938,562.6719 Z "/><text fill="#000000" font-family="sans-serif" font-size="12" lengthAdjust="spacingAndGlyphs" textLength="121" x="358.75" y="571.1543">ConcreteCoordinate</text><line style="stroke: #A80036; stroke-width: 1.5;" x1="292" x2="514" y1="583" y2="583"/><polygon fill="none" points="302,589,306,593,302,597,298,593" style="stroke: #B38D22; stroke-width: 1.0;"/><text fill="#000000" font-family="sans-serif" font-size="11" lengthAdjust="spacingAndGlyphs" textLength="41" x="311" y="597.2104">row: int</text><polygon fill="none" points="302,601.8047,306,605.8047,302,609.8047,298,605.8047" style="stroke: #B38D22; stroke-width: 1.0;"/><text fill="#000000" font-family="sans-serif" font-size="11" lengthAdjust="spacingAndGlyphs" textLength="62" x="311" y="610.0151">column: int</text><rect fill="none" height="6" style="stroke: #C82930; stroke-width: 1.0;" width="6" x="299" y="616.6094"/><text fill="#000000" font-family="sans-serif" font-size="11" lengthAdjust="spacingAndGlyphs" text-decoration="underline" textLength="67" x="311" y="622.8198">ROW: String</text><rect fill="none" height="6" style="stroke: #C82930; stroke-width: 1.0;" width="6" x="299" y="629.4141"/><text fill="#000000" font-family="sans-serif" font-size="11" lengthAdjust="spacingAndGlyphs" text-decoration="underline" textLength="88" x="311" y="635.6245">COLUMN: String</text><line style="stroke: #A80036; stroke-width: 1.5;" x1="292" x2="514" y1="642.2188" y2="642.2188"/><polygon fill="#FFFF44" points="302,648.2188,306,652.2188,302,656.2188,298,652.2188" style="stroke: #B38D22; stroke-width: 1.0;"/><text fill="#000000" font-family="sans-serif" font-size="11" lengthAdjust="spacingAndGlyphs" textLength="122" x="311" y="656.4292">ConcreteCoordinate()</text><polygon fill="#FFFF44" points="302,661.0234,306,665.0234,302,669.0234,298,665.0234" style="stroke: #B38D22; stroke-width: 1.0;"/><text fill="#000000" font-family="sans-serif" font-size="11" lengthAdjust="spacingAndGlyphs" textLength="153" x="311" y="669.2339">ConcreteCoordinate(int,int)</text><ellipse cx="302" cy="678.8281" fill="#84BE84" rx="3" ry="3" style="stroke: #038048; stroke-width: 1.0;"/><text fill="#000000" font-family="sans-serif" font-size="11" lengthAdjust="spacingAndGlyphs" textLength="91" x="311" y="682.0386">isNull(): boolean</text><ellipse cx="302" cy="691.6328" fill="#84BE84" rx="3" ry="3" style="stroke: #038048; stroke-width: 1.0;"/><text fill="#000000" font-family="sans-serif" font-size="11" lengthAdjust="spacingAndGlyphs" textLength="198" x="311" y="694.8433">getDirection(Coordinate): Direction</text><ellipse cx="302" cy="704.4375" fill="#84BE84" rx="3" ry="3" style="stroke: #038048; stroke-width: 1.0;"/><text fill="#000000" font-family="sans-serif" font-size="11" lengthAdjust="spacingAndGlyphs" textLength="190" x="311" y="707.6479">inHorizontal(Coordinate): boolean</text><ellipse cx="302" cy="717.2422" fill="#84BE84" rx="3" ry="3" style="stroke: #038048; stroke-width: 1.0;"/><text fill="#000000" font-family="sans-serif" font-size="11" lengthAdjust="spacingAndGlyphs" textLength="176" x="311" y="720.4526">inVertical(Coordinate): boolean</text><ellipse cx="302" cy="730.0469" fill="#84BE84" rx="3" ry="3" style="stroke: #038048; stroke-width: 1.0;"/><text fill="#000000" font-family="sans-serif" font-size="11" lengthAdjust="spacingAndGlyphs" textLength="147" x="311" y="733.2573">inMainDiagonal(): boolean</text><polygon fill="#FFFF44" points="302,737.8516,306,741.8516,302,745.8516,298,741.8516" style="stroke: #B38D22; stroke-width: 1.0;"/><text fill="#000000" font-family="sans-serif" font-size="11" lengthAdjust="spacingAndGlyphs" textLength="67" x="311" y="746.062">read(String)</text><ellipse cx="302" cy="755.6563" fill="#84BE84" rx="3" ry="3" style="stroke: #038048; stroke-width: 1.0;"/><text fill="#000000" font-family="sans-serif" font-size="11" lengthAdjust="spacingAndGlyphs" textLength="71" x="311" y="758.8667">getRow(): int</text><ellipse cx="302" cy="768.4609" fill="#84BE84" rx="3" ry="3" style="stroke: #038048; stroke-width: 1.0;"/><text fill="#000000" font-family="sans-serif" font-size="11" lengthAdjust="spacingAndGlyphs" textLength="91" x="311" y="771.6714">getColumn(): int</text><ellipse cx="302" cy="781.2656" fill="#84BE84" rx="3" ry="3" style="stroke: #038048; stroke-width: 1.0;"/><text fill="#000000" font-family="sans-serif" font-size="11" lengthAdjust="spacingAndGlyphs" textLength="86" x="311" y="784.4761">hashCode(): int</text><ellipse cx="302" cy="794.0703" fill="#84BE84" rx="3" ry="3" style="stroke: #038048; stroke-width: 1.0;"/><text fill="#000000" font-family="sans-serif" font-size="11" lengthAdjust="spacingAndGlyphs" textLength="136" x="311" y="797.2808">equals(Object): boolean</text><ellipse cx="302" cy="806.875" fill="#84BE84" rx="3" ry="3" style="stroke: #038048; stroke-width: 1.0;"/><text fill="#000000" font-family="sans-serif" font-size="11" lengthAdjust="spacingAndGlyphs" textLength="92" x="311" y="810.0854">toString(): String</text><!--MD5=[4517a9099db328c27576a0137eb33da6]
class utils.Coordinate--><rect codeLine="50" fill="#FEFECE" filter="url(#f31cp00s03kif)" height="112.0234" id="utils.Coordinate" style="stroke: #A80036; stroke-width: 1.5;" width="224" x="227" y="66.5"/><ellipse cx="302.25" cy="82.5" fill="#B4A7E5" rx="11" ry="11" style="stroke: #A80036; stroke-width: 1.0;"/><path d="M303.2031,79.2813 L304.9219,79.2813 C305.3125,79.2813 305.5,79.25 305.625,79.1719 C305.8906,79.0156 306.0313,78.7344 306.0313,78.4375 C306.0313,78.1719 305.9219,77.9063 305.6875,77.7344 C305.5156,77.625 305.375,77.5938 304.9219,77.5938 L299.7813,77.5938 C299.3438,77.5938 299.2188,77.6094 299.0625,77.7031 C298.8125,77.8594 298.6563,78.1563 298.6563,78.4375 C298.6563,78.7188 298.7969,78.9688 299.0156,79.1406 C299.1719,79.25 299.3594,79.2813 299.7813,79.2813 L301.5,79.2813 L301.5,85.7969 L299.7813,85.7969 C299.3438,85.7969 299.2188,85.8125 299.0625,85.9219 C298.8125,86.0781 298.6563,86.3594 298.6563,86.6563 C298.6563,86.9063 298.7969,87.1719 299.0156,87.3281 C299.1719,87.4531 299.375,87.5 299.7813,87.5 L304.9219,87.5 C305.6719,87.5 306.0313,87.2188 306.0313,86.6563 C306.0313,86.375 305.9219,86.125 305.6875,85.9531 C305.5156,85.8281 305.375,85.7969 304.9219,85.7969 L303.2031,85.7969 L303.2031,79.2813 Z "/><text fill="#000000" font-family="sans-serif" font-size="12" font-style="italic" lengthAdjust="spacingAndGlyphs" textLength="65" x="322.75" y="86.6543">Coordinate</text><line style="stroke: #A80036; stroke-width: 1.5;" x1="228" x2="450" y1="98.5" y2="98.5"/><line style="stroke: #A80036; stroke-width: 1.5;" x1="228" x2="450" y1="106.5" y2="106.5"/><polygon fill="#4177AF" points="238,113.5,234,119.5,242,119.5" style="stroke: #1963A0; stroke-width: 1.0;"/><text fill="#000000" font-family="sans-serif" font-size="11" lengthAdjust="spacingAndGlyphs" textLength="91" x="247" y="120.7104">isNull(): boolean</text><polygon fill="#4177AF" points="238,126.3047,234,132.3047,242,132.3047" style="stroke: #1963A0; stroke-width: 1.0;"/><text fill="#000000" font-family="sans-serif" font-size="11" lengthAdjust="spacingAndGlyphs" textLength="198" x="247" y="133.5151">getDirection(Coordinate): Direction</text><polygon fill="#4177AF" points="238,139.1094,234,145.1094,242,145.1094" style="stroke: #1963A0; stroke-width: 1.0;"/><text fill="#000000" font-family="sans-serif" font-size="11" lengthAdjust="spacingAndGlyphs" textLength="190" x="247" y="146.3198">inHorizontal(Coordinate): boolean</text><polygon fill="#4177AF" points="238,151.9141,234,157.9141,242,157.9141" style="stroke: #1963A0; stroke-width: 1.0;"/><text fill="#000000" font-family="sans-serif" font-size="11" lengthAdjust="spacingAndGlyphs" textLength="176" x="247" y="159.1245">inVertical(Coordinate): boolean</text><polygon fill="#4177AF" points="238,164.7188,234,170.7188,242,170.7188" style="stroke: #1963A0; stroke-width: 1.0;"/><text fill="#000000" font-family="sans-serif" font-size="11" lengthAdjust="spacingAndGlyphs" textLength="147" x="247" y="171.9292">inMainDiagonal(): boolean</text><!--MD5=[63e92a92e730259d201bb8566c78f275]
class utils.Direction--><rect codeLine="59" fill="#FEFECE" filter="url(#f31cp00s03kif)" height="112.0234" id="utils.Direction" style="stroke: #A80036; stroke-width: 1.5;" width="126" x="340" y="877"/><ellipse cx="373" cy="893" fill="#EB937F" rx="11" ry="11" style="stroke: #A80036; stroke-width: 1.0;"/><path d="M371.7969,893.875 L373.25,893.875 L373.25,893.9844 C373.25,894.3906 373.2813,894.5469 373.3594,894.7031 C373.5156,894.9531 373.7969,895.1094 374.0938,895.1094 C374.3438,895.1094 374.6094,894.9688 374.7656,894.75 C374.8906,894.5938 374.9219,894.4375 374.9219,893.9844 L374.9219,892.0625 C374.9219,891.9063 374.9219,891.8594 374.9063,891.7031 C374.8438,891.2344 374.5313,890.9219 374.0781,890.9219 C373.8281,890.9219 373.5625,891.0625 373.3906,891.2813 C373.2813,891.4531 373.25,891.6094 373.25,892.0625 L373.25,892.1875 L371.7969,892.1875 L371.7969,889.7813 L375.7813,889.7813 L375.7813,890.6406 C375.7813,891.0469 375.8125,891.2188 375.8906,891.375 C376.0625,891.625 376.3438,891.7813 376.625,891.7813 C376.8906,891.7813 377.1563,891.6406 377.3281,891.4219 C377.4375,891.25 377.4688,891.1094 377.4688,890.6406 L377.4688,888.0938 L369.8438,888.0938 C369.4063,888.0938 369.2813,888.1094 369.125,888.2031 C368.875,888.3594 368.7188,888.6563 368.7188,888.9375 C368.7188,889.2188 368.8594,889.4688 369.0781,889.6406 C369.2344,889.75 369.4219,889.7813 369.8438,889.7813 L370.0938,889.7813 L370.0938,896.2969 L369.8438,896.2969 C369.4375,896.2969 369.2813,896.3125 369.125,896.4219 C368.875,896.5938 368.7188,896.8594 368.7188,897.1563 C368.7188,897.4219 368.8594,897.6719 369.0781,897.8281 C369.2188,897.9531 369.4531,898 369.8438,898 L377.8438,898 L377.8438,895.4219 C377.8438,894.9844 377.8125,894.8438 377.7344,894.6875 C377.5625,894.4375 377.2813,894.2813 377,894.2813 C376.7344,894.2813 376.4688,894.3906 376.2969,894.6406 C376.1875,894.7969 376.1563,894.9375 376.1563,895.4219 L376.1563,896.2969 L371.7969,896.2969 L371.7969,893.875 Z "/><text fill="#000000" font-family="sans-serif" font-size="12" lengthAdjust="spacingAndGlyphs" textLength="54" x="391" y="897.1543">Direction</text><line style="stroke: #A80036; stroke-width: 1.5;" x1="341" x2="465" y1="909" y2="909"/><text fill="#000000" font-family="sans-serif" font-size="11" lengthAdjust="spacingAndGlyphs" textLength="54" x="346" y="923.2104">VERTICAL</text><text fill="#000000" font-family="sans-serif" font-size="11" lengthAdjust="spacingAndGlyphs" textLength="73" x="346" y="936.0151">HORIZONTAL</text><text fill="#000000" font-family="sans-serif" font-size="11" lengthAdjust="spacingAndGlyphs" textLength="94" x="346" y="948.8198">MAIN_DIAGONAL</text><text fill="#000000" font-family="sans-serif" font-size="11" lengthAdjust="spacingAndGlyphs" textLength="114" x="346" y="961.6245">INVERSE_DIAGONAL</text><text fill="#000000" font-family="sans-serif" font-size="11" lengthAdjust="spacingAndGlyphs" textLength="28" x="346" y="974.4292">NULL</text><line style="stroke: #A80036; stroke-width: 1.5;" x1="341" x2="465" y1="981.0234" y2="981.0234"/><!--MD5=[8af4fdb787b135b7271f9ce04b92f747]
class utils.Console--><rect codeLine="32" fill="#FEFECE" filter="url(#f31cp00s03kif)" height="227.2656" id="utils.Console" style="stroke: #A80036; stroke-width: 1.5;" width="214" x="438" y="264"/><ellipse cx="516.25" cy="280" fill="#ADD1B2" rx="11" ry="11" style="stroke: #A80036; stroke-width: 1.0;"/><path d="M518.5938,275.6719 C517.6563,275.2344 517.0625,275.0938 516.1875,275.0938 C513.5625,275.0938 511.5625,277.1719 511.5625,279.8906 L511.5625,281.0156 C511.5625,283.5938 513.6719,285.4844 516.5625,285.4844 C517.7813,285.4844 518.9375,285.1875 519.6875,284.6406 C520.2656,284.2344 520.5938,283.7813 520.5938,283.3906 C520.5938,282.9375 520.2031,282.5469 519.7344,282.5469 C519.5156,282.5469 519.3125,282.625 519.125,282.8125 C518.6719,283.2969 518.6719,283.2969 518.4844,283.3906 C518.0625,283.6563 517.375,283.7813 516.6094,283.7813 C514.5625,283.7813 513.2656,282.6875 513.2656,280.9844 L513.2656,279.8906 C513.2656,278.1094 514.5156,276.7969 516.25,276.7969 C516.8281,276.7969 517.4375,276.9531 517.9063,277.2031 C518.3906,277.4844 518.5625,277.7031 518.6563,278.1094 C518.7188,278.5156 518.75,278.6406 518.8906,278.7656 C519.0313,278.9063 519.2656,279.0156 519.4844,279.0156 C519.75,279.0156 520.0156,278.875 520.1875,278.6563 C520.2969,278.5 520.3281,278.3125 520.3281,277.8906 L520.3281,276.4688 C520.3281,276.0313 520.3125,275.9063 520.2188,275.75 C520.0625,275.4844 519.7813,275.3438 519.4844,275.3438 C519.1875,275.3438 518.9844,275.4375 518.7656,275.75 L518.5938,275.6719 Z "/><text fill="#000000" font-family="sans-serif" font-size="12" lengthAdjust="spacingAndGlyphs" textLength="49" x="536.75" y="284.1543">Console</text><line style="stroke: #A80036; stroke-width: 1.5;" x1="439" x2="651" y1="296" y2="296"/><rect fill="none" height="6" style="stroke: #C82930; stroke-width: 1.0;" width="6" x="446" y="304"/><text fill="#000000" font-family="sans-serif" font-size="11" lengthAdjust="spacingAndGlyphs" text-decoration="underline" textLength="97" x="458" y="310.2104">console: Console</text><rect fill="none" height="6" style="stroke: #C82930; stroke-width: 1.0;" width="6" x="446" y="316.8047"/><text fill="#000000" font-family="sans-serif" font-size="11" lengthAdjust="spacingAndGlyphs" textLength="188" x="458" y="323.0151">bufferedReader: BufferedReader</text><line style="stroke: #A80036; stroke-width: 1.5;" x1="439" x2="651" y1="329.6094" y2="329.6094"/><ellipse cx="449" cy="340.6094" fill="#84BE84" rx="3" ry="3" style="stroke: #038048; stroke-width: 1.0;"/><text fill="#000000" font-family="sans-serif" font-size="11" lengthAdjust="spacingAndGlyphs" text-decoration="underline" textLength="109" x="458" y="343.8198">instance(): Console</text><rect fill="#F24D5C" height="6" style="stroke: #C82930; stroke-width: 1.0;" width="6" x="446" y="350.4141"/><text fill="#000000" font-family="sans-serif" font-size="11" lengthAdjust="spacingAndGlyphs" textLength="140" x="458" y="356.6245">readString(String): String</text><ellipse cx="449" cy="366.2188" fill="#84BE84" rx="3" ry="3" style="stroke: #038048; stroke-width: 1.0;"/><text fill="#000000" font-family="sans-serif" font-size="11" lengthAdjust="spacingAndGlyphs" textLength="107" x="458" y="369.4292">readString(): String</text><ellipse cx="449" cy="379.0234" fill="#84BE84" rx="3" ry="3" style="stroke: #038048; stroke-width: 1.0;"/><text fill="#000000" font-family="sans-serif" font-size="11" lengthAdjust="spacingAndGlyphs" textLength="102" x="458" y="382.2339">readInt(String): int</text><polygon fill="#4177AF" points="449,387.8281,445,393.8281,453,393.8281" style="stroke: #1963A0; stroke-width: 1.0;"/><text fill="#000000" font-family="sans-serif" font-size="11" lengthAdjust="spacingAndGlyphs" textLength="124" x="458" y="395.0386">readChar(String): char</text><ellipse cx="449" cy="404.6328" fill="#84BE84" rx="3" ry="3" style="stroke: #038048; stroke-width: 1.0;"/><text fill="#000000" font-family="sans-serif" font-size="11" lengthAdjust="spacingAndGlyphs" textLength="46" x="458" y="407.8433">writeln()</text><ellipse cx="449" cy="417.4375" fill="#84BE84" rx="3" ry="3" style="stroke: #038048; stroke-width: 1.0;"/><text fill="#000000" font-family="sans-serif" font-size="11" lengthAdjust="spacingAndGlyphs" textLength="69" x="458" y="420.6479">write(String)</text><ellipse cx="449" cy="430.2422" fill="#84BE84" rx="3" ry="3" style="stroke: #038048; stroke-width: 1.0;"/><text fill="#000000" font-family="sans-serif" font-size="11" lengthAdjust="spacingAndGlyphs" textLength="50" x="458" y="433.4526">write(int)</text><ellipse cx="449" cy="443.0469" fill="#84BE84" rx="3" ry="3" style="stroke: #038048; stroke-width: 1.0;"/><text fill="#000000" font-family="sans-serif" font-size="11" lengthAdjust="spacingAndGlyphs" textLength="79" x="458" y="446.2573">writeln(String)</text><ellipse cx="449" cy="455.8516" fill="#84BE84" rx="3" ry="3" style="stroke: #038048; stroke-width: 1.0;"/><text fill="#000000" font-family="sans-serif" font-size="11" lengthAdjust="spacingAndGlyphs" textLength="60" x="458" y="459.062">writeln(int)</text><ellipse cx="449" cy="468.6563" fill="#84BE84" rx="3" ry="3" style="stroke: #038048; stroke-width: 1.0;"/><text fill="#000000" font-family="sans-serif" font-size="11" lengthAdjust="spacingAndGlyphs" textLength="60" x="458" y="471.8667">write(char)</text><rect fill="#F24D5C" height="6" style="stroke: #C82930; stroke-width: 1.0;" width="6" x="446" y="478.4609"/><text fill="#000000" font-family="sans-serif" font-size="11" lengthAdjust="spacingAndGlyphs" textLength="95" x="458" y="484.6714">writeError(String)</text><!--MD5=[ead0935fc76aaf0e6250f3f010faf07a]
class utils.LimitedIntDialog--><rect codeLine="67" fill="#FEFECE" filter="url(#f31cp00s03kif)" height="99.2188" id="utils.LimitedIntDialog" style="stroke: #A80036; stroke-width: 1.5;" width="165" x="486.5" y="73"/><ellipse cx="518.6" cy="89" fill="#ADD1B2" rx="11" ry="11" style="stroke: #A80036; stroke-width: 1.0;"/><path d="M520.9438,84.6719 C520.0063,84.2344 519.4125,84.0938 518.5375,84.0938 C515.9125,84.0938 513.9125,86.1719 513.9125,88.8906 L513.9125,90.0156 C513.9125,92.5938 516.0219,94.4844 518.9125,94.4844 C520.1313,94.4844 521.2875,94.1875 522.0375,93.6406 C522.6156,93.2344 522.9438,92.7813 522.9438,92.3906 C522.9438,91.9375 522.5531,91.5469 522.0844,91.5469 C521.8656,91.5469 521.6625,91.625 521.475,91.8125 C521.0219,92.2969 521.0219,92.2969 520.8344,92.3906 C520.4125,92.6563 519.725,92.7813 518.9594,92.7813 C516.9125,92.7813 515.6156,91.6875 515.6156,89.9844 L515.6156,88.8906 C515.6156,87.1094 516.8656,85.7969 518.6,85.7969 C519.1781,85.7969 519.7875,85.9531 520.2563,86.2031 C520.7406,86.4844 520.9125,86.7031 521.0063,87.1094 C521.0688,87.5156 521.1,87.6406 521.2406,87.7656 C521.3813,87.9063 521.6156,88.0156 521.8344,88.0156 C522.1,88.0156 522.3656,87.875 522.5375,87.6563 C522.6469,87.5 522.6781,87.3125 522.6781,86.8906 L522.6781,85.4688 C522.6781,85.0313 522.6625,84.9063 522.5688,84.75 C522.4125,84.4844 522.1313,84.3438 521.8344,84.3438 C521.5375,84.3438 521.3344,84.4375 521.1156,84.75 L520.9438,84.6719 Z "/><text fill="#000000" font-family="sans-serif" font-size="12" lengthAdjust="spacingAndGlyphs" textLength="95" x="536.4" y="93.1543">LimitedIntDialog</text><line style="stroke: #A80036; stroke-width: 1.5;" x1="487.5" x2="650.5" y1="105" y2="105"/><rect fill="none" height="6" style="stroke: #C82930; stroke-width: 1.0;" width="6" x="494.5" y="113"/><text fill="#000000" font-family="sans-serif" font-size="11" lengthAdjust="spacingAndGlyphs" textLength="125" x="506.5" y="119.2104">LIMITS: ClosedInterval</text><rect fill="none" height="6" style="stroke: #C82930; stroke-width: 1.0;" width="6" x="494.5" y="125.8047"/><text fill="#000000" font-family="sans-serif" font-size="11" lengthAdjust="spacingAndGlyphs" text-decoration="underline" textLength="139" x="506.5" y="132.0151">ERROR_MESSAGE: String</text><line style="stroke: #A80036; stroke-width: 1.5;" x1="487.5" x2="650.5" y1="138.6094" y2="138.6094"/><ellipse cx="497.5" cy="149.6094" fill="#84BE84" rx="3" ry="3" style="stroke: #038048; stroke-width: 1.0;"/><text fill="#000000" font-family="sans-serif" font-size="11" lengthAdjust="spacingAndGlyphs" textLength="131" x="506.5" y="152.8198">LimitedIntDialog(int,int)</text><ellipse cx="497.5" cy="162.4141" fill="#84BE84" rx="3" ry="3" style="stroke: #038048; stroke-width: 1.0;"/><text fill="#000000" font-family="sans-serif" font-size="11" lengthAdjust="spacingAndGlyphs" textLength="88" x="506.5" y="165.6245">read(String): int</text><!--MD5=[4a450fc22412d9c6e9754201f2a6a77e]
class utils.NullCoordinate--><rect codeLine="77" fill="#FEFECE" filter="url(#f31cp00s03kif)" height="176.0469" id="utils.NullCoordinate" style="stroke: #A80036; stroke-width: 1.5;" width="224" x="32" y="596"/><ellipse cx="96.25" cy="612" fill="#ADD1B2" rx="11" ry="11" style="stroke: #A80036; stroke-width: 1.0;"/><path d="M98.5938,607.6719 C97.6563,607.2344 97.0625,607.0938 96.1875,607.0938 C93.5625,607.0938 91.5625,609.1719 91.5625,611.8906 L91.5625,613.0156 C91.5625,615.5938 93.6719,617.4844 96.5625,617.4844 C97.7813,617.4844 98.9375,617.1875 99.6875,616.6406 C100.2656,616.2344 100.5938,615.7813 100.5938,615.3906 C100.5938,614.9375 100.2031,614.5469 99.7344,614.5469 C99.5156,614.5469 99.3125,614.625 99.125,614.8125 C98.6719,615.2969 98.6719,615.2969 98.4844,615.3906 C98.0625,615.6563 97.375,615.7813 96.6094,615.7813 C94.5625,615.7813 93.2656,614.6875 93.2656,612.9844 L93.2656,611.8906 C93.2656,610.1094 94.5156,608.7969 96.25,608.7969 C96.8281,608.7969 97.4375,608.9531 97.9063,609.2031 C98.3906,609.4844 98.5625,609.7031 98.6563,610.1094 C98.7188,610.5156 98.75,610.6406 98.8906,610.7656 C99.0313,610.9063 99.2656,611.0156 99.4844,611.0156 C99.75,611.0156 100.0156,610.875 100.1875,610.6563 C100.2969,610.5 100.3281,610.3125 100.3281,609.8906 L100.3281,608.4688 C100.3281,608.0313 100.3125,607.9063 100.2188,607.75 C100.0625,607.4844 99.7813,607.3438 99.4844,607.3438 C99.1875,607.3438 98.9844,607.4375 98.7656,607.75 L98.5938,607.6719 Z "/><text fill="#000000" font-family="sans-serif" font-size="12" lengthAdjust="spacingAndGlyphs" textLength="87" x="116.75" y="616.1543">NullCoordinate</text><line style="stroke: #A80036; stroke-width: 1.5;" x1="33" x2="255" y1="628" y2="628"/><rect fill="none" height="6" style="stroke: #C82930; stroke-width: 1.0;" width="6" x="40" y="636"/><text fill="#000000" font-family="sans-serif" font-size="11" lengthAdjust="spacingAndGlyphs" text-decoration="underline" textLength="138" x="52" y="642.2104">instance: NullCoordinate</text><line style="stroke: #A80036; stroke-width: 1.5;" x1="33" x2="255" y1="648.8047" y2="648.8047"/><ellipse cx="43" cy="659.8047" fill="#84BE84" rx="3" ry="3" style="stroke: #038048; stroke-width: 1.0;"/><text fill="#000000" font-family="sans-serif" font-size="11" lengthAdjust="spacingAndGlyphs" text-decoration="underline" textLength="125" x="52" y="663.0151">instance(): Coordinate</text><ellipse cx="43" cy="672.6094" fill="#84BE84" rx="3" ry="3" style="stroke: #038048; stroke-width: 1.0;"/><text fill="#000000" font-family="sans-serif" font-size="11" lengthAdjust="spacingAndGlyphs" textLength="91" x="52" y="675.8198">isNull(): boolean</text><ellipse cx="43" cy="685.4141" fill="#84BE84" rx="3" ry="3" style="stroke: #038048; stroke-width: 1.0;"/><text fill="#000000" font-family="sans-serif" font-size="11" lengthAdjust="spacingAndGlyphs" textLength="198" x="52" y="688.6245">getDirection(Coordinate): Direction</text><ellipse cx="43" cy="698.2188" fill="#84BE84" rx="3" ry="3" style="stroke: #038048; stroke-width: 1.0;"/><text fill="#000000" font-family="sans-serif" font-size="11" lengthAdjust="spacingAndGlyphs" textLength="190" x="52" y="701.4292">inHorizontal(Coordinate): boolean</text><ellipse cx="43" cy="711.0234" fill="#84BE84" rx="3" ry="3" style="stroke: #038048; stroke-width: 1.0;"/><text fill="#000000" font-family="sans-serif" font-size="11" lengthAdjust="spacingAndGlyphs" textLength="176" x="52" y="714.2339">inVertical(Coordinate): boolean</text><ellipse cx="43" cy="723.8281" fill="#84BE84" rx="3" ry="3" style="stroke: #038048; stroke-width: 1.0;"/><text fill="#000000" font-family="sans-serif" font-size="11" lengthAdjust="spacingAndGlyphs" textLength="147" x="52" y="727.0386">inMainDiagonal(): boolean</text><ellipse cx="43" cy="736.6328" fill="#84BE84" rx="3" ry="3" style="stroke: #038048; stroke-width: 1.0;"/><text fill="#000000" font-family="sans-serif" font-size="11" lengthAdjust="spacingAndGlyphs" textLength="86" x="52" y="739.8433">hashCode(): int</text><ellipse cx="43" cy="749.4375" fill="#84BE84" rx="3" ry="3" style="stroke: #038048; stroke-width: 1.0;"/><text fill="#000000" font-family="sans-serif" font-size="11" lengthAdjust="spacingAndGlyphs" textLength="136" x="52" y="752.6479">equals(Object): boolean</text><ellipse cx="43" cy="762.2422" fill="#84BE84" rx="3" ry="3" style="stroke: #038048; stroke-width: 1.0;"/><text fill="#000000" font-family="sans-serif" font-size="11" lengthAdjust="spacingAndGlyphs" textLength="92" x="52" y="765.4526">toString(): String</text><!--MD5=[ae8b7cdc49d99fbec8c7e641a97b4a7f]
class utils.YesNoDialog--><rect codeLine="92" fill="#FEFECE" filter="url(#f31cp00s03kif)" height="163.2422" id="utils.YesNoDialog" style="stroke: #A80036; stroke-width: 1.5;" width="159" x="32.5" y="41"/><ellipse cx="70.45" cy="57" fill="#ADD1B2" rx="11" ry="11" style="stroke: #A80036; stroke-width: 1.0;"/><path d="M72.7938,52.6719 C71.8563,52.2344 71.2625,52.0938 70.3875,52.0938 C67.7625,52.0938 65.7625,54.1719 65.7625,56.8906 L65.7625,58.0156 C65.7625,60.5938 67.8719,62.4844 70.7625,62.4844 C71.9813,62.4844 73.1375,62.1875 73.8875,61.6406 C74.4656,61.2344 74.7938,60.7813 74.7938,60.3906 C74.7938,59.9375 74.4031,59.5469 73.9344,59.5469 C73.7156,59.5469 73.5125,59.625 73.325,59.8125 C72.8719,60.2969 72.8719,60.2969 72.6844,60.3906 C72.2625,60.6563 71.575,60.7813 70.8094,60.7813 C68.7625,60.7813 67.4656,59.6875 67.4656,57.9844 L67.4656,56.8906 C67.4656,55.1094 68.7156,53.7969 70.45,53.7969 C71.0281,53.7969 71.6375,53.9531 72.1063,54.2031 C72.5906,54.4844 72.7625,54.7031 72.8563,55.1094 C72.9188,55.5156 72.95,55.6406 73.0906,55.7656 C73.2313,55.9063 73.4656,56.0156 73.6844,56.0156 C73.95,56.0156 74.2156,55.875 74.3875,55.6563 C74.4969,55.5 74.5281,55.3125 74.5281,54.8906 L74.5281,53.4688 C74.5281,53.0313 74.5125,52.9063 74.4188,52.75 C74.2625,52.4844 73.9813,52.3438 73.6844,52.3438 C73.3875,52.3438 73.1844,52.4375 72.9656,52.75 L72.7938,52.6719 Z "/><text fill="#000000" font-family="sans-serif" font-size="12" lengthAdjust="spacingAndGlyphs" textLength="76" x="89.55" y="61.1543">YesNoDialog</text><line style="stroke: #A80036; stroke-width: 1.5;" x1="33.5" x2="190.5" y1="73" y2="73"/><rect fill="none" height="6" style="stroke: #C82930; stroke-width: 1.0;" width="6" x="40.5" y="81"/><text fill="#000000" font-family="sans-serif" font-size="11" lengthAdjust="spacingAndGlyphs" text-decoration="underline" textLength="97" x="52.5" y="87.2104">AFIRMATIVE: char</text><rect fill="none" height="6" style="stroke: #C82930; stroke-width: 1.0;" width="6" x="40.5" y="93.8047"/><text fill="#000000" font-family="sans-serif" font-size="11" lengthAdjust="spacingAndGlyphs" text-decoration="underline" textLength="88" x="52.5" y="100.0151">NEGATIVE: char</text><rect fill="none" height="6" style="stroke: #C82930; stroke-width: 1.0;" width="6" x="40.5" y="106.6094"/><text fill="#000000" font-family="sans-serif" font-size="11" lengthAdjust="spacingAndGlyphs" text-decoration="underline" textLength="79" x="52.5" y="112.8198">SUFFIX: String</text><rect fill="none" height="6" style="stroke: #C82930; stroke-width: 1.0;" width="6" x="40.5" y="119.4141"/><text fill="#000000" font-family="sans-serif" font-size="11" lengthAdjust="spacingAndGlyphs" text-decoration="underline" textLength="96" x="52.5" y="125.6245">MESSAGE: String</text><rect fill="none" height="6" style="stroke: #C82930; stroke-width: 1.0;" width="6" x="40.5" y="132.2188"/><text fill="#000000" font-family="sans-serif" font-size="11" lengthAdjust="spacingAndGlyphs" textLength="72" x="52.5" y="138.4292">answer: char</text><line style="stroke: #A80036; stroke-width: 1.5;" x1="33.5" x2="190.5" y1="145.0234" y2="145.0234"/><ellipse cx="43.5" cy="156.0234" fill="#84BE84" rx="3" ry="3" style="stroke: #038048; stroke-width: 1.0;"/><text fill="#000000" font-family="sans-serif" font-size="11" lengthAdjust="spacingAndGlyphs" textLength="120" x="52.5" y="159.2339">read(String): boolean</text><rect fill="#F24D5C" height="6" style="stroke: #C82930; stroke-width: 1.0;" width="6" x="40.5" y="165.8281"/><text fill="#000000" font-family="sans-serif" font-size="11" lengthAdjust="spacingAndGlyphs" textLength="133" x="52.5" y="172.0386">isAffirmative(): boolean</text><rect fill="#F24D5C" height="6" style="stroke: #C82930; stroke-width: 1.0;" width="6" x="40.5" y="178.6328"/><text fill="#000000" font-family="sans-serif" font-size="11" lengthAdjust="spacingAndGlyphs" textLength="100" x="52.5" y="184.8433">getAnswer(): char</text><rect fill="#F24D5C" height="6" style="stroke: #C82930; stroke-width: 1.0;" width="6" x="40.5" y="191.4375"/><text fill="#000000" font-family="sans-serif" font-size="11" lengthAdjust="spacingAndGlyphs" textLength="122" x="52.5" y="197.6479">isNegative(): boolean</text><!--MD5=[06343bf850d7d7a24456cd327e63b99b]
class java.io.BufferedReader--><rect fill="#FEFECE" filter="url(#f31cp00s03kif)" height="48" id="java.io.BufferedReader" style="stroke: #A80036; stroke-width: 1.5;" width="127" x="708.5" y="660"/><ellipse cx="723.5" cy="676" fill="#ADD1B2" rx="11" ry="11" style="stroke: #A80036; stroke-width: 1.0;"/><path d="M725.8438,671.6719 C724.9063,671.2344 724.3125,671.0938 723.4375,671.0938 C720.8125,671.0938 718.8125,673.1719 718.8125,675.8906 L718.8125,677.0156 C718.8125,679.5938 720.9219,681.4844 723.8125,681.4844 C725.0313,681.4844 726.1875,681.1875 726.9375,680.6406 C727.5156,680.2344 727.8438,679.7813 727.8438,679.3906 C727.8438,678.9375 727.4531,678.5469 726.9844,678.5469 C726.7656,678.5469 726.5625,678.625 726.375,678.8125 C725.9219,679.2969 725.9219,679.2969 725.7344,679.3906 C725.3125,679.6563 724.625,679.7813 723.8594,679.7813 C721.8125,679.7813 720.5156,678.6875 720.5156,676.9844 L720.5156,675.8906 C720.5156,674.1094 721.7656,672.7969 723.5,672.7969 C724.0781,672.7969 724.6875,672.9531 725.1563,673.2031 C725.6406,673.4844 725.8125,673.7031 725.9063,674.1094 C725.9688,674.5156 726,674.6406 726.1406,674.7656 C726.2813,674.9063 726.5156,675.0156 726.7344,675.0156 C727,675.0156 727.2656,674.875 727.4375,674.6563 C727.5469,674.5 727.5781,674.3125 727.5781,673.8906 L727.5781,672.4688 C727.5781,672.0313 727.5625,671.9063 727.4688,671.75 C727.3125,671.4844 727.0313,671.3438 726.7344,671.3438 C726.4375,671.3438 726.2344,671.4375 726.0156,671.75 L725.8438,671.6719 Z "/><text fill="#000000" font-family="sans-serif" font-size="12" lengthAdjust="spacingAndGlyphs" textLength="95" x="737.5" y="680.1543">BufferedReader</text><line style="stroke: #A80036; stroke-width: 1.5;" x1="709.5" x2="834.5" y1="692" y2="692"/><line style="stroke: #A80036; stroke-width: 1.5;" x1="709.5" x2="834.5" y1="700" y2="700"/><!--MD5=[d7b62b5b7cc599fd4ae3bb87c25c2d09]
reverse link utils.Coordinate to utils.ConcreteCoordinate--><path codeLine="29" d="M249.692,192.673 C229.552,213.231 210.918,237.441 200,264 C161.642,357.312 156.898,399.782 200,491 C217.942,528.972 242.001,522.666 273,551 C278.935,556.425 284.951,562.049 290.975,567.782 " fill="none" id="utils.Coordinate-backto-utils.ConcreteCoordinate" style="stroke: #A80036; stroke-width: 1.0; stroke-dasharray: 7.0,7.0;"/><polygon fill="none" points="244.912,187.558,264.164,178.705,254.634,197.631,244.912,187.558" style="stroke: #A80036; stroke-width: 1.0;"/><!--MD5=[d47d1f9d4565218ddfad1fea35991d4c]
link utils.ConcreteCoordinate to utils.Direction--><path codeLine="30" d="M403,817.177 C403,836.303 403,855.151 403,871.872 " fill="none" id="utils.ConcreteCoordinate-to-utils.Direction" style="stroke: #A80036; stroke-width: 1.0; stroke-dasharray: 7.0,7.0;"/><polygon fill="#A80036" points="403,876.991,407,867.991,403,871.991,399,867.991,403,876.991" style="stroke: #A80036; stroke-width: 1.0;"/><!--MD5=[dea1a6a5eb2726644cb5ba3fdbe3e8f5]
link utils.Console to java.io.BufferedReader--><path codeLine="48" d="M636.0523,500.6405 C636.0523,500.6405 720.133,613.425 746.758,649.139 " fill="none" id="utils.Console-java.io.BufferedReader" style="stroke: #A80036; stroke-width: 1.0;"/><polygon fill="#A80036" points="754.782,659.903,752.6099,650.2967,751.7936,655.8943,746.196,655.0781,754.782,659.903" style="stroke: #A80036; stroke-width: 1.0;"/><line style="stroke: #A80036; stroke-width: 1.0;" x1="751.7936" x2="747.012" y1="655.8943" y2="649.4805"/><polygon fill="#A80036" points="628.881,491.019,629.2595,498.2202,636.0523,500.6405,635.6738,493.4393,628.881,491.019" style="stroke: #A80036; stroke-width: 1.0;"/><!--MD5=[7a93099a4dadc944cf6faf031ca4e2bf]
link utils.Coordinate to utils.Direction--><path codeLine="57" d="M280.839,178.529 C259.595,202.503 238.072,232.347 227,264 C210.344,311.615 194.945,452.05 227,491 C315.066,598.011 444.934,443.989 533,551 C608.124,642.285 581.559,709.211 533,817 C519.779,846.347 494.957,871.226 470.517,890.256 " fill="none" id="utils.Coordinate-to-utils.Direction" style="stroke: #A80036; stroke-width: 1.0; stroke-dasharray: 7.0,7.0;"/><polygon fill="#A80036" points="466.281,893.5,475.8585,891.2041,470.2508,890.4602,470.9948,884.8524,466.281,893.5" style="stroke: #A80036; stroke-width: 1.0;"/><!--MD5=[18e8b4b8b7091328456dcce969be9886]
link utils.LimitedIntDialog to utils.ClosedInterval--><path codeLine="74" d="M505.7217,180.341 C505.7217,180.341 446.85,235.784 420,264 C405.844,278.877 391.163,295.439 377.666,311.181 " fill="none" id="utils.LimitedIntDialog-utils.ClosedInterval" style="stroke: #A80036; stroke-width: 1.0;"/><polygon fill="#A80036" points="368.986,321.381,377.8653,317.1197,372.2266,317.5733,371.773,311.9347,368.986,321.381" style="stroke: #A80036; stroke-width: 1.0;"/><line style="stroke: #A80036; stroke-width: 1.0;" x1="372.2266" x2="377.411" y1="317.5733" y2="311.481"/><polygon fill="#A80036" points="514.548,172.211,507.4249,173.3339,505.7217,180.341,512.8449,179.2181,514.548,172.211" style="stroke: #A80036; stroke-width: 1.0;"/><!--MD5=[e298299c1e849354f6805771d72e504d]
link utils.LimitedIntDialog to utils.Console--><path codeLine="75" d="M564.373,172.281 C562.029,196.985 559.073,228.147 556.181,258.636 " fill="none" id="utils.LimitedIntDialog-to-utils.Console" style="stroke: #A80036; stroke-width: 1.0; stroke-dasharray: 7.0,7.0;"/><polygon fill="#A80036" points="555.68,263.919,560.5133,255.3377,556.1529,258.9414,552.5491,254.581,555.68,263.919" style="stroke: #A80036; stroke-width: 1.0;"/><!--MD5=[d9cf8b17b8e125443f88e0d9adc7842e]
reverse link utils.Coordinate to utils.NullCoordinate--><path codeLine="89" d="M224.349,190.872 C199.557,211.113 176.465,235.622 162,264 C108.765,368.439 115.37,507.238 127.604,595.87 " fill="none" id="utils.Coordinate-backto-utils.NullCoordinate" style="stroke: #A80036; stroke-width: 1.0; stroke-dasharray: 7.0,7.0;"/><polygon fill="none" points="220.264,185.182,240.376,178.509,228.815,196.267,220.264,185.182" style="stroke: #A80036; stroke-width: 1.0;"/><!--MD5=[d08f687dd54292a9e52376f412c5d965]
link utils.NullCoordinate to utils.Direction--><path codeLine="90" d="M227.425,772.168 C242.411,787.306 258.027,802.753 273,817 C293.037,836.066 315.417,856.243 335.885,874.284 " fill="none" id="utils.NullCoordinate-to-utils.Direction" style="stroke: #A80036; stroke-width: 1.0; stroke-dasharray: 7.0,7.0;"/><polygon fill="#A80036" points="339.684,877.628,335.5708,868.6792,335.9307,874.3246,330.2853,874.6845,339.684,877.628" style="stroke: #A80036; stroke-width: 1.0;"/><!--MD5=[3a4235a3296463e6cd8c7066a1905827]
@startuml
class  utils.ClosedInterval{
- min: int
- max: int
+ ClosedInterval(int,int)
+ isIncluded(int): boolean
+ toString(): String
}

class  utils.ConcreteCoordinate{
# row: int
# column: int
- {static} ROW: String
- {static} COLUMN: String
# ConcreteCoordinate()
# ConcreteCoordinate(int,int)
+ isNull(): boolean
+ getDirection(Coordinate): Direction
+ inHorizontal(Coordinate): boolean
+ inVertical(Coordinate): boolean
+ inMainDiagonal(): boolean
# read(String)
+ getRow(): int
+ getColumn(): int
+ hashCode(): int
+ equals(Object): boolean
+ toString(): String
}

utils.Coordinate <|..down- utils.ConcreteCoordinate
utils.ConcreteCoordinate ..> utils.Direction

class  utils.Console{
- {static} console: Console
- bufferedReader: BufferedReader
+ {static} instance(): Console
- readString(String): String
+ readString(): String
+ readInt(String): int
~ readChar(String): char
+ writeln()
+ write(String)
+ write(int)
+ writeln(String)
+ writeln(int)
+ write(char)
- writeError(String)
}
utils.Console *-down-> java.io.BufferedReader

interface  utils.Coordinate{
~ isNull(): boolean
~ getDirection(Coordinate): Direction
~ inHorizontal(Coordinate): boolean
~ inVertical(Coordinate): boolean
~ inMainDiagonal(): boolean
}
utils.Coordinate ..> utils.Direction

enum  utils.Direction{
  VERTICAL
  HORIZONTAL
  MAIN_DIAGONAL
  INVERSE_DIAGONAL
  NULL
}

class  utils.LimitedIntDialog{
- LIMITS: ClosedInterval
- {static} ERROR_MESSAGE: String
+ LimitedIntDialog(int,int)
+ read(String): int
}

utils.LimitedIntDialog *-down-> utils.ClosedInterval
utils.LimitedIntDialog ..> utils.Console

class  utils.NullCoordinate{
- {static} instance: NullCoordinate
+ {static} instance(): Coordinate
+ isNull(): boolean
+ getDirection(Coordinate): Direction
+ inHorizontal(Coordinate): boolean
+ inVertical(Coordinate): boolean
+ inMainDiagonal(): boolean
+ hashCode(): int
+ equals(Object): boolean
+ toString(): String
}
utils.Coordinate <|..down- utils.NullCoordinate
utils.NullCoordinate ..> utils.Direction

class  utils.YesNoDialog{
- {static} AFIRMATIVE: char
- {static} NEGATIVE: char
- {static} SUFFIX: String
- {static} MESSAGE: String
- answer: char
+ read(String): boolean
- isAffirmative(): boolean
- getAnswer(): char
- isNegative(): boolean
}
@enduml

PlantUML version 1.2020.20beta4(Unknown compile time)
(GPL source distribution)
Java Runtime: Java(TM) SE Runtime Environment
JVM: Java HotSpot(TM) 64-Bit Server VM
Default Encoding: UTF-8
Language: en
Country: US
--></g></svg>