<?xml version="1.0" encoding="UTF-8" standalone="no"?><svg xmlns="http://www.w3.org/2000/svg" xmlns:xlink="http://www.w3.org/1999/xlink" contentScriptType="application/ecmascript" contentStyleType="text/css" height="1138px" preserveAspectRatio="none" style="width:1475px;height:1138px;" version="1.1" viewBox="0 0 1475 1138" width="1475px" zoomAndPan="magnify"><defs><filter height="300%" id="f15503uaxci2d" width="300%" x="-1" y="-1"><feGaussianBlur result="blurOut" stdDeviation="2.0"/><feColorMatrix in="blurOut" result="blurOut2" type="matrix" values="0 0 0 0 0 0 0 0 0 0 0 0 0 0 0 0 0 0 .4 0"/><feOffset dx="4.0" dy="4.0" in="blurOut2" result="blurOut3"/><feBlend in="SourceGraphic" in2="blurOut3" mode="normal"/></filter></defs><g><!--MD5=[f4e83a21a957c5b9ba9691e6361db36b]
cluster tictactoe.views--><polygon fill="#FFFFFF" filter="url(#f15503uaxci2d)" points="16,6,148,6,155,28.2969,1001,28.2969,1001,1131,16,1131,16,6" style="stroke: #000000; stroke-width: 1.5;"/><line style="stroke: #000000; stroke-width: 1.5;" x1="16" x2="155" y1="28.2969" y2="28.2969"/><text fill="#000000" font-family="sans-serif" font-size="14" font-weight="bold" lengthAdjust="spacingAndGlyphs" textLength="126" x="20" y="20.9951">tictactoe.views</text><!--MD5=[c52f45833d539af9e29a9d34b8b7302b]
cluster utils--><polygon fill="#FFFFFF" filter="url(#f15503uaxci2d)" points="1025,631,1068,631,1075,653.2969,1458,653.2969,1458,730,1025,730,1025,631" style="stroke: #000000; stroke-width: 1.5;"/><line style="stroke: #000000; stroke-width: 1.5;" x1="1025" x2="1075" y1="653.2969" y2="653.2969"/><text fill="#000000" font-family="sans-serif" font-size="14" font-weight="bold" lengthAdjust="spacingAndGlyphs" textLength="37" x="1029" y="645.9951">utils</text><!--MD5=[51cd642fcc96b47682a93d9084d46dec]
cluster tictactoe.models--><polygon fill="#FFFFFF" filter="url(#f15503uaxci2d)" points="1074,382,1219,382,1226,404.2969,1229,404.2969,1229,481,1074,481,1074,382" style="stroke: #000000; stroke-width: 1.5;"/><line style="stroke: #000000; stroke-width: 1.5;" x1="1074" x2="1226" y1="404.2969" y2="404.2969"/><text fill="#000000" font-family="sans-serif" font-size="14" font-weight="bold" lengthAdjust="spacingAndGlyphs" textLength="139" x="1078" y="396.9951">tictactoe.models</text><!--MD5=[edeafd8e862636cda68e6fb1f68b81b5]
class tictactoe.views.BoardView--><rect codeLine="1" fill="#FEFECE" filter="url(#f15503uaxci2d)" height="112.0234" id="tictactoe.views.BoardView" style="stroke: #A80036; stroke-width: 1.5;" width="232" x="593" y="385"/><ellipse cx="672.25" cy="401" fill="#ADD1B2" rx="11" ry="11" style="stroke: #A80036; stroke-width: 1.0;"/><path d="M674.5938,396.6719 C673.6563,396.2344 673.0625,396.0938 672.1875,396.0938 C669.5625,396.0938 667.5625,398.1719 667.5625,400.8906 L667.5625,402.0156 C667.5625,404.5938 669.6719,406.4844 672.5625,406.4844 C673.7813,406.4844 674.9375,406.1875 675.6875,405.6406 C676.2656,405.2344 676.5938,404.7813 676.5938,404.3906 C676.5938,403.9375 676.2031,403.5469 675.7344,403.5469 C675.5156,403.5469 675.3125,403.625 675.125,403.8125 C674.6719,404.2969 674.6719,404.2969 674.4844,404.3906 C674.0625,404.6563 673.375,404.7813 672.6094,404.7813 C670.5625,404.7813 669.2656,403.6875 669.2656,401.9844 L669.2656,400.8906 C669.2656,399.1094 670.5156,397.7969 672.25,397.7969 C672.8281,397.7969 673.4375,397.9531 673.9063,398.2031 C674.3906,398.4844 674.5625,398.7031 674.6563,399.1094 C674.7188,399.5156 674.75,399.6406 674.8906,399.7656 C675.0313,399.9063 675.2656,400.0156 675.4844,400.0156 C675.75,400.0156 676.0156,399.875 676.1875,399.6563 C676.2969,399.5 676.3281,399.3125 676.3281,398.8906 L676.3281,397.4688 C676.3281,397.0313 676.3125,396.9063 676.2188,396.75 C676.0625,396.4844 675.7813,396.3438 675.4844,396.3438 C675.1875,396.3438 674.9844,396.4375 674.7656,396.75 L674.5938,396.6719 Z "/><text fill="#000000" font-family="sans-serif" font-size="12" lengthAdjust="spacingAndGlyphs" textLength="65" x="692.75" y="405.1543">BoardView</text><line style="stroke: #A80036; stroke-width: 1.5;" x1="594" x2="824" y1="417" y2="417"/><polygon fill="none" points="604,424,600,430,608,430" style="stroke: #1963A0; stroke-width: 1.0;"/><text fill="#000000" font-family="sans-serif" font-size="11" lengthAdjust="spacingAndGlyphs" textLength="72" x="613" y="431.2104">board: Board</text><line style="stroke: #A80036; stroke-width: 1.5;" x1="594" x2="824" y1="437.8047" y2="437.8047"/><polygon fill="#4177AF" points="604,444.8047,600,450.8047,608,450.8047" style="stroke: #1963A0; stroke-width: 1.0;"/><text fill="#000000" font-family="sans-serif" font-size="11" lengthAdjust="spacingAndGlyphs" textLength="102" x="613" y="452.0151">BoardView(Board)</text><polygon fill="#4177AF" points="604,457.6094,600,463.6094,608,463.6094" style="stroke: #1963A0; stroke-width: 1.0;"/><text fill="#000000" font-family="sans-serif" font-size="11" lengthAdjust="spacingAndGlyphs" textLength="67" x="613" y="464.8198">write(): void</text><rect fill="#F24D5C" height="6" style="stroke: #C82930; stroke-width: 1.0;" width="6" x="601" y="471.4141"/><text fill="#000000" font-family="sans-serif" font-size="11" lengthAdjust="spacingAndGlyphs" textLength="134" x="613" y="477.6245">printRowBoard(int): void</text><rect fill="#F24D5C" height="6" style="stroke: #C82930; stroke-width: 1.0;" width="6" x="601" y="484.2188"/><text fill="#000000" font-family="sans-serif" font-size="11" lengthAdjust="spacingAndGlyphs" textLength="206" x="613" y="490.4292">printSquareValueBoard(int, int): void</text><!--MD5=[5dff601402b9962ae61c7ab4dc9cae89]
class tictactoe.views.CoordinateView--><rect codeLine="9" fill="#FEFECE" filter="url(#f15503uaxci2d)" height="60.8047" id="tictactoe.views.CoordinateView" style="stroke: #A80036; stroke-width: 1.5;" width="162" x="422" y="882.5"/><ellipse cx="452.75" cy="898.5" fill="#ADD1B2" rx="11" ry="11" style="stroke: #A80036; stroke-width: 1.0;"/><path d="M455.0938,894.1719 C454.1563,893.7344 453.5625,893.5938 452.6875,893.5938 C450.0625,893.5938 448.0625,895.6719 448.0625,898.3906 L448.0625,899.5156 C448.0625,902.0938 450.1719,903.9844 453.0625,903.9844 C454.2813,903.9844 455.4375,903.6875 456.1875,903.1406 C456.7656,902.7344 457.0938,902.2813 457.0938,901.8906 C457.0938,901.4375 456.7031,901.0469 456.2344,901.0469 C456.0156,901.0469 455.8125,901.125 455.625,901.3125 C455.1719,901.7969 455.1719,901.7969 454.9844,901.8906 C454.5625,902.1563 453.875,902.2813 453.1094,902.2813 C451.0625,902.2813 449.7656,901.1875 449.7656,899.4844 L449.7656,898.3906 C449.7656,896.6094 451.0156,895.2969 452.75,895.2969 C453.3281,895.2969 453.9375,895.4531 454.4063,895.7031 C454.8906,895.9844 455.0625,896.2031 455.1563,896.6094 C455.2188,897.0156 455.25,897.1406 455.3906,897.2656 C455.5313,897.4063 455.7656,897.5156 455.9844,897.5156 C456.25,897.5156 456.5156,897.375 456.6875,897.1563 C456.7969,897 456.8281,896.8125 456.8281,896.3906 L456.8281,894.9688 C456.8281,894.5313 456.8125,894.4063 456.7188,894.25 C456.5625,893.9844 456.2813,893.8438 455.9844,893.8438 C455.6875,893.8438 455.4844,893.9375 455.2656,894.25 L455.0938,894.1719 Z "/><text fill="#000000" font-family="sans-serif" font-size="12" lengthAdjust="spacingAndGlyphs" textLength="95" x="470.25" y="902.6543">CoordinateView</text><line style="stroke: #A80036; stroke-width: 1.5;" x1="423" x2="583" y1="914.5" y2="914.5"/><line style="stroke: #A80036; stroke-width: 1.5;" x1="423" x2="583" y1="922.5" y2="922.5"/><polygon fill="#4177AF" points="433,929.5,429,935.5,437,935.5" style="stroke: #1963A0; stroke-width: 1.0;"/><text fill="#000000" font-family="sans-serif" font-size="11" lengthAdjust="spacingAndGlyphs" textLength="136" x="442" y="936.7104">read(String): Coordinate</text><!--MD5=[17799e03bfee0ccb3aa03b93da9c26d6]
class tictactoe.views.ErrorView--><rect codeLine="15" fill="#FEFECE" filter="url(#f15503uaxci2d)" height="99.2188" id="tictactoe.views.ErrorView" style="stroke: #A80036; stroke-width: 1.5;" width="162" x="363" y="1016"/><ellipse cx="410.25" cy="1032" fill="#ADD1B2" rx="11" ry="11" style="stroke: #A80036; stroke-width: 1.0;"/><path d="M412.5938,1027.6719 C411.6563,1027.2344 411.0625,1027.0938 410.1875,1027.0938 C407.5625,1027.0938 405.5625,1029.1719 405.5625,1031.8906 L405.5625,1033.0156 C405.5625,1035.5938 407.6719,1037.4844 410.5625,1037.4844 C411.7813,1037.4844 412.9375,1037.1875 413.6875,1036.6406 C414.2656,1036.2344 414.5938,1035.7813 414.5938,1035.3906 C414.5938,1034.9375 414.2031,1034.5469 413.7344,1034.5469 C413.5156,1034.5469 413.3125,1034.625 413.125,1034.8125 C412.6719,1035.2969 412.6719,1035.2969 412.4844,1035.3906 C412.0625,1035.6563 411.375,1035.7813 410.6094,1035.7813 C408.5625,1035.7813 407.2656,1034.6875 407.2656,1032.9844 L407.2656,1031.8906 C407.2656,1030.1094 408.5156,1028.7969 410.25,1028.7969 C410.8281,1028.7969 411.4375,1028.9531 411.9063,1029.2031 C412.3906,1029.4844 412.5625,1029.7031 412.6563,1030.1094 C412.7188,1030.5156 412.75,1030.6406 412.8906,1030.7656 C413.0313,1030.9063 413.2656,1031.0156 413.4844,1031.0156 C413.75,1031.0156 414.0156,1030.875 414.1875,1030.6563 C414.2969,1030.5 414.3281,1030.3125 414.3281,1029.8906 L414.3281,1028.4688 C414.3281,1028.0313 414.3125,1027.9063 414.2188,1027.75 C414.0625,1027.4844 413.7813,1027.3438 413.4844,1027.3438 C413.1875,1027.3438 412.9844,1027.4375 412.7656,1027.75 L412.5938,1027.6719 Z "/><text fill="#000000" font-family="sans-serif" font-size="12" lengthAdjust="spacingAndGlyphs" textLength="59" x="430.75" y="1036.1543">ErrorView</text><line style="stroke: #A80036; stroke-width: 1.5;" x1="364" x2="524" y1="1048" y2="1048"/><rect fill="none" height="6" style="stroke: #C82930; stroke-width: 1.0;" width="6" x="371" y="1056"/><text fill="#000000" font-family="sans-serif" font-size="11" lengthAdjust="spacingAndGlyphs" text-decoration="underline" textLength="112" x="383" y="1062.2104">MESSAGES: String[]</text><rect fill="none" height="6" style="stroke: #C82930; stroke-width: 1.0;" width="6" x="371" y="1068.8047"/><text fill="#000000" font-family="sans-serif" font-size="11" lengthAdjust="spacingAndGlyphs" textLength="60" x="383" y="1075.0151">error: Error</text><line style="stroke: #A80036; stroke-width: 1.5;" x1="364" x2="524" y1="1081.6094" y2="1081.6094"/><polygon fill="#4177AF" points="374,1088.6094,370,1094.6094,378,1094.6094" style="stroke: #1963A0; stroke-width: 1.0;"/><text fill="#000000" font-family="sans-serif" font-size="11" lengthAdjust="spacingAndGlyphs" textLength="88" x="383" y="1095.8198">ErrorView(Error)</text><polygon fill="#4177AF" points="374,1101.4141,370,1107.4141,378,1107.4141" style="stroke: #1963A0; stroke-width: 1.0;"/><text fill="#000000" font-family="sans-serif" font-size="11" lengthAdjust="spacingAndGlyphs" textLength="136" x="383" y="1108.6245">read(String): Coordinate</text><!--MD5=[a099f42e85b2b91eaa31b246ba25a0b3]
class tictactoe.views.MachinePlayerView--><rect codeLine="23" fill="#FEFECE" filter="url(#f15503uaxci2d)" height="86.4141" id="tictactoe.views.MachinePlayerView" style="stroke: #A80036; stroke-width: 1.5;" width="250" x="98" y="870"/><ellipse cx="161.75" cy="886" fill="#ADD1B2" rx="11" ry="11" style="stroke: #A80036; stroke-width: 1.0;"/><path d="M164.0938,881.6719 C163.1563,881.2344 162.5625,881.0938 161.6875,881.0938 C159.0625,881.0938 157.0625,883.1719 157.0625,885.8906 L157.0625,887.0156 C157.0625,889.5938 159.1719,891.4844 162.0625,891.4844 C163.2813,891.4844 164.4375,891.1875 165.1875,890.6406 C165.7656,890.2344 166.0938,889.7813 166.0938,889.3906 C166.0938,888.9375 165.7031,888.5469 165.2344,888.5469 C165.0156,888.5469 164.8125,888.625 164.625,888.8125 C164.1719,889.2969 164.1719,889.2969 163.9844,889.3906 C163.5625,889.6563 162.875,889.7813 162.1094,889.7813 C160.0625,889.7813 158.7656,888.6875 158.7656,886.9844 L158.7656,885.8906 C158.7656,884.1094 160.0156,882.7969 161.75,882.7969 C162.3281,882.7969 162.9375,882.9531 163.4063,883.2031 C163.8906,883.4844 164.0625,883.7031 164.1563,884.1094 C164.2188,884.5156 164.25,884.6406 164.3906,884.7656 C164.5313,884.9063 164.7656,885.0156 164.9844,885.0156 C165.25,885.0156 165.5156,884.875 165.6875,884.6563 C165.7969,884.5 165.8281,884.3125 165.8281,883.8906 L165.8281,882.4688 C165.8281,882.0313 165.8125,881.9063 165.7188,881.75 C165.5625,881.4844 165.2813,881.3438 164.9844,881.3438 C164.6875,881.3438 164.4844,881.4375 164.2656,881.75 L164.0938,881.6719 Z "/><text fill="#000000" font-family="sans-serif" font-size="12" lengthAdjust="spacingAndGlyphs" textLength="114" x="182.25" y="890.1543">MachinePlayerView</text><line style="stroke: #A80036; stroke-width: 1.5;" x1="99" x2="347" y1="902" y2="902"/><line style="stroke: #A80036; stroke-width: 1.5;" x1="99" x2="347" y1="910" y2="910"/><polygon fill="#4177AF" points="109,917,105,923,113,923" style="stroke: #1963A0; stroke-width: 1.0;"/><text fill="#000000" font-family="sans-serif" font-size="11" lengthAdjust="spacingAndGlyphs" textLength="153" x="118" y="924.2104">MachinePlayerView(Player)</text><polygon fill="#4177AF" points="109,929.8047,105,935.8047,113,935.8047" style="stroke: #1963A0; stroke-width: 1.0;"/><text fill="#000000" font-family="sans-serif" font-size="11" lengthAdjust="spacingAndGlyphs" textLength="196" x="118" y="937.0151">readCoordinateToPut(): Coordinate</text><polygon fill="#4177AF" points="109,942.6094,105,948.6094,113,948.6094" style="stroke: #1963A0; stroke-width: 1.0;"/><text fill="#000000" font-family="sans-serif" font-size="11" lengthAdjust="spacingAndGlyphs" textLength="224" x="118" y="949.8198">readCoordinatesToMove(): Coordinate[]</text><!--MD5=[2ae15d20e7f22fd333327d3852982126]
class tictactoe.views.PlayerView--><rect codeLine="50" fill="#FEFECE" filter="url(#f15503uaxci2d)" height="137.6328" id="tictactoe.views.PlayerView" style="stroke: #A80036; stroke-width: 1.5;" width="373" x="32.5" y="372"/><ellipse cx="182.25" cy="388" fill="#ADD1B2" rx="11" ry="11" style="stroke: #A80036; stroke-width: 1.0;"/><path d="M184.5938,383.6719 C183.6563,383.2344 183.0625,383.0938 182.1875,383.0938 C179.5625,383.0938 177.5625,385.1719 177.5625,387.8906 L177.5625,389.0156 C177.5625,391.5938 179.6719,393.4844 182.5625,393.4844 C183.7813,393.4844 184.9375,393.1875 185.6875,392.6406 C186.2656,392.2344 186.5938,391.7813 186.5938,391.3906 C186.5938,390.9375 186.2031,390.5469 185.7344,390.5469 C185.5156,390.5469 185.3125,390.625 185.125,390.8125 C184.6719,391.2969 184.6719,391.2969 184.4844,391.3906 C184.0625,391.6563 183.375,391.7813 182.6094,391.7813 C180.5625,391.7813 179.2656,390.6875 179.2656,388.9844 L179.2656,387.8906 C179.2656,386.1094 180.5156,384.7969 182.25,384.7969 C182.8281,384.7969 183.4375,384.9531 183.9063,385.2031 C184.3906,385.4844 184.5625,385.7031 184.6563,386.1094 C184.7188,386.5156 184.75,386.6406 184.8906,386.7656 C185.0313,386.9063 185.2656,387.0156 185.4844,387.0156 C185.75,387.0156 186.0156,386.875 186.1875,386.6563 C186.2969,386.5 186.3281,386.3125 186.3281,385.8906 L186.3281,384.4688 C186.3281,384.0313 186.3125,383.9063 186.2188,383.75 C186.0625,383.4844 185.7813,383.3438 185.4844,383.3438 C185.1875,383.3438 184.9844,383.4375 184.7656,383.75 L184.5938,383.6719 Z "/><text fill="#000000" font-family="sans-serif" font-size="12" lengthAdjust="spacingAndGlyphs" textLength="65" x="202.75" y="392.1543">PlayerView</text><line style="stroke: #A80036; stroke-width: 1.5;" x1="33.5" x2="404.5" y1="404" y2="404"/><polygon fill="none" points="43.5,410,47.5,414,43.5,418,39.5,414" style="stroke: #B38D22; stroke-width: 1.0;"/><text fill="#000000" font-family="sans-serif" font-size="11" lengthAdjust="spacingAndGlyphs" textLength="78" x="52.5" y="418.2104">player: Player</text><line style="stroke: #A80036; stroke-width: 1.5;" x1="33.5" x2="404.5" y1="424.8047" y2="424.8047"/><polygon fill="#4177AF" points="43.5,431.8047,39.5,437.8047,47.5,437.8047" style="stroke: #1963A0; stroke-width: 1.0;"/><text fill="#000000" font-family="sans-serif" font-size="11" lengthAdjust="spacingAndGlyphs" textLength="106" x="52.5" y="439.0151">PlayerView(Player)</text><polygon fill="#4177AF" points="43.5,444.6094,39.5,450.6094,47.5,450.6094" style="stroke: #1963A0; stroke-width: 1.0;"/><text fill="#000000" font-family="sans-serif" font-size="11" font-style="italic" lengthAdjust="spacingAndGlyphs" textLength="198" x="52.5" y="451.8198">readCoordinateToPut(): Coordinate</text><polygon fill="#4177AF" points="43.5,457.4141,39.5,463.4141,47.5,463.4141" style="stroke: #1963A0; stroke-width: 1.0;"/><text fill="#000000" font-family="sans-serif" font-size="11" font-style="italic" lengthAdjust="spacingAndGlyphs" textLength="224" x="52.5" y="464.6245">readCoordinatesToMove(): Coordinate[]</text><polygon fill="#4177AF" points="43.5,470.2188,39.5,476.2188,47.5,476.2188" style="stroke: #1963A0; stroke-width: 1.0;"/><text fill="#000000" font-family="sans-serif" font-size="11" lengthAdjust="spacingAndGlyphs" textLength="227" x="52.5" y="477.4292">getPutCoordinateError(Coordinate): Error</text><polygon fill="#4177AF" points="43.5,483.0234,39.5,489.0234,47.5,489.0234" style="stroke: #1963A0; stroke-width: 1.0;"/><text fill="#000000" font-family="sans-serif" font-size="11" lengthAdjust="spacingAndGlyphs" textLength="274" x="52.5" y="490.2339">getMoveOriginCoordinateError(Coordinate): Error</text><polygon fill="#4177AF" points="43.5,495.8281,39.5,501.8281,47.5,501.8281" style="stroke: #1963A0; stroke-width: 1.0;"/><text fill="#000000" font-family="sans-serif" font-size="11" lengthAdjust="spacingAndGlyphs" textLength="347" x="52.5" y="503.0386">getMoveTargetCoordinateError(Coordinate, Coordinate): Error</text><!--MD5=[ac4b0e0875a820e87662d988d53b2072]
class tictactoe.views.MessageView--><rect codeLine="31" fill="#FEFECE" filter="url(#f15503uaxci2d)" height="240.0703" id="tictactoe.views.MessageView" style="stroke: #A80036; stroke-width: 1.5;" width="262" x="723" y="570"/><ellipse cx="807.75" cy="586" fill="#ADD1B2" rx="11" ry="11" style="stroke: #A80036; stroke-width: 1.0;"/><path d="M810.0938,581.6719 C809.1563,581.2344 808.5625,581.0938 807.6875,581.0938 C805.0625,581.0938 803.0625,583.1719 803.0625,585.8906 L803.0625,587.0156 C803.0625,589.5938 805.1719,591.4844 808.0625,591.4844 C809.2813,591.4844 810.4375,591.1875 811.1875,590.6406 C811.7656,590.2344 812.0938,589.7813 812.0938,589.3906 C812.0938,588.9375 811.7031,588.5469 811.2344,588.5469 C811.0156,588.5469 810.8125,588.625 810.625,588.8125 C810.1719,589.2969 810.1719,589.2969 809.9844,589.3906 C809.5625,589.6563 808.875,589.7813 808.1094,589.7813 C806.0625,589.7813 804.7656,588.6875 804.7656,586.9844 L804.7656,585.8906 C804.7656,584.1094 806.0156,582.7969 807.75,582.7969 C808.3281,582.7969 808.9375,582.9531 809.4063,583.2031 C809.8906,583.4844 810.0625,583.7031 810.1563,584.1094 C810.2188,584.5156 810.25,584.6406 810.3906,584.7656 C810.5313,584.9063 810.7656,585.0156 810.9844,585.0156 C811.25,585.0156 811.5156,584.875 811.6875,584.6563 C811.7969,584.5 811.8281,584.3125 811.8281,583.8906 L811.8281,582.4688 C811.8281,582.0313 811.8125,581.9063 811.7188,581.75 C811.5625,581.4844 811.2813,581.3438 810.9844,581.3438 C810.6875,581.3438 810.4844,581.4375 810.2656,581.75 L810.0938,581.6719 Z "/><text fill="#000000" font-family="sans-serif" font-size="12" lengthAdjust="spacingAndGlyphs" textLength="84" x="828.25" y="590.1543">MessageView</text><line style="stroke: #A80036; stroke-width: 1.5;" x1="724" x2="984" y1="602" y2="602"/><ellipse cx="734" cy="613" fill="none" rx="3" ry="3" style="stroke: #038048; stroke-width: 1.0;"/><text fill="#000000" font-family="sans-serif" font-size="11" lengthAdjust="spacingAndGlyphs" textLength="153" x="743" y="616.2104">LINE_BREAK: MessageView</text><ellipse cx="734" cy="625.8047" fill="none" rx="3" ry="3" style="stroke: #038048; stroke-width: 1.0;"/><text fill="#000000" font-family="sans-serif" font-size="11" lengthAdjust="spacingAndGlyphs" textLength="122" x="743" y="629.0151">EMPTY: MessageView</text><ellipse cx="734" cy="638.6094" fill="none" rx="3" ry="3" style="stroke: #038048; stroke-width: 1.0;"/><text fill="#000000" font-family="sans-serif" font-size="11" lengthAdjust="spacingAndGlyphs" textLength="153" x="743" y="641.8198">SEPARATOR: MessageView</text><ellipse cx="734" cy="651.4141" fill="none" rx="3" ry="3" style="stroke: #038048; stroke-width: 1.0;"/><text fill="#000000" font-family="sans-serif" font-size="11" lengthAdjust="spacingAndGlyphs" textLength="236" x="743" y="654.6245">VERTICAL_LINE_CENTERED: MessageView</text><ellipse cx="734" cy="664.2188" fill="none" rx="3" ry="3" style="stroke: #038048; stroke-width: 1.0;"/><text fill="#000000" font-family="sans-serif" font-size="11" lengthAdjust="spacingAndGlyphs" textLength="202" x="743" y="667.4292">VERTICAL_LINE_LEFT: MessageView</text><ellipse cx="734" cy="677.0234" fill="none" rx="3" ry="3" style="stroke: #038048; stroke-width: 1.0;"/><text fill="#000000" font-family="sans-serif" font-size="11" lengthAdjust="spacingAndGlyphs" textLength="155" x="743" y="680.2339">PLAYER_WIN: MessageView</text><ellipse cx="734" cy="689.8281" fill="none" rx="3" ry="3" style="stroke: #038048; stroke-width: 1.0;"/><text fill="#000000" font-family="sans-serif" font-size="11" lengthAdjust="spacingAndGlyphs" textLength="162" x="743" y="693.0386">START_GAME: MessageView</text><ellipse cx="734" cy="702.6328" fill="none" rx="3" ry="3" style="stroke: #038048; stroke-width: 1.0;"/><text fill="#000000" font-family="sans-serif" font-size="11" lengthAdjust="spacingAndGlyphs" textLength="182" x="743" y="705.8433">CHOOSE_PLAYER: MessageView</text><ellipse cx="734" cy="715.4375" fill="none" rx="3" ry="3" style="stroke: #038048; stroke-width: 1.0;"/><text fill="#000000" font-family="sans-serif" font-size="11" lengthAdjust="spacingAndGlyphs" textLength="132" x="743" y="718.6479">RESUME: MessageView</text><rect fill="none" height="6" style="stroke: #C82930; stroke-width: 1.0;" width="6" x="731" y="725.2422"/><text fill="#000000" font-family="sans-serif" font-size="11" lengthAdjust="spacingAndGlyphs" textLength="93" x="743" y="731.4526">message: String</text><rect fill="none" height="6" style="stroke: #C82930; stroke-width: 1.0;" width="6" x="731" y="738.0469"/><text fill="#000000" font-family="sans-serif" font-size="11" lengthAdjust="spacingAndGlyphs" textLength="97" x="743" y="744.2573">console: Console</text><line style="stroke: #A80036; stroke-width: 1.5;" x1="724" x2="984" y1="750.8516" y2="750.8516"/><rect fill="#F24D5C" height="6" style="stroke: #C82930; stroke-width: 1.0;" width="6" x="731" y="758.8516"/><text fill="#000000" font-family="sans-serif" font-size="11" lengthAdjust="spacingAndGlyphs" textLength="120" x="743" y="765.062">MessageView(String)</text><polygon fill="#4177AF" points="734,770.6563,730,776.6563,738,776.6563" style="stroke: #1963A0; stroke-width: 1.0;"/><text fill="#000000" font-family="sans-serif" font-size="11" lengthAdjust="spacingAndGlyphs" textLength="118" x="743" y="777.8667">getMessage(): String</text><polygon fill="#4177AF" points="734,783.4609,730,789.4609,738,789.4609" style="stroke: #1963A0; stroke-width: 1.0;"/><text fill="#000000" font-family="sans-serif" font-size="11" lengthAdjust="spacingAndGlyphs" textLength="67" x="743" y="790.6714">write(): void</text><polygon fill="#4177AF" points="734,796.2656,730,802.2656,738,802.2656" style="stroke: #1963A0; stroke-width: 1.0;"/><text fill="#000000" font-family="sans-serif" font-size="11" lengthAdjust="spacingAndGlyphs" textLength="77" x="743" y="803.4761">writeln(): void</text><!--MD5=[d0ec73423b3bfd3954fbf7197d3af4d8]
class tictactoe.views.PlayView--><rect codeLine="60" fill="#FEFECE" filter="url(#f15503uaxci2d)" height="86.4141" id="tictactoe.views.PlayView" style="stroke: #A80036; stroke-width: 1.5;" width="130" x="495" y="226"/><ellipse cx="530.7" cy="242" fill="#ADD1B2" rx="11" ry="11" style="stroke: #A80036; stroke-width: 1.0;"/><path d="M533.0438,237.6719 C532.1063,237.2344 531.5125,237.0938 530.6375,237.0938 C528.0125,237.0938 526.0125,239.1719 526.0125,241.8906 L526.0125,243.0156 C526.0125,245.5938 528.1219,247.4844 531.0125,247.4844 C532.2313,247.4844 533.3875,247.1875 534.1375,246.6406 C534.7156,246.2344 535.0438,245.7813 535.0438,245.3906 C535.0438,244.9375 534.6531,244.5469 534.1844,244.5469 C533.9656,244.5469 533.7625,244.625 533.575,244.8125 C533.1219,245.2969 533.1219,245.2969 532.9344,245.3906 C532.5125,245.6563 531.825,245.7813 531.0594,245.7813 C529.0125,245.7813 527.7156,244.6875 527.7156,242.9844 L527.7156,241.8906 C527.7156,240.1094 528.9656,238.7969 530.7,238.7969 C531.2781,238.7969 531.8875,238.9531 532.3563,239.2031 C532.8406,239.4844 533.0125,239.7031 533.1063,240.1094 C533.1688,240.5156 533.2,240.6406 533.3406,240.7656 C533.4813,240.9063 533.7156,241.0156 533.9344,241.0156 C534.2,241.0156 534.4656,240.875 534.6375,240.6563 C534.7469,240.5 534.7781,240.3125 534.7781,239.8906 L534.7781,238.4688 C534.7781,238.0313 534.7625,237.9063 534.6688,237.75 C534.5125,237.4844 534.2313,237.3438 533.9344,237.3438 C533.6375,237.3438 533.4344,237.4375 533.2156,237.75 L533.0438,237.6719 Z "/><text fill="#000000" font-family="sans-serif" font-size="12" lengthAdjust="spacingAndGlyphs" textLength="52" x="549.3" y="246.1543">PlayView</text><line style="stroke: #A80036; stroke-width: 1.5;" x1="496" x2="624" y1="258" y2="258"/><polygon fill="none" points="506,265,502,271,510,271" style="stroke: #1963A0; stroke-width: 1.0;"/><text fill="#000000" font-family="sans-serif" font-size="11" lengthAdjust="spacingAndGlyphs" textLength="75" x="515" y="272.2104">game: Game</text><line style="stroke: #A80036; stroke-width: 1.5;" x1="496" x2="624" y1="278.8047" y2="278.8047"/><polygon fill="#4177AF" points="506,285.8047,502,291.8047,510,291.8047" style="stroke: #1963A0; stroke-width: 1.0;"/><text fill="#000000" font-family="sans-serif" font-size="11" lengthAdjust="spacingAndGlyphs" textLength="94" x="515" y="293.0151">PlayView(Game)</text><polygon fill="#4177AF" points="506,298.6094,502,304.6094,510,304.6094" style="stroke: #1963A0; stroke-width: 1.0;"/><text fill="#000000" font-family="sans-serif" font-size="11" lengthAdjust="spacingAndGlyphs" textLength="104" x="515" y="305.8198">interact(): boolean</text><!--MD5=[973b15c09f519f065f4b28972f0c8773]
class tictactoe.views.ResultView--><rect codeLine="70" fill="#FEFECE" filter="url(#f15503uaxci2d)" height="60.8047" id="tictactoe.views.ResultView" style="stroke: #A80036; stroke-width: 1.5;" width="117" x="440.5" y="410.5"/><ellipse cx="464.5" cy="426.5" fill="#ADD1B2" rx="11" ry="11" style="stroke: #A80036; stroke-width: 1.0;"/><path d="M466.8438,422.1719 C465.9063,421.7344 465.3125,421.5938 464.4375,421.5938 C461.8125,421.5938 459.8125,423.6719 459.8125,426.3906 L459.8125,427.5156 C459.8125,430.0938 461.9219,431.9844 464.8125,431.9844 C466.0313,431.9844 467.1875,431.6875 467.9375,431.1406 C468.5156,430.7344 468.8438,430.2813 468.8438,429.8906 C468.8438,429.4375 468.4531,429.0469 467.9844,429.0469 C467.7656,429.0469 467.5625,429.125 467.375,429.3125 C466.9219,429.7969 466.9219,429.7969 466.7344,429.8906 C466.3125,430.1563 465.625,430.2813 464.8594,430.2813 C462.8125,430.2813 461.5156,429.1875 461.5156,427.4844 L461.5156,426.3906 C461.5156,424.6094 462.7656,423.2969 464.5,423.2969 C465.0781,423.2969 465.6875,423.4531 466.1563,423.7031 C466.6406,423.9844 466.8125,424.2031 466.9063,424.6094 C466.9688,425.0156 467,425.1406 467.1406,425.2656 C467.2813,425.4063 467.5156,425.5156 467.7344,425.5156 C468,425.5156 468.2656,425.375 468.4375,425.1563 C468.5469,425 468.5781,424.8125 468.5781,424.3906 L468.5781,422.9688 C468.5781,422.5313 468.5625,422.4063 468.4688,422.25 C468.3125,421.9844 468.0313,421.8438 467.7344,421.8438 C467.4375,421.8438 467.2344,421.9375 467.0156,422.25 L466.8438,422.1719 Z "/><text fill="#000000" font-family="sans-serif" font-size="12" lengthAdjust="spacingAndGlyphs" textLength="65" x="480.5" y="430.6543">ResultView</text><line style="stroke: #A80036; stroke-width: 1.5;" x1="441.5" x2="556.5" y1="442.5" y2="442.5"/><line style="stroke: #A80036; stroke-width: 1.5;" x1="441.5" x2="556.5" y1="450.5" y2="450.5"/><polygon fill="#4177AF" points="451.5,457.5,447.5,463.5,455.5,463.5" style="stroke: #1963A0; stroke-width: 1.0;"/><text fill="#000000" font-family="sans-serif" font-size="11" lengthAdjust="spacingAndGlyphs" textLength="91" x="460.5" y="464.7104">writeln(int): void</text><!--MD5=[24b5a9b67986ee811680be72c33ee9c1]
class tictactoe.views.TokenView--><rect codeLine="93" fill="#FEFECE" filter="url(#f15503uaxci2d)" height="86.4141" id="tictactoe.views.TokenView" style="stroke: #A80036; stroke-width: 1.5;" width="132" x="554" y="647"/><ellipse cx="584.3" cy="663" fill="#ADD1B2" rx="11" ry="11" style="stroke: #A80036; stroke-width: 1.0;"/><path d="M586.6438,658.6719 C585.7063,658.2344 585.1125,658.0938 584.2375,658.0938 C581.6125,658.0938 579.6125,660.1719 579.6125,662.8906 L579.6125,664.0156 C579.6125,666.5938 581.7219,668.4844 584.6125,668.4844 C585.8313,668.4844 586.9875,668.1875 587.7375,667.6406 C588.3156,667.2344 588.6438,666.7813 588.6438,666.3906 C588.6438,665.9375 588.2531,665.5469 587.7844,665.5469 C587.5656,665.5469 587.3625,665.625 587.175,665.8125 C586.7219,666.2969 586.7219,666.2969 586.5344,666.3906 C586.1125,666.6563 585.425,666.7813 584.6594,666.7813 C582.6125,666.7813 581.3156,665.6875 581.3156,663.9844 L581.3156,662.8906 C581.3156,661.1094 582.5656,659.7969 584.3,659.7969 C584.8781,659.7969 585.4875,659.9531 585.9563,660.2031 C586.4406,660.4844 586.6125,660.7031 586.7063,661.1094 C586.7688,661.5156 586.8,661.6406 586.9406,661.7656 C587.0813,661.9063 587.3156,662.0156 587.5344,662.0156 C587.8,662.0156 588.0656,661.875 588.2375,661.6563 C588.3469,661.5 588.3781,661.3125 588.3781,660.8906 L588.3781,659.4688 C588.3781,659.0313 588.3625,658.9063 588.2688,658.75 C588.1125,658.4844 587.8313,658.3438 587.5344,658.3438 C587.2375,658.3438 587.0344,658.4375 586.8156,658.75 L586.6438,658.6719 Z "/><text fill="#000000" font-family="sans-serif" font-size="12" lengthAdjust="spacingAndGlyphs" textLength="66" x="601.7" y="667.1543">TokenView</text><line style="stroke: #A80036; stroke-width: 1.5;" x1="555" x2="685" y1="679" y2="679"/><polygon fill="none" points="565,686,561,692,569,692" style="stroke: #1963A0; stroke-width: 1.0;"/><text fill="#000000" font-family="sans-serif" font-size="11" lengthAdjust="spacingAndGlyphs" textLength="74" x="574" y="693.2104">token: Token</text><line style="stroke: #A80036; stroke-width: 1.5;" x1="555" x2="685" y1="699.8047" y2="699.8047"/><polygon fill="#4177AF" points="565,706.8047,561,712.8047,569,712.8047" style="stroke: #1963A0; stroke-width: 1.0;"/><text fill="#000000" font-family="sans-serif" font-size="11" lengthAdjust="spacingAndGlyphs" textLength="106" x="574" y="714.0151">TokenView(Token)</text><polygon fill="#4177AF" points="565,719.6094,561,725.6094,569,725.6094" style="stroke: #1963A0; stroke-width: 1.0;"/><text fill="#000000" font-family="sans-serif" font-size="11" lengthAdjust="spacingAndGlyphs" textLength="67" x="574" y="726.8198">write(): void</text><!--MD5=[137f690b5283483823808e0278817ad3]
class tictactoe.views.ResumeView--><rect codeLine="76" fill="#FEFECE" filter="url(#f15503uaxci2d)" height="73.6094" id="tictactoe.views.ResumeView" style="stroke: #A80036; stroke-width: 1.5;" width="165" x="819.5" y="232"/><ellipse cx="859.7" cy="248" fill="#ADD1B2" rx="11" ry="11" style="stroke: #A80036; stroke-width: 1.0;"/><path d="M862.0438,243.6719 C861.1063,243.2344 860.5125,243.0938 859.6375,243.0938 C857.0125,243.0938 855.0125,245.1719 855.0125,247.8906 L855.0125,249.0156 C855.0125,251.5938 857.1219,253.4844 860.0125,253.4844 C861.2313,253.4844 862.3875,253.1875 863.1375,252.6406 C863.7156,252.2344 864.0438,251.7813 864.0438,251.3906 C864.0438,250.9375 863.6531,250.5469 863.1844,250.5469 C862.9656,250.5469 862.7625,250.625 862.575,250.8125 C862.1219,251.2969 862.1219,251.2969 861.9344,251.3906 C861.5125,251.6563 860.825,251.7813 860.0594,251.7813 C858.0125,251.7813 856.7156,250.6875 856.7156,248.9844 L856.7156,247.8906 C856.7156,246.1094 857.9656,244.7969 859.7,244.7969 C860.2781,244.7969 860.8875,244.9531 861.3563,245.2031 C861.8406,245.4844 862.0125,245.7031 862.1063,246.1094 C862.1688,246.5156 862.2,246.6406 862.3406,246.7656 C862.4813,246.9063 862.7156,247.0156 862.9344,247.0156 C863.2,247.0156 863.4656,246.875 863.6375,246.6563 C863.7469,246.5 863.7781,246.3125 863.7781,245.8906 L863.7781,244.4688 C863.7781,244.0313 863.7625,243.9063 863.6688,243.75 C863.5125,243.4844 863.2313,243.3438 862.9344,243.3438 C862.6375,243.3438 862.4344,243.4375 862.2156,243.75 L862.0438,243.6719 Z "/><text fill="#000000" font-family="sans-serif" font-size="12" lengthAdjust="spacingAndGlyphs" textLength="77" x="879.3" y="252.1543">ResumeView</text><line style="stroke: #A80036; stroke-width: 1.5;" x1="820.5" x2="983.5" y1="264" y2="264"/><line style="stroke: #A80036; stroke-width: 1.5;" x1="820.5" x2="983.5" y1="272" y2="272"/><polygon fill="#4177AF" points="830.5,279,826.5,285,834.5,285" style="stroke: #1963A0; stroke-width: 1.0;"/><text fill="#000000" font-family="sans-serif" font-size="11" lengthAdjust="spacingAndGlyphs" textLength="83" x="839.5" y="286.2104">ResumeView()</text><polygon fill="#4177AF" points="830.5,291.8047,826.5,297.8047,834.5,297.8047" style="stroke: #1963A0; stroke-width: 1.0;"/><text fill="#000000" font-family="sans-serif" font-size="11" lengthAdjust="spacingAndGlyphs" textLength="139" x="839.5" y="299.0151">interact(Game): boolean</text><!--MD5=[8b95091471898ea6b0cbbbb1cd164db3]
class tictactoe.views.Message--><rect fill="#FEFECE" filter="url(#f15503uaxci2d)" height="48" id="tictactoe.views.Message" style="stroke: #A80036; stroke-width: 1.5;" width="87" x="897.5" y="417"/><ellipse cx="912.5" cy="433" fill="#ADD1B2" rx="11" ry="11" style="stroke: #A80036; stroke-width: 1.0;"/><path d="M914.8438,428.6719 C913.9063,428.2344 913.3125,428.0938 912.4375,428.0938 C909.8125,428.0938 907.8125,430.1719 907.8125,432.8906 L907.8125,434.0156 C907.8125,436.5938 909.9219,438.4844 912.8125,438.4844 C914.0313,438.4844 915.1875,438.1875 915.9375,437.6406 C916.5156,437.2344 916.8438,436.7813 916.8438,436.3906 C916.8438,435.9375 916.4531,435.5469 915.9844,435.5469 C915.7656,435.5469 915.5625,435.625 915.375,435.8125 C914.9219,436.2969 914.9219,436.2969 914.7344,436.3906 C914.3125,436.6563 913.625,436.7813 912.8594,436.7813 C910.8125,436.7813 909.5156,435.6875 909.5156,433.9844 L909.5156,432.8906 C909.5156,431.1094 910.7656,429.7969 912.5,429.7969 C913.0781,429.7969 913.6875,429.9531 914.1563,430.2031 C914.6406,430.4844 914.8125,430.7031 914.9063,431.1094 C914.9688,431.5156 915,431.6406 915.1406,431.7656 C915.2813,431.9063 915.5156,432.0156 915.7344,432.0156 C916,432.0156 916.2656,431.875 916.4375,431.6563 C916.5469,431.5 916.5781,431.3125 916.5781,430.8906 L916.5781,429.4688 C916.5781,429.0313 916.5625,428.9063 916.4688,428.75 C916.3125,428.4844 916.0313,428.3438 915.7344,428.3438 C915.4375,428.3438 915.2344,428.4375 915.0156,428.75 L914.8438,428.6719 Z "/><text fill="#000000" font-family="sans-serif" font-size="12" lengthAdjust="spacingAndGlyphs" textLength="55" x="926.5" y="437.1543">Message</text><line style="stroke: #A80036; stroke-width: 1.5;" x1="898.5" x2="983.5" y1="449" y2="449"/><line style="stroke: #A80036; stroke-width: 1.5;" x1="898.5" x2="983.5" y1="457" y2="457"/><!--MD5=[50a4c98617440bec164bf073e81d587d]
class tictactoe.views.StartView--><rect codeLine="83" fill="#FEFECE" filter="url(#f15503uaxci2d)" height="86.4141" id="tictactoe.views.StartView" style="stroke: #A80036; stroke-width: 1.5;" width="124" x="660" y="226"/><ellipse cx="690.75" cy="242" fill="#ADD1B2" rx="11" ry="11" style="stroke: #A80036; stroke-width: 1.0;"/><path d="M693.0938,237.6719 C692.1563,237.2344 691.5625,237.0938 690.6875,237.0938 C688.0625,237.0938 686.0625,239.1719 686.0625,241.8906 L686.0625,243.0156 C686.0625,245.5938 688.1719,247.4844 691.0625,247.4844 C692.2813,247.4844 693.4375,247.1875 694.1875,246.6406 C694.7656,246.2344 695.0938,245.7813 695.0938,245.3906 C695.0938,244.9375 694.7031,244.5469 694.2344,244.5469 C694.0156,244.5469 693.8125,244.625 693.625,244.8125 C693.1719,245.2969 693.1719,245.2969 692.9844,245.3906 C692.5625,245.6563 691.875,245.7813 691.1094,245.7813 C689.0625,245.7813 687.7656,244.6875 687.7656,242.9844 L687.7656,241.8906 C687.7656,240.1094 689.0156,238.7969 690.75,238.7969 C691.3281,238.7969 691.9375,238.9531 692.4063,239.2031 C692.8906,239.4844 693.0625,239.7031 693.1563,240.1094 C693.2188,240.5156 693.25,240.6406 693.3906,240.7656 C693.5313,240.9063 693.7656,241.0156 693.9844,241.0156 C694.25,241.0156 694.5156,240.875 694.6875,240.6563 C694.7969,240.5 694.8281,240.3125 694.8281,239.8906 L694.8281,238.4688 C694.8281,238.0313 694.8125,237.9063 694.7188,237.75 C694.5625,237.4844 694.2813,237.3438 693.9844,237.3438 C693.6875,237.3438 693.4844,237.4375 693.2656,237.75 L693.0938,237.6719 Z "/><text fill="#000000" font-family="sans-serif" font-size="12" lengthAdjust="spacingAndGlyphs" textLength="57" x="708.25" y="246.1543">StartView</text><line style="stroke: #A80036; stroke-width: 1.5;" x1="661" x2="783" y1="258" y2="258"/><polygon fill="none" points="671,265,667,271,675,271" style="stroke: #1963A0; stroke-width: 1.0;"/><text fill="#000000" font-family="sans-serif" font-size="11" lengthAdjust="spacingAndGlyphs" textLength="75" x="680" y="272.2104">game: Game</text><line style="stroke: #A80036; stroke-width: 1.5;" x1="661" x2="783" y1="278.8047" y2="278.8047"/><polygon fill="#4177AF" points="671,285.8047,667,291.8047,675,291.8047" style="stroke: #1963A0; stroke-width: 1.0;"/><text fill="#000000" font-family="sans-serif" font-size="11" lengthAdjust="spacingAndGlyphs" textLength="98" x="680" y="293.0151">StartView(Game)</text><polygon fill="#4177AF" points="671,298.6094,667,304.6094,675,304.6094" style="stroke: #1963A0; stroke-width: 1.0;"/><text fill="#000000" font-family="sans-serif" font-size="11" lengthAdjust="spacingAndGlyphs" textLength="82" x="680" y="305.8198">interact(): void</text><!--MD5=[4e5fca12f01c5426c188915da515377f]
class tictactoe.views.UserPlayerView--><rect codeLine="100" fill="#FEFECE" filter="url(#f15503uaxci2d)" height="112.0234" id="tictactoe.views.UserPlayerView" style="stroke: #A80036; stroke-width: 1.5;" width="258" x="257" y="634"/><ellipse cx="334.75" cy="650" fill="#ADD1B2" rx="11" ry="11" style="stroke: #A80036; stroke-width: 1.0;"/><path d="M337.0938,645.6719 C336.1563,645.2344 335.5625,645.0938 334.6875,645.0938 C332.0625,645.0938 330.0625,647.1719 330.0625,649.8906 L330.0625,651.0156 C330.0625,653.5938 332.1719,655.4844 335.0625,655.4844 C336.2813,655.4844 337.4375,655.1875 338.1875,654.6406 C338.7656,654.2344 339.0938,653.7813 339.0938,653.3906 C339.0938,652.9375 338.7031,652.5469 338.2344,652.5469 C338.0156,652.5469 337.8125,652.625 337.625,652.8125 C337.1719,653.2969 337.1719,653.2969 336.9844,653.3906 C336.5625,653.6563 335.875,653.7813 335.1094,653.7813 C333.0625,653.7813 331.7656,652.6875 331.7656,650.9844 L331.7656,649.8906 C331.7656,648.1094 333.0156,646.7969 334.75,646.7969 C335.3281,646.7969 335.9375,646.9531 336.4063,647.2031 C336.8906,647.4844 337.0625,647.7031 337.1563,648.1094 C337.2188,648.5156 337.25,648.6406 337.3906,648.7656 C337.5313,648.9063 337.7656,649.0156 337.9844,649.0156 C338.25,649.0156 338.5156,648.875 338.6875,648.6563 C338.7969,648.5 338.8281,648.3125 338.8281,647.8906 L338.8281,646.4688 C338.8281,646.0313 338.8125,645.9063 338.7188,645.75 C338.5625,645.4844 338.2813,645.3438 337.9844,645.3438 C337.6875,645.3438 337.4844,645.4375 337.2656,645.75 L337.0938,645.6719 Z "/><text fill="#000000" font-family="sans-serif" font-size="12" lengthAdjust="spacingAndGlyphs" textLength="94" x="355.25" y="654.1543">UserPlayerView</text><line style="stroke: #A80036; stroke-width: 1.5;" x1="258" x2="514" y1="666" y2="666"/><polygon fill="none" points="268,673,264,679,272,679" style="stroke: #1963A0; stroke-width: 1.0;"/><text fill="#000000" font-family="sans-serif" font-size="11" lengthAdjust="spacingAndGlyphs" text-decoration="underline" textLength="206" x="277" y="680.2104">ENTER_COORDINATE_TO_PUT: String</text><polygon fill="none" points="268,685.8047,264,691.8047,272,691.8047" style="stroke: #1963A0; stroke-width: 1.0;"/><text fill="#000000" font-family="sans-serif" font-size="11" lengthAdjust="spacingAndGlyphs" text-decoration="underline" textLength="232" x="277" y="693.0151">ENTER_COORDINATE_TO_REMOVE: String</text><line style="stroke: #A80036; stroke-width: 1.5;" x1="258" x2="514" y1="699.6094" y2="699.6094"/><polygon fill="#4177AF" points="268,706.6094,264,712.6094,272,712.6094" style="stroke: #1963A0; stroke-width: 1.0;"/><text fill="#000000" font-family="sans-serif" font-size="11" lengthAdjust="spacingAndGlyphs" textLength="132" x="277" y="713.8198">UserPlayerView(Player)</text><polygon fill="#4177AF" points="268,719.4141,264,725.4141,272,725.4141" style="stroke: #1963A0; stroke-width: 1.0;"/><text fill="#000000" font-family="sans-serif" font-size="11" lengthAdjust="spacingAndGlyphs" textLength="196" x="277" y="726.6245">readCoordinateToPut(): Coordinate</text><polygon fill="#4177AF" points="268,732.2188,264,738.2188,272,738.2188" style="stroke: #1963A0; stroke-width: 1.0;"/><text fill="#000000" font-family="sans-serif" font-size="11" lengthAdjust="spacingAndGlyphs" textLength="224" x="277" y="739.4292">readCoordinatesToMove(): Coordinate[]</text><!--MD5=[015754420c4cdd9bacda884b3fa8c6ca]
class tictactoe.views.View--><rect codeLine="111" fill="#FEFECE" filter="url(#f15503uaxci2d)" height="124.8281" id="tictactoe.views.View" style="stroke: #A80036; stroke-width: 1.5;" width="180" x="718" y="41"/><ellipse cx="789.25" cy="57" fill="#ADD1B2" rx="11" ry="11" style="stroke: #A80036; stroke-width: 1.0;"/><path d="M791.5938,52.6719 C790.6563,52.2344 790.0625,52.0938 789.1875,52.0938 C786.5625,52.0938 784.5625,54.1719 784.5625,56.8906 L784.5625,58.0156 C784.5625,60.5938 786.6719,62.4844 789.5625,62.4844 C790.7813,62.4844 791.9375,62.1875 792.6875,61.6406 C793.2656,61.2344 793.5938,60.7813 793.5938,60.3906 C793.5938,59.9375 793.2031,59.5469 792.7344,59.5469 C792.5156,59.5469 792.3125,59.625 792.125,59.8125 C791.6719,60.2969 791.6719,60.2969 791.4844,60.3906 C791.0625,60.6563 790.375,60.7813 789.6094,60.7813 C787.5625,60.7813 786.2656,59.6875 786.2656,57.9844 L786.2656,56.8906 C786.2656,55.1094 787.5156,53.7969 789.25,53.7969 C789.8281,53.7969 790.4375,53.9531 790.9063,54.2031 C791.3906,54.4844 791.5625,54.7031 791.6563,55.1094 C791.7188,55.5156 791.75,55.6406 791.8906,55.7656 C792.0313,55.9063 792.2656,56.0156 792.4844,56.0156 C792.75,56.0156 793.0156,55.875 793.1875,55.6563 C793.2969,55.5 793.3281,55.3125 793.3281,54.8906 L793.3281,53.4688 C793.3281,53.0313 793.3125,52.9063 793.2188,52.75 C793.0625,52.4844 792.7813,52.3438 792.4844,52.3438 C792.1875,52.3438 791.9844,52.4375 791.7656,52.75 L791.5938,52.6719 Z "/><text fill="#000000" font-family="sans-serif" font-size="12" lengthAdjust="spacingAndGlyphs" textLength="29" x="809.75" y="61.1543">View</text><line style="stroke: #A80036; stroke-width: 1.5;" x1="719" x2="897" y1="73" y2="73"/><polygon fill="none" points="729,79,733,83,729,87,725,83" style="stroke: #B38D22; stroke-width: 1.0;"/><text fill="#000000" font-family="sans-serif" font-size="11" lengthAdjust="spacingAndGlyphs" textLength="75" x="738" y="87.2104">game: Game</text><rect fill="none" height="6" style="stroke: #C82930; stroke-width: 1.0;" width="6" x="726" y="93.8047"/><text fill="#000000" font-family="sans-serif" font-size="11" lengthAdjust="spacingAndGlyphs" textLength="115" x="738" y="100.0151">startView: StartView</text><rect fill="none" height="6" style="stroke: #C82930; stroke-width: 1.0;" width="6" x="726" y="106.6094"/><text fill="#000000" font-family="sans-serif" font-size="11" lengthAdjust="spacingAndGlyphs" textLength="110" x="738" y="112.8198">playView: PlayView</text><rect fill="none" height="6" style="stroke: #C82930; stroke-width: 1.0;" width="6" x="726" y="119.4141"/><text fill="#000000" font-family="sans-serif" font-size="11" lengthAdjust="spacingAndGlyphs" textLength="154" x="738" y="125.6245">resumeView: ResumeView</text><line style="stroke: #A80036; stroke-width: 1.5;" x1="719" x2="897" y1="132.2188" y2="132.2188"/><ellipse cx="729" cy="143.2188" fill="#84BE84" rx="3" ry="3" style="stroke: #038048; stroke-width: 1.0;"/><text fill="#000000" font-family="sans-serif" font-size="11" lengthAdjust="spacingAndGlyphs" textLength="71" x="738" y="146.4292">View(Game)</text><ellipse cx="729" cy="156.0234" fill="#84BE84" rx="3" ry="3" style="stroke: #038048; stroke-width: 1.0;"/><text fill="#000000" font-family="sans-serif" font-size="11" lengthAdjust="spacingAndGlyphs" textLength="82" x="738" y="159.2339">interact(): void</text><!--MD5=[2dcb8e10b6e8b78f41f52f48677e1ea3]
class utils.WithConsoleView--><rect fill="#FEFECE" filter="url(#f15503uaxci2d)" height="48" id="utils.WithConsoleView" style="stroke: #A80036; stroke-width: 1.5;" width="136" x="1306" y="666"/><ellipse cx="1321" cy="682" fill="#ADD1B2" rx="11" ry="11" style="stroke: #A80036; stroke-width: 1.0;"/><path d="M1323.3438,677.6719 C1322.4063,677.2344 1321.8125,677.0938 1320.9375,677.0938 C1318.3125,677.0938 1316.3125,679.1719 1316.3125,681.8906 L1316.3125,683.0156 C1316.3125,685.5938 1318.4219,687.4844 1321.3125,687.4844 C1322.5313,687.4844 1323.6875,687.1875 1324.4375,686.6406 C1325.0156,686.2344 1325.3438,685.7813 1325.3438,685.3906 C1325.3438,684.9375 1324.9531,684.5469 1324.4844,684.5469 C1324.2656,684.5469 1324.0625,684.625 1323.875,684.8125 C1323.4219,685.2969 1323.4219,685.2969 1323.2344,685.3906 C1322.8125,685.6563 1322.125,685.7813 1321.3594,685.7813 C1319.3125,685.7813 1318.0156,684.6875 1318.0156,682.9844 L1318.0156,681.8906 C1318.0156,680.1094 1319.2656,678.7969 1321,678.7969 C1321.5781,678.7969 1322.1875,678.9531 1322.6563,679.2031 C1323.1406,679.4844 1323.3125,679.7031 1323.4063,680.1094 C1323.4688,680.5156 1323.5,680.6406 1323.6406,680.7656 C1323.7813,680.9063 1324.0156,681.0156 1324.2344,681.0156 C1324.5,681.0156 1324.7656,680.875 1324.9375,680.6563 C1325.0469,680.5 1325.0781,680.3125 1325.0781,679.8906 L1325.0781,678.4688 C1325.0781,678.0313 1325.0625,677.9063 1324.9688,677.75 C1324.8125,677.4844 1324.5313,677.3438 1324.2344,677.3438 C1323.9375,677.3438 1323.7344,677.4375 1323.5156,677.75 L1323.3438,677.6719 Z "/><text fill="#000000" font-family="sans-serif" font-size="12" lengthAdjust="spacingAndGlyphs" textLength="104" x="1335" y="686.1543">WithConsoleView</text><line style="stroke: #A80036; stroke-width: 1.5;" x1="1307" x2="1441" y1="698" y2="698"/><line style="stroke: #A80036; stroke-width: 1.5;" x1="1307" x2="1441" y1="706" y2="706"/><!--MD5=[8af4fdb787b135b7271f9ce04b92f747]
class utils.Console--><rect fill="#FEFECE" filter="url(#f15503uaxci2d)" height="48" id="utils.Console" style="stroke: #A80036; stroke-width: 1.5;" width="81" x="1189.5" y="666"/><ellipse cx="1204.5" cy="682" fill="#ADD1B2" rx="11" ry="11" style="stroke: #A80036; stroke-width: 1.0;"/><path d="M1206.8438,677.6719 C1205.9063,677.2344 1205.3125,677.0938 1204.4375,677.0938 C1201.8125,677.0938 1199.8125,679.1719 1199.8125,681.8906 L1199.8125,683.0156 C1199.8125,685.5938 1201.9219,687.4844 1204.8125,687.4844 C1206.0313,687.4844 1207.1875,687.1875 1207.9375,686.6406 C1208.5156,686.2344 1208.8438,685.7813 1208.8438,685.3906 C1208.8438,684.9375 1208.4531,684.5469 1207.9844,684.5469 C1207.7656,684.5469 1207.5625,684.625 1207.375,684.8125 C1206.9219,685.2969 1206.9219,685.2969 1206.7344,685.3906 C1206.3125,685.6563 1205.625,685.7813 1204.8594,685.7813 C1202.8125,685.7813 1201.5156,684.6875 1201.5156,682.9844 L1201.5156,681.8906 C1201.5156,680.1094 1202.7656,678.7969 1204.5,678.7969 C1205.0781,678.7969 1205.6875,678.9531 1206.1563,679.2031 C1206.6406,679.4844 1206.8125,679.7031 1206.9063,680.1094 C1206.9688,680.5156 1207,680.6406 1207.1406,680.7656 C1207.2813,680.9063 1207.5156,681.0156 1207.7344,681.0156 C1208,681.0156 1208.2656,680.875 1208.4375,680.6563 C1208.5469,680.5 1208.5781,680.3125 1208.5781,679.8906 L1208.5781,678.4688 C1208.5781,678.0313 1208.5625,677.9063 1208.4688,677.75 C1208.3125,677.4844 1208.0313,677.3438 1207.7344,677.3438 C1207.4375,677.3438 1207.2344,677.4375 1207.0156,677.75 L1206.8438,677.6719 Z "/><text fill="#000000" font-family="sans-serif" font-size="12" lengthAdjust="spacingAndGlyphs" textLength="49" x="1218.5" y="686.1543">Console</text><line style="stroke: #A80036; stroke-width: 1.5;" x1="1190.5" x2="1269.5" y1="698" y2="698"/><line style="stroke: #A80036; stroke-width: 1.5;" x1="1190.5" x2="1269.5" y1="706" y2="706"/><!--MD5=[55e41f1e5a8b39b15e1066bc4af42afb]
class utils.PlayersDialog--><rect fill="#FEFECE" filter="url(#f15503uaxci2d)" height="48" id="utils.PlayersDialog" style="stroke: #A80036; stroke-width: 1.5;" width="113" x="1041.5" y="666"/><ellipse cx="1056.5" cy="682" fill="#ADD1B2" rx="11" ry="11" style="stroke: #A80036; stroke-width: 1.0;"/><path d="M1058.8438,677.6719 C1057.9063,677.2344 1057.3125,677.0938 1056.4375,677.0938 C1053.8125,677.0938 1051.8125,679.1719 1051.8125,681.8906 L1051.8125,683.0156 C1051.8125,685.5938 1053.9219,687.4844 1056.8125,687.4844 C1058.0313,687.4844 1059.1875,687.1875 1059.9375,686.6406 C1060.5156,686.2344 1060.8438,685.7813 1060.8438,685.3906 C1060.8438,684.9375 1060.4531,684.5469 1059.9844,684.5469 C1059.7656,684.5469 1059.5625,684.625 1059.375,684.8125 C1058.9219,685.2969 1058.9219,685.2969 1058.7344,685.3906 C1058.3125,685.6563 1057.625,685.7813 1056.8594,685.7813 C1054.8125,685.7813 1053.5156,684.6875 1053.5156,682.9844 L1053.5156,681.8906 C1053.5156,680.1094 1054.7656,678.7969 1056.5,678.7969 C1057.0781,678.7969 1057.6875,678.9531 1058.1563,679.2031 C1058.6406,679.4844 1058.8125,679.7031 1058.9063,680.1094 C1058.9688,680.5156 1059,680.6406 1059.1406,680.7656 C1059.2813,680.9063 1059.5156,681.0156 1059.7344,681.0156 C1060,681.0156 1060.2656,680.875 1060.4375,680.6563 C1060.5469,680.5 1060.5781,680.3125 1060.5781,679.8906 L1060.5781,678.4688 C1060.5781,678.0313 1060.5625,677.9063 1060.4688,677.75 C1060.3125,677.4844 1060.0313,677.3438 1059.7344,677.3438 C1059.4375,677.3438 1059.2344,677.4375 1059.0156,677.75 L1058.8438,677.6719 Z "/><text fill="#000000" font-family="sans-serif" font-size="12" lengthAdjust="spacingAndGlyphs" textLength="81" x="1070.5" y="686.1543">PlayersDialog</text><line style="stroke: #A80036; stroke-width: 1.5;" x1="1042.5" x2="1153.5" y1="698" y2="698"/><line style="stroke: #A80036; stroke-width: 1.5;" x1="1042.5" x2="1153.5" y1="706" y2="706"/><!--MD5=[8d3188f3c370ea7d5d91d12bca83b67a]
class tictactoe.models.Game--><rect fill="#FEFECE" filter="url(#f15503uaxci2d)" height="48" id="tictactoe.models.Game" style="stroke: #A80036; stroke-width: 1.5;" width="67" x="1091.5" y="417"/><ellipse cx="1106.5" cy="433" fill="#ADD1B2" rx="11" ry="11" style="stroke: #A80036; stroke-width: 1.0;"/><path d="M1108.8438,428.6719 C1107.9063,428.2344 1107.3125,428.0938 1106.4375,428.0938 C1103.8125,428.0938 1101.8125,430.1719 1101.8125,432.8906 L1101.8125,434.0156 C1101.8125,436.5938 1103.9219,438.4844 1106.8125,438.4844 C1108.0313,438.4844 1109.1875,438.1875 1109.9375,437.6406 C1110.5156,437.2344 1110.8438,436.7813 1110.8438,436.3906 C1110.8438,435.9375 1110.4531,435.5469 1109.9844,435.5469 C1109.7656,435.5469 1109.5625,435.625 1109.375,435.8125 C1108.9219,436.2969 1108.9219,436.2969 1108.7344,436.3906 C1108.3125,436.6563 1107.625,436.7813 1106.8594,436.7813 C1104.8125,436.7813 1103.5156,435.6875 1103.5156,433.9844 L1103.5156,432.8906 C1103.5156,431.1094 1104.7656,429.7969 1106.5,429.7969 C1107.0781,429.7969 1107.6875,429.9531 1108.1563,430.2031 C1108.6406,430.4844 1108.8125,430.7031 1108.9063,431.1094 C1108.9688,431.5156 1109,431.6406 1109.1406,431.7656 C1109.2813,431.9063 1109.5156,432.0156 1109.7344,432.0156 C1110,432.0156 1110.2656,431.875 1110.4375,431.6563 C1110.5469,431.5 1110.5781,431.3125 1110.5781,430.8906 L1110.5781,429.4688 C1110.5781,429.0313 1110.5625,428.9063 1110.4688,428.75 C1110.3125,428.4844 1110.0313,428.3438 1109.7344,428.3438 C1109.4375,428.3438 1109.2344,428.4375 1109.0156,428.75 L1108.8438,428.6719 Z "/><text fill="#000000" font-family="sans-serif" font-size="12" lengthAdjust="spacingAndGlyphs" textLength="35" x="1120.5" y="437.1543">Game</text><line style="stroke: #A80036; stroke-width: 1.5;" x1="1092.5" x2="1157.5" y1="449" y2="449"/><line style="stroke: #A80036; stroke-width: 1.5;" x1="1092.5" x2="1157.5" y1="457" y2="457"/><!--MD5=[0078aa0d9a37798fa4eeae0c6b944122]
reverse link utils.WithConsoleView to tictactoe.views.CoordinateView--><path codeLine="12" d="M1355.17,732.302 C1340.72,759.019 1318.14,792.054 1288,810 C1228.26,845.576 772.399,888.648 584.04,905.131 " fill="none" id="utils.WithConsoleView-backto-tictactoe.views.CoordinateView" style="stroke: #A80036; stroke-width: 1.0;"/><polygon fill="none" points="1349,728.99,1364.24,714.269,1361.5,735.282,1349,728.99" style="stroke: #A80036; stroke-width: 1.0;"/><!--MD5=[4b31c31b5e3724f6ae6047fba7d06c34]
link tictactoe.views.CoordinateView to tictactoe.views.ErrorView--><path codeLine="13" d="M491.343,943.734 C483.819,962.928 473.813,988.451 464.939,1011.088 " fill="none" id="tictactoe.views.CoordinateView-to-tictactoe.views.ErrorView" style="stroke: #A80036; stroke-width: 1.0; stroke-dasharray: 7.0,7.0;"/><polygon fill="#A80036" points="463.064,1015.871,470.0725,1008.9514,464.8886,1011.2158,462.6242,1006.032,463.064,1015.871" style="stroke: #A80036; stroke-width: 1.0;"/><!--MD5=[c8438395dc74a82079568b570bbee462]
reverse link utils.WithConsoleView to tictactoe.views.ErrorView--><path codeLine="21" d="M1353.42,732.053 C1338.52,757.877 1316.1,789.986 1288,810 C1045.7,982.589 684.78,1039.812 525.055,1057.3606 " fill="none" id="utils.WithConsoleView-backto-tictactoe.views.ErrorView" style="stroke: #A80036; stroke-width: 1.0;"/><polygon fill="none" points="1347.41,728.456,1363.11,714.23,1359.71,735.145,1347.41,728.456" style="stroke: #A80036; stroke-width: 1.0;"/><!--MD5=[20e81308c0403a45c4e97f8c1df924ce]
reverse link tictactoe.views.PlayerView to tictactoe.views.MachinePlayerView--><path codeLine="28" d="M219.75,530.114 C220.612,631.414 221.991,793.501 222.64,869.751 " fill="none" id="tictactoe.views.PlayerView-backto-tictactoe.views.MachinePlayerView" style="stroke: #A80036; stroke-width: 1.0;"/><polygon fill="none" points="212.75,530.15,219.579,510.091,226.75,530.031,212.75,530.15" style="stroke: #A80036; stroke-width: 1.0;"/><!--MD5=[f9c315c096834f768787d21fa9159728]
link tictactoe.views.MachinePlayerView to tictactoe.views.ErrorView--><path codeLine="29" d="M284.855,956.123 C310.672,973.705 340.917,994.301 368.065,1012.789 " fill="none" id="tictactoe.views.MachinePlayerView-to-tictactoe.views.ErrorView" style="stroke: #A80036; stroke-width: 1.0; stroke-dasharray: 7.0,7.0;"/><polygon fill="#A80036" points="372.395,1015.737,367.2074,1007.3651,368.2622,1012.9228,362.7046,1013.9776,372.395,1015.737" style="stroke: #A80036; stroke-width: 1.0;"/><!--MD5=[0ad3c58d95a8180d95833dfe832d13d7]
link tictactoe.views.MessageView to utils.Console--><path codeLine="48" d="M982.944,569.89 C1001.81,557.72 1021.87,547.207 1042.5,540 C1089.49,523.584 1111.34,515.208 1154.5,540 C1198.23,565.12 1217.34,624.786 1225.13,660.838 " fill="none" id="tictactoe.views.MessageView-to-utils.Console" style="stroke: #A80036; stroke-width: 1.0; stroke-dasharray: 7.0,7.0;"/><polygon fill="#A80036" points="1226.2,665.979,1228.2817,656.3527,1225.1809,661.084,1220.4496,657.9832,1226.2,665.979" style="stroke: #A80036; stroke-width: 1.0;"/><!--MD5=[ce514773479788e4563c803901aa0e8a]
link tictactoe.views.PlayView to tictactoe.models.Game--><path codeLine="65" d="M625.021,305.541 C630.674,307.943 636.381,310.141 642,312 C795.583,362.807 848.15,319.029 1001,372 C1031.47,382.558 1063.31,400.179 1087.09,414.837 " fill="none" id="tictactoe.views.PlayView-to-tictactoe.models.Game" style="stroke: #A80036; stroke-width: 1.0; stroke-dasharray: 7.0,7.0;"/><polygon fill="#A80036" points="1091.44,417.538,1085.912,409.3869,1087.1948,414.8964,1081.6853,416.1792,1091.44,417.538" style="stroke: #A80036; stroke-width: 1.0;"/><!--MD5=[ed2f2162f6705e4efea2048dc683c831]
link tictactoe.views.PlayView to tictactoe.views.PlayerView--><path codeLine="66" d="M494.655,302.577 C456.437,321.63 406.653,346.449 359.927,369.743 " fill="none" id="tictactoe.views.PlayView-to-tictactoe.views.PlayerView" style="stroke: #A80036; stroke-width: 1.0; stroke-dasharray: 7.0,7.0;"/><polygon fill="#A80036" points="355.415,371.993,365.2543,371.5584,359.89,369.7626,361.6857,364.3984,355.415,371.993" style="stroke: #A80036; stroke-width: 1.0;"/><!--MD5=[41ea24e0cbdfe76f0bd3adae563ded8b]
link tictactoe.views.PlayView to tictactoe.views.ResultView--><path codeLine="67" d="M544.921,312.022 C534.592,340.81 521.06,378.521 511.366,405.538 " fill="none" id="tictactoe.views.PlayView-to-tictactoe.views.ResultView" style="stroke: #A80036; stroke-width: 1.0; stroke-dasharray: 7.0,7.0;"/><polygon fill="#A80036" points="509.602,410.454,516.4067,403.3339,511.2907,405.7478,508.8768,400.6319,509.602,410.454" style="stroke: #A80036; stroke-width: 1.0;"/><!--MD5=[34c1be250335517398fd97d3221b9d57]
link tictactoe.views.PlayView to tictactoe.views.BoardView--><path codeLine="68" d="M596.831,312.022 C615.08,332.843 637.42,358.331 657.346,381.065 " fill="none" id="tictactoe.views.PlayView-to-tictactoe.views.BoardView" style="stroke: #A80036; stroke-width: 1.0; stroke-dasharray: 7.0,7.0;"/><polygon fill="#A80036" points="660.778,384.982,657.8537,375.5773,657.4822,381.2219,651.8376,380.8505,660.778,384.982" style="stroke: #A80036; stroke-width: 1.0;"/><!--MD5=[c036dee113f5971567d9d64c949bd867]
link tictactoe.views.ResultView to tictactoe.views.TokenView--><path codeLine="73" d="M513.595,471.794 C534.299,514.056 572.4,591.833 596.947,641.941 " fill="none" id="tictactoe.views.ResultView-to-tictactoe.views.TokenView" style="stroke: #A80036; stroke-width: 1.0; stroke-dasharray: 7.0,7.0;"/><polygon fill="#A80036" points="599.279,646.702,598.911,636.86,597.079,642.212,591.727,640.38,599.279,646.702" style="stroke: #A80036; stroke-width: 1.0;"/><!--MD5=[f07945de84a5d4a2de4970820f01fc75]
link tictactoe.views.ResultView to tictactoe.views.MessageView--><path codeLine="74" d="M528.026,471.622 C541.547,484.425 558.311,498.967 575,510 C627.412,544.648 649.532,537.006 703,570 C708.104,573.15 713.235,576.443 718.365,579.845 " fill="none" id="tictactoe.views.ResultView-to-tictactoe.views.MessageView" style="stroke: #A80036; stroke-width: 1.0; stroke-dasharray: 7.0,7.0;"/><polygon fill="#A80036" points="722.673,582.728,717.4165,574.3992,718.5171,579.9479,712.9684,581.0485,722.673,582.728" style="stroke: #A80036; stroke-width: 1.0;"/><!--MD5=[feeb46d67333c649ff50a132b34072f7]
link tictactoe.views.ResumeView to tictactoe.models.Game--><path codeLine="80" d="M968.314,306.08 C998.817,324.068 1034.66,347.248 1064,372 C1078.39,384.141 1092.55,399.645 1103.6,412.782 " fill="none" id="tictactoe.views.ResumeView-to-tictactoe.models.Game" style="stroke: #A80036; stroke-width: 1.0; stroke-dasharray: 7.0,7.0;"/><polygon fill="#A80036" points="1106.93,416.777,1104.2468,407.3007,1103.7313,412.934,1098.098,412.4186,1106.93,416.777" style="stroke: #A80036; stroke-width: 1.0;"/><!--MD5=[12846fc21134289c63f2daf74f167f26]
link tictactoe.views.ResumeView to tictactoe.views.Message--><path codeLine="81" d="M910.271,306.053 C917.491,337.524 927.826,382.576 934.476,411.561 " fill="none" id="tictactoe.views.ResumeView-to-tictactoe.views.Message" style="stroke: #A80036; stroke-width: 1.0; stroke-dasharray: 7.0,7.0;"/><polygon fill="#A80036" points="935.673,416.78,937.5586,407.1133,934.5546,411.9067,929.7613,408.9027,935.673,416.78" style="stroke: #A80036; stroke-width: 1.0;"/><!--MD5=[38c294e5e74476c7cee307f42d87ec6f]
link tictactoe.views.StartView to tictactoe.models.Game--><path codeLine="88" d="M784.182,304.595 C790.116,307.301 796.115,309.823 802,312 C914.04,353.443 961.073,311.366 1064,372 C1080.97,381.994 1095.82,398.289 1106.63,412.422 " fill="none" id="tictactoe.views.StartView-to-tictactoe.models.Game" style="stroke: #A80036; stroke-width: 1.0; stroke-dasharray: 7.0,7.0;"/><polygon fill="#A80036" points="1109.85,416.729,1107.6588,407.127,1106.8537,412.7263,1101.2544,411.9211,1109.85,416.729" style="stroke: #A80036; stroke-width: 1.0;"/><!--MD5=[e124272f5de4a434599cfb00bc237fb9]
link tictactoe.views.StartView to utils.PlayersDialog--><path codeLine="89" d="M784.343,304.181 C790.243,306.974 796.19,309.629 802,312 C887.924,347.064 936.293,306.464 1002,372 C1043.56,413.457 1079.9,590.438 1092.9,660.388 " fill="none" id="tictactoe.views.StartView-to-utils.PlayersDialog" style="stroke: #A80036; stroke-width: 1.0; stroke-dasharray: 7.0,7.0;"/><polygon fill="#A80036" points="1093.87,665.633,1096.1671,656.0558,1092.961,660.7163,1088.3004,657.5102,1093.87,665.633" style="stroke: #A80036; stroke-width: 1.0;"/><!--MD5=[b594307ff552a83d04fdaea87608a81f]
link tictactoe.views.StartView to tictactoe.views.BoardView--><path codeLine="90" d="M718.787,312.022 C717.221,332.498 715.31,357.49 713.593,379.936 " fill="none" id="tictactoe.views.StartView-to-tictactoe.views.BoardView" style="stroke: #A80036; stroke-width: 1.0; stroke-dasharray: 7.0,7.0;"/><polygon fill="#A80036" points="713.207,384.982,717.8821,376.3135,713.5885,379.9966,709.9054,375.703,713.207,384.982" style="stroke: #A80036; stroke-width: 1.0;"/><!--MD5=[acc41e7aa9beecc5caef020a4c923094]
link tictactoe.views.StartView to tictactoe.views.MessageView--><path codeLine="91" d="M784.276,307.166 C806.59,323.96 829.339,345.928 842,372 C870.665,431.029 875.246,503.781 871.953,564.694 " fill="none" id="tictactoe.views.StartView-to-tictactoe.views.MessageView" style="stroke: #A80036; stroke-width: 1.0; stroke-dasharray: 7.0,7.0;"/><polygon fill="#A80036" points="871.657,569.802,876.1698,561.0479,871.9456,564.8103,868.1831,560.5861,871.657,569.802" style="stroke: #A80036; stroke-width: 1.0;"/><!--MD5=[49bda9faf8a8e0ab629e1a0ab5e7f26c]
reverse link utils.WithConsoleView to tictactoe.views.TokenView--><path codeLine="98" d="M1357.83,647.172 C1341.72,611.277 1313.18,562.407 1270.5,540 C1216.59,511.699 776.348,511.577 722.5,540 C680.102,562.38 651.916,611.064 636.013,646.927 " fill="none" id="utils.WithConsoleView-backto-tictactoe.views.TokenView" style="stroke: #A80036; stroke-width: 1.0;"/><polygon fill="none" points="1364.35,644.621,1365.61,665.774,1351.44,650.022,1364.35,644.621" style="stroke: #A80036; stroke-width: 1.0;"/><!--MD5=[1e5f7c56ba0966e4189ee9d4368bbc75]
reverse link tictactoe.views.PlayerView to tictactoe.views.UserPlayerView--><path codeLine="107" d="M276.528,527.086 C300.453,562.472 327.538,602.532 348.781,633.951 " fill="none" id="tictactoe.views.PlayerView-backto-tictactoe.views.UserPlayerView" style="stroke: #A80036; stroke-width: 1.0;"/><polygon fill="none" points="270.479,530.637,265.076,510.148,282.077,522.795,270.479,530.637" style="stroke: #A80036; stroke-width: 1.0;"/><!--MD5=[4574fdac031bfd32a1af6a2f4dae5e0a]
link tictactoe.views.UserPlayerView to tictactoe.views.CoordinateView--><path codeLine="108" d="M415.222,746.198 C437.052,787.431 466.21,842.508 484.802,877.625 " fill="none" id="tictactoe.views.UserPlayerView-to-tictactoe.views.CoordinateView" style="stroke: #A80036; stroke-width: 1.0; stroke-dasharray: 7.0,7.0;"/><polygon fill="#A80036" points="487.24,882.232,486.5628,872.4064,484.9,877.8134,479.493,876.1505,487.24,882.232" style="stroke: #A80036; stroke-width: 1.0;"/><!--MD5=[658a608cadae7f50017d4f067fcbd3fc]
link tictactoe.views.UserPlayerView to tictactoe.views.ErrorView--><path codeLine="109" d="M385.199,746.19 C385.477,800.239 388.751,884.637 404,956 C407.93,974.394 414.342,993.858 420.891,1011.143 " fill="none" id="tictactoe.views.UserPlayerView-to-tictactoe.views.ErrorView" style="stroke: #A80036; stroke-width: 1.0; stroke-dasharray: 7.0,7.0;"/><polygon fill="#A80036" points="422.74,1015.958,423.2476,1006.1222,420.9475,1011.2904,415.7794,1008.9902,422.74,1015.958" style="stroke: #A80036; stroke-width: 1.0;"/><!--MD5=[0696a78a81f063c18f1c08fd8fb67371]
link tictactoe.views.View to tictactoe.models.Game--><path codeLine="119" d="M908.5433,154.7235 C908.5433,154.7235 975.494,198.471 1002,226 C1053.64,279.638 1091.85,359.05 1111.06,404.539 " fill="none" id="tictactoe.views.View-tictactoe.models.Game" style="stroke: #A80036; stroke-width: 1.0;"/><polygon fill="#A80036" points="1116.08,416.69,1116.3399,406.8446,1114.1706,412.0689,1108.9462,409.8996,1116.08,416.69" style="stroke: #A80036; stroke-width: 1.0;"/><line style="stroke: #A80036; stroke-width: 1.0;" x1="1114.1706" x2="1111.115" y1="412.0689" y2="404.6755"/><polygon fill="#A80036" points="898.192,148.653,901.3442,155.1387,908.5433,154.7235,905.3911,148.2378,898.192,148.653" style="stroke: #A80036; stroke-width: 1.0;"/><!--MD5=[162e61ccfe0c70dae4a3356c790f8713]
link tictactoe.views.View to tictactoe.views.StartView--><path codeLine="120" d="M769.9011,176.9326 C769.9011,176.9326 756.359,202.678 750.283,214.23 " fill="none" id="tictactoe.views.View-tictactoe.views.StartView" style="stroke: #A80036; stroke-width: 1.0;"/><polygon fill="#A80036" points="744.137,225.915,751.867,219.8119,746.4647,221.4899,744.7867,216.0876,744.137,225.915" style="stroke: #A80036; stroke-width: 1.0;"/><line style="stroke: #A80036; stroke-width: 1.0;" x1="746.4647" x2="750.1885" y1="221.4899" y2="214.409"/><polygon fill="#A80036" points="775.487,166.312,769.1538,169.7603,769.9011,176.9326,776.2342,173.4843,775.487,166.312" style="stroke: #A80036; stroke-width: 1.0;"/><!--MD5=[b154bf5c27e08267002d89cc620f84e6]
link tictactoe.views.View to tictactoe.views.PlayView--><path codeLine="121" d="M707.7466,170.5955 C707.7466,170.5955 657.317,203.841 634.661,218.778 " fill="none" id="tictactoe.views.View-tictactoe.views.PlayView" style="stroke: #A80036; stroke-width: 1.0;"/><polygon fill="#A80036" points="623.767,225.96,633.4826,224.3453,627.9413,223.2077,629.0789,217.6664,623.767,225.96" style="stroke: #A80036; stroke-width: 1.0;"/><line style="stroke: #A80036; stroke-width: 1.0;" x1="627.9413" x2="634.6205" y1="223.2077" y2="218.8045"/><polygon fill="#A80036" points="717.765,163.99,710.554,163.9533,707.7466,170.5955,714.9577,170.6322,717.765,163.99" style="stroke: #A80036; stroke-width: 1.0;"/><!--MD5=[7b150ce1c9f94aa8e3a34d59dc556e30]
link tictactoe.views.View to tictactoe.views.ResumeView--><path codeLine="122" d="M849.5175,176.7155 C849.5175,176.7155 866.988,207.102 874.652,220.432 " fill="none" id="tictactoe.views.View-tictactoe.views.ResumeView" style="stroke: #A80036; stroke-width: 1.0;"/><polygon fill="#A80036" points="881.142,231.72,880.1235,221.9239,878.6497,227.3854,873.1882,225.9116,881.142,231.72" style="stroke: #A80036; stroke-width: 1.0;"/><line style="stroke: #A80036; stroke-width: 1.0;" x1="878.6497" x2="874.6625" y1="227.3854" y2="220.45"/><polygon fill="#A80036" points="843.537,166.312,843.0594,173.5073,849.5175,176.7155,849.9951,169.5203,843.537,166.312" style="stroke: #A80036; stroke-width: 1.0;"/><!--MD5=[fd88d49a6679cd1907888371fe55e710]
@startuml
class  tictactoe.views.BoardView{
~ board: Board
~ BoardView(Board)
~ write(): void
- printRowBoard(int): void
- printSquareValueBoard(int, int): void
}

class  tictactoe.views.CoordinateView{
~ read(String): Coordinate
}
utils.WithConsoleView <|-down- tictactoe.views.CoordinateView
tictactoe.views.CoordinateView ..> tictactoe.views.ErrorView

class  tictactoe.views.ErrorView{
- {static} MESSAGES: String[]
- error: Error
~ ErrorView(Error)
~ read(String): Coordinate
}
utils.WithConsoleView <|-down- tictactoe.views.ErrorView

class  tictactoe.views.MachinePlayerView{
~ MachinePlayerView(Player)
~ readCoordinateToPut(): Coordinate
~ readCoordinatesToMove(): Coordinate[]
}
tictactoe.views.PlayerView <|-down- tictactoe.views.MachinePlayerView
tictactoe.views.MachinePlayerView ..> tictactoe.views.ErrorView

class  tictactoe.views.MessageView{
+ LINE_BREAK: MessageView
+ EMPTY: MessageView 
+ SEPARATOR: MessageView
+ VERTICAL_LINE_CENTERED: MessageView
+ VERTICAL_LINE_LEFT: MessageView
+	PLAYER_WIN: MessageView
+	START_GAME: MessageView
+	CHOOSE_PLAYER: MessageView
+ RESUME: MessageView
- message: String
- console: Console
- MessageView(String)
~ getMessage(): String
~ write(): void
~ writeln(): void
}
tictactoe.views.MessageView ..> utils.Console

class  tictactoe.views.PlayerView{
# player: Player
~ PlayerView(Player)
~ {abstract} readCoordinateToPut(): Coordinate
~ {abstract} readCoordinatesToMove(): Coordinate[]
~ getPutCoordinateError(Coordinate): Error
~ getMoveOriginCoordinateError(Coordinate): Error
~ getMoveTargetCoordinateError(Coordinate, Coordinate): Error
}

class  tictactoe.views.PlayView{
~ game: Game
~ PlayView(Game)
~ interact(): boolean
}
tictactoe.views.PlayView ..> tictactoe.models.Game
tictactoe.views.PlayView ..> tictactoe.views.PlayerView
tictactoe.views.PlayView ..> tictactoe.views.ResultView
tictactoe.views.PlayView ..> tictactoe.views.BoardView

class tictactoe.views.ResultView{
~ writeln(int): void
}
tictactoe.views.ResultView ..> tictactoe.views.TokenView
tictactoe.views.ResultView ..> tictactoe.views.MessageView

class  tictactoe.views.ResumeView{
~ ResumeView()
~ interact(Game): boolean
}
tictactoe.views.ResumeView ..> tictactoe.models.Game
tictactoe.views.ResumeView ..> tictactoe.views.Message

class tictactoe.views.StartView{
~ game: Game
~ StartView(Game)
~ interact(): void
}
tictactoe.views.StartView ..> tictactoe.models.Game
tictactoe.views.StartView ..> utils.PlayersDialog
tictactoe.views.StartView ..> tictactoe.views.BoardView
tictactoe.views.StartView ..> tictactoe.views.MessageView

class tictactoe.views.TokenView{
~ token: Token
~ TokenView(Token)
~ write(): void
}
utils.WithConsoleView <|-down- tictactoe.views.TokenView

class  tictactoe.views.UserPlayerView{
~ {static} ENTER_COORDINATE_TO_PUT: String
~ {static} ENTER_COORDINATE_TO_REMOVE: String
~ UserPlayerView(Player)
~ readCoordinateToPut(): Coordinate
~ readCoordinatesToMove(): Coordinate[]
}
tictactoe.views.PlayerView <|-down- tictactoe.views.UserPlayerView
tictactoe.views.UserPlayerView ..> tictactoe.views.CoordinateView
tictactoe.views.UserPlayerView ..> tictactoe.views.ErrorView

class  tictactoe.views.View{
# game: Game
- startView: StartView
- playView: PlayView
- resumeView: ResumeView
+ View(Game)
+ interact(): void
}
tictactoe.views.View *-down-> tictactoe.models.Game
tictactoe.views.View *-down-> tictactoe.views.StartView
tictactoe.views.View *-down-> tictactoe.views.PlayView
tictactoe.views.View *-down-> tictactoe.views.ResumeView
@enduml

PlantUML version 1.2020.20beta2(Unknown compile time)
(GPL source distribution)
Java Runtime: Java(TM) SE Runtime Environment
JVM: Java HotSpot(TM) 64-Bit Server VM
Default Encoding: UTF-8
Language: en
Country: US
--></g></svg>