<?xml version="1.0" encoding="UTF-8" standalone="no"?><svg xmlns="http://www.w3.org/2000/svg" xmlns:xlink="http://www.w3.org/1999/xlink" contentScriptType="application/ecmascript" contentStyleType="text/css" height="299px" preserveAspectRatio="none" style="width:354px;height:299px;" version="1.1" viewBox="0 0 354 299" width="354px" zoomAndPan="magnify"><defs><filter height="300%" id="f94hele2yt1c0" width="300%" x="-1" y="-1"><feGaussianBlur result="blurOut" stdDeviation="2.0"/><feColorMatrix in="blurOut" result="blurOut2" type="matrix" values="0 0 0 0 0 0 0 0 0 0 0 0 0 0 0 0 0 0 .4 0"/><feOffset dx="4.0" dy="4.0" in="blurOut2" result="blurOut3"/><feBlend in="SourceGraphic" in2="blurOut3" mode="normal"/></filter></defs><g><!--MD5=[b59da53bc4cb019b9115ab51e8207bb0]
cluster usantatecla.tictactoe--><polygon fill="#FFFFFF" filter="url(#f94hele2yt1c0)" points="76,6,261,6,268,28.2969,271,28.2969,271,169,76,169,76,6" style="stroke: #000000; stroke-width: 1.5;"/><line style="stroke: #000000; stroke-width: 1.5;" x1="76" x2="268" y1="28.2969" y2="28.2969"/><text fill="#000000" font-family="sans-serif" font-size="14" font-weight="bold" lengthAdjust="spacingAndGlyphs" textLength="179" x="80" y="20.9951">usantatecla.tictactoe</text><!--MD5=[51cd642fcc96b47682a93d9084d46dec]
cluster tictactoe.models--><polygon fill="#FFFFFF" filter="url(#f94hele2yt1c0)" points="16,193,161,193,168,215.2969,171,215.2969,171,292,16,292,16,193" style="stroke: #000000; stroke-width: 1.5;"/><line style="stroke: #000000; stroke-width: 1.5;" x1="16" x2="168" y1="215.2969" y2="215.2969"/><text fill="#000000" font-family="sans-serif" font-size="14" font-weight="bold" lengthAdjust="spacingAndGlyphs" textLength="139" x="20" y="207.9951">tictactoe.models</text><!--MD5=[f4e83a21a957c5b9ba9691e6361db36b]
cluster tictactoe.views--><polygon fill="#FFFFFF" filter="url(#f94hele2yt1c0)" points="195,193,327,193,334,215.2969,337,215.2969,337,292,195,292,195,193" style="stroke: #000000; stroke-width: 1.5;"/><line style="stroke: #000000; stroke-width: 1.5;" x1="195" x2="334" y1="215.2969" y2="215.2969"/><text fill="#000000" font-family="sans-serif" font-size="14" font-weight="bold" lengthAdjust="spacingAndGlyphs" textLength="126" x="199" y="207.9951">tictactoe.views</text><!--MD5=[4b5d579ecc4748d1b21f2fd6d497d353]
class usantatecla.tictactoe.TicTacToe--><rect codeLine="1" fill="#FEFECE" filter="url(#f94hele2yt1c0)" height="112.0234" id="usantatecla.tictactoe.TicTacToe" style="stroke: #A80036; stroke-width: 1.5;" width="134" x="106" y="41"/><ellipse cx="139.45" cy="57" fill="#ADD1B2" rx="11" ry="11" style="stroke: #A80036; stroke-width: 1.0;"/><path d="M141.7938,52.6719 C140.8563,52.2344 140.2625,52.0938 139.3875,52.0938 C136.7625,52.0938 134.7625,54.1719 134.7625,56.8906 L134.7625,58.0156 C134.7625,60.5938 136.8719,62.4844 139.7625,62.4844 C140.9813,62.4844 142.1375,62.1875 142.8875,61.6406 C143.4656,61.2344 143.7938,60.7813 143.7938,60.3906 C143.7938,59.9375 143.4031,59.5469 142.9344,59.5469 C142.7156,59.5469 142.5125,59.625 142.325,59.8125 C141.8719,60.2969 141.8719,60.2969 141.6844,60.3906 C141.2625,60.6563 140.575,60.7813 139.8094,60.7813 C137.7625,60.7813 136.4656,59.6875 136.4656,57.9844 L136.4656,56.8906 C136.4656,55.1094 137.7156,53.7969 139.45,53.7969 C140.0281,53.7969 140.6375,53.9531 141.1063,54.2031 C141.5906,54.4844 141.7625,54.7031 141.8563,55.1094 C141.9188,55.5156 141.95,55.6406 142.0906,55.7656 C142.2313,55.9063 142.4656,56.0156 142.6844,56.0156 C142.95,56.0156 143.2156,55.875 143.3875,55.6563 C143.4969,55.5 143.5281,55.3125 143.5281,54.8906 L143.5281,53.4688 C143.5281,53.0313 143.5125,52.9063 143.4188,52.75 C143.2625,52.4844 142.9813,52.3438 142.6844,52.3438 C142.3875,52.3438 142.1844,52.4375 141.9656,52.75 L141.7938,52.6719 Z " fill="#000000"/><text fill="#000000" font-family="sans-serif" font-size="12" lengthAdjust="spacingAndGlyphs" textLength="61" x="157.55" y="61.1543">TicTacToe</text><line style="stroke: #A80036; stroke-width: 1.5;" x1="107" x2="239" y1="73" y2="73"/><rect fill="none" height="6" style="stroke: #C82930; stroke-width: 1.0;" width="6" x="114" y="81"/><text fill="#000000" font-family="sans-serif" font-size="11" lengthAdjust="spacingAndGlyphs" textLength="75" x="126" y="87.2104">game: Game</text><rect fill="none" height="6" style="stroke: #C82930; stroke-width: 1.0;" width="6" x="114" y="93.8047"/><text fill="#000000" font-family="sans-serif" font-size="11" lengthAdjust="spacingAndGlyphs" textLength="62" x="126" y="100.0151">view: View</text><line style="stroke: #A80036; stroke-width: 1.5;" x1="107" x2="239" y1="106.6094" y2="106.6094"/><polygon fill="#4177AF" points="117,113.6094,113,119.6094,121,119.6094" style="stroke: #1963A0; stroke-width: 1.0;"/><text fill="#000000" font-family="sans-serif" font-size="11" lengthAdjust="spacingAndGlyphs" textLength="66" x="126" y="120.8198">TicTacToe()</text><rect fill="#F24D5C" height="6" style="stroke: #C82930; stroke-width: 1.0;" width="6" x="114" y="127.4141"/><text fill="#000000" font-family="sans-serif" font-size="11" lengthAdjust="spacingAndGlyphs" textLength="63" x="126" y="133.6245">play(): void</text><ellipse cx="117" cy="143.2188" fill="#84BE84" rx="3" ry="3" style="stroke: #038048; stroke-width: 1.0;"/><text fill="#000000" font-family="sans-serif" font-size="11" lengthAdjust="spacingAndGlyphs" textLength="108" x="126" y="146.4292">main(String[]): void</text><!--MD5=[8d3188f3c370ea7d5d91d12bca83b67a]
class tictactoe.models.Game--><rect fill="#FEFECE" filter="url(#f94hele2yt1c0)" height="48" id="tictactoe.models.Game" style="stroke: #A80036; stroke-width: 1.5;" width="67" x="87.5" y="228"/><ellipse cx="102.5" cy="244" fill="#ADD1B2" rx="11" ry="11" style="stroke: #A80036; stroke-width: 1.0;"/><path d="M104.8438,239.6719 C103.9063,239.2344 103.3125,239.0938 102.4375,239.0938 C99.8125,239.0938 97.8125,241.1719 97.8125,243.8906 L97.8125,245.0156 C97.8125,247.5938 99.9219,249.4844 102.8125,249.4844 C104.0313,249.4844 105.1875,249.1875 105.9375,248.6406 C106.5156,248.2344 106.8438,247.7813 106.8438,247.3906 C106.8438,246.9375 106.4531,246.5469 105.9844,246.5469 C105.7656,246.5469 105.5625,246.625 105.375,246.8125 C104.9219,247.2969 104.9219,247.2969 104.7344,247.3906 C104.3125,247.6563 103.625,247.7813 102.8594,247.7813 C100.8125,247.7813 99.5156,246.6875 99.5156,244.9844 L99.5156,243.8906 C99.5156,242.1094 100.7656,240.7969 102.5,240.7969 C103.0781,240.7969 103.6875,240.9531 104.1563,241.2031 C104.6406,241.4844 104.8125,241.7031 104.9063,242.1094 C104.9688,242.5156 105,242.6406 105.1406,242.7656 C105.2813,242.9063 105.5156,243.0156 105.7344,243.0156 C106,243.0156 106.2656,242.875 106.4375,242.6563 C106.5469,242.5 106.5781,242.3125 106.5781,241.8906 L106.5781,240.4688 C106.5781,240.0313 106.5625,239.9063 106.4688,239.75 C106.3125,239.4844 106.0313,239.3438 105.7344,239.3438 C105.4375,239.3438 105.2344,239.4375 105.0156,239.75 L104.8438,239.6719 Z " fill="#000000"/><text fill="#000000" font-family="sans-serif" font-size="12" lengthAdjust="spacingAndGlyphs" textLength="35" x="116.5" y="248.1543">Game</text><line style="stroke: #A80036; stroke-width: 1.5;" x1="88.5" x2="153.5" y1="260" y2="260"/><line style="stroke: #A80036; stroke-width: 1.5;" x1="88.5" x2="153.5" y1="268" y2="268"/><!--MD5=[015754420c4cdd9bacda884b3fa8c6ca]
class tictactoe.views.View--><rect fill="#FEFECE" filter="url(#f94hele2yt1c0)" height="48" id="tictactoe.views.View" style="stroke: #A80036; stroke-width: 1.5;" width="61" x="211.5" y="228"/><ellipse cx="226.5" cy="244" fill="#ADD1B2" rx="11" ry="11" style="stroke: #A80036; stroke-width: 1.0;"/><path d="M228.8438,239.6719 C227.9063,239.2344 227.3125,239.0938 226.4375,239.0938 C223.8125,239.0938 221.8125,241.1719 221.8125,243.8906 L221.8125,245.0156 C221.8125,247.5938 223.9219,249.4844 226.8125,249.4844 C228.0313,249.4844 229.1875,249.1875 229.9375,248.6406 C230.5156,248.2344 230.8438,247.7813 230.8438,247.3906 C230.8438,246.9375 230.4531,246.5469 229.9844,246.5469 C229.7656,246.5469 229.5625,246.625 229.375,246.8125 C228.9219,247.2969 228.9219,247.2969 228.7344,247.3906 C228.3125,247.6563 227.625,247.7813 226.8594,247.7813 C224.8125,247.7813 223.5156,246.6875 223.5156,244.9844 L223.5156,243.8906 C223.5156,242.1094 224.7656,240.7969 226.5,240.7969 C227.0781,240.7969 227.6875,240.9531 228.1563,241.2031 C228.6406,241.4844 228.8125,241.7031 228.9063,242.1094 C228.9688,242.5156 229,242.6406 229.1406,242.7656 C229.2813,242.9063 229.5156,243.0156 229.7344,243.0156 C230,243.0156 230.2656,242.875 230.4375,242.6563 C230.5469,242.5 230.5781,242.3125 230.5781,241.8906 L230.5781,240.4688 C230.5781,240.0313 230.5625,239.9063 230.4688,239.75 C230.3125,239.4844 230.0313,239.3438 229.7344,239.3438 C229.4375,239.3438 229.2344,239.4375 229.0156,239.75 L228.8438,239.6719 Z " fill="#000000"/><text fill="#000000" font-family="sans-serif" font-size="12" lengthAdjust="spacingAndGlyphs" textLength="29" x="240.5" y="248.1543">View</text><line style="stroke: #A80036; stroke-width: 1.5;" x1="212.5" x2="271.5" y1="260" y2="260"/><line style="stroke: #A80036; stroke-width: 1.5;" x1="212.5" x2="271.5" y1="268" y2="268"/><!--MD5=[96a85a8204e0ae89b3b64ac02d7a22e0]
link usantatecla.tictactoe.TicTacToe to tictactoe.models.Game--><path codeLine="8" d="M150.3659,164.5989 C150.3659,164.5989 138.198,200.399 133.183,215.1527 " fill="none" id="usantatecla.tictactoe.TicTacToe-tictactoe.models.Game" style="stroke: #A80036; stroke-width: 1.0;"/><polygon fill="#A80036" points="128.884,227.8042,135.5674,220.5701,130.493,223.0702,127.993,217.9957,128.884,227.8042" style="stroke: #A80036; stroke-width: 1.0;"/><line style="stroke: #A80036; stroke-width: 1.0;" x1="130.493" x2="133.067" y1="223.0702" y2="215.4956"/><polygon fill="#A80036" points="154.227,153.237,148.5092,157.6309,150.3659,164.5989,156.0837,160.205,154.227,153.237" style="stroke: #A80036; stroke-width: 1.0;"/><!--MD5=[6e8c9a7acbd97bd46694dbe4d959a721]
link usantatecla.tictactoe.TicTacToe to tictactoe.views.View--><path codeLine="9" d="M202.8439,164.1762 C202.8439,164.1762 219.382,200.846 226.187,215.9356 " fill="none" id="usantatecla.tictactoe.TicTacToe-tictactoe.views.View" style="stroke: #A80036; stroke-width: 1.0;"/><polygon fill="#A80036" points="231.539,227.8042,231.4852,217.9555,229.4834,223.2463,224.1925,221.2445,231.539,227.8042" style="stroke: #A80036; stroke-width: 1.0;"/><line style="stroke: #A80036; stroke-width: 1.0;" x1="229.4834" x2="226.1945" y1="223.2463" y2="215.9536"/><polygon fill="#A80036" points="197.911,153.237,196.7311,160.3509,202.8439,164.1762,204.0239,157.0623,197.911,153.237" style="stroke: #A80036; stroke-width: 1.0;"/><!--MD5=[15418d03708c3de553c2ea3b0cba764f]
@startuml
class  usantatecla.tictactoe.TicTacToe{
- game: Game
- view: View
~ TicTacToe()
- play(): void
+ main(String[]): void
}
usantatecla.tictactoe.TicTacToe *-down-> tictactoe.models.Game
usantatecla.tictactoe.TicTacToe *-down-> tictactoe.views.View
@enduml

PlantUML version 1.2020.20beta8(Unknown compile time)
(GPL source distribution)
Java Runtime: Java(TM) SE Runtime Environment
JVM: Java HotSpot(TM) 64-Bit Server VM
Default Encoding: UTF-8
Language: en
Country: US
--></g></svg>