<?xml version="1.0" encoding="UTF-8" standalone="no"?><svg xmlns="http://www.w3.org/2000/svg" xmlns:xlink="http://www.w3.org/1999/xlink" contentScriptType="application/ecmascript" contentStyleType="text/css" height="1507px" preserveAspectRatio="none" style="width:1176px;height:1507px;" version="1.1" viewBox="0 0 1176 1507" width="1176px" zoomAndPan="magnify"><defs><filter height="300%" id="fafvej4lz27km" width="300%" x="-1" y="-1"><feGaussianBlur result="blurOut" stdDeviation="2.0"/><feColorMatrix in="blurOut" result="blurOut2" type="matrix" values="0 0 0 0 0 0 0 0 0 0 0 0 0 0 0 0 0 0 .4 0"/><feOffset dx="4.0" dy="4.0" in="blurOut2" result="blurOut3"/><feBlend in="SourceGraphic" in2="blurOut3" mode="normal"/></filter></defs><g><!--MD5=[51cd642fcc96b47682a93d9084d46dec]
cluster tictactoe.models--><polygon fill="#FFFFFF" filter="url(#fafvej4lz27km)" points="16,6,161,6,168,28.2969,539,28.2969,539,1500,16,1500,16,6" style="stroke: #000000; stroke-width: 1.5;"/><line style="stroke: #000000; stroke-width: 1.5;" x1="16" x2="168" y1="28.2969" y2="28.2969"/><text fill="#000000" font-family="sans-serif" font-size="14" font-weight="bold" lengthAdjust="spacingAndGlyphs" textLength="139" x="20" y="20.9951">tictactoe.models</text><!--MD5=[c52f45833d539af9e29a9d34b8b7302b]
cluster utils--><polygon fill="#FFFFFF" filter="url(#fafvej4lz27km)" points="699,1362.5,742,1362.5,749,1384.7969,1159,1384.7969,1159,1461.5,699,1461.5,699,1362.5" style="stroke: #000000; stroke-width: 1.5;"/><line style="stroke: #000000; stroke-width: 1.5;" x1="699" x2="749" y1="1384.7969" y2="1384.7969"/><text fill="#000000" font-family="sans-serif" font-size="14" font-weight="bold" lengthAdjust="spacingAndGlyphs" textLength="37" x="703" y="1377.4951">utils</text><!--MD5=[7db3c59d38ae5b37b484eb2df9368145]
cluster java.util--><polygon fill="#FFFFFF" filter="url(#fafvej4lz27km)" points="563,1362.5,636,1362.5,643,1384.7969,675,1384.7969,675,1461.5,563,1461.5,563,1362.5" style="stroke: #000000; stroke-width: 1.5;"/><line style="stroke: #000000; stroke-width: 1.5;" x1="563" x2="643" y1="1384.7969" y2="1384.7969"/><text fill="#000000" font-family="sans-serif" font-size="14" font-weight="bold" lengthAdjust="spacingAndGlyphs" textLength="67" x="567" y="1377.4951">java.util</text><!--MD5=[f2254b5fdbf93effa50eb20dc057829b]
class tictactoe.models.Board--><rect codeLine="1" fill="#FEFECE" filter="url(#fafvej4lz27km)" height="201.6563" id="tictactoe.models.Board" style="stroke: #A80036; stroke-width: 1.5;" width="262" x="224" y="328"/><ellipse cx="332.75" cy="344" fill="#ADD1B2" rx="11" ry="11" style="stroke: #A80036; stroke-width: 1.0;"/><path d="M335.0938,339.6719 C334.1563,339.2344 333.5625,339.0938 332.6875,339.0938 C330.0625,339.0938 328.0625,341.1719 328.0625,343.8906 L328.0625,345.0156 C328.0625,347.5938 330.1719,349.4844 333.0625,349.4844 C334.2813,349.4844 335.4375,349.1875 336.1875,348.6406 C336.7656,348.2344 337.0938,347.7813 337.0938,347.3906 C337.0938,346.9375 336.7031,346.5469 336.2344,346.5469 C336.0156,346.5469 335.8125,346.625 335.625,346.8125 C335.1719,347.2969 335.1719,347.2969 334.9844,347.3906 C334.5625,347.6563 333.875,347.7813 333.1094,347.7813 C331.0625,347.7813 329.7656,346.6875 329.7656,344.9844 L329.7656,343.8906 C329.7656,342.1094 331.0156,340.7969 332.75,340.7969 C333.3281,340.7969 333.9375,340.9531 334.4063,341.2031 C334.8906,341.4844 335.0625,341.7031 335.1563,342.1094 C335.2188,342.5156 335.25,342.6406 335.3906,342.7656 C335.5313,342.9063 335.7656,343.0156 335.9844,343.0156 C336.25,343.0156 336.5156,342.875 336.6875,342.6563 C336.7969,342.5 336.8281,342.3125 336.8281,341.8906 L336.8281,340.4688 C336.8281,340.0313 336.8125,339.9063 336.7188,339.75 C336.5625,339.4844 336.2813,339.3438 335.9844,339.3438 C335.6875,339.3438 335.4844,339.4375 335.2656,339.75 L335.0938,339.6719 Z "/><text fill="#000000" font-family="sans-serif" font-size="12" lengthAdjust="spacingAndGlyphs" textLength="36" x="353.25" y="348.1543">Board</text><line style="stroke: #A80036; stroke-width: 1.5;" x1="225" x2="485" y1="360" y2="360"/><rect fill="none" height="6" style="stroke: #C82930; stroke-width: 1.0;" width="6" x="232" y="368"/><text fill="#000000" font-family="sans-serif" font-size="11" lengthAdjust="spacingAndGlyphs" textLength="96" x="244" y="374.2104">tokens: Token[][]</text><line style="stroke: #A80036; stroke-width: 1.5;" x1="225" x2="485" y1="380.8047" y2="380.8047"/><polygon fill="#4177AF" points="235,387.8047,231,393.8047,239,393.8047" style="stroke: #1963A0; stroke-width: 1.0;"/><text fill="#000000" font-family="sans-serif" font-size="11" lengthAdjust="spacingAndGlyphs" textLength="41" x="244" y="395.0151">Board()</text><polygon fill="#4177AF" points="235,400.6094,231,406.6094,239,406.6094" style="stroke: #1963A0; stroke-width: 1.0;"/><text fill="#000000" font-family="sans-serif" font-size="11" lengthAdjust="spacingAndGlyphs" textLength="38" x="244" y="407.8198">reset()</text><polygon fill="#4177AF" points="235,413.4141,231,419.4141,239,419.4141" style="stroke: #1963A0; stroke-width: 1.0;"/><text fill="#000000" font-family="sans-serif" font-size="11" lengthAdjust="spacingAndGlyphs" textLength="166" x="244" y="420.6245">getToken(Coordinate): Token</text><polygon fill="#4177AF" points="235,426.2188,231,432.2188,239,432.2188" style="stroke: #1963A0; stroke-width: 1.0;"/><text fill="#000000" font-family="sans-serif" font-size="11" lengthAdjust="spacingAndGlyphs" textLength="133" x="244" y="433.4292">isCompleted(): boolean</text><polygon fill="#4177AF" points="235,439.0234,231,445.0234,239,445.0234" style="stroke: #1963A0; stroke-width: 1.0;"/><text fill="#000000" font-family="sans-serif" font-size="11" lengthAdjust="spacingAndGlyphs" textLength="130" x="244" y="446.2339">put(Coordinate, Token)</text><polygon fill="#4177AF" points="235,451.8281,231,457.8281,239,457.8281" style="stroke: #1963A0; stroke-width: 1.0;"/><text fill="#000000" font-family="sans-serif" font-size="11" lengthAdjust="spacingAndGlyphs" textLength="172" x="244" y="459.0386">move(Coordinate, Coordinate)</text><rect fill="#F24D5C" height="6" style="stroke: #C82930; stroke-width: 1.0;" width="6" x="232" y="465.6328"/><text fill="#000000" font-family="sans-serif" font-size="11" lengthAdjust="spacingAndGlyphs" textLength="115" x="244" y="471.8433">remove(Coordinate)</text><polygon fill="#4177AF" points="235,477.4375,231,483.4375,239,483.4375" style="stroke: #1963A0; stroke-width: 1.0;"/><text fill="#000000" font-family="sans-serif" font-size="11" lengthAdjust="spacingAndGlyphs" textLength="227" x="244" y="484.6479">isOccupied(Coordinate, Token): boolean</text><polygon fill="#4177AF" points="235,490.2422,231,496.2422,239,496.2422" style="stroke: #1963A0; stroke-width: 1.0;"/><text fill="#000000" font-family="sans-serif" font-size="11" lengthAdjust="spacingAndGlyphs" textLength="168" x="244" y="497.4526">isEmpty(Coordinate): boolean</text><polygon fill="#4177AF" points="235,503.0469,231,509.0469,239,509.0469" style="stroke: #1963A0; stroke-width: 1.0;"/><text fill="#000000" font-family="sans-serif" font-size="11" lengthAdjust="spacingAndGlyphs" textLength="163" x="244" y="510.2573">isTicTacToe(Token): boolean</text><rect fill="#F24D5C" height="6" style="stroke: #C82930; stroke-width: 1.0;" width="6" x="232" y="516.8516"/><text fill="#000000" font-family="sans-serif" font-size="11" lengthAdjust="spacingAndGlyphs" textLength="236" x="244" y="523.062">getCoordinates(Token): List&lt;Coordinate&gt;</text><!--MD5=[55d70ecb9e3ba4786ec1f15d0b7dce13]
class tictactoe.models.Coordinate--><rect codeLine="20" fill="#FEFECE" filter="url(#fafvej4lz27km)" height="188.8516" id="tictactoe.models.Coordinate" style="stroke: #A80036; stroke-width: 1.5;" width="224" x="299" y="1110"/><ellipse cx="373.75" cy="1126" fill="#ADD1B2" rx="11" ry="11" style="stroke: #A80036; stroke-width: 1.0;"/><path d="M376.0938,1121.6719 C375.1563,1121.2344 374.5625,1121.0938 373.6875,1121.0938 C371.0625,1121.0938 369.0625,1123.1719 369.0625,1125.8906 L369.0625,1127.0156 C369.0625,1129.5938 371.1719,1131.4844 374.0625,1131.4844 C375.2813,1131.4844 376.4375,1131.1875 377.1875,1130.6406 C377.7656,1130.2344 378.0938,1129.7813 378.0938,1129.3906 C378.0938,1128.9375 377.7031,1128.5469 377.2344,1128.5469 C377.0156,1128.5469 376.8125,1128.625 376.625,1128.8125 C376.1719,1129.2969 376.1719,1129.2969 375.9844,1129.3906 C375.5625,1129.6563 374.875,1129.7813 374.1094,1129.7813 C372.0625,1129.7813 370.7656,1128.6875 370.7656,1126.9844 L370.7656,1125.8906 C370.7656,1124.1094 372.0156,1122.7969 373.75,1122.7969 C374.3281,1122.7969 374.9375,1122.9531 375.4063,1123.2031 C375.8906,1123.4844 376.0625,1123.7031 376.1563,1124.1094 C376.2188,1124.5156 376.25,1124.6406 376.3906,1124.7656 C376.5313,1124.9063 376.7656,1125.0156 376.9844,1125.0156 C377.25,1125.0156 377.5156,1124.875 377.6875,1124.6563 C377.7969,1124.5 377.8281,1124.3125 377.8281,1123.8906 L377.8281,1122.4688 C377.8281,1122.0313 377.8125,1121.9063 377.7188,1121.75 C377.5625,1121.4844 377.2813,1121.3438 376.9844,1121.3438 C376.6875,1121.3438 376.4844,1121.4375 376.2656,1121.75 L376.0938,1121.6719 Z "/><text fill="#000000" font-family="sans-serif" font-size="12" lengthAdjust="spacingAndGlyphs" textLength="66" x="394.25" y="1130.1543">Coordinate</text><line style="stroke: #A80036; stroke-width: 1.5;" x1="300" x2="522" y1="1142" y2="1142"/><rect fill="none" height="6" style="stroke: #C82930; stroke-width: 1.0;" width="6" x="307" y="1150"/><text fill="#000000" font-family="sans-serif" font-size="11" lengthAdjust="spacingAndGlyphs" text-decoration="underline" textLength="178" x="319" y="1156.2104">NULL_COORDINATE; Coordinate</text><ellipse cx="310" cy="1165.8047" fill="none" rx="3" ry="3" style="stroke: #038048; stroke-width: 1.0;"/><text fill="#000000" font-family="sans-serif" font-size="11" lengthAdjust="spacingAndGlyphs" text-decoration="underline" textLength="85" x="319" y="1169.0151">DIMENSION: int</text><rect fill="none" height="6" style="stroke: #C82930; stroke-width: 1.0;" width="6" x="307" y="1175.6094"/><text fill="#000000" font-family="sans-serif" font-size="11" lengthAdjust="spacingAndGlyphs" text-decoration="underline" textLength="125" x="319" y="1181.8198">LIMITS: ClosedInterval</text><line style="stroke: #A80036; stroke-width: 1.5;" x1="300" x2="522" y1="1188.4141" y2="1188.4141"/><ellipse cx="310" cy="1199.4141" fill="#84BE84" rx="3" ry="3" style="stroke: #038048; stroke-width: 1.0;"/><text fill="#000000" font-family="sans-serif" font-size="11" lengthAdjust="spacingAndGlyphs" textLength="70" x="319" y="1202.6245">Coordinate()</text><ellipse cx="310" cy="1212.2188" fill="#84BE84" rx="3" ry="3" style="stroke: #038048; stroke-width: 1.0;"/><text fill="#000000" font-family="sans-serif" font-size="11" lengthAdjust="spacingAndGlyphs" textLength="105" x="319" y="1215.4292">Coordinate(int, int)</text><ellipse cx="310" cy="1225.0234" fill="#84BE84" rx="3" ry="3" style="stroke: #038048; stroke-width: 1.0;"/><text fill="#000000" font-family="sans-serif" font-size="11" lengthAdjust="spacingAndGlyphs" textLength="91" x="319" y="1228.2339">isNull(): boolean</text><ellipse cx="310" cy="1237.8281" fill="#84BE84" rx="3" ry="3" style="stroke: #038048; stroke-width: 1.0;"/><text fill="#000000" font-family="sans-serif" font-size="11" lengthAdjust="spacingAndGlyphs" textLength="78" x="319" y="1241.0386">isValid(): Error</text><ellipse cx="310" cy="1250.6328" fill="#84BE84" rx="3" ry="3" style="stroke: #038048; stroke-width: 1.0;"/><text fill="#000000" font-family="sans-serif" font-size="11" lengthAdjust="spacingAndGlyphs" textLength="198" x="319" y="1253.8433">getDirection(Coordinate): Direction</text><rect fill="#F24D5C" height="6" style="stroke: #C82930; stroke-width: 1.0;" width="6" x="307" y="1260.4375"/><text fill="#000000" font-family="sans-serif" font-size="11" lengthAdjust="spacingAndGlyphs" textLength="164" x="319" y="1266.6479">inInverseDiagonal(): boolean</text><ellipse cx="310" cy="1276.2422" fill="#84BE84" rx="3" ry="3" style="stroke: #038048; stroke-width: 1.0;"/><text fill="#000000" font-family="sans-serif" font-size="11" lengthAdjust="spacingAndGlyphs" textLength="51" x="319" y="1279.4526">random()</text><ellipse cx="310" cy="1289.0469" fill="#84BE84" rx="3" ry="3" style="stroke: #038048; stroke-width: 1.0;"/><text fill="#000000" font-family="sans-serif" font-size="11" lengthAdjust="spacingAndGlyphs" textLength="136" x="319" y="1292.2573">equals(Object): boolean</text><!--MD5=[f99d6ba965ae285bf04848666e285ab1]
class tictactoe.models.Token--><rect codeLine="82" fill="#FEFECE" filter="url(#fafvej4lz27km)" height="112.0234" id="tictactoe.models.Token" style="stroke: #A80036; stroke-width: 1.5;" width="117" x="107.5" y="1148.5"/><ellipse cx="144.1" cy="1164.5" fill="#EB937F" rx="11" ry="11" style="stroke: #A80036; stroke-width: 1.0;"/><path d="M142.8969,1165.375 L144.35,1165.375 L144.35,1165.4844 C144.35,1165.8906 144.3813,1166.0469 144.4594,1166.2031 C144.6156,1166.4531 144.8969,1166.6094 145.1938,1166.6094 C145.4438,1166.6094 145.7094,1166.4688 145.8656,1166.25 C145.9906,1166.0938 146.0219,1165.9375 146.0219,1165.4844 L146.0219,1163.5625 C146.0219,1163.4063 146.0219,1163.3594 146.0063,1163.2031 C145.9438,1162.7344 145.6313,1162.4219 145.1781,1162.4219 C144.9281,1162.4219 144.6625,1162.5625 144.4906,1162.7813 C144.3813,1162.9531 144.35,1163.1094 144.35,1163.5625 L144.35,1163.6875 L142.8969,1163.6875 L142.8969,1161.2813 L146.8813,1161.2813 L146.8813,1162.1406 C146.8813,1162.5469 146.9125,1162.7188 146.9906,1162.875 C147.1625,1163.125 147.4438,1163.2813 147.725,1163.2813 C147.9906,1163.2813 148.2563,1163.1406 148.4281,1162.9219 C148.5375,1162.75 148.5688,1162.6094 148.5688,1162.1406 L148.5688,1159.5938 L140.9438,1159.5938 C140.5063,1159.5938 140.3813,1159.6094 140.225,1159.7031 C139.975,1159.8594 139.8188,1160.1563 139.8188,1160.4375 C139.8188,1160.7188 139.9594,1160.9688 140.1781,1161.1406 C140.3344,1161.25 140.5219,1161.2813 140.9438,1161.2813 L141.1938,1161.2813 L141.1938,1167.7969 L140.9438,1167.7969 C140.5375,1167.7969 140.3813,1167.8125 140.225,1167.9219 C139.975,1168.0938 139.8188,1168.3594 139.8188,1168.6563 C139.8188,1168.9219 139.9594,1169.1719 140.1781,1169.3281 C140.3188,1169.4531 140.5531,1169.5 140.9438,1169.5 L148.9438,1169.5 L148.9438,1166.9219 C148.9438,1166.4844 148.9125,1166.3438 148.8344,1166.1875 C148.6625,1165.9375 148.3813,1165.7813 148.1,1165.7813 C147.8344,1165.7813 147.5688,1165.8906 147.3969,1166.1406 C147.2875,1166.2969 147.2563,1166.4375 147.2563,1166.9219 L147.2563,1167.7969 L142.8969,1167.7969 L142.8969,1165.375 Z "/><text fill="#000000" font-family="sans-serif" font-size="12" lengthAdjust="spacingAndGlyphs" textLength="37" x="162.9" y="1168.6543">Token</text><line style="stroke: #A80036; stroke-width: 1.5;" x1="108.5" x2="223.5" y1="1180.5" y2="1180.5"/><text fill="#000000" font-family="sans-serif" font-size="11" lengthAdjust="spacingAndGlyphs" textLength="8" x="113.5" y="1194.7104">X</text><text fill="#000000" font-family="sans-serif" font-size="11" lengthAdjust="spacingAndGlyphs" textLength="9" x="113.5" y="1207.5151">O</text><text fill="#000000" font-family="sans-serif" font-size="11" lengthAdjust="spacingAndGlyphs" textLength="28" x="113.5" y="1220.3198">NULL</text><line style="stroke: #A80036; stroke-width: 1.5;" x1="108.5" x2="223.5" y1="1226.9141" y2="1226.9141"/><ellipse cx="118.5" cy="1237.9141" fill="#84BE84" rx="3" ry="3" style="stroke: #038048; stroke-width: 1.0;"/><text fill="#000000" font-family="sans-serif" font-size="11" lengthAdjust="spacingAndGlyphs" textLength="91" x="127.5" y="1241.1245">isNull(): boolean</text><polygon fill="#4177AF" points="118.5,1246.7188,114.5,1252.7188,122.5,1252.7188" style="stroke: #1963A0; stroke-width: 1.0;"/><text fill="#000000" font-family="sans-serif" font-size="11" lengthAdjust="spacingAndGlyphs" text-decoration="underline" textLength="83" x="127.5" y="1253.9292">get(int): Token</text><!--MD5=[b42b9147ed7462532394f7fe6f96703d]
class tictactoe.models.Turn--><rect codeLine="92" fill="#FEFECE" filter="url(#fafvej4lz27km)" height="214.4609" id="tictactoe.models.Turn" style="stroke: #A80036; stroke-width: 1.5;" width="231" x="143.5" y="651"/><ellipse cx="241.75" cy="667" fill="#ADD1B2" rx="11" ry="11" style="stroke: #A80036; stroke-width: 1.0;"/><path d="M244.0938,662.6719 C243.1563,662.2344 242.5625,662.0938 241.6875,662.0938 C239.0625,662.0938 237.0625,664.1719 237.0625,666.8906 L237.0625,668.0156 C237.0625,670.5938 239.1719,672.4844 242.0625,672.4844 C243.2813,672.4844 244.4375,672.1875 245.1875,671.6406 C245.7656,671.2344 246.0938,670.7813 246.0938,670.3906 C246.0938,669.9375 245.7031,669.5469 245.2344,669.5469 C245.0156,669.5469 244.8125,669.625 244.625,669.8125 C244.1719,670.2969 244.1719,670.2969 243.9844,670.3906 C243.5625,670.6563 242.875,670.7813 242.1094,670.7813 C240.0625,670.7813 238.7656,669.6875 238.7656,667.9844 L238.7656,666.8906 C238.7656,665.1094 240.0156,663.7969 241.75,663.7969 C242.3281,663.7969 242.9375,663.9531 243.4063,664.2031 C243.8906,664.4844 244.0625,664.7031 244.1563,665.1094 C244.2188,665.5156 244.25,665.6406 244.3906,665.7656 C244.5313,665.9063 244.7656,666.0156 244.9844,666.0156 C245.25,666.0156 245.5156,665.875 245.6875,665.6563 C245.7969,665.5 245.8281,665.3125 245.8281,664.8906 L245.8281,663.4688 C245.8281,663.0313 245.8125,662.9063 245.7188,662.75 C245.5625,662.4844 245.2813,662.3438 244.9844,662.3438 C244.6875,662.3438 244.4844,662.4375 244.2656,662.75 L244.0938,662.6719 Z "/><text fill="#000000" font-family="sans-serif" font-size="12" lengthAdjust="spacingAndGlyphs" textLength="26" x="262.25" y="671.1543">Turn</text><line style="stroke: #A80036; stroke-width: 1.5;" x1="144.5" x2="373.5" y1="683" y2="683"/><rect fill="none" height="6" style="stroke: #C82930; stroke-width: 1.0;" width="6" x="151.5" y="691"/><text fill="#000000" font-family="sans-serif" font-size="11" lengthAdjust="spacingAndGlyphs" text-decoration="underline" textLength="101" x="163.5" y="697.2104">NUM_PLAYERS: int</text><rect fill="none" height="6" style="stroke: #C82930; stroke-width: 1.0;" width="6" x="151.5" y="703.8047"/><text fill="#000000" font-family="sans-serif" font-size="11" lengthAdjust="spacingAndGlyphs" textLength="92" x="163.5" y="710.0151">players: Player[]</text><rect fill="none" height="6" style="stroke: #C82930; stroke-width: 1.0;" width="6" x="151.5" y="716.6094"/><text fill="#000000" font-family="sans-serif" font-size="11" lengthAdjust="spacingAndGlyphs" textLength="72" x="163.5" y="722.8198">board: Board</text><rect fill="none" height="6" style="stroke: #C82930; stroke-width: 1.0;" width="6" x="151.5" y="729.4141"/><text fill="#000000" font-family="sans-serif" font-size="11" lengthAdjust="spacingAndGlyphs" textLength="56" x="163.5" y="735.6245">active: int</text><rect fill="none" height="6" style="stroke: #C82930; stroke-width: 1.0;" width="6" x="151.5" y="742.2188"/><text fill="#000000" font-family="sans-serif" font-size="11" lengthAdjust="spacingAndGlyphs" textLength="52" x="163.5" y="748.4292">users: int</text><line style="stroke: #A80036; stroke-width: 1.5;" x1="144.5" x2="373.5" y1="755.0234" y2="755.0234"/><polygon fill="#4177AF" points="154.5,762.0234,150.5,768.0234,158.5,768.0234" style="stroke: #1963A0; stroke-width: 1.0;"/><text fill="#000000" font-family="sans-serif" font-size="11" lengthAdjust="spacingAndGlyphs" textLength="66" x="163.5" y="769.2339">Turn(Board)</text><polygon fill="#4177AF" points="154.5,774.8281,150.5,780.8281,158.5,780.8281" style="stroke: #1963A0; stroke-width: 1.0;"/><text fill="#000000" font-family="sans-serif" font-size="11" lengthAdjust="spacingAndGlyphs" textLength="72" x="163.5" y="782.0386">setUsers(int)</text><polygon fill="#4177AF" points="154.5,787.6328,150.5,793.6328,158.5,793.6328" style="stroke: #1963A0; stroke-width: 1.0;"/><text fill="#000000" font-family="sans-serif" font-size="11" lengthAdjust="spacingAndGlyphs" textLength="34" x="163.5" y="794.8433">next()</text><polygon fill="#4177AF" points="154.5,800.4375,150.5,806.4375,158.5,806.4375" style="stroke: #1963A0; stroke-width: 1.0;"/><text fill="#000000" font-family="sans-serif" font-size="11" lengthAdjust="spacingAndGlyphs" textLength="96" x="163.5" y="807.6479">isUser(): boolean</text><polygon fill="#4177AF" points="154.5,813.2422,150.5,819.2422,158.5,819.2422" style="stroke: #1963A0; stroke-width: 1.0;"/><text fill="#000000" font-family="sans-serif" font-size="11" lengthAdjust="spacingAndGlyphs" textLength="121" x="163.5" y="820.4526">put(Coordinate): Error</text><rect fill="#F24D5C" height="6" style="stroke: #C82930; stroke-width: 1.0;" width="6" x="151.5" y="827.0469"/><text fill="#000000" font-family="sans-serif" font-size="11" lengthAdjust="spacingAndGlyphs" textLength="104" x="163.5" y="833.2573">getPlayer(): Player</text><polygon fill="#4177AF" points="154.5,838.8516,150.5,844.8516,158.5,844.8516" style="stroke: #1963A0; stroke-width: 1.0;"/><text fill="#000000" font-family="sans-serif" font-size="11" lengthAdjust="spacingAndGlyphs" textLength="205" x="163.5" y="846.062">move(Coordinate, Coordinate): Error</text><polygon fill="#4177AF" points="154.5,851.6563,150.5,857.6563,158.5,857.6563" style="stroke: #1963A0; stroke-width: 1.0;"/><text fill="#000000" font-family="sans-serif" font-size="11" lengthAdjust="spacingAndGlyphs" textLength="104" x="163.5" y="858.8667">getToken(): Token</text><!--MD5=[bb051b8e5b0ef95c5ce525ec83af3329]
class tictactoe.models.Error--><rect codeLine="39" fill="#FEFECE" filter="url(#fafvej4lz27km)" height="124.8281" id="tictactoe.models.Error" style="stroke: #A80036; stroke-width: 1.5;" width="145" x="110.5" y="1359"/><ellipse cx="163.75" cy="1375" fill="#EB937F" rx="11" ry="11" style="stroke: #A80036; stroke-width: 1.0;"/><path d="M162.5469,1375.875 L164,1375.875 L164,1375.9844 C164,1376.3906 164.0313,1376.5469 164.1094,1376.7031 C164.2656,1376.9531 164.5469,1377.1094 164.8438,1377.1094 C165.0938,1377.1094 165.3594,1376.9688 165.5156,1376.75 C165.6406,1376.5938 165.6719,1376.4375 165.6719,1375.9844 L165.6719,1374.0625 C165.6719,1373.9063 165.6719,1373.8594 165.6563,1373.7031 C165.5938,1373.2344 165.2813,1372.9219 164.8281,1372.9219 C164.5781,1372.9219 164.3125,1373.0625 164.1406,1373.2813 C164.0313,1373.4531 164,1373.6094 164,1374.0625 L164,1374.1875 L162.5469,1374.1875 L162.5469,1371.7813 L166.5313,1371.7813 L166.5313,1372.6406 C166.5313,1373.0469 166.5625,1373.2188 166.6406,1373.375 C166.8125,1373.625 167.0938,1373.7813 167.375,1373.7813 C167.6406,1373.7813 167.9063,1373.6406 168.0781,1373.4219 C168.1875,1373.25 168.2188,1373.1094 168.2188,1372.6406 L168.2188,1370.0938 L160.5938,1370.0938 C160.1563,1370.0938 160.0313,1370.1094 159.875,1370.2031 C159.625,1370.3594 159.4688,1370.6563 159.4688,1370.9375 C159.4688,1371.2188 159.6094,1371.4688 159.8281,1371.6406 C159.9844,1371.75 160.1719,1371.7813 160.5938,1371.7813 L160.8438,1371.7813 L160.8438,1378.2969 L160.5938,1378.2969 C160.1875,1378.2969 160.0313,1378.3125 159.875,1378.4219 C159.625,1378.5938 159.4688,1378.8594 159.4688,1379.1563 C159.4688,1379.4219 159.6094,1379.6719 159.8281,1379.8281 C159.9688,1379.9531 160.2031,1380 160.5938,1380 L168.5938,1380 L168.5938,1377.4219 C168.5938,1376.9844 168.5625,1376.8438 168.4844,1376.6875 C168.3125,1376.4375 168.0313,1376.2813 167.75,1376.2813 C167.4844,1376.2813 167.2188,1376.3906 167.0469,1376.6406 C166.9375,1376.7969 166.9063,1376.9375 166.9063,1377.4219 L166.9063,1378.2969 L162.5469,1378.2969 L162.5469,1375.875 Z "/><text fill="#000000" font-family="sans-serif" font-size="12" lengthAdjust="spacingAndGlyphs" textLength="30" x="184.25" y="1379.1543">Error</text><line style="stroke: #A80036; stroke-width: 1.5;" x1="111.5" x2="254.5" y1="1391" y2="1391"/><text fill="#000000" font-family="sans-serif" font-size="11" lengthAdjust="spacingAndGlyphs" textLength="66" x="116.5" y="1405.2104">NOT_EMPTY</text><text fill="#000000" font-family="sans-serif" font-size="11" lengthAdjust="spacingAndGlyphs" textLength="72" x="116.5" y="1418.0151">NOT_OWNER</text><text fill="#000000" font-family="sans-serif" font-size="11" lengthAdjust="spacingAndGlyphs" textLength="121" x="116.5" y="1430.8198">SAME_COORDINATES</text><text fill="#000000" font-family="sans-serif" font-size="11" lengthAdjust="spacingAndGlyphs" textLength="133" x="116.5" y="1443.6245">WRONG_COORDINATES</text><text fill="#000000" font-family="sans-serif" font-size="11" lengthAdjust="spacingAndGlyphs" textLength="71" x="116.5" y="1456.4292">NULL_ERROR</text><line style="stroke: #A80036; stroke-width: 1.5;" x1="111.5" x2="254.5" y1="1463.0234" y2="1463.0234"/><ellipse cx="121.5" cy="1474.0234" fill="#84BE84" rx="3" ry="3" style="stroke: #038048; stroke-width: 1.0;"/><text fill="#000000" font-family="sans-serif" font-size="11" lengthAdjust="spacingAndGlyphs" textLength="91" x="130.5" y="1477.2339">isNull(): boolean</text><!--MD5=[8d3188f3c370ea7d5d91d12bca83b67a]
class tictactoe.models.Game--><rect codeLine="48" fill="#FEFECE" filter="url(#fafvej4lz27km)" height="227.2656" id="tictactoe.models.Game" style="stroke: #A80036; stroke-width: 1.5;" width="231" x="155.5" y="41"/><ellipse cx="249.25" cy="57" fill="#ADD1B2" rx="11" ry="11" style="stroke: #A80036; stroke-width: 1.0;"/><path d="M251.5938,52.6719 C250.6563,52.2344 250.0625,52.0938 249.1875,52.0938 C246.5625,52.0938 244.5625,54.1719 244.5625,56.8906 L244.5625,58.0156 C244.5625,60.5938 246.6719,62.4844 249.5625,62.4844 C250.7813,62.4844 251.9375,62.1875 252.6875,61.6406 C253.2656,61.2344 253.5938,60.7813 253.5938,60.3906 C253.5938,59.9375 253.2031,59.5469 252.7344,59.5469 C252.5156,59.5469 252.3125,59.625 252.125,59.8125 C251.6719,60.2969 251.6719,60.2969 251.4844,60.3906 C251.0625,60.6563 250.375,60.7813 249.6094,60.7813 C247.5625,60.7813 246.2656,59.6875 246.2656,57.9844 L246.2656,56.8906 C246.2656,55.1094 247.5156,53.7969 249.25,53.7969 C249.8281,53.7969 250.4375,53.9531 250.9063,54.2031 C251.3906,54.4844 251.5625,54.7031 251.6563,55.1094 C251.7188,55.5156 251.75,55.6406 251.8906,55.7656 C252.0313,55.9063 252.2656,56.0156 252.4844,56.0156 C252.75,56.0156 253.0156,55.875 253.1875,55.6563 C253.2969,55.5 253.3281,55.3125 253.3281,54.8906 L253.3281,53.4688 C253.3281,53.0313 253.3125,52.9063 253.2188,52.75 C253.0625,52.4844 252.7813,52.3438 252.4844,52.3438 C252.1875,52.3438 251.9844,52.4375 251.7656,52.75 L251.5938,52.6719 Z "/><text fill="#000000" font-family="sans-serif" font-size="12" lengthAdjust="spacingAndGlyphs" textLength="35" x="269.75" y="61.1543">Game</text><line style="stroke: #A80036; stroke-width: 1.5;" x1="156.5" x2="385.5" y1="73" y2="73"/><rect fill="none" height="6" style="stroke: #C82930; stroke-width: 1.0;" width="6" x="163.5" y="81"/><text fill="#000000" font-family="sans-serif" font-size="11" lengthAdjust="spacingAndGlyphs" textLength="72" x="175.5" y="87.2104">board: Board</text><rect fill="none" height="6" style="stroke: #C82930; stroke-width: 1.0;" width="6" x="163.5" y="93.8047"/><text fill="#000000" font-family="sans-serif" font-size="11" lengthAdjust="spacingAndGlyphs" textLength="54" x="175.5" y="100.0151">turn: Turn</text><line style="stroke: #A80036; stroke-width: 1.5;" x1="156.5" x2="385.5" y1="106.6094" y2="106.6094"/><ellipse cx="166.5" cy="117.6094" fill="#84BE84" rx="3" ry="3" style="stroke: #038048; stroke-width: 1.0;"/><text fill="#000000" font-family="sans-serif" font-size="11" lengthAdjust="spacingAndGlyphs" textLength="43" x="175.5" y="120.8198">Game()</text><ellipse cx="166.5" cy="130.4141" fill="#84BE84" rx="3" ry="3" style="stroke: #038048; stroke-width: 1.0;"/><text fill="#000000" font-family="sans-serif" font-size="11" lengthAdjust="spacingAndGlyphs" textLength="72" x="175.5" y="133.6245">setUsers(int)</text><ellipse cx="166.5" cy="143.2188" fill="#84BE84" rx="3" ry="3" style="stroke: #038048; stroke-width: 1.0;"/><text fill="#000000" font-family="sans-serif" font-size="11" lengthAdjust="spacingAndGlyphs" textLength="159" x="175.5" y="146.4292">isBoardComplete(): boolean</text><ellipse cx="166.5" cy="156.0234" fill="#84BE84" rx="3" ry="3" style="stroke: #038048; stroke-width: 1.0;"/><text fill="#000000" font-family="sans-serif" font-size="11" lengthAdjust="spacingAndGlyphs" textLength="96" x="175.5" y="159.2339">isUser(): boolean</text><ellipse cx="166.5" cy="168.8281" fill="#84BE84" rx="3" ry="3" style="stroke: #038048; stroke-width: 1.0;"/><text fill="#000000" font-family="sans-serif" font-size="11" lengthAdjust="spacingAndGlyphs" textLength="121" x="175.5" y="172.0386">put(Coordinate): Error</text><ellipse cx="166.5" cy="181.6328" fill="#84BE84" rx="3" ry="3" style="stroke: #038048; stroke-width: 1.0;"/><text fill="#000000" font-family="sans-serif" font-size="11" lengthAdjust="spacingAndGlyphs" textLength="205" x="175.5" y="184.8433">move(Coordinate, Coordinate): Error</text><ellipse cx="166.5" cy="194.4375" fill="#84BE84" rx="3" ry="3" style="stroke: #038048; stroke-width: 1.0;"/><text fill="#000000" font-family="sans-serif" font-size="11" lengthAdjust="spacingAndGlyphs" textLength="34" x="175.5" y="197.6479">next()</text><ellipse cx="166.5" cy="207.2422" fill="#84BE84" rx="3" ry="3" style="stroke: #038048; stroke-width: 1.0;"/><text fill="#000000" font-family="sans-serif" font-size="11" lengthAdjust="spacingAndGlyphs" textLength="128" x="175.5" y="210.4526">isTicTacToe(): boolean</text><ellipse cx="166.5" cy="220.0469" fill="#84BE84" rx="3" ry="3" style="stroke: #038048; stroke-width: 1.0;"/><text fill="#000000" font-family="sans-serif" font-size="11" lengthAdjust="spacingAndGlyphs" textLength="166" x="175.5" y="223.2573">getToken(Coordinate): Token</text><ellipse cx="166.5" cy="232.8516" fill="#84BE84" rx="3" ry="3" style="stroke: #038048; stroke-width: 1.0;"/><text fill="#000000" font-family="sans-serif" font-size="11" lengthAdjust="spacingAndGlyphs" textLength="104" x="175.5" y="236.062">getToken(): Token</text><ellipse cx="166.5" cy="245.6563" fill="#84BE84" rx="3" ry="3" style="stroke: #038048; stroke-width: 1.0;"/><text fill="#000000" font-family="sans-serif" font-size="11" lengthAdjust="spacingAndGlyphs" textLength="112" x="175.5" y="248.8667">getMaxPlayers(): int</text><ellipse cx="166.5" cy="258.4609" fill="#84BE84" rx="3" ry="3" style="stroke: #038048; stroke-width: 1.0;"/><text fill="#000000" font-family="sans-serif" font-size="11" lengthAdjust="spacingAndGlyphs" textLength="38" x="175.5" y="261.6714">reset()</text><!--MD5=[3b54484399e9c5d8797124604fd4af65]
class tictactoe.models.Player--><rect codeLine="69" fill="#FEFECE" filter="url(#fafvej4lz27km)" height="124.8281" id="tictactoe.models.Player" style="stroke: #A80036; stroke-width: 1.5;" width="231" x="180.5" y="925"/><ellipse cx="273.75" cy="941" fill="#ADD1B2" rx="11" ry="11" style="stroke: #A80036; stroke-width: 1.0;"/><path d="M276.0938,936.6719 C275.1563,936.2344 274.5625,936.0938 273.6875,936.0938 C271.0625,936.0938 269.0625,938.1719 269.0625,940.8906 L269.0625,942.0156 C269.0625,944.5938 271.1719,946.4844 274.0625,946.4844 C275.2813,946.4844 276.4375,946.1875 277.1875,945.6406 C277.7656,945.2344 278.0938,944.7813 278.0938,944.3906 C278.0938,943.9375 277.7031,943.5469 277.2344,943.5469 C277.0156,943.5469 276.8125,943.625 276.625,943.8125 C276.1719,944.2969 276.1719,944.2969 275.9844,944.3906 C275.5625,944.6563 274.875,944.7813 274.1094,944.7813 C272.0625,944.7813 270.7656,943.6875 270.7656,941.9844 L270.7656,940.8906 C270.7656,939.1094 272.0156,937.7969 273.75,937.7969 C274.3281,937.7969 274.9375,937.9531 275.4063,938.2031 C275.8906,938.4844 276.0625,938.7031 276.1563,939.1094 C276.2188,939.5156 276.25,939.6406 276.3906,939.7656 C276.5313,939.9063 276.7656,940.0156 276.9844,940.0156 C277.25,940.0156 277.5156,939.875 277.6875,939.6563 C277.7969,939.5 277.8281,939.3125 277.8281,938.8906 L277.8281,937.4688 C277.8281,937.0313 277.8125,936.9063 277.7188,936.75 C277.5625,936.4844 277.2813,936.3438 276.9844,936.3438 C276.6875,936.3438 276.4844,936.4375 276.2656,936.75 L276.0938,936.6719 Z "/><text fill="#000000" font-family="sans-serif" font-size="12" lengthAdjust="spacingAndGlyphs" textLength="36" x="294.25" y="945.1543">Player</text><line style="stroke: #A80036; stroke-width: 1.5;" x1="181.5" x2="410.5" y1="957" y2="957"/><rect fill="none" height="6" style="stroke: #C82930; stroke-width: 1.0;" width="6" x="188.5" y="965"/><text fill="#000000" font-family="sans-serif" font-size="11" lengthAdjust="spacingAndGlyphs" textLength="74" x="200.5" y="971.2104">token: Token</text><rect fill="none" height="6" style="stroke: #C82930; stroke-width: 1.0;" width="6" x="188.5" y="977.8047"/><text fill="#000000" font-family="sans-serif" font-size="11" lengthAdjust="spacingAndGlyphs" textLength="72" x="200.5" y="984.0151">board: Board</text><line style="stroke: #A80036; stroke-width: 1.5;" x1="181.5" x2="410.5" y1="990.6094" y2="990.6094"/><polygon fill="#4177AF" points="191.5,997.6094,187.5,1003.6094,195.5,1003.6094" style="stroke: #1963A0; stroke-width: 1.0;"/><text fill="#000000" font-family="sans-serif" font-size="11" lengthAdjust="spacingAndGlyphs" textLength="118" x="200.5" y="1004.8198">Player(Token, Board)</text><polygon fill="#4177AF" points="191.5,1010.4141,187.5,1016.4141,195.5,1016.4141" style="stroke: #1963A0; stroke-width: 1.0;"/><text fill="#000000" font-family="sans-serif" font-size="11" lengthAdjust="spacingAndGlyphs" textLength="121" x="200.5" y="1017.6245">put(Coordinate): Error</text><polygon fill="#4177AF" points="191.5,1023.2188,187.5,1029.2188,195.5,1029.2188" style="stroke: #1963A0; stroke-width: 1.0;"/><text fill="#000000" font-family="sans-serif" font-size="11" lengthAdjust="spacingAndGlyphs" textLength="205" x="200.5" y="1030.4292">move(Coordinate, Coordinate): Error</text><polygon fill="#4177AF" points="191.5,1036.0234,187.5,1042.0234,195.5,1042.0234" style="stroke: #1963A0; stroke-width: 1.0;"/><text fill="#000000" font-family="sans-serif" font-size="11" lengthAdjust="spacingAndGlyphs" textLength="104" x="200.5" y="1043.2339">getToken(): Token</text><!--MD5=[63e92a92e730259d201bb8566c78f275]
class utils.Direction--><rect fill="#FEFECE" filter="url(#fafvej4lz27km)" height="48" id="utils.Direction" style="stroke: #A80036; stroke-width: 1.5;" width="86" x="1057" y="1397.5"/><ellipse cx="1072" cy="1413.5" fill="#ADD1B2" rx="11" ry="11" style="stroke: #A80036; stroke-width: 1.0;"/><path d="M1074.3438,1409.1719 C1073.4063,1408.7344 1072.8125,1408.5938 1071.9375,1408.5938 C1069.3125,1408.5938 1067.3125,1410.6719 1067.3125,1413.3906 L1067.3125,1414.5156 C1067.3125,1417.0938 1069.4219,1418.9844 1072.3125,1418.9844 C1073.5313,1418.9844 1074.6875,1418.6875 1075.4375,1418.1406 C1076.0156,1417.7344 1076.3438,1417.2813 1076.3438,1416.8906 C1076.3438,1416.4375 1075.9531,1416.0469 1075.4844,1416.0469 C1075.2656,1416.0469 1075.0625,1416.125 1074.875,1416.3125 C1074.4219,1416.7969 1074.4219,1416.7969 1074.2344,1416.8906 C1073.8125,1417.1563 1073.125,1417.2813 1072.3594,1417.2813 C1070.3125,1417.2813 1069.0156,1416.1875 1069.0156,1414.4844 L1069.0156,1413.3906 C1069.0156,1411.6094 1070.2656,1410.2969 1072,1410.2969 C1072.5781,1410.2969 1073.1875,1410.4531 1073.6563,1410.7031 C1074.1406,1410.9844 1074.3125,1411.2031 1074.4063,1411.6094 C1074.4688,1412.0156 1074.5,1412.1406 1074.6406,1412.2656 C1074.7813,1412.4063 1075.0156,1412.5156 1075.2344,1412.5156 C1075.5,1412.5156 1075.7656,1412.375 1075.9375,1412.1563 C1076.0469,1412 1076.0781,1411.8125 1076.0781,1411.3906 L1076.0781,1409.9688 C1076.0781,1409.5313 1076.0625,1409.4063 1075.9688,1409.25 C1075.8125,1408.9844 1075.5313,1408.8438 1075.2344,1408.8438 C1074.9375,1408.8438 1074.7344,1408.9375 1074.5156,1409.25 L1074.3438,1409.1719 Z "/><text fill="#000000" font-family="sans-serif" font-size="12" lengthAdjust="spacingAndGlyphs" textLength="54" x="1086" y="1417.6543">Direction</text><line style="stroke: #A80036; stroke-width: 1.5;" x1="1058" x2="1142" y1="1429.5" y2="1429.5"/><line style="stroke: #A80036; stroke-width: 1.5;" x1="1058" x2="1142" y1="1437.5" y2="1437.5"/><!--MD5=[d41a8529e1b5d253e0afeab11abf467e]
class utils.ConcreteCoordinate--><rect fill="#FEFECE" filter="url(#fafvej4lz27km)" height="48" id="utils.ConcreteCoordinate" style="stroke: #A80036; stroke-width: 1.5;" width="153" x="868.5" y="1397.5"/><ellipse cx="883.5" cy="1413.5" fill="#ADD1B2" rx="11" ry="11" style="stroke: #A80036; stroke-width: 1.0;"/><path d="M885.8438,1409.1719 C884.9063,1408.7344 884.3125,1408.5938 883.4375,1408.5938 C880.8125,1408.5938 878.8125,1410.6719 878.8125,1413.3906 L878.8125,1414.5156 C878.8125,1417.0938 880.9219,1418.9844 883.8125,1418.9844 C885.0313,1418.9844 886.1875,1418.6875 886.9375,1418.1406 C887.5156,1417.7344 887.8438,1417.2813 887.8438,1416.8906 C887.8438,1416.4375 887.4531,1416.0469 886.9844,1416.0469 C886.7656,1416.0469 886.5625,1416.125 886.375,1416.3125 C885.9219,1416.7969 885.9219,1416.7969 885.7344,1416.8906 C885.3125,1417.1563 884.625,1417.2813 883.8594,1417.2813 C881.8125,1417.2813 880.5156,1416.1875 880.5156,1414.4844 L880.5156,1413.3906 C880.5156,1411.6094 881.7656,1410.2969 883.5,1410.2969 C884.0781,1410.2969 884.6875,1410.4531 885.1563,1410.7031 C885.6406,1410.9844 885.8125,1411.2031 885.9063,1411.6094 C885.9688,1412.0156 886,1412.1406 886.1406,1412.2656 C886.2813,1412.4063 886.5156,1412.5156 886.7344,1412.5156 C887,1412.5156 887.2656,1412.375 887.4375,1412.1563 C887.5469,1412 887.5781,1411.8125 887.5781,1411.3906 L887.5781,1409.9688 C887.5781,1409.5313 887.5625,1409.4063 887.4688,1409.25 C887.3125,1408.9844 887.0313,1408.8438 886.7344,1408.8438 C886.4375,1408.8438 886.2344,1408.9375 886.0156,1409.25 L885.8438,1409.1719 Z "/><text fill="#000000" font-family="sans-serif" font-size="12" lengthAdjust="spacingAndGlyphs" textLength="121" x="897.5" y="1417.6543">ConcreteCoordinate</text><line style="stroke: #A80036; stroke-width: 1.5;" x1="869.5" x2="1020.5" y1="1429.5" y2="1429.5"/><line style="stroke: #A80036; stroke-width: 1.5;" x1="869.5" x2="1020.5" y1="1437.5" y2="1437.5"/><!--MD5=[1c2e2afe87d69baa60dd94a73d0524e3]
class utils.ClosedInterval--><rect fill="#FEFECE" filter="url(#fafvej4lz27km)" height="48" id="utils.ClosedInterval" style="stroke: #A80036; stroke-width: 1.5;" width="118" x="715" y="1397.5"/><ellipse cx="730" cy="1413.5" fill="#ADD1B2" rx="11" ry="11" style="stroke: #A80036; stroke-width: 1.0;"/><path d="M732.3438,1409.1719 C731.4063,1408.7344 730.8125,1408.5938 729.9375,1408.5938 C727.3125,1408.5938 725.3125,1410.6719 725.3125,1413.3906 L725.3125,1414.5156 C725.3125,1417.0938 727.4219,1418.9844 730.3125,1418.9844 C731.5313,1418.9844 732.6875,1418.6875 733.4375,1418.1406 C734.0156,1417.7344 734.3438,1417.2813 734.3438,1416.8906 C734.3438,1416.4375 733.9531,1416.0469 733.4844,1416.0469 C733.2656,1416.0469 733.0625,1416.125 732.875,1416.3125 C732.4219,1416.7969 732.4219,1416.7969 732.2344,1416.8906 C731.8125,1417.1563 731.125,1417.2813 730.3594,1417.2813 C728.3125,1417.2813 727.0156,1416.1875 727.0156,1414.4844 L727.0156,1413.3906 C727.0156,1411.6094 728.2656,1410.2969 730,1410.2969 C730.5781,1410.2969 731.1875,1410.4531 731.6563,1410.7031 C732.1406,1410.9844 732.3125,1411.2031 732.4063,1411.6094 C732.4688,1412.0156 732.5,1412.1406 732.6406,1412.2656 C732.7813,1412.4063 733.0156,1412.5156 733.2344,1412.5156 C733.5,1412.5156 733.7656,1412.375 733.9375,1412.1563 C734.0469,1412 734.0781,1411.8125 734.0781,1411.3906 L734.0781,1409.9688 C734.0781,1409.5313 734.0625,1409.4063 733.9688,1409.25 C733.8125,1408.9844 733.5313,1408.8438 733.2344,1408.8438 C732.9375,1408.8438 732.7344,1408.9375 732.5156,1409.25 L732.3438,1409.1719 Z "/><text fill="#000000" font-family="sans-serif" font-size="12" lengthAdjust="spacingAndGlyphs" textLength="86" x="744" y="1417.6543">ClosedInterval</text><line style="stroke: #A80036; stroke-width: 1.5;" x1="716" x2="832" y1="1429.5" y2="1429.5"/><line style="stroke: #A80036; stroke-width: 1.5;" x1="716" x2="832" y1="1437.5" y2="1437.5"/><!--MD5=[6c70c0f5d22b0d421fe766e144384ba2]
class java.util.Random--><rect fill="#FEFECE" filter="url(#fafvej4lz27km)" height="48" id="java.util.Random" style="stroke: #A80036; stroke-width: 1.5;" width="80" x="579" y="1397.5"/><ellipse cx="594" cy="1413.5" fill="#ADD1B2" rx="11" ry="11" style="stroke: #A80036; stroke-width: 1.0;"/><path d="M596.3438,1409.1719 C595.4063,1408.7344 594.8125,1408.5938 593.9375,1408.5938 C591.3125,1408.5938 589.3125,1410.6719 589.3125,1413.3906 L589.3125,1414.5156 C589.3125,1417.0938 591.4219,1418.9844 594.3125,1418.9844 C595.5313,1418.9844 596.6875,1418.6875 597.4375,1418.1406 C598.0156,1417.7344 598.3438,1417.2813 598.3438,1416.8906 C598.3438,1416.4375 597.9531,1416.0469 597.4844,1416.0469 C597.2656,1416.0469 597.0625,1416.125 596.875,1416.3125 C596.4219,1416.7969 596.4219,1416.7969 596.2344,1416.8906 C595.8125,1417.1563 595.125,1417.2813 594.3594,1417.2813 C592.3125,1417.2813 591.0156,1416.1875 591.0156,1414.4844 L591.0156,1413.3906 C591.0156,1411.6094 592.2656,1410.2969 594,1410.2969 C594.5781,1410.2969 595.1875,1410.4531 595.6563,1410.7031 C596.1406,1410.9844 596.3125,1411.2031 596.4063,1411.6094 C596.4688,1412.0156 596.5,1412.1406 596.6406,1412.2656 C596.7813,1412.4063 597.0156,1412.5156 597.2344,1412.5156 C597.5,1412.5156 597.7656,1412.375 597.9375,1412.1563 C598.0469,1412 598.0781,1411.8125 598.0781,1411.3906 L598.0781,1409.9688 C598.0781,1409.5313 598.0625,1409.4063 597.9688,1409.25 C597.8125,1408.9844 597.5313,1408.8438 597.2344,1408.8438 C596.9375,1408.8438 596.7344,1408.9375 596.5156,1409.25 L596.3438,1409.1719 Z "/><text fill="#000000" font-family="sans-serif" font-size="12" lengthAdjust="spacingAndGlyphs" textLength="48" x="608" y="1417.6543">Random</text><line style="stroke: #A80036; stroke-width: 1.5;" x1="580" x2="658" y1="1429.5" y2="1429.5"/><line style="stroke: #A80036; stroke-width: 1.5;" x1="580" x2="658" y1="1437.5" y2="1437.5"/><!--MD5=[9415c0c61774263745e2cedb44e639c6]
link tictactoe.models.Board to tictactoe.models.Coordinate--><path codeLine="15" d="M396.0272,541.6699 C396.0272,541.6699 405.554,574.533 409,590 C453.612,790.231 470.576,846.218 447,1050 C445.23,1065.295 442.5,1081.279 439.318,1096.912 " fill="none" id="tictactoe.models.Board-tictactoe.models.Coordinate" style="stroke: #A80036; stroke-width: 1.0;"/><polygon fill="#A80036" points="436.549,1109.938,442.3328,1101.9663,437.5886,1105.0473,434.5077,1100.303,436.549,1109.938" style="stroke: #A80036; stroke-width: 1.0;"/><line style="stroke: #A80036; stroke-width: 1.0;" x1="437.5886" x2="439.2515" y1="1105.0473" y2="1097.222"/><polygon fill="#A80036" points="392.442,530.218,390.4173,537.139,396.0272,541.6699,398.0519,534.7489,392.442,530.218" style="stroke: #A80036; stroke-width: 1.0;"/><!--MD5=[4d767eb7856a0f3ee1c42783f4735c13]
link tictactoe.models.Board to tictactoe.models.Token--><path codeLine="16" d="M223.961,522.769 C184.9,557.994 146.949,601.67 126,651 C55.1374,817.867 110.324,1038.565 144.349,1143.337 " fill="none" id="tictactoe.models.Board-to-tictactoe.models.Token" style="stroke: #A80036; stroke-width: 1.0; stroke-dasharray: 7.0,7.0;"/><polygon fill="#A80036" points="145.953,1148.238,146.9548,1138.4402,144.3976,1143.4861,139.3517,1140.9289,145.953,1148.238" style="stroke: #A80036; stroke-width: 1.0;"/><!--MD5=[f07f4b28b1c2eb27f6b3ca96953c68ab]
link tictactoe.models.Board to tictactoe.models.Turn--><path codeLine="17" d="M313.681,530.333 C301.869,566.897 289.578,608.441 279.471,645.886 " fill="none" id="tictactoe.models.Board-to-tictactoe.models.Turn" style="stroke: #A80036; stroke-width: 1.0; stroke-dasharray: 7.0,7.0;"/><polygon fill="#A80036" points="278.123,650.904,284.3204,643.2495,279.4198,646.0751,276.5942,641.1745,278.123,650.904" style="stroke: #A80036; stroke-width: 1.0;"/><!--MD5=[11aca849becf2c66e9fb721656f4b409]
link tictactoe.models.Turn to tictactoe.models.Board--><path codeLine="109" d="M302.879,650.904 C314.791,613.845 326.986,572.28 336.799,535.287 " fill="none" id="tictactoe.models.Turn-to-tictactoe.models.Board" style="stroke: #A80036; stroke-width: 1.0; stroke-dasharray: 7.0,7.0;"/><polygon fill="#A80036" points="338.106,530.333,331.942,538.0145,336.8302,535.1675,339.6772,540.0557,338.106,530.333" style="stroke: #A80036; stroke-width: 1.0;"/><!--MD5=[1183b1fe88256d6abfae59cdbc015bea]
link tictactoe.models.Board to utils.Direction--><path codeLine="18" d="M486.025,458.78 C629.06,498.82 838,586.496 838,757 C838,757 838,757 838,988.5 C838,1080.813 1015.12,1313.366 1078.1,1393.142 " fill="none" id="tictactoe.models.Board-to-utils.Direction" style="stroke: #A80036; stroke-width: 1.0; stroke-dasharray: 7.0,7.0;"/><polygon fill="#A80036" points="1081.37,1397.276,1078.9328,1387.7334,1078.2718,1393.3515,1072.6537,1392.6905,1081.37,1397.276" style="stroke: #A80036; stroke-width: 1.0;"/><!--MD5=[f37f7155e0b343ca19a2f7bcf7c36d5d]
reverse link utils.ConcreteCoordinate to tictactoe.models.Coordinate--><path codeLine="33" d="M900.214,1385.145 C885.15,1374.336 867.873,1363.057 851,1354.5 C744.545,1300.513 614.118,1259.149 523.017,1233.856 " fill="none" id="utils.ConcreteCoordinate-backto-tictactoe.models.Coordinate" style="stroke: #A80036; stroke-width: 1.0;"/><polygon fill="none" points="904.856,1379.873,916.726,1397.426,896.5,1391.106,904.856,1379.873" style="stroke: #A80036; stroke-width: 1.0;"/><!--MD5=[8d0fac4aeefb55ab26fcf0097aded0dc]
link tictactoe.models.Coordinate to tictactoe.models.Error--><path codeLine="34" d="M311.659,1299.177 C291.521,1318.166 270.763,1337.741 251.954,1355.478 " fill="none" id="tictactoe.models.Coordinate-to-tictactoe.models.Error" style="stroke: #A80036; stroke-width: 1.0; stroke-dasharray: 7.0,7.0;"/><polygon fill="#A80036" points="248.219,1359,257.5117,1355.7371,251.8573,1355.5703,252.0241,1349.9159,248.219,1359" style="stroke: #A80036; stroke-width: 1.0;"/><!--MD5=[997516208723a80710191e814da7328e]
link tictactoe.models.Coordinate to utils.Direction--><path codeLine="35" d="M523.119,1231.67 C702.193,1273.527 1033.36,1351.203 1039,1354.5 C1055.48,1364.131 1070.14,1379.631 1080.96,1393.19 " fill="none" id="tictactoe.models.Coordinate-to-utils.Direction" style="stroke: #A80036; stroke-width: 1.0; stroke-dasharray: 7.0,7.0;"/><polygon fill="#A80036" points="1084.19,1397.327,1081.8061,1387.771,1081.1138,1393.3853,1075.4995,1392.693,1084.19,1397.327" style="stroke: #A80036; stroke-width: 1.0;"/><!--MD5=[cd6092758496fee9c1db762383678446]
link tictactoe.models.Coordinate to utils.ClosedInterval--><path codeLine="36" d="M523.176,1266.401 C570.5,1292.712 625.897,1324.333 675,1354.5 C695.444,1367.06 717.718,1381.81 735.951,1394.177 " fill="none" id="tictactoe.models.Coordinate-to-utils.ClosedInterval" style="stroke: #A80036; stroke-width: 1.0; stroke-dasharray: 7.0,7.0;"/><polygon fill="#A80036" points="740.496,1397.267,735.3017,1388.8992,736.361,1394.456,730.8042,1395.5153,740.496,1397.267" style="stroke: #A80036; stroke-width: 1.0;"/><!--MD5=[02a5e0cbda321227fb745cf81ac775a1]
link tictactoe.models.Coordinate to java.util.Random--><path codeLine="37" d="M501.627,1299.177 C534.88,1333.549 569.988,1369.839 593.047,1393.673 " fill="none" id="tictactoe.models.Coordinate-to-java.util.Random" style="stroke: #A80036; stroke-width: 1.0; stroke-dasharray: 7.0,7.0;"/><polygon fill="#A80036" points="596.642,1397.389,593.2611,1388.1386,593.1662,1393.7947,587.5102,1393.6998,596.642,1397.389" style="stroke: #A80036; stroke-width: 1.0;"/><!--MD5=[b634369fa6e65a8dead148f8efc150f7]
link tictactoe.models.Game to tictactoe.models.Board--><path codeLine="64" d="M309.3062,279.7678 C309.3062,279.7678 316.743,303.89 320.236,315.23 " fill="none" id="tictactoe.models.Game-tictactoe.models.Board" style="stroke: #A80036; stroke-width: 1.0;"/><polygon fill="#A80036" points="324.146,327.91,325.3179,318.1311,322.6734,323.1318,317.6728,320.4873,324.146,327.91" style="stroke: #A80036; stroke-width: 1.0;"/><line style="stroke: #A80036; stroke-width: 1.0;" x1="322.6734" x2="320.316" y1="323.1318" y2="315.48"/><polygon fill="#A80036" points="305.772,268.3,303.7165,275.2119,309.3062,279.7678,311.3617,272.8558,305.772,268.3" style="stroke: #A80036; stroke-width: 1.0;"/><!--MD5=[aa5c2eaa34da3707c874f29e1edc60f9]
link tictactoe.models.Game to tictactoe.models.Turn--><path codeLine="65" d="M218.1702,279.8638 C218.1702,279.8638 208.828,312.47 206,328 C187.049,432.04 205.021,551.531 225.009,637.937 " fill="none" id="tictactoe.models.Game-tictactoe.models.Turn" style="stroke: #A80036; stroke-width: 1.0;"/><polygon fill="#A80036" points="228.033,650.707,229.8506,641.0273,226.8804,645.8417,222.066,642.8715,228.033,650.707" style="stroke: #A80036; stroke-width: 1.0;"/><line style="stroke: #A80036; stroke-width: 1.0;" x1="226.8804" x2="225.037" y1="645.8417" y2="638.057"/><polygon fill="#A80036" points="221.875,268.45,216.218,272.9219,218.1702,279.8638,223.8272,275.3918,221.875,268.45" style="stroke: #A80036; stroke-width: 1.0;"/><!--MD5=[3af71857b9ad654b2037bc7ee0d85849]
link tictactoe.models.Game to tictactoe.models.Coordinate--><path codeLine="66" d="M386.602,213.37 C430.713,241.65 476.679,280.04 503,328 C559.17,430.35 522,473.25 522,590 C522,590 522,590 522,759 C522,880.901 482.218,1016.155 450.286,1105.084 " fill="none" id="tictactoe.models.Game-to-tictactoe.models.Coordinate" style="stroke: #A80036; stroke-width: 1.0; stroke-dasharray: 7.0,7.0;"/><polygon fill="#A80036" points="448.58,1109.813,455.3975,1102.7052,450.2772,1105.1099,447.8725,1099.9896,448.58,1109.813" style="stroke: #A80036; stroke-width: 1.0;"/><!--MD5=[badadda7b228ca824d25e7b0fde4e902]
link tictactoe.models.Game to tictactoe.models.Error--><path codeLine="67" d="M168.685,268.12 C104.179,350.93 33,469.59 33,590 C33,590 33,590 33,988.5 C33,1127.374 9.4665,1173.064 68,1299 C77.4462,1319.324 91.6462,1338.434 106.876,1355.216 " fill="none" id="tictactoe.models.Game-to-tictactoe.models.Error" style="stroke: #A80036; stroke-width: 1.0; stroke-dasharray: 7.0,7.0;"/><polygon fill="#A80036" points="110.347,1358.984,107.1895,1349.655,106.9587,1355.3071,101.3065,1355.0763,110.347,1358.984" style="stroke: #A80036; stroke-width: 1.0;"/><!--MD5=[deb900ba4dab24d2621c91432ed3d5e7]
link tictactoe.models.Player to tictactoe.models.Token--><path codeLine="77" d="M252.5384,1060.379 C252.5384,1060.379 220.587,1113.221 206.025,1137.305 " fill="none" id="tictactoe.models.Player-tictactoe.models.Token" style="stroke: #A80036; stroke-width: 1.0;"/><polygon fill="#A80036" points="199.269,1148.479,207.3487,1142.8471,201.8561,1144.2003,200.5028,1138.7077,199.269,1148.479" style="stroke: #A80036; stroke-width: 1.0;"/><line style="stroke: #A80036; stroke-width: 1.0;" x1="201.8561" x2="205.995" y1="1144.2003" y2="1137.3545"/><polygon fill="#A80036" points="258.747,1050.11,252.2197,1053.175,252.5384,1060.379,259.0657,1057.3141,258.747,1050.11" style="stroke: #A80036; stroke-width: 1.0;"/><!--MD5=[4d61797189bd4e3921b05d5b1c2f3641]
link tictactoe.models.Player to tictactoe.models.Board--><path codeLine="78" d="M364.6953,915.27 C364.6953,915.27 386.001,882.268 392,865 C428.485,759.973 411.008,632.478 389.431,542.75 " fill="none" id="tictactoe.models.Player-tictactoe.models.Board" style="stroke: #A80036; stroke-width: 1.0;"/><polygon fill="#A80036" points="386.294,530.07,384.572,539.7671,387.4945,534.9237,392.3379,537.8463,386.294,530.07" style="stroke: #A80036; stroke-width: 1.0;"/><line style="stroke: #A80036; stroke-width: 1.0;" x1="387.4945" x2="389.416" y1="534.9237" y2="542.6895"/><polygon fill="#A80036" points="357.49,924.866,364.2913,922.4697,364.6953,915.27,357.894,917.6662,357.49,924.866" style="stroke: #A80036; stroke-width: 1.0;"/><!--MD5=[8c8274b143d2ce23d56b10c65f754674]
link tictactoe.models.Player to tictactoe.models.Coordinate--><path codeLine="79" d="M328.954,1050.11 C338.132,1067.269 348.337,1086.348 358.345,1105.059 " fill="none" id="tictactoe.models.Player-to-tictactoe.models.Coordinate" style="stroke: #A80036; stroke-width: 1.0; stroke-dasharray: 7.0,7.0;"/><polygon fill="#A80036" points="360.885,1109.806,360.1677,1099.9833,358.5269,1105.397,353.1133,1103.7562,360.885,1109.806" style="stroke: #A80036; stroke-width: 1.0;"/><!--MD5=[709a42eaa5216de862f5cc1ce89966cc]
link tictactoe.models.Player to tictactoe.models.Error--><path codeLine="80" d="M287.38,1050.051 C276.255,1126.9 256.597,1253.763 242,1299 C236.076,1317.359 227.867,1336.465 219.453,1353.943 " fill="none" id="tictactoe.models.Player-to-tictactoe.models.Error" style="stroke: #A80036; stroke-width: 1.0; stroke-dasharray: 7.0,7.0;"/><polygon fill="#A80036" points="217.076,1358.827,224.6118,1352.4857,219.2645,1354.3314,217.4188,1348.9841,217.076,1358.827" style="stroke: #A80036; stroke-width: 1.0;"/><!--MD5=[fe78848c52d09c9a0b5599373d0f0563]
link tictactoe.models.Token to utils.ClosedInterval--><path codeLine="90" d="M221.283,1260.533 C239.03,1275.277 259.655,1289.69 281,1299 C443.092,1369.7 509.745,1291.547 675,1354.5 C699.407,1363.798 723.854,1380.011 742.349,1394.04 " fill="none" id="tictactoe.models.Token-to-utils.ClosedInterval" style="stroke: #A80036; stroke-width: 1.0; stroke-dasharray: 7.0,7.0;"/><polygon fill="#A80036" points="746.44,1397.182,741.7386,1388.5277,742.4745,1394.1365,736.8658,1394.8724,746.44,1397.182" style="stroke: #A80036; stroke-width: 1.0;"/><!--MD5=[445ca9be6ac7acaf2fbd96fa00e05ee8]
link tictactoe.models.Turn to tictactoe.models.Player--><path codeLine="108" d="M278.1806,876.9343 C278.1806,876.9343 282.101,901.04 283.873,911.934 " fill="none" id="tictactoe.models.Turn-tictactoe.models.Player" style="stroke: #A80036; stroke-width: 1.0;"/><polygon fill="#A80036" points="285.985,924.921,288.4882,915.3956,285.1823,919.9859,280.592,916.6799,285.985,924.921" style="stroke: #A80036; stroke-width: 1.0;"/><line style="stroke: #A80036; stroke-width: 1.0;" x1="285.1823" x2="283.898" y1="919.9859" y2="912.0895"/><polygon fill="#A80036" points="276.254,865.09,273.2692,871.6544,278.1806,876.9343,281.1654,870.37,276.254,865.09" style="stroke: #A80036; stroke-width: 1.0;"/><!--MD5=[870db85c9eb6b495f5a4d2610449cf10]
link tictactoe.models.Turn to tictactoe.models.Token--><path codeLine="110" d="M186.849,865.247 C177.01,884.403 168.436,904.743 163,925 C143.385,998.1 148.878,1085.925 156.108,1143.14 " fill="none" id="tictactoe.models.Turn-to-tictactoe.models.Token" style="stroke: #A80036; stroke-width: 1.0; stroke-dasharray: 7.0,7.0;"/><polygon fill="#A80036" points="156.767,1148.236,159.5793,1138.7972,156.1256,1143.2773,151.6455,1139.8235,156.767,1148.236" style="stroke: #A80036; stroke-width: 1.0;"/><!--MD5=[48951ad2288b716169f812a2c734d472]
link tictactoe.models.Turn to tictactoe.models.Coordinate--><path codeLine="111" d="M374.898,846.944 C396.904,869.74 416.83,896.108 429,925 C452.734,981.347 448.695,1049.815 438.498,1104.762 " fill="none" id="tictactoe.models.Turn-to-tictactoe.models.Coordinate" style="stroke: #A80036; stroke-width: 1.0; stroke-dasharray: 7.0,7.0;"/><polygon fill="#A80036" points="437.558,1109.699,443.1717,1101.6066,438.4938,1104.7873,435.313,1100.1094,437.558,1109.699" style="stroke: #A80036; stroke-width: 1.0;"/><!--MD5=[f4cb97f0dbcbfd37e401f9f3bc47efc2]
link tictactoe.models.Turn to tictactoe.models.Error--><path codeLine="112" d="M176.338,865.13 C163.662,884.38 151.617,904.782 142,925 C105.314,1002.128 101.665,1025.392 90,1110 C78.5275,1193.213 63.0466,1219.442 90,1299 C96.6791,1318.715 107.983,1337.744 120.454,1354.66 " fill="none" id="tictactoe.models.Turn-to-tictactoe.models.Error" style="stroke: #A80036; stroke-width: 1.0; stroke-dasharray: 7.0,7.0;"/><polygon fill="#A80036" points="123.648,1358.914,121.4442,1349.3149,120.6464,1354.9152,115.0461,1354.1174,123.648,1358.914" style="stroke: #A80036; stroke-width: 1.0;"/><!--MD5=[b62c1e4f9f9b3bb33d2d9ad14a06926c]
@startuml
class  tictactoe.models.Board{
- tokens: Token[][]
~ Board()
~ reset()
~ getToken(Coordinate): Token
~ isCompleted(): boolean
~ put(Coordinate, Token)
~ move(Coordinate, Coordinate)
- remove(Coordinate)
~ isOccupied(Coordinate, Token): boolean
~ isEmpty(Coordinate): boolean
~ isTicTacToe(Token): boolean
- getCoordinates(Token): List<Coordinate>
}
tictactoe.models.Board *-down-> tictactoe.models.Coordinate
tictactoe.models.Board ..> tictactoe.models.Token
tictactoe.models.Board ..> tictactoe.models.Turn
tictactoe.models.Board ..> utils.Direction

class  tictactoe.models.Coordinate{
- {static} NULL_COORDINATE; Coordinate
+ {static} DIMENSION: int
- {static} LIMITS: ClosedInterval
+ Coordinate()
+ Coordinate(int, int)
+ isNull(): boolean
+ isValid(): Error
+ getDirection(Coordinate): Direction
- inInverseDiagonal(): boolean
+ random()
+ equals(Object): boolean
}
utils.ConcreteCoordinate <|-down- tictactoe.models.Coordinate
tictactoe.models.Coordinate ..> tictactoe.models.Error
tictactoe.models.Coordinate ..> utils.Direction
tictactoe.models.Coordinate ..> utils.ClosedInterval
tictactoe.models.Coordinate ..> java.util.Random

enum  tictactoe.models.Error{
NOT_EMPTY
NOT_OWNER
SAME_COORDINATES
WRONG_COORDINATES
NULL_ERROR
+ isNull(): boolean
}

class  tictactoe.models.Game{
- board: Board
- turn: Turn
+ Game()
+ setUsers(int)
+ isBoardComplete(): boolean
+ isUser(): boolean
+ put(Coordinate): Error
+ move(Coordinate, Coordinate): Error
+ next()
+ isTicTacToe(): boolean
+ getToken(Coordinate): Token
+ getToken(): Token
+ getMaxPlayers(): int
+ reset()
}
tictactoe.models.Game *-down-> tictactoe.models.Board
tictactoe.models.Game *-down-> tictactoe.models.Turn
tictactoe.models.Game ..> tictactoe.models.Coordinate
tictactoe.models.Game ..> tictactoe.models.Error

class  tictactoe.models.Player{
- token: Token
- board: Board
~ Player(Token, Board)
~ put(Coordinate): Error
~ move(Coordinate, Coordinate): Error
~ getToken(): Token
}
tictactoe.models.Player *-down-> tictactoe.models.Token
tictactoe.models.Player *-down-> tictactoe.models.Board
tictactoe.models.Player ..> tictactoe.models.Coordinate
tictactoe.models.Player ..> tictactoe.models.Error

enum  tictactoe.models.Token{
X
O
NULL
+ isNull(): boolean
~ {static} get(int): Token
}

tictactoe.models.Token ..> utils.ClosedInterval

class  tictactoe.models.Turn{
- {static} NUM_PLAYERS: int
- players: Player[]
- board: Board
- active: int
- users: int
~ Turn(Board)
~ setUsers(int)
~ next()
~ isUser(): boolean
~ put(Coordinate): Error
- getPlayer(): Player
~ move(Coordinate, Coordinate): Error
~ getToken(): Token
}

tictactoe.models.Turn *-down-> tictactoe.models.Player
tictactoe.models.Turn ..down-> tictactoe.models.Board
tictactoe.models.Turn ..down-> tictactoe.models.Token
tictactoe.models.Turn ..down-> tictactoe.models.Coordinate
tictactoe.models.Turn ..down-> tictactoe.models.Error
@enduml

PlantUML version 1.2020.20beta4(Unknown compile time)
(GPL source distribution)
Java Runtime: Java(TM) SE Runtime Environment
JVM: Java HotSpot(TM) 64-Bit Server VM
Default Encoding: UTF-8
Language: en
Country: US
--></g></svg>