<?xml version="1.0" encoding="UTF-8" standalone="no"?><svg xmlns="http://www.w3.org/2000/svg" xmlns:xlink="http://www.w3.org/1999/xlink" contentScriptType="application/ecmascript" contentStyleType="text/css" height="299px" preserveAspectRatio="none" style="width:354px;height:299px;" version="1.1" viewBox="0 0 354 299" width="354px" zoomAndPan="magnify"><defs><filter height="300%" id="fd8ej0t8ng1n0" width="300%" x="-1" y="-1"><feGaussianBlur result="blurOut" stdDeviation="2.0"/><feColorMatrix in="blurOut" result="blurOut2" type="matrix" values="0 0 0 0 0 0 0 0 0 0 0 0 0 0 0 0 0 0 .4 0"/><feOffset dx="4.0" dy="4.0" in="blurOut2" result="blurOut3"/><feBlend in="SourceGraphic" in2="blurOut3" mode="normal"/></filter></defs><g><!--MD5=[b59da53bc4cb019b9115ab51e8207bb0]
cluster usantatecla.tictactoe--><polygon fill="#FFFFFF" filter="url(#fd8ej0t8ng1n0)" points="68,6,253,6,260,28.2969,263,28.2969,263,169,68,169,68,6" style="stroke:#000000;stroke-width:1.5;"/><line style="stroke:#000000;stroke-width:1.5;" x1="68" x2="260" y1="28.2969" y2="28.2969"/><text fill="#000000" font-family="sans-serif" font-size="14" font-weight="bold" lengthAdjust="spacingAndGlyphs" textLength="179" x="72" y="20.9951">usantatecla.tictactoe</text><!--MD5=[51cd642fcc96b47682a93d9084d46dec]
cluster tictactoe.models--><polygon fill="#FFFFFF" filter="url(#fd8ej0t8ng1n0)" points="16,193,161,193,168,215.2969,171,215.2969,171,292,16,292,16,193" style="stroke:#000000;stroke-width:1.5;"/><line style="stroke:#000000;stroke-width:1.5;" x1="16" x2="168" y1="215.2969" y2="215.2969"/><text fill="#000000" font-family="sans-serif" font-size="14" font-weight="bold" lengthAdjust="spacingAndGlyphs" textLength="139" x="20" y="207.9951">tictactoe.models</text><!--MD5=[f4e83a21a957c5b9ba9691e6361db36b]
cluster tictactoe.views--><polygon fill="#FFFFFF" filter="url(#fd8ej0t8ng1n0)" points="195,193,327,193,334,215.2969,337,215.2969,337,292,195,292,195,193" style="stroke:#000000;stroke-width:1.5;"/><line style="stroke:#000000;stroke-width:1.5;" x1="195" x2="334" y1="215.2969" y2="215.2969"/><text fill="#000000" font-family="sans-serif" font-size="14" font-weight="bold" lengthAdjust="spacingAndGlyphs" textLength="126" x="199" y="207.9951">tictactoe.views</text><!--MD5=[4b5d579ecc4748d1b21f2fd6d497d353]
class usantatecla.tictactoe.TicTacToe--><rect codeLine="1" fill="#FEFECE" filter="url(#fd8ej0t8ng1n0)" height="112.0234" id="usantatecla.tictactoe.TicTacToe" style="stroke:#A80036;stroke-width:1.5;" width="103" x="113.5" y="41"/><ellipse cx="133" cy="57" fill="#ADD1B2" rx="11" ry="11" style="stroke:#A80036;stroke-width:1.0;"/><path d="M135.3438,52.6719 C134.4063,52.2344 133.8125,52.0938 132.9375,52.0938 C130.3125,52.0938 128.3125,54.1719 128.3125,56.8906 L128.3125,58.0156 C128.3125,60.5938 130.4219,62.4844 133.3125,62.4844 C134.5313,62.4844 135.6875,62.1875 136.4375,61.6406 C137.0156,61.2344 137.3438,60.7813 137.3438,60.3906 C137.3438,59.9375 136.9531,59.5469 136.4844,59.5469 C136.2656,59.5469 136.0625,59.625 135.875,59.8125 C135.4219,60.2969 135.4219,60.2969 135.2344,60.3906 C134.8125,60.6563 134.125,60.7813 133.3594,60.7813 C131.3125,60.7813 130.0156,59.6875 130.0156,57.9844 L130.0156,56.8906 C130.0156,55.1094 131.2656,53.7969 133,53.7969 C133.5781,53.7969 134.1875,53.9531 134.6563,54.2031 C135.1406,54.4844 135.3125,54.7031 135.4063,55.1094 C135.4688,55.5156 135.5,55.6406 135.6406,55.7656 C135.7813,55.9063 136.0156,56.0156 136.2344,56.0156 C136.5,56.0156 136.7656,55.875 136.9375,55.6563 C137.0469,55.5 137.0781,55.3125 137.0781,54.8906 L137.0781,53.4688 C137.0781,53.0313 137.0625,52.9063 136.9688,52.75 C136.8125,52.4844 136.5313,52.3438 136.2344,52.3438 C135.9375,52.3438 135.7344,52.4375 135.5156,52.75 L135.3438,52.6719 Z " fill="#000000"/><text fill="#000000" font-family="sans-serif" font-size="12" lengthAdjust="spacingAndGlyphs" textLength="61" x="148" y="61.1543">TicTacToe</text><line style="stroke:#A80036;stroke-width:1.5;" x1="114.5" x2="215.5" y1="73" y2="73"/><rect fill="none" height="6" style="stroke:#C82930;stroke-width:1.0;" width="6" x="121.5" y="81"/><text fill="#000000" font-family="sans-serif" font-size="11" lengthAdjust="spacingAndGlyphs" textLength="75" x="133.5" y="87.2104">game: Game</text><rect fill="none" height="6" style="stroke:#C82930;stroke-width:1.0;" width="6" x="121.5" y="93.8047"/><text fill="#000000" font-family="sans-serif" font-size="11" lengthAdjust="spacingAndGlyphs" textLength="62" x="133.5" y="100.0151">view: View</text><line style="stroke:#A80036;stroke-width:1.5;" x1="114.5" x2="215.5" y1="106.6094" y2="106.6094"/><polygon fill="#4177AF" points="124.5,113.6094,120.5,119.6094,128.5,119.6094" style="stroke:#1963A0;stroke-width:1.0;"/><text fill="#000000" font-family="sans-serif" font-size="11" lengthAdjust="spacingAndGlyphs" textLength="66" x="133.5" y="120.8198">TicTacToe()</text><rect fill="#F24D5C" height="6" style="stroke:#C82930;stroke-width:1.0;" width="6" x="121.5" y="127.4141"/><text fill="#000000" font-family="sans-serif" font-size="11" lengthAdjust="spacingAndGlyphs" textLength="32" x="133.5" y="133.6245">play()</text><ellipse cx="124.5" cy="143.2188" fill="#84BE84" rx="3" ry="3" style="stroke:#038048;stroke-width:1.0;"/><text fill="#000000" font-family="sans-serif" font-size="11" lengthAdjust="spacingAndGlyphs" textLength="77" x="133.5" y="146.4292">main(String[])</text><!--MD5=[8d3188f3c370ea7d5d91d12bca83b67a]
class tictactoe.models.Game--><rect fill="#FEFECE" filter="url(#fd8ej0t8ng1n0)" height="48" id="tictactoe.models.Game" style="stroke:#A80036;stroke-width:1.5;" width="67" x="87.5" y="228"/><ellipse cx="102.5" cy="244" fill="#ADD1B2" rx="11" ry="11" style="stroke:#A80036;stroke-width:1.0;"/><path d="M104.8438,239.6719 C103.9063,239.2344 103.3125,239.0938 102.4375,239.0938 C99.8125,239.0938 97.8125,241.1719 97.8125,243.8906 L97.8125,245.0156 C97.8125,247.5938 99.9219,249.4844 102.8125,249.4844 C104.0313,249.4844 105.1875,249.1875 105.9375,248.6406 C106.5156,248.2344 106.8438,247.7813 106.8438,247.3906 C106.8438,246.9375 106.4531,246.5469 105.9844,246.5469 C105.7656,246.5469 105.5625,246.625 105.375,246.8125 C104.9219,247.2969 104.9219,247.2969 104.7344,247.3906 C104.3125,247.6563 103.625,247.7813 102.8594,247.7813 C100.8125,247.7813 99.5156,246.6875 99.5156,244.9844 L99.5156,243.8906 C99.5156,242.1094 100.7656,240.7969 102.5,240.7969 C103.0781,240.7969 103.6875,240.9531 104.1563,241.2031 C104.6406,241.4844 104.8125,241.7031 104.9063,242.1094 C104.9688,242.5156 105,242.6406 105.1406,242.7656 C105.2813,242.9063 105.5156,243.0156 105.7344,243.0156 C106,243.0156 106.2656,242.875 106.4375,242.6563 C106.5469,242.5 106.5781,242.3125 106.5781,241.8906 L106.5781,240.4688 C106.5781,240.0313 106.5625,239.9063 106.4688,239.75 C106.3125,239.4844 106.0313,239.3438 105.7344,239.3438 C105.4375,239.3438 105.2344,239.4375 105.0156,239.75 L104.8438,239.6719 Z " fill="#000000"/><text fill="#000000" font-family="sans-serif" font-size="12" lengthAdjust="spacingAndGlyphs" textLength="35" x="116.5" y="248.1543">Game</text><line style="stroke:#A80036;stroke-width:1.5;" x1="88.5" x2="153.5" y1="260" y2="260"/><line style="stroke:#A80036;stroke-width:1.5;" x1="88.5" x2="153.5" y1="268" y2="268"/><!--MD5=[015754420c4cdd9bacda884b3fa8c6ca]
class tictactoe.views.View--><rect fill="#FEFECE" filter="url(#fd8ej0t8ng1n0)" height="48" id="tictactoe.views.View" style="stroke:#A80036;stroke-width:1.5;" width="61" x="211.5" y="228"/><ellipse cx="226.5" cy="244" fill="#ADD1B2" rx="11" ry="11" style="stroke:#A80036;stroke-width:1.0;"/><path d="M228.8438,239.6719 C227.9063,239.2344 227.3125,239.0938 226.4375,239.0938 C223.8125,239.0938 221.8125,241.1719 221.8125,243.8906 L221.8125,245.0156 C221.8125,247.5938 223.9219,249.4844 226.8125,249.4844 C228.0313,249.4844 229.1875,249.1875 229.9375,248.6406 C230.5156,248.2344 230.8438,247.7813 230.8438,247.3906 C230.8438,246.9375 230.4531,246.5469 229.9844,246.5469 C229.7656,246.5469 229.5625,246.625 229.375,246.8125 C228.9219,247.2969 228.9219,247.2969 228.7344,247.3906 C228.3125,247.6563 227.625,247.7813 226.8594,247.7813 C224.8125,247.7813 223.5156,246.6875 223.5156,244.9844 L223.5156,243.8906 C223.5156,242.1094 224.7656,240.7969 226.5,240.7969 C227.0781,240.7969 227.6875,240.9531 228.1563,241.2031 C228.6406,241.4844 228.8125,241.7031 228.9063,242.1094 C228.9688,242.5156 229,242.6406 229.1406,242.7656 C229.2813,242.9063 229.5156,243.0156 229.7344,243.0156 C230,243.0156 230.2656,242.875 230.4375,242.6563 C230.5469,242.5 230.5781,242.3125 230.5781,241.8906 L230.5781,240.4688 C230.5781,240.0313 230.5625,239.9063 230.4688,239.75 C230.3125,239.4844 230.0313,239.3438 229.7344,239.3438 C229.4375,239.3438 229.2344,239.4375 229.0156,239.75 L228.8438,239.6719 Z " fill="#000000"/><text fill="#000000" font-family="sans-serif" font-size="12" lengthAdjust="spacingAndGlyphs" textLength="29" x="240.5" y="248.1543">View</text><line style="stroke:#A80036;stroke-width:1.5;" x1="212.5" x2="271.5" y1="260" y2="260"/><line style="stroke:#A80036;stroke-width:1.5;" x1="212.5" x2="271.5" y1="268" y2="268"/><!--MD5=[96a85a8204e0ae89b3b64ac02d7a22e0]
link usantatecla.tictactoe.TicTacToe to tictactoe.models.Game--><path codeLine="8" d="M145.7987,164.7696 C145.7987,164.7696 135.552,200.399 131.309,215.1527 " fill="none" id="usantatecla.tictactoe.TicTacToe-tictactoe.models.Game" style="stroke:#A80036;stroke-width:1.0;"/><polygon fill="#A80036" points="127.671,227.8042,134.0028,220.2604,129.053,222.999,126.3144,218.0492,127.671,227.8042" style="stroke:#A80036;stroke-width:1.0;"/><line style="stroke:#A80036;stroke-width:1.0;" x1="129.053" x2="131.2635" y1="222.999" y2="215.3106"/><polygon fill="#A80036" points="149.115,153.237,143.6126,157.8979,145.7987,164.7696,151.3011,160.1088,149.115,153.237" style="stroke:#A80036;stroke-width:1.0;"/><!--MD5=[6e8c9a7acbd97bd46694dbe4d959a721]
link usantatecla.tictactoe.TicTacToe to tictactoe.views.View--><path codeLine="9" d="M198.194,163.9558 C198.194,163.9558 216.691,200.71 224.324,215.8772 " fill="none" id="usantatecla.tictactoe.TicTacToe-tictactoe.views.View" style="stroke:#A80036;stroke-width:1.0;"/><polygon fill="#A80036" points="230.326,227.8042,229.8528,217.9667,228.0781,223.338,222.7068,221.5633,230.326,227.8042" style="stroke:#A80036;stroke-width:1.0;"/><line style="stroke:#A80036;stroke-width:1.0;" x1="228.0781" x2="224.482" y1="223.338" y2="216.1919"/><polygon fill="#A80036" points="192.799,153.237,191.9236,160.3948,198.194,163.9558,199.0695,156.7981,192.799,153.237" style="stroke:#A80036;stroke-width:1.0;"/><!--MD5=[9cb61f9cbb80519513ce56c55d9294e6]
@startuml
class  usantatecla.tictactoe.TicTacToe{
- game: Game
- view: View
~ TicTacToe()
- play()
+ main(String[])
}
usantatecla.tictactoe.TicTacToe *-down-> tictactoe.models.Game
usantatecla.tictactoe.TicTacToe *-down-> tictactoe.views.View
@enduml

PlantUML version 1.2020.21beta7(Unknown compile time)
(GPL source distribution)
Java Runtime: Java(TM) SE Runtime Environment
JVM: Java HotSpot(TM) 64-Bit Server VM
Default Encoding: UTF-8
Language: en
Country: US
--></g></svg>