<?xml version="1.0" encoding="UTF-8" standalone="no"?><svg xmlns="http://www.w3.org/2000/svg" xmlns:xlink="http://www.w3.org/1999/xlink" contentScriptType="application/ecmascript" contentStyleType="text/css" height="2871px" preserveAspectRatio="none" style="width:1337px;height:2871px;background:#FFFFFF;" version="1.1" viewBox="0 0 1337 2871" width="1337px" zoomAndPan="magnify"><defs><filter height="300%" id="f1nzq7p12e49ol" width="300%" x="-1" y="-1"><feGaussianBlur result="blurOut" stdDeviation="2.0"/><feColorMatrix in="blurOut" result="blurOut2" type="matrix" values="0 0 0 0 0 0 0 0 0 0 0 0 0 0 0 0 0 0 .4 0"/><feOffset dx="4.0" dy="4.0" in="blurOut2" result="blurOut3"/><feBlend in="SourceGraphic" in2="blurOut3" mode="normal"/></filter></defs><g><text fill="#000000" font-family="sans-serif" font-size="18" lengthAdjust="spacing" textLength="259" x="532.585" y="18.6855">Secuencia versiones TicTacToe</text><!--MD5=[36b8a7bbb5f0395ae2e27563f70800ee]
cluster TicTacToe--><rect fill="#FEFECE" filter="url(#f1nzq7p12e49ol)" height="2652" rx="12.5" ry="12.5" style="stroke:#A80036;stroke-width:1.5;" width="1316" x="9.17" y="29.6406"/><rect fill="#FFFFFF" height="2618.3906" rx="12.5" ry="12.5" style="stroke:#FFFFFF;stroke-width:1.0;" width="1310" x="12.17" y="60.25"/><line style="stroke:#A80036;stroke-width:1.5;" x1="9.17" x2="1325.17" y1="57.25" y2="57.25"/><text fill="#000000" font-family="sans-serif" font-size="14" lengthAdjust="spacing" textLength="68" x="633.17" y="48.1738">TicTacToe</text><!--MD5=[f74145dbf3fdef62cf035b6662002a91]
cluster domainModel--><rect fill="#FEFECE" filter="url(#f1nzq7p12e49ol)" height="663.5" rx="12.5" ry="12.5" style="stroke:#A80036;stroke-width:1.5;" width="240" x="520.17" y="73.6406"/><rect fill="#FFFFFF" height="629.8906" rx="12.5" ry="12.5" style="stroke:#FFFFFF;stroke-width:1.0;" width="234" x="523.17" y="104.25"/><line style="stroke:#A80036;stroke-width:1.5;" x1="520.17" x2="760.17" y1="101.25" y2="101.25"/><text fill="#000000" font-family="sans-serif" font-size="14" lengthAdjust="spacing" textLength="84" x="598.17" y="92.1738">domainModel</text><!--MD5=[602cce8387db4a39bc3a26830f9fd514]
cluster modelViewPresenter--><rect fill="#FEFECE" filter="url(#f1nzq7p12e49ol)" height="2024" rx="12.5" ry="12.5" style="stroke:#A80036;stroke-width:1.5;" width="447" x="41.17" y="625.6406"/><rect fill="#FFFFFF" height="1990.3906" rx="12.5" ry="12.5" style="stroke:#FFFFFF;stroke-width:1.0;" width="441" x="44.17" y="656.25"/><line style="stroke:#A80036;stroke-width:1.5;" x1="41.17" x2="488.17" y1="653.25" y2="653.25"/><text fill="#000000" font-family="sans-serif" font-size="14" lengthAdjust="spacing" textLength="129" x="200.17" y="644.1738">modelViewPresenter</text><rect fill="#FEFECE" filter="url(#f1nzq7p12e49ol)" height="685.6094" rx="12.5" ry="12.5" style="stroke:#A80036;stroke-width:1.5;" width="530" x="779.17" y="336.6406"/><rect fill="#FFFFFF" height="652" rx="12.5" ry="12.5" style="stroke:#FFFFFF;stroke-width:1.0;" width="524" x="782.17" y="367.25"/><line style="stroke:#A80036;stroke-width:1.5;" x1="779.17" x2="1309.17" y1="364.25" y2="364.25"/><text fill="#000000" font-family="sans-serif" font-size="14" lengthAdjust="spacing" textLength="91" x="998.67" y="356.1738">documentView</text><ellipse cx="986.67" cy="385.25" fill="#000000" filter="url(#f1nzq7p12e49ol)" rx="10" ry="10" style="stroke:none;stroke-width:1.0;"/><g id="TicTacToe.documentView.dv.withPrototype"><rect fill="#ECEA58" filter="url(#f1nzq7p12e49ol)" height="82.8906" rx="12.5" ry="12.5" style="stroke:#A80036;stroke-width:1.5;" width="179" x="791.17" y="765.25"/><line style="stroke:#A80036;stroke-width:1.5;" x1="791.17" x2="970.17" y1="792.8594" y2="792.8594"/><text fill="#000000" font-family="sans-serif" font-size="14" lengthAdjust="spacing" textLength="104" x="828.67" y="784.7832">dv.withPrototype</text><text fill="#000000" font-family="sans-serif" font-size="12" lengthAdjust="spacing" textLength="159" x="796.17" y="810.3164">Desacoplar modelos y vistas</text><text fill="#000000" font-family="sans-serif" font-size="12" lengthAdjust="spacing" textLength="140" x="796.17" y="825.4102">de las clases empleando</text><text fill="#000000" font-family="sans-serif" font-size="12" lengthAdjust="spacing" textLength="102" x="796.17" y="840.5039">el patrón Prototype</text></g><g id="TicTacToe.documentView.dv.withDoubleDispatching"><rect fill="#ECEA58" filter="url(#f1nzq7p12e49ol)" height="82.8906" rx="12.5" ry="12.5" style="stroke:#A80036;stroke-width:1.5;" width="182" x="895.67" y="548.25"/><line style="stroke:#A80036;stroke-width:1.5;" x1="895.67" x2="1077.67" y1="575.8594" y2="575.8594"/><text fill="#000000" font-family="sans-serif" font-size="14" lengthAdjust="spacing" textLength="162" x="905.67" y="567.7832">dv.withDoubleDispatching</text><text fill="#000000" font-family="sans-serif" font-size="12" lengthAdjust="spacing" textLength="159" x="900.67" y="593.3164">Desacoplar modelos y vistas</text><text fill="#000000" font-family="sans-serif" font-size="12" lengthAdjust="spacing" textLength="140" x="900.67" y="608.4102">de las clases empleando</text><text fill="#000000" font-family="sans-serif" font-size="12" lengthAdjust="spacing" textLength="144" x="900.67" y="623.5039">el patrón Doble Despacho</text></g><g id="TicTacToe.documentView.dv.basic"><rect fill="#AF9EAF" filter="url(#f1nzq7p12e49ol)" height="97.9844" rx="12.5" ry="12.5" style="stroke:#A80036;stroke-width:1.5;" width="227" x="1023.17" y="432.25"/><line style="stroke:#A80036;stroke-width:1.5;" x1="1023.17" x2="1250.17" y1="459.8594" y2="459.8594"/><text fill="#000000" font-family="sans-serif" font-size="14" lengthAdjust="spacing" textLength="52" x="1110.67" y="451.7832">dv.basic</text><text fill="#000000" font-family="sans-serif" font-size="12" lengthAdjust="spacing" textLength="189" x="1028.17" y="477.3164">Clases Vistas de Texto separadas</text><text fill="#000000" font-family="sans-serif" font-size="12" lengthAdjust="spacing" textLength="205" x="1028.17" y="492.4102">de los Modelos del Dominio pero con</text><text fill="#000000" font-family="sans-serif" font-size="12" lengthAdjust="spacing" textLength="177" x="1028.17" y="507.5039">Modelos de grano grueso con el</text><text fill="#000000" font-family="sans-serif" font-size="12" lengthAdjust="spacing" textLength="207" x="1028.17" y="522.5977">advenimiento de nueva funcionalidad.</text></g><g id="TicTacToe.documentView.withoutFactoryMethod"><rect fill="#58ECEB" filter="url(#f1nzq7p12e49ol)" height="97.9844" rx="12.5" ry="12.5" style="stroke:#A80036;stroke-width:1.5;" width="263" x="1018.17" y="649.25"/><line style="stroke:#A80036;stroke-width:1.5;" x1="1018.17" x2="1281.17" y1="676.8594" y2="676.8594"/><text fill="#000000" font-family="sans-serif" font-size="14" lengthAdjust="spacing" textLength="139" x="1080.17" y="668.7832">withoutFactoryMethod</text><text fill="#000000" font-family="sans-serif" font-size="12" lengthAdjust="spacing" textLength="235" x="1023.17" y="694.3164">Clase Vistas de Interfaz Gráfica de Usuario</text><text fill="#000000" font-family="sans-serif" font-size="12" lengthAdjust="spacing" textLength="214" x="1023.17" y="709.4102">pero con DRY en Vistas de tecnologías</text><text fill="#000000" font-family="sans-serif" font-size="12" lengthAdjust="spacing" textLength="230" x="1023.17" y="724.5039">diferentes y con Modelos de grano grueso</text><text fill="#000000" font-family="sans-serif" font-size="12" lengthAdjust="spacing" textLength="243" x="1023.17" y="739.5977">con el advenimiento de nueva funcionalidad.</text></g><g id="TicTacToe.documentView.withFactoryMethod"><rect fill="#58ECEB" filter="url(#f1nzq7p12e49ol)" height="82.8906" rx="12.5" ry="12.5" style="stroke:#A80036;stroke-width:1.5;" width="279" x="1014.17" y="866.25"/><line style="stroke:#A80036;stroke-width:1.5;" x1="1014.17" x2="1293.17" y1="893.8594" y2="893.8594"/><text fill="#000000" font-family="sans-serif" font-size="14" lengthAdjust="spacing" textLength="119" x="1094.17" y="885.7832">withFactoryMethod</text><text fill="#000000" font-family="sans-serif" font-size="12" lengthAdjust="spacing" textLength="255" x="1019.17" y="911.3164">Clase Vista abstracta para Open/Close de sus</text><text fill="#000000" font-family="sans-serif" font-size="12" lengthAdjust="spacing" textLength="259" x="1019.17" y="926.4102">tecnologías pero con Modelos de grano grueso</text><text fill="#000000" font-family="sans-serif" font-size="12" lengthAdjust="spacing" textLength="243" x="1019.17" y="941.5039">con el advenimiento de nueva funcionalidad.</text></g><ellipse cx="985.67" cy="996.25" filter="url(#f1nzq7p12e49ol)" rx="10" ry="10" style="stroke:#000000;stroke-width:1.0;fill:none;"/><ellipse cx="986.17" cy="996.75" fill="#000000" rx="6" ry="6" style="stroke:none;stroke-width:1.0;"/><!--MD5=[15ace671faa81f2e260d5baaef884969]
link *start*documentView to dv.withPrototype--><path d="M980.92,393.44 C963.92,415.18 913.88,482.76 894.67,548.25 C873.65,619.9 874.07,707.47 876.93,759.82 " fill="none" id="*start*documentView-to-dv.withPrototype" style="stroke:#A80036;stroke-width:1.0;"/><polygon fill="#A80036" points="877.23,765.09,880.71,755.8765,876.9448,760.0981,872.7231,756.3329,877.23,765.09" style="stroke:#A80036;stroke-width:1.0;"/><!--MD5=[ce9ea9c685ac8b0dffcb77ef0583b518]
link *start*documentView to dv.withDoubleDispatching--><path d="M986.67,395.48 C986.67,421.08 986.67,494.34 986.67,542.94 " fill="none" id="*start*documentView-to-dv.withDoubleDispatching" style="stroke:#A80036;stroke-width:1.0;"/><polygon fill="#A80036" points="986.67,548.15,990.67,539.15,986.67,543.15,982.67,539.15,986.67,548.15" style="stroke:#A80036;stroke-width:1.0;"/><!--MD5=[69c00737c6cb8ae32fbd056dfd1d69c8]
link *start*documentView to dv.basic--><path d="M994.73,391.3 C1006.76,398.84 1030.64,413.8 1055.43,429.34 " fill="none" id="*start*documentView-to-dv.basic" style="stroke:#A80036;stroke-width:1.0;"/><polygon fill="#A80036" points="1059.74,432.04,1054.2354,423.873,1055.5024,429.3862,1049.9893,430.6532,1059.74,432.04" style="stroke:#A80036;stroke-width:1.0;"/><!--MD5=[9da31d68880a689a2cbecbe91d77e283]
link dv.basic to withoutFactoryMethod--><path d="M1139.59,530.5 C1141.63,564.25 1144.35,609.33 1146.46,644.11 " fill="none" id="dv.basic-to-withoutFactoryMethod" style="stroke:#A80036;stroke-width:1.0;"/><polygon fill="#A80036" points="1146.76,649.16,1150.1875,639.9268,1146.4463,644.1698,1142.2033,640.4287,1146.76,649.16" style="stroke:#A80036;stroke-width:1.0;"/><text fill="#000000" font-family="sans-serif" font-size="13" lengthAdjust="spacing" textLength="143" x="1146.67" y="595.2451">Mantenimiento perfectivo</text><!--MD5=[44919ee33113429d6b1c37cc254a4500]
link withoutFactoryMethod to withFactoryMethod--><path d="M1150.6,747.38 C1151.26,781.58 1152.14,827.24 1152.79,860.92 " fill="none" id="withoutFactoryMethod-to-withFactoryMethod" style="stroke:#A80036;stroke-width:1.0;"/><polygon fill="#A80036" points="1152.89,866.22,1156.7351,857.1528,1152.8043,861.2207,1148.7363,857.2899,1152.89,866.22" style="stroke:#A80036;stroke-width:1.0;"/><text fill="#000000" font-family="sans-serif" font-size="13" lengthAdjust="spacing" textLength="144" x="1153.67" y="812.2451">Mantenimiento correctivo</text><!--MD5=[afced52fc33ca989fa2a69a45c542e03]
link withFactoryMethod to *end*documentView--><path d="M1074.59,949.47 C1045.59,964.4 1015.81,979.73 999.13,988.32 " fill="none" id="withFactoryMethod-to-*end*documentView" style="stroke:#A80036;stroke-width:1.0;"/><polygon fill="#A80036" points="994.39,990.76,1004.2229,990.1996,998.8361,988.4726,1000.5631,983.0858,994.39,990.76" style="stroke:#A80036;stroke-width:1.0;"/><!--MD5=[fd86ecf3806e4c55a90eaa758ecd55ce]
link dv.withPrototype to *end*documentView--><path d="M903.45,848.43 C927.3,891.02 963.35,955.39 978.53,982.5 " fill="none" id="dv.withPrototype-to-*end*documentView" style="stroke:#A80036;stroke-width:1.0;"/><polygon fill="#A80036" points="981.11,987.11,980.2114,977.3022,978.6709,982.7453,973.2278,981.2048,981.11,987.11" style="stroke:#A80036;stroke-width:1.0;"/><!--MD5=[39f9814dc1398f8574a7f5b58df72865]
link dv.withDoubleDispatching to *end*documentView--><path d="M986.57,631.39 C986.35,719.52 985.84,924.8 985.71,980.88 " fill="none" id="dv.withDoubleDispatching-to-*end*documentView" style="stroke:#A80036;stroke-width:1.0;"/><polygon fill="#A80036" points="985.69,986.11,989.7157,977.1215,985.7043,981.11,981.7157,977.0986,985.69,986.11" style="stroke:#A80036;stroke-width:1.0;"/><ellipse cx="640.17" cy="119.6406" fill="#000000" filter="url(#f1nzq7p12e49ol)" rx="10" ry="10" style="stroke:none;stroke-width:1.0;"/><g id="TicTacToe.domainModel.dm.basic"><rect fill="#AF9EAF" filter="url(#f1nzq7p12e49ol)" height="67.7969" rx="12.5" ry="12.5" style="stroke:#A80036;stroke-width:1.5;" width="207" x="536.67" y="190.6406"/><line style="stroke:#A80036;stroke-width:1.5;" x1="536.67" x2="743.67" y1="218.25" y2="218.25"/><text fill="#000000" font-family="sans-serif" font-size="14" lengthAdjust="spacing" textLength="56" x="612.17" y="210.1738">dm.basic</text><text fill="#000000" font-family="sans-serif" font-size="12" lengthAdjust="spacing" textLength="173" x="541.67" y="235.707">Clases del modelo del dominio</text><text fill="#000000" font-family="sans-serif" font-size="12" lengthAdjust="spacing" textLength="187" x="541.67" y="250.8008">acopladas con interfaz de consola</text></g><g id="TicTacToe.domainModel.dm.machine"><rect fill="#ECEA58" filter="url(#f1nzq7p12e49ol)" height="82.8906" rx="12.5" ry="12.5" style="stroke:#A80036;stroke-width:1.5;" width="207" x="536.67" y="638.1406"/><line style="stroke:#A80036;stroke-width:1.5;" x1="536.67" x2="743.67" y1="665.75" y2="665.75"/><text fill="#000000" font-family="sans-serif" font-size="14" lengthAdjust="spacing" textLength="76" x="602.17" y="657.6738">dm.machine</text><text fill="#000000" font-family="sans-serif" font-size="12" lengthAdjust="spacing" textLength="173" x="541.67" y="683.207">Clases del modelo del dominio</text><text fill="#000000" font-family="sans-serif" font-size="12" lengthAdjust="spacing" textLength="187" x="541.67" y="698.3008">acopladas con interfaz de consola</text><text fill="#000000" font-family="sans-serif" font-size="12" lengthAdjust="spacing" textLength="173" x="541.67" y="713.3945">añadiendo un jugador máquina</text></g><ellipse cx="225.17" cy="679.6406" fill="#000000" filter="url(#f1nzq7p12e49ol)" rx="10" ry="10" style="stroke:none;stroke-width:1.0;"/><g id="TicTacToe.modelViewPresenter.passiveView"><rect fill="#AF9EAF" filter="url(#f1nzq7p12e49ol)" height="52.7031" rx="12.5" ry="12.5" style="stroke:#A80036;stroke-width:1.5;" width="119" x="86.67" y="1083.6406"/><line style="stroke:#A80036;stroke-width:1.5;" x1="86.67" x2="205.67" y1="1111.25" y2="1111.25"/><text fill="#000000" font-family="sans-serif" font-size="14" lengthAdjust="spacing" textLength="77" x="107.67" y="1103.1738">passiveView</text><text fill="#000000" font-family="sans-serif" font-size="12" lengthAdjust="spacing" textLength="99" x="91.67" y="1128.707">Baile de la Triada.</text></g><ellipse cx="264.17" cy="2615.6406" filter="url(#f1nzq7p12e49ol)" rx="10" ry="10" style="stroke:#000000;stroke-width:1.0;fill:none;"/><ellipse cx="264.67" cy="2616.1406" fill="#000000" rx="6" ry="6" style="stroke:none;stroke-width:1.0;"/><g id="TicTacToe.modelViewPresenter.supervisorController"><rect fill="#AF9EAF" filter="url(#f1nzq7p12e49ol)" height="52.7031" rx="12.5" ry="12.5" style="stroke:#A80036;stroke-width:1.5;" width="148" x="73.17" y="2491.6406"/><line style="stroke:#A80036;stroke-width:1.5;" x1="73.17" x2="221.17" y1="2519.25" y2="2519.25"/><text fill="#000000" font-family="sans-serif" font-size="14" lengthAdjust="spacing" textLength="128" x="83.17" y="2511.1738">supervisorController</text><text fill="#000000" font-family="sans-serif" font-size="12" lengthAdjust="spacing" textLength="99" x="78.17" y="2536.707">Baile de la Triada.</text></g><g id="TicTacToe.modelViewPresenter.modelViewController"><rect fill="#AF9EAF" filter="url(#f1nzq7p12e49ol)" height="52.7031" rx="12.5" ry="12.5" style="stroke:#A80036;stroke-width:1.5;" width="149" x="303.67" y="2491.6406"/><line style="stroke:#A80036;stroke-width:1.5;" x1="303.67" x2="452.67" y1="2519.25" y2="2519.25"/><text fill="#000000" font-family="sans-serif" font-size="14" lengthAdjust="spacing" textLength="129" x="313.67" y="2511.1738">modelViewController</text><text fill="#000000" font-family="sans-serif" font-size="12" lengthAdjust="spacing" textLength="99" x="308.67" y="2536.707">Baile de la Triada.</text></g><rect fill="#FEFECE" filter="url(#f1nzq7p12e49ol)" height="1295.3125" rx="12.5" ry="12.5" style="stroke:#A80036;stroke-width:1.5;" width="383" x="72.67" y="1166.6406"/><rect fill="#FFFFFF" height="1261.7031" rx="12.5" ry="12.5" style="stroke:#FFFFFF;stroke-width:1.0;" width="377" x="75.67" y="1197.25"/><line style="stroke:#A80036;stroke-width:1.5;" x1="72.67" x2="455.67" y1="1194.25" y2="1194.25"/><text fill="#000000" font-family="sans-serif" font-size="14" lengthAdjust="spacing" textLength="117" x="205.67" y="1186.1738">presentationModel</text><ellipse cx="262.17" cy="1215.25" fill="#000000" filter="url(#f1nzq7p12e49ol)" rx="10" ry="10" style="stroke:none;stroke-width:1.0;"/><g id="TicTacToe.modelViewPresenter.presentationModel.pm.basic"><rect fill="#58ECEB" filter="url(#f1nzq7p12e49ol)" height="82.8906" rx="12.5" ry="12.5" style="stroke:#A80036;stroke-width:1.5;" width="301" x="111.67" y="1261.25"/><line style="stroke:#A80036;stroke-width:1.5;" x1="111.67" x2="412.67" y1="1288.8594" y2="1288.8594"/><text fill="#000000" font-family="sans-serif" font-size="14" lengthAdjust="spacing" textLength="56" x="234.17" y="1280.7832">pm.basic</text><text fill="#000000" font-family="sans-serif" font-size="12" lengthAdjust="spacing" textLength="269" x="116.67" y="1306.3164">Clases Controladoras entre Vistas y Modelos por</text><text fill="#000000" font-family="sans-serif" font-size="12" lengthAdjust="spacing" textLength="279" x="116.67" y="1321.4102">cada Caso de Uso pero con la clase Principal y las</text><text fill="#000000" font-family="sans-serif" font-size="12" lengthAdjust="spacing" textLength="281" x="116.67" y="1336.5039">Vistas acopladas a cada controlador actual y futuro.</text></g><g id="TicTacToe.modelViewPresenter.presentationModel.withFacade"><rect fill="#58ECEB" filter="url(#f1nzq7p12e49ol)" height="67.7969" rx="12.5" ry="12.5" style="stroke:#A80036;stroke-width:1.5;" width="318" x="103.17" y="1380.25"/><line style="stroke:#A80036;stroke-width:1.5;" x1="103.17" x2="421.17" y1="1407.8594" y2="1407.8594"/><text fill="#000000" font-family="sans-serif" font-size="14" lengthAdjust="spacing" textLength="72" x="226.17" y="1399.7832">withFacade</text><text fill="#000000" font-family="sans-serif" font-size="12" lengthAdjust="spacing" textLength="298" x="108.17" y="1425.3164">Clase Lógica que encapsula Controladores y Modelos</text><text fill="#000000" font-family="sans-serif" font-size="12" lengthAdjust="spacing" textLength="269" x="108.17" y="1440.4102">pero con Vistas con DRY en la Lógica de Control.</text></g><g id="TicTacToe.modelViewPresenter.presentationModel.withoutDoubleDispatching"><rect fill="#58ECEB" filter="url(#f1nzq7p12e49ol)" height="82.8906" rx="12.5" ry="12.5" style="stroke:#A80036;stroke-width:1.5;" width="303" x="110.67" y="1484.25"/><line style="stroke:#A80036;stroke-width:1.5;" x1="110.67" x2="413.67" y1="1511.8594" y2="1511.8594"/><text fill="#000000" font-family="sans-serif" font-size="14" lengthAdjust="spacing" textLength="163" x="180.67" y="1503.7832">withoutDoubleDispatching</text><text fill="#000000" font-family="sans-serif" font-size="12" lengthAdjust="spacing" textLength="283" x="115.67" y="1529.3164">Clase Estado para la Inversión de Control de Vistas</text><text fill="#000000" font-family="sans-serif" font-size="12" lengthAdjust="spacing" textLength="282" x="115.67" y="1544.4102">a la Lógica pero violando el Principio de Sustitución</text><text fill="#000000" font-family="sans-serif" font-size="12" lengthAdjust="spacing" textLength="55" x="115.67" y="1559.5039">de Liskov.</text></g><g id="TicTacToe.modelViewPresenter.presentationModel.withDoubleDispatching"><rect fill="#58ECEB" filter="url(#f1nzq7p12e49ol)" height="67.7969" rx="12.5" ry="12.5" style="stroke:#A80036;stroke-width:1.5;" width="274" x="125.17" y="1603.25"/><line style="stroke:#A80036;stroke-width:1.5;" x1="125.17" x2="399.17" y1="1630.8594" y2="1630.8594"/><text fill="#000000" font-family="sans-serif" font-size="14" lengthAdjust="spacing" textLength="143" x="190.67" y="1622.7832">withDoubleDispatching</text><text fill="#000000" font-family="sans-serif" font-size="12" lengthAdjust="spacing" textLength="254" x="130.17" y="1648.3164">Clase Vistador de Controladores para Técnica</text><text fill="#000000" font-family="sans-serif" font-size="12" lengthAdjust="spacing" textLength="110" x="130.17" y="1663.4102">de Doble Despacho</text></g><g id="TicTacToe.modelViewPresenter.presentationModel.withComposite"><rect fill="#D80732" filter="url(#f1nzq7p12e49ol)" height="82.8906" rx="12.5" ry="12.5" style="stroke:#A80036;stroke-width:1.5;" width="310" x="107.17" y="1707.25"/><line style="stroke:#A80036;stroke-width:1.5;" x1="107.17" x2="417.17" y1="1734.8594" y2="1734.8594"/><text fill="#000000" font-family="sans-serif" font-size="14" lengthAdjust="spacing" textLength="91" x="216.67" y="1726.7832">withComposite</text><text fill="#000000" font-family="sans-serif" font-size="12" lengthAdjust="spacing" textLength="290" x="112.17" y="1752.3164">Clase Comando del menú y Controlador Compuesto</text><text fill="#000000" font-family="sans-serif" font-size="12" lengthAdjust="spacing" textLength="200" x="112.17" y="1767.4102">de ciertos Estados para Open/Close</text><text fill="#000000" font-family="sans-serif" font-size="12" lengthAdjust="spacing" textLength="149" x="112.17" y="1782.5039">con nuevos Casos de Uso.</text></g><g id="TicTacToe.modelViewPresenter.presentationModel.withoutProxy"><rect fill="#8958EC" filter="url(#f1nzq7p12e49ol)" height="82.8906" rx="12.5" ry="12.5" style="stroke:#A80036;stroke-width:1.5;" width="311" x="106.67" y="1826.25"/><line style="stroke:#A80036;stroke-width:1.5;" x1="106.67" x2="417.67" y1="1853.8594" y2="1853.8594"/><text fill="#000000" font-family="sans-serif" font-size="14" lengthAdjust="spacing" textLength="79" x="222.67" y="1845.7832">withoutProxy</text><text fill="#000000" font-family="sans-serif" font-size="12" lengthAdjust="spacing" textLength="246" x="111.67" y="1871.3164">Clase TCP/IP para tecnología de Despliegue</text><text fill="#000000" font-family="sans-serif" font-size="12" lengthAdjust="spacing" textLength="291" x="111.67" y="1886.4102">pero con Controladores acoplados, poco cohesivos y</text><text fill="#000000" font-family="sans-serif" font-size="12" lengthAdjust="spacing" textLength="226" x="111.67" y="1901.5039">grano grueso con cada nueva tecnología.</text></g><g id="TicTacToe.modelViewPresenter.presentationModel.withProxy"><rect fill="#8958EC" filter="url(#f1nzq7p12e49ol)" height="67.7969" rx="12.5" ry="12.5" style="stroke:#A80036;stroke-width:1.5;" width="260" x="132.17" y="1945.25"/><line style="stroke:#A80036;stroke-width:1.5;" x1="132.17" x2="392.17" y1="1972.8594" y2="1972.8594"/><text fill="#000000" font-family="sans-serif" font-size="14" lengthAdjust="spacing" textLength="59" x="232.67" y="1964.7832">withProxy</text><text fill="#000000" font-family="sans-serif" font-size="12" lengthAdjust="spacing" textLength="240" x="137.17" y="1990.3164">Clases Proxy para Open/Close para nuevas</text><text fill="#000000" font-family="sans-serif" font-size="12" lengthAdjust="spacing" textLength="151" x="137.17" y="2005.4102">tecnologías de Despliegue.</text></g><g id="TicTacToe.modelViewPresenter.presentationModel.withoutDAO"><rect fill="#EC9B58" filter="url(#f1nzq7p12e49ol)" height="97.9844" rx="12.5" ry="12.5" style="stroke:#A80036;stroke-width:1.5;" width="303" x="110.67" y="2049.25"/><line style="stroke:#A80036;stroke-width:1.5;" x1="110.67" x2="413.67" y1="2076.8594" y2="2076.8594"/><text fill="#000000" font-family="sans-serif" font-size="14" lengthAdjust="spacing" textLength="74" x="225.17" y="2068.7832">withoutDAO</text><text fill="#000000" font-family="sans-serif" font-size="12" lengthAdjust="spacing" textLength="268" x="115.67" y="2094.3164">Clases Vistas y Controladores para la tecnología</text><text fill="#000000" font-family="sans-serif" font-size="12" lengthAdjust="spacing" textLength="283" x="115.67" y="2109.4102">de persistencia pero con Modelos de grano grueso,</text><text fill="#000000" font-family="sans-serif" font-size="12" lengthAdjust="spacing" textLength="264" x="115.67" y="2124.5039">baja cohesión y alto acoplamiento a tecnologías</text><text fill="#000000" font-family="sans-serif" font-size="12" lengthAdjust="spacing" textLength="152" x="115.67" y="2139.5977">de persistencia de ficheros.</text></g><g id="TicTacToe.modelViewPresenter.presentationModel.withDAO"><rect fill="#EC9B58" filter="url(#f1nzq7p12e49ol)" height="52.7031" rx="12.5" ry="12.5" style="stroke:#A80036;stroke-width:1.5;" width="84" x="220.17" y="2183.25"/><line style="stroke:#A80036;stroke-width:1.5;" x1="220.17" x2="304.17" y1="2210.8594" y2="2210.8594"/><text fill="#000000" font-family="sans-serif" font-size="14" lengthAdjust="spacing" textLength="54" x="235.17" y="2202.7832">withDAO</text><text fill="#000000" font-family="sans-serif" font-size="12" lengthAdjust="spacing" textLength="64" x="225.17" y="2228.3164">Patrón DAO</text></g><g id="TicTacToe.modelViewPresenter.presentationModel.withoutPrototype"><rect fill="#75EC58" filter="url(#f1nzq7p12e49ol)" height="82.8906" rx="12.5" ry="12.5" style="stroke:#A80036;stroke-width:1.5;" width="303" x="110.67" y="2272.25"/><line style="stroke:#A80036;stroke-width:1.5;" x1="110.67" x2="413.67" y1="2299.8594" y2="2299.8594"/><text fill="#000000" font-family="sans-serif" font-size="14" lengthAdjust="spacing" textLength="105" x="209.67" y="2291.7832">withoutPrototype</text><text fill="#000000" font-family="sans-serif" font-size="12" lengthAdjust="spacing" textLength="260" x="115.67" y="2317.3164">Nuevas Vistas y DAOS para la nueva tecnología</text><text fill="#000000" font-family="sans-serif" font-size="12" lengthAdjust="spacing" textLength="283" x="115.67" y="2332.4102">pero con clase Principal acoplada a las tecnologías</text><text fill="#000000" font-family="sans-serif" font-size="12" lengthAdjust="spacing" textLength="187" x="115.67" y="2347.5039">actuales y futuras de persistencia.</text></g><g id="TicTacToe.modelViewPresenter.presentationModel.withPrototype"><rect fill="#75EC58" filter="url(#f1nzq7p12e49ol)" height="52.7031" rx="12.5" ry="12.5" style="stroke:#A80036;stroke-width:1.5;" width="355" x="84.67" y="2391.25"/><line style="stroke:#A80036;stroke-width:1.5;" x1="84.67" x2="439.67" y1="2418.8594" y2="2418.8594"/><text fill="#000000" font-family="sans-serif" font-size="14" lengthAdjust="spacing" textLength="85" x="219.67" y="2410.7832">withPrototype</text><text fill="#000000" font-family="sans-serif" font-size="12" lengthAdjust="spacing" textLength="335" x="89.67" y="2436.3164">Open/Close para arranque con configuración de persistencia</text></g><!--MD5=[40bb2b2387c4a99a3e059e75c42e5117]
link *start*presentationModel to pm.basic--><path d="M262.17,1225.4 C262.17,1233.01 262.17,1244.47 262.17,1256.21 " fill="none" id="*start*presentationModel-to-pm.basic" style="stroke:#A80036;stroke-width:1.0;"/><polygon fill="#A80036" points="262.17,1261.25,266.17,1252.25,262.17,1256.25,258.17,1252.25,262.17,1261.25" style="stroke:#A80036;stroke-width:1.0;"/><!--MD5=[bf9265fad6dc8b66ac377742150884cc]
link pm.basic to withFacade--><path d="M262.17,1344.52 C262.17,1354.47 262.17,1365.07 262.17,1374.89 " fill="none" id="pm.basic-to-withFacade" style="stroke:#A80036;stroke-width:1.0;"/><polygon fill="#A80036" points="262.17,1379.95,266.17,1370.95,262.17,1374.95,258.17,1370.95,262.17,1379.95" style="stroke:#A80036;stroke-width:1.0;"/><!--MD5=[c1c1d019b584ebff9b0ab735b7a104bf]
link withFacade to withoutDoubleDispatching--><path d="M262.17,1448.4 C262.17,1457.94 262.17,1468.53 262.17,1478.7 " fill="none" id="withFacade-to-withoutDoubleDispatching" style="stroke:#A80036;stroke-width:1.0;"/><polygon fill="#A80036" points="262.17,1483.97,266.17,1474.97,262.17,1478.97,258.17,1474.97,262.17,1483.97" style="stroke:#A80036;stroke-width:1.0;"/><!--MD5=[24430434a700be59a4ea8737a590c3a0]
link withoutDoubleDispatching to withDoubleDispatching--><path d="M262.17,1567.52 C262.17,1577.47 262.17,1588.07 262.17,1597.89 " fill="none" id="withoutDoubleDispatching-to-withDoubleDispatching" style="stroke:#A80036;stroke-width:1.0;"/><polygon fill="#A80036" points="262.17,1602.95,266.17,1593.95,262.17,1597.95,258.17,1593.95,262.17,1602.95" style="stroke:#A80036;stroke-width:1.0;"/><!--MD5=[ebde5cb072fda06263765320ca65a72d]
link withDoubleDispatching to withComposite--><path d="M262.17,1671.4 C262.17,1680.94 262.17,1691.53 262.17,1701.7 " fill="none" id="withDoubleDispatching-to-withComposite" style="stroke:#A80036;stroke-width:1.0;"/><polygon fill="#A80036" points="262.17,1706.97,266.17,1697.97,262.17,1701.97,258.17,1697.97,262.17,1706.97" style="stroke:#A80036;stroke-width:1.0;"/><!--MD5=[364a111cbf1770e45fc4a46e4bc788cf]
link withComposite to withoutProxy--><path d="M262.17,1790.34 C262.17,1800.23 262.17,1810.88 262.17,1821 " fill="none" id="withComposite-to-withoutProxy" style="stroke:#A80036;stroke-width:1.0;"/><polygon fill="#A80036" points="262.17,1826.23,266.17,1817.23,262.17,1821.23,258.17,1817.23,262.17,1826.23" style="stroke:#A80036;stroke-width:1.0;"/><!--MD5=[804380eee0a20e28f6a7d6f4d409b0b6]
link withoutProxy to withProxy--><path d="M262.17,1909.52 C262.17,1919.47 262.17,1930.07 262.17,1939.89 " fill="none" id="withoutProxy-to-withProxy" style="stroke:#A80036;stroke-width:1.0;"/><polygon fill="#A80036" points="262.17,1944.95,266.17,1935.95,262.17,1939.95,258.17,1935.95,262.17,1944.95" style="stroke:#A80036;stroke-width:1.0;"/><!--MD5=[46c2e9a9cf2ed7ef4643cd90e27fde7d]
link withProxy to withoutDAO--><path d="M262.17,2013.46 C262.17,2022.99 262.17,2033.61 262.17,2044.02 " fill="none" id="withProxy-to-withoutDAO" style="stroke:#A80036;stroke-width:1.0;"/><polygon fill="#A80036" points="262.17,2049.1,266.17,2040.1,262.17,2044.1,258.17,2040.1,262.17,2049.1" style="stroke:#A80036;stroke-width:1.0;"/><!--MD5=[a7820cc3926c5bdf33d2391d2dcbe981]
link withoutDAO to withDAO--><path d="M262.17,2147.28 C262.17,2157.65 262.17,2168.36 262.17,2177.87 " fill="none" id="withoutDAO-to-withDAO" style="stroke:#A80036;stroke-width:1.0;"/><polygon fill="#A80036" points="262.17,2183.02,266.17,2174.02,262.17,2178.02,258.17,2174.02,262.17,2183.02" style="stroke:#A80036;stroke-width:1.0;"/><!--MD5=[7209f87c7d947f14ae6c752067128db0]
link withDAO to withoutPrototype--><path d="M262.17,2236.49 C262.17,2245.72 262.17,2256.43 262.17,2266.85 " fill="none" id="withDAO-to-withoutPrototype" style="stroke:#A80036;stroke-width:1.0;"/><polygon fill="#A80036" points="262.17,2271.93,266.17,2262.93,262.17,2266.93,258.17,2262.93,262.17,2271.93" style="stroke:#A80036;stroke-width:1.0;"/><!--MD5=[800323b8fa4ad14057c5fe01900cd0da]
link withoutPrototype to withPrototype--><path d="M262.17,2355.36 C262.17,2365.57 262.17,2376.38 262.17,2386.02 " fill="none" id="withoutPrototype-to-withPrototype" style="stroke:#A80036;stroke-width:1.0;"/><polygon fill="#A80036" points="262.17,2391.25,266.17,2382.25,262.17,2386.25,258.17,2382.25,262.17,2391.25" style="stroke:#A80036;stroke-width:1.0;"/><!--MD5=[25c1e2767ff104f9b85cc84ef3eaf8ce]
link *start*domainModel to dm.basic--><path d="M640.17,129.7806 C640.17,142.2206 640.17,165.2306 640.17,185.3506 " fill="none" id="*start*domainModel-to-dm.basic" style="stroke:#A80036;stroke-width:1.0;"/><polygon fill="#A80036" points="640.17,190.4006,644.17,181.4006,640.17,185.4006,636.17,181.4006,640.17,190.4006" style="stroke:#A80036;stroke-width:1.0;"/><!--MD5=[a3a8ee6eba829037268435676db5e40d]
link dm.basic to dm.machine--><path d="M640.17,258.9506 C640.17,338.8606 640.17,541.5806 640.17,632.8606 " fill="none" id="dm.basic-to-dm.machine" style="stroke:#A80036;stroke-width:1.0;"/><polygon fill="#A80036" points="640.17,637.9106,644.17,628.9106,640.17,632.9106,636.17,628.9106,640.17,637.9106" style="stroke:#A80036;stroke-width:1.0;"/><!--MD5=[c042dfc1a72c4746314a0fdf7c3dca11]
link dm.basic to documentView--><path d="M678.4,258.6806 C702.59,280.1406 734.11,309.1406 760.17,336.6406 C765.24,341.9906 770.32,347.4106 775.42,352.9006 " fill="none" id="dm.basic-to-documentView" style="stroke:#A80036;stroke-width:1.0;"/><polygon fill="#A80036" points="778.95,356.7106,775.7515,347.3956,775.5456,353.0487,769.8924,352.8427,778.95,356.7106" style="stroke:#A80036;stroke-width:1.0;"/><text fill="#000000" font-family="sans-serif" font-size="13" lengthAdjust="spacing" textLength="144" x="729.17" y="303.1357">Mantenimiento correctivo</text><!--MD5=[183448bff6351d59b7383cbcaa7719a0]
link documentView to modelViewPresenter--><path d="M778.75,1009.5906 C772.62,1014.1106 766.43,1018.4606 760.17,1022.6406 C706.855,1058.2356 638.1925,1079.7456 582.205,1092.4131 C554.2113,1098.7469 529.3862,1102.87 511.2328,1105.4378 C502.1561,1106.7217 494.7473,1107.6168 489.4442,1108.205 C489.1127,1108.2417 488.7895,1108.2773 488.4746,1108.3117 " fill="none" id="documentView-to-modelViewPresenter" style="stroke:#A80036;stroke-width:1.0;"/><polygon fill="#A80036" points="488.4746,1108.3117,497.8556,1111.3111,493.4451,1107.7689,496.9873,1103.3584,488.4746,1108.3117" style="stroke:#A80036;stroke-width:1.0;"/><!--MD5=[7ae232c2aa7c3544a37d4b082554b4d9]
link *start*modelViewPresenter to presentationModel--><path d="M225.48,689.7606 C227.03,734.6406 234.07,938.9906 241.72,1161.3406 " fill="none" id="*start*modelViewPresenter-to-presentationModel" style="stroke:#A80036;stroke-width:1.0;"/><polygon fill="#A80036" points="241.91,1166.6006,245.5993,1157.4688,241.7387,1161.6036,237.604,1157.743,241.91,1166.6006" style="stroke:#A80036;stroke-width:1.0;"/><!--MD5=[0d987f3fce24ffc1b78bf8fe0017702d]
link *start*modelViewPresenter to passiveView--><path d="M223.52,689.5906 C214.21,740.0806 168.1,990.2106 151.85,1078.3406 " fill="none" id="*start*modelViewPresenter-to-passiveView" style="stroke:#A80036;stroke-width:1.0;"/><polygon fill="#A80036" points="150.91,1083.4106,156.4659,1075.2784,151.8107,1078.4924,148.5967,1073.8373,150.91,1083.4106" style="stroke:#A80036;stroke-width:1.0;"/><!--MD5=[b934044e609716b7d867b3e269865697]
link presentationModel to *end*modelViewPresenter--><path d="M264.17,2461.9106 C264.17,2526.4606 264.17,2576.8706 264.17,2600.3006 " fill="none" id="presentationModel-to-*end*modelViewPresenter" style="stroke:#A80036;stroke-width:1.0;"/><polygon fill="#A80036" points="264.17,2605.4106,268.17,2596.4106,264.17,2600.4106,260.17,2596.4106,264.17,2605.4106" style="stroke:#A80036;stroke-width:1.0;"/><!--MD5=[6b55b9a0b0fb122ca19c9504d85212cd]
link passiveView to supervisorController--><path d="M97.61,1136.7706 C86.99,1144.8206 77.15,1154.7806 71.17,1166.6406 C6.41,1295.1306 6,2333.3506 71.17,2461.6406 C76.48,2472.0906 84.78,2481.0406 93.98,2488.5206 " fill="none" id="passiveView-to-supervisorController" style="stroke:#A80036;stroke-width:1.0;"/><polygon fill="#A80036" points="97.98,2491.6306,93.3229,2482.9524,94.0302,2488.5649,88.4177,2489.2721,97.98,2491.6306" style="stroke:#A80036;stroke-width:1.0;"/><!--MD5=[5f857abcd0251df97d4cb98f649baa57]
link supervisorController to *end*modelViewPresenter--><path d="M178.52,2544.7306 C202.98,2564.7006 235.58,2591.3106 252.65,2605.2306 " fill="none" id="supervisorController-to-*end*modelViewPresenter" style="stroke:#A80036;stroke-width:1.0;"/><polygon fill="#A80036" points="256.63,2608.4906,252.2026,2599.693,252.7621,2605.3221,247.133,2605.8816,256.63,2608.4906" style="stroke:#A80036;stroke-width:1.0;"/><!--MD5=[ffce595a87410651ea4b2e3f36598386]
link modelViewPresenter to modelViewController--><path d="M480.22,1111.2906 C484.46,1124.0206 754.37,1941.0006 465.17,2461.6406 C459.31,2472.1906 450.51,2481.0306 440.72,2488.3406 " fill="none" id="modelViewPresenter-to-modelViewController" style="stroke:#A80036;stroke-width:1.0;"/><polygon fill="#A80036" points="436.47,2491.3706,446.1212,2489.4072,440.5425,2488.4698,441.4799,2482.8912,436.47,2491.3706" style="stroke:#A80036;stroke-width:1.0;"/><!--MD5=[f00cab2433a8380dbbe72d5f60444612]
link modelViewController to *end*modelViewPresenter--><path d="M347.62,2544.7306 C323.79,2564.7006 292.02,2591.3106 275.4,2605.2306 " fill="none" id="modelViewController-to-*end*modelViewPresenter" style="stroke:#A80036;stroke-width:1.0;"/><polygon fill="#A80036" points="271.51,2608.4906,280.9748,2605.7672,275.3394,2605.2757,275.8309,2599.6402,271.51,2608.4906" style="stroke:#A80036;stroke-width:1.0;"/><rect fill="#DDDDDD" height="154.875" rx="5" ry="5" style="stroke:#000000;stroke-width:1.0;" width="201" x="561.085" y="2700.6406"/><text fill="#000000" font-family="sans-serif" font-size="14" font-weight="bold" lengthAdjust="spacing" textLength="177" x="575.085" y="2722.1738">Colores de los requisitos</text><rect fill="#AF9EAF" height="17.6094" style="stroke:none;stroke-width:1.0;" width="189" x="567.085" y="2725.25"/><text fill="#000000" font-family="sans-serif" font-size="14" lengthAdjust="spacing" textLength="42" x="571.085" y="2739.7832">Basica</text><rect fill="#ECEA58" height="17.6094" style="stroke:none;stroke-width:1.0;" width="189" x="567.085" y="2742.8594"/><text fill="#000000" font-family="sans-serif" font-size="14" lengthAdjust="spacing" textLength="53" x="571.085" y="2757.3926">Machine</text><rect fill="#EC9B58" height="17.6094" style="stroke:none;stroke-width:1.0;" width="189" x="567.085" y="2760.4688"/><text fill="#000000" font-family="sans-serif" font-size="14" lengthAdjust="spacing" textLength="55" x="571.085" y="2775.002">Ficheros</text><rect fill="#75EC58" height="17.6094" style="stroke:none;stroke-width:1.0;" width="189" x="567.085" y="2778.0781"/><text fill="#000000" font-family="sans-serif" font-size="14" lengthAdjust="spacing" textLength="69" x="571.085" y="2792.6113">BaseDatos</text><rect fill="#58ECEB" height="17.6094" style="stroke:none;stroke-width:1.0;" width="189" x="567.085" y="2795.6875"/><text fill="#000000" font-family="sans-serif" font-size="14" lengthAdjust="spacing" textLength="53" x="571.085" y="2810.2207">Graficos</text><rect fill="#8958EC" height="17.6094" style="stroke:none;stroke-width:1.0;" width="189" x="567.085" y="2813.2969"/><text fill="#000000" font-family="sans-serif" font-size="14" lengthAdjust="spacing" textLength="101" x="571.085" y="2827.8301">Cliente Servidor</text><rect fill="#D80732" height="17.6094" style="stroke:none;stroke-width:1.0;" width="189" x="567.085" y="2830.9063"/><text fill="#000000" font-family="sans-serif" font-size="14" lengthAdjust="spacing" textLength="67" x="571.085" y="2845.4395">UndoRedo</text><line style="stroke:#000000;stroke-width:1.0;" x1="567.085" x2="756.085" y1="2707.6406" y2="2707.6406"/><line style="stroke:#000000;stroke-width:1.0;" x1="567.085" x2="756.085" y1="2725.25" y2="2725.25"/><line style="stroke:#000000;stroke-width:1.0;" x1="567.085" x2="756.085" y1="2742.8594" y2="2742.8594"/><line style="stroke:#000000;stroke-width:1.0;" x1="567.085" x2="756.085" y1="2760.4688" y2="2760.4688"/><line style="stroke:#000000;stroke-width:1.0;" x1="567.085" x2="756.085" y1="2778.0781" y2="2778.0781"/><line style="stroke:#000000;stroke-width:1.0;" x1="567.085" x2="756.085" y1="2795.6875" y2="2795.6875"/><line style="stroke:#000000;stroke-width:1.0;" x1="567.085" x2="756.085" y1="2813.2969" y2="2813.2969"/><line style="stroke:#000000;stroke-width:1.0;" x1="567.085" x2="756.085" y1="2830.9063" y2="2830.9063"/><line style="stroke:#000000;stroke-width:1.0;" x1="567.085" x2="756.085" y1="2848.5156" y2="2848.5156"/><line style="stroke:#000000;stroke-width:1.0;" x1="567.085" x2="567.085" y1="2707.6406" y2="2848.5156"/><line style="stroke:#000000;stroke-width:1.0;" x1="756.085" x2="756.085" y1="2707.6406" y2="2848.5156"/><!--MD5=[75588442faa16dc75a069c58034343b1]
@startuml TicTacToe

title Secuencia versiones TicTacToe

state TicTacToe {

state domainModel {
[*] - -> dm.basic
dm.basic - -> dm.machine
    state dm.basic #AF9EAF: Clases del modelo del dominio\nacopladas con interfaz de consola 

    state dm.machine #ECEA58: Clases del modelo del dominio\nacopladas con interfaz de consola\nañadiendo un jugador máquina
}


state documentView {
[*] - -> dv.withPrototype 
[*] - -> dv.withDoubleDispatching 
    state dv.withPrototype #ECEA58: Desacoplar modelos y vistas\nde las clases empleando\nel patrón Prototype

    state dv.withDoubleDispatching #ECEA58: Desacoplar modelos y vistas\nde las clases empleando\nel patrón Doble Despacho


    [*] - -> dv.basic 
    state dv.basic #AF9EAF: Clases Vistas de Texto separadas\nde los Modelos del Dominio pero con\nModelos de grano grueso con el\nadvenimiento de nueva funcionalidad.

    state withoutFactoryMethod #58ECEB:Clase Vistas de Interfaz Gráfica de Usuario\npero con DRY en Vistas de tecnologías\ndiferentes y con Modelos de grano grueso\ncon el advenimiento de nueva funcionalidad.

    state withFactoryMethod #58ECEB: Clase Vista abstracta para Open/Close de sus\ntecnologías pero con Modelos de grano grueso\ncon el advenimiento de nueva funcionalidad.


    dv.basic - -> withoutFactoryMethod:Mantenimiento perfectivo
    withoutFactoryMethod - -> withFactoryMethod:Mantenimiento correctivo
    withFactoryMethod- ->[*]
    
    dv.withPrototype - ->[*]
    dv.withDoubleDispatching- ->[*]
}

dm.basic - -> documentView:Mantenimiento correctivo
documentView - -> modelViewPresenter


state modelViewPresenter {
    [*] - -> presentationModel
    [*] - -> passiveView
    presentationModel- ->[*]


    state presentationModel {
    [*] - -> pm.basic

    state pm.basic #58ECEB:Clases Controladoras entre Vistas y Modelos por\ncada Caso de Uso pero con la clase Principal y las\nVistas acopladas a cada controlador actual y futuro.

    state withFacade #58ECEB:Clase Lógica que encapsula Controladores y Modelos\npero con Vistas con DRY en la Lógica de Control.

    state withoutDoubleDispatching #58ECEB:Clase Estado para la Inversión de Control de Vistas\na la Lógica pero violando el Principio de Sustitución\nde Liskov.

    state withDoubleDispatching #58ECEB:Clase Vistador de Controladores para Técnica\nde Doble Despacho

    state withComposite #D80732:Clase Comando del menú y Controlador Compuesto\nde ciertos Estados para Open/Close\ncon nuevos Casos de Uso.

    state withoutProxy #8958EC:Clase TCP/IP para tecnología de Despliegue\npero con Controladores acoplados, poco cohesivos y\ngrano grueso con cada nueva tecnología.

    state withProxy #8958EC:Clases Proxy para Open/Close para nuevas\ntecnologías de Despliegue.

    state withoutDAO #EC9B58:Clases Vistas y Controladores para la tecnología\nde persistencia pero con Modelos de grano grueso,\nbaja cohesión y alto acoplamiento a tecnologías\nde persistencia de ficheros.

    state withDAO #EC9B58: Patrón DAO

    state withoutPrototype #75EC58:Nuevas Vistas y DAOS para la nueva tecnología\npero con clase Principal acoplada a las tecnologías\nactuales y futuras de persistencia.

    state withPrototype #75EC58:Open/Close para arranque con configuración de persistencia


    pm.basic - -> withFacade
    withFacade - -> withoutDoubleDispatching
    withoutDoubleDispatching - -> withDoubleDispatching
    withDoubleDispatching - -> withComposite
    withComposite - -> withoutProxy
    withoutProxy - -> withProxy
    withProxy - -> withoutDAO
    withoutDAO - -> withDAO
    withDAO - -> withoutPrototype
    withoutPrototype - -> withPrototype
}

state passiveView #AF9EAF: Baile de la Triada.

state supervisorController #AF9EAF: Baile de la Triada.

passiveView- ->supervisorController
supervisorController- ->[*]

modelViewPresenter - -> modelViewController

state modelViewController #AF9EAF: Baile de la Triada.


modelViewController- ->[*]
}
}
legend
|=  Colores de los requisitos |
|<#AF9EAF> Basica |
|<#ECEA58> Machine |
|<#EC9B58> Ficheros |
|<#75EC58> BaseDatos |
|<#58ECEB> Graficos |
|<#8958EC> Cliente Servidor|
|<#D80732> UndoRedo |
endlegend

@enduml

PlantUML version 1.2021.7(Sun May 23 14:40:07 CEST 2021)
(GPL source distribution)
Java Runtime: Java(TM) SE Runtime Environment
JVM: Java HotSpot(TM) 64-Bit Server VM
Default Encoding: Cp1252
Language: es
Country: ES
--></g></svg>