<?xml version="1.0" encoding="UTF-8" standalone="no"?><svg xmlns="http://www.w3.org/2000/svg" xmlns:xlink="http://www.w3.org/1999/xlink" contentScriptType="application/ecmascript" contentStyleType="text/css" height="159px" preserveAspectRatio="none" style="width:889px;height:159px;" version="1.1" viewBox="0 0 889 159" width="889px" zoomAndPan="magnify"><defs><filter height="300%" id="fk0qfztntoid7" width="300%" x="-1" y="-1"><feGaussianBlur result="blurOut" stdDeviation="2.0"/><feColorMatrix in="blurOut" result="blurOut2" type="matrix" values="0 0 0 0 0 0 0 0 0 0 0 0 0 0 0 0 0 0 .4 0"/><feOffset dx="4.0" dy="4.0" in="blurOut2" result="blurOut3"/><feBlend in="SourceGraphic" in2="blurOut3" mode="normal"/></filter></defs><g><!--MD5=[483b12a8a4a1981ac5430bdda5fd5916]
entity tictactoe--><polygon fill="#FFFFFF" filter="url(#fk0qfztntoid7)" points="16,113,98,113,105,135.2969,122,135.2969,122,152.2969,16,152.2969,16,113" style="stroke: #000000; stroke-width: 1.5;"/><line style="stroke: #000000; stroke-width: 1.5;" x1="16" x2="105" y1="135.2969" y2="135.2969"/><text fill="#000000" font-family="sans-serif" font-size="14" font-weight="bold" lengthAdjust="spacingAndGlyphs" textLength="76" x="20" y="128.9951">tictactoe</text><!--MD5=[21ee9191f94b37e164ce8850dd375de6]
entity tictactoe.models--><polygon fill="#FFFFFF" filter="url(#fk0qfztntoid7)" points="157.5,113,302.5,113,309.5,135.2969,326.5,135.2969,326.5,152.2969,157.5,152.2969,157.5,113" style="stroke: #000000; stroke-width: 1.5;"/><line style="stroke: #000000; stroke-width: 1.5;" x1="157.5" x2="309.5" y1="135.2969" y2="135.2969"/><text fill="#000000" font-family="sans-serif" font-size="14" font-weight="bold" lengthAdjust="spacingAndGlyphs" textLength="139" x="161.5" y="128.9951">tictactoe.models</text><!--MD5=[170e9aa8a7c5483a45070c603c759464]
entity tictactoe.views--><polygon fill="#FFFFFF" filter="url(#fk0qfztntoid7)" points="362,113,494,113,501,135.2969,518,135.2969,518,152.2969,362,152.2969,362,113" style="stroke: #000000; stroke-width: 1.5;"/><line style="stroke: #000000; stroke-width: 1.5;" x1="362" x2="501" y1="135.2969" y2="135.2969"/><text fill="#000000" font-family="sans-serif" font-size="14" font-weight="bold" lengthAdjust="spacingAndGlyphs" textLength="126" x="366" y="128.9951">tictactoe.views</text><!--MD5=[815e17c207bbf712f7f26918c1feb6f8]
entity utils--><polygon fill="#FFFFFF" filter="url(#fk0qfztntoid7)" points="553.5,113,596.5,113,603.5,135.2969,620.5,135.2969,620.5,152.2969,553.5,152.2969,553.5,113" style="stroke: #000000; stroke-width: 1.5;"/><line style="stroke: #000000; stroke-width: 1.5;" x1="553.5" x2="603.5" y1="135.2969" y2="135.2969"/><text fill="#000000" font-family="sans-serif" font-size="14" font-weight="bold" lengthAdjust="spacingAndGlyphs" textLength="37" x="557.5" y="128.9951">utils</text><!--MD5=[48fa9072fd51d9920e6db8484beec696]
entity java.io--><polygon fill="#FFFFFF" filter="url(#fk0qfztntoid7)" points="656,113,716,113,723,135.2969,740,135.2969,740,152.2969,656,152.2969,656,113" style="stroke: #000000; stroke-width: 1.5;"/><line style="stroke: #000000; stroke-width: 1.5;" x1="656" x2="723" y1="135.2969" y2="135.2969"/><text fill="#000000" font-family="sans-serif" font-size="14" font-weight="bold" lengthAdjust="spacingAndGlyphs" textLength="54" x="660" y="128.9951">java.io</text><!--MD5=[034f0f7ed136bf78fc117f7e41f76e93]
entity java.util--><polygon fill="#FFFFFF" filter="url(#fk0qfztntoid7)" points="775.5,113,848.5,113,855.5,135.2969,872.5,135.2969,872.5,152.2969,775.5,152.2969,775.5,113" style="stroke: #000000; stroke-width: 1.5;"/><line style="stroke: #000000; stroke-width: 1.5;" x1="775.5" x2="855.5" y1="135.2969" y2="135.2969"/><text fill="#000000" font-family="sans-serif" font-size="14" font-weight="bold" lengthAdjust="spacingAndGlyphs" textLength="67" x="779.5" y="128.9951">java.util</text><!--MD5=[c2796faf4134bd8b5f3bc71f44d02e74]
entity jar--><rect fill="#FEFECE" filter="url(#fk0qfztntoid7)" height="46.2969" style="stroke: #A80036; stroke-width: 1.5;" width="150" x="438" y="7"/><rect fill="#FEFECE" height="10" style="stroke: #A80036; stroke-width: 1.5;" width="15" x="568" y="12"/><rect fill="#FEFECE" height="2" style="stroke: #A80036; stroke-width: 1.5;" width="4" x="566" y="14"/><rect fill="#FEFECE" height="2" style="stroke: #A80036; stroke-width: 1.5;" width="4" x="566" y="18"/><text fill="#000000" font-family="sans-serif" font-size="14" lengthAdjust="spacingAndGlyphs" textLength="110" x="453" y="39.9951">mastermind.jar</text><!--MD5=[db071693898cb010136cdcd0ecfb308f]
link jar to tictactoe--><path d="M426.0491,49.1263 C426.0491,49.1263 237.208,89.6598 140,113 C138.272,113.415 136.521,113.8396 134.755,114.2718 " fill="none" id="jar-tictactoe" style="stroke: #A80036; stroke-width: 1.0;"/><polygon fill="#A80036" points="122.059,117.4366,131.7594,119.14,126.9104,116.2267,129.8237,111.3777,122.059,117.4366" style="stroke: #A80036; stroke-width: 1.0;"/><line style="stroke: #A80036; stroke-width: 1.0;" x1="126.9104" x2="134.673" y1="116.2267" y2="114.2922"/><polygon fill="#A80036" points="437.79,46.646,431.0928,43.9725,426.0491,49.1263,432.7463,51.7998,437.79,46.646" style="stroke: #A80036; stroke-width: 1.0;"/><!--MD5=[6b3133dd7dabc2019ad83d1281580956]
link jar to tictactoe.models--><path d="M442.2767,57.2275 C442.2767,57.2275 345.299,93.1919 304.479,108.3298 " fill="none" id="jar-tictactoe.models" style="stroke: #A80036; stroke-width: 1.0;"/><polygon fill="#A80036" points="292.241,112.868,302.0702,113.4892,296.929,111.1295,299.2887,105.9883,292.241,112.868" style="stroke: #A80036; stroke-width: 1.0;"/><line style="stroke: #A80036; stroke-width: 1.0;" x1="296.929" x2="304.43" y1="111.1295" y2="108.3478"/><polygon fill="#A80036" points="453.528,53.0552,446.5116,51.3909,442.2767,57.2275,449.2931,58.8918,453.528,53.0552" style="stroke: #A80036; stroke-width: 1.0;"/><!--MD5=[c97a190b1fd883cd6d17f82504278168]
link jar to tictactoe.views--><path d="M489.7463,63.0129 C489.7463,63.0129 469.974,90.2343 461.285,102.1968 " fill="none" id="jar-tictactoe.views" style="stroke: #A80036; stroke-width: 1.0;"/><polygon fill="#A80036" points="453.466,112.9606,461.9915,108.0294,456.4044,108.9151,455.5187,103.328,453.466,112.9606" style="stroke: #A80036; stroke-width: 1.0;"/><line style="stroke: #A80036; stroke-width: 1.0;" x1="456.4044" x2="461.1065" y1="108.9151" y2="102.4425"/><polygon fill="#A80036" points="496.799,53.3042,490.0364,55.8076,489.7463,63.0129,496.5089,60.5095,496.799,53.3042" style="stroke: #A80036; stroke-width: 1.0;"/><!--MD5=[2b24531f65345f8226c8757364dc2f7a]
link jar to utils--><path d="M536.5381,62.9673 C536.5381,62.9673 556.615,90.2343 565.424,102.1968 " fill="none" id="jar-utils" style="stroke: #A80036; stroke-width: 1.0;"/><polygon fill="#A80036" points="573.349,112.9606,571.2337,103.3416,570.3844,108.9343,564.7917,108.085,573.349,112.9606" style="stroke: #A80036; stroke-width: 1.0;"/><line style="stroke: #A80036; stroke-width: 1.0;" x1="570.3844" x2="565.641" y1="108.9343" y2="102.4923"/><polygon fill="#A80036" points="529.423,53.3042,529.7595,60.5074,536.5381,62.9673,536.2016,55.7641,529.423,53.3042" style="stroke: #A80036; stroke-width: 1.0;"/><!--MD5=[f17a38c250a1605cd3da9b9fac2ef94b]
link jar to java.io--><path d="M564.1435,58.7836 C564.1435,58.7836 625.784,92.2689 652.125,106.579 " fill="none" id="jar-java.io" style="stroke: #A80036; stroke-width: 1.0;"/><polygon fill="#A80036" points="663.702,112.868,657.7031,105.0569,659.3085,110.4812,653.8842,112.0865,663.702,112.868" style="stroke: #A80036; stroke-width: 1.0;"/><line style="stroke: #A80036; stroke-width: 1.0;" x1="659.3085" x2="652.279" y1="110.4812" y2="106.6624"/><polygon fill="#A80036" points="553.599,53.0552,556.9618,59.4342,564.1435,58.7836,560.7807,52.4046,553.599,53.0552" style="stroke: #A80036; stroke-width: 1.0;"/><!--MD5=[a929e6d2b54380e4c3e4c2b17ce7cd9b]
link jar to java.util--><path d="M592.6683,56.7461 C592.6683,56.7461 714.469,96.1049 762.751,111.7072 " fill="none" id="jar-java.util" style="stroke: #A80036; stroke-width: 1.0;"/><polygon fill="#A80036" points="775.203,115.7313,767.8689,109.1578,770.4452,114.1939,765.4091,116.7703,775.203,115.7313" style="stroke: #A80036; stroke-width: 1.0;"/><line style="stroke: #A80036; stroke-width: 1.0;" x1="770.4452" x2="762.833" y1="114.1939" y2="111.7338"/><polygon fill="#A80036" points="581.25,53.0552,585.7288,58.7067,592.6683,56.7461,588.1894,51.0945,581.25,53.0552" style="stroke: #A80036; stroke-width: 1.0;"/><!--MD5=[74e62e334443fd5d8e7100ac783033d8]
@startuml
package "  "  as tictactoe {
}
package "  "  as tictactoe.models {
}
package "  "  as tictactoe.views {
}
package "  "  as utils {
}
package "  "  as java.io {
}
package "  "  as java.util {
}

[mastermind.jar] as jar

jar *- -> tictactoe
jar *- -> tictactoe.models
jar *- -> tictactoe.views
jar *- -> utils
jar *- -> java.io
jar *- -> java.util
@enduml

PlantUML version 1.2020.20beta4(Unknown compile time)
(GPL source distribution)
Java Runtime: Java(TM) SE Runtime Environment
JVM: Java HotSpot(TM) 64-Bit Server VM
Default Encoding: UTF-8
Language: en
Country: US
--></g></svg>