<?xml version="1.0" encoding="UTF-8" standalone="no"?><svg xmlns="http://www.w3.org/2000/svg" xmlns:xlink="http://www.w3.org/1999/xlink" contentScriptType="application/ecmascript" contentStyleType="text/css" height="724px" preserveAspectRatio="none" style="width:1720px;height:724px;" version="1.1" viewBox="0 0 1720 724" width="1720px" zoomAndPan="magnify"><defs><filter height="300%" id="f1tf66fgv87odp" width="300%" x="-1" y="-1"><feGaussianBlur result="blurOut" stdDeviation="2.0"/><feColorMatrix in="blurOut" result="blurOut2" type="matrix" values="0 0 0 0 0 0 0 0 0 0 0 0 0 0 0 0 0 0 .4 0"/><feOffset dx="4.0" dy="4.0" in="blurOut2" result="blurOut3"/><feBlend in="SourceGraphic" in2="blurOut3" mode="normal"/></filter></defs><g><!--MD5=[64182ab34c08ac367bbf699869515711]
cluster tictactoe.views.console--><polygon fill="#FFFFFF" filter="url(#f1tf66fgv87odp)" points="801,80,1000,80,1007,102.2969,1283,102.2969,1283,618,801,618,801,80" style="stroke: #000000; stroke-width: 1.5;"/><line style="stroke: #000000; stroke-width: 1.5;" x1="801" x2="1007" y1="102.2969" y2="102.2969"/><text fill="#000000" font-family="sans-serif" font-size="14" font-weight="bold" lengthAdjust="spacingAndGlyphs" textLength="193" x="805" y="94.9951">tictactoe.views.console</text><!--MD5=[8830b246a550294711e6eb5af1606829]
class tictactoe.views.console.CoordinateView--><rect codeLine="1" fill="#FEFECE" filter="url(#f1tf66fgv87odp)" height="60.8047" id="tictactoe.views.console.CoordinateView" style="stroke: #A80036; stroke-width: 1.5;" width="185" x="891.5" y="388.5"/><ellipse cx="932.6" cy="404.5" fill="#ADD1B2" rx="11" ry="11" style="stroke: #A80036; stroke-width: 1.0;"/><path d="M934.9438,400.1719 C934.0063,399.7344 933.4125,399.5938 932.5375,399.5938 C929.9125,399.5938 927.9125,401.6719 927.9125,404.3906 L927.9125,405.5156 C927.9125,408.0938 930.0219,409.9844 932.9125,409.9844 C934.1313,409.9844 935.2875,409.6875 936.0375,409.1406 C936.6156,408.7344 936.9438,408.2813 936.9438,407.8906 C936.9438,407.4375 936.5531,407.0469 936.0844,407.0469 C935.8656,407.0469 935.6625,407.125 935.475,407.3125 C935.0219,407.7969 935.0219,407.7969 934.8344,407.8906 C934.4125,408.1563 933.725,408.2813 932.9594,408.2813 C930.9125,408.2813 929.6156,407.1875 929.6156,405.4844 L929.6156,404.3906 C929.6156,402.6094 930.8656,401.2969 932.6,401.2969 C933.1781,401.2969 933.7875,401.4531 934.2563,401.7031 C934.7406,401.9844 934.9125,402.2031 935.0063,402.6094 C935.0688,403.0156 935.1,403.1406 935.2406,403.2656 C935.3813,403.4063 935.6156,403.5156 935.8344,403.5156 C936.1,403.5156 936.3656,403.375 936.5375,403.1563 C936.6469,403 936.6781,402.8125 936.6781,402.3906 L936.6781,400.9688 C936.6781,400.5313 936.6625,400.4063 936.5688,400.25 C936.4125,399.9844 936.1313,399.8438 935.8344,399.8438 C935.5375,399.8438 935.3344,399.9375 935.1156,400.25 L934.9438,400.1719 Z "/><text fill="#000000" font-family="sans-serif" font-size="12" lengthAdjust="spacingAndGlyphs" textLength="95" x="952.4" y="408.6543">CoordinateView</text><line style="stroke: #A80036; stroke-width: 1.5;" x1="892.5" x2="1075.5" y1="420.5" y2="420.5"/><line style="stroke: #A80036; stroke-width: 1.5;" x1="892.5" x2="1075.5" y1="428.5" y2="428.5"/><ellipse cx="902.5" cy="439.5" fill="#84BE84" rx="3" ry="3" style="stroke: #038048; stroke-width: 1.0;"/><text fill="#000000" font-family="sans-serif" font-size="11" lengthAdjust="spacingAndGlyphs" textLength="159" x="911.5" y="442.7104">Coordinate read(String title)</text><!--MD5=[1ca4e66fd27a79cb5d7093d90b3139a4]
class tictactoe.views.console.ErrorView--><rect codeLine="17" fill="#FEFECE" filter="url(#f1tf66fgv87odp)" height="73.6094" id="tictactoe.views.console.ErrorView" style="stroke: #A80036; stroke-width: 1.5;" width="131" x="817.5" y="522"/><ellipse cx="850.5" cy="538" fill="#ADD1B2" rx="11" ry="11" style="stroke: #A80036; stroke-width: 1.0;"/><path d="M852.8438,533.6719 C851.9063,533.2344 851.3125,533.0938 850.4375,533.0938 C847.8125,533.0938 845.8125,535.1719 845.8125,537.8906 L845.8125,539.0156 C845.8125,541.5938 847.9219,543.4844 850.8125,543.4844 C852.0313,543.4844 853.1875,543.1875 853.9375,542.6406 C854.5156,542.2344 854.8438,541.7813 854.8438,541.3906 C854.8438,540.9375 854.4531,540.5469 853.9844,540.5469 C853.7656,540.5469 853.5625,540.625 853.375,540.8125 C852.9219,541.2969 852.9219,541.2969 852.7344,541.3906 C852.3125,541.6563 851.625,541.7813 850.8594,541.7813 C848.8125,541.7813 847.5156,540.6875 847.5156,538.9844 L847.5156,537.8906 C847.5156,536.1094 848.7656,534.7969 850.5,534.7969 C851.0781,534.7969 851.6875,534.9531 852.1563,535.2031 C852.6406,535.4844 852.8125,535.7031 852.9063,536.1094 C852.9688,536.5156 853,536.6406 853.1406,536.7656 C853.2813,536.9063 853.5156,537.0156 853.7344,537.0156 C854,537.0156 854.2656,536.875 854.4375,536.6563 C854.5469,536.5 854.5781,536.3125 854.5781,535.8906 L854.5781,534.4688 C854.5781,534.0313 854.5625,533.9063 854.4688,533.75 C854.3125,533.4844 854.0313,533.3438 853.7344,533.3438 C853.4375,533.3438 853.2344,533.4375 853.0156,533.75 L852.8438,533.6719 Z "/><text fill="#000000" font-family="sans-serif" font-size="12" lengthAdjust="spacingAndGlyphs" textLength="59" x="868.5" y="542.1543">ErrorView</text><line style="stroke: #A80036; stroke-width: 1.5;" x1="818.5" x2="947.5" y1="554" y2="554"/><line style="stroke: #A80036; stroke-width: 1.5;" x1="818.5" x2="947.5" y1="562" y2="562"/><text fill="#000000" font-family="sans-serif" font-size="11" lengthAdjust="spacingAndGlyphs" textLength="119" x="823.5" y="576.2104">ErrorView(Error error)</text><text fill="#000000" font-family="sans-serif" font-size="11" lengthAdjust="spacingAndGlyphs" textLength="46" x="823.5" y="589.0151">writeln()</text><!--MD5=[e933b4291156428da126c4c01236555b]
class tictactoe.views.console.GameView--><rect codeLine="29" fill="#FEFECE" filter="url(#f1tf66fgv87odp)" height="73.6094" id="tictactoe.views.console.GameView" style="stroke: #A80036; stroke-width: 1.5;" width="155" x="1111.5" y="382"/><ellipse cx="1153.05" cy="398" fill="#ADD1B2" rx="11" ry="11" style="stroke: #A80036; stroke-width: 1.0;"/><path d="M1155.3938,393.6719 C1154.4563,393.2344 1153.8625,393.0938 1152.9875,393.0938 C1150.3625,393.0938 1148.3625,395.1719 1148.3625,397.8906 L1148.3625,399.0156 C1148.3625,401.5938 1150.4719,403.4844 1153.3625,403.4844 C1154.5813,403.4844 1155.7375,403.1875 1156.4875,402.6406 C1157.0656,402.2344 1157.3938,401.7813 1157.3938,401.3906 C1157.3938,400.9375 1157.0031,400.5469 1156.5344,400.5469 C1156.3156,400.5469 1156.1125,400.625 1155.925,400.8125 C1155.4719,401.2969 1155.4719,401.2969 1155.2844,401.3906 C1154.8625,401.6563 1154.175,401.7813 1153.4094,401.7813 C1151.3625,401.7813 1150.0656,400.6875 1150.0656,398.9844 L1150.0656,397.8906 C1150.0656,396.1094 1151.3156,394.7969 1153.05,394.7969 C1153.6281,394.7969 1154.2375,394.9531 1154.7063,395.2031 C1155.1906,395.4844 1155.3625,395.7031 1155.4563,396.1094 C1155.5188,396.5156 1155.55,396.6406 1155.6906,396.7656 C1155.8313,396.9063 1156.0656,397.0156 1156.2844,397.0156 C1156.55,397.0156 1156.8156,396.875 1156.9875,396.6563 C1157.0969,396.5 1157.1281,396.3125 1157.1281,395.8906 L1157.1281,394.4688 C1157.1281,394.0313 1157.1125,393.9063 1157.0188,393.75 C1156.8625,393.4844 1156.5813,393.3438 1156.2844,393.3438 C1155.9875,393.3438 1155.7844,393.4375 1155.5656,393.75 L1155.3938,393.6719 Z "/><text fill="#000000" font-family="sans-serif" font-size="12" lengthAdjust="spacingAndGlyphs" textLength="64" x="1172.95" y="402.1543">GameView</text><line style="stroke: #A80036; stroke-width: 1.5;" x1="1112.5" x2="1265.5" y1="414" y2="414"/><line style="stroke: #A80036; stroke-width: 1.5;" x1="1112.5" x2="1265.5" y1="422" y2="422"/><text fill="#000000" font-family="sans-serif" font-size="11" lengthAdjust="spacingAndGlyphs" textLength="143" x="1117.5" y="436.2104">GameView(Game game)</text><text fill="#000000" font-family="sans-serif" font-size="11" lengthAdjust="spacingAndGlyphs" textLength="36" x="1117.5" y="449.0151">write()</text><!--MD5=[85374d0a3ee4b3ef5b557089b06e5446]
class tictactoe.views.console.TokenView--><rect codeLine="94" fill="#FEFECE" filter="url(#f1tf66fgv87odp)" height="86.4141" id="tictactoe.views.console.TokenView" style="stroke: #A80036; stroke-width: 1.5;" width="154" x="984" y="516"/><ellipse cx="1024.2" cy="532" fill="#ADD1B2" rx="11" ry="11" style="stroke: #A80036; stroke-width: 1.0;"/><path d="M1026.5438,527.6719 C1025.6063,527.2344 1025.0125,527.0938 1024.1375,527.0938 C1021.5125,527.0938 1019.5125,529.1719 1019.5125,531.8906 L1019.5125,533.0156 C1019.5125,535.5938 1021.6219,537.4844 1024.5125,537.4844 C1025.7313,537.4844 1026.8875,537.1875 1027.6375,536.6406 C1028.2156,536.2344 1028.5438,535.7813 1028.5438,535.3906 C1028.5438,534.9375 1028.1531,534.5469 1027.6844,534.5469 C1027.4656,534.5469 1027.2625,534.625 1027.075,534.8125 C1026.6219,535.2969 1026.6219,535.2969 1026.4344,535.3906 C1026.0125,535.6563 1025.325,535.7813 1024.5594,535.7813 C1022.5125,535.7813 1021.2156,534.6875 1021.2156,532.9844 L1021.2156,531.8906 C1021.2156,530.1094 1022.4656,528.7969 1024.2,528.7969 C1024.7781,528.7969 1025.3875,528.9531 1025.8563,529.2031 C1026.3406,529.4844 1026.5125,529.7031 1026.6063,530.1094 C1026.6688,530.5156 1026.7,530.6406 1026.8406,530.7656 C1026.9813,530.9063 1027.2156,531.0156 1027.4344,531.0156 C1027.7,531.0156 1027.9656,530.875 1028.1375,530.6563 C1028.2469,530.5 1028.2781,530.3125 1028.2781,529.8906 L1028.2781,528.4688 C1028.2781,528.0313 1028.2625,527.9063 1028.1688,527.75 C1028.0125,527.4844 1027.7313,527.3438 1027.4344,527.3438 C1027.1375,527.3438 1026.9344,527.4375 1026.7156,527.75 L1026.5438,527.6719 Z "/><text fill="#000000" font-family="sans-serif" font-size="12" lengthAdjust="spacingAndGlyphs" textLength="66" x="1043.8" y="536.1543">TokenView</text><line style="stroke: #A80036; stroke-width: 1.5;" x1="985" x2="1137" y1="548" y2="548"/><ellipse cx="995" cy="559" fill="none" rx="3" ry="3" style="stroke: #038048; stroke-width: 1.0;"/><text fill="#000000" font-family="sans-serif" font-size="11" lengthAdjust="spacingAndGlyphs" text-decoration="underline" textLength="91" x="1004" y="562.2104">char[] SYMBOLS</text><line style="stroke: #A80036; stroke-width: 1.5;" x1="985" x2="1137" y1="568.8047" y2="568.8047"/><text fill="#000000" font-family="sans-serif" font-size="11" lengthAdjust="spacingAndGlyphs" textLength="142" x="990" y="583.0151">TokenView(Token token)</text><text fill="#000000" font-family="sans-serif" font-size="11" lengthAdjust="spacingAndGlyphs" textLength="36" x="990" y="595.8198">write()</text><!--MD5=[2d78dc9f6799219010ec4b46c4600efc]
class tictactoe.views.console.SubView--><rect codeLine="44" fill="#FEFECE" filter="url(#f1tf66fgv87odp)" height="60.8047" id="tictactoe.views.console.SubView" style="stroke: #A80036; stroke-width: 1.5;" width="142" x="1061" y="115"/><ellipse cx="1102.1" cy="131" fill="#ADD1B2" rx="11" ry="11" style="stroke: #A80036; stroke-width: 1.0;"/><path d="M1104.4438,126.6719 C1103.5063,126.2344 1102.9125,126.0938 1102.0375,126.0938 C1099.4125,126.0938 1097.4125,128.1719 1097.4125,130.8906 L1097.4125,132.0156 C1097.4125,134.5938 1099.5219,136.4844 1102.4125,136.4844 C1103.6313,136.4844 1104.7875,136.1875 1105.5375,135.6406 C1106.1156,135.2344 1106.4438,134.7813 1106.4438,134.3906 C1106.4438,133.9375 1106.0531,133.5469 1105.5844,133.5469 C1105.3656,133.5469 1105.1625,133.625 1104.975,133.8125 C1104.5219,134.2969 1104.5219,134.2969 1104.3344,134.3906 C1103.9125,134.6563 1103.225,134.7813 1102.4594,134.7813 C1100.4125,134.7813 1099.1156,133.6875 1099.1156,131.9844 L1099.1156,130.8906 C1099.1156,129.1094 1100.3656,127.7969 1102.1,127.7969 C1102.6781,127.7969 1103.2875,127.9531 1103.7563,128.2031 C1104.2406,128.4844 1104.4125,128.7031 1104.5063,129.1094 C1104.5688,129.5156 1104.6,129.6406 1104.7406,129.7656 C1104.8813,129.9063 1105.1156,130.0156 1105.3344,130.0156 C1105.6,130.0156 1105.8656,129.875 1106.0375,129.6563 C1106.1469,129.5 1106.1781,129.3125 1106.1781,128.8906 L1106.1781,127.4688 C1106.1781,127.0313 1106.1625,126.9063 1106.0688,126.75 C1105.9125,126.4844 1105.6313,126.3438 1105.3344,126.3438 C1105.0375,126.3438 1104.8344,126.4375 1104.6156,126.75 L1104.4438,126.6719 Z "/><text fill="#000000" font-family="sans-serif" font-size="12" lengthAdjust="spacingAndGlyphs" textLength="52" x="1121.9" y="135.1543">SubView</text><line style="stroke: #A80036; stroke-width: 1.5;" x1="1062" x2="1202" y1="147" y2="147"/><line style="stroke: #A80036; stroke-width: 1.5;" x1="1062" x2="1202" y1="155" y2="155"/><text fill="#000000" font-family="sans-serif" font-size="11" lengthAdjust="spacingAndGlyphs" textLength="130" x="1067" y="169.2104">SubView(Game game)</text><!--MD5=[0158df0baddf48f83142f472e341eacc]
class tictactoe.views.console.PlayView--><rect codeLine="52" fill="#FEFECE" filter="url(#f1tf66fgv87odp)" height="86.4141" id="tictactoe.views.console.PlayView" style="stroke: #A80036; stroke-width: 1.5;" width="84" x="1090" y="236"/><ellipse cx="1105" cy="252" fill="#ADD1B2" rx="11" ry="11" style="stroke: #A80036; stroke-width: 1.0;"/><path d="M1107.3438,247.6719 C1106.4063,247.2344 1105.8125,247.0938 1104.9375,247.0938 C1102.3125,247.0938 1100.3125,249.1719 1100.3125,251.8906 L1100.3125,253.0156 C1100.3125,255.5938 1102.4219,257.4844 1105.3125,257.4844 C1106.5313,257.4844 1107.6875,257.1875 1108.4375,256.6406 C1109.0156,256.2344 1109.3438,255.7813 1109.3438,255.3906 C1109.3438,254.9375 1108.9531,254.5469 1108.4844,254.5469 C1108.2656,254.5469 1108.0625,254.625 1107.875,254.8125 C1107.4219,255.2969 1107.4219,255.2969 1107.2344,255.3906 C1106.8125,255.6563 1106.125,255.7813 1105.3594,255.7813 C1103.3125,255.7813 1102.0156,254.6875 1102.0156,252.9844 L1102.0156,251.8906 C1102.0156,250.1094 1103.2656,248.7969 1105,248.7969 C1105.5781,248.7969 1106.1875,248.9531 1106.6563,249.2031 C1107.1406,249.4844 1107.3125,249.7031 1107.4063,250.1094 C1107.4688,250.5156 1107.5,250.6406 1107.6406,250.7656 C1107.7813,250.9063 1108.0156,251.0156 1108.2344,251.0156 C1108.5,251.0156 1108.7656,250.875 1108.9375,250.6563 C1109.0469,250.5 1109.0781,250.3125 1109.0781,249.8906 L1109.0781,248.4688 C1109.0781,248.0313 1109.0625,247.9063 1108.9688,247.75 C1108.8125,247.4844 1108.5313,247.3438 1108.2344,247.3438 C1107.9375,247.3438 1107.7344,247.4375 1107.5156,247.75 L1107.3438,247.6719 Z "/><text fill="#000000" font-family="sans-serif" font-size="12" lengthAdjust="spacingAndGlyphs" textLength="52" x="1119" y="256.1543">PlayView</text><line style="stroke: #A80036; stroke-width: 1.5;" x1="1091" x2="1173" y1="268" y2="268"/><line style="stroke: #A80036; stroke-width: 1.5;" x1="1091" x2="1173" y1="276" y2="276"/><text fill="#000000" font-family="sans-serif" font-size="11" lengthAdjust="spacingAndGlyphs" textLength="51" x="1110" y="290.2104">interact()</text><rect fill="#F24D5C" height="6" style="stroke: #C82930; stroke-width: 1.0;" width="6" x="1098" y="296.8047"/><text fill="#000000" font-family="sans-serif" font-size="11" lengthAdjust="spacingAndGlyphs" textLength="26" x="1110" y="303.0151">put()</text><rect fill="#F24D5C" height="6" style="stroke: #C82930; stroke-width: 1.0;" width="6" x="1098" y="309.6094"/><text fill="#000000" font-family="sans-serif" font-size="11" lengthAdjust="spacingAndGlyphs" textLength="41" x="1110" y="315.8198">move()</text><!--MD5=[863eeac66a77264bd74e28cbddefcd23]
class tictactoe.views.console.ResumeView--><rect codeLine="69" fill="#FEFECE" filter="url(#f1tf66fgv87odp)" height="60.8047" id="tictactoe.views.console.ResumeView" style="stroke: #A80036; stroke-width: 1.5;" width="113" x="817.5" y="248.5"/><ellipse cx="834.3" cy="264.5" fill="#ADD1B2" rx="11" ry="11" style="stroke: #A80036; stroke-width: 1.0;"/><path d="M836.6438,260.1719 C835.7063,259.7344 835.1125,259.5938 834.2375,259.5938 C831.6125,259.5938 829.6125,261.6719 829.6125,264.3906 L829.6125,265.5156 C829.6125,268.0938 831.7219,269.9844 834.6125,269.9844 C835.8313,269.9844 836.9875,269.6875 837.7375,269.1406 C838.3156,268.7344 838.6438,268.2813 838.6438,267.8906 C838.6438,267.4375 838.2531,267.0469 837.7844,267.0469 C837.5656,267.0469 837.3625,267.125 837.175,267.3125 C836.7219,267.7969 836.7219,267.7969 836.5344,267.8906 C836.1125,268.1563 835.425,268.2813 834.6594,268.2813 C832.6125,268.2813 831.3156,267.1875 831.3156,265.4844 L831.3156,264.3906 C831.3156,262.6094 832.5656,261.2969 834.3,261.2969 C834.8781,261.2969 835.4875,261.4531 835.9563,261.7031 C836.4406,261.9844 836.6125,262.2031 836.7063,262.6094 C836.7688,263.0156 836.8,263.1406 836.9406,263.2656 C837.0813,263.4063 837.3156,263.5156 837.5344,263.5156 C837.8,263.5156 838.0656,263.375 838.2375,263.1563 C838.3469,263 838.3781,262.8125 838.3781,262.3906 L838.3781,260.9688 C838.3781,260.5313 838.3625,260.4063 838.2688,260.25 C838.1125,259.9844 837.8313,259.8438 837.5344,259.8438 C837.2375,259.8438 837.0344,259.9375 836.8156,260.25 L836.6438,260.1719 Z "/><text fill="#000000" font-family="sans-serif" font-size="12" lengthAdjust="spacingAndGlyphs" textLength="77" x="848.7" y="268.6543">ResumeView</text><line style="stroke: #A80036; stroke-width: 1.5;" x1="818.5" x2="929.5" y1="280.5" y2="280.5"/><line style="stroke: #A80036; stroke-width: 1.5;" x1="818.5" x2="929.5" y1="288.5" y2="288.5"/><text fill="#000000" font-family="sans-serif" font-size="11" lengthAdjust="spacingAndGlyphs" textLength="101" x="823.5" y="302.7104">boolean interact()</text><!--MD5=[54aa299435631381f3c0c028f26a058f]
class tictactoe.views.console.StartView--><rect codeLine="81" fill="#FEFECE" filter="url(#f1tf66fgv87odp)" height="60.8047" id="tictactoe.views.console.StartView" style="stroke: #A80036; stroke-width: 1.5;" width="89" x="965.5" y="248.5"/><ellipse cx="980.5" cy="264.5" fill="#ADD1B2" rx="11" ry="11" style="stroke: #A80036; stroke-width: 1.0;"/><path d="M982.8438,260.1719 C981.9063,259.7344 981.3125,259.5938 980.4375,259.5938 C977.8125,259.5938 975.8125,261.6719 975.8125,264.3906 L975.8125,265.5156 C975.8125,268.0938 977.9219,269.9844 980.8125,269.9844 C982.0313,269.9844 983.1875,269.6875 983.9375,269.1406 C984.5156,268.7344 984.8438,268.2813 984.8438,267.8906 C984.8438,267.4375 984.4531,267.0469 983.9844,267.0469 C983.7656,267.0469 983.5625,267.125 983.375,267.3125 C982.9219,267.7969 982.9219,267.7969 982.7344,267.8906 C982.3125,268.1563 981.625,268.2813 980.8594,268.2813 C978.8125,268.2813 977.5156,267.1875 977.5156,265.4844 L977.5156,264.3906 C977.5156,262.6094 978.7656,261.2969 980.5,261.2969 C981.0781,261.2969 981.6875,261.4531 982.1563,261.7031 C982.6406,261.9844 982.8125,262.2031 982.9063,262.6094 C982.9688,263.0156 983,263.1406 983.1406,263.2656 C983.2813,263.4063 983.5156,263.5156 983.7344,263.5156 C984,263.5156 984.2656,263.375 984.4375,263.1563 C984.5469,263 984.5781,262.8125 984.5781,262.3906 L984.5781,260.9688 C984.5781,260.5313 984.5625,260.4063 984.4688,260.25 C984.3125,259.9844 984.0313,259.8438 983.7344,259.8438 C983.4375,259.8438 983.2344,259.9375 983.0156,260.25 L982.8438,260.1719 Z "/><text fill="#000000" font-family="sans-serif" font-size="12" lengthAdjust="spacingAndGlyphs" textLength="57" x="994.5" y="268.6543">StartView</text><line style="stroke: #A80036; stroke-width: 1.5;" x1="966.5" x2="1053.5" y1="280.5" y2="280.5"/><line style="stroke: #A80036; stroke-width: 1.5;" x1="966.5" x2="1053.5" y1="288.5" y2="288.5"/><text fill="#000000" font-family="sans-serif" font-size="11" lengthAdjust="spacingAndGlyphs" textLength="51" x="971.5" y="302.7104">interact()</text><!--MD5=[62bf64bd19da87144fa184c41d76c76c]
class tictactoe.views.console.View--><rect codeLine="108" fill="#FEFECE" filter="url(#f1tf66fgv87odp)" height="60.8047" id="tictactoe.views.console.View" style="stroke: #A80036; stroke-width: 1.5;" width="134" x="892" y="115"/><ellipse cx="940.25" cy="131" fill="#ADD1B2" rx="11" ry="11" style="stroke: #A80036; stroke-width: 1.0;"/><path d="M942.5938,126.6719 C941.6563,126.2344 941.0625,126.0938 940.1875,126.0938 C937.5625,126.0938 935.5625,128.1719 935.5625,130.8906 L935.5625,132.0156 C935.5625,134.5938 937.6719,136.4844 940.5625,136.4844 C941.7813,136.4844 942.9375,136.1875 943.6875,135.6406 C944.2656,135.2344 944.5938,134.7813 944.5938,134.3906 C944.5938,133.9375 944.2031,133.5469 943.7344,133.5469 C943.5156,133.5469 943.3125,133.625 943.125,133.8125 C942.6719,134.2969 942.6719,134.2969 942.4844,134.3906 C942.0625,134.6563 941.375,134.7813 940.6094,134.7813 C938.5625,134.7813 937.2656,133.6875 937.2656,131.9844 L937.2656,130.8906 C937.2656,129.1094 938.5156,127.7969 940.25,127.7969 C940.8281,127.7969 941.4375,127.9531 941.9063,128.2031 C942.3906,128.4844 942.5625,128.7031 942.6563,129.1094 C942.7188,129.5156 942.75,129.6406 942.8906,129.7656 C943.0313,129.9063 943.2656,130.0156 943.4844,130.0156 C943.75,130.0156 944.0156,129.875 944.1875,129.6563 C944.2969,129.5 944.3281,129.3125 944.3281,128.8906 L944.3281,127.4688 C944.3281,127.0313 944.3125,126.9063 944.2188,126.75 C944.0625,126.4844 943.7813,126.3438 943.4844,126.3438 C943.1875,126.3438 942.9844,126.4375 942.7656,126.75 L942.5938,126.6719 Z "/><text fill="#000000" font-family="sans-serif" font-size="12" lengthAdjust="spacingAndGlyphs" textLength="29" x="960.75" y="135.1543">View</text><line style="stroke: #A80036; stroke-width: 1.5;" x1="893" x2="1025" y1="147" y2="147"/><line style="stroke: #A80036; stroke-width: 1.5;" x1="893" x2="1025" y1="155" y2="155"/><ellipse cx="903" cy="166" fill="#84BE84" rx="3" ry="3" style="stroke: #038048; stroke-width: 1.0;"/><text fill="#000000" font-family="sans-serif" font-size="11" lengthAdjust="spacingAndGlyphs" textLength="108" x="912" y="169.2104">View(Game game)</text><!--MD5=[8c7d7abc12e214c3cc12c9ab70edee11]
class Coordinate--><rect codeLine="9" fill="#FEFECE" filter="url(#f1tf66fgv87odp)" height="48" id="Coordinate" style="stroke: #A80036; stroke-width: 1.5;" width="201" x="1299.5" y="535"/><ellipse cx="1314.5" cy="551" fill="#ADD1B2" rx="11" ry="11" style="stroke: #A80036; stroke-width: 1.0;"/><path d="M1316.8438,546.6719 C1315.9063,546.2344 1315.3125,546.0938 1314.4375,546.0938 C1311.8125,546.0938 1309.8125,548.1719 1309.8125,550.8906 L1309.8125,552.0156 C1309.8125,554.5938 1311.9219,556.4844 1314.8125,556.4844 C1316.0313,556.4844 1317.1875,556.1875 1317.9375,555.6406 C1318.5156,555.2344 1318.8438,554.7813 1318.8438,554.3906 C1318.8438,553.9375 1318.4531,553.5469 1317.9844,553.5469 C1317.7656,553.5469 1317.5625,553.625 1317.375,553.8125 C1316.9219,554.2969 1316.9219,554.2969 1316.7344,554.3906 C1316.3125,554.6563 1315.625,554.7813 1314.8594,554.7813 C1312.8125,554.7813 1311.5156,553.6875 1311.5156,551.9844 L1311.5156,550.8906 C1311.5156,549.1094 1312.7656,547.7969 1314.5,547.7969 C1315.0781,547.7969 1315.6875,547.9531 1316.1563,548.2031 C1316.6406,548.4844 1316.8125,548.7031 1316.9063,549.1094 C1316.9688,549.5156 1317,549.6406 1317.1406,549.7656 C1317.2813,549.9063 1317.5156,550.0156 1317.7344,550.0156 C1318,550.0156 1318.2656,549.875 1318.4375,549.6563 C1318.5469,549.5 1318.5781,549.3125 1318.5781,548.8906 L1318.5781,547.4688 C1318.5781,547.0313 1318.5625,546.9063 1318.4688,546.75 C1318.3125,546.4844 1318.0313,546.3438 1317.7344,546.3438 C1317.4375,546.3438 1317.2344,546.4375 1317.0156,546.75 L1316.8438,546.6719 Z "/><text fill="#000000" font-family="sans-serif" font-size="12" lengthAdjust="spacingAndGlyphs" textLength="169" x="1328.5" y="555.1543">tictactoe.models.Coordinate</text><line style="stroke: #A80036; stroke-width: 1.5;" x1="1300.5" x2="1499.5" y1="567" y2="567"/><line style="stroke: #A80036; stroke-width: 1.5;" x1="1300.5" x2="1499.5" y1="575" y2="575"/><!--MD5=[b8cfd8c4119a3b0a7a46bfc5fc780f85]
class Error--><rect codeLine="10" fill="#FEFECE" filter="url(#f1tf66fgv87odp)" height="48" id="Error" style="stroke: #A80036; stroke-width: 1.5;" width="165" x="419.5" y="535"/><ellipse cx="434.5" cy="551" fill="#ADD1B2" rx="11" ry="11" style="stroke: #A80036; stroke-width: 1.0;"/><path d="M436.8438,546.6719 C435.9063,546.2344 435.3125,546.0938 434.4375,546.0938 C431.8125,546.0938 429.8125,548.1719 429.8125,550.8906 L429.8125,552.0156 C429.8125,554.5938 431.9219,556.4844 434.8125,556.4844 C436.0313,556.4844 437.1875,556.1875 437.9375,555.6406 C438.5156,555.2344 438.8438,554.7813 438.8438,554.3906 C438.8438,553.9375 438.4531,553.5469 437.9844,553.5469 C437.7656,553.5469 437.5625,553.625 437.375,553.8125 C436.9219,554.2969 436.9219,554.2969 436.7344,554.3906 C436.3125,554.6563 435.625,554.7813 434.8594,554.7813 C432.8125,554.7813 431.5156,553.6875 431.5156,551.9844 L431.5156,550.8906 C431.5156,549.1094 432.7656,547.7969 434.5,547.7969 C435.0781,547.7969 435.6875,547.9531 436.1563,548.2031 C436.6406,548.4844 436.8125,548.7031 436.9063,549.1094 C436.9688,549.5156 437,549.6406 437.1406,549.7656 C437.2813,549.9063 437.5156,550.0156 437.7344,550.0156 C438,550.0156 438.2656,549.875 438.4375,549.6563 C438.5469,549.5 438.5781,549.3125 438.5781,548.8906 L438.5781,547.4688 C438.5781,547.0313 438.5625,546.9063 438.4688,546.75 C438.3125,546.4844 438.0313,546.3438 437.7344,546.3438 C437.4375,546.3438 437.2344,546.4375 437.0156,546.75 L436.8438,546.6719 Z "/><text fill="#000000" font-family="sans-serif" font-size="12" lengthAdjust="spacingAndGlyphs" textLength="133" x="448.5" y="555.1543">tictactoe.models.Error</text><line style="stroke: #A80036; stroke-width: 1.5;" x1="420.5" x2="583.5" y1="567" y2="567"/><line style="stroke: #A80036; stroke-width: 1.5;" x1="420.5" x2="583.5" y1="575" y2="575"/><!--MD5=[315b61b427ec618d6861d47eee00cca3]
class Console--><rect codeLine="11" fill="#FEFECE" filter="url(#f1tf66fgv87odp)" height="48" id="Console" style="stroke: #A80036; stroke-width: 1.5;" width="108" x="1072" y="662"/><ellipse cx="1087" cy="678" fill="#ADD1B2" rx="11" ry="11" style="stroke: #A80036; stroke-width: 1.0;"/><path d="M1089.3438,673.6719 C1088.4063,673.2344 1087.8125,673.0938 1086.9375,673.0938 C1084.3125,673.0938 1082.3125,675.1719 1082.3125,677.8906 L1082.3125,679.0156 C1082.3125,681.5938 1084.4219,683.4844 1087.3125,683.4844 C1088.5313,683.4844 1089.6875,683.1875 1090.4375,682.6406 C1091.0156,682.2344 1091.3438,681.7813 1091.3438,681.3906 C1091.3438,680.9375 1090.9531,680.5469 1090.4844,680.5469 C1090.2656,680.5469 1090.0625,680.625 1089.875,680.8125 C1089.4219,681.2969 1089.4219,681.2969 1089.2344,681.3906 C1088.8125,681.6563 1088.125,681.7813 1087.3594,681.7813 C1085.3125,681.7813 1084.0156,680.6875 1084.0156,678.9844 L1084.0156,677.8906 C1084.0156,676.1094 1085.2656,674.7969 1087,674.7969 C1087.5781,674.7969 1088.1875,674.9531 1088.6563,675.2031 C1089.1406,675.4844 1089.3125,675.7031 1089.4063,676.1094 C1089.4688,676.5156 1089.5,676.6406 1089.6406,676.7656 C1089.7813,676.9063 1090.0156,677.0156 1090.2344,677.0156 C1090.5,677.0156 1090.7656,676.875 1090.9375,676.6563 C1091.0469,676.5 1091.0781,676.3125 1091.0781,675.8906 L1091.0781,674.4688 C1091.0781,674.0313 1091.0625,673.9063 1090.9688,673.75 C1090.8125,673.4844 1090.5313,673.3438 1090.2344,673.3438 C1089.9375,673.3438 1089.7344,673.4375 1089.5156,673.75 L1089.3438,673.6719 Z "/><text fill="#000000" font-family="sans-serif" font-size="12" lengthAdjust="spacingAndGlyphs" textLength="76" x="1101" y="682.1543">utils.Console</text><line style="stroke: #A80036; stroke-width: 1.5;" x1="1073" x2="1179" y1="694" y2="694"/><line style="stroke: #A80036; stroke-width: 1.5;" x1="1073" x2="1179" y1="702" y2="702"/><!--MD5=[86cec68673cafdfc1c204348d5b2cca6]
class ErrorView--><rect codeLine="24" fill="#FEFECE" filter="url(#f1tf66fgv87odp)" height="48" id="ErrorView" style="stroke: #A80036; stroke-width: 1.5;" width="184" x="238" y="395"/><ellipse cx="253" cy="411" fill="#ADD1B2" rx="11" ry="11" style="stroke: #A80036; stroke-width: 1.0;"/><path d="M255.3438,406.6719 C254.4063,406.2344 253.8125,406.0938 252.9375,406.0938 C250.3125,406.0938 248.3125,408.1719 248.3125,410.8906 L248.3125,412.0156 C248.3125,414.5938 250.4219,416.4844 253.3125,416.4844 C254.5313,416.4844 255.6875,416.1875 256.4375,415.6406 C257.0156,415.2344 257.3438,414.7813 257.3438,414.3906 C257.3438,413.9375 256.9531,413.5469 256.4844,413.5469 C256.2656,413.5469 256.0625,413.625 255.875,413.8125 C255.4219,414.2969 255.4219,414.2969 255.2344,414.3906 C254.8125,414.6563 254.125,414.7813 253.3594,414.7813 C251.3125,414.7813 250.0156,413.6875 250.0156,411.9844 L250.0156,410.8906 C250.0156,409.1094 251.2656,407.7969 253,407.7969 C253.5781,407.7969 254.1875,407.9531 254.6563,408.2031 C255.1406,408.4844 255.3125,408.7031 255.4063,409.1094 C255.4688,409.5156 255.5,409.6406 255.6406,409.7656 C255.7813,409.9063 256.0156,410.0156 256.2344,410.0156 C256.5,410.0156 256.7656,409.875 256.9375,409.6563 C257.0469,409.5 257.0781,409.3125 257.0781,408.8906 L257.0781,407.4688 C257.0781,407.0313 257.0625,406.9063 256.9688,406.75 C256.8125,406.4844 256.5313,406.3438 256.2344,406.3438 C255.9375,406.3438 255.7344,406.4375 255.5156,406.75 L255.3438,406.6719 Z "/><text fill="#000000" font-family="sans-serif" font-size="12" lengthAdjust="spacingAndGlyphs" textLength="152" x="267" y="415.1543">tictactoe.views.ErrorView</text><line style="stroke: #A80036; stroke-width: 1.5;" x1="239" x2="421" y1="427" y2="427"/><line style="stroke: #A80036; stroke-width: 1.5;" x1="239" x2="421" y1="435" y2="435"/><!--MD5=[b6dcce5e5ef3c84b0b048d11301373dd]
class Game--><rect codeLine="36" fill="#FEFECE" filter="url(#f1tf66fgv87odp)" height="48" id="Game" style="stroke: #A80036; stroke-width: 1.5;" width="170" x="1536" y="535"/><ellipse cx="1551" cy="551" fill="#ADD1B2" rx="11" ry="11" style="stroke: #A80036; stroke-width: 1.0;"/><path d="M1553.3438,546.6719 C1552.4063,546.2344 1551.8125,546.0938 1550.9375,546.0938 C1548.3125,546.0938 1546.3125,548.1719 1546.3125,550.8906 L1546.3125,552.0156 C1546.3125,554.5938 1548.4219,556.4844 1551.3125,556.4844 C1552.5313,556.4844 1553.6875,556.1875 1554.4375,555.6406 C1555.0156,555.2344 1555.3438,554.7813 1555.3438,554.3906 C1555.3438,553.9375 1554.9531,553.5469 1554.4844,553.5469 C1554.2656,553.5469 1554.0625,553.625 1553.875,553.8125 C1553.4219,554.2969 1553.4219,554.2969 1553.2344,554.3906 C1552.8125,554.6563 1552.125,554.7813 1551.3594,554.7813 C1549.3125,554.7813 1548.0156,553.6875 1548.0156,551.9844 L1548.0156,550.8906 C1548.0156,549.1094 1549.2656,547.7969 1551,547.7969 C1551.5781,547.7969 1552.1875,547.9531 1552.6563,548.2031 C1553.1406,548.4844 1553.3125,548.7031 1553.4063,549.1094 C1553.4688,549.5156 1553.5,549.6406 1553.6406,549.7656 C1553.7813,549.9063 1554.0156,550.0156 1554.2344,550.0156 C1554.5,550.0156 1554.7656,549.875 1554.9375,549.6563 C1555.0469,549.5 1555.0781,549.3125 1555.0781,548.8906 L1555.0781,547.4688 C1555.0781,547.0313 1555.0625,546.9063 1554.9688,546.75 C1554.8125,546.4844 1554.5313,546.3438 1554.2344,546.3438 C1553.9375,546.3438 1553.7344,546.4375 1553.5156,546.75 L1553.3438,546.6719 Z "/><text fill="#000000" font-family="sans-serif" font-size="12" lengthAdjust="spacingAndGlyphs" textLength="138" x="1565" y="555.1543">tictactoe.models.Game</text><line style="stroke: #A80036; stroke-width: 1.5;" x1="1537" x2="1705" y1="567" y2="567"/><line style="stroke: #A80036; stroke-width: 1.5;" x1="1537" x2="1705" y1="575" y2="575"/><!--MD5=[bea5b0d46523efab5ea1c1d339f396f0]
class Message--><rect codeLine="37" fill="#FEFECE" filter="url(#f1tf66fgv87odp)" height="48" id="Message" style="stroke: #A80036; stroke-width: 1.5;" width="180" x="7" y="535"/><ellipse cx="22" cy="551" fill="#ADD1B2" rx="11" ry="11" style="stroke: #A80036; stroke-width: 1.0;"/><path d="M24.3438,546.6719 C23.4063,546.2344 22.8125,546.0938 21.9375,546.0938 C19.3125,546.0938 17.3125,548.1719 17.3125,550.8906 L17.3125,552.0156 C17.3125,554.5938 19.4219,556.4844 22.3125,556.4844 C23.5313,556.4844 24.6875,556.1875 25.4375,555.6406 C26.0156,555.2344 26.3438,554.7813 26.3438,554.3906 C26.3438,553.9375 25.9531,553.5469 25.4844,553.5469 C25.2656,553.5469 25.0625,553.625 24.875,553.8125 C24.4219,554.2969 24.4219,554.2969 24.2344,554.3906 C23.8125,554.6563 23.125,554.7813 22.3594,554.7813 C20.3125,554.7813 19.0156,553.6875 19.0156,551.9844 L19.0156,550.8906 C19.0156,549.1094 20.2656,547.7969 22,547.7969 C22.5781,547.7969 23.1875,547.9531 23.6563,548.2031 C24.1406,548.4844 24.3125,548.7031 24.4063,549.1094 C24.4688,549.5156 24.5,549.6406 24.6406,549.7656 C24.7813,549.9063 25.0156,550.0156 25.2344,550.0156 C25.5,550.0156 25.7656,549.875 25.9375,549.6563 C26.0469,549.5 26.0781,549.3125 26.0781,548.8906 L26.0781,547.4688 C26.0781,547.0313 26.0625,546.9063 25.9688,546.75 C25.8125,546.4844 25.5313,546.3438 25.2344,546.3438 C24.9375,546.3438 24.7344,546.4375 24.5156,546.75 L24.3438,546.6719 Z "/><text fill="#000000" font-family="sans-serif" font-size="12" lengthAdjust="spacingAndGlyphs" textLength="148" x="36" y="555.1543">tictactoe.views.Message</text><line style="stroke: #A80036; stroke-width: 1.5;" x1="8" x2="186" y1="567" y2="567"/><line style="stroke: #A80036; stroke-width: 1.5;" x1="8" x2="186" y1="575" y2="575"/><!--MD5=[d93cf99d2b92276f27fe8dbf15140505]
class YesNoDialog--><rect codeLine="75" fill="#FEFECE" filter="url(#f1tf66fgv87odp)" height="48" id="YesNoDialog" style="stroke: #A80036; stroke-width: 1.5;" width="135" x="646.5" y="395"/><ellipse cx="661.5" cy="411" fill="#ADD1B2" rx="11" ry="11" style="stroke: #A80036; stroke-width: 1.0;"/><path d="M663.8438,406.6719 C662.9063,406.2344 662.3125,406.0938 661.4375,406.0938 C658.8125,406.0938 656.8125,408.1719 656.8125,410.8906 L656.8125,412.0156 C656.8125,414.5938 658.9219,416.4844 661.8125,416.4844 C663.0313,416.4844 664.1875,416.1875 664.9375,415.6406 C665.5156,415.2344 665.8438,414.7813 665.8438,414.3906 C665.8438,413.9375 665.4531,413.5469 664.9844,413.5469 C664.7656,413.5469 664.5625,413.625 664.375,413.8125 C663.9219,414.2969 663.9219,414.2969 663.7344,414.3906 C663.3125,414.6563 662.625,414.7813 661.8594,414.7813 C659.8125,414.7813 658.5156,413.6875 658.5156,411.9844 L658.5156,410.8906 C658.5156,409.1094 659.7656,407.7969 661.5,407.7969 C662.0781,407.7969 662.6875,407.9531 663.1563,408.2031 C663.6406,408.4844 663.8125,408.7031 663.9063,409.1094 C663.9688,409.5156 664,409.6406 664.1406,409.7656 C664.2813,409.9063 664.5156,410.0156 664.7344,410.0156 C665,410.0156 665.2656,409.875 665.4375,409.6563 C665.5469,409.5 665.5781,409.3125 665.5781,408.8906 L665.5781,407.4688 C665.5781,407.0313 665.5625,406.9063 665.4688,406.75 C665.3125,406.4844 665.0313,406.3438 664.7344,406.3438 C664.4375,406.3438 664.2344,406.4375 664.0156,406.75 L663.8438,406.6719 Z "/><text fill="#000000" font-family="sans-serif" font-size="12" lengthAdjust="spacingAndGlyphs" textLength="103" x="675.5" y="415.1543">utils.YesNoDialog</text><line style="stroke: #A80036; stroke-width: 1.5;" x1="647.5" x2="780.5" y1="427" y2="427"/><line style="stroke: #A80036; stroke-width: 1.5;" x1="647.5" x2="780.5" y1="435" y2="435"/><!--MD5=[58767b3ac92ed88fc68bd4b9dc66dad3]
class LimitedIntDialog--><rect codeLine="87" fill="#FEFECE" filter="url(#f1tf66fgv87odp)" height="48" id="LimitedIntDialog" style="stroke: #A80036; stroke-width: 1.5;" width="154" x="457" y="395"/><ellipse cx="472" cy="411" fill="#ADD1B2" rx="11" ry="11" style="stroke: #A80036; stroke-width: 1.0;"/><path d="M474.3438,406.6719 C473.4063,406.2344 472.8125,406.0938 471.9375,406.0938 C469.3125,406.0938 467.3125,408.1719 467.3125,410.8906 L467.3125,412.0156 C467.3125,414.5938 469.4219,416.4844 472.3125,416.4844 C473.5313,416.4844 474.6875,416.1875 475.4375,415.6406 C476.0156,415.2344 476.3438,414.7813 476.3438,414.3906 C476.3438,413.9375 475.9531,413.5469 475.4844,413.5469 C475.2656,413.5469 475.0625,413.625 474.875,413.8125 C474.4219,414.2969 474.4219,414.2969 474.2344,414.3906 C473.8125,414.6563 473.125,414.7813 472.3594,414.7813 C470.3125,414.7813 469.0156,413.6875 469.0156,411.9844 L469.0156,410.8906 C469.0156,409.1094 470.2656,407.7969 472,407.7969 C472.5781,407.7969 473.1875,407.9531 473.6563,408.2031 C474.1406,408.4844 474.3125,408.7031 474.4063,409.1094 C474.4688,409.5156 474.5,409.6406 474.6406,409.7656 C474.7813,409.9063 475.0156,410.0156 475.2344,410.0156 C475.5,410.0156 475.7656,409.875 475.9375,409.6563 C476.0469,409.5 476.0781,409.3125 476.0781,408.8906 L476.0781,407.4688 C476.0781,407.0313 476.0625,406.9063 475.9688,406.75 C475.8125,406.4844 475.5313,406.3438 475.2344,406.3438 C474.9375,406.3438 474.7344,406.4375 474.5156,406.75 L474.3438,406.6719 Z "/><text fill="#000000" font-family="sans-serif" font-size="12" lengthAdjust="spacingAndGlyphs" textLength="122" x="486" y="415.1543">utils.LimitedIntDialog</text><line style="stroke: #A80036; stroke-width: 1.5;" x1="458" x2="610" y1="427" y2="427"/><line style="stroke: #A80036; stroke-width: 1.5;" x1="458" x2="610" y1="435" y2="435"/><!--MD5=[d8c8cfd5ca149094f5b67f9f607a5ec7]
class Token--><rect codeLine="103" fill="#FEFECE" filter="url(#f1tf66fgv87odp)" height="48" id="Token" style="stroke: #A80036; stroke-width: 1.5;" width="172" x="865" y="662"/><ellipse cx="880" cy="678" fill="#ADD1B2" rx="11" ry="11" style="stroke: #A80036; stroke-width: 1.0;"/><path d="M882.3438,673.6719 C881.4063,673.2344 880.8125,673.0938 879.9375,673.0938 C877.3125,673.0938 875.3125,675.1719 875.3125,677.8906 L875.3125,679.0156 C875.3125,681.5938 877.4219,683.4844 880.3125,683.4844 C881.5313,683.4844 882.6875,683.1875 883.4375,682.6406 C884.0156,682.2344 884.3438,681.7813 884.3438,681.3906 C884.3438,680.9375 883.9531,680.5469 883.4844,680.5469 C883.2656,680.5469 883.0625,680.625 882.875,680.8125 C882.4219,681.2969 882.4219,681.2969 882.2344,681.3906 C881.8125,681.6563 881.125,681.7813 880.3594,681.7813 C878.3125,681.7813 877.0156,680.6875 877.0156,678.9844 L877.0156,677.8906 C877.0156,676.1094 878.2656,674.7969 880,674.7969 C880.5781,674.7969 881.1875,674.9531 881.6563,675.2031 C882.1406,675.4844 882.3125,675.7031 882.4063,676.1094 C882.4688,676.5156 882.5,676.6406 882.6406,676.7656 C882.7813,676.9063 883.0156,677.0156 883.2344,677.0156 C883.5,677.0156 883.7656,676.875 883.9375,676.6563 C884.0469,676.5 884.0781,676.3125 884.0781,675.8906 L884.0781,674.4688 C884.0781,674.0313 884.0625,673.9063 883.9688,673.75 C883.8125,673.4844 883.5313,673.3438 883.2344,673.3438 C882.9375,673.3438 882.7344,673.4375 882.5156,673.75 L882.3438,673.6719 Z "/><text fill="#000000" font-family="sans-serif" font-size="12" lengthAdjust="spacingAndGlyphs" textLength="140" x="894" y="682.1543">tictactoe.models.Token</text><line style="stroke: #A80036; stroke-width: 1.5;" x1="866" x2="1036" y1="694" y2="694"/><line style="stroke: #A80036; stroke-width: 1.5;" x1="866" x2="1036" y1="702" y2="702"/><!--MD5=[c045e12321b83266d36d22b9096c24ea]
class View--><rect codeLine="114" fill="#FEFECE" filter="url(#f1tf66fgv87odp)" height="48" id="View" style="stroke: #A80036; stroke-width: 1.5;" width="154" x="882" y="7"/><ellipse cx="897" cy="23" fill="#ADD1B2" rx="11" ry="11" style="stroke: #A80036; stroke-width: 1.0;"/><path d="M899.3438,18.6719 C898.4063,18.2344 897.8125,18.0938 896.9375,18.0938 C894.3125,18.0938 892.3125,20.1719 892.3125,22.8906 L892.3125,24.0156 C892.3125,26.5938 894.4219,28.4844 897.3125,28.4844 C898.5313,28.4844 899.6875,28.1875 900.4375,27.6406 C901.0156,27.2344 901.3438,26.7813 901.3438,26.3906 C901.3438,25.9375 900.9531,25.5469 900.4844,25.5469 C900.2656,25.5469 900.0625,25.625 899.875,25.8125 C899.4219,26.2969 899.4219,26.2969 899.2344,26.3906 C898.8125,26.6563 898.125,26.7813 897.3594,26.7813 C895.3125,26.7813 894.0156,25.6875 894.0156,23.9844 L894.0156,22.8906 C894.0156,21.1094 895.2656,19.7969 897,19.7969 C897.5781,19.7969 898.1875,19.9531 898.6563,20.2031 C899.1406,20.4844 899.3125,20.7031 899.4063,21.1094 C899.4688,21.5156 899.5,21.6406 899.6406,21.7656 C899.7813,21.9063 900.0156,22.0156 900.2344,22.0156 C900.5,22.0156 900.7656,21.875 900.9375,21.6563 C901.0469,21.5 901.0781,21.3125 901.0781,20.8906 L901.0781,19.4688 C901.0781,19.0313 901.0625,18.9063 900.9688,18.75 C900.8125,18.4844 900.5313,18.3438 900.2344,18.3438 C899.9375,18.3438 899.7344,18.4375 899.5156,18.75 L899.3438,18.6719 Z "/><text fill="#000000" font-family="sans-serif" font-size="12" lengthAdjust="spacingAndGlyphs" textLength="122" x="911" y="27.1543">tictactoe.views.View</text><line style="stroke: #A80036; stroke-width: 1.5;" x1="883" x2="1035" y1="39" y2="39"/><line style="stroke: #A80036; stroke-width: 1.5;" x1="883" x2="1035" y1="47" y2="47"/><!--MD5=[b44a7c032619397c63802a117d0c01c0]
link tictactoe.views.console.CoordinateView to tictactoe.views.console.ErrorView--><path codeLine="7" d="M962.333,449.604 C947.824,469.428 928.54,495.777 912.618,517.532 " fill="none" id="tictactoe.views.console.CoordinateView-to-tictactoe.views.console.ErrorView" style="stroke: #A80036; stroke-width: 1.0; stroke-dasharray: 7.0,7.0;"/><polygon fill="#A80036" points="909.48,521.819,918.0226,516.9176,912.4325,517.7838,911.5663,512.1937,909.48,521.819" style="stroke: #A80036; stroke-width: 1.0;"/><!--MD5=[a06a410d0f6c1be87ea9d2d5c8f79243]
link tictactoe.views.console.CoordinateView to Console--><path codeLine="13" d="M1075.7,449.671 C1106.44,464.494 1137.37,485.884 1155,516 C1179.7,558.191 1166.07,578.381 1155,626 C1152.51,636.7002 1147.8,647.6945 1142.88,657.2491 " fill="none" id="tictactoe.views.console.CoordinateView-to-Console" style="stroke: #A80036; stroke-width: 1.0; stroke-dasharray: 7.0,7.0;"/><polygon fill="#A80036" points="1140.46,661.8164,1148.2034,655.7304,1142.7975,657.3964,1141.1314,651.9905,1140.46,661.8164" style="stroke: #A80036; stroke-width: 1.0;"/><!--MD5=[3ea4caf7e48eaae8f655dde5cd3263f2]
link tictactoe.views.console.CoordinateView to Error--><path codeLine="14" d="M891.351,446.526 C803.543,471.666 672.732,509.118 587.395,533.551 " fill="none" id="tictactoe.views.console.CoordinateView-to-Error" style="stroke: #A80036; stroke-width: 1.0; stroke-dasharray: 7.0,7.0;"/><polygon fill="#A80036" points="582.35,534.995,592.1033,536.3636,587.1569,533.6189,589.9016,528.6726,582.35,534.995" style="stroke: #A80036; stroke-width: 1.0;"/><!--MD5=[6e79601aef612c06e9891b4875f898f3]
link tictactoe.views.console.CoordinateView to Coordinate--><path codeLine="15" d="M1074.02,449.535 C1080.78,451.73 1087.5,453.904 1094,456 C1177.88,483.04 1199.51,487.774 1283,516 C1298.93,521.387 1316.01,527.387 1332.06,533.127 " fill="none" id="tictactoe.views.console.CoordinateView-to-Coordinate" style="stroke: #A80036; stroke-width: 1.0; stroke-dasharray: 7.0,7.0;"/><polygon fill="#A80036" points="1337,534.899,1329.8762,528.0982,1332.2929,533.2128,1327.1783,535.6295,1337,534.899" style="stroke: #A80036; stroke-width: 1.0;"/><!--MD5=[09df14cf147ebf3fa601d40955ce3c27]
reverse link ErrorView to tictactoe.views.console.ErrorView--><path codeLine="26" d="M415.823,449.172 C423.631,451.575 431.442,453.889 439,456 C572.116,493.186 730.386,527.133 817.442,544.935 " fill="none" id="ErrorView-backto-tictactoe.views.console.ErrorView" style="stroke: #A80036; stroke-width: 1.0;"/><polygon fill="none" points="413.52,455.786,396.566,443.076,417.746,442.438,413.52,455.786" style="stroke: #A80036; stroke-width: 1.0;"/><!--MD5=[8ec17c1eeb1fabb729f4f45734e470f6]
link tictactoe.views.console.ErrorView to Console--><path codeLine="27" d="M923.372,596.329 C936.368,606.834 951.239,617.6941 966,626 C983.841,636.0389 1029.1,652.4489 1066.94,665.4172 " fill="none" id="tictactoe.views.console.ErrorView-to-Console" style="stroke: #A80036; stroke-width: 1.0; stroke-dasharray: 7.0,7.0;"/><polygon fill="#A80036" points="1071.99,667.1422,1064.7818,660.4309,1067.2622,665.5149,1062.1782,667.9953,1071.99,667.1422" style="stroke: #A80036; stroke-width: 1.0;"/><!--MD5=[830b7a047421b50e87daa1ed765f16e2]
link tictactoe.views.console.GameView to Game--><path codeLine="39" d="M1278.4058,443.3966 C1278.4058,443.3966 1438.47,488.264 1518,516 C1530.17,520.245 1543,525.131 1555.31,530.036 " fill="none" id="tictactoe.views.console.GameView-Game" style="stroke: #A80036; stroke-width: 1.0;"/><polygon fill="#A80036" points="1567.41,534.925,1560.5647,527.8439,1562.7743,533.0514,1557.5669,535.261,1567.41,534.925" style="stroke: #A80036; stroke-width: 1.0;"/><line style="stroke: #A80036; stroke-width: 1.0;" x1="1562.7743" x2="1555.355" y1="533.0514" y2="530.0545"/><polygon fill="#A80036" points="1266.82,440.271,1271.571,445.6957,1278.4058,443.3966,1273.6548,437.9719,1266.82,440.271" style="stroke: #A80036; stroke-width: 1.0;"/><!--MD5=[0e43d69a696b22bc5281d1cc9667df5e]
link tictactoe.views.console.GameView to Coordinate--><path codeLine="40" d="M1244.16,456.078 C1280.62,479.923 1327.56,510.621 1360.35,532.068 " fill="none" id="tictactoe.views.console.GameView-to-Coordinate" style="stroke: #A80036; stroke-width: 1.0; stroke-dasharray: 7.0,7.0;"/><polygon fill="#A80036" points="1364.68,534.899,1359.3261,526.6324,1360.4918,532.1679,1354.9564,533.3335,1364.68,534.899" style="stroke: #A80036; stroke-width: 1.0;"/><!--MD5=[08b09d3eac180f3c67266adaed935b89]
link tictactoe.views.console.GameView to Message--><path codeLine="41" d="M1111.25,451.412 C1105.46,453.146 1099.67,454.705 1094,456 C793.028,524.682 708.787,481.599 402,516 C331.605,523.894 252.358,534.87 192.288,543.622 " fill="none" id="tictactoe.views.console.GameView-to-Message" style="stroke: #A80036; stroke-width: 1.0; stroke-dasharray: 7.0,7.0;"/><polygon fill="#A80036" points="187.268,544.355,196.7518,547.0117,192.2155,543.6321,195.5951,539.0958,187.268,544.355" style="stroke: #A80036; stroke-width: 1.0;"/><!--MD5=[3ac3af79272becd7c39264f50d90da00]
link tictactoe.views.console.GameView to tictactoe.views.console.TokenView--><path codeLine="42" d="M1155.37,456.258 C1139.67,473.185 1120.79,493.535 1104.06,511.572 " fill="none" id="tictactoe.views.console.GameView-to-tictactoe.views.console.TokenView" style="stroke: #A80036; stroke-width: 1.0; stroke-dasharray: 7.0,7.0;"/><polygon fill="#A80036" points="1100.31,515.622,1109.3608,511.7384,1103.7081,511.9542,1103.4923,506.3014,1100.31,515.622" style="stroke: #A80036; stroke-width: 1.0;"/><!--MD5=[5c6eed95f5cabfd16ce9bb88f31ccc8b]
link tictactoe.views.console.SubView to Game--><path codeLine="50" d="M1176.3513,183.8209 C1176.3513,183.8209 1494.92,451.902 1583.49,526.438 " fill="none" id="tictactoe.views.console.SubView-Game" style="stroke: #A80036; stroke-width: 1.0;"/><polygon fill="#A80036" points="1593.62,534.957,1589.3097,526.1014,1589.7945,531.7375,1584.1584,532.2223,1593.62,534.957" style="stroke: #A80036; stroke-width: 1.0;"/><line style="stroke: #A80036; stroke-width: 1.0;" x1="1589.7945" x2="1583.67" y1="531.7375" y2="526.5865"/><polygon fill="#A80036" points="1167.17,176.094,1169.185,183.0179,1176.3513,183.8209,1174.3363,176.897,1167.17,176.094" style="stroke: #A80036; stroke-width: 1.0;"/><!--MD5=[11fd0b4de8b90a11bd82623cfccc451d]
reverse link tictactoe.views.console.SubView to tictactoe.views.console.PlayView--><path codeLine="60" d="M1132,196.138 C1132,209.225 1132,223.22 1132,235.869 " fill="none" id="tictactoe.views.console.SubView-backto-tictactoe.views.console.PlayView" style="stroke: #A80036; stroke-width: 1.0;"/><polygon fill="none" points="1125,196.011,1132,176.011,1139,196.011,1125,196.011" style="stroke: #A80036; stroke-width: 1.0;"/><!--MD5=[3b49bdf6c7f6ce83eed251a9af28dbf3]
link tictactoe.views.console.PlayView to Coordinate--><path codeLine="61" d="M1174.31,302.255 C1206.79,320.708 1251.44,349.168 1284,382 C1329.13,427.507 1366.8,493.122 1386.1,530.034 " fill="none" id="tictactoe.views.console.PlayView-to-Coordinate" style="stroke: #A80036; stroke-width: 1.0; stroke-dasharray: 7.0,7.0;"/><polygon fill="#A80036" points="1388.59,534.828,1387.9996,524.9969,1386.2891,530.3889,1380.8971,528.6783,1388.59,534.828" style="stroke: #A80036; stroke-width: 1.0;"/><!--MD5=[f335b251d0d5a458b635239e43cc0bb5]
link tictactoe.views.console.PlayView to Message--><path codeLine="62" d="M1089.68,303.062 C1078.77,310.429 1066.99,317.765 1055,322 C871.23,386.923 344.998,278.26 180,382 C126.471,415.656 98.7888,488.94 92.965,529.525 " fill="none" id="tictactoe.views.console.PlayView-to-Message" style="stroke: #A80036; stroke-width: 1.0; stroke-dasharray: 7.0,7.0;"/><polygon fill="#A80036" points="92.3123,534.787,97.3877,526.3466,92.9266,529.8249,89.4483,525.3637,92.3123,534.787" style="stroke: #A80036; stroke-width: 1.0;"/><!--MD5=[f335b251d0d5a458b635239e43cc0bb5]
link tictactoe.views.console.PlayView to Message--><path codeLine="78" d="M1089.73,322.095 C905.716,386.817 379.917,278.31 215,382 C161.252,415.793 133.563,489.539 115.595,530.02 " fill="none" id="tictactoe.views.console.PlayView-to-Message-1" style="stroke: #A80036; stroke-width: 1.0; stroke-dasharray: 7.0,7.0;"/><polygon fill="#A80036" points="113.45,534.787,120.7903,528.2204,115.5013,530.2272,113.4946,524.9382,113.45,534.787" style="stroke: #A80036; stroke-width: 1.0;"/><!--MD5=[b8eae5493de689ae966fe038f1428b07]
link tictactoe.views.console.PlayView to Error--><path codeLine="63" d="M1089.95,313.497 C1084.17,316.865 1078.11,319.834 1072,322 C982.548,353.694 284.705,312.578 220,382 C197.576,406.059 201.109,429.078 220,456 C263.572,518.095 348.896,542.548 414.331,552.093 " fill="none" id="tictactoe.views.console.PlayView-to-Error" style="stroke: #A80036; stroke-width: 1.0; stroke-dasharray: 7.0,7.0;"/><polygon fill="#A80036" points="419.404,552.809,411.0511,547.5909,414.453,552.1105,409.9335,555.5125,419.404,552.809" style="stroke: #A80036; stroke-width: 1.0;"/><!--MD5=[e071d848ecb5a4df5f49ec11249b339d]
link tictactoe.views.console.PlayView to tictactoe.views.console.ErrorView--><path codeLine="64" d="M1089.82,312.151 C1084.01,315.788 1077.98,319.189 1072,322 C980.652,364.901 914.211,301.763 853,382 C823.372,420.837 841.591,478.556 859.976,517.191 " fill="none" id="tictactoe.views.console.PlayView-to-tictactoe.views.console.ErrorView" style="stroke: #A80036; stroke-width: 1.0; stroke-dasharray: 7.0,7.0;"/><polygon fill="#A80036" points="862.215,521.805,861.8835,511.9617,860.0317,517.3069,854.6865,515.4551,862.215,521.805" style="stroke: #A80036; stroke-width: 1.0;"/><!--MD5=[62ef53832a268c8eeef898be5bf89785]
link tictactoe.views.console.PlayView to tictactoe.views.console.CoordinateView--><path codeLine="65" d="M1089.99,319.176 C1067.78,339.881 1040.82,365.021 1019.64,384.764 " fill="none" id="tictactoe.views.console.PlayView-to-tictactoe.views.console.CoordinateView" style="stroke: #A80036; stroke-width: 1.0; stroke-dasharray: 7.0,7.0;"/><polygon fill="#A80036" points="1015.76,388.385,1025.0683,385.1671,1019.4148,384.9729,1019.609,379.3194,1015.76,388.385" style="stroke: #A80036; stroke-width: 1.0;"/><!--MD5=[1d94d73bec449a448ed14c1a89f503c1]
link tictactoe.views.console.PlayView to tictactoe.views.console.GameView--><path codeLine="66" d="M1149.41,322.154 C1156.59,339.543 1164.89,359.626 1172.03,376.903 " fill="none" id="tictactoe.views.console.PlayView-to-tictactoe.views.console.GameView" style="stroke: #A80036; stroke-width: 1.0; stroke-dasharray: 7.0,7.0;"/><polygon fill="#A80036" points="1174.01,381.697,1174.2663,371.8515,1172.0989,377.0766,1166.8738,374.9092,1174.01,381.697" style="stroke: #A80036; stroke-width: 1.0;"/><!--MD5=[79c70b9791342a198a7a508e5eca16c0]
link tictactoe.views.console.PlayView to tictactoe.views.console.TokenView--><path codeLine="67" d="M1089.75,311.998 C1083.95,315.66 1077.95,319.109 1072,322 C989.302,362.201 928.786,308.152 874,382 C854.404,408.414 857.211,427.719 874,456 C880.366,466.724 931.948,494.469 979.325,518.319 " fill="none" id="tictactoe.views.console.PlayView-to-tictactoe.views.console.TokenView" style="stroke: #A80036; stroke-width: 1.0; stroke-dasharray: 7.0,7.0;"/><polygon fill="#A80036" points="983.895,520.614,977.6476,513.0002,979.4269,518.3699,974.0571,520.1492,983.895,520.614" style="stroke: #A80036; stroke-width: 1.0;"/><!--MD5=[4e0d38e8c19130cebcd44920f1a5db01]
reverse link tictactoe.views.console.SubView to tictactoe.views.console.ResumeView--><path codeLine="77" d="M1050.22,184.906 C1018.12,200.337 981.11,218.574 948,236 C940.549,239.922 932.747,244.179 925.12,248.428 " fill="none" id="tictactoe.views.console.SubView-backto-tictactoe.views.console.ResumeView" style="stroke: #A80036; stroke-width: 1.0;"/><polygon fill="none" points="1047.42,178.485,1068.49,176.172,1053.46,191.115,1047.42,178.485" style="stroke: #A80036; stroke-width: 1.0;"/><!--MD5=[cdf9c19817dae34c30ad28ba6198574f]
link tictactoe.views.console.PlayView to YesNoDialog--><path codeLine="79" d="M1089.95,312.435 C1084.12,316.025 1078.05,319.338 1072,322 C959.076,371.66 918.663,344.942 801,382 C790.86,385.194 780.256,389.088 770.08,393.121 " fill="none" id="tictactoe.views.console.PlayView-to-YesNoDialog" style="stroke: #A80036; stroke-width: 1.0; stroke-dasharray: 7.0,7.0;"/><polygon fill="#A80036" points="765.437,394.982,775.2791,395.3461,770.078,393.1216,772.3025,387.9205,765.437,394.982" style="stroke: #A80036; stroke-width: 1.0;"/><!--MD5=[7673bd27460f3a4a9a8df0bc75b145a4]
reverse link tictactoe.views.console.SubView to tictactoe.views.console.StartView--><path codeLine="89" d="M1090.93,190.765 C1073.42,209.646 1053.44,231.182 1037.71,248.132 " fill="none" id="tictactoe.views.console.SubView-backto-tictactoe.views.console.StartView" style="stroke: #A80036; stroke-width: 1.0;"/><polygon fill="none" points="1085.89,185.912,1104.62,176.011,1096.15,195.434,1085.89,185.912" style="stroke: #A80036; stroke-width: 1.0;"/><!--MD5=[cbe56104a70ea1577228555875c75924]
link tictactoe.views.console.StartView to Message--><path codeLine="90" d="M973.001,309.61 C965.141,314.559 956.606,319.041 948,322 C853.854,354.375 121.999,309.284 54,382 C15.8072,422.842 51.3946,491.833 76.7098,530.183 " fill="none" id="tictactoe.views.console.StartView-to-Message" style="stroke: #A80036; stroke-width: 1.0; stroke-dasharray: 7.0,7.0;"/><polygon fill="#A80036" points="79.7405,534.703,78.0513,525.0001,76.9563,530.5499,71.4064,529.4549,79.7405,534.703" style="stroke: #A80036; stroke-width: 1.0;"/><!--MD5=[f18569398a34687a26f0429a50bef928]
link tictactoe.views.console.StartView to LimitedIntDialog--><path codeLine="91" d="M971.35,309.665 C963.898,314.358 955.934,318.732 948,322 C814.605,376.936 767.879,342.955 629,382 C617.783,385.154 606.029,389.077 594.762,393.163 " fill="none" id="tictactoe.views.console.StartView-to-LimitedIntDialog" style="stroke: #A80036; stroke-width: 1.0; stroke-dasharray: 7.0,7.0;"/><polygon fill="#A80036" points="589.966,394.922,599.7929,395.5789,594.6603,393.2006,597.0386,388.0679,589.966,394.922" style="stroke: #A80036; stroke-width: 1.0;"/><!--MD5=[f61c5bd14fbcc9ba89615e843b6dda72]
link tictactoe.views.console.StartView to tictactoe.views.console.GameView--><path codeLine="92" d="M1048.4,309.604 C1074.54,329.759 1109.43,356.657 1137.92,378.616 " fill="none" id="tictactoe.views.console.StartView-to-tictactoe.views.console.GameView" style="stroke: #A80036; stroke-width: 1.0; stroke-dasharray: 7.0,7.0;"/><polygon fill="#A80036" points="1142.07,381.819,1137.3903,373.1529,1138.1122,378.7636,1132.5016,379.4854,1142.07,381.819" style="stroke: #A80036; stroke-width: 1.0;"/><!--MD5=[5cc3be8a170e5cc12bfcd2ebadd91b3c]
link tictactoe.views.console.TokenView to Token--><path codeLine="105" d="M1015.8316,611.3268 C1015.8316,611.3268 991.014,639.5298 980.388,651.6041 " fill="none" id="tictactoe.views.console.TokenView-Token" style="stroke: #A80036; stroke-width: 1.0;"/><polygon fill="#A80036" points="971.529,661.6717,980.4774,657.5575,974.832,657.918,974.4715,652.2727,971.529,661.6717" style="stroke: #A80036; stroke-width: 1.0;"/><line style="stroke: #A80036; stroke-width: 1.0;" x1="974.832" x2="980.117" y1="657.918" y2="651.9124"/><polygon fill="#A80036" points="1023.76,602.319,1016.7932,604.1801,1015.8316,611.3268,1022.7984,609.4657,1023.76,602.319" style="stroke: #A80036; stroke-width: 1.0;"/><!--MD5=[16663f6c30a757bb90c76c611193dbff]
link tictactoe.views.console.TokenView to Console--><path codeLine="106" d="M1083.01,602.319 C1092.35,620.2917 1102.99,640.7581 1111.35,656.8319 " fill="none" id="tictactoe.views.console.TokenView-to-Console" style="stroke: #A80036; stroke-width: 1.0; stroke-dasharray: 7.0,7.0;"/><polygon fill="#A80036" points="1113.87,661.6717,1113.2727,651.841,1111.5659,657.2342,1106.1727,655.5275,1113.87,661.6717" style="stroke: #A80036; stroke-width: 1.0;"/><!--MD5=[951de10344d26251e74b615ca1358524]
reverse link View to tictactoe.views.console.View--><path codeLine="116" d="M959,75.109 C959,88.312 959,102.537 959,114.65 " fill="none" id="View-backto-tictactoe.views.console.View" style="stroke: #A80036; stroke-width: 1.0;"/><polygon fill="none" points="952,75.038,959,55.038,966,75.037,952,75.038" style="stroke: #A80036; stroke-width: 1.0;"/><!--MD5=[efa28b0e883dc8aee53441ffaa59c110]
link tictactoe.views.console.View to tictactoe.views.console.ResumeView--><path codeLine="117" d="M933.4095,186.0887 C933.4095,186.0887 910.753,221.141 900.483,237.029 " fill="none" id="tictactoe.views.console.View-tictactoe.views.console.ResumeView" style="stroke: #A80036; stroke-width: 1.0;"/><polygon fill="#A80036" points="893.306,248.132,901.5511,242.7452,896.0204,243.9329,894.8327,238.4022,893.306,248.132" style="stroke: #A80036; stroke-width: 1.0;"/><line style="stroke: #A80036; stroke-width: 1.0;" x1="896.0204" x2="900.363" y1="243.9329" y2="237.215"/><polygon fill="#A80036" points="939.924,176.011,933.3075,178.8784,933.4095,186.0887,940.026,183.2214,939.924,176.011" style="stroke: #A80036; stroke-width: 1.0;"/><!--MD5=[22151b8577f68478464723ad5671195d]
link tictactoe.views.console.View to tictactoe.views.console.PlayView--><path codeLine="118" d="M1007.3767,183.275 C1007.3767,183.275 1056.99,220.983 1079.56,238.14 " fill="none" id="tictactoe.views.console.View-tictactoe.views.console.PlayView" style="stroke: #A80036; stroke-width: 1.0;"/><polygon fill="#A80036" points="1089.98,246.058,1085.2383,237.4257,1086.0004,243.031,1080.3951,243.7931,1089.98,246.058" style="stroke: #A80036; stroke-width: 1.0;"/><line style="stroke: #A80036; stroke-width: 1.0;" x1="1086.0004" x2="1079.625" y1="243.031" y2="238.191"/><polygon fill="#A80036" points="997.825,176.011,1000.1795,182.8269,1007.3767,183.275,1005.0222,176.4591,997.825,176.011" style="stroke: #A80036; stroke-width: 1.0;"/><!--MD5=[e33ddbb73f4633037967697537dd6d15]
link tictactoe.views.console.View to tictactoe.views.console.StartView--><path codeLine="119" d="M974.7848,187.1988 C974.7848,187.1988 987.754,220.641 993.664,235.879 " fill="none" id="tictactoe.views.console.View-tictactoe.views.console.StartView" style="stroke: #A80036; stroke-width: 1.0;"/><polygon fill="#A80036" points="998.416,248.132,998.8918,238.2946,996.6084,243.4702,991.4329,241.1868,998.416,248.132" style="stroke: #A80036; stroke-width: 1.0;"/><line style="stroke: #A80036; stroke-width: 1.0;" x1="996.6084" x2="993.7155" y1="243.4702" y2="236.012"/><polygon fill="#A80036" points="970.445,176.011,968.8856,183.0515,974.7848,187.1988,976.3442,180.1583,970.445,176.011" style="stroke: #A80036; stroke-width: 1.0;"/><!--MD5=[429611199f97a7a98d4ed03be50783c7]
@startuml
class tictactoe.views.console.CoordinateView {

    + Coordinate read(String title)

}

tictactoe.views.console.CoordinateView ..> tictactoe.views.console.ErrorView

class Coordinate as "tictactoe.models.Coordinate"
class Error as "tictactoe.models.Error"
class Console as "utils.Console"

tictactoe.views.console.CoordinateView ..> Console
tictactoe.views.console.CoordinateView ..> Error
tictactoe.views.console.CoordinateView ..> Coordinate

class tictactoe.views.console.ErrorView {

	ErrorView(Error error)
	writeln()

}

class ErrorView as "tictactoe.views.ErrorView"

ErrorView <|- - tictactoe.views.console.ErrorView
tictactoe.views.console.ErrorView ..> Console

class tictactoe.views.console.GameView {
  
    GameView(Game game)
	write()

}

class Game as "tictactoe.models.Game"
class Message as "tictactoe.views.Message"

tictactoe.views.console.GameView *- -> Game
tictactoe.views.console.GameView ..> Coordinate
tictactoe.views.console.GameView ..> Message
tictactoe.views.console.GameView ..> tictactoe.views.console.TokenView

class tictactoe.views.console.SubView {

	SubView(Game game)
  
}

tictactoe.views.console.SubView *- -> Game

class tictactoe.views.console.PlayView {

    interact()
    - put()
    - move()

}

tictactoe.views.console.SubView <|- - tictactoe.views.console.PlayView
tictactoe.views.console.PlayView ..> Coordinate
tictactoe.views.console.PlayView ..> Message
tictactoe.views.console.PlayView ..> Error
tictactoe.views.console.PlayView ..> tictactoe.views.console.ErrorView
tictactoe.views.console.PlayView ..> tictactoe.views.console.CoordinateView
tictactoe.views.console.PlayView ..> tictactoe.views.console.GameView
tictactoe.views.console.PlayView ..> tictactoe.views.console.TokenView

class tictactoe.views.console.ResumeView {

	boolean interact()

}

class YesNoDialog as "utils.YesNoDialog"

tictactoe.views.console.SubView <|- - tictactoe.views.console.ResumeView
tictactoe.views.console.PlayView ..> Message
tictactoe.views.console.PlayView ..> YesNoDialog

class tictactoe.views.console.StartView {

	interact()

}

class LimitedIntDialog as "utils.LimitedIntDialog"

tictactoe.views.console.SubView <|- - tictactoe.views.console.StartView
tictactoe.views.console.StartView ..> Message
tictactoe.views.console.StartView ..> LimitedIntDialog
tictactoe.views.console.StartView ..> tictactoe.views.console.GameView

class tictactoe.views.console.TokenView {

	+ {static} char[] SYMBOLS

	TokenView(Token token)
	write()

}

class Token as "tictactoe.models.Token"

tictactoe.views.console.TokenView *- -> Token
tictactoe.views.console.TokenView ..> Console

class tictactoe.views.console.View {

	+ View(Game game)

}

class View as "tictactoe.views.View"

View <|- - tictactoe.views.console.View
tictactoe.views.console.View *- -> tictactoe.views.console.ResumeView
tictactoe.views.console.View *- -> tictactoe.views.console.PlayView
tictactoe.views.console.View *- -> tictactoe.views.console.StartView
@enduml

PlantUML version 1.2020.20beta4(Unknown compile time)
(GPL source distribution)
Java Runtime: Java(TM) SE Runtime Environment
JVM: Java HotSpot(TM) 64-Bit Server VM
Default Encoding: UTF-8
Language: en
Country: US
--></g></svg>