<?xml version="1.0" encoding="UTF-8" standalone="no"?><svg xmlns="http://www.w3.org/2000/svg" xmlns:xlink="http://www.w3.org/1999/xlink" contentScriptType="application/ecmascript" contentStyleType="text/css" height="478px" preserveAspectRatio="none" style="width:653px;height:478px;" version="1.1" viewBox="0 0 653 478" width="653px" zoomAndPan="magnify"><defs><filter height="300%" id="f1uuudnyfm6h60" width="300%" x="-1" y="-1"><feGaussianBlur result="blurOut" stdDeviation="2.0"/><feColorMatrix in="blurOut" result="blurOut2" type="matrix" values="0 0 0 0 0 0 0 0 0 0 0 0 0 0 0 0 0 0 .4 0"/><feOffset dx="4.0" dy="4.0" in="blurOut2" result="blurOut3"/><feBlend in="SourceGraphic" in2="blurOut3" mode="normal"/></filter></defs><g><!--MD5=[f4e83a21a957c5b9ba9691e6361db36b]
cluster tictactoe.views--><polygon fill="#FFFFFF" filter="url(#f1uuudnyfm6h60)" points="16,6,148,6,155,28.2969,636,28.2969,636,348,16,348,16,6" style="stroke: #000000; stroke-width: 1.5;"/><line style="stroke: #000000; stroke-width: 1.5;" x1="16" x2="155" y1="28.2969" y2="28.2969"/><text fill="#000000" font-family="sans-serif" font-size="14" font-weight="bold" lengthAdjust="spacingAndGlyphs" textLength="126" x="20" y="20.9951">tictactoe.views</text><!--MD5=[51cd642fcc96b47682a93d9084d46dec]
cluster tictactoe.models--><polygon fill="#FFFFFF" filter="url(#f1uuudnyfm6h60)" points="38,372,183,372,190,394.2969,193,394.2969,193,471,38,471,38,372" style="stroke: #000000; stroke-width: 1.5;"/><line style="stroke: #000000; stroke-width: 1.5;" x1="38" x2="190" y1="394.2969" y2="394.2969"/><text fill="#000000" font-family="sans-serif" font-size="14" font-weight="bold" lengthAdjust="spacingAndGlyphs" textLength="139" x="42" y="386.9951">tictactoe.models</text><!--MD5=[17799e03bfee0ccb3aa03b93da9c26d6]
class tictactoe.views.ErrorView--><rect codeLine="1" fill="#FEFECE" filter="url(#f1uuudnyfm6h60)" height="86.4141" id="tictactoe.views.ErrorView" style="stroke: #A80036; stroke-width: 1.5;" width="145" x="474.5" y="143.5"/><ellipse cx="513.8" cy="159.5" fill="#ADD1B2" rx="11" ry="11" style="stroke: #A80036; stroke-width: 1.0;"/><path d="M516.1438,155.1719 C515.2063,154.7344 514.6125,154.5938 513.7375,154.5938 C511.1125,154.5938 509.1125,156.6719 509.1125,159.3906 L509.1125,160.5156 C509.1125,163.0938 511.2219,164.9844 514.1125,164.9844 C515.3313,164.9844 516.4875,164.6875 517.2375,164.1406 C517.8156,163.7344 518.1438,163.2813 518.1438,162.8906 C518.1438,162.4375 517.7531,162.0469 517.2844,162.0469 C517.0656,162.0469 516.8625,162.125 516.675,162.3125 C516.2219,162.7969 516.2219,162.7969 516.0344,162.8906 C515.6125,163.1563 514.925,163.2813 514.1594,163.2813 C512.1125,163.2813 510.8156,162.1875 510.8156,160.4844 L510.8156,159.3906 C510.8156,157.6094 512.0656,156.2969 513.8,156.2969 C514.3781,156.2969 514.9875,156.4531 515.4563,156.7031 C515.9406,156.9844 516.1125,157.2031 516.2063,157.6094 C516.2688,158.0156 516.3,158.1406 516.4406,158.2656 C516.5813,158.4063 516.8156,158.5156 517.0344,158.5156 C517.3,158.5156 517.5656,158.375 517.7375,158.1563 C517.8469,158 517.8781,157.8125 517.8781,157.3906 L517.8781,155.9688 C517.8781,155.5313 517.8625,155.4063 517.7688,155.25 C517.6125,154.9844 517.3313,154.8438 517.0344,154.8438 C516.7375,154.8438 516.5344,154.9375 516.3156,155.25 L516.1438,155.1719 Z "/><text fill="#000000" font-family="sans-serif" font-size="12" lengthAdjust="spacingAndGlyphs" textLength="59" x="533.2" y="163.6543">ErrorView</text><line style="stroke: #A80036; stroke-width: 1.5;" x1="475.5" x2="618.5" y1="175.5" y2="175.5"/><ellipse cx="485.5" cy="186.5" fill="none" rx="3" ry="3" style="stroke: #038048; stroke-width: 1.0;"/><text fill="#000000" font-family="sans-serif" font-size="11" lengthAdjust="spacingAndGlyphs" text-decoration="underline" textLength="109" x="494.5" y="189.7104">String[] MESSAGES</text><polygon fill="none" points="485.5,194.3047,489.5,198.3047,485.5,202.3047,481.5,198.3047" style="stroke: #B38D22; stroke-width: 1.0;"/><text fill="#000000" font-family="sans-serif" font-size="11" lengthAdjust="spacingAndGlyphs" textLength="60" x="494.5" y="202.5151">Error error;</text><line style="stroke: #A80036; stroke-width: 1.5;" x1="475.5" x2="618.5" y1="209.1094" y2="209.1094"/><ellipse cx="485.5" cy="220.1094" fill="#84BE84" rx="3" ry="3" style="stroke: #038048; stroke-width: 1.0;"/><text fill="#000000" font-family="sans-serif" font-size="11" lengthAdjust="spacingAndGlyphs" textLength="119" x="494.5" y="223.3198">ErrorView(Error error)</text><!--MD5=[8b95091471898ea6b0cbbbb1cd164db3]
class tictactoe.views.Message--><rect codeLine="10" fill="#FEFECE" filter="url(#f1uuudnyfm6h60)" height="291.2891" id="tictactoe.views.Message" style="stroke: #A80036; stroke-width: 1.5;" width="218" x="221" y="41"/><ellipse cx="298.25" cy="57" fill="#EB937F" rx="11" ry="11" style="stroke: #A80036; stroke-width: 1.0;"/><path d="M297.0469,57.875 L298.5,57.875 L298.5,57.9844 C298.5,58.3906 298.5313,58.5469 298.6094,58.7031 C298.7656,58.9531 299.0469,59.1094 299.3438,59.1094 C299.5938,59.1094 299.8594,58.9688 300.0156,58.75 C300.1406,58.5938 300.1719,58.4375 300.1719,57.9844 L300.1719,56.0625 C300.1719,55.9063 300.1719,55.8594 300.1563,55.7031 C300.0938,55.2344 299.7813,54.9219 299.3281,54.9219 C299.0781,54.9219 298.8125,55.0625 298.6406,55.2813 C298.5313,55.4531 298.5,55.6094 298.5,56.0625 L298.5,56.1875 L297.0469,56.1875 L297.0469,53.7813 L301.0313,53.7813 L301.0313,54.6406 C301.0313,55.0469 301.0625,55.2188 301.1406,55.375 C301.3125,55.625 301.5938,55.7813 301.875,55.7813 C302.1406,55.7813 302.4063,55.6406 302.5781,55.4219 C302.6875,55.25 302.7188,55.1094 302.7188,54.6406 L302.7188,52.0938 L295.0938,52.0938 C294.6563,52.0938 294.5313,52.1094 294.375,52.2031 C294.125,52.3594 293.9688,52.6563 293.9688,52.9375 C293.9688,53.2188 294.1094,53.4688 294.3281,53.6406 C294.4844,53.75 294.6719,53.7813 295.0938,53.7813 L295.3438,53.7813 L295.3438,60.2969 L295.0938,60.2969 C294.6875,60.2969 294.5313,60.3125 294.375,60.4219 C294.125,60.5938 293.9688,60.8594 293.9688,61.1563 C293.9688,61.4219 294.1094,61.6719 294.3281,61.8281 C294.4688,61.9531 294.7031,62 295.0938,62 L303.0938,62 L303.0938,59.4219 C303.0938,58.9844 303.0625,58.8438 302.9844,58.6875 C302.8125,58.4375 302.5313,58.2813 302.25,58.2813 C301.9844,58.2813 301.7188,58.3906 301.5469,58.6406 C301.4375,58.7969 301.4063,58.9375 301.4063,59.4219 L301.4063,60.2969 L297.0469,60.2969 L297.0469,57.875 Z "/><text fill="#000000" font-family="sans-serif" font-size="12" lengthAdjust="spacingAndGlyphs" textLength="55" x="318.75" y="61.1543">Message</text><line style="stroke: #A80036; stroke-width: 1.5;" x1="222" x2="438" y1="73" y2="73"/><ellipse cx="232" cy="84" fill="none" rx="3" ry="3" style="stroke: #038048; stroke-width: 1.0;"/><text fill="#000000" font-family="sans-serif" font-size="11" lengthAdjust="spacingAndGlyphs" textLength="37" x="241" y="87.2104">TITTLE</text><ellipse cx="232" cy="96.8047" fill="none" rx="3" ry="3" style="stroke: #038048; stroke-width: 1.0;"/><text fill="#000000" font-family="sans-serif" font-size="11" lengthAdjust="spacingAndGlyphs" textLength="102" x="241" y="100.0151">NUMBER_PLAYERS</text><ellipse cx="232" cy="109.6094" fill="none" rx="3" ry="3" style="stroke: #038048; stroke-width: 1.0;"/><text fill="#000000" font-family="sans-serif" font-size="11" lengthAdjust="spacingAndGlyphs" textLength="67" x="241" y="112.8198">SEPARATOR</text><ellipse cx="232" cy="122.4141" fill="none" rx="3" ry="3" style="stroke: #038048; stroke-width: 1.0;"/><text fill="#000000" font-family="sans-serif" font-size="11" lengthAdjust="spacingAndGlyphs" textLength="116" x="241" y="125.6245">VERTICAL_LINE_LEFT</text><ellipse cx="232" cy="135.2188" fill="none" rx="3" ry="3" style="stroke: #038048; stroke-width: 1.0;"/><text fill="#000000" font-family="sans-serif" font-size="11" lengthAdjust="spacingAndGlyphs" textLength="150" x="241" y="138.4292">VERTICAL_LINE_CENTERED</text><ellipse cx="232" cy="148.0234" fill="none" rx="3" ry="3" style="stroke: #038048; stroke-width: 1.0;"/><text fill="#000000" font-family="sans-serif" font-size="11" lengthAdjust="spacingAndGlyphs" textLength="124" x="241" y="151.2339">VERTICAL_LINE_RIGHT</text><ellipse cx="232" cy="160.8281" fill="none" rx="3" ry="3" style="stroke: #038048; stroke-width: 1.0;"/><text fill="#000000" font-family="sans-serif" font-size="11" lengthAdjust="spacingAndGlyphs" textLength="166" x="241" y="164.0386">ENTER_COORDINATE_TO_PUT</text><ellipse cx="232" cy="173.6328" fill="none" rx="3" ry="3" style="stroke: #038048; stroke-width: 1.0;"/><text fill="#000000" font-family="sans-serif" font-size="11" lengthAdjust="spacingAndGlyphs" textLength="192" x="241" y="176.8433">ENTER_COORDINATE_TO_REMOVE</text><ellipse cx="232" cy="186.4375" fill="none" rx="3" ry="3" style="stroke: #038048; stroke-width: 1.0;"/><text fill="#000000" font-family="sans-serif" font-size="11" lengthAdjust="spacingAndGlyphs" textLength="124" x="241" y="189.6479">COORDINATE_TO_PUT</text><ellipse cx="232" cy="199.2422" fill="none" rx="3" ry="3" style="stroke: #038048; stroke-width: 1.0;"/><text fill="#000000" font-family="sans-serif" font-size="11" lengthAdjust="spacingAndGlyphs" textLength="150" x="241" y="202.4526">COORDINATE_TO_REMOVE</text><ellipse cx="232" cy="212.0469" fill="none" rx="3" ry="3" style="stroke: #038048; stroke-width: 1.0;"/><text fill="#000000" font-family="sans-serif" font-size="11" lengthAdjust="spacingAndGlyphs" textLength="136" x="241" y="215.2573">COORDINATE_TO_MOVE</text><ellipse cx="232" cy="224.8516" fill="none" rx="3" ry="3" style="stroke: #038048; stroke-width: 1.0;"/><text fill="#000000" font-family="sans-serif" font-size="11" lengthAdjust="spacingAndGlyphs" textLength="69" x="241" y="228.062">PLAYER_WIN</text><ellipse cx="232" cy="237.6563" fill="none" rx="3" ry="3" style="stroke: #038048; stroke-width: 1.0;"/><text fill="#000000" font-family="sans-serif" font-size="11" lengthAdjust="spacingAndGlyphs" textLength="46" x="241" y="240.8667">RESUME</text><rect fill="none" height="6" style="stroke: #C82930; stroke-width: 1.0;" width="6" x="229" y="247.4609"/><text fill="#000000" font-family="sans-serif" font-size="11" lengthAdjust="spacingAndGlyphs" textLength="90" x="241" y="253.6714">String message</text><line style="stroke: #A80036; stroke-width: 1.5;" x1="222" x2="438" y1="260.2656" y2="260.2656"/><rect fill="#F24D5C" height="6" style="stroke: #C82930; stroke-width: 1.0;" width="6" x="229" y="268.2656"/><text fill="#000000" font-family="sans-serif" font-size="11" lengthAdjust="spacingAndGlyphs" textLength="149" x="241" y="274.4761">Message(String message)</text><ellipse cx="232" cy="284.0703" fill="#84BE84" rx="3" ry="3" style="stroke: #038048; stroke-width: 1.0;"/><text fill="#000000" font-family="sans-serif" font-size="11" lengthAdjust="spacingAndGlyphs" textLength="115" x="241" y="287.2808">String getMessage()</text><ellipse cx="232" cy="296.875" fill="#84BE84" rx="3" ry="3" style="stroke: #038048; stroke-width: 1.0;"/><text fill="#000000" font-family="sans-serif" font-size="11" lengthAdjust="spacingAndGlyphs" textLength="36" x="241" y="300.0854">write()</text><ellipse cx="232" cy="309.6797" fill="#84BE84" rx="3" ry="3" style="stroke: #038048; stroke-width: 1.0;"/><text fill="#000000" font-family="sans-serif" font-size="11" lengthAdjust="spacingAndGlyphs" textLength="46" x="241" y="312.8901">writeln()</text><ellipse cx="232" cy="322.4844" fill="#84BE84" rx="3" ry="3" style="stroke: #038048; stroke-width: 1.0;"/><text fill="#000000" font-family="sans-serif" font-size="11" lengthAdjust="spacingAndGlyphs" textLength="89" x="241" y="325.6948">String toString()</text><!--MD5=[015754420c4cdd9bacda884b3fa8c6ca]
class tictactoe.views.View--><rect codeLine="33" fill="#FEFECE" filter="url(#f1uuudnyfm6h60)" height="124.8281" id="tictactoe.views.View" style="stroke: #A80036; stroke-width: 1.5;" width="154" x="32" y="124"/><ellipse cx="90.25" cy="140" fill="#ADD1B2" rx="11" ry="11" style="stroke: #A80036; stroke-width: 1.0;"/><path d="M92.5938,135.6719 C91.6563,135.2344 91.0625,135.0938 90.1875,135.0938 C87.5625,135.0938 85.5625,137.1719 85.5625,139.8906 L85.5625,141.0156 C85.5625,143.5938 87.6719,145.4844 90.5625,145.4844 C91.7813,145.4844 92.9375,145.1875 93.6875,144.6406 C94.2656,144.2344 94.5938,143.7813 94.5938,143.3906 C94.5938,142.9375 94.2031,142.5469 93.7344,142.5469 C93.5156,142.5469 93.3125,142.625 93.125,142.8125 C92.6719,143.2969 92.6719,143.2969 92.4844,143.3906 C92.0625,143.6563 91.375,143.7813 90.6094,143.7813 C88.5625,143.7813 87.2656,142.6875 87.2656,140.9844 L87.2656,139.8906 C87.2656,138.1094 88.5156,136.7969 90.25,136.7969 C90.8281,136.7969 91.4375,136.9531 91.9063,137.2031 C92.3906,137.4844 92.5625,137.7031 92.6563,138.1094 C92.7188,138.5156 92.75,138.6406 92.8906,138.7656 C93.0313,138.9063 93.2656,139.0156 93.4844,139.0156 C93.75,139.0156 94.0156,138.875 94.1875,138.6563 C94.2969,138.5 94.3281,138.3125 94.3281,137.8906 L94.3281,136.4688 C94.3281,136.0313 94.3125,135.9063 94.2188,135.75 C94.0625,135.4844 93.7813,135.3438 93.4844,135.3438 C93.1875,135.3438 92.9844,135.4375 92.7656,135.75 L92.5938,135.6719 Z "/><text fill="#000000" font-family="sans-serif" font-size="12" lengthAdjust="spacingAndGlyphs" textLength="29" x="110.75" y="144.1543">View</text><line style="stroke: #A80036; stroke-width: 1.5;" x1="33" x2="185" y1="156" y2="156"/><polygon fill="none" points="43,163,39,169,47,169" style="stroke: #1963A0; stroke-width: 1.0;"/><text fill="#000000" font-family="sans-serif" font-size="11" lengthAdjust="spacingAndGlyphs" textLength="75" x="52" y="170.2104">Game game;</text><line style="stroke: #A80036; stroke-width: 1.5;" x1="33" x2="185" y1="176.8047" y2="176.8047"/><ellipse cx="43" cy="187.8047" fill="#84BE84" rx="3" ry="3" style="stroke: #038048; stroke-width: 1.0;"/><text fill="#000000" font-family="sans-serif" font-size="11" lengthAdjust="spacingAndGlyphs" textLength="108" x="52" y="191.0151">View(Game game)</text><ellipse cx="43" cy="200.6094" fill="#84BE84" rx="3" ry="3" style="stroke: #038048; stroke-width: 1.0;"/><text fill="#000000" font-family="sans-serif" font-size="11" lengthAdjust="spacingAndGlyphs" textLength="51" x="52" y="203.8198">interact()</text><polygon fill="#4177AF" points="43,209.4141,39,215.4141,47,215.4141" style="stroke: #1963A0; stroke-width: 1.0;"/><text fill="#000000" font-family="sans-serif" font-size="11" font-style="italic" lengthAdjust="spacingAndGlyphs" textLength="38" x="52" y="216.6245">start();</text><polygon fill="#4177AF" points="43,222.2188,39,228.2188,47,228.2188" style="stroke: #1963A0; stroke-width: 1.0;"/><text fill="#000000" font-family="sans-serif" font-size="11" font-style="italic" lengthAdjust="spacingAndGlyphs" textLength="36" x="52" y="229.4292">play();</text><polygon fill="#4177AF" points="43,235.0234,39,241.0234,47,241.0234" style="stroke: #1963A0; stroke-width: 1.0;"/><text fill="#000000" font-family="sans-serif" font-size="11" font-style="italic" lengthAdjust="spacingAndGlyphs" textLength="128" x="52" y="242.2339">boolean isNewGame();</text><!--MD5=[8d3188f3c370ea7d5d91d12bca83b67a]
class tictactoe.models.Game--><rect codeLine="42" fill="#FEFECE" filter="url(#f1uuudnyfm6h60)" height="48" id="tictactoe.models.Game" style="stroke: #A80036; stroke-width: 1.5;" width="67" x="75.5" y="407"/><ellipse cx="90.5" cy="423" fill="#ADD1B2" rx="11" ry="11" style="stroke: #A80036; stroke-width: 1.0;"/><path d="M92.8438,418.6719 C91.9063,418.2344 91.3125,418.0938 90.4375,418.0938 C87.8125,418.0938 85.8125,420.1719 85.8125,422.8906 L85.8125,424.0156 C85.8125,426.5938 87.9219,428.4844 90.8125,428.4844 C92.0313,428.4844 93.1875,428.1875 93.9375,427.6406 C94.5156,427.2344 94.8438,426.7813 94.8438,426.3906 C94.8438,425.9375 94.4531,425.5469 93.9844,425.5469 C93.7656,425.5469 93.5625,425.625 93.375,425.8125 C92.9219,426.2969 92.9219,426.2969 92.7344,426.3906 C92.3125,426.6563 91.625,426.7813 90.8594,426.7813 C88.8125,426.7813 87.5156,425.6875 87.5156,423.9844 L87.5156,422.8906 C87.5156,421.1094 88.7656,419.7969 90.5,419.7969 C91.0781,419.7969 91.6875,419.9531 92.1563,420.2031 C92.6406,420.4844 92.8125,420.7031 92.9063,421.1094 C92.9688,421.5156 93,421.6406 93.1406,421.7656 C93.2813,421.9063 93.5156,422.0156 93.7344,422.0156 C94,422.0156 94.2656,421.875 94.4375,421.6563 C94.5469,421.5 94.5781,421.3125 94.5781,420.8906 L94.5781,419.4688 C94.5781,419.0313 94.5625,418.9063 94.4688,418.75 C94.3125,418.4844 94.0313,418.3438 93.7344,418.3438 C93.4375,418.3438 93.2344,418.4375 93.0156,418.75 L92.8438,418.6719 Z "/><text fill="#000000" font-family="sans-serif" font-size="12" lengthAdjust="spacingAndGlyphs" textLength="35" x="104.5" y="427.1543">Game</text><line style="stroke: #A80036; stroke-width: 1.5;" x1="76.5" x2="141.5" y1="439" y2="439"/><line style="stroke: #A80036; stroke-width: 1.5;" x1="76.5" x2="141.5" y1="447" y2="447"/><!--MD5=[0696a78a81f063c18f1c08fd8fb67371]
link tictactoe.views.View to tictactoe.models.Game--><path codeLine="44" d="M109,261.006 C109,261.006 109,359.004 109,393.5965 " fill="none" id="tictactoe.views.View-tictactoe.models.Game" style="stroke: #A80036; stroke-width: 1.0;"/><polygon fill="#A80036" points="109,406.7696,113,397.7696,109,401.7696,105,397.7696,109,406.7696" style="stroke: #A80036; stroke-width: 1.0;"/><line style="stroke: #A80036; stroke-width: 1.0;" x1="109" x2="109" y1="401.7696" y2="393.7696"/><polygon fill="#A80036" points="109,249.006,105,255.006,109,261.006,113,255.006,109,249.006" style="stroke: #A80036; stroke-width: 1.0;"/><!--MD5=[e8ece5a7e5bceadb12ecbcda18b81cdc]
@startuml
class tictactoe.views.ErrorView {

	+ {static} String[] MESSAGES
	# Error error;

	+ ErrorView(Error error)

}

enum tictactoe.views.Message {
    + TITTLE
	+ NUMBER_PLAYERS
	+ SEPARATOR
	+ VERTICAL_LINE_LEFT
	+ VERTICAL_LINE_CENTERED
	+ VERTICAL_LINE_RIGHT
	+ ENTER_COORDINATE_TO_PUT
	+ ENTER_COORDINATE_TO_REMOVE
	+ COORDINATE_TO_PUT
	+ COORDINATE_TO_REMOVE
	+ COORDINATE_TO_MOVE
	+ PLAYER_WIN
	+ RESUME
	- String message
	
	- Message(String message)
	+ String getMessage()
	+ write()
	+ writeln()
	+ String toString()
}

class tictactoe.views.View {
    ~ Game game;

	+ View(Game game)
	+ interact()
	~ {abstract} start();
	~ {abstract} play();
	~ {abstract} boolean isNewGame();
}
class tictactoe.models.Game

tictactoe.views.View *-down-> tictactoe.models.Game
@enduml

PlantUML version 1.2020.20beta4(Unknown compile time)
(GPL source distribution)
Java Runtime: Java(TM) SE Runtime Environment
JVM: Java HotSpot(TM) 64-Bit Server VM
Default Encoding: UTF-8
Language: en
Country: US
--></g></svg>