<?xml version="1.0" encoding="UTF-8" standalone="no"?><svg xmlns="http://www.w3.org/2000/svg" xmlns:xlink="http://www.w3.org/1999/xlink" contentScriptType="application/ecmascript" contentStyleType="text/css" height="741px" preserveAspectRatio="none" style="width:3050px;height:741px;" version="1.1" viewBox="0 0 3050 741" width="3050px" zoomAndPan="magnify"><defs><filter height="300%" id="f1221xc4ldedgo" width="300%" x="-1" y="-1"><feGaussianBlur result="blurOut" stdDeviation="2.0"/><feColorMatrix in="blurOut" result="blurOut2" type="matrix" values="0 0 0 0 0 0 0 0 0 0 0 0 0 0 0 0 0 0 .4 0"/><feOffset dx="4.0" dy="4.0" in="blurOut2" result="blurOut3"/><feBlend in="SourceGraphic" in2="blurOut3" mode="normal"/></filter></defs><g><!--MD5=[4a2c519a1d4e2059eb71d825c7d6555c]
cluster usantatecla.tictactoe.views.graphics--><polygon fill="#FFFFFF" filter="url(#f1221xc4ldedgo)" points="1697.5,80,2007.5,80,2014.5,102.2969,2712.5,102.2969,2712.5,734,1697.5,734,1697.5,80" style="stroke: #000000; stroke-width: 1.5;"/><line style="stroke: #000000; stroke-width: 1.5;" x1="1697.5" x2="2014.5" y1="102.2969" y2="102.2969"/><text fill="#000000" font-family="sans-serif" font-size="14" font-weight="bold" lengthAdjust="spacingAndGlyphs" textLength="304" x="1701.5" y="94.9951">usantatecla.tictactoe.views.graphics</text><polygon fill="#FFFFFF" filter="url(#f1221xc4ldedgo)" points="2918,119,3019,119,3026,141.2969,3033,141.2969,3033,171.5938,2918,171.5938,2918,119" style="stroke: #000000; stroke-width: 1.5;"/><line style="stroke: #000000; stroke-width: 1.5;" x1="2918" x2="3026" y1="141.2969" y2="141.2969"/><text fill="#000000" font-family="sans-serif" font-size="14" font-weight="bold" lengthAdjust="spacingAndGlyphs" textLength="95" x="2922" y="133.9951">javax.swing</text><polygon fill="#FFFFFF" filter="url(#f1221xc4ldedgo)" points="2728.5,119,2804.5,119,2811.5,141.2969,2818.5,141.2969,2818.5,171.5938,2728.5,171.5938,2728.5,119" style="stroke: #000000; stroke-width: 1.5;"/><line style="stroke: #000000; stroke-width: 1.5;" x1="2728.5" x2="2811.5" y1="141.2969" y2="141.2969"/><text fill="#000000" font-family="sans-serif" font-size="14" font-weight="bold" lengthAdjust="spacingAndGlyphs" textLength="70" x="2732.5" y="133.9951">java.awt</text><!--MD5=[d2d029f700109abcb34e5bcc3d74e16d]
class usantatecla.tictactoe.views.graphics.ChoosePlayersView--><rect codeLine="4" fill="#FEFECE" filter="url(#f1221xc4ldedgo)" height="163.2422" id="usantatecla.tictactoe.views.graphics.ChoosePlayersView" style="stroke: #A80036; stroke-width: 1.5;" width="202" x="2494.5" y="434"/><ellipse cx="2532.9" cy="450" fill="#ADD1B2" rx="11" ry="11" style="stroke: #A80036; stroke-width: 1.0;"/><path d="M2535.2438,445.6719 C2534.3063,445.2344 2533.7125,445.0938 2532.8375,445.0938 C2530.2125,445.0938 2528.2125,447.1719 2528.2125,449.8906 L2528.2125,451.0156 C2528.2125,453.5938 2530.3219,455.4844 2533.2125,455.4844 C2534.4313,455.4844 2535.5875,455.1875 2536.3375,454.6406 C2536.9156,454.2344 2537.2438,453.7813 2537.2438,453.3906 C2537.2438,452.9375 2536.8531,452.5469 2536.3844,452.5469 C2536.1656,452.5469 2535.9625,452.625 2535.775,452.8125 C2535.3219,453.2969 2535.3219,453.2969 2535.1344,453.3906 C2534.7125,453.6563 2534.025,453.7813 2533.2594,453.7813 C2531.2125,453.7813 2529.9156,452.6875 2529.9156,450.9844 L2529.9156,449.8906 C2529.9156,448.1094 2531.1656,446.7969 2532.9,446.7969 C2533.4781,446.7969 2534.0875,446.9531 2534.5563,447.2031 C2535.0406,447.4844 2535.2125,447.7031 2535.3063,448.1094 C2535.3688,448.5156 2535.4,448.6406 2535.5406,448.7656 C2535.6813,448.9063 2535.9156,449.0156 2536.1344,449.0156 C2536.4,449.0156 2536.6656,448.875 2536.8375,448.6563 C2536.9469,448.5 2536.9781,448.3125 2536.9781,447.8906 L2536.9781,446.4688 C2536.9781,446.0313 2536.9625,445.9063 2536.8688,445.75 C2536.7125,445.4844 2536.4313,445.3438 2536.1344,445.3438 C2535.8375,445.3438 2535.6344,445.4375 2535.4156,445.75 L2535.2438,445.6719 Z " fill="#000000"/><text fill="#000000" font-family="sans-serif" font-size="12" lengthAdjust="spacingAndGlyphs" textLength="118" x="2552.1" y="454.1543">ChoosePlayersView</text><line style="stroke: #A80036; stroke-width: 1.5;" x1="2495.5" x2="2695.5" y1="466" y2="466"/><rect fill="none" height="6" style="stroke: #C82930; stroke-width: 1.0;" width="6" x="2502.5" y="474"/><text fill="#000000" font-family="sans-serif" font-size="11" lengthAdjust="spacingAndGlyphs" text-decoration="underline" textLength="81" x="2514.5" y="480.2104">String ACCEPT</text><rect fill="none" height="6" style="stroke: #C82930; stroke-width: 1.0;" width="6" x="2502.5" y="486.8047"/><text fill="#000000" font-family="sans-serif" font-size="11" lengthAdjust="spacingAndGlyphs" textLength="124" x="2514.5" y="493.0151">String playersNumber</text><line style="stroke: #A80036; stroke-width: 1.5;" x1="2495.5" x2="2695.5" y1="499.6094" y2="499.6094"/><polygon fill="#4177AF" points="2505.5,506.6094,2501.5,512.6094,2509.5,512.6094" style="stroke: #1963A0; stroke-width: 1.0;"/><text fill="#000000" font-family="sans-serif" font-size="11" lengthAdjust="spacingAndGlyphs" textLength="176" x="2514.5" y="513.8198">ChoosePlayersView(JRootPane)</text><polygon fill="#4177AF" points="2505.5,519.4141,2501.5,525.4141,2509.5,525.4141" style="stroke: #1963A0; stroke-width: 1.0;"/><text fill="#000000" font-family="sans-serif" font-size="11" lengthAdjust="spacingAndGlyphs" textLength="124" x="2514.5" y="526.6245">resetPlayersNumber()</text><polygon fill="#4177AF" points="2505.5,532.2188,2501.5,538.2188,2509.5,538.2188" style="stroke: #1963A0; stroke-width: 1.0;"/><text fill="#000000" font-family="sans-serif" font-size="11" lengthAdjust="spacingAndGlyphs" textLength="150" x="2514.5" y="539.4292">String getPlayersNumber()</text><ellipse cx="2505.5" cy="549.0234" fill="#84BE84" rx="3" ry="3" style="stroke: #038048; stroke-width: 1.0;"/><text fill="#000000" font-family="sans-serif" font-size="11" lengthAdjust="spacingAndGlyphs" textLength="169" x="2514.5" y="552.2339">actionPerformed(ActionEvent)</text><ellipse cx="2505.5" cy="561.8281" fill="#84BE84" rx="3" ry="3" style="stroke: #038048; stroke-width: 1.0;"/><text fill="#000000" font-family="sans-serif" font-size="11" lengthAdjust="spacingAndGlyphs" textLength="120" x="2514.5" y="565.0386">keyTyped(KeyEvent)</text><ellipse cx="2505.5" cy="574.6328" fill="#84BE84" rx="3" ry="3" style="stroke: #038048; stroke-width: 1.0;"/><text fill="#000000" font-family="sans-serif" font-size="11" lengthAdjust="spacingAndGlyphs" textLength="129" x="2514.5" y="577.8433">keyPressed(KeyEvent)</text><ellipse cx="2505.5" cy="587.4375" fill="#84BE84" rx="3" ry="3" style="stroke: #038048; stroke-width: 1.0;"/><text fill="#000000" font-family="sans-serif" font-size="11" lengthAdjust="spacingAndGlyphs" textLength="138" x="2514.5" y="590.6479">keyReleased(KeyEvent)</text><!--MD5=[4cde9c6f00ba28f5b9399bb659019581]
class usantatecla.tictactoe.views.graphics.Constraints--><rect codeLine="28" fill="#FEFECE" filter="url(#f1221xc4ldedgo)" height="60.8047" id="usantatecla.tictactoe.views.graphics.Constraints" style="stroke: #A80036; stroke-width: 1.5;" width="174" x="2515.5" y="657"/><ellipse cx="2564.75" cy="673" fill="#ADD1B2" rx="11" ry="11" style="stroke: #A80036; stroke-width: 1.0;"/><path d="M2567.0938,668.6719 C2566.1563,668.2344 2565.5625,668.0938 2564.6875,668.0938 C2562.0625,668.0938 2560.0625,670.1719 2560.0625,672.8906 L2560.0625,674.0156 C2560.0625,676.5938 2562.1719,678.4844 2565.0625,678.4844 C2566.2813,678.4844 2567.4375,678.1875 2568.1875,677.6406 C2568.7656,677.2344 2569.0938,676.7813 2569.0938,676.3906 C2569.0938,675.9375 2568.7031,675.5469 2568.2344,675.5469 C2568.0156,675.5469 2567.8125,675.625 2567.625,675.8125 C2567.1719,676.2969 2567.1719,676.2969 2566.9844,676.3906 C2566.5625,676.6563 2565.875,676.7813 2565.1094,676.7813 C2563.0625,676.7813 2561.7656,675.6875 2561.7656,673.9844 L2561.7656,672.8906 C2561.7656,671.1094 2563.0156,669.7969 2564.75,669.7969 C2565.3281,669.7969 2565.9375,669.9531 2566.4063,670.2031 C2566.8906,670.4844 2567.0625,670.7031 2567.1563,671.1094 C2567.2188,671.5156 2567.25,671.6406 2567.3906,671.7656 C2567.5313,671.9063 2567.7656,672.0156 2567.9844,672.0156 C2568.25,672.0156 2568.5156,671.875 2568.6875,671.6563 C2568.7969,671.5 2568.8281,671.3125 2568.8281,670.8906 L2568.8281,669.4688 C2568.8281,669.0313 2568.8125,668.9063 2568.7188,668.75 C2568.5625,668.4844 2568.2813,668.3438 2567.9844,668.3438 C2567.6875,668.3438 2567.4844,668.4375 2567.2656,668.75 L2567.0938,668.6719 Z " fill="#000000"/><text fill="#000000" font-family="sans-serif" font-size="12" lengthAdjust="spacingAndGlyphs" textLength="67" x="2585.25" y="677.1543">Constraints</text><line style="stroke: #A80036; stroke-width: 1.5;" x1="2516.5" x2="2688.5" y1="689" y2="689"/><line style="stroke: #A80036; stroke-width: 1.5;" x1="2516.5" x2="2688.5" y1="697" y2="697"/><polygon fill="#4177AF" points="2526.5,704,2522.5,710,2530.5,710" style="stroke: #1963A0; stroke-width: 1.0;"/><text fill="#000000" font-family="sans-serif" font-size="11" lengthAdjust="spacingAndGlyphs" textLength="148" x="2535.5" y="711.2104">Constraints(int, int, int, int)</text><!--MD5=[60fc07c24f39175f70a0caf1948bd424]
class usantatecla.tictactoe.views.graphics.CoordinateMoveView--><rect codeLine="36" fill="#FEFECE" filter="url(#f1221xc4ldedgo)" height="112.0234" id="usantatecla.tictactoe.views.graphics.CoordinateMoveView" style="stroke: #A80036; stroke-width: 1.5;" width="255" x="1714" y="459.5"/><ellipse cx="1773.25" cy="475.5" fill="#ADD1B2" rx="11" ry="11" style="stroke: #A80036; stroke-width: 1.0;"/><path d="M1775.5938,471.1719 C1774.6563,470.7344 1774.0625,470.5938 1773.1875,470.5938 C1770.5625,470.5938 1768.5625,472.6719 1768.5625,475.3906 L1768.5625,476.5156 C1768.5625,479.0938 1770.6719,480.9844 1773.5625,480.9844 C1774.7813,480.9844 1775.9375,480.6875 1776.6875,480.1406 C1777.2656,479.7344 1777.5938,479.2813 1777.5938,478.8906 C1777.5938,478.4375 1777.2031,478.0469 1776.7344,478.0469 C1776.5156,478.0469 1776.3125,478.125 1776.125,478.3125 C1775.6719,478.7969 1775.6719,478.7969 1775.4844,478.8906 C1775.0625,479.1563 1774.375,479.2813 1773.6094,479.2813 C1771.5625,479.2813 1770.2656,478.1875 1770.2656,476.4844 L1770.2656,475.3906 C1770.2656,473.6094 1771.5156,472.2969 1773.25,472.2969 C1773.8281,472.2969 1774.4375,472.4531 1774.9063,472.7031 C1775.3906,472.9844 1775.5625,473.2031 1775.6563,473.6094 C1775.7188,474.0156 1775.75,474.1406 1775.8906,474.2656 C1776.0313,474.4063 1776.2656,474.5156 1776.4844,474.5156 C1776.75,474.5156 1777.0156,474.375 1777.1875,474.1563 C1777.2969,474 1777.3281,473.8125 1777.3281,473.3906 L1777.3281,471.9688 C1777.3281,471.5313 1777.3125,471.4063 1777.2188,471.25 C1777.0625,470.9844 1776.7813,470.8438 1776.4844,470.8438 C1776.1875,470.8438 1775.9844,470.9375 1775.7656,471.25 L1775.5938,471.1719 Z " fill="#000000"/><text fill="#000000" font-family="sans-serif" font-size="12" lengthAdjust="spacingAndGlyphs" textLength="128" x="1793.75" y="479.6543">CoordinateMoveView</text><line style="stroke: #A80036; stroke-width: 1.5;" x1="1715" x2="1968" y1="491.5" y2="491.5"/><polygon fill="none" points="1725,498.5,1721,504.5,1729,504.5" style="stroke: #1963A0; stroke-width: 1.0;"/><text fill="#000000" font-family="sans-serif" font-size="11" lengthAdjust="spacingAndGlyphs" text-decoration="underline" textLength="229" x="1734" y="505.7104">String ENTER_COORDINATE_TO_REMOVE</text><line style="stroke: #A80036; stroke-width: 1.5;" x1="1715" x2="1968" y1="512.3047" y2="512.3047"/><polygon fill="#4177AF" points="1725,519.3047,1721,525.3047,1729,525.3047" style="stroke: #1963A0; stroke-width: 1.0;"/><text fill="#000000" font-family="sans-serif" font-size="11" lengthAdjust="spacingAndGlyphs" textLength="129" x="1734" y="526.5151">CoordinateMoveView()</text><polygon fill="#4177AF" points="1725,532.1094,1721,538.1094,1729,538.1094" style="stroke: #1963A0; stroke-width: 1.0;"/><text fill="#000000" font-family="sans-serif" font-size="11" lengthAdjust="spacingAndGlyphs" textLength="106" x="1734" y="539.3198">resetCoordinates()</text><polygon fill="#4177AF" points="1725,544.9141,1721,550.9141,1729,550.9141" style="stroke: #1963A0; stroke-width: 1.0;"/><text fill="#000000" font-family="sans-serif" font-size="11" lengthAdjust="spacingAndGlyphs" textLength="169" x="1734" y="552.1245">Coordinate[] getCoordinates()</text><ellipse cx="1725" cy="561.7188" fill="#84BE84" rx="3" ry="3" style="stroke: #038048; stroke-width: 1.0;"/><text fill="#000000" font-family="sans-serif" font-size="11" lengthAdjust="spacingAndGlyphs" textLength="169" x="1734" y="564.9292">actionPerformed(ActionEvent)</text><!--MD5=[fd79f5b787364979bee749ddb6283d48]
class usantatecla.tictactoe.views.graphics.CoordinateView--><rect codeLine="71" fill="#FEFECE" filter="url(#f1221xc4ldedgo)" height="137.6328" id="usantatecla.tictactoe.views.graphics.CoordinateView" style="stroke: #A80036; stroke-width: 1.5;" width="229" x="2297" y="236"/><ellipse cx="2359.75" cy="252" fill="#ADD1B2" rx="11" ry="11" style="stroke: #A80036; stroke-width: 1.0;"/><path d="M2362.0938,247.6719 C2361.1563,247.2344 2360.5625,247.0938 2359.6875,247.0938 C2357.0625,247.0938 2355.0625,249.1719 2355.0625,251.8906 L2355.0625,253.0156 C2355.0625,255.5938 2357.1719,257.4844 2360.0625,257.4844 C2361.2813,257.4844 2362.4375,257.1875 2363.1875,256.6406 C2363.7656,256.2344 2364.0938,255.7813 2364.0938,255.3906 C2364.0938,254.9375 2363.7031,254.5469 2363.2344,254.5469 C2363.0156,254.5469 2362.8125,254.625 2362.625,254.8125 C2362.1719,255.2969 2362.1719,255.2969 2361.9844,255.3906 C2361.5625,255.6563 2360.875,255.7813 2360.1094,255.7813 C2358.0625,255.7813 2356.7656,254.6875 2356.7656,252.9844 L2356.7656,251.8906 C2356.7656,250.1094 2358.0156,248.7969 2359.75,248.7969 C2360.3281,248.7969 2360.9375,248.9531 2361.4063,249.2031 C2361.8906,249.4844 2362.0625,249.7031 2362.1563,250.1094 C2362.2188,250.5156 2362.25,250.6406 2362.3906,250.7656 C2362.5313,250.9063 2362.7656,251.0156 2362.9844,251.0156 C2363.25,251.0156 2363.5156,250.875 2363.6875,250.6563 C2363.7969,250.5 2363.8281,250.3125 2363.8281,249.8906 L2363.8281,248.4688 C2363.8281,248.0313 2363.8125,247.9063 2363.7188,247.75 C2363.5625,247.4844 2363.2813,247.3438 2362.9844,247.3438 C2362.6875,247.3438 2362.4844,247.4375 2362.2656,247.75 L2362.0938,247.6719 Z " fill="#000000"/><text fill="#000000" font-family="sans-serif" font-size="12" lengthAdjust="spacingAndGlyphs" textLength="95" x="2380.25" y="256.1543">CoordinateView</text><line style="stroke: #A80036; stroke-width: 1.5;" x1="2298" x2="2525" y1="268" y2="268"/><polygon fill="none" points="2308,274,2312,278,2308,282,2304,278" style="stroke: #B38D22; stroke-width: 1.0;"/><text fill="#000000" font-family="sans-serif" font-size="11" lengthAdjust="spacingAndGlyphs" text-decoration="underline" textLength="203" x="2317" y="282.2104">String ENTER_COORDINATE_TO_PUT</text><polygon fill="none" points="2308,286.8047,2312,290.8047,2308,294.8047,2304,290.8047" style="stroke: #B38D22; stroke-width: 1.0;"/><text fill="#000000" font-family="sans-serif" font-size="11" lengthAdjust="spacingAndGlyphs" text-decoration="underline" textLength="81" x="2317" y="295.0151">String ACCEPT</text><line style="stroke: #A80036; stroke-width: 1.5;" x1="2298" x2="2525" y1="301.6094" y2="301.6094"/><polygon fill="#4177AF" points="2308,308.6094,2304,314.6094,2312,314.6094" style="stroke: #1963A0; stroke-width: 1.0;"/><text fill="#000000" font-family="sans-serif" font-size="11" lengthAdjust="spacingAndGlyphs" textLength="98" x="2317" y="315.8198">CoordinateView()</text><ellipse cx="2308" cy="325.4141" fill="#84BE84" rx="3" ry="3" style="stroke: #038048; stroke-width: 1.0;"/><text fill="#000000" font-family="sans-serif" font-size="11" font-style="italic" lengthAdjust="spacingAndGlyphs" textLength="169" x="2317" y="328.6245">actionPerformed(ActionEvent)</text><ellipse cx="2308" cy="338.2188" fill="#84BE84" rx="3" ry="3" style="stroke: #038048; stroke-width: 1.0;"/><text fill="#000000" font-family="sans-serif" font-size="11" lengthAdjust="spacingAndGlyphs" textLength="120" x="2317" y="341.4292">keyTyped(KeyEvent)</text><ellipse cx="2308" cy="351.0234" fill="#84BE84" rx="3" ry="3" style="stroke: #038048; stroke-width: 1.0;"/><text fill="#000000" font-family="sans-serif" font-size="11" lengthAdjust="spacingAndGlyphs" textLength="129" x="2317" y="354.2339">keyPressed(KeyEvent)</text><ellipse cx="2308" cy="363.8281" fill="#84BE84" rx="3" ry="3" style="stroke: #038048; stroke-width: 1.0;"/><text fill="#000000" font-family="sans-serif" font-size="11" lengthAdjust="spacingAndGlyphs" textLength="138" x="2317" y="367.0386">keyReleased(KeyEvent)</text><!--MD5=[b64db9b57815c0cb4599d086278e9abd]
class usantatecla.tictactoe.views.graphics.CoordinatePutView--><rect codeLine="54" fill="#FEFECE" filter="url(#f1221xc4ldedgo)" height="137.6328" id="usantatecla.tictactoe.views.graphics.CoordinatePutView" style="stroke: #A80036; stroke-width: 1.5;" width="195" x="2004" y="446.5"/><ellipse cx="2041.95" cy="462.5" fill="#ADD1B2" rx="11" ry="11" style="stroke: #A80036; stroke-width: 1.0;"/><path d="M2044.2938,458.1719 C2043.3563,457.7344 2042.7625,457.5938 2041.8875,457.5938 C2039.2625,457.5938 2037.2625,459.6719 2037.2625,462.3906 L2037.2625,463.5156 C2037.2625,466.0938 2039.3719,467.9844 2042.2625,467.9844 C2043.4813,467.9844 2044.6375,467.6875 2045.3875,467.1406 C2045.9656,466.7344 2046.2938,466.2813 2046.2938,465.8906 C2046.2938,465.4375 2045.9031,465.0469 2045.4344,465.0469 C2045.2156,465.0469 2045.0125,465.125 2044.825,465.3125 C2044.3719,465.7969 2044.3719,465.7969 2044.1844,465.8906 C2043.7625,466.1563 2043.075,466.2813 2042.3094,466.2813 C2040.2625,466.2813 2038.9656,465.1875 2038.9656,463.4844 L2038.9656,462.3906 C2038.9656,460.6094 2040.2156,459.2969 2041.95,459.2969 C2042.5281,459.2969 2043.1375,459.4531 2043.6063,459.7031 C2044.0906,459.9844 2044.2625,460.2031 2044.3563,460.6094 C2044.4188,461.0156 2044.45,461.1406 2044.5906,461.2656 C2044.7313,461.4063 2044.9656,461.5156 2045.1844,461.5156 C2045.45,461.5156 2045.7156,461.375 2045.8875,461.1563 C2045.9969,461 2046.0281,460.8125 2046.0281,460.3906 L2046.0281,458.9688 C2046.0281,458.5313 2046.0125,458.4063 2045.9188,458.25 C2045.7625,457.9844 2045.4813,457.8438 2045.1844,457.8438 C2044.8875,457.8438 2044.6844,457.9375 2044.4656,458.25 L2044.2938,458.1719 Z " fill="#000000"/><text fill="#000000" font-family="sans-serif" font-size="12" lengthAdjust="spacingAndGlyphs" textLength="112" x="2061.05" y="466.6543">CoordinatePutView</text><line style="stroke: #A80036; stroke-width: 1.5;" x1="2005" x2="2198" y1="478.5" y2="478.5"/><line style="stroke: #A80036; stroke-width: 1.5;" x1="2005" x2="2198" y1="486.5" y2="486.5"/><polygon fill="#4177AF" points="2015,493.5,2011,499.5,2019,499.5" style="stroke: #1963A0; stroke-width: 1.0;"/><text fill="#000000" font-family="sans-serif" font-size="11" lengthAdjust="spacingAndGlyphs" textLength="115" x="2024" y="500.7104">CoordinatePutView()</text><polygon fill="#4177AF" points="2015,506.3047,2011,512.3047,2019,512.3047" style="stroke: #1963A0; stroke-width: 1.0;"/><text fill="#000000" font-family="sans-serif" font-size="11" lengthAdjust="spacingAndGlyphs" textLength="100" x="2024" y="513.5151">resetCoordinate()</text><polygon fill="#4177AF" points="2015,519.1094,2011,525.1094,2019,525.1094" style="stroke: #1963A0; stroke-width: 1.0;"/><text fill="#000000" font-family="sans-serif" font-size="11" lengthAdjust="spacingAndGlyphs" textLength="155" x="2024" y="526.3198">Coordinate getCoordinate()</text><ellipse cx="2015" cy="535.9141" fill="#84BE84" rx="3" ry="3" style="stroke: #038048; stroke-width: 1.0;"/><text fill="#000000" font-family="sans-serif" font-size="11" lengthAdjust="spacingAndGlyphs" textLength="169" x="2024" y="539.1245">actionPerformed(ActionEvent)</text><ellipse cx="2015" cy="548.7188" fill="#84BE84" rx="3" ry="3" style="stroke: #038048; stroke-width: 1.0;"/><text fill="#000000" font-family="sans-serif" font-size="11" lengthAdjust="spacingAndGlyphs" textLength="124" x="2024" y="551.9292">keyTyped(KeyEvent )</text><ellipse cx="2015" cy="561.5234" fill="#84BE84" rx="3" ry="3" style="stroke: #038048; stroke-width: 1.0;"/><text fill="#000000" font-family="sans-serif" font-size="11" lengthAdjust="spacingAndGlyphs" textLength="129" x="2024" y="564.7339">keyPressed(KeyEvent)</text><ellipse cx="2015" cy="574.3281" fill="#84BE84" rx="3" ry="3" style="stroke: #038048; stroke-width: 1.0;"/><text fill="#000000" font-family="sans-serif" font-size="11" lengthAdjust="spacingAndGlyphs" textLength="138" x="2024" y="577.5386">keyReleased(KeyEvent)</text><!--MD5=[34226cdba220114a91c4ebd6014c3336]
class usantatecla.tictactoe.views.graphics.GameView--><rect codeLine="89" fill="#FEFECE" filter="url(#f1221xc4ldedgo)" height="99.2188" id="usantatecla.tictactoe.views.graphics.GameView" style="stroke: #A80036; stroke-width: 1.5;" width="225" x="2234" y="466"/><ellipse cx="2310.25" cy="482" fill="#ADD1B2" rx="11" ry="11" style="stroke: #A80036; stroke-width: 1.0;"/><path d="M2312.5938,477.6719 C2311.6563,477.2344 2311.0625,477.0938 2310.1875,477.0938 C2307.5625,477.0938 2305.5625,479.1719 2305.5625,481.8906 L2305.5625,483.0156 C2305.5625,485.5938 2307.6719,487.4844 2310.5625,487.4844 C2311.7813,487.4844 2312.9375,487.1875 2313.6875,486.6406 C2314.2656,486.2344 2314.5938,485.7813 2314.5938,485.3906 C2314.5938,484.9375 2314.2031,484.5469 2313.7344,484.5469 C2313.5156,484.5469 2313.3125,484.625 2313.125,484.8125 C2312.6719,485.2969 2312.6719,485.2969 2312.4844,485.3906 C2312.0625,485.6563 2311.375,485.7813 2310.6094,485.7813 C2308.5625,485.7813 2307.2656,484.6875 2307.2656,482.9844 L2307.2656,481.8906 C2307.2656,480.1094 2308.5156,478.7969 2310.25,478.7969 C2310.8281,478.7969 2311.4375,478.9531 2311.9063,479.2031 C2312.3906,479.4844 2312.5625,479.7031 2312.6563,480.1094 C2312.7188,480.5156 2312.75,480.6406 2312.8906,480.7656 C2313.0313,480.9063 2313.2656,481.0156 2313.4844,481.0156 C2313.75,481.0156 2314.0156,480.875 2314.1875,480.6563 C2314.2969,480.5 2314.3281,480.3125 2314.3281,479.8906 L2314.3281,478.4688 C2314.3281,478.0313 2314.3125,477.9063 2314.2188,477.75 C2314.0625,477.4844 2313.7813,477.3438 2313.4844,477.3438 C2313.1875,477.3438 2312.9844,477.4375 2312.7656,477.75 L2312.5938,477.6719 Z " fill="#000000"/><text fill="#000000" font-family="sans-serif" font-size="12" lengthAdjust="spacingAndGlyphs" textLength="64" x="2330.75" y="486.1543">GameView</text><line style="stroke: #A80036; stroke-width: 1.5;" x1="2235" x2="2458" y1="498" y2="498"/><line style="stroke: #A80036; stroke-width: 1.5;" x1="2235" x2="2458" y1="506" y2="506"/><polygon fill="#4177AF" points="2245,513,2241,519,2249,519" style="stroke: #1963A0; stroke-width: 1.0;"/><text fill="#000000" font-family="sans-serif" font-size="11" lengthAdjust="spacingAndGlyphs" textLength="106" x="2254" y="520.2104">GameView(Game)</text><polygon fill="#4177AF" points="2245,525.8047,2241,531.8047,2249,531.8047" style="stroke: #1963A0; stroke-width: 1.0;"/><text fill="#000000" font-family="sans-serif" font-size="11" lengthAdjust="spacingAndGlyphs" textLength="36" x="2254" y="533.0151">write()</text><rect fill="#F24D5C" height="6" style="stroke: #C82930; stroke-width: 1.0;" width="6" x="2242" y="539.6094"/><text fill="#000000" font-family="sans-serif" font-size="11" lengthAdjust="spacingAndGlyphs" textLength="103" x="2254" y="545.8198">printRowBoard(int)</text><rect fill="#F24D5C" height="6" style="stroke: #C82930; stroke-width: 1.0;" width="6" x="2242" y="552.4141"/><text fill="#000000" font-family="sans-serif" font-size="11" lengthAdjust="spacingAndGlyphs" textLength="199" x="2254" y="558.6245">String getSquareBoardText(int, int)</text><!--MD5=[cdc8048ce8edd74de0e2210c3e136b55]
class usantatecla.tictactoe.views.graphics.PlayView--><rect codeLine="110" fill="#FEFECE" filter="url(#f1221xc4ldedgo)" height="124.8281" id="usantatecla.tictactoe.views.graphics.PlayView" style="stroke: #A80036; stroke-width: 1.5;" width="331" x="1931" y="242.5"/><ellipse cx="2066.25" cy="258.5" fill="#ADD1B2" rx="11" ry="11" style="stroke: #A80036; stroke-width: 1.0;"/><path d="M2068.5938,254.1719 C2067.6563,253.7344 2067.0625,253.5938 2066.1875,253.5938 C2063.5625,253.5938 2061.5625,255.6719 2061.5625,258.3906 L2061.5625,259.5156 C2061.5625,262.0938 2063.6719,263.9844 2066.5625,263.9844 C2067.7813,263.9844 2068.9375,263.6875 2069.6875,263.1406 C2070.2656,262.7344 2070.5938,262.2813 2070.5938,261.8906 C2070.5938,261.4375 2070.2031,261.0469 2069.7344,261.0469 C2069.5156,261.0469 2069.3125,261.125 2069.125,261.3125 C2068.6719,261.7969 2068.6719,261.7969 2068.4844,261.8906 C2068.0625,262.1563 2067.375,262.2813 2066.6094,262.2813 C2064.5625,262.2813 2063.2656,261.1875 2063.2656,259.4844 L2063.2656,258.3906 C2063.2656,256.6094 2064.5156,255.2969 2066.25,255.2969 C2066.8281,255.2969 2067.4375,255.4531 2067.9063,255.7031 C2068.3906,255.9844 2068.5625,256.2031 2068.6563,256.6094 C2068.7188,257.0156 2068.75,257.1406 2068.8906,257.2656 C2069.0313,257.4063 2069.2656,257.5156 2069.4844,257.5156 C2069.75,257.5156 2070.0156,257.375 2070.1875,257.1563 C2070.2969,257 2070.3281,256.8125 2070.3281,256.3906 L2070.3281,254.9688 C2070.3281,254.5313 2070.3125,254.4063 2070.2188,254.25 C2070.0625,253.9844 2069.7813,253.8438 2069.4844,253.8438 C2069.1875,253.8438 2068.9844,253.9375 2068.7656,254.25 L2068.5938,254.1719 Z " fill="#000000"/><text fill="#000000" font-family="sans-serif" font-size="12" lengthAdjust="spacingAndGlyphs" textLength="52" x="2086.75" y="262.6543">PlayView</text><line style="stroke: #A80036; stroke-width: 1.5;" x1="1932" x2="2261" y1="274.5" y2="274.5"/><polygon fill="none" points="1942,281.5,1938,287.5,1946,287.5" style="stroke: #1963A0; stroke-width: 1.0;"/><text fill="#000000" font-family="sans-serif" font-size="11" lengthAdjust="spacingAndGlyphs" textLength="279" x="1951" y="288.7104">{static final} String ENTER_COORDINATE_TO_PUT</text><polygon fill="none" points="1942,294.3047,1938,300.3047,1946,300.3047" style="stroke: #1963A0; stroke-width: 1.0;"/><text fill="#000000" font-family="sans-serif" font-size="11" lengthAdjust="spacingAndGlyphs" textLength="305" x="1951" y="301.5151">{static final} String ENTER_COORDINATE_TO_REMOVE</text><line style="stroke: #A80036; stroke-width: 1.5;" x1="1932" x2="2261" y1="308.1094" y2="308.1094"/><polygon fill="#4177AF" points="1942,315.1094,1938,321.1094,1946,321.1094" style="stroke: #1963A0; stroke-width: 1.0;"/><text fill="#000000" font-family="sans-serif" font-size="11" lengthAdjust="spacingAndGlyphs" textLength="94" x="1951" y="322.3198">PlayView(Game)</text><polygon fill="#4177AF" points="1942,327.9141,1938,333.9141,1946,333.9141" style="stroke: #1963A0; stroke-width: 1.0;"/><text fill="#000000" font-family="sans-serif" font-size="11" lengthAdjust="spacingAndGlyphs" textLength="51" x="1951" y="335.1245">interact()</text><rect fill="#F24D5C" height="6" style="stroke: #C82930; stroke-width: 1.0;" width="6" x="1939" y="341.7188"/><text fill="#000000" font-family="sans-serif" font-size="11" lengthAdjust="spacingAndGlyphs" textLength="26" x="1951" y="347.9292">put()</text><rect fill="#F24D5C" height="6" style="stroke: #C82930; stroke-width: 1.0;" width="6" x="1939" y="354.5234"/><text fill="#000000" font-family="sans-serif" font-size="11" lengthAdjust="spacingAndGlyphs" textLength="41" x="1951" y="360.7339">move()</text><!--MD5=[e171d38dde8bc447a12b90c4f96e9a99]
class usantatecla.tictactoe.views.graphics.ResumeView--><rect codeLine="131" fill="#FEFECE" filter="url(#f1221xc4ldedgo)" height="86.4141" id="usantatecla.tictactoe.views.graphics.ResumeView" style="stroke: #A80036; stroke-width: 1.5;" width="182" x="1713.5" y="262"/><ellipse cx="1761.75" cy="278" fill="#ADD1B2" rx="11" ry="11" style="stroke: #A80036; stroke-width: 1.0;"/><path d="M1764.0938,273.6719 C1763.1563,273.2344 1762.5625,273.0938 1761.6875,273.0938 C1759.0625,273.0938 1757.0625,275.1719 1757.0625,277.8906 L1757.0625,279.0156 C1757.0625,281.5938 1759.1719,283.4844 1762.0625,283.4844 C1763.2813,283.4844 1764.4375,283.1875 1765.1875,282.6406 C1765.7656,282.2344 1766.0938,281.7813 1766.0938,281.3906 C1766.0938,280.9375 1765.7031,280.5469 1765.2344,280.5469 C1765.0156,280.5469 1764.8125,280.625 1764.625,280.8125 C1764.1719,281.2969 1764.1719,281.2969 1763.9844,281.3906 C1763.5625,281.6563 1762.875,281.7813 1762.1094,281.7813 C1760.0625,281.7813 1758.7656,280.6875 1758.7656,278.9844 L1758.7656,277.8906 C1758.7656,276.1094 1760.0156,274.7969 1761.75,274.7969 C1762.3281,274.7969 1762.9375,274.9531 1763.4063,275.2031 C1763.8906,275.4844 1764.0625,275.7031 1764.1563,276.1094 C1764.2188,276.5156 1764.25,276.6406 1764.3906,276.7656 C1764.5313,276.9063 1764.7656,277.0156 1764.9844,277.0156 C1765.25,277.0156 1765.5156,276.875 1765.6875,276.6563 C1765.7969,276.5 1765.8281,276.3125 1765.8281,275.8906 L1765.8281,274.4688 C1765.8281,274.0313 1765.8125,273.9063 1765.7188,273.75 C1765.5625,273.4844 1765.2813,273.3438 1764.9844,273.3438 C1764.6875,273.3438 1764.4844,273.4375 1764.2656,273.75 L1764.0938,273.6719 Z " fill="#000000"/><text fill="#000000" font-family="sans-serif" font-size="12" lengthAdjust="spacingAndGlyphs" textLength="77" x="1782.25" y="282.1543">ResumeView</text><line style="stroke: #A80036; stroke-width: 1.5;" x1="1714.5" x2="1894.5" y1="294" y2="294"/><rect fill="none" height="6" style="stroke: #C82930; stroke-width: 1.0;" width="6" x="1721.5" y="302"/><text fill="#000000" font-family="sans-serif" font-size="11" lengthAdjust="spacingAndGlyphs" textLength="112" x="1733.5" y="308.2104">boolean newGame;</text><line style="stroke: #A80036; stroke-width: 1.5;" x1="1714.5" x2="1894.5" y1="314.8047" y2="314.8047"/><polygon fill="#4177AF" points="1724.5,321.8047,1720.5,327.8047,1728.5,327.8047" style="stroke: #1963A0; stroke-width: 1.0;"/><text fill="#000000" font-family="sans-serif" font-size="11" lengthAdjust="spacingAndGlyphs" textLength="83" x="1733.5" y="329.0151">ResumeView()</text><polygon fill="#4177AF" points="1724.5,334.6094,1720.5,340.6094,1728.5,340.6094" style="stroke: #1963A0; stroke-width: 1.0;"/><text fill="#000000" font-family="sans-serif" font-size="11" lengthAdjust="spacingAndGlyphs" textLength="156" x="1733.5" y="341.8198">boolean isResumedGame()</text><!--MD5=[9ec4f2e0c7acff142894de6c884d1545]
class usantatecla.tictactoe.views.graphics.StartView--><rect codeLine="142" fill="#FEFECE" filter="url(#f1221xc4ldedgo)" height="73.6094" id="usantatecla.tictactoe.views.graphics.StartView" style="stroke: #A80036; stroke-width: 1.5;" width="124" x="2561.5" y="268"/><ellipse cx="2592.25" cy="284" fill="#ADD1B2" rx="11" ry="11" style="stroke: #A80036; stroke-width: 1.0;"/><path d="M2594.5938,279.6719 C2593.6563,279.2344 2593.0625,279.0938 2592.1875,279.0938 C2589.5625,279.0938 2587.5625,281.1719 2587.5625,283.8906 L2587.5625,285.0156 C2587.5625,287.5938 2589.6719,289.4844 2592.5625,289.4844 C2593.7813,289.4844 2594.9375,289.1875 2595.6875,288.6406 C2596.2656,288.2344 2596.5938,287.7813 2596.5938,287.3906 C2596.5938,286.9375 2596.2031,286.5469 2595.7344,286.5469 C2595.5156,286.5469 2595.3125,286.625 2595.125,286.8125 C2594.6719,287.2969 2594.6719,287.2969 2594.4844,287.3906 C2594.0625,287.6563 2593.375,287.7813 2592.6094,287.7813 C2590.5625,287.7813 2589.2656,286.6875 2589.2656,284.9844 L2589.2656,283.8906 C2589.2656,282.1094 2590.5156,280.7969 2592.25,280.7969 C2592.8281,280.7969 2593.4375,280.9531 2593.9063,281.2031 C2594.3906,281.4844 2594.5625,281.7031 2594.6563,282.1094 C2594.7188,282.5156 2594.75,282.6406 2594.8906,282.7656 C2595.0313,282.9063 2595.2656,283.0156 2595.4844,283.0156 C2595.75,283.0156 2596.0156,282.875 2596.1875,282.6563 C2596.2969,282.5 2596.3281,282.3125 2596.3281,281.8906 L2596.3281,280.4688 C2596.3281,280.0313 2596.3125,279.9063 2596.2188,279.75 C2596.0625,279.4844 2595.7813,279.3438 2595.4844,279.3438 C2595.1875,279.3438 2594.9844,279.4375 2594.7656,279.75 L2594.5938,279.6719 Z " fill="#000000"/><text fill="#000000" font-family="sans-serif" font-size="12" lengthAdjust="spacingAndGlyphs" textLength="57" x="2609.75" y="288.1543">StartView</text><line style="stroke: #A80036; stroke-width: 1.5;" x1="2562.5" x2="2684.5" y1="300" y2="300"/><line style="stroke: #A80036; stroke-width: 1.5;" x1="2562.5" x2="2684.5" y1="308" y2="308"/><polygon fill="#4177AF" points="2572.5,315,2568.5,321,2576.5,321" style="stroke: #1963A0; stroke-width: 1.0;"/><text fill="#000000" font-family="sans-serif" font-size="11" lengthAdjust="spacingAndGlyphs" textLength="98" x="2581.5" y="322.2104">StartView(Game)</text><polygon fill="#4177AF" points="2572.5,327.8047,2568.5,333.8047,2576.5,333.8047" style="stroke: #1963A0; stroke-width: 1.0;"/><text fill="#000000" font-family="sans-serif" font-size="11" lengthAdjust="spacingAndGlyphs" textLength="51" x="2581.5" y="335.0151">interact()</text><!--MD5=[b29758acbc8a76271a939284967915a0]
class usantatecla.tictactoe.views.graphics.GraphicsView--><rect codeLine="156" fill="#FEFECE" filter="url(#f1221xc4ldedgo)" height="60.8047" id="usantatecla.tictactoe.views.graphics.GraphicsView" style="stroke: #A80036; stroke-width: 1.5;" width="114" x="2039.5" y="115"/><ellipse cx="2054.5" cy="131" fill="#ADD1B2" rx="11" ry="11" style="stroke: #A80036; stroke-width: 1.0;"/><path d="M2056.8438,126.6719 C2055.9063,126.2344 2055.3125,126.0938 2054.4375,126.0938 C2051.8125,126.0938 2049.8125,128.1719 2049.8125,130.8906 L2049.8125,132.0156 C2049.8125,134.5938 2051.9219,136.4844 2054.8125,136.4844 C2056.0313,136.4844 2057.1875,136.1875 2057.9375,135.6406 C2058.5156,135.2344 2058.8438,134.7813 2058.8438,134.3906 C2058.8438,133.9375 2058.4531,133.5469 2057.9844,133.5469 C2057.7656,133.5469 2057.5625,133.625 2057.375,133.8125 C2056.9219,134.2969 2056.9219,134.2969 2056.7344,134.3906 C2056.3125,134.6563 2055.625,134.7813 2054.8594,134.7813 C2052.8125,134.7813 2051.5156,133.6875 2051.5156,131.9844 L2051.5156,130.8906 C2051.5156,129.1094 2052.7656,127.7969 2054.5,127.7969 C2055.0781,127.7969 2055.6875,127.9531 2056.1563,128.2031 C2056.6406,128.4844 2056.8125,128.7031 2056.9063,129.1094 C2056.9688,129.5156 2057,129.6406 2057.1406,129.7656 C2057.2813,129.9063 2057.5156,130.0156 2057.7344,130.0156 C2058,130.0156 2058.2656,129.875 2058.4375,129.6563 C2058.5469,129.5 2058.5781,129.3125 2058.5781,128.8906 L2058.5781,127.4688 C2058.5781,127.0313 2058.5625,126.9063 2058.4688,126.75 C2058.3125,126.4844 2058.0313,126.3438 2057.7344,126.3438 C2057.4375,126.3438 2057.2344,126.4375 2057.0156,126.75 L2056.8438,126.6719 Z " fill="#000000"/><text fill="#000000" font-family="sans-serif" font-size="12" lengthAdjust="spacingAndGlyphs" textLength="82" x="2068.5" y="135.1543">GraphicsView</text><line style="stroke: #A80036; stroke-width: 1.5;" x1="2040.5" x2="2152.5" y1="147" y2="147"/><line style="stroke: #A80036; stroke-width: 1.5;" x1="2040.5" x2="2152.5" y1="155" y2="155"/><ellipse cx="2050.5" cy="166" fill="#84BE84" rx="3" ry="3" style="stroke: #038048; stroke-width: 1.0;"/><text fill="#000000" font-family="sans-serif" font-size="11" lengthAdjust="spacingAndGlyphs" textLength="71" x="2059.5" y="169.2104">View(Game)</text><!--MD5=[86cec68673cafdfc1c204348d5b2cca6]
class ErrorView--><rect codeLine="48" fill="#FEFECE" filter="url(#f1221xc4ldedgo)" height="48" id="ErrorView" style="stroke: #A80036; stroke-width: 1.5;" width="255" x="872" y="663.5"/><ellipse cx="887" cy="679.5" fill="#ADD1B2" rx="11" ry="11" style="stroke: #A80036; stroke-width: 1.0;"/><path d="M889.3438,675.1719 C888.4063,674.7344 887.8125,674.5938 886.9375,674.5938 C884.3125,674.5938 882.3125,676.6719 882.3125,679.3906 L882.3125,680.5156 C882.3125,683.0938 884.4219,684.9844 887.3125,684.9844 C888.5313,684.9844 889.6875,684.6875 890.4375,684.1406 C891.0156,683.7344 891.3438,683.2813 891.3438,682.8906 C891.3438,682.4375 890.9531,682.0469 890.4844,682.0469 C890.2656,682.0469 890.0625,682.125 889.875,682.3125 C889.4219,682.7969 889.4219,682.7969 889.2344,682.8906 C888.8125,683.1563 888.125,683.2813 887.3594,683.2813 C885.3125,683.2813 884.0156,682.1875 884.0156,680.4844 L884.0156,679.3906 C884.0156,677.6094 885.2656,676.2969 887,676.2969 C887.5781,676.2969 888.1875,676.4531 888.6563,676.7031 C889.1406,676.9844 889.3125,677.2031 889.4063,677.6094 C889.4688,678.0156 889.5,678.1406 889.6406,678.2656 C889.7813,678.4063 890.0156,678.5156 890.2344,678.5156 C890.5,678.5156 890.7656,678.375 890.9375,678.1563 C891.0469,678 891.0781,677.8125 891.0781,677.3906 L891.0781,675.9688 C891.0781,675.5313 891.0625,675.4063 890.9688,675.25 C890.8125,674.9844 890.5313,674.8438 890.2344,674.8438 C889.9375,674.8438 889.7344,674.9375 889.5156,675.25 L889.3438,675.1719 Z " fill="#000000"/><text fill="#000000" font-family="sans-serif" font-size="12" lengthAdjust="spacingAndGlyphs" textLength="223" x="901" y="683.6543">usantatecla.tictactoe.views.ErrorView</text><line style="stroke: #A80036; stroke-width: 1.5;" x1="873" x2="1126" y1="695.5" y2="695.5"/><line style="stroke: #A80036; stroke-width: 1.5;" x1="873" x2="1126" y1="703.5" y2="703.5"/><!--MD5=[8c7d7abc12e214c3cc12c9ab70edee11]
class Coordinate--><rect codeLine="66" fill="#FEFECE" filter="url(#f1221xc4ldedgo)" height="48" id="Coordinate" style="stroke: #A80036; stroke-width: 1.5;" width="272" x="564.5" y="663.5"/><ellipse cx="579.5" cy="679.5" fill="#ADD1B2" rx="11" ry="11" style="stroke: #A80036; stroke-width: 1.0;"/><path d="M581.8438,675.1719 C580.9063,674.7344 580.3125,674.5938 579.4375,674.5938 C576.8125,674.5938 574.8125,676.6719 574.8125,679.3906 L574.8125,680.5156 C574.8125,683.0938 576.9219,684.9844 579.8125,684.9844 C581.0313,684.9844 582.1875,684.6875 582.9375,684.1406 C583.5156,683.7344 583.8438,683.2813 583.8438,682.8906 C583.8438,682.4375 583.4531,682.0469 582.9844,682.0469 C582.7656,682.0469 582.5625,682.125 582.375,682.3125 C581.9219,682.7969 581.9219,682.7969 581.7344,682.8906 C581.3125,683.1563 580.625,683.2813 579.8594,683.2813 C577.8125,683.2813 576.5156,682.1875 576.5156,680.4844 L576.5156,679.3906 C576.5156,677.6094 577.7656,676.2969 579.5,676.2969 C580.0781,676.2969 580.6875,676.4531 581.1563,676.7031 C581.6406,676.9844 581.8125,677.2031 581.9063,677.6094 C581.9688,678.0156 582,678.1406 582.1406,678.2656 C582.2813,678.4063 582.5156,678.5156 582.7344,678.5156 C583,678.5156 583.2656,678.375 583.4375,678.1563 C583.5469,678 583.5781,677.8125 583.5781,677.3906 L583.5781,675.9688 C583.5781,675.5313 583.5625,675.4063 583.4688,675.25 C583.3125,674.9844 583.0313,674.8438 582.7344,674.8438 C582.4375,674.8438 582.2344,674.9375 582.0156,675.25 L581.8438,675.1719 Z " fill="#000000"/><text fill="#000000" font-family="sans-serif" font-size="12" lengthAdjust="spacingAndGlyphs" textLength="240" x="593.5" y="683.6543">usantatecla.tictactoe.models.Coordinate</text><line style="stroke: #A80036; stroke-width: 1.5;" x1="565.5" x2="835.5" y1="695.5" y2="695.5"/><line style="stroke: #A80036; stroke-width: 1.5;" x1="565.5" x2="835.5" y1="703.5" y2="703.5"/><!--MD5=[b8cfd8c4119a3b0a7a46bfc5fc780f85]
class Error--><rect codeLine="47" fill="#FEFECE" filter="url(#f1221xc4ldedgo)" height="48" id="Error" style="stroke: #A80036; stroke-width: 1.5;" width="236" x="293.5" y="663.5"/><ellipse cx="308.5" cy="679.5" fill="#ADD1B2" rx="11" ry="11" style="stroke: #A80036; stroke-width: 1.0;"/><path d="M310.8438,675.1719 C309.9063,674.7344 309.3125,674.5938 308.4375,674.5938 C305.8125,674.5938 303.8125,676.6719 303.8125,679.3906 L303.8125,680.5156 C303.8125,683.0938 305.9219,684.9844 308.8125,684.9844 C310.0313,684.9844 311.1875,684.6875 311.9375,684.1406 C312.5156,683.7344 312.8438,683.2813 312.8438,682.8906 C312.8438,682.4375 312.4531,682.0469 311.9844,682.0469 C311.7656,682.0469 311.5625,682.125 311.375,682.3125 C310.9219,682.7969 310.9219,682.7969 310.7344,682.8906 C310.3125,683.1563 309.625,683.2813 308.8594,683.2813 C306.8125,683.2813 305.5156,682.1875 305.5156,680.4844 L305.5156,679.3906 C305.5156,677.6094 306.7656,676.2969 308.5,676.2969 C309.0781,676.2969 309.6875,676.4531 310.1563,676.7031 C310.6406,676.9844 310.8125,677.2031 310.9063,677.6094 C310.9688,678.0156 311,678.1406 311.1406,678.2656 C311.2813,678.4063 311.5156,678.5156 311.7344,678.5156 C312,678.5156 312.2656,678.375 312.4375,678.1563 C312.5469,678 312.5781,677.8125 312.5781,677.3906 L312.5781,675.9688 C312.5781,675.5313 312.5625,675.4063 312.4688,675.25 C312.3125,674.9844 312.0313,674.8438 311.7344,674.8438 C311.4375,674.8438 311.2344,674.9375 311.0156,675.25 L310.8438,675.1719 Z " fill="#000000"/><text fill="#000000" font-family="sans-serif" font-size="12" lengthAdjust="spacingAndGlyphs" textLength="204" x="322.5" y="683.6543">usantatecla.tictactoe.models.Error</text><line style="stroke: #A80036; stroke-width: 1.5;" x1="294.5" x2="528.5" y1="695.5" y2="695.5"/><line style="stroke: #A80036; stroke-width: 1.5;" x1="294.5" x2="528.5" y1="703.5" y2="703.5"/><!--MD5=[b6dcce5e5ef3c84b0b048d11301373dd]
class Game--><rect codeLine="98" fill="#FEFECE" filter="url(#f1221xc4ldedgo)" height="48" id="Game" style="stroke: #A80036; stroke-width: 1.5;" width="241" x="1440" y="663.5"/><ellipse cx="1455" cy="679.5" fill="#ADD1B2" rx="11" ry="11" style="stroke: #A80036; stroke-width: 1.0;"/><path d="M1457.3438,675.1719 C1456.4063,674.7344 1455.8125,674.5938 1454.9375,674.5938 C1452.3125,674.5938 1450.3125,676.6719 1450.3125,679.3906 L1450.3125,680.5156 C1450.3125,683.0938 1452.4219,684.9844 1455.3125,684.9844 C1456.5313,684.9844 1457.6875,684.6875 1458.4375,684.1406 C1459.0156,683.7344 1459.3438,683.2813 1459.3438,682.8906 C1459.3438,682.4375 1458.9531,682.0469 1458.4844,682.0469 C1458.2656,682.0469 1458.0625,682.125 1457.875,682.3125 C1457.4219,682.7969 1457.4219,682.7969 1457.2344,682.8906 C1456.8125,683.1563 1456.125,683.2813 1455.3594,683.2813 C1453.3125,683.2813 1452.0156,682.1875 1452.0156,680.4844 L1452.0156,679.3906 C1452.0156,677.6094 1453.2656,676.2969 1455,676.2969 C1455.5781,676.2969 1456.1875,676.4531 1456.6563,676.7031 C1457.1406,676.9844 1457.3125,677.2031 1457.4063,677.6094 C1457.4688,678.0156 1457.5,678.1406 1457.6406,678.2656 C1457.7813,678.4063 1458.0156,678.5156 1458.2344,678.5156 C1458.5,678.5156 1458.7656,678.375 1458.9375,678.1563 C1459.0469,678 1459.0781,677.8125 1459.0781,677.3906 L1459.0781,675.9688 C1459.0781,675.5313 1459.0625,675.4063 1458.9688,675.25 C1458.8125,674.9844 1458.5313,674.8438 1458.2344,674.8438 C1457.9375,674.8438 1457.7344,674.9375 1457.5156,675.25 L1457.3438,675.1719 Z " fill="#000000"/><text fill="#000000" font-family="sans-serif" font-size="12" lengthAdjust="spacingAndGlyphs" textLength="209" x="1469" y="683.6543">usantatecla.tictactoe.models.Game</text><line style="stroke: #A80036; stroke-width: 1.5;" x1="1441" x2="1680" y1="695.5" y2="695.5"/><line style="stroke: #A80036; stroke-width: 1.5;" x1="1441" x2="1680" y1="703.5" y2="703.5"/><!--MD5=[d8c8cfd5ca149094f5b67f9f607a5ec7]
class Token--><rect codeLine="99" fill="#FEFECE" filter="url(#f1221xc4ldedgo)" height="48" id="Token" style="stroke: #A80036; stroke-width: 1.5;" width="243" x="1162" y="663.5"/><ellipse cx="1177" cy="679.5" fill="#ADD1B2" rx="11" ry="11" style="stroke: #A80036; stroke-width: 1.0;"/><path d="M1179.3438,675.1719 C1178.4063,674.7344 1177.8125,674.5938 1176.9375,674.5938 C1174.3125,674.5938 1172.3125,676.6719 1172.3125,679.3906 L1172.3125,680.5156 C1172.3125,683.0938 1174.4219,684.9844 1177.3125,684.9844 C1178.5313,684.9844 1179.6875,684.6875 1180.4375,684.1406 C1181.0156,683.7344 1181.3438,683.2813 1181.3438,682.8906 C1181.3438,682.4375 1180.9531,682.0469 1180.4844,682.0469 C1180.2656,682.0469 1180.0625,682.125 1179.875,682.3125 C1179.4219,682.7969 1179.4219,682.7969 1179.2344,682.8906 C1178.8125,683.1563 1178.125,683.2813 1177.3594,683.2813 C1175.3125,683.2813 1174.0156,682.1875 1174.0156,680.4844 L1174.0156,679.3906 C1174.0156,677.6094 1175.2656,676.2969 1177,676.2969 C1177.5781,676.2969 1178.1875,676.4531 1178.6563,676.7031 C1179.1406,676.9844 1179.3125,677.2031 1179.4063,677.6094 C1179.4688,678.0156 1179.5,678.1406 1179.6406,678.2656 C1179.7813,678.4063 1180.0156,678.5156 1180.2344,678.5156 C1180.5,678.5156 1180.7656,678.375 1180.9375,678.1563 C1181.0469,678 1181.0781,677.8125 1181.0781,677.3906 L1181.0781,675.9688 C1181.0781,675.5313 1181.0625,675.4063 1180.9688,675.25 C1180.8125,674.9844 1180.5313,674.8438 1180.2344,674.8438 C1179.9375,674.8438 1179.7344,674.9375 1179.5156,675.25 L1179.3438,675.1719 Z " fill="#000000"/><text fill="#000000" font-family="sans-serif" font-size="12" lengthAdjust="spacingAndGlyphs" textLength="211" x="1191" y="683.6543">usantatecla.tictactoe.models.Token</text><line style="stroke: #A80036; stroke-width: 1.5;" x1="1163" x2="1404" y1="695.5" y2="695.5"/><line style="stroke: #A80036; stroke-width: 1.5;" x1="1163" x2="1404" y1="703.5" y2="703.5"/><!--MD5=[bea5b0d46523efab5ea1c1d339f396f0]
class Message--><rect codeLine="100" fill="#FEFECE" filter="url(#f1221xc4ldedgo)" height="48" id="Message" style="stroke: #A80036; stroke-width: 1.5;" width="251" x="7" y="663.5"/><ellipse cx="22" cy="679.5" fill="#ADD1B2" rx="11" ry="11" style="stroke: #A80036; stroke-width: 1.0;"/><path d="M24.3438,675.1719 C23.4063,674.7344 22.8125,674.5938 21.9375,674.5938 C19.3125,674.5938 17.3125,676.6719 17.3125,679.3906 L17.3125,680.5156 C17.3125,683.0938 19.4219,684.9844 22.3125,684.9844 C23.5313,684.9844 24.6875,684.6875 25.4375,684.1406 C26.0156,683.7344 26.3438,683.2813 26.3438,682.8906 C26.3438,682.4375 25.9531,682.0469 25.4844,682.0469 C25.2656,682.0469 25.0625,682.125 24.875,682.3125 C24.4219,682.7969 24.4219,682.7969 24.2344,682.8906 C23.8125,683.1563 23.125,683.2813 22.3594,683.2813 C20.3125,683.2813 19.0156,682.1875 19.0156,680.4844 L19.0156,679.3906 C19.0156,677.6094 20.2656,676.2969 22,676.2969 C22.5781,676.2969 23.1875,676.4531 23.6563,676.7031 C24.1406,676.9844 24.3125,677.2031 24.4063,677.6094 C24.4688,678.0156 24.5,678.1406 24.6406,678.2656 C24.7813,678.4063 25.0156,678.5156 25.2344,678.5156 C25.5,678.5156 25.7656,678.375 25.9375,678.1563 C26.0469,678 26.0781,677.8125 26.0781,677.3906 L26.0781,675.9688 C26.0781,675.5313 26.0625,675.4063 25.9688,675.25 C25.8125,674.9844 25.5313,674.8438 25.2344,674.8438 C24.9375,674.8438 24.7344,674.9375 24.5156,675.25 L24.3438,675.1719 Z " fill="#000000"/><text fill="#000000" font-family="sans-serif" font-size="12" lengthAdjust="spacingAndGlyphs" textLength="219" x="36" y="683.6543">usantatecla.tictactoe.views.Message</text><line style="stroke: #A80036; stroke-width: 1.5;" x1="8" x2="257" y1="695.5" y2="695.5"/><line style="stroke: #A80036; stroke-width: 1.5;" x1="8" x2="257" y1="703.5" y2="703.5"/><!--MD5=[c045e12321b83266d36d22b9096c24ea]
class View--><rect codeLine="154" fill="#FEFECE" filter="url(#f1221xc4ldedgo)" height="48" id="View" style="stroke: #A80036; stroke-width: 1.5;" width="225" x="1984" y="7"/><ellipse cx="1999" cy="23" fill="#ADD1B2" rx="11" ry="11" style="stroke: #A80036; stroke-width: 1.0;"/><path d="M2001.3438,18.6719 C2000.4063,18.2344 1999.8125,18.0938 1998.9375,18.0938 C1996.3125,18.0938 1994.3125,20.1719 1994.3125,22.8906 L1994.3125,24.0156 C1994.3125,26.5938 1996.4219,28.4844 1999.3125,28.4844 C2000.5313,28.4844 2001.6875,28.1875 2002.4375,27.6406 C2003.0156,27.2344 2003.3438,26.7813 2003.3438,26.3906 C2003.3438,25.9375 2002.9531,25.5469 2002.4844,25.5469 C2002.2656,25.5469 2002.0625,25.625 2001.875,25.8125 C2001.4219,26.2969 2001.4219,26.2969 2001.2344,26.3906 C2000.8125,26.6563 2000.125,26.7813 1999.3594,26.7813 C1997.3125,26.7813 1996.0156,25.6875 1996.0156,23.9844 L1996.0156,22.8906 C1996.0156,21.1094 1997.2656,19.7969 1999,19.7969 C1999.5781,19.7969 2000.1875,19.9531 2000.6563,20.2031 C2001.1406,20.4844 2001.3125,20.7031 2001.4063,21.1094 C2001.4688,21.5156 2001.5,21.6406 2001.6406,21.7656 C2001.7813,21.9063 2002.0156,22.0156 2002.2344,22.0156 C2002.5,22.0156 2002.7656,21.875 2002.9375,21.6563 C2003.0469,21.5 2003.0781,21.3125 2003.0781,20.8906 L2003.0781,19.4688 C2003.0781,19.0313 2003.0625,18.9063 2002.9688,18.75 C2002.8125,18.4844 2002.5313,18.3438 2002.2344,18.3438 C2001.9375,18.3438 2001.7344,18.4375 2001.5156,18.75 L2001.3438,18.6719 Z " fill="#000000"/><text fill="#000000" font-family="sans-serif" font-size="12" lengthAdjust="spacingAndGlyphs" textLength="193" x="2013" y="27.1543">usantatecla.tictactoe.views.View</text><line style="stroke: #A80036; stroke-width: 1.5;" x1="1985" x2="2208" y1="39" y2="39"/><line style="stroke: #A80036; stroke-width: 1.5;" x1="1985" x2="2208" y1="47" y2="47"/><!--MD5=[d3c9a5757afba531d011729e12705f16]
link usantatecla.tictactoe.views.graphics.ChoosePlayersView to usantatecla.tictactoe.views.graphics.Constraints--><path codeLine="22" d="M2598.82,597.019 C2599.6,616.141 2600.4,635.566 2601.06,651.409 " fill="none" id="usantatecla.tictactoe.views.graphics.ChoosePlayersView-to-usantatecla.tictactoe.views.graphics.Constraints" style="stroke: #A80036; stroke-width: 1.0; stroke-dasharray: 7.0,7.0;"/><polygon fill="#A80036" points="2601.27,656.6389,2604.8953,647.4815,2601.0637,651.6432,2596.9021,647.8116,2601.27,656.6389" style="stroke: #A80036; stroke-width: 1.0;"/><!--MD5=[097649e5b245f3ec4f75fa600c7fc35b]
link usantatecla.tictactoe.views.graphics.ChoosePlayersView to ErrorView--><path codeLine="23" d="M2494.49,589.899 C2488.55,592.6 2482.54,595 2476.5,597 C2195.23,690.1743 1438.57,620.688 1144.5,657 C1132.46,658.487 1119.92,660.4294 1107.49,662.6086 " fill="none" id="usantatecla.tictactoe.views.graphics.ChoosePlayersView-to-ErrorView" style="stroke: #A80036; stroke-width: 1.0; stroke-dasharray: 7.0,7.0;"/><polygon fill="#A80036" points="1102.54,663.4884,1112.0995,665.8584,1107.4635,662.6168,1110.705,657.9808,1102.54,663.4884" style="stroke: #A80036; stroke-width: 1.0;"/><!--MD5=[343be57cfa3e8b250ce79e30e3bf8733]
reverse link javax.swing to usantatecla.tictactoe.views.graphics.ChoosePlayersView--><path codeLine="24" d="M2937.41,188.441 C2901.53,236.717 2845.97,316.703 2785.5,374 C2758.62,399.468 2726.69,423.555 2696.68,444.356 " fill="none" id="javax.swing-backto-usantatecla.tictactoe.views.graphics.ChoosePlayersView" style="stroke: #A80036; stroke-width: 1.0;"/><polygon fill="none" points="2932.06,183.913,2949.71,172.191,2943.22,192.362,2932.06,183.913" style="stroke: #A80036; stroke-width: 1.0;"/><!--MD5=[3a7f59e7e50058d1b7f0c44be922d8a5]
link javax.swing to usantatecla.tictactoe.views.graphics.ChoosePlayersView--><path codeLine="25" d="M2964.85,184.086 C2939.93,231.784 2882.82,314.944 2820.5,374 C2787.14,405.609 2706.9879,459.3768 2706.9879,459.3768 " fill="none" id="javax.swing-usantatecla.tictactoe.views.graphics.ChoosePlayersView" style="stroke: #A80036; stroke-width: 1.0;"/><polygon fill="#A80036" points="2696.76,465.653,2703.966,465.9242,2706.9879,459.3768,2699.7819,459.1056,2696.76,465.653" style="stroke: #A80036; stroke-width: 1.0;"/><polygon fill="#A80036" points="2970.73,172.191,2963.1539,178.4841,2968.5128,176.6725,2970.3244,182.0315,2970.73,172.191" style="stroke: #A80036; stroke-width: 1.0;"/><line style="stroke: #A80036; stroke-width: 1.0;" x1="2968.5128" x2="2964.97" y1="176.6725" y2="183.8415"/><!--MD5=[26ff523fe485978f2f412b7e5f9a7321]
reverse link java.awt to usantatecla.tictactoe.views.graphics.ChoosePlayersView--><path codeLine="26" d="M2779.78,177.1 C2787.55,222.659 2796.16,309.833 2764.5,374 C2749.22,404.966 2723.62,431.597 2696.91,453.088 " fill="none" id="java.awt-backto-usantatecla.tictactoe.views.graphics.ChoosePlayersView" style="stroke: #A80036; stroke-width: 1.0; stroke-dasharray: 7.0,7.0;"/><polygon fill="#A80036" points="2778.89,172.022,2776.5047,181.5776,2779.7536,176.9468,2784.3844,180.1958,2778.89,172.022" style="stroke: #A80036; stroke-width: 1.0;"/><!--MD5=[cec0a60f3bbc4ab7e2acf2598bf0f82e]
reverse link java.awt to usantatecla.tictactoe.views.graphics.Constraints--><path codeLine="34" d="M2791.06,191.335 C2795.75,205.408 2800.15,221.15 2802.5,236 C2812.07,296.582 2814.08,313.769 2802.5,374 C2782.36,478.795 2776.88,511.15 2713.5,597 C2696.22,620.4 2671.42,641.174 2649.64,656.8035 " fill="none" id="java.awt-backto-usantatecla.tictactoe.views.graphics.Constraints" style="stroke: #A80036; stroke-width: 1.0;"/><polygon fill="none" points="2784.37,193.399,2784.21,172.21,2797.55,188.677,2784.37,193.399" style="stroke: #A80036; stroke-width: 1.0;"/><!--MD5=[9ba02933008687e289d356350d3b06d6]
reverse link usantatecla.tictactoe.views.graphics.CoordinateView to usantatecla.tictactoe.views.graphics.CoordinateMoveView--><path d="M2277.74,373.898 C2150.02,415.562 2105.44,389.989 1986.5,434 C1967.87,440.894 1948.75,449.92 1930.75,459.428 " fill="none" id="usantatecla.tictactoe.views.graphics.CoordinateView-backto-usantatecla.tictactoe.views.graphics.CoordinateMoveView" style="stroke: #A80036; stroke-width: 1.0;"/><polygon fill="none" points="2275.58,367.239,2296.77,367.403,2280.1,380.489,2275.58,367.239" style="stroke: #A80036; stroke-width: 1.0;"/><!--MD5=[3fddb1a8e998ae9eeb8cf10857055a78]
link usantatecla.tictactoe.views.graphics.CoordinateMoveView to Error--><path codeLine="50" d="M1713.95,534.019 C1585.84,551.297 1382.71,577.828 1206.5,597 C913.685,628.86 837.607,612.14 546.5,657 C536.312,658.57 525.74,660.4441 515.202,662.4759 " fill="none" id="usantatecla.tictactoe.views.graphics.CoordinateMoveView-to-Error" style="stroke: #A80036; stroke-width: 1.0; stroke-dasharray: 7.0,7.0;"/><polygon fill="#A80036" points="510.032,663.4853,519.6319,665.6857,514.9393,662.5267,518.0982,657.8341,510.032,663.4853" style="stroke: #A80036; stroke-width: 1.0;"/><!--MD5=[9469190bf13ee434badbb380a30ac1af]
link usantatecla.tictactoe.views.graphics.CoordinateMoveView to ErrorView--><path codeLine="51" d="M1713.98,542.134 C1574.21,570.246 1343.37,616.726 1144.5,657 C1135.79,658.7639 1126.79,660.5898 1117.73,662.4287 " fill="none" id="usantatecla.tictactoe.views.graphics.CoordinateMoveView-to-ErrorView" style="stroke: #A80036; stroke-width: 1.0; stroke-dasharray: 7.0,7.0;"/><polygon fill="#A80036" points="1112.69,663.4513,1122.3081,665.5709,1117.589,662.4515,1120.7084,657.7324,1112.69,663.4513" style="stroke: #A80036; stroke-width: 1.0;"/><!--MD5=[44f9a69841386c9dbcc6511b7b58c5c0]
link usantatecla.tictactoe.views.graphics.CoordinateMoveView to Coordinate--><path codeLine="52" d="M1701.9296,534.2308 C1701.9296,534.2308 1155.1,606.842 854.5,657 C846.752,658.2928 838.794,659.669 830.772,661.0933 " fill="none" id="usantatecla.tictactoe.views.graphics.CoordinateMoveView-Coordinate" style="stroke: #A80036; stroke-width: 1.0;"/><polygon fill="#A80036" points="817.691,663.4467,827.257,665.7902,822.612,662.5615,825.8407,657.9166,817.691,663.4467" style="stroke: #A80036; stroke-width: 1.0;"/><line style="stroke: #A80036; stroke-width: 1.0;" x1="822.612" x2="830.4855" y1="662.5615" y2="661.1448"/><polygon fill="#A80036" points="1713.83,532.688,1707.3655,529.4926,1701.9296,534.2308,1708.394,537.4262,1713.83,532.688" style="stroke: #A80036; stroke-width: 1.0;"/><text fill="#000000" font-family="sans-serif" font-size="13" lengthAdjust="spacingAndGlyphs" textLength="8" x="838.6962" y="652.4455">2</text><!--MD5=[c4cc2b9855b948b314184562ef1cf463]
reverse link usantatecla.tictactoe.views.graphics.CoordinateView to usantatecla.tictactoe.views.graphics.CoordinatePutView--><path d="M2289.58,385.231 C2265.28,401.244 2240.01,418.059 2216.5,434 C2210.55,438.034 2204.44,442.208 2198.3,446.435 " fill="none" id="usantatecla.tictactoe.views.graphics.CoordinateView-backto-usantatecla.tictactoe.views.graphics.CoordinatePutView" style="stroke: #A80036; stroke-width: 1.0;"/><polygon fill="none" points="2286.07,379.156,2306.63,374.016,2293.76,390.853,2286.07,379.156" style="stroke: #A80036; stroke-width: 1.0;"/><!--MD5=[7e8c25c40135b9bb2101f02d22fc75c5]
link usantatecla.tictactoe.views.graphics.CoordinatePutView to ErrorView--><path codeLine="68" d="M2014,584.577 C2005.04,589.429 1995.8,593.7 1986.5,597 C1809.71,659.7222 1330.36,631.581 1144.5,657 C1133.14,658.5534 1121.34,660.4617 1109.59,662.5538 " fill="none" id="usantatecla.tictactoe.views.graphics.CoordinatePutView-to-ErrorView" style="stroke: #A80036; stroke-width: 1.0; stroke-dasharray: 7.0,7.0;"/><polygon fill="#A80036" points="1104.56,663.4612,1114.1263,665.8035,1109.4809,662.5754,1112.709,657.9301,1104.56,663.4612" style="stroke: #A80036; stroke-width: 1.0;"/><!--MD5=[bea0dc8641a495cf28ff6a35a943745f]
link usantatecla.tictactoe.views.graphics.CoordinatePutView to Coordinate--><path codeLine="69" d="M2003.6635,589.9587 C2003.6635,589.9587 1991.96,595.118 1986.5,597 C1748.33,679.0676 1104.56,626.566 854.5,657 C844.525,658.214 834.224,659.6913 823.9,661.3307 " fill="none" id="usantatecla.tictactoe.views.graphics.CoordinatePutView-Coordinate" style="stroke: #A80036; stroke-width: 1.0;"/><polygon fill="#A80036" points="810.832,663.4864,820.363,665.9683,815.7653,662.6727,819.061,658.075,810.832,663.4864" style="stroke: #A80036; stroke-width: 1.0;"/><line style="stroke: #A80036; stroke-width: 1.0;" x1="815.7653" x2="823.6585" y1="662.6727" y2="661.3705"/><polygon fill="#A80036" points="2014.39,584.579,2007.2335,583.6934,2003.6635,589.9587,2010.82,590.8444,2014.39,584.579" style="stroke: #A80036; stroke-width: 1.0;"/><!--MD5=[d4c2c19112cf67683646c63d6f858122]
reverse link javax.swing to usantatecla.tictactoe.views.graphics.CoordinateView--><path codeLine="83" d="M2897.91,159.587 C2872.36,164.731 2844.12,170.669 2818.5,176 C2688.79,202.992 2651.44,191.919 2526.5,236 C2526.38,236.043 2526.26,236.086 2526.14,236.129 " fill="none" id="javax.swing-backto-usantatecla.tictactoe.views.graphics.CoordinateView" style="stroke: #A80036; stroke-width: 1.0;"/><polygon fill="none" points="2896.74,152.682,2917.72,155.659,2899.46,166.415,2896.74,152.682" style="stroke: #A80036; stroke-width: 1.0;"/><!--MD5=[d4c2c19112cf67683646c63d6f858122]
reverse link javax.swing to usantatecla.tictactoe.views.graphics.CoordinateView--><path codeLine="86" d="M2898.25,166.588 C2883.44,169.75 2868.05,172.973 2853.5,176 C2723.79,202.992 2686.44,191.919 2561.5,236 C2549.83,240.117 2537.9,245.081 2526.09,250.429 " fill="none" id="javax.swing-backto-usantatecla.tictactoe.views.graphics.CoordinateView-1" style="stroke: #A80036; stroke-width: 1.0;"/><polygon fill="none" points="2896.95,159.71,2917.97,162.338,2899.9,173.395,2896.95,159.71" style="stroke: #A80036; stroke-width: 1.0;"/><!--MD5=[ee74f8027065593db8b5d3181dc1d9ba]
reverse link java.awt to usantatecla.tictactoe.views.graphics.CoordinateView--><path codeLine="84" d="M2709.42,162.159 C2698.19,166.835 2687.49,171.824 2677.5,176 C2604.1,206.67 2581.74,204.354 2508.93,235.815 " fill="none" id="java.awt-backto-usantatecla.tictactoe.views.graphics.CoordinateView" style="stroke: #A80036; stroke-width: 1.0; stroke-dasharray: 7.0,7.0;"/><polygon fill="none" points="2706.95,155.611,2728.13,155.008,2711.94,168.688,2706.95,155.611" style="stroke: #A80036; stroke-width: 1.0;"/><!--MD5=[ee74f8027065593db8b5d3181dc1d9ba]
reverse link java.awt to usantatecla.tictactoe.views.graphics.CoordinateView--><path codeLine="85" d="M2723.68,171.136 C2719.92,172.829 2716.16,174.469 2712.5,176 C2638.96,206.73 2616.65,204.344 2543.5,236 C2537.82,238.457 2532.05,241.051 2526.25,243.735 " fill="none" id="java.awt-backto-usantatecla.tictactoe.views.graphics.CoordinateView-1" style="stroke: #A80036; stroke-width: 1.0; stroke-dasharray: 7.0,7.0;"/><polygon fill="#A80036" points="2728.45,168.966,2718.6015,169.0546,2723.8994,171.0377,2721.9163,176.3356,2728.45,168.966" style="stroke: #A80036; stroke-width: 1.0;"/><!--MD5=[ee74f8027065593db8b5d3181dc1d9ba]
reverse link java.awt to usantatecla.tictactoe.views.graphics.CoordinateView--><path codeLine="87" d="M2737.68,179.779 C2670.06,206.566 2645.79,206.879 2578.5,236 C2561.58,243.32 2543.82,251.856 2526.24,260.357 " fill="none" id="java.awt-backto-usantatecla.tictactoe.views.graphics.CoordinateView-2" style="stroke: #A80036; stroke-width: 1.0; stroke-dasharray: 7.0,7.0;"/><polygon fill="none" points="2735.22,173.222,2756.39,172.145,2740.51,186.184,2735.22,173.222" style="stroke: #A80036; stroke-width: 1.0;"/><!--MD5=[49f05c73929f31500fd33b015ed478c3]
link usantatecla.tictactoe.views.graphics.GameView to Game--><path codeLine="102" d="M2270.2687,571.3084 C2270.2687,571.3084 2234.43,590.764 2216.5,597 C1997.19,673.2903 1926.6,619.182 1697.5,657 C1690.12,658.2185 1682.53,659.5698 1674.9,661.0046 " fill="none" id="usantatecla.tictactoe.views.graphics.GameView-Game" style="stroke: #A80036; stroke-width: 1.0;"/><polygon fill="#A80036" points="1662.04,663.4892,1671.6339,665.7158,1666.9499,662.544,1670.1216,657.86,1662.04,663.4892" style="stroke: #A80036; stroke-width: 1.0;"/><line style="stroke: #A80036; stroke-width: 1.0;" x1="1666.9499" x2="1674.8" y1="662.544" y2="661.0238"/><polygon fill="#A80036" points="2280.53,565.087,2273.3256,564.7772,2270.2687,571.3084,2277.4731,571.6181,2280.53,565.087" style="stroke: #A80036; stroke-width: 1.0;"/><!--MD5=[d9dc50346722c4e60ebf1972c0632d96]
link usantatecla.tictactoe.views.graphics.GameView to Coordinate--><path codeLine="103" d="M2282.54,565.052 C2262.43,577.783 2239.46,589.918 2216.5,597 C1927,686.3086 1155.4,621.741 854.5,657 C841.85,658.4823 828.679,660.4083 815.601,662.5661 " fill="none" id="usantatecla.tictactoe.views.graphics.GameView-to-Coordinate" style="stroke: #A80036; stroke-width: 1.0; stroke-dasharray: 7.0,7.0;"/><polygon fill="#A80036" points="810.399,663.4372,819.936,665.896,815.3303,662.6115,818.6148,658.0058,810.399,663.4372" style="stroke: #A80036; stroke-width: 1.0;"/><!--MD5=[98cf87417c05d1144534cc8a81add82f]
link usantatecla.tictactoe.views.graphics.GameView to Token--><path codeLine="104" d="M2265.45,565.023 C2244.77,577.588 2222.09,589.641 2199.5,597 C1863.01,706.6195 1755.82,606.819 1405.5,657 C1394.7,658.5471 1383.48,660.44 1372.4,662.5132 " fill="none" id="usantatecla.tictactoe.views.graphics.GameView-to-Token" style="stroke: #A80036; stroke-width: 1.0; stroke-dasharray: 7.0,7.0;"/><polygon fill="#A80036" points="1367.32,663.4779,1376.9064,665.7366,1372.233,662.5492,1375.4204,657.8758,1367.32,663.4779" style="stroke: #A80036; stroke-width: 1.0;"/><!--MD5=[98cf87417c05d1144534cc8a81add82f]
link usantatecla.tictactoe.views.graphics.GameView to Token--><path codeLine="106" d="M2298.96,565.023 C2279.77,577.588 2257.09,589.641 2234.5,597 C1898.01,706.6195 1790.82,606.819 1440.5,657 C1429.7,658.5471 1418.48,660.44 1407.22,662.5132 " fill="none" id="usantatecla.tictactoe.views.graphics.GameView-to-Token-1" style="stroke: #A80036; stroke-width: 1.0; stroke-dasharray: 7.0,7.0;"/><polygon fill="#A80036" points="1402.05,663.4779,1411.6297,665.7646,1406.9657,662.5635,1410.1667,657.8995,1402.05,663.4779" style="stroke: #A80036; stroke-width: 1.0;"/><!--MD5=[5318572cb9563cc2a8eee4583b3e722d]
link usantatecla.tictactoe.views.graphics.GameView to Message--><path codeLine="105" d="M2282.93,565.03 C2262.74,577.844 2239.63,590.03 2216.5,597 C2009.91,659.2519 489.79,631.776 275.5,657 C263.387,658.4258 250.777,660.3576 238.283,662.555 " fill="none" id="usantatecla.tictactoe.views.graphics.GameView-to-Message" style="stroke: #A80036; stroke-width: 1.0; stroke-dasharray: 7.0,7.0;"/><polygon fill="#A80036" points="233.315,663.4435,242.8785,665.797,238.2369,662.5635,241.4705,657.9219,233.315,663.4435" style="stroke: #A80036; stroke-width: 1.0;"/><!--MD5=[b19c88bfa7106d2c40b8e6b63fcb4346]
link javax.swing to usantatecla.tictactoe.views.graphics.GameView--><path codeLine="107" d="M2908.06,178.393 C2881.82,193.202 2852.97,212.721 2831.5,236 C2784.74,286.706 2815.33,332.152 2760.5,374 C2657.95,452.271 2596.24,385.99 2476.5,434 C2459.65,440.757 2425.2723,459.7844 2425.2723,459.7844 " fill="none" id="javax.swing-usantatecla.tictactoe.views.graphics.GameView" style="stroke: #A80036; stroke-width: 1.0;"/><polygon fill="#A80036" points="2414.99,465.971,2422.1934,466.3052,2425.2723,459.7844,2418.069,459.4503,2414.99,465.971" style="stroke: #A80036; stroke-width: 1.0;"/><polygon fill="#A80036" points="2919.51,172.132,2909.6947,172.9444,2915.124,174.5326,2913.5357,179.962,2919.51,172.132" style="stroke: #A80036; stroke-width: 1.0;"/><line style="stroke: #A80036; stroke-width: 1.0;" x1="2915.124" x2="2908.105" y1="174.5326" y2="178.371"/><!--MD5=[1f54912781a3d3b4f07d74439e75b9d5]
reverse link java.awt to usantatecla.tictactoe.views.graphics.GameView--><path codeLine="108" d="M2772.89,177.257 C2770.21,226.061 2757.71,321.118 2702.5,374 C2627.45,445.888 2571.94,392.864 2476.5,434 C2456.27,442.721 2435.49,454.25 2416.64,465.848 " fill="none" id="java.awt-backto-usantatecla.tictactoe.views.graphics.GameView" style="stroke: #A80036; stroke-width: 1.0; stroke-dasharray: 7.0,7.0;"/><polygon fill="#A80036" points="2773.15,172.11,2768.7081,180.9003,2772.9017,177.1038,2776.6982,181.2975,2773.15,172.11" style="stroke: #A80036; stroke-width: 1.0;"/><!--MD5=[6c8d3c87249668b954d84bc523a396e8]
link usantatecla.tictactoe.views.graphics.PlayView to Coordinate--><path codeLine="122" d="M1937.96,367.542 C1929.41,369.933 1920.89,372.111 1912.5,374 C1619.54,439.961 1529.43,355.782 1239.5,434 C1043.03,487.004 829.883,607.874 741.973,660.8359 " fill="none" id="usantatecla.tictactoe.views.graphics.PlayView-to-Coordinate" style="stroke: #A80036; stroke-width: 1.0; stroke-dasharray: 7.0,7.0;"/><polygon fill="#A80036" points="737.628,663.4595,747.4,662.2319,741.9083,660.8751,743.265,655.3834,737.628,663.4595" style="stroke: #A80036; stroke-width: 1.0;"/><!--MD5=[2a50657cc2d2c7beda207052c8f608ce]
link usantatecla.tictactoe.views.graphics.PlayView to Message--><path codeLine="123" d="M1939.31,367.528 C1930.31,369.972 1921.34,372.16 1912.5,374 C1451.42,470.025 1309.56,312.573 854.5,434 C698.37,475.662 681.664,542.607 529.5,597 C502.812,606.54 353.621,639.28 245.973,662.3909 " fill="none" id="usantatecla.tictactoe.views.graphics.PlayView-to-Message" style="stroke: #A80036; stroke-width: 1.0; stroke-dasharray: 7.0,7.0;"/><polygon fill="#A80036" points="240.879,663.484,250.5177,665.5076,245.7678,662.4354,248.84,657.6855,240.879,663.484" style="stroke: #A80036; stroke-width: 1.0;"/><!--MD5=[b3495437272db327a9b9b923f04dd7a8]
link usantatecla.tictactoe.views.graphics.PlayView to usantatecla.tictactoe.views.graphics.GameView--><path codeLine="124" d="M2179.7043,375.3984 C2179.7043,375.3984 2247.81,432.196 2277.8,457.208 " fill="none" id="usantatecla.tictactoe.views.graphics.PlayView-usantatecla.tictactoe.views.graphics.GameView" style="stroke: #A80036; stroke-width: 1.0;"/><polygon fill="#A80036" points="2288.17,465.852,2283.8211,457.0153,2284.3305,462.6492,2278.6966,463.1586,2288.17,465.852" style="stroke: #A80036; stroke-width: 1.0;"/><line style="stroke: #A80036; stroke-width: 1.0;" x1="2284.3305" x2="2278.185" y1="462.6492" y2="457.5255"/><polygon fill="#A80036" points="2170.49,367.711,2172.5347,374.6261,2179.7043,375.3984,2177.6596,368.4833,2170.49,367.711" style="stroke: #A80036; stroke-width: 1.0;"/><!--MD5=[f3d7744a6e95e1fac8426b2aebf895cf]
link usantatecla.tictactoe.views.graphics.PlayView to usantatecla.tictactoe.views.graphics.CoordinateMoveView--><path codeLine="125" d="M2011.7399,375.3066 C2011.7399,375.3066 1948.06,427.372 1919.05,451.094 " fill="none" id="usantatecla.tictactoe.views.graphics.PlayView-usantatecla.tictactoe.views.graphics.CoordinateMoveView" style="stroke: #A80036; stroke-width: 1.0;"/><polygon fill="#A80036" points="1908.97,459.334,1918.4695,456.734,1912.8409,456.1692,1913.4057,450.5406,1908.97,459.334" style="stroke: #A80036; stroke-width: 1.0;"/><line style="stroke: #A80036; stroke-width: 1.0;" x1="1912.8409" x2="1919.03" y1="456.1692" y2="451.1055"/><polygon fill="#A80036" points="2021.03,367.711,2013.8531,368.4121,2011.7399,375.3066,2018.9168,374.6055,2021.03,367.711" style="stroke: #A80036; stroke-width: 1.0;"/><!--MD5=[0a8b17c9ad724979d7f062b72e066227]
link usantatecla.tictactoe.views.graphics.PlayView to usantatecla.tictactoe.views.graphics.CoordinatePutView--><path codeLine="126" d="M2098.2674,379.7076 C2098.2674,379.7076 2099.14,416.04 2099.55,433.353 " fill="none" id="usantatecla.tictactoe.views.graphics.PlayView-usantatecla.tictactoe.views.graphics.CoordinatePutView" style="stroke: #A80036; stroke-width: 1.0;"/><polygon fill="#A80036" points="2099.87,446.384,2103.6521,437.2903,2099.7496,441.3855,2095.6544,437.483,2099.87,446.384" style="stroke: #A80036; stroke-width: 1.0;"/><line style="stroke: #A80036; stroke-width: 1.0;" x1="2099.7496" x2="2099.555" y1="441.3855" y2="433.3875"/><polygon fill="#A80036" points="2097.98,367.711,2094.1248,373.8051,2098.2674,379.7076,2102.1225,373.6135,2097.98,367.711" style="stroke: #A80036; stroke-width: 1.0;"/><!--MD5=[584a2e294dd01d43d10c5db7e7182e37]
link usantatecla.tictactoe.views.graphics.PlayView to ErrorView--><path codeLine="127" d="M1931.72,367.649 C1925.24,369.833 1918.82,371.958 1912.5,374 C1817.69,404.629 1791.41,403.676 1696.5,434 C1460.7,509.338 1185.79,613.998 1063.63,661.3956 " fill="none" id="usantatecla.tictactoe.views.graphics.PlayView-to-ErrorView" style="stroke: #A80036; stroke-width: 1.0; stroke-dasharray: 7.0,7.0;"/><polygon fill="#A80036" points="1058.64,663.3334,1068.478,663.7963,1063.2995,661.5197,1065.5761,656.3412,1058.64,663.3334" style="stroke: #A80036; stroke-width: 1.0;"/><!--MD5=[c1903ae080381c62c7525a9e97a7bab6]
reverse link javax.swing to usantatecla.tictactoe.views.graphics.PlayView--><path codeLine="128" d="M2898.19,164.237 C2877.87,168.501 2855.92,172.755 2835.5,176 C2590.03,215.006 2521.41,178.941 2279.5,236 C2271.34,237.926 2263.04,240.115 2254.71,242.498 " fill="none" id="javax.swing-backto-usantatecla.tictactoe.views.graphics.PlayView" style="stroke: #A80036; stroke-width: 1.0;"/><polygon fill="none" points="2896.82,157.371,2917.84,160.007,2899.76,171.057,2896.82,157.371" style="stroke: #A80036; stroke-width: 1.0;"/><!--MD5=[c14b38660ba676fcd822fa493a280da6]
link usantatecla.tictactoe.views.graphics.ResumeView to Message--><path codeLine="140" d="M1713.4,307.338 C1522.38,312.14 1067.39,334.078 701.5,434 C496.758,489.914 271.298,608.632 177.392,660.8936 " fill="none" id="usantatecla.tictactoe.views.graphics.ResumeView-to-Message" style="stroke: #A80036; stroke-width: 1.0; stroke-dasharray: 7.0,7.0;"/><polygon fill="#A80036" points="173.02,663.3316,182.8287,662.4433,177.3873,660.8971,178.9335,655.4556,173.02,663.3316" style="stroke: #A80036; stroke-width: 1.0;"/><!--MD5=[1a580dfaf81f9d2e169be64ae6fa8616]
link usantatecla.tictactoe.views.graphics.StartView to Message--><path codeLine="149" d="M2590.56,342.23 C2577.23,354.51 2560.88,366.903 2543.5,374 C2368.8,445.321 1883.88,411.798 1696.5,434 C1258.9,485.849 1154.22,531.198 718.5,597 C522.041,626.669 471.355,623.576 275.5,657 C265.622,658.6858 255.385,660.5543 245.135,662.5091 " fill="none" id="usantatecla.tictactoe.views.graphics.StartView-to-Message" style="stroke: #A80036; stroke-width: 1.0; stroke-dasharray: 7.0,7.0;"/><polygon fill="#A80036" points="240.104,663.4752,249.6968,665.7063,245.0143,662.5323,248.1882,657.8498,240.104,663.4752" style="stroke: #A80036; stroke-width: 1.0;"/><!--MD5=[d3fe2519a526687b7797eb4ee1d741b9]
link usantatecla.tictactoe.views.graphics.StartView to usantatecla.tictactoe.views.graphics.ChoosePlayersView--><path codeLine="150" d="M2618.62,342.318 C2615.42,366.141 2611.1,398.347 2607.05,428.461 " fill="none" id="usantatecla.tictactoe.views.graphics.StartView-to-usantatecla.tictactoe.views.graphics.ChoosePlayersView" style="stroke: #A80036; stroke-width: 1.0; stroke-dasharray: 7.0,7.0;"/><polygon fill="#A80036" points="2606.36,433.665,2611.5223,425.2775,2607.0255,428.7095,2603.5935,424.2127,2606.36,433.665" style="stroke: #A80036; stroke-width: 1.0;"/><!--MD5=[4dcb2f16afad519a420be42b3e5c40b5]
link usantatecla.tictactoe.views.graphics.StartView to usantatecla.tictactoe.views.graphics.GameView--><path codeLine="151" d="M2582.12,342.327 C2569.86,352.77 2556.3,364.028 2543.5,374 C2504.34,404.521 2459.34,436.809 2422.25,462.726 " fill="none" id="usantatecla.tictactoe.views.graphics.StartView-to-usantatecla.tictactoe.views.graphics.GameView" style="stroke: #A80036; stroke-width: 1.0; stroke-dasharray: 7.0,7.0;"/><polygon fill="#A80036" points="2417.77,465.855,2427.4412,463.9927,2421.8727,462.997,2422.8684,457.4285,2417.77,465.855" style="stroke: #A80036; stroke-width: 1.0;"/><!--MD5=[5d8c91b0764151c43c436120de91a4d7]
reverse link javax.swing to usantatecla.tictactoe.views.graphics.StartView--><path codeLine="152" d="M2899.64,180.445 C2835.67,209.064 2745.27,249.515 2685.56,276.233 " fill="none" id="javax.swing-backto-usantatecla.tictactoe.views.graphics.StartView" style="stroke: #A80036; stroke-width: 1.0;"/><polygon fill="none" points="2897.05,173.935,2918.16,172.156,2902.76,186.714,2897.05,173.935" style="stroke: #A80036; stroke-width: 1.0;"/><!--MD5=[4c25f575b30a4d51df330db30603f3f4]
reverse link View to usantatecla.tictactoe.views.graphics.GraphicsView--><path d="M2096.5,75.109 C2096.5,88.312 2096.5,102.537 2096.5,114.65 " fill="none" id="View-backto-usantatecla.tictactoe.views.graphics.GraphicsView" style="stroke: #A80036; stroke-width: 1.0;"/><polygon fill="none" points="2089.5,75.038,2096.5,55.038,2103.5,75.037,2089.5,75.038" style="stroke: #A80036; stroke-width: 1.0;"/><!--MD5=[4cce1546795b2cf7834aa5204556fcae]
link usantatecla.tictactoe.views.graphics.GraphicsView to usantatecla.tictactoe.views.graphics.PlayView--><path codeLine="162" d="M2096.5,188.125 C2096.5,188.125 2096.5,215.413 2096.5,229.151 " fill="none" id="usantatecla.tictactoe.views.graphics.GraphicsView-usantatecla.tictactoe.views.graphics.PlayView" style="stroke: #A80036; stroke-width: 1.0;"/><polygon fill="#A80036" points="2096.5,242.22,2100.5,233.22,2096.5,237.22,2092.5,233.22,2096.5,242.22" style="stroke: #A80036; stroke-width: 1.0;"/><line style="stroke: #A80036; stroke-width: 1.0;" x1="2096.5" x2="2096.5" y1="237.22" y2="229.22"/><polygon fill="#A80036" points="2096.5,176.125,2092.5,182.125,2096.5,188.125,2100.5,182.125,2096.5,176.125" style="stroke: #A80036; stroke-width: 1.0;"/><!--MD5=[58e0d6819433a4c01fc0e40054a04aad]
link usantatecla.tictactoe.views.graphics.GraphicsView to usantatecla.tictactoe.views.graphics.StartView--><path codeLine="163" d="M2165.713,149.6304 C2165.713,149.6304 2419.73,176.05 2543.5,236 C2555.93,242.022 2568.01,250.437 2578.86,259.301 " fill="none" id="usantatecla.tictactoe.views.graphics.GraphicsView-usantatecla.tictactoe.views.graphics.StartView" style="stroke: #A80036; stroke-width: 1.0;"/><polygon fill="#A80036" points="2588.86,267.874,2584.629,258.9803,2585.0634,264.6204,2579.4233,265.0548,2588.86,267.874" style="stroke: #A80036; stroke-width: 1.0;"/><line style="stroke: #A80036; stroke-width: 1.0;" x1="2585.0634" x2="2578.99" y1="264.6204" y2="259.411"/><polygon fill="#A80036" points="2153.74,148.826,2159.4584,153.2192,2165.713,149.6304,2159.9946,145.2372,2153.74,148.826" style="stroke: #A80036; stroke-width: 1.0;"/><!--MD5=[b5ecd77b22463f284837547400e7c740]
link usantatecla.tictactoe.views.graphics.GraphicsView to usantatecla.tictactoe.views.graphics.ResumeView--><path codeLine="164" d="M2039.26,172.639 C2002.78,189.747 1954.79,213.103 1913.5,236 C1900.53,243.191 1886.95,251.234 1873.94,259.2 " fill="none" id="usantatecla.tictactoe.views.graphics.GraphicsView-to-usantatecla.tictactoe.views.graphics.ResumeView" style="stroke: #A80036; stroke-width: 1.0; stroke-dasharray: 7.0,7.0;"/><polygon fill="#A80036" points="1869.56,261.898,1879.3227,260.5984,1873.8211,259.2821,1875.1374,253.7805,1869.56,261.898" style="stroke: #A80036; stroke-width: 1.0;"/><!--MD5=[b7307170e8940b52504cef074d331e94]
@startuml
package javax.swing{}
package java.awt{}

class usantatecla.tictactoe.views.graphics.ChoosePlayersView {

	- {static} String ACCEPT
	- String playersNumber

	~ ChoosePlayersView(JRootPane)
	~ resetPlayersNumber()
	~ String getPlayersNumber()
	+ actionPerformed(ActionEvent)
	+ keyTyped(KeyEvent)
	+ keyPressed(KeyEvent)
	+ keyReleased(KeyEvent)

}

class ErrorView as "usantatecla.tictactoe.views.ErrorView"
class Coordinate as "usantatecla.tictactoe.models.Coordinate"

usantatecla.tictactoe.views.graphics.ChoosePlayersView ..> usantatecla.tictactoe.views.graphics.Constraints
usantatecla.tictactoe.views.graphics.ChoosePlayersView ..> ErrorView
javax.swing <|- - usantatecla.tictactoe.views.graphics.ChoosePlayersView
javax.swing <- -* usantatecla.tictactoe.views.graphics.ChoosePlayersView
java.awt <.. usantatecla.tictactoe.views.graphics.ChoosePlayersView

class usantatecla.tictactoe.views.graphics.Constraints {

	~ Constraints(int, int, int, int)

}

java.awt <|- - usantatecla.tictactoe.views.graphics.Constraints

class usantatecla.tictactoe.views.graphics.CoordinateMoveView extends usantatecla.tictactoe.views.graphics.CoordinateView {

    ~ {static} String ENTER_COORDINATE_TO_REMOVE

    ~ CoordinateMoveView()
    ~ resetCoordinates()
    ~ Coordinate[] getCoordinates()
    + actionPerformed(ActionEvent)

}

class Error as "usantatecla.tictactoe.models.Error"
class ErrorView as "usantatecla.tictactoe.views.ErrorView"

usantatecla.tictactoe.views.graphics.CoordinateMoveView ..> Error
usantatecla.tictactoe.views.graphics.CoordinateMoveView ..> ErrorView
usantatecla.tictactoe.views.graphics.CoordinateMoveView *- -> "2" Coordinate

class usantatecla.tictactoe.views.graphics.CoordinatePutView extends usantatecla.tictactoe.views.graphics.CoordinateView {

	~ CoordinatePutView()
	~ resetCoordinate()
	~ Coordinate getCoordinate()
	+ actionPerformed(ActionEvent)
	+ keyTyped(KeyEvent )
	+ keyPressed(KeyEvent)
	+ keyReleased(KeyEvent)

}

class Coordinate as "usantatecla.tictactoe.models.Coordinate"

usantatecla.tictactoe.views.graphics.CoordinatePutView ..> ErrorView
usantatecla.tictactoe.views.graphics.CoordinatePutView *- -> Coordinate

class usantatecla.tictactoe.views.graphics.CoordinateView {

	# {static} String ENTER_COORDINATE_TO_PUT
	# {static} String ACCEPT

	~ CoordinateView()
	+ {abstract} actionPerformed(ActionEvent)
	+ keyTyped(KeyEvent)
	+ keyPressed(KeyEvent)
	+ keyReleased(KeyEvent)
}

javax.swing <|- - usantatecla.tictactoe.views.graphics.CoordinateView
java.awt <|.. usantatecla.tictactoe.views.graphics.CoordinateView
java.awt <.. usantatecla.tictactoe.views.graphics.CoordinateView
javax.swing <|- - usantatecla.tictactoe.views.graphics.CoordinateView
java.awt <|.. usantatecla.tictactoe.views.graphics.CoordinateView

class usantatecla.tictactoe.views.graphics.GameView {

    ~ GameView(Game)
    ~ write()
    - printRowBoard(int)
    - String getSquareBoardText(int, int)

}

class Game as "usantatecla.tictactoe.models.Game"
class Token as "usantatecla.tictactoe.models.Token"
class Message as "usantatecla.tictactoe.views.Message"

usantatecla.tictactoe.views.graphics.GameView *- -> Game
usantatecla.tictactoe.views.graphics.GameView ..> Coordinate
usantatecla.tictactoe.views.graphics.GameView ..> Token
usantatecla.tictactoe.views.graphics.GameView ..> Message
usantatecla.tictactoe.views.graphics.GameView ..> Token
javax.swing <- -* usantatecla.tictactoe.views.graphics.GameView
java.awt <.. usantatecla.tictactoe.views.graphics.GameView

class usantatecla.tictactoe.views.graphics.PlayView {

	~ {static final} String ENTER_COORDINATE_TO_PUT
	~ {static final} String ENTER_COORDINATE_TO_REMOVE

	~ PlayView(Game)
	~ interact()
	- put()
	- move()

}

usantatecla.tictactoe.views.graphics.PlayView ..> Coordinate
usantatecla.tictactoe.views.graphics.PlayView ..> Message
usantatecla.tictactoe.views.graphics.PlayView *- -> usantatecla.tictactoe.views.graphics.GameView
usantatecla.tictactoe.views.graphics.PlayView *- -> usantatecla.tictactoe.views.graphics.CoordinateMoveView
usantatecla.tictactoe.views.graphics.PlayView *- -> usantatecla.tictactoe.views.graphics.CoordinatePutView
usantatecla.tictactoe.views.graphics.PlayView ..> ErrorView
javax.swing <|- - usantatecla.tictactoe.views.graphics.PlayView


class usantatecla.tictactoe.views.graphics.ResumeView {

	- boolean newGame;

	~ ResumeView()
	~ boolean isResumedGame()

}

usantatecla.tictactoe.views.graphics.ResumeView ..> Message

class usantatecla.tictactoe.views.graphics.StartView {

    ~ StartView(Game)
    ~ interact()

}

usantatecla.tictactoe.views.graphics.StartView ..> Message
usantatecla.tictactoe.views.graphics.StartView ..> usantatecla.tictactoe.views.graphics.ChoosePlayersView
usantatecla.tictactoe.views.graphics.StartView ..> usantatecla.tictactoe.views.graphics.GameView
javax.swing <|- - usantatecla.tictactoe.views.graphics.StartView

class View as "usantatecla.tictactoe.views.View"

class usantatecla.tictactoe.views.graphics.GraphicsView extends View {

	+ View(Game)

}

usantatecla.tictactoe.views.graphics.GraphicsView *- -> usantatecla.tictactoe.views.graphics.PlayView
usantatecla.tictactoe.views.graphics.GraphicsView *- -> usantatecla.tictactoe.views.graphics.StartView
usantatecla.tictactoe.views.graphics.GraphicsView ..> usantatecla.tictactoe.views.graphics.ResumeView
@enduml

PlantUML version 1.2020.20beta8(Unknown compile time)
(GPL source distribution)
Java Runtime: Java(TM) SE Runtime Environment
JVM: Java HotSpot(TM) 64-Bit Server VM
Default Encoding: UTF-8
Language: en
Country: US
--></g></svg>