<?xml version="1.0" encoding="UTF-8" standalone="no"?><svg xmlns="http://www.w3.org/2000/svg" xmlns:xlink="http://www.w3.org/1999/xlink" contentScriptType="application/ecmascript" contentStyleType="text/css" height="249px" preserveAspectRatio="none" style="width:511px;height:249px;" version="1.1" viewBox="0 0 511 249" width="511px" zoomAndPan="magnify"><defs><filter height="300%" id="f1goixtae16fm1" width="300%" x="-1" y="-1"><feGaussianBlur result="blurOut" stdDeviation="2.0"/><feColorMatrix in="blurOut" result="blurOut2" type="matrix" values="0 0 0 0 0 0 0 0 0 0 0 0 0 0 0 0 0 0 .4 0"/><feOffset dx="4.0" dy="4.0" in="blurOut2" result="blurOut3"/><feBlend in="SourceGraphic" in2="blurOut3" mode="normal"/></filter></defs><g><!--MD5=[807bc46d8103c809ff053af9e140e1f5]
cluster tictactoe--><polygon fill="#FFFFFF" filter="url(#f1goixtae16fm1)" points="74,6,156,6,163,28.2969,429,28.2969,429,143,74,143,74,6" style="stroke: #000000; stroke-width: 1.5;"/><line style="stroke: #000000; stroke-width: 1.5;" x1="74" x2="163" y1="28.2969" y2="28.2969"/><text fill="#000000" font-family="sans-serif" font-size="14" font-weight="bold" lengthAdjust="spacingAndGlyphs" textLength="76" x="78" y="20.9951">tictactoe</text><!--MD5=[d26da01265d646b7f841c2729736529c]
class tictactoe.ConsoleTicTacToe--><rect codeLine="1" fill="#FEFECE" filter="url(#f1goixtae16fm1)" height="86.4141" id="tictactoe.ConsoleTicTacToe" style="stroke: #A80036; stroke-width: 1.5;" width="142" x="90" y="41"/><ellipse cx="105" cy="57" fill="#ADD1B2" rx="11" ry="11" style="stroke: #A80036; stroke-width: 1.0;"/><path d="M107.3438,52.6719 C106.4063,52.2344 105.8125,52.0938 104.9375,52.0938 C102.3125,52.0938 100.3125,54.1719 100.3125,56.8906 L100.3125,58.0156 C100.3125,60.5938 102.4219,62.4844 105.3125,62.4844 C106.5313,62.4844 107.6875,62.1875 108.4375,61.6406 C109.0156,61.2344 109.3438,60.7813 109.3438,60.3906 C109.3438,59.9375 108.9531,59.5469 108.4844,59.5469 C108.2656,59.5469 108.0625,59.625 107.875,59.8125 C107.4219,60.2969 107.4219,60.2969 107.2344,60.3906 C106.8125,60.6563 106.125,60.7813 105.3594,60.7813 C103.3125,60.7813 102.0156,59.6875 102.0156,57.9844 L102.0156,56.8906 C102.0156,55.1094 103.2656,53.7969 105,53.7969 C105.5781,53.7969 106.1875,53.9531 106.6563,54.2031 C107.1406,54.4844 107.3125,54.7031 107.4063,55.1094 C107.4688,55.5156 107.5,55.6406 107.6406,55.7656 C107.7813,55.9063 108.0156,56.0156 108.2344,56.0156 C108.5,56.0156 108.7656,55.875 108.9375,55.6563 C109.0469,55.5 109.0781,55.3125 109.0781,54.8906 L109.0781,53.4688 C109.0781,53.0313 109.0625,52.9063 108.9688,52.75 C108.8125,52.4844 108.5313,52.3438 108.2344,52.3438 C107.9375,52.3438 107.7344,52.4375 107.5156,52.75 L107.3438,52.6719 Z "/><text fill="#000000" font-family="sans-serif" font-size="12" lengthAdjust="spacingAndGlyphs" textLength="110" x="119" y="61.1543">ConsoleTicTacToe</text><line style="stroke: #A80036; stroke-width: 1.5;" x1="91" x2="231" y1="73" y2="73"/><line style="stroke: #A80036; stroke-width: 1.5;" x1="91" x2="231" y1="81" y2="81"/><text fill="#000000" font-family="sans-serif" font-size="11" lengthAdjust="spacingAndGlyphs" textLength="112" x="110" y="95.2104">ConsoleTicTacToe()</text><rect fill="#F24D5C" height="6" style="stroke: #C82930; stroke-width: 1.0;" width="6" x="98" y="101.8047"/><text fill="#000000" font-family="sans-serif" font-size="11" lengthAdjust="spacingAndGlyphs" textLength="32" x="110" y="108.0151">play()</text><ellipse cx="101" cy="117.6094" fill="#84BE84" rx="3" ry="3" style="stroke: #038048; stroke-width: 1.0;"/><text fill="#000000" font-family="sans-serif" font-size="11" lengthAdjust="spacingAndGlyphs" text-decoration="underline" textLength="105" x="110" y="120.8198">main(String[] args)</text><!--MD5=[288019f38859c158505575d95d6bbed7]
class tictactoe.GraphicsTicTacToe--><rect codeLine="9" fill="#FEFECE" filter="url(#f1goixtae16fm1)" height="86.4141" id="tictactoe.GraphicsTicTacToe" style="stroke: #A80036; stroke-width: 1.5;" width="146" x="267" y="41"/><ellipse cx="282" cy="57" fill="#ADD1B2" rx="11" ry="11" style="stroke: #A80036; stroke-width: 1.0;"/><path d="M284.3438,52.6719 C283.4063,52.2344 282.8125,52.0938 281.9375,52.0938 C279.3125,52.0938 277.3125,54.1719 277.3125,56.8906 L277.3125,58.0156 C277.3125,60.5938 279.4219,62.4844 282.3125,62.4844 C283.5313,62.4844 284.6875,62.1875 285.4375,61.6406 C286.0156,61.2344 286.3438,60.7813 286.3438,60.3906 C286.3438,59.9375 285.9531,59.5469 285.4844,59.5469 C285.2656,59.5469 285.0625,59.625 284.875,59.8125 C284.4219,60.2969 284.4219,60.2969 284.2344,60.3906 C283.8125,60.6563 283.125,60.7813 282.3594,60.7813 C280.3125,60.7813 279.0156,59.6875 279.0156,57.9844 L279.0156,56.8906 C279.0156,55.1094 280.2656,53.7969 282,53.7969 C282.5781,53.7969 283.1875,53.9531 283.6563,54.2031 C284.1406,54.4844 284.3125,54.7031 284.4063,55.1094 C284.4688,55.5156 284.5,55.6406 284.6406,55.7656 C284.7813,55.9063 285.0156,56.0156 285.2344,56.0156 C285.5,56.0156 285.7656,55.875 285.9375,55.6563 C286.0469,55.5 286.0781,55.3125 286.0781,54.8906 L286.0781,53.4688 C286.0781,53.0313 286.0625,52.9063 285.9688,52.75 C285.8125,52.4844 285.5313,52.3438 285.2344,52.3438 C284.9375,52.3438 284.7344,52.4375 284.5156,52.75 L284.3438,52.6719 Z "/><text fill="#000000" font-family="sans-serif" font-size="12" lengthAdjust="spacingAndGlyphs" textLength="114" x="296" y="61.1543">GraphicsTicTacToe</text><line style="stroke: #A80036; stroke-width: 1.5;" x1="268" x2="412" y1="73" y2="73"/><line style="stroke: #A80036; stroke-width: 1.5;" x1="268" x2="412" y1="81" y2="81"/><rect fill="#F24D5C" height="6" style="stroke: #C82930; stroke-width: 1.0;" width="6" x="275" y="89"/><text fill="#000000" font-family="sans-serif" font-size="11" lengthAdjust="spacingAndGlyphs" textLength="115" x="287" y="95.2104">GraphicsTicTacToe()</text><rect fill="#F24D5C" height="6" style="stroke: #C82930; stroke-width: 1.0;" width="6" x="275" y="101.8047"/><text fill="#000000" font-family="sans-serif" font-size="11" lengthAdjust="spacingAndGlyphs" textLength="32" x="287" y="108.0151">play()</text><ellipse cx="278" cy="117.6094" fill="#84BE84" rx="3" ry="3" style="stroke: #038048; stroke-width: 1.0;"/><text fill="#000000" font-family="sans-serif" font-size="11" lengthAdjust="spacingAndGlyphs" text-decoration="underline" textLength="105" x="287" y="120.8198">main(String[] args)</text><!--MD5=[b6dcce5e5ef3c84b0b048d11301373dd]
class Game--><rect codeLine="17" fill="#FEFECE" filter="url(#f1goixtae16fm1)" height="48" id="Game" style="stroke: #A80036; stroke-width: 1.5;" width="115" x="192.5" y="187"/><ellipse cx="207.5" cy="203" fill="#ADD1B2" rx="11" ry="11" style="stroke: #A80036; stroke-width: 1.0;"/><path d="M209.8438,198.6719 C208.9063,198.2344 208.3125,198.0938 207.4375,198.0938 C204.8125,198.0938 202.8125,200.1719 202.8125,202.8906 L202.8125,204.0156 C202.8125,206.5938 204.9219,208.4844 207.8125,208.4844 C209.0313,208.4844 210.1875,208.1875 210.9375,207.6406 C211.5156,207.2344 211.8438,206.7813 211.8438,206.3906 C211.8438,205.9375 211.4531,205.5469 210.9844,205.5469 C210.7656,205.5469 210.5625,205.625 210.375,205.8125 C209.9219,206.2969 209.9219,206.2969 209.7344,206.3906 C209.3125,206.6563 208.625,206.7813 207.8594,206.7813 C205.8125,206.7813 204.5156,205.6875 204.5156,203.9844 L204.5156,202.8906 C204.5156,201.1094 205.7656,199.7969 207.5,199.7969 C208.0781,199.7969 208.6875,199.9531 209.1563,200.2031 C209.6406,200.4844 209.8125,200.7031 209.9063,201.1094 C209.9688,201.5156 210,201.6406 210.1406,201.7656 C210.2813,201.9063 210.5156,202.0156 210.7344,202.0156 C211,202.0156 211.2656,201.875 211.4375,201.6563 C211.5469,201.5 211.5781,201.3125 211.5781,200.8906 L211.5781,199.4688 C211.5781,199.0313 211.5625,198.9063 211.4688,198.75 C211.3125,198.4844 211.0313,198.3438 210.7344,198.3438 C210.4375,198.3438 210.2344,198.4375 210.0156,198.75 L209.8438,198.6719 Z "/><text fill="#000000" font-family="sans-serif" font-size="12" lengthAdjust="spacingAndGlyphs" textLength="83" x="221.5" y="207.1543">models.Game</text><line style="stroke: #A80036; stroke-width: 1.5;" x1="193.5" x2="306.5" y1="219" y2="219"/><line style="stroke: #A80036; stroke-width: 1.5;" x1="193.5" x2="306.5" y1="227" y2="227"/><!--MD5=[748e3791006be7c767b2778e01d447c5]
class consoleView--><rect codeLine="18" fill="#FEFECE" filter="url(#f1goixtae16fm1)" height="48" id="consoleView" style="stroke: #A80036; stroke-width: 1.5;" width="150" x="7" y="187"/><ellipse cx="22" cy="203" fill="#ADD1B2" rx="11" ry="11" style="stroke: #A80036; stroke-width: 1.0;"/><path d="M24.3438,198.6719 C23.4063,198.2344 22.8125,198.0938 21.9375,198.0938 C19.3125,198.0938 17.3125,200.1719 17.3125,202.8906 L17.3125,204.0156 C17.3125,206.5938 19.4219,208.4844 22.3125,208.4844 C23.5313,208.4844 24.6875,208.1875 25.4375,207.6406 C26.0156,207.2344 26.3438,206.7813 26.3438,206.3906 C26.3438,205.9375 25.9531,205.5469 25.4844,205.5469 C25.2656,205.5469 25.0625,205.625 24.875,205.8125 C24.4219,206.2969 24.4219,206.2969 24.2344,206.3906 C23.8125,206.6563 23.125,206.7813 22.3594,206.7813 C20.3125,206.7813 19.0156,205.6875 19.0156,203.9844 L19.0156,202.8906 C19.0156,201.1094 20.2656,199.7969 22,199.7969 C22.5781,199.7969 23.1875,199.9531 23.6563,200.2031 C24.1406,200.4844 24.3125,200.7031 24.4063,201.1094 C24.4688,201.5156 24.5,201.6406 24.6406,201.7656 C24.7813,201.9063 25.0156,202.0156 25.2344,202.0156 C25.5,202.0156 25.7656,201.875 25.9375,201.6563 C26.0469,201.5 26.0781,201.3125 26.0781,200.8906 L26.0781,199.4688 C26.0781,199.0313 26.0625,198.9063 25.9688,198.75 C25.8125,198.4844 25.5313,198.3438 25.2344,198.3438 C24.9375,198.3438 24.7344,198.4375 24.5156,198.75 L24.3438,198.6719 Z "/><text fill="#000000" font-family="sans-serif" font-size="12" lengthAdjust="spacingAndGlyphs" textLength="118" x="36" y="207.1543">views.console.View</text><line style="stroke: #A80036; stroke-width: 1.5;" x1="8" x2="156" y1="219" y2="219"/><line style="stroke: #A80036; stroke-width: 1.5;" x1="8" x2="156" y1="227" y2="227"/><!--MD5=[059db5ba063e7a61d0f274c02868b83b]
class graphicsView--><rect codeLine="19" fill="#FEFECE" filter="url(#f1goixtae16fm1)" height="48" id="graphicsView" style="stroke: #A80036; stroke-width: 1.5;" width="154" x="343" y="187"/><ellipse cx="358" cy="203" fill="#ADD1B2" rx="11" ry="11" style="stroke: #A80036; stroke-width: 1.0;"/><path d="M360.3438,198.6719 C359.4063,198.2344 358.8125,198.0938 357.9375,198.0938 C355.3125,198.0938 353.3125,200.1719 353.3125,202.8906 L353.3125,204.0156 C353.3125,206.5938 355.4219,208.4844 358.3125,208.4844 C359.5313,208.4844 360.6875,208.1875 361.4375,207.6406 C362.0156,207.2344 362.3438,206.7813 362.3438,206.3906 C362.3438,205.9375 361.9531,205.5469 361.4844,205.5469 C361.2656,205.5469 361.0625,205.625 360.875,205.8125 C360.4219,206.2969 360.4219,206.2969 360.2344,206.3906 C359.8125,206.6563 359.125,206.7813 358.3594,206.7813 C356.3125,206.7813 355.0156,205.6875 355.0156,203.9844 L355.0156,202.8906 C355.0156,201.1094 356.2656,199.7969 358,199.7969 C358.5781,199.7969 359.1875,199.9531 359.6563,200.2031 C360.1406,200.4844 360.3125,200.7031 360.4063,201.1094 C360.4688,201.5156 360.5,201.6406 360.6406,201.7656 C360.7813,201.9063 361.0156,202.0156 361.2344,202.0156 C361.5,202.0156 361.7656,201.875 361.9375,201.6563 C362.0469,201.5 362.0781,201.3125 362.0781,200.8906 L362.0781,199.4688 C362.0781,199.0313 362.0625,198.9063 361.9688,198.75 C361.8125,198.4844 361.5313,198.3438 361.2344,198.3438 C360.9375,198.3438 360.7344,198.4375 360.5156,198.75 L360.3438,198.6719 Z "/><text fill="#000000" font-family="sans-serif" font-size="12" lengthAdjust="spacingAndGlyphs" textLength="122" x="372" y="207.1543">views.graphics.View</text><line style="stroke: #A80036; stroke-width: 1.5;" x1="344" x2="496" y1="219" y2="219"/><line style="stroke: #A80036; stroke-width: 1.5;" x1="344" x2="496" y1="227" y2="227"/><!--MD5=[839a46605f6e5fe606ca07966b9bc08f]
link tictactoe.ConsoleTicTacToe to Game--><path codeLine="21" d="M198.091,137.0944 C198.091,137.0944 217.353,164.1477 225.594,175.722 " fill="none" id="tictactoe.ConsoleTicTacToe-Game" style="stroke: #A80036; stroke-width: 1.0;"/><polygon fill="#A80036" points="233.39,186.6717,231.4285,177.0202,230.49,182.5986,224.9115,181.6602,233.39,186.6717" style="stroke: #A80036; stroke-width: 1.0;"/><line style="stroke: #A80036; stroke-width: 1.0;" x1="230.49" x2="225.8505" y1="182.5986" y2="176.0817"/><polygon fill="#A80036" points="191.131,127.319,191.3525,134.5267,198.091,137.0944,197.8695,129.8867,191.131,127.319" style="stroke: #A80036; stroke-width: 1.0;"/><!--MD5=[b52c670bcc8f5b6d1aed2acc6546727d]
link tictactoe.GraphicsTicTacToe to Game--><path codeLine="22" d="M302.5183,137.0574 C302.5183,137.0574 282.815,164.423 274.42,176.0832 " fill="none" id="tictactoe.GraphicsTicTacToe-Game" style="stroke: #A80036; stroke-width: 1.0;"/><polygon fill="#A80036" points="266.796,186.6717,275.3009,181.7051,269.7175,182.614,268.8086,177.0307,266.796,186.6717" style="stroke: #A80036; stroke-width: 1.0;"/><line style="stroke: #A80036; stroke-width: 1.0;" x1="269.7175" x2="274.3925" y1="182.614" y2="176.1217"/><polygon fill="#A80036" points="309.53,127.319,302.778,129.851,302.5183,137.0574,309.2703,134.5254,309.53,127.319" style="stroke: #A80036; stroke-width: 1.0;"/><!--MD5=[a0bc94c26abd29519d56fa815f6a4f35]
link tictactoe.ConsoleTicTacToe to consoleView--><path codeLine="23" d="M127.8427,137.4627 C127.8427,137.4627 111.005,164.1063 103.8206,175.4738 " fill="none" id="tictactoe.ConsoleTicTacToe-consoleView" style="stroke: #A80036; stroke-width: 1.0;"/><polygon fill="#A80036" points="96.7435,186.6717,104.9331,181.2008,99.4148,182.4451,98.1705,176.9268,96.7435,186.6717" style="stroke: #A80036; stroke-width: 1.0;"/><line style="stroke: #A80036; stroke-width: 1.0;" x1="99.4148" x2="103.6888" y1="182.4451" y2="175.6825"/><polygon fill="#A80036" points="134.254,127.319,127.6671,130.2538,127.8427,137.4627,134.4296,134.528,134.254,127.319" style="stroke: #A80036; stroke-width: 1.0;"/><!--MD5=[3676bdd4eabdcb84a8090cbefbeb9c5d]
link tictactoe.GraphicsTicTacToe to graphicsView--><path codeLine="24" d="M373.5531,137.4259 C373.5531,137.4259 390.628,164.1063 397.903,175.4738 " fill="none" id="tictactoe.GraphicsTicTacToe-graphicsView" style="stroke: #A80036; stroke-width: 1.0;"/><polygon fill="#A80036" points="405.07,186.6717,403.5871,176.9351,402.3745,182.4605,396.8492,181.2479,405.07,186.6717" style="stroke: #A80036; stroke-width: 1.0;"/><line style="stroke: #A80036; stroke-width: 1.0;" x1="402.3745" x2="398.062" y1="182.4605" y2="175.7222"/><polygon fill="#A80036" points="367.084,127.319,366.9496,134.5288,373.5531,137.4259,373.6876,130.2161,367.084,127.319" style="stroke: #A80036; stroke-width: 1.0;"/><!--MD5=[655b0b2d55d14dea7a9d0c1bc9cce464]
@startuml
class tictactoe.ConsoleTicTacToe {

	ConsoleTicTacToe()
	- play()
	+ {static} main(String[] args)

}

class tictactoe.GraphicsTicTacToe {

	- GraphicsTicTacToe()
	- play()
	+ {static} main(String[] args)

}

class Game as "models.Game"
class consoleView as "views.console.View"
class graphicsView as "views.graphics.View"

tictactoe.ConsoleTicTacToe *-down-> Game
tictactoe.GraphicsTicTacToe *-down-> Game
tictactoe.ConsoleTicTacToe *-down-> consoleView
tictactoe.GraphicsTicTacToe *-down-> graphicsView
@enduml

PlantUML version 1.2020.20beta4(Unknown compile time)
(GPL source distribution)
Java Runtime: Java(TM) SE Runtime Environment
JVM: Java HotSpot(TM) 64-Bit Server VM
Default Encoding: UTF-8
Language: en
Country: US
--></g></svg>