<?xml version="1.0" encoding="UTF-8" standalone="no"?><svg xmlns="http://www.w3.org/2000/svg" xmlns:xlink="http://www.w3.org/1999/xlink" contentScriptType="application/ecmascript" contentStyleType="text/css" height="454px" preserveAspectRatio="none" style="width:747px;height:454px;" version="1.1" viewBox="0 0 747 454" width="747px" zoomAndPan="magnify"><defs><filter height="300%" id="f973gm5vjxggb" width="300%" x="-1" y="-1"><feGaussianBlur result="blurOut" stdDeviation="2.0"/><feColorMatrix in="blurOut" result="blurOut2" type="matrix" values="0 0 0 0 0 0 0 0 0 0 0 0 0 0 0 0 0 0 .4 0"/><feOffset dx="4.0" dy="4.0" in="blurOut2" result="blurOut3"/><feBlend in="SourceGraphic" in2="blurOut3" mode="normal"/></filter></defs><g><!--MD5=[a28bb7016f04a6176ed7bd94eda416fd]
cluster usantatecla.tictactoe.views--><polygon fill="#FFFFFF" filter="url(#f973gm5vjxggb)" points="72,6,307,6,314,28.2969,678,28.2969,678,348,72,348,72,6" style="stroke: #000000; stroke-width: 1.5;"/><line style="stroke: #000000; stroke-width: 1.5;" x1="72" x2="314" y1="28.2969" y2="28.2969"/><text fill="#000000" font-family="sans-serif" font-size="14" font-weight="bold" lengthAdjust="spacingAndGlyphs" textLength="229" x="76" y="20.9951">usantatecla.tictactoe.views</text><!--MD5=[9f3672d02251c6628f0caf7fed9e62dd]
class usantatecla.tictactoe.views.ErrorView--><rect codeLine="1" fill="#FEFECE" filter="url(#f973gm5vjxggb)" height="73.6094" id="usantatecla.tictactoe.views.ErrorView" style="stroke: #A80036; stroke-width: 1.5;" width="135" x="88.5" y="149.5"/><ellipse cx="123.3" cy="165.5" fill="#ADD1B2" rx="11" ry="11" style="stroke: #A80036; stroke-width: 1.0;"/><path d="M125.6438,161.1719 C124.7063,160.7344 124.1125,160.5938 123.2375,160.5938 C120.6125,160.5938 118.6125,162.6719 118.6125,165.3906 L118.6125,166.5156 C118.6125,169.0938 120.7219,170.9844 123.6125,170.9844 C124.8313,170.9844 125.9875,170.6875 126.7375,170.1406 C127.3156,169.7344 127.6438,169.2813 127.6438,168.8906 C127.6438,168.4375 127.2531,168.0469 126.7844,168.0469 C126.5656,168.0469 126.3625,168.125 126.175,168.3125 C125.7219,168.7969 125.7219,168.7969 125.5344,168.8906 C125.1125,169.1563 124.425,169.2813 123.6594,169.2813 C121.6125,169.2813 120.3156,168.1875 120.3156,166.4844 L120.3156,165.3906 C120.3156,163.6094 121.5656,162.2969 123.3,162.2969 C123.8781,162.2969 124.4875,162.4531 124.9563,162.7031 C125.4406,162.9844 125.6125,163.2031 125.7063,163.6094 C125.7688,164.0156 125.8,164.1406 125.9406,164.2656 C126.0813,164.4063 126.3156,164.5156 126.5344,164.5156 C126.8,164.5156 127.0656,164.375 127.2375,164.1563 C127.3469,164 127.3781,163.8125 127.3781,163.3906 L127.3781,161.9688 C127.3781,161.5313 127.3625,161.4063 127.2688,161.25 C127.1125,160.9844 126.8313,160.8438 126.5344,160.8438 C126.2375,160.8438 126.0344,160.9375 125.8156,161.25 L125.6438,161.1719 Z "/><text fill="#000000" font-family="sans-serif" font-size="12" lengthAdjust="spacingAndGlyphs" textLength="59" x="141.7" y="169.6543">ErrorView</text><line style="stroke: #A80036; stroke-width: 1.5;" x1="89.5" x2="222.5" y1="181.5" y2="181.5"/><ellipse cx="99.5" cy="192.5" fill="none" rx="3" ry="3" style="stroke: #038048; stroke-width: 1.0;"/><text fill="#000000" font-family="sans-serif" font-size="11" lengthAdjust="spacingAndGlyphs" text-decoration="underline" textLength="109" x="108.5" y="195.7104">String[] MESSAGES</text><line style="stroke: #A80036; stroke-width: 1.5;" x1="89.5" x2="222.5" y1="202.3047" y2="202.3047"/><ellipse cx="99.5" cy="213.3047" fill="#84BE84" rx="3" ry="3" style="stroke: #038048; stroke-width: 1.0;"/><text fill="#000000" font-family="sans-serif" font-size="11" lengthAdjust="spacingAndGlyphs" textLength="88" x="108.5" y="216.5151">ErrorView(Error)</text><!--MD5=[a66996a88a04a7646fe7625221d515cb]
class usantatecla.tictactoe.views.Message--><rect codeLine="9" fill="#FEFECE" filter="url(#f973gm5vjxggb)" height="291.2891" id="usantatecla.tictactoe.views.Message" style="stroke: #A80036; stroke-width: 1.5;" width="218" x="259" y="41"/><ellipse cx="336.25" cy="57" fill="#EB937F" rx="11" ry="11" style="stroke: #A80036; stroke-width: 1.0;"/><path d="M335.0469,57.875 L336.5,57.875 L336.5,57.9844 C336.5,58.3906 336.5313,58.5469 336.6094,58.7031 C336.7656,58.9531 337.0469,59.1094 337.3438,59.1094 C337.5938,59.1094 337.8594,58.9688 338.0156,58.75 C338.1406,58.5938 338.1719,58.4375 338.1719,57.9844 L338.1719,56.0625 C338.1719,55.9063 338.1719,55.8594 338.1563,55.7031 C338.0938,55.2344 337.7813,54.9219 337.3281,54.9219 C337.0781,54.9219 336.8125,55.0625 336.6406,55.2813 C336.5313,55.4531 336.5,55.6094 336.5,56.0625 L336.5,56.1875 L335.0469,56.1875 L335.0469,53.7813 L339.0313,53.7813 L339.0313,54.6406 C339.0313,55.0469 339.0625,55.2188 339.1406,55.375 C339.3125,55.625 339.5938,55.7813 339.875,55.7813 C340.1406,55.7813 340.4063,55.6406 340.5781,55.4219 C340.6875,55.25 340.7188,55.1094 340.7188,54.6406 L340.7188,52.0938 L333.0938,52.0938 C332.6563,52.0938 332.5313,52.1094 332.375,52.2031 C332.125,52.3594 331.9688,52.6563 331.9688,52.9375 C331.9688,53.2188 332.1094,53.4688 332.3281,53.6406 C332.4844,53.75 332.6719,53.7813 333.0938,53.7813 L333.3438,53.7813 L333.3438,60.2969 L333.0938,60.2969 C332.6875,60.2969 332.5313,60.3125 332.375,60.4219 C332.125,60.5938 331.9688,60.8594 331.9688,61.1563 C331.9688,61.4219 332.1094,61.6719 332.3281,61.8281 C332.4688,61.9531 332.7031,62 333.0938,62 L341.0938,62 L341.0938,59.4219 C341.0938,58.9844 341.0625,58.8438 340.9844,58.6875 C340.8125,58.4375 340.5313,58.2813 340.25,58.2813 C339.9844,58.2813 339.7188,58.3906 339.5469,58.6406 C339.4375,58.7969 339.4063,58.9375 339.4063,59.4219 L339.4063,60.2969 L335.0469,60.2969 L335.0469,57.875 Z "/><text fill="#000000" font-family="sans-serif" font-size="12" lengthAdjust="spacingAndGlyphs" textLength="55" x="356.75" y="61.1543">Message</text><line style="stroke: #A80036; stroke-width: 1.5;" x1="260" x2="476" y1="73" y2="73"/><ellipse cx="270" cy="84" fill="none" rx="3" ry="3" style="stroke: #038048; stroke-width: 1.0;"/><text fill="#000000" font-family="sans-serif" font-size="11" lengthAdjust="spacingAndGlyphs" textLength="37" x="279" y="87.2104">TITTLE</text><ellipse cx="270" cy="96.8047" fill="none" rx="3" ry="3" style="stroke: #038048; stroke-width: 1.0;"/><text fill="#000000" font-family="sans-serif" font-size="11" lengthAdjust="spacingAndGlyphs" textLength="102" x="279" y="100.0151">NUMBER_PLAYERS</text><ellipse cx="270" cy="109.6094" fill="none" rx="3" ry="3" style="stroke: #038048; stroke-width: 1.0;"/><text fill="#000000" font-family="sans-serif" font-size="11" lengthAdjust="spacingAndGlyphs" textLength="67" x="279" y="112.8198">SEPARATOR</text><ellipse cx="270" cy="122.4141" fill="none" rx="3" ry="3" style="stroke: #038048; stroke-width: 1.0;"/><text fill="#000000" font-family="sans-serif" font-size="11" lengthAdjust="spacingAndGlyphs" textLength="116" x="279" y="125.6245">VERTICAL_LINE_LEFT</text><ellipse cx="270" cy="135.2188" fill="none" rx="3" ry="3" style="stroke: #038048; stroke-width: 1.0;"/><text fill="#000000" font-family="sans-serif" font-size="11" lengthAdjust="spacingAndGlyphs" textLength="150" x="279" y="138.4292">VERTICAL_LINE_CENTERED</text><ellipse cx="270" cy="148.0234" fill="none" rx="3" ry="3" style="stroke: #038048; stroke-width: 1.0;"/><text fill="#000000" font-family="sans-serif" font-size="11" lengthAdjust="spacingAndGlyphs" textLength="124" x="279" y="151.2339">VERTICAL_LINE_RIGHT</text><ellipse cx="270" cy="160.8281" fill="none" rx="3" ry="3" style="stroke: #038048; stroke-width: 1.0;"/><text fill="#000000" font-family="sans-serif" font-size="11" lengthAdjust="spacingAndGlyphs" textLength="166" x="279" y="164.0386">ENTER_COORDINATE_TO_PUT</text><ellipse cx="270" cy="173.6328" fill="none" rx="3" ry="3" style="stroke: #038048; stroke-width: 1.0;"/><text fill="#000000" font-family="sans-serif" font-size="11" lengthAdjust="spacingAndGlyphs" textLength="192" x="279" y="176.8433">ENTER_COORDINATE_TO_REMOVE</text><ellipse cx="270" cy="186.4375" fill="none" rx="3" ry="3" style="stroke: #038048; stroke-width: 1.0;"/><text fill="#000000" font-family="sans-serif" font-size="11" lengthAdjust="spacingAndGlyphs" textLength="124" x="279" y="189.6479">COORDINATE_TO_PUT</text><ellipse cx="270" cy="199.2422" fill="none" rx="3" ry="3" style="stroke: #038048; stroke-width: 1.0;"/><text fill="#000000" font-family="sans-serif" font-size="11" lengthAdjust="spacingAndGlyphs" textLength="150" x="279" y="202.4526">COORDINATE_TO_REMOVE</text><ellipse cx="270" cy="212.0469" fill="none" rx="3" ry="3" style="stroke: #038048; stroke-width: 1.0;"/><text fill="#000000" font-family="sans-serif" font-size="11" lengthAdjust="spacingAndGlyphs" textLength="136" x="279" y="215.2573">COORDINATE_TO_MOVE</text><ellipse cx="270" cy="224.8516" fill="none" rx="3" ry="3" style="stroke: #038048; stroke-width: 1.0;"/><text fill="#000000" font-family="sans-serif" font-size="11" lengthAdjust="spacingAndGlyphs" textLength="69" x="279" y="228.062">PLAYER_WIN</text><ellipse cx="270" cy="237.6563" fill="none" rx="3" ry="3" style="stroke: #038048; stroke-width: 1.0;"/><text fill="#000000" font-family="sans-serif" font-size="11" lengthAdjust="spacingAndGlyphs" textLength="46" x="279" y="240.8667">RESUME</text><rect fill="none" height="6" style="stroke: #C82930; stroke-width: 1.0;" width="6" x="267" y="247.4609"/><text fill="#000000" font-family="sans-serif" font-size="11" lengthAdjust="spacingAndGlyphs" textLength="93" x="279" y="253.6714">String message;</text><line style="stroke: #A80036; stroke-width: 1.5;" x1="260" x2="476" y1="260.2656" y2="260.2656"/><rect fill="#F24D5C" height="6" style="stroke: #C82930; stroke-width: 1.0;" width="6" x="267" y="268.2656"/><text fill="#000000" font-family="sans-serif" font-size="11" lengthAdjust="spacingAndGlyphs" textLength="92" x="279" y="274.4761">Message(String)</text><ellipse cx="270" cy="284.0703" fill="#84BE84" rx="3" ry="3" style="stroke: #038048; stroke-width: 1.0;"/><text fill="#000000" font-family="sans-serif" font-size="11" lengthAdjust="spacingAndGlyphs" textLength="115" x="279" y="287.2808">String getMessage()</text><ellipse cx="270" cy="296.875" fill="#84BE84" rx="3" ry="3" style="stroke: #038048; stroke-width: 1.0;"/><text fill="#000000" font-family="sans-serif" font-size="11" lengthAdjust="spacingAndGlyphs" textLength="36" x="279" y="300.0854">write()</text><ellipse cx="270" cy="309.6797" fill="#84BE84" rx="3" ry="3" style="stroke: #038048; stroke-width: 1.0;"/><text fill="#000000" font-family="sans-serif" font-size="11" lengthAdjust="spacingAndGlyphs" textLength="46" x="279" y="312.8901">writeln()</text><ellipse cx="270" cy="322.4844" fill="#84BE84" rx="3" ry="3" style="stroke: #038048; stroke-width: 1.0;"/><text fill="#000000" font-family="sans-serif" font-size="11" lengthAdjust="spacingAndGlyphs" textLength="89" x="279" y="325.6948">String toString()</text><!--MD5=[b8aaf1245d109720e7e93ad10575fc66]
class usantatecla.tictactoe.views.View--><rect codeLine="33" fill="#FEFECE" filter="url(#f973gm5vjxggb)" height="112.0234" id="usantatecla.tictactoe.views.View" style="stroke: #A80036; stroke-width: 1.5;" width="150" x="512" y="130.5"/><ellipse cx="568.25" cy="146.5" fill="#ADD1B2" rx="11" ry="11" style="stroke: #A80036; stroke-width: 1.0;"/><path d="M570.5938,142.1719 C569.6563,141.7344 569.0625,141.5938 568.1875,141.5938 C565.5625,141.5938 563.5625,143.6719 563.5625,146.3906 L563.5625,147.5156 C563.5625,150.0938 565.6719,151.9844 568.5625,151.9844 C569.7813,151.9844 570.9375,151.6875 571.6875,151.1406 C572.2656,150.7344 572.5938,150.2813 572.5938,149.8906 C572.5938,149.4375 572.2031,149.0469 571.7344,149.0469 C571.5156,149.0469 571.3125,149.125 571.125,149.3125 C570.6719,149.7969 570.6719,149.7969 570.4844,149.8906 C570.0625,150.1563 569.375,150.2813 568.6094,150.2813 C566.5625,150.2813 565.2656,149.1875 565.2656,147.4844 L565.2656,146.3906 C565.2656,144.6094 566.5156,143.2969 568.25,143.2969 C568.8281,143.2969 569.4375,143.4531 569.9063,143.7031 C570.3906,143.9844 570.5625,144.2031 570.6563,144.6094 C570.7188,145.0156 570.75,145.1406 570.8906,145.2656 C571.0313,145.4063 571.2656,145.5156 571.4844,145.5156 C571.75,145.5156 572.0156,145.375 572.1875,145.1563 C572.2969,145 572.3281,144.8125 572.3281,144.3906 L572.3281,142.9688 C572.3281,142.5313 572.3125,142.4063 572.2188,142.25 C572.0625,141.9844 571.7813,141.8438 571.4844,141.8438 C571.1875,141.8438 570.9844,141.9375 570.7656,142.25 L570.5938,142.1719 Z "/><text fill="#000000" font-family="sans-serif" font-size="12" lengthAdjust="spacingAndGlyphs" textLength="29" x="588.75" y="150.6543">View</text><line style="stroke: #A80036; stroke-width: 1.5;" x1="513" x2="661" y1="162.5" y2="162.5"/><line style="stroke: #A80036; stroke-width: 1.5;" x1="513" x2="661" y1="170.5" y2="170.5"/><ellipse cx="523" cy="181.5" fill="#84BE84" rx="3" ry="3" style="stroke: #038048; stroke-width: 1.0;"/><text fill="#000000" font-family="sans-serif" font-size="11" lengthAdjust="spacingAndGlyphs" textLength="71" x="532" y="184.7104">View(Game)</text><ellipse cx="523" cy="194.3047" fill="#84BE84" rx="3" ry="3" style="stroke: #038048; stroke-width: 1.0;"/><text fill="#000000" font-family="sans-serif" font-size="11" lengthAdjust="spacingAndGlyphs" textLength="51" x="532" y="197.5151">interact()</text><polygon fill="#FFFF44" points="523,202.1094,527,206.1094,523,210.1094,519,206.1094" style="stroke: #B38D22; stroke-width: 1.0;"/><text fill="#000000" font-family="sans-serif" font-size="11" font-style="italic" lengthAdjust="spacingAndGlyphs" textLength="34" x="532" y="210.3198">start()</text><polygon fill="#FFFF44" points="523,214.9141,527,218.9141,523,222.9141,519,218.9141" style="stroke: #B38D22; stroke-width: 1.0;"/><text fill="#000000" font-family="sans-serif" font-size="11" font-style="italic" lengthAdjust="spacingAndGlyphs" textLength="32" x="532" y="223.1245">play()</text><polygon fill="#FFFF44" points="523,227.7188,527,231.7188,523,235.7188,519,231.7188" style="stroke: #B38D22; stroke-width: 1.0;"/><text fill="#000000" font-family="sans-serif" font-size="11" font-style="italic" lengthAdjust="spacingAndGlyphs" textLength="124" x="532" y="235.9292">boolean isNewGame()</text><!--MD5=[b6dcce5e5ef3c84b0b048d11301373dd]
class Game--><rect codeLine="43" fill="#FEFECE" filter="url(#f973gm5vjxggb)" height="48" id="Game" style="stroke: #A80036; stroke-width: 1.5;" width="241" x="492.5" y="392"/><ellipse cx="507.5" cy="408" fill="#ADD1B2" rx="11" ry="11" style="stroke: #A80036; stroke-width: 1.0;"/><path d="M509.8438,403.6719 C508.9063,403.2344 508.3125,403.0938 507.4375,403.0938 C504.8125,403.0938 502.8125,405.1719 502.8125,407.8906 L502.8125,409.0156 C502.8125,411.5938 504.9219,413.4844 507.8125,413.4844 C509.0313,413.4844 510.1875,413.1875 510.9375,412.6406 C511.5156,412.2344 511.8438,411.7813 511.8438,411.3906 C511.8438,410.9375 511.4531,410.5469 510.9844,410.5469 C510.7656,410.5469 510.5625,410.625 510.375,410.8125 C509.9219,411.2969 509.9219,411.2969 509.7344,411.3906 C509.3125,411.6563 508.625,411.7813 507.8594,411.7813 C505.8125,411.7813 504.5156,410.6875 504.5156,408.9844 L504.5156,407.8906 C504.5156,406.1094 505.7656,404.7969 507.5,404.7969 C508.0781,404.7969 508.6875,404.9531 509.1563,405.2031 C509.6406,405.4844 509.8125,405.7031 509.9063,406.1094 C509.9688,406.5156 510,406.6406 510.1406,406.7656 C510.2813,406.9063 510.5156,407.0156 510.7344,407.0156 C511,407.0156 511.2656,406.875 511.4375,406.6563 C511.5469,406.5 511.5781,406.3125 511.5781,405.8906 L511.5781,404.4688 C511.5781,404.0313 511.5625,403.9063 511.4688,403.75 C511.3125,403.4844 511.0313,403.3438 510.7344,403.3438 C510.4375,403.3438 510.2344,403.4375 510.0156,403.75 L509.8438,403.6719 Z "/><text fill="#000000" font-family="sans-serif" font-size="12" lengthAdjust="spacingAndGlyphs" textLength="209" x="521.5" y="412.1543">usantatecla.tictactoe.models.Game</text><line style="stroke: #A80036; stroke-width: 1.5;" x1="493.5" x2="732.5" y1="424" y2="424"/><line style="stroke: #A80036; stroke-width: 1.5;" x1="493.5" x2="732.5" y1="432" y2="432"/><!--MD5=[315b61b427ec618d6861d47eee00cca3]
class Console--><rect codeLine="44" fill="#FEFECE" filter="url(#f973gm5vjxggb)" height="48" id="Console" style="stroke: #A80036; stroke-width: 1.5;" width="179" x="278.5" y="392"/><ellipse cx="293.5" cy="408" fill="#ADD1B2" rx="11" ry="11" style="stroke: #A80036; stroke-width: 1.0;"/><path d="M295.8438,403.6719 C294.9063,403.2344 294.3125,403.0938 293.4375,403.0938 C290.8125,403.0938 288.8125,405.1719 288.8125,407.8906 L288.8125,409.0156 C288.8125,411.5938 290.9219,413.4844 293.8125,413.4844 C295.0313,413.4844 296.1875,413.1875 296.9375,412.6406 C297.5156,412.2344 297.8438,411.7813 297.8438,411.3906 C297.8438,410.9375 297.4531,410.5469 296.9844,410.5469 C296.7656,410.5469 296.5625,410.625 296.375,410.8125 C295.9219,411.2969 295.9219,411.2969 295.7344,411.3906 C295.3125,411.6563 294.625,411.7813 293.8594,411.7813 C291.8125,411.7813 290.5156,410.6875 290.5156,408.9844 L290.5156,407.8906 C290.5156,406.1094 291.7656,404.7969 293.5,404.7969 C294.0781,404.7969 294.6875,404.9531 295.1563,405.2031 C295.6406,405.4844 295.8125,405.7031 295.9063,406.1094 C295.9688,406.5156 296,406.6406 296.1406,406.7656 C296.2813,406.9063 296.5156,407.0156 296.7344,407.0156 C297,407.0156 297.2656,406.875 297.4375,406.6563 C297.5469,406.5 297.5781,406.3125 297.5781,405.8906 L297.5781,404.4688 C297.5781,404.0313 297.5625,403.9063 297.4688,403.75 C297.3125,403.4844 297.0313,403.3438 296.7344,403.3438 C296.4375,403.3438 296.2344,403.4375 296.0156,403.75 L295.8438,403.6719 Z "/><text fill="#000000" font-family="sans-serif" font-size="12" lengthAdjust="spacingAndGlyphs" textLength="147" x="307.5" y="412.1543">usantatecla.utils.Console</text><line style="stroke: #A80036; stroke-width: 1.5;" x1="279.5" x2="456.5" y1="424" y2="424"/><line style="stroke: #A80036; stroke-width: 1.5;" x1="279.5" x2="456.5" y1="432" y2="432"/><!--MD5=[b8cfd8c4119a3b0a7a46bfc5fc780f85]
class Error--><rect codeLine="45" fill="#FEFECE" filter="url(#f973gm5vjxggb)" height="48" id="Error" style="stroke: #A80036; stroke-width: 1.5;" width="236" x="7" y="392"/><ellipse cx="22" cy="408" fill="#ADD1B2" rx="11" ry="11" style="stroke: #A80036; stroke-width: 1.0;"/><path d="M24.3438,403.6719 C23.4063,403.2344 22.8125,403.0938 21.9375,403.0938 C19.3125,403.0938 17.3125,405.1719 17.3125,407.8906 L17.3125,409.0156 C17.3125,411.5938 19.4219,413.4844 22.3125,413.4844 C23.5313,413.4844 24.6875,413.1875 25.4375,412.6406 C26.0156,412.2344 26.3438,411.7813 26.3438,411.3906 C26.3438,410.9375 25.9531,410.5469 25.4844,410.5469 C25.2656,410.5469 25.0625,410.625 24.875,410.8125 C24.4219,411.2969 24.4219,411.2969 24.2344,411.3906 C23.8125,411.6563 23.125,411.7813 22.3594,411.7813 C20.3125,411.7813 19.0156,410.6875 19.0156,408.9844 L19.0156,407.8906 C19.0156,406.1094 20.2656,404.7969 22,404.7969 C22.5781,404.7969 23.1875,404.9531 23.6563,405.2031 C24.1406,405.4844 24.3125,405.7031 24.4063,406.1094 C24.4688,406.5156 24.5,406.6406 24.6406,406.7656 C24.7813,406.9063 25.0156,407.0156 25.2344,407.0156 C25.5,407.0156 25.7656,406.875 25.9375,406.6563 C26.0469,406.5 26.0781,406.3125 26.0781,405.8906 L26.0781,404.4688 C26.0781,404.0313 26.0625,403.9063 25.9688,403.75 C25.8125,403.4844 25.5313,403.3438 25.2344,403.3438 C24.9375,403.3438 24.7344,403.4375 24.5156,403.75 L24.3438,403.6719 Z "/><text fill="#000000" font-family="sans-serif" font-size="12" lengthAdjust="spacingAndGlyphs" textLength="204" x="36" y="412.1543">usantatecla.tictactoe.models.Error</text><line style="stroke: #A80036; stroke-width: 1.5;" x1="8" x2="242" y1="424" y2="424"/><line style="stroke: #A80036; stroke-width: 1.5;" x1="8" x2="242" y1="432" y2="432"/><!--MD5=[e1a1ed879dec1c27872df24b01782659]
link usantatecla.tictactoe.views.ErrorView to Error--><path codeLine="47" d="M149.4687,235.4382 C149.4687,235.4382 135.169,340.3723 129.924,378.8611 " fill="none" id="usantatecla.tictactoe.views.ErrorView-Error" style="stroke: #A80036; stroke-width: 1.0;"/><polygon fill="#A80036" points="128.142,391.9399,133.3205,383.5624,128.8171,386.9857,125.3938,382.4822,128.142,391.9399" style="stroke: #A80036; stroke-width: 1.0;"/><line style="stroke: #A80036; stroke-width: 1.0;" x1="128.8171" x2="129.8975" y1="386.9857" y2="379.059"/><polygon fill="#A80036" points="151.088,223.548,146.3149,228.9534,149.4687,235.4382,154.2418,230.0329,151.088,223.548" style="stroke: #A80036; stroke-width: 1.0;"/><!--MD5=[df75c91ec310a8a186288e5ba4f70827]
link usantatecla.tictactoe.views.View to Game--><path codeLine="48" d="M594.6561,254.4934 C594.6561,254.4934 605.08,345.6998 608.857,378.7489 " fill="none" id="usantatecla.tictactoe.views.View-Game" style="stroke: #A80036; stroke-width: 1.0;"/><polygon fill="#A80036" points="610.351,391.8186,613.3032,382.4226,609.7832,386.8509,605.3549,383.331,610.351,391.8186" style="stroke: #A80036; stroke-width: 1.0;"/><line style="stroke: #A80036; stroke-width: 1.0;" x1="609.7832" x2="608.8745" y1="386.8509" y2="378.9027"/><polygon fill="#A80036" points="593.294,242.571,590.0009,248.9862,594.6561,254.4934,597.9492,248.0782,593.294,242.571" style="stroke: #A80036; stroke-width: 1.0;"/><!--MD5=[780d451bf192457496502a8748611a56]
link usantatecla.tictactoe.views.Message to Console--><path codeLine="49" d="M368,332.224 C368,352.8284 368,371.9653 368,386.6372 " fill="none" id="usantatecla.tictactoe.views.Message-to-Console" style="stroke: #A80036; stroke-width: 1.0; stroke-dasharray: 7.0,7.0;"/><polygon fill="#A80036" points="368,391.8351,372,382.8351,368,386.8351,364,382.8351,368,391.8351" style="stroke: #A80036; stroke-width: 1.0;"/><!--MD5=[3fa4fa189b94679c8d69a5010e044448]
@startuml
class usantatecla.tictactoe.views.ErrorView {

	+ {static} String[] MESSAGES

	+ ErrorView(Error)

}

enum usantatecla.tictactoe.views.Message {
    + TITTLE
	+ NUMBER_PLAYERS
	+ SEPARATOR
	+ VERTICAL_LINE_LEFT
	+ VERTICAL_LINE_CENTERED
	+ VERTICAL_LINE_RIGHT
	+ ENTER_COORDINATE_TO_PUT
	+ ENTER_COORDINATE_TO_REMOVE
	+ COORDINATE_TO_PUT
	+ COORDINATE_TO_REMOVE
	+ COORDINATE_TO_MOVE
	+ PLAYER_WIN
	+ RESUME
	- String message;

	- Message(String)
	+ String getMessage()
	+ write()
	+ writeln()
	+ String toString()

}

class usantatecla.tictactoe.views.View {

	+ View(Game)
	+ interact()
	# {abstract} start()
	# {abstract} play()
	# {abstract} boolean isNewGame()

}

class Game as "usantatecla.tictactoe.models.Game"
class Console as "usantatecla.utils.Console"
class Error as "usantatecla.tictactoe.models.Error"

usantatecla.tictactoe.views.ErrorView *- -> Error
usantatecla.tictactoe.views.View *- -> Game
usantatecla.tictactoe.views.Message ..> Console
@enduml

PlantUML version 1.2020.20beta7(Unknown compile time)
(GPL source distribution)
Java Runtime: Java(TM) SE Runtime Environment
JVM: Java HotSpot(TM) 64-Bit Server VM
Default Encoding: UTF-8
Language: en
Country: US
--></g></svg>