<?xml version="1.0" encoding="UTF-8" standalone="no"?><svg xmlns="http://www.w3.org/2000/svg" xmlns:xlink="http://www.w3.org/1999/xlink" contentScriptType="application/ecmascript" contentStyleType="text/css" height="299px" preserveAspectRatio="none" style="width:445px;height:299px;" version="1.1" viewBox="0 0 445 299" width="445px" zoomAndPan="magnify"><defs><filter height="300%" id="frypbyupz3k0r" width="300%" x="-1" y="-1"><feGaussianBlur result="blurOut" stdDeviation="2.0"/><feColorMatrix in="blurOut" result="blurOut2" type="matrix" values="0 0 0 0 0 0 0 0 0 0 0 0 0 0 0 0 0 0 .4 0"/><feOffset dx="4.0" dy="4.0" in="blurOut2" result="blurOut3"/><feBlend in="SourceGraphic" in2="blurOut3" mode="normal"/></filter></defs><g><!--MD5=[807bc46d8103c809ff053af9e140e1f5]
cluster tictactoe--><polygon fill="#FFFFFF" filter="url(#frypbyupz3k0r)" points="35,6,117,6,124,28.2969,390,28.2969,390,169,35,169,35,6" style="stroke: #000000; stroke-width: 1.5;"/><line style="stroke: #000000; stroke-width: 1.5;" x1="35" x2="124" y1="28.2969" y2="28.2969"/><text fill="#000000" font-family="sans-serif" font-size="14" font-weight="bold" lengthAdjust="spacingAndGlyphs" textLength="76" x="39" y="20.9951">tictactoe</text><!--MD5=[a60570e4b426f702ccbb0d459e3b9417]
cluster models--><polygon fill="#FFFFFF" filter="url(#frypbyupz3k0r)" points="16,193,80,193,87,215.2969,116,215.2969,116,292,16,292,16,193" style="stroke: #000000; stroke-width: 1.5;"/><line style="stroke: #000000; stroke-width: 1.5;" x1="16" x2="87" y1="215.2969" y2="215.2969"/><text fill="#000000" font-family="sans-serif" font-size="14" font-weight="bold" lengthAdjust="spacingAndGlyphs" textLength="58" x="20" y="207.9951">models</text><!--MD5=[3d2289c64ab922d4a1148c2b2950c1a6]
cluster views.console--><polygon fill="#FFFFFF" filter="url(#frypbyupz3k0r)" points="140,193,258,193,265,215.2969,268,215.2969,268,292,140,292,140,193" style="stroke: #000000; stroke-width: 1.5;"/><line style="stroke: #000000; stroke-width: 1.5;" x1="140" x2="265" y1="215.2969" y2="215.2969"/><text fill="#000000" font-family="sans-serif" font-size="14" font-weight="bold" lengthAdjust="spacingAndGlyphs" textLength="112" x="144" y="207.9951">views.console</text><!--MD5=[386aae44cbe850ff49f15191156a88f4]
cluster views.graphics--><polygon fill="#FFFFFF" filter="url(#frypbyupz3k0r)" points="292,193,418,193,425,215.2969,428,215.2969,428,292,292,292,292,193" style="stroke: #000000; stroke-width: 1.5;"/><line style="stroke: #000000; stroke-width: 1.5;" x1="292" x2="425" y1="215.2969" y2="215.2969"/><text fill="#000000" font-family="sans-serif" font-size="14" font-weight="bold" lengthAdjust="spacingAndGlyphs" textLength="120" x="296" y="207.9951">views.graphics</text><!--MD5=[d26da01265d646b7f841c2729736529c]
class tictactoe.ConsoleTicTacToe--><rect codeLine="1" fill="#FEFECE" filter="url(#frypbyupz3k0r)" height="112.0234" id="tictactoe.ConsoleTicTacToe" style="stroke: #A80036; stroke-width: 1.5;" width="142" x="51" y="41"/><ellipse cx="66" cy="57" fill="#ADD1B2" rx="11" ry="11" style="stroke: #A80036; stroke-width: 1.0;"/><path d="M68.3438,52.6719 C67.4063,52.2344 66.8125,52.0938 65.9375,52.0938 C63.3125,52.0938 61.3125,54.1719 61.3125,56.8906 L61.3125,58.0156 C61.3125,60.5938 63.4219,62.4844 66.3125,62.4844 C67.5313,62.4844 68.6875,62.1875 69.4375,61.6406 C70.0156,61.2344 70.3438,60.7813 70.3438,60.3906 C70.3438,59.9375 69.9531,59.5469 69.4844,59.5469 C69.2656,59.5469 69.0625,59.625 68.875,59.8125 C68.4219,60.2969 68.4219,60.2969 68.2344,60.3906 C67.8125,60.6563 67.125,60.7813 66.3594,60.7813 C64.3125,60.7813 63.0156,59.6875 63.0156,57.9844 L63.0156,56.8906 C63.0156,55.1094 64.2656,53.7969 66,53.7969 C66.5781,53.7969 67.1875,53.9531 67.6563,54.2031 C68.1406,54.4844 68.3125,54.7031 68.4063,55.1094 C68.4688,55.5156 68.5,55.6406 68.6406,55.7656 C68.7813,55.9063 69.0156,56.0156 69.2344,56.0156 C69.5,56.0156 69.7656,55.875 69.9375,55.6563 C70.0469,55.5 70.0781,55.3125 70.0781,54.8906 L70.0781,53.4688 C70.0781,53.0313 70.0625,52.9063 69.9688,52.75 C69.8125,52.4844 69.5313,52.3438 69.2344,52.3438 C68.9375,52.3438 68.7344,52.4375 68.5156,52.75 L68.3438,52.6719 Z "/><text fill="#000000" font-family="sans-serif" font-size="12" lengthAdjust="spacingAndGlyphs" textLength="110" x="80" y="61.1543">ConsoleTicTacToe</text><line style="stroke: #A80036; stroke-width: 1.5;" x1="52" x2="192" y1="73" y2="73"/><rect fill="none" height="6" style="stroke: #C82930; stroke-width: 1.0;" width="6" x="59" y="81"/><text fill="#000000" font-family="sans-serif" font-size="11" lengthAdjust="spacingAndGlyphs" textLength="75" x="71" y="87.2104">Game game;</text><rect fill="none" height="6" style="stroke: #C82930; stroke-width: 1.0;" width="6" x="59" y="93.8047"/><text fill="#000000" font-family="sans-serif" font-size="11" lengthAdjust="spacingAndGlyphs" textLength="62" x="71" y="100.0151">View view;</text><line style="stroke: #A80036; stroke-width: 1.5;" x1="52" x2="192" y1="106.6094" y2="106.6094"/><text fill="#000000" font-family="sans-serif" font-size="11" lengthAdjust="spacingAndGlyphs" textLength="112" x="71" y="120.8198">ConsoleTicTacToe()</text><rect fill="#F24D5C" height="6" style="stroke: #C82930; stroke-width: 1.0;" width="6" x="59" y="127.4141"/><text fill="#000000" font-family="sans-serif" font-size="11" lengthAdjust="spacingAndGlyphs" textLength="32" x="71" y="133.6245">play()</text><ellipse cx="62" cy="143.2188" fill="#84BE84" rx="3" ry="3" style="stroke: #038048; stroke-width: 1.0;"/><text fill="#000000" font-family="sans-serif" font-size="11" lengthAdjust="spacingAndGlyphs" text-decoration="underline" textLength="105" x="71" y="146.4292">main(String[] args)</text><!--MD5=[288019f38859c158505575d95d6bbed7]
class tictactoe.GraphicsTicTacToe--><rect codeLine="12" fill="#FEFECE" filter="url(#frypbyupz3k0r)" height="112.0234" id="tictactoe.GraphicsTicTacToe" style="stroke: #A80036; stroke-width: 1.5;" width="146" x="228" y="41"/><ellipse cx="243" cy="57" fill="#ADD1B2" rx="11" ry="11" style="stroke: #A80036; stroke-width: 1.0;"/><path d="M245.3438,52.6719 C244.4063,52.2344 243.8125,52.0938 242.9375,52.0938 C240.3125,52.0938 238.3125,54.1719 238.3125,56.8906 L238.3125,58.0156 C238.3125,60.5938 240.4219,62.4844 243.3125,62.4844 C244.5313,62.4844 245.6875,62.1875 246.4375,61.6406 C247.0156,61.2344 247.3438,60.7813 247.3438,60.3906 C247.3438,59.9375 246.9531,59.5469 246.4844,59.5469 C246.2656,59.5469 246.0625,59.625 245.875,59.8125 C245.4219,60.2969 245.4219,60.2969 245.2344,60.3906 C244.8125,60.6563 244.125,60.7813 243.3594,60.7813 C241.3125,60.7813 240.0156,59.6875 240.0156,57.9844 L240.0156,56.8906 C240.0156,55.1094 241.2656,53.7969 243,53.7969 C243.5781,53.7969 244.1875,53.9531 244.6563,54.2031 C245.1406,54.4844 245.3125,54.7031 245.4063,55.1094 C245.4688,55.5156 245.5,55.6406 245.6406,55.7656 C245.7813,55.9063 246.0156,56.0156 246.2344,56.0156 C246.5,56.0156 246.7656,55.875 246.9375,55.6563 C247.0469,55.5 247.0781,55.3125 247.0781,54.8906 L247.0781,53.4688 C247.0781,53.0313 247.0625,52.9063 246.9688,52.75 C246.8125,52.4844 246.5313,52.3438 246.2344,52.3438 C245.9375,52.3438 245.7344,52.4375 245.5156,52.75 L245.3438,52.6719 Z "/><text fill="#000000" font-family="sans-serif" font-size="12" lengthAdjust="spacingAndGlyphs" textLength="114" x="257" y="61.1543">GraphicsTicTacToe</text><line style="stroke: #A80036; stroke-width: 1.5;" x1="229" x2="373" y1="73" y2="73"/><rect fill="none" height="6" style="stroke: #C82930; stroke-width: 1.0;" width="6" x="236" y="81"/><text fill="#000000" font-family="sans-serif" font-size="11" lengthAdjust="spacingAndGlyphs" textLength="75" x="248" y="87.2104">Game game;</text><rect fill="none" height="6" style="stroke: #C82930; stroke-width: 1.0;" width="6" x="236" y="93.8047"/><text fill="#000000" font-family="sans-serif" font-size="11" lengthAdjust="spacingAndGlyphs" textLength="62" x="248" y="100.0151">View view;</text><line style="stroke: #A80036; stroke-width: 1.5;" x1="229" x2="373" y1="106.6094" y2="106.6094"/><rect fill="#F24D5C" height="6" style="stroke: #C82930; stroke-width: 1.0;" width="6" x="236" y="114.6094"/><text fill="#000000" font-family="sans-serif" font-size="11" lengthAdjust="spacingAndGlyphs" textLength="115" x="248" y="120.8198">GraphicsTicTacToe()</text><rect fill="#F24D5C" height="6" style="stroke: #C82930; stroke-width: 1.0;" width="6" x="236" y="127.4141"/><text fill="#000000" font-family="sans-serif" font-size="11" lengthAdjust="spacingAndGlyphs" textLength="32" x="248" y="133.6245">play()</text><ellipse cx="239" cy="143.2188" fill="#84BE84" rx="3" ry="3" style="stroke: #038048; stroke-width: 1.0;"/><text fill="#000000" font-family="sans-serif" font-size="11" lengthAdjust="spacingAndGlyphs" text-decoration="underline" textLength="105" x="248" y="146.4292">main(String[] args)</text><!--MD5=[1ea5cf3e691bb3552ec8d5f9a56af156]
class models.Game--><rect codeLine="23" fill="#FEFECE" filter="url(#frypbyupz3k0r)" height="48" id="models.Game" style="stroke: #A80036; stroke-width: 1.5;" width="67" x="32.5" y="228"/><ellipse cx="47.5" cy="244" fill="#ADD1B2" rx="11" ry="11" style="stroke: #A80036; stroke-width: 1.0;"/><path d="M49.8438,239.6719 C48.9063,239.2344 48.3125,239.0938 47.4375,239.0938 C44.8125,239.0938 42.8125,241.1719 42.8125,243.8906 L42.8125,245.0156 C42.8125,247.5938 44.9219,249.4844 47.8125,249.4844 C49.0313,249.4844 50.1875,249.1875 50.9375,248.6406 C51.5156,248.2344 51.8438,247.7813 51.8438,247.3906 C51.8438,246.9375 51.4531,246.5469 50.9844,246.5469 C50.7656,246.5469 50.5625,246.625 50.375,246.8125 C49.9219,247.2969 49.9219,247.2969 49.7344,247.3906 C49.3125,247.6563 48.625,247.7813 47.8594,247.7813 C45.8125,247.7813 44.5156,246.6875 44.5156,244.9844 L44.5156,243.8906 C44.5156,242.1094 45.7656,240.7969 47.5,240.7969 C48.0781,240.7969 48.6875,240.9531 49.1563,241.2031 C49.6406,241.4844 49.8125,241.7031 49.9063,242.1094 C49.9688,242.5156 50,242.6406 50.1406,242.7656 C50.2813,242.9063 50.5156,243.0156 50.7344,243.0156 C51,243.0156 51.2656,242.875 51.4375,242.6563 C51.5469,242.5 51.5781,242.3125 51.5781,241.8906 L51.5781,240.4688 C51.5781,240.0313 51.5625,239.9063 51.4688,239.75 C51.3125,239.4844 51.0313,239.3438 50.7344,239.3438 C50.4375,239.3438 50.2344,239.4375 50.0156,239.75 L49.8438,239.6719 Z "/><text fill="#000000" font-family="sans-serif" font-size="12" lengthAdjust="spacingAndGlyphs" textLength="35" x="61.5" y="248.1543">Game</text><line style="stroke: #A80036; stroke-width: 1.5;" x1="33.5" x2="98.5" y1="260" y2="260"/><line style="stroke: #A80036; stroke-width: 1.5;" x1="33.5" x2="98.5" y1="268" y2="268"/><!--MD5=[87c6da2cef8aef96d064630939ddcd88]
class views.console.View--><rect codeLine="24" fill="#FEFECE" filter="url(#frypbyupz3k0r)" height="48" id="views.console.View" style="stroke: #A80036; stroke-width: 1.5;" width="61" x="156.5" y="228"/><ellipse cx="171.5" cy="244" fill="#ADD1B2" rx="11" ry="11" style="stroke: #A80036; stroke-width: 1.0;"/><path d="M173.8438,239.6719 C172.9063,239.2344 172.3125,239.0938 171.4375,239.0938 C168.8125,239.0938 166.8125,241.1719 166.8125,243.8906 L166.8125,245.0156 C166.8125,247.5938 168.9219,249.4844 171.8125,249.4844 C173.0313,249.4844 174.1875,249.1875 174.9375,248.6406 C175.5156,248.2344 175.8438,247.7813 175.8438,247.3906 C175.8438,246.9375 175.4531,246.5469 174.9844,246.5469 C174.7656,246.5469 174.5625,246.625 174.375,246.8125 C173.9219,247.2969 173.9219,247.2969 173.7344,247.3906 C173.3125,247.6563 172.625,247.7813 171.8594,247.7813 C169.8125,247.7813 168.5156,246.6875 168.5156,244.9844 L168.5156,243.8906 C168.5156,242.1094 169.7656,240.7969 171.5,240.7969 C172.0781,240.7969 172.6875,240.9531 173.1563,241.2031 C173.6406,241.4844 173.8125,241.7031 173.9063,242.1094 C173.9688,242.5156 174,242.6406 174.1406,242.7656 C174.2813,242.9063 174.5156,243.0156 174.7344,243.0156 C175,243.0156 175.2656,242.875 175.4375,242.6563 C175.5469,242.5 175.5781,242.3125 175.5781,241.8906 L175.5781,240.4688 C175.5781,240.0313 175.5625,239.9063 175.4688,239.75 C175.3125,239.4844 175.0313,239.3438 174.7344,239.3438 C174.4375,239.3438 174.2344,239.4375 174.0156,239.75 L173.8438,239.6719 Z "/><text fill="#000000" font-family="sans-serif" font-size="12" lengthAdjust="spacingAndGlyphs" textLength="29" x="185.5" y="248.1543">View</text><line style="stroke: #A80036; stroke-width: 1.5;" x1="157.5" x2="216.5" y1="260" y2="260"/><line style="stroke: #A80036; stroke-width: 1.5;" x1="157.5" x2="216.5" y1="268" y2="268"/><!--MD5=[aca9770d3d4d366b6bfb5c7a273609d3]
class views.graphics.View--><rect codeLine="25" fill="#FEFECE" filter="url(#frypbyupz3k0r)" height="48" id="views.graphics.View" style="stroke: #A80036; stroke-width: 1.5;" width="61" x="308.5" y="228"/><ellipse cx="323.5" cy="244" fill="#ADD1B2" rx="11" ry="11" style="stroke: #A80036; stroke-width: 1.0;"/><path d="M325.8438,239.6719 C324.9063,239.2344 324.3125,239.0938 323.4375,239.0938 C320.8125,239.0938 318.8125,241.1719 318.8125,243.8906 L318.8125,245.0156 C318.8125,247.5938 320.9219,249.4844 323.8125,249.4844 C325.0313,249.4844 326.1875,249.1875 326.9375,248.6406 C327.5156,248.2344 327.8438,247.7813 327.8438,247.3906 C327.8438,246.9375 327.4531,246.5469 326.9844,246.5469 C326.7656,246.5469 326.5625,246.625 326.375,246.8125 C325.9219,247.2969 325.9219,247.2969 325.7344,247.3906 C325.3125,247.6563 324.625,247.7813 323.8594,247.7813 C321.8125,247.7813 320.5156,246.6875 320.5156,244.9844 L320.5156,243.8906 C320.5156,242.1094 321.7656,240.7969 323.5,240.7969 C324.0781,240.7969 324.6875,240.9531 325.1563,241.2031 C325.6406,241.4844 325.8125,241.7031 325.9063,242.1094 C325.9688,242.5156 326,242.6406 326.1406,242.7656 C326.2813,242.9063 326.5156,243.0156 326.7344,243.0156 C327,243.0156 327.2656,242.875 327.4375,242.6563 C327.5469,242.5 327.5781,242.3125 327.5781,241.8906 L327.5781,240.4688 C327.5781,240.0313 327.5625,239.9063 327.4688,239.75 C327.3125,239.4844 327.0313,239.3438 326.7344,239.3438 C326.4375,239.3438 326.2344,239.4375 326.0156,239.75 L325.8438,239.6719 Z "/><text fill="#000000" font-family="sans-serif" font-size="12" lengthAdjust="spacingAndGlyphs" textLength="29" x="337.5" y="248.1543">View</text><line style="stroke: #A80036; stroke-width: 1.5;" x1="309.5" x2="368.5" y1="260" y2="260"/><line style="stroke: #A80036; stroke-width: 1.5;" x1="309.5" x2="368.5" y1="268" y2="268"/><!--MD5=[9abca300a50bc4ddf1fc23da177cf098]
link tictactoe.ConsoleTicTacToe to models.Game--><path codeLine="27" d="M97.6593,164.5062 C97.6593,164.5062 84.4395,200.621 78.9778,215.5428 " fill="none" id="tictactoe.ConsoleTicTacToe-models.Game" style="stroke: #A80036; stroke-width: 1.0;"/><polygon fill="#A80036" points="74.49,227.8042,81.3397,220.7274,76.2086,223.1088,73.8271,217.9777,74.49,227.8042" style="stroke: #A80036; stroke-width: 1.0;"/><line style="stroke: #A80036; stroke-width: 1.0;" x1="76.2086" x2="78.9583" y1="223.1088" y2="215.5962"/><polygon fill="#A80036" points="101.783,153.237,95.9647,157.497,97.6593,164.5062,103.4775,160.2462,101.783,153.237" style="stroke: #A80036; stroke-width: 1.0;"/><!--MD5=[b32dc93dcb0f352a73e09459c70a5bfb]
link tictactoe.GraphicsTicTacToe to models.Game--><path codeLine="28" d="M238.3567,160.4204 C238.3567,160.4204 219.531,172.808 210,177 C181.336,189.607 168.579,172.201 140,185 C122.848,192.681 106.867,205.814 94.178,218.3518 " fill="none" id="tictactoe.GraphicsTicTacToe-models.Game" style="stroke: #A80036; stroke-width: 1.0;"/><polygon fill="#A80036" points="85.1513,227.7233,94.2758,224.0162,88.62,224.1222,88.514,218.4663,85.1513,227.7233" style="stroke: #A80036; stroke-width: 1.0;"/><line style="stroke: #A80036; stroke-width: 1.0;" x1="88.62" x2="94.1699" y1="224.1222" y2="218.3603"/><polygon fill="#A80036" points="247.921,153.173,240.7231,153.6086,238.3567,160.4204,245.5547,159.9848,247.921,153.173" style="stroke: #A80036; stroke-width: 1.0;"/><!--MD5=[e6979a6b6b6a15b321157892959f721a]
link tictactoe.ConsoleTicTacToe to views.console.View--><path codeLine="29" d="M150.1593,164.2811 C150.1593,164.2811 165.597,200.621 171.936,215.5428 " fill="none" id="tictactoe.ConsoleTicTacToe-views.console.View" style="stroke: #A80036; stroke-width: 1.0;"/><polygon fill="#A80036" points="177.146,227.8042,177.3081,217.9567,175.1908,223.2023,169.9451,221.085,177.146,227.8042" style="stroke: #A80036; stroke-width: 1.0;"/><line style="stroke: #A80036; stroke-width: 1.0;" x1="175.1908" x2="172.0625" y1="223.2023" y2="215.8392"/><polygon fill="#A80036" points="145.466,153.237,144.1313,160.3235,150.1593,164.2811,151.494,157.1947,145.466,153.237" style="stroke: #A80036; stroke-width: 1.0;"/><!--MD5=[6fa50e726cc395bdc5a48b0de5a8ed12]
link tictactoe.GraphicsTicTacToe to views.graphics.View--><path codeLine="30" d="M317.6124,164.883 C317.6124,164.883 326.379,200.182 330.001,214.7655 " fill="none" id="tictactoe.GraphicsTicTacToe-views.graphics.View" style="stroke: #A80036; stroke-width: 1.0;"/><polygon fill="#A80036" points="333.239,227.8042,334.9517,218.1054,332.0338,222.9516,327.1876,220.0337,333.239,227.8042" style="stroke: #A80036; stroke-width: 1.0;"/><line style="stroke: #A80036; stroke-width: 1.0;" x1="332.0338" x2="330.105" y1="222.9516" y2="215.1875"/><polygon fill="#A80036" points="314.719,153.237,312.2837,160.0244,317.6124,164.883,320.0477,158.0955,314.719,153.237" style="stroke: #A80036; stroke-width: 1.0;"/><!--MD5=[d7b5b5704d28a31e2c2bd5fbf4678c79]
@startuml
class tictactoe.ConsoleTicTacToe {

	- Game game;
	- View view;

	ConsoleTicTacToe()
	- play()
	+ {static} main(String[] args)

}

class tictactoe.GraphicsTicTacToe {

	- Game game;
	- View view;

	- GraphicsTicTacToe()
	- play()
	+ {static} main(String[] args)

}

class models.Game
class views.console.View
class views.graphics.View

tictactoe.ConsoleTicTacToe *-down-> models.Game
tictactoe.GraphicsTicTacToe *-down-> models.Game
tictactoe.ConsoleTicTacToe *-down-> views.console.View
tictactoe.GraphicsTicTacToe *-down-> views.graphics.View
@enduml

PlantUML version 1.2020.20beta4(Unknown compile time)
(GPL source distribution)
Java Runtime: Java(TM) SE Runtime Environment
JVM: Java HotSpot(TM) 64-Bit Server VM
Default Encoding: UTF-8
Language: en
Country: US
--></g></svg>