<?xml version="1.0" encoding="UTF-8" standalone="no"?><svg xmlns="http://www.w3.org/2000/svg" xmlns:xlink="http://www.w3.org/1999/xlink" contentScriptType="application/ecmascript" contentStyleType="text/css" height="249px" preserveAspectRatio="none" style="width:833px;height:249px;" version="1.1" viewBox="0 0 833 249" width="833px" zoomAndPan="magnify"><defs><filter height="300%" id="f14n14iq2skafy" width="300%" x="-1" y="-1"><feGaussianBlur result="blurOut" stdDeviation="2.0"/><feColorMatrix in="blurOut" result="blurOut2" type="matrix" values="0 0 0 0 0 0 0 0 0 0 0 0 0 0 0 0 0 0 .4 0"/><feOffset dx="4.0" dy="4.0" in="blurOut2" result="blurOut3"/><feBlend in="SourceGraphic" in2="blurOut3" mode="normal"/></filter></defs><g><!--MD5=[b59da53bc4cb019b9115ab51e8207bb0]
cluster usantatecla.tictactoe--><polygon fill="#FFFFFF" filter="url(#f14n14iq2skafy)" points="234,6,419,6,426,28.2969,589,28.2969,589,143,234,143,234,6" style="stroke: #000000; stroke-width: 1.5;"/><line style="stroke: #000000; stroke-width: 1.5;" x1="234" x2="426" y1="28.2969" y2="28.2969"/><text fill="#000000" font-family="sans-serif" font-size="14" font-weight="bold" lengthAdjust="spacingAndGlyphs" textLength="179" x="238" y="20.9951">usantatecla.tictactoe</text><!--MD5=[03c339352ae0a66a83a9809d2d9c2b7e]
class usantatecla.tictactoe.ConsoleTicTacToe--><rect codeLine="1" fill="#FEFECE" filter="url(#f14n14iq2skafy)" height="86.4141" id="usantatecla.tictactoe.ConsoleTicTacToe" style="stroke: #A80036; stroke-width: 1.5;" width="142" x="250" y="41"/><ellipse cx="265" cy="57" fill="#ADD1B2" rx="11" ry="11" style="stroke: #A80036; stroke-width: 1.0;"/><path d="M267.3438,52.6719 C266.4063,52.2344 265.8125,52.0938 264.9375,52.0938 C262.3125,52.0938 260.3125,54.1719 260.3125,56.8906 L260.3125,58.0156 C260.3125,60.5938 262.4219,62.4844 265.3125,62.4844 C266.5313,62.4844 267.6875,62.1875 268.4375,61.6406 C269.0156,61.2344 269.3438,60.7813 269.3438,60.3906 C269.3438,59.9375 268.9531,59.5469 268.4844,59.5469 C268.2656,59.5469 268.0625,59.625 267.875,59.8125 C267.4219,60.2969 267.4219,60.2969 267.2344,60.3906 C266.8125,60.6563 266.125,60.7813 265.3594,60.7813 C263.3125,60.7813 262.0156,59.6875 262.0156,57.9844 L262.0156,56.8906 C262.0156,55.1094 263.2656,53.7969 265,53.7969 C265.5781,53.7969 266.1875,53.9531 266.6563,54.2031 C267.1406,54.4844 267.3125,54.7031 267.4063,55.1094 C267.4688,55.5156 267.5,55.6406 267.6406,55.7656 C267.7813,55.9063 268.0156,56.0156 268.2344,56.0156 C268.5,56.0156 268.7656,55.875 268.9375,55.6563 C269.0469,55.5 269.0781,55.3125 269.0781,54.8906 L269.0781,53.4688 C269.0781,53.0313 269.0625,52.9063 268.9688,52.75 C268.8125,52.4844 268.5313,52.3438 268.2344,52.3438 C267.9375,52.3438 267.7344,52.4375 267.5156,52.75 L267.3438,52.6719 Z "/><text fill="#000000" font-family="sans-serif" font-size="12" lengthAdjust="spacingAndGlyphs" textLength="110" x="279" y="61.1543">ConsoleTicTacToe</text><line style="stroke: #A80036; stroke-width: 1.5;" x1="251" x2="391" y1="73" y2="73"/><line style="stroke: #A80036; stroke-width: 1.5;" x1="251" x2="391" y1="81" y2="81"/><text fill="#000000" font-family="sans-serif" font-size="11" lengthAdjust="spacingAndGlyphs" textLength="112" x="270" y="95.2104">ConsoleTicTacToe()</text><rect fill="#F24D5C" height="6" style="stroke: #C82930; stroke-width: 1.0;" width="6" x="258" y="101.8047"/><text fill="#000000" font-family="sans-serif" font-size="11" lengthAdjust="spacingAndGlyphs" textLength="32" x="270" y="108.0151">play()</text><ellipse cx="261" cy="117.6094" fill="#84BE84" rx="3" ry="3" style="stroke: #038048; stroke-width: 1.0;"/><text fill="#000000" font-family="sans-serif" font-size="11" lengthAdjust="spacingAndGlyphs" text-decoration="underline" textLength="77" x="270" y="120.8198">main(String[])</text><!--MD5=[44e3097ba2e6697655acc7ad5ebd4556]
class usantatecla.tictactoe.GraphicsTicTacToe--><rect codeLine="9" fill="#FEFECE" filter="url(#f14n14iq2skafy)" height="86.4141" id="usantatecla.tictactoe.GraphicsTicTacToe" style="stroke: #A80036; stroke-width: 1.5;" width="146" x="427" y="41"/><ellipse cx="442" cy="57" fill="#ADD1B2" rx="11" ry="11" style="stroke: #A80036; stroke-width: 1.0;"/><path d="M444.3438,52.6719 C443.4063,52.2344 442.8125,52.0938 441.9375,52.0938 C439.3125,52.0938 437.3125,54.1719 437.3125,56.8906 L437.3125,58.0156 C437.3125,60.5938 439.4219,62.4844 442.3125,62.4844 C443.5313,62.4844 444.6875,62.1875 445.4375,61.6406 C446.0156,61.2344 446.3438,60.7813 446.3438,60.3906 C446.3438,59.9375 445.9531,59.5469 445.4844,59.5469 C445.2656,59.5469 445.0625,59.625 444.875,59.8125 C444.4219,60.2969 444.4219,60.2969 444.2344,60.3906 C443.8125,60.6563 443.125,60.7813 442.3594,60.7813 C440.3125,60.7813 439.0156,59.6875 439.0156,57.9844 L439.0156,56.8906 C439.0156,55.1094 440.2656,53.7969 442,53.7969 C442.5781,53.7969 443.1875,53.9531 443.6563,54.2031 C444.1406,54.4844 444.3125,54.7031 444.4063,55.1094 C444.4688,55.5156 444.5,55.6406 444.6406,55.7656 C444.7813,55.9063 445.0156,56.0156 445.2344,56.0156 C445.5,56.0156 445.7656,55.875 445.9375,55.6563 C446.0469,55.5 446.0781,55.3125 446.0781,54.8906 L446.0781,53.4688 C446.0781,53.0313 446.0625,52.9063 445.9688,52.75 C445.8125,52.4844 445.5313,52.3438 445.2344,52.3438 C444.9375,52.3438 444.7344,52.4375 444.5156,52.75 L444.3438,52.6719 Z "/><text fill="#000000" font-family="sans-serif" font-size="12" lengthAdjust="spacingAndGlyphs" textLength="114" x="456" y="61.1543">GraphicsTicTacToe</text><line style="stroke: #A80036; stroke-width: 1.5;" x1="428" x2="572" y1="73" y2="73"/><line style="stroke: #A80036; stroke-width: 1.5;" x1="428" x2="572" y1="81" y2="81"/><rect fill="#F24D5C" height="6" style="stroke: #C82930; stroke-width: 1.0;" width="6" x="435" y="89"/><text fill="#000000" font-family="sans-serif" font-size="11" lengthAdjust="spacingAndGlyphs" textLength="115" x="447" y="95.2104">GraphicsTicTacToe()</text><rect fill="#F24D5C" height="6" style="stroke: #C82930; stroke-width: 1.0;" width="6" x="435" y="101.8047"/><text fill="#000000" font-family="sans-serif" font-size="11" lengthAdjust="spacingAndGlyphs" textLength="32" x="447" y="108.0151">play()</text><ellipse cx="438" cy="117.6094" fill="#84BE84" rx="3" ry="3" style="stroke: #038048; stroke-width: 1.0;"/><text fill="#000000" font-family="sans-serif" font-size="11" lengthAdjust="spacingAndGlyphs" text-decoration="underline" textLength="77" x="447" y="120.8198">main(String[])</text><!--MD5=[b6dcce5e5ef3c84b0b048d11301373dd]
class Game--><rect codeLine="17" fill="#FEFECE" filter="url(#f14n14iq2skafy)" height="48" id="Game" style="stroke: #A80036; stroke-width: 1.5;" width="186" x="318" y="187"/><ellipse cx="333" cy="203" fill="#ADD1B2" rx="11" ry="11" style="stroke: #A80036; stroke-width: 1.0;"/><path d="M335.3438,198.6719 C334.4063,198.2344 333.8125,198.0938 332.9375,198.0938 C330.3125,198.0938 328.3125,200.1719 328.3125,202.8906 L328.3125,204.0156 C328.3125,206.5938 330.4219,208.4844 333.3125,208.4844 C334.5313,208.4844 335.6875,208.1875 336.4375,207.6406 C337.0156,207.2344 337.3438,206.7813 337.3438,206.3906 C337.3438,205.9375 336.9531,205.5469 336.4844,205.5469 C336.2656,205.5469 336.0625,205.625 335.875,205.8125 C335.4219,206.2969 335.4219,206.2969 335.2344,206.3906 C334.8125,206.6563 334.125,206.7813 333.3594,206.7813 C331.3125,206.7813 330.0156,205.6875 330.0156,203.9844 L330.0156,202.8906 C330.0156,201.1094 331.2656,199.7969 333,199.7969 C333.5781,199.7969 334.1875,199.9531 334.6563,200.2031 C335.1406,200.4844 335.3125,200.7031 335.4063,201.1094 C335.4688,201.5156 335.5,201.6406 335.6406,201.7656 C335.7813,201.9063 336.0156,202.0156 336.2344,202.0156 C336.5,202.0156 336.7656,201.875 336.9375,201.6563 C337.0469,201.5 337.0781,201.3125 337.0781,200.8906 L337.0781,199.4688 C337.0781,199.0313 337.0625,198.9063 336.9688,198.75 C336.8125,198.4844 336.5313,198.3438 336.2344,198.3438 C335.9375,198.3438 335.7344,198.4375 335.5156,198.75 L335.3438,198.6719 Z "/><text fill="#000000" font-family="sans-serif" font-size="12" lengthAdjust="spacingAndGlyphs" textLength="154" x="347" y="207.1543">usantatecla.models.Game</text><line style="stroke: #A80036; stroke-width: 1.5;" x1="319" x2="503" y1="219" y2="219"/><line style="stroke: #A80036; stroke-width: 1.5;" x1="319" x2="503" y1="227" y2="227"/><!--MD5=[748e3791006be7c767b2778e01d447c5]
class consoleView--><rect codeLine="18" fill="#FEFECE" filter="url(#f14n14iq2skafy)" height="48" id="consoleView" style="stroke: #A80036; stroke-width: 1.5;" width="276" x="7" y="187"/><ellipse cx="22" cy="203" fill="#ADD1B2" rx="11" ry="11" style="stroke: #A80036; stroke-width: 1.0;"/><path d="M24.3438,198.6719 C23.4063,198.2344 22.8125,198.0938 21.9375,198.0938 C19.3125,198.0938 17.3125,200.1719 17.3125,202.8906 L17.3125,204.0156 C17.3125,206.5938 19.4219,208.4844 22.3125,208.4844 C23.5313,208.4844 24.6875,208.1875 25.4375,207.6406 C26.0156,207.2344 26.3438,206.7813 26.3438,206.3906 C26.3438,205.9375 25.9531,205.5469 25.4844,205.5469 C25.2656,205.5469 25.0625,205.625 24.875,205.8125 C24.4219,206.2969 24.4219,206.2969 24.2344,206.3906 C23.8125,206.6563 23.125,206.7813 22.3594,206.7813 C20.3125,206.7813 19.0156,205.6875 19.0156,203.9844 L19.0156,202.8906 C19.0156,201.1094 20.2656,199.7969 22,199.7969 C22.5781,199.7969 23.1875,199.9531 23.6563,200.2031 C24.1406,200.4844 24.3125,200.7031 24.4063,201.1094 C24.4688,201.5156 24.5,201.6406 24.6406,201.7656 C24.7813,201.9063 25.0156,202.0156 25.2344,202.0156 C25.5,202.0156 25.7656,201.875 25.9375,201.6563 C26.0469,201.5 26.0781,201.3125 26.0781,200.8906 L26.0781,199.4688 C26.0781,199.0313 26.0625,198.9063 25.9688,198.75 C25.8125,198.4844 25.5313,198.3438 25.2344,198.3438 C24.9375,198.3438 24.7344,198.4375 24.5156,198.75 L24.3438,198.6719 Z "/><text fill="#000000" font-family="sans-serif" font-size="12" lengthAdjust="spacingAndGlyphs" textLength="244" x="36" y="207.1543">usantatecla.tictactoe.views.console.View</text><line style="stroke: #A80036; stroke-width: 1.5;" x1="8" x2="282" y1="219" y2="219"/><line style="stroke: #A80036; stroke-width: 1.5;" x1="8" x2="282" y1="227" y2="227"/><!--MD5=[059db5ba063e7a61d0f274c02868b83b]
class graphicsView--><rect codeLine="19" fill="#FEFECE" filter="url(#f14n14iq2skafy)" height="48" id="graphicsView" style="stroke: #A80036; stroke-width: 1.5;" width="280" x="539" y="187"/><ellipse cx="554" cy="203" fill="#ADD1B2" rx="11" ry="11" style="stroke: #A80036; stroke-width: 1.0;"/><path d="M556.3438,198.6719 C555.4063,198.2344 554.8125,198.0938 553.9375,198.0938 C551.3125,198.0938 549.3125,200.1719 549.3125,202.8906 L549.3125,204.0156 C549.3125,206.5938 551.4219,208.4844 554.3125,208.4844 C555.5313,208.4844 556.6875,208.1875 557.4375,207.6406 C558.0156,207.2344 558.3438,206.7813 558.3438,206.3906 C558.3438,205.9375 557.9531,205.5469 557.4844,205.5469 C557.2656,205.5469 557.0625,205.625 556.875,205.8125 C556.4219,206.2969 556.4219,206.2969 556.2344,206.3906 C555.8125,206.6563 555.125,206.7813 554.3594,206.7813 C552.3125,206.7813 551.0156,205.6875 551.0156,203.9844 L551.0156,202.8906 C551.0156,201.1094 552.2656,199.7969 554,199.7969 C554.5781,199.7969 555.1875,199.9531 555.6563,200.2031 C556.1406,200.4844 556.3125,200.7031 556.4063,201.1094 C556.4688,201.5156 556.5,201.6406 556.6406,201.7656 C556.7813,201.9063 557.0156,202.0156 557.2344,202.0156 C557.5,202.0156 557.7656,201.875 557.9375,201.6563 C558.0469,201.5 558.0781,201.3125 558.0781,200.8906 L558.0781,199.4688 C558.0781,199.0313 558.0625,198.9063 557.9688,198.75 C557.8125,198.4844 557.5313,198.3438 557.2344,198.3438 C556.9375,198.3438 556.7344,198.4375 556.5156,198.75 L556.3438,198.6719 Z "/><text fill="#000000" font-family="sans-serif" font-size="12" lengthAdjust="spacingAndGlyphs" textLength="248" x="568" y="207.1543">usantatecla.tictactoe.views.graphics.View</text><line style="stroke: #A80036; stroke-width: 1.5;" x1="540" x2="818" y1="219" y2="219"/><line style="stroke: #A80036; stroke-width: 1.5;" x1="540" x2="818" y1="227" y2="227"/><!--MD5=[dee294772fe5daf7cc0f08db86d7f647]
link usantatecla.tictactoe.ConsoleTicTacToe to Game--><path codeLine="21" d="M358.4817,137.0574 C358.4817,137.0574 378.185,164.423 386.58,176.0832 " fill="none" id="usantatecla.tictactoe.ConsoleTicTacToe-Game" style="stroke: #A80036; stroke-width: 1.0;"/><polygon fill="#A80036" points="394.204,186.6717,392.1914,177.0307,391.2825,182.614,385.6991,181.7051,394.204,186.6717" style="stroke: #A80036; stroke-width: 1.0;"/><line style="stroke: #A80036; stroke-width: 1.0;" x1="391.2825" x2="386.6075" y1="182.614" y2="176.1217"/><polygon fill="#A80036" points="351.47,127.319,351.7297,134.5254,358.4817,137.0574,358.222,129.851,351.47,127.319" style="stroke: #A80036; stroke-width: 1.0;"/><!--MD5=[1e93a494ab703947dc307a8569c83675]
link usantatecla.tictactoe.GraphicsTicTacToe to Game--><path codeLine="22" d="M462.909,137.0944 C462.909,137.0944 443.647,164.1477 435.406,175.722 " fill="none" id="usantatecla.tictactoe.GraphicsTicTacToe-Game" style="stroke: #A80036; stroke-width: 1.0;"/><polygon fill="#A80036" points="427.61,186.6717,436.0885,181.6602,430.51,182.5986,429.5715,177.0202,427.61,186.6717" style="stroke: #A80036; stroke-width: 1.0;"/><line style="stroke: #A80036; stroke-width: 1.0;" x1="430.51" x2="435.1495" y1="182.5986" y2="176.0817"/><polygon fill="#A80036" points="469.869,127.319,463.1305,129.8867,462.909,137.0944,469.6475,134.5267,469.869,127.319" style="stroke: #A80036; stroke-width: 1.0;"/><!--MD5=[512b992d03a4b7bedfc8cf304e76948a]
link usantatecla.tictactoe.ConsoleTicTacToe to consoleView--><path codeLine="23" d="M251.6301,134.2671 C251.6301,134.2671 207.238,165.7969 188.446,179.1431 " fill="none" id="usantatecla.tictactoe.ConsoleTicTacToe-consoleView" style="stroke: #A80036; stroke-width: 1.0;"/><polygon fill="#A80036" points="177.846,186.6717,187.4997,184.7209,181.9223,183.7762,182.867,178.1988,177.846,186.6717" style="stroke: #A80036; stroke-width: 1.0;"/><line style="stroke: #A80036; stroke-width: 1.0;" x1="181.9223" x2="188.445" y1="183.7762" y2="179.1441"/><polygon fill="#A80036" points="261.414,127.319,254.206,127.5317,251.6301,134.2671,258.8381,134.0543,261.414,127.319" style="stroke: #A80036; stroke-width: 1.0;"/><!--MD5=[e77cae99886e5ae8d7b3ef18799ed259]
link usantatecla.tictactoe.GraphicsTicTacToe to graphicsView--><path codeLine="24" d="M570.4396,134.1894 C570.4396,134.1894 615.904,165.9385 635.053,179.3104 " fill="none" id="usantatecla.tictactoe.GraphicsTicTacToe-graphicsView" style="stroke: #A80036; stroke-width: 1.0;"/><polygon fill="#A80036" points="645.849,186.8499,640.7602,178.4176,641.7496,183.9872,636.1799,184.9767,645.849,186.8499" style="stroke: #A80036; stroke-width: 1.0;"/><line style="stroke: #A80036; stroke-width: 1.0;" x1="641.7496" x2="635.191" y1="183.9872" y2="179.4069"/><polygon fill="#A80036" points="560.601,127.319,563.2301,134.0337,570.4396,134.1894,567.8104,127.4747,560.601,127.319" style="stroke: #A80036; stroke-width: 1.0;"/><!--MD5=[2f71a0d16eb9641b45287b29e5f1cdf9]
@startuml
class usantatecla.tictactoe.ConsoleTicTacToe {

	ConsoleTicTacToe()
	- play()
	+ {static} main(String[])

}

class usantatecla.tictactoe.GraphicsTicTacToe {

	- GraphicsTicTacToe()
	- play()
	+ {static} main(String[])

}

class Game as "usantatecla.models.Game"
class consoleView as "usantatecla.tictactoe.views.console.View"
class graphicsView as "usantatecla.tictactoe.views.graphics.View"

usantatecla.tictactoe.ConsoleTicTacToe *-down-> Game
usantatecla.tictactoe.GraphicsTicTacToe *-down-> Game
usantatecla.tictactoe.ConsoleTicTacToe *-down-> consoleView
usantatecla.tictactoe.GraphicsTicTacToe *-down-> graphicsView
@enduml

PlantUML version 1.2020.20beta7(Unknown compile time)
(GPL source distribution)
Java Runtime: Java(TM) SE Runtime Environment
JVM: Java HotSpot(TM) 64-Bit Server VM
Default Encoding: UTF-8
Language: en
Country: US
--></g></svg>