<?xml version="1.0" encoding="UTF-8" standalone="no"?><svg xmlns="http://www.w3.org/2000/svg" xmlns:xlink="http://www.w3.org/1999/xlink" contentScriptType="application/ecmascript" contentStyleType="text/css" height="454px" preserveAspectRatio="none" style="width:649px;height:454px;" version="1.1" viewBox="0 0 649 454" width="649px" zoomAndPan="magnify"><defs><filter height="300%" id="fis2yq05r51ir" width="300%" x="-1" y="-1"><feGaussianBlur result="blurOut" stdDeviation="2.0"/><feColorMatrix in="blurOut" result="blurOut2" type="matrix" values="0 0 0 0 0 0 0 0 0 0 0 0 0 0 0 0 0 0 .4 0"/><feOffset dx="4.0" dy="4.0" in="blurOut2" result="blurOut3"/><feBlend in="SourceGraphic" in2="blurOut3" mode="normal"/></filter></defs><g><!--MD5=[f4e83a21a957c5b9ba9691e6361db36b]
cluster tictactoe.views--><polygon fill="#FFFFFF" filter="url(#fis2yq05r51ir)" points="16,6,148,6,155,28.2969,632,28.2969,632,348,16,348,16,6" style="stroke: #000000; stroke-width: 1.5;"/><line style="stroke: #000000; stroke-width: 1.5;" x1="16" x2="155" y1="28.2969" y2="28.2969"/><text fill="#000000" font-family="sans-serif" font-size="14" font-weight="bold" lengthAdjust="spacingAndGlyphs" textLength="126" x="20" y="20.9951">tictactoe.views</text><!--MD5=[17799e03bfee0ccb3aa03b93da9c26d6]
class tictactoe.views.ErrorView--><rect codeLine="1" fill="#FEFECE" filter="url(#fis2yq05r51ir)" height="73.6094" id="tictactoe.views.ErrorView" style="stroke: #A80036; stroke-width: 1.5;" width="145" x="32.5" y="149.5"/><ellipse cx="71.8" cy="165.5" fill="#ADD1B2" rx="11" ry="11" style="stroke: #A80036; stroke-width: 1.0;"/><path d="M74.1438,161.1719 C73.2063,160.7344 72.6125,160.5938 71.7375,160.5938 C69.1125,160.5938 67.1125,162.6719 67.1125,165.3906 L67.1125,166.5156 C67.1125,169.0938 69.2219,170.9844 72.1125,170.9844 C73.3313,170.9844 74.4875,170.6875 75.2375,170.1406 C75.8156,169.7344 76.1438,169.2813 76.1438,168.8906 C76.1438,168.4375 75.7531,168.0469 75.2844,168.0469 C75.0656,168.0469 74.8625,168.125 74.675,168.3125 C74.2219,168.7969 74.2219,168.7969 74.0344,168.8906 C73.6125,169.1563 72.925,169.2813 72.1594,169.2813 C70.1125,169.2813 68.8156,168.1875 68.8156,166.4844 L68.8156,165.3906 C68.8156,163.6094 70.0656,162.2969 71.8,162.2969 C72.3781,162.2969 72.9875,162.4531 73.4563,162.7031 C73.9406,162.9844 74.1125,163.2031 74.2063,163.6094 C74.2688,164.0156 74.3,164.1406 74.4406,164.2656 C74.5813,164.4063 74.8156,164.5156 75.0344,164.5156 C75.3,164.5156 75.5656,164.375 75.7375,164.1563 C75.8469,164 75.8781,163.8125 75.8781,163.3906 L75.8781,161.9688 C75.8781,161.5313 75.8625,161.4063 75.7688,161.25 C75.6125,160.9844 75.3313,160.8438 75.0344,160.8438 C74.7375,160.8438 74.5344,160.9375 74.3156,161.25 L74.1438,161.1719 Z "/><text fill="#000000" font-family="sans-serif" font-size="12" lengthAdjust="spacingAndGlyphs" textLength="59" x="91.2" y="169.6543">ErrorView</text><line style="stroke: #A80036; stroke-width: 1.5;" x1="33.5" x2="176.5" y1="181.5" y2="181.5"/><ellipse cx="43.5" cy="192.5" fill="none" rx="3" ry="3" style="stroke: #038048; stroke-width: 1.0;"/><text fill="#000000" font-family="sans-serif" font-size="11" lengthAdjust="spacingAndGlyphs" text-decoration="underline" textLength="109" x="52.5" y="195.7104">String[] MESSAGES</text><line style="stroke: #A80036; stroke-width: 1.5;" x1="33.5" x2="176.5" y1="202.3047" y2="202.3047"/><ellipse cx="43.5" cy="213.3047" fill="#84BE84" rx="3" ry="3" style="stroke: #038048; stroke-width: 1.0;"/><text fill="#000000" font-family="sans-serif" font-size="11" lengthAdjust="spacingAndGlyphs" textLength="119" x="52.5" y="216.5151">ErrorView(Error error)</text><!--MD5=[8b95091471898ea6b0cbbbb1cd164db3]
class tictactoe.views.Message--><rect codeLine="9" fill="#FEFECE" filter="url(#fis2yq05r51ir)" height="291.2891" id="tictactoe.views.Message" style="stroke: #A80036; stroke-width: 1.5;" width="218" x="213" y="41"/><ellipse cx="290.25" cy="57" fill="#EB937F" rx="11" ry="11" style="stroke: #A80036; stroke-width: 1.0;"/><path d="M289.0469,57.875 L290.5,57.875 L290.5,57.9844 C290.5,58.3906 290.5313,58.5469 290.6094,58.7031 C290.7656,58.9531 291.0469,59.1094 291.3438,59.1094 C291.5938,59.1094 291.8594,58.9688 292.0156,58.75 C292.1406,58.5938 292.1719,58.4375 292.1719,57.9844 L292.1719,56.0625 C292.1719,55.9063 292.1719,55.8594 292.1563,55.7031 C292.0938,55.2344 291.7813,54.9219 291.3281,54.9219 C291.0781,54.9219 290.8125,55.0625 290.6406,55.2813 C290.5313,55.4531 290.5,55.6094 290.5,56.0625 L290.5,56.1875 L289.0469,56.1875 L289.0469,53.7813 L293.0313,53.7813 L293.0313,54.6406 C293.0313,55.0469 293.0625,55.2188 293.1406,55.375 C293.3125,55.625 293.5938,55.7813 293.875,55.7813 C294.1406,55.7813 294.4063,55.6406 294.5781,55.4219 C294.6875,55.25 294.7188,55.1094 294.7188,54.6406 L294.7188,52.0938 L287.0938,52.0938 C286.6563,52.0938 286.5313,52.1094 286.375,52.2031 C286.125,52.3594 285.9688,52.6563 285.9688,52.9375 C285.9688,53.2188 286.1094,53.4688 286.3281,53.6406 C286.4844,53.75 286.6719,53.7813 287.0938,53.7813 L287.3438,53.7813 L287.3438,60.2969 L287.0938,60.2969 C286.6875,60.2969 286.5313,60.3125 286.375,60.4219 C286.125,60.5938 285.9688,60.8594 285.9688,61.1563 C285.9688,61.4219 286.1094,61.6719 286.3281,61.8281 C286.4688,61.9531 286.7031,62 287.0938,62 L295.0938,62 L295.0938,59.4219 C295.0938,58.9844 295.0625,58.8438 294.9844,58.6875 C294.8125,58.4375 294.5313,58.2813 294.25,58.2813 C293.9844,58.2813 293.7188,58.3906 293.5469,58.6406 C293.4375,58.7969 293.4063,58.9375 293.4063,59.4219 L293.4063,60.2969 L289.0469,60.2969 L289.0469,57.875 Z "/><text fill="#000000" font-family="sans-serif" font-size="12" lengthAdjust="spacingAndGlyphs" textLength="55" x="310.75" y="61.1543">Message</text><line style="stroke: #A80036; stroke-width: 1.5;" x1="214" x2="430" y1="73" y2="73"/><ellipse cx="224" cy="84" fill="none" rx="3" ry="3" style="stroke: #038048; stroke-width: 1.0;"/><text fill="#000000" font-family="sans-serif" font-size="11" lengthAdjust="spacingAndGlyphs" textLength="37" x="233" y="87.2104">TITTLE</text><ellipse cx="224" cy="96.8047" fill="none" rx="3" ry="3" style="stroke: #038048; stroke-width: 1.0;"/><text fill="#000000" font-family="sans-serif" font-size="11" lengthAdjust="spacingAndGlyphs" textLength="102" x="233" y="100.0151">NUMBER_PLAYERS</text><ellipse cx="224" cy="109.6094" fill="none" rx="3" ry="3" style="stroke: #038048; stroke-width: 1.0;"/><text fill="#000000" font-family="sans-serif" font-size="11" lengthAdjust="spacingAndGlyphs" textLength="67" x="233" y="112.8198">SEPARATOR</text><ellipse cx="224" cy="122.4141" fill="none" rx="3" ry="3" style="stroke: #038048; stroke-width: 1.0;"/><text fill="#000000" font-family="sans-serif" font-size="11" lengthAdjust="spacingAndGlyphs" textLength="116" x="233" y="125.6245">VERTICAL_LINE_LEFT</text><ellipse cx="224" cy="135.2188" fill="none" rx="3" ry="3" style="stroke: #038048; stroke-width: 1.0;"/><text fill="#000000" font-family="sans-serif" font-size="11" lengthAdjust="spacingAndGlyphs" textLength="150" x="233" y="138.4292">VERTICAL_LINE_CENTERED</text><ellipse cx="224" cy="148.0234" fill="none" rx="3" ry="3" style="stroke: #038048; stroke-width: 1.0;"/><text fill="#000000" font-family="sans-serif" font-size="11" lengthAdjust="spacingAndGlyphs" textLength="124" x="233" y="151.2339">VERTICAL_LINE_RIGHT</text><ellipse cx="224" cy="160.8281" fill="none" rx="3" ry="3" style="stroke: #038048; stroke-width: 1.0;"/><text fill="#000000" font-family="sans-serif" font-size="11" lengthAdjust="spacingAndGlyphs" textLength="166" x="233" y="164.0386">ENTER_COORDINATE_TO_PUT</text><ellipse cx="224" cy="173.6328" fill="none" rx="3" ry="3" style="stroke: #038048; stroke-width: 1.0;"/><text fill="#000000" font-family="sans-serif" font-size="11" lengthAdjust="spacingAndGlyphs" textLength="192" x="233" y="176.8433">ENTER_COORDINATE_TO_REMOVE</text><ellipse cx="224" cy="186.4375" fill="none" rx="3" ry="3" style="stroke: #038048; stroke-width: 1.0;"/><text fill="#000000" font-family="sans-serif" font-size="11" lengthAdjust="spacingAndGlyphs" textLength="124" x="233" y="189.6479">COORDINATE_TO_PUT</text><ellipse cx="224" cy="199.2422" fill="none" rx="3" ry="3" style="stroke: #038048; stroke-width: 1.0;"/><text fill="#000000" font-family="sans-serif" font-size="11" lengthAdjust="spacingAndGlyphs" textLength="150" x="233" y="202.4526">COORDINATE_TO_REMOVE</text><ellipse cx="224" cy="212.0469" fill="none" rx="3" ry="3" style="stroke: #038048; stroke-width: 1.0;"/><text fill="#000000" font-family="sans-serif" font-size="11" lengthAdjust="spacingAndGlyphs" textLength="136" x="233" y="215.2573">COORDINATE_TO_MOVE</text><ellipse cx="224" cy="224.8516" fill="none" rx="3" ry="3" style="stroke: #038048; stroke-width: 1.0;"/><text fill="#000000" font-family="sans-serif" font-size="11" lengthAdjust="spacingAndGlyphs" textLength="69" x="233" y="228.062">PLAYER_WIN</text><ellipse cx="224" cy="237.6563" fill="none" rx="3" ry="3" style="stroke: #038048; stroke-width: 1.0;"/><text fill="#000000" font-family="sans-serif" font-size="11" lengthAdjust="spacingAndGlyphs" textLength="46" x="233" y="240.8667">RESUME</text><rect fill="none" height="6" style="stroke: #C82930; stroke-width: 1.0;" width="6" x="221" y="247.4609"/><text fill="#000000" font-family="sans-serif" font-size="11" lengthAdjust="spacingAndGlyphs" textLength="93" x="233" y="253.6714">String message;</text><line style="stroke: #A80036; stroke-width: 1.5;" x1="214" x2="430" y1="260.2656" y2="260.2656"/><rect fill="#F24D5C" height="6" style="stroke: #C82930; stroke-width: 1.0;" width="6" x="221" y="268.2656"/><text fill="#000000" font-family="sans-serif" font-size="11" lengthAdjust="spacingAndGlyphs" textLength="149" x="233" y="274.4761">Message(String message)</text><ellipse cx="224" cy="284.0703" fill="#84BE84" rx="3" ry="3" style="stroke: #038048; stroke-width: 1.0;"/><text fill="#000000" font-family="sans-serif" font-size="11" lengthAdjust="spacingAndGlyphs" textLength="115" x="233" y="287.2808">String getMessage()</text><ellipse cx="224" cy="296.875" fill="#84BE84" rx="3" ry="3" style="stroke: #038048; stroke-width: 1.0;"/><text fill="#000000" font-family="sans-serif" font-size="11" lengthAdjust="spacingAndGlyphs" textLength="36" x="233" y="300.0854">write()</text><ellipse cx="224" cy="309.6797" fill="#84BE84" rx="3" ry="3" style="stroke: #038048; stroke-width: 1.0;"/><text fill="#000000" font-family="sans-serif" font-size="11" lengthAdjust="spacingAndGlyphs" textLength="46" x="233" y="312.8901">writeln()</text><ellipse cx="224" cy="322.4844" fill="#84BE84" rx="3" ry="3" style="stroke: #038048; stroke-width: 1.0;"/><text fill="#000000" font-family="sans-serif" font-size="11" lengthAdjust="spacingAndGlyphs" textLength="89" x="233" y="325.6948">String toString()</text><!--MD5=[015754420c4cdd9bacda884b3fa8c6ca]
class tictactoe.views.View--><rect codeLine="33" fill="#FEFECE" filter="url(#fis2yq05r51ir)" height="112.0234" id="tictactoe.views.View" style="stroke: #A80036; stroke-width: 1.5;" width="150" x="466" y="130.5"/><ellipse cx="522.25" cy="146.5" fill="#ADD1B2" rx="11" ry="11" style="stroke: #A80036; stroke-width: 1.0;"/><path d="M524.5938,142.1719 C523.6563,141.7344 523.0625,141.5938 522.1875,141.5938 C519.5625,141.5938 517.5625,143.6719 517.5625,146.3906 L517.5625,147.5156 C517.5625,150.0938 519.6719,151.9844 522.5625,151.9844 C523.7813,151.9844 524.9375,151.6875 525.6875,151.1406 C526.2656,150.7344 526.5938,150.2813 526.5938,149.8906 C526.5938,149.4375 526.2031,149.0469 525.7344,149.0469 C525.5156,149.0469 525.3125,149.125 525.125,149.3125 C524.6719,149.7969 524.6719,149.7969 524.4844,149.8906 C524.0625,150.1563 523.375,150.2813 522.6094,150.2813 C520.5625,150.2813 519.2656,149.1875 519.2656,147.4844 L519.2656,146.3906 C519.2656,144.6094 520.5156,143.2969 522.25,143.2969 C522.8281,143.2969 523.4375,143.4531 523.9063,143.7031 C524.3906,143.9844 524.5625,144.2031 524.6563,144.6094 C524.7188,145.0156 524.75,145.1406 524.8906,145.2656 C525.0313,145.4063 525.2656,145.5156 525.4844,145.5156 C525.75,145.5156 526.0156,145.375 526.1875,145.1563 C526.2969,145 526.3281,144.8125 526.3281,144.3906 L526.3281,142.9688 C526.3281,142.5313 526.3125,142.4063 526.2188,142.25 C526.0625,141.9844 525.7813,141.8438 525.4844,141.8438 C525.1875,141.8438 524.9844,141.9375 524.7656,142.25 L524.5938,142.1719 Z "/><text fill="#000000" font-family="sans-serif" font-size="12" lengthAdjust="spacingAndGlyphs" textLength="29" x="542.75" y="150.6543">View</text><line style="stroke: #A80036; stroke-width: 1.5;" x1="467" x2="615" y1="162.5" y2="162.5"/><line style="stroke: #A80036; stroke-width: 1.5;" x1="467" x2="615" y1="170.5" y2="170.5"/><ellipse cx="477" cy="181.5" fill="#84BE84" rx="3" ry="3" style="stroke: #038048; stroke-width: 1.0;"/><text fill="#000000" font-family="sans-serif" font-size="11" lengthAdjust="spacingAndGlyphs" textLength="108" x="486" y="184.7104">View(Game game)</text><ellipse cx="477" cy="194.3047" fill="#84BE84" rx="3" ry="3" style="stroke: #038048; stroke-width: 1.0;"/><text fill="#000000" font-family="sans-serif" font-size="11" lengthAdjust="spacingAndGlyphs" textLength="51" x="486" y="197.5151">interact()</text><polygon fill="#FFFF44" points="477,202.1094,481,206.1094,477,210.1094,473,206.1094" style="stroke: #B38D22; stroke-width: 1.0;"/><text fill="#000000" font-family="sans-serif" font-size="11" font-style="italic" lengthAdjust="spacingAndGlyphs" textLength="34" x="486" y="210.3198">start()</text><polygon fill="#FFFF44" points="477,214.9141,481,218.9141,477,222.9141,473,218.9141" style="stroke: #B38D22; stroke-width: 1.0;"/><text fill="#000000" font-family="sans-serif" font-size="11" font-style="italic" lengthAdjust="spacingAndGlyphs" textLength="32" x="486" y="223.1245">play()</text><polygon fill="#FFFF44" points="477,227.7188,481,231.7188,477,235.7188,473,231.7188" style="stroke: #B38D22; stroke-width: 1.0;"/><text fill="#000000" font-family="sans-serif" font-size="11" font-style="italic" lengthAdjust="spacingAndGlyphs" textLength="124" x="486" y="235.9292">boolean isNewGame()</text><!--MD5=[b6dcce5e5ef3c84b0b048d11301373dd]
class Game--><rect codeLine="43" fill="#FEFECE" filter="url(#fis2yq05r51ir)" height="48" id="Game" style="stroke: #A80036; stroke-width: 1.5;" width="170" x="456" y="392"/><ellipse cx="471" cy="408" fill="#ADD1B2" rx="11" ry="11" style="stroke: #A80036; stroke-width: 1.0;"/><path d="M473.3438,403.6719 C472.4063,403.2344 471.8125,403.0938 470.9375,403.0938 C468.3125,403.0938 466.3125,405.1719 466.3125,407.8906 L466.3125,409.0156 C466.3125,411.5938 468.4219,413.4844 471.3125,413.4844 C472.5313,413.4844 473.6875,413.1875 474.4375,412.6406 C475.0156,412.2344 475.3438,411.7813 475.3438,411.3906 C475.3438,410.9375 474.9531,410.5469 474.4844,410.5469 C474.2656,410.5469 474.0625,410.625 473.875,410.8125 C473.4219,411.2969 473.4219,411.2969 473.2344,411.3906 C472.8125,411.6563 472.125,411.7813 471.3594,411.7813 C469.3125,411.7813 468.0156,410.6875 468.0156,408.9844 L468.0156,407.8906 C468.0156,406.1094 469.2656,404.7969 471,404.7969 C471.5781,404.7969 472.1875,404.9531 472.6563,405.2031 C473.1406,405.4844 473.3125,405.7031 473.4063,406.1094 C473.4688,406.5156 473.5,406.6406 473.6406,406.7656 C473.7813,406.9063 474.0156,407.0156 474.2344,407.0156 C474.5,407.0156 474.7656,406.875 474.9375,406.6563 C475.0469,406.5 475.0781,406.3125 475.0781,405.8906 L475.0781,404.4688 C475.0781,404.0313 475.0625,403.9063 474.9688,403.75 C474.8125,403.4844 474.5313,403.3438 474.2344,403.3438 C473.9375,403.3438 473.7344,403.4375 473.5156,403.75 L473.3438,403.6719 Z "/><text fill="#000000" font-family="sans-serif" font-size="12" lengthAdjust="spacingAndGlyphs" textLength="138" x="485" y="412.1543">tictactoe.models.Game</text><line style="stroke: #A80036; stroke-width: 1.5;" x1="457" x2="625" y1="424" y2="424"/><line style="stroke: #A80036; stroke-width: 1.5;" x1="457" x2="625" y1="432" y2="432"/><!--MD5=[315b61b427ec618d6861d47eee00cca3]
class Console--><rect codeLine="44" fill="#FEFECE" filter="url(#fis2yq05r51ir)" height="48" id="Console" style="stroke: #A80036; stroke-width: 1.5;" width="108" x="268" y="392"/><ellipse cx="283" cy="408" fill="#ADD1B2" rx="11" ry="11" style="stroke: #A80036; stroke-width: 1.0;"/><path d="M285.3438,403.6719 C284.4063,403.2344 283.8125,403.0938 282.9375,403.0938 C280.3125,403.0938 278.3125,405.1719 278.3125,407.8906 L278.3125,409.0156 C278.3125,411.5938 280.4219,413.4844 283.3125,413.4844 C284.5313,413.4844 285.6875,413.1875 286.4375,412.6406 C287.0156,412.2344 287.3438,411.7813 287.3438,411.3906 C287.3438,410.9375 286.9531,410.5469 286.4844,410.5469 C286.2656,410.5469 286.0625,410.625 285.875,410.8125 C285.4219,411.2969 285.4219,411.2969 285.2344,411.3906 C284.8125,411.6563 284.125,411.7813 283.3594,411.7813 C281.3125,411.7813 280.0156,410.6875 280.0156,408.9844 L280.0156,407.8906 C280.0156,406.1094 281.2656,404.7969 283,404.7969 C283.5781,404.7969 284.1875,404.9531 284.6563,405.2031 C285.1406,405.4844 285.3125,405.7031 285.4063,406.1094 C285.4688,406.5156 285.5,406.6406 285.6406,406.7656 C285.7813,406.9063 286.0156,407.0156 286.2344,407.0156 C286.5,407.0156 286.7656,406.875 286.9375,406.6563 C287.0469,406.5 287.0781,406.3125 287.0781,405.8906 L287.0781,404.4688 C287.0781,404.0313 287.0625,403.9063 286.9688,403.75 C286.8125,403.4844 286.5313,403.3438 286.2344,403.3438 C285.9375,403.3438 285.7344,403.4375 285.5156,403.75 L285.3438,403.6719 Z "/><text fill="#000000" font-family="sans-serif" font-size="12" lengthAdjust="spacingAndGlyphs" textLength="76" x="297" y="412.1543">utils.Console</text><line style="stroke: #A80036; stroke-width: 1.5;" x1="269" x2="375" y1="424" y2="424"/><line style="stroke: #A80036; stroke-width: 1.5;" x1="269" x2="375" y1="432" y2="432"/><!--MD5=[b8cfd8c4119a3b0a7a46bfc5fc780f85]
class Error--><rect codeLine="45" fill="#FEFECE" filter="url(#fis2yq05r51ir)" height="48" id="Error" style="stroke: #A80036; stroke-width: 1.5;" width="165" x="22.5" y="392"/><ellipse cx="37.5" cy="408" fill="#ADD1B2" rx="11" ry="11" style="stroke: #A80036; stroke-width: 1.0;"/><path d="M39.8438,403.6719 C38.9063,403.2344 38.3125,403.0938 37.4375,403.0938 C34.8125,403.0938 32.8125,405.1719 32.8125,407.8906 L32.8125,409.0156 C32.8125,411.5938 34.9219,413.4844 37.8125,413.4844 C39.0313,413.4844 40.1875,413.1875 40.9375,412.6406 C41.5156,412.2344 41.8438,411.7813 41.8438,411.3906 C41.8438,410.9375 41.4531,410.5469 40.9844,410.5469 C40.7656,410.5469 40.5625,410.625 40.375,410.8125 C39.9219,411.2969 39.9219,411.2969 39.7344,411.3906 C39.3125,411.6563 38.625,411.7813 37.8594,411.7813 C35.8125,411.7813 34.5156,410.6875 34.5156,408.9844 L34.5156,407.8906 C34.5156,406.1094 35.7656,404.7969 37.5,404.7969 C38.0781,404.7969 38.6875,404.9531 39.1563,405.2031 C39.6406,405.4844 39.8125,405.7031 39.9063,406.1094 C39.9688,406.5156 40,406.6406 40.1406,406.7656 C40.2813,406.9063 40.5156,407.0156 40.7344,407.0156 C41,407.0156 41.2656,406.875 41.4375,406.6563 C41.5469,406.5 41.5781,406.3125 41.5781,405.8906 L41.5781,404.4688 C41.5781,404.0313 41.5625,403.9063 41.4688,403.75 C41.3125,403.4844 41.0313,403.3438 40.7344,403.3438 C40.4375,403.3438 40.2344,403.4375 40.0156,403.75 L39.8438,403.6719 Z "/><text fill="#000000" font-family="sans-serif" font-size="12" lengthAdjust="spacingAndGlyphs" textLength="133" x="51.5" y="412.1543">tictactoe.models.Error</text><line style="stroke: #A80036; stroke-width: 1.5;" x1="23.5" x2="186.5" y1="424" y2="424"/><line style="stroke: #A80036; stroke-width: 1.5;" x1="23.5" x2="186.5" y1="432" y2="432"/><!--MD5=[6b5fb949459e9919da652f12454cf9c5]
link tictactoe.views.ErrorView to Error--><path codeLine="47" d="M105,235.548 C105,235.548 105,340.4967 105,378.8913 " fill="none" id="tictactoe.views.ErrorView-Error" style="stroke: #A80036; stroke-width: 1.0;"/><polygon fill="#A80036" points="105,391.9399,109,382.9399,105,386.9399,101,382.9399,105,391.9399" style="stroke: #A80036; stroke-width: 1.0;"/><line style="stroke: #A80036; stroke-width: 1.0;" x1="105" x2="105" y1="386.9399" y2="378.9399"/><polygon fill="#A80036" points="105,223.548,101,229.548,105,235.548,109,229.548,105,223.548" style="stroke: #A80036; stroke-width: 1.0;"/><!--MD5=[b9dbb39a1c61277113646da44606cabc]
link tictactoe.views.View to Game--><path codeLine="48" d="M541,254.571 C541,254.571 541,345.8111 541,378.7792 " fill="none" id="tictactoe.views.View-Game" style="stroke: #A80036; stroke-width: 1.0;"/><polygon fill="#A80036" points="541,391.8186,545,382.8186,541,386.8186,537,382.8186,541,391.8186" style="stroke: #A80036; stroke-width: 1.0;"/><line style="stroke: #A80036; stroke-width: 1.0;" x1="541" x2="541" y1="386.8186" y2="378.8185"/><polygon fill="#A80036" points="541,242.571,537,248.571,541,254.571,545,248.571,541,242.571" style="stroke: #A80036; stroke-width: 1.0;"/><!--MD5=[c07da26758a9269fd0b37bd7c33bafaa]
link tictactoe.views.Message to Console--><path codeLine="49" d="M322,332.224 C322,352.8284 322,371.9653 322,386.6372 " fill="none" id="tictactoe.views.Message-to-Console" style="stroke: #A80036; stroke-width: 1.0; stroke-dasharray: 7.0,7.0;"/><polygon fill="#A80036" points="322,391.8351,326,382.8351,322,386.8351,318,382.8351,322,391.8351" style="stroke: #A80036; stroke-width: 1.0;"/><!--MD5=[0e3501428781c51e8a2f653f99a6178f]
@startuml
class tictactoe.views.ErrorView {

	+ {static} String[] MESSAGES

	+ ErrorView(Error error)

}

enum tictactoe.views.Message {
    + TITTLE
	+ NUMBER_PLAYERS
	+ SEPARATOR
	+ VERTICAL_LINE_LEFT
	+ VERTICAL_LINE_CENTERED
	+ VERTICAL_LINE_RIGHT
	+ ENTER_COORDINATE_TO_PUT
	+ ENTER_COORDINATE_TO_REMOVE
	+ COORDINATE_TO_PUT
	+ COORDINATE_TO_REMOVE
	+ COORDINATE_TO_MOVE
	+ PLAYER_WIN
	+ RESUME
	- String message;

	- Message(String message)
	+ String getMessage()
	+ write()
	+ writeln()
	+ String toString()

}

class tictactoe.views.View {

	+ View(Game game)
	+ interact()
	# {abstract} start()
	# {abstract} play()
	# {abstract} boolean isNewGame()

}

class Game as "tictactoe.models.Game"
class Console as "utils.Console"
class Error as "tictactoe.models.Error"

tictactoe.views.ErrorView *- -> Error
tictactoe.views.View *- -> Game
tictactoe.views.Message ..> Console
@enduml

PlantUML version 1.2020.20beta4(Unknown compile time)
(GPL source distribution)
Java Runtime: Java(TM) SE Runtime Environment
JVM: Java HotSpot(TM) 64-Bit Server VM
Default Encoding: UTF-8
Language: en
Country: US
--></g></svg>