<?xml version="1.0" encoding="UTF-8" standalone="no"?><svg xmlns="http://www.w3.org/2000/svg" xmlns:xlink="http://www.w3.org/1999/xlink" contentScriptType="application/ecmascript" contentStyleType="text/css" height="1600px" preserveAspectRatio="none" style="width:2096px;height:1600px;" version="1.1" viewBox="0 0 2096 1600" width="2096px" zoomAndPan="magnify"><defs><filter height="300%" id="f7ihtigdudnho" width="300%" x="-1" y="-1"><feGaussianBlur result="blurOut" stdDeviation="2.0"/><feColorMatrix in="blurOut" result="blurOut2" type="matrix" values="0 0 0 0 0 0 0 0 0 0 0 0 0 0 0 0 0 0 .4 0"/><feOffset dx="4.0" dy="4.0" in="blurOut2" result="blurOut3"/><feBlend in="SourceGraphic" in2="blurOut3" mode="normal"/></filter></defs><g><!--MD5=[b59da53bc4cb019b9115ab51e8207bb0]
cluster usantatecla.tictactoe--><polygon fill="#FFFFFF" filter="url(#f7ihtigdudnho)" points="531.8102,6,716.8102,6,723.8102,28.2969,1811.8132,28.2969,1811.8132,1491,531.8102,1491,531.8102,6" style="stroke: #000000; stroke-width: 1.5;"/><line style="stroke: #000000; stroke-width: 1.5;" x1="531.8102" x2="723.8102" y1="28.2969" y2="28.2969"/><text fill="#000000" font-family="sans-serif" font-size="14" font-weight="bold" lengthAdjust="spacingAndGlyphs" textLength="179" x="535.8102" y="20.9951">usantatecla.tictactoe</text><!--MD5=[1c1463d9f8db069853651be96ebc7f3a]
class usantatecla.tictactoe.Board--><rect codeLine="2" fill="#FEFECE" filter="url(#f7ihtigdudnho)" height="214.4609" id="usantatecla.tictactoe.Board" style="stroke: #A80036; stroke-width: 1.5;" width="262" x="584.8102" y="698"/><ellipse cx="693.5602" cy="714" fill="#ADD1B2" rx="11" ry="11" style="stroke: #A80036; stroke-width: 1.0;"/><path d="M695.904,709.6719 C694.9665,709.2344 694.3727,709.0938 693.4977,709.0938 C690.8727,709.0938 688.8727,711.1719 688.8727,713.8906 L688.8727,715.0156 C688.8727,717.5938 690.9821,719.4844 693.8727,719.4844 C695.0915,719.4844 696.2477,719.1875 696.9977,718.6406 C697.5758,718.2344 697.904,717.7813 697.904,717.3906 C697.904,716.9375 697.5133,716.5469 697.0446,716.5469 C696.8258,716.5469 696.6227,716.625 696.4352,716.8125 C695.9821,717.2969 695.9821,717.2969 695.7946,717.3906 C695.3727,717.6563 694.6852,717.7813 693.9196,717.7813 C691.8727,717.7813 690.5758,716.6875 690.5758,714.9844 L690.5758,713.8906 C690.5758,712.1094 691.8258,710.7969 693.5602,710.7969 C694.1383,710.7969 694.7477,710.9531 695.2165,711.2031 C695.7008,711.4844 695.8727,711.7031 695.9665,712.1094 C696.029,712.5156 696.0602,712.6406 696.2008,712.7656 C696.3415,712.9063 696.5758,713.0156 696.7946,713.0156 C697.0602,713.0156 697.3258,712.875 697.4977,712.6563 C697.6071,712.5 697.6383,712.3125 697.6383,711.8906 L697.6383,710.4688 C697.6383,710.0313 697.6227,709.9063 697.529,709.75 C697.3727,709.4844 697.0915,709.3438 696.7946,709.3438 C696.4977,709.3438 696.2946,709.4375 696.0758,709.75 L695.904,709.6719 Z "/><text fill="#000000" font-family="sans-serif" font-size="12" lengthAdjust="spacingAndGlyphs" textLength="36" x="714.0602" y="718.1543">Board</text><line style="stroke: #A80036; stroke-width: 1.5;" x1="585.8102" x2="845.8102" y1="730" y2="730"/><rect fill="none" height="6" style="stroke: #C82930; stroke-width: 1.0;" width="6" x="592.8102" y="738"/><text fill="#000000" font-family="sans-serif" font-size="11" lengthAdjust="spacingAndGlyphs" textLength="96" x="604.8102" y="744.2104">tokens: Token[][]</text><line style="stroke: #A80036; stroke-width: 1.5;" x1="585.8102" x2="845.8102" y1="750.8047" y2="750.8047"/><polygon fill="#4177AF" points="595.8102,757.8047,591.8102,763.8047,599.8102,763.8047" style="stroke: #1963A0; stroke-width: 1.0;"/><text fill="#000000" font-family="sans-serif" font-size="11" lengthAdjust="spacingAndGlyphs" textLength="41" x="604.8102" y="765.0151">Board()</text><ellipse cx="595.8102" cy="774.6094" fill="#84BE84" rx="3" ry="3" style="stroke: #038048; stroke-width: 1.0;"/><text fill="#000000" font-family="sans-serif" font-size="11" lengthAdjust="spacingAndGlyphs" textLength="38" x="604.8102" y="777.8198">reset()</text><polygon fill="#4177AF" points="595.8102,783.4141,591.8102,789.4141,599.8102,789.4141" style="stroke: #1963A0; stroke-width: 1.0;"/><text fill="#000000" font-family="sans-serif" font-size="11" lengthAdjust="spacingAndGlyphs" textLength="36" x="604.8102" y="790.6245">write()</text><rect fill="#F24D5C" height="6" style="stroke: #C82930; stroke-width: 1.0;" width="6" x="592.8102" y="797.2188"/><text fill="#000000" font-family="sans-serif" font-size="11" lengthAdjust="spacingAndGlyphs" textLength="166" x="604.8102" y="803.4292">getToken(Coordinate): Token</text><polygon fill="#4177AF" points="595.8102,809.0234,591.8102,815.0234,599.8102,815.0234" style="stroke: #1963A0; stroke-width: 1.0;"/><text fill="#000000" font-family="sans-serif" font-size="11" lengthAdjust="spacingAndGlyphs" textLength="133" x="604.8102" y="816.2339">isCompleted(): boolean</text><polygon fill="#4177AF" points="595.8102,821.8281,591.8102,827.8281,599.8102,827.8281" style="stroke: #1963A0; stroke-width: 1.0;"/><text fill="#000000" font-family="sans-serif" font-size="11" lengthAdjust="spacingAndGlyphs" textLength="130" x="604.8102" y="829.0386">put(Coordinate, Token)</text><polygon fill="#4177AF" points="595.8102,834.6328,591.8102,840.6328,599.8102,840.6328" style="stroke: #1963A0; stroke-width: 1.0;"/><text fill="#000000" font-family="sans-serif" font-size="11" lengthAdjust="spacingAndGlyphs" textLength="172" x="604.8102" y="841.8433">move(Coordinate, Coordinate)</text><rect fill="#F24D5C" height="6" style="stroke: #C82930; stroke-width: 1.0;" width="6" x="592.8102" y="848.4375"/><text fill="#000000" font-family="sans-serif" font-size="11" lengthAdjust="spacingAndGlyphs" textLength="115" x="604.8102" y="854.6479">remove(Coordinate)</text><polygon fill="#4177AF" points="595.8102,860.2422,591.8102,866.2422,599.8102,866.2422" style="stroke: #1963A0; stroke-width: 1.0;"/><text fill="#000000" font-family="sans-serif" font-size="11" lengthAdjust="spacingAndGlyphs" textLength="227" x="604.8102" y="867.4526">isOccupied(Coordinate, Token): boolean</text><polygon fill="#4177AF" points="595.8102,873.0469,591.8102,879.0469,599.8102,879.0469" style="stroke: #1963A0; stroke-width: 1.0;"/><text fill="#000000" font-family="sans-serif" font-size="11" lengthAdjust="spacingAndGlyphs" textLength="168" x="604.8102" y="880.2573">isEmpty(Coordinate): boolean</text><polygon fill="#4177AF" points="595.8102,885.8516,591.8102,891.8516,599.8102,891.8516" style="stroke: #1963A0; stroke-width: 1.0;"/><text fill="#000000" font-family="sans-serif" font-size="11" lengthAdjust="spacingAndGlyphs" textLength="163" x="604.8102" y="893.062">isTicTacToe(Token): boolean</text><rect fill="#F24D5C" height="6" style="stroke: #C82930; stroke-width: 1.0;" width="6" x="592.8102" y="899.6563"/><text fill="#000000" font-family="sans-serif" font-size="11" lengthAdjust="spacingAndGlyphs" textLength="236" x="604.8102" y="905.8667">getCoordinates(Token): List&lt;Coordinate&gt;</text><!--MD5=[0990100d77444e20aa254ae593d623a1]
class usantatecla.tictactoe.Coordinate--><rect codeLine="18" fill="#FEFECE" filter="url(#f7ihtigdudnho)" height="188.8516" id="usantatecla.tictactoe.Coordinate" style="stroke: #A80036; stroke-width: 1.5;" width="319" x="700.3102" y="1017.5"/><ellipse cx="822.5602" cy="1033.5" fill="#ADD1B2" rx="11" ry="11" style="stroke: #A80036; stroke-width: 1.0;"/><path d="M824.904,1029.1719 C823.9665,1028.7344 823.3727,1028.5938 822.4977,1028.5938 C819.8727,1028.5938 817.8727,1030.6719 817.8727,1033.3906 L817.8727,1034.5156 C817.8727,1037.0938 819.9821,1038.9844 822.8727,1038.9844 C824.0915,1038.9844 825.2477,1038.6875 825.9977,1038.1406 C826.5758,1037.7344 826.904,1037.2813 826.904,1036.8906 C826.904,1036.4375 826.5133,1036.0469 826.0446,1036.0469 C825.8258,1036.0469 825.6227,1036.125 825.4352,1036.3125 C824.9821,1036.7969 824.9821,1036.7969 824.7946,1036.8906 C824.3727,1037.1563 823.6852,1037.2813 822.9196,1037.2813 C820.8727,1037.2813 819.5758,1036.1875 819.5758,1034.4844 L819.5758,1033.3906 C819.5758,1031.6094 820.8258,1030.2969 822.5602,1030.2969 C823.1383,1030.2969 823.7477,1030.4531 824.2165,1030.7031 C824.7008,1030.9844 824.8727,1031.2031 824.9665,1031.6094 C825.029,1032.0156 825.0602,1032.1406 825.2008,1032.2656 C825.3415,1032.4063 825.5758,1032.5156 825.7946,1032.5156 C826.0602,1032.5156 826.3258,1032.375 826.4977,1032.1563 C826.6071,1032 826.6383,1031.8125 826.6383,1031.3906 L826.6383,1029.9688 C826.6383,1029.5313 826.6227,1029.4063 826.529,1029.25 C826.3727,1028.9844 826.0915,1028.8438 825.7946,1028.8438 C825.4977,1028.8438 825.2946,1028.9375 825.0758,1029.25 L824.904,1029.1719 Z "/><text fill="#000000" font-family="sans-serif" font-size="12" lengthAdjust="spacingAndGlyphs" textLength="66" x="843.0602" y="1037.6543">Coordinate</text><line style="stroke: #A80036; stroke-width: 1.5;" x1="701.3102" x2="1018.3102" y1="1049.5" y2="1049.5"/><polygon fill="none" points="711.3102,1056.5,707.3102,1062.5,715.3102,1062.5" style="stroke: #1963A0; stroke-width: 1.0;"/><text fill="#000000" font-family="sans-serif" font-size="11" lengthAdjust="spacingAndGlyphs" text-decoration="underline" textLength="97" x="720.3102" y="1063.7104">NULL: Coordinate</text><polygon fill="none" points="711.3102,1069.3047,707.3102,1075.3047,715.3102,1075.3047" style="stroke: #1963A0; stroke-width: 1.0;"/><text fill="#000000" font-family="sans-serif" font-size="11" lengthAdjust="spacingAndGlyphs" text-decoration="underline" textLength="85" x="720.3102" y="1076.5151">DIMENSION: int</text><polygon fill="none" points="711.3102,1082.1094,707.3102,1088.1094,715.3102,1088.1094" style="stroke: #1963A0; stroke-width: 1.0;"/><text fill="#000000" font-family="sans-serif" font-size="11" lengthAdjust="spacingAndGlyphs" text-decoration="underline" textLength="125" x="720.3102" y="1089.3198">LIMITS: ClosedInterval</text><line style="stroke: #A80036; stroke-width: 1.5;" x1="701.3102" x2="1018.3102" y1="1095.9141" y2="1095.9141"/><polygon fill="#4177AF" points="711.3102,1102.9141,707.3102,1108.9141,715.3102,1108.9141" style="stroke: #1963A0; stroke-width: 1.0;"/><text fill="#000000" font-family="sans-serif" font-size="11" lengthAdjust="spacingAndGlyphs" textLength="70" x="720.3102" y="1110.1245">Coordinate()</text><polygon fill="#4177AF" points="711.3102,1115.7188,707.3102,1121.7188,715.3102,1121.7188" style="stroke: #1963A0; stroke-width: 1.0;"/><text fill="#000000" font-family="sans-serif" font-size="11" lengthAdjust="spacingAndGlyphs" textLength="105" x="720.3102" y="1122.9292">Coordinate(int, int)</text><ellipse cx="711.3102" cy="1132.5234" fill="#84BE84" rx="3" ry="3" style="stroke: #038048; stroke-width: 1.0;"/><text fill="#000000" font-family="sans-serif" font-size="11" lengthAdjust="spacingAndGlyphs" textLength="91" x="720.3102" y="1135.7339">isNull(): boolean</text><ellipse cx="711.3102" cy="1145.3281" fill="#84BE84" rx="3" ry="3" style="stroke: #038048; stroke-width: 1.0;"/><text fill="#000000" font-family="sans-serif" font-size="11" lengthAdjust="spacingAndGlyphs" textLength="293" x="720.3102" y="1148.5386">getDirection(usantatecla.utils.Coordinate): Direction</text><ellipse cx="711.3102" cy="1158.1328" fill="#84BE84" rx="3" ry="3" style="stroke: #038048; stroke-width: 1.0;"/><text fill="#000000" font-family="sans-serif" font-size="11" lengthAdjust="spacingAndGlyphs" textLength="164" x="720.3102" y="1161.3433">inInverseDiagonal(): boolean</text><ellipse cx="711.3102" cy="1170.9375" fill="#84BE84" rx="3" ry="3" style="stroke: #038048; stroke-width: 1.0;"/><text fill="#000000" font-family="sans-serif" font-size="11" lengthAdjust="spacingAndGlyphs" textLength="67" x="720.3102" y="1174.1479">read(String)</text><ellipse cx="711.3102" cy="1183.7422" fill="#84BE84" rx="3" ry="3" style="stroke: #038048; stroke-width: 1.0;"/><text fill="#000000" font-family="sans-serif" font-size="11" lengthAdjust="spacingAndGlyphs" textLength="51" x="720.3102" y="1186.9526">random()</text><ellipse cx="711.3102" cy="1196.5469" fill="#84BE84" rx="3" ry="3" style="stroke: #038048; stroke-width: 1.0;"/><text fill="#000000" font-family="sans-serif" font-size="11" lengthAdjust="spacingAndGlyphs" textLength="136" x="720.3102" y="1199.7573">equals(Object): boolean</text><!--MD5=[8beb5b62c1db6d783dc0870514f68973]
class usantatecla.tictactoe.Error--><rect codeLine="32" fill="#FEFECE" filter="url(#f7ihtigdudnho)" height="163.2422" id="usantatecla.tictactoe.Error" style="stroke: #A80036; stroke-width: 1.5;" width="159" x="927.3102" y="1312"/><ellipse cx="987.5602" cy="1328" fill="#EB937F" rx="11" ry="11" style="stroke: #A80036; stroke-width: 1.0;"/><path d="M986.3571,1328.875 L987.8102,1328.875 L987.8102,1328.9844 C987.8102,1329.3906 987.8415,1329.5469 987.9196,1329.7031 C988.0758,1329.9531 988.3571,1330.1094 988.654,1330.1094 C988.904,1330.1094 989.1696,1329.9688 989.3258,1329.75 C989.4508,1329.5938 989.4821,1329.4375 989.4821,1328.9844 L989.4821,1327.0625 C989.4821,1326.9063 989.4821,1326.8594 989.4665,1326.7031 C989.404,1326.2344 989.0915,1325.9219 988.6383,1325.9219 C988.3883,1325.9219 988.1227,1326.0625 987.9508,1326.2813 C987.8415,1326.4531 987.8102,1326.6094 987.8102,1327.0625 L987.8102,1327.1875 L986.3571,1327.1875 L986.3571,1324.7813 L990.3415,1324.7813 L990.3415,1325.6406 C990.3415,1326.0469 990.3727,1326.2188 990.4508,1326.375 C990.6227,1326.625 990.904,1326.7813 991.1852,1326.7813 C991.4508,1326.7813 991.7165,1326.6406 991.8883,1326.4219 C991.9977,1326.25 992.029,1326.1094 992.029,1325.6406 L992.029,1323.0938 L984.404,1323.0938 C983.9665,1323.0938 983.8415,1323.1094 983.6852,1323.2031 C983.4352,1323.3594 983.279,1323.6563 983.279,1323.9375 C983.279,1324.2188 983.4196,1324.4688 983.6383,1324.6406 C983.7946,1324.75 983.9821,1324.7813 984.404,1324.7813 L984.654,1324.7813 L984.654,1331.2969 L984.404,1331.2969 C983.9977,1331.2969 983.8415,1331.3125 983.6852,1331.4219 C983.4352,1331.5938 983.279,1331.8594 983.279,1332.1563 C983.279,1332.4219 983.4196,1332.6719 983.6383,1332.8281 C983.779,1332.9531 984.0133,1333 984.404,1333 L992.404,1333 L992.404,1330.4219 C992.404,1329.9844 992.3727,1329.8438 992.2946,1329.6875 C992.1227,1329.4375 991.8415,1329.2813 991.5602,1329.2813 C991.2946,1329.2813 991.029,1329.3906 990.8571,1329.6406 C990.7477,1329.7969 990.7165,1329.9375 990.7165,1330.4219 L990.7165,1331.2969 L986.3571,1331.2969 L986.3571,1328.875 Z "/><text fill="#000000" font-family="sans-serif" font-size="12" lengthAdjust="spacingAndGlyphs" textLength="30" x="1008.0602" y="1332.1543">Error</text><line style="stroke: #A80036; stroke-width: 1.5;" x1="928.3102" x2="1085.3102" y1="1344" y2="1344"/><ellipse cx="938.3102" cy="1355" fill="none" rx="3" ry="3" style="stroke: #038048; stroke-width: 1.0;"/><text fill="#000000" font-family="sans-serif" font-size="11" lengthAdjust="spacingAndGlyphs" textLength="66" x="947.3102" y="1358.2104">NOT_EMPTY</text><ellipse cx="938.3102" cy="1367.8047" fill="none" rx="3" ry="3" style="stroke: #038048; stroke-width: 1.0;"/><text fill="#000000" font-family="sans-serif" font-size="11" lengthAdjust="spacingAndGlyphs" textLength="72" x="947.3102" y="1371.0151">NOT_OWNER</text><ellipse cx="938.3102" cy="1380.6094" fill="none" rx="3" ry="3" style="stroke: #038048; stroke-width: 1.0;"/><text fill="#000000" font-family="sans-serif" font-size="11" lengthAdjust="spacingAndGlyphs" textLength="121" x="947.3102" y="1383.8198">SAME_COORDINATES</text><ellipse cx="938.3102" cy="1393.4141" fill="none" rx="3" ry="3" style="stroke: #038048; stroke-width: 1.0;"/><text fill="#000000" font-family="sans-serif" font-size="11" lengthAdjust="spacingAndGlyphs" textLength="133" x="947.3102" y="1396.6245">WRONG_COORDINATES</text><ellipse cx="938.3102" cy="1406.2188" fill="none" rx="3" ry="3" style="stroke: #038048; stroke-width: 1.0;"/><text fill="#000000" font-family="sans-serif" font-size="11" lengthAdjust="spacingAndGlyphs" textLength="28" x="947.3102" y="1409.4292">NULL</text><rect fill="none" height="6" style="stroke: #C82930; stroke-width: 1.0;" width="6" x="935.3102" y="1416.0234"/><text fill="#000000" font-family="sans-serif" font-size="11" lengthAdjust="spacingAndGlyphs" textLength="93" x="947.3102" y="1422.2339">message: String</text><line style="stroke: #A80036; stroke-width: 1.5;" x1="928.3102" x2="1085.3102" y1="1428.8281" y2="1428.8281"/><polygon fill="#4177AF" points="938.3102,1435.8281,934.3102,1441.8281,942.3102,1441.8281" style="stroke: #1963A0; stroke-width: 1.0;"/><text fill="#000000" font-family="sans-serif" font-size="11" lengthAdjust="spacingAndGlyphs" textLength="34" x="947.3102" y="1443.0386">Error()</text><polygon fill="#4177AF" points="938.3102,1448.6328,934.3102,1454.6328,942.3102,1454.6328" style="stroke: #1963A0; stroke-width: 1.0;"/><text fill="#000000" font-family="sans-serif" font-size="11" lengthAdjust="spacingAndGlyphs" textLength="67" x="947.3102" y="1455.8433">Error(String)</text><polygon fill="#4177AF" points="938.3102,1461.4375,934.3102,1467.4375,942.3102,1467.4375" style="stroke: #1963A0; stroke-width: 1.0;"/><text fill="#000000" font-family="sans-serif" font-size="11" lengthAdjust="spacingAndGlyphs" textLength="46" x="947.3102" y="1468.6479">writeln()</text><!--MD5=[d5e6390f4df0bed23d8acd31ee6bd19d]
class usantatecla.tictactoe.MachinePlayer--><rect codeLine="45" fill="#FEFECE" filter="url(#f7ihtigdudnho)" height="73.6094" id="usantatecla.tictactoe.MachinePlayer" style="stroke: #A80036; stroke-width: 1.5;" width="235" x="1449.3132" y="768"/><ellipse cx="1520.0632" cy="784" fill="#ADD1B2" rx="11" ry="11" style="stroke: #A80036; stroke-width: 1.0;"/><path d="M1522.407,779.6719 C1521.4695,779.2344 1520.8757,779.0938 1520.0007,779.0938 C1517.3757,779.0938 1515.3757,781.1719 1515.3757,783.8906 L1515.3757,785.0156 C1515.3757,787.5938 1517.4851,789.4844 1520.3757,789.4844 C1521.5945,789.4844 1522.7507,789.1875 1523.5007,788.6406 C1524.0788,788.2344 1524.407,787.7813 1524.407,787.3906 C1524.407,786.9375 1524.0163,786.5469 1523.5476,786.5469 C1523.3288,786.5469 1523.1257,786.625 1522.9382,786.8125 C1522.4851,787.2969 1522.4851,787.2969 1522.2976,787.3906 C1521.8757,787.6563 1521.1882,787.7813 1520.4226,787.7813 C1518.3757,787.7813 1517.0788,786.6875 1517.0788,784.9844 L1517.0788,783.8906 C1517.0788,782.1094 1518.3288,780.7969 1520.0632,780.7969 C1520.6413,780.7969 1521.2507,780.9531 1521.7195,781.2031 C1522.2038,781.4844 1522.3757,781.7031 1522.4695,782.1094 C1522.532,782.5156 1522.5632,782.6406 1522.7038,782.7656 C1522.8445,782.9063 1523.0788,783.0156 1523.2976,783.0156 C1523.5632,783.0156 1523.8288,782.875 1524.0007,782.6563 C1524.1101,782.5 1524.1413,782.3125 1524.1413,781.8906 L1524.1413,780.4688 C1524.1413,780.0313 1524.1257,779.9063 1524.032,779.75 C1523.8757,779.4844 1523.5945,779.3438 1523.2976,779.3438 C1523.0007,779.3438 1522.7976,779.4375 1522.5788,779.75 L1522.407,779.6719 Z "/><text fill="#000000" font-family="sans-serif" font-size="12" lengthAdjust="spacingAndGlyphs" textLength="85" x="1540.5632" y="788.1543">MachinePlayer</text><line style="stroke: #A80036; stroke-width: 1.5;" x1="1450.3132" x2="1683.3132" y1="800" y2="800"/><line style="stroke: #A80036; stroke-width: 1.5;" x1="1450.3132" x2="1683.3132" y1="808" y2="808"/><polygon fill="#4177AF" points="1460.3132,815,1456.3132,821,1464.3132,821" style="stroke: #1963A0; stroke-width: 1.0;"/><text fill="#000000" font-family="sans-serif" font-size="11" lengthAdjust="spacingAndGlyphs" textLength="165" x="1469.3132" y="822.2104">MachinePlayer(Token, Board)</text><polygon fill="#4177AF" points="1460.3132,827.8047,1456.3132,833.8047,1464.3132,833.8047" style="stroke: #1963A0; stroke-width: 1.0;"/><text fill="#000000" font-family="sans-serif" font-size="11" lengthAdjust="spacingAndGlyphs" textLength="209" x="1469.3132" y="835.0151">getCoordinate(Message): Coordinate</text><!--MD5=[ab82296a7d93ea792c7bfd4e9ca759e8]
class usantatecla.tictactoe.Message--><rect codeLine="50" fill="#FEFECE" filter="url(#f7ihtigdudnho)" height="278.4844" id="usantatecla.tictactoe.Message" style="stroke: #A80036; stroke-width: 1.5;" width="218" x="1577.8132" y="973"/><ellipse cx="1655.0632" cy="989" fill="#EB937F" rx="11" ry="11" style="stroke: #A80036; stroke-width: 1.0;"/><path d="M1653.8601,989.875 L1655.3132,989.875 L1655.3132,989.9844 C1655.3132,990.3906 1655.3445,990.5469 1655.4226,990.7031 C1655.5788,990.9531 1655.8601,991.1094 1656.157,991.1094 C1656.407,991.1094 1656.6726,990.9688 1656.8288,990.75 C1656.9538,990.5938 1656.9851,990.4375 1656.9851,989.9844 L1656.9851,988.0625 C1656.9851,987.9063 1656.9851,987.8594 1656.9695,987.7031 C1656.907,987.2344 1656.5945,986.9219 1656.1413,986.9219 C1655.8913,986.9219 1655.6257,987.0625 1655.4538,987.2813 C1655.3445,987.4531 1655.3132,987.6094 1655.3132,988.0625 L1655.3132,988.1875 L1653.8601,988.1875 L1653.8601,985.7813 L1657.8445,985.7813 L1657.8445,986.6406 C1657.8445,987.0469 1657.8757,987.2188 1657.9538,987.375 C1658.1257,987.625 1658.407,987.7813 1658.6882,987.7813 C1658.9538,987.7813 1659.2195,987.6406 1659.3913,987.4219 C1659.5007,987.25 1659.532,987.1094 1659.532,986.6406 L1659.532,984.0938 L1651.907,984.0938 C1651.4695,984.0938 1651.3445,984.1094 1651.1882,984.2031 C1650.9382,984.3594 1650.782,984.6563 1650.782,984.9375 C1650.782,985.2188 1650.9226,985.4688 1651.1413,985.6406 C1651.2976,985.75 1651.4851,985.7813 1651.907,985.7813 L1652.157,985.7813 L1652.157,992.2969 L1651.907,992.2969 C1651.5007,992.2969 1651.3445,992.3125 1651.1882,992.4219 C1650.9382,992.5938 1650.782,992.8594 1650.782,993.1563 C1650.782,993.4219 1650.9226,993.6719 1651.1413,993.8281 C1651.282,993.9531 1651.5163,994 1651.907,994 L1659.907,994 L1659.907,991.4219 C1659.907,990.9844 1659.8757,990.8438 1659.7976,990.6875 C1659.6257,990.4375 1659.3445,990.2813 1659.0632,990.2813 C1658.7976,990.2813 1658.532,990.3906 1658.3601,990.6406 C1658.2507,990.7969 1658.2195,990.9375 1658.2195,991.4219 L1658.2195,992.2969 L1653.8601,992.2969 L1653.8601,989.875 Z "/><text fill="#000000" font-family="sans-serif" font-size="12" lengthAdjust="spacingAndGlyphs" textLength="55" x="1675.5632" y="993.1543">Message</text><line style="stroke: #A80036; stroke-width: 1.5;" x1="1578.8132" x2="1794.8132" y1="1005" y2="1005"/><ellipse cx="1588.8132" cy="1016" fill="none" rx="3" ry="3" style="stroke: #038048; stroke-width: 1.0;"/><text fill="#000000" font-family="sans-serif" font-size="11" lengthAdjust="spacingAndGlyphs" textLength="37" x="1597.8132" y="1019.2104">TITTLE</text><ellipse cx="1588.8132" cy="1028.8047" fill="none" rx="3" ry="3" style="stroke: #038048; stroke-width: 1.0;"/><text fill="#000000" font-family="sans-serif" font-size="11" lengthAdjust="spacingAndGlyphs" textLength="102" x="1597.8132" y="1032.0151">NUMBER_PLAYERS</text><ellipse cx="1588.8132" cy="1041.6094" fill="none" rx="3" ry="3" style="stroke: #038048; stroke-width: 1.0;"/><text fill="#000000" font-family="sans-serif" font-size="11" lengthAdjust="spacingAndGlyphs" textLength="67" x="1597.8132" y="1044.8198">SEPARATOR</text><ellipse cx="1588.8132" cy="1054.4141" fill="none" rx="3" ry="3" style="stroke: #038048; stroke-width: 1.0;"/><text fill="#000000" font-family="sans-serif" font-size="11" lengthAdjust="spacingAndGlyphs" textLength="116" x="1597.8132" y="1057.6245">VERTICAL_LINE_LEFT</text><ellipse cx="1588.8132" cy="1067.2188" fill="none" rx="3" ry="3" style="stroke: #038048; stroke-width: 1.0;"/><text fill="#000000" font-family="sans-serif" font-size="11" lengthAdjust="spacingAndGlyphs" textLength="150" x="1597.8132" y="1070.4292">VERTICAL_LINE_CENTERED</text><ellipse cx="1588.8132" cy="1080.0234" fill="none" rx="3" ry="3" style="stroke: #038048; stroke-width: 1.0;"/><text fill="#000000" font-family="sans-serif" font-size="11" lengthAdjust="spacingAndGlyphs" textLength="124" x="1597.8132" y="1083.2339">VERTICAL_LINE_RIGHT</text><ellipse cx="1588.8132" cy="1092.8281" fill="none" rx="3" ry="3" style="stroke: #038048; stroke-width: 1.0;"/><text fill="#000000" font-family="sans-serif" font-size="11" lengthAdjust="spacingAndGlyphs" textLength="166" x="1597.8132" y="1096.0386">ENTER_COORDINATE_TO_PUT</text><ellipse cx="1588.8132" cy="1105.6328" fill="none" rx="3" ry="3" style="stroke: #038048; stroke-width: 1.0;"/><text fill="#000000" font-family="sans-serif" font-size="11" lengthAdjust="spacingAndGlyphs" textLength="192" x="1597.8132" y="1108.8433">ENTER_COORDINATE_TO_REMOVE</text><ellipse cx="1588.8132" cy="1118.4375" fill="none" rx="3" ry="3" style="stroke: #038048; stroke-width: 1.0;"/><text fill="#000000" font-family="sans-serif" font-size="11" lengthAdjust="spacingAndGlyphs" textLength="124" x="1597.8132" y="1121.6479">COORDINATE_TO_PUT</text><ellipse cx="1588.8132" cy="1131.2422" fill="none" rx="3" ry="3" style="stroke: #038048; stroke-width: 1.0;"/><text fill="#000000" font-family="sans-serif" font-size="11" lengthAdjust="spacingAndGlyphs" textLength="150" x="1597.8132" y="1134.4526">COORDINATE_TO_REMOVE</text><ellipse cx="1588.8132" cy="1144.0469" fill="none" rx="3" ry="3" style="stroke: #038048; stroke-width: 1.0;"/><text fill="#000000" font-family="sans-serif" font-size="11" lengthAdjust="spacingAndGlyphs" textLength="136" x="1597.8132" y="1147.2573">COORDINATE_TO_MOVE</text><ellipse cx="1588.8132" cy="1156.8516" fill="none" rx="3" ry="3" style="stroke: #038048; stroke-width: 1.0;"/><text fill="#000000" font-family="sans-serif" font-size="11" lengthAdjust="spacingAndGlyphs" textLength="69" x="1597.8132" y="1160.062">PLAYER_WIN</text><ellipse cx="1588.8132" cy="1169.6563" fill="none" rx="3" ry="3" style="stroke: #038048; stroke-width: 1.0;"/><text fill="#000000" font-family="sans-serif" font-size="11" lengthAdjust="spacingAndGlyphs" textLength="46" x="1597.8132" y="1172.8667">RESUME</text><rect fill="none" height="6" style="stroke: #C82930; stroke-width: 1.0;" width="6" x="1585.8132" y="1179.4609"/><text fill="#000000" font-family="sans-serif" font-size="11" lengthAdjust="spacingAndGlyphs" textLength="93" x="1597.8132" y="1185.6714">message: String</text><line style="stroke: #A80036; stroke-width: 1.5;" x1="1578.8132" x2="1794.8132" y1="1192.2656" y2="1192.2656"/><rect fill="#F24D5C" height="6" style="stroke: #C82930; stroke-width: 1.0;" width="6" x="1585.8132" y="1200.2656"/><text fill="#000000" font-family="sans-serif" font-size="11" lengthAdjust="spacingAndGlyphs" textLength="92" x="1597.8132" y="1206.4761">Message(String)</text><polygon fill="#4177AF" points="1588.8132,1212.0703,1584.8132,1218.0703,1592.8132,1218.0703" style="stroke: #1963A0; stroke-width: 1.0;"/><text fill="#000000" font-family="sans-serif" font-size="11" lengthAdjust="spacingAndGlyphs" textLength="36" x="1597.8132" y="1219.2808">write()</text><polygon fill="#4177AF" points="1588.8132,1224.875,1584.8132,1230.875,1592.8132,1230.875" style="stroke: #1963A0; stroke-width: 1.0;"/><text fill="#000000" font-family="sans-serif" font-size="11" lengthAdjust="spacingAndGlyphs" textLength="46" x="1597.8132" y="1232.0854">writeln()</text><ellipse cx="1588.8132" cy="1241.6797" fill="#84BE84" rx="3" ry="3" style="stroke: #038048; stroke-width: 1.0;"/><text fill="#000000" font-family="sans-serif" font-size="11" lengthAdjust="spacingAndGlyphs" textLength="92" x="1597.8132" y="1244.8901">toString(): String</text><!--MD5=[b455952d252d0eefae6035326d3db921]
class usantatecla.tictactoe.Player--><rect codeLine="72" fill="#FEFECE" filter="url(#f7ihtigdudnho)" height="176.0469" id="usantatecla.tictactoe.Player" style="stroke: #A80036; stroke-width: 1.5;" width="387" x="1027.3132" y="445"/><ellipse cx="1198.5632" cy="461" fill="#A9DCDF" rx="11" ry="11" style="stroke: #A80036; stroke-width: 1.0;"/><path d="M1200.6413,462.8125 L1201.032,463.7969 L1200.6413,463.7969 C1200.1882,463.7969 1200.0788,463.8125 1199.9226,463.9219 C1199.6726,464.0781 1199.5163,464.3594 1199.5163,464.6563 C1199.5163,464.9219 1199.657,465.1719 1199.8757,465.3281 C1200.0163,465.4531 1200.2195,465.5 1200.6413,465.5 L1203.0007,465.5 C1203.3601,465.5 1203.5788,465.4688 1203.7195,465.375 C1203.9695,465.2344 1204.1257,464.9375 1204.1257,464.6563 C1204.1257,464.375 1203.9851,464.125 1203.7663,463.9688 C1203.5945,463.8281 1203.4382,463.7969 1202.9695,463.7969 L1199.5788,455.5938 L1195.907,455.5938 C1195.4538,455.5938 1195.3288,455.6094 1195.1726,455.7031 C1194.9226,455.875 1194.7663,456.1563 1194.7663,456.4375 C1194.7663,456.7188 1194.907,456.9688 1195.1257,457.1406 C1195.2976,457.25 1195.4695,457.2813 1195.907,457.2813 L1196.9851,457.2813 L1194.3445,463.7969 C1193.9226,463.7969 1193.7663,463.8125 1193.6101,463.9219 C1193.3601,464.0781 1193.2038,464.3594 1193.2038,464.6563 C1193.2038,465.2188 1193.5788,465.5 1194.3288,465.5 L1196.5945,465.5 C1196.9538,465.5 1197.1726,465.4688 1197.2976,465.375 C1197.5632,465.2344 1197.7038,464.9375 1197.7038,464.6563 C1197.7038,464.375 1197.5788,464.125 1197.3601,463.9531 C1197.1882,463.8281 1197.0476,463.7969 1196.5945,463.7969 L1196.2038,463.7969 L1196.5945,462.8125 L1200.6413,462.8125 Z M1199.9382,461.1094 L1197.2663,461.1094 L1198.6101,457.8438 L1199.9382,461.1094 Z "/><text fill="#000000" font-family="sans-serif" font-size="12" font-style="italic" lengthAdjust="spacingAndGlyphs" textLength="36" x="1219.0632" y="465.1543">Player</text><line style="stroke: #A80036; stroke-width: 1.5;" x1="1028.3132" x2="1413.3132" y1="477" y2="477"/><line style="stroke: #A80036; stroke-width: 1.5;" x1="1028.3132" x2="1413.3132" y1="485" y2="485"/><polygon fill="#4177AF" points="1038.3132,492,1034.3132,498,1042.3132,498" style="stroke: #1963A0; stroke-width: 1.0;"/><text fill="#000000" font-family="sans-serif" font-size="11" lengthAdjust="spacingAndGlyphs" textLength="118" x="1047.3132" y="499.2104">Player(Token, Board)</text><polygon fill="#4177AF" points="1038.3132,504.8047,1034.3132,510.8047,1042.3132,510.8047" style="stroke: #1963A0; stroke-width: 1.0;"/><text fill="#000000" font-family="sans-serif" font-size="11" lengthAdjust="spacingAndGlyphs" textLength="32" x="1047.3132" y="512.0151">play()</text><rect fill="#F24D5C" height="6" style="stroke: #C82930; stroke-width: 1.0;" width="6" x="1035.3132" y="518.6094"/><text fill="#000000" font-family="sans-serif" font-size="11" lengthAdjust="spacingAndGlyphs" textLength="26" x="1047.3132" y="524.8198">put()</text><polygon fill="#4177AF" points="1038.3132,530.4141,1034.3132,536.4141,1042.3132,536.4141" style="stroke: #1963A0; stroke-width: 1.0;"/><text fill="#000000" font-family="sans-serif" font-size="11" lengthAdjust="spacingAndGlyphs" textLength="258" x="1047.3132" y="537.6245">abstract getCoordinate(Message): Coordinate</text><polygon fill="#4177AF" points="1038.3132,543.2188,1034.3132,549.2188,1042.3132,549.2188" style="stroke: #1963A0; stroke-width: 1.0;"/><text fill="#000000" font-family="sans-serif" font-size="11" lengthAdjust="spacingAndGlyphs" textLength="241" x="1047.3132" y="550.4292">checkPutCoordinateError(Coordinate): Error</text><rect fill="#F24D5C" height="6" style="stroke: #C82930; stroke-width: 1.0;" width="6" x="1035.3132" y="557.0234"/><text fill="#000000" font-family="sans-serif" font-size="11" lengthAdjust="spacingAndGlyphs" textLength="41" x="1047.3132" y="563.2339">move()</text><polygon fill="#4177AF" points="1038.3132,568.8281,1034.3132,574.8281,1042.3132,574.8281" style="stroke: #1963A0; stroke-width: 1.0;"/><text fill="#000000" font-family="sans-serif" font-size="11" lengthAdjust="spacingAndGlyphs" textLength="288" x="1047.3132" y="576.0386">checkMoveOriginCoordinateError(Coordinate): Error</text><polygon fill="#4177AF" points="1038.3132,581.6328,1034.3132,587.6328,1042.3132,587.6328" style="stroke: #1963A0; stroke-width: 1.0;"/><text fill="#000000" font-family="sans-serif" font-size="11" lengthAdjust="spacingAndGlyphs" textLength="361" x="1047.3132" y="588.8433">checkMoveTargetCoordinateError(Coordinate, Coordinate): Error</text><polygon fill="#4177AF" points="1038.3132,594.4375,1034.3132,600.4375,1042.3132,600.4375" style="stroke: #1963A0; stroke-width: 1.0;"/><text fill="#000000" font-family="sans-serif" font-size="11" lengthAdjust="spacingAndGlyphs" textLength="76" x="1047.3132" y="601.6479">writeWinner()</text><polygon fill="#4177AF" points="1038.3132,607.2422,1034.3132,613.2422,1042.3132,613.2422" style="stroke: #1963A0; stroke-width: 1.0;"/><text fill="#000000" font-family="sans-serif" font-size="11" lengthAdjust="spacingAndGlyphs" textLength="104" x="1047.3132" y="614.4526">getToken(): Token</text><!--MD5=[4b5d579ecc4748d1b21f2fd6d497d353]
class usantatecla.tictactoe.TicTacToe--><rect codeLine="85" fill="#FEFECE" filter="url(#f7ihtigdudnho)" height="112.0234" id="usantatecla.tictactoe.TicTacToe" style="stroke: #A80036; stroke-width: 1.5;" width="185" x="1601.3132" y="41"/><ellipse cx="1659.0632" cy="57" fill="#ADD1B2" rx="11" ry="11" style="stroke: #A80036; stroke-width: 1.0;"/><path d="M1661.407,52.6719 C1660.4695,52.2344 1659.8757,52.0938 1659.0007,52.0938 C1656.3757,52.0938 1654.3757,54.1719 1654.3757,56.8906 L1654.3757,58.0156 C1654.3757,60.5938 1656.4851,62.4844 1659.3757,62.4844 C1660.5945,62.4844 1661.7507,62.1875 1662.5007,61.6406 C1663.0788,61.2344 1663.407,60.7813 1663.407,60.3906 C1663.407,59.9375 1663.0163,59.5469 1662.5476,59.5469 C1662.3288,59.5469 1662.1257,59.625 1661.9382,59.8125 C1661.4851,60.2969 1661.4851,60.2969 1661.2976,60.3906 C1660.8757,60.6563 1660.1882,60.7813 1659.4226,60.7813 C1657.3757,60.7813 1656.0788,59.6875 1656.0788,57.9844 L1656.0788,56.8906 C1656.0788,55.1094 1657.3288,53.7969 1659.0632,53.7969 C1659.6413,53.7969 1660.2507,53.9531 1660.7195,54.2031 C1661.2038,54.4844 1661.3757,54.7031 1661.4695,55.1094 C1661.532,55.5156 1661.5632,55.6406 1661.7038,55.7656 C1661.8445,55.9063 1662.0788,56.0156 1662.2976,56.0156 C1662.5632,56.0156 1662.8288,55.875 1663.0007,55.6563 C1663.1101,55.5 1663.1413,55.3125 1663.1413,54.8906 L1663.1413,53.4688 C1663.1413,53.0313 1663.1257,52.9063 1663.032,52.75 C1662.8757,52.4844 1662.5945,52.3438 1662.2976,52.3438 C1662.0007,52.3438 1661.7976,52.4375 1661.5788,52.75 L1661.407,52.6719 Z "/><text fill="#000000" font-family="sans-serif" font-size="12" lengthAdjust="spacingAndGlyphs" textLength="61" x="1679.5632" y="61.1543">TicTacToe</text><line style="stroke: #A80036; stroke-width: 1.5;" x1="1602.3132" x2="1785.3132" y1="73" y2="73"/><line style="stroke: #A80036; stroke-width: 1.5;" x1="1602.3132" x2="1785.3132" y1="81" y2="81"/><polygon fill="#4177AF" points="1612.3132,88,1608.3132,94,1616.3132,94" style="stroke: #1963A0; stroke-width: 1.0;"/><text fill="#000000" font-family="sans-serif" font-size="11" lengthAdjust="spacingAndGlyphs" textLength="66" x="1621.3132" y="95.2104">TicTacToe()</text><rect fill="#F24D5C" height="6" style="stroke: #C82930; stroke-width: 1.0;" width="6" x="1609.3132" y="101.8047"/><text fill="#000000" font-family="sans-serif" font-size="11" lengthAdjust="spacingAndGlyphs" textLength="32" x="1621.3132" y="108.0151">play()</text><rect fill="#F24D5C" height="6" style="stroke: #C82930; stroke-width: 1.0;" width="6" x="1609.3132" y="114.6094"/><text fill="#000000" font-family="sans-serif" font-size="11" lengthAdjust="spacingAndGlyphs" textLength="67" x="1621.3132" y="120.8198">playGame()</text><rect fill="#F24D5C" height="6" style="stroke: #C82930; stroke-width: 1.0;" width="6" x="1609.3132" y="127.4141"/><text fill="#000000" font-family="sans-serif" font-size="11" lengthAdjust="spacingAndGlyphs" textLength="159" x="1621.3132" y="133.6245">isResumedGame(): boolean</text><ellipse cx="1612.3132" cy="143.2188" fill="#84BE84" rx="3" ry="3" style="stroke: #038048; stroke-width: 1.0;"/><text fill="#000000" font-family="sans-serif" font-size="11" lengthAdjust="spacingAndGlyphs" text-decoration="underline" textLength="77" x="1621.3132" y="146.4292">main(String[])</text><!--MD5=[70d70054f98ac0881f23804484f4abda]
class usantatecla.tictactoe.Token--><rect codeLine="93" fill="#FEFECE" filter="url(#f7ihtigdudnho)" height="124.8281" id="usantatecla.tictactoe.Token" style="stroke: #A80036; stroke-width: 1.5;" width="117" x="548.3102" y="1049.5"/><ellipse cx="584.9102" cy="1065.5" fill="#EB937F" rx="11" ry="11" style="stroke: #A80036; stroke-width: 1.0;"/><path d="M583.7071,1066.375 L585.1602,1066.375 L585.1602,1066.4844 C585.1602,1066.8906 585.1915,1067.0469 585.2696,1067.2031 C585.4258,1067.4531 585.7071,1067.6094 586.004,1067.6094 C586.254,1067.6094 586.5196,1067.4688 586.6758,1067.25 C586.8008,1067.0938 586.8321,1066.9375 586.8321,1066.4844 L586.8321,1064.5625 C586.8321,1064.4063 586.8321,1064.3594 586.8165,1064.2031 C586.754,1063.7344 586.4415,1063.4219 585.9883,1063.4219 C585.7383,1063.4219 585.4727,1063.5625 585.3008,1063.7813 C585.1915,1063.9531 585.1602,1064.1094 585.1602,1064.5625 L585.1602,1064.6875 L583.7071,1064.6875 L583.7071,1062.2813 L587.6915,1062.2813 L587.6915,1063.1406 C587.6915,1063.5469 587.7227,1063.7188 587.8008,1063.875 C587.9727,1064.125 588.254,1064.2813 588.5352,1064.2813 C588.8008,1064.2813 589.0665,1064.1406 589.2383,1063.9219 C589.3477,1063.75 589.379,1063.6094 589.379,1063.1406 L589.379,1060.5938 L581.754,1060.5938 C581.3165,1060.5938 581.1915,1060.6094 581.0352,1060.7031 C580.7852,1060.8594 580.629,1061.1563 580.629,1061.4375 C580.629,1061.7188 580.7696,1061.9688 580.9883,1062.1406 C581.1446,1062.25 581.3321,1062.2813 581.754,1062.2813 L582.004,1062.2813 L582.004,1068.7969 L581.754,1068.7969 C581.3477,1068.7969 581.1915,1068.8125 581.0352,1068.9219 C580.7852,1069.0938 580.629,1069.3594 580.629,1069.6563 C580.629,1069.9219 580.7696,1070.1719 580.9883,1070.3281 C581.129,1070.4531 581.3633,1070.5 581.754,1070.5 L589.754,1070.5 L589.754,1067.9219 C589.754,1067.4844 589.7227,1067.3438 589.6446,1067.1875 C589.4727,1066.9375 589.1915,1066.7813 588.9102,1066.7813 C588.6446,1066.7813 588.379,1066.8906 588.2071,1067.1406 C588.0977,1067.2969 588.0665,1067.4375 588.0665,1067.9219 L588.0665,1068.7969 L583.7071,1068.7969 L583.7071,1066.375 Z "/><text fill="#000000" font-family="sans-serif" font-size="12" lengthAdjust="spacingAndGlyphs" textLength="37" x="603.7102" y="1069.6543">Token</text><line style="stroke: #A80036; stroke-width: 1.5;" x1="549.3102" x2="664.3102" y1="1081.5" y2="1081.5"/><ellipse cx="559.3102" cy="1092.5" fill="none" rx="3" ry="3" style="stroke: #038048; stroke-width: 1.0;"/><text fill="#000000" font-family="sans-serif" font-size="11" lengthAdjust="spacingAndGlyphs" textLength="52" x="568.3102" y="1095.7104">X_TOKEN</text><ellipse cx="559.3102" cy="1105.3047" fill="none" rx="3" ry="3" style="stroke: #038048; stroke-width: 1.0;"/><text fill="#000000" font-family="sans-serif" font-size="11" lengthAdjust="spacingAndGlyphs" textLength="51" x="568.3102" y="1108.5151">Y_TOKEN</text><ellipse cx="559.3102" cy="1118.1094" fill="none" rx="3" ry="3" style="stroke: #038048; stroke-width: 1.0;"/><text fill="#000000" font-family="sans-serif" font-size="11" lengthAdjust="spacingAndGlyphs" textLength="28" x="568.3102" y="1121.3198">NULL</text><line style="stroke: #A80036; stroke-width: 1.5;" x1="549.3102" x2="664.3102" y1="1127.9141" y2="1127.9141"/><ellipse cx="559.3102" cy="1138.9141" fill="#84BE84" rx="3" ry="3" style="stroke: #038048; stroke-width: 1.0;"/><text fill="#000000" font-family="sans-serif" font-size="11" lengthAdjust="spacingAndGlyphs" textLength="91" x="568.3102" y="1142.1245">isNull(): boolean</text><polygon fill="#4177AF" points="559.3102,1147.7188,555.3102,1153.7188,563.3102,1153.7188" style="stroke: #1963A0; stroke-width: 1.0;"/><text fill="#000000" font-family="sans-serif" font-size="11" lengthAdjust="spacingAndGlyphs" textLength="36" x="568.3102" y="1154.9292">write()</text><polygon fill="#4177AF" points="559.3102,1160.5234,555.3102,1166.5234,563.3102,1166.5234" style="stroke: #1963A0; stroke-width: 1.0;"/><text fill="#000000" font-family="sans-serif" font-size="11" lengthAdjust="spacingAndGlyphs" text-decoration="underline" textLength="83" x="568.3102" y="1167.7339">get(int): Token</text><!--MD5=[89d1a2b514c7103883fb14486df62cac]
class usantatecla.tictactoe.Turn--><rect codeLine="102" fill="#FEFECE" filter="url(#f7ihtigdudnho)" height="137.6328" id="usantatecla.tictactoe.Turn" style="stroke: #A80036; stroke-width: 1.5;" width="149" x="1609.3132" y="230"/><ellipse cx="1666.5632" cy="246" fill="#ADD1B2" rx="11" ry="11" style="stroke: #A80036; stroke-width: 1.0;"/><path d="M1668.907,241.6719 C1667.9695,241.2344 1667.3757,241.0938 1666.5007,241.0938 C1663.8757,241.0938 1661.8757,243.1719 1661.8757,245.8906 L1661.8757,247.0156 C1661.8757,249.5938 1663.9851,251.4844 1666.8757,251.4844 C1668.0945,251.4844 1669.2507,251.1875 1670.0007,250.6406 C1670.5788,250.2344 1670.907,249.7813 1670.907,249.3906 C1670.907,248.9375 1670.5163,248.5469 1670.0476,248.5469 C1669.8288,248.5469 1669.6257,248.625 1669.4382,248.8125 C1668.9851,249.2969 1668.9851,249.2969 1668.7976,249.3906 C1668.3757,249.6563 1667.6882,249.7813 1666.9226,249.7813 C1664.8757,249.7813 1663.5788,248.6875 1663.5788,246.9844 L1663.5788,245.8906 C1663.5788,244.1094 1664.8288,242.7969 1666.5632,242.7969 C1667.1413,242.7969 1667.7507,242.9531 1668.2195,243.2031 C1668.7038,243.4844 1668.8757,243.7031 1668.9695,244.1094 C1669.032,244.5156 1669.0632,244.6406 1669.2038,244.7656 C1669.3445,244.9063 1669.5788,245.0156 1669.7976,245.0156 C1670.0632,245.0156 1670.3288,244.875 1670.5007,244.6563 C1670.6101,244.5 1670.6413,244.3125 1670.6413,243.8906 L1670.6413,242.4688 C1670.6413,242.0313 1670.6257,241.9063 1670.532,241.75 C1670.3757,241.4844 1670.0945,241.3438 1669.7976,241.3438 C1669.5007,241.3438 1669.2976,241.4375 1669.0788,241.75 L1668.907,241.6719 Z "/><text fill="#000000" font-family="sans-serif" font-size="12" lengthAdjust="spacingAndGlyphs" textLength="26" x="1687.0632" y="250.1543">Turn</text><line style="stroke: #A80036; stroke-width: 1.5;" x1="1610.3132" x2="1757.3132" y1="262" y2="262"/><polygon fill="none" points="1620.3132,269,1616.3132,275,1624.3132,275" style="stroke: #1963A0; stroke-width: 1.0;"/><text fill="#000000" font-family="sans-serif" font-size="11" lengthAdjust="spacingAndGlyphs" text-decoration="underline" textLength="123" x="1629.3132" y="276.2104">NUMBER_PLAYERS: int</text><rect fill="none" height="6" style="stroke: #C82930; stroke-width: 1.0;" width="6" x="1617.3132" y="282.8047"/><text fill="#000000" font-family="sans-serif" font-size="11" lengthAdjust="spacingAndGlyphs" textLength="56" x="1629.3132" y="289.0151">active: int</text><line style="stroke: #A80036; stroke-width: 1.5;" x1="1610.3132" x2="1757.3132" y1="295.6094" y2="295.6094"/><polygon fill="#4177AF" points="1620.3132,302.6094,1616.3132,308.6094,1624.3132,308.6094" style="stroke: #1963A0; stroke-width: 1.0;"/><text fill="#000000" font-family="sans-serif" font-size="11" lengthAdjust="spacingAndGlyphs" textLength="66" x="1629.3132" y="309.8198">Turn(Board)</text><polygon fill="#4177AF" points="1620.3132,315.4141,1616.3132,321.4141,1624.3132,321.4141" style="stroke: #1963A0; stroke-width: 1.0;"/><text fill="#000000" font-family="sans-serif" font-size="11" lengthAdjust="spacingAndGlyphs" textLength="32" x="1629.3132" y="322.6245">play()</text><rect fill="#F24D5C" height="6" style="stroke: #C82930; stroke-width: 1.0;" width="6" x="1617.3132" y="329.2188"/><text fill="#000000" font-family="sans-serif" font-size="11" lengthAdjust="spacingAndGlyphs" textLength="104" x="1629.3132" y="335.4292">getPlayer(): Player</text><polygon fill="#4177AF" points="1620.3132,341.0234,1616.3132,347.0234,1624.3132,347.0234" style="stroke: #1963A0; stroke-width: 1.0;"/><text fill="#000000" font-family="sans-serif" font-size="11" lengthAdjust="spacingAndGlyphs" textLength="76" x="1629.3132" y="348.2339">writeWinner()</text><polygon fill="#4177AF" points="1620.3132,353.8281,1616.3132,359.8281,1624.3132,359.8281" style="stroke: #1963A0; stroke-width: 1.0;"/><text fill="#000000" font-family="sans-serif" font-size="11" lengthAdjust="spacingAndGlyphs" textLength="104" x="1629.3132" y="361.0386">getToken(): Token</text><!--MD5=[d6372c72e2ccc5ff253d254b6fe719ff]
class usantatecla.tictactoe.UserPlayer--><rect codeLine="112" fill="#FEFECE" filter="url(#f7ihtigdudnho)" height="112.0234" id="usantatecla.tictactoe.UserPlayer" style="stroke: #A80036; stroke-width: 1.5;" width="387" x="1027.3132" y="749"/><ellipse cx="1184.0632" cy="765" fill="#ADD1B2" rx="11" ry="11" style="stroke: #A80036; stroke-width: 1.0;"/><path d="M1186.407,760.6719 C1185.4695,760.2344 1184.8757,760.0938 1184.0007,760.0938 C1181.3757,760.0938 1179.3757,762.1719 1179.3757,764.8906 L1179.3757,766.0156 C1179.3757,768.5938 1181.4851,770.4844 1184.3757,770.4844 C1185.5945,770.4844 1186.7507,770.1875 1187.5007,769.6406 C1188.0788,769.2344 1188.407,768.7813 1188.407,768.3906 C1188.407,767.9375 1188.0163,767.5469 1187.5476,767.5469 C1187.3288,767.5469 1187.1257,767.625 1186.9382,767.8125 C1186.4851,768.2969 1186.4851,768.2969 1186.2976,768.3906 C1185.8757,768.6563 1185.1882,768.7813 1184.4226,768.7813 C1182.3757,768.7813 1181.0788,767.6875 1181.0788,765.9844 L1181.0788,764.8906 C1181.0788,763.1094 1182.3288,761.7969 1184.0632,761.7969 C1184.6413,761.7969 1185.2507,761.9531 1185.7195,762.2031 C1186.2038,762.4844 1186.3757,762.7031 1186.4695,763.1094 C1186.532,763.5156 1186.5632,763.6406 1186.7038,763.7656 C1186.8445,763.9063 1187.0788,764.0156 1187.2976,764.0156 C1187.5632,764.0156 1187.8288,763.875 1188.0007,763.6563 C1188.1101,763.5 1188.1413,763.3125 1188.1413,762.8906 L1188.1413,761.4688 C1188.1413,761.0313 1188.1257,760.9063 1188.032,760.75 C1187.8757,760.4844 1187.5945,760.3438 1187.2976,760.3438 C1187.0007,760.3438 1186.7976,760.4375 1186.5788,760.75 L1186.407,760.6719 Z "/><text fill="#000000" font-family="sans-serif" font-size="12" lengthAdjust="spacingAndGlyphs" textLength="65" x="1204.5632" y="769.1543">UserPlayer</text><line style="stroke: #A80036; stroke-width: 1.5;" x1="1028.3132" x2="1413.3132" y1="781" y2="781"/><line style="stroke: #A80036; stroke-width: 1.5;" x1="1028.3132" x2="1413.3132" y1="789" y2="789"/><polygon fill="#4177AF" points="1038.3132,796,1034.3132,802,1042.3132,802" style="stroke: #1963A0; stroke-width: 1.0;"/><text fill="#000000" font-family="sans-serif" font-size="11" lengthAdjust="spacingAndGlyphs" textLength="144" x="1047.3132" y="803.2104">UserPlayer(Token, Board)</text><polygon fill="#4177AF" points="1038.3132,808.8047,1034.3132,814.8047,1042.3132,814.8047" style="stroke: #1963A0; stroke-width: 1.0;"/><text fill="#000000" font-family="sans-serif" font-size="11" lengthAdjust="spacingAndGlyphs" textLength="266" x="1047.3132" y="816.0151">getCoordinate(Message message): Coordinate</text><polygon fill="#4177AF" points="1038.3132,821.6094,1034.3132,827.6094,1042.3132,827.6094" style="stroke: #1963A0; stroke-width: 1.0;"/><text fill="#000000" font-family="sans-serif" font-size="11" lengthAdjust="spacingAndGlyphs" textLength="241" x="1047.3132" y="828.8198">checkPutCoordinateError(Coordinate): Error</text><polygon fill="#4177AF" points="1038.3132,834.4141,1034.3132,840.4141,1042.3132,840.4141" style="stroke: #1963A0; stroke-width: 1.0;"/><text fill="#000000" font-family="sans-serif" font-size="11" lengthAdjust="spacingAndGlyphs" textLength="288" x="1047.3132" y="841.6245">checkMoveOriginCoordinateError(Coordinate): Error</text><polygon fill="#4177AF" points="1038.3132,847.2188,1034.3132,853.2188,1042.3132,853.2188" style="stroke: #1963A0; stroke-width: 1.0;"/><text fill="#000000" font-family="sans-serif" font-size="11" lengthAdjust="spacingAndGlyphs" textLength="361" x="1047.3132" y="854.4292">checkMoveTargetCoordinateError(Coordinate, Coordinate): Error</text><!--MD5=[4ac948797cb0d646e058fac8f0726737]
class ConcreteCoordinate--><rect codeLine="139" fill="#FEFECE" filter="url(#f7ihtigdudnho)" height="48" id="ConcreteCoordinate" style="stroke: #A80036; stroke-width: 1.5;" width="251" x="1831.3132" y="781"/><ellipse cx="1846.3132" cy="797" fill="#ADD1B2" rx="11" ry="11" style="stroke: #A80036; stroke-width: 1.0;"/><path d="M1848.657,792.6719 C1847.7195,792.2344 1847.1257,792.0938 1846.2507,792.0938 C1843.6257,792.0938 1841.6257,794.1719 1841.6257,796.8906 L1841.6257,798.0156 C1841.6257,800.5938 1843.7351,802.4844 1846.6257,802.4844 C1847.8445,802.4844 1849.0007,802.1875 1849.7507,801.6406 C1850.3288,801.2344 1850.657,800.7813 1850.657,800.3906 C1850.657,799.9375 1850.2663,799.5469 1849.7976,799.5469 C1849.5788,799.5469 1849.3757,799.625 1849.1882,799.8125 C1848.7351,800.2969 1848.7351,800.2969 1848.5476,800.3906 C1848.1257,800.6563 1847.4382,800.7813 1846.6726,800.7813 C1844.6257,800.7813 1843.3288,799.6875 1843.3288,797.9844 L1843.3288,796.8906 C1843.3288,795.1094 1844.5788,793.7969 1846.3132,793.7969 C1846.8913,793.7969 1847.5007,793.9531 1847.9695,794.2031 C1848.4538,794.4844 1848.6257,794.7031 1848.7195,795.1094 C1848.782,795.5156 1848.8132,795.6406 1848.9538,795.7656 C1849.0945,795.9063 1849.3288,796.0156 1849.5476,796.0156 C1849.8132,796.0156 1850.0788,795.875 1850.2507,795.6563 C1850.3601,795.5 1850.3913,795.3125 1850.3913,794.8906 L1850.3913,793.4688 C1850.3913,793.0313 1850.3757,792.9063 1850.282,792.75 C1850.1257,792.4844 1849.8445,792.3438 1849.5476,792.3438 C1849.2507,792.3438 1849.0476,792.4375 1848.8288,792.75 L1848.657,792.6719 Z "/><text fill="#000000" font-family="sans-serif" font-size="12" lengthAdjust="spacingAndGlyphs" textLength="219" x="1860.3132" y="801.1543">usantatecla.utils.ConcreteCoordinate</text><line style="stroke: #A80036; stroke-width: 1.5;" x1="1832.3132" x2="2081.3132" y1="813" y2="813"/><line style="stroke: #A80036; stroke-width: 1.5;" x1="1832.3132" x2="2081.3132" y1="821" y2="821"/><!--MD5=[f0e50675208408ddbf1ed7a91f4eb071]
class ClosedInterval--><rect codeLine="143" fill="#FEFECE" filter="url(#f7ihtigdudnho)" height="48" id="ClosedInterval" style="stroke: #A80036; stroke-width: 1.5;" width="216" x="299.8102" y="1369.5"/><ellipse cx="314.8102" cy="1385.5" fill="#ADD1B2" rx="11" ry="11" style="stroke: #A80036; stroke-width: 1.0;"/><path d="M317.154,1381.1719 C316.2165,1380.7344 315.6227,1380.5938 314.7477,1380.5938 C312.1227,1380.5938 310.1227,1382.6719 310.1227,1385.3906 L310.1227,1386.5156 C310.1227,1389.0938 312.2321,1390.9844 315.1227,1390.9844 C316.3415,1390.9844 317.4977,1390.6875 318.2477,1390.1406 C318.8258,1389.7344 319.154,1389.2813 319.154,1388.8906 C319.154,1388.4375 318.7633,1388.0469 318.2946,1388.0469 C318.0758,1388.0469 317.8727,1388.125 317.6852,1388.3125 C317.2321,1388.7969 317.2321,1388.7969 317.0446,1388.8906 C316.6227,1389.1563 315.9352,1389.2813 315.1696,1389.2813 C313.1227,1389.2813 311.8258,1388.1875 311.8258,1386.4844 L311.8258,1385.3906 C311.8258,1383.6094 313.0758,1382.2969 314.8102,1382.2969 C315.3883,1382.2969 315.9977,1382.4531 316.4665,1382.7031 C316.9508,1382.9844 317.1227,1383.2031 317.2165,1383.6094 C317.279,1384.0156 317.3102,1384.1406 317.4508,1384.2656 C317.5915,1384.4063 317.8258,1384.5156 318.0446,1384.5156 C318.3102,1384.5156 318.5758,1384.375 318.7477,1384.1563 C318.8571,1384 318.8883,1383.8125 318.8883,1383.3906 L318.8883,1381.9688 C318.8883,1381.5313 318.8727,1381.4063 318.779,1381.25 C318.6227,1380.9844 318.3415,1380.8438 318.0446,1380.8438 C317.7477,1380.8438 317.5446,1380.9375 317.3258,1381.25 L317.154,1381.1719 Z "/><text fill="#000000" font-family="sans-serif" font-size="12" lengthAdjust="spacingAndGlyphs" textLength="184" x="328.8102" y="1389.6543">usantatecla.utils.ClosedInterval</text><line style="stroke: #A80036; stroke-width: 1.5;" x1="300.8102" x2="514.8102" y1="1401.5" y2="1401.5"/><line style="stroke: #A80036; stroke-width: 1.5;" x1="300.8102" x2="514.8102" y1="1409.5" y2="1409.5"/><!--MD5=[315b61b427ec618d6861d47eee00cca3]
class Console--><rect codeLine="147" fill="#FEFECE" filter="url(#f7ihtigdudnho)" height="48" id="Console" style="stroke: #A80036; stroke-width: 1.5;" width="179" x="917.3102" y="1538"/><ellipse cx="932.3102" cy="1554" fill="#ADD1B2" rx="11" ry="11" style="stroke: #A80036; stroke-width: 1.0;"/><path d="M934.654,1549.6719 C933.7165,1549.2344 933.1227,1549.0938 932.2477,1549.0938 C929.6227,1549.0938 927.6227,1551.1719 927.6227,1553.8906 L927.6227,1555.0156 C927.6227,1557.5938 929.7321,1559.4844 932.6227,1559.4844 C933.8415,1559.4844 934.9977,1559.1875 935.7477,1558.6406 C936.3258,1558.2344 936.654,1557.7813 936.654,1557.3906 C936.654,1556.9375 936.2633,1556.5469 935.7946,1556.5469 C935.5758,1556.5469 935.3727,1556.625 935.1852,1556.8125 C934.7321,1557.2969 934.7321,1557.2969 934.5446,1557.3906 C934.1227,1557.6563 933.4352,1557.7813 932.6696,1557.7813 C930.6227,1557.7813 929.3258,1556.6875 929.3258,1554.9844 L929.3258,1553.8906 C929.3258,1552.1094 930.5758,1550.7969 932.3102,1550.7969 C932.8883,1550.7969 933.4977,1550.9531 933.9665,1551.2031 C934.4508,1551.4844 934.6227,1551.7031 934.7165,1552.1094 C934.779,1552.5156 934.8102,1552.6406 934.9508,1552.7656 C935.0915,1552.9063 935.3258,1553.0156 935.5446,1553.0156 C935.8102,1553.0156 936.0758,1552.875 936.2477,1552.6563 C936.3571,1552.5 936.3883,1552.3125 936.3883,1551.8906 L936.3883,1550.4688 C936.3883,1550.0313 936.3727,1549.9063 936.279,1549.75 C936.1227,1549.4844 935.8415,1549.3438 935.5446,1549.3438 C935.2477,1549.3438 935.0446,1549.4375 934.8258,1549.75 L934.654,1549.6719 Z "/><text fill="#000000" font-family="sans-serif" font-size="12" lengthAdjust="spacingAndGlyphs" textLength="147" x="946.3102" y="1558.1543">usantatecla.utils.Console</text><line style="stroke: #A80036; stroke-width: 1.5;" x1="918.3102" x2="1095.3102" y1="1570" y2="1570"/><line style="stroke: #A80036; stroke-width: 1.5;" x1="918.3102" x2="1095.3102" y1="1578" y2="1578"/><!--MD5=[58767b3ac92ed88fc68bd4b9dc66dad3]
class LimitedIntDialog--><rect codeLine="151" fill="#FEFECE" filter="url(#f7ihtigdudnho)" height="48" id="LimitedIntDialog" style="stroke: #A80036; stroke-width: 1.5;" width="225" x="1831.3132" y="509"/><ellipse cx="1846.3132" cy="525" fill="#ADD1B2" rx="11" ry="11" style="stroke: #A80036; stroke-width: 1.0;"/><path d="M1848.657,520.6719 C1847.7195,520.2344 1847.1257,520.0938 1846.2507,520.0938 C1843.6257,520.0938 1841.6257,522.1719 1841.6257,524.8906 L1841.6257,526.0156 C1841.6257,528.5938 1843.7351,530.4844 1846.6257,530.4844 C1847.8445,530.4844 1849.0007,530.1875 1849.7507,529.6406 C1850.3288,529.2344 1850.657,528.7813 1850.657,528.3906 C1850.657,527.9375 1850.2663,527.5469 1849.7976,527.5469 C1849.5788,527.5469 1849.3757,527.625 1849.1882,527.8125 C1848.7351,528.2969 1848.7351,528.2969 1848.5476,528.3906 C1848.1257,528.6563 1847.4382,528.7813 1846.6726,528.7813 C1844.6257,528.7813 1843.3288,527.6875 1843.3288,525.9844 L1843.3288,524.8906 C1843.3288,523.1094 1844.5788,521.7969 1846.3132,521.7969 C1846.8913,521.7969 1847.5007,521.9531 1847.9695,522.2031 C1848.4538,522.4844 1848.6257,522.7031 1848.7195,523.1094 C1848.782,523.5156 1848.8132,523.6406 1848.9538,523.7656 C1849.0945,523.9063 1849.3288,524.0156 1849.5476,524.0156 C1849.8132,524.0156 1850.0788,523.875 1850.2507,523.6563 C1850.3601,523.5 1850.3913,523.3125 1850.3913,522.8906 L1850.3913,521.4688 C1850.3913,521.0313 1850.3757,520.9063 1850.282,520.75 C1850.1257,520.4844 1849.8445,520.3438 1849.5476,520.3438 C1849.2507,520.3438 1849.0476,520.4375 1848.8288,520.75 L1848.657,520.6719 Z "/><text fill="#000000" font-family="sans-serif" font-size="12" lengthAdjust="spacingAndGlyphs" textLength="193" x="1860.3132" y="529.1543">usantatecla.utils.LimitedIntDialog</text><line style="stroke: #A80036; stroke-width: 1.5;" x1="1832.3132" x2="2055.3132" y1="541" y2="541"/><line style="stroke: #A80036; stroke-width: 1.5;" x1="1832.3132" x2="2055.3132" y1="549" y2="549"/><!--MD5=[d93cf99d2b92276f27fe8dbf15140505]
class YesNoDialog--><rect codeLine="155" fill="#FEFECE" filter="url(#f7ihtigdudnho)" height="48" id="YesNoDialog" style="stroke: #A80036; stroke-width: 1.5;" width="206" x="1830.8132" y="275"/><ellipse cx="1845.8132" cy="291" fill="#ADD1B2" rx="11" ry="11" style="stroke: #A80036; stroke-width: 1.0;"/><path d="M1848.157,286.6719 C1847.2195,286.2344 1846.6257,286.0938 1845.7507,286.0938 C1843.1257,286.0938 1841.1257,288.1719 1841.1257,290.8906 L1841.1257,292.0156 C1841.1257,294.5938 1843.2351,296.4844 1846.1257,296.4844 C1847.3445,296.4844 1848.5007,296.1875 1849.2507,295.6406 C1849.8288,295.2344 1850.157,294.7813 1850.157,294.3906 C1850.157,293.9375 1849.7663,293.5469 1849.2976,293.5469 C1849.0788,293.5469 1848.8757,293.625 1848.6882,293.8125 C1848.2351,294.2969 1848.2351,294.2969 1848.0476,294.3906 C1847.6257,294.6563 1846.9382,294.7813 1846.1726,294.7813 C1844.1257,294.7813 1842.8288,293.6875 1842.8288,291.9844 L1842.8288,290.8906 C1842.8288,289.1094 1844.0788,287.7969 1845.8132,287.7969 C1846.3913,287.7969 1847.0007,287.9531 1847.4695,288.2031 C1847.9538,288.4844 1848.1257,288.7031 1848.2195,289.1094 C1848.282,289.5156 1848.3132,289.6406 1848.4538,289.7656 C1848.5945,289.9063 1848.8288,290.0156 1849.0476,290.0156 C1849.3132,290.0156 1849.5788,289.875 1849.7507,289.6563 C1849.8601,289.5 1849.8913,289.3125 1849.8913,288.8906 L1849.8913,287.4688 C1849.8913,287.0313 1849.8757,286.9063 1849.782,286.75 C1849.6257,286.4844 1849.3445,286.3438 1849.0476,286.3438 C1848.7507,286.3438 1848.5476,286.4375 1848.3288,286.75 L1848.157,286.6719 Z "/><text fill="#000000" font-family="sans-serif" font-size="12" lengthAdjust="spacingAndGlyphs" textLength="174" x="1859.8132" y="295.1543">usantatecla.utils.YesNoDialog</text><line style="stroke: #A80036; stroke-width: 1.5;" x1="1831.8132" x2="2035.8132" y1="307" y2="307"/><line style="stroke: #A80036; stroke-width: 1.5;" x1="1831.8132" x2="2035.8132" y1="315" y2="315"/><!--MD5=[02f7077ed79257124e28b791f351f1d7]
class Direction--><rect codeLine="159" fill="#FEFECE" filter="url(#f7ihtigdudnho)" height="48" id="Direction" style="stroke: #A80036; stroke-width: 1.5;" width="184" x="80.8101" y="1369.5"/><ellipse cx="95.8101" cy="1385.5" fill="#EB937F" rx="11" ry="11" style="stroke: #A80036; stroke-width: 1.0;"/><path d="M94.607,1386.375 L96.0601,1386.375 L96.0601,1386.4844 C96.0601,1386.8906 96.0914,1387.0469 96.1695,1387.2031 C96.3257,1387.4531 96.607,1387.6094 96.9039,1387.6094 C97.1539,1387.6094 97.4195,1387.4688 97.5757,1387.25 C97.7007,1387.0938 97.732,1386.9375 97.732,1386.4844 L97.732,1384.5625 C97.732,1384.4063 97.732,1384.3594 97.7164,1384.2031 C97.6539,1383.7344 97.3414,1383.4219 96.8882,1383.4219 C96.6382,1383.4219 96.3726,1383.5625 96.2007,1383.7813 C96.0914,1383.9531 96.0601,1384.1094 96.0601,1384.5625 L96.0601,1384.6875 L94.607,1384.6875 L94.607,1382.2813 L98.5914,1382.2813 L98.5914,1383.1406 C98.5914,1383.5469 98.6226,1383.7188 98.7007,1383.875 C98.8726,1384.125 99.1539,1384.2813 99.4351,1384.2813 C99.7007,1384.2813 99.9664,1384.1406 100.1382,1383.9219 C100.2476,1383.75 100.2789,1383.6094 100.2789,1383.1406 L100.2789,1380.5938 L92.6539,1380.5938 C92.2164,1380.5938 92.0914,1380.6094 91.9351,1380.7031 C91.6851,1380.8594 91.5289,1381.1563 91.5289,1381.4375 C91.5289,1381.7188 91.6695,1381.9688 91.8882,1382.1406 C92.0445,1382.25 92.232,1382.2813 92.6539,1382.2813 L92.9039,1382.2813 L92.9039,1388.7969 L92.6539,1388.7969 C92.2476,1388.7969 92.0914,1388.8125 91.9351,1388.9219 C91.6851,1389.0938 91.5289,1389.3594 91.5289,1389.6563 C91.5289,1389.9219 91.6695,1390.1719 91.8882,1390.3281 C92.0289,1390.4531 92.2632,1390.5 92.6539,1390.5 L100.6539,1390.5 L100.6539,1387.9219 C100.6539,1387.4844 100.6226,1387.3438 100.5445,1387.1875 C100.3726,1386.9375 100.0914,1386.7813 99.8101,1386.7813 C99.5445,1386.7813 99.2789,1386.8906 99.107,1387.1406 C98.9976,1387.2969 98.9664,1387.4375 98.9664,1387.9219 L98.9664,1388.7969 L94.607,1388.7969 L94.607,1386.375 Z "/><text fill="#000000" font-family="sans-serif" font-size="12" lengthAdjust="spacingAndGlyphs" textLength="152" x="109.8101" y="1389.6543">usantatecla.utils.Direction</text><line style="stroke: #A80036; stroke-width: 1.5;" x1="81.8101" x2="263.8101" y1="1401.5" y2="1401.5"/><line style="stroke: #A80036; stroke-width: 1.5;" x1="81.8101" x2="263.8101" y1="1409.5" y2="1409.5"/><!--MD5=[9054d1d596f71892773aeee04ca59ea9]
reverse link usantatecla.tictactoe.Player to usantatecla.tictactoe.UserPlayer--><path d="M1220.8132,641.374 C1220.8132,678.192 1220.8132,717.874 1220.8132,748.822 " fill="none" id="usantatecla.tictactoe.Player-backto-usantatecla.tictactoe.UserPlayer" style="stroke: #A80036; stroke-width: 1.0;"/><polygon fill="none" points="1213.8132,641.288,1220.8132,621.288,1227.8132,641.288,1213.8132,641.288" style="stroke: #A80036; stroke-width: 1.0;"/><!--MD5=[f55dc4ca1029546e2cc70a6003711be1]
link usantatecla.tictactoe.TicTacToe to usantatecla.tictactoe.Board--><path codeLine="120" d="M1589.8246,135.5656 C1589.8246,135.5656 1193.3932,299.72 1009.8102,445 C923.7082,513.14 845.9522,610.482 792.0612,686.62 " fill="none" id="usantatecla.tictactoe.TicTacToe-usantatecla.tictactoe.Board" style="stroke: #A80036; stroke-width: 1.0;"/><polygon fill="#A80036" points="784.2852,697.694,792.7308,692.6272,787.1586,693.6021,786.1837,688.0299,784.2852,697.694" style="stroke: #A80036; stroke-width: 1.0;"/><line style="stroke: #A80036; stroke-width: 1.0;" x1="787.1586" x2="791.7562" y1="693.6021" y2="687.055"/><polygon fill="#A80036" points="1601.0332,131.28,1594.0003,129.6866,1589.8246,135.5656,1596.8574,137.159,1601.0332,131.28" style="stroke: #A80036; stroke-width: 1.0;"/><text fill="#000000" font-family="sans-serif" font-size="13" lengthAdjust="spacingAndGlyphs" textLength="37" x="1067.8132" y="411.0669">board</text><!--MD5=[ce283d8c110a506040c2dd735ef47160]
link usantatecla.tictactoe.TicTacToe to usantatecla.tictactoe.Turn--><path codeLine="121" d="M1690.4599,165.1653 C1690.4599,165.1653 1688.7132,199.91 1687.8832,216.61 " fill="none" id="usantatecla.tictactoe.TicTacToe-usantatecla.tictactoe.Turn" style="stroke: #A80036; stroke-width: 1.0;"/><polygon fill="#A80036" points="1687.2232,229.8,1691.673,221.0137,1687.4759,224.8064,1683.6832,220.6093,1687.2232,229.8" style="stroke: #A80036; stroke-width: 1.0;"/><line style="stroke: #A80036; stroke-width: 1.0;" x1="1687.4759" x2="1687.8682" y1="224.8064" y2="216.82"/><polygon fill="#A80036" points="1691.0532,153.18,1686.7614,158.9749,1690.4599,165.1653,1694.7516,159.3704,1691.0532,153.18" style="stroke: #A80036; stroke-width: 1.0;"/><text fill="#000000" font-family="sans-serif" font-size="13" lengthAdjust="spacingAndGlyphs" textLength="26" x="1689.8132" y="196.0669">turn</text><!--MD5=[8842675a9ea127b9dcc7c26c260f87ba]
link usantatecla.tictactoe.Board to usantatecla.tictactoe.Token--><path codeLine="123" d="M677.8402,912.246 C662.1992,956.012 644.5522,1005.391 630.7602,1043.982 " fill="none" id="usantatecla.tictactoe.Board-to-usantatecla.tictactoe.Token" style="stroke: #A80036; stroke-width: 1.0; stroke-dasharray: 7.0,7.0;"/><polygon fill="#A80036" points="628.9272,1049.114,635.7228,1041.9852,630.61,1044.4057,628.1895,1039.2928,628.9272,1049.114" style="stroke: #A80036; stroke-width: 1.0;"/><!--MD5=[d113ddce6fd1895c2fc1e379d25bb267]
link usantatecla.tictactoe.Turn to usantatecla.tictactoe.Token--><path codeLine="124" d="M1609.1232,308.46 C1482.4832,324.46 1218.9932,364.97 1009.8102,445 C798.0432,526.02 680.6382,501.91 566.8102,698 C503.8972,806.38 544.9582,958.174 577.7362,1044.333 " fill="none" id="usantatecla.tictactoe.Turn-to-usantatecla.tictactoe.Token" style="stroke: #A80036; stroke-width: 1.0; stroke-dasharray: 7.0,7.0;"/><polygon fill="#A80036" points="579.5862,1049.149,580.0938,1039.3132,577.7937,1044.4814,572.6256,1042.1812,579.5862,1049.149" style="stroke: #A80036; stroke-width: 1.0;"/><!--MD5=[da9e0b814734f6fa908ce67941f7afa7]
link usantatecla.tictactoe.Player to usantatecla.tictactoe.Token--><path codeLine="125" d="M1016.9787,625.88 C1016.9787,625.88 992.5962,642.401 981.8102,651 C882.4112,730.246 956.0482,823.481 864.8102,912 C803.5802,971.405 748.3122,918.342 682.8102,973 C662.4232,990.012 646.5692,1013.966 634.7422,1037.151 " fill="none" id="usantatecla.tictactoe.Player-usantatecla.tictactoe.Token" style="stroke: #A80036; stroke-width: 1.0;"/><polygon fill="#A80036" points="628.9222,1049.164,636.4461,1042.8086,631.1023,1044.6643,629.2466,1039.3205,628.9222,1049.164" style="stroke: #A80036; stroke-width: 1.0;"/><line style="stroke: #A80036; stroke-width: 1.0;" x1="631.1023" x2="634.5902" y1="1044.6643" y2="1037.465"/><polygon fill="#A80036" points="1027.1232,619.47,1019.9143,619.2935,1016.9787,625.88,1024.1876,626.0565,1027.1232,619.47" style="stroke: #A80036; stroke-width: 1.0;"/><text fill="#000000" font-family="sans-serif" font-size="13" lengthAdjust="spacingAndGlyphs" textLength="36" x="940.8102" y="809.5669">token</text><!--MD5=[a1d26119a69b0875542b2a0468983617]
link usantatecla.tictactoe.Player to usantatecla.tictactoe.Board--><path codeLine="126" d="M1015.9119,584.3634 C1015.9119,584.3634 913.2622,623.553 868.8102,651 C851.3402,661.787 834.3562,674.942 818.4462,688.962 " fill="none" id="usantatecla.tictactoe.Player-usantatecla.tictactoe.Board" style="stroke: #A80036; stroke-width: 1.0;"/><polygon fill="#A80036" points="808.6842,697.79,818.0425,694.7203,812.3927,694.4364,812.6767,688.7867,808.6842,697.79" style="stroke: #A80036; stroke-width: 1.0;"/><line style="stroke: #A80036; stroke-width: 1.0;" x1="812.3927" x2="818.3262" y1="694.4364" y2="689.07"/><polygon fill="#A80036" points="1027.2932,580.56,1020.3347,578.668,1015.9119,584.3634,1022.8704,586.2555,1027.2932,580.56" style="stroke: #A80036; stroke-width: 1.0;"/><text fill="#000000" font-family="sans-serif" font-size="13" lengthAdjust="spacingAndGlyphs" textLength="37" x="869.8102" y="664.0669">board</text><!--MD5=[529b3f680026169e7030eafcb9573de9]
link usantatecla.tictactoe.Turn to usantatecla.tictactoe.Player--><path codeLine="127" d="M1598.4354,342.7771 C1598.4354,342.7771 1472.5932,405.84 1406.6632,438.87 " fill="none" id="usantatecla.tictactoe.Turn-usantatecla.tictactoe.Player" style="stroke: #A80036; stroke-width: 1.0;"/><polygon fill="#A80036" points="1394.8532,444.79,1404.6915,444.3331,1399.3231,442.5495,1401.1067,437.1812,1394.8532,444.79" style="stroke: #A80036; stroke-width: 1.0;"/><line style="stroke: #A80036; stroke-width: 1.0;" x1="1399.3231" x2="1406.4732" y1="442.5495" y2="438.97"/><polygon fill="#A80036" points="1609.1632,337.4,1602.0069,336.5126,1598.4354,342.7771,1605.5916,343.6645,1609.1632,337.4" style="stroke: #A80036; stroke-width: 1.0;"/><text fill="#000000" font-family="sans-serif" font-size="13" lengthAdjust="spacingAndGlyphs" textLength="40" x="1480.8132" y="411.0669">player</text><text fill="#000000" font-family="sans-serif" font-size="13" lengthAdjust="spacingAndGlyphs" textLength="8" x="1400.9346" y="433.9345">2</text><!--MD5=[bfa888729168fa3147cbf7352825b6b1]
link usantatecla.tictactoe.Board to usantatecla.tictactoe.Coordinate--><path codeLine="128" d="M771.0953,923.0975 C771.0953,923.0975 797.6422,979.324 809.9902,1005.478 " fill="none" id="usantatecla.tictactoe.Board-usantatecla.tictactoe.Coordinate" style="stroke: #A80036; stroke-width: 1.0;"/><polygon fill="#A80036" points="815.5892,1017.338,815.364,1007.4917,813.4546,1012.8166,808.1297,1010.9071,815.5892,1017.338" style="stroke: #A80036; stroke-width: 1.0;"/><line style="stroke: #A80036; stroke-width: 1.0;" x1="813.4546" x2="810.0397" y1="1012.8166" y2="1005.5825"/><polygon fill="#A80036" points="765.9722,912.246,764.9166,919.3794,771.0953,923.0975,772.1509,915.964,765.9722,912.246" style="stroke: #A80036; stroke-width: 1.0;"/><!--MD5=[287634111649744118617a7068f6a88b]
reverse link usantatecla.tictactoe.Player to usantatecla.tictactoe.MachinePlayer--><path codeLine="129" d="M1349.0432,633.509 C1376.3832,654.766 1405.0632,677.108 1431.8132,698 C1461.5132,721.206 1494.8232,747.361 1520.9232,767.884 " fill="none" id="usantatecla.tictactoe.Player-backto-usantatecla.tictactoe.MachinePlayer" style="stroke: #A80036; stroke-width: 1.0;"/><polygon fill="none" points="1344.6232,638.939,1333.1332,621.137,1353.2132,627.886,1344.6232,638.939" style="stroke: #A80036; stroke-width: 1.0;"/><!--MD5=[cb3b258fc3efb46a680af02e5e1f3af2]
link usantatecla.tictactoe.Coordinate to usantatecla.tictactoe.Error--><path codeLine="130" d="M909.1682,1206.847 C926.2602,1239.345 945.3112,1275.569 962.0162,1307.331 " fill="none" id="usantatecla.tictactoe.Coordinate-to-usantatecla.tictactoe.Error" style="stroke: #A80036; stroke-width: 1.0; stroke-dasharray: 7.0,7.0;"/><polygon fill="#A80036" points="964.4632,1311.984,963.8149,1302.1565,962.1362,1307.5585,956.7342,1305.8797,964.4632,1311.984" style="stroke: #A80036; stroke-width: 1.0;"/><!--MD5=[e43764ef036bd32d7bebb5fdc89dab41]
link usantatecla.tictactoe.Player to usantatecla.tictactoe.Error--><path codeLine="131" d="M1071.9132,621.027 C1046.8032,642.801 1024.2332,668.515 1009.8102,698 C968.0092,783.433 990.1362,818.946 1009.8102,912 C1015.9422,941.007 1030.6732,943.993 1036.8132,973 C1062.3632,1093.883 1049.6932,1128.118 1036.8132,1251 C1034.9032,1269.149 1031.6632,1288.396 1028.0032,1306.655 " fill="none" id="usantatecla.tictactoe.Player-to-usantatecla.tictactoe.Error" style="stroke: #A80036; stroke-width: 1.0; stroke-dasharray: 7.0,7.0;"/><polygon fill="#A80036" points="1026.9632,1311.777,1032.6821,1303.7586,1027.963,1306.878,1024.8436,1302.1589,1026.9632,1311.777" style="stroke: #A80036; stroke-width: 1.0;"/><!--MD5=[c1cc06e9ee042e231acd704d3db91e02]
link usantatecla.tictactoe.Board to usantatecla.tictactoe.Message--><path codeLine="132" d="M847.0622,898.865 C855.9362,903.633 864.8952,908.067 873.8102,912 C999.0022,967.231 1379.9932,1048.898 1572.6632,1088.214 " fill="none" id="usantatecla.tictactoe.Board-to-usantatecla.tictactoe.Message" style="stroke: #A80036; stroke-width: 1.0; stroke-dasharray: 7.0,7.0;"/><polygon fill="#A80036" points="1577.7432,1089.25,1569.7248,1083.5311,1572.8442,1088.2502,1568.1251,1091.3696,1577.7432,1089.25" style="stroke: #A80036; stroke-width: 1.0;"/><!--MD5=[7e581fdc1c15d414673a5603eefb02c4]
link usantatecla.tictactoe.Player to usantatecla.tictactoe.Message--><path codeLine="133" d="M1414.4532,547.55 C1517.7132,565.8 1636.6032,606.878 1701.8132,698 C1756.7732,774.803 1751.2432,881.812 1732.9032,967.66 " fill="none" id="usantatecla.tictactoe.Player-to-usantatecla.tictactoe.Message" style="stroke: #A80036; stroke-width: 1.0; stroke-dasharray: 7.0,7.0;"/><polygon fill="#A80036" points="1731.7932,972.765,1737.6171,964.8226,1732.8574,967.8796,1729.8005,963.1198,1731.7932,972.765" style="stroke: #A80036; stroke-width: 1.0;"/><!--MD5=[4658d6f36d7d9c2388a7aa58b8f9a55b]
link usantatecla.tictactoe.TicTacToe to usantatecla.tictactoe.Message--><path codeLine="134" d="M1739.2832,153.34 C1766.0932,191.57 1794.8132,244.9 1794.8132,298 C1794.8132,298 1794.8132,298 1794.8132,806 C1794.8132,860.826 1779.1132,918.18 1759.6832,968.165 " fill="none" id="usantatecla.tictactoe.TicTacToe-to-usantatecla.tictactoe.Message" style="stroke: #A80036; stroke-width: 1.0; stroke-dasharray: 7.0,7.0;"/><polygon fill="#A80036" points="1757.7932,972.979,1764.8058,966.0635,1759.6206,968.3249,1757.3592,963.1397,1757.7932,972.979" style="stroke: #A80036; stroke-width: 1.0;"/><!--MD5=[62ac8b859d6a910fbb401d124595bc0b]
link usantatecla.tictactoe.Turn to usantatecla.tictactoe.Message--><path codeLine="135" d="M1693.3532,368.18 C1704.1232,447.33 1721.4832,581.88 1731.8132,698 C1741.4332,806.196 1742.6932,833.422 1745.8132,942 C1746.0532,950.361 1745.5832,958.831 1744.5632,967.296 " fill="none" id="usantatecla.tictactoe.Turn-to-usantatecla.tictactoe.Message" style="stroke: #A80036; stroke-width: 1.0; stroke-dasharray: 7.0,7.0;"/><polygon fill="#A80036" points="1743.8632,972.565,1749.0231,964.176,1744.5273,967.6093,1741.094,963.1135,1743.8632,972.565" style="stroke: #A80036; stroke-width: 1.0;"/><!--MD5=[88d77fad83bebfdbbb7645aa3f97d38d]
reverse link ConcreteCoordinate to usantatecla.tictactoe.Coordinate--><path codeLine="163" d="M1916.9132,842.441 C1889.3132,865.729 1850.6832,894.702 1811.8132,912 C1775.6332,928.099 1281.1132,1027.494 1019.5282,1079.44 " fill="none" id="ConcreteCoordinate-backto-usantatecla.tictactoe.Coordinate" style="stroke: #A80036; stroke-width: 1.0;"/><polygon fill="none" points="1912.5032,837.002,1932.1932,829.175,1921.6832,847.573,1912.5032,837.002" style="stroke: #A80036; stroke-width: 1.0;"/><!--MD5=[934fb392a73132a0ebf18f95113c60ed]
link usantatecla.tictactoe.Coordinate to ClosedInterval--><path codeLine="165" d="M749.3352,1206.624 C727.9862,1222.525 705.2572,1238.056 682.8102,1251 C620.1082,1287.157 596.0152,1278.585 531.8102,1312 C500.9252,1328.074 467.9542,1349.716 443.7802,1366.512 " fill="none" id="usantatecla.tictactoe.Coordinate-to-ClosedInterval" style="stroke: #A80036; stroke-width: 1.0; stroke-dasharray: 7.0,7.0;"/><polygon fill="#A80036" points="439.6752,1369.376,449.3448,1367.5053,443.7754,1366.5144,444.7663,1360.9451,439.6752,1369.376" style="stroke: #A80036; stroke-width: 1.0;"/><!--MD5=[e42dc3dc7895e07d7350a715b050ad9b]
link usantatecla.tictactoe.Token to ClosedInterval--><path codeLine="166" d="M562.8922,1174.683 C520.5352,1234.175 458.3912,1321.457 427.1912,1365.278 " fill="none" id="usantatecla.tictactoe.Token-to-ClosedInterval" style="stroke: #A80036; stroke-width: 1.0; stroke-dasharray: 7.0,7.0;"/><polygon fill="#A80036" points="424.2702,1369.381,432.7488,1364.3697,427.1703,1365.308,426.232,1359.7295,424.2702,1369.381" style="stroke: #A80036; stroke-width: 1.0;"/><!--MD5=[02a6c08caac974be482b221cbbed617e]
link usantatecla.tictactoe.Error to Console--><path codeLine="169" d="M1006.8102,1475.311 C1006.8102,1495.8568 1006.8102,1516.6005 1006.8102,1532.5313 " fill="none" id="usantatecla.tictactoe.Error-to-Console" style="stroke: #A80036; stroke-width: 1.0; stroke-dasharray: 7.0,7.0;"/><polygon fill="#A80036" points="1006.8102,1537.7421,1010.8102,1528.7421,1006.8102,1532.7421,1002.8102,1528.7421,1006.8102,1537.7421" style="stroke: #A80036; stroke-width: 1.0;"/><!--MD5=[babf8812656abf11221776abe93713d2]
link usantatecla.tictactoe.Message to Console--><path codeLine="170" d="M1577.5532,1186.093 C1460.6732,1264.115 1269.6632,1391.099 1103.8132,1499 C1085.4332,1510.9567 1064.9932,1524.0512 1047.6332,1535.1128 " fill="none" id="usantatecla.tictactoe.Message-to-Console" style="stroke: #A80036; stroke-width: 1.0; stroke-dasharray: 7.0,7.0;"/><polygon fill="#A80036" points="1043.2832,1537.8793,1053.0232,1536.419,1047.5006,1535.1936,1048.726,1529.671,1043.2832,1537.8793" style="stroke: #A80036; stroke-width: 1.0;"/><!--MD5=[b5f6ae75ec16ad98720bfc912357ede6]
link usantatecla.tictactoe.Token to Console--><path codeLine="171" d="M548.0052,1114.134 C431.9882,1119.94 175.1592,1151.271 62.8101,1312 C15.1947,1380.119 6,1438.336 62.8101,1499 C91.5418,1529.6807 678.1192,1550.9433 911.8752,1558.2283 " fill="none" id="usantatecla.tictactoe.Token-to-Console" style="stroke: #A80036; stroke-width: 1.0; stroke-dasharray: 7.0,7.0;"/><polygon fill="#A80036" points="916.9912,1558.3873,908.1201,1554.109,911.9936,1558.2316,907.871,1562.1051,916.9912,1558.3873" style="stroke: #A80036; stroke-width: 1.0;"/><!--MD5=[4a6f4cecc322ee82ce9bf312f6bd9c5b]
link usantatecla.tictactoe.Turn to LimitedIntDialog--><path codeLine="175" d="M1758.3132,366.48 C1810.0032,412.6 1876.1032,471.58 1913.8232,505.24 " fill="none" id="usantatecla.tictactoe.Turn-to-LimitedIntDialog" style="stroke: #A80036; stroke-width: 1.0; stroke-dasharray: 7.0,7.0;"/><polygon fill="#A80036" points="1917.8332,508.82,1913.7661,499.8501,1914.0969,505.4973,1908.4498,505.8281,1917.8332,508.82" style="stroke: #A80036; stroke-width: 1.0;"/><!--MD5=[a6176f3b762d2fd91dbdde4c26f79f5e]
link usantatecla.tictactoe.TicTacToe to YesNoDialog--><path codeLine="176" d="M1766.5332,153.11 C1779.0832,162.92 1791.9032,173.16 1803.8132,183 C1839.2232,212.29 1878.5732,247.49 1904.6032,271.17 " fill="none" id="usantatecla.tictactoe.TicTacToe-to-YesNoDialog" style="stroke: #A80036; stroke-width: 1.0; stroke-dasharray: 7.0,7.0;"/><polygon fill="#A80036" points="1908.3532,274.58,1904.4122,265.554,1904.6639,271.2053,1899.0126,271.4569,1908.3532,274.58" style="stroke: #A80036; stroke-width: 1.0;"/><!--MD5=[bf23bf68eb6ee1e962cc58fc20d95da0]
link usantatecla.tictactoe.Board to Direction--><path codeLine="178" d="M593.7702,912.045 C572.3282,931.83 550.5692,952.683 530.8102,973 C394.3482,1113.315 247.5402,1297.039 193.9292,1365.368 " fill="none" id="usantatecla.tictactoe.Board-to-Direction" style="stroke: #A80036; stroke-width: 1.0; stroke-dasharray: 7.0,7.0;"/><polygon fill="#A80036" points="190.8362,1369.313,199.5379,1364.6999,193.9219,1365.3787,193.243,1359.7628,190.8362,1369.313" style="stroke: #A80036; stroke-width: 1.0;"/><!--MD5=[c6b41bb1c68e13fbf1695f6a9580fb13]
link usantatecla.tictactoe.Coordinate to Direction--><path codeLine="179" d="M757.3512,1206.844 C734.2032,1223.915 708.7572,1239.828 682.8102,1251 C517.2342,1322.294 448.3022,1242.872 281.8102,1312 C251.1292,1324.739 221.1312,1347.917 200.3972,1366.143 " fill="none" id="usantatecla.tictactoe.Coordinate-to-Direction" style="stroke: #A80036; stroke-width: 1.0; stroke-dasharray: 7.0,7.0;"/><polygon fill="#A80036" points="196.6352,1369.485,206.0208,1366.4998,200.3738,1366.165,200.7087,1360.518,196.6352,1369.485" style="stroke: #A80036; stroke-width: 1.0;"/><!--MD5=[4dd71ad6a521d6cd67efc1d36d52f6cb]
@startuml
namespace usantatecla.tictactoe {
class Board {
	- tokens: Token[][] 
	~ Board()
	+ reset() 
	~ write() 
	- getToken(Coordinate): Token 
	~ isCompleted(): boolean 
	~ put(Coordinate, Token) 
	~ move(Coordinate, Coordinate) 
	- remove(Coordinate) 
	~ isOccupied(Coordinate, Token): boolean 
	~ isEmpty(Coordinate): boolean
	~ isTicTacToe(Token): boolean
	- getCoordinates(Token): List<Coordinate> 
}

class Coordinate {
	~ NULL: {static} Coordinate
	~ DIMENSION: {static} int 
	~ LIMITS: {static} ClosedInterval 
	~ Coordinate()
	~ Coordinate(int, int)
	+ isNull(): boolean 
	+ getDirection(usantatecla.utils.Coordinate): Direction 
	+ inInverseDiagonal(): boolean 
	+ read(String)
	+ random() 
	+ equals(Object): boolean 
}

enum Error {

	+ NOT_EMPTY
	+ NOT_OWNER
	+ SAME_COORDINATES
	+ WRONG_COORDINATES
	+ NULL
	- message: String 
	~ Error()
	~ Error(String)
	~ writeln()
}

class MachinePlayer {
	~ MachinePlayer(Token, Board)
	~ getCoordinate(Message): Coordinate 
}

enum Message {
	+ TITTLE
	+ NUMBER_PLAYERS
	+ SEPARATOR
	+ VERTICAL_LINE_LEFT
	+ VERTICAL_LINE_CENTERED
	+ VERTICAL_LINE_RIGHT
	+ ENTER_COORDINATE_TO_PUT
	+ ENTER_COORDINATE_TO_REMOVE
	+ COORDINATE_TO_PUT
	+ COORDINATE_TO_REMOVE
	+ COORDINATE_TO_MOVE
	+ PLAYER_WIN
	+ RESUME
	- message: String 
	- Message(String)
	~ write()
	~ writeln()
	+ toString(): String 
}


abstract class Player {
	~ Player(Token, Board)
	~ play()
	- put()
	~ abstract getCoordinate(Message): Coordinate 
	~ checkPutCoordinateError(Coordinate): Error 
	- move()
	~ checkMoveOriginCoordinateError(Coordinate): Error 
	~ checkMoveTargetCoordinateError(Coordinate, Coordinate): Error 
	~ writeWinner()
	~ getToken(): Token 
}

class TicTacToe{
    ~ TicTacToe()
	- play()
    - playGame()
	- isResumedGame(): boolean
	+ {static} main(String[])
}

enum Token {
	+ X_TOKEN
	+ Y_TOKEN
	+ NULL
    + isNull(): boolean 
    ~ write()
    ~ {static} get(int): Token 
}

class Turn {
	~ NUMBER_PLAYERS: {static} int 
	- active: int 
	~ Turn(Board)
	~ play()
	- getPlayer(): Player 
	~ writeWinner()
	~ getToken(): Token  
}

class UserPlayer extends Player {
	~ UserPlayer(Token, Board)
	~ getCoordinate(Message message): Coordinate
	~ checkPutCoordinateError(Coordinate): Error 
	~ checkMoveOriginCoordinateError(Coordinate): Error
	~ checkMoveTargetCoordinateError(Coordinate, Coordinate): Error
}

TicTacToe *-down-> Board : board
TicTacToe *-down-> Turn : turn

Board .down.> Token
Turn .down.> Token
Player *-down-> Token : token
Player *-down-> Board : board
Turn *-down-> "2" Player : player
Board *-down-> Coordinate 
Player <|-down- MachinePlayer
Coordinate .down.> Error
Player .down.> Error
Board .down.> Message
Player .down.> Message
TicTacToe .down.> Message
Turn .down.> Message

}

class ConcreteCoordinate as "usantatecla.utils.ConcreteCoordinate"{

}

class ClosedInterval as "usantatecla.utils.ClosedInterval"{
	
}

class Console as "usantatecla.utils.Console"{
	
}

class LimitedIntDialog as "usantatecla.utils.LimitedIntDialog"{
	
}

class YesNoDialog as "usantatecla.utils.YesNoDialog"{
	
}

enum Direction as "usantatecla.utils.Direction"{
	
}

ConcreteCoordinate <|-down- usantatecla.tictactoe.Coordinate

usantatecla.tictactoe.Coordinate .down.> ClosedInterval
usantatecla.tictactoe.Token .down.> ClosedInterval


usantatecla.tictactoe.Error .down.> Console
usantatecla.tictactoe.Message .down.> Console
usantatecla.tictactoe.Token .down.> Console



usantatecla.tictactoe.Turn .down.> LimitedIntDialog
usantatecla.tictactoe.TicTacToe .down.> YesNoDialog

usantatecla.tictactoe.Board .down.> Direction
usantatecla.tictactoe.Coordinate .down.> Direction
@enduml

PlantUML version 1.2020.20beta4(Unknown compile time)
(GPL source distribution)
Java Runtime: Java(TM) SE Runtime Environment
JVM: Java HotSpot(TM) 64-Bit Server VM
Default Encoding: UTF-8
Language: en
Country: US
--></g></svg>