<?xml version="1.0" encoding="UTF-8" standalone="no"?><svg xmlns="http://www.w3.org/2000/svg" xmlns:xlink="http://www.w3.org/1999/xlink" contentScriptType="application/ecmascript" contentStyleType="text/css" height="1184px" preserveAspectRatio="none" style="width:2260px;height:1184px;" version="1.1" viewBox="0 0 2260 1184" width="2260px" zoomAndPan="magnify"><defs><filter height="300%" id="ffoizki25wrsa" width="300%" x="-1" y="-1"><feGaussianBlur result="blurOut" stdDeviation="2.0"/><feColorMatrix in="blurOut" result="blurOut2" type="matrix" values="0 0 0 0 0 0 0 0 0 0 0 0 0 0 0 0 0 0 .4 0"/><feOffset dx="4.0" dy="4.0" in="blurOut2" result="blurOut3"/><feBlend in="SourceGraphic" in2="blurOut3" mode="normal"/></filter></defs><g><!--MD5=[b59da53bc4cb019b9115ab51e8207bb0]
cluster usantatecla.tictactoe--><polygon fill="#FFFFFF" filter="url(#ffoizki25wrsa)" points="664,6,849,6,856,28.2969,1953,28.2969,1953,1069,664,1069,664,6" style="stroke: #000000; stroke-width: 1.5;"/><line style="stroke: #000000; stroke-width: 1.5;" x1="664" x2="856" y1="28.2969" y2="28.2969"/><text fill="#000000" font-family="sans-serif" font-size="14" font-weight="bold" lengthAdjust="spacingAndGlyphs" textLength="179" x="668" y="20.9951">usantatecla.tictactoe</text><!--MD5=[908cbfa8709a8ec6ee3beb0409fea32c]
cluster usantatecla.utils--><polygon fill="#FFFFFF" filter="url(#ffoizki25wrsa)" points="16,855,162,855,169,877.2969,640,877.2969,640,1177,16,1177,16,855" style="stroke: #000000; stroke-width: 1.5;"/><line style="stroke: #000000; stroke-width: 1.5;" x1="16" x2="169" y1="877.2969" y2="877.2969"/><text fill="#000000" font-family="sans-serif" font-size="14" font-weight="bold" lengthAdjust="spacingAndGlyphs" textLength="140" x="20" y="869.9951">usantatecla.utils</text><!--MD5=[1c1463d9f8db069853651be96ebc7f3a]
class usantatecla.tictactoe.Board--><rect codeLine="2" fill="#FEFECE" filter="url(#ffoizki25wrsa)" height="214.4609" id="usantatecla.tictactoe.Board" style="stroke: #A80036; stroke-width: 1.5;" width="262" x="1562" y="239"/><ellipse cx="1670.75" cy="255" fill="#ADD1B2" rx="11" ry="11" style="stroke: #A80036; stroke-width: 1.0;"/><path d="M1673.0938,250.6719 C1672.1563,250.2344 1671.5625,250.0938 1670.6875,250.0938 C1668.0625,250.0938 1666.0625,252.1719 1666.0625,254.8906 L1666.0625,256.0156 C1666.0625,258.5938 1668.1719,260.4844 1671.0625,260.4844 C1672.2813,260.4844 1673.4375,260.1875 1674.1875,259.6406 C1674.7656,259.2344 1675.0938,258.7813 1675.0938,258.3906 C1675.0938,257.9375 1674.7031,257.5469 1674.2344,257.5469 C1674.0156,257.5469 1673.8125,257.625 1673.625,257.8125 C1673.1719,258.2969 1673.1719,258.2969 1672.9844,258.3906 C1672.5625,258.6563 1671.875,258.7813 1671.1094,258.7813 C1669.0625,258.7813 1667.7656,257.6875 1667.7656,255.9844 L1667.7656,254.8906 C1667.7656,253.1094 1669.0156,251.7969 1670.75,251.7969 C1671.3281,251.7969 1671.9375,251.9531 1672.4063,252.2031 C1672.8906,252.4844 1673.0625,252.7031 1673.1563,253.1094 C1673.2188,253.5156 1673.25,253.6406 1673.3906,253.7656 C1673.5313,253.9063 1673.7656,254.0156 1673.9844,254.0156 C1674.25,254.0156 1674.5156,253.875 1674.6875,253.6563 C1674.7969,253.5 1674.8281,253.3125 1674.8281,252.8906 L1674.8281,251.4688 C1674.8281,251.0313 1674.8125,250.9063 1674.7188,250.75 C1674.5625,250.4844 1674.2813,250.3438 1673.9844,250.3438 C1673.6875,250.3438 1673.4844,250.4375 1673.2656,250.75 L1673.0938,250.6719 Z "/><text fill="#000000" font-family="sans-serif" font-size="12" lengthAdjust="spacingAndGlyphs" textLength="36" x="1691.25" y="259.1543">Board</text><line style="stroke: #A80036; stroke-width: 1.5;" x1="1563" x2="1823" y1="271" y2="271"/><rect fill="none" height="6" style="stroke: #C82930; stroke-width: 1.0;" width="6" x="1570" y="279"/><text fill="#000000" font-family="sans-serif" font-size="11" lengthAdjust="spacingAndGlyphs" textLength="96" x="1582" y="285.2104">tokens: Token[][]</text><line style="stroke: #A80036; stroke-width: 1.5;" x1="1563" x2="1823" y1="291.8047" y2="291.8047"/><polygon fill="#4177AF" points="1573,298.8047,1569,304.8047,1577,304.8047" style="stroke: #1963A0; stroke-width: 1.0;"/><text fill="#000000" font-family="sans-serif" font-size="11" lengthAdjust="spacingAndGlyphs" textLength="41" x="1582" y="306.0151">Board()</text><ellipse cx="1573" cy="315.6094" fill="#84BE84" rx="3" ry="3" style="stroke: #038048; stroke-width: 1.0;"/><text fill="#000000" font-family="sans-serif" font-size="11" lengthAdjust="spacingAndGlyphs" textLength="38" x="1582" y="318.8198">reset()</text><polygon fill="#4177AF" points="1573,324.4141,1569,330.4141,1577,330.4141" style="stroke: #1963A0; stroke-width: 1.0;"/><text fill="#000000" font-family="sans-serif" font-size="11" lengthAdjust="spacingAndGlyphs" textLength="36" x="1582" y="331.6245">write()</text><rect fill="#F24D5C" height="6" style="stroke: #C82930; stroke-width: 1.0;" width="6" x="1570" y="338.2188"/><text fill="#000000" font-family="sans-serif" font-size="11" lengthAdjust="spacingAndGlyphs" textLength="166" x="1582" y="344.4292">getToken(Coordinate): Token</text><polygon fill="#4177AF" points="1573,350.0234,1569,356.0234,1577,356.0234" style="stroke: #1963A0; stroke-width: 1.0;"/><text fill="#000000" font-family="sans-serif" font-size="11" lengthAdjust="spacingAndGlyphs" textLength="133" x="1582" y="357.2339">isCompleted(): boolean</text><polygon fill="#4177AF" points="1573,362.8281,1569,368.8281,1577,368.8281" style="stroke: #1963A0; stroke-width: 1.0;"/><text fill="#000000" font-family="sans-serif" font-size="11" lengthAdjust="spacingAndGlyphs" textLength="130" x="1582" y="370.0386">put(Coordinate, Token)</text><polygon fill="#4177AF" points="1573,375.6328,1569,381.6328,1577,381.6328" style="stroke: #1963A0; stroke-width: 1.0;"/><text fill="#000000" font-family="sans-serif" font-size="11" lengthAdjust="spacingAndGlyphs" textLength="172" x="1582" y="382.8433">move(Coordinate, Coordinate)</text><rect fill="#F24D5C" height="6" style="stroke: #C82930; stroke-width: 1.0;" width="6" x="1570" y="389.4375"/><text fill="#000000" font-family="sans-serif" font-size="11" lengthAdjust="spacingAndGlyphs" textLength="115" x="1582" y="395.6479">remove(Coordinate)</text><polygon fill="#4177AF" points="1573,401.2422,1569,407.2422,1577,407.2422" style="stroke: #1963A0; stroke-width: 1.0;"/><text fill="#000000" font-family="sans-serif" font-size="11" lengthAdjust="spacingAndGlyphs" textLength="227" x="1582" y="408.4526">isOccupied(Coordinate, Token): boolean</text><polygon fill="#4177AF" points="1573,414.0469,1569,420.0469,1577,420.0469" style="stroke: #1963A0; stroke-width: 1.0;"/><text fill="#000000" font-family="sans-serif" font-size="11" lengthAdjust="spacingAndGlyphs" textLength="168" x="1582" y="421.2573">isEmpty(Coordinate): boolean</text><polygon fill="#4177AF" points="1573,426.8516,1569,432.8516,1577,432.8516" style="stroke: #1963A0; stroke-width: 1.0;"/><text fill="#000000" font-family="sans-serif" font-size="11" lengthAdjust="spacingAndGlyphs" textLength="163" x="1582" y="434.062">isTicTacToe(Token): boolean</text><rect fill="#F24D5C" height="6" style="stroke: #C82930; stroke-width: 1.0;" width="6" x="1570" y="440.6563"/><text fill="#000000" font-family="sans-serif" font-size="11" lengthAdjust="spacingAndGlyphs" textLength="236" x="1582" y="446.8667">getCoordinates(Token): List&lt;Coordinate&gt;</text><!--MD5=[0990100d77444e20aa254ae593d623a1]
class usantatecla.tictactoe.Coordinate--><rect codeLine="18" fill="#FEFECE" filter="url(#ffoizki25wrsa)" height="188.8516" id="usantatecla.tictactoe.Coordinate" style="stroke: #A80036; stroke-width: 1.5;" width="319" x="1533.5" y="519.5"/><ellipse cx="1655.75" cy="535.5" fill="#ADD1B2" rx="11" ry="11" style="stroke: #A80036; stroke-width: 1.0;"/><path d="M1658.0938,531.1719 C1657.1563,530.7344 1656.5625,530.5938 1655.6875,530.5938 C1653.0625,530.5938 1651.0625,532.6719 1651.0625,535.3906 L1651.0625,536.5156 C1651.0625,539.0938 1653.1719,540.9844 1656.0625,540.9844 C1657.2813,540.9844 1658.4375,540.6875 1659.1875,540.1406 C1659.7656,539.7344 1660.0938,539.2813 1660.0938,538.8906 C1660.0938,538.4375 1659.7031,538.0469 1659.2344,538.0469 C1659.0156,538.0469 1658.8125,538.125 1658.625,538.3125 C1658.1719,538.7969 1658.1719,538.7969 1657.9844,538.8906 C1657.5625,539.1563 1656.875,539.2813 1656.1094,539.2813 C1654.0625,539.2813 1652.7656,538.1875 1652.7656,536.4844 L1652.7656,535.3906 C1652.7656,533.6094 1654.0156,532.2969 1655.75,532.2969 C1656.3281,532.2969 1656.9375,532.4531 1657.4063,532.7031 C1657.8906,532.9844 1658.0625,533.2031 1658.1563,533.6094 C1658.2188,534.0156 1658.25,534.1406 1658.3906,534.2656 C1658.5313,534.4063 1658.7656,534.5156 1658.9844,534.5156 C1659.25,534.5156 1659.5156,534.375 1659.6875,534.1563 C1659.7969,534 1659.8281,533.8125 1659.8281,533.3906 L1659.8281,531.9688 C1659.8281,531.5313 1659.8125,531.4063 1659.7188,531.25 C1659.5625,530.9844 1659.2813,530.8438 1658.9844,530.8438 C1658.6875,530.8438 1658.4844,530.9375 1658.2656,531.25 L1658.0938,531.1719 Z "/><text fill="#000000" font-family="sans-serif" font-size="12" lengthAdjust="spacingAndGlyphs" textLength="66" x="1676.25" y="539.6543">Coordinate</text><line style="stroke: #A80036; stroke-width: 1.5;" x1="1534.5" x2="1851.5" y1="551.5" y2="551.5"/><polygon fill="none" points="1544.5,558.5,1540.5,564.5,1548.5,564.5" style="stroke: #1963A0; stroke-width: 1.0;"/><text fill="#000000" font-family="sans-serif" font-size="11" lengthAdjust="spacingAndGlyphs" text-decoration="underline" textLength="97" x="1553.5" y="565.7104">NULL: Coordinate</text><polygon fill="none" points="1544.5,571.3047,1540.5,577.3047,1548.5,577.3047" style="stroke: #1963A0; stroke-width: 1.0;"/><text fill="#000000" font-family="sans-serif" font-size="11" lengthAdjust="spacingAndGlyphs" text-decoration="underline" textLength="85" x="1553.5" y="578.5151">DIMENSION: int</text><polygon fill="none" points="1544.5,584.1094,1540.5,590.1094,1548.5,590.1094" style="stroke: #1963A0; stroke-width: 1.0;"/><text fill="#000000" font-family="sans-serif" font-size="11" lengthAdjust="spacingAndGlyphs" text-decoration="underline" textLength="125" x="1553.5" y="591.3198">LIMITS: ClosedInterval</text><line style="stroke: #A80036; stroke-width: 1.5;" x1="1534.5" x2="1851.5" y1="597.9141" y2="597.9141"/><polygon fill="#4177AF" points="1544.5,604.9141,1540.5,610.9141,1548.5,610.9141" style="stroke: #1963A0; stroke-width: 1.0;"/><text fill="#000000" font-family="sans-serif" font-size="11" lengthAdjust="spacingAndGlyphs" textLength="70" x="1553.5" y="612.1245">Coordinate()</text><polygon fill="#4177AF" points="1544.5,617.7188,1540.5,623.7188,1548.5,623.7188" style="stroke: #1963A0; stroke-width: 1.0;"/><text fill="#000000" font-family="sans-serif" font-size="11" lengthAdjust="spacingAndGlyphs" textLength="105" x="1553.5" y="624.9292">Coordinate(int, int)</text><ellipse cx="1544.5" cy="634.5234" fill="#84BE84" rx="3" ry="3" style="stroke: #038048; stroke-width: 1.0;"/><text fill="#000000" font-family="sans-serif" font-size="11" lengthAdjust="spacingAndGlyphs" textLength="91" x="1553.5" y="637.7339">isNull(): boolean</text><ellipse cx="1544.5" cy="647.3281" fill="#84BE84" rx="3" ry="3" style="stroke: #038048; stroke-width: 1.0;"/><text fill="#000000" font-family="sans-serif" font-size="11" lengthAdjust="spacingAndGlyphs" textLength="293" x="1553.5" y="650.5386">getDirection(usantatecla.utils.Coordinate): Direction</text><ellipse cx="1544.5" cy="660.1328" fill="#84BE84" rx="3" ry="3" style="stroke: #038048; stroke-width: 1.0;"/><text fill="#000000" font-family="sans-serif" font-size="11" lengthAdjust="spacingAndGlyphs" textLength="164" x="1553.5" y="663.3433">inInverseDiagonal(): boolean</text><ellipse cx="1544.5" cy="672.9375" fill="#84BE84" rx="3" ry="3" style="stroke: #038048; stroke-width: 1.0;"/><text fill="#000000" font-family="sans-serif" font-size="11" lengthAdjust="spacingAndGlyphs" textLength="67" x="1553.5" y="676.1479">read(String)</text><ellipse cx="1544.5" cy="685.7422" fill="#84BE84" rx="3" ry="3" style="stroke: #038048; stroke-width: 1.0;"/><text fill="#000000" font-family="sans-serif" font-size="11" lengthAdjust="spacingAndGlyphs" textLength="51" x="1553.5" y="688.9526">random()</text><ellipse cx="1544.5" cy="698.5469" fill="#84BE84" rx="3" ry="3" style="stroke: #038048; stroke-width: 1.0;"/><text fill="#000000" font-family="sans-serif" font-size="11" lengthAdjust="spacingAndGlyphs" textLength="136" x="1553.5" y="701.7573">equals(Object): boolean</text><!--MD5=[8beb5b62c1db6d783dc0870514f68973]
class usantatecla.tictactoe.Error--><rect codeLine="32" fill="#FEFECE" filter="url(#ffoizki25wrsa)" height="163.2422" id="usantatecla.tictactoe.Error" style="stroke: #A80036; stroke-width: 1.5;" width="159" x="1625.5" y="832.5"/><ellipse cx="1685.75" cy="848.5" fill="#EB937F" rx="11" ry="11" style="stroke: #A80036; stroke-width: 1.0;"/><path d="M1684.5469,849.375 L1686,849.375 L1686,849.4844 C1686,849.8906 1686.0313,850.0469 1686.1094,850.2031 C1686.2656,850.4531 1686.5469,850.6094 1686.8438,850.6094 C1687.0938,850.6094 1687.3594,850.4688 1687.5156,850.25 C1687.6406,850.0938 1687.6719,849.9375 1687.6719,849.4844 L1687.6719,847.5625 C1687.6719,847.4063 1687.6719,847.3594 1687.6563,847.2031 C1687.5938,846.7344 1687.2813,846.4219 1686.8281,846.4219 C1686.5781,846.4219 1686.3125,846.5625 1686.1406,846.7813 C1686.0313,846.9531 1686,847.1094 1686,847.5625 L1686,847.6875 L1684.5469,847.6875 L1684.5469,845.2813 L1688.5313,845.2813 L1688.5313,846.1406 C1688.5313,846.5469 1688.5625,846.7188 1688.6406,846.875 C1688.8125,847.125 1689.0938,847.2813 1689.375,847.2813 C1689.6406,847.2813 1689.9063,847.1406 1690.0781,846.9219 C1690.1875,846.75 1690.2188,846.6094 1690.2188,846.1406 L1690.2188,843.5938 L1682.5938,843.5938 C1682.1563,843.5938 1682.0313,843.6094 1681.875,843.7031 C1681.625,843.8594 1681.4688,844.1563 1681.4688,844.4375 C1681.4688,844.7188 1681.6094,844.9688 1681.8281,845.1406 C1681.9844,845.25 1682.1719,845.2813 1682.5938,845.2813 L1682.8438,845.2813 L1682.8438,851.7969 L1682.5938,851.7969 C1682.1875,851.7969 1682.0313,851.8125 1681.875,851.9219 C1681.625,852.0938 1681.4688,852.3594 1681.4688,852.6563 C1681.4688,852.9219 1681.6094,853.1719 1681.8281,853.3281 C1681.9688,853.4531 1682.2031,853.5 1682.5938,853.5 L1690.5938,853.5 L1690.5938,850.9219 C1690.5938,850.4844 1690.5625,850.3438 1690.4844,850.1875 C1690.3125,849.9375 1690.0313,849.7813 1689.75,849.7813 C1689.4844,849.7813 1689.2188,849.8906 1689.0469,850.1406 C1688.9375,850.2969 1688.9063,850.4375 1688.9063,850.9219 L1688.9063,851.7969 L1684.5469,851.7969 L1684.5469,849.375 Z "/><text fill="#000000" font-family="sans-serif" font-size="12" lengthAdjust="spacingAndGlyphs" textLength="30" x="1706.25" y="852.6543">Error</text><line style="stroke: #A80036; stroke-width: 1.5;" x1="1626.5" x2="1783.5" y1="864.5" y2="864.5"/><ellipse cx="1636.5" cy="875.5" fill="none" rx="3" ry="3" style="stroke: #038048; stroke-width: 1.0;"/><text fill="#000000" font-family="sans-serif" font-size="11" lengthAdjust="spacingAndGlyphs" textLength="66" x="1645.5" y="878.7104">NOT_EMPTY</text><ellipse cx="1636.5" cy="888.3047" fill="none" rx="3" ry="3" style="stroke: #038048; stroke-width: 1.0;"/><text fill="#000000" font-family="sans-serif" font-size="11" lengthAdjust="spacingAndGlyphs" textLength="72" x="1645.5" y="891.5151">NOT_OWNER</text><ellipse cx="1636.5" cy="901.1094" fill="none" rx="3" ry="3" style="stroke: #038048; stroke-width: 1.0;"/><text fill="#000000" font-family="sans-serif" font-size="11" lengthAdjust="spacingAndGlyphs" textLength="121" x="1645.5" y="904.3198">SAME_COORDINATES</text><ellipse cx="1636.5" cy="913.9141" fill="none" rx="3" ry="3" style="stroke: #038048; stroke-width: 1.0;"/><text fill="#000000" font-family="sans-serif" font-size="11" lengthAdjust="spacingAndGlyphs" textLength="133" x="1645.5" y="917.1245">WRONG_COORDINATES</text><ellipse cx="1636.5" cy="926.7188" fill="none" rx="3" ry="3" style="stroke: #038048; stroke-width: 1.0;"/><text fill="#000000" font-family="sans-serif" font-size="11" lengthAdjust="spacingAndGlyphs" textLength="28" x="1645.5" y="929.9292">NULL</text><rect fill="none" height="6" style="stroke: #C82930; stroke-width: 1.0;" width="6" x="1633.5" y="936.5234"/><text fill="#000000" font-family="sans-serif" font-size="11" lengthAdjust="spacingAndGlyphs" textLength="93" x="1645.5" y="942.7339">message: String</text><line style="stroke: #A80036; stroke-width: 1.5;" x1="1626.5" x2="1783.5" y1="949.3281" y2="949.3281"/><polygon fill="#4177AF" points="1636.5,956.3281,1632.5,962.3281,1640.5,962.3281" style="stroke: #1963A0; stroke-width: 1.0;"/><text fill="#000000" font-family="sans-serif" font-size="11" lengthAdjust="spacingAndGlyphs" textLength="34" x="1645.5" y="963.5386">Error()</text><polygon fill="#4177AF" points="1636.5,969.1328,1632.5,975.1328,1640.5,975.1328" style="stroke: #1963A0; stroke-width: 1.0;"/><text fill="#000000" font-family="sans-serif" font-size="11" lengthAdjust="spacingAndGlyphs" textLength="67" x="1645.5" y="976.3433">Error(String)</text><polygon fill="#4177AF" points="1636.5,981.9375,1632.5,987.9375,1640.5,987.9375" style="stroke: #1963A0; stroke-width: 1.0;"/><text fill="#000000" font-family="sans-serif" font-size="11" lengthAdjust="spacingAndGlyphs" textLength="46" x="1645.5" y="989.1479">writeln()</text><!--MD5=[d5e6390f4df0bed23d8acd31ee6bd19d]
class usantatecla.tictactoe.MachinePlayer--><rect codeLine="45" fill="#FEFECE" filter="url(#ffoizki25wrsa)" height="73.6094" id="usantatecla.tictactoe.MachinePlayer" style="stroke: #A80036; stroke-width: 1.5;" width="235" x="1355.5" y="877"/><ellipse cx="1426.25" cy="893" fill="#ADD1B2" rx="11" ry="11" style="stroke: #A80036; stroke-width: 1.0;"/><path d="M1428.5938,888.6719 C1427.6563,888.2344 1427.0625,888.0938 1426.1875,888.0938 C1423.5625,888.0938 1421.5625,890.1719 1421.5625,892.8906 L1421.5625,894.0156 C1421.5625,896.5938 1423.6719,898.4844 1426.5625,898.4844 C1427.7813,898.4844 1428.9375,898.1875 1429.6875,897.6406 C1430.2656,897.2344 1430.5938,896.7813 1430.5938,896.3906 C1430.5938,895.9375 1430.2031,895.5469 1429.7344,895.5469 C1429.5156,895.5469 1429.3125,895.625 1429.125,895.8125 C1428.6719,896.2969 1428.6719,896.2969 1428.4844,896.3906 C1428.0625,896.6563 1427.375,896.7813 1426.6094,896.7813 C1424.5625,896.7813 1423.2656,895.6875 1423.2656,893.9844 L1423.2656,892.8906 C1423.2656,891.1094 1424.5156,889.7969 1426.25,889.7969 C1426.8281,889.7969 1427.4375,889.9531 1427.9063,890.2031 C1428.3906,890.4844 1428.5625,890.7031 1428.6563,891.1094 C1428.7188,891.5156 1428.75,891.6406 1428.8906,891.7656 C1429.0313,891.9063 1429.2656,892.0156 1429.4844,892.0156 C1429.75,892.0156 1430.0156,891.875 1430.1875,891.6563 C1430.2969,891.5 1430.3281,891.3125 1430.3281,890.8906 L1430.3281,889.4688 C1430.3281,889.0313 1430.3125,888.9063 1430.2188,888.75 C1430.0625,888.4844 1429.7813,888.3438 1429.4844,888.3438 C1429.1875,888.3438 1428.9844,888.4375 1428.7656,888.75 L1428.5938,888.6719 Z "/><text fill="#000000" font-family="sans-serif" font-size="12" lengthAdjust="spacingAndGlyphs" textLength="85" x="1446.75" y="897.1543">MachinePlayer</text><line style="stroke: #A80036; stroke-width: 1.5;" x1="1356.5" x2="1589.5" y1="909" y2="909"/><line style="stroke: #A80036; stroke-width: 1.5;" x1="1356.5" x2="1589.5" y1="917" y2="917"/><polygon fill="#4177AF" points="1366.5,924,1362.5,930,1370.5,930" style="stroke: #1963A0; stroke-width: 1.0;"/><text fill="#000000" font-family="sans-serif" font-size="11" lengthAdjust="spacingAndGlyphs" textLength="165" x="1375.5" y="931.2104">MachinePlayer(Token, Board)</text><polygon fill="#4177AF" points="1366.5,936.8047,1362.5,942.8047,1370.5,942.8047" style="stroke: #1963A0; stroke-width: 1.0;"/><text fill="#000000" font-family="sans-serif" font-size="11" lengthAdjust="spacingAndGlyphs" textLength="209" x="1375.5" y="944.0151">getCoordinate(Message): Coordinate</text><!--MD5=[ab82296a7d93ea792c7bfd4e9ca759e8]
class usantatecla.tictactoe.Message--><rect codeLine="50" fill="#FEFECE" filter="url(#ffoizki25wrsa)" height="278.4844" id="usantatecla.tictactoe.Message" style="stroke: #A80036; stroke-width: 1.5;" width="218" x="680" y="775"/><ellipse cx="757.25" cy="791" fill="#EB937F" rx="11" ry="11" style="stroke: #A80036; stroke-width: 1.0;"/><path d="M756.0469,791.875 L757.5,791.875 L757.5,791.9844 C757.5,792.3906 757.5313,792.5469 757.6094,792.7031 C757.7656,792.9531 758.0469,793.1094 758.3438,793.1094 C758.5938,793.1094 758.8594,792.9688 759.0156,792.75 C759.1406,792.5938 759.1719,792.4375 759.1719,791.9844 L759.1719,790.0625 C759.1719,789.9063 759.1719,789.8594 759.1563,789.7031 C759.0938,789.2344 758.7813,788.9219 758.3281,788.9219 C758.0781,788.9219 757.8125,789.0625 757.6406,789.2813 C757.5313,789.4531 757.5,789.6094 757.5,790.0625 L757.5,790.1875 L756.0469,790.1875 L756.0469,787.7813 L760.0313,787.7813 L760.0313,788.6406 C760.0313,789.0469 760.0625,789.2188 760.1406,789.375 C760.3125,789.625 760.5938,789.7813 760.875,789.7813 C761.1406,789.7813 761.4063,789.6406 761.5781,789.4219 C761.6875,789.25 761.7188,789.1094 761.7188,788.6406 L761.7188,786.0938 L754.0938,786.0938 C753.6563,786.0938 753.5313,786.1094 753.375,786.2031 C753.125,786.3594 752.9688,786.6563 752.9688,786.9375 C752.9688,787.2188 753.1094,787.4688 753.3281,787.6406 C753.4844,787.75 753.6719,787.7813 754.0938,787.7813 L754.3438,787.7813 L754.3438,794.2969 L754.0938,794.2969 C753.6875,794.2969 753.5313,794.3125 753.375,794.4219 C753.125,794.5938 752.9688,794.8594 752.9688,795.1563 C752.9688,795.4219 753.1094,795.6719 753.3281,795.8281 C753.4688,795.9531 753.7031,796 754.0938,796 L762.0938,796 L762.0938,793.4219 C762.0938,792.9844 762.0625,792.8438 761.9844,792.6875 C761.8125,792.4375 761.5313,792.2813 761.25,792.2813 C760.9844,792.2813 760.7188,792.3906 760.5469,792.6406 C760.4375,792.7969 760.4063,792.9375 760.4063,793.4219 L760.4063,794.2969 L756.0469,794.2969 L756.0469,791.875 Z "/><text fill="#000000" font-family="sans-serif" font-size="12" lengthAdjust="spacingAndGlyphs" textLength="55" x="777.75" y="795.1543">Message</text><line style="stroke: #A80036; stroke-width: 1.5;" x1="681" x2="897" y1="807" y2="807"/><ellipse cx="691" cy="818" fill="none" rx="3" ry="3" style="stroke: #038048; stroke-width: 1.0;"/><text fill="#000000" font-family="sans-serif" font-size="11" lengthAdjust="spacingAndGlyphs" textLength="37" x="700" y="821.2104">TITTLE</text><ellipse cx="691" cy="830.8047" fill="none" rx="3" ry="3" style="stroke: #038048; stroke-width: 1.0;"/><text fill="#000000" font-family="sans-serif" font-size="11" lengthAdjust="spacingAndGlyphs" textLength="102" x="700" y="834.0151">NUMBER_PLAYERS</text><ellipse cx="691" cy="843.6094" fill="none" rx="3" ry="3" style="stroke: #038048; stroke-width: 1.0;"/><text fill="#000000" font-family="sans-serif" font-size="11" lengthAdjust="spacingAndGlyphs" textLength="67" x="700" y="846.8198">SEPARATOR</text><ellipse cx="691" cy="856.4141" fill="none" rx="3" ry="3" style="stroke: #038048; stroke-width: 1.0;"/><text fill="#000000" font-family="sans-serif" font-size="11" lengthAdjust="spacingAndGlyphs" textLength="116" x="700" y="859.6245">VERTICAL_LINE_LEFT</text><ellipse cx="691" cy="869.2188" fill="none" rx="3" ry="3" style="stroke: #038048; stroke-width: 1.0;"/><text fill="#000000" font-family="sans-serif" font-size="11" lengthAdjust="spacingAndGlyphs" textLength="150" x="700" y="872.4292">VERTICAL_LINE_CENTERED</text><ellipse cx="691" cy="882.0234" fill="none" rx="3" ry="3" style="stroke: #038048; stroke-width: 1.0;"/><text fill="#000000" font-family="sans-serif" font-size="11" lengthAdjust="spacingAndGlyphs" textLength="124" x="700" y="885.2339">VERTICAL_LINE_RIGHT</text><ellipse cx="691" cy="894.8281" fill="none" rx="3" ry="3" style="stroke: #038048; stroke-width: 1.0;"/><text fill="#000000" font-family="sans-serif" font-size="11" lengthAdjust="spacingAndGlyphs" textLength="166" x="700" y="898.0386">ENTER_COORDINATE_TO_PUT</text><ellipse cx="691" cy="907.6328" fill="none" rx="3" ry="3" style="stroke: #038048; stroke-width: 1.0;"/><text fill="#000000" font-family="sans-serif" font-size="11" lengthAdjust="spacingAndGlyphs" textLength="192" x="700" y="910.8433">ENTER_COORDINATE_TO_REMOVE</text><ellipse cx="691" cy="920.4375" fill="none" rx="3" ry="3" style="stroke: #038048; stroke-width: 1.0;"/><text fill="#000000" font-family="sans-serif" font-size="11" lengthAdjust="spacingAndGlyphs" textLength="124" x="700" y="923.6479">COORDINATE_TO_PUT</text><ellipse cx="691" cy="933.2422" fill="none" rx="3" ry="3" style="stroke: #038048; stroke-width: 1.0;"/><text fill="#000000" font-family="sans-serif" font-size="11" lengthAdjust="spacingAndGlyphs" textLength="150" x="700" y="936.4526">COORDINATE_TO_REMOVE</text><ellipse cx="691" cy="946.0469" fill="none" rx="3" ry="3" style="stroke: #038048; stroke-width: 1.0;"/><text fill="#000000" font-family="sans-serif" font-size="11" lengthAdjust="spacingAndGlyphs" textLength="136" x="700" y="949.2573">COORDINATE_TO_MOVE</text><ellipse cx="691" cy="958.8516" fill="none" rx="3" ry="3" style="stroke: #038048; stroke-width: 1.0;"/><text fill="#000000" font-family="sans-serif" font-size="11" lengthAdjust="spacingAndGlyphs" textLength="69" x="700" y="962.062">PLAYER_WIN</text><ellipse cx="691" cy="971.6563" fill="none" rx="3" ry="3" style="stroke: #038048; stroke-width: 1.0;"/><text fill="#000000" font-family="sans-serif" font-size="11" lengthAdjust="spacingAndGlyphs" textLength="46" x="700" y="974.8667">RESUME</text><rect fill="none" height="6" style="stroke: #C82930; stroke-width: 1.0;" width="6" x="688" y="981.4609"/><text fill="#000000" font-family="sans-serif" font-size="11" lengthAdjust="spacingAndGlyphs" textLength="93" x="700" y="987.6714">message: String</text><line style="stroke: #A80036; stroke-width: 1.5;" x1="681" x2="897" y1="994.2656" y2="994.2656"/><rect fill="#F24D5C" height="6" style="stroke: #C82930; stroke-width: 1.0;" width="6" x="688" y="1002.2656"/><text fill="#000000" font-family="sans-serif" font-size="11" lengthAdjust="spacingAndGlyphs" textLength="92" x="700" y="1008.4761">Message(String)</text><polygon fill="#4177AF" points="691,1014.0703,687,1020.0703,695,1020.0703" style="stroke: #1963A0; stroke-width: 1.0;"/><text fill="#000000" font-family="sans-serif" font-size="11" lengthAdjust="spacingAndGlyphs" textLength="36" x="700" y="1021.2808">write()</text><polygon fill="#4177AF" points="691,1026.875,687,1032.875,695,1032.875" style="stroke: #1963A0; stroke-width: 1.0;"/><text fill="#000000" font-family="sans-serif" font-size="11" lengthAdjust="spacingAndGlyphs" textLength="46" x="700" y="1034.0854">writeln()</text><ellipse cx="691" cy="1043.6797" fill="#84BE84" rx="3" ry="3" style="stroke: #038048; stroke-width: 1.0;"/><text fill="#000000" font-family="sans-serif" font-size="11" lengthAdjust="spacingAndGlyphs" textLength="92" x="700" y="1046.8901">toString(): String</text><!--MD5=[b455952d252d0eefae6035326d3db921]
class usantatecla.tictactoe.Player--><rect codeLine="72" fill="#FEFECE" filter="url(#ffoizki25wrsa)" height="201.6563" id="usantatecla.tictactoe.Player" style="stroke: #A80036; stroke-width: 1.5;" width="387" x="965.5" y="513"/><ellipse cx="1136.75" cy="529" fill="#A9DCDF" rx="11" ry="11" style="stroke: #A80036; stroke-width: 1.0;"/><path d="M1138.8281,530.8125 L1139.2188,531.7969 L1138.8281,531.7969 C1138.375,531.7969 1138.2656,531.8125 1138.1094,531.9219 C1137.8594,532.0781 1137.7031,532.3594 1137.7031,532.6563 C1137.7031,532.9219 1137.8438,533.1719 1138.0625,533.3281 C1138.2031,533.4531 1138.4063,533.5 1138.8281,533.5 L1141.1875,533.5 C1141.5469,533.5 1141.7656,533.4688 1141.9063,533.375 C1142.1563,533.2344 1142.3125,532.9375 1142.3125,532.6563 C1142.3125,532.375 1142.1719,532.125 1141.9531,531.9688 C1141.7813,531.8281 1141.625,531.7969 1141.1563,531.7969 L1137.7656,523.5938 L1134.0938,523.5938 C1133.6406,523.5938 1133.5156,523.6094 1133.3594,523.7031 C1133.1094,523.875 1132.9531,524.1563 1132.9531,524.4375 C1132.9531,524.7188 1133.0938,524.9688 1133.3125,525.1406 C1133.4844,525.25 1133.6563,525.2813 1134.0938,525.2813 L1135.1719,525.2813 L1132.5313,531.7969 C1132.1094,531.7969 1131.9531,531.8125 1131.7969,531.9219 C1131.5469,532.0781 1131.3906,532.3594 1131.3906,532.6563 C1131.3906,533.2188 1131.7656,533.5 1132.5156,533.5 L1134.7813,533.5 C1135.1406,533.5 1135.3594,533.4688 1135.4844,533.375 C1135.75,533.2344 1135.8906,532.9375 1135.8906,532.6563 C1135.8906,532.375 1135.7656,532.125 1135.5469,531.9531 C1135.375,531.8281 1135.2344,531.7969 1134.7813,531.7969 L1134.3906,531.7969 L1134.7813,530.8125 L1138.8281,530.8125 Z M1138.125,529.1094 L1135.4531,529.1094 L1136.7969,525.8438 L1138.125,529.1094 Z "/><text fill="#000000" font-family="sans-serif" font-size="12" font-style="italic" lengthAdjust="spacingAndGlyphs" textLength="36" x="1157.25" y="533.1543">Player</text><line style="stroke: #A80036; stroke-width: 1.5;" x1="966.5" x2="1351.5" y1="545" y2="545"/><polygon fill="none" points="976.5,552,972.5,558,980.5,558" style="stroke: #1963A0; stroke-width: 1.0;"/><text fill="#000000" font-family="sans-serif" font-size="11" lengthAdjust="spacingAndGlyphs" textLength="72" x="985.5" y="559.2104">board: Board</text><polygon fill="none" points="976.5,564.8047,972.5,570.8047,980.5,570.8047" style="stroke: #1963A0; stroke-width: 1.0;"/><text fill="#000000" font-family="sans-serif" font-size="11" lengthAdjust="spacingAndGlyphs" textLength="74" x="985.5" y="572.0151">token: Token</text><line style="stroke: #A80036; stroke-width: 1.5;" x1="966.5" x2="1351.5" y1="578.6094" y2="578.6094"/><polygon fill="#4177AF" points="976.5,585.6094,972.5,591.6094,980.5,591.6094" style="stroke: #1963A0; stroke-width: 1.0;"/><text fill="#000000" font-family="sans-serif" font-size="11" lengthAdjust="spacingAndGlyphs" textLength="118" x="985.5" y="592.8198">Player(Token, Board)</text><polygon fill="#4177AF" points="976.5,598.4141,972.5,604.4141,980.5,604.4141" style="stroke: #1963A0; stroke-width: 1.0;"/><text fill="#000000" font-family="sans-serif" font-size="11" lengthAdjust="spacingAndGlyphs" textLength="32" x="985.5" y="605.6245">play()</text><rect fill="#F24D5C" height="6" style="stroke: #C82930; stroke-width: 1.0;" width="6" x="973.5" y="612.2188"/><text fill="#000000" font-family="sans-serif" font-size="11" lengthAdjust="spacingAndGlyphs" textLength="26" x="985.5" y="618.4292">put()</text><polygon fill="#4177AF" points="976.5,624.0234,972.5,630.0234,980.5,630.0234" style="stroke: #1963A0; stroke-width: 1.0;"/><text fill="#000000" font-family="sans-serif" font-size="11" lengthAdjust="spacingAndGlyphs" textLength="258" x="985.5" y="631.2339">abstract getCoordinate(Message): Coordinate</text><polygon fill="#4177AF" points="976.5,636.8281,972.5,642.8281,980.5,642.8281" style="stroke: #1963A0; stroke-width: 1.0;"/><text fill="#000000" font-family="sans-serif" font-size="11" lengthAdjust="spacingAndGlyphs" textLength="241" x="985.5" y="644.0386">checkPutCoordinateError(Coordinate): Error</text><rect fill="#F24D5C" height="6" style="stroke: #C82930; stroke-width: 1.0;" width="6" x="973.5" y="650.6328"/><text fill="#000000" font-family="sans-serif" font-size="11" lengthAdjust="spacingAndGlyphs" textLength="41" x="985.5" y="656.8433">move()</text><polygon fill="#4177AF" points="976.5,662.4375,972.5,668.4375,980.5,668.4375" style="stroke: #1963A0; stroke-width: 1.0;"/><text fill="#000000" font-family="sans-serif" font-size="11" lengthAdjust="spacingAndGlyphs" textLength="288" x="985.5" y="669.6479">checkMoveOriginCoordinateError(Coordinate): Error</text><polygon fill="#4177AF" points="976.5,675.2422,972.5,681.2422,980.5,681.2422" style="stroke: #1963A0; stroke-width: 1.0;"/><text fill="#000000" font-family="sans-serif" font-size="11" lengthAdjust="spacingAndGlyphs" textLength="361" x="985.5" y="682.4526">checkMoveTargetCoordinateError(Coordinate, Coordinate): Error</text><polygon fill="#4177AF" points="976.5,688.0469,972.5,694.0469,980.5,694.0469" style="stroke: #1963A0; stroke-width: 1.0;"/><text fill="#000000" font-family="sans-serif" font-size="11" lengthAdjust="spacingAndGlyphs" textLength="76" x="985.5" y="695.2573">writeWinner()</text><polygon fill="#4177AF" points="976.5,700.8516,972.5,706.8516,980.5,706.8516" style="stroke: #1963A0; stroke-width: 1.0;"/><text fill="#000000" font-family="sans-serif" font-size="11" lengthAdjust="spacingAndGlyphs" textLength="104" x="985.5" y="708.062">getToken(): Token</text><!--MD5=[4b5d579ecc4748d1b21f2fd6d497d353]
class usantatecla.tictactoe.TicTacToe--><rect codeLine="87" fill="#FEFECE" filter="url(#ffoizki25wrsa)" height="137.6328" id="usantatecla.tictactoe.TicTacToe" style="stroke: #A80036; stroke-width: 1.5;" width="185" x="751.5" y="41"/><ellipse cx="809.25" cy="57" fill="#ADD1B2" rx="11" ry="11" style="stroke: #A80036; stroke-width: 1.0;"/><path d="M811.5938,52.6719 C810.6563,52.2344 810.0625,52.0938 809.1875,52.0938 C806.5625,52.0938 804.5625,54.1719 804.5625,56.8906 L804.5625,58.0156 C804.5625,60.5938 806.6719,62.4844 809.5625,62.4844 C810.7813,62.4844 811.9375,62.1875 812.6875,61.6406 C813.2656,61.2344 813.5938,60.7813 813.5938,60.3906 C813.5938,59.9375 813.2031,59.5469 812.7344,59.5469 C812.5156,59.5469 812.3125,59.625 812.125,59.8125 C811.6719,60.2969 811.6719,60.2969 811.4844,60.3906 C811.0625,60.6563 810.375,60.7813 809.6094,60.7813 C807.5625,60.7813 806.2656,59.6875 806.2656,57.9844 L806.2656,56.8906 C806.2656,55.1094 807.5156,53.7969 809.25,53.7969 C809.8281,53.7969 810.4375,53.9531 810.9063,54.2031 C811.3906,54.4844 811.5625,54.7031 811.6563,55.1094 C811.7188,55.5156 811.75,55.6406 811.8906,55.7656 C812.0313,55.9063 812.2656,56.0156 812.4844,56.0156 C812.75,56.0156 813.0156,55.875 813.1875,55.6563 C813.2969,55.5 813.3281,55.3125 813.3281,54.8906 L813.3281,53.4688 C813.3281,53.0313 813.3125,52.9063 813.2188,52.75 C813.0625,52.4844 812.7813,52.3438 812.4844,52.3438 C812.1875,52.3438 811.9844,52.4375 811.7656,52.75 L811.5938,52.6719 Z "/><text fill="#000000" font-family="sans-serif" font-size="12" lengthAdjust="spacingAndGlyphs" textLength="61" x="829.75" y="61.1543">TicTacToe</text><line style="stroke: #A80036; stroke-width: 1.5;" x1="752.5" x2="935.5" y1="73" y2="73"/><rect fill="none" height="6" style="stroke: #C82930; stroke-width: 1.0;" width="6" x="759.5" y="81"/><text fill="#000000" font-family="sans-serif" font-size="11" lengthAdjust="spacingAndGlyphs" textLength="72" x="771.5" y="87.2104">board: Board</text><rect fill="none" height="6" style="stroke: #C82930; stroke-width: 1.0;" width="6" x="759.5" y="93.8047"/><text fill="#000000" font-family="sans-serif" font-size="11" lengthAdjust="spacingAndGlyphs" textLength="54" x="771.5" y="100.0151">turn: Turn</text><line style="stroke: #A80036; stroke-width: 1.5;" x1="752.5" x2="935.5" y1="106.6094" y2="106.6094"/><polygon fill="#4177AF" points="762.5,113.6094,758.5,119.6094,766.5,119.6094" style="stroke: #1963A0; stroke-width: 1.0;"/><text fill="#000000" font-family="sans-serif" font-size="11" lengthAdjust="spacingAndGlyphs" textLength="66" x="771.5" y="120.8198">TicTacToe()</text><rect fill="#F24D5C" height="6" style="stroke: #C82930; stroke-width: 1.0;" width="6" x="759.5" y="127.4141"/><text fill="#000000" font-family="sans-serif" font-size="11" lengthAdjust="spacingAndGlyphs" textLength="32" x="771.5" y="133.6245">play()</text><rect fill="#F24D5C" height="6" style="stroke: #C82930; stroke-width: 1.0;" width="6" x="759.5" y="140.2188"/><text fill="#000000" font-family="sans-serif" font-size="11" lengthAdjust="spacingAndGlyphs" textLength="67" x="771.5" y="146.4292">playGame()</text><rect fill="#F24D5C" height="6" style="stroke: #C82930; stroke-width: 1.0;" width="6" x="759.5" y="153.0234"/><text fill="#000000" font-family="sans-serif" font-size="11" lengthAdjust="spacingAndGlyphs" textLength="159" x="771.5" y="159.2339">isResumedGame(): boolean</text><ellipse cx="762.5" cy="168.8281" fill="#84BE84" rx="3" ry="3" style="stroke: #038048; stroke-width: 1.0;"/><text fill="#000000" font-family="sans-serif" font-size="11" lengthAdjust="spacingAndGlyphs" text-decoration="underline" textLength="77" x="771.5" y="172.0386">main(String[])</text><!--MD5=[70d70054f98ac0881f23804484f4abda]
class usantatecla.tictactoe.Token--><rect codeLine="97" fill="#FEFECE" filter="url(#ffoizki25wrsa)" height="124.8281" id="usantatecla.tictactoe.Token" style="stroke: #A80036; stroke-width: 1.5;" width="117" x="1819.5" y="851.5"/><ellipse cx="1856.1" cy="867.5" fill="#EB937F" rx="11" ry="11" style="stroke: #A80036; stroke-width: 1.0;"/><path d="M1854.8969,868.375 L1856.35,868.375 L1856.35,868.4844 C1856.35,868.8906 1856.3813,869.0469 1856.4594,869.2031 C1856.6156,869.4531 1856.8969,869.6094 1857.1938,869.6094 C1857.4438,869.6094 1857.7094,869.4688 1857.8656,869.25 C1857.9906,869.0938 1858.0219,868.9375 1858.0219,868.4844 L1858.0219,866.5625 C1858.0219,866.4063 1858.0219,866.3594 1858.0063,866.2031 C1857.9438,865.7344 1857.6313,865.4219 1857.1781,865.4219 C1856.9281,865.4219 1856.6625,865.5625 1856.4906,865.7813 C1856.3813,865.9531 1856.35,866.1094 1856.35,866.5625 L1856.35,866.6875 L1854.8969,866.6875 L1854.8969,864.2813 L1858.8813,864.2813 L1858.8813,865.1406 C1858.8813,865.5469 1858.9125,865.7188 1858.9906,865.875 C1859.1625,866.125 1859.4438,866.2813 1859.725,866.2813 C1859.9906,866.2813 1860.2563,866.1406 1860.4281,865.9219 C1860.5375,865.75 1860.5688,865.6094 1860.5688,865.1406 L1860.5688,862.5938 L1852.9438,862.5938 C1852.5063,862.5938 1852.3813,862.6094 1852.225,862.7031 C1851.975,862.8594 1851.8188,863.1563 1851.8188,863.4375 C1851.8188,863.7188 1851.9594,863.9688 1852.1781,864.1406 C1852.3344,864.25 1852.5219,864.2813 1852.9438,864.2813 L1853.1938,864.2813 L1853.1938,870.7969 L1852.9438,870.7969 C1852.5375,870.7969 1852.3813,870.8125 1852.225,870.9219 C1851.975,871.0938 1851.8188,871.3594 1851.8188,871.6563 C1851.8188,871.9219 1851.9594,872.1719 1852.1781,872.3281 C1852.3188,872.4531 1852.5531,872.5 1852.9438,872.5 L1860.9438,872.5 L1860.9438,869.9219 C1860.9438,869.4844 1860.9125,869.3438 1860.8344,869.1875 C1860.6625,868.9375 1860.3813,868.7813 1860.1,868.7813 C1859.8344,868.7813 1859.5688,868.8906 1859.3969,869.1406 C1859.2875,869.2969 1859.2563,869.4375 1859.2563,869.9219 L1859.2563,870.7969 L1854.8969,870.7969 L1854.8969,868.375 Z "/><text fill="#000000" font-family="sans-serif" font-size="12" lengthAdjust="spacingAndGlyphs" textLength="37" x="1874.9" y="871.6543">Token</text><line style="stroke: #A80036; stroke-width: 1.5;" x1="1820.5" x2="1935.5" y1="883.5" y2="883.5"/><ellipse cx="1830.5" cy="894.5" fill="none" rx="3" ry="3" style="stroke: #038048; stroke-width: 1.0;"/><text fill="#000000" font-family="sans-serif" font-size="11" lengthAdjust="spacingAndGlyphs" textLength="52" x="1839.5" y="897.7104">X_TOKEN</text><ellipse cx="1830.5" cy="907.3047" fill="none" rx="3" ry="3" style="stroke: #038048; stroke-width: 1.0;"/><text fill="#000000" font-family="sans-serif" font-size="11" lengthAdjust="spacingAndGlyphs" textLength="51" x="1839.5" y="910.5151">Y_TOKEN</text><ellipse cx="1830.5" cy="920.1094" fill="none" rx="3" ry="3" style="stroke: #038048; stroke-width: 1.0;"/><text fill="#000000" font-family="sans-serif" font-size="11" lengthAdjust="spacingAndGlyphs" textLength="28" x="1839.5" y="923.3198">NULL</text><line style="stroke: #A80036; stroke-width: 1.5;" x1="1820.5" x2="1935.5" y1="929.9141" y2="929.9141"/><ellipse cx="1830.5" cy="940.9141" fill="#84BE84" rx="3" ry="3" style="stroke: #038048; stroke-width: 1.0;"/><text fill="#000000" font-family="sans-serif" font-size="11" lengthAdjust="spacingAndGlyphs" textLength="91" x="1839.5" y="944.1245">isNull(): boolean</text><polygon fill="#4177AF" points="1830.5,949.7188,1826.5,955.7188,1834.5,955.7188" style="stroke: #1963A0; stroke-width: 1.0;"/><text fill="#000000" font-family="sans-serif" font-size="11" lengthAdjust="spacingAndGlyphs" textLength="36" x="1839.5" y="956.9292">write()</text><polygon fill="#4177AF" points="1830.5,962.5234,1826.5,968.5234,1834.5,968.5234" style="stroke: #1963A0; stroke-width: 1.0;"/><text fill="#000000" font-family="sans-serif" font-size="11" lengthAdjust="spacingAndGlyphs" text-decoration="underline" textLength="83" x="1839.5" y="969.7339">get(int): Token</text><!--MD5=[89d1a2b514c7103883fb14486df62cac]
class usantatecla.tictactoe.Turn--><rect codeLine="106" fill="#FEFECE" filter="url(#ffoizki25wrsa)" height="150.4375" id="usantatecla.tictactoe.Turn" style="stroke: #A80036; stroke-width: 1.5;" width="149" x="825.5" y="271"/><ellipse cx="882.75" cy="287" fill="#ADD1B2" rx="11" ry="11" style="stroke: #A80036; stroke-width: 1.0;"/><path d="M885.0938,282.6719 C884.1563,282.2344 883.5625,282.0938 882.6875,282.0938 C880.0625,282.0938 878.0625,284.1719 878.0625,286.8906 L878.0625,288.0156 C878.0625,290.5938 880.1719,292.4844 883.0625,292.4844 C884.2813,292.4844 885.4375,292.1875 886.1875,291.6406 C886.7656,291.2344 887.0938,290.7813 887.0938,290.3906 C887.0938,289.9375 886.7031,289.5469 886.2344,289.5469 C886.0156,289.5469 885.8125,289.625 885.625,289.8125 C885.1719,290.2969 885.1719,290.2969 884.9844,290.3906 C884.5625,290.6563 883.875,290.7813 883.1094,290.7813 C881.0625,290.7813 879.7656,289.6875 879.7656,287.9844 L879.7656,286.8906 C879.7656,285.1094 881.0156,283.7969 882.75,283.7969 C883.3281,283.7969 883.9375,283.9531 884.4063,284.2031 C884.8906,284.4844 885.0625,284.7031 885.1563,285.1094 C885.2188,285.5156 885.25,285.6406 885.3906,285.7656 C885.5313,285.9063 885.7656,286.0156 885.9844,286.0156 C886.25,286.0156 886.5156,285.875 886.6875,285.6563 C886.7969,285.5 886.8281,285.3125 886.8281,284.8906 L886.8281,283.4688 C886.8281,283.0313 886.8125,282.9063 886.7188,282.75 C886.5625,282.4844 886.2813,282.3438 885.9844,282.3438 C885.6875,282.3438 885.4844,282.4375 885.2656,282.75 L885.0938,282.6719 Z "/><text fill="#000000" font-family="sans-serif" font-size="12" lengthAdjust="spacingAndGlyphs" textLength="26" x="903.25" y="291.1543">Turn</text><line style="stroke: #A80036; stroke-width: 1.5;" x1="826.5" x2="973.5" y1="303" y2="303"/><polygon fill="none" points="836.5,310,832.5,316,840.5,316" style="stroke: #1963A0; stroke-width: 1.0;"/><text fill="#000000" font-family="sans-serif" font-size="11" lengthAdjust="spacingAndGlyphs" text-decoration="underline" textLength="123" x="845.5" y="317.2104">NUMBER_PLAYERS: int</text><rect fill="none" height="6" style="stroke: #C82930; stroke-width: 1.0;" width="6" x="833.5" y="323.8047"/><text fill="#000000" font-family="sans-serif" font-size="11" lengthAdjust="spacingAndGlyphs" textLength="92" x="845.5" y="330.0151">players: Player[]</text><rect fill="none" height="6" style="stroke: #C82930; stroke-width: 1.0;" width="6" x="833.5" y="336.6094"/><text fill="#000000" font-family="sans-serif" font-size="11" lengthAdjust="spacingAndGlyphs" textLength="56" x="845.5" y="342.8198">active: int</text><line style="stroke: #A80036; stroke-width: 1.5;" x1="826.5" x2="973.5" y1="349.4141" y2="349.4141"/><polygon fill="#4177AF" points="836.5,356.4141,832.5,362.4141,840.5,362.4141" style="stroke: #1963A0; stroke-width: 1.0;"/><text fill="#000000" font-family="sans-serif" font-size="11" lengthAdjust="spacingAndGlyphs" textLength="66" x="845.5" y="363.6245">Turn(Board)</text><polygon fill="#4177AF" points="836.5,369.2188,832.5,375.2188,840.5,375.2188" style="stroke: #1963A0; stroke-width: 1.0;"/><text fill="#000000" font-family="sans-serif" font-size="11" lengthAdjust="spacingAndGlyphs" textLength="32" x="845.5" y="376.4292">play()</text><rect fill="#F24D5C" height="6" style="stroke: #C82930; stroke-width: 1.0;" width="6" x="833.5" y="383.0234"/><text fill="#000000" font-family="sans-serif" font-size="11" lengthAdjust="spacingAndGlyphs" textLength="104" x="845.5" y="389.2339">getPlayer(): Player</text><polygon fill="#4177AF" points="836.5,394.8281,832.5,400.8281,840.5,400.8281" style="stroke: #1963A0; stroke-width: 1.0;"/><text fill="#000000" font-family="sans-serif" font-size="11" lengthAdjust="spacingAndGlyphs" textLength="76" x="845.5" y="402.0386">writeWinner()</text><polygon fill="#4177AF" points="836.5,407.6328,832.5,413.6328,840.5,413.6328" style="stroke: #1963A0; stroke-width: 1.0;"/><text fill="#000000" font-family="sans-serif" font-size="11" lengthAdjust="spacingAndGlyphs" textLength="104" x="845.5" y="414.8433">getToken(): Token</text><!--MD5=[d6372c72e2ccc5ff253d254b6fe719ff]
class usantatecla.tictactoe.UserPlayer--><rect codeLine="117" fill="#FEFECE" filter="url(#ffoizki25wrsa)" height="112.0234" id="usantatecla.tictactoe.UserPlayer" style="stroke: #A80036; stroke-width: 1.5;" width="387" x="933.5" y="858"/><ellipse cx="1090.25" cy="874" fill="#ADD1B2" rx="11" ry="11" style="stroke: #A80036; stroke-width: 1.0;"/><path d="M1092.5938,869.6719 C1091.6563,869.2344 1091.0625,869.0938 1090.1875,869.0938 C1087.5625,869.0938 1085.5625,871.1719 1085.5625,873.8906 L1085.5625,875.0156 C1085.5625,877.5938 1087.6719,879.4844 1090.5625,879.4844 C1091.7813,879.4844 1092.9375,879.1875 1093.6875,878.6406 C1094.2656,878.2344 1094.5938,877.7813 1094.5938,877.3906 C1094.5938,876.9375 1094.2031,876.5469 1093.7344,876.5469 C1093.5156,876.5469 1093.3125,876.625 1093.125,876.8125 C1092.6719,877.2969 1092.6719,877.2969 1092.4844,877.3906 C1092.0625,877.6563 1091.375,877.7813 1090.6094,877.7813 C1088.5625,877.7813 1087.2656,876.6875 1087.2656,874.9844 L1087.2656,873.8906 C1087.2656,872.1094 1088.5156,870.7969 1090.25,870.7969 C1090.8281,870.7969 1091.4375,870.9531 1091.9063,871.2031 C1092.3906,871.4844 1092.5625,871.7031 1092.6563,872.1094 C1092.7188,872.5156 1092.75,872.6406 1092.8906,872.7656 C1093.0313,872.9063 1093.2656,873.0156 1093.4844,873.0156 C1093.75,873.0156 1094.0156,872.875 1094.1875,872.6563 C1094.2969,872.5 1094.3281,872.3125 1094.3281,871.8906 L1094.3281,870.4688 C1094.3281,870.0313 1094.3125,869.9063 1094.2188,869.75 C1094.0625,869.4844 1093.7813,869.3438 1093.4844,869.3438 C1093.1875,869.3438 1092.9844,869.4375 1092.7656,869.75 L1092.5938,869.6719 Z "/><text fill="#000000" font-family="sans-serif" font-size="12" lengthAdjust="spacingAndGlyphs" textLength="65" x="1110.75" y="878.1543">UserPlayer</text><line style="stroke: #A80036; stroke-width: 1.5;" x1="934.5" x2="1319.5" y1="890" y2="890"/><line style="stroke: #A80036; stroke-width: 1.5;" x1="934.5" x2="1319.5" y1="898" y2="898"/><polygon fill="#4177AF" points="944.5,905,940.5,911,948.5,911" style="stroke: #1963A0; stroke-width: 1.0;"/><text fill="#000000" font-family="sans-serif" font-size="11" lengthAdjust="spacingAndGlyphs" textLength="144" x="953.5" y="912.2104">UserPlayer(Token, Board)</text><polygon fill="#4177AF" points="944.5,917.8047,940.5,923.8047,948.5,923.8047" style="stroke: #1963A0; stroke-width: 1.0;"/><text fill="#000000" font-family="sans-serif" font-size="11" lengthAdjust="spacingAndGlyphs" textLength="266" x="953.5" y="925.0151">getCoordinate(Message message): Coordinate</text><polygon fill="#4177AF" points="944.5,930.6094,940.5,936.6094,948.5,936.6094" style="stroke: #1963A0; stroke-width: 1.0;"/><text fill="#000000" font-family="sans-serif" font-size="11" lengthAdjust="spacingAndGlyphs" textLength="241" x="953.5" y="937.8198">checkPutCoordinateError(Coordinate): Error</text><polygon fill="#4177AF" points="944.5,943.4141,940.5,949.4141,948.5,949.4141" style="stroke: #1963A0; stroke-width: 1.0;"/><text fill="#000000" font-family="sans-serif" font-size="11" lengthAdjust="spacingAndGlyphs" textLength="288" x="953.5" y="950.6245">checkMoveOriginCoordinateError(Coordinate): Error</text><polygon fill="#4177AF" points="944.5,956.2188,940.5,962.2188,948.5,962.2188" style="stroke: #1963A0; stroke-width: 1.0;"/><text fill="#000000" font-family="sans-serif" font-size="11" lengthAdjust="spacingAndGlyphs" textLength="361" x="953.5" y="963.4292">checkMoveTargetCoordinateError(Coordinate, Coordinate): Error</text><!--MD5=[c2c7894405d0c7b92ed3110a385504d5]
class usantatecla.utils.ConcreteCoordinate--><rect fill="#FEFECE" filter="url(#ffoizki25wrsa)" height="48" id="usantatecla.utils.ConcreteCoordinate" style="stroke: #A80036; stroke-width: 1.5;" width="153" x="337.5" y="890"/><ellipse cx="352.5" cy="906" fill="#ADD1B2" rx="11" ry="11" style="stroke: #A80036; stroke-width: 1.0;"/><path d="M354.8438,901.6719 C353.9063,901.2344 353.3125,901.0938 352.4375,901.0938 C349.8125,901.0938 347.8125,903.1719 347.8125,905.8906 L347.8125,907.0156 C347.8125,909.5938 349.9219,911.4844 352.8125,911.4844 C354.0313,911.4844 355.1875,911.1875 355.9375,910.6406 C356.5156,910.2344 356.8438,909.7813 356.8438,909.3906 C356.8438,908.9375 356.4531,908.5469 355.9844,908.5469 C355.7656,908.5469 355.5625,908.625 355.375,908.8125 C354.9219,909.2969 354.9219,909.2969 354.7344,909.3906 C354.3125,909.6563 353.625,909.7813 352.8594,909.7813 C350.8125,909.7813 349.5156,908.6875 349.5156,906.9844 L349.5156,905.8906 C349.5156,904.1094 350.7656,902.7969 352.5,902.7969 C353.0781,902.7969 353.6875,902.9531 354.1563,903.2031 C354.6406,903.4844 354.8125,903.7031 354.9063,904.1094 C354.9688,904.5156 355,904.6406 355.1406,904.7656 C355.2813,904.9063 355.5156,905.0156 355.7344,905.0156 C356,905.0156 356.2656,904.875 356.4375,904.6563 C356.5469,904.5 356.5781,904.3125 356.5781,903.8906 L356.5781,902.4688 C356.5781,902.0313 356.5625,901.9063 356.4688,901.75 C356.3125,901.4844 356.0313,901.3438 355.7344,901.3438 C355.4375,901.3438 355.2344,901.4375 355.0156,901.75 L354.8438,901.6719 Z "/><text fill="#000000" font-family="sans-serif" font-size="12" lengthAdjust="spacingAndGlyphs" textLength="121" x="366.5" y="910.1543">ConcreteCoordinate</text><line style="stroke: #A80036; stroke-width: 1.5;" x1="338.5" x2="489.5" y1="922" y2="922"/><line style="stroke: #A80036; stroke-width: 1.5;" x1="338.5" x2="489.5" y1="930" y2="930"/><!--MD5=[b0b725b3db639de93c4e5e8714f3aefc]
class usantatecla.utils.ClosedInterval--><rect fill="#FEFECE" filter="url(#ffoizki25wrsa)" height="48" id="usantatecla.utils.ClosedInterval" style="stroke: #A80036; stroke-width: 1.5;" width="118" x="385" y="1113"/><ellipse cx="400" cy="1129" fill="#ADD1B2" rx="11" ry="11" style="stroke: #A80036; stroke-width: 1.0;"/><path d="M402.3438,1124.6719 C401.4063,1124.2344 400.8125,1124.0938 399.9375,1124.0938 C397.3125,1124.0938 395.3125,1126.1719 395.3125,1128.8906 L395.3125,1130.0156 C395.3125,1132.5938 397.4219,1134.4844 400.3125,1134.4844 C401.5313,1134.4844 402.6875,1134.1875 403.4375,1133.6406 C404.0156,1133.2344 404.3438,1132.7813 404.3438,1132.3906 C404.3438,1131.9375 403.9531,1131.5469 403.4844,1131.5469 C403.2656,1131.5469 403.0625,1131.625 402.875,1131.8125 C402.4219,1132.2969 402.4219,1132.2969 402.2344,1132.3906 C401.8125,1132.6563 401.125,1132.7813 400.3594,1132.7813 C398.3125,1132.7813 397.0156,1131.6875 397.0156,1129.9844 L397.0156,1128.8906 C397.0156,1127.1094 398.2656,1125.7969 400,1125.7969 C400.5781,1125.7969 401.1875,1125.9531 401.6563,1126.2031 C402.1406,1126.4844 402.3125,1126.7031 402.4063,1127.1094 C402.4688,1127.5156 402.5,1127.6406 402.6406,1127.7656 C402.7813,1127.9063 403.0156,1128.0156 403.2344,1128.0156 C403.5,1128.0156 403.7656,1127.875 403.9375,1127.6563 C404.0469,1127.5 404.0781,1127.3125 404.0781,1126.8906 L404.0781,1125.4688 C404.0781,1125.0313 404.0625,1124.9063 403.9688,1124.75 C403.8125,1124.4844 403.5313,1124.3438 403.2344,1124.3438 C402.9375,1124.3438 402.7344,1124.4375 402.5156,1124.75 L402.3438,1124.6719 Z "/><text fill="#000000" font-family="sans-serif" font-size="12" lengthAdjust="spacingAndGlyphs" textLength="86" x="414" y="1133.1543">ClosedInterval</text><line style="stroke: #A80036; stroke-width: 1.5;" x1="386" x2="502" y1="1145" y2="1145"/><line style="stroke: #A80036; stroke-width: 1.5;" x1="386" x2="502" y1="1153" y2="1153"/><!--MD5=[3415149f6924cb72405a86d2dbe048ff]
class usantatecla.utils.LimitedIntDialog--><rect fill="#FEFECE" filter="url(#ffoizki25wrsa)" height="48" id="usantatecla.utils.LimitedIntDialog" style="stroke: #A80036; stroke-width: 1.5;" width="127" x="175.5" y="890"/><ellipse cx="190.5" cy="906" fill="#ADD1B2" rx="11" ry="11" style="stroke: #A80036; stroke-width: 1.0;"/><path d="M192.8438,901.6719 C191.9063,901.2344 191.3125,901.0938 190.4375,901.0938 C187.8125,901.0938 185.8125,903.1719 185.8125,905.8906 L185.8125,907.0156 C185.8125,909.5938 187.9219,911.4844 190.8125,911.4844 C192.0313,911.4844 193.1875,911.1875 193.9375,910.6406 C194.5156,910.2344 194.8438,909.7813 194.8438,909.3906 C194.8438,908.9375 194.4531,908.5469 193.9844,908.5469 C193.7656,908.5469 193.5625,908.625 193.375,908.8125 C192.9219,909.2969 192.9219,909.2969 192.7344,909.3906 C192.3125,909.6563 191.625,909.7813 190.8594,909.7813 C188.8125,909.7813 187.5156,908.6875 187.5156,906.9844 L187.5156,905.8906 C187.5156,904.1094 188.7656,902.7969 190.5,902.7969 C191.0781,902.7969 191.6875,902.9531 192.1563,903.2031 C192.6406,903.4844 192.8125,903.7031 192.9063,904.1094 C192.9688,904.5156 193,904.6406 193.1406,904.7656 C193.2813,904.9063 193.5156,905.0156 193.7344,905.0156 C194,905.0156 194.2656,904.875 194.4375,904.6563 C194.5469,904.5 194.5781,904.3125 194.5781,903.8906 L194.5781,902.4688 C194.5781,902.0313 194.5625,901.9063 194.4688,901.75 C194.3125,901.4844 194.0313,901.3438 193.7344,901.3438 C193.4375,901.3438 193.2344,901.4375 193.0156,901.75 L192.8438,901.6719 Z "/><text fill="#000000" font-family="sans-serif" font-size="12" lengthAdjust="spacingAndGlyphs" textLength="95" x="204.5" y="910.1543">LimitedIntDialog</text><line style="stroke: #A80036; stroke-width: 1.5;" x1="176.5" x2="301.5" y1="922" y2="922"/><line style="stroke: #A80036; stroke-width: 1.5;" x1="176.5" x2="301.5" y1="930" y2="930"/><!--MD5=[5a5a2ad444bc00c1498d76ebf80a1dc4]
class usantatecla.utils.Console--><rect fill="#FEFECE" filter="url(#ffoizki25wrsa)" height="48" id="usantatecla.utils.Console" style="stroke: #A80036; stroke-width: 1.5;" width="81" x="268.5" y="1113"/><ellipse cx="283.5" cy="1129" fill="#ADD1B2" rx="11" ry="11" style="stroke: #A80036; stroke-width: 1.0;"/><path d="M285.8438,1124.6719 C284.9063,1124.2344 284.3125,1124.0938 283.4375,1124.0938 C280.8125,1124.0938 278.8125,1126.1719 278.8125,1128.8906 L278.8125,1130.0156 C278.8125,1132.5938 280.9219,1134.4844 283.8125,1134.4844 C285.0313,1134.4844 286.1875,1134.1875 286.9375,1133.6406 C287.5156,1133.2344 287.8438,1132.7813 287.8438,1132.3906 C287.8438,1131.9375 287.4531,1131.5469 286.9844,1131.5469 C286.7656,1131.5469 286.5625,1131.625 286.375,1131.8125 C285.9219,1132.2969 285.9219,1132.2969 285.7344,1132.3906 C285.3125,1132.6563 284.625,1132.7813 283.8594,1132.7813 C281.8125,1132.7813 280.5156,1131.6875 280.5156,1129.9844 L280.5156,1128.8906 C280.5156,1127.1094 281.7656,1125.7969 283.5,1125.7969 C284.0781,1125.7969 284.6875,1125.9531 285.1563,1126.2031 C285.6406,1126.4844 285.8125,1126.7031 285.9063,1127.1094 C285.9688,1127.5156 286,1127.6406 286.1406,1127.7656 C286.2813,1127.9063 286.5156,1128.0156 286.7344,1128.0156 C287,1128.0156 287.2656,1127.875 287.4375,1127.6563 C287.5469,1127.5 287.5781,1127.3125 287.5781,1126.8906 L287.5781,1125.4688 C287.5781,1125.0313 287.5625,1124.9063 287.4688,1124.75 C287.3125,1124.4844 287.0313,1124.3438 286.7344,1124.3438 C286.4375,1124.3438 286.2344,1124.4375 286.0156,1124.75 L285.8438,1124.6719 Z "/><text fill="#000000" font-family="sans-serif" font-size="12" lengthAdjust="spacingAndGlyphs" textLength="49" x="297.5" y="1133.1543">Console</text><line style="stroke: #A80036; stroke-width: 1.5;" x1="269.5" x2="348.5" y1="1145" y2="1145"/><line style="stroke: #A80036; stroke-width: 1.5;" x1="269.5" x2="348.5" y1="1153" y2="1153"/><!--MD5=[115031fed92a4467bd358dd9ee6729dd]
class usantatecla.utils.YesNoDialog--><rect fill="#FEFECE" filter="url(#ffoizki25wrsa)" height="48" id="usantatecla.utils.YesNoDialog" style="stroke: #A80036; stroke-width: 1.5;" width="108" x="32" y="890"/><ellipse cx="47" cy="906" fill="#ADD1B2" rx="11" ry="11" style="stroke: #A80036; stroke-width: 1.0;"/><path d="M49.3438,901.6719 C48.4063,901.2344 47.8125,901.0938 46.9375,901.0938 C44.3125,901.0938 42.3125,903.1719 42.3125,905.8906 L42.3125,907.0156 C42.3125,909.5938 44.4219,911.4844 47.3125,911.4844 C48.5313,911.4844 49.6875,911.1875 50.4375,910.6406 C51.0156,910.2344 51.3438,909.7813 51.3438,909.3906 C51.3438,908.9375 50.9531,908.5469 50.4844,908.5469 C50.2656,908.5469 50.0625,908.625 49.875,908.8125 C49.4219,909.2969 49.4219,909.2969 49.2344,909.3906 C48.8125,909.6563 48.125,909.7813 47.3594,909.7813 C45.3125,909.7813 44.0156,908.6875 44.0156,906.9844 L44.0156,905.8906 C44.0156,904.1094 45.2656,902.7969 47,902.7969 C47.5781,902.7969 48.1875,902.9531 48.6563,903.2031 C49.1406,903.4844 49.3125,903.7031 49.4063,904.1094 C49.4688,904.5156 49.5,904.6406 49.6406,904.7656 C49.7813,904.9063 50.0156,905.0156 50.2344,905.0156 C50.5,905.0156 50.7656,904.875 50.9375,904.6563 C51.0469,904.5 51.0781,904.3125 51.0781,903.8906 L51.0781,902.4688 C51.0781,902.0313 51.0625,901.9063 50.9688,901.75 C50.8125,901.4844 50.5313,901.3438 50.2344,901.3438 C49.9375,901.3438 49.7344,901.4375 49.5156,901.75 L49.3438,901.6719 Z "/><text fill="#000000" font-family="sans-serif" font-size="12" lengthAdjust="spacingAndGlyphs" textLength="76" x="61" y="910.1543">YesNoDialog</text><line style="stroke: #A80036; stroke-width: 1.5;" x1="33" x2="139" y1="922" y2="922"/><line style="stroke: #A80036; stroke-width: 1.5;" x1="33" x2="139" y1="930" y2="930"/><!--MD5=[fa47e12b1ade8e81943ba4775d45235c]
class usantatecla.utils.Direction--><rect fill="#FEFECE" filter="url(#ffoizki25wrsa)" height="48" id="usantatecla.utils.Direction" style="stroke: #A80036; stroke-width: 1.5;" width="86" x="538" y="1113"/><ellipse cx="553" cy="1129" fill="#ADD1B2" rx="11" ry="11" style="stroke: #A80036; stroke-width: 1.0;"/><path d="M555.3438,1124.6719 C554.4063,1124.2344 553.8125,1124.0938 552.9375,1124.0938 C550.3125,1124.0938 548.3125,1126.1719 548.3125,1128.8906 L548.3125,1130.0156 C548.3125,1132.5938 550.4219,1134.4844 553.3125,1134.4844 C554.5313,1134.4844 555.6875,1134.1875 556.4375,1133.6406 C557.0156,1133.2344 557.3438,1132.7813 557.3438,1132.3906 C557.3438,1131.9375 556.9531,1131.5469 556.4844,1131.5469 C556.2656,1131.5469 556.0625,1131.625 555.875,1131.8125 C555.4219,1132.2969 555.4219,1132.2969 555.2344,1132.3906 C554.8125,1132.6563 554.125,1132.7813 553.3594,1132.7813 C551.3125,1132.7813 550.0156,1131.6875 550.0156,1129.9844 L550.0156,1128.8906 C550.0156,1127.1094 551.2656,1125.7969 553,1125.7969 C553.5781,1125.7969 554.1875,1125.9531 554.6563,1126.2031 C555.1406,1126.4844 555.3125,1126.7031 555.4063,1127.1094 C555.4688,1127.5156 555.5,1127.6406 555.6406,1127.7656 C555.7813,1127.9063 556.0156,1128.0156 556.2344,1128.0156 C556.5,1128.0156 556.7656,1127.875 556.9375,1127.6563 C557.0469,1127.5 557.0781,1127.3125 557.0781,1126.8906 L557.0781,1125.4688 C557.0781,1125.0313 557.0625,1124.9063 556.9688,1124.75 C556.8125,1124.4844 556.5313,1124.3438 556.2344,1124.3438 C555.9375,1124.3438 555.7344,1124.4375 555.5156,1124.75 L555.3438,1124.6719 Z "/><text fill="#000000" font-family="sans-serif" font-size="12" lengthAdjust="spacingAndGlyphs" textLength="54" x="567" y="1133.1543">Direction</text><line style="stroke: #A80036; stroke-width: 1.5;" x1="539" x2="623" y1="1145" y2="1145"/><line style="stroke: #A80036; stroke-width: 1.5;" x1="539" x2="623" y1="1153" y2="1153"/><!--MD5=[5f018ac69b30f51f68cd34c581e50301]
class usantatecla.utils.Coordinate--><rect fill="#FEFECE" filter="url(#ffoizki25wrsa)" height="48" id="usantatecla.utils.Coordinate" style="stroke: #A80036; stroke-width: 1.5;" width="98" x="526" y="890"/><ellipse cx="541" cy="906" fill="#ADD1B2" rx="11" ry="11" style="stroke: #A80036; stroke-width: 1.0;"/><path d="M543.3438,901.6719 C542.4063,901.2344 541.8125,901.0938 540.9375,901.0938 C538.3125,901.0938 536.3125,903.1719 536.3125,905.8906 L536.3125,907.0156 C536.3125,909.5938 538.4219,911.4844 541.3125,911.4844 C542.5313,911.4844 543.6875,911.1875 544.4375,910.6406 C545.0156,910.2344 545.3438,909.7813 545.3438,909.3906 C545.3438,908.9375 544.9531,908.5469 544.4844,908.5469 C544.2656,908.5469 544.0625,908.625 543.875,908.8125 C543.4219,909.2969 543.4219,909.2969 543.2344,909.3906 C542.8125,909.6563 542.125,909.7813 541.3594,909.7813 C539.3125,909.7813 538.0156,908.6875 538.0156,906.9844 L538.0156,905.8906 C538.0156,904.1094 539.2656,902.7969 541,902.7969 C541.5781,902.7969 542.1875,902.9531 542.6563,903.2031 C543.1406,903.4844 543.3125,903.7031 543.4063,904.1094 C543.4688,904.5156 543.5,904.6406 543.6406,904.7656 C543.7813,904.9063 544.0156,905.0156 544.2344,905.0156 C544.5,905.0156 544.7656,904.875 544.9375,904.6563 C545.0469,904.5 545.0781,904.3125 545.0781,903.8906 L545.0781,902.4688 C545.0781,902.0313 545.0625,901.9063 544.9688,901.75 C544.8125,901.4844 544.5313,901.3438 544.2344,901.3438 C543.9375,901.3438 543.7344,901.4375 543.5156,901.75 L543.3438,901.6719 Z "/><text fill="#000000" font-family="sans-serif" font-size="12" lengthAdjust="spacingAndGlyphs" textLength="66" x="555" y="910.1543">Coordinate</text><line style="stroke: #A80036; stroke-width: 1.5;" x1="527" x2="623" y1="922" y2="922"/><line style="stroke: #A80036; stroke-width: 1.5;" x1="527" x2="623" y1="930" y2="930"/><!--MD5=[9054d1d596f71892773aeee04ca59ea9]
reverse link usantatecla.tictactoe.Player to usantatecla.tictactoe.UserPlayer--><path d="M1146.12,734.98 C1141.54,777.551 1136.62,823.411 1132.91,857.922 " fill="none" id="usantatecla.tictactoe.Player-backto-usantatecla.tictactoe.UserPlayer" style="stroke: #A80036; stroke-width: 1.0;"/><polygon fill="none" points="1139.16,734.197,1148.26,715.059,1153.08,735.692,1139.16,734.197" style="stroke: #A80036; stroke-width: 1.0;"/><!--MD5=[f55dc4ca1029546e2cc70a6003711be1]
link usantatecla.tictactoe.TicTacToe to usantatecla.tictactoe.Board--><path codeLine="125" d="M948.4484,139.7895 C948.4484,139.7895 1379.21,258.515 1549.09,305.335 " fill="none" id="usantatecla.tictactoe.TicTacToe-usantatecla.tictactoe.Board" style="stroke: #A80036; stroke-width: 1.0;"/><polygon fill="#A80036" points="1561.63,308.793,1554.0177,302.5438,1556.81,307.4634,1551.8904,310.2558,1561.63,308.793" style="stroke: #A80036; stroke-width: 1.0;"/><line style="stroke: #A80036; stroke-width: 1.0;" x1="1556.81" x2="1549.1" y1="307.4634" y2="305.3385"/><polygon fill="#A80036" points="936.88,136.6,941.601,142.0509,948.4484,139.7895,943.7274,134.3387,936.88,136.6" style="stroke: #A80036; stroke-width: 1.0;"/><!--MD5=[ce283d8c110a506040c2dd735ef47160]
link usantatecla.tictactoe.TicTacToe to usantatecla.tictactoe.Turn--><path codeLine="126" d="M863.136,190.9816 C863.136,190.9816 874.011,236.403 879.18,258.001 " fill="none" id="usantatecla.tictactoe.TicTacToe-usantatecla.tictactoe.Turn" style="stroke: #A80036; stroke-width: 1.0;"/><polygon fill="#A80036" points="882.261,270.877,884.0564,261.1932,881.0973,266.0143,876.2761,263.0552,882.261,270.877" style="stroke: #A80036; stroke-width: 1.0;"/><line style="stroke: #A80036; stroke-width: 1.0;" x1="881.0973" x2="879.235" y1="266.0143" y2="258.234"/><polygon fill="#A80036" points="860.348,179.31,857.8515,186.0752,863.136,190.9816,865.6325,184.2165,860.348,179.31" style="stroke: #A80036; stroke-width: 1.0;"/><!--MD5=[8842675a9ea127b9dcc7c26c260f87ba]
link usantatecla.tictactoe.Board to usantatecla.tictactoe.Token--><path codeLine="128" d="M1824.28,445.968 C1842.75,466.03 1859.12,488.559 1870,513 C1918.29,621.51 1905.64,763.525 1891.91,845.873 " fill="none" id="usantatecla.tictactoe.Board-to-usantatecla.tictactoe.Token" style="stroke: #A80036; stroke-width: 1.0; stroke-dasharray: 7.0,7.0;"/><polygon fill="#A80036" points="1891.01,851.209,1896.4583,843.0044,1891.8459,846.2794,1888.5709,841.6669,1891.01,851.209" style="stroke: #A80036; stroke-width: 1.0;"/><!--MD5=[d113ddce6fd1895c2fc1e379d25bb267]
link usantatecla.tictactoe.Turn to usantatecla.tictactoe.Token--><path codeLine="129" d="M974.54,359.015 C1073.13,377.899 1248.56,422.16 1370,513 C1458.7,579.351 1423.09,654.677 1516,715 C1624.93,785.727 1697.6,697.74 1802,775 C1826.01,792.768 1843.36,820.488 1855.37,846.437 " fill="none" id="usantatecla.tictactoe.Turn-to-usantatecla.tictactoe.Token" style="stroke: #A80036; stroke-width: 1.0; stroke-dasharray: 7.0,7.0;"/><polygon fill="#A80036" points="1857.55,851.259,1857.4877,841.4103,1855.4905,846.7029,1850.1979,844.7056,1857.55,851.259" style="stroke: #A80036; stroke-width: 1.0;"/><!--MD5=[da9e0b814734f6fa908ce67941f7afa7]
link usantatecla.tictactoe.Player to usantatecla.tictactoe.Token--><path codeLine="130" d="M1363.919,696.9882 C1363.919,696.9882 1404.71,709.885 1424,715 C1588.42,758.587 1662.81,677.218 1802,775 C1824.4,790.737 1840.9,815.263 1852.69,839.3 " fill="none" id="usantatecla.tictactoe.Player-usantatecla.tictactoe.Token" style="stroke: #A80036; stroke-width: 1.0;"/><polygon fill="#A80036" points="1858.27,851.397,1858.1316,841.5491,1856.1753,846.8569,1850.8675,844.9006,1858.27,851.397" style="stroke: #A80036; stroke-width: 1.0;"/><line style="stroke: #A80036; stroke-width: 1.0;" x1="1856.1753" x2="1852.83" y1="846.8569" y2="839.5925"/><polygon fill="#A80036" points="1352.54,693.178,1356.9595,698.8761,1363.919,696.9882,1359.4996,691.2901,1352.54,693.178" style="stroke: #A80036; stroke-width: 1.0;"/><!--MD5=[529b3f680026169e7030eafcb9573de9]
link usantatecla.tictactoe.Turn to usantatecla.tictactoe.Player--><path codeLine="131" d="M980.5171,429.6939 C980.5171,429.6939 1028.56,479.031 1052.23,503.339 " fill="none" id="usantatecla.tictactoe.Turn-usantatecla.tictactoe.Player" style="stroke: #A80036; stroke-width: 1.0;"/><polygon fill="#A80036" points="1061.59,512.955,1058.1776,503.7162,1058.102,509.3725,1052.4457,509.2969,1061.59,512.955" style="stroke: #A80036; stroke-width: 1.0;"/><line style="stroke: #A80036; stroke-width: 1.0;" x1="1058.102" x2="1052.52" y1="509.3725" y2="503.641"/><polygon fill="#A80036" points="972.146,421.096,973.4656,428.1853,980.5171,429.6939,979.1975,422.6046,972.146,421.096" style="stroke: #A80036; stroke-width: 1.0;"/><text fill="#000000" font-family="sans-serif" font-size="13" lengthAdjust="spacingAndGlyphs" textLength="8" x="1046.1427" y="502.0681">2</text><!--MD5=[bfa888729168fa3147cbf7352825b6b1]
link usantatecla.tictactoe.Board to usantatecla.tictactoe.Coordinate--><path codeLine="132" d="M1693,465.277 C1693,465.277 1693,492.947 1693,505.948 " fill="none" id="usantatecla.tictactoe.Board-usantatecla.tictactoe.Coordinate" style="stroke: #A80036; stroke-width: 1.0;"/><polygon fill="#A80036" points="1693,519.349,1697,510.349,1693,514.349,1689,510.349,1693,519.349" style="stroke: #A80036; stroke-width: 1.0;"/><line style="stroke: #A80036; stroke-width: 1.0;" x1="1693" x2="1693" y1="514.349" y2="506.349"/><polygon fill="#A80036" points="1693,453.277,1689,459.277,1693,465.277,1697,459.277,1693,453.277" style="stroke: #A80036; stroke-width: 1.0;"/><!--MD5=[287634111649744118617a7068f6a88b]
reverse link usantatecla.tictactoe.Player to usantatecla.tictactoe.MachinePlayer--><path codeLine="133" d="M1288.06,728.486 C1305.02,743.944 1322.04,759.74 1338,775 C1373.25,808.698 1412.04,848.669 1438.96,876.897 " fill="none" id="usantatecla.tictactoe.Player-backto-usantatecla.tictactoe.MachinePlayer" style="stroke: #A80036; stroke-width: 1.0;"/><polygon fill="none" points="1283.31,733.632,1273.2,715.012,1292.71,723.261,1283.31,733.632" style="stroke: #A80036; stroke-width: 1.0;"/><!--MD5=[cb3b258fc3efb46a680af02e5e1f3af2]
link usantatecla.tictactoe.Coordinate to usantatecla.tictactoe.Error--><path codeLine="134" d="M1696.78,708.88 C1698.3,746.605 1700.04,789.818 1701.53,826.741 " fill="none" id="usantatecla.tictactoe.Coordinate-to-usantatecla.tictactoe.Error" style="stroke: #A80036; stroke-width: 1.0; stroke-dasharray: 7.0,7.0;"/><polygon fill="#A80036" points="1701.74,832.142,1705.3771,822.9893,1701.5402,827.146,1697.3835,823.3091,1701.74,832.142" style="stroke: #A80036; stroke-width: 1.0;"/><!--MD5=[e43764ef036bd32d7bebb5fdc89dab41]
link usantatecla.tictactoe.Player to usantatecla.tictactoe.Error--><path codeLine="135" d="M1352.56,689.207 C1376.56,698.063 1400.8,706.846 1424,715 C1505.15,743.525 1538.84,723.862 1608,775 C1627.16,789.163 1643.93,808.259 1657.91,827.724 " fill="none" id="usantatecla.tictactoe.Player-to-usantatecla.tictactoe.Error" style="stroke: #A80036; stroke-width: 1.0; stroke-dasharray: 7.0,7.0;"/><polygon fill="#A80036" points="1661.03,832.144,1659.1073,822.4846,1658.1464,828.0593,1652.5718,827.0984,1661.03,832.144" style="stroke: #A80036; stroke-width: 1.0;"/><!--MD5=[c1cc06e9ee042e231acd704d3db91e02]
link usantatecla.tictactoe.Board to usantatecla.tictactoe.Message--><path codeLine="136" d="M1561.75,361.412 C1373.44,384.507 1039.21,435.262 948,513 C926.897,530.987 876.82,662.566 838.458,769.979 " fill="none" id="usantatecla.tictactoe.Board-to-usantatecla.tictactoe.Message" style="stroke: #A80036; stroke-width: 1.0; stroke-dasharray: 7.0,7.0;"/><polygon fill="#A80036" points="836.755,774.754,843.5468,767.6216,838.4352,770.0448,836.012,764.9332,836.755,774.754" style="stroke: #A80036; stroke-width: 1.0;"/><!--MD5=[7e581fdc1c15d414673a5603eefb02c4]
link usantatecla.tictactoe.Player to usantatecla.tictactoe.Message--><path codeLine="137" d="M994.889,715.11 C967.702,733.912 940.437,754.225 916,775 C911.349,778.954 906.698,783.07 902.071,787.301 " fill="none" id="usantatecla.tictactoe.Player-to-usantatecla.tictactoe.Message" style="stroke: #A80036; stroke-width: 1.0; stroke-dasharray: 7.0,7.0;"/><polygon fill="#A80036" points="898.192,790.882,907.5185,787.717,901.8661,787.4907,902.0924,781.8384,898.192,790.882" style="stroke: #A80036; stroke-width: 1.0;"/><!--MD5=[4658d6f36d7d9c2388a7aa58b8f9a55b]
link usantatecla.tictactoe.TicTacToe to usantatecla.tictactoe.Message--><path codeLine="138" d="M821.508,179.07 C816.092,198.246 811.007,219.26 808,239 C780.347,420.524 779.448,632.642 782.9,769.711 " fill="none" id="usantatecla.tictactoe.TicTacToe-to-usantatecla.tictactoe.Message" style="stroke: #A80036; stroke-width: 1.0; stroke-dasharray: 7.0,7.0;"/><polygon fill="#A80036" points="783.035,774.961,786.8023,765.8611,782.9064,769.9627,778.8049,766.0668,783.035,774.961" style="stroke: #A80036; stroke-width: 1.0;"/><!--MD5=[62ac8b859d6a910fbb401d124595bc0b]
link usantatecla.tictactoe.Turn to usantatecla.tictactoe.Message--><path codeLine="139" d="M885.432,421.285 C868.117,509.573 838.836,658.883 817.071,769.861 " fill="none" id="usantatecla.tictactoe.Turn-to-usantatecla.tictactoe.Message" style="stroke: #A80036; stroke-width: 1.0; stroke-dasharray: 7.0,7.0;"/><polygon fill="#A80036" points="816.106,774.785,821.7622,766.7223,817.0676,769.8783,813.9116,765.1837,816.106,774.785" style="stroke: #A80036; stroke-width: 1.0;"/><!--MD5=[10681ec7f5b179b252d6841f63472330]
reverse link usantatecla.utils.ConcreteCoordinate to usantatecla.tictactoe.Coordinate--><path codeLine="143" d="M430.262,871.328 C445.251,839.043 470.838,796.335 508,775 C674.527,679.396 1181.25,750.296 1370,715 C1424.1,704.884 1481.89,688.766 1533.42,672.399 " fill="none" id="usantatecla.utils.ConcreteCoordinate-backto-usantatecla.tictactoe.Coordinate" style="stroke: #A80036; stroke-width: 1.0;"/><polygon fill="none" points="436.643,874.21,422.291,889.799,423.789,868.662,436.643,874.21" style="stroke: #A80036; stroke-width: 1.0;"/><!--MD5=[1c29fd80289459ca75434dd33ebca067]
link usantatecla.tictactoe.Coordinate to usantatecla.utils.ClosedInterval--><path codeLine="145" d="M1852.82,678.349 C1892.95,702.351 1931.09,734.074 1954,775 C1986.79,833.557 2000.86,1028.953 1954,1077 C1898.36,1134.0533 598.68,1100.3442 520,1113 C516.172,1113.6157 512.268,1114.3738 508.35,1115.2354 " fill="none" id="usantatecla.tictactoe.Coordinate-to-usantatecla.utils.ClosedInterval" style="stroke: #A80036; stroke-width: 1.0; stroke-dasharray: 7.0,7.0;"/><polygon fill="#A80036" points="503.386,1116.3794,513.0544,1118.2561,508.2583,1115.2565,511.2578,1110.4604,503.386,1116.3794" style="stroke: #A80036; stroke-width: 1.0;"/><!--MD5=[0e5fd81d27a653f2c107a1bf9c7b4e84]
link usantatecla.tictactoe.Token to usantatecla.utils.ClosedInterval--><path codeLine="146" d="M1865.8,976.791 C1855.29,1012.476 1836.17,1054.608 1802,1077 C1742.41,1116.0533 590.329,1101.5802 520,1113 C516.173,1113.6214 512.27,1114.3839 508.353,1115.249 " fill="none" id="usantatecla.tictactoe.Token-to-usantatecla.utils.ClosedInterval" style="stroke: #A80036; stroke-width: 1.0; stroke-dasharray: 7.0,7.0;"/><polygon fill="#A80036" points="503.389,1116.3967,513.059,1118.265,508.2603,1115.2696,511.2557,1110.4709,503.389,1116.3967" style="stroke: #A80036; stroke-width: 1.0;"/><!--MD5=[ea5cf5ece861ff4fd45a5d576f5bc955]
link usantatecla.utils.LimitedIntDialog to usantatecla.utils.ClosedInterval--><path codeLine="147" d="M245.234,938.021 C255.568,972.311 279.252,1037.04 320,1077 C336.774,1093.4496 359.009,1105.9777 380.015,1115.1658 " fill="none" id="usantatecla.utils.LimitedIntDialog-to-usantatecla.utils.ClosedInterval" style="stroke: #A80036; stroke-width: 1.0; stroke-dasharray: 7.0,7.0;"/><polygon fill="#A80036" points="384.757,1117.1934,378.0543,1109.9772,380.1596,1115.2276,374.9091,1117.3329,384.757,1117.1934" style="stroke: #A80036; stroke-width: 1.0;"/><!--MD5=[ab30a33c7a338b40c1e1653295999621]
link usantatecla.tictactoe.Error to usantatecla.utils.Console--><path codeLine="150" d="M1676.48,995.606 C1661.19,1026.587 1638.97,1058.849 1608,1077 C1488.99,1146.7538 502.107,1085.153 367,1113 C362.882,1113.8487 358.68,1114.9688 354.513,1116.2583 " fill="none" id="usantatecla.tictactoe.Error-to-usantatecla.utils.Console" style="stroke: #A80036; stroke-width: 1.0; stroke-dasharray: 7.0,7.0;"/><polygon fill="#A80036" points="349.646,1117.844,359.4423,1118.8599,354.4001,1116.2954,356.9646,1111.2533,349.646,1117.844" style="stroke: #A80036; stroke-width: 1.0;"/><!--MD5=[c343d2dcb6eb9ac1af91201ecceb7e13]
link usantatecla.tictactoe.Message to usantatecla.utils.Console--><path codeLine="151" d="M679.66,1050.582 C667.174,1060.713 653.903,1069.777 640,1077 C531.398,1133.4212 485.447,1082.21 367,1113 C362.931,1114.0577 358.763,1115.3234 354.618,1116.7097 " fill="none" id="usantatecla.tictactoe.Message-to-usantatecla.utils.Console" style="stroke: #A80036; stroke-width: 1.0; stroke-dasharray: 7.0,7.0;"/><polygon fill="#A80036" points="349.772,1118.3872,359.5853,1119.2229,354.4969,1116.7515,356.9683,1111.6631,349.772,1118.3872" style="stroke: #A80036; stroke-width: 1.0;"/><!--MD5=[2c81cefd786e124542daba4480f8004b]
link usantatecla.tictactoe.Token to usantatecla.utils.Console--><path codeLine="152" d="M1865.83,976.827 C1855.32,1012.525 1836.2,1054.66 1802,1077 C1735.23,1120.6108 445.137,1097.0546 367,1113 C362.881,1113.8406 358.677,1114.9551 354.51,1116.2409 " fill="none" id="usantatecla.tictactoe.Token-to-usantatecla.utils.Console" style="stroke: #A80036; stroke-width: 1.0; stroke-dasharray: 7.0,7.0;"/><polygon fill="#A80036" points="349.641,1117.823,359.4364,1118.8475,354.3965,1116.2786,356.9654,1111.2387,349.641,1117.823" style="stroke: #A80036; stroke-width: 1.0;"/><!--MD5=[0002b1cbccdb92ae6e9caff73706633c]
link usantatecla.utils.ConcreteCoordinate to usantatecla.utils.Console--><path codeLine="153" d="M402.962,938.233 C383.504,979.186 343.187,1064.044 322.257,1108.0976 " fill="none" id="usantatecla.utils.ConcreteCoordinate-to-usantatecla.utils.Console" style="stroke: #A80036; stroke-width: 1.0; stroke-dasharray: 7.0,7.0;"/><polygon fill="#A80036" points="320.048,1112.7465,327.5235,1106.3342,322.1939,1108.2304,320.2977,1102.9008,320.048,1112.7465" style="stroke: #A80036; stroke-width: 1.0;"/><!--MD5=[9ea9fdac8877b2914dbfaebea76eb772]
link usantatecla.utils.LimitedIntDialog to usantatecla.utils.Console--><path codeLine="154" d="M246.359,938.233 C259.304,979.103 286.1,1063.701 300.077,1107.8296 " fill="none" id="usantatecla.utils.LimitedIntDialog-to-usantatecla.utils.Console" style="stroke: #A80036; stroke-width: 1.0; stroke-dasharray: 7.0,7.0;"/><polygon fill="#A80036" points="301.635,1112.7465,302.7309,1102.9588,300.1253,1107.9799,295.1042,1105.3743,301.635,1112.7465" style="stroke: #A80036; stroke-width: 1.0;"/><!--MD5=[bef9209ee563bd0cab945b38e8120dbd]
link usantatecla.utils.YesNoDialog to usantatecla.utils.Console--><path codeLine="155" d="M90.417,938.084 C98.1924,972.751 117.496,1038.307 158,1077 C186.977,1104.6813 230.431,1119.8219 263.295,1127.8087 " fill="none" id="usantatecla.utils.YesNoDialog-to-usantatecla.utils.Console" style="stroke: #A80036; stroke-width: 1.0; stroke-dasharray: 7.0,7.0;"/><polygon fill="#A80036" points="268.475,1129.03,260.6328,1123.0718,263.6084,1127.8828,258.7974,1130.8584,268.475,1129.03" style="stroke: #A80036; stroke-width: 1.0;"/><!--MD5=[cee4ac55b133afe26f7d4961460269a8]
link usantatecla.tictactoe.Turn to usantatecla.utils.LimitedIntDialog--><path codeLine="158" d="M825.461,401.968 C669.005,517.349 320.649,774.279 320,775 C289.567,808.808 264.927,855.824 251.12,885.321 " fill="none" id="usantatecla.tictactoe.Turn-to-usantatecla.utils.LimitedIntDialog" style="stroke: #A80036; stroke-width: 1.0; stroke-dasharray: 7.0,7.0;"/><polygon fill="#A80036" points="248.998,889.9,256.4125,883.4173,251.1011,885.3638,249.1546,880.0524,248.998,889.9" style="stroke: #A80036; stroke-width: 1.0;"/><!--MD5=[0ffcc3a247f0a45f81be2c16067bec7a]
link usantatecla.tictactoe.TicTacToe to usantatecla.utils.YesNoDialog--><path codeLine="159" d="M754.074,179.03 C611.827,290.433 333.121,524.55 158,775 C132.968,810.799 110.841,856.411 97.9309,885.17 " fill="none" id="usantatecla.tictactoe.TicTacToe-to-usantatecla.utils.YesNoDialog" style="stroke: #A80036; stroke-width: 1.0; stroke-dasharray: 7.0,7.0;"/><polygon fill="#A80036" points="95.784,889.987,103.1016,883.3952,97.8196,885.4201,95.7947,880.1381,95.784,889.987" style="stroke: #A80036; stroke-width: 1.0;"/><!--MD5=[de746ba232dfe28809fcaac93b649aef]
link usantatecla.tictactoe.Board to usantatecla.utils.Direction--><path codeLine="161" d="M1824.26,444.778 C1849.29,466.012 1874.4,489.264 1896,513 C2072.75,707.191 2253.97,887.687 2072,1077 C2020.88,1130.1836 880.061,1135.4345 629.407,1135.946 " fill="none" id="usantatecla.tictactoe.Board-to-usantatecla.utils.Direction" style="stroke: #A80036; stroke-width: 1.0; stroke-dasharray: 7.0,7.0;"/><polygon fill="#A80036" points="624.359,1135.9559,633.367,1139.9379,629.359,1135.9459,633.351,1131.9379,624.359,1135.9559" style="stroke: #A80036; stroke-width: 1.0;"/><!--MD5=[3f38ca43cdc424d51726af2c946c7456]
link usantatecla.tictactoe.Coordinate to usantatecla.utils.Direction--><path codeLine="162" d="M1852.92,654.692 C1914.96,678.745 1979.7,716.511 2016,775 C2086.78,889.045 2108.94,980.161 2016,1077 C1966.97,1128.0904 874.694,1134.967 629.541,1135.8677 " fill="none" id="usantatecla.tictactoe.Coordinate-to-usantatecla.utils.Direction" style="stroke: #A80036; stroke-width: 1.0; stroke-dasharray: 7.0,7.0;"/><polygon fill="#A80036" points="624.254,1135.8867,633.2677,1139.8558,629.254,1135.8696,633.2402,1131.8559,624.254,1135.8867" style="stroke: #A80036; stroke-width: 1.0;"/><!--MD5=[a8ffb3790df5680269bc6d65de93cdf4]
link usantatecla.utils.Coordinate to usantatecla.utils.Direction--><path codeLine="163" d="M575.631,938.233 C576.738,979.02 579.028,1063.358 580.228,1107.5605 " fill="none" id="usantatecla.utils.Coordinate-to-usantatecla.utils.Direction" style="stroke: #A80036; stroke-width: 1.0; stroke-dasharray: 7.0,7.0;"/><polygon fill="#A80036" points="580.369,1112.7465,584.1229,1103.6411,580.2331,1107.7483,576.1259,1103.8585,580.369,1112.7465" style="stroke: #A80036; stroke-width: 1.0;"/><!--MD5=[683d9e05ab924255f9cc878632645ace]
@startuml
namespace usantatecla.tictactoe {
class Board {
	- tokens: Token[][] 
	~ Board()
	+ reset() 
	~ write() 
	- getToken(Coordinate): Token 
	~ isCompleted(): boolean 
	~ put(Coordinate, Token) 
	~ move(Coordinate, Coordinate) 
	- remove(Coordinate) 
	~ isOccupied(Coordinate, Token): boolean 
	~ isEmpty(Coordinate): boolean
	~ isTicTacToe(Token): boolean
	- getCoordinates(Token): List<Coordinate> 
}

class Coordinate {
	~ NULL: {static} Coordinate
	~ DIMENSION: {static} int 
	~ LIMITS: {static} ClosedInterval 
	~ Coordinate()
	~ Coordinate(int, int)
	+ isNull(): boolean 
	+ getDirection(usantatecla.utils.Coordinate): Direction 
	+ inInverseDiagonal(): boolean 
	+ read(String)
	+ random() 
	+ equals(Object): boolean 
}

enum Error {

	+ NOT_EMPTY
	+ NOT_OWNER
	+ SAME_COORDINATES
	+ WRONG_COORDINATES
	+ NULL
	- message: String 
	~ Error()
	~ Error(String)
	~ writeln()
}

class MachinePlayer {
	~ MachinePlayer(Token, Board)
	~ getCoordinate(Message): Coordinate 
}

enum Message {
	+ TITTLE
	+ NUMBER_PLAYERS
	+ SEPARATOR
	+ VERTICAL_LINE_LEFT
	+ VERTICAL_LINE_CENTERED
	+ VERTICAL_LINE_RIGHT
	+ ENTER_COORDINATE_TO_PUT
	+ ENTER_COORDINATE_TO_REMOVE
	+ COORDINATE_TO_PUT
	+ COORDINATE_TO_REMOVE
	+ COORDINATE_TO_MOVE
	+ PLAYER_WIN
	+ RESUME
	- message: String 
	- Message(String)
	~ write()
	~ writeln()
	+ toString(): String 
}


abstract class Player {
	~ board: Board 
	~ token: Token 
	~ Player(Token, Board)
	~ play()
	- put()
	~ abstract getCoordinate(Message): Coordinate 
	~ checkPutCoordinateError(Coordinate): Error 
	- move()
	~ checkMoveOriginCoordinateError(Coordinate): Error 
	~ checkMoveTargetCoordinateError(Coordinate, Coordinate): Error 
	~ writeWinner()
	~ getToken(): Token 
}

class TicTacToe{
    - board: Board 
	- turn: Turn 
    ~ TicTacToe()
	- play()
    - playGame()
	- isResumedGame(): boolean
	+ {static} main(String[])
}

enum Token {
	+ X_TOKEN
	+ Y_TOKEN
	+ NULL
    + isNull(): boolean 
    ~ write()
    ~ {static} get(int): Token 
}

class Turn {
	~ NUMBER_PLAYERS: {static} int 
	- players: Player[] 
	- active: int 
	~ Turn(Board)
	~ play()
	- getPlayer(): Player 
	~ writeWinner()
	~ getToken(): Token  
}

class UserPlayer extends Player {
	~ UserPlayer(Token, Board)
	~ getCoordinate(Message message): Coordinate
	~ checkPutCoordinateError(Coordinate): Error 
	~ checkMoveOriginCoordinateError(Coordinate): Error
	~ checkMoveTargetCoordinateError(Coordinate, Coordinate): Error
}

TicTacToe *-down-> Board
TicTacToe *-down-> Turn

Board .down.> Token
Turn .down.> Token
Player *-down-> Token
Turn *-down-> "2" Player
Board *-down-> Coordinate
Player <|-down- MachinePlayer
Coordinate .down.> Error
Player .down.> Error
Board .down.> Message
Player .down.> Message
TicTacToe .down.> Message
Turn .down.> Message

}

usantatecla.utils.ConcreteCoordinate <|-down- usantatecla.tictactoe.Coordinate

usantatecla.tictactoe.Coordinate .down.> usantatecla.utils.ClosedInterval
usantatecla.tictactoe.Token .down.> usantatecla.utils.ClosedInterval
usantatecla.utils.LimitedIntDialog .down.> usantatecla.utils.ClosedInterval


usantatecla.tictactoe.Error .down.> usantatecla.utils.Console
usantatecla.tictactoe.Message .down.> usantatecla.utils.Console
usantatecla.tictactoe.Token .down.> usantatecla.utils.Console
usantatecla.utils.ConcreteCoordinate .down.> usantatecla.utils.Console
usantatecla.utils.LimitedIntDialog .down.> usantatecla.utils.Console
usantatecla.utils.YesNoDialog .down.> usantatecla.utils.Console


usantatecla.tictactoe.Turn .down.> usantatecla.utils.LimitedIntDialog
usantatecla.tictactoe.TicTacToe .down.> usantatecla.utils.YesNoDialog

usantatecla.tictactoe.Board .down.> usantatecla.utils.Direction
usantatecla.tictactoe.Coordinate .down.> usantatecla.utils.Direction
usantatecla.utils.Coordinate .down.> usantatecla.utils.Direction
@enduml

PlantUML version 1.2020.20beta4(Unknown compile time)
(GPL source distribution)
Java Runtime: Java(TM) SE Runtime Environment
JVM: Java HotSpot(TM) 64-Bit Server VM
Default Encoding: UTF-8
Language: en
Country: US
--></g></svg>