<?xml version="1.0" encoding="UTF-8" standalone="no"?><svg xmlns="http://www.w3.org/2000/svg" xmlns:xlink="http://www.w3.org/1999/xlink" contentScriptType="application/ecmascript" contentStyleType="text/css" height="1175px" preserveAspectRatio="none" style="width:2353px;height:1175px;" version="1.1" viewBox="0 0 2353 1175" width="2353px" zoomAndPan="magnify"><defs><filter height="300%" id="f4plmap3ugejy" width="300%" x="-1" y="-1"><feGaussianBlur result="blurOut" stdDeviation="2.0"/><feColorMatrix in="blurOut" result="blurOut2" type="matrix" values="0 0 0 0 0 0 0 0 0 0 0 0 0 0 0 0 0 0 .4 0"/><feOffset dx="4.0" dy="4.0" in="blurOut2" result="blurOut3"/><feBlend in="SourceGraphic" in2="blurOut3" mode="normal"/></filter></defs><g><!--MD5=[b59da53bc4cb019b9115ab51e8207bb0]
cluster usantatecla.tictactoe--><polygon fill="#FFFFFF" filter="url(#f4plmap3ugejy)" points="541.5,6,726.5,6,733.5,28.2969,1830.5,28.2969,1830.5,1069,541.5,1069,541.5,6" style="stroke: #000000; stroke-width: 1.5;"/><line style="stroke: #000000; stroke-width: 1.5;" x1="541.5" x2="733.5" y1="28.2969" y2="28.2969"/><text fill="#000000" font-family="sans-serif" font-size="14" font-weight="bold" lengthAdjust="spacingAndGlyphs" textLength="179" x="545.5" y="20.9951">usantatecla.tictactoe</text><!--MD5=[1c1463d9f8db069853651be96ebc7f3a]
class usantatecla.tictactoe.Board--><rect codeLine="2" fill="#FEFECE" filter="url(#f4plmap3ugejy)" height="214.4609" id="usantatecla.tictactoe.Board" style="stroke: #A80036; stroke-width: 1.5;" width="262" x="1407.5" y="239"/><ellipse cx="1516.25" cy="255" fill="#ADD1B2" rx="11" ry="11" style="stroke: #A80036; stroke-width: 1.0;"/><path d="M1518.5938,250.6719 C1517.6563,250.2344 1517.0625,250.0938 1516.1875,250.0938 C1513.5625,250.0938 1511.5625,252.1719 1511.5625,254.8906 L1511.5625,256.0156 C1511.5625,258.5938 1513.6719,260.4844 1516.5625,260.4844 C1517.7813,260.4844 1518.9375,260.1875 1519.6875,259.6406 C1520.2656,259.2344 1520.5938,258.7813 1520.5938,258.3906 C1520.5938,257.9375 1520.2031,257.5469 1519.7344,257.5469 C1519.5156,257.5469 1519.3125,257.625 1519.125,257.8125 C1518.6719,258.2969 1518.6719,258.2969 1518.4844,258.3906 C1518.0625,258.6563 1517.375,258.7813 1516.6094,258.7813 C1514.5625,258.7813 1513.2656,257.6875 1513.2656,255.9844 L1513.2656,254.8906 C1513.2656,253.1094 1514.5156,251.7969 1516.25,251.7969 C1516.8281,251.7969 1517.4375,251.9531 1517.9063,252.2031 C1518.3906,252.4844 1518.5625,252.7031 1518.6563,253.1094 C1518.7188,253.5156 1518.75,253.6406 1518.8906,253.7656 C1519.0313,253.9063 1519.2656,254.0156 1519.4844,254.0156 C1519.75,254.0156 1520.0156,253.875 1520.1875,253.6563 C1520.2969,253.5 1520.3281,253.3125 1520.3281,252.8906 L1520.3281,251.4688 C1520.3281,251.0313 1520.3125,250.9063 1520.2188,250.75 C1520.0625,250.4844 1519.7813,250.3438 1519.4844,250.3438 C1519.1875,250.3438 1518.9844,250.4375 1518.7656,250.75 L1518.5938,250.6719 Z "/><text fill="#000000" font-family="sans-serif" font-size="12" lengthAdjust="spacingAndGlyphs" textLength="36" x="1536.75" y="259.1543">Board</text><line style="stroke: #A80036; stroke-width: 1.5;" x1="1408.5" x2="1668.5" y1="271" y2="271"/><rect fill="none" height="6" style="stroke: #C82930; stroke-width: 1.0;" width="6" x="1415.5" y="279"/><text fill="#000000" font-family="sans-serif" font-size="11" lengthAdjust="spacingAndGlyphs" textLength="96" x="1427.5" y="285.2104">tokens: Token[][]</text><line style="stroke: #A80036; stroke-width: 1.5;" x1="1408.5" x2="1668.5" y1="291.8047" y2="291.8047"/><polygon fill="#4177AF" points="1418.5,298.8047,1414.5,304.8047,1422.5,304.8047" style="stroke: #1963A0; stroke-width: 1.0;"/><text fill="#000000" font-family="sans-serif" font-size="11" lengthAdjust="spacingAndGlyphs" textLength="41" x="1427.5" y="306.0151">Board()</text><ellipse cx="1418.5" cy="315.6094" fill="#84BE84" rx="3" ry="3" style="stroke: #038048; stroke-width: 1.0;"/><text fill="#000000" font-family="sans-serif" font-size="11" lengthAdjust="spacingAndGlyphs" textLength="38" x="1427.5" y="318.8198">reset()</text><polygon fill="#4177AF" points="1418.5,324.4141,1414.5,330.4141,1422.5,330.4141" style="stroke: #1963A0; stroke-width: 1.0;"/><text fill="#000000" font-family="sans-serif" font-size="11" lengthAdjust="spacingAndGlyphs" textLength="36" x="1427.5" y="331.6245">write()</text><rect fill="#F24D5C" height="6" style="stroke: #C82930; stroke-width: 1.0;" width="6" x="1415.5" y="338.2188"/><text fill="#000000" font-family="sans-serif" font-size="11" lengthAdjust="spacingAndGlyphs" textLength="166" x="1427.5" y="344.4292">getToken(Coordinate): Token</text><polygon fill="#4177AF" points="1418.5,350.0234,1414.5,356.0234,1422.5,356.0234" style="stroke: #1963A0; stroke-width: 1.0;"/><text fill="#000000" font-family="sans-serif" font-size="11" lengthAdjust="spacingAndGlyphs" textLength="133" x="1427.5" y="357.2339">isCompleted(): boolean</text><polygon fill="#4177AF" points="1418.5,362.8281,1414.5,368.8281,1422.5,368.8281" style="stroke: #1963A0; stroke-width: 1.0;"/><text fill="#000000" font-family="sans-serif" font-size="11" lengthAdjust="spacingAndGlyphs" textLength="130" x="1427.5" y="370.0386">put(Coordinate, Token)</text><polygon fill="#4177AF" points="1418.5,375.6328,1414.5,381.6328,1422.5,381.6328" style="stroke: #1963A0; stroke-width: 1.0;"/><text fill="#000000" font-family="sans-serif" font-size="11" lengthAdjust="spacingAndGlyphs" textLength="172" x="1427.5" y="382.8433">move(Coordinate, Coordinate)</text><rect fill="#F24D5C" height="6" style="stroke: #C82930; stroke-width: 1.0;" width="6" x="1415.5" y="389.4375"/><text fill="#000000" font-family="sans-serif" font-size="11" lengthAdjust="spacingAndGlyphs" textLength="115" x="1427.5" y="395.6479">remove(Coordinate)</text><polygon fill="#4177AF" points="1418.5,401.2422,1414.5,407.2422,1422.5,407.2422" style="stroke: #1963A0; stroke-width: 1.0;"/><text fill="#000000" font-family="sans-serif" font-size="11" lengthAdjust="spacingAndGlyphs" textLength="227" x="1427.5" y="408.4526">isOccupied(Coordinate, Token): boolean</text><polygon fill="#4177AF" points="1418.5,414.0469,1414.5,420.0469,1422.5,420.0469" style="stroke: #1963A0; stroke-width: 1.0;"/><text fill="#000000" font-family="sans-serif" font-size="11" lengthAdjust="spacingAndGlyphs" textLength="168" x="1427.5" y="421.2573">isEmpty(Coordinate): boolean</text><polygon fill="#4177AF" points="1418.5,426.8516,1414.5,432.8516,1422.5,432.8516" style="stroke: #1963A0; stroke-width: 1.0;"/><text fill="#000000" font-family="sans-serif" font-size="11" lengthAdjust="spacingAndGlyphs" textLength="163" x="1427.5" y="434.062">isTicTacToe(Token): boolean</text><rect fill="#F24D5C" height="6" style="stroke: #C82930; stroke-width: 1.0;" width="6" x="1415.5" y="440.6563"/><text fill="#000000" font-family="sans-serif" font-size="11" lengthAdjust="spacingAndGlyphs" textLength="236" x="1427.5" y="446.8667">getCoordinates(Token): List&lt;Coordinate&gt;</text><!--MD5=[0990100d77444e20aa254ae593d623a1]
class usantatecla.tictactoe.Coordinate--><rect codeLine="18" fill="#FEFECE" filter="url(#f4plmap3ugejy)" height="188.8516" id="usantatecla.tictactoe.Coordinate" style="stroke: #A80036; stroke-width: 1.5;" width="319" x="559" y="519.5"/><ellipse cx="681.25" cy="535.5" fill="#ADD1B2" rx="11" ry="11" style="stroke: #A80036; stroke-width: 1.0;"/><path d="M683.5938,531.1719 C682.6563,530.7344 682.0625,530.5938 681.1875,530.5938 C678.5625,530.5938 676.5625,532.6719 676.5625,535.3906 L676.5625,536.5156 C676.5625,539.0938 678.6719,540.9844 681.5625,540.9844 C682.7813,540.9844 683.9375,540.6875 684.6875,540.1406 C685.2656,539.7344 685.5938,539.2813 685.5938,538.8906 C685.5938,538.4375 685.2031,538.0469 684.7344,538.0469 C684.5156,538.0469 684.3125,538.125 684.125,538.3125 C683.6719,538.7969 683.6719,538.7969 683.4844,538.8906 C683.0625,539.1563 682.375,539.2813 681.6094,539.2813 C679.5625,539.2813 678.2656,538.1875 678.2656,536.4844 L678.2656,535.3906 C678.2656,533.6094 679.5156,532.2969 681.25,532.2969 C681.8281,532.2969 682.4375,532.4531 682.9063,532.7031 C683.3906,532.9844 683.5625,533.2031 683.6563,533.6094 C683.7188,534.0156 683.75,534.1406 683.8906,534.2656 C684.0313,534.4063 684.2656,534.5156 684.4844,534.5156 C684.75,534.5156 685.0156,534.375 685.1875,534.1563 C685.2969,534 685.3281,533.8125 685.3281,533.3906 L685.3281,531.9688 C685.3281,531.5313 685.3125,531.4063 685.2188,531.25 C685.0625,530.9844 684.7813,530.8438 684.4844,530.8438 C684.1875,530.8438 683.9844,530.9375 683.7656,531.25 L683.5938,531.1719 Z "/><text fill="#000000" font-family="sans-serif" font-size="12" lengthAdjust="spacingAndGlyphs" textLength="66" x="701.75" y="539.6543">Coordinate</text><line style="stroke: #A80036; stroke-width: 1.5;" x1="560" x2="877" y1="551.5" y2="551.5"/><polygon fill="none" points="570,558.5,566,564.5,574,564.5" style="stroke: #1963A0; stroke-width: 1.0;"/><text fill="#000000" font-family="sans-serif" font-size="11" lengthAdjust="spacingAndGlyphs" text-decoration="underline" textLength="97" x="579" y="565.7104">NULL: Coordinate</text><polygon fill="none" points="570,571.3047,566,577.3047,574,577.3047" style="stroke: #1963A0; stroke-width: 1.0;"/><text fill="#000000" font-family="sans-serif" font-size="11" lengthAdjust="spacingAndGlyphs" text-decoration="underline" textLength="85" x="579" y="578.5151">DIMENSION: int</text><polygon fill="none" points="570,584.1094,566,590.1094,574,590.1094" style="stroke: #1963A0; stroke-width: 1.0;"/><text fill="#000000" font-family="sans-serif" font-size="11" lengthAdjust="spacingAndGlyphs" text-decoration="underline" textLength="125" x="579" y="591.3198">LIMITS: ClosedInterval</text><line style="stroke: #A80036; stroke-width: 1.5;" x1="560" x2="877" y1="597.9141" y2="597.9141"/><polygon fill="#4177AF" points="570,604.9141,566,610.9141,574,610.9141" style="stroke: #1963A0; stroke-width: 1.0;"/><text fill="#000000" font-family="sans-serif" font-size="11" lengthAdjust="spacingAndGlyphs" textLength="70" x="579" y="612.1245">Coordinate()</text><polygon fill="#4177AF" points="570,617.7188,566,623.7188,574,623.7188" style="stroke: #1963A0; stroke-width: 1.0;"/><text fill="#000000" font-family="sans-serif" font-size="11" lengthAdjust="spacingAndGlyphs" textLength="105" x="579" y="624.9292">Coordinate(int, int)</text><ellipse cx="570" cy="634.5234" fill="#84BE84" rx="3" ry="3" style="stroke: #038048; stroke-width: 1.0;"/><text fill="#000000" font-family="sans-serif" font-size="11" lengthAdjust="spacingAndGlyphs" textLength="91" x="579" y="637.7339">isNull(): boolean</text><ellipse cx="570" cy="647.3281" fill="#84BE84" rx="3" ry="3" style="stroke: #038048; stroke-width: 1.0;"/><text fill="#000000" font-family="sans-serif" font-size="11" lengthAdjust="spacingAndGlyphs" textLength="293" x="579" y="650.5386">getDirection(usantatecla.utils.Coordinate): Direction</text><ellipse cx="570" cy="660.1328" fill="#84BE84" rx="3" ry="3" style="stroke: #038048; stroke-width: 1.0;"/><text fill="#000000" font-family="sans-serif" font-size="11" lengthAdjust="spacingAndGlyphs" textLength="164" x="579" y="663.3433">inInverseDiagonal(): boolean</text><ellipse cx="570" cy="672.9375" fill="#84BE84" rx="3" ry="3" style="stroke: #038048; stroke-width: 1.0;"/><text fill="#000000" font-family="sans-serif" font-size="11" lengthAdjust="spacingAndGlyphs" textLength="67" x="579" y="676.1479">read(String)</text><ellipse cx="570" cy="685.7422" fill="#84BE84" rx="3" ry="3" style="stroke: #038048; stroke-width: 1.0;"/><text fill="#000000" font-family="sans-serif" font-size="11" lengthAdjust="spacingAndGlyphs" textLength="51" x="579" y="688.9526">random()</text><ellipse cx="570" cy="698.5469" fill="#84BE84" rx="3" ry="3" style="stroke: #038048; stroke-width: 1.0;"/><text fill="#000000" font-family="sans-serif" font-size="11" lengthAdjust="spacingAndGlyphs" textLength="136" x="579" y="701.7573">equals(Object): boolean</text><!--MD5=[8beb5b62c1db6d783dc0870514f68973]
class usantatecla.tictactoe.Error--><rect codeLine="32" fill="#FEFECE" filter="url(#f4plmap3ugejy)" height="163.2422" id="usantatecla.tictactoe.Error" style="stroke: #A80036; stroke-width: 1.5;" width="159" x="558" y="832.5"/><ellipse cx="618.25" cy="848.5" fill="#EB937F" rx="11" ry="11" style="stroke: #A80036; stroke-width: 1.0;"/><path d="M617.0469,849.375 L618.5,849.375 L618.5,849.4844 C618.5,849.8906 618.5313,850.0469 618.6094,850.2031 C618.7656,850.4531 619.0469,850.6094 619.3438,850.6094 C619.5938,850.6094 619.8594,850.4688 620.0156,850.25 C620.1406,850.0938 620.1719,849.9375 620.1719,849.4844 L620.1719,847.5625 C620.1719,847.4063 620.1719,847.3594 620.1563,847.2031 C620.0938,846.7344 619.7813,846.4219 619.3281,846.4219 C619.0781,846.4219 618.8125,846.5625 618.6406,846.7813 C618.5313,846.9531 618.5,847.1094 618.5,847.5625 L618.5,847.6875 L617.0469,847.6875 L617.0469,845.2813 L621.0313,845.2813 L621.0313,846.1406 C621.0313,846.5469 621.0625,846.7188 621.1406,846.875 C621.3125,847.125 621.5938,847.2813 621.875,847.2813 C622.1406,847.2813 622.4063,847.1406 622.5781,846.9219 C622.6875,846.75 622.7188,846.6094 622.7188,846.1406 L622.7188,843.5938 L615.0938,843.5938 C614.6563,843.5938 614.5313,843.6094 614.375,843.7031 C614.125,843.8594 613.9688,844.1563 613.9688,844.4375 C613.9688,844.7188 614.1094,844.9688 614.3281,845.1406 C614.4844,845.25 614.6719,845.2813 615.0938,845.2813 L615.3438,845.2813 L615.3438,851.7969 L615.0938,851.7969 C614.6875,851.7969 614.5313,851.8125 614.375,851.9219 C614.125,852.0938 613.9688,852.3594 613.9688,852.6563 C613.9688,852.9219 614.1094,853.1719 614.3281,853.3281 C614.4688,853.4531 614.7031,853.5 615.0938,853.5 L623.0938,853.5 L623.0938,850.9219 C623.0938,850.4844 623.0625,850.3438 622.9844,850.1875 C622.8125,849.9375 622.5313,849.7813 622.25,849.7813 C621.9844,849.7813 621.7188,849.8906 621.5469,850.1406 C621.4375,850.2969 621.4063,850.4375 621.4063,850.9219 L621.4063,851.7969 L617.0469,851.7969 L617.0469,849.375 Z "/><text fill="#000000" font-family="sans-serif" font-size="12" lengthAdjust="spacingAndGlyphs" textLength="30" x="638.75" y="852.6543">Error</text><line style="stroke: #A80036; stroke-width: 1.5;" x1="559" x2="716" y1="864.5" y2="864.5"/><ellipse cx="569" cy="875.5" fill="none" rx="3" ry="3" style="stroke: #038048; stroke-width: 1.0;"/><text fill="#000000" font-family="sans-serif" font-size="11" lengthAdjust="spacingAndGlyphs" textLength="66" x="578" y="878.7104">NOT_EMPTY</text><ellipse cx="569" cy="888.3047" fill="none" rx="3" ry="3" style="stroke: #038048; stroke-width: 1.0;"/><text fill="#000000" font-family="sans-serif" font-size="11" lengthAdjust="spacingAndGlyphs" textLength="72" x="578" y="891.5151">NOT_OWNER</text><ellipse cx="569" cy="901.1094" fill="none" rx="3" ry="3" style="stroke: #038048; stroke-width: 1.0;"/><text fill="#000000" font-family="sans-serif" font-size="11" lengthAdjust="spacingAndGlyphs" textLength="121" x="578" y="904.3198">SAME_COORDINATES</text><ellipse cx="569" cy="913.9141" fill="none" rx="3" ry="3" style="stroke: #038048; stroke-width: 1.0;"/><text fill="#000000" font-family="sans-serif" font-size="11" lengthAdjust="spacingAndGlyphs" textLength="133" x="578" y="917.1245">WRONG_COORDINATES</text><ellipse cx="569" cy="926.7188" fill="none" rx="3" ry="3" style="stroke: #038048; stroke-width: 1.0;"/><text fill="#000000" font-family="sans-serif" font-size="11" lengthAdjust="spacingAndGlyphs" textLength="28" x="578" y="929.9292">NULL</text><rect fill="none" height="6" style="stroke: #C82930; stroke-width: 1.0;" width="6" x="566" y="936.5234"/><text fill="#000000" font-family="sans-serif" font-size="11" lengthAdjust="spacingAndGlyphs" textLength="93" x="578" y="942.7339">message: String</text><line style="stroke: #A80036; stroke-width: 1.5;" x1="559" x2="716" y1="949.3281" y2="949.3281"/><polygon fill="#4177AF" points="569,956.3281,565,962.3281,573,962.3281" style="stroke: #1963A0; stroke-width: 1.0;"/><text fill="#000000" font-family="sans-serif" font-size="11" lengthAdjust="spacingAndGlyphs" textLength="34" x="578" y="963.5386">Error()</text><polygon fill="#4177AF" points="569,969.1328,565,975.1328,573,975.1328" style="stroke: #1963A0; stroke-width: 1.0;"/><text fill="#000000" font-family="sans-serif" font-size="11" lengthAdjust="spacingAndGlyphs" textLength="67" x="578" y="976.3433">Error(String)</text><polygon fill="#4177AF" points="569,981.9375,565,987.9375,573,987.9375" style="stroke: #1963A0; stroke-width: 1.0;"/><text fill="#000000" font-family="sans-serif" font-size="11" lengthAdjust="spacingAndGlyphs" textLength="46" x="578" y="989.1479">writeln()</text><!--MD5=[d5e6390f4df0bed23d8acd31ee6bd19d]
class usantatecla.tictactoe.MachinePlayer--><rect codeLine="45" fill="#FEFECE" filter="url(#f4plmap3ugejy)" height="73.6094" id="usantatecla.tictactoe.MachinePlayer" style="stroke: #A80036; stroke-width: 1.5;" width="235" x="1174" y="877"/><ellipse cx="1244.75" cy="893" fill="#ADD1B2" rx="11" ry="11" style="stroke: #A80036; stroke-width: 1.0;"/><path d="M1247.0938,888.6719 C1246.1563,888.2344 1245.5625,888.0938 1244.6875,888.0938 C1242.0625,888.0938 1240.0625,890.1719 1240.0625,892.8906 L1240.0625,894.0156 C1240.0625,896.5938 1242.1719,898.4844 1245.0625,898.4844 C1246.2813,898.4844 1247.4375,898.1875 1248.1875,897.6406 C1248.7656,897.2344 1249.0938,896.7813 1249.0938,896.3906 C1249.0938,895.9375 1248.7031,895.5469 1248.2344,895.5469 C1248.0156,895.5469 1247.8125,895.625 1247.625,895.8125 C1247.1719,896.2969 1247.1719,896.2969 1246.9844,896.3906 C1246.5625,896.6563 1245.875,896.7813 1245.1094,896.7813 C1243.0625,896.7813 1241.7656,895.6875 1241.7656,893.9844 L1241.7656,892.8906 C1241.7656,891.1094 1243.0156,889.7969 1244.75,889.7969 C1245.3281,889.7969 1245.9375,889.9531 1246.4063,890.2031 C1246.8906,890.4844 1247.0625,890.7031 1247.1563,891.1094 C1247.2188,891.5156 1247.25,891.6406 1247.3906,891.7656 C1247.5313,891.9063 1247.7656,892.0156 1247.9844,892.0156 C1248.25,892.0156 1248.5156,891.875 1248.6875,891.6563 C1248.7969,891.5 1248.8281,891.3125 1248.8281,890.8906 L1248.8281,889.4688 C1248.8281,889.0313 1248.8125,888.9063 1248.7188,888.75 C1248.5625,888.4844 1248.2813,888.3438 1247.9844,888.3438 C1247.6875,888.3438 1247.4844,888.4375 1247.2656,888.75 L1247.0938,888.6719 Z "/><text fill="#000000" font-family="sans-serif" font-size="12" lengthAdjust="spacingAndGlyphs" textLength="85" x="1265.25" y="897.1543">MachinePlayer</text><line style="stroke: #A80036; stroke-width: 1.5;" x1="1175" x2="1408" y1="909" y2="909"/><line style="stroke: #A80036; stroke-width: 1.5;" x1="1175" x2="1408" y1="917" y2="917"/><polygon fill="#4177AF" points="1185,924,1181,930,1189,930" style="stroke: #1963A0; stroke-width: 1.0;"/><text fill="#000000" font-family="sans-serif" font-size="11" lengthAdjust="spacingAndGlyphs" textLength="165" x="1194" y="931.2104">MachinePlayer(Token, Board)</text><polygon fill="#4177AF" points="1185,936.8047,1181,942.8047,1189,942.8047" style="stroke: #1963A0; stroke-width: 1.0;"/><text fill="#000000" font-family="sans-serif" font-size="11" lengthAdjust="spacingAndGlyphs" textLength="209" x="1194" y="944.0151">getCoordinate(Message): Coordinate</text><!--MD5=[ab82296a7d93ea792c7bfd4e9ca759e8]
class usantatecla.tictactoe.Message--><rect codeLine="50" fill="#FEFECE" filter="url(#f4plmap3ugejy)" height="278.4844" id="usantatecla.tictactoe.Message" style="stroke: #A80036; stroke-width: 1.5;" width="218" x="1596.5" y="775"/><ellipse cx="1673.75" cy="791" fill="#EB937F" rx="11" ry="11" style="stroke: #A80036; stroke-width: 1.0;"/><path d="M1672.5469,791.875 L1674,791.875 L1674,791.9844 C1674,792.3906 1674.0313,792.5469 1674.1094,792.7031 C1674.2656,792.9531 1674.5469,793.1094 1674.8438,793.1094 C1675.0938,793.1094 1675.3594,792.9688 1675.5156,792.75 C1675.6406,792.5938 1675.6719,792.4375 1675.6719,791.9844 L1675.6719,790.0625 C1675.6719,789.9063 1675.6719,789.8594 1675.6563,789.7031 C1675.5938,789.2344 1675.2813,788.9219 1674.8281,788.9219 C1674.5781,788.9219 1674.3125,789.0625 1674.1406,789.2813 C1674.0313,789.4531 1674,789.6094 1674,790.0625 L1674,790.1875 L1672.5469,790.1875 L1672.5469,787.7813 L1676.5313,787.7813 L1676.5313,788.6406 C1676.5313,789.0469 1676.5625,789.2188 1676.6406,789.375 C1676.8125,789.625 1677.0938,789.7813 1677.375,789.7813 C1677.6406,789.7813 1677.9063,789.6406 1678.0781,789.4219 C1678.1875,789.25 1678.2188,789.1094 1678.2188,788.6406 L1678.2188,786.0938 L1670.5938,786.0938 C1670.1563,786.0938 1670.0313,786.1094 1669.875,786.2031 C1669.625,786.3594 1669.4688,786.6563 1669.4688,786.9375 C1669.4688,787.2188 1669.6094,787.4688 1669.8281,787.6406 C1669.9844,787.75 1670.1719,787.7813 1670.5938,787.7813 L1670.8438,787.7813 L1670.8438,794.2969 L1670.5938,794.2969 C1670.1875,794.2969 1670.0313,794.3125 1669.875,794.4219 C1669.625,794.5938 1669.4688,794.8594 1669.4688,795.1563 C1669.4688,795.4219 1669.6094,795.6719 1669.8281,795.8281 C1669.9688,795.9531 1670.2031,796 1670.5938,796 L1678.5938,796 L1678.5938,793.4219 C1678.5938,792.9844 1678.5625,792.8438 1678.4844,792.6875 C1678.3125,792.4375 1678.0313,792.2813 1677.75,792.2813 C1677.4844,792.2813 1677.2188,792.3906 1677.0469,792.6406 C1676.9375,792.7969 1676.9063,792.9375 1676.9063,793.4219 L1676.9063,794.2969 L1672.5469,794.2969 L1672.5469,791.875 Z "/><text fill="#000000" font-family="sans-serif" font-size="12" lengthAdjust="spacingAndGlyphs" textLength="55" x="1694.25" y="795.1543">Message</text><line style="stroke: #A80036; stroke-width: 1.5;" x1="1597.5" x2="1813.5" y1="807" y2="807"/><ellipse cx="1607.5" cy="818" fill="none" rx="3" ry="3" style="stroke: #038048; stroke-width: 1.0;"/><text fill="#000000" font-family="sans-serif" font-size="11" lengthAdjust="spacingAndGlyphs" textLength="37" x="1616.5" y="821.2104">TITTLE</text><ellipse cx="1607.5" cy="830.8047" fill="none" rx="3" ry="3" style="stroke: #038048; stroke-width: 1.0;"/><text fill="#000000" font-family="sans-serif" font-size="11" lengthAdjust="spacingAndGlyphs" textLength="102" x="1616.5" y="834.0151">NUMBER_PLAYERS</text><ellipse cx="1607.5" cy="843.6094" fill="none" rx="3" ry="3" style="stroke: #038048; stroke-width: 1.0;"/><text fill="#000000" font-family="sans-serif" font-size="11" lengthAdjust="spacingAndGlyphs" textLength="67" x="1616.5" y="846.8198">SEPARATOR</text><ellipse cx="1607.5" cy="856.4141" fill="none" rx="3" ry="3" style="stroke: #038048; stroke-width: 1.0;"/><text fill="#000000" font-family="sans-serif" font-size="11" lengthAdjust="spacingAndGlyphs" textLength="116" x="1616.5" y="859.6245">VERTICAL_LINE_LEFT</text><ellipse cx="1607.5" cy="869.2188" fill="none" rx="3" ry="3" style="stroke: #038048; stroke-width: 1.0;"/><text fill="#000000" font-family="sans-serif" font-size="11" lengthAdjust="spacingAndGlyphs" textLength="150" x="1616.5" y="872.4292">VERTICAL_LINE_CENTERED</text><ellipse cx="1607.5" cy="882.0234" fill="none" rx="3" ry="3" style="stroke: #038048; stroke-width: 1.0;"/><text fill="#000000" font-family="sans-serif" font-size="11" lengthAdjust="spacingAndGlyphs" textLength="124" x="1616.5" y="885.2339">VERTICAL_LINE_RIGHT</text><ellipse cx="1607.5" cy="894.8281" fill="none" rx="3" ry="3" style="stroke: #038048; stroke-width: 1.0;"/><text fill="#000000" font-family="sans-serif" font-size="11" lengthAdjust="spacingAndGlyphs" textLength="166" x="1616.5" y="898.0386">ENTER_COORDINATE_TO_PUT</text><ellipse cx="1607.5" cy="907.6328" fill="none" rx="3" ry="3" style="stroke: #038048; stroke-width: 1.0;"/><text fill="#000000" font-family="sans-serif" font-size="11" lengthAdjust="spacingAndGlyphs" textLength="192" x="1616.5" y="910.8433">ENTER_COORDINATE_TO_REMOVE</text><ellipse cx="1607.5" cy="920.4375" fill="none" rx="3" ry="3" style="stroke: #038048; stroke-width: 1.0;"/><text fill="#000000" font-family="sans-serif" font-size="11" lengthAdjust="spacingAndGlyphs" textLength="124" x="1616.5" y="923.6479">COORDINATE_TO_PUT</text><ellipse cx="1607.5" cy="933.2422" fill="none" rx="3" ry="3" style="stroke: #038048; stroke-width: 1.0;"/><text fill="#000000" font-family="sans-serif" font-size="11" lengthAdjust="spacingAndGlyphs" textLength="150" x="1616.5" y="936.4526">COORDINATE_TO_REMOVE</text><ellipse cx="1607.5" cy="946.0469" fill="none" rx="3" ry="3" style="stroke: #038048; stroke-width: 1.0;"/><text fill="#000000" font-family="sans-serif" font-size="11" lengthAdjust="spacingAndGlyphs" textLength="136" x="1616.5" y="949.2573">COORDINATE_TO_MOVE</text><ellipse cx="1607.5" cy="958.8516" fill="none" rx="3" ry="3" style="stroke: #038048; stroke-width: 1.0;"/><text fill="#000000" font-family="sans-serif" font-size="11" lengthAdjust="spacingAndGlyphs" textLength="69" x="1616.5" y="962.062">PLAYER_WIN</text><ellipse cx="1607.5" cy="971.6563" fill="none" rx="3" ry="3" style="stroke: #038048; stroke-width: 1.0;"/><text fill="#000000" font-family="sans-serif" font-size="11" lengthAdjust="spacingAndGlyphs" textLength="46" x="1616.5" y="974.8667">RESUME</text><rect fill="none" height="6" style="stroke: #C82930; stroke-width: 1.0;" width="6" x="1604.5" y="981.4609"/><text fill="#000000" font-family="sans-serif" font-size="11" lengthAdjust="spacingAndGlyphs" textLength="93" x="1616.5" y="987.6714">message: String</text><line style="stroke: #A80036; stroke-width: 1.5;" x1="1597.5" x2="1813.5" y1="994.2656" y2="994.2656"/><rect fill="#F24D5C" height="6" style="stroke: #C82930; stroke-width: 1.0;" width="6" x="1604.5" y="1002.2656"/><text fill="#000000" font-family="sans-serif" font-size="11" lengthAdjust="spacingAndGlyphs" textLength="92" x="1616.5" y="1008.4761">Message(String)</text><polygon fill="#4177AF" points="1607.5,1014.0703,1603.5,1020.0703,1611.5,1020.0703" style="stroke: #1963A0; stroke-width: 1.0;"/><text fill="#000000" font-family="sans-serif" font-size="11" lengthAdjust="spacingAndGlyphs" textLength="36" x="1616.5" y="1021.2808">write()</text><polygon fill="#4177AF" points="1607.5,1026.875,1603.5,1032.875,1611.5,1032.875" style="stroke: #1963A0; stroke-width: 1.0;"/><text fill="#000000" font-family="sans-serif" font-size="11" lengthAdjust="spacingAndGlyphs" textLength="46" x="1616.5" y="1034.0854">writeln()</text><ellipse cx="1607.5" cy="1043.6797" fill="#84BE84" rx="3" ry="3" style="stroke: #038048; stroke-width: 1.0;"/><text fill="#000000" font-family="sans-serif" font-size="11" lengthAdjust="spacingAndGlyphs" textLength="92" x="1616.5" y="1046.8901">toString(): String</text><!--MD5=[b455952d252d0eefae6035326d3db921]
class usantatecla.tictactoe.Player--><rect codeLine="72" fill="#FEFECE" filter="url(#f4plmap3ugejy)" height="201.6563" id="usantatecla.tictactoe.Player" style="stroke: #A80036; stroke-width: 1.5;" width="387" x="1078" y="513"/><ellipse cx="1249.25" cy="529" fill="#A9DCDF" rx="11" ry="11" style="stroke: #A80036; stroke-width: 1.0;"/><path d="M1251.3281,530.8125 L1251.7188,531.7969 L1251.3281,531.7969 C1250.875,531.7969 1250.7656,531.8125 1250.6094,531.9219 C1250.3594,532.0781 1250.2031,532.3594 1250.2031,532.6563 C1250.2031,532.9219 1250.3438,533.1719 1250.5625,533.3281 C1250.7031,533.4531 1250.9063,533.5 1251.3281,533.5 L1253.6875,533.5 C1254.0469,533.5 1254.2656,533.4688 1254.4063,533.375 C1254.6563,533.2344 1254.8125,532.9375 1254.8125,532.6563 C1254.8125,532.375 1254.6719,532.125 1254.4531,531.9688 C1254.2813,531.8281 1254.125,531.7969 1253.6563,531.7969 L1250.2656,523.5938 L1246.5938,523.5938 C1246.1406,523.5938 1246.0156,523.6094 1245.8594,523.7031 C1245.6094,523.875 1245.4531,524.1563 1245.4531,524.4375 C1245.4531,524.7188 1245.5938,524.9688 1245.8125,525.1406 C1245.9844,525.25 1246.1563,525.2813 1246.5938,525.2813 L1247.6719,525.2813 L1245.0313,531.7969 C1244.6094,531.7969 1244.4531,531.8125 1244.2969,531.9219 C1244.0469,532.0781 1243.8906,532.3594 1243.8906,532.6563 C1243.8906,533.2188 1244.2656,533.5 1245.0156,533.5 L1247.2813,533.5 C1247.6406,533.5 1247.8594,533.4688 1247.9844,533.375 C1248.25,533.2344 1248.3906,532.9375 1248.3906,532.6563 C1248.3906,532.375 1248.2656,532.125 1248.0469,531.9531 C1247.875,531.8281 1247.7344,531.7969 1247.2813,531.7969 L1246.8906,531.7969 L1247.2813,530.8125 L1251.3281,530.8125 Z M1250.625,529.1094 L1247.9531,529.1094 L1249.2969,525.8438 L1250.625,529.1094 Z "/><text fill="#000000" font-family="sans-serif" font-size="12" font-style="italic" lengthAdjust="spacingAndGlyphs" textLength="36" x="1269.75" y="533.1543">Player</text><line style="stroke: #A80036; stroke-width: 1.5;" x1="1079" x2="1464" y1="545" y2="545"/><polygon fill="none" points="1089,552,1085,558,1093,558" style="stroke: #1963A0; stroke-width: 1.0;"/><text fill="#000000" font-family="sans-serif" font-size="11" lengthAdjust="spacingAndGlyphs" textLength="72" x="1098" y="559.2104">board: Board</text><polygon fill="none" points="1089,564.8047,1085,570.8047,1093,570.8047" style="stroke: #1963A0; stroke-width: 1.0;"/><text fill="#000000" font-family="sans-serif" font-size="11" lengthAdjust="spacingAndGlyphs" textLength="74" x="1098" y="572.0151">token: Token</text><line style="stroke: #A80036; stroke-width: 1.5;" x1="1079" x2="1464" y1="578.6094" y2="578.6094"/><polygon fill="#4177AF" points="1089,585.6094,1085,591.6094,1093,591.6094" style="stroke: #1963A0; stroke-width: 1.0;"/><text fill="#000000" font-family="sans-serif" font-size="11" lengthAdjust="spacingAndGlyphs" textLength="118" x="1098" y="592.8198">Player(Token, Board)</text><polygon fill="#4177AF" points="1089,598.4141,1085,604.4141,1093,604.4141" style="stroke: #1963A0; stroke-width: 1.0;"/><text fill="#000000" font-family="sans-serif" font-size="11" lengthAdjust="spacingAndGlyphs" textLength="32" x="1098" y="605.6245">play()</text><rect fill="#F24D5C" height="6" style="stroke: #C82930; stroke-width: 1.0;" width="6" x="1086" y="612.2188"/><text fill="#000000" font-family="sans-serif" font-size="11" lengthAdjust="spacingAndGlyphs" textLength="26" x="1098" y="618.4292">put()</text><polygon fill="#4177AF" points="1089,624.0234,1085,630.0234,1093,630.0234" style="stroke: #1963A0; stroke-width: 1.0;"/><text fill="#000000" font-family="sans-serif" font-size="11" lengthAdjust="spacingAndGlyphs" textLength="258" x="1098" y="631.2339">abstract getCoordinate(Message): Coordinate</text><polygon fill="#4177AF" points="1089,636.8281,1085,642.8281,1093,642.8281" style="stroke: #1963A0; stroke-width: 1.0;"/><text fill="#000000" font-family="sans-serif" font-size="11" lengthAdjust="spacingAndGlyphs" textLength="241" x="1098" y="644.0386">checkPutCoordinateError(Coordinate): Error</text><rect fill="#F24D5C" height="6" style="stroke: #C82930; stroke-width: 1.0;" width="6" x="1086" y="650.6328"/><text fill="#000000" font-family="sans-serif" font-size="11" lengthAdjust="spacingAndGlyphs" textLength="41" x="1098" y="656.8433">move()</text><polygon fill="#4177AF" points="1089,662.4375,1085,668.4375,1093,668.4375" style="stroke: #1963A0; stroke-width: 1.0;"/><text fill="#000000" font-family="sans-serif" font-size="11" lengthAdjust="spacingAndGlyphs" textLength="288" x="1098" y="669.6479">checkMoveOriginCoordinateError(Coordinate): Error</text><polygon fill="#4177AF" points="1089,675.2422,1085,681.2422,1093,681.2422" style="stroke: #1963A0; stroke-width: 1.0;"/><text fill="#000000" font-family="sans-serif" font-size="11" lengthAdjust="spacingAndGlyphs" textLength="361" x="1098" y="682.4526">checkMoveTargetCoordinateError(Coordinate, Coordinate): Error</text><polygon fill="#4177AF" points="1089,688.0469,1085,694.0469,1093,694.0469" style="stroke: #1963A0; stroke-width: 1.0;"/><text fill="#000000" font-family="sans-serif" font-size="11" lengthAdjust="spacingAndGlyphs" textLength="76" x="1098" y="695.2573">writeWinner()</text><polygon fill="#4177AF" points="1089,700.8516,1085,706.8516,1093,706.8516" style="stroke: #1963A0; stroke-width: 1.0;"/><text fill="#000000" font-family="sans-serif" font-size="11" lengthAdjust="spacingAndGlyphs" textLength="104" x="1098" y="708.062">getToken(): Token</text><!--MD5=[4b5d579ecc4748d1b21f2fd6d497d353]
class usantatecla.tictactoe.TicTacToe--><rect codeLine="87" fill="#FEFECE" filter="url(#f4plmap3ugejy)" height="137.6328" id="usantatecla.tictactoe.TicTacToe" style="stroke: #A80036; stroke-width: 1.5;" width="185" x="1529" y="41"/><ellipse cx="1586.75" cy="57" fill="#ADD1B2" rx="11" ry="11" style="stroke: #A80036; stroke-width: 1.0;"/><path d="M1589.0938,52.6719 C1588.1563,52.2344 1587.5625,52.0938 1586.6875,52.0938 C1584.0625,52.0938 1582.0625,54.1719 1582.0625,56.8906 L1582.0625,58.0156 C1582.0625,60.5938 1584.1719,62.4844 1587.0625,62.4844 C1588.2813,62.4844 1589.4375,62.1875 1590.1875,61.6406 C1590.7656,61.2344 1591.0938,60.7813 1591.0938,60.3906 C1591.0938,59.9375 1590.7031,59.5469 1590.2344,59.5469 C1590.0156,59.5469 1589.8125,59.625 1589.625,59.8125 C1589.1719,60.2969 1589.1719,60.2969 1588.9844,60.3906 C1588.5625,60.6563 1587.875,60.7813 1587.1094,60.7813 C1585.0625,60.7813 1583.7656,59.6875 1583.7656,57.9844 L1583.7656,56.8906 C1583.7656,55.1094 1585.0156,53.7969 1586.75,53.7969 C1587.3281,53.7969 1587.9375,53.9531 1588.4063,54.2031 C1588.8906,54.4844 1589.0625,54.7031 1589.1563,55.1094 C1589.2188,55.5156 1589.25,55.6406 1589.3906,55.7656 C1589.5313,55.9063 1589.7656,56.0156 1589.9844,56.0156 C1590.25,56.0156 1590.5156,55.875 1590.6875,55.6563 C1590.7969,55.5 1590.8281,55.3125 1590.8281,54.8906 L1590.8281,53.4688 C1590.8281,53.0313 1590.8125,52.9063 1590.7188,52.75 C1590.5625,52.4844 1590.2813,52.3438 1589.9844,52.3438 C1589.6875,52.3438 1589.4844,52.4375 1589.2656,52.75 L1589.0938,52.6719 Z "/><text fill="#000000" font-family="sans-serif" font-size="12" lengthAdjust="spacingAndGlyphs" textLength="61" x="1607.25" y="61.1543">TicTacToe</text><line style="stroke: #A80036; stroke-width: 1.5;" x1="1530" x2="1713" y1="73" y2="73"/><rect fill="none" height="6" style="stroke: #C82930; stroke-width: 1.0;" width="6" x="1537" y="81"/><text fill="#000000" font-family="sans-serif" font-size="11" lengthAdjust="spacingAndGlyphs" textLength="72" x="1549" y="87.2104">board: Board</text><rect fill="none" height="6" style="stroke: #C82930; stroke-width: 1.0;" width="6" x="1537" y="93.8047"/><text fill="#000000" font-family="sans-serif" font-size="11" lengthAdjust="spacingAndGlyphs" textLength="54" x="1549" y="100.0151">turn: Turn</text><line style="stroke: #A80036; stroke-width: 1.5;" x1="1530" x2="1713" y1="106.6094" y2="106.6094"/><polygon fill="#4177AF" points="1540,113.6094,1536,119.6094,1544,119.6094" style="stroke: #1963A0; stroke-width: 1.0;"/><text fill="#000000" font-family="sans-serif" font-size="11" lengthAdjust="spacingAndGlyphs" textLength="66" x="1549" y="120.8198">TicTacToe()</text><rect fill="#F24D5C" height="6" style="stroke: #C82930; stroke-width: 1.0;" width="6" x="1537" y="127.4141"/><text fill="#000000" font-family="sans-serif" font-size="11" lengthAdjust="spacingAndGlyphs" textLength="32" x="1549" y="133.6245">play()</text><rect fill="#F24D5C" height="6" style="stroke: #C82930; stroke-width: 1.0;" width="6" x="1537" y="140.2188"/><text fill="#000000" font-family="sans-serif" font-size="11" lengthAdjust="spacingAndGlyphs" textLength="67" x="1549" y="146.4292">playGame()</text><rect fill="#F24D5C" height="6" style="stroke: #C82930; stroke-width: 1.0;" width="6" x="1537" y="153.0234"/><text fill="#000000" font-family="sans-serif" font-size="11" lengthAdjust="spacingAndGlyphs" textLength="159" x="1549" y="159.2339">isResumedGame(): boolean</text><ellipse cx="1540" cy="168.8281" fill="#84BE84" rx="3" ry="3" style="stroke: #038048; stroke-width: 1.0;"/><text fill="#000000" font-family="sans-serif" font-size="11" lengthAdjust="spacingAndGlyphs" text-decoration="underline" textLength="77" x="1549" y="172.0386">main(String[])</text><!--MD5=[70d70054f98ac0881f23804484f4abda]
class usantatecla.tictactoe.Token--><rect codeLine="97" fill="#FEFECE" filter="url(#f4plmap3ugejy)" height="124.8281" id="usantatecla.tictactoe.Token" style="stroke: #A80036; stroke-width: 1.5;" width="117" x="1444" y="851.5"/><ellipse cx="1480.6" cy="867.5" fill="#EB937F" rx="11" ry="11" style="stroke: #A80036; stroke-width: 1.0;"/><path d="M1479.3969,868.375 L1480.85,868.375 L1480.85,868.4844 C1480.85,868.8906 1480.8813,869.0469 1480.9594,869.2031 C1481.1156,869.4531 1481.3969,869.6094 1481.6938,869.6094 C1481.9438,869.6094 1482.2094,869.4688 1482.3656,869.25 C1482.4906,869.0938 1482.5219,868.9375 1482.5219,868.4844 L1482.5219,866.5625 C1482.5219,866.4063 1482.5219,866.3594 1482.5063,866.2031 C1482.4438,865.7344 1482.1313,865.4219 1481.6781,865.4219 C1481.4281,865.4219 1481.1625,865.5625 1480.9906,865.7813 C1480.8813,865.9531 1480.85,866.1094 1480.85,866.5625 L1480.85,866.6875 L1479.3969,866.6875 L1479.3969,864.2813 L1483.3813,864.2813 L1483.3813,865.1406 C1483.3813,865.5469 1483.4125,865.7188 1483.4906,865.875 C1483.6625,866.125 1483.9438,866.2813 1484.225,866.2813 C1484.4906,866.2813 1484.7563,866.1406 1484.9281,865.9219 C1485.0375,865.75 1485.0688,865.6094 1485.0688,865.1406 L1485.0688,862.5938 L1477.4438,862.5938 C1477.0063,862.5938 1476.8813,862.6094 1476.725,862.7031 C1476.475,862.8594 1476.3188,863.1563 1476.3188,863.4375 C1476.3188,863.7188 1476.4594,863.9688 1476.6781,864.1406 C1476.8344,864.25 1477.0219,864.2813 1477.4438,864.2813 L1477.6938,864.2813 L1477.6938,870.7969 L1477.4438,870.7969 C1477.0375,870.7969 1476.8813,870.8125 1476.725,870.9219 C1476.475,871.0938 1476.3188,871.3594 1476.3188,871.6563 C1476.3188,871.9219 1476.4594,872.1719 1476.6781,872.3281 C1476.8188,872.4531 1477.0531,872.5 1477.4438,872.5 L1485.4438,872.5 L1485.4438,869.9219 C1485.4438,869.4844 1485.4125,869.3438 1485.3344,869.1875 C1485.1625,868.9375 1484.8813,868.7813 1484.6,868.7813 C1484.3344,868.7813 1484.0688,868.8906 1483.8969,869.1406 C1483.7875,869.2969 1483.7563,869.4375 1483.7563,869.9219 L1483.7563,870.7969 L1479.3969,870.7969 L1479.3969,868.375 Z "/><text fill="#000000" font-family="sans-serif" font-size="12" lengthAdjust="spacingAndGlyphs" textLength="37" x="1499.4" y="871.6543">Token</text><line style="stroke: #A80036; stroke-width: 1.5;" x1="1445" x2="1560" y1="883.5" y2="883.5"/><ellipse cx="1455" cy="894.5" fill="none" rx="3" ry="3" style="stroke: #038048; stroke-width: 1.0;"/><text fill="#000000" font-family="sans-serif" font-size="11" lengthAdjust="spacingAndGlyphs" textLength="52" x="1464" y="897.7104">X_TOKEN</text><ellipse cx="1455" cy="907.3047" fill="none" rx="3" ry="3" style="stroke: #038048; stroke-width: 1.0;"/><text fill="#000000" font-family="sans-serif" font-size="11" lengthAdjust="spacingAndGlyphs" textLength="51" x="1464" y="910.5151">Y_TOKEN</text><ellipse cx="1455" cy="920.1094" fill="none" rx="3" ry="3" style="stroke: #038048; stroke-width: 1.0;"/><text fill="#000000" font-family="sans-serif" font-size="11" lengthAdjust="spacingAndGlyphs" textLength="28" x="1464" y="923.3198">NULL</text><line style="stroke: #A80036; stroke-width: 1.5;" x1="1445" x2="1560" y1="929.9141" y2="929.9141"/><ellipse cx="1455" cy="940.9141" fill="#84BE84" rx="3" ry="3" style="stroke: #038048; stroke-width: 1.0;"/><text fill="#000000" font-family="sans-serif" font-size="11" lengthAdjust="spacingAndGlyphs" textLength="91" x="1464" y="944.1245">isNull(): boolean</text><polygon fill="#4177AF" points="1455,949.7188,1451,955.7188,1459,955.7188" style="stroke: #1963A0; stroke-width: 1.0;"/><text fill="#000000" font-family="sans-serif" font-size="11" lengthAdjust="spacingAndGlyphs" textLength="36" x="1464" y="956.9292">write()</text><polygon fill="#4177AF" points="1455,962.5234,1451,968.5234,1459,968.5234" style="stroke: #1963A0; stroke-width: 1.0;"/><text fill="#000000" font-family="sans-serif" font-size="11" lengthAdjust="spacingAndGlyphs" text-decoration="underline" textLength="83" x="1464" y="969.7339">get(int): Token</text><!--MD5=[89d1a2b514c7103883fb14486df62cac]
class usantatecla.tictactoe.Turn--><rect codeLine="106" fill="#FEFECE" filter="url(#f4plmap3ugejy)" height="150.4375" id="usantatecla.tictactoe.Turn" style="stroke: #A80036; stroke-width: 1.5;" width="149" x="1223" y="271"/><ellipse cx="1280.25" cy="287" fill="#ADD1B2" rx="11" ry="11" style="stroke: #A80036; stroke-width: 1.0;"/><path d="M1282.5938,282.6719 C1281.6563,282.2344 1281.0625,282.0938 1280.1875,282.0938 C1277.5625,282.0938 1275.5625,284.1719 1275.5625,286.8906 L1275.5625,288.0156 C1275.5625,290.5938 1277.6719,292.4844 1280.5625,292.4844 C1281.7813,292.4844 1282.9375,292.1875 1283.6875,291.6406 C1284.2656,291.2344 1284.5938,290.7813 1284.5938,290.3906 C1284.5938,289.9375 1284.2031,289.5469 1283.7344,289.5469 C1283.5156,289.5469 1283.3125,289.625 1283.125,289.8125 C1282.6719,290.2969 1282.6719,290.2969 1282.4844,290.3906 C1282.0625,290.6563 1281.375,290.7813 1280.6094,290.7813 C1278.5625,290.7813 1277.2656,289.6875 1277.2656,287.9844 L1277.2656,286.8906 C1277.2656,285.1094 1278.5156,283.7969 1280.25,283.7969 C1280.8281,283.7969 1281.4375,283.9531 1281.9063,284.2031 C1282.3906,284.4844 1282.5625,284.7031 1282.6563,285.1094 C1282.7188,285.5156 1282.75,285.6406 1282.8906,285.7656 C1283.0313,285.9063 1283.2656,286.0156 1283.4844,286.0156 C1283.75,286.0156 1284.0156,285.875 1284.1875,285.6563 C1284.2969,285.5 1284.3281,285.3125 1284.3281,284.8906 L1284.3281,283.4688 C1284.3281,283.0313 1284.3125,282.9063 1284.2188,282.75 C1284.0625,282.4844 1283.7813,282.3438 1283.4844,282.3438 C1283.1875,282.3438 1282.9844,282.4375 1282.7656,282.75 L1282.5938,282.6719 Z "/><text fill="#000000" font-family="sans-serif" font-size="12" lengthAdjust="spacingAndGlyphs" textLength="26" x="1300.75" y="291.1543">Turn</text><line style="stroke: #A80036; stroke-width: 1.5;" x1="1224" x2="1371" y1="303" y2="303"/><polygon fill="none" points="1234,310,1230,316,1238,316" style="stroke: #1963A0; stroke-width: 1.0;"/><text fill="#000000" font-family="sans-serif" font-size="11" lengthAdjust="spacingAndGlyphs" text-decoration="underline" textLength="123" x="1243" y="317.2104">NUMBER_PLAYERS: int</text><rect fill="none" height="6" style="stroke: #C82930; stroke-width: 1.0;" width="6" x="1231" y="323.8047"/><text fill="#000000" font-family="sans-serif" font-size="11" lengthAdjust="spacingAndGlyphs" textLength="92" x="1243" y="330.0151">players: Player[]</text><rect fill="none" height="6" style="stroke: #C82930; stroke-width: 1.0;" width="6" x="1231" y="336.6094"/><text fill="#000000" font-family="sans-serif" font-size="11" lengthAdjust="spacingAndGlyphs" textLength="56" x="1243" y="342.8198">active: int</text><line style="stroke: #A80036; stroke-width: 1.5;" x1="1224" x2="1371" y1="349.4141" y2="349.4141"/><polygon fill="#4177AF" points="1234,356.4141,1230,362.4141,1238,362.4141" style="stroke: #1963A0; stroke-width: 1.0;"/><text fill="#000000" font-family="sans-serif" font-size="11" lengthAdjust="spacingAndGlyphs" textLength="66" x="1243" y="363.6245">Turn(Board)</text><polygon fill="#4177AF" points="1234,369.2188,1230,375.2188,1238,375.2188" style="stroke: #1963A0; stroke-width: 1.0;"/><text fill="#000000" font-family="sans-serif" font-size="11" lengthAdjust="spacingAndGlyphs" textLength="32" x="1243" y="376.4292">play()</text><rect fill="#F24D5C" height="6" style="stroke: #C82930; stroke-width: 1.0;" width="6" x="1231" y="383.0234"/><text fill="#000000" font-family="sans-serif" font-size="11" lengthAdjust="spacingAndGlyphs" textLength="104" x="1243" y="389.2339">getPlayer(): Player</text><polygon fill="#4177AF" points="1234,394.8281,1230,400.8281,1238,400.8281" style="stroke: #1963A0; stroke-width: 1.0;"/><text fill="#000000" font-family="sans-serif" font-size="11" lengthAdjust="spacingAndGlyphs" textLength="76" x="1243" y="402.0386">writeWinner()</text><polygon fill="#4177AF" points="1234,407.6328,1230,413.6328,1238,413.6328" style="stroke: #1963A0; stroke-width: 1.0;"/><text fill="#000000" font-family="sans-serif" font-size="11" lengthAdjust="spacingAndGlyphs" textLength="104" x="1243" y="414.8433">getToken(): Token</text><!--MD5=[d6372c72e2ccc5ff253d254b6fe719ff]
class usantatecla.tictactoe.UserPlayer--><rect codeLine="117" fill="#FEFECE" filter="url(#f4plmap3ugejy)" height="112.0234" id="usantatecla.tictactoe.UserPlayer" style="stroke: #A80036; stroke-width: 1.5;" width="387" x="752" y="858"/><ellipse cx="908.75" cy="874" fill="#ADD1B2" rx="11" ry="11" style="stroke: #A80036; stroke-width: 1.0;"/><path d="M911.0938,869.6719 C910.1563,869.2344 909.5625,869.0938 908.6875,869.0938 C906.0625,869.0938 904.0625,871.1719 904.0625,873.8906 L904.0625,875.0156 C904.0625,877.5938 906.1719,879.4844 909.0625,879.4844 C910.2813,879.4844 911.4375,879.1875 912.1875,878.6406 C912.7656,878.2344 913.0938,877.7813 913.0938,877.3906 C913.0938,876.9375 912.7031,876.5469 912.2344,876.5469 C912.0156,876.5469 911.8125,876.625 911.625,876.8125 C911.1719,877.2969 911.1719,877.2969 910.9844,877.3906 C910.5625,877.6563 909.875,877.7813 909.1094,877.7813 C907.0625,877.7813 905.7656,876.6875 905.7656,874.9844 L905.7656,873.8906 C905.7656,872.1094 907.0156,870.7969 908.75,870.7969 C909.3281,870.7969 909.9375,870.9531 910.4063,871.2031 C910.8906,871.4844 911.0625,871.7031 911.1563,872.1094 C911.2188,872.5156 911.25,872.6406 911.3906,872.7656 C911.5313,872.9063 911.7656,873.0156 911.9844,873.0156 C912.25,873.0156 912.5156,872.875 912.6875,872.6563 C912.7969,872.5 912.8281,872.3125 912.8281,871.8906 L912.8281,870.4688 C912.8281,870.0313 912.8125,869.9063 912.7188,869.75 C912.5625,869.4844 912.2813,869.3438 911.9844,869.3438 C911.6875,869.3438 911.4844,869.4375 911.2656,869.75 L911.0938,869.6719 Z "/><text fill="#000000" font-family="sans-serif" font-size="12" lengthAdjust="spacingAndGlyphs" textLength="65" x="929.25" y="878.1543">UserPlayer</text><line style="stroke: #A80036; stroke-width: 1.5;" x1="753" x2="1138" y1="890" y2="890"/><line style="stroke: #A80036; stroke-width: 1.5;" x1="753" x2="1138" y1="898" y2="898"/><polygon fill="#4177AF" points="763,905,759,911,767,911" style="stroke: #1963A0; stroke-width: 1.0;"/><text fill="#000000" font-family="sans-serif" font-size="11" lengthAdjust="spacingAndGlyphs" textLength="144" x="772" y="912.2104">UserPlayer(Token, Board)</text><polygon fill="#4177AF" points="763,917.8047,759,923.8047,767,923.8047" style="stroke: #1963A0; stroke-width: 1.0;"/><text fill="#000000" font-family="sans-serif" font-size="11" lengthAdjust="spacingAndGlyphs" textLength="266" x="772" y="925.0151">getCoordinate(Message message): Coordinate</text><polygon fill="#4177AF" points="763,930.6094,759,936.6094,767,936.6094" style="stroke: #1963A0; stroke-width: 1.0;"/><text fill="#000000" font-family="sans-serif" font-size="11" lengthAdjust="spacingAndGlyphs" textLength="241" x="772" y="937.8198">checkPutCoordinateError(Coordinate): Error</text><polygon fill="#4177AF" points="763,943.4141,759,949.4141,767,949.4141" style="stroke: #1963A0; stroke-width: 1.0;"/><text fill="#000000" font-family="sans-serif" font-size="11" lengthAdjust="spacingAndGlyphs" textLength="288" x="772" y="950.6245">checkMoveOriginCoordinateError(Coordinate): Error</text><polygon fill="#4177AF" points="763,956.2188,759,962.2188,767,962.2188" style="stroke: #1963A0; stroke-width: 1.0;"/><text fill="#000000" font-family="sans-serif" font-size="11" lengthAdjust="spacingAndGlyphs" textLength="361" x="772" y="963.4292">checkMoveTargetCoordinateError(Coordinate, Coordinate): Error</text><!--MD5=[4ac948797cb0d646e058fac8f0726737]
class ConcreteCoordinate--><rect codeLine="143" fill="#FEFECE" filter="url(#f4plmap3ugejy)" height="48" id="ConcreteCoordinate" style="stroke: #A80036; stroke-width: 1.5;" width="251" x="1847" y="322"/><ellipse cx="1862" cy="338" fill="#ADD1B2" rx="11" ry="11" style="stroke: #A80036; stroke-width: 1.0;"/><path d="M1864.3438,333.6719 C1863.4063,333.2344 1862.8125,333.0938 1861.9375,333.0938 C1859.3125,333.0938 1857.3125,335.1719 1857.3125,337.8906 L1857.3125,339.0156 C1857.3125,341.5938 1859.4219,343.4844 1862.3125,343.4844 C1863.5313,343.4844 1864.6875,343.1875 1865.4375,342.6406 C1866.0156,342.2344 1866.3438,341.7813 1866.3438,341.3906 C1866.3438,340.9375 1865.9531,340.5469 1865.4844,340.5469 C1865.2656,340.5469 1865.0625,340.625 1864.875,340.8125 C1864.4219,341.2969 1864.4219,341.2969 1864.2344,341.3906 C1863.8125,341.6563 1863.125,341.7813 1862.3594,341.7813 C1860.3125,341.7813 1859.0156,340.6875 1859.0156,338.9844 L1859.0156,337.8906 C1859.0156,336.1094 1860.2656,334.7969 1862,334.7969 C1862.5781,334.7969 1863.1875,334.9531 1863.6563,335.2031 C1864.1406,335.4844 1864.3125,335.7031 1864.4063,336.1094 C1864.4688,336.5156 1864.5,336.6406 1864.6406,336.7656 C1864.7813,336.9063 1865.0156,337.0156 1865.2344,337.0156 C1865.5,337.0156 1865.7656,336.875 1865.9375,336.6563 C1866.0469,336.5 1866.0781,336.3125 1866.0781,335.8906 L1866.0781,334.4688 C1866.0781,334.0313 1866.0625,333.9063 1865.9688,333.75 C1865.8125,333.4844 1865.5313,333.3438 1865.2344,333.3438 C1864.9375,333.3438 1864.7344,333.4375 1864.5156,333.75 L1864.3438,333.6719 Z "/><text fill="#000000" font-family="sans-serif" font-size="12" lengthAdjust="spacingAndGlyphs" textLength="219" x="1876" y="342.1543">usantatecla.utils.ConcreteCoordinate</text><line style="stroke: #A80036; stroke-width: 1.5;" x1="1848" x2="2097" y1="354" y2="354"/><line style="stroke: #A80036; stroke-width: 1.5;" x1="1848" x2="2097" y1="362" y2="362"/><!--MD5=[f0e50675208408ddbf1ed7a91f4eb071]
class ClosedInterval--><rect codeLine="147" fill="#FEFECE" filter="url(#f4plmap3ugejy)" height="48" id="ClosedInterval" style="stroke: #A80036; stroke-width: 1.5;" width="216" x="396.5" y="1113"/><ellipse cx="411.5" cy="1129" fill="#ADD1B2" rx="11" ry="11" style="stroke: #A80036; stroke-width: 1.0;"/><path d="M413.8438,1124.6719 C412.9063,1124.2344 412.3125,1124.0938 411.4375,1124.0938 C408.8125,1124.0938 406.8125,1126.1719 406.8125,1128.8906 L406.8125,1130.0156 C406.8125,1132.5938 408.9219,1134.4844 411.8125,1134.4844 C413.0313,1134.4844 414.1875,1134.1875 414.9375,1133.6406 C415.5156,1133.2344 415.8438,1132.7813 415.8438,1132.3906 C415.8438,1131.9375 415.4531,1131.5469 414.9844,1131.5469 C414.7656,1131.5469 414.5625,1131.625 414.375,1131.8125 C413.9219,1132.2969 413.9219,1132.2969 413.7344,1132.3906 C413.3125,1132.6563 412.625,1132.7813 411.8594,1132.7813 C409.8125,1132.7813 408.5156,1131.6875 408.5156,1129.9844 L408.5156,1128.8906 C408.5156,1127.1094 409.7656,1125.7969 411.5,1125.7969 C412.0781,1125.7969 412.6875,1125.9531 413.1563,1126.2031 C413.6406,1126.4844 413.8125,1126.7031 413.9063,1127.1094 C413.9688,1127.5156 414,1127.6406 414.1406,1127.7656 C414.2813,1127.9063 414.5156,1128.0156 414.7344,1128.0156 C415,1128.0156 415.2656,1127.875 415.4375,1127.6563 C415.5469,1127.5 415.5781,1127.3125 415.5781,1126.8906 L415.5781,1125.4688 C415.5781,1125.0313 415.5625,1124.9063 415.4688,1124.75 C415.3125,1124.4844 415.0313,1124.3438 414.7344,1124.3438 C414.4375,1124.3438 414.2344,1124.4375 414.0156,1124.75 L413.8438,1124.6719 Z "/><text fill="#000000" font-family="sans-serif" font-size="12" lengthAdjust="spacingAndGlyphs" textLength="184" x="425.5" y="1133.1543">usantatecla.utils.ClosedInterval</text><line style="stroke: #A80036; stroke-width: 1.5;" x1="397.5" x2="611.5" y1="1145" y2="1145"/><line style="stroke: #A80036; stroke-width: 1.5;" x1="397.5" x2="611.5" y1="1153" y2="1153"/><!--MD5=[315b61b427ec618d6861d47eee00cca3]
class Console--><rect codeLine="151" fill="#FEFECE" filter="url(#f4plmap3ugejy)" height="48" id="Console" style="stroke: #A80036; stroke-width: 1.5;" width="179" x="1514" y="1113"/><ellipse cx="1529" cy="1129" fill="#ADD1B2" rx="11" ry="11" style="stroke: #A80036; stroke-width: 1.0;"/><path d="M1531.3438,1124.6719 C1530.4063,1124.2344 1529.8125,1124.0938 1528.9375,1124.0938 C1526.3125,1124.0938 1524.3125,1126.1719 1524.3125,1128.8906 L1524.3125,1130.0156 C1524.3125,1132.5938 1526.4219,1134.4844 1529.3125,1134.4844 C1530.5313,1134.4844 1531.6875,1134.1875 1532.4375,1133.6406 C1533.0156,1133.2344 1533.3438,1132.7813 1533.3438,1132.3906 C1533.3438,1131.9375 1532.9531,1131.5469 1532.4844,1131.5469 C1532.2656,1131.5469 1532.0625,1131.625 1531.875,1131.8125 C1531.4219,1132.2969 1531.4219,1132.2969 1531.2344,1132.3906 C1530.8125,1132.6563 1530.125,1132.7813 1529.3594,1132.7813 C1527.3125,1132.7813 1526.0156,1131.6875 1526.0156,1129.9844 L1526.0156,1128.8906 C1526.0156,1127.1094 1527.2656,1125.7969 1529,1125.7969 C1529.5781,1125.7969 1530.1875,1125.9531 1530.6563,1126.2031 C1531.1406,1126.4844 1531.3125,1126.7031 1531.4063,1127.1094 C1531.4688,1127.5156 1531.5,1127.6406 1531.6406,1127.7656 C1531.7813,1127.9063 1532.0156,1128.0156 1532.2344,1128.0156 C1532.5,1128.0156 1532.7656,1127.875 1532.9375,1127.6563 C1533.0469,1127.5 1533.0781,1127.3125 1533.0781,1126.8906 L1533.0781,1125.4688 C1533.0781,1125.0313 1533.0625,1124.9063 1532.9688,1124.75 C1532.8125,1124.4844 1532.5313,1124.3438 1532.2344,1124.3438 C1531.9375,1124.3438 1531.7344,1124.4375 1531.5156,1124.75 L1531.3438,1124.6719 Z "/><text fill="#000000" font-family="sans-serif" font-size="12" lengthAdjust="spacingAndGlyphs" textLength="147" x="1543" y="1133.1543">usantatecla.utils.Console</text><line style="stroke: #A80036; stroke-width: 1.5;" x1="1515" x2="1692" y1="1145" y2="1145"/><line style="stroke: #A80036; stroke-width: 1.5;" x1="1515" x2="1692" y1="1153" y2="1153"/><!--MD5=[58767b3ac92ed88fc68bd4b9dc66dad3]
class LimitedIntDialog--><rect codeLine="155" fill="#FEFECE" filter="url(#f4plmap3ugejy)" height="48" id="LimitedIntDialog" style="stroke: #A80036; stroke-width: 1.5;" width="225" x="7" y="890"/><ellipse cx="22" cy="906" fill="#ADD1B2" rx="11" ry="11" style="stroke: #A80036; stroke-width: 1.0;"/><path d="M24.3438,901.6719 C23.4063,901.2344 22.8125,901.0938 21.9375,901.0938 C19.3125,901.0938 17.3125,903.1719 17.3125,905.8906 L17.3125,907.0156 C17.3125,909.5938 19.4219,911.4844 22.3125,911.4844 C23.5313,911.4844 24.6875,911.1875 25.4375,910.6406 C26.0156,910.2344 26.3438,909.7813 26.3438,909.3906 C26.3438,908.9375 25.9531,908.5469 25.4844,908.5469 C25.2656,908.5469 25.0625,908.625 24.875,908.8125 C24.4219,909.2969 24.4219,909.2969 24.2344,909.3906 C23.8125,909.6563 23.125,909.7813 22.3594,909.7813 C20.3125,909.7813 19.0156,908.6875 19.0156,906.9844 L19.0156,905.8906 C19.0156,904.1094 20.2656,902.7969 22,902.7969 C22.5781,902.7969 23.1875,902.9531 23.6563,903.2031 C24.1406,903.4844 24.3125,903.7031 24.4063,904.1094 C24.4688,904.5156 24.5,904.6406 24.6406,904.7656 C24.7813,904.9063 25.0156,905.0156 25.2344,905.0156 C25.5,905.0156 25.7656,904.875 25.9375,904.6563 C26.0469,904.5 26.0781,904.3125 26.0781,903.8906 L26.0781,902.4688 C26.0781,902.0313 26.0625,901.9063 25.9688,901.75 C25.8125,901.4844 25.5313,901.3438 25.2344,901.3438 C24.9375,901.3438 24.7344,901.4375 24.5156,901.75 L24.3438,901.6719 Z "/><text fill="#000000" font-family="sans-serif" font-size="12" lengthAdjust="spacingAndGlyphs" textLength="193" x="36" y="910.1543">usantatecla.utils.LimitedIntDialog</text><line style="stroke: #A80036; stroke-width: 1.5;" x1="8" x2="231" y1="922" y2="922"/><line style="stroke: #A80036; stroke-width: 1.5;" x1="8" x2="231" y1="930" y2="930"/><!--MD5=[d93cf99d2b92276f27fe8dbf15140505]
class YesNoDialog--><rect codeLine="159" fill="#FEFECE" filter="url(#f4plmap3ugejy)" height="48" id="YesNoDialog" style="stroke: #A80036; stroke-width: 1.5;" width="206" x="2133.5" y="322"/><ellipse cx="2148.5" cy="338" fill="#ADD1B2" rx="11" ry="11" style="stroke: #A80036; stroke-width: 1.0;"/><path d="M2150.8438,333.6719 C2149.9063,333.2344 2149.3125,333.0938 2148.4375,333.0938 C2145.8125,333.0938 2143.8125,335.1719 2143.8125,337.8906 L2143.8125,339.0156 C2143.8125,341.5938 2145.9219,343.4844 2148.8125,343.4844 C2150.0313,343.4844 2151.1875,343.1875 2151.9375,342.6406 C2152.5156,342.2344 2152.8438,341.7813 2152.8438,341.3906 C2152.8438,340.9375 2152.4531,340.5469 2151.9844,340.5469 C2151.7656,340.5469 2151.5625,340.625 2151.375,340.8125 C2150.9219,341.2969 2150.9219,341.2969 2150.7344,341.3906 C2150.3125,341.6563 2149.625,341.7813 2148.8594,341.7813 C2146.8125,341.7813 2145.5156,340.6875 2145.5156,338.9844 L2145.5156,337.8906 C2145.5156,336.1094 2146.7656,334.7969 2148.5,334.7969 C2149.0781,334.7969 2149.6875,334.9531 2150.1563,335.2031 C2150.6406,335.4844 2150.8125,335.7031 2150.9063,336.1094 C2150.9688,336.5156 2151,336.6406 2151.1406,336.7656 C2151.2813,336.9063 2151.5156,337.0156 2151.7344,337.0156 C2152,337.0156 2152.2656,336.875 2152.4375,336.6563 C2152.5469,336.5 2152.5781,336.3125 2152.5781,335.8906 L2152.5781,334.4688 C2152.5781,334.0313 2152.5625,333.9063 2152.4688,333.75 C2152.3125,333.4844 2152.0313,333.3438 2151.7344,333.3438 C2151.4375,333.3438 2151.2344,333.4375 2151.0156,333.75 L2150.8438,333.6719 Z "/><text fill="#000000" font-family="sans-serif" font-size="12" lengthAdjust="spacingAndGlyphs" textLength="174" x="2162.5" y="342.1543">usantatecla.utils.YesNoDialog</text><line style="stroke: #A80036; stroke-width: 1.5;" x1="2134.5" x2="2338.5" y1="354" y2="354"/><line style="stroke: #A80036; stroke-width: 1.5;" x1="2134.5" x2="2338.5" y1="362" y2="362"/><!--MD5=[02f7077ed79257124e28b791f351f1d7]
class Direction--><rect codeLine="163" fill="#FEFECE" filter="url(#f4plmap3ugejy)" height="48" id="Direction" style="stroke: #A80036; stroke-width: 1.5;" width="184" x="267.5" y="890"/><ellipse cx="282.5" cy="906" fill="#EB937F" rx="11" ry="11" style="stroke: #A80036; stroke-width: 1.0;"/><path d="M281.2969,906.875 L282.75,906.875 L282.75,906.9844 C282.75,907.3906 282.7813,907.5469 282.8594,907.7031 C283.0156,907.9531 283.2969,908.1094 283.5938,908.1094 C283.8438,908.1094 284.1094,907.9688 284.2656,907.75 C284.3906,907.5938 284.4219,907.4375 284.4219,906.9844 L284.4219,905.0625 C284.4219,904.9063 284.4219,904.8594 284.4063,904.7031 C284.3438,904.2344 284.0313,903.9219 283.5781,903.9219 C283.3281,903.9219 283.0625,904.0625 282.8906,904.2813 C282.7813,904.4531 282.75,904.6094 282.75,905.0625 L282.75,905.1875 L281.2969,905.1875 L281.2969,902.7813 L285.2813,902.7813 L285.2813,903.6406 C285.2813,904.0469 285.3125,904.2188 285.3906,904.375 C285.5625,904.625 285.8438,904.7813 286.125,904.7813 C286.3906,904.7813 286.6563,904.6406 286.8281,904.4219 C286.9375,904.25 286.9688,904.1094 286.9688,903.6406 L286.9688,901.0938 L279.3438,901.0938 C278.9063,901.0938 278.7813,901.1094 278.625,901.2031 C278.375,901.3594 278.2188,901.6563 278.2188,901.9375 C278.2188,902.2188 278.3594,902.4688 278.5781,902.6406 C278.7344,902.75 278.9219,902.7813 279.3438,902.7813 L279.5938,902.7813 L279.5938,909.2969 L279.3438,909.2969 C278.9375,909.2969 278.7813,909.3125 278.625,909.4219 C278.375,909.5938 278.2188,909.8594 278.2188,910.1563 C278.2188,910.4219 278.3594,910.6719 278.5781,910.8281 C278.7188,910.9531 278.9531,911 279.3438,911 L287.3438,911 L287.3438,908.4219 C287.3438,907.9844 287.3125,907.8438 287.2344,907.6875 C287.0625,907.4375 286.7813,907.2813 286.5,907.2813 C286.2344,907.2813 285.9688,907.3906 285.7969,907.6406 C285.6875,907.7969 285.6563,907.9375 285.6563,908.4219 L285.6563,909.2969 L281.2969,909.2969 L281.2969,906.875 Z "/><text fill="#000000" font-family="sans-serif" font-size="12" lengthAdjust="spacingAndGlyphs" textLength="152" x="296.5" y="910.1543">usantatecla.utils.Direction</text><line style="stroke: #A80036; stroke-width: 1.5;" x1="268.5" x2="450.5" y1="922" y2="922"/><line style="stroke: #A80036; stroke-width: 1.5;" x1="268.5" x2="450.5" y1="930" y2="930"/><!--MD5=[8c7d7abc12e214c3cc12c9ab70edee11]
class Coordinate--><rect codeLine="167" fill="#FEFECE" filter="url(#f4plmap3ugejy)" height="48" id="Coordinate" style="stroke: #A80036; stroke-width: 1.5;" width="200" x="323.5" y="590"/><ellipse cx="338.5" cy="606" fill="#B4A7E5" rx="11" ry="11" style="stroke: #A80036; stroke-width: 1.0;"/><path d="M339.4531,602.7813 L341.1719,602.7813 C341.5625,602.7813 341.75,602.75 341.875,602.6719 C342.1406,602.5156 342.2813,602.2344 342.2813,601.9375 C342.2813,601.6719 342.1719,601.4063 341.9375,601.2344 C341.7656,601.125 341.625,601.0938 341.1719,601.0938 L336.0313,601.0938 C335.5938,601.0938 335.4688,601.1094 335.3125,601.2031 C335.0625,601.3594 334.9063,601.6563 334.9063,601.9375 C334.9063,602.2188 335.0469,602.4688 335.2656,602.6406 C335.4219,602.75 335.6094,602.7813 336.0313,602.7813 L337.75,602.7813 L337.75,609.2969 L336.0313,609.2969 C335.5938,609.2969 335.4688,609.3125 335.3125,609.4219 C335.0625,609.5781 334.9063,609.8594 334.9063,610.1563 C334.9063,610.4063 335.0469,610.6719 335.2656,610.8281 C335.4219,610.9531 335.625,611 336.0313,611 L341.1719,611 C341.9219,611 342.2813,610.7188 342.2813,610.1563 C342.2813,609.875 342.1719,609.625 341.9375,609.4531 C341.7656,609.3281 341.625,609.2969 341.1719,609.2969 L339.4531,609.2969 L339.4531,602.7813 Z "/><text fill="#000000" font-family="sans-serif" font-size="12" font-style="italic" lengthAdjust="spacingAndGlyphs" textLength="168" x="352.5" y="610.1543">usantatecla.utils.Coordinate</text><line style="stroke: #A80036; stroke-width: 1.5;" x1="324.5" x2="522.5" y1="622" y2="622"/><line style="stroke: #A80036; stroke-width: 1.5;" x1="324.5" x2="522.5" y1="630" y2="630"/><!--MD5=[9054d1d596f71892773aeee04ca59ea9]
reverse link usantatecla.tictactoe.Player to usantatecla.tictactoe.UserPlayer--><path d="M1147.17,728.649 C1098.7,772.958 1045.39,821.693 1005.754,857.922 " fill="none" id="usantatecla.tictactoe.Player-backto-usantatecla.tictactoe.UserPlayer" style="stroke: #A80036; stroke-width: 1.0;"/><polygon fill="none" points="1142.56,723.386,1162.04,715.059,1152,733.719,1142.56,723.386" style="stroke: #A80036; stroke-width: 1.0;"/><!--MD5=[f55dc4ca1029546e2cc70a6003711be1]
link usantatecla.tictactoe.TicTacToe to usantatecla.tictactoe.Board--><path codeLine="125" d="M1593.2559,190.6207 C1593.2559,190.6207 1584.79,214.507 1580.66,226.131 " fill="none" id="usantatecla.tictactoe.TicTacToe-usantatecla.tictactoe.Board" style="stroke: #A80036; stroke-width: 1.0;"/><polygon fill="#A80036" points="1576.19,238.733,1582.9675,231.587,1577.8608,234.0204,1575.4274,228.9137,1576.19,238.733" style="stroke: #A80036; stroke-width: 1.0;"/><line style="stroke: #A80036; stroke-width: 1.0;" x1="1577.8608" x2="1580.54" y1="234.0204" y2="226.481"/><polygon fill="#A80036" points="1597.27,179.312,1591.4934,183.6283,1593.2559,190.6207,1599.0325,186.3044,1597.27,179.312" style="stroke: #A80036; stroke-width: 1.0;"/><!--MD5=[ce283d8c110a506040c2dd735ef47160]
link usantatecla.tictactoe.TicTacToe to usantatecla.tictactoe.Turn--><path codeLine="126" d="M1518.0303,158.1629 C1518.0303,158.1629 1428.08,207.798 1389.5,239 C1381.13,245.773 1372.9,253.368 1365.02,261.299 " fill="none" id="usantatecla.tictactoe.TicTacToe-usantatecla.tictactoe.Turn" style="stroke: #A80036; stroke-width: 1.0;"/><polygon fill="#A80036" points="1355.94,270.733,1365.0617,267.0189,1359.4059,267.1292,1359.2956,261.4734,1355.94,270.733" style="stroke: #A80036; stroke-width: 1.0;"/><line style="stroke: #A80036; stroke-width: 1.0;" x1="1359.4059" x2="1364.96" y1="267.1292" y2="261.3645"/><polygon fill="#A80036" points="1528.73,152.73,1521.5692,151.8799,1518.0303,158.1629,1525.1911,159.013,1528.73,152.73" style="stroke: #A80036; stroke-width: 1.0;"/><!--MD5=[8842675a9ea127b9dcc7c26c260f87ba]
link usantatecla.tictactoe.Board to usantatecla.tictactoe.Token--><path codeLine="128" d="M1531.75,453.128 C1524.42,568.381 1512.93,748.96 1506.76,845.988 " fill="none" id="usantatecla.tictactoe.Board-to-usantatecla.tictactoe.Token" style="stroke: #A80036; stroke-width: 1.0; stroke-dasharray: 7.0,7.0;"/><polygon fill="#A80036" points="1506.44,851.115,1511.0033,842.3871,1506.7574,846.1251,1503.0194,841.8792,1506.44,851.115" style="stroke: #A80036; stroke-width: 1.0;"/><!--MD5=[d113ddce6fd1895c2fc1e379d25bb267]
link usantatecla.tictactoe.Turn to usantatecla.tictactoe.Token--><path codeLine="129" d="M1357.03,421.137 C1367.35,432.326 1378.36,443.34 1389.5,453 C1426.66,485.23 1457.89,470.408 1482.5,513 C1498.68,541.012 1501.91,739.698 1502.46,846.099 " fill="none" id="usantatecla.tictactoe.Turn-to-usantatecla.tictactoe.Token" style="stroke: #A80036; stroke-width: 1.0; stroke-dasharray: 7.0,7.0;"/><polygon fill="#A80036" points="1502.49,851.408,1506.4462,842.3887,1502.4657,846.4081,1498.4463,842.4275,1502.49,851.408" style="stroke: #A80036; stroke-width: 1.0;"/><!--MD5=[da9e0b814734f6fa908ce67941f7afa7]
link usantatecla.tictactoe.Player to usantatecla.tictactoe.Token--><path codeLine="130" d="M1384.3322,723.9549 C1384.3322,723.9549 1414.03,758.129 1426.5,775 C1441.31,795.043 1455.21,818.303 1466.97,839.949 " fill="none" id="usantatecla.tictactoe.Player-usantatecla.tictactoe.Token" style="stroke: #A80036; stroke-width: 1.0;"/><polygon fill="#A80036" points="1473.09,851.435,1472.3857,841.6114,1470.7378,847.0229,1465.3263,845.3749,1473.09,851.435" style="stroke: #A80036; stroke-width: 1.0;"/><line style="stroke: #A80036; stroke-width: 1.0;" x1="1470.7378" x2="1466.975" y1="847.0229" y2="839.9635"/><polygon fill="#A80036" points="1376.24,715.094,1377.3325,722.2219,1384.3322,723.9549,1383.2397,716.8271,1376.24,715.094" style="stroke: #A80036; stroke-width: 1.0;"/><!--MD5=[529b3f680026169e7030eafcb9573de9]
link usantatecla.tictactoe.Turn to usantatecla.tictactoe.Player--><path codeLine="131" d="M1289.0934,433.0392 C1289.0934,433.0392 1284.72,477.753 1282.57,499.746 " fill="none" id="usantatecla.tictactoe.Turn-usantatecla.tictactoe.Player" style="stroke: #A80036; stroke-width: 1.0;"/><polygon fill="#A80036" points="1281.28,512.955,1286.1369,504.387,1281.7666,507.9787,1278.1749,503.6084,1281.28,512.955" style="stroke: #A80036; stroke-width: 1.0;"/><line style="stroke: #A80036; stroke-width: 1.0;" x1="1281.7666" x2="1282.545" y1="507.9787" y2="500.0165"/><polygon fill="#A80036" points="1290.26,421.096,1285.6956,426.6787,1289.0934,433.0392,1293.6577,427.4565,1290.26,421.096" style="stroke: #A80036; stroke-width: 1.0;"/><text fill="#000000" font-family="sans-serif" font-size="13" lengthAdjust="spacingAndGlyphs" textLength="8" x="1273.7045" y="502.0681">2</text><!--MD5=[bfa888729168fa3147cbf7352825b6b1]
link usantatecla.tictactoe.Board to usantatecla.tictactoe.Coordinate--><path codeLine="132" d="M1396.6233,449.841 C1396.6233,449.841 1391.56,452.13 1389.5,453 C1252.56,510.794 1205.14,478.764 1060.5,513 C1004.792,526.186 944.669,542.907 890.603,558.883 " fill="none" id="usantatecla.tictactoe.Board-usantatecla.tictactoe.Coordinate" style="stroke: #A80036; stroke-width: 1.0;"/><polygon fill="#A80036" points="878.083,562.601,887.8494,563.8731,882.8761,561.1775,885.5717,556.2042,878.083,562.601" style="stroke: #A80036; stroke-width: 1.0;"/><line style="stroke: #A80036; stroke-width: 1.0;" x1="882.8761" x2="890.5455" y1="561.1775" y2="558.9"/><polygon fill="#A80036" points="1407.44,444.645,1400.2996,443.6374,1396.6233,449.841,1403.7637,450.8486,1407.44,444.645" style="stroke: #A80036; stroke-width: 1.0;"/><!--MD5=[287634111649744118617a7068f6a88b]
reverse link usantatecla.tictactoe.Player to usantatecla.tictactoe.MachinePlayer--><path codeLine="133" d="M1279.56,735.041 C1282.98,785.99 1286.71,841.637 1289.08,876.899 " fill="none" id="usantatecla.tictactoe.Player-backto-usantatecla.tictactoe.MachinePlayer" style="stroke: #A80036; stroke-width: 1.0;"/><polygon fill="none" points="1272.57,735.483,1278.22,715.059,1286.54,734.545,1272.57,735.483" style="stroke: #A80036; stroke-width: 1.0;"/><!--MD5=[cb3b258fc3efb46a680af02e5e1f3af2]
link usantatecla.tictactoe.Coordinate to usantatecla.tictactoe.Error--><path codeLine="134" d="M692.982,708.88 C682.686,746.76 670.886,790.172 660.823,827.195 " fill="none" id="usantatecla.tictactoe.Coordinate-to-usantatecla.tictactoe.Error" style="stroke: #A80036; stroke-width: 1.0; stroke-dasharray: 7.0,7.0;"/><polygon fill="#A80036" points="659.478,832.142,665.6988,824.5064,660.7896,827.3171,657.979,822.4079,659.478,832.142" style="stroke: #A80036; stroke-width: 1.0;"/><!--MD5=[e43764ef036bd32d7bebb5fdc89dab41]
link usantatecla.tictactoe.Player to usantatecla.tictactoe.Error--><path codeLine="135" d="M1077.76,666.058 C935.979,704.544 763.491,754.134 734.5,775 C715.054,788.996 698.131,808.14 684.103,827.713 " fill="none" id="usantatecla.tictactoe.Player-to-usantatecla.tictactoe.Error" style="stroke: #A80036; stroke-width: 1.0; stroke-dasharray: 7.0,7.0;"/><polygon fill="#A80036" points="680.971,832.159,689.4249,827.1061,683.851,828.0718,682.8853,822.498,680.971,832.159" style="stroke: #A80036; stroke-width: 1.0;"/><!--MD5=[c1cc06e9ee042e231acd704d3db91e02]
link usantatecla.tictactoe.Board to usantatecla.tictactoe.Message--><path codeLine="136" d="M1578.43,453.254 C1585.42,473.013 1592.4,493.557 1598.5,513 C1624.99,597.396 1650.73,693.073 1670.33,769.689 " fill="none" id="usantatecla.tictactoe.Board-to-usantatecla.tictactoe.Message" style="stroke: #A80036; stroke-width: 1.0; stroke-dasharray: 7.0,7.0;"/><polygon fill="#A80036" points="1671.61,774.708,1673.2553,764.9975,1670.3711,769.8639,1665.5047,766.9798,1671.61,774.708" style="stroke: #A80036; stroke-width: 1.0;"/><!--MD5=[7e581fdc1c15d414673a5603eefb02c4]
link usantatecla.tictactoe.Player to usantatecla.tictactoe.Message--><path codeLine="137" d="M1465.26,702.927 C1504.29,724.181 1543.91,748.502 1578.5,775 C1583.14,778.558 1587.76,782.296 1592.34,786.172 " fill="none" id="usantatecla.tictactoe.Player-to-usantatecla.tictactoe.Message" style="stroke: #A80036; stroke-width: 1.0; stroke-dasharray: 7.0,7.0;"/><polygon fill="#A80036" points="1596.17,789.459,1591.9465,780.5617,1592.3761,786.2022,1586.7356,786.6319,1596.17,789.459" style="stroke: #A80036; stroke-width: 1.0;"/><!--MD5=[4658d6f36d7d9c2388a7aa58b8f9a55b]
link usantatecla.tictactoe.TicTacToe to usantatecla.tictactoe.Message--><path codeLine="138" d="M1663.11,179.223 C1672.57,197.954 1681.34,218.71 1686.5,239 C1731.9,417.514 1728.67,631.217 1719.43,769.408 " fill="none" id="usantatecla.tictactoe.TicTacToe-to-usantatecla.tictactoe.Message" style="stroke: #A80036; stroke-width: 1.0; stroke-dasharray: 7.0,7.0;"/><polygon fill="#A80036" points="1719.07,774.701,1723.6706,765.9927,1719.4088,769.7125,1715.689,765.4507,1719.07,774.701" style="stroke: #A80036; stroke-width: 1.0;"/><!--MD5=[62ac8b859d6a910fbb401d124595bc0b]
link usantatecla.tictactoe.Turn to usantatecla.tictactoe.Message--><path codeLine="139" d="M1355.62,421.079 C1366.24,432.46 1377.71,443.55 1389.5,453 C1433.25,488.077 1462.05,472.174 1500.5,513 C1568.39,585.088 1549.37,626.861 1594.5,715 C1603.73,733.028 1613.73,751.797 1623.82,770.284 " fill="none" id="usantatecla.tictactoe.Turn-to-usantatecla.tictactoe.Message" style="stroke: #A80036; stroke-width: 1.0; stroke-dasharray: 7.0,7.0;"/><polygon fill="#A80036" points="1626.38,774.977,1625.5734,765.1612,1623.9819,770.5896,1618.5536,768.9981,1626.38,774.977" style="stroke: #A80036; stroke-width: 1.0;"/><!--MD5=[88d77fad83bebfdbbb7645aa3f97d38d]
reverse link ConcreteCoordinate to usantatecla.tictactoe.Coordinate--><path codeLine="171" d="M1935.2,384.22 C1908.46,408.378 1870.27,438.051 1830.5,453 C1509.18,573.762 1398.14,451.169 1060.5,513 C1000.107,524.059 935.137,541.574 878.216,558.877 " fill="none" id="ConcreteCoordinate-backto-usantatecla.tictactoe.Coordinate" style="stroke: #A80036; stroke-width: 1.0;"/><polygon fill="none" points="1930.53,379.001,1949.91,370.43,1940.11,389.215,1930.53,379.001" style="stroke: #A80036; stroke-width: 1.0;"/><!--MD5=[934fb392a73132a0ebf18f95113c60ed]
link usantatecla.tictactoe.Coordinate to ClosedInterval--><path codeLine="173" d="M589.931,708.606 C570.461,728.393 552.802,750.722 540.5,775 C483.597,887.3 493.605,1044.31 500.728,1107.7518 " fill="none" id="usantatecla.tictactoe.Coordinate-to-ClosedInterval" style="stroke: #A80036; stroke-width: 1.0; stroke-dasharray: 7.0,7.0;"/><polygon fill="#A80036" points="501.32,1112.8773,504.2604,1103.4776,500.746,1107.9104,496.3133,1104.396,501.32,1112.8773" style="stroke: #A80036; stroke-width: 1.0;"/><!--MD5=[e42dc3dc7895e07d7350a715b050ad9b]
link usantatecla.tictactoe.Token to ClosedInterval--><path codeLine="174" d="M1489.89,976.764 C1479.25,1012.204 1460.13,1054.087 1426.5,1077 C1361.16,1121.5137 849.536,1132.4578 617.841,1135.137 " fill="none" id="usantatecla.tictactoe.Token-to-ClosedInterval" style="stroke: #A80036; stroke-width: 1.0; stroke-dasharray: 7.0,7.0;"/><polygon fill="#A80036" points="612.759,1135.1949,621.8041,1139.0918,617.7587,1135.1378,621.7127,1131.0923,612.759,1135.1949" style="stroke: #A80036; stroke-width: 1.0;"/><!--MD5=[98503c5b3c876464a0a320f677cd6e58]
link LimitedIntDialog to ClosedInterval--><path codeLine="175" d="M131.392,938.149 C150.97,973.825 193.469,1041.796 249.5,1077 C291.728,1103.5315 344.617,1118.1581 391.264,1126.211 " fill="none" id="LimitedIntDialog-to-ClosedInterval" style="stroke: #A80036; stroke-width: 1.0; stroke-dasharray: 7.0,7.0;"/><polygon fill="#A80036" points="396.337,1127.0654,388.1259,1121.6269,391.4064,1126.2354,386.7979,1129.5159,396.337,1127.0654" style="stroke: #A80036; stroke-width: 1.0;"/><!--MD5=[02a6c08caac974be482b221cbbed617e]
link usantatecla.tictactoe.Error to Console--><path codeLine="178" d="M666.79,995.866 C682.124,1026.493 704.169,1058.423 734.5,1077 C799.2,1116.6266 1296.54,1130.3829 1508.41,1134.4772 " fill="none" id="usantatecla.tictactoe.Error-to-Console" style="stroke: #A80036; stroke-width: 1.0; stroke-dasharray: 7.0,7.0;"/><polygon fill="#A80036" points="1513.67,1134.578,1504.7518,1130.3988,1508.671,1134.478,1504.5918,1138.3972,1513.67,1134.578" style="stroke: #A80036; stroke-width: 1.0;"/><!--MD5=[babf8812656abf11221776abe93713d2]
link usantatecla.tictactoe.Message to Console--><path codeLine="179" d="M1641.77,1053.079 C1632.22,1073.774 1623.3,1093.0902 1616.49,1107.8638 " fill="none" id="usantatecla.tictactoe.Message-to-Console" style="stroke: #A80036; stroke-width: 1.0; stroke-dasharray: 7.0,7.0;"/><polygon fill="#A80036" points="1614.26,1112.6953,1621.6617,1106.198,1616.3541,1108.155,1614.3972,1102.8474,1614.26,1112.6953" style="stroke: #A80036; stroke-width: 1.0;"/><!--MD5=[b5f6ae75ec16ad98720bfc912357ede6]
link usantatecla.tictactoe.Token to Console--><path codeLine="180" d="M1530.63,976.561 C1550.33,1019.654 1575.71,1075.1913 1590.73,1108.0572 " fill="none" id="usantatecla.tictactoe.Token-to-Console" style="stroke: #A80036; stroke-width: 1.0; stroke-dasharray: 7.0,7.0;"/><polygon fill="#A80036" points="1592.87,1112.7376,1592.763,1102.8893,1590.7898,1108.1909,1585.4883,1106.2176,1592.87,1112.7376" style="stroke: #A80036; stroke-width: 1.0;"/><!--MD5=[e9f88c84ae372c10578b1ce2bfdab9f0]
link ConcreteCoordinate to Console--><path codeLine="181" d="M1975.9,370.139 C1989.17,469.872 2027.44,867.417 1830.5,1077 C1812.06,1096.6194 1752.11,1111.7124 1698.44,1121.7204 " fill="none" id="ConcreteCoordinate-to-Console" style="stroke: #A80036; stroke-width: 1.0; stroke-dasharray: 7.0,7.0;"/><polygon fill="#A80036" points="1693.27,1122.673,1702.8431,1124.9873,1698.1883,1121.7728,1701.4028,1117.118,1693.27,1122.673" style="stroke: #A80036; stroke-width: 1.0;"/><!--MD5=[7d9962839904cadaaf2ea6babb2790b2]
link LimitedIntDialog to Console--><path codeLine="182" d="M130.072,938.211 C148.378,975.286 189.831,1046.762 249.5,1077 C305.51,1105.3841 1209.77,1127.4593 1508.53,1134.0078 " fill="none" id="LimitedIntDialog-to-Console" style="stroke: #A80036; stroke-width: 1.0; stroke-dasharray: 7.0,7.0;"/><polygon fill="#A80036" points="1513.75,1134.122,1504.8318,1129.9428,1508.751,1134.022,1504.6718,1137.9412,1513.75,1134.122" style="stroke: #A80036; stroke-width: 1.0;"/><!--MD5=[463cc8af4a3cc64d4486d23129543027]
link YesNoDialog to Console--><path codeLine="183" d="M2234.36,370.011 C2223.6,471.757 2165.94,884.688 1925.5,1077 C1891.14,1104.4851 1780.53,1120.3068 1698.49,1128.5187 " fill="none" id="YesNoDialog-to-Console" style="stroke: #A80036; stroke-width: 1.0; stroke-dasharray: 7.0,7.0;"/><polygon fill="#A80036" points="1693.13,1129.0487,1702.4848,1132.1288,1698.1049,1128.5488,1701.685,1124.1689,1693.13,1129.0487" style="stroke: #A80036; stroke-width: 1.0;"/><!--MD5=[4a6f4cecc322ee82ce9bf312f6bd9c5b]
link usantatecla.tictactoe.Turn to LimitedIntDialog--><path codeLine="186" d="M1222.74,348.829 C1007.4,355.591 391.772,385.868 244.5,513 C131.017,610.964 119.236,810.372 118.959,884.451 " fill="none" id="usantatecla.tictactoe.Turn-to-LimitedIntDialog" style="stroke: #A80036; stroke-width: 1.0; stroke-dasharray: 7.0,7.0;"/><polygon fill="#A80036" points="118.957,889.565,122.957,880.565,118.957,884.565,114.957,880.565,118.957,889.565" style="stroke: #A80036; stroke-width: 1.0;"/><!--MD5=[a6176f3b762d2fd91dbdde4c26f79f5e]
link usantatecla.tictactoe.TicTacToe to YesNoDialog--><path codeLine="187" d="M1714.46,121.98 C1817.39,137.04 1985.88,170.45 2115.5,239 C2153.7,259.201 2189.92,293.704 2212.61,317.841 " fill="none" id="usantatecla.tictactoe.TicTacToe-to-YesNoDialog" style="stroke: #A80036; stroke-width: 1.0; stroke-dasharray: 7.0,7.0;"/><polygon fill="#A80036" points="2216.13,321.623,2212.9198,312.312,2212.721,317.9653,2207.0676,317.7665,2216.13,321.623" style="stroke: #A80036; stroke-width: 1.0;"/><!--MD5=[bf23bf68eb6ee1e962cc58fc20d95da0]
link usantatecla.tictactoe.Board to Direction--><path codeLine="189" d="M1407.36,445.81 C1401.46,448.484 1395.49,450.902 1389.5,453 C1275.65,492.866 388.407,425.377 305.5,513 C206.298,617.844 301.69,812.926 342.757,885.16 " fill="none" id="usantatecla.tictactoe.Board-to-Direction" style="stroke: #A80036; stroke-width: 1.0; stroke-dasharray: 7.0,7.0;"/><polygon fill="#A80036" points="345.381,889.738,344.3762,879.9405,342.8948,885.4,337.4353,883.9185,345.381,889.738" style="stroke: #A80036; stroke-width: 1.0;"/><!--MD5=[c6b41bb1c68e13fbf1695f6a9580fb13]
link usantatecla.tictactoe.Coordinate to Direction--><path codeLine="190" d="M564.44,708.68 C534.832,729.151 504.864,751.708 478.5,775 C439.632,809.338 401.745,856.289 379.521,885.618 " fill="none" id="usantatecla.tictactoe.Coordinate-to-Direction" style="stroke: #A80036; stroke-width: 1.0; stroke-dasharray: 7.0,7.0;"/><polygon fill="#A80036" points="376.357,889.813,384.9688,885.0341,379.3668,885.8204,378.5806,880.2184,376.357,889.813" style="stroke: #A80036; stroke-width: 1.0;"/><!--MD5=[2ece631038b7899e5b9aaea57adaf24e]
link Coordinate to Direction--><path codeLine="191" d="M418.478,638.384 C406.865,692.458 378.186,825.995 365.594,884.625 " fill="none" id="Coordinate-to-Direction" style="stroke: #A80036; stroke-width: 1.0; stroke-dasharray: 7.0,7.0;"/><polygon fill="#A80036" points="364.499,889.725,370.2998,881.7657,365.549,884.8365,362.4782,880.0857,364.499,889.725" style="stroke: #A80036; stroke-width: 1.0;"/><!--MD5=[6f3c9c3196c63fab394d652273f00d5d]
@startuml
namespace usantatecla.tictactoe {
class Board {
	- tokens: Token[][] 
	~ Board()
	+ reset() 
	~ write() 
	- getToken(Coordinate): Token 
	~ isCompleted(): boolean 
	~ put(Coordinate, Token) 
	~ move(Coordinate, Coordinate) 
	- remove(Coordinate) 
	~ isOccupied(Coordinate, Token): boolean 
	~ isEmpty(Coordinate): boolean
	~ isTicTacToe(Token): boolean
	- getCoordinates(Token): List<Coordinate> 
}

class Coordinate {
	~ NULL: {static} Coordinate
	~ DIMENSION: {static} int 
	~ LIMITS: {static} ClosedInterval 
	~ Coordinate()
	~ Coordinate(int, int)
	+ isNull(): boolean 
	+ getDirection(usantatecla.utils.Coordinate): Direction 
	+ inInverseDiagonal(): boolean 
	+ read(String)
	+ random() 
	+ equals(Object): boolean 
}

enum Error {

	+ NOT_EMPTY
	+ NOT_OWNER
	+ SAME_COORDINATES
	+ WRONG_COORDINATES
	+ NULL
	- message: String 
	~ Error()
	~ Error(String)
	~ writeln()
}

class MachinePlayer {
	~ MachinePlayer(Token, Board)
	~ getCoordinate(Message): Coordinate 
}

enum Message {
	+ TITTLE
	+ NUMBER_PLAYERS
	+ SEPARATOR
	+ VERTICAL_LINE_LEFT
	+ VERTICAL_LINE_CENTERED
	+ VERTICAL_LINE_RIGHT
	+ ENTER_COORDINATE_TO_PUT
	+ ENTER_COORDINATE_TO_REMOVE
	+ COORDINATE_TO_PUT
	+ COORDINATE_TO_REMOVE
	+ COORDINATE_TO_MOVE
	+ PLAYER_WIN
	+ RESUME
	- message: String 
	- Message(String)
	~ write()
	~ writeln()
	+ toString(): String 
}


abstract class Player {
	~ board: Board 
	~ token: Token 
	~ Player(Token, Board)
	~ play()
	- put()
	~ abstract getCoordinate(Message): Coordinate 
	~ checkPutCoordinateError(Coordinate): Error 
	- move()
	~ checkMoveOriginCoordinateError(Coordinate): Error 
	~ checkMoveTargetCoordinateError(Coordinate, Coordinate): Error 
	~ writeWinner()
	~ getToken(): Token 
}

class TicTacToe{
    - board: Board 
	- turn: Turn 
    ~ TicTacToe()
	- play()
    - playGame()
	- isResumedGame(): boolean
	+ {static} main(String[])
}

enum Token {
	+ X_TOKEN
	+ Y_TOKEN
	+ NULL
    + isNull(): boolean 
    ~ write()
    ~ {static} get(int): Token 
}

class Turn {
	~ NUMBER_PLAYERS: {static} int 
	- players: Player[] 
	- active: int 
	~ Turn(Board)
	~ play()
	- getPlayer(): Player 
	~ writeWinner()
	~ getToken(): Token  
}

class UserPlayer extends Player {
	~ UserPlayer(Token, Board)
	~ getCoordinate(Message message): Coordinate
	~ checkPutCoordinateError(Coordinate): Error 
	~ checkMoveOriginCoordinateError(Coordinate): Error
	~ checkMoveTargetCoordinateError(Coordinate, Coordinate): Error
}

TicTacToe *-down-> Board
TicTacToe *-down-> Turn

Board .down.> Token
Turn .down.> Token
Player *-down-> Token
Turn *-down-> "2" Player
Board *-down-> Coordinate
Player <|-down- MachinePlayer
Coordinate .down.> Error
Player .down.> Error
Board .down.> Message
Player .down.> Message
TicTacToe .down.> Message
Turn .down.> Message

}

class ConcreteCoordinate as "usantatecla.utils.ConcreteCoordinate"{

}

class ClosedInterval as "usantatecla.utils.ClosedInterval"{
	
}

class Console as "usantatecla.utils.Console"{
	
}

class LimitedIntDialog as "usantatecla.utils.LimitedIntDialog"{
	
}

class YesNoDialog as "usantatecla.utils.YesNoDialog"{
	
}

enum Direction as "usantatecla.utils.Direction"{
	
}

interface Coordinate as "usantatecla.utils.Coordinate"{
	
}

ConcreteCoordinate <|-down- usantatecla.tictactoe.Coordinate

usantatecla.tictactoe.Coordinate .down.> ClosedInterval
usantatecla.tictactoe.Token .down.> ClosedInterval
LimitedIntDialog .down.> ClosedInterval


usantatecla.tictactoe.Error .down.> Console
usantatecla.tictactoe.Message .down.> Console
usantatecla.tictactoe.Token .down.> Console
ConcreteCoordinate .down.> Console
LimitedIntDialog .down.> Console
YesNoDialog .down.> Console


usantatecla.tictactoe.Turn .down.> LimitedIntDialog
usantatecla.tictactoe.TicTacToe .down.> YesNoDialog

usantatecla.tictactoe.Board .down.> Direction
usantatecla.tictactoe.Coordinate .down.> Direction
Coordinate .down.> Direction
@enduml

PlantUML version 1.2020.20beta4(Unknown compile time)
(GPL source distribution)
Java Runtime: Java(TM) SE Runtime Environment
JVM: Java HotSpot(TM) 64-Bit Server VM
Default Encoding: UTF-8
Language: en
Country: US
--></g></svg>