<?xml version="1.0" encoding="UTF-8" standalone="no"?><svg xmlns="http://www.w3.org/2000/svg" xmlns:xlink="http://www.w3.org/1999/xlink" contentScriptType="application/ecmascript" contentStyleType="text/css" height="1190px" preserveAspectRatio="none" style="width:2174px;height:1190px;" version="1.1" viewBox="0 0 2174 1190" width="2174px" zoomAndPan="magnify"><defs><filter height="300%" id="f1skb3nt7y8km4" width="300%" x="-1" y="-1"><feGaussianBlur result="blurOut" stdDeviation="2.0"/><feColorMatrix in="blurOut" result="blurOut2" type="matrix" values="0 0 0 0 0 0 0 0 0 0 0 0 0 0 0 0 0 0 .4 0"/><feOffset dx="4.0" dy="4.0" in="blurOut2" result="blurOut3"/><feBlend in="SourceGraphic" in2="blurOut3" mode="normal"/></filter></defs><g><!--MD5=[b59da53bc4cb019b9115ab51e8207bb0]
cluster usantatecla.tictactoe--><polygon fill="#FFFFFF" filter="url(#f1skb3nt7y8km4)" points="555.7983,6,740.7983,6,747.7983,28.2969,1845.7983,28.2969,1845.7983,1081,555.7983,1081,555.7983,6" style="stroke: #000000; stroke-width: 1.5;"/><line style="stroke: #000000; stroke-width: 1.5;" x1="555.7983" x2="747.7983" y1="28.2969" y2="28.2969"/><text fill="#000000" font-family="sans-serif" font-size="14" font-weight="bold" lengthAdjust="spacingAndGlyphs" textLength="179" x="559.7983" y="20.9951">usantatecla.tictactoe</text><!--MD5=[1c1463d9f8db069853651be96ebc7f3a]
class usantatecla.tictactoe.Board--><rect codeLine="2" fill="#FEFECE" filter="url(#f1skb3nt7y8km4)" height="214.4609" id="usantatecla.tictactoe.Board" style="stroke: #A80036; stroke-width: 1.5;" width="262" x="1398.7983" y="230"/><ellipse cx="1507.5483" cy="246" fill="#ADD1B2" rx="11" ry="11" style="stroke: #A80036; stroke-width: 1.0;"/><path d="M1509.8921,241.6719 C1508.9546,241.2344 1508.3608,241.0938 1507.4858,241.0938 C1504.8608,241.0938 1502.8608,243.1719 1502.8608,245.8906 L1502.8608,247.0156 C1502.8608,249.5938 1504.9702,251.4844 1507.8608,251.4844 C1509.0796,251.4844 1510.2358,251.1875 1510.9858,250.6406 C1511.5639,250.2344 1511.8921,249.7813 1511.8921,249.3906 C1511.8921,248.9375 1511.5014,248.5469 1511.0327,248.5469 C1510.8139,248.5469 1510.6108,248.625 1510.4233,248.8125 C1509.9702,249.2969 1509.9702,249.2969 1509.7827,249.3906 C1509.3608,249.6563 1508.6733,249.7813 1507.9077,249.7813 C1505.8608,249.7813 1504.5639,248.6875 1504.5639,246.9844 L1504.5639,245.8906 C1504.5639,244.1094 1505.8139,242.7969 1507.5483,242.7969 C1508.1264,242.7969 1508.7358,242.9531 1509.2046,243.2031 C1509.6889,243.4844 1509.8608,243.7031 1509.9546,244.1094 C1510.0171,244.5156 1510.0483,244.6406 1510.1889,244.7656 C1510.3296,244.9063 1510.5639,245.0156 1510.7827,245.0156 C1511.0483,245.0156 1511.3139,244.875 1511.4858,244.6563 C1511.5952,244.5 1511.6264,244.3125 1511.6264,243.8906 L1511.6264,242.4688 C1511.6264,242.0313 1511.6108,241.9063 1511.5171,241.75 C1511.3608,241.4844 1511.0796,241.3438 1510.7827,241.3438 C1510.4858,241.3438 1510.2827,241.4375 1510.0639,241.75 L1509.8921,241.6719 Z "/><text fill="#000000" font-family="sans-serif" font-size="12" lengthAdjust="spacingAndGlyphs" textLength="36" x="1528.0483" y="250.1543">Board</text><line style="stroke: #A80036; stroke-width: 1.5;" x1="1399.7983" x2="1659.7983" y1="262" y2="262"/><rect fill="none" height="6" style="stroke: #C82930; stroke-width: 1.0;" width="6" x="1406.7983" y="270"/><text fill="#000000" font-family="sans-serif" font-size="11" lengthAdjust="spacingAndGlyphs" textLength="96" x="1418.7983" y="276.2104">tokens: Token[][]</text><line style="stroke: #A80036; stroke-width: 1.5;" x1="1399.7983" x2="1659.7983" y1="282.8047" y2="282.8047"/><polygon fill="#4177AF" points="1409.7983,289.8047,1405.7983,295.8047,1413.7983,295.8047" style="stroke: #1963A0; stroke-width: 1.0;"/><text fill="#000000" font-family="sans-serif" font-size="11" lengthAdjust="spacingAndGlyphs" textLength="41" x="1418.7983" y="297.0151">Board()</text><ellipse cx="1409.7983" cy="306.6094" fill="#84BE84" rx="3" ry="3" style="stroke: #038048; stroke-width: 1.0;"/><text fill="#000000" font-family="sans-serif" font-size="11" lengthAdjust="spacingAndGlyphs" textLength="38" x="1418.7983" y="309.8198">reset()</text><polygon fill="#4177AF" points="1409.7983,315.4141,1405.7983,321.4141,1413.7983,321.4141" style="stroke: #1963A0; stroke-width: 1.0;"/><text fill="#000000" font-family="sans-serif" font-size="11" lengthAdjust="spacingAndGlyphs" textLength="36" x="1418.7983" y="322.6245">write()</text><rect fill="#F24D5C" height="6" style="stroke: #C82930; stroke-width: 1.0;" width="6" x="1406.7983" y="329.2188"/><text fill="#000000" font-family="sans-serif" font-size="11" lengthAdjust="spacingAndGlyphs" textLength="166" x="1418.7983" y="335.4292">getToken(Coordinate): Token</text><polygon fill="#4177AF" points="1409.7983,341.0234,1405.7983,347.0234,1413.7983,347.0234" style="stroke: #1963A0; stroke-width: 1.0;"/><text fill="#000000" font-family="sans-serif" font-size="11" lengthAdjust="spacingAndGlyphs" textLength="133" x="1418.7983" y="348.2339">isCompleted(): boolean</text><polygon fill="#4177AF" points="1409.7983,353.8281,1405.7983,359.8281,1413.7983,359.8281" style="stroke: #1963A0; stroke-width: 1.0;"/><text fill="#000000" font-family="sans-serif" font-size="11" lengthAdjust="spacingAndGlyphs" textLength="130" x="1418.7983" y="361.0386">put(Coordinate, Token)</text><polygon fill="#4177AF" points="1409.7983,366.6328,1405.7983,372.6328,1413.7983,372.6328" style="stroke: #1963A0; stroke-width: 1.0;"/><text fill="#000000" font-family="sans-serif" font-size="11" lengthAdjust="spacingAndGlyphs" textLength="172" x="1418.7983" y="373.8433">move(Coordinate, Coordinate)</text><rect fill="#F24D5C" height="6" style="stroke: #C82930; stroke-width: 1.0;" width="6" x="1406.7983" y="380.4375"/><text fill="#000000" font-family="sans-serif" font-size="11" lengthAdjust="spacingAndGlyphs" textLength="115" x="1418.7983" y="386.6479">remove(Coordinate)</text><polygon fill="#4177AF" points="1409.7983,392.2422,1405.7983,398.2422,1413.7983,398.2422" style="stroke: #1963A0; stroke-width: 1.0;"/><text fill="#000000" font-family="sans-serif" font-size="11" lengthAdjust="spacingAndGlyphs" textLength="227" x="1418.7983" y="399.4526">isOccupied(Coordinate, Token): boolean</text><polygon fill="#4177AF" points="1409.7983,405.0469,1405.7983,411.0469,1413.7983,411.0469" style="stroke: #1963A0; stroke-width: 1.0;"/><text fill="#000000" font-family="sans-serif" font-size="11" lengthAdjust="spacingAndGlyphs" textLength="168" x="1418.7983" y="412.2573">isEmpty(Coordinate): boolean</text><polygon fill="#4177AF" points="1409.7983,417.8516,1405.7983,423.8516,1413.7983,423.8516" style="stroke: #1963A0; stroke-width: 1.0;"/><text fill="#000000" font-family="sans-serif" font-size="11" lengthAdjust="spacingAndGlyphs" textLength="163" x="1418.7983" y="425.062">isTicTacToe(Token): boolean</text><rect fill="#F24D5C" height="6" style="stroke: #C82930; stroke-width: 1.0;" width="6" x="1406.7983" y="431.6563"/><text fill="#000000" font-family="sans-serif" font-size="11" lengthAdjust="spacingAndGlyphs" textLength="236" x="1418.7983" y="437.8667">getCoordinates(Token): List&lt;Coordinate&gt;</text><!--MD5=[0990100d77444e20aa254ae593d623a1]
class usantatecla.tictactoe.Coordinate--><rect codeLine="18" fill="#FEFECE" filter="url(#f1skb3nt7y8km4)" height="188.8516" id="usantatecla.tictactoe.Coordinate" style="stroke: #A80036; stroke-width: 1.5;" width="319" x="1510.2983" y="521"/><ellipse cx="1632.5483" cy="537" fill="#ADD1B2" rx="11" ry="11" style="stroke: #A80036; stroke-width: 1.0;"/><path d="M1634.8921,532.6719 C1633.9546,532.2344 1633.3608,532.0938 1632.4858,532.0938 C1629.8608,532.0938 1627.8608,534.1719 1627.8608,536.8906 L1627.8608,538.0156 C1627.8608,540.5938 1629.9702,542.4844 1632.8608,542.4844 C1634.0796,542.4844 1635.2358,542.1875 1635.9858,541.6406 C1636.5639,541.2344 1636.8921,540.7813 1636.8921,540.3906 C1636.8921,539.9375 1636.5014,539.5469 1636.0327,539.5469 C1635.8139,539.5469 1635.6108,539.625 1635.4233,539.8125 C1634.9702,540.2969 1634.9702,540.2969 1634.7827,540.3906 C1634.3608,540.6563 1633.6733,540.7813 1632.9077,540.7813 C1630.8608,540.7813 1629.5639,539.6875 1629.5639,537.9844 L1629.5639,536.8906 C1629.5639,535.1094 1630.8139,533.7969 1632.5483,533.7969 C1633.1264,533.7969 1633.7358,533.9531 1634.2046,534.2031 C1634.6889,534.4844 1634.8608,534.7031 1634.9546,535.1094 C1635.0171,535.5156 1635.0483,535.6406 1635.1889,535.7656 C1635.3296,535.9063 1635.5639,536.0156 1635.7827,536.0156 C1636.0483,536.0156 1636.3139,535.875 1636.4858,535.6563 C1636.5952,535.5 1636.6264,535.3125 1636.6264,534.8906 L1636.6264,533.4688 C1636.6264,533.0313 1636.6108,532.9063 1636.5171,532.75 C1636.3608,532.4844 1636.0796,532.3438 1635.7827,532.3438 C1635.4858,532.3438 1635.2827,532.4375 1635.0639,532.75 L1634.8921,532.6719 Z "/><text fill="#000000" font-family="sans-serif" font-size="12" lengthAdjust="spacingAndGlyphs" textLength="66" x="1653.0483" y="541.1543">Coordinate</text><line style="stroke: #A80036; stroke-width: 1.5;" x1="1511.2983" x2="1828.2983" y1="553" y2="553"/><polygon fill="none" points="1521.2983,560,1517.2983,566,1525.2983,566" style="stroke: #1963A0; stroke-width: 1.0;"/><text fill="#000000" font-family="sans-serif" font-size="11" lengthAdjust="spacingAndGlyphs" text-decoration="underline" textLength="97" x="1530.2983" y="567.2104">NULL: Coordinate</text><polygon fill="none" points="1521.2983,572.8047,1517.2983,578.8047,1525.2983,578.8047" style="stroke: #1963A0; stroke-width: 1.0;"/><text fill="#000000" font-family="sans-serif" font-size="11" lengthAdjust="spacingAndGlyphs" text-decoration="underline" textLength="85" x="1530.2983" y="580.0151">DIMENSION: int</text><polygon fill="none" points="1521.2983,585.6094,1517.2983,591.6094,1525.2983,591.6094" style="stroke: #1963A0; stroke-width: 1.0;"/><text fill="#000000" font-family="sans-serif" font-size="11" lengthAdjust="spacingAndGlyphs" text-decoration="underline" textLength="125" x="1530.2983" y="592.8198">LIMITS: ClosedInterval</text><line style="stroke: #A80036; stroke-width: 1.5;" x1="1511.2983" x2="1828.2983" y1="599.4141" y2="599.4141"/><polygon fill="#4177AF" points="1521.2983,606.4141,1517.2983,612.4141,1525.2983,612.4141" style="stroke: #1963A0; stroke-width: 1.0;"/><text fill="#000000" font-family="sans-serif" font-size="11" lengthAdjust="spacingAndGlyphs" textLength="70" x="1530.2983" y="613.6245">Coordinate()</text><polygon fill="#4177AF" points="1521.2983,619.2188,1517.2983,625.2188,1525.2983,625.2188" style="stroke: #1963A0; stroke-width: 1.0;"/><text fill="#000000" font-family="sans-serif" font-size="11" lengthAdjust="spacingAndGlyphs" textLength="105" x="1530.2983" y="626.4292">Coordinate(int, int)</text><ellipse cx="1521.2983" cy="636.0234" fill="#84BE84" rx="3" ry="3" style="stroke: #038048; stroke-width: 1.0;"/><text fill="#000000" font-family="sans-serif" font-size="11" lengthAdjust="spacingAndGlyphs" textLength="91" x="1530.2983" y="639.2339">isNull(): boolean</text><ellipse cx="1521.2983" cy="648.8281" fill="#84BE84" rx="3" ry="3" style="stroke: #038048; stroke-width: 1.0;"/><text fill="#000000" font-family="sans-serif" font-size="11" lengthAdjust="spacingAndGlyphs" textLength="293" x="1530.2983" y="652.0386">getDirection(usantatecla.utils.Coordinate): Direction</text><ellipse cx="1521.2983" cy="661.6328" fill="#84BE84" rx="3" ry="3" style="stroke: #038048; stroke-width: 1.0;"/><text fill="#000000" font-family="sans-serif" font-size="11" lengthAdjust="spacingAndGlyphs" textLength="164" x="1530.2983" y="664.8433">inInverseDiagonal(): boolean</text><ellipse cx="1521.2983" cy="674.4375" fill="#84BE84" rx="3" ry="3" style="stroke: #038048; stroke-width: 1.0;"/><text fill="#000000" font-family="sans-serif" font-size="11" lengthAdjust="spacingAndGlyphs" textLength="67" x="1530.2983" y="677.6479">read(String)</text><ellipse cx="1521.2983" cy="687.2422" fill="#84BE84" rx="3" ry="3" style="stroke: #038048; stroke-width: 1.0;"/><text fill="#000000" font-family="sans-serif" font-size="11" lengthAdjust="spacingAndGlyphs" textLength="51" x="1530.2983" y="690.4526">random()</text><ellipse cx="1521.2983" cy="700.0469" fill="#84BE84" rx="3" ry="3" style="stroke: #038048; stroke-width: 1.0;"/><text fill="#000000" font-family="sans-serif" font-size="11" lengthAdjust="spacingAndGlyphs" textLength="136" x="1530.2983" y="703.2573">equals(Object): boolean</text><!--MD5=[8beb5b62c1db6d783dc0870514f68973]
class usantatecla.tictactoe.Error--><rect codeLine="32" fill="#FEFECE" filter="url(#f1skb3nt7y8km4)" height="163.2422" id="usantatecla.tictactoe.Error" style="stroke: #A80036; stroke-width: 1.5;" width="159" x="1264.2983" y="844.5"/><ellipse cx="1324.5483" cy="860.5" fill="#EB937F" rx="11" ry="11" style="stroke: #A80036; stroke-width: 1.0;"/><path d="M1323.3452,861.375 L1324.7983,861.375 L1324.7983,861.4844 C1324.7983,861.8906 1324.8296,862.0469 1324.9077,862.2031 C1325.0639,862.4531 1325.3452,862.6094 1325.6421,862.6094 C1325.8921,862.6094 1326.1577,862.4688 1326.3139,862.25 C1326.4389,862.0938 1326.4702,861.9375 1326.4702,861.4844 L1326.4702,859.5625 C1326.4702,859.4063 1326.4702,859.3594 1326.4546,859.2031 C1326.3921,858.7344 1326.0796,858.4219 1325.6264,858.4219 C1325.3764,858.4219 1325.1108,858.5625 1324.9389,858.7813 C1324.8296,858.9531 1324.7983,859.1094 1324.7983,859.5625 L1324.7983,859.6875 L1323.3452,859.6875 L1323.3452,857.2813 L1327.3296,857.2813 L1327.3296,858.1406 C1327.3296,858.5469 1327.3608,858.7188 1327.4389,858.875 C1327.6108,859.125 1327.8921,859.2813 1328.1733,859.2813 C1328.4389,859.2813 1328.7046,859.1406 1328.8764,858.9219 C1328.9858,858.75 1329.0171,858.6094 1329.0171,858.1406 L1329.0171,855.5938 L1321.3921,855.5938 C1320.9546,855.5938 1320.8296,855.6094 1320.6733,855.7031 C1320.4233,855.8594 1320.2671,856.1563 1320.2671,856.4375 C1320.2671,856.7188 1320.4077,856.9688 1320.6264,857.1406 C1320.7827,857.25 1320.9702,857.2813 1321.3921,857.2813 L1321.6421,857.2813 L1321.6421,863.7969 L1321.3921,863.7969 C1320.9858,863.7969 1320.8296,863.8125 1320.6733,863.9219 C1320.4233,864.0938 1320.2671,864.3594 1320.2671,864.6563 C1320.2671,864.9219 1320.4077,865.1719 1320.6264,865.3281 C1320.7671,865.4531 1321.0014,865.5 1321.3921,865.5 L1329.3921,865.5 L1329.3921,862.9219 C1329.3921,862.4844 1329.3608,862.3438 1329.2827,862.1875 C1329.1108,861.9375 1328.8296,861.7813 1328.5483,861.7813 C1328.2827,861.7813 1328.0171,861.8906 1327.8452,862.1406 C1327.7358,862.2969 1327.7046,862.4375 1327.7046,862.9219 L1327.7046,863.7969 L1323.3452,863.7969 L1323.3452,861.375 Z "/><text fill="#000000" font-family="sans-serif" font-size="12" lengthAdjust="spacingAndGlyphs" textLength="30" x="1345.0483" y="864.6543">Error</text><line style="stroke: #A80036; stroke-width: 1.5;" x1="1265.2983" x2="1422.2983" y1="876.5" y2="876.5"/><ellipse cx="1275.2983" cy="887.5" fill="none" rx="3" ry="3" style="stroke: #038048; stroke-width: 1.0;"/><text fill="#000000" font-family="sans-serif" font-size="11" lengthAdjust="spacingAndGlyphs" textLength="66" x="1284.2983" y="890.7104">NOT_EMPTY</text><ellipse cx="1275.2983" cy="900.3047" fill="none" rx="3" ry="3" style="stroke: #038048; stroke-width: 1.0;"/><text fill="#000000" font-family="sans-serif" font-size="11" lengthAdjust="spacingAndGlyphs" textLength="72" x="1284.2983" y="903.5151">NOT_OWNER</text><ellipse cx="1275.2983" cy="913.1094" fill="none" rx="3" ry="3" style="stroke: #038048; stroke-width: 1.0;"/><text fill="#000000" font-family="sans-serif" font-size="11" lengthAdjust="spacingAndGlyphs" textLength="121" x="1284.2983" y="916.3198">SAME_COORDINATES</text><ellipse cx="1275.2983" cy="925.9141" fill="none" rx="3" ry="3" style="stroke: #038048; stroke-width: 1.0;"/><text fill="#000000" font-family="sans-serif" font-size="11" lengthAdjust="spacingAndGlyphs" textLength="133" x="1284.2983" y="929.1245">WRONG_COORDINATES</text><ellipse cx="1275.2983" cy="938.7188" fill="none" rx="3" ry="3" style="stroke: #038048; stroke-width: 1.0;"/><text fill="#000000" font-family="sans-serif" font-size="11" lengthAdjust="spacingAndGlyphs" textLength="28" x="1284.2983" y="941.9292">NULL</text><rect fill="none" height="6" style="stroke: #C82930; stroke-width: 1.0;" width="6" x="1272.2983" y="948.5234"/><text fill="#000000" font-family="sans-serif" font-size="11" lengthAdjust="spacingAndGlyphs" textLength="93" x="1284.2983" y="954.7339">message: String</text><line style="stroke: #A80036; stroke-width: 1.5;" x1="1265.2983" x2="1422.2983" y1="961.3281" y2="961.3281"/><polygon fill="#4177AF" points="1275.2983,968.3281,1271.2983,974.3281,1279.2983,974.3281" style="stroke: #1963A0; stroke-width: 1.0;"/><text fill="#000000" font-family="sans-serif" font-size="11" lengthAdjust="spacingAndGlyphs" textLength="34" x="1284.2983" y="975.5386">Error()</text><polygon fill="#4177AF" points="1275.2983,981.1328,1271.2983,987.1328,1279.2983,987.1328" style="stroke: #1963A0; stroke-width: 1.0;"/><text fill="#000000" font-family="sans-serif" font-size="11" lengthAdjust="spacingAndGlyphs" textLength="67" x="1284.2983" y="988.3433">Error(String)</text><polygon fill="#4177AF" points="1275.2983,993.9375,1271.2983,999.9375,1279.2983,999.9375" style="stroke: #1963A0; stroke-width: 1.0;"/><text fill="#000000" font-family="sans-serif" font-size="11" lengthAdjust="spacingAndGlyphs" textLength="46" x="1284.2983" y="1001.1479">writeln()</text><!--MD5=[d5e6390f4df0bed23d8acd31ee6bd19d]
class usantatecla.tictactoe.MachinePlayer--><rect codeLine="45" fill="#FEFECE" filter="url(#f1skb3nt7y8km4)" height="73.6094" id="usantatecla.tictactoe.MachinePlayer" style="stroke: #A80036; stroke-width: 1.5;" width="235" x="572.2983" y="889"/><ellipse cx="643.0483" cy="905" fill="#ADD1B2" rx="11" ry="11" style="stroke: #A80036; stroke-width: 1.0;"/><path d="M645.3921,900.6719 C644.4546,900.2344 643.8608,900.0938 642.9858,900.0938 C640.3608,900.0938 638.3608,902.1719 638.3608,904.8906 L638.3608,906.0156 C638.3608,908.5938 640.4702,910.4844 643.3608,910.4844 C644.5796,910.4844 645.7358,910.1875 646.4858,909.6406 C647.0639,909.2344 647.3921,908.7813 647.3921,908.3906 C647.3921,907.9375 647.0014,907.5469 646.5327,907.5469 C646.3139,907.5469 646.1108,907.625 645.9233,907.8125 C645.4702,908.2969 645.4702,908.2969 645.2827,908.3906 C644.8608,908.6563 644.1733,908.7813 643.4077,908.7813 C641.3608,908.7813 640.0639,907.6875 640.0639,905.9844 L640.0639,904.8906 C640.0639,903.1094 641.3139,901.7969 643.0483,901.7969 C643.6264,901.7969 644.2358,901.9531 644.7046,902.2031 C645.1889,902.4844 645.3608,902.7031 645.4546,903.1094 C645.5171,903.5156 645.5483,903.6406 645.6889,903.7656 C645.8296,903.9063 646.0639,904.0156 646.2827,904.0156 C646.5483,904.0156 646.8139,903.875 646.9858,903.6563 C647.0952,903.5 647.1264,903.3125 647.1264,902.8906 L647.1264,901.4688 C647.1264,901.0313 647.1108,900.9063 647.0171,900.75 C646.8608,900.4844 646.5796,900.3438 646.2827,900.3438 C645.9858,900.3438 645.7827,900.4375 645.5639,900.75 L645.3921,900.6719 Z "/><text fill="#000000" font-family="sans-serif" font-size="12" lengthAdjust="spacingAndGlyphs" textLength="85" x="663.5483" y="909.1543">MachinePlayer</text><line style="stroke: #A80036; stroke-width: 1.5;" x1="573.2983" x2="806.2983" y1="921" y2="921"/><line style="stroke: #A80036; stroke-width: 1.5;" x1="573.2983" x2="806.2983" y1="929" y2="929"/><polygon fill="#4177AF" points="583.2983,936,579.2983,942,587.2983,942" style="stroke: #1963A0; stroke-width: 1.0;"/><text fill="#000000" font-family="sans-serif" font-size="11" lengthAdjust="spacingAndGlyphs" textLength="165" x="592.2983" y="943.2104">MachinePlayer(Token, Board)</text><polygon fill="#4177AF" points="583.2983,948.8047,579.2983,954.8047,587.2983,954.8047" style="stroke: #1963A0; stroke-width: 1.0;"/><text fill="#000000" font-family="sans-serif" font-size="11" lengthAdjust="spacingAndGlyphs" textLength="209" x="592.2983" y="956.0151">getCoordinate(Message): Coordinate</text><!--MD5=[ab82296a7d93ea792c7bfd4e9ca759e8]
class usantatecla.tictactoe.Message--><rect codeLine="50" fill="#FEFECE" filter="url(#f1skb3nt7y8km4)" height="278.4844" id="usantatecla.tictactoe.Message" style="stroke: #A80036; stroke-width: 1.5;" width="218" x="1458.7983" y="787"/><ellipse cx="1536.0483" cy="803" fill="#EB937F" rx="11" ry="11" style="stroke: #A80036; stroke-width: 1.0;"/><path d="M1534.8452,803.875 L1536.2983,803.875 L1536.2983,803.9844 C1536.2983,804.3906 1536.3296,804.5469 1536.4077,804.7031 C1536.5639,804.9531 1536.8452,805.1094 1537.1421,805.1094 C1537.3921,805.1094 1537.6577,804.9688 1537.8139,804.75 C1537.9389,804.5938 1537.9702,804.4375 1537.9702,803.9844 L1537.9702,802.0625 C1537.9702,801.9063 1537.9702,801.8594 1537.9546,801.7031 C1537.8921,801.2344 1537.5796,800.9219 1537.1264,800.9219 C1536.8764,800.9219 1536.6108,801.0625 1536.4389,801.2813 C1536.3296,801.4531 1536.2983,801.6094 1536.2983,802.0625 L1536.2983,802.1875 L1534.8452,802.1875 L1534.8452,799.7813 L1538.8296,799.7813 L1538.8296,800.6406 C1538.8296,801.0469 1538.8608,801.2188 1538.9389,801.375 C1539.1108,801.625 1539.3921,801.7813 1539.6733,801.7813 C1539.9389,801.7813 1540.2046,801.6406 1540.3764,801.4219 C1540.4858,801.25 1540.5171,801.1094 1540.5171,800.6406 L1540.5171,798.0938 L1532.8921,798.0938 C1532.4546,798.0938 1532.3296,798.1094 1532.1733,798.2031 C1531.9233,798.3594 1531.7671,798.6563 1531.7671,798.9375 C1531.7671,799.2188 1531.9077,799.4688 1532.1264,799.6406 C1532.2827,799.75 1532.4702,799.7813 1532.8921,799.7813 L1533.1421,799.7813 L1533.1421,806.2969 L1532.8921,806.2969 C1532.4858,806.2969 1532.3296,806.3125 1532.1733,806.4219 C1531.9233,806.5938 1531.7671,806.8594 1531.7671,807.1563 C1531.7671,807.4219 1531.9077,807.6719 1532.1264,807.8281 C1532.2671,807.9531 1532.5014,808 1532.8921,808 L1540.8921,808 L1540.8921,805.4219 C1540.8921,804.9844 1540.8608,804.8438 1540.7827,804.6875 C1540.6108,804.4375 1540.3296,804.2813 1540.0483,804.2813 C1539.7827,804.2813 1539.5171,804.3906 1539.3452,804.6406 C1539.2358,804.7969 1539.2046,804.9375 1539.2046,805.4219 L1539.2046,806.2969 L1534.8452,806.2969 L1534.8452,803.875 Z "/><text fill="#000000" font-family="sans-serif" font-size="12" lengthAdjust="spacingAndGlyphs" textLength="55" x="1556.5483" y="807.1543">Message</text><line style="stroke: #A80036; stroke-width: 1.5;" x1="1459.7983" x2="1675.7983" y1="819" y2="819"/><ellipse cx="1469.7983" cy="830" fill="none" rx="3" ry="3" style="stroke: #038048; stroke-width: 1.0;"/><text fill="#000000" font-family="sans-serif" font-size="11" lengthAdjust="spacingAndGlyphs" textLength="37" x="1478.7983" y="833.2104">TITTLE</text><ellipse cx="1469.7983" cy="842.8047" fill="none" rx="3" ry="3" style="stroke: #038048; stroke-width: 1.0;"/><text fill="#000000" font-family="sans-serif" font-size="11" lengthAdjust="spacingAndGlyphs" textLength="102" x="1478.7983" y="846.0151">NUMBER_PLAYERS</text><ellipse cx="1469.7983" cy="855.6094" fill="none" rx="3" ry="3" style="stroke: #038048; stroke-width: 1.0;"/><text fill="#000000" font-family="sans-serif" font-size="11" lengthAdjust="spacingAndGlyphs" textLength="67" x="1478.7983" y="858.8198">SEPARATOR</text><ellipse cx="1469.7983" cy="868.4141" fill="none" rx="3" ry="3" style="stroke: #038048; stroke-width: 1.0;"/><text fill="#000000" font-family="sans-serif" font-size="11" lengthAdjust="spacingAndGlyphs" textLength="116" x="1478.7983" y="871.6245">VERTICAL_LINE_LEFT</text><ellipse cx="1469.7983" cy="881.2188" fill="none" rx="3" ry="3" style="stroke: #038048; stroke-width: 1.0;"/><text fill="#000000" font-family="sans-serif" font-size="11" lengthAdjust="spacingAndGlyphs" textLength="150" x="1478.7983" y="884.4292">VERTICAL_LINE_CENTERED</text><ellipse cx="1469.7983" cy="894.0234" fill="none" rx="3" ry="3" style="stroke: #038048; stroke-width: 1.0;"/><text fill="#000000" font-family="sans-serif" font-size="11" lengthAdjust="spacingAndGlyphs" textLength="124" x="1478.7983" y="897.2339">VERTICAL_LINE_RIGHT</text><ellipse cx="1469.7983" cy="906.8281" fill="none" rx="3" ry="3" style="stroke: #038048; stroke-width: 1.0;"/><text fill="#000000" font-family="sans-serif" font-size="11" lengthAdjust="spacingAndGlyphs" textLength="166" x="1478.7983" y="910.0386">ENTER_COORDINATE_TO_PUT</text><ellipse cx="1469.7983" cy="919.6328" fill="none" rx="3" ry="3" style="stroke: #038048; stroke-width: 1.0;"/><text fill="#000000" font-family="sans-serif" font-size="11" lengthAdjust="spacingAndGlyphs" textLength="192" x="1478.7983" y="922.8433">ENTER_COORDINATE_TO_REMOVE</text><ellipse cx="1469.7983" cy="932.4375" fill="none" rx="3" ry="3" style="stroke: #038048; stroke-width: 1.0;"/><text fill="#000000" font-family="sans-serif" font-size="11" lengthAdjust="spacingAndGlyphs" textLength="124" x="1478.7983" y="935.6479">COORDINATE_TO_PUT</text><ellipse cx="1469.7983" cy="945.2422" fill="none" rx="3" ry="3" style="stroke: #038048; stroke-width: 1.0;"/><text fill="#000000" font-family="sans-serif" font-size="11" lengthAdjust="spacingAndGlyphs" textLength="150" x="1478.7983" y="948.4526">COORDINATE_TO_REMOVE</text><ellipse cx="1469.7983" cy="958.0469" fill="none" rx="3" ry="3" style="stroke: #038048; stroke-width: 1.0;"/><text fill="#000000" font-family="sans-serif" font-size="11" lengthAdjust="spacingAndGlyphs" textLength="136" x="1478.7983" y="961.2573">COORDINATE_TO_MOVE</text><ellipse cx="1469.7983" cy="970.8516" fill="none" rx="3" ry="3" style="stroke: #038048; stroke-width: 1.0;"/><text fill="#000000" font-family="sans-serif" font-size="11" lengthAdjust="spacingAndGlyphs" textLength="69" x="1478.7983" y="974.062">PLAYER_WIN</text><ellipse cx="1469.7983" cy="983.6563" fill="none" rx="3" ry="3" style="stroke: #038048; stroke-width: 1.0;"/><text fill="#000000" font-family="sans-serif" font-size="11" lengthAdjust="spacingAndGlyphs" textLength="46" x="1478.7983" y="986.8667">RESUME</text><rect fill="none" height="6" style="stroke: #C82930; stroke-width: 1.0;" width="6" x="1466.7983" y="993.4609"/><text fill="#000000" font-family="sans-serif" font-size="11" lengthAdjust="spacingAndGlyphs" textLength="93" x="1478.7983" y="999.6714">message: String</text><line style="stroke: #A80036; stroke-width: 1.5;" x1="1459.7983" x2="1675.7983" y1="1006.2656" y2="1006.2656"/><rect fill="#F24D5C" height="6" style="stroke: #C82930; stroke-width: 1.0;" width="6" x="1466.7983" y="1014.2656"/><text fill="#000000" font-family="sans-serif" font-size="11" lengthAdjust="spacingAndGlyphs" textLength="92" x="1478.7983" y="1020.4761">Message(String)</text><polygon fill="#4177AF" points="1469.7983,1026.0703,1465.7983,1032.0703,1473.7983,1032.0703" style="stroke: #1963A0; stroke-width: 1.0;"/><text fill="#000000" font-family="sans-serif" font-size="11" lengthAdjust="spacingAndGlyphs" textLength="36" x="1478.7983" y="1033.2808">write()</text><polygon fill="#4177AF" points="1469.7983,1038.875,1465.7983,1044.875,1473.7983,1044.875" style="stroke: #1963A0; stroke-width: 1.0;"/><text fill="#000000" font-family="sans-serif" font-size="11" lengthAdjust="spacingAndGlyphs" textLength="46" x="1478.7983" y="1046.0854">writeln()</text><ellipse cx="1469.7983" cy="1055.6797" fill="#84BE84" rx="3" ry="3" style="stroke: #038048; stroke-width: 1.0;"/><text fill="#000000" font-family="sans-serif" font-size="11" lengthAdjust="spacingAndGlyphs" textLength="92" x="1478.7983" y="1058.8901">toString(): String</text><!--MD5=[b455952d252d0eefae6035326d3db921]
class usantatecla.tictactoe.Player--><rect codeLine="72" fill="#FEFECE" filter="url(#f1skb3nt7y8km4)" height="188.8516" id="usantatecla.tictactoe.Player" style="stroke: #A80036; stroke-width: 1.5;" width="387" x="902.2983" y="521"/><ellipse cx="1073.5483" cy="537" fill="#A9DCDF" rx="11" ry="11" style="stroke: #A80036; stroke-width: 1.0;"/><path d="M1075.6264,538.8125 L1076.0171,539.7969 L1075.6264,539.7969 C1075.1733,539.7969 1075.0639,539.8125 1074.9077,539.9219 C1074.6577,540.0781 1074.5014,540.3594 1074.5014,540.6563 C1074.5014,540.9219 1074.6421,541.1719 1074.8608,541.3281 C1075.0014,541.4531 1075.2046,541.5 1075.6264,541.5 L1077.9858,541.5 C1078.3452,541.5 1078.5639,541.4688 1078.7046,541.375 C1078.9546,541.2344 1079.1108,540.9375 1079.1108,540.6563 C1079.1108,540.375 1078.9702,540.125 1078.7514,539.9688 C1078.5796,539.8281 1078.4233,539.7969 1077.9546,539.7969 L1074.5639,531.5938 L1070.8921,531.5938 C1070.4389,531.5938 1070.3139,531.6094 1070.1577,531.7031 C1069.9077,531.875 1069.7514,532.1563 1069.7514,532.4375 C1069.7514,532.7188 1069.8921,532.9688 1070.1108,533.1406 C1070.2827,533.25 1070.4546,533.2813 1070.8921,533.2813 L1071.9702,533.2813 L1069.3296,539.7969 C1068.9077,539.7969 1068.7514,539.8125 1068.5952,539.9219 C1068.3452,540.0781 1068.1889,540.3594 1068.1889,540.6563 C1068.1889,541.2188 1068.5639,541.5 1069.3139,541.5 L1071.5796,541.5 C1071.9389,541.5 1072.1577,541.4688 1072.2827,541.375 C1072.5483,541.2344 1072.6889,540.9375 1072.6889,540.6563 C1072.6889,540.375 1072.5639,540.125 1072.3452,539.9531 C1072.1733,539.8281 1072.0327,539.7969 1071.5796,539.7969 L1071.1889,539.7969 L1071.5796,538.8125 L1075.6264,538.8125 Z M1074.9233,537.1094 L1072.2514,537.1094 L1073.5952,533.8438 L1074.9233,537.1094 Z "/><text fill="#000000" font-family="sans-serif" font-size="12" font-style="italic" lengthAdjust="spacingAndGlyphs" textLength="36" x="1094.0483" y="541.1543">Player</text><line style="stroke: #A80036; stroke-width: 1.5;" x1="903.2983" x2="1288.2983" y1="553" y2="553"/><polygon fill="none" points="913.2983,560,909.2983,566,917.2983,566" style="stroke: #1963A0; stroke-width: 1.0;"/><text fill="#000000" font-family="sans-serif" font-size="11" lengthAdjust="spacingAndGlyphs" textLength="72" x="922.2983" y="567.2104">board: Board</text><line style="stroke: #A80036; stroke-width: 1.5;" x1="903.2983" x2="1288.2983" y1="573.8047" y2="573.8047"/><polygon fill="#4177AF" points="913.2983,580.8047,909.2983,586.8047,917.2983,586.8047" style="stroke: #1963A0; stroke-width: 1.0;"/><text fill="#000000" font-family="sans-serif" font-size="11" lengthAdjust="spacingAndGlyphs" textLength="118" x="922.2983" y="588.0151">Player(Token, Board)</text><polygon fill="#4177AF" points="913.2983,593.6094,909.2983,599.6094,917.2983,599.6094" style="stroke: #1963A0; stroke-width: 1.0;"/><text fill="#000000" font-family="sans-serif" font-size="11" lengthAdjust="spacingAndGlyphs" textLength="32" x="922.2983" y="600.8198">play()</text><rect fill="#F24D5C" height="6" style="stroke: #C82930; stroke-width: 1.0;" width="6" x="910.2983" y="607.4141"/><text fill="#000000" font-family="sans-serif" font-size="11" lengthAdjust="spacingAndGlyphs" textLength="26" x="922.2983" y="613.6245">put()</text><polygon fill="#4177AF" points="913.2983,619.2188,909.2983,625.2188,917.2983,625.2188" style="stroke: #1963A0; stroke-width: 1.0;"/><text fill="#000000" font-family="sans-serif" font-size="11" lengthAdjust="spacingAndGlyphs" textLength="258" x="922.2983" y="626.4292">abstract getCoordinate(Message): Coordinate</text><polygon fill="#4177AF" points="913.2983,632.0234,909.2983,638.0234,917.2983,638.0234" style="stroke: #1963A0; stroke-width: 1.0;"/><text fill="#000000" font-family="sans-serif" font-size="11" lengthAdjust="spacingAndGlyphs" textLength="241" x="922.2983" y="639.2339">checkPutCoordinateError(Coordinate): Error</text><rect fill="#F24D5C" height="6" style="stroke: #C82930; stroke-width: 1.0;" width="6" x="910.2983" y="645.8281"/><text fill="#000000" font-family="sans-serif" font-size="11" lengthAdjust="spacingAndGlyphs" textLength="41" x="922.2983" y="652.0386">move()</text><polygon fill="#4177AF" points="913.2983,657.6328,909.2983,663.6328,917.2983,663.6328" style="stroke: #1963A0; stroke-width: 1.0;"/><text fill="#000000" font-family="sans-serif" font-size="11" lengthAdjust="spacingAndGlyphs" textLength="288" x="922.2983" y="664.8433">checkMoveOriginCoordinateError(Coordinate): Error</text><polygon fill="#4177AF" points="913.2983,670.4375,909.2983,676.4375,917.2983,676.4375" style="stroke: #1963A0; stroke-width: 1.0;"/><text fill="#000000" font-family="sans-serif" font-size="11" lengthAdjust="spacingAndGlyphs" textLength="361" x="922.2983" y="677.6479">checkMoveTargetCoordinateError(Coordinate, Coordinate): Error</text><polygon fill="#4177AF" points="913.2983,683.2422,909.2983,689.2422,917.2983,689.2422" style="stroke: #1963A0; stroke-width: 1.0;"/><text fill="#000000" font-family="sans-serif" font-size="11" lengthAdjust="spacingAndGlyphs" textLength="76" x="922.2983" y="690.4526">writeWinner()</text><polygon fill="#4177AF" points="913.2983,696.0469,909.2983,702.0469,917.2983,702.0469" style="stroke: #1963A0; stroke-width: 1.0;"/><text fill="#000000" font-family="sans-serif" font-size="11" lengthAdjust="spacingAndGlyphs" textLength="104" x="922.2983" y="703.2573">getToken(): Token</text><!--MD5=[4b5d579ecc4748d1b21f2fd6d497d353]
class usantatecla.tictactoe.TicTacToe--><rect codeLine="86" fill="#FEFECE" filter="url(#f1skb3nt7y8km4)" height="112.0234" id="usantatecla.tictactoe.TicTacToe" style="stroke: #A80036; stroke-width: 1.5;" width="185" x="1215.2983" y="41"/><ellipse cx="1273.0483" cy="57" fill="#ADD1B2" rx="11" ry="11" style="stroke: #A80036; stroke-width: 1.0;"/><path d="M1275.3921,52.6719 C1274.4546,52.2344 1273.8608,52.0938 1272.9858,52.0938 C1270.3608,52.0938 1268.3608,54.1719 1268.3608,56.8906 L1268.3608,58.0156 C1268.3608,60.5938 1270.4702,62.4844 1273.3608,62.4844 C1274.5796,62.4844 1275.7358,62.1875 1276.4858,61.6406 C1277.0639,61.2344 1277.3921,60.7813 1277.3921,60.3906 C1277.3921,59.9375 1277.0014,59.5469 1276.5327,59.5469 C1276.3139,59.5469 1276.1108,59.625 1275.9233,59.8125 C1275.4702,60.2969 1275.4702,60.2969 1275.2827,60.3906 C1274.8608,60.6563 1274.1733,60.7813 1273.4077,60.7813 C1271.3608,60.7813 1270.0639,59.6875 1270.0639,57.9844 L1270.0639,56.8906 C1270.0639,55.1094 1271.3139,53.7969 1273.0483,53.7969 C1273.6264,53.7969 1274.2358,53.9531 1274.7046,54.2031 C1275.1889,54.4844 1275.3608,54.7031 1275.4546,55.1094 C1275.5171,55.5156 1275.5483,55.6406 1275.6889,55.7656 C1275.8296,55.9063 1276.0639,56.0156 1276.2827,56.0156 C1276.5483,56.0156 1276.8139,55.875 1276.9858,55.6563 C1277.0952,55.5 1277.1264,55.3125 1277.1264,54.8906 L1277.1264,53.4688 C1277.1264,53.0313 1277.1108,52.9063 1277.0171,52.75 C1276.8608,52.4844 1276.5796,52.3438 1276.2827,52.3438 C1275.9858,52.3438 1275.7827,52.4375 1275.5639,52.75 L1275.3921,52.6719 Z "/><text fill="#000000" font-family="sans-serif" font-size="12" lengthAdjust="spacingAndGlyphs" textLength="61" x="1293.5483" y="61.1543">TicTacToe</text><line style="stroke: #A80036; stroke-width: 1.5;" x1="1216.2983" x2="1399.2983" y1="73" y2="73"/><line style="stroke: #A80036; stroke-width: 1.5;" x1="1216.2983" x2="1399.2983" y1="81" y2="81"/><polygon fill="#4177AF" points="1226.2983,88,1222.2983,94,1230.2983,94" style="stroke: #1963A0; stroke-width: 1.0;"/><text fill="#000000" font-family="sans-serif" font-size="11" lengthAdjust="spacingAndGlyphs" textLength="66" x="1235.2983" y="95.2104">TicTacToe()</text><rect fill="#F24D5C" height="6" style="stroke: #C82930; stroke-width: 1.0;" width="6" x="1223.2983" y="101.8047"/><text fill="#000000" font-family="sans-serif" font-size="11" lengthAdjust="spacingAndGlyphs" textLength="32" x="1235.2983" y="108.0151">play()</text><rect fill="#F24D5C" height="6" style="stroke: #C82930; stroke-width: 1.0;" width="6" x="1223.2983" y="114.6094"/><text fill="#000000" font-family="sans-serif" font-size="11" lengthAdjust="spacingAndGlyphs" textLength="67" x="1235.2983" y="120.8198">playGame()</text><rect fill="#F24D5C" height="6" style="stroke: #C82930; stroke-width: 1.0;" width="6" x="1223.2983" y="127.4141"/><text fill="#000000" font-family="sans-serif" font-size="11" lengthAdjust="spacingAndGlyphs" textLength="159" x="1235.2983" y="133.6245">isResumedGame(): boolean</text><ellipse cx="1226.2983" cy="143.2188" fill="#84BE84" rx="3" ry="3" style="stroke: #038048; stroke-width: 1.0;"/><text fill="#000000" font-family="sans-serif" font-size="11" lengthAdjust="spacingAndGlyphs" text-decoration="underline" textLength="77" x="1235.2983" y="146.4292">main(String[])</text><!--MD5=[70d70054f98ac0881f23804484f4abda]
class usantatecla.tictactoe.Token--><rect codeLine="94" fill="#FEFECE" filter="url(#f1skb3nt7y8km4)" height="124.8281" id="usantatecla.tictactoe.Token" style="stroke: #A80036; stroke-width: 1.5;" width="117" x="1712.2983" y="863.5"/><ellipse cx="1748.8983" cy="879.5" fill="#EB937F" rx="11" ry="11" style="stroke: #A80036; stroke-width: 1.0;"/><path d="M1747.6952,880.375 L1749.1483,880.375 L1749.1483,880.4844 C1749.1483,880.8906 1749.1795,881.0469 1749.2577,881.2031 C1749.4139,881.4531 1749.6952,881.6094 1749.992,881.6094 C1750.242,881.6094 1750.5077,881.4688 1750.6639,881.25 C1750.7889,881.0938 1750.8202,880.9375 1750.8202,880.4844 L1750.8202,878.5625 C1750.8202,878.4063 1750.8202,878.3594 1750.8045,878.2031 C1750.742,877.7344 1750.4295,877.4219 1749.9764,877.4219 C1749.7264,877.4219 1749.4608,877.5625 1749.2889,877.7813 C1749.1795,877.9531 1749.1483,878.1094 1749.1483,878.5625 L1749.1483,878.6875 L1747.6952,878.6875 L1747.6952,876.2813 L1751.6795,876.2813 L1751.6795,877.1406 C1751.6795,877.5469 1751.7108,877.7188 1751.7889,877.875 C1751.9608,878.125 1752.242,878.2813 1752.5233,878.2813 C1752.7889,878.2813 1753.0545,878.1406 1753.2264,877.9219 C1753.3358,877.75 1753.367,877.6094 1753.367,877.1406 L1753.367,874.5938 L1745.742,874.5938 C1745.3045,874.5938 1745.1795,874.6094 1745.0233,874.7031 C1744.7733,874.8594 1744.617,875.1563 1744.617,875.4375 C1744.617,875.7188 1744.7577,875.9688 1744.9764,876.1406 C1745.1327,876.25 1745.3202,876.2813 1745.742,876.2813 L1745.992,876.2813 L1745.992,882.7969 L1745.742,882.7969 C1745.3358,882.7969 1745.1795,882.8125 1745.0233,882.9219 C1744.7733,883.0938 1744.617,883.3594 1744.617,883.6563 C1744.617,883.9219 1744.7577,884.1719 1744.9764,884.3281 C1745.117,884.4531 1745.3514,884.5 1745.742,884.5 L1753.742,884.5 L1753.742,881.9219 C1753.742,881.4844 1753.7108,881.3438 1753.6327,881.1875 C1753.4608,880.9375 1753.1795,880.7813 1752.8983,880.7813 C1752.6327,880.7813 1752.367,880.8906 1752.1952,881.1406 C1752.0858,881.2969 1752.0545,881.4375 1752.0545,881.9219 L1752.0545,882.7969 L1747.6952,882.7969 L1747.6952,880.375 Z "/><text fill="#000000" font-family="sans-serif" font-size="12" lengthAdjust="spacingAndGlyphs" textLength="37" x="1767.6983" y="883.6543">Token</text><line style="stroke: #A80036; stroke-width: 1.5;" x1="1713.2983" x2="1828.2983" y1="895.5" y2="895.5"/><ellipse cx="1723.2983" cy="906.5" fill="none" rx="3" ry="3" style="stroke: #038048; stroke-width: 1.0;"/><text fill="#000000" font-family="sans-serif" font-size="11" lengthAdjust="spacingAndGlyphs" textLength="52" x="1732.2983" y="909.7104">X_TOKEN</text><ellipse cx="1723.2983" cy="919.3047" fill="none" rx="3" ry="3" style="stroke: #038048; stroke-width: 1.0;"/><text fill="#000000" font-family="sans-serif" font-size="11" lengthAdjust="spacingAndGlyphs" textLength="51" x="1732.2983" y="922.5151">Y_TOKEN</text><ellipse cx="1723.2983" cy="932.1094" fill="none" rx="3" ry="3" style="stroke: #038048; stroke-width: 1.0;"/><text fill="#000000" font-family="sans-serif" font-size="11" lengthAdjust="spacingAndGlyphs" textLength="28" x="1732.2983" y="935.3198">NULL</text><line style="stroke: #A80036; stroke-width: 1.5;" x1="1713.2983" x2="1828.2983" y1="941.9141" y2="941.9141"/><ellipse cx="1723.2983" cy="952.9141" fill="#84BE84" rx="3" ry="3" style="stroke: #038048; stroke-width: 1.0;"/><text fill="#000000" font-family="sans-serif" font-size="11" lengthAdjust="spacingAndGlyphs" textLength="91" x="1732.2983" y="956.1245">isNull(): boolean</text><polygon fill="#4177AF" points="1723.2983,961.7188,1719.2983,967.7188,1727.2983,967.7188" style="stroke: #1963A0; stroke-width: 1.0;"/><text fill="#000000" font-family="sans-serif" font-size="11" lengthAdjust="spacingAndGlyphs" textLength="36" x="1732.2983" y="968.9292">write()</text><polygon fill="#4177AF" points="1723.2983,974.5234,1719.2983,980.5234,1727.2983,980.5234" style="stroke: #1963A0; stroke-width: 1.0;"/><text fill="#000000" font-family="sans-serif" font-size="11" lengthAdjust="spacingAndGlyphs" text-decoration="underline" textLength="83" x="1732.2983" y="981.7339">get(int): Token</text><!--MD5=[89d1a2b514c7103883fb14486df62cac]
class usantatecla.tictactoe.Turn--><rect codeLine="103" fill="#FEFECE" filter="url(#f1skb3nt7y8km4)" height="137.6328" id="usantatecla.tictactoe.Turn" style="stroke: #A80036; stroke-width: 1.5;" width="149" x="1177.2983" y="268"/><ellipse cx="1234.5483" cy="284" fill="#ADD1B2" rx="11" ry="11" style="stroke: #A80036; stroke-width: 1.0;"/><path d="M1236.8921,279.6719 C1235.9546,279.2344 1235.3608,279.0938 1234.4858,279.0938 C1231.8608,279.0938 1229.8608,281.1719 1229.8608,283.8906 L1229.8608,285.0156 C1229.8608,287.5938 1231.9702,289.4844 1234.8608,289.4844 C1236.0796,289.4844 1237.2358,289.1875 1237.9858,288.6406 C1238.5639,288.2344 1238.8921,287.7813 1238.8921,287.3906 C1238.8921,286.9375 1238.5014,286.5469 1238.0327,286.5469 C1237.8139,286.5469 1237.6108,286.625 1237.4233,286.8125 C1236.9702,287.2969 1236.9702,287.2969 1236.7827,287.3906 C1236.3608,287.6563 1235.6733,287.7813 1234.9077,287.7813 C1232.8608,287.7813 1231.5639,286.6875 1231.5639,284.9844 L1231.5639,283.8906 C1231.5639,282.1094 1232.8139,280.7969 1234.5483,280.7969 C1235.1264,280.7969 1235.7358,280.9531 1236.2046,281.2031 C1236.6889,281.4844 1236.8608,281.7031 1236.9546,282.1094 C1237.0171,282.5156 1237.0483,282.6406 1237.1889,282.7656 C1237.3296,282.9063 1237.5639,283.0156 1237.7827,283.0156 C1238.0483,283.0156 1238.3139,282.875 1238.4858,282.6563 C1238.5952,282.5 1238.6264,282.3125 1238.6264,281.8906 L1238.6264,280.4688 C1238.6264,280.0313 1238.6108,279.9063 1238.5171,279.75 C1238.3608,279.4844 1238.0796,279.3438 1237.7827,279.3438 C1237.4858,279.3438 1237.2827,279.4375 1237.0639,279.75 L1236.8921,279.6719 Z "/><text fill="#000000" font-family="sans-serif" font-size="12" lengthAdjust="spacingAndGlyphs" textLength="26" x="1255.0483" y="288.1543">Turn</text><line style="stroke: #A80036; stroke-width: 1.5;" x1="1178.2983" x2="1325.2983" y1="300" y2="300"/><polygon fill="none" points="1188.2983,307,1184.2983,313,1192.2983,313" style="stroke: #1963A0; stroke-width: 1.0;"/><text fill="#000000" font-family="sans-serif" font-size="11" lengthAdjust="spacingAndGlyphs" text-decoration="underline" textLength="123" x="1197.2983" y="314.2104">NUMBER_PLAYERS: int</text><rect fill="none" height="6" style="stroke: #C82930; stroke-width: 1.0;" width="6" x="1185.2983" y="320.8047"/><text fill="#000000" font-family="sans-serif" font-size="11" lengthAdjust="spacingAndGlyphs" textLength="56" x="1197.2983" y="327.0151">active: int</text><line style="stroke: #A80036; stroke-width: 1.5;" x1="1178.2983" x2="1325.2983" y1="333.6094" y2="333.6094"/><polygon fill="#4177AF" points="1188.2983,340.6094,1184.2983,346.6094,1192.2983,346.6094" style="stroke: #1963A0; stroke-width: 1.0;"/><text fill="#000000" font-family="sans-serif" font-size="11" lengthAdjust="spacingAndGlyphs" textLength="66" x="1197.2983" y="347.8198">Turn(Board)</text><polygon fill="#4177AF" points="1188.2983,353.4141,1184.2983,359.4141,1192.2983,359.4141" style="stroke: #1963A0; stroke-width: 1.0;"/><text fill="#000000" font-family="sans-serif" font-size="11" lengthAdjust="spacingAndGlyphs" textLength="32" x="1197.2983" y="360.6245">play()</text><rect fill="#F24D5C" height="6" style="stroke: #C82930; stroke-width: 1.0;" width="6" x="1185.2983" y="367.2188"/><text fill="#000000" font-family="sans-serif" font-size="11" lengthAdjust="spacingAndGlyphs" textLength="104" x="1197.2983" y="373.4292">getPlayer(): Player</text><polygon fill="#4177AF" points="1188.2983,379.0234,1184.2983,385.0234,1192.2983,385.0234" style="stroke: #1963A0; stroke-width: 1.0;"/><text fill="#000000" font-family="sans-serif" font-size="11" lengthAdjust="spacingAndGlyphs" textLength="76" x="1197.2983" y="386.2339">writeWinner()</text><polygon fill="#4177AF" points="1188.2983,391.8281,1184.2983,397.8281,1192.2983,397.8281" style="stroke: #1963A0; stroke-width: 1.0;"/><text fill="#000000" font-family="sans-serif" font-size="11" lengthAdjust="spacingAndGlyphs" textLength="104" x="1197.2983" y="399.0386">getToken(): Token</text><!--MD5=[d6372c72e2ccc5ff253d254b6fe719ff]
class usantatecla.tictactoe.UserPlayer--><rect codeLine="113" fill="#FEFECE" filter="url(#f1skb3nt7y8km4)" height="112.0234" id="usantatecla.tictactoe.UserPlayer" style="stroke: #A80036; stroke-width: 1.5;" width="387" x="842.2983" y="870"/><ellipse cx="999.0483" cy="886" fill="#ADD1B2" rx="11" ry="11" style="stroke: #A80036; stroke-width: 1.0;"/><path d="M1001.3921,881.6719 C1000.4546,881.2344 999.8608,881.0938 998.9858,881.0938 C996.3608,881.0938 994.3608,883.1719 994.3608,885.8906 L994.3608,887.0156 C994.3608,889.5938 996.4702,891.4844 999.3608,891.4844 C1000.5796,891.4844 1001.7358,891.1875 1002.4858,890.6406 C1003.0639,890.2344 1003.3921,889.7813 1003.3921,889.3906 C1003.3921,888.9375 1003.0014,888.5469 1002.5327,888.5469 C1002.3139,888.5469 1002.1108,888.625 1001.9233,888.8125 C1001.4702,889.2969 1001.4702,889.2969 1001.2827,889.3906 C1000.8608,889.6563 1000.1733,889.7813 999.4077,889.7813 C997.3608,889.7813 996.0639,888.6875 996.0639,886.9844 L996.0639,885.8906 C996.0639,884.1094 997.3139,882.7969 999.0483,882.7969 C999.6264,882.7969 1000.2358,882.9531 1000.7046,883.2031 C1001.1889,883.4844 1001.3608,883.7031 1001.4546,884.1094 C1001.5171,884.5156 1001.5483,884.6406 1001.6889,884.7656 C1001.8296,884.9063 1002.0639,885.0156 1002.2827,885.0156 C1002.5483,885.0156 1002.8139,884.875 1002.9858,884.6563 C1003.0952,884.5 1003.1264,884.3125 1003.1264,883.8906 L1003.1264,882.4688 C1003.1264,882.0313 1003.1108,881.9063 1003.0171,881.75 C1002.8608,881.4844 1002.5796,881.3438 1002.2827,881.3438 C1001.9858,881.3438 1001.7827,881.4375 1001.5639,881.75 L1001.3921,881.6719 Z "/><text fill="#000000" font-family="sans-serif" font-size="12" lengthAdjust="spacingAndGlyphs" textLength="65" x="1019.5483" y="890.1543">UserPlayer</text><line style="stroke: #A80036; stroke-width: 1.5;" x1="843.2983" x2="1228.2983" y1="902" y2="902"/><line style="stroke: #A80036; stroke-width: 1.5;" x1="843.2983" x2="1228.2983" y1="910" y2="910"/><polygon fill="#4177AF" points="853.2983,917,849.2983,923,857.2983,923" style="stroke: #1963A0; stroke-width: 1.0;"/><text fill="#000000" font-family="sans-serif" font-size="11" lengthAdjust="spacingAndGlyphs" textLength="144" x="862.2983" y="924.2104">UserPlayer(Token, Board)</text><polygon fill="#4177AF" points="853.2983,929.8047,849.2983,935.8047,857.2983,935.8047" style="stroke: #1963A0; stroke-width: 1.0;"/><text fill="#000000" font-family="sans-serif" font-size="11" lengthAdjust="spacingAndGlyphs" textLength="266" x="862.2983" y="937.0151">getCoordinate(Message message): Coordinate</text><polygon fill="#4177AF" points="853.2983,942.6094,849.2983,948.6094,857.2983,948.6094" style="stroke: #1963A0; stroke-width: 1.0;"/><text fill="#000000" font-family="sans-serif" font-size="11" lengthAdjust="spacingAndGlyphs" textLength="241" x="862.2983" y="949.8198">checkPutCoordinateError(Coordinate): Error</text><polygon fill="#4177AF" points="853.2983,955.4141,849.2983,961.4141,857.2983,961.4141" style="stroke: #1963A0; stroke-width: 1.0;"/><text fill="#000000" font-family="sans-serif" font-size="11" lengthAdjust="spacingAndGlyphs" textLength="288" x="862.2983" y="962.6245">checkMoveOriginCoordinateError(Coordinate): Error</text><polygon fill="#4177AF" points="853.2983,968.2188,849.2983,974.2188,857.2983,974.2188" style="stroke: #1963A0; stroke-width: 1.0;"/><text fill="#000000" font-family="sans-serif" font-size="11" lengthAdjust="spacingAndGlyphs" textLength="361" x="862.2983" y="975.4292">checkMoveTargetCoordinateError(Coordinate, Coordinate): Error</text><!--MD5=[4ac948797cb0d646e058fac8f0726737]
class ConcreteCoordinate--><rect codeLine="139" fill="#FEFECE" filter="url(#f1skb3nt7y8km4)" height="48" id="ConcreteCoordinate" style="stroke: #A80036; stroke-width: 1.5;" width="251" x="288.2983" y="313"/><ellipse cx="303.2983" cy="329" fill="#ADD1B2" rx="11" ry="11" style="stroke: #A80036; stroke-width: 1.0;"/><path d="M305.6421,324.6719 C304.7046,324.2344 304.1108,324.0938 303.2358,324.0938 C300.6108,324.0938 298.6108,326.1719 298.6108,328.8906 L298.6108,330.0156 C298.6108,332.5938 300.7202,334.4844 303.6108,334.4844 C304.8296,334.4844 305.9858,334.1875 306.7358,333.6406 C307.3139,333.2344 307.6421,332.7813 307.6421,332.3906 C307.6421,331.9375 307.2514,331.5469 306.7827,331.5469 C306.5639,331.5469 306.3608,331.625 306.1733,331.8125 C305.7202,332.2969 305.7202,332.2969 305.5327,332.3906 C305.1108,332.6563 304.4233,332.7813 303.6577,332.7813 C301.6108,332.7813 300.3139,331.6875 300.3139,329.9844 L300.3139,328.8906 C300.3139,327.1094 301.5639,325.7969 303.2983,325.7969 C303.8764,325.7969 304.4858,325.9531 304.9546,326.2031 C305.4389,326.4844 305.6108,326.7031 305.7046,327.1094 C305.7671,327.5156 305.7983,327.6406 305.9389,327.7656 C306.0796,327.9063 306.3139,328.0156 306.5327,328.0156 C306.7983,328.0156 307.0639,327.875 307.2358,327.6563 C307.3452,327.5 307.3764,327.3125 307.3764,326.8906 L307.3764,325.4688 C307.3764,325.0313 307.3608,324.9063 307.2671,324.75 C307.1108,324.4844 306.8296,324.3438 306.5327,324.3438 C306.2358,324.3438 306.0327,324.4375 305.8139,324.75 L305.6421,324.6719 Z "/><text fill="#000000" font-family="sans-serif" font-size="12" lengthAdjust="spacingAndGlyphs" textLength="219" x="317.2983" y="333.1543">usantatecla.utils.ConcreteCoordinate</text><line style="stroke: #A80036; stroke-width: 1.5;" x1="289.2983" x2="538.2983" y1="345" y2="345"/><line style="stroke: #A80036; stroke-width: 1.5;" x1="289.2983" x2="538.2983" y1="353" y2="353"/><!--MD5=[f0e50675208408ddbf1ed7a91f4eb071]
class ClosedInterval--><rect codeLine="143" fill="#FEFECE" filter="url(#f1skb3nt7y8km4)" height="48" id="ClosedInterval" style="stroke: #A80036; stroke-width: 1.5;" width="216" x="1662.7983" y="1128"/><ellipse cx="1677.7983" cy="1144" fill="#ADD1B2" rx="11" ry="11" style="stroke: #A80036; stroke-width: 1.0;"/><path d="M1680.1421,1139.6719 C1679.2046,1139.2344 1678.6108,1139.0938 1677.7358,1139.0938 C1675.1108,1139.0938 1673.1108,1141.1719 1673.1108,1143.8906 L1673.1108,1145.0156 C1673.1108,1147.5938 1675.2202,1149.4844 1678.1108,1149.4844 C1679.3296,1149.4844 1680.4858,1149.1875 1681.2358,1148.6406 C1681.8139,1148.2344 1682.1421,1147.7813 1682.1421,1147.3906 C1682.1421,1146.9375 1681.7514,1146.5469 1681.2827,1146.5469 C1681.0639,1146.5469 1680.8608,1146.625 1680.6733,1146.8125 C1680.2202,1147.2969 1680.2202,1147.2969 1680.0327,1147.3906 C1679.6108,1147.6563 1678.9233,1147.7813 1678.1577,1147.7813 C1676.1108,1147.7813 1674.8139,1146.6875 1674.8139,1144.9844 L1674.8139,1143.8906 C1674.8139,1142.1094 1676.0639,1140.7969 1677.7983,1140.7969 C1678.3764,1140.7969 1678.9858,1140.9531 1679.4546,1141.2031 C1679.9389,1141.4844 1680.1108,1141.7031 1680.2046,1142.1094 C1680.2671,1142.5156 1680.2983,1142.6406 1680.4389,1142.7656 C1680.5796,1142.9063 1680.8139,1143.0156 1681.0327,1143.0156 C1681.2983,1143.0156 1681.5639,1142.875 1681.7358,1142.6563 C1681.8452,1142.5 1681.8764,1142.3125 1681.8764,1141.8906 L1681.8764,1140.4688 C1681.8764,1140.0313 1681.8608,1139.9063 1681.7671,1139.75 C1681.6108,1139.4844 1681.3296,1139.3438 1681.0327,1139.3438 C1680.7358,1139.3438 1680.5327,1139.4375 1680.3139,1139.75 L1680.1421,1139.6719 Z "/><text fill="#000000" font-family="sans-serif" font-size="12" lengthAdjust="spacingAndGlyphs" textLength="184" x="1691.7983" y="1148.1543">usantatecla.utils.ClosedInterval</text><line style="stroke: #A80036; stroke-width: 1.5;" x1="1663.7983" x2="1877.7983" y1="1160" y2="1160"/><line style="stroke: #A80036; stroke-width: 1.5;" x1="1663.7983" x2="1877.7983" y1="1168" y2="1168"/><!--MD5=[315b61b427ec618d6861d47eee00cca3]
class Console--><rect codeLine="147" fill="#FEFECE" filter="url(#f1skb3nt7y8km4)" height="48" id="Console" style="stroke: #A80036; stroke-width: 1.5;" width="179" x="795.2983" y="1128"/><ellipse cx="810.2983" cy="1144" fill="#ADD1B2" rx="11" ry="11" style="stroke: #A80036; stroke-width: 1.0;"/><path d="M812.6421,1139.6719 C811.7046,1139.2344 811.1108,1139.0938 810.2358,1139.0938 C807.6108,1139.0938 805.6108,1141.1719 805.6108,1143.8906 L805.6108,1145.0156 C805.6108,1147.5938 807.7202,1149.4844 810.6108,1149.4844 C811.8296,1149.4844 812.9858,1149.1875 813.7358,1148.6406 C814.3139,1148.2344 814.6421,1147.7813 814.6421,1147.3906 C814.6421,1146.9375 814.2514,1146.5469 813.7827,1146.5469 C813.5639,1146.5469 813.3608,1146.625 813.1733,1146.8125 C812.7202,1147.2969 812.7202,1147.2969 812.5327,1147.3906 C812.1108,1147.6563 811.4233,1147.7813 810.6577,1147.7813 C808.6108,1147.7813 807.3139,1146.6875 807.3139,1144.9844 L807.3139,1143.8906 C807.3139,1142.1094 808.5639,1140.7969 810.2983,1140.7969 C810.8764,1140.7969 811.4858,1140.9531 811.9546,1141.2031 C812.4389,1141.4844 812.6108,1141.7031 812.7046,1142.1094 C812.7671,1142.5156 812.7983,1142.6406 812.9389,1142.7656 C813.0796,1142.9063 813.3139,1143.0156 813.5327,1143.0156 C813.7983,1143.0156 814.0639,1142.875 814.2358,1142.6563 C814.3452,1142.5 814.3764,1142.3125 814.3764,1141.8906 L814.3764,1140.4688 C814.3764,1140.0313 814.3608,1139.9063 814.2671,1139.75 C814.1108,1139.4844 813.8296,1139.3438 813.5327,1139.3438 C813.2358,1139.3438 813.0327,1139.4375 812.8139,1139.75 L812.6421,1139.6719 Z "/><text fill="#000000" font-family="sans-serif" font-size="12" lengthAdjust="spacingAndGlyphs" textLength="147" x="824.2983" y="1148.1543">usantatecla.utils.Console</text><line style="stroke: #A80036; stroke-width: 1.5;" x1="796.2983" x2="973.2983" y1="1160" y2="1160"/><line style="stroke: #A80036; stroke-width: 1.5;" x1="796.2983" x2="973.2983" y1="1168" y2="1168"/><!--MD5=[58767b3ac92ed88fc68bd4b9dc66dad3]
class LimitedIntDialog--><rect codeLine="151" fill="#FEFECE" filter="url(#f1skb3nt7y8km4)" height="48" id="LimitedIntDialog" style="stroke: #A80036; stroke-width: 1.5;" width="225" x="312.2983" y="902"/><ellipse cx="327.2983" cy="918" fill="#ADD1B2" rx="11" ry="11" style="stroke: #A80036; stroke-width: 1.0;"/><path d="M329.6421,913.6719 C328.7046,913.2344 328.1108,913.0938 327.2358,913.0938 C324.6108,913.0938 322.6108,915.1719 322.6108,917.8906 L322.6108,919.0156 C322.6108,921.5938 324.7202,923.4844 327.6108,923.4844 C328.8296,923.4844 329.9858,923.1875 330.7358,922.6406 C331.3139,922.2344 331.6421,921.7813 331.6421,921.3906 C331.6421,920.9375 331.2514,920.5469 330.7827,920.5469 C330.5639,920.5469 330.3608,920.625 330.1733,920.8125 C329.7202,921.2969 329.7202,921.2969 329.5327,921.3906 C329.1108,921.6563 328.4233,921.7813 327.6577,921.7813 C325.6108,921.7813 324.3139,920.6875 324.3139,918.9844 L324.3139,917.8906 C324.3139,916.1094 325.5639,914.7969 327.2983,914.7969 C327.8764,914.7969 328.4858,914.9531 328.9546,915.2031 C329.4389,915.4844 329.6108,915.7031 329.7046,916.1094 C329.7671,916.5156 329.7983,916.6406 329.9389,916.7656 C330.0796,916.9063 330.3139,917.0156 330.5327,917.0156 C330.7983,917.0156 331.0639,916.875 331.2358,916.6563 C331.3452,916.5 331.3764,916.3125 331.3764,915.8906 L331.3764,914.4688 C331.3764,914.0313 331.3608,913.9063 331.2671,913.75 C331.1108,913.4844 330.8296,913.3438 330.5327,913.3438 C330.2358,913.3438 330.0327,913.4375 329.8139,913.75 L329.6421,913.6719 Z "/><text fill="#000000" font-family="sans-serif" font-size="12" lengthAdjust="spacingAndGlyphs" textLength="193" x="341.2983" y="922.1543">usantatecla.utils.LimitedIntDialog</text><line style="stroke: #A80036; stroke-width: 1.5;" x1="313.2983" x2="536.2983" y1="934" y2="934"/><line style="stroke: #A80036; stroke-width: 1.5;" x1="313.2983" x2="536.2983" y1="942" y2="942"/><!--MD5=[d93cf99d2b92276f27fe8dbf15140505]
class YesNoDialog--><rect codeLine="155" fill="#FEFECE" filter="url(#f1skb3nt7y8km4)" height="48" id="YesNoDialog" style="stroke: #A80036; stroke-width: 1.5;" width="206" x="46.7983" y="313"/><ellipse cx="61.7983" cy="329" fill="#ADD1B2" rx="11" ry="11" style="stroke: #A80036; stroke-width: 1.0;"/><path d="M64.1421,324.6719 C63.2046,324.2344 62.6108,324.0938 61.7358,324.0938 C59.1108,324.0938 57.1108,326.1719 57.1108,328.8906 L57.1108,330.0156 C57.1108,332.5938 59.2202,334.4844 62.1108,334.4844 C63.3296,334.4844 64.4858,334.1875 65.2358,333.6406 C65.8139,333.2344 66.1421,332.7813 66.1421,332.3906 C66.1421,331.9375 65.7514,331.5469 65.2827,331.5469 C65.0639,331.5469 64.8608,331.625 64.6733,331.8125 C64.2202,332.2969 64.2202,332.2969 64.0327,332.3906 C63.6108,332.6563 62.9233,332.7813 62.1577,332.7813 C60.1108,332.7813 58.8139,331.6875 58.8139,329.9844 L58.8139,328.8906 C58.8139,327.1094 60.0639,325.7969 61.7983,325.7969 C62.3764,325.7969 62.9858,325.9531 63.4546,326.2031 C63.9389,326.4844 64.1108,326.7031 64.2046,327.1094 C64.2671,327.5156 64.2983,327.6406 64.4389,327.7656 C64.5796,327.9063 64.8139,328.0156 65.0327,328.0156 C65.2983,328.0156 65.5639,327.875 65.7358,327.6563 C65.8452,327.5 65.8764,327.3125 65.8764,326.8906 L65.8764,325.4688 C65.8764,325.0313 65.8608,324.9063 65.7671,324.75 C65.6108,324.4844 65.3296,324.3438 65.0327,324.3438 C64.7358,324.3438 64.5327,324.4375 64.3139,324.75 L64.1421,324.6719 Z "/><text fill="#000000" font-family="sans-serif" font-size="12" lengthAdjust="spacingAndGlyphs" textLength="174" x="75.7983" y="333.1543">usantatecla.utils.YesNoDialog</text><line style="stroke: #A80036; stroke-width: 1.5;" x1="47.7983" x2="251.7983" y1="345" y2="345"/><line style="stroke: #A80036; stroke-width: 1.5;" x1="47.7983" x2="251.7983" y1="353" y2="353"/><!--MD5=[02f7077ed79257124e28b791f351f1d7]
class Direction--><rect codeLine="159" fill="#FEFECE" filter="url(#f1skb3nt7y8km4)" height="48" id="Direction" style="stroke: #A80036; stroke-width: 1.5;" width="184" x="1935.7983" y="902"/><ellipse cx="1950.7983" cy="918" fill="#EB937F" rx="11" ry="11" style="stroke: #A80036; stroke-width: 1.0;"/><path d="M1949.5952,918.875 L1951.0483,918.875 L1951.0483,918.9844 C1951.0483,919.3906 1951.0796,919.5469 1951.1577,919.7031 C1951.3139,919.9531 1951.5952,920.1094 1951.8921,920.1094 C1952.1421,920.1094 1952.4077,919.9688 1952.5639,919.75 C1952.6889,919.5938 1952.7202,919.4375 1952.7202,918.9844 L1952.7202,917.0625 C1952.7202,916.9063 1952.7202,916.8594 1952.7046,916.7031 C1952.6421,916.2344 1952.3296,915.9219 1951.8764,915.9219 C1951.6264,915.9219 1951.3608,916.0625 1951.1889,916.2813 C1951.0796,916.4531 1951.0483,916.6094 1951.0483,917.0625 L1951.0483,917.1875 L1949.5952,917.1875 L1949.5952,914.7813 L1953.5796,914.7813 L1953.5796,915.6406 C1953.5796,916.0469 1953.6108,916.2188 1953.6889,916.375 C1953.8608,916.625 1954.1421,916.7813 1954.4233,916.7813 C1954.6889,916.7813 1954.9546,916.6406 1955.1264,916.4219 C1955.2358,916.25 1955.2671,916.1094 1955.2671,915.6406 L1955.2671,913.0938 L1947.6421,913.0938 C1947.2046,913.0938 1947.0796,913.1094 1946.9233,913.2031 C1946.6733,913.3594 1946.5171,913.6563 1946.5171,913.9375 C1946.5171,914.2188 1946.6577,914.4688 1946.8764,914.6406 C1947.0327,914.75 1947.2202,914.7813 1947.6421,914.7813 L1947.8921,914.7813 L1947.8921,921.2969 L1947.6421,921.2969 C1947.2358,921.2969 1947.0796,921.3125 1946.9233,921.4219 C1946.6733,921.5938 1946.5171,921.8594 1946.5171,922.1563 C1946.5171,922.4219 1946.6577,922.6719 1946.8764,922.8281 C1947.0171,922.9531 1947.2514,923 1947.6421,923 L1955.6421,923 L1955.6421,920.4219 C1955.6421,919.9844 1955.6108,919.8438 1955.5327,919.6875 C1955.3608,919.4375 1955.0796,919.2813 1954.7983,919.2813 C1954.5327,919.2813 1954.2671,919.3906 1954.0952,919.6406 C1953.9858,919.7969 1953.9546,919.9375 1953.9546,920.4219 L1953.9546,921.2969 L1949.5952,921.2969 L1949.5952,918.875 Z "/><text fill="#000000" font-family="sans-serif" font-size="12" lengthAdjust="spacingAndGlyphs" textLength="152" x="1964.7983" y="922.1543">usantatecla.utils.Direction</text><line style="stroke: #A80036; stroke-width: 1.5;" x1="1936.7983" x2="2118.7983" y1="934" y2="934"/><line style="stroke: #A80036; stroke-width: 1.5;" x1="1936.7983" x2="2118.7983" y1="942" y2="942"/><!--MD5=[8c7d7abc12e214c3cc12c9ab70edee11]
class Coordinate--><rect codeLine="163" fill="#FEFECE" filter="url(#f1skb3nt7y8km4)" height="48" id="Coordinate" style="stroke: #A80036; stroke-width: 1.5;" width="200" x="1864.7983" y="591.5"/><ellipse cx="1879.7983" cy="607.5" fill="#B4A7E5" rx="11" ry="11" style="stroke: #A80036; stroke-width: 1.0;"/><path d="M1880.7514,604.2813 L1882.4702,604.2813 C1882.8608,604.2813 1883.0483,604.25 1883.1733,604.1719 C1883.4389,604.0156 1883.5796,603.7344 1883.5796,603.4375 C1883.5796,603.1719 1883.4702,602.9063 1883.2358,602.7344 C1883.0639,602.625 1882.9233,602.5938 1882.4702,602.5938 L1877.3296,602.5938 C1876.8921,602.5938 1876.7671,602.6094 1876.6108,602.7031 C1876.3608,602.8594 1876.2046,603.1563 1876.2046,603.4375 C1876.2046,603.7188 1876.3452,603.9688 1876.5639,604.1406 C1876.7202,604.25 1876.9077,604.2813 1877.3296,604.2813 L1879.0483,604.2813 L1879.0483,610.7969 L1877.3296,610.7969 C1876.8921,610.7969 1876.7671,610.8125 1876.6108,610.9219 C1876.3608,611.0781 1876.2046,611.3594 1876.2046,611.6563 C1876.2046,611.9063 1876.3452,612.1719 1876.5639,612.3281 C1876.7202,612.4531 1876.9233,612.5 1877.3296,612.5 L1882.4702,612.5 C1883.2202,612.5 1883.5796,612.2188 1883.5796,611.6563 C1883.5796,611.375 1883.4702,611.125 1883.2358,610.9531 C1883.0639,610.8281 1882.9233,610.7969 1882.4702,610.7969 L1880.7514,610.7969 L1880.7514,604.2813 Z "/><text fill="#000000" font-family="sans-serif" font-size="12" font-style="italic" lengthAdjust="spacingAndGlyphs" textLength="168" x="1893.7983" y="611.6543">usantatecla.utils.Coordinate</text><line style="stroke: #A80036; stroke-width: 1.5;" x1="1865.7983" x2="2063.7983" y1="623.5" y2="623.5"/><line style="stroke: #A80036; stroke-width: 1.5;" x1="1865.7983" x2="2063.7983" y1="631.5" y2="631.5"/><!--MD5=[9054d1d596f71892773aeee04ca59ea9]
reverse link usantatecla.tictactoe.Player to usantatecla.tictactoe.UserPlayer--><path d="M1073.7283,729.997 C1064.4483,777.666 1054.0983,830.929 1046.5483,869.728 " fill="none" id="usantatecla.tictactoe.Player-backto-usantatecla.tictactoe.UserPlayer" style="stroke: #A80036; stroke-width: 1.0;"/><polygon fill="none" points="1066.8583,728.612,1077.5483,710.317,1080.6083,731.285,1066.8583,728.612" style="stroke: #A80036; stroke-width: 1.0;"/><!--MD5=[f55dc4ca1029546e2cc70a6003711be1]
link usantatecla.tictactoe.TicTacToe to usantatecla.tictactoe.Board--><path codeLine="121" d="M1367.4785,161.9705 C1367.4785,161.9705 1403.2283,200.304 1421.5783,219.977 " fill="none" id="usantatecla.tictactoe.TicTacToe-usantatecla.tictactoe.Board" style="stroke: #A80036; stroke-width: 1.0;"/><polygon fill="#A80036" points="1430.5683,229.617,1427.3584,220.3059,1427.1594,225.9593,1421.506,225.7602,1430.5683,229.617" style="stroke: #A80036; stroke-width: 1.0;"/><line style="stroke: #A80036; stroke-width: 1.0;" x1="1427.1594" x2="1421.6983" y1="225.9593" y2="220.1105"/><polygon fill="#A80036" points="1359.2883,153.2,1360.4599,160.3153,1367.4785,161.9705,1366.3069,154.8552,1359.2883,153.2" style="stroke: #A80036; stroke-width: 1.0;"/><text fill="#000000" font-family="sans-serif" font-size="13" lengthAdjust="spacingAndGlyphs" textLength="37" x="1400.7983" y="196.0669">board</text><!--MD5=[ce283d8c110a506040c2dd735ef47160]
link usantatecla.tictactoe.TicTacToe to usantatecla.tictactoe.Turn--><path codeLine="122" d="M1292.0503,164.8788 C1292.0503,164.8788 1277.6883,225.981 1270.8783,254.896 " fill="none" id="usantatecla.tictactoe.TicTacToe-usantatecla.tictactoe.Turn" style="stroke: #A80036; stroke-width: 1.0;"/><polygon fill="#A80036" points="1267.8183,267.918,1273.7727,260.073,1268.9631,263.0508,1265.9853,258.2412,1267.8183,267.918" style="stroke: #A80036; stroke-width: 1.0;"/><line style="stroke: #A80036; stroke-width: 1.0;" x1="1268.9631" x2="1270.7983" y1="263.0508" y2="255.264"/><polygon fill="#A80036" points="1294.8083,153.2,1289.5364,158.12,1292.0503,164.8788,1297.3222,159.9587,1294.8083,153.2" style="stroke: #A80036; stroke-width: 1.0;"/><text fill="#000000" font-family="sans-serif" font-size="13" lengthAdjust="spacingAndGlyphs" textLength="26" x="1287.7983" y="196.0669">turn</text><!--MD5=[8842675a9ea127b9dcc7c26c260f87ba]
link usantatecla.tictactoe.Board to usantatecla.tictactoe.Token--><path codeLine="124" d="M1484.6083,444.259 C1458.2883,524.168 1439.6483,632.729 1492.7983,710 C1547.0083,788.821 1621.4883,724.364 1693.7983,787 C1715.9583,806.194 1733.0283,833.406 1745.4083,858.599 " fill="none" id="usantatecla.tictactoe.Board-to-usantatecla.tictactoe.Token" style="stroke: #A80036; stroke-width: 1.0; stroke-dasharray: 7.0,7.0;"/><polygon fill="#A80036" points="1747.6583,863.277,1747.3495,853.433,1745.4854,858.7739,1740.1445,856.9097,1747.6583,863.277" style="stroke: #A80036; stroke-width: 1.0;"/><!--MD5=[d113ddce6fd1895c2fc1e379d25bb267]
link usantatecla.tictactoe.Turn to usantatecla.tictactoe.Token--><path codeLine="125" d="M1276.9583,406.297 C1308.6283,485.698 1368.9483,617.635 1450.7983,710 C1474.9183,737.222 1484.1583,743.162 1517.7983,757 C1591.1783,787.189 1628.9983,741.196 1693.7983,787 C1718.3683,804.369 1736.0183,832.184 1748.1683,858.307 " fill="none" id="usantatecla.tictactoe.Turn-to-usantatecla.tictactoe.Token" style="stroke: #A80036; stroke-width: 1.0; stroke-dasharray: 7.0,7.0;"/><polygon fill="#A80036" points="1750.3783,863.162,1750.3032,853.3134,1748.3128,858.6086,1743.0177,856.6182,1750.3783,863.162" style="stroke: #A80036; stroke-width: 1.0;"/><!--MD5=[da9e0b814734f6fa908ce67941f7afa7]
link usantatecla.tictactoe.Player to usantatecla.tictactoe.Token--><path codeLine="126" d="M1296.6661,714.6282 C1296.6661,714.6282 1379.3783,746.287 1419.7983,757 C1479.0083,772.694 1642.7483,753.153 1693.7983,787 C1716.8883,802.308 1733.7383,827.011 1745.6883,851.314 " fill="none" id="usantatecla.tictactoe.Player-usantatecla.tictactoe.Token" style="stroke: #A80036; stroke-width: 1.0;"/><polygon fill="#A80036" points="1751.1683,863.171,1751.0305,853.3231,1749.0739,858.6308,1743.7662,856.6742,1751.1683,863.171" style="stroke: #A80036; stroke-width: 1.0;"/><line style="stroke: #A80036; stroke-width: 1.0;" x1="1749.0739" x2="1745.7133" y1="858.6308" y2="851.3685"/><polygon fill="#A80036" points="1285.5783,710.039,1289.5925,716.0295,1296.6661,714.6282,1292.6519,708.6376,1285.5783,710.039" style="stroke: #A80036; stroke-width: 1.0;"/><text fill="#000000" font-family="sans-serif" font-size="13" lengthAdjust="spacingAndGlyphs" textLength="36" x="1420.7983" y="753.0669">token</text><!--MD5=[529b3f680026169e7030eafcb9573de9]
link usantatecla.tictactoe.Turn to usantatecla.tictactoe.Player--><path codeLine="127" d="M1207.3391,416.7979 C1207.3391,416.7979 1172.2183,479.05 1155.1083,509.369 " fill="none" id="usantatecla.tictactoe.Turn-usantatecla.tictactoe.Player" style="stroke: #A80036; stroke-width: 1.0;"/><polygon fill="#A80036" points="1148.6283,520.866,1156.5328,514.9907,1151.0839,516.5106,1149.5641,511.0617,1148.6283,520.866" style="stroke: #A80036; stroke-width: 1.0;"/><line style="stroke: #A80036; stroke-width: 1.0;" x1="1151.0839" x2="1155.0133" y1="516.5106" y2="509.5435"/><polygon fill="#A80036" points="1213.2383,406.348,1206.8054,409.6065,1207.3391,416.7979,1213.772,413.5393,1213.2383,406.348" style="stroke: #A80036; stroke-width: 1.0;"/><text fill="#000000" font-family="sans-serif" font-size="13" lengthAdjust="spacingAndGlyphs" textLength="40" x="1174.7983" y="487.0669">player</text><text fill="#000000" font-family="sans-serif" font-size="13" lengthAdjust="spacingAndGlyphs" textLength="8" x="1144.5194" y="509.8053">2</text><!--MD5=[bfa888729168fa3147cbf7352825b6b1]
link usantatecla.tictactoe.Board to usantatecla.tictactoe.Coordinate--><path codeLine="128" d="M1588.9486,454.8171 C1588.9486,454.8171 1607.6383,491.733 1616.4883,509.205 " fill="none" id="usantatecla.tictactoe.Board-usantatecla.tictactoe.Coordinate" style="stroke: #A80036; stroke-width: 1.0;"/><polygon fill="#A80036" points="1622.3883,520.866,1621.8918,511.0297,1620.1298,516.4051,1614.7544,514.6432,1622.3883,520.866" style="stroke: #A80036; stroke-width: 1.0;"/><line style="stroke: #A80036; stroke-width: 1.0;" x1="1620.1298" x2="1616.5183" y1="516.4051" y2="509.2675"/><polygon fill="#A80036" points="1583.5283,444.111,1582.6697,451.2708,1588.9486,454.8171,1589.8071,447.6573,1583.5283,444.111" style="stroke: #A80036; stroke-width: 1.0;"/><!--MD5=[287634111649744118617a7068f6a88b]
reverse link usantatecla.tictactoe.Player to usantatecla.tictactoe.MachinePlayer--><path codeLine="129" d="M916.2883,721.061 C884.8943,741.677 853.2153,764.068 824.7983,787 C786.0653,818.256 746.8433,859.686 720.7313,888.969 " fill="none" id="usantatecla.tictactoe.Player-backto-usantatecla.tictactoe.MachinePlayer" style="stroke: #A80036; stroke-width: 1.0;"/><polygon fill="none" points="912.5763,715.125,933.1673,710.124,920.1893,726.875,912.5763,715.125" style="stroke: #A80036; stroke-width: 1.0;"/><!--MD5=[cb3b258fc3efb46a680af02e5e1f3af2]
link usantatecla.tictactoe.Coordinate to usantatecla.tictactoe.Error--><path codeLine="130" d="M1510.2783,653.062 C1461.8783,671.58 1412.8383,699.158 1379.7983,740 C1357.4383,767.641 1347.5683,805.145 1343.6283,839.161 " fill="none" id="usantatecla.tictactoe.Coordinate-to-usantatecla.tictactoe.Error" style="stroke: #A80036; stroke-width: 1.0; stroke-dasharray: 7.0,7.0;"/><polygon fill="#A80036" points="1343.0883,844.153,1348.0344,835.6362,1343.6268,839.1821,1340.0809,834.7745,1343.0883,844.153" style="stroke: #A80036; stroke-width: 1.0;"/><!--MD5=[e43764ef036bd32d7bebb5fdc89dab41]
link usantatecla.tictactoe.Player to usantatecla.tictactoe.Error--><path codeLine="131" d="M1181.9883,710.023 C1203.6983,734.6 1226.5783,761.406 1246.7983,787 C1260.0183,803.734 1273.5683,822.115 1286.1883,839.852 " fill="none" id="usantatecla.tictactoe.Player-to-usantatecla.tictactoe.Error" style="stroke: #A80036; stroke-width: 1.0; stroke-dasharray: 7.0,7.0;"/><polygon fill="#A80036" points="1289.3783,844.346,1287.4421,834.6893,1286.489,840.2653,1280.913,839.3122,1289.3783,844.346" style="stroke: #A80036; stroke-width: 1.0;"/><!--MD5=[c1cc06e9ee042e231acd704d3db91e02]
link usantatecla.tictactoe.Board to usantatecla.tictactoe.Message--><path codeLine="132" d="M1473.3483,444.286 C1420.8783,549.805 1355.2283,703.341 1386.7983,757 C1400.7183,780.663 1419.2283,770.016 1440.7983,787 C1445.4983,790.698 1450.1683,794.575 1454.8083,798.587 " fill="none" id="usantatecla.tictactoe.Board-to-usantatecla.tictactoe.Message" style="stroke: #A80036; stroke-width: 1.0; stroke-dasharray: 7.0,7.0;"/><polygon fill="#A80036" points="1458.6883,801.988,1454.5417,793.0546,1454.9227,798.6986,1449.2787,799.0796,1458.6883,801.988" style="stroke: #A80036; stroke-width: 1.0;"/><!--MD5=[7e581fdc1c15d414673a5603eefb02c4]
link usantatecla.tictactoe.Player to usantatecla.tictactoe.Message--><path codeLine="133" d="M1232.9983,710.173 C1262.1283,727.424 1293.3083,744.049 1323.7983,757 C1373.2083,777.986 1394.7283,759.449 1440.7983,787 C1445.3983,789.751 1449.9283,792.718 1454.3883,795.863 " fill="none" id="usantatecla.tictactoe.Player-to-usantatecla.tictactoe.Message" style="stroke: #A80036; stroke-width: 1.0; stroke-dasharray: 7.0,7.0;"/><polygon fill="#A80036" points="1458.4583,798.801,1453.5048,790.2885,1454.4051,795.8732,1448.8204,796.7736,1458.4583,798.801" style="stroke: #A80036; stroke-width: 1.0;"/><!--MD5=[4658d6f36d7d9c2388a7aa58b8f9a55b]
link usantatecla.tictactoe.TicTacToe to usantatecla.tictactoe.Message--><path codeLine="134" d="M1325.6783,153.31 C1332.5183,176.718 1339.6583,204.442 1343.7983,230 C1353.1783,287.889 1339.4383,708.77 1372.7983,757 C1391.5883,784.167 1413.9383,767.775 1440.7983,787 C1445.3583,790.264 1449.8783,793.714 1454.3483,797.31 " fill="none" id="usantatecla.tictactoe.TicTacToe-to-usantatecla.tictactoe.Message" style="stroke: #A80036; stroke-width: 1.0; stroke-dasharray: 7.0,7.0;"/><polygon fill="#A80036" points="1458.4383,800.652,1454.0125,791.8536,1454.571,797.4828,1448.9418,798.0412,1458.4383,800.652" style="stroke: #A80036; stroke-width: 1.0;"/><!--MD5=[62ac8b859d6a910fbb401d124595bc0b]
link usantatecla.tictactoe.Turn to usantatecla.tictactoe.Message--><path codeLine="135" d="M1273.9883,406.223 C1284.6983,440.458 1297.2483,482.694 1306.7983,521 C1332.6683,624.774 1283.4683,676.43 1353.7983,757 C1380.6983,787.813 1406.5783,764.603 1440.7983,787 C1445.3883,790.003 1449.9183,793.208 1454.3883,796.576 " fill="none" id="usantatecla.tictactoe.Turn-to-usantatecla.tictactoe.Message" style="stroke: #A80036; stroke-width: 1.0; stroke-dasharray: 7.0,7.0;"/><polygon fill="#A80036" points="1458.4783,799.714,1453.773,791.0618,1454.5115,796.6703,1448.903,797.4088,1458.4783,799.714" style="stroke: #A80036; stroke-width: 1.0;"/><!--MD5=[88d77fad83bebfdbbb7645aa3f97d38d]
reverse link ConcreteCoordinate to usantatecla.tictactoe.Coordinate--><path codeLine="167" d="M451.2143,374.912 C478.0053,398.932 516.2093,428.567 555.7983,444 C868.4123,565.866 976.5213,461.877 1306.7983,521 C1374.0583,533.041 1447.2183,550.934 1510.1083,567.852 " fill="none" id="ConcreteCoordinate-backto-usantatecla.tictactoe.Coordinate" style="stroke: #A80036; stroke-width: 1.0;"/><polygon fill="none" points="446.3573,379.954,436.4673,361.214,455.8853,369.697,446.3573,379.954" style="stroke: #A80036; stroke-width: 1.0;"/><!--MD5=[934fb392a73132a0ebf18f95113c60ed]
link usantatecla.tictactoe.Coordinate to ClosedInterval--><path codeLine="169" d="M1794.0383,710.312 C1815.5183,732.874 1834.7783,758.729 1846.7983,787 C1899.3183,910.519 1904.3683,967.749 1846.7983,1089 C1840.1083,1103.0966 1828.4683,1115.0458 1816.2783,1124.5785 " fill="none" id="usantatecla.tictactoe.Coordinate-to-ClosedInterval" style="stroke: #A80036; stroke-width: 1.0; stroke-dasharray: 7.0,7.0;"/><polygon fill="#A80036" points="1812.1283,1127.7183,1821.7197,1125.4811,1816.1166,1124.7028,1816.8949,1119.0997,1812.1283,1127.7183" style="stroke: #A80036; stroke-width: 1.0;"/><!--MD5=[e42dc3dc7895e07d7350a715b050ad9b]
link usantatecla.tictactoe.Token to ClosedInterval--><path codeLine="170" d="M1770.7983,988.505 C1770.7983,1032.272 1770.7983,1089.0498 1770.7983,1122.599 " fill="none" id="usantatecla.tictactoe.Token-to-ClosedInterval" style="stroke: #A80036; stroke-width: 1.0; stroke-dasharray: 7.0,7.0;"/><polygon fill="#A80036" points="1770.7983,1127.7784,1774.7983,1118.7784,1770.7983,1122.7784,1766.7983,1118.7784,1770.7983,1127.7784" style="stroke: #A80036; stroke-width: 1.0;"/><!--MD5=[98503c5b3c876464a0a320f677cd6e58]
link LimitedIntDialog to ClosedInterval--><path codeLine="171" d="M435.5273,950.166 C454.0833,987.175 496.0053,1058.56 555.7983,1089 C580.1603,1101.4027 1360.2083,1134.3121 1657.3683,1146.4339 " fill="none" id="LimitedIntDialog-to-ClosedInterval" style="stroke: #A80036; stroke-width: 1.0; stroke-dasharray: 7.0,7.0;"/><polygon fill="#A80036" points="1662.5783,1146.6461,1653.7455,1142.2893,1657.5823,1146.4461,1653.4255,1150.2829,1662.5783,1146.6461" style="stroke: #A80036; stroke-width: 1.0;"/><!--MD5=[02a6c08caac974be482b221cbbed617e]
link usantatecla.tictactoe.Error to Console--><path codeLine="174" d="M1312.8783,1007.614 C1297.4283,1037.629 1275.7383,1069.181 1246.7983,1089 C1204.3983,1118.0381 1071.8583,1135.0899 979.5093,1143.7368 " fill="none" id="usantatecla.tictactoe.Error-to-Console" style="stroke: #A80036; stroke-width: 1.0; stroke-dasharray: 7.0,7.0;"/><polygon fill="#A80036" points="974.3153,1144.2182,983.646,1147.3705,979.294,1143.7568,982.9077,1139.4047,974.3153,1144.2182" style="stroke: #A80036; stroke-width: 1.0;"/><!--MD5=[babf8812656abf11221776abe93713d2]
link usantatecla.tictactoe.Message to Console--><path codeLine="175" d="M1473.7583,1065.331 C1463.5083,1074.386 1452.5083,1082.4754 1440.7983,1089 C1363.8983,1131.8636 1117.0683,1145.1111 979.5623,1149.1926 " fill="none" id="usantatecla.tictactoe.Message-to-Console" style="stroke: #A80036; stroke-width: 1.0; stroke-dasharray: 7.0,7.0;"/><polygon fill="#A80036" points="974.3133,1149.3456,983.426,1153.0816,979.3112,1149.1999,983.1929,1145.085,974.3133,1149.3456" style="stroke: #A80036; stroke-width: 1.0;"/><!--MD5=[b5f6ae75ec16ad98720bfc912357ede6]
link usantatecla.tictactoe.Token to Console--><path codeLine="176" d="M1757.7083,988.635 C1746.7983,1024.026 1727.4283,1065.906 1693.7983,1089 C1636.1383,1128.5965 1180.9983,1144.0713 979.8373,1149.0194 " fill="none" id="usantatecla.tictactoe.Token-to-Console" style="stroke: #A80036; stroke-width: 1.0; stroke-dasharray: 7.0,7.0;"/><polygon fill="#A80036" points="974.5463,1149.1486,983.6419,1152.9263,979.5448,1149.0257,983.4453,1144.9287,974.5463,1149.1486" style="stroke: #A80036; stroke-width: 1.0;"/><!--MD5=[e9f88c84ae372c10578b1ce2bfdab9f0]
link ConcreteCoordinate to Console--><path codeLine="177" d="M398.5563,361.315 C334.3123,462.738 97.818,870.236 294.7983,1089 C327.2673,1125.0602 631.6613,1141.6278 790.0303,1147.8601 " fill="none" id="ConcreteCoordinate-to-Console" style="stroke: #A80036; stroke-width: 1.0; stroke-dasharray: 7.0,7.0;"/><polygon fill="#A80036" points="795.1373,1148.0595,786.2995,1143.7128,790.1411,1147.8652,785.9887,1151.7068,795.1373,1148.0595" style="stroke: #A80036; stroke-width: 1.0;"/><!--MD5=[7d9962839904cadaaf2ea6babb2790b2]
link LimitedIntDialog to Console--><path codeLine="178" d="M436.4983,950.135 C455.9863,986.11 498.6653,1054.866 555.7983,1089 C594.4923,1112.1172 707.0573,1129.9803 789.7843,1140.4706 " fill="none" id="LimitedIntDialog-to-Console" style="stroke: #A80036; stroke-width: 1.0; stroke-dasharray: 7.0,7.0;"/><polygon fill="#A80036" points="795.1893,1141.1509,786.7592,1136.0585,790.2284,1140.5266,785.7603,1143.9959,795.1893,1141.1509" style="stroke: #A80036; stroke-width: 1.0;"/><!--MD5=[463cc8af4a3cc64d4486d23129543027]
link YesNoDialog to Console--><path codeLine="179" d="M142.5958,361.15 C112.3039,463.603 6,880.352 210.7983,1089 C250.5343,1129.4828 613.7903,1144.1691 789.9103,1148.9422 " fill="none" id="YesNoDialog-to-Console" style="stroke: #A80036; stroke-width: 1.0; stroke-dasharray: 7.0,7.0;"/><polygon fill="#A80036" points="795.0653,1149.0805,786.176,1144.8402,790.0671,1148.9462,785.9611,1152.8373,795.0653,1149.0805" style="stroke: #A80036; stroke-width: 1.0;"/><!--MD5=[4a6f4cecc322ee82ce9bf312f6bd9c5b]
link usantatecla.tictactoe.Turn to LimitedIntDialog--><path codeLine="182" d="M1177.1683,369.451 C1101.1483,402.797 981.0773,459.121 884.7983,521 C726.6163,622.665 693.9363,659.426 555.7983,787 C516.3153,823.464 474.1073,869.318 448.5843,897.899 " fill="none" id="usantatecla.tictactoe.Turn-to-LimitedIntDialog" style="stroke: #A80036; stroke-width: 1.0; stroke-dasharray: 7.0,7.0;"/><polygon fill="#A80036" points="445.2493,901.642,454.2237,897.5849,448.5762,897.9094,448.2516,892.2619,445.2493,901.642" style="stroke: #A80036; stroke-width: 1.0;"/><!--MD5=[a6176f3b762d2fd91dbdde4c26f79f5e]
link usantatecla.tictactoe.TicTacToe to YesNoDialog--><path codeLine="183" d="M1215.2783,102.86 C993.7793,115.59 438.9783,154.29 270.7983,230 C230.6713,248.065 194.1003,284.05 171.9103,309.051 " fill="none" id="usantatecla.tictactoe.TicTacToe-to-YesNoDialog" style="stroke: #A80036; stroke-width: 1.0; stroke-dasharray: 7.0,7.0;"/><polygon fill="#A80036" points="168.4743,312.965,177.4173,308.839,171.7724,309.207,171.4044,303.5621,168.4743,312.965" style="stroke: #A80036; stroke-width: 1.0;"/><!--MD5=[bf23bf68eb6ee1e962cc58fc20d95da0]
link usantatecla.tictactoe.Board to Direction--><path codeLine="185" d="M1660.9783,363.11 C1808.1183,394.252 2032.7983,451.783 2082.7983,521 C2167.7783,638.627 2081.3883,826.931 2043.5983,897.291 " fill="none" id="usantatecla.tictactoe.Board-to-Direction" style="stroke: #A80036; stroke-width: 1.0; stroke-dasharray: 7.0,7.0;"/><polygon fill="#A80036" points="2041.1783,901.753,2048.98,895.7419,2043.5582,897.3557,2041.9444,891.934,2041.1783,901.753" style="stroke: #A80036; stroke-width: 1.0;"/><!--MD5=[c6b41bb1c68e13fbf1695f6a9580fb13]
link usantatecla.tictactoe.Coordinate to Direction--><path codeLine="186" d="M1829.4183,701.032 C1869.0883,722.126 1900.7983,739.103 1901.7983,740 C1953.5083,786.371 1994.4283,858.171 2014.4283,897.288 " fill="none" id="usantatecla.tictactoe.Coordinate-to-Direction" style="stroke: #A80036; stroke-width: 1.0; stroke-dasharray: 7.0,7.0;"/><polygon fill="#A80036" points="2016.7583,901.892,2016.2532,892.0561,2014.496,897.4331,2009.119,895.6758,2016.7583,901.892" style="stroke: #A80036; stroke-width: 1.0;"/><!--MD5=[2ece631038b7899e5b9aaea57adaf24e]
link Coordinate to Direction--><path codeLine="187" d="M1969.5383,639.688 C1980.8983,695.321 2009.6683,836.229 2022.0183,896.712 " fill="none" id="Coordinate-to-Direction" style="stroke: #A80036; stroke-width: 1.0; stroke-dasharray: 7.0,7.0;"/><polygon fill="#A80036" points="2023.0983,901.964,2025.2179,892.3459,2022.0985,897.065,2017.3794,893.9456,2023.0983,901.964" style="stroke: #A80036; stroke-width: 1.0;"/><!--MD5=[3ee1f011c50049e325cd40aace501242]
@startuml
namespace usantatecla.tictactoe {
class Board {
	- tokens: Token[][] 
	~ Board()
	+ reset() 
	~ write() 
	- getToken(Coordinate): Token 
	~ isCompleted(): boolean 
	~ put(Coordinate, Token) 
	~ move(Coordinate, Coordinate) 
	- remove(Coordinate) 
	~ isOccupied(Coordinate, Token): boolean 
	~ isEmpty(Coordinate): boolean
	~ isTicTacToe(Token): boolean
	- getCoordinates(Token): List<Coordinate> 
}

class Coordinate {
	~ NULL: {static} Coordinate
	~ DIMENSION: {static} int 
	~ LIMITS: {static} ClosedInterval 
	~ Coordinate()
	~ Coordinate(int, int)
	+ isNull(): boolean 
	+ getDirection(usantatecla.utils.Coordinate): Direction 
	+ inInverseDiagonal(): boolean 
	+ read(String)
	+ random() 
	+ equals(Object): boolean 
}

enum Error {

	+ NOT_EMPTY
	+ NOT_OWNER
	+ SAME_COORDINATES
	+ WRONG_COORDINATES
	+ NULL
	- message: String 
	~ Error()
	~ Error(String)
	~ writeln()
}

class MachinePlayer {
	~ MachinePlayer(Token, Board)
	~ getCoordinate(Message): Coordinate 
}

enum Message {
	+ TITTLE
	+ NUMBER_PLAYERS
	+ SEPARATOR
	+ VERTICAL_LINE_LEFT
	+ VERTICAL_LINE_CENTERED
	+ VERTICAL_LINE_RIGHT
	+ ENTER_COORDINATE_TO_PUT
	+ ENTER_COORDINATE_TO_REMOVE
	+ COORDINATE_TO_PUT
	+ COORDINATE_TO_REMOVE
	+ COORDINATE_TO_MOVE
	+ PLAYER_WIN
	+ RESUME
	- message: String 
	- Message(String)
	~ write()
	~ writeln()
	+ toString(): String 
}


abstract class Player {
	~ board: Board 
	~ Player(Token, Board)
	~ play()
	- put()
	~ abstract getCoordinate(Message): Coordinate 
	~ checkPutCoordinateError(Coordinate): Error 
	- move()
	~ checkMoveOriginCoordinateError(Coordinate): Error 
	~ checkMoveTargetCoordinateError(Coordinate, Coordinate): Error 
	~ writeWinner()
	~ getToken(): Token 
}

class TicTacToe{
    ~ TicTacToe()
	- play()
    - playGame()
	- isResumedGame(): boolean
	+ {static} main(String[])
}

enum Token {
	+ X_TOKEN
	+ Y_TOKEN
	+ NULL
    + isNull(): boolean 
    ~ write()
    ~ {static} get(int): Token 
}

class Turn {
	~ NUMBER_PLAYERS: {static} int 
	- active: int 
	~ Turn(Board)
	~ play()
	- getPlayer(): Player 
	~ writeWinner()
	~ getToken(): Token  
}

class UserPlayer extends Player {
	~ UserPlayer(Token, Board)
	~ getCoordinate(Message message): Coordinate
	~ checkPutCoordinateError(Coordinate): Error 
	~ checkMoveOriginCoordinateError(Coordinate): Error
	~ checkMoveTargetCoordinateError(Coordinate, Coordinate): Error
}

TicTacToe *-down-> Board : board
TicTacToe *-down-> Turn : turn

Board .down.> Token
Turn .down.> Token
Player *-down-> Token : token
Turn *-down-> "2" Player : player
Board *-down-> Coordinate 
Player <|-down- MachinePlayer
Coordinate .down.> Error
Player .down.> Error
Board .down.> Message
Player .down.> Message
TicTacToe .down.> Message
Turn .down.> Message

}

class ConcreteCoordinate as "usantatecla.utils.ConcreteCoordinate"{

}

class ClosedInterval as "usantatecla.utils.ClosedInterval"{
	
}

class Console as "usantatecla.utils.Console"{
	
}

class LimitedIntDialog as "usantatecla.utils.LimitedIntDialog"{
	
}

class YesNoDialog as "usantatecla.utils.YesNoDialog"{
	
}

enum Direction as "usantatecla.utils.Direction"{
	
}

interface Coordinate as "usantatecla.utils.Coordinate"{
	
}

ConcreteCoordinate <|-down- usantatecla.tictactoe.Coordinate

usantatecla.tictactoe.Coordinate .down.> ClosedInterval
usantatecla.tictactoe.Token .down.> ClosedInterval
LimitedIntDialog .down.> ClosedInterval


usantatecla.tictactoe.Error .down.> Console
usantatecla.tictactoe.Message .down.> Console
usantatecla.tictactoe.Token .down.> Console
ConcreteCoordinate .down.> Console
LimitedIntDialog .down.> Console
YesNoDialog .down.> Console


usantatecla.tictactoe.Turn .down.> LimitedIntDialog
usantatecla.tictactoe.TicTacToe .down.> YesNoDialog

usantatecla.tictactoe.Board .down.> Direction
usantatecla.tictactoe.Coordinate .down.> Direction
Coordinate .down.> Direction
@enduml

PlantUML version 1.2020.20beta4(Unknown compile time)
(GPL source distribution)
Java Runtime: Java(TM) SE Runtime Environment
JVM: Java HotSpot(TM) 64-Bit Server VM
Default Encoding: UTF-8
Language: en
Country: US
--></g></svg>