<?xml version="1.0" encoding="UTF-8" standalone="no"?><svg xmlns="http://www.w3.org/2000/svg" xmlns:xlink="http://www.w3.org/1999/xlink" contentScriptType="application/ecmascript" contentStyleType="text/css" height="1600px" preserveAspectRatio="none" style="width:2141px;height:1600px;" version="1.1" viewBox="0 0 2141 1600" width="2141px" zoomAndPan="magnify"><defs><filter height="300%" id="ffe3bx1ogehlg" width="300%" x="-1" y="-1"><feGaussianBlur result="blurOut" stdDeviation="2.0"/><feColorMatrix in="blurOut" result="blurOut2" type="matrix" values="0 0 0 0 0 0 0 0 0 0 0 0 0 0 0 0 0 0 .4 0"/><feOffset dx="4.0" dy="4.0" in="blurOut2" result="blurOut3"/><feBlend in="SourceGraphic" in2="blurOut3" mode="normal"/></filter></defs><g><!--MD5=[b59da53bc4cb019b9115ab51e8207bb0]
cluster usantatecla.tictactoe--><polygon fill="#FFFFFF" filter="url(#ffe3bx1ogehlg)" points="16,6,201,6,208,28.2969,1297,28.2969,1297,1491,16,1491,16,6" style="stroke: #000000; stroke-width: 1.5;"/><line style="stroke: #000000; stroke-width: 1.5;" x1="16" x2="208" y1="28.2969" y2="28.2969"/><text fill="#000000" font-family="sans-serif" font-size="14" font-weight="bold" lengthAdjust="spacingAndGlyphs" textLength="179" x="20" y="20.9951">usantatecla.tictactoe</text><!--MD5=[1c1463d9f8db069853651be96ebc7f3a]
class usantatecla.tictactoe.Board--><rect codeLine="2" fill="#FEFECE" filter="url(#ffe3bx1ogehlg)" height="214.4609" id="usantatecla.tictactoe.Board" style="stroke: #A80036; stroke-width: 1.5;" width="262" x="1019" y="698"/><ellipse cx="1127.75" cy="714" fill="#ADD1B2" rx="11" ry="11" style="stroke: #A80036; stroke-width: 1.0;"/><path d="M1130.0938,709.6719 C1129.1563,709.2344 1128.5625,709.0938 1127.6875,709.0938 C1125.0625,709.0938 1123.0625,711.1719 1123.0625,713.8906 L1123.0625,715.0156 C1123.0625,717.5938 1125.1719,719.4844 1128.0625,719.4844 C1129.2813,719.4844 1130.4375,719.1875 1131.1875,718.6406 C1131.7656,718.2344 1132.0938,717.7813 1132.0938,717.3906 C1132.0938,716.9375 1131.7031,716.5469 1131.2344,716.5469 C1131.0156,716.5469 1130.8125,716.625 1130.625,716.8125 C1130.1719,717.2969 1130.1719,717.2969 1129.9844,717.3906 C1129.5625,717.6563 1128.875,717.7813 1128.1094,717.7813 C1126.0625,717.7813 1124.7656,716.6875 1124.7656,714.9844 L1124.7656,713.8906 C1124.7656,712.1094 1126.0156,710.7969 1127.75,710.7969 C1128.3281,710.7969 1128.9375,710.9531 1129.4063,711.2031 C1129.8906,711.4844 1130.0625,711.7031 1130.1563,712.1094 C1130.2188,712.5156 1130.25,712.6406 1130.3906,712.7656 C1130.5313,712.9063 1130.7656,713.0156 1130.9844,713.0156 C1131.25,713.0156 1131.5156,712.875 1131.6875,712.6563 C1131.7969,712.5 1131.8281,712.3125 1131.8281,711.8906 L1131.8281,710.4688 C1131.8281,710.0313 1131.8125,709.9063 1131.7188,709.75 C1131.5625,709.4844 1131.2813,709.3438 1130.9844,709.3438 C1130.6875,709.3438 1130.4844,709.4375 1130.2656,709.75 L1130.0938,709.6719 Z "/><text fill="#000000" font-family="sans-serif" font-size="12" lengthAdjust="spacingAndGlyphs" textLength="36" x="1148.25" y="718.1543">Board</text><line style="stroke: #A80036; stroke-width: 1.5;" x1="1020" x2="1280" y1="730" y2="730"/><rect fill="none" height="6" style="stroke: #C82930; stroke-width: 1.0;" width="6" x="1027" y="738"/><text fill="#000000" font-family="sans-serif" font-size="11" lengthAdjust="spacingAndGlyphs" textLength="96" x="1039" y="744.2104">tokens: Token[][]</text><line style="stroke: #A80036; stroke-width: 1.5;" x1="1020" x2="1280" y1="750.8047" y2="750.8047"/><polygon fill="#4177AF" points="1030,757.8047,1026,763.8047,1034,763.8047" style="stroke: #1963A0; stroke-width: 1.0;"/><text fill="#000000" font-family="sans-serif" font-size="11" lengthAdjust="spacingAndGlyphs" textLength="41" x="1039" y="765.0151">Board()</text><ellipse cx="1030" cy="774.6094" fill="#84BE84" rx="3" ry="3" style="stroke: #038048; stroke-width: 1.0;"/><text fill="#000000" font-family="sans-serif" font-size="11" lengthAdjust="spacingAndGlyphs" textLength="38" x="1039" y="777.8198">reset()</text><polygon fill="#4177AF" points="1030,783.4141,1026,789.4141,1034,789.4141" style="stroke: #1963A0; stroke-width: 1.0;"/><text fill="#000000" font-family="sans-serif" font-size="11" lengthAdjust="spacingAndGlyphs" textLength="36" x="1039" y="790.6245">write()</text><rect fill="#F24D5C" height="6" style="stroke: #C82930; stroke-width: 1.0;" width="6" x="1027" y="797.2188"/><text fill="#000000" font-family="sans-serif" font-size="11" lengthAdjust="spacingAndGlyphs" textLength="166" x="1039" y="803.4292">getToken(Coordinate): Token</text><polygon fill="#4177AF" points="1030,809.0234,1026,815.0234,1034,815.0234" style="stroke: #1963A0; stroke-width: 1.0;"/><text fill="#000000" font-family="sans-serif" font-size="11" lengthAdjust="spacingAndGlyphs" textLength="133" x="1039" y="816.2339">isCompleted(): boolean</text><polygon fill="#4177AF" points="1030,821.8281,1026,827.8281,1034,827.8281" style="stroke: #1963A0; stroke-width: 1.0;"/><text fill="#000000" font-family="sans-serif" font-size="11" lengthAdjust="spacingAndGlyphs" textLength="130" x="1039" y="829.0386">put(Coordinate, Token)</text><polygon fill="#4177AF" points="1030,834.6328,1026,840.6328,1034,840.6328" style="stroke: #1963A0; stroke-width: 1.0;"/><text fill="#000000" font-family="sans-serif" font-size="11" lengthAdjust="spacingAndGlyphs" textLength="172" x="1039" y="841.8433">move(Coordinate, Coordinate)</text><rect fill="#F24D5C" height="6" style="stroke: #C82930; stroke-width: 1.0;" width="6" x="1027" y="848.4375"/><text fill="#000000" font-family="sans-serif" font-size="11" lengthAdjust="spacingAndGlyphs" textLength="115" x="1039" y="854.6479">remove(Coordinate)</text><polygon fill="#4177AF" points="1030,860.2422,1026,866.2422,1034,866.2422" style="stroke: #1963A0; stroke-width: 1.0;"/><text fill="#000000" font-family="sans-serif" font-size="11" lengthAdjust="spacingAndGlyphs" textLength="227" x="1039" y="867.4526">isOccupied(Coordinate, Token): boolean</text><polygon fill="#4177AF" points="1030,873.0469,1026,879.0469,1034,879.0469" style="stroke: #1963A0; stroke-width: 1.0;"/><text fill="#000000" font-family="sans-serif" font-size="11" lengthAdjust="spacingAndGlyphs" textLength="168" x="1039" y="880.2573">isEmpty(Coordinate): boolean</text><polygon fill="#4177AF" points="1030,885.8516,1026,891.8516,1034,891.8516" style="stroke: #1963A0; stroke-width: 1.0;"/><text fill="#000000" font-family="sans-serif" font-size="11" lengthAdjust="spacingAndGlyphs" textLength="163" x="1039" y="893.062">isTicTacToe(Token): boolean</text><rect fill="#F24D5C" height="6" style="stroke: #C82930; stroke-width: 1.0;" width="6" x="1027" y="899.6563"/><text fill="#000000" font-family="sans-serif" font-size="11" lengthAdjust="spacingAndGlyphs" textLength="236" x="1039" y="905.8667">getCoordinates(Token): List&lt;Coordinate&gt;</text><!--MD5=[0990100d77444e20aa254ae593d623a1]
class usantatecla.tictactoe.Coordinate--><rect codeLine="18" fill="#FEFECE" filter="url(#ffe3bx1ogehlg)" height="188.8516" id="usantatecla.tictactoe.Coordinate" style="stroke: #A80036; stroke-width: 1.5;" width="319" x="961.5" y="1017.5"/><ellipse cx="1083.75" cy="1033.5" fill="#ADD1B2" rx="11" ry="11" style="stroke: #A80036; stroke-width: 1.0;"/><path d="M1086.0938,1029.1719 C1085.1563,1028.7344 1084.5625,1028.5938 1083.6875,1028.5938 C1081.0625,1028.5938 1079.0625,1030.6719 1079.0625,1033.3906 L1079.0625,1034.5156 C1079.0625,1037.0938 1081.1719,1038.9844 1084.0625,1038.9844 C1085.2813,1038.9844 1086.4375,1038.6875 1087.1875,1038.1406 C1087.7656,1037.7344 1088.0938,1037.2813 1088.0938,1036.8906 C1088.0938,1036.4375 1087.7031,1036.0469 1087.2344,1036.0469 C1087.0156,1036.0469 1086.8125,1036.125 1086.625,1036.3125 C1086.1719,1036.7969 1086.1719,1036.7969 1085.9844,1036.8906 C1085.5625,1037.1563 1084.875,1037.2813 1084.1094,1037.2813 C1082.0625,1037.2813 1080.7656,1036.1875 1080.7656,1034.4844 L1080.7656,1033.3906 C1080.7656,1031.6094 1082.0156,1030.2969 1083.75,1030.2969 C1084.3281,1030.2969 1084.9375,1030.4531 1085.4063,1030.7031 C1085.8906,1030.9844 1086.0625,1031.2031 1086.1563,1031.6094 C1086.2188,1032.0156 1086.25,1032.1406 1086.3906,1032.2656 C1086.5313,1032.4063 1086.7656,1032.5156 1086.9844,1032.5156 C1087.25,1032.5156 1087.5156,1032.375 1087.6875,1032.1563 C1087.7969,1032 1087.8281,1031.8125 1087.8281,1031.3906 L1087.8281,1029.9688 C1087.8281,1029.5313 1087.8125,1029.4063 1087.7188,1029.25 C1087.5625,1028.9844 1087.2813,1028.8438 1086.9844,1028.8438 C1086.6875,1028.8438 1086.4844,1028.9375 1086.2656,1029.25 L1086.0938,1029.1719 Z "/><text fill="#000000" font-family="sans-serif" font-size="12" lengthAdjust="spacingAndGlyphs" textLength="66" x="1104.25" y="1037.6543">Coordinate</text><line style="stroke: #A80036; stroke-width: 1.5;" x1="962.5" x2="1279.5" y1="1049.5" y2="1049.5"/><polygon fill="none" points="972.5,1056.5,968.5,1062.5,976.5,1062.5" style="stroke: #1963A0; stroke-width: 1.0;"/><text fill="#000000" font-family="sans-serif" font-size="11" lengthAdjust="spacingAndGlyphs" text-decoration="underline" textLength="97" x="981.5" y="1063.7104">NULL: Coordinate</text><polygon fill="none" points="972.5,1069.3047,968.5,1075.3047,976.5,1075.3047" style="stroke: #1963A0; stroke-width: 1.0;"/><text fill="#000000" font-family="sans-serif" font-size="11" lengthAdjust="spacingAndGlyphs" text-decoration="underline" textLength="85" x="981.5" y="1076.5151">DIMENSION: int</text><polygon fill="none" points="972.5,1082.1094,968.5,1088.1094,976.5,1088.1094" style="stroke: #1963A0; stroke-width: 1.0;"/><text fill="#000000" font-family="sans-serif" font-size="11" lengthAdjust="spacingAndGlyphs" text-decoration="underline" textLength="125" x="981.5" y="1089.3198">LIMITS: ClosedInterval</text><line style="stroke: #A80036; stroke-width: 1.5;" x1="962.5" x2="1279.5" y1="1095.9141" y2="1095.9141"/><polygon fill="#4177AF" points="972.5,1102.9141,968.5,1108.9141,976.5,1108.9141" style="stroke: #1963A0; stroke-width: 1.0;"/><text fill="#000000" font-family="sans-serif" font-size="11" lengthAdjust="spacingAndGlyphs" textLength="70" x="981.5" y="1110.1245">Coordinate()</text><polygon fill="#4177AF" points="972.5,1115.7188,968.5,1121.7188,976.5,1121.7188" style="stroke: #1963A0; stroke-width: 1.0;"/><text fill="#000000" font-family="sans-serif" font-size="11" lengthAdjust="spacingAndGlyphs" textLength="105" x="981.5" y="1122.9292">Coordinate(int, int)</text><ellipse cx="972.5" cy="1132.5234" fill="#84BE84" rx="3" ry="3" style="stroke: #038048; stroke-width: 1.0;"/><text fill="#000000" font-family="sans-serif" font-size="11" lengthAdjust="spacingAndGlyphs" textLength="91" x="981.5" y="1135.7339">isNull(): boolean</text><ellipse cx="972.5" cy="1145.3281" fill="#84BE84" rx="3" ry="3" style="stroke: #038048; stroke-width: 1.0;"/><text fill="#000000" font-family="sans-serif" font-size="11" lengthAdjust="spacingAndGlyphs" textLength="293" x="981.5" y="1148.5386">getDirection(usantatecla.utils.Coordinate): Direction</text><ellipse cx="972.5" cy="1158.1328" fill="#84BE84" rx="3" ry="3" style="stroke: #038048; stroke-width: 1.0;"/><text fill="#000000" font-family="sans-serif" font-size="11" lengthAdjust="spacingAndGlyphs" textLength="164" x="981.5" y="1161.3433">inInverseDiagonal(): boolean</text><ellipse cx="972.5" cy="1170.9375" fill="#84BE84" rx="3" ry="3" style="stroke: #038048; stroke-width: 1.0;"/><text fill="#000000" font-family="sans-serif" font-size="11" lengthAdjust="spacingAndGlyphs" textLength="67" x="981.5" y="1174.1479">read(String)</text><ellipse cx="972.5" cy="1183.7422" fill="#84BE84" rx="3" ry="3" style="stroke: #038048; stroke-width: 1.0;"/><text fill="#000000" font-family="sans-serif" font-size="11" lengthAdjust="spacingAndGlyphs" textLength="51" x="981.5" y="1186.9526">random()</text><ellipse cx="972.5" cy="1196.5469" fill="#84BE84" rx="3" ry="3" style="stroke: #038048; stroke-width: 1.0;"/><text fill="#000000" font-family="sans-serif" font-size="11" lengthAdjust="spacingAndGlyphs" textLength="136" x="981.5" y="1199.7573">equals(Object): boolean</text><!--MD5=[8beb5b62c1db6d783dc0870514f68973]
class usantatecla.tictactoe.Error--><rect codeLine="32" fill="#FEFECE" filter="url(#ffe3bx1ogehlg)" height="163.2422" id="usantatecla.tictactoe.Error" style="stroke: #A80036; stroke-width: 1.5;" width="159" x="976.5" y="1312"/><ellipse cx="1036.75" cy="1328" fill="#EB937F" rx="11" ry="11" style="stroke: #A80036; stroke-width: 1.0;"/><path d="M1035.5469,1328.875 L1037,1328.875 L1037,1328.9844 C1037,1329.3906 1037.0313,1329.5469 1037.1094,1329.7031 C1037.2656,1329.9531 1037.5469,1330.1094 1037.8438,1330.1094 C1038.0938,1330.1094 1038.3594,1329.9688 1038.5156,1329.75 C1038.6406,1329.5938 1038.6719,1329.4375 1038.6719,1328.9844 L1038.6719,1327.0625 C1038.6719,1326.9063 1038.6719,1326.8594 1038.6563,1326.7031 C1038.5938,1326.2344 1038.2813,1325.9219 1037.8281,1325.9219 C1037.5781,1325.9219 1037.3125,1326.0625 1037.1406,1326.2813 C1037.0313,1326.4531 1037,1326.6094 1037,1327.0625 L1037,1327.1875 L1035.5469,1327.1875 L1035.5469,1324.7813 L1039.5313,1324.7813 L1039.5313,1325.6406 C1039.5313,1326.0469 1039.5625,1326.2188 1039.6406,1326.375 C1039.8125,1326.625 1040.0938,1326.7813 1040.375,1326.7813 C1040.6406,1326.7813 1040.9063,1326.6406 1041.0781,1326.4219 C1041.1875,1326.25 1041.2188,1326.1094 1041.2188,1325.6406 L1041.2188,1323.0938 L1033.5938,1323.0938 C1033.1563,1323.0938 1033.0313,1323.1094 1032.875,1323.2031 C1032.625,1323.3594 1032.4688,1323.6563 1032.4688,1323.9375 C1032.4688,1324.2188 1032.6094,1324.4688 1032.8281,1324.6406 C1032.9844,1324.75 1033.1719,1324.7813 1033.5938,1324.7813 L1033.8438,1324.7813 L1033.8438,1331.2969 L1033.5938,1331.2969 C1033.1875,1331.2969 1033.0313,1331.3125 1032.875,1331.4219 C1032.625,1331.5938 1032.4688,1331.8594 1032.4688,1332.1563 C1032.4688,1332.4219 1032.6094,1332.6719 1032.8281,1332.8281 C1032.9688,1332.9531 1033.2031,1333 1033.5938,1333 L1041.5938,1333 L1041.5938,1330.4219 C1041.5938,1329.9844 1041.5625,1329.8438 1041.4844,1329.6875 C1041.3125,1329.4375 1041.0313,1329.2813 1040.75,1329.2813 C1040.4844,1329.2813 1040.2188,1329.3906 1040.0469,1329.6406 C1039.9375,1329.7969 1039.9063,1329.9375 1039.9063,1330.4219 L1039.9063,1331.2969 L1035.5469,1331.2969 L1035.5469,1328.875 Z "/><text fill="#000000" font-family="sans-serif" font-size="12" lengthAdjust="spacingAndGlyphs" textLength="30" x="1057.25" y="1332.1543">Error</text><line style="stroke: #A80036; stroke-width: 1.5;" x1="977.5" x2="1134.5" y1="1344" y2="1344"/><ellipse cx="987.5" cy="1355" fill="none" rx="3" ry="3" style="stroke: #038048; stroke-width: 1.0;"/><text fill="#000000" font-family="sans-serif" font-size="11" lengthAdjust="spacingAndGlyphs" textLength="66" x="996.5" y="1358.2104">NOT_EMPTY</text><ellipse cx="987.5" cy="1367.8047" fill="none" rx="3" ry="3" style="stroke: #038048; stroke-width: 1.0;"/><text fill="#000000" font-family="sans-serif" font-size="11" lengthAdjust="spacingAndGlyphs" textLength="72" x="996.5" y="1371.0151">NOT_OWNER</text><ellipse cx="987.5" cy="1380.6094" fill="none" rx="3" ry="3" style="stroke: #038048; stroke-width: 1.0;"/><text fill="#000000" font-family="sans-serif" font-size="11" lengthAdjust="spacingAndGlyphs" textLength="121" x="996.5" y="1383.8198">SAME_COORDINATES</text><ellipse cx="987.5" cy="1393.4141" fill="none" rx="3" ry="3" style="stroke: #038048; stroke-width: 1.0;"/><text fill="#000000" font-family="sans-serif" font-size="11" lengthAdjust="spacingAndGlyphs" textLength="133" x="996.5" y="1396.6245">WRONG_COORDINATES</text><ellipse cx="987.5" cy="1406.2188" fill="none" rx="3" ry="3" style="stroke: #038048; stroke-width: 1.0;"/><text fill="#000000" font-family="sans-serif" font-size="11" lengthAdjust="spacingAndGlyphs" textLength="28" x="996.5" y="1409.4292">NULL</text><rect fill="none" height="6" style="stroke: #C82930; stroke-width: 1.0;" width="6" x="984.5" y="1416.0234"/><text fill="#000000" font-family="sans-serif" font-size="11" lengthAdjust="spacingAndGlyphs" textLength="93" x="996.5" y="1422.2339">message: String</text><line style="stroke: #A80036; stroke-width: 1.5;" x1="977.5" x2="1134.5" y1="1428.8281" y2="1428.8281"/><polygon fill="#4177AF" points="987.5,1435.8281,983.5,1441.8281,991.5,1441.8281" style="stroke: #1963A0; stroke-width: 1.0;"/><text fill="#000000" font-family="sans-serif" font-size="11" lengthAdjust="spacingAndGlyphs" textLength="34" x="996.5" y="1443.0386">Error()</text><polygon fill="#4177AF" points="987.5,1448.6328,983.5,1454.6328,991.5,1454.6328" style="stroke: #1963A0; stroke-width: 1.0;"/><text fill="#000000" font-family="sans-serif" font-size="11" lengthAdjust="spacingAndGlyphs" textLength="67" x="996.5" y="1455.8433">Error(String)</text><polygon fill="#4177AF" points="987.5,1461.4375,983.5,1467.4375,991.5,1467.4375" style="stroke: #1963A0; stroke-width: 1.0;"/><text fill="#000000" font-family="sans-serif" font-size="11" lengthAdjust="spacingAndGlyphs" textLength="46" x="996.5" y="1468.6479">writeln()</text><!--MD5=[d5e6390f4df0bed23d8acd31ee6bd19d]
class usantatecla.tictactoe.MachinePlayer--><rect codeLine="45" fill="#FEFECE" filter="url(#ffe3bx1ogehlg)" height="73.6094" id="usantatecla.tictactoe.MachinePlayer" style="stroke: #A80036; stroke-width: 1.5;" width="235" x="180.5" y="768"/><ellipse cx="251.25" cy="784" fill="#ADD1B2" rx="11" ry="11" style="stroke: #A80036; stroke-width: 1.0;"/><path d="M253.5938,779.6719 C252.6563,779.2344 252.0625,779.0938 251.1875,779.0938 C248.5625,779.0938 246.5625,781.1719 246.5625,783.8906 L246.5625,785.0156 C246.5625,787.5938 248.6719,789.4844 251.5625,789.4844 C252.7813,789.4844 253.9375,789.1875 254.6875,788.6406 C255.2656,788.2344 255.5938,787.7813 255.5938,787.3906 C255.5938,786.9375 255.2031,786.5469 254.7344,786.5469 C254.5156,786.5469 254.3125,786.625 254.125,786.8125 C253.6719,787.2969 253.6719,787.2969 253.4844,787.3906 C253.0625,787.6563 252.375,787.7813 251.6094,787.7813 C249.5625,787.7813 248.2656,786.6875 248.2656,784.9844 L248.2656,783.8906 C248.2656,782.1094 249.5156,780.7969 251.25,780.7969 C251.8281,780.7969 252.4375,780.9531 252.9063,781.2031 C253.3906,781.4844 253.5625,781.7031 253.6563,782.1094 C253.7188,782.5156 253.75,782.6406 253.8906,782.7656 C254.0313,782.9063 254.2656,783.0156 254.4844,783.0156 C254.75,783.0156 255.0156,782.875 255.1875,782.6563 C255.2969,782.5 255.3281,782.3125 255.3281,781.8906 L255.3281,780.4688 C255.3281,780.0313 255.3125,779.9063 255.2188,779.75 C255.0625,779.4844 254.7813,779.3438 254.4844,779.3438 C254.1875,779.3438 253.9844,779.4375 253.7656,779.75 L253.5938,779.6719 Z "/><text fill="#000000" font-family="sans-serif" font-size="12" lengthAdjust="spacingAndGlyphs" textLength="85" x="271.75" y="788.1543">MachinePlayer</text><line style="stroke: #A80036; stroke-width: 1.5;" x1="181.5" x2="414.5" y1="800" y2="800"/><line style="stroke: #A80036; stroke-width: 1.5;" x1="181.5" x2="414.5" y1="808" y2="808"/><polygon fill="#4177AF" points="191.5,815,187.5,821,195.5,821" style="stroke: #1963A0; stroke-width: 1.0;"/><text fill="#000000" font-family="sans-serif" font-size="11" lengthAdjust="spacingAndGlyphs" textLength="165" x="200.5" y="822.2104">MachinePlayer(Token, Board)</text><polygon fill="#4177AF" points="191.5,827.8047,187.5,833.8047,195.5,833.8047" style="stroke: #1963A0; stroke-width: 1.0;"/><text fill="#000000" font-family="sans-serif" font-size="11" lengthAdjust="spacingAndGlyphs" textLength="209" x="200.5" y="835.0151">getCoordinate(Message): Coordinate</text><!--MD5=[ab82296a7d93ea792c7bfd4e9ca759e8]
class usantatecla.tictactoe.Message--><rect codeLine="50" fill="#FEFECE" filter="url(#ffe3bx1ogehlg)" height="278.4844" id="usantatecla.tictactoe.Message" style="stroke: #A80036; stroke-width: 1.5;" width="218" x="356" y="973"/><ellipse cx="433.25" cy="989" fill="#EB937F" rx="11" ry="11" style="stroke: #A80036; stroke-width: 1.0;"/><path d="M432.0469,989.875 L433.5,989.875 L433.5,989.9844 C433.5,990.3906 433.5313,990.5469 433.6094,990.7031 C433.7656,990.9531 434.0469,991.1094 434.3438,991.1094 C434.5938,991.1094 434.8594,990.9688 435.0156,990.75 C435.1406,990.5938 435.1719,990.4375 435.1719,989.9844 L435.1719,988.0625 C435.1719,987.9063 435.1719,987.8594 435.1563,987.7031 C435.0938,987.2344 434.7813,986.9219 434.3281,986.9219 C434.0781,986.9219 433.8125,987.0625 433.6406,987.2813 C433.5313,987.4531 433.5,987.6094 433.5,988.0625 L433.5,988.1875 L432.0469,988.1875 L432.0469,985.7813 L436.0313,985.7813 L436.0313,986.6406 C436.0313,987.0469 436.0625,987.2188 436.1406,987.375 C436.3125,987.625 436.5938,987.7813 436.875,987.7813 C437.1406,987.7813 437.4063,987.6406 437.5781,987.4219 C437.6875,987.25 437.7188,987.1094 437.7188,986.6406 L437.7188,984.0938 L430.0938,984.0938 C429.6563,984.0938 429.5313,984.1094 429.375,984.2031 C429.125,984.3594 428.9688,984.6563 428.9688,984.9375 C428.9688,985.2188 429.1094,985.4688 429.3281,985.6406 C429.4844,985.75 429.6719,985.7813 430.0938,985.7813 L430.3438,985.7813 L430.3438,992.2969 L430.0938,992.2969 C429.6875,992.2969 429.5313,992.3125 429.375,992.4219 C429.125,992.5938 428.9688,992.8594 428.9688,993.1563 C428.9688,993.4219 429.1094,993.6719 429.3281,993.8281 C429.4688,993.9531 429.7031,994 430.0938,994 L438.0938,994 L438.0938,991.4219 C438.0938,990.9844 438.0625,990.8438 437.9844,990.6875 C437.8125,990.4375 437.5313,990.2813 437.25,990.2813 C436.9844,990.2813 436.7188,990.3906 436.5469,990.6406 C436.4375,990.7969 436.4063,990.9375 436.4063,991.4219 L436.4063,992.2969 L432.0469,992.2969 L432.0469,989.875 Z "/><text fill="#000000" font-family="sans-serif" font-size="12" lengthAdjust="spacingAndGlyphs" textLength="55" x="453.75" y="993.1543">Message</text><line style="stroke: #A80036; stroke-width: 1.5;" x1="357" x2="573" y1="1005" y2="1005"/><ellipse cx="367" cy="1016" fill="none" rx="3" ry="3" style="stroke: #038048; stroke-width: 1.0;"/><text fill="#000000" font-family="sans-serif" font-size="11" lengthAdjust="spacingAndGlyphs" textLength="37" x="376" y="1019.2104">TITTLE</text><ellipse cx="367" cy="1028.8047" fill="none" rx="3" ry="3" style="stroke: #038048; stroke-width: 1.0;"/><text fill="#000000" font-family="sans-serif" font-size="11" lengthAdjust="spacingAndGlyphs" textLength="102" x="376" y="1032.0151">NUMBER_PLAYERS</text><ellipse cx="367" cy="1041.6094" fill="none" rx="3" ry="3" style="stroke: #038048; stroke-width: 1.0;"/><text fill="#000000" font-family="sans-serif" font-size="11" lengthAdjust="spacingAndGlyphs" textLength="67" x="376" y="1044.8198">SEPARATOR</text><ellipse cx="367" cy="1054.4141" fill="none" rx="3" ry="3" style="stroke: #038048; stroke-width: 1.0;"/><text fill="#000000" font-family="sans-serif" font-size="11" lengthAdjust="spacingAndGlyphs" textLength="116" x="376" y="1057.6245">VERTICAL_LINE_LEFT</text><ellipse cx="367" cy="1067.2188" fill="none" rx="3" ry="3" style="stroke: #038048; stroke-width: 1.0;"/><text fill="#000000" font-family="sans-serif" font-size="11" lengthAdjust="spacingAndGlyphs" textLength="150" x="376" y="1070.4292">VERTICAL_LINE_CENTERED</text><ellipse cx="367" cy="1080.0234" fill="none" rx="3" ry="3" style="stroke: #038048; stroke-width: 1.0;"/><text fill="#000000" font-family="sans-serif" font-size="11" lengthAdjust="spacingAndGlyphs" textLength="124" x="376" y="1083.2339">VERTICAL_LINE_RIGHT</text><ellipse cx="367" cy="1092.8281" fill="none" rx="3" ry="3" style="stroke: #038048; stroke-width: 1.0;"/><text fill="#000000" font-family="sans-serif" font-size="11" lengthAdjust="spacingAndGlyphs" textLength="166" x="376" y="1096.0386">ENTER_COORDINATE_TO_PUT</text><ellipse cx="367" cy="1105.6328" fill="none" rx="3" ry="3" style="stroke: #038048; stroke-width: 1.0;"/><text fill="#000000" font-family="sans-serif" font-size="11" lengthAdjust="spacingAndGlyphs" textLength="192" x="376" y="1108.8433">ENTER_COORDINATE_TO_REMOVE</text><ellipse cx="367" cy="1118.4375" fill="none" rx="3" ry="3" style="stroke: #038048; stroke-width: 1.0;"/><text fill="#000000" font-family="sans-serif" font-size="11" lengthAdjust="spacingAndGlyphs" textLength="124" x="376" y="1121.6479">COORDINATE_TO_PUT</text><ellipse cx="367" cy="1131.2422" fill="none" rx="3" ry="3" style="stroke: #038048; stroke-width: 1.0;"/><text fill="#000000" font-family="sans-serif" font-size="11" lengthAdjust="spacingAndGlyphs" textLength="150" x="376" y="1134.4526">COORDINATE_TO_REMOVE</text><ellipse cx="367" cy="1144.0469" fill="none" rx="3" ry="3" style="stroke: #038048; stroke-width: 1.0;"/><text fill="#000000" font-family="sans-serif" font-size="11" lengthAdjust="spacingAndGlyphs" textLength="136" x="376" y="1147.2573">COORDINATE_TO_MOVE</text><ellipse cx="367" cy="1156.8516" fill="none" rx="3" ry="3" style="stroke: #038048; stroke-width: 1.0;"/><text fill="#000000" font-family="sans-serif" font-size="11" lengthAdjust="spacingAndGlyphs" textLength="69" x="376" y="1160.062">PLAYER_WIN</text><ellipse cx="367" cy="1169.6563" fill="none" rx="3" ry="3" style="stroke: #038048; stroke-width: 1.0;"/><text fill="#000000" font-family="sans-serif" font-size="11" lengthAdjust="spacingAndGlyphs" textLength="46" x="376" y="1172.8667">RESUME</text><rect fill="none" height="6" style="stroke: #C82930; stroke-width: 1.0;" width="6" x="364" y="1179.4609"/><text fill="#000000" font-family="sans-serif" font-size="11" lengthAdjust="spacingAndGlyphs" textLength="93" x="376" y="1185.6714">message: String</text><line style="stroke: #A80036; stroke-width: 1.5;" x1="357" x2="573" y1="1192.2656" y2="1192.2656"/><rect fill="#F24D5C" height="6" style="stroke: #C82930; stroke-width: 1.0;" width="6" x="364" y="1200.2656"/><text fill="#000000" font-family="sans-serif" font-size="11" lengthAdjust="spacingAndGlyphs" textLength="92" x="376" y="1206.4761">Message(String)</text><polygon fill="#4177AF" points="367,1212.0703,363,1218.0703,371,1218.0703" style="stroke: #1963A0; stroke-width: 1.0;"/><text fill="#000000" font-family="sans-serif" font-size="11" lengthAdjust="spacingAndGlyphs" textLength="36" x="376" y="1219.2808">write()</text><polygon fill="#4177AF" points="367,1224.875,363,1230.875,371,1230.875" style="stroke: #1963A0; stroke-width: 1.0;"/><text fill="#000000" font-family="sans-serif" font-size="11" lengthAdjust="spacingAndGlyphs" textLength="46" x="376" y="1232.0854">writeln()</text><ellipse cx="367" cy="1241.6797" fill="#84BE84" rx="3" ry="3" style="stroke: #038048; stroke-width: 1.0;"/><text fill="#000000" font-family="sans-serif" font-size="11" lengthAdjust="spacingAndGlyphs" textLength="92" x="376" y="1244.8901">toString(): String</text><!--MD5=[b455952d252d0eefae6035326d3db921]
class usantatecla.tictactoe.Player--><rect codeLine="72" fill="#FEFECE" filter="url(#ffe3bx1ogehlg)" height="176.0469" id="usantatecla.tictactoe.Player" style="stroke: #A80036; stroke-width: 1.5;" width="387" x="211.5" y="445"/><ellipse cx="382.75" cy="461" fill="#A9DCDF" rx="11" ry="11" style="stroke: #A80036; stroke-width: 1.0;"/><path d="M384.8281,462.8125 L385.2188,463.7969 L384.8281,463.7969 C384.375,463.7969 384.2656,463.8125 384.1094,463.9219 C383.8594,464.0781 383.7031,464.3594 383.7031,464.6563 C383.7031,464.9219 383.8438,465.1719 384.0625,465.3281 C384.2031,465.4531 384.4063,465.5 384.8281,465.5 L387.1875,465.5 C387.5469,465.5 387.7656,465.4688 387.9063,465.375 C388.1563,465.2344 388.3125,464.9375 388.3125,464.6563 C388.3125,464.375 388.1719,464.125 387.9531,463.9688 C387.7813,463.8281 387.625,463.7969 387.1563,463.7969 L383.7656,455.5938 L380.0938,455.5938 C379.6406,455.5938 379.5156,455.6094 379.3594,455.7031 C379.1094,455.875 378.9531,456.1563 378.9531,456.4375 C378.9531,456.7188 379.0938,456.9688 379.3125,457.1406 C379.4844,457.25 379.6563,457.2813 380.0938,457.2813 L381.1719,457.2813 L378.5313,463.7969 C378.1094,463.7969 377.9531,463.8125 377.7969,463.9219 C377.5469,464.0781 377.3906,464.3594 377.3906,464.6563 C377.3906,465.2188 377.7656,465.5 378.5156,465.5 L380.7813,465.5 C381.1406,465.5 381.3594,465.4688 381.4844,465.375 C381.75,465.2344 381.8906,464.9375 381.8906,464.6563 C381.8906,464.375 381.7656,464.125 381.5469,463.9531 C381.375,463.8281 381.2344,463.7969 380.7813,463.7969 L380.3906,463.7969 L380.7813,462.8125 L384.8281,462.8125 Z M384.125,461.1094 L381.4531,461.1094 L382.7969,457.8438 L384.125,461.1094 Z "/><text fill="#000000" font-family="sans-serif" font-size="12" font-style="italic" lengthAdjust="spacingAndGlyphs" textLength="36" x="403.25" y="465.1543">Player</text><line style="stroke: #A80036; stroke-width: 1.5;" x1="212.5" x2="597.5" y1="477" y2="477"/><line style="stroke: #A80036; stroke-width: 1.5;" x1="212.5" x2="597.5" y1="485" y2="485"/><polygon fill="#4177AF" points="222.5,492,218.5,498,226.5,498" style="stroke: #1963A0; stroke-width: 1.0;"/><text fill="#000000" font-family="sans-serif" font-size="11" lengthAdjust="spacingAndGlyphs" textLength="118" x="231.5" y="499.2104">Player(Token, Board)</text><polygon fill="#4177AF" points="222.5,504.8047,218.5,510.8047,226.5,510.8047" style="stroke: #1963A0; stroke-width: 1.0;"/><text fill="#000000" font-family="sans-serif" font-size="11" lengthAdjust="spacingAndGlyphs" textLength="32" x="231.5" y="512.0151">play()</text><rect fill="#F24D5C" height="6" style="stroke: #C82930; stroke-width: 1.0;" width="6" x="219.5" y="518.6094"/><text fill="#000000" font-family="sans-serif" font-size="11" lengthAdjust="spacingAndGlyphs" textLength="26" x="231.5" y="524.8198">put()</text><polygon fill="#4177AF" points="222.5,530.4141,218.5,536.4141,226.5,536.4141" style="stroke: #1963A0; stroke-width: 1.0;"/><text fill="#000000" font-family="sans-serif" font-size="11" lengthAdjust="spacingAndGlyphs" textLength="258" x="231.5" y="537.6245">abstract getCoordinate(Message): Coordinate</text><polygon fill="#4177AF" points="222.5,543.2188,218.5,549.2188,226.5,549.2188" style="stroke: #1963A0; stroke-width: 1.0;"/><text fill="#000000" font-family="sans-serif" font-size="11" lengthAdjust="spacingAndGlyphs" textLength="241" x="231.5" y="550.4292">checkPutCoordinateError(Coordinate): Error</text><rect fill="#F24D5C" height="6" style="stroke: #C82930; stroke-width: 1.0;" width="6" x="219.5" y="557.0234"/><text fill="#000000" font-family="sans-serif" font-size="11" lengthAdjust="spacingAndGlyphs" textLength="41" x="231.5" y="563.2339">move()</text><polygon fill="#4177AF" points="222.5,568.8281,218.5,574.8281,226.5,574.8281" style="stroke: #1963A0; stroke-width: 1.0;"/><text fill="#000000" font-family="sans-serif" font-size="11" lengthAdjust="spacingAndGlyphs" textLength="288" x="231.5" y="576.0386">checkMoveOriginCoordinateError(Coordinate): Error</text><polygon fill="#4177AF" points="222.5,581.6328,218.5,587.6328,226.5,587.6328" style="stroke: #1963A0; stroke-width: 1.0;"/><text fill="#000000" font-family="sans-serif" font-size="11" lengthAdjust="spacingAndGlyphs" textLength="361" x="231.5" y="588.8433">checkMoveTargetCoordinateError(Coordinate, Coordinate): Error</text><polygon fill="#4177AF" points="222.5,594.4375,218.5,600.4375,226.5,600.4375" style="stroke: #1963A0; stroke-width: 1.0;"/><text fill="#000000" font-family="sans-serif" font-size="11" lengthAdjust="spacingAndGlyphs" textLength="76" x="231.5" y="601.6479">writeWinner()</text><polygon fill="#4177AF" points="222.5,607.2422,218.5,613.2422,226.5,613.2422" style="stroke: #1963A0; stroke-width: 1.0;"/><text fill="#000000" font-family="sans-serif" font-size="11" lengthAdjust="spacingAndGlyphs" textLength="104" x="231.5" y="614.4526">getToken(): Token</text><!--MD5=[4b5d579ecc4748d1b21f2fd6d497d353]
class usantatecla.tictactoe.TicTacToe--><rect codeLine="85" fill="#FEFECE" filter="url(#ffe3bx1ogehlg)" height="112.0234" id="usantatecla.tictactoe.TicTacToe" style="stroke: #A80036; stroke-width: 1.5;" width="185" x="922.5" y="41"/><ellipse cx="980.25" cy="57" fill="#ADD1B2" rx="11" ry="11" style="stroke: #A80036; stroke-width: 1.0;"/><path d="M982.5938,52.6719 C981.6563,52.2344 981.0625,52.0938 980.1875,52.0938 C977.5625,52.0938 975.5625,54.1719 975.5625,56.8906 L975.5625,58.0156 C975.5625,60.5938 977.6719,62.4844 980.5625,62.4844 C981.7813,62.4844 982.9375,62.1875 983.6875,61.6406 C984.2656,61.2344 984.5938,60.7813 984.5938,60.3906 C984.5938,59.9375 984.2031,59.5469 983.7344,59.5469 C983.5156,59.5469 983.3125,59.625 983.125,59.8125 C982.6719,60.2969 982.6719,60.2969 982.4844,60.3906 C982.0625,60.6563 981.375,60.7813 980.6094,60.7813 C978.5625,60.7813 977.2656,59.6875 977.2656,57.9844 L977.2656,56.8906 C977.2656,55.1094 978.5156,53.7969 980.25,53.7969 C980.8281,53.7969 981.4375,53.9531 981.9063,54.2031 C982.3906,54.4844 982.5625,54.7031 982.6563,55.1094 C982.7188,55.5156 982.75,55.6406 982.8906,55.7656 C983.0313,55.9063 983.2656,56.0156 983.4844,56.0156 C983.75,56.0156 984.0156,55.875 984.1875,55.6563 C984.2969,55.5 984.3281,55.3125 984.3281,54.8906 L984.3281,53.4688 C984.3281,53.0313 984.3125,52.9063 984.2188,52.75 C984.0625,52.4844 983.7813,52.3438 983.4844,52.3438 C983.1875,52.3438 982.9844,52.4375 982.7656,52.75 L982.5938,52.6719 Z "/><text fill="#000000" font-family="sans-serif" font-size="12" lengthAdjust="spacingAndGlyphs" textLength="61" x="1000.75" y="61.1543">TicTacToe</text><line style="stroke: #A80036; stroke-width: 1.5;" x1="923.5" x2="1106.5" y1="73" y2="73"/><line style="stroke: #A80036; stroke-width: 1.5;" x1="923.5" x2="1106.5" y1="81" y2="81"/><polygon fill="#4177AF" points="933.5,88,929.5,94,937.5,94" style="stroke: #1963A0; stroke-width: 1.0;"/><text fill="#000000" font-family="sans-serif" font-size="11" lengthAdjust="spacingAndGlyphs" textLength="66" x="942.5" y="95.2104">TicTacToe()</text><rect fill="#F24D5C" height="6" style="stroke: #C82930; stroke-width: 1.0;" width="6" x="930.5" y="101.8047"/><text fill="#000000" font-family="sans-serif" font-size="11" lengthAdjust="spacingAndGlyphs" textLength="32" x="942.5" y="108.0151">play()</text><rect fill="#F24D5C" height="6" style="stroke: #C82930; stroke-width: 1.0;" width="6" x="930.5" y="114.6094"/><text fill="#000000" font-family="sans-serif" font-size="11" lengthAdjust="spacingAndGlyphs" textLength="67" x="942.5" y="120.8198">playGame()</text><rect fill="#F24D5C" height="6" style="stroke: #C82930; stroke-width: 1.0;" width="6" x="930.5" y="127.4141"/><text fill="#000000" font-family="sans-serif" font-size="11" lengthAdjust="spacingAndGlyphs" textLength="159" x="942.5" y="133.6245">isResumedGame(): boolean</text><ellipse cx="933.5" cy="143.2188" fill="#84BE84" rx="3" ry="3" style="stroke: #038048; stroke-width: 1.0;"/><text fill="#000000" font-family="sans-serif" font-size="11" lengthAdjust="spacingAndGlyphs" text-decoration="underline" textLength="77" x="942.5" y="146.4292">main(String[])</text><!--MD5=[70d70054f98ac0881f23804484f4abda]
class usantatecla.tictactoe.Token--><rect codeLine="93" fill="#FEFECE" filter="url(#ffe3bx1ogehlg)" height="124.8281" id="usantatecla.tictactoe.Token" style="stroke: #A80036; stroke-width: 1.5;" width="117" x="809.5" y="1049.5"/><ellipse cx="846.1" cy="1065.5" fill="#EB937F" rx="11" ry="11" style="stroke: #A80036; stroke-width: 1.0;"/><path d="M844.8969,1066.375 L846.35,1066.375 L846.35,1066.4844 C846.35,1066.8906 846.3813,1067.0469 846.4594,1067.2031 C846.6156,1067.4531 846.8969,1067.6094 847.1938,1067.6094 C847.4438,1067.6094 847.7094,1067.4688 847.8656,1067.25 C847.9906,1067.0938 848.0219,1066.9375 848.0219,1066.4844 L848.0219,1064.5625 C848.0219,1064.4063 848.0219,1064.3594 848.0063,1064.2031 C847.9438,1063.7344 847.6313,1063.4219 847.1781,1063.4219 C846.9281,1063.4219 846.6625,1063.5625 846.4906,1063.7813 C846.3813,1063.9531 846.35,1064.1094 846.35,1064.5625 L846.35,1064.6875 L844.8969,1064.6875 L844.8969,1062.2813 L848.8813,1062.2813 L848.8813,1063.1406 C848.8813,1063.5469 848.9125,1063.7188 848.9906,1063.875 C849.1625,1064.125 849.4438,1064.2813 849.725,1064.2813 C849.9906,1064.2813 850.2563,1064.1406 850.4281,1063.9219 C850.5375,1063.75 850.5688,1063.6094 850.5688,1063.1406 L850.5688,1060.5938 L842.9438,1060.5938 C842.5063,1060.5938 842.3813,1060.6094 842.225,1060.7031 C841.975,1060.8594 841.8188,1061.1563 841.8188,1061.4375 C841.8188,1061.7188 841.9594,1061.9688 842.1781,1062.1406 C842.3344,1062.25 842.5219,1062.2813 842.9438,1062.2813 L843.1938,1062.2813 L843.1938,1068.7969 L842.9438,1068.7969 C842.5375,1068.7969 842.3813,1068.8125 842.225,1068.9219 C841.975,1069.0938 841.8188,1069.3594 841.8188,1069.6563 C841.8188,1069.9219 841.9594,1070.1719 842.1781,1070.3281 C842.3188,1070.4531 842.5531,1070.5 842.9438,1070.5 L850.9438,1070.5 L850.9438,1067.9219 C850.9438,1067.4844 850.9125,1067.3438 850.8344,1067.1875 C850.6625,1066.9375 850.3813,1066.7813 850.1,1066.7813 C849.8344,1066.7813 849.5688,1066.8906 849.3969,1067.1406 C849.2875,1067.2969 849.2563,1067.4375 849.2563,1067.9219 L849.2563,1068.7969 L844.8969,1068.7969 L844.8969,1066.375 Z "/><text fill="#000000" font-family="sans-serif" font-size="12" lengthAdjust="spacingAndGlyphs" textLength="37" x="864.9" y="1069.6543">Token</text><line style="stroke: #A80036; stroke-width: 1.5;" x1="810.5" x2="925.5" y1="1081.5" y2="1081.5"/><ellipse cx="820.5" cy="1092.5" fill="none" rx="3" ry="3" style="stroke: #038048; stroke-width: 1.0;"/><text fill="#000000" font-family="sans-serif" font-size="11" lengthAdjust="spacingAndGlyphs" textLength="52" x="829.5" y="1095.7104">X_TOKEN</text><ellipse cx="820.5" cy="1105.3047" fill="none" rx="3" ry="3" style="stroke: #038048; stroke-width: 1.0;"/><text fill="#000000" font-family="sans-serif" font-size="11" lengthAdjust="spacingAndGlyphs" textLength="51" x="829.5" y="1108.5151">Y_TOKEN</text><ellipse cx="820.5" cy="1118.1094" fill="none" rx="3" ry="3" style="stroke: #038048; stroke-width: 1.0;"/><text fill="#000000" font-family="sans-serif" font-size="11" lengthAdjust="spacingAndGlyphs" textLength="28" x="829.5" y="1121.3198">NULL</text><line style="stroke: #A80036; stroke-width: 1.5;" x1="810.5" x2="925.5" y1="1127.9141" y2="1127.9141"/><ellipse cx="820.5" cy="1138.9141" fill="#84BE84" rx="3" ry="3" style="stroke: #038048; stroke-width: 1.0;"/><text fill="#000000" font-family="sans-serif" font-size="11" lengthAdjust="spacingAndGlyphs" textLength="91" x="829.5" y="1142.1245">isNull(): boolean</text><polygon fill="#4177AF" points="820.5,1147.7188,816.5,1153.7188,824.5,1153.7188" style="stroke: #1963A0; stroke-width: 1.0;"/><text fill="#000000" font-family="sans-serif" font-size="11" lengthAdjust="spacingAndGlyphs" textLength="36" x="829.5" y="1154.9292">write()</text><polygon fill="#4177AF" points="820.5,1160.5234,816.5,1166.5234,824.5,1166.5234" style="stroke: #1963A0; stroke-width: 1.0;"/><text fill="#000000" font-family="sans-serif" font-size="11" lengthAdjust="spacingAndGlyphs" text-decoration="underline" textLength="83" x="829.5" y="1167.7339">get(int): Token</text><!--MD5=[89d1a2b514c7103883fb14486df62cac]
class usantatecla.tictactoe.Turn--><rect codeLine="102" fill="#FEFECE" filter="url(#ffe3bx1ogehlg)" height="137.6328" id="usantatecla.tictactoe.Turn" style="stroke: #A80036; stroke-width: 1.5;" width="149" x="330.5" y="230"/><ellipse cx="387.75" cy="246" fill="#ADD1B2" rx="11" ry="11" style="stroke: #A80036; stroke-width: 1.0;"/><path d="M390.0938,241.6719 C389.1563,241.2344 388.5625,241.0938 387.6875,241.0938 C385.0625,241.0938 383.0625,243.1719 383.0625,245.8906 L383.0625,247.0156 C383.0625,249.5938 385.1719,251.4844 388.0625,251.4844 C389.2813,251.4844 390.4375,251.1875 391.1875,250.6406 C391.7656,250.2344 392.0938,249.7813 392.0938,249.3906 C392.0938,248.9375 391.7031,248.5469 391.2344,248.5469 C391.0156,248.5469 390.8125,248.625 390.625,248.8125 C390.1719,249.2969 390.1719,249.2969 389.9844,249.3906 C389.5625,249.6563 388.875,249.7813 388.1094,249.7813 C386.0625,249.7813 384.7656,248.6875 384.7656,246.9844 L384.7656,245.8906 C384.7656,244.1094 386.0156,242.7969 387.75,242.7969 C388.3281,242.7969 388.9375,242.9531 389.4063,243.2031 C389.8906,243.4844 390.0625,243.7031 390.1563,244.1094 C390.2188,244.5156 390.25,244.6406 390.3906,244.7656 C390.5313,244.9063 390.7656,245.0156 390.9844,245.0156 C391.25,245.0156 391.5156,244.875 391.6875,244.6563 C391.7969,244.5 391.8281,244.3125 391.8281,243.8906 L391.8281,242.4688 C391.8281,242.0313 391.8125,241.9063 391.7188,241.75 C391.5625,241.4844 391.2813,241.3438 390.9844,241.3438 C390.6875,241.3438 390.4844,241.4375 390.2656,241.75 L390.0938,241.6719 Z "/><text fill="#000000" font-family="sans-serif" font-size="12" lengthAdjust="spacingAndGlyphs" textLength="26" x="408.25" y="250.1543">Turn</text><line style="stroke: #A80036; stroke-width: 1.5;" x1="331.5" x2="478.5" y1="262" y2="262"/><polygon fill="none" points="341.5,269,337.5,275,345.5,275" style="stroke: #1963A0; stroke-width: 1.0;"/><text fill="#000000" font-family="sans-serif" font-size="11" lengthAdjust="spacingAndGlyphs" text-decoration="underline" textLength="123" x="350.5" y="276.2104">NUMBER_PLAYERS: int</text><rect fill="none" height="6" style="stroke: #C82930; stroke-width: 1.0;" width="6" x="338.5" y="282.8047"/><text fill="#000000" font-family="sans-serif" font-size="11" lengthAdjust="spacingAndGlyphs" textLength="56" x="350.5" y="289.0151">active: int</text><line style="stroke: #A80036; stroke-width: 1.5;" x1="331.5" x2="478.5" y1="295.6094" y2="295.6094"/><polygon fill="#4177AF" points="341.5,302.6094,337.5,308.6094,345.5,308.6094" style="stroke: #1963A0; stroke-width: 1.0;"/><text fill="#000000" font-family="sans-serif" font-size="11" lengthAdjust="spacingAndGlyphs" textLength="66" x="350.5" y="309.8198">Turn(Board)</text><polygon fill="#4177AF" points="341.5,315.4141,337.5,321.4141,345.5,321.4141" style="stroke: #1963A0; stroke-width: 1.0;"/><text fill="#000000" font-family="sans-serif" font-size="11" lengthAdjust="spacingAndGlyphs" textLength="32" x="350.5" y="322.6245">play()</text><rect fill="#F24D5C" height="6" style="stroke: #C82930; stroke-width: 1.0;" width="6" x="338.5" y="329.2188"/><text fill="#000000" font-family="sans-serif" font-size="11" lengthAdjust="spacingAndGlyphs" textLength="104" x="350.5" y="335.4292">getPlayer(): Player</text><polygon fill="#4177AF" points="341.5,341.0234,337.5,347.0234,345.5,347.0234" style="stroke: #1963A0; stroke-width: 1.0;"/><text fill="#000000" font-family="sans-serif" font-size="11" lengthAdjust="spacingAndGlyphs" textLength="76" x="350.5" y="348.2339">writeWinner()</text><polygon fill="#4177AF" points="341.5,353.8281,337.5,359.8281,345.5,359.8281" style="stroke: #1963A0; stroke-width: 1.0;"/><text fill="#000000" font-family="sans-serif" font-size="11" lengthAdjust="spacingAndGlyphs" textLength="104" x="350.5" y="361.0386">getToken(): Token</text><!--MD5=[d6372c72e2ccc5ff253d254b6fe719ff]
class usantatecla.tictactoe.UserPlayer--><rect codeLine="112" fill="#FEFECE" filter="url(#ffe3bx1ogehlg)" height="112.0234" id="usantatecla.tictactoe.UserPlayer" style="stroke: #A80036; stroke-width: 1.5;" width="387" x="559.5" y="749"/><ellipse cx="716.25" cy="765" fill="#ADD1B2" rx="11" ry="11" style="stroke: #A80036; stroke-width: 1.0;"/><path d="M718.5938,760.6719 C717.6563,760.2344 717.0625,760.0938 716.1875,760.0938 C713.5625,760.0938 711.5625,762.1719 711.5625,764.8906 L711.5625,766.0156 C711.5625,768.5938 713.6719,770.4844 716.5625,770.4844 C717.7813,770.4844 718.9375,770.1875 719.6875,769.6406 C720.2656,769.2344 720.5938,768.7813 720.5938,768.3906 C720.5938,767.9375 720.2031,767.5469 719.7344,767.5469 C719.5156,767.5469 719.3125,767.625 719.125,767.8125 C718.6719,768.2969 718.6719,768.2969 718.4844,768.3906 C718.0625,768.6563 717.375,768.7813 716.6094,768.7813 C714.5625,768.7813 713.2656,767.6875 713.2656,765.9844 L713.2656,764.8906 C713.2656,763.1094 714.5156,761.7969 716.25,761.7969 C716.8281,761.7969 717.4375,761.9531 717.9063,762.2031 C718.3906,762.4844 718.5625,762.7031 718.6563,763.1094 C718.7188,763.5156 718.75,763.6406 718.8906,763.7656 C719.0313,763.9063 719.2656,764.0156 719.4844,764.0156 C719.75,764.0156 720.0156,763.875 720.1875,763.6563 C720.2969,763.5 720.3281,763.3125 720.3281,762.8906 L720.3281,761.4688 C720.3281,761.0313 720.3125,760.9063 720.2188,760.75 C720.0625,760.4844 719.7813,760.3438 719.4844,760.3438 C719.1875,760.3438 718.9844,760.4375 718.7656,760.75 L718.5938,760.6719 Z "/><text fill="#000000" font-family="sans-serif" font-size="12" lengthAdjust="spacingAndGlyphs" textLength="65" x="736.75" y="769.1543">UserPlayer</text><line style="stroke: #A80036; stroke-width: 1.5;" x1="560.5" x2="945.5" y1="781" y2="781"/><line style="stroke: #A80036; stroke-width: 1.5;" x1="560.5" x2="945.5" y1="789" y2="789"/><polygon fill="#4177AF" points="570.5,796,566.5,802,574.5,802" style="stroke: #1963A0; stroke-width: 1.0;"/><text fill="#000000" font-family="sans-serif" font-size="11" lengthAdjust="spacingAndGlyphs" textLength="144" x="579.5" y="803.2104">UserPlayer(Token, Board)</text><polygon fill="#4177AF" points="570.5,808.8047,566.5,814.8047,574.5,814.8047" style="stroke: #1963A0; stroke-width: 1.0;"/><text fill="#000000" font-family="sans-serif" font-size="11" lengthAdjust="spacingAndGlyphs" textLength="266" x="579.5" y="816.0151">getCoordinate(Message message): Coordinate</text><polygon fill="#4177AF" points="570.5,821.6094,566.5,827.6094,574.5,827.6094" style="stroke: #1963A0; stroke-width: 1.0;"/><text fill="#000000" font-family="sans-serif" font-size="11" lengthAdjust="spacingAndGlyphs" textLength="241" x="579.5" y="828.8198">checkPutCoordinateError(Coordinate): Error</text><polygon fill="#4177AF" points="570.5,834.4141,566.5,840.4141,574.5,840.4141" style="stroke: #1963A0; stroke-width: 1.0;"/><text fill="#000000" font-family="sans-serif" font-size="11" lengthAdjust="spacingAndGlyphs" textLength="288" x="579.5" y="841.6245">checkMoveOriginCoordinateError(Coordinate): Error</text><polygon fill="#4177AF" points="570.5,847.2188,566.5,853.2188,574.5,853.2188" style="stroke: #1963A0; stroke-width: 1.0;"/><text fill="#000000" font-family="sans-serif" font-size="11" lengthAdjust="spacingAndGlyphs" textLength="361" x="579.5" y="854.4292">checkMoveTargetCoordinateError(Coordinate, Coordinate): Error</text><!--MD5=[4ac948797cb0d646e058fac8f0726737]
class ConcreteCoordinate--><rect codeLine="139" fill="#FEFECE" filter="url(#ffe3bx1ogehlg)" height="48" id="ConcreteCoordinate" style="stroke: #A80036; stroke-width: 1.5;" width="251" x="1316.5" y="781"/><ellipse cx="1331.5" cy="797" fill="#ADD1B2" rx="11" ry="11" style="stroke: #A80036; stroke-width: 1.0;"/><path d="M1333.8438,792.6719 C1332.9063,792.2344 1332.3125,792.0938 1331.4375,792.0938 C1328.8125,792.0938 1326.8125,794.1719 1326.8125,796.8906 L1326.8125,798.0156 C1326.8125,800.5938 1328.9219,802.4844 1331.8125,802.4844 C1333.0313,802.4844 1334.1875,802.1875 1334.9375,801.6406 C1335.5156,801.2344 1335.8438,800.7813 1335.8438,800.3906 C1335.8438,799.9375 1335.4531,799.5469 1334.9844,799.5469 C1334.7656,799.5469 1334.5625,799.625 1334.375,799.8125 C1333.9219,800.2969 1333.9219,800.2969 1333.7344,800.3906 C1333.3125,800.6563 1332.625,800.7813 1331.8594,800.7813 C1329.8125,800.7813 1328.5156,799.6875 1328.5156,797.9844 L1328.5156,796.8906 C1328.5156,795.1094 1329.7656,793.7969 1331.5,793.7969 C1332.0781,793.7969 1332.6875,793.9531 1333.1563,794.2031 C1333.6406,794.4844 1333.8125,794.7031 1333.9063,795.1094 C1333.9688,795.5156 1334,795.6406 1334.1406,795.7656 C1334.2813,795.9063 1334.5156,796.0156 1334.7344,796.0156 C1335,796.0156 1335.2656,795.875 1335.4375,795.6563 C1335.5469,795.5 1335.5781,795.3125 1335.5781,794.8906 L1335.5781,793.4688 C1335.5781,793.0313 1335.5625,792.9063 1335.4688,792.75 C1335.3125,792.4844 1335.0313,792.3438 1334.7344,792.3438 C1334.4375,792.3438 1334.2344,792.4375 1334.0156,792.75 L1333.8438,792.6719 Z "/><text fill="#000000" font-family="sans-serif" font-size="12" lengthAdjust="spacingAndGlyphs" textLength="219" x="1345.5" y="801.1543">usantatecla.utils.ConcreteCoordinate</text><line style="stroke: #A80036; stroke-width: 1.5;" x1="1317.5" x2="1566.5" y1="813" y2="813"/><line style="stroke: #A80036; stroke-width: 1.5;" x1="1317.5" x2="1566.5" y1="821" y2="821"/><!--MD5=[f0e50675208408ddbf1ed7a91f4eb071]
class ClosedInterval--><rect codeLine="143" fill="#FEFECE" filter="url(#ffe3bx1ogehlg)" height="48" id="ClosedInterval" style="stroke: #A80036; stroke-width: 1.5;" width="216" x="1313" y="1369.5"/><ellipse cx="1328" cy="1385.5" fill="#ADD1B2" rx="11" ry="11" style="stroke: #A80036; stroke-width: 1.0;"/><path d="M1330.3438,1381.1719 C1329.4063,1380.7344 1328.8125,1380.5938 1327.9375,1380.5938 C1325.3125,1380.5938 1323.3125,1382.6719 1323.3125,1385.3906 L1323.3125,1386.5156 C1323.3125,1389.0938 1325.4219,1390.9844 1328.3125,1390.9844 C1329.5313,1390.9844 1330.6875,1390.6875 1331.4375,1390.1406 C1332.0156,1389.7344 1332.3438,1389.2813 1332.3438,1388.8906 C1332.3438,1388.4375 1331.9531,1388.0469 1331.4844,1388.0469 C1331.2656,1388.0469 1331.0625,1388.125 1330.875,1388.3125 C1330.4219,1388.7969 1330.4219,1388.7969 1330.2344,1388.8906 C1329.8125,1389.1563 1329.125,1389.2813 1328.3594,1389.2813 C1326.3125,1389.2813 1325.0156,1388.1875 1325.0156,1386.4844 L1325.0156,1385.3906 C1325.0156,1383.6094 1326.2656,1382.2969 1328,1382.2969 C1328.5781,1382.2969 1329.1875,1382.4531 1329.6563,1382.7031 C1330.1406,1382.9844 1330.3125,1383.2031 1330.4063,1383.6094 C1330.4688,1384.0156 1330.5,1384.1406 1330.6406,1384.2656 C1330.7813,1384.4063 1331.0156,1384.5156 1331.2344,1384.5156 C1331.5,1384.5156 1331.7656,1384.375 1331.9375,1384.1563 C1332.0469,1384 1332.0781,1383.8125 1332.0781,1383.3906 L1332.0781,1381.9688 C1332.0781,1381.5313 1332.0625,1381.4063 1331.9688,1381.25 C1331.8125,1380.9844 1331.5313,1380.8438 1331.2344,1380.8438 C1330.9375,1380.8438 1330.7344,1380.9375 1330.5156,1381.25 L1330.3438,1381.1719 Z "/><text fill="#000000" font-family="sans-serif" font-size="12" lengthAdjust="spacingAndGlyphs" textLength="184" x="1342" y="1389.6543">usantatecla.utils.ClosedInterval</text><line style="stroke: #A80036; stroke-width: 1.5;" x1="1314" x2="1528" y1="1401.5" y2="1401.5"/><line style="stroke: #A80036; stroke-width: 1.5;" x1="1314" x2="1528" y1="1409.5" y2="1409.5"/><!--MD5=[315b61b427ec618d6861d47eee00cca3]
class Console--><rect codeLine="147" fill="#FEFECE" filter="url(#ffe3bx1ogehlg)" height="48" id="Console" style="stroke: #A80036; stroke-width: 1.5;" width="179" x="1331.5" y="1538"/><ellipse cx="1346.5" cy="1554" fill="#ADD1B2" rx="11" ry="11" style="stroke: #A80036; stroke-width: 1.0;"/><path d="M1348.8438,1549.6719 C1347.9063,1549.2344 1347.3125,1549.0938 1346.4375,1549.0938 C1343.8125,1549.0938 1341.8125,1551.1719 1341.8125,1553.8906 L1341.8125,1555.0156 C1341.8125,1557.5938 1343.9219,1559.4844 1346.8125,1559.4844 C1348.0313,1559.4844 1349.1875,1559.1875 1349.9375,1558.6406 C1350.5156,1558.2344 1350.8438,1557.7813 1350.8438,1557.3906 C1350.8438,1556.9375 1350.4531,1556.5469 1349.9844,1556.5469 C1349.7656,1556.5469 1349.5625,1556.625 1349.375,1556.8125 C1348.9219,1557.2969 1348.9219,1557.2969 1348.7344,1557.3906 C1348.3125,1557.6563 1347.625,1557.7813 1346.8594,1557.7813 C1344.8125,1557.7813 1343.5156,1556.6875 1343.5156,1554.9844 L1343.5156,1553.8906 C1343.5156,1552.1094 1344.7656,1550.7969 1346.5,1550.7969 C1347.0781,1550.7969 1347.6875,1550.9531 1348.1563,1551.2031 C1348.6406,1551.4844 1348.8125,1551.7031 1348.9063,1552.1094 C1348.9688,1552.5156 1349,1552.6406 1349.1406,1552.7656 C1349.2813,1552.9063 1349.5156,1553.0156 1349.7344,1553.0156 C1350,1553.0156 1350.2656,1552.875 1350.4375,1552.6563 C1350.5469,1552.5 1350.5781,1552.3125 1350.5781,1551.8906 L1350.5781,1550.4688 C1350.5781,1550.0313 1350.5625,1549.9063 1350.4688,1549.75 C1350.3125,1549.4844 1350.0313,1549.3438 1349.7344,1549.3438 C1349.4375,1549.3438 1349.2344,1549.4375 1349.0156,1549.75 L1348.8438,1549.6719 Z "/><text fill="#000000" font-family="sans-serif" font-size="12" lengthAdjust="spacingAndGlyphs" textLength="147" x="1360.5" y="1558.1543">usantatecla.utils.Console</text><line style="stroke: #A80036; stroke-width: 1.5;" x1="1332.5" x2="1509.5" y1="1570" y2="1570"/><line style="stroke: #A80036; stroke-width: 1.5;" x1="1332.5" x2="1509.5" y1="1578" y2="1578"/><!--MD5=[58767b3ac92ed88fc68bd4b9dc66dad3]
class LimitedIntDialog--><rect codeLine="151" fill="#FEFECE" filter="url(#ffe3bx1ogehlg)" height="48" id="LimitedIntDialog" style="stroke: #A80036; stroke-width: 1.5;" width="225" x="1501.5" y="1088"/><ellipse cx="1516.5" cy="1104" fill="#ADD1B2" rx="11" ry="11" style="stroke: #A80036; stroke-width: 1.0;"/><path d="M1518.8438,1099.6719 C1517.9063,1099.2344 1517.3125,1099.0938 1516.4375,1099.0938 C1513.8125,1099.0938 1511.8125,1101.1719 1511.8125,1103.8906 L1511.8125,1105.0156 C1511.8125,1107.5938 1513.9219,1109.4844 1516.8125,1109.4844 C1518.0313,1109.4844 1519.1875,1109.1875 1519.9375,1108.6406 C1520.5156,1108.2344 1520.8438,1107.7813 1520.8438,1107.3906 C1520.8438,1106.9375 1520.4531,1106.5469 1519.9844,1106.5469 C1519.7656,1106.5469 1519.5625,1106.625 1519.375,1106.8125 C1518.9219,1107.2969 1518.9219,1107.2969 1518.7344,1107.3906 C1518.3125,1107.6563 1517.625,1107.7813 1516.8594,1107.7813 C1514.8125,1107.7813 1513.5156,1106.6875 1513.5156,1104.9844 L1513.5156,1103.8906 C1513.5156,1102.1094 1514.7656,1100.7969 1516.5,1100.7969 C1517.0781,1100.7969 1517.6875,1100.9531 1518.1563,1101.2031 C1518.6406,1101.4844 1518.8125,1101.7031 1518.9063,1102.1094 C1518.9688,1102.5156 1519,1102.6406 1519.1406,1102.7656 C1519.2813,1102.9063 1519.5156,1103.0156 1519.7344,1103.0156 C1520,1103.0156 1520.2656,1102.875 1520.4375,1102.6563 C1520.5469,1102.5 1520.5781,1102.3125 1520.5781,1101.8906 L1520.5781,1100.4688 C1520.5781,1100.0313 1520.5625,1099.9063 1520.4688,1099.75 C1520.3125,1099.4844 1520.0313,1099.3438 1519.7344,1099.3438 C1519.4375,1099.3438 1519.2344,1099.4375 1519.0156,1099.75 L1518.8438,1099.6719 Z "/><text fill="#000000" font-family="sans-serif" font-size="12" lengthAdjust="spacingAndGlyphs" textLength="193" x="1530.5" y="1108.1543">usantatecla.utils.LimitedIntDialog</text><line style="stroke: #A80036; stroke-width: 1.5;" x1="1502.5" x2="1725.5" y1="1120" y2="1120"/><line style="stroke: #A80036; stroke-width: 1.5;" x1="1502.5" x2="1725.5" y1="1128" y2="1128"/><!--MD5=[d93cf99d2b92276f27fe8dbf15140505]
class YesNoDialog--><rect codeLine="155" fill="#FEFECE" filter="url(#ffe3bx1ogehlg)" height="48" id="YesNoDialog" style="stroke: #A80036; stroke-width: 1.5;" width="206" x="1498" y="275"/><ellipse cx="1513" cy="291" fill="#ADD1B2" rx="11" ry="11" style="stroke: #A80036; stroke-width: 1.0;"/><path d="M1515.3438,286.6719 C1514.4063,286.2344 1513.8125,286.0938 1512.9375,286.0938 C1510.3125,286.0938 1508.3125,288.1719 1508.3125,290.8906 L1508.3125,292.0156 C1508.3125,294.5938 1510.4219,296.4844 1513.3125,296.4844 C1514.5313,296.4844 1515.6875,296.1875 1516.4375,295.6406 C1517.0156,295.2344 1517.3438,294.7813 1517.3438,294.3906 C1517.3438,293.9375 1516.9531,293.5469 1516.4844,293.5469 C1516.2656,293.5469 1516.0625,293.625 1515.875,293.8125 C1515.4219,294.2969 1515.4219,294.2969 1515.2344,294.3906 C1514.8125,294.6563 1514.125,294.7813 1513.3594,294.7813 C1511.3125,294.7813 1510.0156,293.6875 1510.0156,291.9844 L1510.0156,290.8906 C1510.0156,289.1094 1511.2656,287.7969 1513,287.7969 C1513.5781,287.7969 1514.1875,287.9531 1514.6563,288.2031 C1515.1406,288.4844 1515.3125,288.7031 1515.4063,289.1094 C1515.4688,289.5156 1515.5,289.6406 1515.6406,289.7656 C1515.7813,289.9063 1516.0156,290.0156 1516.2344,290.0156 C1516.5,290.0156 1516.7656,289.875 1516.9375,289.6563 C1517.0469,289.5 1517.0781,289.3125 1517.0781,288.8906 L1517.0781,287.4688 C1517.0781,287.0313 1517.0625,286.9063 1516.9688,286.75 C1516.8125,286.4844 1516.5313,286.3438 1516.2344,286.3438 C1515.9375,286.3438 1515.7344,286.4375 1515.5156,286.75 L1515.3438,286.6719 Z "/><text fill="#000000" font-family="sans-serif" font-size="12" lengthAdjust="spacingAndGlyphs" textLength="174" x="1527" y="295.1543">usantatecla.utils.YesNoDialog</text><line style="stroke: #A80036; stroke-width: 1.5;" x1="1499" x2="1703" y1="307" y2="307"/><line style="stroke: #A80036; stroke-width: 1.5;" x1="1499" x2="1703" y1="315" y2="315"/><!--MD5=[02f7077ed79257124e28b791f351f1d7]
class Direction--><rect codeLine="159" fill="#FEFECE" filter="url(#ffe3bx1ogehlg)" height="48" id="Direction" style="stroke: #A80036; stroke-width: 1.5;" width="184" x="1841" y="1369.5"/><ellipse cx="1856" cy="1385.5" fill="#EB937F" rx="11" ry="11" style="stroke: #A80036; stroke-width: 1.0;"/><path d="M1854.7969,1386.375 L1856.25,1386.375 L1856.25,1386.4844 C1856.25,1386.8906 1856.2813,1387.0469 1856.3594,1387.2031 C1856.5156,1387.4531 1856.7969,1387.6094 1857.0938,1387.6094 C1857.3438,1387.6094 1857.6094,1387.4688 1857.7656,1387.25 C1857.8906,1387.0938 1857.9219,1386.9375 1857.9219,1386.4844 L1857.9219,1384.5625 C1857.9219,1384.4063 1857.9219,1384.3594 1857.9063,1384.2031 C1857.8438,1383.7344 1857.5313,1383.4219 1857.0781,1383.4219 C1856.8281,1383.4219 1856.5625,1383.5625 1856.3906,1383.7813 C1856.2813,1383.9531 1856.25,1384.1094 1856.25,1384.5625 L1856.25,1384.6875 L1854.7969,1384.6875 L1854.7969,1382.2813 L1858.7813,1382.2813 L1858.7813,1383.1406 C1858.7813,1383.5469 1858.8125,1383.7188 1858.8906,1383.875 C1859.0625,1384.125 1859.3438,1384.2813 1859.625,1384.2813 C1859.8906,1384.2813 1860.1563,1384.1406 1860.3281,1383.9219 C1860.4375,1383.75 1860.4688,1383.6094 1860.4688,1383.1406 L1860.4688,1380.5938 L1852.8438,1380.5938 C1852.4063,1380.5938 1852.2813,1380.6094 1852.125,1380.7031 C1851.875,1380.8594 1851.7188,1381.1563 1851.7188,1381.4375 C1851.7188,1381.7188 1851.8594,1381.9688 1852.0781,1382.1406 C1852.2344,1382.25 1852.4219,1382.2813 1852.8438,1382.2813 L1853.0938,1382.2813 L1853.0938,1388.7969 L1852.8438,1388.7969 C1852.4375,1388.7969 1852.2813,1388.8125 1852.125,1388.9219 C1851.875,1389.0938 1851.7188,1389.3594 1851.7188,1389.6563 C1851.7188,1389.9219 1851.8594,1390.1719 1852.0781,1390.3281 C1852.2188,1390.4531 1852.4531,1390.5 1852.8438,1390.5 L1860.8438,1390.5 L1860.8438,1387.9219 C1860.8438,1387.4844 1860.8125,1387.3438 1860.7344,1387.1875 C1860.5625,1386.9375 1860.2813,1386.7813 1860,1386.7813 C1859.7344,1386.7813 1859.4688,1386.8906 1859.2969,1387.1406 C1859.1875,1387.2969 1859.1563,1387.4375 1859.1563,1387.9219 L1859.1563,1388.7969 L1854.7969,1388.7969 L1854.7969,1386.375 Z "/><text fill="#000000" font-family="sans-serif" font-size="12" lengthAdjust="spacingAndGlyphs" textLength="152" x="1870" y="1389.6543">usantatecla.utils.Direction</text><line style="stroke: #A80036; stroke-width: 1.5;" x1="1842" x2="2024" y1="1401.5" y2="1401.5"/><line style="stroke: #A80036; stroke-width: 1.5;" x1="1842" x2="2024" y1="1409.5" y2="1409.5"/><!--MD5=[8c7d7abc12e214c3cc12c9ab70edee11]
class Coordinate--><rect codeLine="163" fill="#FEFECE" filter="url(#ffe3bx1ogehlg)" height="48" id="Coordinate" style="stroke: #A80036; stroke-width: 1.5;" width="200" x="1833" y="1088"/><ellipse cx="1848" cy="1104" fill="#B4A7E5" rx="11" ry="11" style="stroke: #A80036; stroke-width: 1.0;"/><path d="M1848.9531,1100.7813 L1850.6719,1100.7813 C1851.0625,1100.7813 1851.25,1100.75 1851.375,1100.6719 C1851.6406,1100.5156 1851.7813,1100.2344 1851.7813,1099.9375 C1851.7813,1099.6719 1851.6719,1099.4063 1851.4375,1099.2344 C1851.2656,1099.125 1851.125,1099.0938 1850.6719,1099.0938 L1845.5313,1099.0938 C1845.0938,1099.0938 1844.9688,1099.1094 1844.8125,1099.2031 C1844.5625,1099.3594 1844.4063,1099.6563 1844.4063,1099.9375 C1844.4063,1100.2188 1844.5469,1100.4688 1844.7656,1100.6406 C1844.9219,1100.75 1845.1094,1100.7813 1845.5313,1100.7813 L1847.25,1100.7813 L1847.25,1107.2969 L1845.5313,1107.2969 C1845.0938,1107.2969 1844.9688,1107.3125 1844.8125,1107.4219 C1844.5625,1107.5781 1844.4063,1107.8594 1844.4063,1108.1563 C1844.4063,1108.4063 1844.5469,1108.6719 1844.7656,1108.8281 C1844.9219,1108.9531 1845.125,1109 1845.5313,1109 L1850.6719,1109 C1851.4219,1109 1851.7813,1108.7188 1851.7813,1108.1563 C1851.7813,1107.875 1851.6719,1107.625 1851.4375,1107.4531 C1851.2656,1107.3281 1851.125,1107.2969 1850.6719,1107.2969 L1848.9531,1107.2969 L1848.9531,1100.7813 Z "/><text fill="#000000" font-family="sans-serif" font-size="12" font-style="italic" lengthAdjust="spacingAndGlyphs" textLength="168" x="1862" y="1108.1543">usantatecla.utils.Coordinate</text><line style="stroke: #A80036; stroke-width: 1.5;" x1="1834" x2="2032" y1="1120" y2="1120"/><line style="stroke: #A80036; stroke-width: 1.5;" x1="1834" x2="2032" y1="1128" y2="1128"/><!--MD5=[9054d1d596f71892773aeee04ca59ea9]
reverse link usantatecla.tictactoe.Player to usantatecla.tictactoe.UserPlayer--><path d="M533.566,633.749 C583.69,672.639 639.223,715.725 681.882,748.822 " fill="none" id="usantatecla.tictactoe.Player-backto-usantatecla.tictactoe.UserPlayer" style="stroke: #A80036; stroke-width: 1.0;"/><polygon fill="none" points="529.016,639.079,517.505,621.288,537.598,628.018,529.016,639.079" style="stroke: #A80036; stroke-width: 1.0;"/><!--MD5=[f55dc4ca1029546e2cc70a6003711be1]
link usantatecla.tictactoe.TicTacToe to usantatecla.tictactoe.Board--><path codeLine="120" d="M1022.8449,165.0588 C1022.8449,165.0588 1026.21,189.11 1028,200 C1055.83,369.2 1096.64,563.3 1123.26,684.792 " fill="none" id="usantatecla.tictactoe.TicTacToe-usantatecla.tictactoe.Board" style="stroke: #A80036; stroke-width: 1.0;"/><polygon fill="#A80036" points="1126.11,697.778,1128.0868,688.1296,1125.0377,692.8943,1120.2729,689.8453,1126.11,697.778" style="stroke: #A80036; stroke-width: 1.0;"/><line style="stroke: #A80036; stroke-width: 1.0;" x1="1125.0377" x2="1123.325" y1="692.8943" y2="685.081"/><polygon fill="#A80036" points="1021.29,153.16,1018.1012,159.6277,1022.8449,165.0588,1026.0337,158.5911,1021.29,153.16" style="stroke: #A80036; stroke-width: 1.0;"/><text fill="#000000" font-family="sans-serif" font-size="13" lengthAdjust="spacingAndGlyphs" textLength="37" x="1068" y="411.0669">board</text><!--MD5=[ce283d8c110a506040c2dd735ef47160]
link usantatecla.tictactoe.TicTacToe to usantatecla.tictactoe.Turn--><path codeLine="121" d="M910.9508,132.1173 C910.9508,132.1173 602.323,233.3 492.122,269.44 " fill="none" id="usantatecla.tictactoe.TicTacToe-usantatecla.tictactoe.Turn" style="stroke: #A80036; stroke-width: 1.0;"/><polygon fill="#A80036" points="479.743,273.49,489.5412,274.4881,484.4943,271.9328,487.0496,266.8859,479.743,273.49" style="stroke: #A80036; stroke-width: 1.0;"/><line style="stroke: #A80036; stroke-width: 1.0;" x1="484.4943" x2="492.0965" y1="271.9328" y2="269.445"/><polygon fill="#A80036" points="922.354,128.38,915.4066,126.4476,910.9508,132.1173,917.8982,134.0497,922.354,128.38" style="stroke: #A80036; stroke-width: 1.0;"/><text fill="#000000" font-family="sans-serif" font-size="13" lengthAdjust="spacingAndGlyphs" textLength="26" x="748" y="196.0669">turn</text><!--MD5=[8842675a9ea127b9dcc7c26c260f87ba]
link usantatecla.tictactoe.Board to usantatecla.tictactoe.Token--><path codeLine="123" d="M1018.83,899.577 C992.29,921.886 965.856,946.865 944,973 C926.07,994.44 910.344,1020.752 897.92,1044.631 " fill="none" id="usantatecla.tictactoe.Board-to-usantatecla.tictactoe.Token" style="stroke: #A80036; stroke-width: 1.0; stroke-dasharray: 7.0,7.0;"/><polygon fill="#A80036" points="895.48,1049.372,903.1557,1043.2008,897.7685,1044.9265,896.0428,1039.5392,895.48,1049.372" style="stroke: #A80036; stroke-width: 1.0;"/><!--MD5=[d113ddce6fd1895c2fc1e379d25bb267]
link usantatecla.tictactoe.Turn to usantatecla.tictactoe.Token--><path codeLine="124" d="M330.305,331.51 C283.156,355.49 225.412,393.22 194,445 C140.053,533.92 94.8421,833.439 163,912 C225.959,984.568 499.272,944.436 591,973 C668.088,997.006 750.123,1040.381 804.733,1072.113 " fill="none" id="usantatecla.tictactoe.Turn-to-usantatecla.tictactoe.Token" style="stroke: #A80036; stroke-width: 1.0; stroke-dasharray: 7.0,7.0;"/><polygon fill="#A80036" points="809.273,1074.761,803.5156,1066.7702,804.9545,1072.241,799.4837,1073.6799,809.273,1074.761" style="stroke: #A80036; stroke-width: 1.0;"/><!--MD5=[da9e0b814734f6fa908ce67941f7afa7]
link usantatecla.tictactoe.Player to usantatecla.tictactoe.Token--><path codeLine="125" d="M421.7858,633.1748 C421.7858,633.1748 470.455,869.072 504,912 C524.055,937.665 697.52,1026.424 797.574,1076.294 " fill="none" id="usantatecla.tictactoe.Player-usantatecla.tictactoe.Token" style="stroke: #A80036; stroke-width: 1.0;"/><polygon fill="#A80036" points="809.397,1082.176,803.1211,1074.5857,804.9205,1079.9487,799.5574,1081.7481,809.397,1082.176" style="stroke: #A80036; stroke-width: 1.0;"/><line style="stroke: #A80036; stroke-width: 1.0;" x1="804.9205" x2="797.758" y1="1079.9487" y2="1076.385"/><polygon fill="#A80036" points="419.614,621.373,416.766,627.9979,421.7858,633.1748,424.6338,626.55,419.614,621.373" style="stroke: #A80036; stroke-width: 1.0;"/><text fill="#000000" font-family="sans-serif" font-size="13" lengthAdjust="spacingAndGlyphs" textLength="36" x="505" y="809.5669">token</text><!--MD5=[a1d26119a69b0875542b2a0468983617]
link usantatecla.tictactoe.Player to usantatecla.tictactoe.Board--><path codeLine="126" d="M610.3016,581.9844 C610.3016,581.9844 850.616,649.837 964,698 C978.165,704.017 992.613,710.86 1006.88,718.106 " fill="none" id="usantatecla.tictactoe.Player-usantatecla.tictactoe.Board" style="stroke: #A80036; stroke-width: 1.0;"/><polygon fill="#A80036" points="1018.82,724.277,1012.6631,716.5898,1014.3787,721.9803,1008.9883,723.6959,1018.82,724.277" style="stroke: #A80036; stroke-width: 1.0;"/><line style="stroke: #A80036; stroke-width: 1.0;" x1="1014.3787" x2="1007.27" y1="721.9803" y2="718.3055"/><polygon fill="#A80036" points="598.689,578.96,603.4872,584.3431,610.3016,581.9844,605.5035,576.6014,598.689,578.96" style="stroke: #A80036; stroke-width: 1.0;"/><text fill="#000000" font-family="sans-serif" font-size="13" lengthAdjust="spacingAndGlyphs" textLength="37" x="877" y="664.0669">board</text><!--MD5=[529b3f680026169e7030eafcb9573de9]
link usantatecla.tictactoe.Turn to usantatecla.tictactoe.Player--><path codeLine="127" d="M405,380.04 C405,380.04 405,414.79 405,431.59 " fill="none" id="usantatecla.tictactoe.Turn-usantatecla.tictactoe.Player" style="stroke: #A80036; stroke-width: 1.0;"/><polygon fill="#A80036" points="405,444.94,409,435.94,405,439.94,401,435.94,405,444.94" style="stroke: #A80036; stroke-width: 1.0;"/><line style="stroke: #A80036; stroke-width: 1.0;" x1="405" x2="405" y1="439.94" y2="431.94"/><polygon fill="#A80036" points="405,368.04,401,374.04,405,380.04,409,374.04,405,368.04" style="stroke: #A80036; stroke-width: 1.0;"/><text fill="#000000" font-family="sans-serif" font-size="13" lengthAdjust="spacingAndGlyphs" textLength="40" x="406" y="411.0669">player</text><text fill="#000000" font-family="sans-serif" font-size="13" lengthAdjust="spacingAndGlyphs" textLength="8" x="396.6563" y="433.7984">2</text><!--MD5=[bfa888729168fa3147cbf7352825b6b1]
link usantatecla.tictactoe.Board to usantatecla.tictactoe.Coordinate--><path codeLine="128" d="M1138.7647,924.1922 C1138.7647,924.1922 1133.58,978.661 1131.16,1004.182 " fill="none" id="usantatecla.tictactoe.Board-usantatecla.tictactoe.Coordinate" style="stroke: #A80036; stroke-width: 1.0;"/><polygon fill="#A80036" points="1129.91,1017.338,1134.7435,1008.7568,1130.383,1012.3604,1126.7794,1007.9999,1129.91,1017.338" style="stroke: #A80036; stroke-width: 1.0;"/><line style="stroke: #A80036; stroke-width: 1.0;" x1="1130.383" x2="1131.14" y1="1012.3604" y2="1004.3965"/><polygon fill="#A80036" points="1139.9,912.246,1135.3503,917.8407,1138.7647,924.1922,1143.3144,918.5975,1139.9,912.246" style="stroke: #A80036; stroke-width: 1.0;"/><!--MD5=[287634111649744118617a7068f6a88b]
reverse link usantatecla.tictactoe.Player to usantatecla.tictactoe.MachinePlayer--><path codeLine="129" d="M362.996,639.99 C345.08,685.2 325.358,734.967 312.391,767.686 " fill="none" id="usantatecla.tictactoe.Player-backto-usantatecla.tictactoe.MachinePlayer" style="stroke: #A80036; stroke-width: 1.0;"/><polygon fill="none" points="356.532,637.303,370.408,621.288,369.547,642.461,356.532,637.303" style="stroke: #A80036; stroke-width: 1.0;"/><!--MD5=[cb3b258fc3efb46a680af02e5e1f3af2]
link usantatecla.tictactoe.Coordinate to usantatecla.tictactoe.Error--><path codeLine="130" d="M1099.18,1206.847 C1091.65,1239.212 1083.26,1275.273 1075.9,1306.94 " fill="none" id="usantatecla.tictactoe.Coordinate-to-usantatecla.tictactoe.Error" style="stroke: #A80036; stroke-width: 1.0; stroke-dasharray: 7.0,7.0;"/><polygon fill="#A80036" points="1074.72,1311.984,1080.6546,1304.1239,1075.8525,1307.114,1072.8625,1302.3119,1074.72,1311.984" style="stroke: #A80036; stroke-width: 1.0;"/><!--MD5=[e43764ef036bd32d7bebb5fdc89dab41]
link usantatecla.tictactoe.Player to usantatecla.tictactoe.Error--><path codeLine="131" d="M211.429,603.138 C173.798,626.718 140.356,657.69 122,698 C12.6526,938.137 120.083,1102.222 338,1251 C440.374,1320.893 803.838,1366.448 970.891,1384.159 " fill="none" id="usantatecla.tictactoe.Player-to-usantatecla.tictactoe.Error" style="stroke: #A80036; stroke-width: 1.0; stroke-dasharray: 7.0,7.0;"/><polygon fill="#A80036" points="976.263,1384.727,967.732,1379.8054,971.2906,1384.2028,966.8932,1387.7613,976.263,1384.727" style="stroke: #A80036; stroke-width: 1.0;"/><!--MD5=[c1cc06e9ee042e231acd704d3db91e02]
link usantatecla.tictactoe.Board to usantatecla.tictactoe.Message--><path codeLine="132" d="M1018.93,898.033 C1009.97,903.037 1000.95,907.748 992,912 C908.058,951.875 879.371,941.336 792,973 C720.294,998.987 641.485,1032.105 579.204,1059.383 " fill="none" id="usantatecla.tictactoe.Board-to-usantatecla.tictactoe.Message" style="stroke: #A80036; stroke-width: 1.0; stroke-dasharray: 7.0,7.0;"/><polygon fill="#A80036" points="574.37,1061.503,584.2187,1061.5516,578.949,1059.4949,581.0057,1054.2251,574.37,1061.503" style="stroke: #A80036; stroke-width: 1.0;"/><!--MD5=[7e581fdc1c15d414673a5603eefb02c4]
link usantatecla.tictactoe.Player to usantatecla.tictactoe.Message--><path codeLine="133" d="M230.103,621.057 C203.1,642.409 178.931,667.959 163,698 C118.44,782.027 117.896,828.264 163,912 C202.765,985.824 283.225,1036.78 351.101,1068.637 " fill="none" id="usantatecla.tictactoe.Player-to-usantatecla.tictactoe.Message" style="stroke: #A80036; stroke-width: 1.0; stroke-dasharray: 7.0,7.0;"/><polygon fill="#A80036" points="355.966,1070.897,349.49,1063.4767,351.4317,1068.7898,346.1185,1070.7316,355.966,1070.897" style="stroke: #A80036; stroke-width: 1.0;"/><!--MD5=[4658d6f36d7d9c2388a7aa58b8f9a55b]
link usantatecla.tictactoe.TicTacToe to usantatecla.tictactoe.Message--><path codeLine="134" d="M1027.66,153.09 C1029.47,162.99 1031.04,173.27 1032,183 C1042.16,285.61 1041.49,312.33 1032,415 C1022.18,521.24 1002.68,545.32 988,651 C971.974,766.382 1035.5,820.034 964,912 C951.554,928.009 810.905,965.666 792,973 C720.614,1000.694 641.484,1034.018 578.947,1060.98 " fill="none" id="usantatecla.tictactoe.TicTacToe-to-usantatecla.tictactoe.Message" style="stroke: #A80036; stroke-width: 1.0; stroke-dasharray: 7.0,7.0;"/><polygon fill="#A80036" points="574.094,1063.074,583.9423,1063.1794,578.6845,1061.0923,580.7716,1055.8346,574.094,1063.074" style="stroke: #A80036; stroke-width: 1.0;"/><!--MD5=[62ac8b859d6a910fbb401d124595bc0b]
link usantatecla.tictactoe.Turn to usantatecla.tictactoe.Message--><path codeLine="135" d="M330.261,312.34 C244.966,328.13 113.425,358.25 84,398 C12.6021,494.45 74.7394,548.36 84,668 C92.4697,777.424 60.2087,821.296 122,912 C176.237,991.615 273.658,1043.65 350.852,1074.469 " fill="none" id="usantatecla.tictactoe.Turn-to-usantatecla.tictactoe.Message" style="stroke: #A80036; stroke-width: 1.0; stroke-dasharray: 7.0,7.0;"/><polygon fill="#A80036" points="355.907,1076.468,349.009,1069.4382,351.2575,1074.629,346.0667,1076.8775,355.907,1076.468" style="stroke: #A80036; stroke-width: 1.0;"/><!--MD5=[88d77fad83bebfdbbb7645aa3f97d38d]
reverse link ConcreteCoordinate to usantatecla.tictactoe.Coordinate--><path codeLine="167" d="M1402.97,843.082 C1357.72,886.077 1281.44,958.555 1219.62,1017.293 " fill="none" id="ConcreteCoordinate-backto-usantatecla.tictactoe.Coordinate" style="stroke: #A80036; stroke-width: 1.0;"/><polygon fill="none" points="1398.29,837.877,1417.61,829.175,1407.93,848.026,1398.29,837.877" style="stroke: #A80036; stroke-width: 1.0;"/><!--MD5=[934fb392a73132a0ebf18f95113c60ed]
link usantatecla.tictactoe.Coordinate to ClosedInterval--><path codeLine="169" d="M1280.76,1204.883 C1311.46,1227.192 1341.6,1252.839 1366,1281 C1387.38,1305.672 1402.69,1340.109 1411.65,1364.162 " fill="none" id="usantatecla.tictactoe.Coordinate-to-ClosedInterval" style="stroke: #A80036; stroke-width: 1.0; stroke-dasharray: 7.0,7.0;"/><polygon fill="#A80036" points="1413.46,1369.129,1414.1339,1359.3032,1411.7467,1364.4317,1406.6182,1362.0445,1413.46,1369.129" style="stroke: #A80036; stroke-width: 1.0;"/><!--MD5=[e42dc3dc7895e07d7350a715b050ad9b]
link usantatecla.tictactoe.Token to ClosedInterval--><path codeLine="170" d="M886.87,1174.711 C898.699,1202.685 916.958,1233.382 944,1251 C1007.92,1292.647 1215.41,1252.071 1286,1281 C1331.31,1299.567 1373.05,1338.912 1397.77,1365.538 " fill="none" id="usantatecla.tictactoe.Token-to-ClosedInterval" style="stroke: #A80036; stroke-width: 1.0; stroke-dasharray: 7.0,7.0;"/><polygon fill="#A80036" points="1401.29,1369.37,1398.1492,1360.0354,1397.9083,1365.6871,1392.2566,1365.4461,1401.29,1369.37" style="stroke: #A80036; stroke-width: 1.0;"/><!--MD5=[98503c5b3c876464a0a320f677cd6e58]
link LimitedIntDialog to ClosedInterval--><path codeLine="171" d="M1597.88,1136.349 C1562.38,1187.753 1477.64,1310.479 1439.8,1365.272 " fill="none" id="LimitedIntDialog-to-ClosedInterval" style="stroke: #A80036; stroke-width: 1.0; stroke-dasharray: 7.0,7.0;"/><polygon fill="#A80036" points="1436.94,1369.414,1445.3458,1364.2815,1439.7814,1365.2998,1438.7631,1359.7353,1436.94,1369.414" style="stroke: #A80036; stroke-width: 1.0;"/><!--MD5=[02a6c08caac974be482b221cbbed617e]
link usantatecla.tictactoe.Error to Console--><path codeLine="174" d="M1119.84,1475.159 C1132.94,1487.7116 1147.51,1499.3603 1163,1508 C1212.71,1535.7237 1275.08,1549.0175 1326.04,1555.3594 " fill="none" id="usantatecla.tictactoe.Error-to-Console" style="stroke: #A80036; stroke-width: 1.0; stroke-dasharray: 7.0,7.0;"/><polygon fill="#A80036" points="1331.25,1555.9885,1322.795,1550.9374,1326.2861,1555.3885,1321.835,1558.8796,1331.25,1555.9885" style="stroke: #A80036; stroke-width: 1.0;"/><!--MD5=[babf8812656abf11221776abe93713d2]
link usantatecla.tictactoe.Message to Console--><path codeLine="175" d="M574.292,1166.653 C636.757,1195.389 717.308,1229.249 792,1251 C948.23,1296.495 1024.25,1212.491 1153,1312 C1225.09,1367.718 1169.52,1437.78 1237,1499 C1261.76,1521.4674 1294.96,1535.8322 1326.34,1545.0003 " fill="none" id="usantatecla.tictactoe.Message-to-Console" style="stroke: #A80036; stroke-width: 1.0; stroke-dasharray: 7.0,7.0;"/><polygon fill="#A80036" points="1331.36,1546.4275,1323.8019,1540.1128,1326.5517,1545.0563,1321.6081,1547.8061,1331.36,1546.4275" style="stroke: #A80036; stroke-width: 1.0;"/><!--MD5=[b5f6ae75ec16ad98720bfc912357ede6]
link usantatecla.tictactoe.Token to Console--><path codeLine="176" d="M887.198,1174.798 C899.071,1202.615 917.274,1233.151 944,1251 C1044.77,1318.302 1119.62,1206.256 1215,1281 C1296.24,1344.658 1225.97,1422.273 1295,1499 C1308.9,1514.4555 1327.53,1526.4938 1346.18,1535.6765 " fill="none" id="usantatecla.tictactoe.Token-to-Console" style="stroke: #A80036; stroke-width: 1.0; stroke-dasharray: 7.0,7.0;"/><polygon fill="#A80036" points="1350.92,1537.95,1344.5473,1530.4408,1346.4153,1535.7803,1341.0758,1537.6483,1350.92,1537.95" style="stroke: #A80036; stroke-width: 1.0;"/><!--MD5=[e9f88c84ae372c10578b1ce2bfdab9f0]
link ConcreteCoordinate to Console--><path codeLine="177" d="M1438.86,829.194 C1430.67,897.686 1413.86,1103.477 1484,1251 C1500.6,1285.911 1531.06,1276.347 1546,1312 C1578.12,1388.655 1589.81,1428.372 1546,1499 C1536.25,1514.712 1521.21,1526.5663 1504.89,1535.4666 " fill="none" id="ConcreteCoordinate-to-Console" style="stroke: #A80036; stroke-width: 1.0; stroke-dasharray: 7.0,7.0;"/><polygon fill="#A80036" points="1500.26,1537.8993,1510.0874,1537.2496,1504.6851,1535.5716,1506.3631,1530.1694,1500.26,1537.8993" style="stroke: #A80036; stroke-width: 1.0;"/><!--MD5=[7d9962839904cadaaf2ea6babb2790b2]
link LimitedIntDialog to Console--><path codeLine="178" d="M1622.14,1136.083 C1643.81,1202.065 1695.52,1394.043 1608,1508 C1595.93,1523.7197 1555.56,1536.1728 1515.4,1545.0471 " fill="none" id="LimitedIntDialog-to-Console" style="stroke: #A80036; stroke-width: 1.0; stroke-dasharray: 7.0,7.0;"/><polygon fill="#A80036" points="1510.51,1546.1116,1520.1579,1548.0909,1515.3939,1545.0406,1518.4443,1540.2766,1510.51,1546.1116" style="stroke: #A80036; stroke-width: 1.0;"/><!--MD5=[463cc8af4a3cc64d4486d23129543027]
link YesNoDialog to Console--><path codeLine="179" d="M1636.36,323.13 C1688.53,360.35 1780,438.9 1780,532 C1780,532 1780,532 1780,1394.5 C1780,1511.1615 1622.05,1546.3144 1515.69,1556.7607 " fill="none" id="YesNoDialog-to-Console" style="stroke: #A80036; stroke-width: 1.0; stroke-dasharray: 7.0,7.0;"/><polygon fill="#A80036" points="1510.66,1557.2397,1519.9971,1560.3733,1515.6377,1556.7682,1519.2427,1552.4089,1510.66,1557.2397" style="stroke: #A80036; stroke-width: 1.0;"/><!--MD5=[4a6f4cecc322ee82ce9bf312f6bd9c5b]
link usantatecla.tictactoe.Turn to LimitedIntDialog--><path codeLine="182" d="M479.713,299.97 C611.798,302.15 893.422,316.92 1114,398 C1346.95,483.63 1458.06,484.73 1585,698 C1660.06,824.113 1633.84,1011.779 1620.14,1082.586 " fill="none" id="usantatecla.tictactoe.Turn-to-LimitedIntDialog" style="stroke: #A80036; stroke-width: 1.0; stroke-dasharray: 7.0,7.0;"/><polygon fill="#A80036" points="1619.1,1087.879,1624.7671,1079.8239,1620.0682,1082.9736,1616.9185,1078.2748,1619.1,1087.879" style="stroke: #A80036; stroke-width: 1.0;"/><!--MD5=[a6176f3b762d2fd91dbdde4c26f79f5e]
link usantatecla.tictactoe.TicTacToe to YesNoDialog--><path codeLine="183" d="M1107.53,129.58 C1224.2,169.4 1422.36,237.03 1528.6,273.29 " fill="none" id="usantatecla.tictactoe.TicTacToe-to-YesNoDialog" style="stroke: #A80036; stroke-width: 1.0; stroke-dasharray: 7.0,7.0;"/><polygon fill="#A80036" points="1533.59,274.99,1526.365,268.2968,1528.8581,273.3746,1523.7803,275.8678,1533.59,274.99" style="stroke: #A80036; stroke-width: 1.0;"/><!--MD5=[bf23bf68eb6ee1e962cc58fc20d95da0]
link usantatecla.tictactoe.Board to Direction--><path codeLine="185" d="M1281.21,904.615 C1287.09,907.343 1293.03,909.825 1299,912 C1456.52,969.434 1937.34,849.747 2051,973 C2134.76,1063.83 2093.08,1134.832 2051,1251 C2034.01,1297.915 1993.91,1340.196 1965.17,1366.069 " fill="none" id="usantatecla.tictactoe.Board-to-Direction" style="stroke: #A80036; stroke-width: 1.0; stroke-dasharray: 7.0,7.0;"/><polygon fill="#A80036" points="1961.37,1369.454,1970.7494,1366.4497,1965.1018,1366.1263,1965.4252,1360.4787,1961.37,1369.454" style="stroke: #A80036; stroke-width: 1.0;"/><!--MD5=[c6b41bb1c68e13fbf1695f6a9580fb13]
link usantatecla.tictactoe.Coordinate to Direction--><path codeLine="186" d="M1280.64,1175.981 C1343.7,1200.253 1416.97,1227.718 1484,1251 C1610.86,1295.061 1759.84,1340.854 1850.28,1368.004 " fill="none" id="usantatecla.tictactoe.Coordinate-to-Direction" style="stroke: #A80036; stroke-width: 1.0; stroke-dasharray: 7.0,7.0;"/><polygon fill="#A80036" points="1855.08,1369.443,1847.6162,1363.0172,1850.2925,1368.0009,1845.3088,1370.6772,1855.08,1369.443" style="stroke: #A80036; stroke-width: 1.0;"/><!--MD5=[2ece631038b7899e5b9aaea57adaf24e]
link Coordinate to Direction--><path codeLine="187" d="M1933,1136.349 C1933,1187.444 1933,1309.006 1933,1364.276 " fill="none" id="Coordinate-to-Direction" style="stroke: #A80036; stroke-width: 1.0; stroke-dasharray: 7.0,7.0;"/><polygon fill="#A80036" points="1933,1369.414,1937,1360.414,1933,1364.414,1929,1360.414,1933,1369.414" style="stroke: #A80036; stroke-width: 1.0;"/><!--MD5=[a1d5b882235b2263a8d5078470d3367c]
@startuml
namespace usantatecla.tictactoe {
class Board {
	- tokens: Token[][] 
	~ Board()
	+ reset() 
	~ write() 
	- getToken(Coordinate): Token 
	~ isCompleted(): boolean 
	~ put(Coordinate, Token) 
	~ move(Coordinate, Coordinate) 
	- remove(Coordinate) 
	~ isOccupied(Coordinate, Token): boolean 
	~ isEmpty(Coordinate): boolean
	~ isTicTacToe(Token): boolean
	- getCoordinates(Token): List<Coordinate> 
}

class Coordinate {
	~ NULL: {static} Coordinate
	~ DIMENSION: {static} int 
	~ LIMITS: {static} ClosedInterval 
	~ Coordinate()
	~ Coordinate(int, int)
	+ isNull(): boolean 
	+ getDirection(usantatecla.utils.Coordinate): Direction 
	+ inInverseDiagonal(): boolean 
	+ read(String)
	+ random() 
	+ equals(Object): boolean 
}

enum Error {

	+ NOT_EMPTY
	+ NOT_OWNER
	+ SAME_COORDINATES
	+ WRONG_COORDINATES
	+ NULL
	- message: String 
	~ Error()
	~ Error(String)
	~ writeln()
}

class MachinePlayer {
	~ MachinePlayer(Token, Board)
	~ getCoordinate(Message): Coordinate 
}

enum Message {
	+ TITTLE
	+ NUMBER_PLAYERS
	+ SEPARATOR
	+ VERTICAL_LINE_LEFT
	+ VERTICAL_LINE_CENTERED
	+ VERTICAL_LINE_RIGHT
	+ ENTER_COORDINATE_TO_PUT
	+ ENTER_COORDINATE_TO_REMOVE
	+ COORDINATE_TO_PUT
	+ COORDINATE_TO_REMOVE
	+ COORDINATE_TO_MOVE
	+ PLAYER_WIN
	+ RESUME
	- message: String 
	- Message(String)
	~ write()
	~ writeln()
	+ toString(): String 
}


abstract class Player {
	~ Player(Token, Board)
	~ play()
	- put()
	~ abstract getCoordinate(Message): Coordinate 
	~ checkPutCoordinateError(Coordinate): Error 
	- move()
	~ checkMoveOriginCoordinateError(Coordinate): Error 
	~ checkMoveTargetCoordinateError(Coordinate, Coordinate): Error 
	~ writeWinner()
	~ getToken(): Token 
}

class TicTacToe{
    ~ TicTacToe()
	- play()
    - playGame()
	- isResumedGame(): boolean
	+ {static} main(String[])
}

enum Token {
	+ X_TOKEN
	+ Y_TOKEN
	+ NULL
    + isNull(): boolean 
    ~ write()
    ~ {static} get(int): Token 
}

class Turn {
	~ NUMBER_PLAYERS: {static} int 
	- active: int 
	~ Turn(Board)
	~ play()
	- getPlayer(): Player 
	~ writeWinner()
	~ getToken(): Token  
}

class UserPlayer extends Player {
	~ UserPlayer(Token, Board)
	~ getCoordinate(Message message): Coordinate
	~ checkPutCoordinateError(Coordinate): Error 
	~ checkMoveOriginCoordinateError(Coordinate): Error
	~ checkMoveTargetCoordinateError(Coordinate, Coordinate): Error
}

TicTacToe *-down-> Board : board
TicTacToe *-down-> Turn : turn

Board .down.> Token
Turn .down.> Token
Player *-down-> Token : token
Player *-down-> Board : board
Turn *-down-> "2" Player : player
Board *-down-> Coordinate 
Player <|-down- MachinePlayer
Coordinate .down.> Error
Player .down.> Error
Board .down.> Message
Player .down.> Message
TicTacToe .down.> Message
Turn .down.> Message

}

class ConcreteCoordinate as "usantatecla.utils.ConcreteCoordinate"{

}

class ClosedInterval as "usantatecla.utils.ClosedInterval"{
	
}

class Console as "usantatecla.utils.Console"{
	
}

class LimitedIntDialog as "usantatecla.utils.LimitedIntDialog"{
	
}

class YesNoDialog as "usantatecla.utils.YesNoDialog"{
	
}

enum Direction as "usantatecla.utils.Direction"{
	
}

interface Coordinate as "usantatecla.utils.Coordinate"{
	
}

ConcreteCoordinate <|-down- usantatecla.tictactoe.Coordinate

usantatecla.tictactoe.Coordinate .down.> ClosedInterval
usantatecla.tictactoe.Token .down.> ClosedInterval
LimitedIntDialog .down.> ClosedInterval


usantatecla.tictactoe.Error .down.> Console
usantatecla.tictactoe.Message .down.> Console
usantatecla.tictactoe.Token .down.> Console
ConcreteCoordinate .down.> Console
LimitedIntDialog .down.> Console
YesNoDialog .down.> Console


usantatecla.tictactoe.Turn .down.> LimitedIntDialog
usantatecla.tictactoe.TicTacToe .down.> YesNoDialog

usantatecla.tictactoe.Board .down.> Direction
usantatecla.tictactoe.Coordinate .down.> Direction
Coordinate .down.> Direction
@enduml

PlantUML version 1.2020.20beta4(Unknown compile time)
(GPL source distribution)
Java Runtime: Java(TM) SE Runtime Environment
JVM: Java HotSpot(TM) 64-Bit Server VM
Default Encoding: UTF-8
Language: en
Country: US
--></g></svg>