<?xml version="1.0" encoding="UTF-8" standalone="no"?><svg xmlns="http://www.w3.org/2000/svg" xmlns:xlink="http://www.w3.org/1999/xlink" contentScriptType="application/ecmascript" contentStyleType="text/css" height="621px" preserveAspectRatio="none" style="width:1123px;height:621px;" version="1.1" viewBox="0 0 1123 621" width="1123px" zoomAndPan="magnify"><defs><filter height="300%" id="fnd0ap8aqu2id" width="300%" x="-1" y="-1"><feGaussianBlur result="blurOut" stdDeviation="2.0"/><feColorMatrix in="blurOut" result="blurOut2" type="matrix" values="0 0 0 0 0 0 0 0 0 0 0 0 0 0 0 0 0 0 .4 0"/><feOffset dx="4.0" dy="4.0" in="blurOut2" result="blurOut3"/><feBlend in="SourceGraphic" in2="blurOut3" mode="normal"/></filter></defs><g><!--MD5=[908cbfa8709a8ec6ee3beb0409fea32c]
cluster usantatecla.utils--><polygon fill="#FFFFFF" filter="url(#fnd0ap8aqu2id)" points="16,6,162,6,169,28.2969,922,28.2969,922,614,16,614,16,6" style="stroke: #000000; stroke-width: 1.5;"/><line style="stroke: #000000; stroke-width: 1.5;" x1="16" x2="169" y1="28.2969" y2="28.2969"/><text fill="#000000" font-family="sans-serif" font-size="14" font-weight="bold" lengthAdjust="spacingAndGlyphs" textLength="140" x="20" y="20.9951">usantatecla.utils</text><!--MD5=[0d852700fdad35b7061d461d6907a324]
cluster java.io--><polygon fill="#FFFFFF" filter="url(#fnd0ap8aqu2id)" points="946,406,1006,406,1013,428.2969,1106,428.2969,1106,505,946,505,946,406" style="stroke: #000000; stroke-width: 1.5;"/><line style="stroke: #000000; stroke-width: 1.5;" x1="946" x2="1013" y1="428.2969" y2="428.2969"/><text fill="#000000" font-family="sans-serif" font-size="14" font-weight="bold" lengthAdjust="spacingAndGlyphs" textLength="54" x="950" y="420.9951">java.io</text><!--MD5=[5f018ac69b30f51f68cd34c581e50301]
class usantatecla.utils.Coordinate--><rect codeLine="3" fill="#FEFECE" filter="url(#fnd0ap8aqu2id)" height="112.0234" id="usantatecla.utils.Coordinate" style="stroke: #A80036; stroke-width: 1.5;" width="224" x="92" y="92"/><ellipse cx="167.25" cy="108" fill="#B4A7E5" rx="11" ry="11" style="stroke: #A80036; stroke-width: 1.0;"/><path d="M168.2031,104.7813 L169.9219,104.7813 C170.3125,104.7813 170.5,104.75 170.625,104.6719 C170.8906,104.5156 171.0313,104.2344 171.0313,103.9375 C171.0313,103.6719 170.9219,103.4063 170.6875,103.2344 C170.5156,103.125 170.375,103.0938 169.9219,103.0938 L164.7813,103.0938 C164.3438,103.0938 164.2188,103.1094 164.0625,103.2031 C163.8125,103.3594 163.6563,103.6563 163.6563,103.9375 C163.6563,104.2188 163.7969,104.4688 164.0156,104.6406 C164.1719,104.75 164.3594,104.7813 164.7813,104.7813 L166.5,104.7813 L166.5,111.2969 L164.7813,111.2969 C164.3438,111.2969 164.2188,111.3125 164.0625,111.4219 C163.8125,111.5781 163.6563,111.8594 163.6563,112.1563 C163.6563,112.4063 163.7969,112.6719 164.0156,112.8281 C164.1719,112.9531 164.375,113 164.7813,113 L169.9219,113 C170.6719,113 171.0313,112.7188 171.0313,112.1563 C171.0313,111.875 170.9219,111.625 170.6875,111.4531 C170.5156,111.3281 170.375,111.2969 169.9219,111.2969 L168.2031,111.2969 L168.2031,104.7813 Z "/><text fill="#000000" font-family="sans-serif" font-size="12" font-style="italic" lengthAdjust="spacingAndGlyphs" textLength="65" x="187.75" y="112.1543">Coordinate</text><line style="stroke: #A80036; stroke-width: 1.5;" x1="93" x2="315" y1="124" y2="124"/><line style="stroke: #A80036; stroke-width: 1.5;" x1="93" x2="315" y1="132" y2="132"/><polygon fill="#4177AF" points="103,139,99,145,107,145" style="stroke: #1963A0; stroke-width: 1.0;"/><text fill="#000000" font-family="sans-serif" font-size="11" lengthAdjust="spacingAndGlyphs" textLength="91" x="112" y="146.2104">isNull(): boolean</text><polygon fill="#4177AF" points="103,151.8047,99,157.8047,107,157.8047" style="stroke: #1963A0; stroke-width: 1.0;"/><text fill="#000000" font-family="sans-serif" font-size="11" lengthAdjust="spacingAndGlyphs" textLength="198" x="112" y="159.0151">getDirection(Coordinate): Direction</text><polygon fill="#4177AF" points="103,164.6094,99,170.6094,107,170.6094" style="stroke: #1963A0; stroke-width: 1.0;"/><text fill="#000000" font-family="sans-serif" font-size="11" lengthAdjust="spacingAndGlyphs" textLength="190" x="112" y="171.8198">inHorizontal(Coordinate): boolean</text><polygon fill="#4177AF" points="103,177.4141,99,183.4141,107,183.4141" style="stroke: #1963A0; stroke-width: 1.0;"/><text fill="#000000" font-family="sans-serif" font-size="11" lengthAdjust="spacingAndGlyphs" textLength="176" x="112" y="184.6245">inVertical(Coordinate): boolean</text><polygon fill="#4177AF" points="103,190.2188,99,196.2188,107,196.2188" style="stroke: #1963A0; stroke-width: 1.0;"/><text fill="#000000" font-family="sans-serif" font-size="11" lengthAdjust="spacingAndGlyphs" textLength="147" x="112" y="197.4292">inMainDiagonal(): boolean</text><!--MD5=[c2c7894405d0c7b92ed3110a385504d5]
class usantatecla.utils.ConcreteCoordinate--><rect codeLine="11" fill="#FEFECE" filter="url(#fnd0ap8aqu2id)" height="265.6797" id="usantatecla.utils.ConcreteCoordinate" style="stroke: #A80036; stroke-width: 1.5;" width="224" x="291" y="332"/><ellipse cx="338.25" cy="348" fill="#ADD1B2" rx="11" ry="11" style="stroke: #A80036; stroke-width: 1.0;"/><path d="M340.5938,343.6719 C339.6563,343.2344 339.0625,343.0938 338.1875,343.0938 C335.5625,343.0938 333.5625,345.1719 333.5625,347.8906 L333.5625,349.0156 C333.5625,351.5938 335.6719,353.4844 338.5625,353.4844 C339.7813,353.4844 340.9375,353.1875 341.6875,352.6406 C342.2656,352.2344 342.5938,351.7813 342.5938,351.3906 C342.5938,350.9375 342.2031,350.5469 341.7344,350.5469 C341.5156,350.5469 341.3125,350.625 341.125,350.8125 C340.6719,351.2969 340.6719,351.2969 340.4844,351.3906 C340.0625,351.6563 339.375,351.7813 338.6094,351.7813 C336.5625,351.7813 335.2656,350.6875 335.2656,348.9844 L335.2656,347.8906 C335.2656,346.1094 336.5156,344.7969 338.25,344.7969 C338.8281,344.7969 339.4375,344.9531 339.9063,345.2031 C340.3906,345.4844 340.5625,345.7031 340.6563,346.1094 C340.7188,346.5156 340.75,346.6406 340.8906,346.7656 C341.0313,346.9063 341.2656,347.0156 341.4844,347.0156 C341.75,347.0156 342.0156,346.875 342.1875,346.6563 C342.2969,346.5 342.3281,346.3125 342.3281,345.8906 L342.3281,344.4688 C342.3281,344.0313 342.3125,343.9063 342.2188,343.75 C342.0625,343.4844 341.7813,343.3438 341.4844,343.3438 C341.1875,343.3438 340.9844,343.4375 340.7656,343.75 L340.5938,343.6719 Z "/><text fill="#000000" font-family="sans-serif" font-size="12" lengthAdjust="spacingAndGlyphs" textLength="121" x="358.75" y="352.1543">ConcreteCoordinate</text><line style="stroke: #A80036; stroke-width: 1.5;" x1="292" x2="514" y1="364" y2="364"/><polygon fill="none" points="302,371,298,377,306,377" style="stroke: #1963A0; stroke-width: 1.0;"/><text fill="#000000" font-family="sans-serif" font-size="11" lengthAdjust="spacingAndGlyphs" textLength="41" x="311" y="378.2104">row: int</text><polygon fill="none" points="302,383.8047,298,389.8047,306,389.8047" style="stroke: #1963A0; stroke-width: 1.0;"/><text fill="#000000" font-family="sans-serif" font-size="11" lengthAdjust="spacingAndGlyphs" textLength="62" x="311" y="391.0151">column: int</text><polygon fill="none" points="302,396.6094,298,402.6094,306,402.6094" style="stroke: #1963A0; stroke-width: 1.0;"/><text fill="#000000" font-family="sans-serif" font-size="11" lengthAdjust="spacingAndGlyphs" text-decoration="underline" textLength="67" x="311" y="403.8198">ROW: String</text><polygon fill="none" points="302,409.4141,298,415.4141,306,415.4141" style="stroke: #1963A0; stroke-width: 1.0;"/><text fill="#000000" font-family="sans-serif" font-size="11" lengthAdjust="spacingAndGlyphs" text-decoration="underline" textLength="88" x="311" y="416.6245">COLUMN: String</text><line style="stroke: #A80036; stroke-width: 1.5;" x1="292" x2="514" y1="423.2188" y2="423.2188"/><polygon fill="#4177AF" points="302,430.2188,298,436.2188,306,436.2188" style="stroke: #1963A0; stroke-width: 1.0;"/><text fill="#000000" font-family="sans-serif" font-size="11" lengthAdjust="spacingAndGlyphs" textLength="122" x="311" y="437.4292">ConcreteCoordinate()</text><polygon fill="#4177AF" points="302,443.0234,298,449.0234,306,449.0234" style="stroke: #1963A0; stroke-width: 1.0;"/><text fill="#000000" font-family="sans-serif" font-size="11" lengthAdjust="spacingAndGlyphs" textLength="157" x="311" y="450.2339">ConcreteCoordinate(int, int)</text><ellipse cx="302" cy="459.8281" fill="#84BE84" rx="3" ry="3" style="stroke: #038048; stroke-width: 1.0;"/><text fill="#000000" font-family="sans-serif" font-size="11" lengthAdjust="spacingAndGlyphs" textLength="91" x="311" y="463.0386">isNull(): boolean</text><ellipse cx="302" cy="472.6328" fill="#84BE84" rx="3" ry="3" style="stroke: #038048; stroke-width: 1.0;"/><text fill="#000000" font-family="sans-serif" font-size="11" lengthAdjust="spacingAndGlyphs" textLength="198" x="311" y="475.8433">getDirection(Coordinate): Direction</text><ellipse cx="302" cy="485.4375" fill="#84BE84" rx="3" ry="3" style="stroke: #038048; stroke-width: 1.0;"/><text fill="#000000" font-family="sans-serif" font-size="11" lengthAdjust="spacingAndGlyphs" textLength="190" x="311" y="488.6479">inHorizontal(Coordinate): boolean</text><ellipse cx="302" cy="498.2422" fill="#84BE84" rx="3" ry="3" style="stroke: #038048; stroke-width: 1.0;"/><text fill="#000000" font-family="sans-serif" font-size="11" lengthAdjust="spacingAndGlyphs" textLength="176" x="311" y="501.4526">inVertical(Coordinate): boolean</text><ellipse cx="302" cy="511.0469" fill="#84BE84" rx="3" ry="3" style="stroke: #038048; stroke-width: 1.0;"/><text fill="#000000" font-family="sans-serif" font-size="11" lengthAdjust="spacingAndGlyphs" textLength="147" x="311" y="514.2573">inMainDiagonal(): boolean</text><polygon fill="#4177AF" points="302,519.8516,298,525.8516,306,525.8516" style="stroke: #1963A0; stroke-width: 1.0;"/><text fill="#000000" font-family="sans-serif" font-size="11" lengthAdjust="spacingAndGlyphs" textLength="67" x="311" y="527.062">read(String)</text><ellipse cx="302" cy="536.6563" fill="#84BE84" rx="3" ry="3" style="stroke: #038048; stroke-width: 1.0;"/><text fill="#000000" font-family="sans-serif" font-size="11" lengthAdjust="spacingAndGlyphs" textLength="71" x="311" y="539.8667">getRow(): int</text><ellipse cx="302" cy="549.4609" fill="#84BE84" rx="3" ry="3" style="stroke: #038048; stroke-width: 1.0;"/><text fill="#000000" font-family="sans-serif" font-size="11" lengthAdjust="spacingAndGlyphs" textLength="91" x="311" y="552.6714">getColumn(): int</text><ellipse cx="302" cy="562.2656" fill="#84BE84" rx="3" ry="3" style="stroke: #038048; stroke-width: 1.0;"/><text fill="#000000" font-family="sans-serif" font-size="11" lengthAdjust="spacingAndGlyphs" textLength="86" x="311" y="565.4761">hashCode(): int</text><ellipse cx="302" cy="575.0703" fill="#84BE84" rx="3" ry="3" style="stroke: #038048; stroke-width: 1.0;"/><text fill="#000000" font-family="sans-serif" font-size="11" lengthAdjust="spacingAndGlyphs" textLength="136" x="311" y="578.2808">equals(Object): boolean</text><ellipse cx="302" cy="587.875" fill="#84BE84" rx="3" ry="3" style="stroke: #038048; stroke-width: 1.0;"/><text fill="#000000" font-family="sans-serif" font-size="11" lengthAdjust="spacingAndGlyphs" textLength="92" x="311" y="591.0854">toString(): String</text><!--MD5=[d5f17ae0f97d6def496fbead5961f960]
class usantatecla.utils.NullCoordinate--><rect codeLine="30" fill="#FEFECE" filter="url(#fnd0ap8aqu2id)" height="176.0469" id="usantatecla.utils.NullCoordinate" style="stroke: #A80036; stroke-width: 1.5;" width="224" x="32" y="377"/><ellipse cx="96.25" cy="393" fill="#ADD1B2" rx="11" ry="11" style="stroke: #A80036; stroke-width: 1.0;"/><path d="M98.5938,388.6719 C97.6563,388.2344 97.0625,388.0938 96.1875,388.0938 C93.5625,388.0938 91.5625,390.1719 91.5625,392.8906 L91.5625,394.0156 C91.5625,396.5938 93.6719,398.4844 96.5625,398.4844 C97.7813,398.4844 98.9375,398.1875 99.6875,397.6406 C100.2656,397.2344 100.5938,396.7813 100.5938,396.3906 C100.5938,395.9375 100.2031,395.5469 99.7344,395.5469 C99.5156,395.5469 99.3125,395.625 99.125,395.8125 C98.6719,396.2969 98.6719,396.2969 98.4844,396.3906 C98.0625,396.6563 97.375,396.7813 96.6094,396.7813 C94.5625,396.7813 93.2656,395.6875 93.2656,393.9844 L93.2656,392.8906 C93.2656,391.1094 94.5156,389.7969 96.25,389.7969 C96.8281,389.7969 97.4375,389.9531 97.9063,390.2031 C98.3906,390.4844 98.5625,390.7031 98.6563,391.1094 C98.7188,391.5156 98.75,391.6406 98.8906,391.7656 C99.0313,391.9063 99.2656,392.0156 99.4844,392.0156 C99.75,392.0156 100.0156,391.875 100.1875,391.6563 C100.2969,391.5 100.3281,391.3125 100.3281,390.8906 L100.3281,389.4688 C100.3281,389.0313 100.3125,388.9063 100.2188,388.75 C100.0625,388.4844 99.7813,388.3438 99.4844,388.3438 C99.1875,388.3438 98.9844,388.4375 98.7656,388.75 L98.5938,388.6719 Z "/><text fill="#000000" font-family="sans-serif" font-size="12" lengthAdjust="spacingAndGlyphs" textLength="87" x="116.75" y="397.1543">NullCoordinate</text><line style="stroke: #A80036; stroke-width: 1.5;" x1="33" x2="255" y1="409" y2="409"/><ellipse cx="43" cy="420" fill="none" rx="3" ry="3" style="stroke: #038048; stroke-width: 1.0;"/><text fill="#000000" font-family="sans-serif" font-size="11" lengthAdjust="spacingAndGlyphs" text-decoration="underline" textLength="138" x="52" y="423.2104">instance: NullCoordinate</text><line style="stroke: #A80036; stroke-width: 1.5;" x1="33" x2="255" y1="429.8047" y2="429.8047"/><ellipse cx="43" cy="440.8047" fill="#84BE84" rx="3" ry="3" style="stroke: #038048; stroke-width: 1.0;"/><text fill="#000000" font-family="sans-serif" font-size="11" lengthAdjust="spacingAndGlyphs" text-decoration="underline" textLength="125" x="52" y="444.0151">instance(): Coordinate</text><ellipse cx="43" cy="453.6094" fill="#84BE84" rx="3" ry="3" style="stroke: #038048; stroke-width: 1.0;"/><text fill="#000000" font-family="sans-serif" font-size="11" lengthAdjust="spacingAndGlyphs" textLength="91" x="52" y="456.8198">isNull(): boolean</text><ellipse cx="43" cy="466.4141" fill="#84BE84" rx="3" ry="3" style="stroke: #038048; stroke-width: 1.0;"/><text fill="#000000" font-family="sans-serif" font-size="11" lengthAdjust="spacingAndGlyphs" textLength="198" x="52" y="469.6245">getDirection(Coordinate): Direction</text><ellipse cx="43" cy="479.2188" fill="#84BE84" rx="3" ry="3" style="stroke: #038048; stroke-width: 1.0;"/><text fill="#000000" font-family="sans-serif" font-size="11" lengthAdjust="spacingAndGlyphs" textLength="190" x="52" y="482.4292">inHorizontal(Coordinate): boolean</text><ellipse cx="43" cy="492.0234" fill="#84BE84" rx="3" ry="3" style="stroke: #038048; stroke-width: 1.0;"/><text fill="#000000" font-family="sans-serif" font-size="11" lengthAdjust="spacingAndGlyphs" textLength="176" x="52" y="495.2339">inVertical(Coordinate): boolean</text><ellipse cx="43" cy="504.8281" fill="#84BE84" rx="3" ry="3" style="stroke: #038048; stroke-width: 1.0;"/><text fill="#000000" font-family="sans-serif" font-size="11" lengthAdjust="spacingAndGlyphs" textLength="147" x="52" y="508.0386">inMainDiagonal(): boolean</text><ellipse cx="43" cy="517.6328" fill="#84BE84" rx="3" ry="3" style="stroke: #038048; stroke-width: 1.0;"/><text fill="#000000" font-family="sans-serif" font-size="11" lengthAdjust="spacingAndGlyphs" textLength="86" x="52" y="520.8433">hashCode(): int</text><ellipse cx="43" cy="530.4375" fill="#84BE84" rx="3" ry="3" style="stroke: #038048; stroke-width: 1.0;"/><text fill="#000000" font-family="sans-serif" font-size="11" lengthAdjust="spacingAndGlyphs" textLength="136" x="52" y="533.6479">equals(Object): boolean</text><ellipse cx="43" cy="543.2422" fill="#84BE84" rx="3" ry="3" style="stroke: #038048; stroke-width: 1.0;"/><text fill="#000000" font-family="sans-serif" font-size="11" lengthAdjust="spacingAndGlyphs" textLength="92" x="52" y="546.4526">toString(): String</text><!--MD5=[fa47e12b1ade8e81943ba4775d45235c]
class usantatecla.utils.Direction--><rect codeLine="43" fill="#FEFECE" filter="url(#fnd0ap8aqu2id)" height="112.0234" id="usantatecla.utils.Direction" style="stroke: #A80036; stroke-width: 1.5;" width="140" x="372" y="92"/><ellipse cx="411.3" cy="108" fill="#EB937F" rx="11" ry="11" style="stroke: #A80036; stroke-width: 1.0;"/><path d="M410.0969,108.875 L411.55,108.875 L411.55,108.9844 C411.55,109.3906 411.5813,109.5469 411.6594,109.7031 C411.8156,109.9531 412.0969,110.1094 412.3938,110.1094 C412.6438,110.1094 412.9094,109.9688 413.0656,109.75 C413.1906,109.5938 413.2219,109.4375 413.2219,108.9844 L413.2219,107.0625 C413.2219,106.9063 413.2219,106.8594 413.2063,106.7031 C413.1438,106.2344 412.8313,105.9219 412.3781,105.9219 C412.1281,105.9219 411.8625,106.0625 411.6906,106.2813 C411.5813,106.4531 411.55,106.6094 411.55,107.0625 L411.55,107.1875 L410.0969,107.1875 L410.0969,104.7813 L414.0813,104.7813 L414.0813,105.6406 C414.0813,106.0469 414.1125,106.2188 414.1906,106.375 C414.3625,106.625 414.6438,106.7813 414.925,106.7813 C415.1906,106.7813 415.4563,106.6406 415.6281,106.4219 C415.7375,106.25 415.7688,106.1094 415.7688,105.6406 L415.7688,103.0938 L408.1438,103.0938 C407.7063,103.0938 407.5813,103.1094 407.425,103.2031 C407.175,103.3594 407.0188,103.6563 407.0188,103.9375 C407.0188,104.2188 407.1594,104.4688 407.3781,104.6406 C407.5344,104.75 407.7219,104.7813 408.1438,104.7813 L408.3938,104.7813 L408.3938,111.2969 L408.1438,111.2969 C407.7375,111.2969 407.5813,111.3125 407.425,111.4219 C407.175,111.5938 407.0188,111.8594 407.0188,112.1563 C407.0188,112.4219 407.1594,112.6719 407.3781,112.8281 C407.5188,112.9531 407.7531,113 408.1438,113 L416.1438,113 L416.1438,110.4219 C416.1438,109.9844 416.1125,109.8438 416.0344,109.6875 C415.8625,109.4375 415.5813,109.2813 415.3,109.2813 C415.0344,109.2813 414.7688,109.3906 414.5969,109.6406 C414.4875,109.7969 414.4563,109.9375 414.4563,110.4219 L414.4563,111.2969 L410.0969,111.2969 L410.0969,108.875 Z "/><text fill="#000000" font-family="sans-serif" font-size="12" lengthAdjust="spacingAndGlyphs" textLength="54" x="430.7" y="112.1543">Direction</text><line style="stroke: #A80036; stroke-width: 1.5;" x1="373" x2="511" y1="124" y2="124"/><ellipse cx="383" cy="135" fill="none" rx="3" ry="3" style="stroke: #038048; stroke-width: 1.0;"/><text fill="#000000" font-family="sans-serif" font-size="11" lengthAdjust="spacingAndGlyphs" textLength="54" x="392" y="138.2104">VERTICAL</text><ellipse cx="383" cy="147.8047" fill="none" rx="3" ry="3" style="stroke: #038048; stroke-width: 1.0;"/><text fill="#000000" font-family="sans-serif" font-size="11" lengthAdjust="spacingAndGlyphs" textLength="73" x="392" y="151.0151">HORIZONTAL</text><ellipse cx="383" cy="160.6094" fill="none" rx="3" ry="3" style="stroke: #038048; stroke-width: 1.0;"/><text fill="#000000" font-family="sans-serif" font-size="11" lengthAdjust="spacingAndGlyphs" textLength="94" x="392" y="163.8198">MAIN_DIAGONAL</text><ellipse cx="383" cy="173.4141" fill="none" rx="3" ry="3" style="stroke: #038048; stroke-width: 1.0;"/><text fill="#000000" font-family="sans-serif" font-size="11" lengthAdjust="spacingAndGlyphs" textLength="114" x="392" y="176.6245">INVERSE_DIAGONAL</text><ellipse cx="383" cy="186.2188" fill="none" rx="3" ry="3" style="stroke: #038048; stroke-width: 1.0;"/><text fill="#000000" font-family="sans-serif" font-size="11" lengthAdjust="spacingAndGlyphs" textLength="28" x="392" y="189.4292">NULL</text><line style="stroke: #A80036; stroke-width: 1.5;" x1="373" x2="511" y1="196.0234" y2="196.0234"/><!--MD5=[5a5a2ad444bc00c1498d76ebf80a1dc4]
class usantatecla.utils.Console--><rect codeLine="51" fill="#FEFECE" filter="url(#fnd0ap8aqu2id)" height="214.4609" id="usantatecla.utils.Console" style="stroke: #A80036; stroke-width: 1.5;" width="166" x="547" y="41"/><ellipse cx="601.25" cy="57" fill="#ADD1B2" rx="11" ry="11" style="stroke: #A80036; stroke-width: 1.0;"/><path d="M603.5938,52.6719 C602.6563,52.2344 602.0625,52.0938 601.1875,52.0938 C598.5625,52.0938 596.5625,54.1719 596.5625,56.8906 L596.5625,58.0156 C596.5625,60.5938 598.6719,62.4844 601.5625,62.4844 C602.7813,62.4844 603.9375,62.1875 604.6875,61.6406 C605.2656,61.2344 605.5938,60.7813 605.5938,60.3906 C605.5938,59.9375 605.2031,59.5469 604.7344,59.5469 C604.5156,59.5469 604.3125,59.625 604.125,59.8125 C603.6719,60.2969 603.6719,60.2969 603.4844,60.3906 C603.0625,60.6563 602.375,60.7813 601.6094,60.7813 C599.5625,60.7813 598.2656,59.6875 598.2656,57.9844 L598.2656,56.8906 C598.2656,55.1094 599.5156,53.7969 601.25,53.7969 C601.8281,53.7969 602.4375,53.9531 602.9063,54.2031 C603.3906,54.4844 603.5625,54.7031 603.6563,55.1094 C603.7188,55.5156 603.75,55.6406 603.8906,55.7656 C604.0313,55.9063 604.2656,56.0156 604.4844,56.0156 C604.75,56.0156 605.0156,55.875 605.1875,55.6563 C605.2969,55.5 605.3281,55.3125 605.3281,54.8906 L605.3281,53.4688 C605.3281,53.0313 605.3125,52.9063 605.2188,52.75 C605.0625,52.4844 604.7813,52.3438 604.4844,52.3438 C604.1875,52.3438 603.9844,52.4375 603.7656,52.75 L603.5938,52.6719 Z "/><text fill="#000000" font-family="sans-serif" font-size="12" lengthAdjust="spacingAndGlyphs" textLength="49" x="621.75" y="61.1543">Console</text><line style="stroke: #A80036; stroke-width: 1.5;" x1="548" x2="712" y1="73" y2="73"/><ellipse cx="558" cy="84" fill="none" rx="3" ry="3" style="stroke: #038048; stroke-width: 1.0;"/><text fill="#000000" font-family="sans-serif" font-size="11" lengthAdjust="spacingAndGlyphs" text-decoration="underline" textLength="97" x="567" y="87.2104">console: Console</text><line style="stroke: #A80036; stroke-width: 1.5;" x1="548" x2="712" y1="93.8047" y2="93.8047"/><ellipse cx="558" cy="104.8047" fill="#84BE84" rx="3" ry="3" style="stroke: #038048; stroke-width: 1.0;"/><text fill="#000000" font-family="sans-serif" font-size="11" lengthAdjust="spacingAndGlyphs" text-decoration="underline" textLength="109" x="567" y="108.0151">instance(): Console</text><ellipse cx="558" cy="117.6094" fill="#84BE84" rx="3" ry="3" style="stroke: #038048; stroke-width: 1.0;"/><text fill="#000000" font-family="sans-serif" font-size="11" lengthAdjust="spacingAndGlyphs" textLength="140" x="567" y="120.8198">readString(String): String</text><ellipse cx="558" cy="130.4141" fill="#84BE84" rx="3" ry="3" style="stroke: #038048; stroke-width: 1.0;"/><text fill="#000000" font-family="sans-serif" font-size="11" lengthAdjust="spacingAndGlyphs" textLength="107" x="567" y="133.6245">readString(): String</text><ellipse cx="558" cy="143.2188" fill="#84BE84" rx="3" ry="3" style="stroke: #038048; stroke-width: 1.0;"/><text fill="#000000" font-family="sans-serif" font-size="11" lengthAdjust="spacingAndGlyphs" textLength="102" x="567" y="146.4292">readInt(String): int</text><ellipse cx="558" cy="156.0234" fill="#84BE84" rx="3" ry="3" style="stroke: #038048; stroke-width: 1.0;"/><text fill="#000000" font-family="sans-serif" font-size="11" lengthAdjust="spacingAndGlyphs" textLength="124" x="567" y="159.2339">readChar(String): char</text><ellipse cx="558" cy="168.8281" fill="#84BE84" rx="3" ry="3" style="stroke: #038048; stroke-width: 1.0;"/><text fill="#000000" font-family="sans-serif" font-size="11" lengthAdjust="spacingAndGlyphs" textLength="46" x="567" y="172.0386">writeln()</text><ellipse cx="558" cy="181.6328" fill="#84BE84" rx="3" ry="3" style="stroke: #038048; stroke-width: 1.0;"/><text fill="#000000" font-family="sans-serif" font-size="11" lengthAdjust="spacingAndGlyphs" textLength="69" x="567" y="184.8433">write(String)</text><ellipse cx="558" cy="194.4375" fill="#84BE84" rx="3" ry="3" style="stroke: #038048; stroke-width: 1.0;"/><text fill="#000000" font-family="sans-serif" font-size="11" lengthAdjust="spacingAndGlyphs" textLength="50" x="567" y="197.6479">write(int)</text><ellipse cx="558" cy="207.2422" fill="#84BE84" rx="3" ry="3" style="stroke: #038048; stroke-width: 1.0;"/><text fill="#000000" font-family="sans-serif" font-size="11" lengthAdjust="spacingAndGlyphs" textLength="79" x="567" y="210.4526">writeln(String)</text><ellipse cx="558" cy="220.0469" fill="#84BE84" rx="3" ry="3" style="stroke: #038048; stroke-width: 1.0;"/><text fill="#000000" font-family="sans-serif" font-size="11" lengthAdjust="spacingAndGlyphs" textLength="60" x="567" y="223.2573">writeln(int)</text><ellipse cx="558" cy="232.8516" fill="#84BE84" rx="3" ry="3" style="stroke: #038048; stroke-width: 1.0;"/><text fill="#000000" font-family="sans-serif" font-size="11" lengthAdjust="spacingAndGlyphs" textLength="60" x="567" y="236.062">write(char)</text><ellipse cx="558" cy="245.6563" fill="#84BE84" rx="3" ry="3" style="stroke: #038048; stroke-width: 1.0;"/><text fill="#000000" font-family="sans-serif" font-size="11" lengthAdjust="spacingAndGlyphs" textLength="95" x="567" y="248.8667">writeError(String)</text><!--MD5=[b0b725b3db639de93c4e5e8714f3aefc]
class usantatecla.utils.ClosedInterval--><rect codeLine="67" fill="#FEFECE" filter="url(#fnd0ap8aqu2id)" height="112.0234" id="usantatecla.utils.ClosedInterval" style="stroke: #A80036; stroke-width: 1.5;" width="158" x="748" y="92"/><ellipse cx="781" cy="108" fill="#ADD1B2" rx="11" ry="11" style="stroke: #A80036; stroke-width: 1.0;"/><path d="M783.3438,103.6719 C782.4063,103.2344 781.8125,103.0938 780.9375,103.0938 C778.3125,103.0938 776.3125,105.1719 776.3125,107.8906 L776.3125,109.0156 C776.3125,111.5938 778.4219,113.4844 781.3125,113.4844 C782.5313,113.4844 783.6875,113.1875 784.4375,112.6406 C785.0156,112.2344 785.3438,111.7813 785.3438,111.3906 C785.3438,110.9375 784.9531,110.5469 784.4844,110.5469 C784.2656,110.5469 784.0625,110.625 783.875,110.8125 C783.4219,111.2969 783.4219,111.2969 783.2344,111.3906 C782.8125,111.6563 782.125,111.7813 781.3594,111.7813 C779.3125,111.7813 778.0156,110.6875 778.0156,108.9844 L778.0156,107.8906 C778.0156,106.1094 779.2656,104.7969 781,104.7969 C781.5781,104.7969 782.1875,104.9531 782.6563,105.2031 C783.1406,105.4844 783.3125,105.7031 783.4063,106.1094 C783.4688,106.5156 783.5,106.6406 783.6406,106.7656 C783.7813,106.9063 784.0156,107.0156 784.2344,107.0156 C784.5,107.0156 784.7656,106.875 784.9375,106.6563 C785.0469,106.5 785.0781,106.3125 785.0781,105.8906 L785.0781,104.4688 C785.0781,104.0313 785.0625,103.9063 784.9688,103.75 C784.8125,103.4844 784.5313,103.3438 784.2344,103.3438 C783.9375,103.3438 783.7344,103.4375 783.5156,103.75 L783.3438,103.6719 Z "/><text fill="#000000" font-family="sans-serif" font-size="12" lengthAdjust="spacingAndGlyphs" textLength="86" x="799" y="112.1543">ClosedInterval</text><line style="stroke: #A80036; stroke-width: 1.5;" x1="749" x2="905" y1="124" y2="124"/><rect fill="none" height="6" style="stroke: #C82930; stroke-width: 1.0;" width="6" x="756" y="132"/><text fill="#000000" font-family="sans-serif" font-size="11" lengthAdjust="spacingAndGlyphs" textLength="42" x="768" y="138.2104">min: int</text><rect fill="none" height="6" style="stroke: #C82930; stroke-width: 1.0;" width="6" x="756" y="144.8047"/><text fill="#000000" font-family="sans-serif" font-size="11" lengthAdjust="spacingAndGlyphs" textLength="46" x="768" y="151.0151">max: int</text><line style="stroke: #A80036; stroke-width: 1.5;" x1="749" x2="905" y1="157.6094" y2="157.6094"/><ellipse cx="759" cy="168.6094" fill="#84BE84" rx="3" ry="3" style="stroke: #038048; stroke-width: 1.0;"/><text fill="#000000" font-family="sans-serif" font-size="11" lengthAdjust="spacingAndGlyphs" textLength="125" x="768" y="171.8198">ClosedInterval(int, int)</text><ellipse cx="759" cy="181.4141" fill="#84BE84" rx="3" ry="3" style="stroke: #038048; stroke-width: 1.0;"/><text fill="#000000" font-family="sans-serif" font-size="11" lengthAdjust="spacingAndGlyphs" textLength="132" x="768" y="184.6245">isIncluded(int): boolean</text><ellipse cx="759" cy="194.2188" fill="#84BE84" rx="3" ry="3" style="stroke: #038048; stroke-width: 1.0;"/><text fill="#000000" font-family="sans-serif" font-size="11" lengthAdjust="spacingAndGlyphs" textLength="92" x="768" y="197.4292">toString(): String</text><!--MD5=[115031fed92a4467bd358dd9ee6729dd]
class usantatecla.utils.YesNoDialog--><rect codeLine="75" fill="#FEFECE" filter="url(#fnd0ap8aqu2id)" height="163.2422" id="usantatecla.utils.YesNoDialog" style="stroke: #A80036; stroke-width: 1.5;" width="155" x="550.5" y="383.5"/><ellipse cx="586.65" cy="399.5" fill="#ADD1B2" rx="11" ry="11" style="stroke: #A80036; stroke-width: 1.0;"/><path d="M588.9938,395.1719 C588.0563,394.7344 587.4625,394.5938 586.5875,394.5938 C583.9625,394.5938 581.9625,396.6719 581.9625,399.3906 L581.9625,400.5156 C581.9625,403.0938 584.0719,404.9844 586.9625,404.9844 C588.1813,404.9844 589.3375,404.6875 590.0875,404.1406 C590.6656,403.7344 590.9938,403.2813 590.9938,402.8906 C590.9938,402.4375 590.6031,402.0469 590.1344,402.0469 C589.9156,402.0469 589.7125,402.125 589.525,402.3125 C589.0719,402.7969 589.0719,402.7969 588.8844,402.8906 C588.4625,403.1563 587.775,403.2813 587.0094,403.2813 C584.9625,403.2813 583.6656,402.1875 583.6656,400.4844 L583.6656,399.3906 C583.6656,397.6094 584.9156,396.2969 586.65,396.2969 C587.2281,396.2969 587.8375,396.4531 588.3063,396.7031 C588.7906,396.9844 588.9625,397.2031 589.0563,397.6094 C589.1188,398.0156 589.15,398.1406 589.2906,398.2656 C589.4313,398.4063 589.6656,398.5156 589.8844,398.5156 C590.15,398.5156 590.4156,398.375 590.5875,398.1563 C590.6969,398 590.7281,397.8125 590.7281,397.3906 L590.7281,395.9688 C590.7281,395.5313 590.7125,395.4063 590.6188,395.25 C590.4625,394.9844 590.1813,394.8438 589.8844,394.8438 C589.5875,394.8438 589.3844,394.9375 589.1656,395.25 L588.9938,395.1719 Z "/><text fill="#000000" font-family="sans-serif" font-size="12" lengthAdjust="spacingAndGlyphs" textLength="76" x="605.35" y="403.6543">YesNoDialog</text><line style="stroke: #A80036; stroke-width: 1.5;" x1="551.5" x2="704.5" y1="415.5" y2="415.5"/><rect fill="none" height="6" style="stroke: #C82930; stroke-width: 1.0;" width="6" x="558.5" y="423.5"/><text fill="#000000" font-family="sans-serif" font-size="11" lengthAdjust="spacingAndGlyphs" text-decoration="underline" textLength="103" x="570.5" y="429.7104">AFFIRMATIVE: char</text><rect fill="none" height="6" style="stroke: #C82930; stroke-width: 1.0;" width="6" x="558.5" y="436.3047"/><text fill="#000000" font-family="sans-serif" font-size="11" lengthAdjust="spacingAndGlyphs" text-decoration="underline" textLength="88" x="570.5" y="442.5151">NEGATIVE: char</text><rect fill="none" height="6" style="stroke: #C82930; stroke-width: 1.0;" width="6" x="558.5" y="449.1094"/><text fill="#000000" font-family="sans-serif" font-size="11" lengthAdjust="spacingAndGlyphs" text-decoration="underline" textLength="79" x="570.5" y="455.3198">SUFFIX: String</text><rect fill="none" height="6" style="stroke: #C82930; stroke-width: 1.0;" width="6" x="558.5" y="461.9141"/><text fill="#000000" font-family="sans-serif" font-size="11" lengthAdjust="spacingAndGlyphs" text-decoration="underline" textLength="96" x="570.5" y="468.1245">MESSAGE: String</text><rect fill="none" height="6" style="stroke: #C82930; stroke-width: 1.0;" width="6" x="558.5" y="474.7188"/><text fill="#000000" font-family="sans-serif" font-size="11" lengthAdjust="spacingAndGlyphs" textLength="72" x="570.5" y="480.9292">answer: char</text><line style="stroke: #A80036; stroke-width: 1.5;" x1="551.5" x2="704.5" y1="487.5234" y2="487.5234"/><ellipse cx="561.5" cy="498.5234" fill="#84BE84" rx="3" ry="3" style="stroke: #038048; stroke-width: 1.0;"/><text fill="#000000" font-family="sans-serif" font-size="11" lengthAdjust="spacingAndGlyphs" textLength="120" x="570.5" y="501.7339">read(String): boolean</text><rect fill="#F24D5C" height="6" style="stroke: #C82930; stroke-width: 1.0;" width="6" x="558.5" y="508.3281"/><text fill="#000000" font-family="sans-serif" font-size="11" lengthAdjust="spacingAndGlyphs" textLength="129" x="570.5" y="514.5386">isAfirmative(): boolean</text><rect fill="#F24D5C" height="6" style="stroke: #C82930; stroke-width: 1.0;" width="6" x="558.5" y="521.1328"/><text fill="#000000" font-family="sans-serif" font-size="11" lengthAdjust="spacingAndGlyphs" textLength="100" x="570.5" y="527.3433">getAnswer(): char</text><rect fill="#F24D5C" height="6" style="stroke: #C82930; stroke-width: 1.0;" width="6" x="558.5" y="533.9375"/><text fill="#000000" font-family="sans-serif" font-size="11" lengthAdjust="spacingAndGlyphs" textLength="122" x="570.5" y="540.1479">isNegative(): boolean</text><!--MD5=[3415149f6924cb72405a86d2dbe048ff]
class usantatecla.utils.LimitedIntDialog--><rect codeLine="87" fill="#FEFECE" filter="url(#fnd0ap8aqu2id)" height="99.2188" id="usantatecla.utils.LimitedIntDialog" style="stroke: #A80036; stroke-width: 1.5;" width="165" x="740.5" y="415.5"/><ellipse cx="772.6" cy="431.5" fill="#ADD1B2" rx="11" ry="11" style="stroke: #A80036; stroke-width: 1.0;"/><path d="M774.9438,427.1719 C774.0063,426.7344 773.4125,426.5938 772.5375,426.5938 C769.9125,426.5938 767.9125,428.6719 767.9125,431.3906 L767.9125,432.5156 C767.9125,435.0938 770.0219,436.9844 772.9125,436.9844 C774.1313,436.9844 775.2875,436.6875 776.0375,436.1406 C776.6156,435.7344 776.9438,435.2813 776.9438,434.8906 C776.9438,434.4375 776.5531,434.0469 776.0844,434.0469 C775.8656,434.0469 775.6625,434.125 775.475,434.3125 C775.0219,434.7969 775.0219,434.7969 774.8344,434.8906 C774.4125,435.1563 773.725,435.2813 772.9594,435.2813 C770.9125,435.2813 769.6156,434.1875 769.6156,432.4844 L769.6156,431.3906 C769.6156,429.6094 770.8656,428.2969 772.6,428.2969 C773.1781,428.2969 773.7875,428.4531 774.2563,428.7031 C774.7406,428.9844 774.9125,429.2031 775.0063,429.6094 C775.0688,430.0156 775.1,430.1406 775.2406,430.2656 C775.3813,430.4063 775.6156,430.5156 775.8344,430.5156 C776.1,430.5156 776.3656,430.375 776.5375,430.1563 C776.6469,430 776.6781,429.8125 776.6781,429.3906 L776.6781,427.9688 C776.6781,427.5313 776.6625,427.4063 776.5688,427.25 C776.4125,426.9844 776.1313,426.8438 775.8344,426.8438 C775.5375,426.8438 775.3344,426.9375 775.1156,427.25 L774.9438,427.1719 Z "/><text fill="#000000" font-family="sans-serif" font-size="12" lengthAdjust="spacingAndGlyphs" textLength="95" x="790.4" y="435.6543">LimitedIntDialog</text><line style="stroke: #A80036; stroke-width: 1.5;" x1="741.5" x2="904.5" y1="447.5" y2="447.5"/><rect fill="none" height="6" style="stroke: #C82930; stroke-width: 1.0;" width="6" x="748.5" y="455.5"/><text fill="#000000" font-family="sans-serif" font-size="11" lengthAdjust="spacingAndGlyphs" textLength="125" x="760.5" y="461.7104">LIMITS: ClosedInterval</text><rect fill="none" height="6" style="stroke: #C82930; stroke-width: 1.0;" width="6" x="748.5" y="468.3047"/><text fill="#000000" font-family="sans-serif" font-size="11" lengthAdjust="spacingAndGlyphs" text-decoration="underline" textLength="139" x="760.5" y="474.5151">ERROR_MESSAGE: String</text><line style="stroke: #A80036; stroke-width: 1.5;" x1="741.5" x2="904.5" y1="481.1094" y2="481.1094"/><ellipse cx="751.5" cy="492.1094" fill="#84BE84" rx="3" ry="3" style="stroke: #038048; stroke-width: 1.0;"/><text fill="#000000" font-family="sans-serif" font-size="11" lengthAdjust="spacingAndGlyphs" textLength="135" x="760.5" y="495.3198">LimitedIntDialog(int, int)</text><ellipse cx="751.5" cy="504.9141" fill="#84BE84" rx="3" ry="3" style="stroke: #038048; stroke-width: 1.0;"/><text fill="#000000" font-family="sans-serif" font-size="11" lengthAdjust="spacingAndGlyphs" textLength="88" x="760.5" y="508.1245">read(String): int</text><!--MD5=[06343bf850d7d7a24456cd327e63b99b]
class java.io.BufferedReader--><rect fill="#FEFECE" filter="url(#fnd0ap8aqu2id)" height="48" id="java.io.BufferedReader" style="stroke: #A80036; stroke-width: 1.5;" width="127" x="962.5" y="441"/><ellipse cx="977.5" cy="457" fill="#ADD1B2" rx="11" ry="11" style="stroke: #A80036; stroke-width: 1.0;"/><path d="M979.8438,452.6719 C978.9063,452.2344 978.3125,452.0938 977.4375,452.0938 C974.8125,452.0938 972.8125,454.1719 972.8125,456.8906 L972.8125,458.0156 C972.8125,460.5938 974.9219,462.4844 977.8125,462.4844 C979.0313,462.4844 980.1875,462.1875 980.9375,461.6406 C981.5156,461.2344 981.8438,460.7813 981.8438,460.3906 C981.8438,459.9375 981.4531,459.5469 980.9844,459.5469 C980.7656,459.5469 980.5625,459.625 980.375,459.8125 C979.9219,460.2969 979.9219,460.2969 979.7344,460.3906 C979.3125,460.6563 978.625,460.7813 977.8594,460.7813 C975.8125,460.7813 974.5156,459.6875 974.5156,457.9844 L974.5156,456.8906 C974.5156,455.1094 975.7656,453.7969 977.5,453.7969 C978.0781,453.7969 978.6875,453.9531 979.1563,454.2031 C979.6406,454.4844 979.8125,454.7031 979.9063,455.1094 C979.9688,455.5156 980,455.6406 980.1406,455.7656 C980.2813,455.9063 980.5156,456.0156 980.7344,456.0156 C981,456.0156 981.2656,455.875 981.4375,455.6563 C981.5469,455.5 981.5781,455.3125 981.5781,454.8906 L981.5781,453.4688 C981.5781,453.0313 981.5625,452.9063 981.4688,452.75 C981.3125,452.4844 981.0313,452.3438 980.7344,452.3438 C980.4375,452.3438 980.2344,452.4375 980.0156,452.75 L979.8438,452.6719 Z "/><text fill="#000000" font-family="sans-serif" font-size="12" lengthAdjust="spacingAndGlyphs" textLength="95" x="991.5" y="461.1543">BufferedReader</text><line style="stroke: #A80036; stroke-width: 1.5;" x1="963.5" x2="1088.5" y1="473" y2="473"/><line style="stroke: #A80036; stroke-width: 1.5;" x1="963.5" x2="1088.5" y1="481" y2="481"/><!--MD5=[ca73a4fbcee54775298381742925c483]
reverse link usantatecla.utils.Coordinate to usantatecla.utils.ConcreteCoordinate--><path codeLine="94" d="M249.605,221.19 C270.344,254.016 295.555,293.924 319.498,331.823 " fill="none" id="usantatecla.utils.Coordinate-backto-usantatecla.utils.ConcreteCoordinate" style="stroke: #A80036; stroke-width: 1.0;"/><polygon fill="none" points="243.655,224.876,238.891,204.229,255.491,217.399,243.655,224.876" style="stroke: #A80036; stroke-width: 1.0;"/><!--MD5=[cddedadb31d71f7b6d8b58208518f687]
reverse link usantatecla.utils.Coordinate to usantatecla.utils.NullCoordinate--><path codeLine="95" d="M189.711,224.019 C180.957,269.978 169.716,328.99 160.573,376.994 " fill="none" id="usantatecla.utils.Coordinate-backto-usantatecla.utils.NullCoordinate" style="stroke: #A80036; stroke-width: 1.0;"/><polygon fill="none" points="182.861,222.566,193.48,204.229,196.614,225.186,182.861,222.566" style="stroke: #A80036; stroke-width: 1.0;"/><!--MD5=[c227886ef91e099a67cf0e2849ce3945]
link usantatecla.utils.Console to java.io.BufferedReader--><path codeLine="96" d="M722.4633,248.864 C722.4633,248.864 728.427,253.253 731,255 C806.728,306.407 848.77,277.095 922,332 C957.493,358.611 987.512,400.177 1006.04,429.546 " fill="none" id="usantatecla.utils.Console-java.io.BufferedReader" style="stroke: #A80036; stroke-width: 1.0;"/><polygon fill="#A80036" points="1013.03,440.919,1011.7311,431.1562,1010.4144,436.6577,1004.9129,435.3411,1013.03,440.919" style="stroke: #A80036; stroke-width: 1.0;"/><line style="stroke: #A80036; stroke-width: 1.0;" x1="1010.4144" x2="1006.22" y1="436.6577" y2="429.8425"/><polygon fill="#A80036" points="713.019,241.461,715.2735,248.3106,722.4633,248.864,720.2088,242.0144,713.019,241.461" style="stroke: #A80036; stroke-width: 1.0;"/><text fill="#000000" font-family="sans-serif" font-size="13" lengthAdjust="spacingAndGlyphs" textLength="101" x="863" y="298.0669">bufferedReader</text><!--MD5=[46231c4f91a28e91c3b6931bef3a7401]
link usantatecla.utils.Direction to usantatecla.utils.ClosedInterval--><!--MD5=[e9b86e6c3a0ce97b6bfb0e2546727a44]
link usantatecla.utils.Direction to usantatecla.utils.YesNoDialog--><!--MD5=[5b98b3c711f5ba1b6452ad6b87ecd44b]
link usantatecla.utils.YesNoDialog to usantatecla.utils.LimitedIntDialog--><!--MD5=[58c935d52e0980893dafc1a69eaa5c8c]
@startuml
namespace usantatecla.utils {

interface Coordinate {
	~ isNull(): boolean 
	~ getDirection(Coordinate): Direction 
	~ inHorizontal(Coordinate): boolean 
	~ inVertical(Coordinate): boolean 
	~ inMainDiagonal(): boolean 
}

class ConcreteCoordinate {
	~ row: int 
	~ column: int 
	~ ROW: {static} String
	~ COLUMN: {static} String
	~ ConcreteCoordinate()
	~ ConcreteCoordinate(int, int)
	+ isNull(): boolean 
	+ getDirection(Coordinate): Direction 
	+ inHorizontal(Coordinate): boolean 
	+ inVertical(Coordinate): boolean 
	+ inMainDiagonal(): boolean 
	~ read(String)
	+ getRow(): int 
	+ getColumn(): int
	+ hashCode(): int
	+ equals(Object): boolean 
	+ toString(): String 
}
class NullCoordinate {
	+ instance: {static} NullCoordinate 
	+ {static} instance(): Coordinate 
	+ isNull(): boolean 
	+ getDirection(Coordinate): Direction 
	+ inHorizontal(Coordinate): boolean 
	+ inVertical(Coordinate): boolean
	+ inMainDiagonal(): boolean
	+ hashCode(): int 
	+ equals(Object): boolean 
	+ toString(): String 
}

enum Direction {
	+ VERTICAL
	+ HORIZONTAL
	+ MAIN_DIAGONAL
	+ INVERSE_DIAGONAL
	+ NULL
}

class Console {
	+ console: {static} Console 
	+ instance(): {static} Console 
	+ readString(String): String 
	+ readString(): String 
	+ readInt(String): int 
	+ readChar(String): char 
	+ writeln()
	+ write(String)
	+ write(int)
	+ writeln(String)
	+ writeln(int)
	+ write(char)
	+ writeError(String)
}

class ClosedInterval {
	- min: int 
	- max: int 
	+ ClosedInterval(int, int)
	+ isIncluded(int): boolean 
	+ toString(): String 
}

class YesNoDialog {
	- AFFIRMATIVE: {static} char 
	- NEGATIVE: {static} char 
	- SUFFIX: {static} String 
	- MESSAGE: {static} String
	- answer: char 
	+ read(String): boolean 
	- isAfirmative(): boolean 
	- getAnswer(): char 
	- isNegative(): boolean 
}

class LimitedIntDialog {
	- LIMITS: ClosedInterval 
	- ERROR_MESSAGE: {static} String 
	+ LimitedIntDialog(int, int)
	+ read(String): int 
}

Coordinate <|-down- ConcreteCoordinate
Coordinate <|-down- NullCoordinate
Console *-down-> java.io.BufferedReader : bufferedReader
}
@enduml

PlantUML version 1.2020.20beta4(Unknown compile time)
(GPL source distribution)
Java Runtime: Java(TM) SE Runtime Environment
JVM: Java HotSpot(TM) 64-Bit Server VM
Default Encoding: UTF-8
Language: en
Country: US
--></g></svg>