<?xml version="1.0" encoding="UTF-8" standalone="no"?><svg xmlns="http://www.w3.org/2000/svg" xmlns:xlink="http://www.w3.org/1999/xlink" contentScriptType="application/ecmascript" contentStyleType="text/css" height="896px" preserveAspectRatio="none" style="width:1114px;height:896px;" version="1.1" viewBox="0 0 1114 896" width="1114px" zoomAndPan="magnify"><defs><filter height="300%" id="fia3513njdiqi" width="300%" x="-1" y="-1"><feGaussianBlur result="blurOut" stdDeviation="2.0"/><feColorMatrix in="blurOut" result="blurOut2" type="matrix" values="0 0 0 0 0 0 0 0 0 0 0 0 0 0 0 0 0 0 .4 0"/><feOffset dx="4.0" dy="4.0" in="blurOut2" result="blurOut3"/><feBlend in="SourceGraphic" in2="blurOut3" mode="normal"/></filter></defs><g><!--MD5=[908cbfa8709a8ec6ee3beb0409fea32c]
cluster usantatecla.utils--><polygon fill="#FFFFFF" filter="url(#fia3513njdiqi)" points="16,6,162,6,169,28.2969,1097,28.2969,1097,771,16,771,16,6" style="stroke: #000000; stroke-width: 1.5;"/><line style="stroke: #000000; stroke-width: 1.5;" x1="16" x2="169" y1="28.2969" y2="28.2969"/><text fill="#000000" font-family="sans-serif" font-size="14" font-weight="bold" lengthAdjust="spacingAndGlyphs" textLength="140" x="20" y="20.9951">usantatecla.utils</text><!--MD5=[5f018ac69b30f51f68cd34c581e50301]
class usantatecla.utils.Coordinate--><rect codeLine="3" fill="#FEFECE" filter="url(#fia3513njdiqi)" height="112.0234" id="usantatecla.utils.Coordinate" style="stroke: #A80036; stroke-width: 1.5;" width="224" x="682" y="41"/><ellipse cx="757.25" cy="57" fill="#B4A7E5" rx="11" ry="11" style="stroke: #A80036; stroke-width: 1.0;"/><path d="M758.2031,53.7813 L759.9219,53.7813 C760.3125,53.7813 760.5,53.75 760.625,53.6719 C760.8906,53.5156 761.0313,53.2344 761.0313,52.9375 C761.0313,52.6719 760.9219,52.4063 760.6875,52.2344 C760.5156,52.125 760.375,52.0938 759.9219,52.0938 L754.7813,52.0938 C754.3438,52.0938 754.2188,52.1094 754.0625,52.2031 C753.8125,52.3594 753.6563,52.6563 753.6563,52.9375 C753.6563,53.2188 753.7969,53.4688 754.0156,53.6406 C754.1719,53.75 754.3594,53.7813 754.7813,53.7813 L756.5,53.7813 L756.5,60.2969 L754.7813,60.2969 C754.3438,60.2969 754.2188,60.3125 754.0625,60.4219 C753.8125,60.5781 753.6563,60.8594 753.6563,61.1563 C753.6563,61.4063 753.7969,61.6719 754.0156,61.8281 C754.1719,61.9531 754.375,62 754.7813,62 L759.9219,62 C760.6719,62 761.0313,61.7188 761.0313,61.1563 C761.0313,60.875 760.9219,60.625 760.6875,60.4531 C760.5156,60.3281 760.375,60.2969 759.9219,60.2969 L758.2031,60.2969 L758.2031,53.7813 Z "/><text fill="#000000" font-family="sans-serif" font-size="12" font-style="italic" lengthAdjust="spacingAndGlyphs" textLength="65" x="777.75" y="61.1543">Coordinate</text><line style="stroke: #A80036; stroke-width: 1.5;" x1="683" x2="905" y1="73" y2="73"/><line style="stroke: #A80036; stroke-width: 1.5;" x1="683" x2="905" y1="81" y2="81"/><polygon fill="#4177AF" points="693,88,689,94,697,94" style="stroke: #1963A0; stroke-width: 1.0;"/><text fill="#000000" font-family="sans-serif" font-size="11" lengthAdjust="spacingAndGlyphs" textLength="91" x="702" y="95.2104">isNull(): boolean</text><polygon fill="#4177AF" points="693,100.8047,689,106.8047,697,106.8047" style="stroke: #1963A0; stroke-width: 1.0;"/><text fill="#000000" font-family="sans-serif" font-size="11" lengthAdjust="spacingAndGlyphs" textLength="198" x="702" y="108.0151">getDirection(Coordinate): Direction</text><polygon fill="#4177AF" points="693,113.6094,689,119.6094,697,119.6094" style="stroke: #1963A0; stroke-width: 1.0;"/><text fill="#000000" font-family="sans-serif" font-size="11" lengthAdjust="spacingAndGlyphs" textLength="190" x="702" y="120.8198">inHorizontal(Coordinate): boolean</text><polygon fill="#4177AF" points="693,126.4141,689,132.4141,697,132.4141" style="stroke: #1963A0; stroke-width: 1.0;"/><text fill="#000000" font-family="sans-serif" font-size="11" lengthAdjust="spacingAndGlyphs" textLength="176" x="702" y="133.6245">inVertical(Coordinate): boolean</text><polygon fill="#4177AF" points="693,139.2188,689,145.2188,697,145.2188" style="stroke: #1963A0; stroke-width: 1.0;"/><text fill="#000000" font-family="sans-serif" font-size="11" lengthAdjust="spacingAndGlyphs" textLength="147" x="702" y="146.4292">inMainDiagonal(): boolean</text><!--MD5=[c2c7894405d0c7b92ed3110a385504d5]
class usantatecla.utils.ConcreteCoordinate--><rect codeLine="11" fill="#FEFECE" filter="url(#fia3513njdiqi)" height="265.6797" id="usantatecla.utils.ConcreteCoordinate" style="stroke: #A80036; stroke-width: 1.5;" width="224" x="423" y="214"/><ellipse cx="470.25" cy="230" fill="#ADD1B2" rx="11" ry="11" style="stroke: #A80036; stroke-width: 1.0;"/><path d="M472.5938,225.6719 C471.6563,225.2344 471.0625,225.0938 470.1875,225.0938 C467.5625,225.0938 465.5625,227.1719 465.5625,229.8906 L465.5625,231.0156 C465.5625,233.5938 467.6719,235.4844 470.5625,235.4844 C471.7813,235.4844 472.9375,235.1875 473.6875,234.6406 C474.2656,234.2344 474.5938,233.7813 474.5938,233.3906 C474.5938,232.9375 474.2031,232.5469 473.7344,232.5469 C473.5156,232.5469 473.3125,232.625 473.125,232.8125 C472.6719,233.2969 472.6719,233.2969 472.4844,233.3906 C472.0625,233.6563 471.375,233.7813 470.6094,233.7813 C468.5625,233.7813 467.2656,232.6875 467.2656,230.9844 L467.2656,229.8906 C467.2656,228.1094 468.5156,226.7969 470.25,226.7969 C470.8281,226.7969 471.4375,226.9531 471.9063,227.2031 C472.3906,227.4844 472.5625,227.7031 472.6563,228.1094 C472.7188,228.5156 472.75,228.6406 472.8906,228.7656 C473.0313,228.9063 473.2656,229.0156 473.4844,229.0156 C473.75,229.0156 474.0156,228.875 474.1875,228.6563 C474.2969,228.5 474.3281,228.3125 474.3281,227.8906 L474.3281,226.4688 C474.3281,226.0313 474.3125,225.9063 474.2188,225.75 C474.0625,225.4844 473.7813,225.3438 473.4844,225.3438 C473.1875,225.3438 472.9844,225.4375 472.7656,225.75 L472.5938,225.6719 Z "/><text fill="#000000" font-family="sans-serif" font-size="12" lengthAdjust="spacingAndGlyphs" textLength="121" x="490.75" y="234.1543">ConcreteCoordinate</text><line style="stroke: #A80036; stroke-width: 1.5;" x1="424" x2="646" y1="246" y2="246"/><polygon fill="none" points="434,253,430,259,438,259" style="stroke: #1963A0; stroke-width: 1.0;"/><text fill="#000000" font-family="sans-serif" font-size="11" lengthAdjust="spacingAndGlyphs" textLength="41" x="443" y="260.2104">row: int</text><polygon fill="none" points="434,265.8047,430,271.8047,438,271.8047" style="stroke: #1963A0; stroke-width: 1.0;"/><text fill="#000000" font-family="sans-serif" font-size="11" lengthAdjust="spacingAndGlyphs" textLength="62" x="443" y="273.0151">column: int</text><polygon fill="none" points="434,278.6094,430,284.6094,438,284.6094" style="stroke: #1963A0; stroke-width: 1.0;"/><text fill="#000000" font-family="sans-serif" font-size="11" lengthAdjust="spacingAndGlyphs" text-decoration="underline" textLength="67" x="443" y="285.8198">ROW: String</text><polygon fill="none" points="434,291.4141,430,297.4141,438,297.4141" style="stroke: #1963A0; stroke-width: 1.0;"/><text fill="#000000" font-family="sans-serif" font-size="11" lengthAdjust="spacingAndGlyphs" text-decoration="underline" textLength="88" x="443" y="298.6245">COLUMN: String</text><line style="stroke: #A80036; stroke-width: 1.5;" x1="424" x2="646" y1="305.2188" y2="305.2188"/><polygon fill="#4177AF" points="434,312.2188,430,318.2188,438,318.2188" style="stroke: #1963A0; stroke-width: 1.0;"/><text fill="#000000" font-family="sans-serif" font-size="11" lengthAdjust="spacingAndGlyphs" textLength="122" x="443" y="319.4292">ConcreteCoordinate()</text><polygon fill="#4177AF" points="434,325.0234,430,331.0234,438,331.0234" style="stroke: #1963A0; stroke-width: 1.0;"/><text fill="#000000" font-family="sans-serif" font-size="11" lengthAdjust="spacingAndGlyphs" textLength="157" x="443" y="332.2339">ConcreteCoordinate(int, int)</text><ellipse cx="434" cy="341.8281" fill="#84BE84" rx="3" ry="3" style="stroke: #038048; stroke-width: 1.0;"/><text fill="#000000" font-family="sans-serif" font-size="11" lengthAdjust="spacingAndGlyphs" textLength="91" x="443" y="345.0386">isNull(): boolean</text><ellipse cx="434" cy="354.6328" fill="#84BE84" rx="3" ry="3" style="stroke: #038048; stroke-width: 1.0;"/><text fill="#000000" font-family="sans-serif" font-size="11" lengthAdjust="spacingAndGlyphs" textLength="198" x="443" y="357.8433">getDirection(Coordinate): Direction</text><ellipse cx="434" cy="367.4375" fill="#84BE84" rx="3" ry="3" style="stroke: #038048; stroke-width: 1.0;"/><text fill="#000000" font-family="sans-serif" font-size="11" lengthAdjust="spacingAndGlyphs" textLength="190" x="443" y="370.6479">inHorizontal(Coordinate): boolean</text><ellipse cx="434" cy="380.2422" fill="#84BE84" rx="3" ry="3" style="stroke: #038048; stroke-width: 1.0;"/><text fill="#000000" font-family="sans-serif" font-size="11" lengthAdjust="spacingAndGlyphs" textLength="176" x="443" y="383.4526">inVertical(Coordinate): boolean</text><ellipse cx="434" cy="393.0469" fill="#84BE84" rx="3" ry="3" style="stroke: #038048; stroke-width: 1.0;"/><text fill="#000000" font-family="sans-serif" font-size="11" lengthAdjust="spacingAndGlyphs" textLength="147" x="443" y="396.2573">inMainDiagonal(): boolean</text><polygon fill="#4177AF" points="434,401.8516,430,407.8516,438,407.8516" style="stroke: #1963A0; stroke-width: 1.0;"/><text fill="#000000" font-family="sans-serif" font-size="11" lengthAdjust="spacingAndGlyphs" textLength="67" x="443" y="409.062">read(String)</text><ellipse cx="434" cy="418.6563" fill="#84BE84" rx="3" ry="3" style="stroke: #038048; stroke-width: 1.0;"/><text fill="#000000" font-family="sans-serif" font-size="11" lengthAdjust="spacingAndGlyphs" textLength="71" x="443" y="421.8667">getRow(): int</text><ellipse cx="434" cy="431.4609" fill="#84BE84" rx="3" ry="3" style="stroke: #038048; stroke-width: 1.0;"/><text fill="#000000" font-family="sans-serif" font-size="11" lengthAdjust="spacingAndGlyphs" textLength="91" x="443" y="434.6714">getColumn(): int</text><ellipse cx="434" cy="444.2656" fill="#84BE84" rx="3" ry="3" style="stroke: #038048; stroke-width: 1.0;"/><text fill="#000000" font-family="sans-serif" font-size="11" lengthAdjust="spacingAndGlyphs" textLength="86" x="443" y="447.4761">hashCode(): int</text><ellipse cx="434" cy="457.0703" fill="#84BE84" rx="3" ry="3" style="stroke: #038048; stroke-width: 1.0;"/><text fill="#000000" font-family="sans-serif" font-size="11" lengthAdjust="spacingAndGlyphs" textLength="136" x="443" y="460.2808">equals(Object): boolean</text><ellipse cx="434" cy="469.875" fill="#84BE84" rx="3" ry="3" style="stroke: #038048; stroke-width: 1.0;"/><text fill="#000000" font-family="sans-serif" font-size="11" lengthAdjust="spacingAndGlyphs" textLength="92" x="443" y="473.0854">toString(): String</text><!--MD5=[d5f17ae0f97d6def496fbead5961f960]
class usantatecla.utils.NullCoordinate--><rect codeLine="30" fill="#FEFECE" filter="url(#fia3513njdiqi)" height="176.0469" id="usantatecla.utils.NullCoordinate" style="stroke: #A80036; stroke-width: 1.5;" width="224" x="682" y="259"/><ellipse cx="746.25" cy="275" fill="#ADD1B2" rx="11" ry="11" style="stroke: #A80036; stroke-width: 1.0;"/><path d="M748.5938,270.6719 C747.6563,270.2344 747.0625,270.0938 746.1875,270.0938 C743.5625,270.0938 741.5625,272.1719 741.5625,274.8906 L741.5625,276.0156 C741.5625,278.5938 743.6719,280.4844 746.5625,280.4844 C747.7813,280.4844 748.9375,280.1875 749.6875,279.6406 C750.2656,279.2344 750.5938,278.7813 750.5938,278.3906 C750.5938,277.9375 750.2031,277.5469 749.7344,277.5469 C749.5156,277.5469 749.3125,277.625 749.125,277.8125 C748.6719,278.2969 748.6719,278.2969 748.4844,278.3906 C748.0625,278.6563 747.375,278.7813 746.6094,278.7813 C744.5625,278.7813 743.2656,277.6875 743.2656,275.9844 L743.2656,274.8906 C743.2656,273.1094 744.5156,271.7969 746.25,271.7969 C746.8281,271.7969 747.4375,271.9531 747.9063,272.2031 C748.3906,272.4844 748.5625,272.7031 748.6563,273.1094 C748.7188,273.5156 748.75,273.6406 748.8906,273.7656 C749.0313,273.9063 749.2656,274.0156 749.4844,274.0156 C749.75,274.0156 750.0156,273.875 750.1875,273.6563 C750.2969,273.5 750.3281,273.3125 750.3281,272.8906 L750.3281,271.4688 C750.3281,271.0313 750.3125,270.9063 750.2188,270.75 C750.0625,270.4844 749.7813,270.3438 749.4844,270.3438 C749.1875,270.3438 748.9844,270.4375 748.7656,270.75 L748.5938,270.6719 Z "/><text fill="#000000" font-family="sans-serif" font-size="12" lengthAdjust="spacingAndGlyphs" textLength="87" x="766.75" y="279.1543">NullCoordinate</text><line style="stroke: #A80036; stroke-width: 1.5;" x1="683" x2="905" y1="291" y2="291"/><ellipse cx="693" cy="302" fill="none" rx="3" ry="3" style="stroke: #038048; stroke-width: 1.0;"/><text fill="#000000" font-family="sans-serif" font-size="11" lengthAdjust="spacingAndGlyphs" text-decoration="underline" textLength="138" x="702" y="305.2104">instance: NullCoordinate</text><line style="stroke: #A80036; stroke-width: 1.5;" x1="683" x2="905" y1="311.8047" y2="311.8047"/><ellipse cx="693" cy="322.8047" fill="#84BE84" rx="3" ry="3" style="stroke: #038048; stroke-width: 1.0;"/><text fill="#000000" font-family="sans-serif" font-size="11" lengthAdjust="spacingAndGlyphs" text-decoration="underline" textLength="125" x="702" y="326.0151">instance(): Coordinate</text><ellipse cx="693" cy="335.6094" fill="#84BE84" rx="3" ry="3" style="stroke: #038048; stroke-width: 1.0;"/><text fill="#000000" font-family="sans-serif" font-size="11" lengthAdjust="spacingAndGlyphs" textLength="91" x="702" y="338.8198">isNull(): boolean</text><ellipse cx="693" cy="348.4141" fill="#84BE84" rx="3" ry="3" style="stroke: #038048; stroke-width: 1.0;"/><text fill="#000000" font-family="sans-serif" font-size="11" lengthAdjust="spacingAndGlyphs" textLength="198" x="702" y="351.6245">getDirection(Coordinate): Direction</text><ellipse cx="693" cy="361.2188" fill="#84BE84" rx="3" ry="3" style="stroke: #038048; stroke-width: 1.0;"/><text fill="#000000" font-family="sans-serif" font-size="11" lengthAdjust="spacingAndGlyphs" textLength="190" x="702" y="364.4292">inHorizontal(Coordinate): boolean</text><ellipse cx="693" cy="374.0234" fill="#84BE84" rx="3" ry="3" style="stroke: #038048; stroke-width: 1.0;"/><text fill="#000000" font-family="sans-serif" font-size="11" lengthAdjust="spacingAndGlyphs" textLength="176" x="702" y="377.2339">inVertical(Coordinate): boolean</text><ellipse cx="693" cy="386.8281" fill="#84BE84" rx="3" ry="3" style="stroke: #038048; stroke-width: 1.0;"/><text fill="#000000" font-family="sans-serif" font-size="11" lengthAdjust="spacingAndGlyphs" textLength="147" x="702" y="390.0386">inMainDiagonal(): boolean</text><ellipse cx="693" cy="399.6328" fill="#84BE84" rx="3" ry="3" style="stroke: #038048; stroke-width: 1.0;"/><text fill="#000000" font-family="sans-serif" font-size="11" lengthAdjust="spacingAndGlyphs" textLength="86" x="702" y="402.8433">hashCode(): int</text><ellipse cx="693" cy="412.4375" fill="#84BE84" rx="3" ry="3" style="stroke: #038048; stroke-width: 1.0;"/><text fill="#000000" font-family="sans-serif" font-size="11" lengthAdjust="spacingAndGlyphs" textLength="136" x="702" y="415.6479">equals(Object): boolean</text><ellipse cx="693" cy="425.2422" fill="#84BE84" rx="3" ry="3" style="stroke: #038048; stroke-width: 1.0;"/><text fill="#000000" font-family="sans-serif" font-size="11" lengthAdjust="spacingAndGlyphs" textLength="92" x="702" y="428.4526">toString(): String</text><!--MD5=[fa47e12b1ade8e81943ba4775d45235c]
class usantatecla.utils.Direction--><rect codeLine="43" fill="#FEFECE" filter="url(#fia3513njdiqi)" height="112.0234" id="usantatecla.utils.Direction" style="stroke: #A80036; stroke-width: 1.5;" width="140" x="941" y="291"/><ellipse cx="980.3" cy="307" fill="#EB937F" rx="11" ry="11" style="stroke: #A80036; stroke-width: 1.0;"/><path d="M979.0969,307.875 L980.55,307.875 L980.55,307.9844 C980.55,308.3906 980.5813,308.5469 980.6594,308.7031 C980.8156,308.9531 981.0969,309.1094 981.3938,309.1094 C981.6438,309.1094 981.9094,308.9688 982.0656,308.75 C982.1906,308.5938 982.2219,308.4375 982.2219,307.9844 L982.2219,306.0625 C982.2219,305.9063 982.2219,305.8594 982.2063,305.7031 C982.1438,305.2344 981.8313,304.9219 981.3781,304.9219 C981.1281,304.9219 980.8625,305.0625 980.6906,305.2813 C980.5813,305.4531 980.55,305.6094 980.55,306.0625 L980.55,306.1875 L979.0969,306.1875 L979.0969,303.7813 L983.0813,303.7813 L983.0813,304.6406 C983.0813,305.0469 983.1125,305.2188 983.1906,305.375 C983.3625,305.625 983.6438,305.7813 983.925,305.7813 C984.1906,305.7813 984.4563,305.6406 984.6281,305.4219 C984.7375,305.25 984.7688,305.1094 984.7688,304.6406 L984.7688,302.0938 L977.1438,302.0938 C976.7063,302.0938 976.5813,302.1094 976.425,302.2031 C976.175,302.3594 976.0188,302.6563 976.0188,302.9375 C976.0188,303.2188 976.1594,303.4688 976.3781,303.6406 C976.5344,303.75 976.7219,303.7813 977.1438,303.7813 L977.3938,303.7813 L977.3938,310.2969 L977.1438,310.2969 C976.7375,310.2969 976.5813,310.3125 976.425,310.4219 C976.175,310.5938 976.0188,310.8594 976.0188,311.1563 C976.0188,311.4219 976.1594,311.6719 976.3781,311.8281 C976.5188,311.9531 976.7531,312 977.1438,312 L985.1438,312 L985.1438,309.4219 C985.1438,308.9844 985.1125,308.8438 985.0344,308.6875 C984.8625,308.4375 984.5813,308.2813 984.3,308.2813 C984.0344,308.2813 983.7688,308.3906 983.5969,308.6406 C983.4875,308.7969 983.4563,308.9375 983.4563,309.4219 L983.4563,310.2969 L979.0969,310.2969 L979.0969,307.875 Z "/><text fill="#000000" font-family="sans-serif" font-size="12" lengthAdjust="spacingAndGlyphs" textLength="54" x="999.7" y="311.1543">Direction</text><line style="stroke: #A80036; stroke-width: 1.5;" x1="942" x2="1080" y1="323" y2="323"/><ellipse cx="952" cy="334" fill="none" rx="3" ry="3" style="stroke: #038048; stroke-width: 1.0;"/><text fill="#000000" font-family="sans-serif" font-size="11" lengthAdjust="spacingAndGlyphs" textLength="54" x="961" y="337.2104">VERTICAL</text><ellipse cx="952" cy="346.8047" fill="none" rx="3" ry="3" style="stroke: #038048; stroke-width: 1.0;"/><text fill="#000000" font-family="sans-serif" font-size="11" lengthAdjust="spacingAndGlyphs" textLength="73" x="961" y="350.0151">HORIZONTAL</text><ellipse cx="952" cy="359.6094" fill="none" rx="3" ry="3" style="stroke: #038048; stroke-width: 1.0;"/><text fill="#000000" font-family="sans-serif" font-size="11" lengthAdjust="spacingAndGlyphs" textLength="94" x="961" y="362.8198">MAIN_DIAGONAL</text><ellipse cx="952" cy="372.4141" fill="none" rx="3" ry="3" style="stroke: #038048; stroke-width: 1.0;"/><text fill="#000000" font-family="sans-serif" font-size="11" lengthAdjust="spacingAndGlyphs" textLength="114" x="961" y="375.6245">INVERSE_DIAGONAL</text><ellipse cx="952" cy="385.2188" fill="none" rx="3" ry="3" style="stroke: #038048; stroke-width: 1.0;"/><text fill="#000000" font-family="sans-serif" font-size="11" lengthAdjust="spacingAndGlyphs" textLength="28" x="961" y="388.4292">NULL</text><line style="stroke: #A80036; stroke-width: 1.5;" x1="942" x2="1080" y1="395.0234" y2="395.0234"/><!--MD5=[5a5a2ad444bc00c1498d76ebf80a1dc4]
class usantatecla.utils.Console--><rect codeLine="51" fill="#FEFECE" filter="url(#fia3513njdiqi)" height="214.4609" id="usantatecla.utils.Console" style="stroke: #A80036; stroke-width: 1.5;" width="166" x="228" y="541"/><ellipse cx="282.25" cy="557" fill="#ADD1B2" rx="11" ry="11" style="stroke: #A80036; stroke-width: 1.0;"/><path d="M284.5938,552.6719 C283.6563,552.2344 283.0625,552.0938 282.1875,552.0938 C279.5625,552.0938 277.5625,554.1719 277.5625,556.8906 L277.5625,558.0156 C277.5625,560.5938 279.6719,562.4844 282.5625,562.4844 C283.7813,562.4844 284.9375,562.1875 285.6875,561.6406 C286.2656,561.2344 286.5938,560.7813 286.5938,560.3906 C286.5938,559.9375 286.2031,559.5469 285.7344,559.5469 C285.5156,559.5469 285.3125,559.625 285.125,559.8125 C284.6719,560.2969 284.6719,560.2969 284.4844,560.3906 C284.0625,560.6563 283.375,560.7813 282.6094,560.7813 C280.5625,560.7813 279.2656,559.6875 279.2656,557.9844 L279.2656,556.8906 C279.2656,555.1094 280.5156,553.7969 282.25,553.7969 C282.8281,553.7969 283.4375,553.9531 283.9063,554.2031 C284.3906,554.4844 284.5625,554.7031 284.6563,555.1094 C284.7188,555.5156 284.75,555.6406 284.8906,555.7656 C285.0313,555.9063 285.2656,556.0156 285.4844,556.0156 C285.75,556.0156 286.0156,555.875 286.1875,555.6563 C286.2969,555.5 286.3281,555.3125 286.3281,554.8906 L286.3281,553.4688 C286.3281,553.0313 286.3125,552.9063 286.2188,552.75 C286.0625,552.4844 285.7813,552.3438 285.4844,552.3438 C285.1875,552.3438 284.9844,552.4375 284.7656,552.75 L284.5938,552.6719 Z "/><text fill="#000000" font-family="sans-serif" font-size="12" lengthAdjust="spacingAndGlyphs" textLength="49" x="302.75" y="561.1543">Console</text><line style="stroke: #A80036; stroke-width: 1.5;" x1="229" x2="393" y1="573" y2="573"/><ellipse cx="239" cy="584" fill="none" rx="3" ry="3" style="stroke: #038048; stroke-width: 1.0;"/><text fill="#000000" font-family="sans-serif" font-size="11" lengthAdjust="spacingAndGlyphs" text-decoration="underline" textLength="97" x="248" y="587.2104">console: Console</text><line style="stroke: #A80036; stroke-width: 1.5;" x1="229" x2="393" y1="593.8047" y2="593.8047"/><ellipse cx="239" cy="604.8047" fill="#84BE84" rx="3" ry="3" style="stroke: #038048; stroke-width: 1.0;"/><text fill="#000000" font-family="sans-serif" font-size="11" lengthAdjust="spacingAndGlyphs" text-decoration="underline" textLength="109" x="248" y="608.0151">instance(): Console</text><ellipse cx="239" cy="617.6094" fill="#84BE84" rx="3" ry="3" style="stroke: #038048; stroke-width: 1.0;"/><text fill="#000000" font-family="sans-serif" font-size="11" lengthAdjust="spacingAndGlyphs" textLength="140" x="248" y="620.8198">readString(String): String</text><ellipse cx="239" cy="630.4141" fill="#84BE84" rx="3" ry="3" style="stroke: #038048; stroke-width: 1.0;"/><text fill="#000000" font-family="sans-serif" font-size="11" lengthAdjust="spacingAndGlyphs" textLength="107" x="248" y="633.6245">readString(): String</text><ellipse cx="239" cy="643.2188" fill="#84BE84" rx="3" ry="3" style="stroke: #038048; stroke-width: 1.0;"/><text fill="#000000" font-family="sans-serif" font-size="11" lengthAdjust="spacingAndGlyphs" textLength="102" x="248" y="646.4292">readInt(String): int</text><ellipse cx="239" cy="656.0234" fill="#84BE84" rx="3" ry="3" style="stroke: #038048; stroke-width: 1.0;"/><text fill="#000000" font-family="sans-serif" font-size="11" lengthAdjust="spacingAndGlyphs" textLength="124" x="248" y="659.2339">readChar(String): char</text><ellipse cx="239" cy="668.8281" fill="#84BE84" rx="3" ry="3" style="stroke: #038048; stroke-width: 1.0;"/><text fill="#000000" font-family="sans-serif" font-size="11" lengthAdjust="spacingAndGlyphs" textLength="46" x="248" y="672.0386">writeln()</text><ellipse cx="239" cy="681.6328" fill="#84BE84" rx="3" ry="3" style="stroke: #038048; stroke-width: 1.0;"/><text fill="#000000" font-family="sans-serif" font-size="11" lengthAdjust="spacingAndGlyphs" textLength="69" x="248" y="684.8433">write(String)</text><ellipse cx="239" cy="694.4375" fill="#84BE84" rx="3" ry="3" style="stroke: #038048; stroke-width: 1.0;"/><text fill="#000000" font-family="sans-serif" font-size="11" lengthAdjust="spacingAndGlyphs" textLength="50" x="248" y="697.6479">write(int)</text><ellipse cx="239" cy="707.2422" fill="#84BE84" rx="3" ry="3" style="stroke: #038048; stroke-width: 1.0;"/><text fill="#000000" font-family="sans-serif" font-size="11" lengthAdjust="spacingAndGlyphs" textLength="79" x="248" y="710.4526">writeln(String)</text><ellipse cx="239" cy="720.0469" fill="#84BE84" rx="3" ry="3" style="stroke: #038048; stroke-width: 1.0;"/><text fill="#000000" font-family="sans-serif" font-size="11" lengthAdjust="spacingAndGlyphs" textLength="60" x="248" y="723.2573">writeln(int)</text><ellipse cx="239" cy="732.8516" fill="#84BE84" rx="3" ry="3" style="stroke: #038048; stroke-width: 1.0;"/><text fill="#000000" font-family="sans-serif" font-size="11" lengthAdjust="spacingAndGlyphs" textLength="60" x="248" y="736.062">write(char)</text><ellipse cx="239" cy="745.6563" fill="#84BE84" rx="3" ry="3" style="stroke: #038048; stroke-width: 1.0;"/><text fill="#000000" font-family="sans-serif" font-size="11" lengthAdjust="spacingAndGlyphs" textLength="95" x="248" y="748.8667">writeError(String)</text><!--MD5=[b0b725b3db639de93c4e5e8714f3aefc]
class usantatecla.utils.ClosedInterval--><rect codeLine="67" fill="#FEFECE" filter="url(#fia3513njdiqi)" height="112.0234" id="usantatecla.utils.ClosedInterval" style="stroke: #A80036; stroke-width: 1.5;" width="158" x="35" y="592"/><ellipse cx="68" cy="608" fill="#ADD1B2" rx="11" ry="11" style="stroke: #A80036; stroke-width: 1.0;"/><path d="M70.3438,603.6719 C69.4063,603.2344 68.8125,603.0938 67.9375,603.0938 C65.3125,603.0938 63.3125,605.1719 63.3125,607.8906 L63.3125,609.0156 C63.3125,611.5938 65.4219,613.4844 68.3125,613.4844 C69.5313,613.4844 70.6875,613.1875 71.4375,612.6406 C72.0156,612.2344 72.3438,611.7813 72.3438,611.3906 C72.3438,610.9375 71.9531,610.5469 71.4844,610.5469 C71.2656,610.5469 71.0625,610.625 70.875,610.8125 C70.4219,611.2969 70.4219,611.2969 70.2344,611.3906 C69.8125,611.6563 69.125,611.7813 68.3594,611.7813 C66.3125,611.7813 65.0156,610.6875 65.0156,608.9844 L65.0156,607.8906 C65.0156,606.1094 66.2656,604.7969 68,604.7969 C68.5781,604.7969 69.1875,604.9531 69.6563,605.2031 C70.1406,605.4844 70.3125,605.7031 70.4063,606.1094 C70.4688,606.5156 70.5,606.6406 70.6406,606.7656 C70.7813,606.9063 71.0156,607.0156 71.2344,607.0156 C71.5,607.0156 71.7656,606.875 71.9375,606.6563 C72.0469,606.5 72.0781,606.3125 72.0781,605.8906 L72.0781,604.4688 C72.0781,604.0313 72.0625,603.9063 71.9688,603.75 C71.8125,603.4844 71.5313,603.3438 71.2344,603.3438 C70.9375,603.3438 70.7344,603.4375 70.5156,603.75 L70.3438,603.6719 Z "/><text fill="#000000" font-family="sans-serif" font-size="12" lengthAdjust="spacingAndGlyphs" textLength="86" x="86" y="612.1543">ClosedInterval</text><line style="stroke: #A80036; stroke-width: 1.5;" x1="36" x2="192" y1="624" y2="624"/><rect fill="none" height="6" style="stroke: #C82930; stroke-width: 1.0;" width="6" x="43" y="632"/><text fill="#000000" font-family="sans-serif" font-size="11" lengthAdjust="spacingAndGlyphs" textLength="42" x="55" y="638.2104">min: int</text><rect fill="none" height="6" style="stroke: #C82930; stroke-width: 1.0;" width="6" x="43" y="644.8047"/><text fill="#000000" font-family="sans-serif" font-size="11" lengthAdjust="spacingAndGlyphs" textLength="46" x="55" y="651.0151">max: int</text><line style="stroke: #A80036; stroke-width: 1.5;" x1="36" x2="192" y1="657.6094" y2="657.6094"/><ellipse cx="46" cy="668.6094" fill="#84BE84" rx="3" ry="3" style="stroke: #038048; stroke-width: 1.0;"/><text fill="#000000" font-family="sans-serif" font-size="11" lengthAdjust="spacingAndGlyphs" textLength="125" x="55" y="671.8198">ClosedInterval(int, int)</text><ellipse cx="46" cy="681.4141" fill="#84BE84" rx="3" ry="3" style="stroke: #038048; stroke-width: 1.0;"/><text fill="#000000" font-family="sans-serif" font-size="11" lengthAdjust="spacingAndGlyphs" textLength="132" x="55" y="684.6245">isIncluded(int): boolean</text><ellipse cx="46" cy="694.2188" fill="#84BE84" rx="3" ry="3" style="stroke: #038048; stroke-width: 1.0;"/><text fill="#000000" font-family="sans-serif" font-size="11" lengthAdjust="spacingAndGlyphs" textLength="92" x="55" y="697.4292">toString(): String</text><!--MD5=[115031fed92a4467bd358dd9ee6729dd]
class usantatecla.utils.YesNoDialog--><rect codeLine="75" fill="#FEFECE" filter="url(#fia3513njdiqi)" height="163.2422" id="usantatecla.utils.YesNoDialog" style="stroke: #A80036; stroke-width: 1.5;" width="155" x="232.5" y="265.5"/><ellipse cx="268.65" cy="281.5" fill="#ADD1B2" rx="11" ry="11" style="stroke: #A80036; stroke-width: 1.0;"/><path d="M270.9938,277.1719 C270.0563,276.7344 269.4625,276.5938 268.5875,276.5938 C265.9625,276.5938 263.9625,278.6719 263.9625,281.3906 L263.9625,282.5156 C263.9625,285.0938 266.0719,286.9844 268.9625,286.9844 C270.1813,286.9844 271.3375,286.6875 272.0875,286.1406 C272.6656,285.7344 272.9938,285.2813 272.9938,284.8906 C272.9938,284.4375 272.6031,284.0469 272.1344,284.0469 C271.9156,284.0469 271.7125,284.125 271.525,284.3125 C271.0719,284.7969 271.0719,284.7969 270.8844,284.8906 C270.4625,285.1563 269.775,285.2813 269.0094,285.2813 C266.9625,285.2813 265.6656,284.1875 265.6656,282.4844 L265.6656,281.3906 C265.6656,279.6094 266.9156,278.2969 268.65,278.2969 C269.2281,278.2969 269.8375,278.4531 270.3063,278.7031 C270.7906,278.9844 270.9625,279.2031 271.0563,279.6094 C271.1188,280.0156 271.15,280.1406 271.2906,280.2656 C271.4313,280.4063 271.6656,280.5156 271.8844,280.5156 C272.15,280.5156 272.4156,280.375 272.5875,280.1563 C272.6969,280 272.7281,279.8125 272.7281,279.3906 L272.7281,277.9688 C272.7281,277.5313 272.7125,277.4063 272.6188,277.25 C272.4625,276.9844 272.1813,276.8438 271.8844,276.8438 C271.5875,276.8438 271.3844,276.9375 271.1656,277.25 L270.9938,277.1719 Z "/><text fill="#000000" font-family="sans-serif" font-size="12" lengthAdjust="spacingAndGlyphs" textLength="76" x="287.35" y="285.6543">YesNoDialog</text><line style="stroke: #A80036; stroke-width: 1.5;" x1="233.5" x2="386.5" y1="297.5" y2="297.5"/><rect fill="none" height="6" style="stroke: #C82930; stroke-width: 1.0;" width="6" x="240.5" y="305.5"/><text fill="#000000" font-family="sans-serif" font-size="11" lengthAdjust="spacingAndGlyphs" text-decoration="underline" textLength="103" x="252.5" y="311.7104">AFFIRMATIVE: char</text><rect fill="none" height="6" style="stroke: #C82930; stroke-width: 1.0;" width="6" x="240.5" y="318.3047"/><text fill="#000000" font-family="sans-serif" font-size="11" lengthAdjust="spacingAndGlyphs" text-decoration="underline" textLength="88" x="252.5" y="324.5151">NEGATIVE: char</text><rect fill="none" height="6" style="stroke: #C82930; stroke-width: 1.0;" width="6" x="240.5" y="331.1094"/><text fill="#000000" font-family="sans-serif" font-size="11" lengthAdjust="spacingAndGlyphs" text-decoration="underline" textLength="79" x="252.5" y="337.3198">SUFFIX: String</text><rect fill="none" height="6" style="stroke: #C82930; stroke-width: 1.0;" width="6" x="240.5" y="343.9141"/><text fill="#000000" font-family="sans-serif" font-size="11" lengthAdjust="spacingAndGlyphs" text-decoration="underline" textLength="96" x="252.5" y="350.1245">MESSAGE: String</text><rect fill="none" height="6" style="stroke: #C82930; stroke-width: 1.0;" width="6" x="240.5" y="356.7188"/><text fill="#000000" font-family="sans-serif" font-size="11" lengthAdjust="spacingAndGlyphs" textLength="72" x="252.5" y="362.9292">answer: char</text><line style="stroke: #A80036; stroke-width: 1.5;" x1="233.5" x2="386.5" y1="369.5234" y2="369.5234"/><ellipse cx="243.5" cy="380.5234" fill="#84BE84" rx="3" ry="3" style="stroke: #038048; stroke-width: 1.0;"/><text fill="#000000" font-family="sans-serif" font-size="11" lengthAdjust="spacingAndGlyphs" textLength="120" x="252.5" y="383.7339">read(String): boolean</text><rect fill="#F24D5C" height="6" style="stroke: #C82930; stroke-width: 1.0;" width="6" x="240.5" y="390.3281"/><text fill="#000000" font-family="sans-serif" font-size="11" lengthAdjust="spacingAndGlyphs" textLength="129" x="252.5" y="396.5386">isAfirmative(): boolean</text><rect fill="#F24D5C" height="6" style="stroke: #C82930; stroke-width: 1.0;" width="6" x="240.5" y="403.1328"/><text fill="#000000" font-family="sans-serif" font-size="11" lengthAdjust="spacingAndGlyphs" textLength="100" x="252.5" y="409.3433">getAnswer(): char</text><rect fill="#F24D5C" height="6" style="stroke: #C82930; stroke-width: 1.0;" width="6" x="240.5" y="415.9375"/><text fill="#000000" font-family="sans-serif" font-size="11" lengthAdjust="spacingAndGlyphs" textLength="122" x="252.5" y="422.1479">isNegative(): boolean</text><!--MD5=[3415149f6924cb72405a86d2dbe048ff]
class usantatecla.utils.LimitedIntDialog--><rect codeLine="87" fill="#FEFECE" filter="url(#fia3513njdiqi)" height="99.2188" id="usantatecla.utils.LimitedIntDialog" style="stroke: #A80036; stroke-width: 1.5;" width="165" x="32.5" y="297.5"/><ellipse cx="64.6" cy="313.5" fill="#ADD1B2" rx="11" ry="11" style="stroke: #A80036; stroke-width: 1.0;"/><path d="M66.9438,309.1719 C66.0063,308.7344 65.4125,308.5938 64.5375,308.5938 C61.9125,308.5938 59.9125,310.6719 59.9125,313.3906 L59.9125,314.5156 C59.9125,317.0938 62.0219,318.9844 64.9125,318.9844 C66.1313,318.9844 67.2875,318.6875 68.0375,318.1406 C68.6156,317.7344 68.9438,317.2813 68.9438,316.8906 C68.9438,316.4375 68.5531,316.0469 68.0844,316.0469 C67.8656,316.0469 67.6625,316.125 67.475,316.3125 C67.0219,316.7969 67.0219,316.7969 66.8344,316.8906 C66.4125,317.1563 65.725,317.2813 64.9594,317.2813 C62.9125,317.2813 61.6156,316.1875 61.6156,314.4844 L61.6156,313.3906 C61.6156,311.6094 62.8656,310.2969 64.6,310.2969 C65.1781,310.2969 65.7875,310.4531 66.2563,310.7031 C66.7406,310.9844 66.9125,311.2031 67.0063,311.6094 C67.0688,312.0156 67.1,312.1406 67.2406,312.2656 C67.3813,312.4063 67.6156,312.5156 67.8344,312.5156 C68.1,312.5156 68.3656,312.375 68.5375,312.1563 C68.6469,312 68.6781,311.8125 68.6781,311.3906 L68.6781,309.9688 C68.6781,309.5313 68.6625,309.4063 68.5688,309.25 C68.4125,308.9844 68.1313,308.8438 67.8344,308.8438 C67.5375,308.8438 67.3344,308.9375 67.1156,309.25 L66.9438,309.1719 Z "/><text fill="#000000" font-family="sans-serif" font-size="12" lengthAdjust="spacingAndGlyphs" textLength="95" x="82.4" y="317.6543">LimitedIntDialog</text><line style="stroke: #A80036; stroke-width: 1.5;" x1="33.5" x2="196.5" y1="329.5" y2="329.5"/><rect fill="none" height="6" style="stroke: #C82930; stroke-width: 1.0;" width="6" x="40.5" y="337.5"/><text fill="#000000" font-family="sans-serif" font-size="11" lengthAdjust="spacingAndGlyphs" textLength="125" x="52.5" y="343.7104">LIMITS: ClosedInterval</text><rect fill="none" height="6" style="stroke: #C82930; stroke-width: 1.0;" width="6" x="40.5" y="350.3047"/><text fill="#000000" font-family="sans-serif" font-size="11" lengthAdjust="spacingAndGlyphs" text-decoration="underline" textLength="139" x="52.5" y="356.5151">ERROR_MESSAGE: String</text><line style="stroke: #A80036; stroke-width: 1.5;" x1="33.5" x2="196.5" y1="363.1094" y2="363.1094"/><ellipse cx="43.5" cy="374.1094" fill="#84BE84" rx="3" ry="3" style="stroke: #038048; stroke-width: 1.0;"/><text fill="#000000" font-family="sans-serif" font-size="11" lengthAdjust="spacingAndGlyphs" textLength="135" x="52.5" y="377.3198">LimitedIntDialog(int, int)</text><ellipse cx="43.5" cy="386.9141" fill="#84BE84" rx="3" ry="3" style="stroke: #038048; stroke-width: 1.0;"/><text fill="#000000" font-family="sans-serif" font-size="11" lengthAdjust="spacingAndGlyphs" textLength="88" x="52.5" y="390.1245">read(String): int</text><!--MD5=[ee4f8f5c2b5eaa5df2ba8c0614cd4e83]
class BufferedReader--><rect codeLine="104" fill="#FEFECE" filter="url(#fia3513njdiqi)" height="48" id="BufferedReader" style="stroke: #A80036; stroke-width: 1.5;" width="168" x="227" y="834"/><ellipse cx="242" cy="850" fill="#ADD1B2" rx="11" ry="11" style="stroke: #A80036; stroke-width: 1.0;"/><path d="M244.3438,845.6719 C243.4063,845.2344 242.8125,845.0938 241.9375,845.0938 C239.3125,845.0938 237.3125,847.1719 237.3125,849.8906 L237.3125,851.0156 C237.3125,853.5938 239.4219,855.4844 242.3125,855.4844 C243.5313,855.4844 244.6875,855.1875 245.4375,854.6406 C246.0156,854.2344 246.3438,853.7813 246.3438,853.3906 C246.3438,852.9375 245.9531,852.5469 245.4844,852.5469 C245.2656,852.5469 245.0625,852.625 244.875,852.8125 C244.4219,853.2969 244.4219,853.2969 244.2344,853.3906 C243.8125,853.6563 243.125,853.7813 242.3594,853.7813 C240.3125,853.7813 239.0156,852.6875 239.0156,850.9844 L239.0156,849.8906 C239.0156,848.1094 240.2656,846.7969 242,846.7969 C242.5781,846.7969 243.1875,846.9531 243.6563,847.2031 C244.1406,847.4844 244.3125,847.7031 244.4063,848.1094 C244.4688,848.5156 244.5,848.6406 244.6406,848.7656 C244.7813,848.9063 245.0156,849.0156 245.2344,849.0156 C245.5,849.0156 245.7656,848.875 245.9375,848.6563 C246.0469,848.5 246.0781,848.3125 246.0781,847.8906 L246.0781,846.4688 C246.0781,846.0313 246.0625,845.9063 245.9688,845.75 C245.8125,845.4844 245.5313,845.3438 245.2344,845.3438 C244.9375,845.3438 244.7344,845.4375 244.5156,845.75 L244.3438,845.6719 Z "/><text fill="#000000" font-family="sans-serif" font-size="12" lengthAdjust="spacingAndGlyphs" textLength="136" x="256" y="854.1543">java.io.BufferedReader</text><line style="stroke: #A80036; stroke-width: 1.5;" x1="228" x2="394" y1="866" y2="866"/><line style="stroke: #A80036; stroke-width: 1.5;" x1="228" x2="394" y1="874" y2="874"/><!--MD5=[ca73a4fbcee54775298381742925c483]
reverse link usantatecla.utils.Coordinate to usantatecla.utils.ConcreteCoordinate--><path codeLine="96" d="M716.24,166.542 C699.179,181.962 681.338,198.387 665,214 C659.187,219.555 653.269,225.285 647.322,231.101 " fill="none" id="usantatecla.utils.Coordinate-backto-usantatecla.utils.ConcreteCoordinate" style="stroke: #A80036; stroke-width: 1.0;"/><polygon fill="none" points="711.744,161.171,731.298,153.006,721.104,171.583,711.744,161.171" style="stroke: #A80036; stroke-width: 1.0;"/><!--MD5=[cddedadb31d71f7b6d8b58208518f687]
reverse link usantatecla.utils.Coordinate to usantatecla.utils.NullCoordinate--><path codeLine="97" d="M794,173.338 C794,200.357 794,231.039 794,258.968 " fill="none" id="usantatecla.utils.Coordinate-backto-usantatecla.utils.NullCoordinate" style="stroke: #A80036; stroke-width: 1.0;"/><polygon fill="none" points="787,173.039,794,153.039,801,173.039,787,173.039" style="stroke: #A80036; stroke-width: 1.0;"/><!--MD5=[a8ffb3790df5680269bc6d65de93cdf4]
link usantatecla.utils.Coordinate to usantatecla.utils.Direction--><path codeLine="98" d="M862.294,153.011 C883.187,171.356 905.511,192.598 924,214 C943.171,236.192 961.495,262.855 976.339,286.39 " fill="none" id="usantatecla.utils.Coordinate-to-usantatecla.utils.Direction" style="stroke: #A80036; stroke-width: 1.0; stroke-dasharray: 7.0,7.0;"/><polygon fill="#A80036" points="979.07,290.746,977.6796,280.9958,976.4146,286.5094,970.901,285.2444,979.07,290.746" style="stroke: #A80036; stroke-width: 1.0;"/><!--MD5=[0002b1cbccdb92ae6e9caff73706633c]
link usantatecla.utils.ConcreteCoordinate to usantatecla.utils.Console--><path codeLine="99" d="M436.098,480.016 C421.934,498.924 407.485,518.209 393.677,536.641 " fill="none" id="usantatecla.utils.ConcreteCoordinate-to-usantatecla.utils.Console" style="stroke: #A80036; stroke-width: 1.0; stroke-dasharray: 7.0,7.0;"/><polygon fill="#A80036" points="390.555,540.808,399.152,536.0026,393.5525,536.8061,392.749,531.2066,390.555,540.808" style="stroke: #A80036; stroke-width: 1.0;"/><!--MD5=[9ea9fdac8877b2914dbfaebea76eb772]
link usantatecla.utils.LimitedIntDialog to usantatecla.utils.Console--><path codeLine="100" d="M146.927,396.705 C171.724,434.534 207.086,488.478 238.635,536.607 " fill="none" id="usantatecla.utils.LimitedIntDialog-to-usantatecla.utils.Console" style="stroke: #A80036; stroke-width: 1.0; stroke-dasharray: 7.0,7.0;"/><polygon fill="#A80036" points="241.481,540.948,239.8931,531.228,238.7402,536.7661,233.2021,535.6133,241.481,540.948" style="stroke: #A80036; stroke-width: 1.0;"/><!--MD5=[bef9209ee563bd0cab945b38e8120dbd]
link usantatecla.utils.YesNoDialog to usantatecla.utils.Console--><path codeLine="101" d="M310.269,428.52 C310.379,461.409 310.508,500.004 310.627,535.529 " fill="none" id="usantatecla.utils.YesNoDialog-to-usantatecla.utils.Console" style="stroke: #A80036; stroke-width: 1.0; stroke-dasharray: 7.0,7.0;"/><polygon fill="#A80036" points="310.645,540.747,314.6141,531.7333,310.6279,535.747,306.6142,531.7608,310.645,540.747" style="stroke: #A80036; stroke-width: 1.0;"/><!--MD5=[ea5cf5ece861ff4fd45a5d576f5bc955]
link usantatecla.utils.LimitedIntDialog to usantatecla.utils.ClosedInterval--><path codeLine="102" d="M114.837,396.705 C114.664,448.565 114.389,530.713 114.202,586.642 " fill="none" id="usantatecla.utils.LimitedIntDialog-to-usantatecla.utils.ClosedInterval" style="stroke: #A80036; stroke-width: 1.0; stroke-dasharray: 7.0,7.0;"/><polygon fill="#A80036" points="114.184,591.97,118.2123,582.9826,114.1997,586.97,110.2123,582.9575,114.184,591.97" style="stroke: #A80036; stroke-width: 1.0;"/><!--MD5=[14426ff67e875e6661b88179367ed759]
link usantatecla.utils.Console to BufferedReader--><path codeLine="107" d="M311,767.133 C311,767.133 311,805.4951 311,820.4695 " fill="none" id="usantatecla.utils.Console-BufferedReader" style="stroke: #A80036; stroke-width: 1.0;"/><polygon fill="#A80036" points="311,833.7358,315,824.7358,311,828.7358,307,824.7358,311,833.7358" style="stroke: #A80036; stroke-width: 1.0;"/><line style="stroke: #A80036; stroke-width: 1.0;" x1="311" x2="311" y1="828.7358" y2="820.7358"/><polygon fill="#A80036" points="311,755.133,307,761.133,311,767.133,315,761.133,311,755.133" style="stroke: #A80036; stroke-width: 1.0;"/><text fill="#000000" font-family="sans-serif" font-size="13" lengthAdjust="spacingAndGlyphs" textLength="101" x="312" y="800.0669">bufferedReader</text><!--MD5=[f14c5d130b2a6c6ed5bc218a1797fc6a]
@startuml
namespace usantatecla.utils {

interface Coordinate {
	~ isNull(): boolean 
	~ getDirection(Coordinate): Direction 
	~ inHorizontal(Coordinate): boolean 
	~ inVertical(Coordinate): boolean 
	~ inMainDiagonal(): boolean 
}

class ConcreteCoordinate {
	~ row: int 
	~ column: int 
	~ ROW: {static} String
	~ COLUMN: {static} String
	~ ConcreteCoordinate()
	~ ConcreteCoordinate(int, int)
	+ isNull(): boolean 
	+ getDirection(Coordinate): Direction 
	+ inHorizontal(Coordinate): boolean 
	+ inVertical(Coordinate): boolean 
	+ inMainDiagonal(): boolean 
	~ read(String)
	+ getRow(): int 
	+ getColumn(): int
	+ hashCode(): int
	+ equals(Object): boolean 
	+ toString(): String 
}
class NullCoordinate {
	+ instance: {static} NullCoordinate 
	+ {static} instance(): Coordinate 
	+ isNull(): boolean 
	+ getDirection(Coordinate): Direction 
	+ inHorizontal(Coordinate): boolean 
	+ inVertical(Coordinate): boolean
	+ inMainDiagonal(): boolean
	+ hashCode(): int 
	+ equals(Object): boolean 
	+ toString(): String 
}

enum Direction {
	+ VERTICAL
	+ HORIZONTAL
	+ MAIN_DIAGONAL
	+ INVERSE_DIAGONAL
	+ NULL
}

class Console {
	+ console: {static} Console 
	+ instance(): {static} Console 
	+ readString(String): String 
	+ readString(): String 
	+ readInt(String): int 
	+ readChar(String): char 
	+ writeln()
	+ write(String)
	+ write(int)
	+ writeln(String)
	+ writeln(int)
	+ write(char)
	+ writeError(String)
}

class ClosedInterval {
	- min: int 
	- max: int 
	+ ClosedInterval(int, int)
	+ isIncluded(int): boolean 
	+ toString(): String 
}

class YesNoDialog {
	- AFFIRMATIVE: {static} char 
	- NEGATIVE: {static} char 
	- SUFFIX: {static} String 
	- MESSAGE: {static} String
	- answer: char 
	+ read(String): boolean 
	- isAfirmative(): boolean 
	- getAnswer(): char 
	- isNegative(): boolean 
}

class LimitedIntDialog {
	- LIMITS: ClosedInterval 
	- ERROR_MESSAGE: {static} String 
	+ LimitedIntDialog(int, int)
	+ read(String): int 
}



Coordinate <|-down- ConcreteCoordinate
Coordinate <|-down- NullCoordinate
Coordinate .down.> Direction
ConcreteCoordinate .down.> Console
LimitedIntDialog .down.> Console
YesNoDialog .down.> Console
LimitedIntDialog .down.> ClosedInterval
}
class BufferedReader as "java.io.BufferedReader"{
	
}
usantatecla.utils.Console *-down-> BufferedReader : bufferedReader
@enduml

PlantUML version 1.2020.20beta4(Unknown compile time)
(GPL source distribution)
Java Runtime: Java(TM) SE Runtime Environment
JVM: Java HotSpot(TM) 64-Bit Server VM
Default Encoding: UTF-8
Language: en
Country: US
--></g></svg>