<?xml version="1.0" encoding="UTF-8" standalone="no"?><svg xmlns="http://www.w3.org/2000/svg" xmlns:xlink="http://www.w3.org/1999/xlink" contentScriptType="application/ecmascript" contentStyleType="text/css" height="617px" preserveAspectRatio="none" style="width:939px;height:617px;" version="1.1" viewBox="0 0 939 617" width="939px" zoomAndPan="magnify"><defs><filter height="300%" id="f11lyw4ug7056v" width="300%" x="-1" y="-1"><feGaussianBlur result="blurOut" stdDeviation="2.0"/><feColorMatrix in="blurOut" result="blurOut2" type="matrix" values="0 0 0 0 0 0 0 0 0 0 0 0 0 0 0 0 0 0 .4 0"/><feOffset dx="4.0" dy="4.0" in="blurOut2" result="blurOut3"/><feBlend in="SourceGraphic" in2="blurOut3" mode="normal"/></filter></defs><g><!--MD5=[908cbfa8709a8ec6ee3beb0409fea32c]
cluster usantatecla.utils--><polygon fill="#FFFFFF" filter="url(#f11lyw4ug7056v)" points="16,6,162,6,169,28.2969,922,28.2969,922,610,16,610,16,6" style="stroke: #000000; stroke-width: 1.5;"/><line style="stroke: #000000; stroke-width: 1.5;" x1="16" x2="169" y1="28.2969" y2="28.2969"/><text fill="#000000" font-family="sans-serif" font-size="14" font-weight="bold" lengthAdjust="spacingAndGlyphs" textLength="140" x="20" y="20.9951">usantatecla.utils</text><!--MD5=[5f018ac69b30f51f68cd34c581e50301]
class usantatecla.utils.Coordinate--><rect codeLine="3" fill="#FEFECE" filter="url(#f11lyw4ug7056v)" height="112.0234" id="usantatecla.utils.Coordinate" style="stroke: #A80036; stroke-width: 1.5;" width="224" x="48" y="98.5"/><ellipse cx="123.25" cy="114.5" fill="#B4A7E5" rx="11" ry="11" style="stroke: #A80036; stroke-width: 1.0;"/><path d="M124.2031,111.2813 L125.9219,111.2813 C126.3125,111.2813 126.5,111.25 126.625,111.1719 C126.8906,111.0156 127.0313,110.7344 127.0313,110.4375 C127.0313,110.1719 126.9219,109.9063 126.6875,109.7344 C126.5156,109.625 126.375,109.5938 125.9219,109.5938 L120.7813,109.5938 C120.3438,109.5938 120.2188,109.6094 120.0625,109.7031 C119.8125,109.8594 119.6563,110.1563 119.6563,110.4375 C119.6563,110.7188 119.7969,110.9688 120.0156,111.1406 C120.1719,111.25 120.3594,111.2813 120.7813,111.2813 L122.5,111.2813 L122.5,117.7969 L120.7813,117.7969 C120.3438,117.7969 120.2188,117.8125 120.0625,117.9219 C119.8125,118.0781 119.6563,118.3594 119.6563,118.6563 C119.6563,118.9063 119.7969,119.1719 120.0156,119.3281 C120.1719,119.4531 120.375,119.5 120.7813,119.5 L125.9219,119.5 C126.6719,119.5 127.0313,119.2188 127.0313,118.6563 C127.0313,118.375 126.9219,118.125 126.6875,117.9531 C126.5156,117.8281 126.375,117.7969 125.9219,117.7969 L124.2031,117.7969 L124.2031,111.2813 Z "/><text fill="#000000" font-family="sans-serif" font-size="12" font-style="italic" lengthAdjust="spacingAndGlyphs" textLength="65" x="143.75" y="118.6543">Coordinate</text><line style="stroke: #A80036; stroke-width: 1.5;" x1="49" x2="271" y1="130.5" y2="130.5"/><line style="stroke: #A80036; stroke-width: 1.5;" x1="49" x2="271" y1="138.5" y2="138.5"/><polygon fill="#4177AF" points="59,145.5,55,151.5,63,151.5" style="stroke: #1963A0; stroke-width: 1.0;"/><text fill="#000000" font-family="sans-serif" font-size="11" lengthAdjust="spacingAndGlyphs" textLength="91" x="68" y="152.7104">isNull(): boolean</text><polygon fill="#4177AF" points="59,158.3047,55,164.3047,63,164.3047" style="stroke: #1963A0; stroke-width: 1.0;"/><text fill="#000000" font-family="sans-serif" font-size="11" lengthAdjust="spacingAndGlyphs" textLength="198" x="68" y="165.5151">getDirection(Coordinate): Direction</text><polygon fill="#4177AF" points="59,171.1094,55,177.1094,63,177.1094" style="stroke: #1963A0; stroke-width: 1.0;"/><text fill="#000000" font-family="sans-serif" font-size="11" lengthAdjust="spacingAndGlyphs" textLength="190" x="68" y="178.3198">inHorizontal(Coordinate): boolean</text><polygon fill="#4177AF" points="59,183.9141,55,189.9141,63,189.9141" style="stroke: #1963A0; stroke-width: 1.0;"/><text fill="#000000" font-family="sans-serif" font-size="11" lengthAdjust="spacingAndGlyphs" textLength="176" x="68" y="191.1245">inVertical(Coordinate): boolean</text><polygon fill="#4177AF" points="59,196.7188,55,202.7188,63,202.7188" style="stroke: #1963A0; stroke-width: 1.0;"/><text fill="#000000" font-family="sans-serif" font-size="11" lengthAdjust="spacingAndGlyphs" textLength="147" x="68" y="203.9292">inMainDiagonal(): boolean</text><!--MD5=[c2c7894405d0c7b92ed3110a385504d5]
class usantatecla.utils.ConcreteCoordinate--><rect codeLine="11" fill="#FEFECE" filter="url(#f11lyw4ug7056v)" height="265.6797" id="usantatecla.utils.ConcreteCoordinate" style="stroke: #A80036; stroke-width: 1.5;" width="224" x="32" y="328"/><ellipse cx="79.25" cy="344" fill="#ADD1B2" rx="11" ry="11" style="stroke: #A80036; stroke-width: 1.0;"/><path d="M81.5938,339.6719 C80.6563,339.2344 80.0625,339.0938 79.1875,339.0938 C76.5625,339.0938 74.5625,341.1719 74.5625,343.8906 L74.5625,345.0156 C74.5625,347.5938 76.6719,349.4844 79.5625,349.4844 C80.7813,349.4844 81.9375,349.1875 82.6875,348.6406 C83.2656,348.2344 83.5938,347.7813 83.5938,347.3906 C83.5938,346.9375 83.2031,346.5469 82.7344,346.5469 C82.5156,346.5469 82.3125,346.625 82.125,346.8125 C81.6719,347.2969 81.6719,347.2969 81.4844,347.3906 C81.0625,347.6563 80.375,347.7813 79.6094,347.7813 C77.5625,347.7813 76.2656,346.6875 76.2656,344.9844 L76.2656,343.8906 C76.2656,342.1094 77.5156,340.7969 79.25,340.7969 C79.8281,340.7969 80.4375,340.9531 80.9063,341.2031 C81.3906,341.4844 81.5625,341.7031 81.6563,342.1094 C81.7188,342.5156 81.75,342.6406 81.8906,342.7656 C82.0313,342.9063 82.2656,343.0156 82.4844,343.0156 C82.75,343.0156 83.0156,342.875 83.1875,342.6563 C83.2969,342.5 83.3281,342.3125 83.3281,341.8906 L83.3281,340.4688 C83.3281,340.0313 83.3125,339.9063 83.2188,339.75 C83.0625,339.4844 82.7813,339.3438 82.4844,339.3438 C82.1875,339.3438 81.9844,339.4375 81.7656,339.75 L81.5938,339.6719 Z "/><text fill="#000000" font-family="sans-serif" font-size="12" lengthAdjust="spacingAndGlyphs" textLength="121" x="99.75" y="348.1543">ConcreteCoordinate</text><line style="stroke: #A80036; stroke-width: 1.5;" x1="33" x2="255" y1="360" y2="360"/><polygon fill="none" points="43,367,39,373,47,373" style="stroke: #1963A0; stroke-width: 1.0;"/><text fill="#000000" font-family="sans-serif" font-size="11" lengthAdjust="spacingAndGlyphs" textLength="41" x="52" y="374.2104">row: int</text><polygon fill="none" points="43,379.8047,39,385.8047,47,385.8047" style="stroke: #1963A0; stroke-width: 1.0;"/><text fill="#000000" font-family="sans-serif" font-size="11" lengthAdjust="spacingAndGlyphs" textLength="62" x="52" y="387.0151">column: int</text><polygon fill="none" points="43,392.6094,39,398.6094,47,398.6094" style="stroke: #1963A0; stroke-width: 1.0;"/><text fill="#000000" font-family="sans-serif" font-size="11" lengthAdjust="spacingAndGlyphs" text-decoration="underline" textLength="67" x="52" y="399.8198">ROW: String</text><polygon fill="none" points="43,405.4141,39,411.4141,47,411.4141" style="stroke: #1963A0; stroke-width: 1.0;"/><text fill="#000000" font-family="sans-serif" font-size="11" lengthAdjust="spacingAndGlyphs" text-decoration="underline" textLength="88" x="52" y="412.6245">COLUMN: String</text><line style="stroke: #A80036; stroke-width: 1.5;" x1="33" x2="255" y1="419.2188" y2="419.2188"/><polygon fill="#4177AF" points="43,426.2188,39,432.2188,47,432.2188" style="stroke: #1963A0; stroke-width: 1.0;"/><text fill="#000000" font-family="sans-serif" font-size="11" lengthAdjust="spacingAndGlyphs" textLength="122" x="52" y="433.4292">ConcreteCoordinate()</text><polygon fill="#4177AF" points="43,439.0234,39,445.0234,47,445.0234" style="stroke: #1963A0; stroke-width: 1.0;"/><text fill="#000000" font-family="sans-serif" font-size="11" lengthAdjust="spacingAndGlyphs" textLength="157" x="52" y="446.2339">ConcreteCoordinate(int, int)</text><ellipse cx="43" cy="455.8281" fill="#84BE84" rx="3" ry="3" style="stroke: #038048; stroke-width: 1.0;"/><text fill="#000000" font-family="sans-serif" font-size="11" lengthAdjust="spacingAndGlyphs" textLength="91" x="52" y="459.0386">isNull(): boolean</text><ellipse cx="43" cy="468.6328" fill="#84BE84" rx="3" ry="3" style="stroke: #038048; stroke-width: 1.0;"/><text fill="#000000" font-family="sans-serif" font-size="11" lengthAdjust="spacingAndGlyphs" textLength="198" x="52" y="471.8433">getDirection(Coordinate): Direction</text><ellipse cx="43" cy="481.4375" fill="#84BE84" rx="3" ry="3" style="stroke: #038048; stroke-width: 1.0;"/><text fill="#000000" font-family="sans-serif" font-size="11" lengthAdjust="spacingAndGlyphs" textLength="190" x="52" y="484.6479">inHorizontal(Coordinate): boolean</text><ellipse cx="43" cy="494.2422" fill="#84BE84" rx="3" ry="3" style="stroke: #038048; stroke-width: 1.0;"/><text fill="#000000" font-family="sans-serif" font-size="11" lengthAdjust="spacingAndGlyphs" textLength="176" x="52" y="497.4526">inVertical(Coordinate): boolean</text><ellipse cx="43" cy="507.0469" fill="#84BE84" rx="3" ry="3" style="stroke: #038048; stroke-width: 1.0;"/><text fill="#000000" font-family="sans-serif" font-size="11" lengthAdjust="spacingAndGlyphs" textLength="147" x="52" y="510.2573">inMainDiagonal(): boolean</text><polygon fill="#4177AF" points="43,515.8516,39,521.8516,47,521.8516" style="stroke: #1963A0; stroke-width: 1.0;"/><text fill="#000000" font-family="sans-serif" font-size="11" lengthAdjust="spacingAndGlyphs" textLength="67" x="52" y="523.062">read(String)</text><ellipse cx="43" cy="532.6563" fill="#84BE84" rx="3" ry="3" style="stroke: #038048; stroke-width: 1.0;"/><text fill="#000000" font-family="sans-serif" font-size="11" lengthAdjust="spacingAndGlyphs" textLength="71" x="52" y="535.8667">getRow(): int</text><ellipse cx="43" cy="545.4609" fill="#84BE84" rx="3" ry="3" style="stroke: #038048; stroke-width: 1.0;"/><text fill="#000000" font-family="sans-serif" font-size="11" lengthAdjust="spacingAndGlyphs" textLength="91" x="52" y="548.6714">getColumn(): int</text><ellipse cx="43" cy="558.2656" fill="#84BE84" rx="3" ry="3" style="stroke: #038048; stroke-width: 1.0;"/><text fill="#000000" font-family="sans-serif" font-size="11" lengthAdjust="spacingAndGlyphs" textLength="86" x="52" y="561.4761">hashCode(): int</text><ellipse cx="43" cy="571.0703" fill="#84BE84" rx="3" ry="3" style="stroke: #038048; stroke-width: 1.0;"/><text fill="#000000" font-family="sans-serif" font-size="11" lengthAdjust="spacingAndGlyphs" textLength="136" x="52" y="574.2808">equals(Object): boolean</text><ellipse cx="43" cy="583.875" fill="#84BE84" rx="3" ry="3" style="stroke: #038048; stroke-width: 1.0;"/><text fill="#000000" font-family="sans-serif" font-size="11" lengthAdjust="spacingAndGlyphs" textLength="92" x="52" y="587.0854">toString(): String</text><!--MD5=[d5f17ae0f97d6def496fbead5961f960]
class usantatecla.utils.NullCoordinate--><rect codeLine="30" fill="#FEFECE" filter="url(#f11lyw4ug7056v)" height="176.0469" id="usantatecla.utils.NullCoordinate" style="stroke: #A80036; stroke-width: 1.5;" width="224" x="291" y="373"/><ellipse cx="355.25" cy="389" fill="#ADD1B2" rx="11" ry="11" style="stroke: #A80036; stroke-width: 1.0;"/><path d="M357.5938,384.6719 C356.6563,384.2344 356.0625,384.0938 355.1875,384.0938 C352.5625,384.0938 350.5625,386.1719 350.5625,388.8906 L350.5625,390.0156 C350.5625,392.5938 352.6719,394.4844 355.5625,394.4844 C356.7813,394.4844 357.9375,394.1875 358.6875,393.6406 C359.2656,393.2344 359.5938,392.7813 359.5938,392.3906 C359.5938,391.9375 359.2031,391.5469 358.7344,391.5469 C358.5156,391.5469 358.3125,391.625 358.125,391.8125 C357.6719,392.2969 357.6719,392.2969 357.4844,392.3906 C357.0625,392.6563 356.375,392.7813 355.6094,392.7813 C353.5625,392.7813 352.2656,391.6875 352.2656,389.9844 L352.2656,388.8906 C352.2656,387.1094 353.5156,385.7969 355.25,385.7969 C355.8281,385.7969 356.4375,385.9531 356.9063,386.2031 C357.3906,386.4844 357.5625,386.7031 357.6563,387.1094 C357.7188,387.5156 357.75,387.6406 357.8906,387.7656 C358.0313,387.9063 358.2656,388.0156 358.4844,388.0156 C358.75,388.0156 359.0156,387.875 359.1875,387.6563 C359.2969,387.5 359.3281,387.3125 359.3281,386.8906 L359.3281,385.4688 C359.3281,385.0313 359.3125,384.9063 359.2188,384.75 C359.0625,384.4844 358.7813,384.3438 358.4844,384.3438 C358.1875,384.3438 357.9844,384.4375 357.7656,384.75 L357.5938,384.6719 Z "/><text fill="#000000" font-family="sans-serif" font-size="12" lengthAdjust="spacingAndGlyphs" textLength="87" x="375.75" y="393.1543">NullCoordinate</text><line style="stroke: #A80036; stroke-width: 1.5;" x1="292" x2="514" y1="405" y2="405"/><ellipse cx="302" cy="416" fill="none" rx="3" ry="3" style="stroke: #038048; stroke-width: 1.0;"/><text fill="#000000" font-family="sans-serif" font-size="11" lengthAdjust="spacingAndGlyphs" text-decoration="underline" textLength="138" x="311" y="419.2104">instance: NullCoordinate</text><line style="stroke: #A80036; stroke-width: 1.5;" x1="292" x2="514" y1="425.8047" y2="425.8047"/><ellipse cx="302" cy="436.8047" fill="#84BE84" rx="3" ry="3" style="stroke: #038048; stroke-width: 1.0;"/><text fill="#000000" font-family="sans-serif" font-size="11" lengthAdjust="spacingAndGlyphs" text-decoration="underline" textLength="125" x="311" y="440.0151">instance(): Coordinate</text><ellipse cx="302" cy="449.6094" fill="#84BE84" rx="3" ry="3" style="stroke: #038048; stroke-width: 1.0;"/><text fill="#000000" font-family="sans-serif" font-size="11" lengthAdjust="spacingAndGlyphs" textLength="91" x="311" y="452.8198">isNull(): boolean</text><ellipse cx="302" cy="462.4141" fill="#84BE84" rx="3" ry="3" style="stroke: #038048; stroke-width: 1.0;"/><text fill="#000000" font-family="sans-serif" font-size="11" lengthAdjust="spacingAndGlyphs" textLength="198" x="311" y="465.6245">getDirection(Coordinate): Direction</text><ellipse cx="302" cy="475.2188" fill="#84BE84" rx="3" ry="3" style="stroke: #038048; stroke-width: 1.0;"/><text fill="#000000" font-family="sans-serif" font-size="11" lengthAdjust="spacingAndGlyphs" textLength="190" x="311" y="478.4292">inHorizontal(Coordinate): boolean</text><ellipse cx="302" cy="488.0234" fill="#84BE84" rx="3" ry="3" style="stroke: #038048; stroke-width: 1.0;"/><text fill="#000000" font-family="sans-serif" font-size="11" lengthAdjust="spacingAndGlyphs" textLength="176" x="311" y="491.2339">inVertical(Coordinate): boolean</text><ellipse cx="302" cy="500.8281" fill="#84BE84" rx="3" ry="3" style="stroke: #038048; stroke-width: 1.0;"/><text fill="#000000" font-family="sans-serif" font-size="11" lengthAdjust="spacingAndGlyphs" textLength="147" x="311" y="504.0386">inMainDiagonal(): boolean</text><ellipse cx="302" cy="513.6328" fill="#84BE84" rx="3" ry="3" style="stroke: #038048; stroke-width: 1.0;"/><text fill="#000000" font-family="sans-serif" font-size="11" lengthAdjust="spacingAndGlyphs" textLength="86" x="311" y="516.8433">hashCode(): int</text><ellipse cx="302" cy="526.4375" fill="#84BE84" rx="3" ry="3" style="stroke: #038048; stroke-width: 1.0;"/><text fill="#000000" font-family="sans-serif" font-size="11" lengthAdjust="spacingAndGlyphs" textLength="136" x="311" y="529.6479">equals(Object): boolean</text><ellipse cx="302" cy="539.2422" fill="#84BE84" rx="3" ry="3" style="stroke: #038048; stroke-width: 1.0;"/><text fill="#000000" font-family="sans-serif" font-size="11" lengthAdjust="spacingAndGlyphs" textLength="92" x="311" y="542.4526">toString(): String</text><!--MD5=[fa47e12b1ade8e81943ba4775d45235c]
class usantatecla.utils.Direction--><rect codeLine="43" fill="#FEFECE" filter="url(#f11lyw4ug7056v)" height="112.0234" id="usantatecla.utils.Direction" style="stroke: #A80036; stroke-width: 1.5;" width="140" x="324" y="98.5"/><ellipse cx="363.3" cy="114.5" fill="#EB937F" rx="11" ry="11" style="stroke: #A80036; stroke-width: 1.0;"/><path d="M362.0969,115.375 L363.55,115.375 L363.55,115.4844 C363.55,115.8906 363.5813,116.0469 363.6594,116.2031 C363.8156,116.4531 364.0969,116.6094 364.3938,116.6094 C364.6438,116.6094 364.9094,116.4688 365.0656,116.25 C365.1906,116.0938 365.2219,115.9375 365.2219,115.4844 L365.2219,113.5625 C365.2219,113.4063 365.2219,113.3594 365.2063,113.2031 C365.1438,112.7344 364.8313,112.4219 364.3781,112.4219 C364.1281,112.4219 363.8625,112.5625 363.6906,112.7813 C363.5813,112.9531 363.55,113.1094 363.55,113.5625 L363.55,113.6875 L362.0969,113.6875 L362.0969,111.2813 L366.0813,111.2813 L366.0813,112.1406 C366.0813,112.5469 366.1125,112.7188 366.1906,112.875 C366.3625,113.125 366.6438,113.2813 366.925,113.2813 C367.1906,113.2813 367.4563,113.1406 367.6281,112.9219 C367.7375,112.75 367.7688,112.6094 367.7688,112.1406 L367.7688,109.5938 L360.1438,109.5938 C359.7063,109.5938 359.5813,109.6094 359.425,109.7031 C359.175,109.8594 359.0188,110.1563 359.0188,110.4375 C359.0188,110.7188 359.1594,110.9688 359.3781,111.1406 C359.5344,111.25 359.7219,111.2813 360.1438,111.2813 L360.3938,111.2813 L360.3938,117.7969 L360.1438,117.7969 C359.7375,117.7969 359.5813,117.8125 359.425,117.9219 C359.175,118.0938 359.0188,118.3594 359.0188,118.6563 C359.0188,118.9219 359.1594,119.1719 359.3781,119.3281 C359.5188,119.4531 359.7531,119.5 360.1438,119.5 L368.1438,119.5 L368.1438,116.9219 C368.1438,116.4844 368.1125,116.3438 368.0344,116.1875 C367.8625,115.9375 367.5813,115.7813 367.3,115.7813 C367.0344,115.7813 366.7688,115.8906 366.5969,116.1406 C366.4875,116.2969 366.4563,116.4375 366.4563,116.9219 L366.4563,117.7969 L362.0969,117.7969 L362.0969,115.375 Z "/><text fill="#000000" font-family="sans-serif" font-size="12" lengthAdjust="spacingAndGlyphs" textLength="54" x="382.7" y="118.6543">Direction</text><line style="stroke: #A80036; stroke-width: 1.5;" x1="325" x2="463" y1="130.5" y2="130.5"/><ellipse cx="335" cy="141.5" fill="none" rx="3" ry="3" style="stroke: #038048; stroke-width: 1.0;"/><text fill="#000000" font-family="sans-serif" font-size="11" lengthAdjust="spacingAndGlyphs" textLength="54" x="344" y="144.7104">VERTICAL</text><ellipse cx="335" cy="154.3047" fill="none" rx="3" ry="3" style="stroke: #038048; stroke-width: 1.0;"/><text fill="#000000" font-family="sans-serif" font-size="11" lengthAdjust="spacingAndGlyphs" textLength="73" x="344" y="157.5151">HORIZONTAL</text><ellipse cx="335" cy="167.1094" fill="none" rx="3" ry="3" style="stroke: #038048; stroke-width: 1.0;"/><text fill="#000000" font-family="sans-serif" font-size="11" lengthAdjust="spacingAndGlyphs" textLength="94" x="344" y="170.3198">MAIN_DIAGONAL</text><ellipse cx="335" cy="179.9141" fill="none" rx="3" ry="3" style="stroke: #038048; stroke-width: 1.0;"/><text fill="#000000" font-family="sans-serif" font-size="11" lengthAdjust="spacingAndGlyphs" textLength="114" x="344" y="183.1245">INVERSE_DIAGONAL</text><ellipse cx="335" cy="192.7188" fill="none" rx="3" ry="3" style="stroke: #038048; stroke-width: 1.0;"/><text fill="#000000" font-family="sans-serif" font-size="11" lengthAdjust="spacingAndGlyphs" textLength="28" x="344" y="195.9292">NULL</text><line style="stroke: #A80036; stroke-width: 1.5;" x1="325" x2="463" y1="202.5234" y2="202.5234"/><!--MD5=[5a5a2ad444bc00c1498d76ebf80a1dc4]
class usantatecla.utils.Console--><rect codeLine="51" fill="#FEFECE" filter="url(#f11lyw4ug7056v)" height="227.2656" id="usantatecla.utils.Console" style="stroke: #A80036; stroke-width: 1.5;" width="214" x="499" y="41"/><ellipse cx="577.25" cy="57" fill="#ADD1B2" rx="11" ry="11" style="stroke: #A80036; stroke-width: 1.0;"/><path d="M579.5938,52.6719 C578.6563,52.2344 578.0625,52.0938 577.1875,52.0938 C574.5625,52.0938 572.5625,54.1719 572.5625,56.8906 L572.5625,58.0156 C572.5625,60.5938 574.6719,62.4844 577.5625,62.4844 C578.7813,62.4844 579.9375,62.1875 580.6875,61.6406 C581.2656,61.2344 581.5938,60.7813 581.5938,60.3906 C581.5938,59.9375 581.2031,59.5469 580.7344,59.5469 C580.5156,59.5469 580.3125,59.625 580.125,59.8125 C579.6719,60.2969 579.6719,60.2969 579.4844,60.3906 C579.0625,60.6563 578.375,60.7813 577.6094,60.7813 C575.5625,60.7813 574.2656,59.6875 574.2656,57.9844 L574.2656,56.8906 C574.2656,55.1094 575.5156,53.7969 577.25,53.7969 C577.8281,53.7969 578.4375,53.9531 578.9063,54.2031 C579.3906,54.4844 579.5625,54.7031 579.6563,55.1094 C579.7188,55.5156 579.75,55.6406 579.8906,55.7656 C580.0313,55.9063 580.2656,56.0156 580.4844,56.0156 C580.75,56.0156 581.0156,55.875 581.1875,55.6563 C581.2969,55.5 581.3281,55.3125 581.3281,54.8906 L581.3281,53.4688 C581.3281,53.0313 581.3125,52.9063 581.2188,52.75 C581.0625,52.4844 580.7813,52.3438 580.4844,52.3438 C580.1875,52.3438 579.9844,52.4375 579.7656,52.75 L579.5938,52.6719 Z "/><text fill="#000000" font-family="sans-serif" font-size="12" lengthAdjust="spacingAndGlyphs" textLength="49" x="597.75" y="61.1543">Console</text><line style="stroke: #A80036; stroke-width: 1.5;" x1="500" x2="712" y1="73" y2="73"/><ellipse cx="510" cy="84" fill="none" rx="3" ry="3" style="stroke: #038048; stroke-width: 1.0;"/><text fill="#000000" font-family="sans-serif" font-size="11" lengthAdjust="spacingAndGlyphs" text-decoration="underline" textLength="97" x="519" y="87.2104">console: Console</text><rect fill="none" height="6" style="stroke: #C82930; stroke-width: 1.0;" width="6" x="507" y="93.8047"/><text fill="#000000" font-family="sans-serif" font-size="11" lengthAdjust="spacingAndGlyphs" textLength="188" x="519" y="100.0151">bufferedReader: BufferedReader</text><line style="stroke: #A80036; stroke-width: 1.5;" x1="500" x2="712" y1="106.6094" y2="106.6094"/><ellipse cx="510" cy="117.6094" fill="#84BE84" rx="3" ry="3" style="stroke: #038048; stroke-width: 1.0;"/><text fill="#000000" font-family="sans-serif" font-size="11" lengthAdjust="spacingAndGlyphs" text-decoration="underline" textLength="109" x="519" y="120.8198">instance(): Console</text><ellipse cx="510" cy="130.4141" fill="#84BE84" rx="3" ry="3" style="stroke: #038048; stroke-width: 1.0;"/><text fill="#000000" font-family="sans-serif" font-size="11" lengthAdjust="spacingAndGlyphs" textLength="140" x="519" y="133.6245">readString(String): String</text><ellipse cx="510" cy="143.2188" fill="#84BE84" rx="3" ry="3" style="stroke: #038048; stroke-width: 1.0;"/><text fill="#000000" font-family="sans-serif" font-size="11" lengthAdjust="spacingAndGlyphs" textLength="107" x="519" y="146.4292">readString(): String</text><ellipse cx="510" cy="156.0234" fill="#84BE84" rx="3" ry="3" style="stroke: #038048; stroke-width: 1.0;"/><text fill="#000000" font-family="sans-serif" font-size="11" lengthAdjust="spacingAndGlyphs" textLength="102" x="519" y="159.2339">readInt(String): int</text><ellipse cx="510" cy="168.8281" fill="#84BE84" rx="3" ry="3" style="stroke: #038048; stroke-width: 1.0;"/><text fill="#000000" font-family="sans-serif" font-size="11" lengthAdjust="spacingAndGlyphs" textLength="124" x="519" y="172.0386">readChar(String): char</text><ellipse cx="510" cy="181.6328" fill="#84BE84" rx="3" ry="3" style="stroke: #038048; stroke-width: 1.0;"/><text fill="#000000" font-family="sans-serif" font-size="11" lengthAdjust="spacingAndGlyphs" textLength="46" x="519" y="184.8433">writeln()</text><ellipse cx="510" cy="194.4375" fill="#84BE84" rx="3" ry="3" style="stroke: #038048; stroke-width: 1.0;"/><text fill="#000000" font-family="sans-serif" font-size="11" lengthAdjust="spacingAndGlyphs" textLength="69" x="519" y="197.6479">write(String)</text><ellipse cx="510" cy="207.2422" fill="#84BE84" rx="3" ry="3" style="stroke: #038048; stroke-width: 1.0;"/><text fill="#000000" font-family="sans-serif" font-size="11" lengthAdjust="spacingAndGlyphs" textLength="50" x="519" y="210.4526">write(int)</text><ellipse cx="510" cy="220.0469" fill="#84BE84" rx="3" ry="3" style="stroke: #038048; stroke-width: 1.0;"/><text fill="#000000" font-family="sans-serif" font-size="11" lengthAdjust="spacingAndGlyphs" textLength="79" x="519" y="223.2573">writeln(String)</text><ellipse cx="510" cy="232.8516" fill="#84BE84" rx="3" ry="3" style="stroke: #038048; stroke-width: 1.0;"/><text fill="#000000" font-family="sans-serif" font-size="11" lengthAdjust="spacingAndGlyphs" textLength="60" x="519" y="236.062">writeln(int)</text><ellipse cx="510" cy="245.6563" fill="#84BE84" rx="3" ry="3" style="stroke: #038048; stroke-width: 1.0;"/><text fill="#000000" font-family="sans-serif" font-size="11" lengthAdjust="spacingAndGlyphs" textLength="60" x="519" y="248.8667">write(char)</text><ellipse cx="510" cy="258.4609" fill="#84BE84" rx="3" ry="3" style="stroke: #038048; stroke-width: 1.0;"/><text fill="#000000" font-family="sans-serif" font-size="11" lengthAdjust="spacingAndGlyphs" textLength="95" x="519" y="261.6714">writeError(String)</text><!--MD5=[b0b725b3db639de93c4e5e8714f3aefc]
class usantatecla.utils.ClosedInterval--><rect codeLine="68" fill="#FEFECE" filter="url(#f11lyw4ug7056v)" height="112.0234" id="usantatecla.utils.ClosedInterval" style="stroke: #A80036; stroke-width: 1.5;" width="158" x="748" y="98.5"/><ellipse cx="781" cy="114.5" fill="#ADD1B2" rx="11" ry="11" style="stroke: #A80036; stroke-width: 1.0;"/><path d="M783.3438,110.1719 C782.4063,109.7344 781.8125,109.5938 780.9375,109.5938 C778.3125,109.5938 776.3125,111.6719 776.3125,114.3906 L776.3125,115.5156 C776.3125,118.0938 778.4219,119.9844 781.3125,119.9844 C782.5313,119.9844 783.6875,119.6875 784.4375,119.1406 C785.0156,118.7344 785.3438,118.2813 785.3438,117.8906 C785.3438,117.4375 784.9531,117.0469 784.4844,117.0469 C784.2656,117.0469 784.0625,117.125 783.875,117.3125 C783.4219,117.7969 783.4219,117.7969 783.2344,117.8906 C782.8125,118.1563 782.125,118.2813 781.3594,118.2813 C779.3125,118.2813 778.0156,117.1875 778.0156,115.4844 L778.0156,114.3906 C778.0156,112.6094 779.2656,111.2969 781,111.2969 C781.5781,111.2969 782.1875,111.4531 782.6563,111.7031 C783.1406,111.9844 783.3125,112.2031 783.4063,112.6094 C783.4688,113.0156 783.5,113.1406 783.6406,113.2656 C783.7813,113.4063 784.0156,113.5156 784.2344,113.5156 C784.5,113.5156 784.7656,113.375 784.9375,113.1563 C785.0469,113 785.0781,112.8125 785.0781,112.3906 L785.0781,110.9688 C785.0781,110.5313 785.0625,110.4063 784.9688,110.25 C784.8125,109.9844 784.5313,109.8438 784.2344,109.8438 C783.9375,109.8438 783.7344,109.9375 783.5156,110.25 L783.3438,110.1719 Z "/><text fill="#000000" font-family="sans-serif" font-size="12" lengthAdjust="spacingAndGlyphs" textLength="86" x="799" y="118.6543">ClosedInterval</text><line style="stroke: #A80036; stroke-width: 1.5;" x1="749" x2="905" y1="130.5" y2="130.5"/><rect fill="none" height="6" style="stroke: #C82930; stroke-width: 1.0;" width="6" x="756" y="138.5"/><text fill="#000000" font-family="sans-serif" font-size="11" lengthAdjust="spacingAndGlyphs" textLength="42" x="768" y="144.7104">min: int</text><rect fill="none" height="6" style="stroke: #C82930; stroke-width: 1.0;" width="6" x="756" y="151.3047"/><text fill="#000000" font-family="sans-serif" font-size="11" lengthAdjust="spacingAndGlyphs" textLength="46" x="768" y="157.5151">max: int</text><line style="stroke: #A80036; stroke-width: 1.5;" x1="749" x2="905" y1="164.1094" y2="164.1094"/><ellipse cx="759" cy="175.1094" fill="#84BE84" rx="3" ry="3" style="stroke: #038048; stroke-width: 1.0;"/><text fill="#000000" font-family="sans-serif" font-size="11" lengthAdjust="spacingAndGlyphs" textLength="125" x="768" y="178.3198">ClosedInterval(int, int)</text><ellipse cx="759" cy="187.9141" fill="#84BE84" rx="3" ry="3" style="stroke: #038048; stroke-width: 1.0;"/><text fill="#000000" font-family="sans-serif" font-size="11" lengthAdjust="spacingAndGlyphs" textLength="132" x="768" y="191.1245">isIncluded(int): boolean</text><ellipse cx="759" cy="200.7188" fill="#84BE84" rx="3" ry="3" style="stroke: #038048; stroke-width: 1.0;"/><text fill="#000000" font-family="sans-serif" font-size="11" lengthAdjust="spacingAndGlyphs" textLength="92" x="768" y="203.9292">toString(): String</text><!--MD5=[115031fed92a4467bd358dd9ee6729dd]
class usantatecla.utils.YesNoDialog--><rect codeLine="76" fill="#FEFECE" filter="url(#f11lyw4ug7056v)" height="163.2422" id="usantatecla.utils.YesNoDialog" style="stroke: #A80036; stroke-width: 1.5;" width="155" x="550.5" y="379.5"/><ellipse cx="586.65" cy="395.5" fill="#ADD1B2" rx="11" ry="11" style="stroke: #A80036; stroke-width: 1.0;"/><path d="M588.9938,391.1719 C588.0563,390.7344 587.4625,390.5938 586.5875,390.5938 C583.9625,390.5938 581.9625,392.6719 581.9625,395.3906 L581.9625,396.5156 C581.9625,399.0938 584.0719,400.9844 586.9625,400.9844 C588.1813,400.9844 589.3375,400.6875 590.0875,400.1406 C590.6656,399.7344 590.9938,399.2813 590.9938,398.8906 C590.9938,398.4375 590.6031,398.0469 590.1344,398.0469 C589.9156,398.0469 589.7125,398.125 589.525,398.3125 C589.0719,398.7969 589.0719,398.7969 588.8844,398.8906 C588.4625,399.1563 587.775,399.2813 587.0094,399.2813 C584.9625,399.2813 583.6656,398.1875 583.6656,396.4844 L583.6656,395.3906 C583.6656,393.6094 584.9156,392.2969 586.65,392.2969 C587.2281,392.2969 587.8375,392.4531 588.3063,392.7031 C588.7906,392.9844 588.9625,393.2031 589.0563,393.6094 C589.1188,394.0156 589.15,394.1406 589.2906,394.2656 C589.4313,394.4063 589.6656,394.5156 589.8844,394.5156 C590.15,394.5156 590.4156,394.375 590.5875,394.1563 C590.6969,394 590.7281,393.8125 590.7281,393.3906 L590.7281,391.9688 C590.7281,391.5313 590.7125,391.4063 590.6188,391.25 C590.4625,390.9844 590.1813,390.8438 589.8844,390.8438 C589.5875,390.8438 589.3844,390.9375 589.1656,391.25 L588.9938,391.1719 Z "/><text fill="#000000" font-family="sans-serif" font-size="12" lengthAdjust="spacingAndGlyphs" textLength="76" x="605.35" y="399.6543">YesNoDialog</text><line style="stroke: #A80036; stroke-width: 1.5;" x1="551.5" x2="704.5" y1="411.5" y2="411.5"/><rect fill="none" height="6" style="stroke: #C82930; stroke-width: 1.0;" width="6" x="558.5" y="419.5"/><text fill="#000000" font-family="sans-serif" font-size="11" lengthAdjust="spacingAndGlyphs" text-decoration="underline" textLength="103" x="570.5" y="425.7104">AFFIRMATIVE: char</text><rect fill="none" height="6" style="stroke: #C82930; stroke-width: 1.0;" width="6" x="558.5" y="432.3047"/><text fill="#000000" font-family="sans-serif" font-size="11" lengthAdjust="spacingAndGlyphs" text-decoration="underline" textLength="88" x="570.5" y="438.5151">NEGATIVE: char</text><rect fill="none" height="6" style="stroke: #C82930; stroke-width: 1.0;" width="6" x="558.5" y="445.1094"/><text fill="#000000" font-family="sans-serif" font-size="11" lengthAdjust="spacingAndGlyphs" text-decoration="underline" textLength="79" x="570.5" y="451.3198">SUFFIX: String</text><rect fill="none" height="6" style="stroke: #C82930; stroke-width: 1.0;" width="6" x="558.5" y="457.9141"/><text fill="#000000" font-family="sans-serif" font-size="11" lengthAdjust="spacingAndGlyphs" text-decoration="underline" textLength="96" x="570.5" y="464.1245">MESSAGE: String</text><rect fill="none" height="6" style="stroke: #C82930; stroke-width: 1.0;" width="6" x="558.5" y="470.7188"/><text fill="#000000" font-family="sans-serif" font-size="11" lengthAdjust="spacingAndGlyphs" textLength="72" x="570.5" y="476.9292">answer: char</text><line style="stroke: #A80036; stroke-width: 1.5;" x1="551.5" x2="704.5" y1="483.5234" y2="483.5234"/><ellipse cx="561.5" cy="494.5234" fill="#84BE84" rx="3" ry="3" style="stroke: #038048; stroke-width: 1.0;"/><text fill="#000000" font-family="sans-serif" font-size="11" lengthAdjust="spacingAndGlyphs" textLength="120" x="570.5" y="497.7339">read(String): boolean</text><rect fill="#F24D5C" height="6" style="stroke: #C82930; stroke-width: 1.0;" width="6" x="558.5" y="504.3281"/><text fill="#000000" font-family="sans-serif" font-size="11" lengthAdjust="spacingAndGlyphs" textLength="129" x="570.5" y="510.5386">isAfirmative(): boolean</text><rect fill="#F24D5C" height="6" style="stroke: #C82930; stroke-width: 1.0;" width="6" x="558.5" y="517.1328"/><text fill="#000000" font-family="sans-serif" font-size="11" lengthAdjust="spacingAndGlyphs" textLength="100" x="570.5" y="523.3433">getAnswer(): char</text><rect fill="#F24D5C" height="6" style="stroke: #C82930; stroke-width: 1.0;" width="6" x="558.5" y="529.9375"/><text fill="#000000" font-family="sans-serif" font-size="11" lengthAdjust="spacingAndGlyphs" textLength="122" x="570.5" y="536.1479">isNegative(): boolean</text><!--MD5=[3415149f6924cb72405a86d2dbe048ff]
class usantatecla.utils.LimitedIntDialog--><rect codeLine="88" fill="#FEFECE" filter="url(#f11lyw4ug7056v)" height="99.2188" id="usantatecla.utils.LimitedIntDialog" style="stroke: #A80036; stroke-width: 1.5;" width="165" x="740.5" y="411.5"/><ellipse cx="772.6" cy="427.5" fill="#ADD1B2" rx="11" ry="11" style="stroke: #A80036; stroke-width: 1.0;"/><path d="M774.9438,423.1719 C774.0063,422.7344 773.4125,422.5938 772.5375,422.5938 C769.9125,422.5938 767.9125,424.6719 767.9125,427.3906 L767.9125,428.5156 C767.9125,431.0938 770.0219,432.9844 772.9125,432.9844 C774.1313,432.9844 775.2875,432.6875 776.0375,432.1406 C776.6156,431.7344 776.9438,431.2813 776.9438,430.8906 C776.9438,430.4375 776.5531,430.0469 776.0844,430.0469 C775.8656,430.0469 775.6625,430.125 775.475,430.3125 C775.0219,430.7969 775.0219,430.7969 774.8344,430.8906 C774.4125,431.1563 773.725,431.2813 772.9594,431.2813 C770.9125,431.2813 769.6156,430.1875 769.6156,428.4844 L769.6156,427.3906 C769.6156,425.6094 770.8656,424.2969 772.6,424.2969 C773.1781,424.2969 773.7875,424.4531 774.2563,424.7031 C774.7406,424.9844 774.9125,425.2031 775.0063,425.6094 C775.0688,426.0156 775.1,426.1406 775.2406,426.2656 C775.3813,426.4063 775.6156,426.5156 775.8344,426.5156 C776.1,426.5156 776.3656,426.375 776.5375,426.1563 C776.6469,426 776.6781,425.8125 776.6781,425.3906 L776.6781,423.9688 C776.6781,423.5313 776.6625,423.4063 776.5688,423.25 C776.4125,422.9844 776.1313,422.8438 775.8344,422.8438 C775.5375,422.8438 775.3344,422.9375 775.1156,423.25 L774.9438,423.1719 Z "/><text fill="#000000" font-family="sans-serif" font-size="12" lengthAdjust="spacingAndGlyphs" textLength="95" x="790.4" y="431.6543">LimitedIntDialog</text><line style="stroke: #A80036; stroke-width: 1.5;" x1="741.5" x2="904.5" y1="443.5" y2="443.5"/><rect fill="none" height="6" style="stroke: #C82930; stroke-width: 1.0;" width="6" x="748.5" y="451.5"/><text fill="#000000" font-family="sans-serif" font-size="11" lengthAdjust="spacingAndGlyphs" textLength="125" x="760.5" y="457.7104">LIMITS: ClosedInterval</text><rect fill="none" height="6" style="stroke: #C82930; stroke-width: 1.0;" width="6" x="748.5" y="464.3047"/><text fill="#000000" font-family="sans-serif" font-size="11" lengthAdjust="spacingAndGlyphs" text-decoration="underline" textLength="139" x="760.5" y="470.5151">ERROR_MESSAGE: String</text><line style="stroke: #A80036; stroke-width: 1.5;" x1="741.5" x2="904.5" y1="477.1094" y2="477.1094"/><ellipse cx="751.5" cy="488.1094" fill="#84BE84" rx="3" ry="3" style="stroke: #038048; stroke-width: 1.0;"/><text fill="#000000" font-family="sans-serif" font-size="11" lengthAdjust="spacingAndGlyphs" textLength="135" x="760.5" y="491.3198">LimitedIntDialog(int, int)</text><ellipse cx="751.5" cy="500.9141" fill="#84BE84" rx="3" ry="3" style="stroke: #038048; stroke-width: 1.0;"/><text fill="#000000" font-family="sans-serif" font-size="11" lengthAdjust="spacingAndGlyphs" textLength="88" x="760.5" y="504.1245">read(String): int</text><!--MD5=[ca73a4fbcee54775298381742925c483]
reverse link usantatecla.utils.Coordinate to usantatecla.utils.ConcreteCoordinate--><path codeLine="95" d="M156.035,230.964 C154.496,260.243 152.688,294.655 150.948,327.78 " fill="none" id="usantatecla.utils.Coordinate-backto-usantatecla.utils.ConcreteCoordinate" style="stroke: #A80036; stroke-width: 1.0;"/><polygon fill="none" points="149.063,230.248,157.103,210.643,163.043,230.982,149.063,230.248" style="stroke: #A80036; stroke-width: 1.0;"/><!--MD5=[cddedadb31d71f7b6d8b58208518f687]
reverse link usantatecla.utils.Coordinate to usantatecla.utils.NullCoordinate--><path codeLine="96" d="M216.587,226.408 C251.421,270.058 296.331,326.335 333.342,372.713 " fill="none" id="usantatecla.utils.Coordinate-backto-usantatecla.utils.NullCoordinate" style="stroke: #A80036; stroke-width: 1.0;"/><polygon fill="none" points="211.009,230.641,204.005,210.643,221.952,221.909,211.009,230.641" style="stroke: #A80036; stroke-width: 1.0;"/><!--MD5=[afd897a655a6034ea54cfe23bf2f9d01]
link usantatecla.utils.Direction to usantatecla.utils.Console--><!--MD5=[365d49744e2a1989b8efc9f34417706e]
link usantatecla.utils.Console to usantatecla.utils.ClosedInterval--><!--MD5=[e9b86e6c3a0ce97b6bfb0e2546727a44]
link usantatecla.utils.Direction to usantatecla.utils.YesNoDialog--><!--MD5=[5b98b3c711f5ba1b6452ad6b87ecd44b]
link usantatecla.utils.YesNoDialog to usantatecla.utils.LimitedIntDialog--><!--MD5=[79c246cf65e5be916b6b2ed5f32eb469]
@startuml
namespace usantatecla.utils {

interface Coordinate {
	~ isNull(): boolean 
	~ getDirection(Coordinate): Direction 
	~ inHorizontal(Coordinate): boolean 
	~ inVertical(Coordinate): boolean 
	~ inMainDiagonal(): boolean 
}

class ConcreteCoordinate {
	~ row: int 
	~ column: int 
	~ ROW: {static} String
	~ COLUMN: {static} String
	~ ConcreteCoordinate()
	~ ConcreteCoordinate(int, int)
	+ isNull(): boolean 
	+ getDirection(Coordinate): Direction 
	+ inHorizontal(Coordinate): boolean 
	+ inVertical(Coordinate): boolean 
	+ inMainDiagonal(): boolean 
	~ read(String)
	+ getRow(): int 
	+ getColumn(): int
	+ hashCode(): int
	+ equals(Object): boolean 
	+ toString(): String 
}
class NullCoordinate {
	+ instance: {static} NullCoordinate 
	+ {static} instance(): Coordinate 
	+ isNull(): boolean 
	+ getDirection(Coordinate): Direction 
	+ inHorizontal(Coordinate): boolean 
	+ inVertical(Coordinate): boolean
	+ inMainDiagonal(): boolean
	+ hashCode(): int 
	+ equals(Object): boolean 
	+ toString(): String 
}

enum Direction {
	+ VERTICAL
	+ HORIZONTAL
	+ MAIN_DIAGONAL
	+ INVERSE_DIAGONAL
	+ NULL
}

class Console {
	+ console: {static} Console 
	- bufferedReader: BufferedReader 
	+ instance(): {static} Console 
	+ readString(String): String 
	+ readString(): String 
	+ readInt(String): int 
	+ readChar(String): char 
	+ writeln()
	+ write(String)
	+ write(int)
	+ writeln(String)
	+ writeln(int)
	+ write(char)
	+ writeError(String)
}

class ClosedInterval {
	- min: int 
	- max: int 
	+ ClosedInterval(int, int)
	+ isIncluded(int): boolean 
	+ toString(): String 
}

class YesNoDialog {
	- AFFIRMATIVE: {static} char 
	- NEGATIVE: {static} char 
	- SUFFIX: {static} String 
	- MESSAGE: {static} String
	- answer: char 
	+ read(String): boolean 
	- isAfirmative(): boolean 
	- getAnswer(): char 
	- isNegative(): boolean 
}

class LimitedIntDialog {
	- LIMITS: ClosedInterval 
	- ERROR_MESSAGE: {static} String 
	+ LimitedIntDialog(int, int)
	+ read(String): int 
}

Coordinate <|-down- ConcreteCoordinate
Coordinate <|-down- NullCoordinate

}
@enduml

PlantUML version 1.2020.20beta4(Unknown compile time)
(GPL source distribution)
Java Runtime: Java(TM) SE Runtime Environment
JVM: Java HotSpot(TM) 64-Bit Server VM
Default Encoding: UTF-8
Language: en
Country: US
--></g></svg>