<?xml version="1.0" encoding="UTF-8" standalone="no"?><svg xmlns="http://www.w3.org/2000/svg" xmlns:xlink="http://www.w3.org/1999/xlink" contentScriptType="application/ecmascript" contentStyleType="text/css" height="454px" preserveAspectRatio="none" style="width:641px;height:454px;" version="1.1" viewBox="0 0 641 454" width="641px" zoomAndPan="magnify"><defs><filter height="300%" id="f15kahakzllyiu" width="300%" x="-1" y="-1"><feGaussianBlur result="blurOut" stdDeviation="2.0"/><feColorMatrix in="blurOut" result="blurOut2" type="matrix" values="0 0 0 0 0 0 0 0 0 0 0 0 0 0 0 0 0 0 .4 0"/><feOffset dx="4.0" dy="4.0" in="blurOut2" result="blurOut3"/><feBlend in="SourceGraphic" in2="blurOut3" mode="normal"/></filter></defs><g><!--MD5=[f4e83a21a957c5b9ba9691e6361db36b]
cluster tictactoe.views--><polygon fill="#FFFFFF" filter="url(#f15kahakzllyiu)" points="16,6,148,6,155,28.2969,624,28.2969,624,348,16,348,16,6" style="stroke:#000000;stroke-width:1.5;"/><line style="stroke:#000000;stroke-width:1.5;" x1="16" x2="155" y1="28.2969" y2="28.2969"/><text fill="#000000" font-family="sans-serif" font-size="14" font-weight="bold" lengthAdjust="spacingAndGlyphs" textLength="126" x="20" y="20.9951">tictactoe.views</text><!--MD5=[17799e03bfee0ccb3aa03b93da9c26d6]
class tictactoe.views.ErrorView--><rect codeLine="4" fill="#FEFECE" filter="url(#f15kahakzllyiu)" height="86.4141" id="tictactoe.views.ErrorView" style="stroke:#A80036;stroke-width:1.5;" width="138" x="217" y="143.5"/><ellipse cx="253.15" cy="159.5" fill="#ADD1B2" rx="11" ry="11" style="stroke:#A80036;stroke-width:1.0;"/><path d="M255.4938,155.1719 C254.5563,154.7344 253.9625,154.5938 253.0875,154.5938 C250.4625,154.5938 248.4625,156.6719 248.4625,159.3906 L248.4625,160.5156 C248.4625,163.0938 250.5719,164.9844 253.4625,164.9844 C254.6813,164.9844 255.8375,164.6875 256.5875,164.1406 C257.1656,163.7344 257.4938,163.2813 257.4938,162.8906 C257.4938,162.4375 257.1031,162.0469 256.6344,162.0469 C256.4156,162.0469 256.2125,162.125 256.025,162.3125 C255.5719,162.7969 255.5719,162.7969 255.3844,162.8906 C254.9625,163.1563 254.275,163.2813 253.5094,163.2813 C251.4625,163.2813 250.1656,162.1875 250.1656,160.4844 L250.1656,159.3906 C250.1656,157.6094 251.4156,156.2969 253.15,156.2969 C253.7281,156.2969 254.3375,156.4531 254.8063,156.7031 C255.2906,156.9844 255.4625,157.2031 255.5563,157.6094 C255.6188,158.0156 255.65,158.1406 255.7906,158.2656 C255.9313,158.4063 256.1656,158.5156 256.3844,158.5156 C256.65,158.5156 256.9156,158.375 257.0875,158.1563 C257.1969,158 257.2281,157.8125 257.2281,157.3906 L257.2281,155.9688 C257.2281,155.5313 257.2125,155.4063 257.1188,155.25 C256.9625,154.9844 256.6813,154.8438 256.3844,154.8438 C256.0875,154.8438 255.8844,154.9375 255.6656,155.25 L255.4938,155.1719 Z " fill="#000000"/><text fill="#000000" font-family="sans-serif" font-size="12" lengthAdjust="spacingAndGlyphs" textLength="59" x="271.85" y="163.6543">ErrorView</text><line style="stroke:#A80036;stroke-width:1.5;" x1="218" x2="354" y1="175.5" y2="175.5"/><ellipse cx="228" cy="186.5" fill="none" rx="3" ry="3" style="stroke:#038048;stroke-width:1.0;"/><text fill="#000000" font-family="sans-serif" font-size="11" lengthAdjust="spacingAndGlyphs" text-decoration="underline" textLength="112" x="237" y="189.7104">MESSAGES: String[]</text><polygon fill="none" points="228,194.3047,232,198.3047,228,202.3047,224,198.3047" style="stroke:#B38D22;stroke-width:1.0;"/><text fill="#000000" font-family="sans-serif" font-size="11" lengthAdjust="spacingAndGlyphs" textLength="60" x="237" y="202.5151">error: Error</text><line style="stroke:#A80036;stroke-width:1.5;" x1="218" x2="354" y1="209.1094" y2="209.1094"/><ellipse cx="228" cy="220.1094" fill="#84BE84" rx="3" ry="3" style="stroke:#038048;stroke-width:1.0;"/><text fill="#000000" font-family="sans-serif" font-size="11" lengthAdjust="spacingAndGlyphs" textLength="88" x="237" y="223.3198">ErrorView(Error)</text><!--MD5=[8b95091471898ea6b0cbbbb1cd164db3]
class tictactoe.views.Message--><rect codeLine="11" fill="#FEFECE" filter="url(#f15kahakzllyiu)" height="291.2891" id="tictactoe.views.Message" style="stroke:#A80036;stroke-width:1.5;" width="218" x="390" y="41"/><ellipse cx="467.25" cy="57" fill="#EB937F" rx="11" ry="11" style="stroke:#A80036;stroke-width:1.0;"/><path d="M466.0469,57.875 L467.5,57.875 L467.5,57.9844 C467.5,58.3906 467.5313,58.5469 467.6094,58.7031 C467.7656,58.9531 468.0469,59.1094 468.3438,59.1094 C468.5938,59.1094 468.8594,58.9688 469.0156,58.75 C469.1406,58.5938 469.1719,58.4375 469.1719,57.9844 L469.1719,56.0625 C469.1719,55.9063 469.1719,55.8594 469.1563,55.7031 C469.0938,55.2344 468.7813,54.9219 468.3281,54.9219 C468.0781,54.9219 467.8125,55.0625 467.6406,55.2813 C467.5313,55.4531 467.5,55.6094 467.5,56.0625 L467.5,56.1875 L466.0469,56.1875 L466.0469,53.7813 L470.0313,53.7813 L470.0313,54.6406 C470.0313,55.0469 470.0625,55.2188 470.1406,55.375 C470.3125,55.625 470.5938,55.7813 470.875,55.7813 C471.1406,55.7813 471.4063,55.6406 471.5781,55.4219 C471.6875,55.25 471.7188,55.1094 471.7188,54.6406 L471.7188,52.0938 L464.0938,52.0938 C463.6563,52.0938 463.5313,52.1094 463.375,52.2031 C463.125,52.3594 462.9688,52.6563 462.9688,52.9375 C462.9688,53.2188 463.1094,53.4688 463.3281,53.6406 C463.4844,53.75 463.6719,53.7813 464.0938,53.7813 L464.3438,53.7813 L464.3438,60.2969 L464.0938,60.2969 C463.6875,60.2969 463.5313,60.3125 463.375,60.4219 C463.125,60.5938 462.9688,60.8594 462.9688,61.1563 C462.9688,61.4219 463.1094,61.6719 463.3281,61.8281 C463.4688,61.9531 463.7031,62 464.0938,62 L472.0938,62 L472.0938,59.4219 C472.0938,58.9844 472.0625,58.8438 471.9844,58.6875 C471.8125,58.4375 471.5313,58.2813 471.25,58.2813 C470.9844,58.2813 470.7188,58.3906 470.5469,58.6406 C470.4375,58.7969 470.4063,58.9375 470.4063,59.4219 L470.4063,60.2969 L466.0469,60.2969 L466.0469,57.875 Z " fill="#000000"/><text fill="#000000" font-family="sans-serif" font-size="12" lengthAdjust="spacingAndGlyphs" textLength="55" x="487.75" y="61.1543">Message</text><line style="stroke:#A80036;stroke-width:1.5;" x1="391" x2="607" y1="73" y2="73"/><ellipse cx="401" cy="84" fill="none" rx="3" ry="3" style="stroke:#038048;stroke-width:1.0;"/><text fill="#000000" font-family="sans-serif" font-size="11" lengthAdjust="spacingAndGlyphs" textLength="37" x="410" y="87.2104">TITTLE</text><ellipse cx="401" cy="96.8047" fill="none" rx="3" ry="3" style="stroke:#038048;stroke-width:1.0;"/><text fill="#000000" font-family="sans-serif" font-size="11" lengthAdjust="spacingAndGlyphs" textLength="102" x="410" y="100.0151">NUMBER_PLAYERS</text><ellipse cx="401" cy="109.6094" fill="none" rx="3" ry="3" style="stroke:#038048;stroke-width:1.0;"/><text fill="#000000" font-family="sans-serif" font-size="11" lengthAdjust="spacingAndGlyphs" textLength="67" x="410" y="112.8198">SEPARATOR</text><ellipse cx="401" cy="122.4141" fill="none" rx="3" ry="3" style="stroke:#038048;stroke-width:1.0;"/><text fill="#000000" font-family="sans-serif" font-size="11" lengthAdjust="spacingAndGlyphs" textLength="116" x="410" y="125.6245">VERTICAL_LINE_LEFT</text><ellipse cx="401" cy="135.2188" fill="none" rx="3" ry="3" style="stroke:#038048;stroke-width:1.0;"/><text fill="#000000" font-family="sans-serif" font-size="11" lengthAdjust="spacingAndGlyphs" textLength="150" x="410" y="138.4292">VERTICAL_LINE_CENTERED</text><ellipse cx="401" cy="148.0234" fill="none" rx="3" ry="3" style="stroke:#038048;stroke-width:1.0;"/><text fill="#000000" font-family="sans-serif" font-size="11" lengthAdjust="spacingAndGlyphs" textLength="124" x="410" y="151.2339">VERTICAL_LINE_RIGHT</text><ellipse cx="401" cy="160.8281" fill="none" rx="3" ry="3" style="stroke:#038048;stroke-width:1.0;"/><text fill="#000000" font-family="sans-serif" font-size="11" lengthAdjust="spacingAndGlyphs" textLength="166" x="410" y="164.0386">ENTER_COORDINATE_TO_PUT</text><ellipse cx="401" cy="173.6328" fill="none" rx="3" ry="3" style="stroke:#038048;stroke-width:1.0;"/><text fill="#000000" font-family="sans-serif" font-size="11" lengthAdjust="spacingAndGlyphs" textLength="192" x="410" y="176.8433">ENTER_COORDINATE_TO_REMOVE</text><ellipse cx="401" cy="186.4375" fill="none" rx="3" ry="3" style="stroke:#038048;stroke-width:1.0;"/><text fill="#000000" font-family="sans-serif" font-size="11" lengthAdjust="spacingAndGlyphs" textLength="124" x="410" y="189.6479">COORDINATE_TO_PUT</text><ellipse cx="401" cy="199.2422" fill="none" rx="3" ry="3" style="stroke:#038048;stroke-width:1.0;"/><text fill="#000000" font-family="sans-serif" font-size="11" lengthAdjust="spacingAndGlyphs" textLength="150" x="410" y="202.4526">COORDINATE_TO_REMOVE</text><ellipse cx="401" cy="212.0469" fill="none" rx="3" ry="3" style="stroke:#038048;stroke-width:1.0;"/><text fill="#000000" font-family="sans-serif" font-size="11" lengthAdjust="spacingAndGlyphs" textLength="136" x="410" y="215.2573">COORDINATE_TO_MOVE</text><ellipse cx="401" cy="224.8516" fill="none" rx="3" ry="3" style="stroke:#038048;stroke-width:1.0;"/><text fill="#000000" font-family="sans-serif" font-size="11" lengthAdjust="spacingAndGlyphs" textLength="69" x="410" y="228.062">PLAYER_WIN</text><ellipse cx="401" cy="237.6563" fill="none" rx="3" ry="3" style="stroke:#038048;stroke-width:1.0;"/><text fill="#000000" font-family="sans-serif" font-size="11" lengthAdjust="spacingAndGlyphs" textLength="46" x="410" y="240.8667">RESUME</text><rect fill="none" height="6" style="stroke:#C82930;stroke-width:1.0;" width="6" x="398" y="247.4609"/><text fill="#000000" font-family="sans-serif" font-size="11" lengthAdjust="spacingAndGlyphs" textLength="93" x="410" y="253.6714">message: String</text><line style="stroke:#A80036;stroke-width:1.5;" x1="391" x2="607" y1="260.2656" y2="260.2656"/><rect fill="#F24D5C" height="6" style="stroke:#C82930;stroke-width:1.0;" width="6" x="398" y="268.2656"/><text fill="#000000" font-family="sans-serif" font-size="11" lengthAdjust="spacingAndGlyphs" textLength="92" x="410" y="274.4761">Message(String)</text><ellipse cx="401" cy="284.0703" fill="#84BE84" rx="3" ry="3" style="stroke:#038048;stroke-width:1.0;"/><text fill="#000000" font-family="sans-serif" font-size="11" lengthAdjust="spacingAndGlyphs" textLength="118" x="410" y="287.2808">getMessage(): String</text><ellipse cx="401" cy="296.875" fill="#84BE84" rx="3" ry="3" style="stroke:#038048;stroke-width:1.0;"/><text fill="#000000" font-family="sans-serif" font-size="11" lengthAdjust="spacingAndGlyphs" textLength="36" x="410" y="300.0854">write()</text><ellipse cx="401" cy="309.6797" fill="#84BE84" rx="3" ry="3" style="stroke:#038048;stroke-width:1.0;"/><text fill="#000000" font-family="sans-serif" font-size="11" lengthAdjust="spacingAndGlyphs" textLength="46" x="410" y="312.8901">writeln()</text><ellipse cx="401" cy="322.4844" fill="#84BE84" rx="3" ry="3" style="stroke:#038048;stroke-width:1.0;"/><text fill="#000000" font-family="sans-serif" font-size="11" lengthAdjust="spacingAndGlyphs" textLength="92" x="410" y="325.6948">toString(): String</text><!--MD5=[015754420c4cdd9bacda884b3fa8c6ca]
class tictactoe.views.View--><rect codeLine="35" fill="#FEFECE" filter="url(#f15kahakzllyiu)" height="99.2188" id="tictactoe.views.View" style="stroke:#A80036;stroke-width:1.5;" width="149" x="32.5" y="137"/><ellipse cx="88.75" cy="153" fill="#A9DCDF" rx="11" ry="11" style="stroke:#A80036;stroke-width:1.0;"/><path d="M90.8281,154.8125 L91.2188,155.7969 L90.8281,155.7969 C90.375,155.7969 90.2656,155.8125 90.1094,155.9219 C89.8594,156.0781 89.7031,156.3594 89.7031,156.6563 C89.7031,156.9219 89.8438,157.1719 90.0625,157.3281 C90.2031,157.4531 90.4063,157.5 90.8281,157.5 L93.1875,157.5 C93.5469,157.5 93.7656,157.4688 93.9063,157.375 C94.1563,157.2344 94.3125,156.9375 94.3125,156.6563 C94.3125,156.375 94.1719,156.125 93.9531,155.9688 C93.7813,155.8281 93.625,155.7969 93.1563,155.7969 L89.7656,147.5938 L86.0938,147.5938 C85.6406,147.5938 85.5156,147.6094 85.3594,147.7031 C85.1094,147.875 84.9531,148.1563 84.9531,148.4375 C84.9531,148.7188 85.0938,148.9688 85.3125,149.1406 C85.4844,149.25 85.6563,149.2813 86.0938,149.2813 L87.1719,149.2813 L84.5313,155.7969 C84.1094,155.7969 83.9531,155.8125 83.7969,155.9219 C83.5469,156.0781 83.3906,156.3594 83.3906,156.6563 C83.3906,157.2188 83.7656,157.5 84.5156,157.5 L86.7813,157.5 C87.1406,157.5 87.3594,157.4688 87.4844,157.375 C87.75,157.2344 87.8906,156.9375 87.8906,156.6563 C87.8906,156.375 87.7656,156.125 87.5469,155.9531 C87.375,155.8281 87.2344,155.7969 86.7813,155.7969 L86.3906,155.7969 L86.7813,154.8125 L90.8281,154.8125 Z M90.125,153.1094 L87.4531,153.1094 L88.7969,149.8438 L90.125,153.1094 Z " fill="#000000"/><text fill="#000000" font-family="sans-serif" font-size="12" font-style="italic" lengthAdjust="spacingAndGlyphs" textLength="28" x="109.25" y="157.1543">View</text><line style="stroke:#A80036;stroke-width:1.5;" x1="33.5" x2="180.5" y1="169" y2="169"/><line style="stroke:#A80036;stroke-width:1.5;" x1="33.5" x2="180.5" y1="177" y2="177"/><ellipse cx="43.5" cy="188" fill="#84BE84" rx="3" ry="3" style="stroke:#038048;stroke-width:1.0;"/><text fill="#000000" font-family="sans-serif" font-size="11" lengthAdjust="spacingAndGlyphs" textLength="51" x="52.5" y="191.2104">interact()</text><polygon fill="#FFFF44" points="43.5,195.8047,47.5,199.8047,43.5,203.8047,39.5,199.8047" style="stroke:#B38D22;stroke-width:1.0;"/><text fill="#000000" font-family="sans-serif" font-size="11" font-style="italic" lengthAdjust="spacingAndGlyphs" textLength="34" x="52.5" y="204.0151">start()</text><polygon fill="#FFFF44" points="43.5,208.6094,47.5,212.6094,43.5,216.6094,39.5,212.6094" style="stroke:#B38D22;stroke-width:1.0;"/><text fill="#000000" font-family="sans-serif" font-size="11" font-style="italic" lengthAdjust="spacingAndGlyphs" textLength="32" x="52.5" y="216.8198">play()</text><polygon fill="#FFFF44" points="43.5,221.4141,47.5,225.4141,43.5,229.4141,39.5,225.4141" style="stroke:#B38D22;stroke-width:1.0;"/><text fill="#000000" font-family="sans-serif" font-size="11" font-style="italic" lengthAdjust="spacingAndGlyphs" textLength="123" x="52.5" y="229.6245">isResumed(): boolean</text><!--MD5=[b8cfd8c4119a3b0a7a46bfc5fc780f85]
class Error--><rect codeLine="1" fill="#FEFECE" filter="url(#f15kahakzllyiu)" height="48" id="Error" style="stroke:#A80036;stroke-width:1.5;" width="154" x="209" y="392"/><ellipse cx="224" cy="408" fill="#EB937F" rx="11" ry="11" style="stroke:#A80036;stroke-width:1.0;"/><path d="M222.7969,408.875 L224.25,408.875 L224.25,408.9844 C224.25,409.3906 224.2813,409.5469 224.3594,409.7031 C224.5156,409.9531 224.7969,410.1094 225.0938,410.1094 C225.3438,410.1094 225.6094,409.9688 225.7656,409.75 C225.8906,409.5938 225.9219,409.4375 225.9219,408.9844 L225.9219,407.0625 C225.9219,406.9063 225.9219,406.8594 225.9063,406.7031 C225.8438,406.2344 225.5313,405.9219 225.0781,405.9219 C224.8281,405.9219 224.5625,406.0625 224.3906,406.2813 C224.2813,406.4531 224.25,406.6094 224.25,407.0625 L224.25,407.1875 L222.7969,407.1875 L222.7969,404.7813 L226.7813,404.7813 L226.7813,405.6406 C226.7813,406.0469 226.8125,406.2188 226.8906,406.375 C227.0625,406.625 227.3438,406.7813 227.625,406.7813 C227.8906,406.7813 228.1563,406.6406 228.3281,406.4219 C228.4375,406.25 228.4688,406.1094 228.4688,405.6406 L228.4688,403.0938 L220.8438,403.0938 C220.4063,403.0938 220.2813,403.1094 220.125,403.2031 C219.875,403.3594 219.7188,403.6563 219.7188,403.9375 C219.7188,404.2188 219.8594,404.4688 220.0781,404.6406 C220.2344,404.75 220.4219,404.7813 220.8438,404.7813 L221.0938,404.7813 L221.0938,411.2969 L220.8438,411.2969 C220.4375,411.2969 220.2813,411.3125 220.125,411.4219 C219.875,411.5938 219.7188,411.8594 219.7188,412.1563 C219.7188,412.4219 219.8594,412.6719 220.0781,412.8281 C220.2188,412.9531 220.4531,413 220.8438,413 L228.8438,413 L228.8438,410.4219 C228.8438,409.9844 228.8125,409.8438 228.7344,409.6875 C228.5625,409.4375 228.2813,409.2813 228,409.2813 C227.7344,409.2813 227.4688,409.3906 227.2969,409.6406 C227.1875,409.7969 227.1563,409.9375 227.1563,410.4219 L227.1563,411.2969 L222.7969,411.2969 L222.7969,408.875 Z " fill="#000000"/><text fill="#000000" font-family="sans-serif" font-size="12" lengthAdjust="spacingAndGlyphs" textLength="122" x="238" y="412.1543">tictactoe.types.Error</text><line style="stroke:#A80036;stroke-width:1.5;" x1="210" x2="362" y1="424" y2="424"/><line style="stroke:#A80036;stroke-width:1.5;" x1="210" x2="362" y1="432" y2="432"/><!--MD5=[315b61b427ec618d6861d47eee00cca3]
class Console--><rect codeLine="2" fill="#FEFECE" filter="url(#f15kahakzllyiu)" height="48" id="Console" style="stroke:#A80036;stroke-width:1.5;" width="179" x="409.5" y="392"/><ellipse cx="424.5" cy="408" fill="#ADD1B2" rx="11" ry="11" style="stroke:#A80036;stroke-width:1.0;"/><path d="M426.8438,403.6719 C425.9063,403.2344 425.3125,403.0938 424.4375,403.0938 C421.8125,403.0938 419.8125,405.1719 419.8125,407.8906 L419.8125,409.0156 C419.8125,411.5938 421.9219,413.4844 424.8125,413.4844 C426.0313,413.4844 427.1875,413.1875 427.9375,412.6406 C428.5156,412.2344 428.8438,411.7813 428.8438,411.3906 C428.8438,410.9375 428.4531,410.5469 427.9844,410.5469 C427.7656,410.5469 427.5625,410.625 427.375,410.8125 C426.9219,411.2969 426.9219,411.2969 426.7344,411.3906 C426.3125,411.6563 425.625,411.7813 424.8594,411.7813 C422.8125,411.7813 421.5156,410.6875 421.5156,408.9844 L421.5156,407.8906 C421.5156,406.1094 422.7656,404.7969 424.5,404.7969 C425.0781,404.7969 425.6875,404.9531 426.1563,405.2031 C426.6406,405.4844 426.8125,405.7031 426.9063,406.1094 C426.9688,406.5156 427,406.6406 427.1406,406.7656 C427.2813,406.9063 427.5156,407.0156 427.7344,407.0156 C428,407.0156 428.2656,406.875 428.4375,406.6563 C428.5469,406.5 428.5781,406.3125 428.5781,405.8906 L428.5781,404.4688 C428.5781,404.0313 428.5625,403.9063 428.4688,403.75 C428.3125,403.4844 428.0313,403.3438 427.7344,403.3438 C427.4375,403.3438 427.2344,403.4375 427.0156,403.75 L426.8438,403.6719 Z " fill="#000000"/><text fill="#000000" font-family="sans-serif" font-size="12" lengthAdjust="spacingAndGlyphs" textLength="147" x="438.5" y="412.1543">usantatecla.utils.Console</text><line style="stroke:#A80036;stroke-width:1.5;" x1="410.5" x2="587.5" y1="424" y2="424"/><line style="stroke:#A80036;stroke-width:1.5;" x1="410.5" x2="587.5" y1="432" y2="432"/><!--MD5=[6b5fb949459e9919da652f12454cf9c5]
link tictactoe.views.ErrorView to Error--><path codeLine="9" d="M286,241.758 C286,241.758 286,341.7302 286,378.3181 " fill="none" id="tictactoe.views.ErrorView-Error" style="stroke:#A80036;stroke-width:1.0;"/><polygon fill="#A80036" points="286,391.7458,290,382.7458,286,386.7458,282,382.7458,286,391.7458" style="stroke:#A80036;stroke-width:1.0;"/><line style="stroke:#A80036;stroke-width:1.0;" x1="286" x2="286" y1="386.7458" y2="378.7458"/><polygon fill="#A80036" points="286,229.758,282,235.758,286,241.758,290,235.758,286,229.758" style="stroke:#A80036;stroke-width:1.0;"/><!--MD5=[c07da26758a9269fd0b37bd7c33bafaa]
link tictactoe.views.Message to Console--><path codeLine="33" d="M499,332.224 C499,352.8284 499,371.9653 499,386.6372 " fill="none" id="tictactoe.views.Message-to-Console" style="stroke:#A80036;stroke-width:1.0;stroke-dasharray:7.0,7.0;"/><polygon fill="#A80036" points="499,391.8351,503,382.8351,499,386.8351,495,382.8351,499,391.8351" style="stroke:#A80036;stroke-width:1.0;"/><!--MD5=[0b8f33ddda4111b77a3d06ea94f71cb5]
@startuml
enum Error as "tictactoe.types.Error" {}
class Console as "usantatecla.utils.Console" {}

class tictactoe.views.ErrorView{
  + {static} MESSAGES: String[]
  # error: Error
  + ErrorView(Error)
}
tictactoe.views.ErrorView *-down-> Error

enum tictactoe.views.Message{
  + TITTLE
  + NUMBER_PLAYERS
  + SEPARATOR
  + VERTICAL_LINE_LEFT
  + VERTICAL_LINE_CENTERED
  + VERTICAL_LINE_RIGHT
  + ENTER_COORDINATE_TO_PUT
  + ENTER_COORDINATE_TO_REMOVE
  + COORDINATE_TO_PUT
  + COORDINATE_TO_REMOVE
  + COORDINATE_TO_MOVE
  + PLAYER_WIN
  + RESUME
  - message: String
  - Message(String)
  + getMessage(): String
  + write()
  + writeln()
  + toString(): String
}

tictactoe.views.Message .down.> Console

abstract class tictactoe.views.View {
  + interact()
  # {abstract} start()
  # {abstract} play()
  # {abstract} isResumed(): boolean
}
@enduml

PlantUML version 1.2020.21beta7(Unknown compile time)
(GPL source distribution)
Java Runtime: Java(TM) SE Runtime Environment
JVM: Java HotSpot(TM) 64-Bit Server VM
Default Encoding: UTF-8
Language: en
Country: US
--></g></svg>