<?xml version="1.0" encoding="UTF-8" standalone="no"?><svg xmlns="http://www.w3.org/2000/svg" xmlns:xlink="http://www.w3.org/1999/xlink" contentScriptType="application/ecmascript" contentStyleType="text/css" height="284px" preserveAspectRatio="none" style="width:621px;height:284px;" version="1.1" viewBox="0 0 621 284" width="621px" zoomAndPan="magnify"><defs><filter height="300%" id="f1pf2h0ft9xjtw" width="300%" x="-1" y="-1"><feGaussianBlur result="blurOut" stdDeviation="2.0"/><feColorMatrix in="blurOut" result="blurOut2" type="matrix" values="0 0 0 0 0 0 0 0 0 0 0 0 0 0 0 0 0 0 .4 0"/><feOffset dx="4.0" dy="4.0" in="blurOut2" result="blurOut3"/><feBlend in="SourceGraphic" in2="blurOut3" mode="normal"/></filter></defs><g><!--MD5=[807bc46d8103c809ff053af9e140e1f5]
cluster tictactoe--><polygon fill="#FFFFFF" filter="url(#f1pf2h0ft9xjtw)" points="16,6,98,6,105,28.2969,212,28.2969,212,277,16,277,16,6" style="stroke:#000000;stroke-width:1.5;"/><line style="stroke:#000000;stroke-width:1.5;" x1="16" x2="105" y1="28.2969" y2="28.2969"/><text fill="#000000" font-family="sans-serif" font-size="14" font-weight="bold" lengthAdjust="spacingAndGlyphs" textLength="76" x="20" y="20.9951">tictactoe</text><!--MD5=[dcfee6ff2a733e6a859ce2b7bcbe021e]
class tictactoe.TicTacToe--><rect codeLine="4" fill="#FEFECE" filter="url(#f1pf2h0ft9xjtw)" height="86.4141" id="tictactoe.TicTacToe" style="stroke:#A80036;stroke-width:1.5;" width="161" x="34.5" y="41"/><ellipse cx="80.25" cy="57" fill="#ADD1B2" rx="11" ry="11" style="stroke:#A80036;stroke-width:1.0;"/><path d="M82.5938,52.6719 C81.6563,52.2344 81.0625,52.0938 80.1875,52.0938 C77.5625,52.0938 75.5625,54.1719 75.5625,56.8906 L75.5625,58.0156 C75.5625,60.5938 77.6719,62.4844 80.5625,62.4844 C81.7813,62.4844 82.9375,62.1875 83.6875,61.6406 C84.2656,61.2344 84.5938,60.7813 84.5938,60.3906 C84.5938,59.9375 84.2031,59.5469 83.7344,59.5469 C83.5156,59.5469 83.3125,59.625 83.125,59.8125 C82.6719,60.2969 82.6719,60.2969 82.4844,60.3906 C82.0625,60.6563 81.375,60.7813 80.6094,60.7813 C78.5625,60.7813 77.2656,59.6875 77.2656,57.9844 L77.2656,56.8906 C77.2656,55.1094 78.5156,53.7969 80.25,53.7969 C80.8281,53.7969 81.4375,53.9531 81.9063,54.2031 C82.3906,54.4844 82.5625,54.7031 82.6563,55.1094 C82.7188,55.5156 82.75,55.6406 82.8906,55.7656 C83.0313,55.9063 83.2656,56.0156 83.4844,56.0156 C83.75,56.0156 84.0156,55.875 84.1875,55.6563 C84.2969,55.5 84.3281,55.3125 84.3281,54.8906 L84.3281,53.4688 C84.3281,53.0313 84.3125,52.9063 84.2188,52.75 C84.0625,52.4844 83.7813,52.3438 83.4844,52.3438 C83.1875,52.3438 82.9844,52.4375 82.7656,52.75 L82.5938,52.6719 Z " fill="#000000"/><text fill="#000000" font-family="sans-serif" font-size="12" lengthAdjust="spacingAndGlyphs" textLength="61" x="100.75" y="61.1543">TicTacToe</text><line style="stroke:#A80036;stroke-width:1.5;" x1="35.5" x2="194.5" y1="73" y2="73"/><line style="stroke:#A80036;stroke-width:1.5;" x1="35.5" x2="194.5" y1="81" y2="81"/><polygon fill="#FFFF44" points="45.5,87,49.5,91,45.5,95,41.5,91" style="stroke:#B38D22;stroke-width:1.0;"/><text fill="#000000" font-family="sans-serif" font-size="11" lengthAdjust="spacingAndGlyphs" textLength="66" x="54.5" y="95.2104">TicTacToe()</text><polygon fill="#FFFF44" points="45.5,99.8047,49.5,103.8047,45.5,107.8047,41.5,103.8047" style="stroke:#B38D22;stroke-width:1.0;"/><text fill="#000000" font-family="sans-serif" font-size="11" font-style="italic" lengthAdjust="spacingAndGlyphs" textLength="135" x="54.5" y="108.0151">createView(Logic): View</text><polygon fill="#FFFF44" points="45.5,112.6094,49.5,116.6094,45.5,120.6094,41.5,116.6094" style="stroke:#B38D22;stroke-width:1.0;"/><text fill="#000000" font-family="sans-serif" font-size="11" lengthAdjust="spacingAndGlyphs" textLength="32" x="54.5" y="120.8198">play()</text><!--MD5=[d26da01265d646b7f841c2729736529c]
class tictactoe.ConsoleTicTacToe--><rect codeLine="12" fill="#FEFECE" filter="url(#f1pf2h0ft9xjtw)" height="73.6094" id="tictactoe.ConsoleTicTacToe" style="stroke:#A80036;stroke-width:1.5;" width="163" x="32.5" y="187"/><ellipse cx="56.95" cy="203" fill="#ADD1B2" rx="11" ry="11" style="stroke:#A80036;stroke-width:1.0;"/><path d="M59.2938,198.6719 C58.3563,198.2344 57.7625,198.0938 56.8875,198.0938 C54.2625,198.0938 52.2625,200.1719 52.2625,202.8906 L52.2625,204.0156 C52.2625,206.5938 54.3719,208.4844 57.2625,208.4844 C58.4813,208.4844 59.6375,208.1875 60.3875,207.6406 C60.9656,207.2344 61.2938,206.7813 61.2938,206.3906 C61.2938,205.9375 60.9031,205.5469 60.4344,205.5469 C60.2156,205.5469 60.0125,205.625 59.825,205.8125 C59.3719,206.2969 59.3719,206.2969 59.1844,206.3906 C58.7625,206.6563 58.075,206.7813 57.3094,206.7813 C55.2625,206.7813 53.9656,205.6875 53.9656,203.9844 L53.9656,202.8906 C53.9656,201.1094 55.2156,199.7969 56.95,199.7969 C57.5281,199.7969 58.1375,199.9531 58.6063,200.2031 C59.0906,200.4844 59.2625,200.7031 59.3563,201.1094 C59.4188,201.5156 59.45,201.6406 59.5906,201.7656 C59.7313,201.9063 59.9656,202.0156 60.1844,202.0156 C60.45,202.0156 60.7156,201.875 60.8875,201.6563 C60.9969,201.5 61.0281,201.3125 61.0281,200.8906 L61.0281,199.4688 C61.0281,199.0313 61.0125,198.9063 60.9188,198.75 C60.7625,198.4844 60.4813,198.3438 60.1844,198.3438 C59.8875,198.3438 59.6844,198.4375 59.4656,198.75 L59.2938,198.6719 Z " fill="#000000"/><text fill="#000000" font-family="sans-serif" font-size="12" lengthAdjust="spacingAndGlyphs" textLength="110" x="73.05" y="207.1543">ConsoleTicTacToe</text><line style="stroke:#A80036;stroke-width:1.5;" x1="33.5" x2="194.5" y1="219" y2="219"/><line style="stroke:#A80036;stroke-width:1.5;" x1="33.5" x2="194.5" y1="227" y2="227"/><ellipse cx="43.5" cy="238" fill="#84BE84" rx="3" ry="3" style="stroke:#038048;stroke-width:1.0;"/><text fill="#000000" font-family="sans-serif" font-size="11" lengthAdjust="spacingAndGlyphs" text-decoration="underline" textLength="77" x="52.5" y="241.2104">main(String[])</text><polygon fill="#FFFF44" points="43.5,245.8047,47.5,249.8047,43.5,253.8047,39.5,249.8047" style="stroke:#B38D22;stroke-width:1.0;"/><text fill="#000000" font-family="sans-serif" font-size="11" lengthAdjust="spacingAndGlyphs" textLength="137" x="52.5" y="254.0151">createView(Logic): View</text><!--MD5=[c045e12321b83266d36d22b9096c24ea]
class View--><rect codeLine="1" fill="#FEFECE" filter="url(#f1pf2h0ft9xjtw)" height="48" id="View" style="stroke:#A80036;stroke-width:1.5;" width="154" x="231" y="200"/><ellipse cx="246" cy="216" fill="#ADD1B2" rx="11" ry="11" style="stroke:#A80036;stroke-width:1.0;"/><path d="M248.3438,211.6719 C247.4063,211.2344 246.8125,211.0938 245.9375,211.0938 C243.3125,211.0938 241.3125,213.1719 241.3125,215.8906 L241.3125,217.0156 C241.3125,219.5938 243.4219,221.4844 246.3125,221.4844 C247.5313,221.4844 248.6875,221.1875 249.4375,220.6406 C250.0156,220.2344 250.3438,219.7813 250.3438,219.3906 C250.3438,218.9375 249.9531,218.5469 249.4844,218.5469 C249.2656,218.5469 249.0625,218.625 248.875,218.8125 C248.4219,219.2969 248.4219,219.2969 248.2344,219.3906 C247.8125,219.6563 247.125,219.7813 246.3594,219.7813 C244.3125,219.7813 243.0156,218.6875 243.0156,216.9844 L243.0156,215.8906 C243.0156,214.1094 244.2656,212.7969 246,212.7969 C246.5781,212.7969 247.1875,212.9531 247.6563,213.2031 C248.1406,213.4844 248.3125,213.7031 248.4063,214.1094 C248.4688,214.5156 248.5,214.6406 248.6406,214.7656 C248.7813,214.9063 249.0156,215.0156 249.2344,215.0156 C249.5,215.0156 249.7656,214.875 249.9375,214.6563 C250.0469,214.5 250.0781,214.3125 250.0781,213.8906 L250.0781,212.4688 C250.0781,212.0313 250.0625,211.9063 249.9688,211.75 C249.8125,211.4844 249.5313,211.3438 249.2344,211.3438 C248.9375,211.3438 248.7344,211.4375 248.5156,211.75 L248.3438,211.6719 Z " fill="#000000"/><text fill="#000000" font-family="sans-serif" font-size="12" lengthAdjust="spacingAndGlyphs" textLength="122" x="260" y="220.1543">tictactoe.views.View</text><line style="stroke:#A80036;stroke-width:1.5;" x1="232" x2="384" y1="232" y2="232"/><line style="stroke:#A80036;stroke-width:1.5;" x1="232" x2="384" y1="240" y2="240"/><!--MD5=[42fa18dda7351a0ae87d9497de925436]
class Logic--><rect codeLine="2" fill="#FEFECE" filter="url(#f1pf2h0ft9xjtw)" height="48" id="Logic" style="stroke:#A80036;stroke-width:1.5;" width="187" x="420.5" y="200"/><ellipse cx="435.5" cy="216" fill="#ADD1B2" rx="11" ry="11" style="stroke:#A80036;stroke-width:1.0;"/><path d="M437.8438,211.6719 C436.9063,211.2344 436.3125,211.0938 435.4375,211.0938 C432.8125,211.0938 430.8125,213.1719 430.8125,215.8906 L430.8125,217.0156 C430.8125,219.5938 432.9219,221.4844 435.8125,221.4844 C437.0313,221.4844 438.1875,221.1875 438.9375,220.6406 C439.5156,220.2344 439.8438,219.7813 439.8438,219.3906 C439.8438,218.9375 439.4531,218.5469 438.9844,218.5469 C438.7656,218.5469 438.5625,218.625 438.375,218.8125 C437.9219,219.2969 437.9219,219.2969 437.7344,219.3906 C437.3125,219.6563 436.625,219.7813 435.8594,219.7813 C433.8125,219.7813 432.5156,218.6875 432.5156,216.9844 L432.5156,215.8906 C432.5156,214.1094 433.7656,212.7969 435.5,212.7969 C436.0781,212.7969 436.6875,212.9531 437.1563,213.2031 C437.6406,213.4844 437.8125,213.7031 437.9063,214.1094 C437.9688,214.5156 438,214.6406 438.1406,214.7656 C438.2813,214.9063 438.5156,215.0156 438.7344,215.0156 C439,215.0156 439.2656,214.875 439.4375,214.6563 C439.5469,214.5 439.5781,214.3125 439.5781,213.8906 L439.5781,212.4688 C439.5781,212.0313 439.5625,211.9063 439.4688,211.75 C439.3125,211.4844 439.0313,211.3438 438.7344,211.3438 C438.4375,211.3438 438.2344,211.4375 438.0156,211.75 L437.8438,211.6719 Z " fill="#000000"/><text fill="#000000" font-family="sans-serif" font-size="12" lengthAdjust="spacingAndGlyphs" textLength="155" x="449.5" y="220.1543">tictactoe.controllers.Logic</text><line style="stroke:#A80036;stroke-width:1.5;" x1="421.5" x2="606.5" y1="232" y2="232"/><line style="stroke:#A80036;stroke-width:1.5;" x1="421.5" x2="606.5" y1="240" y2="240"/><!--MD5=[4244f9edb3d450aa4423a2442cdf3765]
link tictactoe.TicTacToe to View--><path codeLine="9" d="M183.7161,134.134 C183.7161,134.134 241.447,175.413 265.041,192.283 " fill="none" id="tictactoe.TicTacToe-View" style="stroke:#A80036;stroke-width:1.0;"/><polygon fill="#A80036" points="275.744,199.9359,270.7494,191.4475,271.6767,197.0278,266.0964,197.9551,275.744,199.9359" style="stroke:#A80036;stroke-width:1.0;"/><line style="stroke:#A80036;stroke-width:1.0;" x1="271.6767" x2="265.1685" y1="197.0278" y2="192.3744"/><polygon fill="#A80036" points="173.955,127.154,176.5089,133.8977,183.7161,134.134,181.1622,127.3903,173.955,127.154" style="stroke:#A80036;stroke-width:1.0;"/><!--MD5=[240f9be4867aaaeddfb4b1430878d4ce]
link tictactoe.TicTacToe to Logic--><path codeLine="10" d="M207.0846,116.8491 C207.0846,116.8491 369.386,172.983 434.601,195.5388 " fill="none" id="tictactoe.TicTacToe-Logic" style="stroke:#A80036;stroke-width:1.0;"/><polygon fill="#A80036" points="447.266,199.9189,440.0683,193.1963,442.5408,198.2842,437.4528,200.7567,447.266,199.9189" style="stroke:#A80036;stroke-width:1.0;"/><line style="stroke:#A80036;stroke-width:1.0;" x1="442.5408" x2="434.9795" y1="198.2842" y2="195.6698"/><polygon fill="#A80036" points="195.744,112.926,200.1066,118.6677,207.0846,116.8491,202.722,111.1073,195.744,112.926" style="stroke:#A80036;stroke-width:1.0;"/><!--MD5=[4e0ca678de8db9099731dcdc2b6658ba]
reverse link tictactoe.TicTacToe to tictactoe.ConsoleTicTacToe--><path codeLine="16" d="M114.546,147.623 C114.449,161.004 114.35,174.707 114.263,186.697 " fill="none" id="tictactoe.TicTacToe-backto-tictactoe.ConsoleTicTacToe" style="stroke:#A80036;stroke-width:1.0;"/><polygon fill="none" points="107.55,147.103,114.695,127.154,121.549,147.205,107.55,147.103" style="stroke:#A80036;stroke-width:1.0;"/><!--MD5=[5d1955b86bad8cc2bed44dd27d37ba4f]
@startuml
class View as "tictactoe.views.View" {}
class Logic as "tictactoe.controllers.Logic" {}

class tictactoe.TicTacToe{
  # TicTacToe()
  # {abstract} createView(Logic): View
  # play()
}
tictactoe.TicTacToe *-down-> View
tictactoe.TicTacToe *-down-> Logic

class tictactoe.ConsoleTicTacToe{
  + {static} main(String[])
  # createView(Logic): View
}
tictactoe.TicTacToe <|-down- tictactoe.ConsoleTicTacToe
@enduml

PlantUML version 1.2020.21beta7(Unknown compile time)
(GPL source distribution)
Java Runtime: Java(TM) SE Runtime Environment
JVM: Java HotSpot(TM) 64-Bit Server VM
Default Encoding: UTF-8
Language: en
Country: US
--></g></svg>