<?xml version="1.0" encoding="UTF-8" standalone="no"?><svg xmlns="http://www.w3.org/2000/svg" xmlns:xlink="http://www.w3.org/1999/xlink" contentScriptType="application/ecmascript" contentStyleType="text/css" height="284px" preserveAspectRatio="none" style="width:702px;height:284px;" version="1.1" viewBox="0 0 702 284" width="702px" zoomAndPan="magnify"><defs><filter height="300%" id="f1jcfotr7wjt4y" width="300%" x="-1" y="-1"><feGaussianBlur result="blurOut" stdDeviation="2.0"/><feColorMatrix in="blurOut" result="blurOut2" type="matrix" values="0 0 0 0 0 0 0 0 0 0 0 0 0 0 0 0 0 0 .4 0"/><feOffset dx="4.0" dy="4.0" in="blurOut2" result="blurOut3"/><feBlend in="SourceGraphic" in2="blurOut3" mode="normal"/></filter></defs><g><!--MD5=[807bc46d8103c809ff053af9e140e1f5]
cluster tictactoe--><polygon fill="#FFFFFF" filter="url(#f1jcfotr7wjt4y)" points="16,6,98,6,105,28.2969,212,28.2969,212,277,16,277,16,6" style="stroke:#000000;stroke-width:1.5;"/><line style="stroke:#000000;stroke-width:1.5;" x1="16" x2="105" y1="28.2969" y2="28.2969"/><text fill="#000000" font-family="sans-serif" font-size="14" font-weight="bold" lengthAdjust="spacingAndGlyphs" textLength="76" x="20" y="20.9951">tictactoe</text><!--MD5=[dcfee6ff2a733e6a859ce2b7bcbe021e]
class tictactoe.TicTacToe--><rect codeLine="4" fill="#FEFECE" filter="url(#f1jcfotr7wjt4y)" height="86.4141" id="tictactoe.TicTacToe" style="stroke:#A80036;stroke-width:1.5;" width="161" x="34.5" y="41"/><ellipse cx="80.25" cy="57" fill="#ADD1B2" rx="11" ry="11" style="stroke:#A80036;stroke-width:1.0;"/><path d="M82.5938,52.6719 C81.6563,52.2344 81.0625,52.0938 80.1875,52.0938 C77.5625,52.0938 75.5625,54.1719 75.5625,56.8906 L75.5625,58.0156 C75.5625,60.5938 77.6719,62.4844 80.5625,62.4844 C81.7813,62.4844 82.9375,62.1875 83.6875,61.6406 C84.2656,61.2344 84.5938,60.7813 84.5938,60.3906 C84.5938,59.9375 84.2031,59.5469 83.7344,59.5469 C83.5156,59.5469 83.3125,59.625 83.125,59.8125 C82.6719,60.2969 82.6719,60.2969 82.4844,60.3906 C82.0625,60.6563 81.375,60.7813 80.6094,60.7813 C78.5625,60.7813 77.2656,59.6875 77.2656,57.9844 L77.2656,56.8906 C77.2656,55.1094 78.5156,53.7969 80.25,53.7969 C80.8281,53.7969 81.4375,53.9531 81.9063,54.2031 C82.3906,54.4844 82.5625,54.7031 82.6563,55.1094 C82.7188,55.5156 82.75,55.6406 82.8906,55.7656 C83.0313,55.9063 83.2656,56.0156 83.4844,56.0156 C83.75,56.0156 84.0156,55.875 84.1875,55.6563 C84.2969,55.5 84.3281,55.3125 84.3281,54.8906 L84.3281,53.4688 C84.3281,53.0313 84.3125,52.9063 84.2188,52.75 C84.0625,52.4844 83.7813,52.3438 83.4844,52.3438 C83.1875,52.3438 82.9844,52.4375 82.7656,52.75 L82.5938,52.6719 Z " fill="#000000"/><text fill="#000000" font-family="sans-serif" font-size="12" lengthAdjust="spacingAndGlyphs" textLength="61" x="100.75" y="61.1543">TicTacToe</text><line style="stroke:#A80036;stroke-width:1.5;" x1="35.5" x2="194.5" y1="73" y2="73"/><line style="stroke:#A80036;stroke-width:1.5;" x1="35.5" x2="194.5" y1="81" y2="81"/><polygon fill="#FFFF44" points="45.5,87,49.5,91,45.5,95,41.5,91" style="stroke:#B38D22;stroke-width:1.0;"/><text fill="#000000" font-family="sans-serif" font-size="11" lengthAdjust="spacingAndGlyphs" textLength="66" x="54.5" y="95.2104">TicTacToe()</text><polygon fill="#FFFF44" points="45.5,99.8047,49.5,103.8047,45.5,107.8047,41.5,103.8047" style="stroke:#B38D22;stroke-width:1.0;"/><text fill="#000000" font-family="sans-serif" font-size="11" font-style="italic" lengthAdjust="spacingAndGlyphs" textLength="135" x="54.5" y="108.0151">createView(Logic): View</text><polygon fill="#FFFF44" points="45.5,112.6094,49.5,116.6094,45.5,120.6094,41.5,116.6094" style="stroke:#B38D22;stroke-width:1.0;"/><text fill="#000000" font-family="sans-serif" font-size="11" lengthAdjust="spacingAndGlyphs" textLength="32" x="54.5" y="120.8198">play()</text><!--MD5=[d26da01265d646b7f841c2729736529c]
class tictactoe.ConsoleTicTacToe--><rect codeLine="12" fill="#FEFECE" filter="url(#f1jcfotr7wjt4y)" height="73.6094" id="tictactoe.ConsoleTicTacToe" style="stroke:#A80036;stroke-width:1.5;" width="163" x="32.5" y="187"/><ellipse cx="56.95" cy="203" fill="#ADD1B2" rx="11" ry="11" style="stroke:#A80036;stroke-width:1.0;"/><path d="M59.2938,198.6719 C58.3563,198.2344 57.7625,198.0938 56.8875,198.0938 C54.2625,198.0938 52.2625,200.1719 52.2625,202.8906 L52.2625,204.0156 C52.2625,206.5938 54.3719,208.4844 57.2625,208.4844 C58.4813,208.4844 59.6375,208.1875 60.3875,207.6406 C60.9656,207.2344 61.2938,206.7813 61.2938,206.3906 C61.2938,205.9375 60.9031,205.5469 60.4344,205.5469 C60.2156,205.5469 60.0125,205.625 59.825,205.8125 C59.3719,206.2969 59.3719,206.2969 59.1844,206.3906 C58.7625,206.6563 58.075,206.7813 57.3094,206.7813 C55.2625,206.7813 53.9656,205.6875 53.9656,203.9844 L53.9656,202.8906 C53.9656,201.1094 55.2156,199.7969 56.95,199.7969 C57.5281,199.7969 58.1375,199.9531 58.6063,200.2031 C59.0906,200.4844 59.2625,200.7031 59.3563,201.1094 C59.4188,201.5156 59.45,201.6406 59.5906,201.7656 C59.7313,201.9063 59.9656,202.0156 60.1844,202.0156 C60.45,202.0156 60.7156,201.875 60.8875,201.6563 C60.9969,201.5 61.0281,201.3125 61.0281,200.8906 L61.0281,199.4688 C61.0281,199.0313 61.0125,198.9063 60.9188,198.75 C60.7625,198.4844 60.4813,198.3438 60.1844,198.3438 C59.8875,198.3438 59.6844,198.4375 59.4656,198.75 L59.2938,198.6719 Z " fill="#000000"/><text fill="#000000" font-family="sans-serif" font-size="12" lengthAdjust="spacingAndGlyphs" textLength="110" x="73.05" y="207.1543">ConsoleTicTacToe</text><line style="stroke:#A80036;stroke-width:1.5;" x1="33.5" x2="194.5" y1="219" y2="219"/><line style="stroke:#A80036;stroke-width:1.5;" x1="33.5" x2="194.5" y1="227" y2="227"/><ellipse cx="43.5" cy="238" fill="#84BE84" rx="3" ry="3" style="stroke:#038048;stroke-width:1.0;"/><text fill="#000000" font-family="sans-serif" font-size="11" lengthAdjust="spacingAndGlyphs" text-decoration="underline" textLength="77" x="52.5" y="241.2104">main(String[])</text><polygon fill="#FFFF44" points="43.5,245.8047,47.5,249.8047,43.5,253.8047,39.5,249.8047" style="stroke:#B38D22;stroke-width:1.0;"/><text fill="#000000" font-family="sans-serif" font-size="11" lengthAdjust="spacingAndGlyphs" textLength="137" x="52.5" y="254.0151">createView(Logic): View</text><!--MD5=[c045e12321b83266d36d22b9096c24ea]
class View--><rect codeLine="1" fill="#FEFECE" filter="url(#f1jcfotr7wjt4y)" height="53.9375" id="View" style="stroke:#A80036;stroke-width:1.5;" width="196" x="231" y="197"/><ellipse cx="246" cy="215.9688" fill="#ADD1B2" rx="11" ry="11" style="stroke:#A80036;stroke-width:1.0;"/><path d="M248.3438,211.6406 C247.4063,211.2031 246.8125,211.0625 245.9375,211.0625 C243.3125,211.0625 241.3125,213.1406 241.3125,215.8594 L241.3125,216.9844 C241.3125,219.5625 243.4219,221.4531 246.3125,221.4531 C247.5313,221.4531 248.6875,221.1563 249.4375,220.6094 C250.0156,220.2031 250.3438,219.75 250.3438,219.3594 C250.3438,218.9063 249.9531,218.5156 249.4844,218.5156 C249.2656,218.5156 249.0625,218.5938 248.875,218.7813 C248.4219,219.2656 248.4219,219.2656 248.2344,219.3594 C247.8125,219.625 247.125,219.75 246.3594,219.75 C244.3125,219.75 243.0156,218.6563 243.0156,216.9531 L243.0156,215.8594 C243.0156,214.0781 244.2656,212.7656 246,212.7656 C246.5781,212.7656 247.1875,212.9219 247.6563,213.1719 C248.1406,213.4531 248.3125,213.6719 248.4063,214.0781 C248.4688,214.4844 248.5,214.6094 248.6406,214.7344 C248.7813,214.875 249.0156,214.9844 249.2344,214.9844 C249.5,214.9844 249.7656,214.8438 249.9375,214.625 C250.0469,214.4688 250.0781,214.2813 250.0781,213.8594 L250.0781,212.4375 C250.0781,212 250.0625,211.875 249.9688,211.7188 C249.8125,211.4531 249.5313,211.3125 249.2344,211.3125 C248.9375,211.3125 248.7344,211.4063 248.5156,211.7188 L248.3438,211.6406 Z " fill="#000000"/><text fill="#000000" font-family="sans-serif" font-size="12" lengthAdjust="spacingAndGlyphs" textLength="164" x="260" y="213.1387">usantatecla.tictactoe.views.</text><text fill="#000000" font-family="sans-serif" font-size="12" lengthAdjust="spacingAndGlyphs" textLength="29" x="327.5" y="227.1074">View</text><line style="stroke:#A80036;stroke-width:1.5;" x1="232" x2="426" y1="234.9375" y2="234.9375"/><line style="stroke:#A80036;stroke-width:1.5;" x1="232" x2="426" y1="242.9375" y2="242.9375"/><!--MD5=[42fa18dda7351a0ae87d9497de925436]
class Logic--><rect codeLine="2" fill="#FEFECE" filter="url(#f1jcfotr7wjt4y)" height="53.9375" id="Logic" style="stroke:#A80036;stroke-width:1.5;" width="226" x="462" y="197"/><ellipse cx="477" cy="215.9688" fill="#ADD1B2" rx="11" ry="11" style="stroke:#A80036;stroke-width:1.0;"/><path d="M479.3438,211.6406 C478.4063,211.2031 477.8125,211.0625 476.9375,211.0625 C474.3125,211.0625 472.3125,213.1406 472.3125,215.8594 L472.3125,216.9844 C472.3125,219.5625 474.4219,221.4531 477.3125,221.4531 C478.5313,221.4531 479.6875,221.1563 480.4375,220.6094 C481.0156,220.2031 481.3438,219.75 481.3438,219.3594 C481.3438,218.9063 480.9531,218.5156 480.4844,218.5156 C480.2656,218.5156 480.0625,218.5938 479.875,218.7813 C479.4219,219.2656 479.4219,219.2656 479.2344,219.3594 C478.8125,219.625 478.125,219.75 477.3594,219.75 C475.3125,219.75 474.0156,218.6563 474.0156,216.9531 L474.0156,215.8594 C474.0156,214.0781 475.2656,212.7656 477,212.7656 C477.5781,212.7656 478.1875,212.9219 478.6563,213.1719 C479.1406,213.4531 479.3125,213.6719 479.4063,214.0781 C479.4688,214.4844 479.5,214.6094 479.6406,214.7344 C479.7813,214.875 480.0156,214.9844 480.2344,214.9844 C480.5,214.9844 480.7656,214.8438 480.9375,214.625 C481.0469,214.4688 481.0781,214.2813 481.0781,213.8594 L481.0781,212.4375 C481.0781,212 481.0625,211.875 480.9688,211.7188 C480.8125,211.4531 480.5313,211.3125 480.2344,211.3125 C479.9375,211.3125 479.7344,211.4063 479.5156,211.7188 L479.3438,211.6406 Z " fill="#000000"/><text fill="#000000" font-family="sans-serif" font-size="12" lengthAdjust="spacingAndGlyphs" textLength="194" x="491" y="213.1387">usantatecla.tictactoe.controllers.</text><text fill="#000000" font-family="sans-serif" font-size="12" lengthAdjust="spacingAndGlyphs" textLength="32" x="572" y="227.1074">Logic</text><line style="stroke:#A80036;stroke-width:1.5;" x1="463" x2="687" y1="234.9375" y2="234.9375"/><line style="stroke:#A80036;stroke-width:1.5;" x1="463" x2="687" y1="242.9375" y2="242.9375"/><!--MD5=[4244f9edb3d450aa4423a2442cdf3765]
link tictactoe.TicTacToe to View--><path codeLine="9" d="M190.4549,133.6575 C190.4549,133.6575 251.695,173.149 277.515,189.799 " fill="none" id="tictactoe.TicTacToe-View" style="stroke:#A80036;stroke-width:1.0;"/><polygon fill="#A80036" points="288.556,196.9191,283.1604,188.6797,284.354,194.2092,278.8246,195.4029,288.556,196.9191" style="stroke:#A80036;stroke-width:1.0;"/><line style="stroke:#A80036;stroke-width:1.0;" x1="284.354" x2="277.63" y1="194.2092" y2="189.8738"/><polygon fill="#A80036" points="180.37,127.154,183.2446,133.7674,190.4549,133.6575,187.5803,127.0441,180.37,127.154" style="stroke:#A80036;stroke-width:1.0;"/><!--MD5=[240f9be4867aaaeddfb4b1430878d4ce]
link tictactoe.TicTacToe to Logic--><path codeLine="10" d="M207.1462,112.6432 C207.1462,112.6432 396.361,169.408 475.716,193.2149 " fill="none" id="tictactoe.TicTacToe-Logic" style="stroke:#A80036;stroke-width:1.0;"/><polygon fill="#A80036" points="488.176,196.9527,480.705,190.5352,483.3869,195.5159,478.4062,198.1977,488.176,196.9527" style="stroke:#A80036;stroke-width:1.0;"/><line style="stroke:#A80036;stroke-width:1.0;" x1="483.3869" x2="475.7235" y1="195.5159" y2="193.2171"/><polygon fill="#A80036" points="195.652,109.196,200.25,114.751,207.1462,112.6432,202.5482,107.0882,195.652,109.196" style="stroke:#A80036;stroke-width:1.0;"/><!--MD5=[4e0ca678de8db9099731dcdc2b6658ba]
reverse link tictactoe.TicTacToe to tictactoe.ConsoleTicTacToe--><path codeLine="16" d="M114.546,147.623 C114.449,161.004 114.35,174.707 114.263,186.697 " fill="none" id="tictactoe.TicTacToe-backto-tictactoe.ConsoleTicTacToe" style="stroke:#A80036;stroke-width:1.0;"/><polygon fill="none" points="107.55,147.103,114.695,127.154,121.549,147.205,107.55,147.103" style="stroke:#A80036;stroke-width:1.0;"/><!--MD5=[3f2f1a61a65075a7f8ab6db935de7d09]
@startuml
class View as "usantatecla.tictactoe.views.\nView" {}
class Logic as "usantatecla.tictactoe.controllers.\nLogic" {}

class tictactoe.TicTacToe{
  # TicTacToe()
  # {abstract} createView(Logic): View
  # play()
}
tictactoe.TicTacToe *-down-> View
tictactoe.TicTacToe *-down-> Logic

class tictactoe.ConsoleTicTacToe{
  + {static} main(String[])
  # createView(Logic): View
}
tictactoe.TicTacToe <|-down- tictactoe.ConsoleTicTacToe
@enduml

PlantUML version 1.2020.21beta7(Unknown compile time)
(GPL source distribution)
Java Runtime: Java(TM) SE Runtime Environment
JVM: Java HotSpot(TM) 64-Bit Server VM
Default Encoding: UTF-8
Language: en
Country: US
--></g></svg>