<?xml version="1.0" encoding="UTF-8" standalone="no"?><svg xmlns="http://www.w3.org/2000/svg" xmlns:xlink="http://www.w3.org/1999/xlink" contentScriptType="application/ecmascript" contentStyleType="text/css" height="1276px" preserveAspectRatio="none" style="width:1019px;height:1276px;" version="1.1" viewBox="0 0 1019 1276" width="1019px" zoomAndPan="magnify"><defs><filter height="300%" id="fnfy3rbxdh8oi" width="300%" x="-1" y="-1"><feGaussianBlur result="blurOut" stdDeviation="2.0"/><feColorMatrix in="blurOut" result="blurOut2" type="matrix" values="0 0 0 0 0 0 0 0 0 0 0 0 0 0 0 0 0 0 .4 0"/><feOffset dx="4.0" dy="4.0" in="blurOut2" result="blurOut3"/><feBlend in="SourceGraphic" in2="blurOut3" mode="normal"/></filter></defs><g><!--MD5=[51cd642fcc96b47682a93d9084d46dec]
cluster tictactoe.models--><polygon fill="#FFFFFF" filter="url(#fnfy3rbxdh8oi)" points="218.5,6,363.5,6,370.5,28.2969,630.5,28.2969,630.5,1165,218.5,1165,218.5,6" style="stroke:#000000;stroke-width:1.5;"/><line style="stroke:#000000;stroke-width:1.5;" x1="218.5" x2="370.5" y1="28.2969" y2="28.2969"/><text fill="#000000" font-family="sans-serif" font-size="14" font-weight="bold" lengthAdjust="spacingAndGlyphs" textLength="139" x="222.5" y="20.9951">tictactoe.models</text><!--MD5=[8d3188f3c370ea7d5d91d12bca83b67a]
class tictactoe.models.Game--><rect codeLine="7" fill="#FEFECE" filter="url(#fnfy3rbxdh8oi)" height="201.6563" id="tictactoe.models.Game" style="stroke:#A80036;stroke-width:1.5;" width="231" x="355" y="41"/><ellipse cx="448.75" cy="57" fill="#ADD1B2" rx="11" ry="11" style="stroke:#A80036;stroke-width:1.0;"/><path d="M451.0938,52.6719 C450.1563,52.2344 449.5625,52.0938 448.6875,52.0938 C446.0625,52.0938 444.0625,54.1719 444.0625,56.8906 L444.0625,58.0156 C444.0625,60.5938 446.1719,62.4844 449.0625,62.4844 C450.2813,62.4844 451.4375,62.1875 452.1875,61.6406 C452.7656,61.2344 453.0938,60.7813 453.0938,60.3906 C453.0938,59.9375 452.7031,59.5469 452.2344,59.5469 C452.0156,59.5469 451.8125,59.625 451.625,59.8125 C451.1719,60.2969 451.1719,60.2969 450.9844,60.3906 C450.5625,60.6563 449.875,60.7813 449.1094,60.7813 C447.0625,60.7813 445.7656,59.6875 445.7656,57.9844 L445.7656,56.8906 C445.7656,55.1094 447.0156,53.7969 448.75,53.7969 C449.3281,53.7969 449.9375,53.9531 450.4063,54.2031 C450.8906,54.4844 451.0625,54.7031 451.1563,55.1094 C451.2188,55.5156 451.25,55.6406 451.3906,55.7656 C451.5313,55.9063 451.7656,56.0156 451.9844,56.0156 C452.25,56.0156 452.5156,55.875 452.6875,55.6563 C452.7969,55.5 452.8281,55.3125 452.8281,54.8906 L452.8281,53.4688 C452.8281,53.0313 452.8125,52.9063 452.7188,52.75 C452.5625,52.4844 452.2813,52.3438 451.9844,52.3438 C451.6875,52.3438 451.4844,52.4375 451.2656,52.75 L451.0938,52.6719 Z " fill="#000000"/><text fill="#000000" font-family="sans-serif" font-size="12" lengthAdjust="spacingAndGlyphs" textLength="35" x="469.25" y="61.1543">Game</text><line style="stroke:#A80036;stroke-width:1.5;" x1="356" x2="585" y1="73" y2="73"/><line style="stroke:#A80036;stroke-width:1.5;" x1="356" x2="585" y1="81" y2="81"/><ellipse cx="366" cy="92" fill="#84BE84" rx="3" ry="3" style="stroke:#038048;stroke-width:1.0;"/><text fill="#000000" font-family="sans-serif" font-size="11" lengthAdjust="spacingAndGlyphs" textLength="43" x="375" y="95.2104">Game()</text><ellipse cx="366" cy="104.8047" fill="#84BE84" rx="3" ry="3" style="stroke:#038048;stroke-width:1.0;"/><text fill="#000000" font-family="sans-serif" font-size="11" lengthAdjust="spacingAndGlyphs" textLength="38" x="375" y="108.0151">reset()</text><ellipse cx="366" cy="117.6094" fill="#84BE84" rx="3" ry="3" style="stroke:#038048;stroke-width:1.0;"/><text fill="#000000" font-family="sans-serif" font-size="11" lengthAdjust="spacingAndGlyphs" textLength="72" x="375" y="120.8198">setUsers(int)</text><ellipse cx="366" cy="130.4141" fill="#84BE84" rx="3" ry="3" style="stroke:#038048;stroke-width:1.0;"/><text fill="#000000" font-family="sans-serif" font-size="11" lengthAdjust="spacingAndGlyphs" textLength="159" x="375" y="133.6245">isBoardComplete(): boolean</text><ellipse cx="366" cy="143.2188" fill="#84BE84" rx="3" ry="3" style="stroke:#038048;stroke-width:1.0;"/><text fill="#000000" font-family="sans-serif" font-size="11" lengthAdjust="spacingAndGlyphs" textLength="96" x="375" y="146.4292">isUser(): boolean</text><ellipse cx="366" cy="156.0234" fill="#84BE84" rx="3" ry="3" style="stroke:#038048;stroke-width:1.0;"/><text fill="#000000" font-family="sans-serif" font-size="11" lengthAdjust="spacingAndGlyphs" textLength="121" x="375" y="159.2339">put(Coordinate): Error</text><ellipse cx="366" cy="168.8281" fill="#84BE84" rx="3" ry="3" style="stroke:#038048;stroke-width:1.0;"/><text fill="#000000" font-family="sans-serif" font-size="11" lengthAdjust="spacingAndGlyphs" textLength="205" x="375" y="172.0386">move(Coordinate, Coordinate): Error</text><ellipse cx="366" cy="181.6328" fill="#84BE84" rx="3" ry="3" style="stroke:#038048;stroke-width:1.0;"/><text fill="#000000" font-family="sans-serif" font-size="11" lengthAdjust="spacingAndGlyphs" textLength="34" x="375" y="184.8433">next()</text><ellipse cx="366" cy="194.4375" fill="#84BE84" rx="3" ry="3" style="stroke:#038048;stroke-width:1.0;"/><text fill="#000000" font-family="sans-serif" font-size="11" lengthAdjust="spacingAndGlyphs" textLength="128" x="375" y="197.6479">isTicTacToe(): boolean</text><ellipse cx="366" cy="207.2422" fill="#84BE84" rx="3" ry="3" style="stroke:#038048;stroke-width:1.0;"/><text fill="#000000" font-family="sans-serif" font-size="11" lengthAdjust="spacingAndGlyphs" textLength="166" x="375" y="210.4526">getToken(Coordinate): Token</text><ellipse cx="366" cy="220.0469" fill="#84BE84" rx="3" ry="3" style="stroke:#038048;stroke-width:1.0;"/><text fill="#000000" font-family="sans-serif" font-size="11" lengthAdjust="spacingAndGlyphs" textLength="104" x="375" y="223.2573">getToken(): Token</text><ellipse cx="366" cy="232.8516" fill="#84BE84" rx="3" ry="3" style="stroke:#038048;stroke-width:1.0;"/><text fill="#000000" font-family="sans-serif" font-size="11" lengthAdjust="spacingAndGlyphs" textLength="112" x="375" y="236.062">getMaxPlayers(): int</text><!--MD5=[f2254b5fdbf93effa50eb20dc057829b]
class tictactoe.models.Board--><rect codeLine="26" fill="#FEFECE" filter="url(#fnfy3rbxdh8oi)" height="188.8516" id="tictactoe.models.Board" style="stroke:#A80036;stroke-width:1.5;" width="262" x="234.5" y="711"/><ellipse cx="343.25" cy="727" fill="#ADD1B2" rx="11" ry="11" style="stroke:#A80036;stroke-width:1.0;"/><path d="M345.5938,722.6719 C344.6563,722.2344 344.0625,722.0938 343.1875,722.0938 C340.5625,722.0938 338.5625,724.1719 338.5625,726.8906 L338.5625,728.0156 C338.5625,730.5938 340.6719,732.4844 343.5625,732.4844 C344.7813,732.4844 345.9375,732.1875 346.6875,731.6406 C347.2656,731.2344 347.5938,730.7813 347.5938,730.3906 C347.5938,729.9375 347.2031,729.5469 346.7344,729.5469 C346.5156,729.5469 346.3125,729.625 346.125,729.8125 C345.6719,730.2969 345.6719,730.2969 345.4844,730.3906 C345.0625,730.6563 344.375,730.7813 343.6094,730.7813 C341.5625,730.7813 340.2656,729.6875 340.2656,727.9844 L340.2656,726.8906 C340.2656,725.1094 341.5156,723.7969 343.25,723.7969 C343.8281,723.7969 344.4375,723.9531 344.9063,724.2031 C345.3906,724.4844 345.5625,724.7031 345.6563,725.1094 C345.7188,725.5156 345.75,725.6406 345.8906,725.7656 C346.0313,725.9063 346.2656,726.0156 346.4844,726.0156 C346.75,726.0156 347.0156,725.875 347.1875,725.6563 C347.2969,725.5 347.3281,725.3125 347.3281,724.8906 L347.3281,723.4688 C347.3281,723.0313 347.3125,722.9063 347.2188,722.75 C347.0625,722.4844 346.7813,722.3438 346.4844,722.3438 C346.1875,722.3438 345.9844,722.4375 345.7656,722.75 L345.5938,722.6719 Z " fill="#000000"/><text fill="#000000" font-family="sans-serif" font-size="12" lengthAdjust="spacingAndGlyphs" textLength="36" x="363.75" y="731.1543">Board</text><line style="stroke:#A80036;stroke-width:1.5;" x1="235.5" x2="495.5" y1="743" y2="743"/><line style="stroke:#A80036;stroke-width:1.5;" x1="235.5" x2="495.5" y1="751" y2="751"/><ellipse cx="245.5" cy="762" fill="#84BE84" rx="3" ry="3" style="stroke:#038048;stroke-width:1.0;"/><text fill="#000000" font-family="sans-serif" font-size="11" lengthAdjust="spacingAndGlyphs" textLength="41" x="254.5" y="765.2104">Board()</text><polygon fill="#4177AF" points="245.5,770.8047,241.5,776.8047,249.5,776.8047" style="stroke:#1963A0;stroke-width:1.0;"/><text fill="#000000" font-family="sans-serif" font-size="11" lengthAdjust="spacingAndGlyphs" textLength="38" x="254.5" y="778.0151">reset()</text><polygon fill="#4177AF" points="245.5,783.6094,241.5,789.6094,249.5,789.6094" style="stroke:#1963A0;stroke-width:1.0;"/><text fill="#000000" font-family="sans-serif" font-size="11" lengthAdjust="spacingAndGlyphs" textLength="166" x="254.5" y="790.8198">getToken(Coordinate): Token</text><polygon fill="#4177AF" points="245.5,796.4141,241.5,802.4141,249.5,802.4141" style="stroke:#1963A0;stroke-width:1.0;"/><text fill="#000000" font-family="sans-serif" font-size="11" lengthAdjust="spacingAndGlyphs" textLength="133" x="254.5" y="803.6245">isCompleted(): boolean</text><polygon fill="#4177AF" points="245.5,809.2188,241.5,815.2188,249.5,815.2188" style="stroke:#1963A0;stroke-width:1.0;"/><text fill="#000000" font-family="sans-serif" font-size="11" lengthAdjust="spacingAndGlyphs" textLength="130" x="254.5" y="816.4292">put(Coordinate, Token)</text><polygon fill="#4177AF" points="245.5,822.0234,241.5,828.0234,249.5,828.0234" style="stroke:#1963A0;stroke-width:1.0;"/><text fill="#000000" font-family="sans-serif" font-size="11" lengthAdjust="spacingAndGlyphs" textLength="172" x="254.5" y="829.2339">move(Coordinate, Coordinate)</text><rect fill="#F24D5C" height="6" style="stroke:#C82930;stroke-width:1.0;" width="6" x="242.5" y="835.8281"/><text fill="#000000" font-family="sans-serif" font-size="11" lengthAdjust="spacingAndGlyphs" textLength="115" x="254.5" y="842.0386">remove(Coordinate)</text><polygon fill="#4177AF" points="245.5,847.6328,241.5,853.6328,249.5,853.6328" style="stroke:#1963A0;stroke-width:1.0;"/><text fill="#000000" font-family="sans-serif" font-size="11" lengthAdjust="spacingAndGlyphs" textLength="227" x="254.5" y="854.8433">isOccupied(Coordinate, Token): boolean</text><polygon fill="#4177AF" points="245.5,860.4375,241.5,866.4375,249.5,866.4375" style="stroke:#1963A0;stroke-width:1.0;"/><text fill="#000000" font-family="sans-serif" font-size="11" lengthAdjust="spacingAndGlyphs" textLength="168" x="254.5" y="867.6479">isEmpty(Coordinate): boolean</text><polygon fill="#4177AF" points="245.5,873.2422,241.5,879.2422,249.5,879.2422" style="stroke:#1963A0;stroke-width:1.0;"/><text fill="#000000" font-family="sans-serif" font-size="11" lengthAdjust="spacingAndGlyphs" textLength="163" x="254.5" y="880.4526">isTicTacToe(Token): boolean</text><rect fill="#F24D5C" height="6" style="stroke:#C82930;stroke-width:1.0;" width="6" x="242.5" y="887.0469"/><text fill="#000000" font-family="sans-serif" font-size="11" lengthAdjust="spacingAndGlyphs" textLength="236" x="254.5" y="893.2573">getCoordinates(Token): List&lt;Coordinate&gt;</text><!--MD5=[b42b9147ed7462532394f7fe6f96703d]
class tictactoe.models.Turn--><rect codeLine="44" fill="#FEFECE" filter="url(#fnfy3rbxdh8oi)" height="188.8516" id="tictactoe.models.Turn" style="stroke:#A80036;stroke-width:1.5;" width="231" x="327" y="303"/><ellipse cx="425.25" cy="319" fill="#ADD1B2" rx="11" ry="11" style="stroke:#A80036;stroke-width:1.0;"/><path d="M427.5938,314.6719 C426.6563,314.2344 426.0625,314.0938 425.1875,314.0938 C422.5625,314.0938 420.5625,316.1719 420.5625,318.8906 L420.5625,320.0156 C420.5625,322.5938 422.6719,324.4844 425.5625,324.4844 C426.7813,324.4844 427.9375,324.1875 428.6875,323.6406 C429.2656,323.2344 429.5938,322.7813 429.5938,322.3906 C429.5938,321.9375 429.2031,321.5469 428.7344,321.5469 C428.5156,321.5469 428.3125,321.625 428.125,321.8125 C427.6719,322.2969 427.6719,322.2969 427.4844,322.3906 C427.0625,322.6563 426.375,322.7813 425.6094,322.7813 C423.5625,322.7813 422.2656,321.6875 422.2656,319.9844 L422.2656,318.8906 C422.2656,317.1094 423.5156,315.7969 425.25,315.7969 C425.8281,315.7969 426.4375,315.9531 426.9063,316.2031 C427.3906,316.4844 427.5625,316.7031 427.6563,317.1094 C427.7188,317.5156 427.75,317.6406 427.8906,317.7656 C428.0313,317.9063 428.2656,318.0156 428.4844,318.0156 C428.75,318.0156 429.0156,317.875 429.1875,317.6563 C429.2969,317.5 429.3281,317.3125 429.3281,316.8906 L429.3281,315.4688 C429.3281,315.0313 429.3125,314.9063 429.2188,314.75 C429.0625,314.4844 428.7813,314.3438 428.4844,314.3438 C428.1875,314.3438 427.9844,314.4375 427.7656,314.75 L427.5938,314.6719 Z " fill="#000000"/><text fill="#000000" font-family="sans-serif" font-size="12" lengthAdjust="spacingAndGlyphs" textLength="26" x="445.75" y="323.1543">Turn</text><line style="stroke:#A80036;stroke-width:1.5;" x1="328" x2="557" y1="335" y2="335"/><ellipse cx="338" cy="346" fill="none" rx="3" ry="3" style="stroke:#038048;stroke-width:1.0;"/><text fill="#000000" font-family="sans-serif" font-size="11" lengthAdjust="spacingAndGlyphs" text-decoration="underline" textLength="101" x="347" y="349.2104">NUM_PLAYERS: int</text><rect fill="none" height="6" style="stroke:#C82930;stroke-width:1.0;" width="6" x="335" y="355.8047"/><text fill="#000000" font-family="sans-serif" font-size="11" lengthAdjust="spacingAndGlyphs" textLength="56" x="347" y="362.0151">active: int</text><rect fill="none" height="6" style="stroke:#C82930;stroke-width:1.0;" width="6" x="335" y="368.6094"/><text fill="#000000" font-family="sans-serif" font-size="11" lengthAdjust="spacingAndGlyphs" textLength="52" x="347" y="374.8198">users: int</text><line style="stroke:#A80036;stroke-width:1.5;" x1="328" x2="557" y1="381.4141" y2="381.4141"/><polygon fill="#4177AF" points="338,388.4141,334,394.4141,342,394.4141" style="stroke:#1963A0;stroke-width:1.0;"/><text fill="#000000" font-family="sans-serif" font-size="11" lengthAdjust="spacingAndGlyphs" textLength="66" x="347" y="395.6245">Turn(Board)</text><polygon fill="#4177AF" points="338,401.2188,334,407.2188,342,407.2188" style="stroke:#1963A0;stroke-width:1.0;"/><text fill="#000000" font-family="sans-serif" font-size="11" lengthAdjust="spacingAndGlyphs" textLength="72" x="347" y="408.4292">setUsers(int)</text><polygon fill="#4177AF" points="338,414.0234,334,420.0234,342,420.0234" style="stroke:#1963A0;stroke-width:1.0;"/><text fill="#000000" font-family="sans-serif" font-size="11" lengthAdjust="spacingAndGlyphs" textLength="34" x="347" y="421.2339">next()</text><polygon fill="#4177AF" points="338,426.8281,334,432.8281,342,432.8281" style="stroke:#1963A0;stroke-width:1.0;"/><text fill="#000000" font-family="sans-serif" font-size="11" lengthAdjust="spacingAndGlyphs" textLength="96" x="347" y="434.0386">isUser(): boolean</text><polygon fill="#4177AF" points="338,439.6328,334,445.6328,342,445.6328" style="stroke:#1963A0;stroke-width:1.0;"/><text fill="#000000" font-family="sans-serif" font-size="11" lengthAdjust="spacingAndGlyphs" textLength="121" x="347" y="446.8433">put(Coordinate): Error</text><rect fill="#F24D5C" height="6" style="stroke:#C82930;stroke-width:1.0;" width="6" x="335" y="453.4375"/><text fill="#000000" font-family="sans-serif" font-size="11" lengthAdjust="spacingAndGlyphs" textLength="104" x="347" y="459.6479">getPlayer(): Player</text><polygon fill="#4177AF" points="338,465.2422,334,471.2422,342,471.2422" style="stroke:#1963A0;stroke-width:1.0;"/><text fill="#000000" font-family="sans-serif" font-size="11" lengthAdjust="spacingAndGlyphs" textLength="205" x="347" y="472.4526">move(Coordinate, Coordinate): Error</text><polygon fill="#4177AF" points="338,478.0469,334,484.0469,342,484.0469" style="stroke:#1963A0;stroke-width:1.0;"/><text fill="#000000" font-family="sans-serif" font-size="11" lengthAdjust="spacingAndGlyphs" textLength="104" x="347" y="485.2573">getToken(): Token</text><!--MD5=[55d70ecb9e3ba4786ec1f15d0b7dce13]
class tictactoe.models.Coordinate--><rect codeLine="64" fill="#FEFECE" filter="url(#fnfy3rbxdh8oi)" height="188.8516" id="tictactoe.models.Coordinate" style="stroke:#A80036;stroke-width:1.5;" width="224" x="390.5" y="960"/><ellipse cx="465.25" cy="976" fill="#ADD1B2" rx="11" ry="11" style="stroke:#A80036;stroke-width:1.0;"/><path d="M467.5938,971.6719 C466.6563,971.2344 466.0625,971.0938 465.1875,971.0938 C462.5625,971.0938 460.5625,973.1719 460.5625,975.8906 L460.5625,977.0156 C460.5625,979.5938 462.6719,981.4844 465.5625,981.4844 C466.7813,981.4844 467.9375,981.1875 468.6875,980.6406 C469.2656,980.2344 469.5938,979.7813 469.5938,979.3906 C469.5938,978.9375 469.2031,978.5469 468.7344,978.5469 C468.5156,978.5469 468.3125,978.625 468.125,978.8125 C467.6719,979.2969 467.6719,979.2969 467.4844,979.3906 C467.0625,979.6563 466.375,979.7813 465.6094,979.7813 C463.5625,979.7813 462.2656,978.6875 462.2656,976.9844 L462.2656,975.8906 C462.2656,974.1094 463.5156,972.7969 465.25,972.7969 C465.8281,972.7969 466.4375,972.9531 466.9063,973.2031 C467.3906,973.4844 467.5625,973.7031 467.6563,974.1094 C467.7188,974.5156 467.75,974.6406 467.8906,974.7656 C468.0313,974.9063 468.2656,975.0156 468.4844,975.0156 C468.75,975.0156 469.0156,974.875 469.1875,974.6563 C469.2969,974.5 469.3281,974.3125 469.3281,973.8906 L469.3281,972.4688 C469.3281,972.0313 469.3125,971.9063 469.2188,971.75 C469.0625,971.4844 468.7813,971.3438 468.4844,971.3438 C468.1875,971.3438 467.9844,971.4375 467.7656,971.75 L467.5938,971.6719 Z " fill="#000000"/><text fill="#000000" font-family="sans-serif" font-size="12" lengthAdjust="spacingAndGlyphs" textLength="66" x="485.75" y="980.1543">Coordinate</text><line style="stroke:#A80036;stroke-width:1.5;" x1="391.5" x2="613.5" y1="992" y2="992"/><polygon fill="none" points="401.5,999,397.5,1005,405.5,1005" style="stroke:#1963A0;stroke-width:1.0;"/><text fill="#000000" font-family="sans-serif" font-size="11" lengthAdjust="spacingAndGlyphs" text-decoration="underline" textLength="178" x="410.5" y="1006.2104">NULL_COORDINATE: Coordinate</text><ellipse cx="401.5" cy="1015.8047" fill="none" rx="3" ry="3" style="stroke:#038048;stroke-width:1.0;"/><text fill="#000000" font-family="sans-serif" font-size="11" lengthAdjust="spacingAndGlyphs" text-decoration="underline" textLength="85" x="410.5" y="1019.0151">DIMENSION: int</text><polygon fill="none" points="401.5,1024.6094,397.5,1030.6094,405.5,1030.6094" style="stroke:#1963A0;stroke-width:1.0;"/><text fill="#000000" font-family="sans-serif" font-size="11" lengthAdjust="spacingAndGlyphs" text-decoration="underline" textLength="125" x="410.5" y="1031.8198">LIMITS: ClosedInterval</text><line style="stroke:#A80036;stroke-width:1.5;" x1="391.5" x2="613.5" y1="1038.4141" y2="1038.4141"/><ellipse cx="401.5" cy="1049.4141" fill="#84BE84" rx="3" ry="3" style="stroke:#038048;stroke-width:1.0;"/><text fill="#000000" font-family="sans-serif" font-size="11" lengthAdjust="spacingAndGlyphs" textLength="70" x="410.5" y="1052.6245">Coordinate()</text><ellipse cx="401.5" cy="1062.2188" fill="#84BE84" rx="3" ry="3" style="stroke:#038048;stroke-width:1.0;"/><text fill="#000000" font-family="sans-serif" font-size="11" lengthAdjust="spacingAndGlyphs" textLength="105" x="410.5" y="1065.4292">Coordinate(int, int)</text><ellipse cx="401.5" cy="1075.0234" fill="#84BE84" rx="3" ry="3" style="stroke:#038048;stroke-width:1.0;"/><text fill="#000000" font-family="sans-serif" font-size="11" lengthAdjust="spacingAndGlyphs" textLength="91" x="410.5" y="1078.2339">isNull(): boolean</text><ellipse cx="401.5" cy="1087.8281" fill="#84BE84" rx="3" ry="3" style="stroke:#038048;stroke-width:1.0;"/><text fill="#000000" font-family="sans-serif" font-size="11" lengthAdjust="spacingAndGlyphs" textLength="78" x="410.5" y="1091.0386">isValid(): Error</text><ellipse cx="401.5" cy="1100.6328" fill="#84BE84" rx="3" ry="3" style="stroke:#038048;stroke-width:1.0;"/><text fill="#000000" font-family="sans-serif" font-size="11" lengthAdjust="spacingAndGlyphs" textLength="198" x="410.5" y="1103.8433">getDirection(Coordinate): Direction</text><polygon fill="#4177AF" points="401.5,1109.4375,397.5,1115.4375,405.5,1115.4375" style="stroke:#1963A0;stroke-width:1.0;"/><text fill="#000000" font-family="sans-serif" font-size="11" lengthAdjust="spacingAndGlyphs" textLength="164" x="410.5" y="1116.6479">inInverseDiagonal(): boolean</text><ellipse cx="401.5" cy="1126.2422" fill="#84BE84" rx="3" ry="3" style="stroke:#038048;stroke-width:1.0;"/><text fill="#000000" font-family="sans-serif" font-size="11" lengthAdjust="spacingAndGlyphs" textLength="51" x="410.5" y="1129.4526">random()</text><ellipse cx="401.5" cy="1139.0469" fill="#84BE84" rx="3" ry="3" style="stroke:#038048;stroke-width:1.0;"/><text fill="#000000" font-family="sans-serif" font-size="11" lengthAdjust="spacingAndGlyphs" textLength="136" x="410.5" y="1142.2573">equals(Object): boolean</text><!--MD5=[3b54484399e9c5d8797124604fd4af65]
class tictactoe.models.Player--><rect codeLine="82" fill="#FEFECE" filter="url(#fnfy3rbxdh8oi)" height="99.2188" id="tictactoe.models.Player" style="stroke:#A80036;stroke-width:1.5;" width="231" x="309" y="552"/><ellipse cx="402.25" cy="568" fill="#ADD1B2" rx="11" ry="11" style="stroke:#A80036;stroke-width:1.0;"/><path d="M404.5938,563.6719 C403.6563,563.2344 403.0625,563.0938 402.1875,563.0938 C399.5625,563.0938 397.5625,565.1719 397.5625,567.8906 L397.5625,569.0156 C397.5625,571.5938 399.6719,573.4844 402.5625,573.4844 C403.7813,573.4844 404.9375,573.1875 405.6875,572.6406 C406.2656,572.2344 406.5938,571.7813 406.5938,571.3906 C406.5938,570.9375 406.2031,570.5469 405.7344,570.5469 C405.5156,570.5469 405.3125,570.625 405.125,570.8125 C404.6719,571.2969 404.6719,571.2969 404.4844,571.3906 C404.0625,571.6563 403.375,571.7813 402.6094,571.7813 C400.5625,571.7813 399.2656,570.6875 399.2656,568.9844 L399.2656,567.8906 C399.2656,566.1094 400.5156,564.7969 402.25,564.7969 C402.8281,564.7969 403.4375,564.9531 403.9063,565.2031 C404.3906,565.4844 404.5625,565.7031 404.6563,566.1094 C404.7188,566.5156 404.75,566.6406 404.8906,566.7656 C405.0313,566.9063 405.2656,567.0156 405.4844,567.0156 C405.75,567.0156 406.0156,566.875 406.1875,566.6563 C406.2969,566.5 406.3281,566.3125 406.3281,565.8906 L406.3281,564.4688 C406.3281,564.0313 406.3125,563.9063 406.2188,563.75 C406.0625,563.4844 405.7813,563.3438 405.4844,563.3438 C405.1875,563.3438 404.9844,563.4375 404.7656,563.75 L404.5938,563.6719 Z " fill="#000000"/><text fill="#000000" font-family="sans-serif" font-size="12" lengthAdjust="spacingAndGlyphs" textLength="36" x="422.75" y="572.1543">Player</text><line style="stroke:#A80036;stroke-width:1.5;" x1="310" x2="539" y1="584" y2="584"/><line style="stroke:#A80036;stroke-width:1.5;" x1="310" x2="539" y1="592" y2="592"/><polygon fill="#4177AF" points="320,599,316,605,324,605" style="stroke:#1963A0;stroke-width:1.0;"/><text fill="#000000" font-family="sans-serif" font-size="11" lengthAdjust="spacingAndGlyphs" textLength="118" x="329" y="606.2104">Player(Token, Board)</text><polygon fill="#4177AF" points="320,611.8047,316,617.8047,324,617.8047" style="stroke:#1963A0;stroke-width:1.0;"/><text fill="#000000" font-family="sans-serif" font-size="11" lengthAdjust="spacingAndGlyphs" textLength="121" x="329" y="619.0151">put(Coordinate): Error</text><polygon fill="#4177AF" points="320,624.6094,316,630.6094,324,630.6094" style="stroke:#1963A0;stroke-width:1.0;"/><text fill="#000000" font-family="sans-serif" font-size="11" lengthAdjust="spacingAndGlyphs" textLength="205" x="329" y="631.8198">move(Coordinate, Coordinate): Error</text><polygon fill="#4177AF" points="320,637.4141,316,643.4141,324,643.4141" style="stroke:#1963A0;stroke-width:1.0;"/><text fill="#000000" font-family="sans-serif" font-size="11" lengthAdjust="spacingAndGlyphs" textLength="104" x="329" y="644.6245">getToken(): Token</text><!--MD5=[f0e50675208408ddbf1ed7a91f4eb071]
class ClosedInterval--><rect codeLine="1" fill="#FEFECE" filter="url(#fnfy3rbxdh8oi)" height="53.9375" id="ClosedInterval" style="stroke:#A80036;stroke-width:1.5;" width="130" x="437.5" y="1209"/><ellipse cx="452.5" cy="1227.9688" fill="#ADD1B2" rx="11" ry="11" style="stroke:#A80036;stroke-width:1.0;"/><path d="M454.8438,1223.6406 C453.9063,1223.2031 453.3125,1223.0625 452.4375,1223.0625 C449.8125,1223.0625 447.8125,1225.1406 447.8125,1227.8594 L447.8125,1228.9844 C447.8125,1231.5625 449.9219,1233.4531 452.8125,1233.4531 C454.0313,1233.4531 455.1875,1233.1563 455.9375,1232.6094 C456.5156,1232.2031 456.8438,1231.75 456.8438,1231.3594 C456.8438,1230.9063 456.4531,1230.5156 455.9844,1230.5156 C455.7656,1230.5156 455.5625,1230.5938 455.375,1230.7813 C454.9219,1231.2656 454.9219,1231.2656 454.7344,1231.3594 C454.3125,1231.625 453.625,1231.75 452.8594,1231.75 C450.8125,1231.75 449.5156,1230.6563 449.5156,1228.9531 L449.5156,1227.8594 C449.5156,1226.0781 450.7656,1224.7656 452.5,1224.7656 C453.0781,1224.7656 453.6875,1224.9219 454.1563,1225.1719 C454.6406,1225.4531 454.8125,1225.6719 454.9063,1226.0781 C454.9688,1226.4844 455,1226.6094 455.1406,1226.7344 C455.2813,1226.875 455.5156,1226.9844 455.7344,1226.9844 C456,1226.9844 456.2656,1226.8438 456.4375,1226.625 C456.5469,1226.4688 456.5781,1226.2813 456.5781,1225.8594 L456.5781,1224.4375 C456.5781,1224 456.5625,1223.875 456.4688,1223.7188 C456.3125,1223.4531 456.0313,1223.3125 455.7344,1223.3125 C455.4375,1223.3125 455.2344,1223.4063 455.0156,1223.7188 L454.8438,1223.6406 Z " fill="#000000"/><text fill="#000000" font-family="sans-serif" font-size="12" lengthAdjust="spacingAndGlyphs" textLength="98" x="466.5" y="1225.1387">usantatecla.utils.</text><text fill="#000000" font-family="sans-serif" font-size="12" lengthAdjust="spacingAndGlyphs" textLength="86" x="472.5" y="1239.1074">ClosedInterval</text><line style="stroke:#A80036;stroke-width:1.5;" x1="438.5" x2="566.5" y1="1246.9375" y2="1246.9375"/><line style="stroke:#A80036;stroke-width:1.5;" x1="438.5" x2="566.5" y1="1254.9375" y2="1254.9375"/><!--MD5=[4ac948797cb0d646e058fac8f0726737]
class ConcreteCoordinate--><rect codeLine="2" fill="#FEFECE" filter="url(#fnfy3rbxdh8oi)" height="53.9375" id="ConcreteCoordinate" style="stroke:#A80036;stroke-width:1.5;" width="153" x="650" y="778.5"/><ellipse cx="665" cy="797.4688" fill="#ADD1B2" rx="11" ry="11" style="stroke:#A80036;stroke-width:1.0;"/><path d="M667.3438,793.1406 C666.4063,792.7031 665.8125,792.5625 664.9375,792.5625 C662.3125,792.5625 660.3125,794.6406 660.3125,797.3594 L660.3125,798.4844 C660.3125,801.0625 662.4219,802.9531 665.3125,802.9531 C666.5313,802.9531 667.6875,802.6563 668.4375,802.1094 C669.0156,801.7031 669.3438,801.25 669.3438,800.8594 C669.3438,800.4063 668.9531,800.0156 668.4844,800.0156 C668.2656,800.0156 668.0625,800.0938 667.875,800.2813 C667.4219,800.7656 667.4219,800.7656 667.2344,800.8594 C666.8125,801.125 666.125,801.25 665.3594,801.25 C663.3125,801.25 662.0156,800.1563 662.0156,798.4531 L662.0156,797.3594 C662.0156,795.5781 663.2656,794.2656 665,794.2656 C665.5781,794.2656 666.1875,794.4219 666.6563,794.6719 C667.1406,794.9531 667.3125,795.1719 667.4063,795.5781 C667.4688,795.9844 667.5,796.1094 667.6406,796.2344 C667.7813,796.375 668.0156,796.4844 668.2344,796.4844 C668.5,796.4844 668.7656,796.3438 668.9375,796.125 C669.0469,795.9688 669.0781,795.7813 669.0781,795.3594 L669.0781,793.9375 C669.0781,793.5 669.0625,793.375 668.9688,793.2188 C668.8125,792.9531 668.5313,792.8125 668.2344,792.8125 C667.9375,792.8125 667.7344,792.9063 667.5156,793.2188 L667.3438,793.1406 Z " fill="#000000"/><text fill="#000000" font-family="sans-serif" font-size="12" lengthAdjust="spacingAndGlyphs" textLength="98" x="690.5" y="794.6387">usantatecla.utils.</text><text fill="#000000" font-family="sans-serif" font-size="12" lengthAdjust="spacingAndGlyphs" textLength="121" x="679" y="808.6074">ConcreteCoordinate</text><line style="stroke:#A80036;stroke-width:1.5;" x1="651" x2="802" y1="816.4375" y2="816.4375"/><line style="stroke:#A80036;stroke-width:1.5;" x1="651" x2="802" y1="824.4375" y2="824.4375"/><!--MD5=[02f7077ed79257124e28b791f351f1d7]
class Direction--><rect codeLine="3" fill="#FEFECE" filter="url(#fnfy3rbxdh8oi)" height="53.9375" id="Direction" style="stroke:#A80036;stroke-width:1.5;" width="130" x="272.5" y="1209"/><ellipse cx="287.5" cy="1227.9688" fill="#ADD1B2" rx="11" ry="11" style="stroke:#A80036;stroke-width:1.0;"/><path d="M289.8438,1223.6406 C288.9063,1223.2031 288.3125,1223.0625 287.4375,1223.0625 C284.8125,1223.0625 282.8125,1225.1406 282.8125,1227.8594 L282.8125,1228.9844 C282.8125,1231.5625 284.9219,1233.4531 287.8125,1233.4531 C289.0313,1233.4531 290.1875,1233.1563 290.9375,1232.6094 C291.5156,1232.2031 291.8438,1231.75 291.8438,1231.3594 C291.8438,1230.9063 291.4531,1230.5156 290.9844,1230.5156 C290.7656,1230.5156 290.5625,1230.5938 290.375,1230.7813 C289.9219,1231.2656 289.9219,1231.2656 289.7344,1231.3594 C289.3125,1231.625 288.625,1231.75 287.8594,1231.75 C285.8125,1231.75 284.5156,1230.6563 284.5156,1228.9531 L284.5156,1227.8594 C284.5156,1226.0781 285.7656,1224.7656 287.5,1224.7656 C288.0781,1224.7656 288.6875,1224.9219 289.1563,1225.1719 C289.6406,1225.4531 289.8125,1225.6719 289.9063,1226.0781 C289.9688,1226.4844 290,1226.6094 290.1406,1226.7344 C290.2813,1226.875 290.5156,1226.9844 290.7344,1226.9844 C291,1226.9844 291.2656,1226.8438 291.4375,1226.625 C291.5469,1226.4688 291.5781,1226.2813 291.5781,1225.8594 L291.5781,1224.4375 C291.5781,1224 291.5625,1223.875 291.4688,1223.7188 C291.3125,1223.4531 291.0313,1223.3125 290.7344,1223.3125 C290.4375,1223.3125 290.2344,1223.4063 290.0156,1223.7188 L289.8438,1223.6406 Z " fill="#000000"/><text fill="#000000" font-family="sans-serif" font-size="12" lengthAdjust="spacingAndGlyphs" textLength="98" x="301.5" y="1225.1387">usantatecla.utils.</text><text fill="#000000" font-family="sans-serif" font-size="12" lengthAdjust="spacingAndGlyphs" textLength="54" x="323.5" y="1239.1074">Direction</text><line style="stroke:#A80036;stroke-width:1.5;" x1="273.5" x2="401.5" y1="1246.9375" y2="1246.9375"/><line style="stroke:#A80036;stroke-width:1.5;" x1="273.5" x2="401.5" y1="1254.9375" y2="1254.9375"/><!--MD5=[b8cfd8c4119a3b0a7a46bfc5fc780f85]
class Error--><rect codeLine="4" fill="#FEFECE" filter="url(#fnfy3rbxdh8oi)" height="53.9375" id="Error" style="stroke:#A80036;stroke-width:1.5;" width="195" x="794" y="1209"/><ellipse cx="809" cy="1227.9688" fill="#EB937F" rx="11" ry="11" style="stroke:#A80036;stroke-width:1.0;"/><path d="M807.7969,1228.8438 L809.25,1228.8438 L809.25,1228.9531 C809.25,1229.3594 809.2813,1229.5156 809.3594,1229.6719 C809.5156,1229.9219 809.7969,1230.0781 810.0938,1230.0781 C810.3438,1230.0781 810.6094,1229.9375 810.7656,1229.7188 C810.8906,1229.5625 810.9219,1229.4063 810.9219,1228.9531 L810.9219,1227.0313 C810.9219,1226.875 810.9219,1226.8281 810.9063,1226.6719 C810.8438,1226.2031 810.5313,1225.8906 810.0781,1225.8906 C809.8281,1225.8906 809.5625,1226.0313 809.3906,1226.25 C809.2813,1226.4219 809.25,1226.5781 809.25,1227.0313 L809.25,1227.1563 L807.7969,1227.1563 L807.7969,1224.75 L811.7813,1224.75 L811.7813,1225.6094 C811.7813,1226.0156 811.8125,1226.1875 811.8906,1226.3438 C812.0625,1226.5938 812.3438,1226.75 812.625,1226.75 C812.8906,1226.75 813.1563,1226.6094 813.3281,1226.3906 C813.4375,1226.2188 813.4688,1226.0781 813.4688,1225.6094 L813.4688,1223.0625 L805.8438,1223.0625 C805.4063,1223.0625 805.2813,1223.0781 805.125,1223.1719 C804.875,1223.3281 804.7188,1223.625 804.7188,1223.9063 C804.7188,1224.1875 804.8594,1224.4375 805.0781,1224.6094 C805.2344,1224.7188 805.4219,1224.75 805.8438,1224.75 L806.0938,1224.75 L806.0938,1231.2656 L805.8438,1231.2656 C805.4375,1231.2656 805.2813,1231.2813 805.125,1231.3906 C804.875,1231.5625 804.7188,1231.8281 804.7188,1232.125 C804.7188,1232.3906 804.8594,1232.6406 805.0781,1232.7969 C805.2188,1232.9219 805.4531,1232.9688 805.8438,1232.9688 L813.8438,1232.9688 L813.8438,1230.3906 C813.8438,1229.9531 813.8125,1229.8125 813.7344,1229.6563 C813.5625,1229.4063 813.2813,1229.25 813,1229.25 C812.7344,1229.25 812.4688,1229.3594 812.2969,1229.6094 C812.1875,1229.7656 812.1563,1229.9063 812.1563,1230.3906 L812.1563,1231.2656 L807.7969,1231.2656 L807.7969,1228.8438 Z " fill="#000000"/><text fill="#000000" font-family="sans-serif" font-size="12" lengthAdjust="spacingAndGlyphs" textLength="163" x="823" y="1225.1387">usantatecla.tictactoe.types.</text><text fill="#000000" font-family="sans-serif" font-size="12" lengthAdjust="spacingAndGlyphs" textLength="30" x="889.5" y="1239.1074">Error</text><line style="stroke:#A80036;stroke-width:1.5;" x1="795" x2="988" y1="1246.9375" y2="1246.9375"/><line style="stroke:#A80036;stroke-width:1.5;" x1="795" x2="988" y1="1254.9375" y2="1254.9375"/><!--MD5=[d8c8cfd5ca149094f5b67f9f607a5ec7]
class Token--><rect codeLine="5" fill="#FEFECE" filter="url(#fnfy3rbxdh8oi)" height="53.9375" id="Token" style="stroke:#A80036;stroke-width:1.5;" width="195" x="7" y="1027.5"/><ellipse cx="22" cy="1046.4688" fill="#EB937F" rx="11" ry="11" style="stroke:#A80036;stroke-width:1.0;"/><path d="M20.7969,1047.3438 L22.25,1047.3438 L22.25,1047.4531 C22.25,1047.8594 22.2813,1048.0156 22.3594,1048.1719 C22.5156,1048.4219 22.7969,1048.5781 23.0938,1048.5781 C23.3438,1048.5781 23.6094,1048.4375 23.7656,1048.2188 C23.8906,1048.0625 23.9219,1047.9063 23.9219,1047.4531 L23.9219,1045.5313 C23.9219,1045.375 23.9219,1045.3281 23.9063,1045.1719 C23.8438,1044.7031 23.5313,1044.3906 23.0781,1044.3906 C22.8281,1044.3906 22.5625,1044.5313 22.3906,1044.75 C22.2813,1044.9219 22.25,1045.0781 22.25,1045.5313 L22.25,1045.6563 L20.7969,1045.6563 L20.7969,1043.25 L24.7813,1043.25 L24.7813,1044.1094 C24.7813,1044.5156 24.8125,1044.6875 24.8906,1044.8438 C25.0625,1045.0938 25.3438,1045.25 25.625,1045.25 C25.8906,1045.25 26.1563,1045.1094 26.3281,1044.8906 C26.4375,1044.7188 26.4688,1044.5781 26.4688,1044.1094 L26.4688,1041.5625 L18.8438,1041.5625 C18.4063,1041.5625 18.2813,1041.5781 18.125,1041.6719 C17.875,1041.8281 17.7188,1042.125 17.7188,1042.4063 C17.7188,1042.6875 17.8594,1042.9375 18.0781,1043.1094 C18.2344,1043.2188 18.4219,1043.25 18.8438,1043.25 L19.0938,1043.25 L19.0938,1049.7656 L18.8438,1049.7656 C18.4375,1049.7656 18.2813,1049.7813 18.125,1049.8906 C17.875,1050.0625 17.7188,1050.3281 17.7188,1050.625 C17.7188,1050.8906 17.8594,1051.1406 18.0781,1051.2969 C18.2188,1051.4219 18.4531,1051.4688 18.8438,1051.4688 L26.8438,1051.4688 L26.8438,1048.8906 C26.8438,1048.4531 26.8125,1048.3125 26.7344,1048.1563 C26.5625,1047.9063 26.2813,1047.75 26,1047.75 C25.7344,1047.75 25.4688,1047.8594 25.2969,1048.1094 C25.1875,1048.2656 25.1563,1048.4063 25.1563,1048.8906 L25.1563,1049.7656 L20.7969,1049.7656 L20.7969,1047.3438 Z " fill="#000000"/><text fill="#000000" font-family="sans-serif" font-size="12" lengthAdjust="spacingAndGlyphs" textLength="163" x="36" y="1043.6387">usantatecla.tictactoe.types.</text><text fill="#000000" font-family="sans-serif" font-size="12" lengthAdjust="spacingAndGlyphs" textLength="37" x="99" y="1057.6074">Token</text><line style="stroke:#A80036;stroke-width:1.5;" x1="8" x2="201" y1="1065.4375" y2="1065.4375"/><line style="stroke:#A80036;stroke-width:1.5;" x1="8" x2="201" y1="1073.4375" y2="1073.4375"/><!--MD5=[b634369fa6e65a8dead148f8efc150f7]
link tictactoe.models.Game to tictactoe.models.Board--><path codeLine="21" d="M347.0207,247.6251 C347.0207,247.6251 319.158,283.705 309.5,303 C239.922,442.006 233.402,501.084 274.5,651 C278.938,667.19 285.575,683.404 293.28,698.906 " fill="none" id="tictactoe.models.Game-tictactoe.models.Board" style="stroke:#A80036;stroke-width:1.0;"/><polygon fill="#A80036" points="299.362,710.609,298.7606,700.7785,297.0561,706.1725,291.6622,704.468,299.362,710.609" style="stroke:#A80036;stroke-width:1.0;"/><line style="stroke:#A80036;stroke-width:1.0;" x1="297.0561" x2="293.3675" y1="706.1725" y2="699.0735"/><polygon fill="#A80036" points="354.918,238.59,347.9577,240.4751,347.0207,247.6251,353.981,245.74,354.918,238.59" style="stroke:#A80036;stroke-width:1.0;"/><!--MD5=[aa5c2eaa34da3707c874f29e1edc60f9]
link tictactoe.models.Game to tictactoe.models.Turn--><path codeLine="22" d="M458.1153,255.1173 C458.1153,255.1173 455.507,278.737 454.278,289.867 " fill="none" id="tictactoe.models.Game-tictactoe.models.Turn" style="stroke:#A80036;stroke-width:1.0;"/><polygon fill="#A80036" points="452.848,302.815,457.8118,294.3085,453.3969,297.8452,449.8602,293.4303,452.848,302.815" style="stroke:#A80036;stroke-width:1.0;"/><line style="stroke:#A80036;stroke-width:1.0;" x1="453.3969" x2="454.2755" y1="297.8452" y2="289.8935"/><polygon fill="#A80036" points="459.434,243.19,454.7989,248.7141,458.1153,255.1173,462.7504,249.5932,459.434,243.19" style="stroke:#A80036;stroke-width:1.0;"/><!--MD5=[3af71857b9ad654b2037bc7ee0d85849]
link tictactoe.models.Game to tictactoe.models.Coordinate--><path codeLine="23" d="M548.493,243.2 C559.593,262.14 569.323,282.479 575.5,303 C651.979,557.072 634.43,641.293 575.5,900 C571.336,918.278 564.744,936.938 557.184,954.663 " fill="none" id="tictactoe.models.Game-to-tictactoe.models.Coordinate" style="stroke:#A80036;stroke-width:1.0;stroke-dasharray:7.0,7.0;"/><polygon fill="#A80036" points="555.028,959.637,562.2794,952.9724,557.0179,955.05,554.9403,949.7885,555.028,959.637" style="stroke:#A80036;stroke-width:1.0;"/><!--MD5=[1e1952a5c407ff6ca98def89eca250c2]
link tictactoe.models.Game to Error--><path codeLine="24" d="M586.045,183.74 C741.438,246.79 998.5,383.844 998.5,600.5 C998.5,600.5 998.5,600.5 998.5,806.5 C998.5,971.147 1012.66,1023.122 944.5,1173 C939.268,1184.5048 931.243,1195.5235 923.007,1204.9966 " fill="none" id="tictactoe.models.Game-to-Error" style="stroke:#A80036;stroke-width:1.0;stroke-dasharray:7.0,7.0;"/><polygon fill="#A80036" points="919.472,1208.9588,928.448,1204.9053,922.8004,1205.2276,922.4781,1199.5799,919.472,1208.9588" style="stroke:#A80036;stroke-width:1.0;"/><!--MD5=[715d8bc148b7807b721da6bea55ba6f0]
link tictactoe.models.Board to Token--><path codeLine="40" d="M257.7389,908.48 C257.7389,908.48 171.894,989.721 141.8,1018.201 " fill="none" id="tictactoe.models.Board-Token" style="stroke:#A80036;stroke-width:1.0;"/><polygon fill="#A80036" points="132.149,1027.334,141.4354,1024.0534,135.7807,1023.8974,135.9368,1018.2426,132.149,1027.334" style="stroke:#A80036;stroke-width:1.0;"/><line style="stroke:#A80036;stroke-width:1.0;" x1="135.7807" x2="141.591" y1="1023.8974" y2="1018.3985"/><polygon fill="#A80036" points="266.455,900.232,259.3476,901.4506,257.7389,908.48,264.8463,907.2614,266.455,900.232" style="stroke:#A80036;stroke-width:1.0;"/><text fill="#000000" font-family="sans-serif" font-size="13" lengthAdjust="spacingAndGlyphs" textLength="7" x="130.7335" y="1016.407">*</text><!--MD5=[9415c0c61774263745e2cedb44e639c6]
link tictactoe.models.Board to tictactoe.models.Coordinate--><path codeLine="41" d="M417.489,900.232 C427.468,918.223 437.944,937.111 447.999,955.24 " fill="none" id="tictactoe.models.Board-to-tictactoe.models.Coordinate" style="stroke:#A80036;stroke-width:1.0;stroke-dasharray:7.0,7.0;"/><polygon fill="#A80036" points="450.546,959.832,449.6767,950.0216,448.12,955.46,442.6815,953.9032,450.546,959.832" style="stroke:#A80036;stroke-width:1.0;"/><!--MD5=[95371b819337377421bee880416b6571]
link tictactoe.models.Board to Direction--><path codeLine="42" d="M359.39,900.007 C353.098,996.293 343.65,1140.888 339.535,1203.8507 " fill="none" id="tictactoe.models.Board-to-Direction" style="stroke:#A80036;stroke-width:1.0;stroke-dasharray:7.0,7.0;"/><polygon fill="#A80036" points="339.201,1208.9644,343.7795,1200.2444,339.5271,1203.975,335.7965,1199.7227,339.201,1208.9644" style="stroke:#A80036;stroke-width:1.0;"/><!--MD5=[445ca9be6ac7acaf2fbd96fa00e05ee8]
link tictactoe.models.Turn to tictactoe.models.Player--><path codeLine="58" d="M433.0935,504.0606 C433.0935,504.0606 430.959,528.02 430.008,538.693 " fill="none" id="tictactoe.models.Turn-tictactoe.models.Player" style="stroke:#A80036;stroke-width:1.0;"/><polygon fill="#A80036" points="428.84,551.799,433.6233,543.1897,429.284,546.8187,425.6549,542.4794,428.84,551.799" style="stroke:#A80036;stroke-width:1.0;"/><line style="stroke:#A80036;stroke-width:1.0;" x1="429.284" x2="429.994" y1="546.8187" y2="538.85"/><polygon fill="#A80036" points="434.159,492.108,429.642,497.7291,433.0935,504.0606,437.6105,498.4395,434.159,492.108" style="stroke:#A80036;stroke-width:1.0;"/><text fill="#000000" font-family="sans-serif" font-size="13" lengthAdjust="spacingAndGlyphs" textLength="7" x="421.9581" y="540.816">*</text><!--MD5=[11aca849becf2c66e9fb721656f4b409]
link tictactoe.models.Turn to tictactoe.models.Board--><path codeLine="59" d="M321.3828,501.7427 C321.3828,501.7427 298.635,534.573 291.5,552 C272.236,599.053 283.711,652.922 302.838,698.785 " fill="none" id="tictactoe.models.Turn-tictactoe.models.Board" style="stroke:#A80036;stroke-width:1.0;"/><polygon fill="#A80036" points="308.133,710.878,308.1873,701.0293,306.1275,706.2978,300.859,704.2381,308.133,710.878" style="stroke:#A80036;stroke-width:1.0;"/><line style="stroke:#A80036;stroke-width:1.0;" x1="306.1275" x2="302.919" y1="706.2978" y2="698.969"/><polygon fill="#A80036" points="328.91,492.397,322.0312,494.5608,321.3828,501.7427,328.2616,499.5789,328.91,492.397" style="stroke:#A80036;stroke-width:1.0;"/><!--MD5=[48951ad2288b716169f812a2c734d472]
link tictactoe.models.Turn to tictactoe.models.Coordinate--><path codeLine="60" d="M527.034,492.196 C539.548,510.846 550.556,531.149 557.5,552 C602.384,686.769 568.327,852.048 537.335,955.096 " fill="none" id="tictactoe.models.Turn-to-tictactoe.models.Coordinate" style="stroke:#A80036;stroke-width:1.0;stroke-dasharray:7.0,7.0;"/><polygon fill="#A80036" points="535.862,959.956,542.3005,952.5031,537.3122,955.1709,534.6444,950.1827,535.862,959.956" style="stroke:#A80036;stroke-width:1.0;"/><!--MD5=[2ce67dc7b8904d2487e2a382b8293df9]
link tictactoe.models.Turn to Token--><path codeLine="61" d="M326.727,480.657 C257.85,536.812 176.347,617.79 136.5,711 C90.8331,817.824 96.0919,960.069 101.2502,1022.22 " fill="none" id="tictactoe.models.Turn-to-Token" style="stroke:#A80036;stroke-width:1.0;stroke-dasharray:7.0,7.0;"/><polygon fill="#A80036" points="101.6838,1027.269,104.8977,1017.9593,101.2552,1022.2874,96.9271,1018.645,101.6838,1027.269" style="stroke:#A80036;stroke-width:1.0;"/><!--MD5=[448c7c6490121f34126ed8904289109a]
link tictactoe.models.Turn to Error--><path codeLine="62" d="M558.265,449.641 C658.953,500.606 799.791,588.889 872.5,711 C969.42,873.772 921.321,1118.176 899.931,1203.9306 " fill="none" id="tictactoe.models.Turn-to-Error" style="stroke:#A80036;stroke-width:1.0;stroke-dasharray:7.0,7.0;"/><polygon fill="#A80036" points="898.686,1208.8646,904.7669,1201.1172,899.9096,1204.0166,897.0102,1199.1594,898.686,1208.8646" style="stroke:#A80036;stroke-width:1.0;"/><!--MD5=[4ae82c12558cb4b2e8949f940e9da2cf]
reverse link ConcreteCoordinate to tictactoe.models.Coordinate--><path codeLine="77" d="M688.755,848.121 C661.071,878.648 622.37,921.322 587.414,959.867 " fill="none" id="ConcreteCoordinate-backto-tictactoe.models.Coordinate" style="stroke:#A80036;stroke-width:1.0;"/><polygon fill="none" points="683.907,843.046,702.528,832.933,694.278,852.451,683.907,843.046" style="stroke:#A80036;stroke-width:1.0;"/><!--MD5=[0dc3277290a75d87b382fb6ce6bec75b]
link tictactoe.models.Coordinate to Error--><path codeLine="78" d="M614.754,1107.298 C684.932,1139.681 772.62,1180.144 830.251,1206.7372 " fill="none" id="tictactoe.models.Coordinate-to-Error" style="stroke:#A80036;stroke-width:1.0;stroke-dasharray:7.0,7.0;"/><polygon fill="#A80036" points="835.039,1208.9467,828.5421,1201.5446,830.4988,1206.8523,825.1911,1208.809,835.039,1208.9467" style="stroke:#A80036;stroke-width:1.0;"/><!--MD5=[787386d7ca2e6f5e643967cb883a78fa]
link tictactoe.models.Coordinate to Direction--><path codeLine="79" d="M416.376,1149.193 C397.791,1169.411 379.452,1189.3618 365.14,1204.9306 " fill="none" id="tictactoe.models.Coordinate-to-Direction" style="stroke:#A80036;stroke-width:1.0;stroke-dasharray:7.0,7.0;"/><polygon fill="#A80036" points="361.591,1208.7918,370.6264,1204.8724,364.9745,1205.1106,364.7364,1199.4587,361.591,1208.7918" style="stroke:#A80036;stroke-width:1.0;"/><!--MD5=[ba6e042f6a8c44c789ccd24fbb2adc9a]
link tictactoe.models.Coordinate to ClosedInterval--><path codeLine="80" d="M502.5,1149.193 C502.5,1168.897 502.5,1188.3472 502.5,1203.7347 " fill="none" id="tictactoe.models.Coordinate-to-ClosedInterval" style="stroke:#A80036;stroke-width:1.0;stroke-dasharray:7.0,7.0;"/><polygon fill="#A80036" points="502.5,1208.7918,506.5,1199.7918,502.5,1203.7918,498.5,1199.7918,502.5,1208.7918" style="stroke:#A80036;stroke-width:1.0;"/><!--MD5=[ddcf232c751077f9b10d6064c369d290]
link tictactoe.models.Player to Token--><path codeLine="88" d="M298.284,648.6435 C298.284,648.6435 238.177,685.421 216.5,711 C176.688,757.978 131.875,935.24 113.296,1014.632 " fill="none" id="tictactoe.models.Player-Token" style="stroke:#A80036;stroke-width:1.0;"/><polygon fill="#A80036" points="110.34,1027.384,116.2682,1019.5191,111.4686,1022.513,108.4747,1017.7134,110.34,1027.384" style="stroke:#A80036;stroke-width:1.0;"/><line style="stroke:#A80036;stroke-width:1.0;" x1="111.4686" x2="113.2755" y1="1022.513" y2="1014.72"/><polygon fill="#A80036" points="308.962,643.168,301.7979,642.3464,298.284,648.6435,305.4482,649.4651,308.962,643.168" style="stroke:#A80036;stroke-width:1.0;"/><!--MD5=[4d61797189bd4e3921b05d5b1c2f3641]
link tictactoe.models.Player to tictactoe.models.Board--><path codeLine="89" d="M406.929,662.6598 C406.929,662.6598 400.018,686.321 396.592,698.05 " fill="none" id="tictactoe.models.Player-tictactoe.models.Board" style="stroke:#A80036;stroke-width:1.0;"/><polygon fill="#A80036" points="392.872,710.787,399.2354,703.2699,394.2742,705.9876,391.5564,701.0264,392.872,710.787" style="stroke:#A80036;stroke-width:1.0;"/><line style="stroke:#A80036;stroke-width:1.0;" x1="394.2742" x2="396.5165" y1="705.9876" y2="698.308"/><polygon fill="#A80036" points="410.293,651.141,404.7714,655.7791,406.929,662.6598,412.4506,658.0217,410.293,651.141" style="stroke:#A80036;stroke-width:1.0;"/><!--MD5=[8c8274b143d2ce23d56b10c65f754674]
link tictactoe.models.Player to tictactoe.models.Coordinate--><path codeLine="90" d="M476.344,651.134 C491.289,668.43 505.664,689.092 513.5,711 C541.577,789.501 535.619,884.69 524.474,954.773 " fill="none" id="tictactoe.models.Player-to-tictactoe.models.Coordinate" style="stroke:#A80036;stroke-width:1.0;stroke-dasharray:7.0,7.0;"/><polygon fill="#A80036" points="523.663,959.775,529.0514,951.5309,524.463,954.8394,521.1545,950.251,523.663,959.775" style="stroke:#A80036;stroke-width:1.0;"/><!--MD5=[5f38bb10c8a4955eb5b1e5512962abb2]
link tictactoe.models.Player to Error--><path codeLine="91" d="M540.32,619.824 C643.5,637.725 783.702,668.962 820.5,711 C885.25,784.971 891.353,1101.916 891.619,1203.5231 " fill="none" id="tictactoe.models.Player-to-Error" style="stroke:#A80036;stroke-width:1.0;stroke-dasharray:7.0,7.0;"/><polygon fill="#A80036" points="891.628,1208.7677,895.6126,1199.7609,891.6194,1203.7677,887.6126,1199.7746,891.628,1208.7677" style="stroke:#A80036;stroke-width:1.0;"/><!--MD5=[ea6527d38f158fe52a9dae302e9debd7]
@startuml
class ClosedInterval as "usantatecla.utils.\nClosedInterval" {}
class ConcreteCoordinate as "usantatecla.utils.\nConcreteCoordinate" {}
class Direction as "usantatecla.utils.\nDirection" {}
enum Error as "usantatecla.tictactoe.types.\nError" {}
enum Token as "usantatecla.tictactoe.types.\nToken" {}

class tictactoe.models.Game {
  + Game()
  + reset()
  + setUsers(int)
  + isBoardComplete(): boolean
  + isUser(): boolean
  + put(Coordinate): Error
  + move(Coordinate, Coordinate): Error
  + next()
  + isTicTacToe(): boolean
  + getToken(Coordinate): Token
  + getToken(): Token
  + getMaxPlayers(): int
}
tictactoe.models.Game *-down-> tictactoe.models.Board
tictactoe.models.Game *-down-> tictactoe.models.Turn
tictactoe.models.Game .down.> tictactoe.models.Coordinate
tictactoe.models.Game .down.> Error

class tictactoe.models.Board {
  + Board()
  ~ reset()
  ~ getToken(Coordinate): Token
  ~ isCompleted(): boolean
  ~ put(Coordinate, Token)
  ~ move(Coordinate, Coordinate)
  - remove(Coordinate)
  ~ isOccupied(Coordinate, Token): boolean
  ~ isEmpty(Coordinate): boolean
  ~ isTicTacToe(Token): boolean
  - getCoordinates(Token): List<Coordinate>
}

tictactoe.models.Board *-down-> "*" Token
tictactoe.models.Board .down.> tictactoe.models.Coordinate
tictactoe.models.Board .down.> Direction

class tictactoe.models.Turn {
  + {static} NUM_PLAYERS: int
  - active: int
  - users: int
  ~ Turn(Board)
  ~ setUsers(int)
  ~ next()
  ~ isUser(): boolean
  ~ put(Coordinate): Error
  - getPlayer(): Player
  ~ move(Coordinate, Coordinate): Error
  ~ getToken(): Token
}

tictactoe.models.Turn *-down-> "*" tictactoe.models.Player
tictactoe.models.Turn *-down-> tictactoe.models.Board
tictactoe.models.Turn .down.-> tictactoe.models.Coordinate
tictactoe.models.Turn .down.-> Token
tictactoe.models.Turn .down.-> Error

class tictactoe.models.Coordinate {
  ~ {static} NULL_COORDINATE: Coordinate
  + {static} DIMENSION: int
  ~ {static} LIMITS: ClosedInterval
  + Coordinate()
  + Coordinate(int, int)
  + isNull(): boolean
  + isValid(): Error
  + getDirection(Coordinate): Direction
  ~ inInverseDiagonal(): boolean
  + random()
  + equals(Object): boolean
}
ConcreteCoordinate <|-down- tictactoe.models.Coordinate
tictactoe.models.Coordinate .down.> Error
tictactoe.models.Coordinate .down.> Direction
tictactoe.models.Coordinate .down.> ClosedInterval

class tictactoe.models.Player{
  ~ Player(Token, Board)
  ~ put(Coordinate): Error
  ~ move(Coordinate, Coordinate): Error
  ~ getToken(): Token
}
tictactoe.models.Player *-down-> Token
tictactoe.models.Player *-down-> tictactoe.models.Board
tictactoe.models.Player .down.> tictactoe.models.Coordinate
tictactoe.models.Player .down.> Error
@enduml

PlantUML version 1.2020.21beta7(Unknown compile time)
(GPL source distribution)
Java Runtime: Java(TM) SE Runtime Environment
JVM: Java HotSpot(TM) 64-Bit Server VM
Default Encoding: UTF-8
Language: en
Country: US
--></g></svg>