<?xml version="1.0" encoding="UTF-8" standalone="no"?><svg xmlns="http://www.w3.org/2000/svg" xmlns:xlink="http://www.w3.org/1999/xlink" contentScriptType="application/ecmascript" contentStyleType="text/css" height="799px" preserveAspectRatio="none" style="width:2293px;height:799px;" version="1.1" viewBox="0 0 2293 799" width="2293px" zoomAndPan="magnify"><defs><filter height="300%" id="f1id6kfiptapxw" width="300%" x="-1" y="-1"><feGaussianBlur result="blurOut" stdDeviation="2.0"/><feColorMatrix in="blurOut" result="blurOut2" type="matrix" values="0 0 0 0 0 0 0 0 0 0 0 0 0 0 0 0 0 0 .4 0"/><feOffset dx="4.0" dy="4.0" in="blurOut2" result="blurOut3"/><feBlend in="SourceGraphic" in2="blurOut3" mode="normal"/></filter></defs><g><!--MD5=[64182ab34c08ac367bbf699869515711]
cluster tictactoe.views.console--><polygon fill="#FFFFFF" filter="url(#f1id6kfiptapxw)" points="666,86,865,86,872,108.2969,1272,108.2969,1272,688,666,688,666,86" style="stroke:#000000;stroke-width:1.5;"/><line style="stroke:#000000;stroke-width:1.5;" x1="666" x2="872" y1="108.2969" y2="108.2969"/><text fill="#000000" font-family="sans-serif" font-size="14" font-weight="bold" lengthAdjust="spacingAndGlyphs" textLength="193" x="670" y="100.9951">tictactoe.views.console</text><!--MD5=[bde0c8ed193d8d2dbac1dee471354ab0]
class tictactoe.views.console.ConsoleView--><rect codeLine="12" fill="#FEFECE" filter="url(#f1id6kfiptapxw)" height="99.2188" id="tictactoe.views.console.ConsoleView" style="stroke:#A80036;stroke-width:1.5;" width="150" x="829" y="121"/><ellipse cx="862" cy="137" fill="#ADD1B2" rx="11" ry="11" style="stroke:#A80036;stroke-width:1.0;"/><path d="M864.3438,132.6719 C863.4063,132.2344 862.8125,132.0938 861.9375,132.0938 C859.3125,132.0938 857.3125,134.1719 857.3125,136.8906 L857.3125,138.0156 C857.3125,140.5938 859.4219,142.4844 862.3125,142.4844 C863.5313,142.4844 864.6875,142.1875 865.4375,141.6406 C866.0156,141.2344 866.3438,140.7813 866.3438,140.3906 C866.3438,139.9375 865.9531,139.5469 865.4844,139.5469 C865.2656,139.5469 865.0625,139.625 864.875,139.8125 C864.4219,140.2969 864.4219,140.2969 864.2344,140.3906 C863.8125,140.6563 863.125,140.7813 862.3594,140.7813 C860.3125,140.7813 859.0156,139.6875 859.0156,137.9844 L859.0156,136.8906 C859.0156,135.1094 860.2656,133.7969 862,133.7969 C862.5781,133.7969 863.1875,133.9531 863.6563,134.2031 C864.1406,134.4844 864.3125,134.7031 864.4063,135.1094 C864.4688,135.5156 864.5,135.6406 864.6406,135.7656 C864.7813,135.9063 865.0156,136.0156 865.2344,136.0156 C865.5,136.0156 865.7656,135.875 865.9375,135.6563 C866.0469,135.5 866.0781,135.3125 866.0781,134.8906 L866.0781,133.4688 C866.0781,133.0313 866.0625,132.9063 865.9688,132.75 C865.8125,132.4844 865.5313,132.3438 865.2344,132.3438 C864.9375,132.3438 864.7344,132.4375 864.5156,132.75 L864.3438,132.6719 Z " fill="#000000"/><text fill="#000000" font-family="sans-serif" font-size="12" lengthAdjust="spacingAndGlyphs" textLength="78" x="880" y="141.1543">ConsoleView</text><line style="stroke:#A80036;stroke-width:1.5;" x1="830" x2="978" y1="153" y2="153"/><line style="stroke:#A80036;stroke-width:1.5;" x1="830" x2="978" y1="161" y2="161"/><ellipse cx="840" cy="172" fill="#84BE84" rx="3" ry="3" style="stroke:#038048;stroke-width:1.0;"/><text fill="#000000" font-family="sans-serif" font-size="11" lengthAdjust="spacingAndGlyphs" textLength="111" x="849" y="175.2104">ConsoleView(Logic)</text><polygon fill="#FFFF44" points="840,179.8047,844,183.8047,840,187.8047,836,183.8047" style="stroke:#B38D22;stroke-width:1.0;"/><text fill="#000000" font-family="sans-serif" font-size="11" lengthAdjust="spacingAndGlyphs" textLength="33" x="849" y="188.0151">start()</text><polygon fill="#FFFF44" points="840,192.6094,844,196.6094,840,200.6094,836,196.6094" style="stroke:#B38D22;stroke-width:1.0;"/><text fill="#000000" font-family="sans-serif" font-size="11" lengthAdjust="spacingAndGlyphs" textLength="32" x="849" y="200.8198">play()</text><polygon fill="#FFFF44" points="840,205.4141,844,209.4141,840,213.4141,836,209.4141" style="stroke:#B38D22;stroke-width:1.0;"/><text fill="#000000" font-family="sans-serif" font-size="11" lengthAdjust="spacingAndGlyphs" textLength="124" x="849" y="213.6245">isResumed(): boolean</text><!--MD5=[54aa299435631381f3c0c028f26a058f]
class tictactoe.views.console.StartView--><rect codeLine="29" fill="#FEFECE" filter="url(#f1id6kfiptapxw)" height="73.6094" id="tictactoe.views.console.StartView" style="stroke:#A80036;stroke-width:1.5;" width="118" x="682" y="299"/><ellipse cx="710.05" cy="315" fill="#ADD1B2" rx="11" ry="11" style="stroke:#A80036;stroke-width:1.0;"/><path d="M712.3938,310.6719 C711.4563,310.2344 710.8625,310.0938 709.9875,310.0938 C707.3625,310.0938 705.3625,312.1719 705.3625,314.8906 L705.3625,316.0156 C705.3625,318.5938 707.4719,320.4844 710.3625,320.4844 C711.5813,320.4844 712.7375,320.1875 713.4875,319.6406 C714.0656,319.2344 714.3938,318.7813 714.3938,318.3906 C714.3938,317.9375 714.0031,317.5469 713.5344,317.5469 C713.3156,317.5469 713.1125,317.625 712.925,317.8125 C712.4719,318.2969 712.4719,318.2969 712.2844,318.3906 C711.8625,318.6563 711.175,318.7813 710.4094,318.7813 C708.3625,318.7813 707.0656,317.6875 707.0656,315.9844 L707.0656,314.8906 C707.0656,313.1094 708.3156,311.7969 710.05,311.7969 C710.6281,311.7969 711.2375,311.9531 711.7063,312.2031 C712.1906,312.4844 712.3625,312.7031 712.4563,313.1094 C712.5188,313.5156 712.55,313.6406 712.6906,313.7656 C712.8313,313.9063 713.0656,314.0156 713.2844,314.0156 C713.55,314.0156 713.8156,313.875 713.9875,313.6563 C714.0969,313.5 714.1281,313.3125 714.1281,312.8906 L714.1281,311.4688 C714.1281,311.0313 714.1125,310.9063 714.0188,310.75 C713.8625,310.4844 713.5813,310.3438 713.2844,310.3438 C712.9875,310.3438 712.7844,310.4375 712.5656,310.75 L712.3938,310.6719 Z " fill="#000000"/><text fill="#000000" font-family="sans-serif" font-size="12" lengthAdjust="spacingAndGlyphs" textLength="57" x="726.95" y="319.1543">StartView</text><line style="stroke:#A80036;stroke-width:1.5;" x1="683" x2="799" y1="331" y2="331"/><line style="stroke:#A80036;stroke-width:1.5;" x1="683" x2="799" y1="339" y2="339"/><polygon fill="#4177AF" points="693,346,689,352,697,352" style="stroke:#1963A0;stroke-width:1.0;"/><text fill="#000000" font-family="sans-serif" font-size="11" lengthAdjust="spacingAndGlyphs" textLength="92" x="702" y="353.2104">StartView(Logic)</text><polygon fill="#4177AF" points="693,358.8047,689,364.8047,697,364.8047" style="stroke:#1963A0;stroke-width:1.0;"/><text fill="#000000" font-family="sans-serif" font-size="11" lengthAdjust="spacingAndGlyphs" textLength="82" x="702" y="366.0151">interact(): void</text><!--MD5=[0158df0baddf48f83142f472e341eacc]
class tictactoe.views.console.PlayView--><rect codeLine="39" fill="#FEFECE" filter="url(#f1id6kfiptapxw)" height="112.0234" id="tictactoe.views.console.PlayView" style="stroke:#A80036;stroke-width:1.5;" width="248" x="1008" y="280"/><ellipse cx="1101.75" cy="296" fill="#ADD1B2" rx="11" ry="11" style="stroke:#A80036;stroke-width:1.0;"/><path d="M1104.0938,291.6719 C1103.1563,291.2344 1102.5625,291.0938 1101.6875,291.0938 C1099.0625,291.0938 1097.0625,293.1719 1097.0625,295.8906 L1097.0625,297.0156 C1097.0625,299.5938 1099.1719,301.4844 1102.0625,301.4844 C1103.2813,301.4844 1104.4375,301.1875 1105.1875,300.6406 C1105.7656,300.2344 1106.0938,299.7813 1106.0938,299.3906 C1106.0938,298.9375 1105.7031,298.5469 1105.2344,298.5469 C1105.0156,298.5469 1104.8125,298.625 1104.625,298.8125 C1104.1719,299.2969 1104.1719,299.2969 1103.9844,299.3906 C1103.5625,299.6563 1102.875,299.7813 1102.1094,299.7813 C1100.0625,299.7813 1098.7656,298.6875 1098.7656,296.9844 L1098.7656,295.8906 C1098.7656,294.1094 1100.0156,292.7969 1101.75,292.7969 C1102.3281,292.7969 1102.9375,292.9531 1103.4063,293.2031 C1103.8906,293.4844 1104.0625,293.7031 1104.1563,294.1094 C1104.2188,294.5156 1104.25,294.6406 1104.3906,294.7656 C1104.5313,294.9063 1104.7656,295.0156 1104.9844,295.0156 C1105.25,295.0156 1105.5156,294.875 1105.6875,294.6563 C1105.7969,294.5 1105.8281,294.3125 1105.8281,293.8906 L1105.8281,292.4688 C1105.8281,292.0313 1105.8125,291.9063 1105.7188,291.75 C1105.5625,291.4844 1105.2813,291.3438 1104.9844,291.3438 C1104.6875,291.3438 1104.4844,291.4375 1104.2656,291.75 L1104.0938,291.6719 Z " fill="#000000"/><text fill="#000000" font-family="sans-serif" font-size="12" lengthAdjust="spacingAndGlyphs" textLength="52" x="1122.25" y="300.1543">PlayView</text><line style="stroke:#A80036;stroke-width:1.5;" x1="1009" x2="1255" y1="312" y2="312"/><line style="stroke:#A80036;stroke-width:1.5;" x1="1009" x2="1255" y1="320" y2="320"/><polygon fill="#4177AF" points="1019,327,1015,333,1023,333" style="stroke:#1963A0;stroke-width:1.0;"/><text fill="#000000" font-family="sans-serif" font-size="11" lengthAdjust="spacingAndGlyphs" textLength="88" x="1028" y="334.2104">PlayView(Logic)</text><polygon fill="#4177AF" points="1019,339.8047,1015,345.8047,1023,345.8047" style="stroke:#1963A0;stroke-width:1.0;"/><text fill="#000000" font-family="sans-serif" font-size="11" lengthAdjust="spacingAndGlyphs" textLength="51" x="1028" y="347.0151">interact()</text><rect fill="#F24D5C" height="6" style="stroke:#C82930;stroke-width:1.0;" width="6" x="1016" y="353.6094"/><text fill="#000000" font-family="sans-serif" font-size="11" lengthAdjust="spacingAndGlyphs" textLength="26" x="1028" y="359.8198">put()</text><rect fill="#F24D5C" height="6" style="stroke:#C82930;stroke-width:1.0;" width="6" x="1016" y="366.4141"/><text fill="#000000" font-family="sans-serif" font-size="11" lengthAdjust="spacingAndGlyphs" textLength="41" x="1028" y="372.6245">move()</text><ellipse cx="1019" cy="382.2188" fill="#84BE84" rx="3" ry="3" style="stroke:#038048;stroke-width:1.0;"/><text fill="#000000" font-family="sans-serif" font-size="11" lengthAdjust="spacingAndGlyphs" textLength="222" x="1028" y="385.4292">createRandomCoordinate(): Coordinate</text><!--MD5=[863eeac66a77264bd74e28cbddefcd23]
class tictactoe.views.console.ResumeView--><rect codeLine="55" fill="#FEFECE" filter="url(#f1id6kfiptapxw)" height="73.6094" id="tictactoe.views.console.ResumeView" style="stroke:#A80036;stroke-width:1.5;" width="138" x="835" y="299"/><ellipse cx="863.05" cy="315" fill="#ADD1B2" rx="11" ry="11" style="stroke:#A80036;stroke-width:1.0;"/><path d="M865.3938,310.6719 C864.4563,310.2344 863.8625,310.0938 862.9875,310.0938 C860.3625,310.0938 858.3625,312.1719 858.3625,314.8906 L858.3625,316.0156 C858.3625,318.5938 860.4719,320.4844 863.3625,320.4844 C864.5813,320.4844 865.7375,320.1875 866.4875,319.6406 C867.0656,319.2344 867.3938,318.7813 867.3938,318.3906 C867.3938,317.9375 867.0031,317.5469 866.5344,317.5469 C866.3156,317.5469 866.1125,317.625 865.925,317.8125 C865.4719,318.2969 865.4719,318.2969 865.2844,318.3906 C864.8625,318.6563 864.175,318.7813 863.4094,318.7813 C861.3625,318.7813 860.0656,317.6875 860.0656,315.9844 L860.0656,314.8906 C860.0656,313.1094 861.3156,311.7969 863.05,311.7969 C863.6281,311.7969 864.2375,311.9531 864.7063,312.2031 C865.1906,312.4844 865.3625,312.7031 865.4563,313.1094 C865.5188,313.5156 865.55,313.6406 865.6906,313.7656 C865.8313,313.9063 866.0656,314.0156 866.2844,314.0156 C866.55,314.0156 866.8156,313.875 866.9875,313.6563 C867.0969,313.5 867.1281,313.3125 867.1281,312.8906 L867.1281,311.4688 C867.1281,311.0313 867.1125,310.9063 867.0188,310.75 C866.8625,310.4844 866.5813,310.3438 866.2844,310.3438 C865.9875,310.3438 865.7844,310.4375 865.5656,310.75 L865.3938,310.6719 Z " fill="#000000"/><text fill="#000000" font-family="sans-serif" font-size="12" lengthAdjust="spacingAndGlyphs" textLength="77" x="879.95" y="319.1543">ResumeView</text><line style="stroke:#A80036;stroke-width:1.5;" x1="836" x2="972" y1="331" y2="331"/><line style="stroke:#A80036;stroke-width:1.5;" x1="836" x2="972" y1="339" y2="339"/><ellipse cx="846" cy="350" fill="#84BE84" rx="3" ry="3" style="stroke:#038048;stroke-width:1.0;"/><text fill="#000000" font-family="sans-serif" font-size="11" lengthAdjust="spacingAndGlyphs" textLength="112" x="855" y="353.2104">ResumeView(Logic)</text><polygon fill="#4177AF" points="846,358.8047,842,364.8047,850,364.8047" style="stroke:#1963A0;stroke-width:1.0;"/><text fill="#000000" font-family="sans-serif" font-size="11" lengthAdjust="spacingAndGlyphs" textLength="104" x="855" y="366.0151">interact(): boolean</text><!--MD5=[2d78dc9f6799219010ec4b46c4600efc]
class tictactoe.views.console.SubView--><rect codeLine="23" fill="#FEFECE" filter="url(#f1id6kfiptapxw)" height="73.6094" id="tictactoe.views.console.SubView" style="stroke:#A80036;stroke-width:1.5;" width="113" x="1044.5" y="133.5"/><ellipse cx="1072.55" cy="149.5" fill="#ADD1B2" rx="11" ry="11" style="stroke:#A80036;stroke-width:1.0;"/><path d="M1074.8938,145.1719 C1073.9563,144.7344 1073.3625,144.5938 1072.4875,144.5938 C1069.8625,144.5938 1067.8625,146.6719 1067.8625,149.3906 L1067.8625,150.5156 C1067.8625,153.0938 1069.9719,154.9844 1072.8625,154.9844 C1074.0813,154.9844 1075.2375,154.6875 1075.9875,154.1406 C1076.5656,153.7344 1076.8938,153.2813 1076.8938,152.8906 C1076.8938,152.4375 1076.5031,152.0469 1076.0344,152.0469 C1075.8156,152.0469 1075.6125,152.125 1075.425,152.3125 C1074.9719,152.7969 1074.9719,152.7969 1074.7844,152.8906 C1074.3625,153.1563 1073.675,153.2813 1072.9094,153.2813 C1070.8625,153.2813 1069.5656,152.1875 1069.5656,150.4844 L1069.5656,149.3906 C1069.5656,147.6094 1070.8156,146.2969 1072.55,146.2969 C1073.1281,146.2969 1073.7375,146.4531 1074.2063,146.7031 C1074.6906,146.9844 1074.8625,147.2031 1074.9563,147.6094 C1075.0188,148.0156 1075.05,148.1406 1075.1906,148.2656 C1075.3313,148.4063 1075.5656,148.5156 1075.7844,148.5156 C1076.05,148.5156 1076.3156,148.375 1076.4875,148.1563 C1076.5969,148 1076.6281,147.8125 1076.6281,147.3906 L1076.6281,145.9688 C1076.6281,145.5313 1076.6125,145.4063 1076.5188,145.25 C1076.3625,144.9844 1076.0813,144.8438 1075.7844,144.8438 C1075.4875,144.8438 1075.2844,144.9375 1075.0656,145.25 L1074.8938,145.1719 Z " fill="#000000"/><text fill="#000000" font-family="sans-serif" font-size="12" lengthAdjust="spacingAndGlyphs" textLength="52" x="1089.45" y="153.6543">SubView</text><line style="stroke:#A80036;stroke-width:1.5;" x1="1045.5" x2="1156.5" y1="165.5" y2="165.5"/><polygon fill="none" points="1055.5,171.5,1059.5,175.5,1055.5,179.5,1051.5,175.5" style="stroke:#B38D22;stroke-width:1.0;"/><text fill="#000000" font-family="sans-serif" font-size="11" lengthAdjust="spacingAndGlyphs" textLength="62" x="1064.5" y="179.7104">logic: Logic</text><line style="stroke:#A80036;stroke-width:1.5;" x1="1045.5" x2="1156.5" y1="186.3047" y2="186.3047"/><polygon fill="#4177AF" points="1055.5,193.3047,1051.5,199.3047,1059.5,199.3047" style="stroke:#1963A0;stroke-width:1.0;"/><text fill="#000000" font-family="sans-serif" font-size="11" lengthAdjust="spacingAndGlyphs" textLength="87" x="1064.5" y="200.5151">SubView(Logic)</text><!--MD5=[e933b4291156428da126c4c01236555b]
class tictactoe.views.console.GameView--><rect codeLine="79" fill="#FEFECE" filter="url(#f1id6kfiptapxw)" height="73.6094" id="tictactoe.views.console.GameView" style="stroke:#A80036;stroke-width:1.5;" width="126" x="682" y="452"/><ellipse cx="710.5" cy="468" fill="#ADD1B2" rx="11" ry="11" style="stroke:#A80036;stroke-width:1.0;"/><path d="M712.8438,463.6719 C711.9063,463.2344 711.3125,463.0938 710.4375,463.0938 C707.8125,463.0938 705.8125,465.1719 705.8125,467.8906 L705.8125,469.0156 C705.8125,471.5938 707.9219,473.4844 710.8125,473.4844 C712.0313,473.4844 713.1875,473.1875 713.9375,472.6406 C714.5156,472.2344 714.8438,471.7813 714.8438,471.3906 C714.8438,470.9375 714.4531,470.5469 713.9844,470.5469 C713.7656,470.5469 713.5625,470.625 713.375,470.8125 C712.9219,471.2969 712.9219,471.2969 712.7344,471.3906 C712.3125,471.6563 711.625,471.7813 710.8594,471.7813 C708.8125,471.7813 707.5156,470.6875 707.5156,468.9844 L707.5156,467.8906 C707.5156,466.1094 708.7656,464.7969 710.5,464.7969 C711.0781,464.7969 711.6875,464.9531 712.1563,465.2031 C712.6406,465.4844 712.8125,465.7031 712.9063,466.1094 C712.9688,466.5156 713,466.6406 713.1406,466.7656 C713.2813,466.9063 713.5156,467.0156 713.7344,467.0156 C714,467.0156 714.2656,466.875 714.4375,466.6563 C714.5469,466.5 714.5781,466.3125 714.5781,465.8906 L714.5781,464.4688 C714.5781,464.0313 714.5625,463.9063 714.4688,463.75 C714.3125,463.4844 714.0313,463.3438 713.7344,463.3438 C713.4375,463.3438 713.2344,463.4375 713.0156,463.75 L712.8438,463.6719 Z " fill="#000000"/><text fill="#000000" font-family="sans-serif" font-size="12" lengthAdjust="spacingAndGlyphs" textLength="64" x="727.5" y="472.1543">GameView</text><line style="stroke:#A80036;stroke-width:1.5;" x1="683" x2="807" y1="484" y2="484"/><line style="stroke:#A80036;stroke-width:1.5;" x1="683" x2="807" y1="492" y2="492"/><polygon fill="#4177AF" points="693,499,689,505,697,505" style="stroke:#1963A0;stroke-width:1.0;"/><text fill="#000000" font-family="sans-serif" font-size="11" lengthAdjust="spacingAndGlyphs" textLength="100" x="702" y="506.2104">GameView(Logic)</text><polygon fill="#4177AF" points="693,511.8047,689,517.8047,697,517.8047" style="stroke:#1963A0;stroke-width:1.0;"/><text fill="#000000" font-family="sans-serif" font-size="11" lengthAdjust="spacingAndGlyphs" textLength="36" x="702" y="519.0151">write()</text><!--MD5=[85374d0a3ee4b3ef5b557089b06e5446]
class tictactoe.views.console.TokenView--><rect codeLine="89" fill="#FEFECE" filter="url(#f1id6kfiptapxw)" height="86.4141" id="tictactoe.views.console.TokenView" style="stroke:#A80036;stroke-width:1.5;" width="132" x="957" y="586"/><ellipse cx="987.3" cy="602" fill="#ADD1B2" rx="11" ry="11" style="stroke:#A80036;stroke-width:1.0;"/><path d="M989.6438,597.6719 C988.7063,597.2344 988.1125,597.0938 987.2375,597.0938 C984.6125,597.0938 982.6125,599.1719 982.6125,601.8906 L982.6125,603.0156 C982.6125,605.5938 984.7219,607.4844 987.6125,607.4844 C988.8313,607.4844 989.9875,607.1875 990.7375,606.6406 C991.3156,606.2344 991.6438,605.7813 991.6438,605.3906 C991.6438,604.9375 991.2531,604.5469 990.7844,604.5469 C990.5656,604.5469 990.3625,604.625 990.175,604.8125 C989.7219,605.2969 989.7219,605.2969 989.5344,605.3906 C989.1125,605.6563 988.425,605.7813 987.6594,605.7813 C985.6125,605.7813 984.3156,604.6875 984.3156,602.9844 L984.3156,601.8906 C984.3156,600.1094 985.5656,598.7969 987.3,598.7969 C987.8781,598.7969 988.4875,598.9531 988.9563,599.2031 C989.4406,599.4844 989.6125,599.7031 989.7063,600.1094 C989.7688,600.5156 989.8,600.6406 989.9406,600.7656 C990.0813,600.9063 990.3156,601.0156 990.5344,601.0156 C990.8,601.0156 991.0656,600.875 991.2375,600.6563 C991.3469,600.5 991.3781,600.3125 991.3781,599.8906 L991.3781,598.4688 C991.3781,598.0313 991.3625,597.9063 991.2688,597.75 C991.1125,597.4844 990.8313,597.3438 990.5344,597.3438 C990.2375,597.3438 990.0344,597.4375 989.8156,597.75 L989.6438,597.6719 Z " fill="#000000"/><text fill="#000000" font-family="sans-serif" font-size="12" lengthAdjust="spacingAndGlyphs" textLength="66" x="1004.7" y="606.1543">TokenView</text><line style="stroke:#A80036;stroke-width:1.5;" x1="958" x2="1088" y1="618" y2="618"/><ellipse cx="968" cy="629" fill="none" rx="3" ry="3" style="stroke:#038048;stroke-width:1.0;"/><text fill="#000000" font-family="sans-serif" font-size="11" lengthAdjust="spacingAndGlyphs" text-decoration="underline" textLength="94" x="977" y="632.2104">SYMBOLS: char[]</text><line style="stroke:#A80036;stroke-width:1.5;" x1="958" x2="1088" y1="638.8047" y2="638.8047"/><polygon fill="#4177AF" points="968,645.8047,964,651.8047,972,651.8047" style="stroke:#1963A0;stroke-width:1.0;"/><text fill="#000000" font-family="sans-serif" font-size="11" lengthAdjust="spacingAndGlyphs" textLength="106" x="977" y="653.0151">TokenView(Token)</text><polygon fill="#4177AF" points="968,658.6094,964,664.6094,972,664.6094" style="stroke:#1963A0;stroke-width:1.0;"/><text fill="#000000" font-family="sans-serif" font-size="11" lengthAdjust="spacingAndGlyphs" textLength="36" x="977" y="665.8198">write()</text><!--MD5=[8830b246a550294711e6eb5af1606829]
class tictactoe.views.console.CoordinateView--><rect codeLine="63" fill="#FEFECE" filter="url(#f1id6kfiptapxw)" height="60.8047" id="tictactoe.views.console.CoordinateView" style="stroke:#A80036;stroke-width:1.5;" width="162" x="843" y="458.5"/><ellipse cx="873.75" cy="474.5" fill="#ADD1B2" rx="11" ry="11" style="stroke:#A80036;stroke-width:1.0;"/><path d="M876.0938,470.1719 C875.1563,469.7344 874.5625,469.5938 873.6875,469.5938 C871.0625,469.5938 869.0625,471.6719 869.0625,474.3906 L869.0625,475.5156 C869.0625,478.0938 871.1719,479.9844 874.0625,479.9844 C875.2813,479.9844 876.4375,479.6875 877.1875,479.1406 C877.7656,478.7344 878.0938,478.2813 878.0938,477.8906 C878.0938,477.4375 877.7031,477.0469 877.2344,477.0469 C877.0156,477.0469 876.8125,477.125 876.625,477.3125 C876.1719,477.7969 876.1719,477.7969 875.9844,477.8906 C875.5625,478.1563 874.875,478.2813 874.1094,478.2813 C872.0625,478.2813 870.7656,477.1875 870.7656,475.4844 L870.7656,474.3906 C870.7656,472.6094 872.0156,471.2969 873.75,471.2969 C874.3281,471.2969 874.9375,471.4531 875.4063,471.7031 C875.8906,471.9844 876.0625,472.2031 876.1563,472.6094 C876.2188,473.0156 876.25,473.1406 876.3906,473.2656 C876.5313,473.4063 876.7656,473.5156 876.9844,473.5156 C877.25,473.5156 877.5156,473.375 877.6875,473.1563 C877.7969,473 877.8281,472.8125 877.8281,472.3906 L877.8281,470.9688 C877.8281,470.5313 877.8125,470.4063 877.7188,470.25 C877.5625,469.9844 877.2813,469.8438 876.9844,469.8438 C876.6875,469.8438 876.4844,469.9375 876.2656,470.25 L876.0938,470.1719 Z " fill="#000000"/><text fill="#000000" font-family="sans-serif" font-size="12" lengthAdjust="spacingAndGlyphs" textLength="95" x="891.25" y="478.6543">CoordinateView</text><line style="stroke:#A80036;stroke-width:1.5;" x1="844" x2="1004" y1="490.5" y2="490.5"/><line style="stroke:#A80036;stroke-width:1.5;" x1="844" x2="1004" y1="498.5" y2="498.5"/><ellipse cx="854" cy="509.5" fill="#84BE84" rx="3" ry="3" style="stroke:#038048;stroke-width:1.0;"/><text fill="#000000" font-family="sans-serif" font-size="11" lengthAdjust="spacingAndGlyphs" textLength="136" x="863" y="512.7104">read(String): Coordinate</text><!--MD5=[1ca4e66fd27a79cb5d7093d90b3139a4]
class tictactoe.views.console.ErrorView--><rect codeLine="71" fill="#FEFECE" filter="url(#f1id6kfiptapxw)" height="73.6094" id="tictactoe.views.console.ErrorView" style="stroke:#A80036;stroke-width:1.5;" width="114" x="1124" y="592"/><ellipse cx="1149.35" cy="608" fill="#ADD1B2" rx="11" ry="11" style="stroke:#A80036;stroke-width:1.0;"/><path d="M1151.6938,603.6719 C1150.7563,603.2344 1150.1625,603.0938 1149.2875,603.0938 C1146.6625,603.0938 1144.6625,605.1719 1144.6625,607.8906 L1144.6625,609.0156 C1144.6625,611.5938 1146.7719,613.4844 1149.6625,613.4844 C1150.8813,613.4844 1152.0375,613.1875 1152.7875,612.6406 C1153.3656,612.2344 1153.6938,611.7813 1153.6938,611.3906 C1153.6938,610.9375 1153.3031,610.5469 1152.8344,610.5469 C1152.6156,610.5469 1152.4125,610.625 1152.225,610.8125 C1151.7719,611.2969 1151.7719,611.2969 1151.5844,611.3906 C1151.1625,611.6563 1150.475,611.7813 1149.7094,611.7813 C1147.6625,611.7813 1146.3656,610.6875 1146.3656,608.9844 L1146.3656,607.8906 C1146.3656,606.1094 1147.6156,604.7969 1149.35,604.7969 C1149.9281,604.7969 1150.5375,604.9531 1151.0063,605.2031 C1151.4906,605.4844 1151.6625,605.7031 1151.7563,606.1094 C1151.8188,606.5156 1151.85,606.6406 1151.9906,606.7656 C1152.1313,606.9063 1152.3656,607.0156 1152.5844,607.0156 C1152.85,607.0156 1153.1156,606.875 1153.2875,606.6563 C1153.3969,606.5 1153.4281,606.3125 1153.4281,605.8906 L1153.4281,604.4688 C1153.4281,604.0313 1153.4125,603.9063 1153.3188,603.75 C1153.1625,603.4844 1152.8813,603.3438 1152.5844,603.3438 C1152.2875,603.3438 1152.0844,603.4375 1151.8656,603.75 L1151.6938,603.6719 Z " fill="#000000"/><text fill="#000000" font-family="sans-serif" font-size="12" lengthAdjust="spacingAndGlyphs" textLength="59" x="1165.65" y="612.1543">ErrorView</text><line style="stroke:#A80036;stroke-width:1.5;" x1="1125" x2="1237" y1="624" y2="624"/><line style="stroke:#A80036;stroke-width:1.5;" x1="1125" x2="1237" y1="632" y2="632"/><polygon fill="#4177AF" points="1135,639,1131,645,1139,645" style="stroke:#1963A0;stroke-width:1.0;"/><text fill="#000000" font-family="sans-serif" font-size="11" lengthAdjust="spacingAndGlyphs" textLength="88" x="1144" y="646.2104">ErrorView(Error)</text><polygon fill="#4177AF" points="1135,651.8047,1131,657.8047,1139,657.8047" style="stroke:#1963A0;stroke-width:1.0;"/><text fill="#000000" font-family="sans-serif" font-size="11" lengthAdjust="spacingAndGlyphs" textLength="46" x="1144" y="659.0151">writeln()</text><!--MD5=[c045e12321b83266d36d22b9096c24ea]
class View--><rect codeLine="1" fill="#FEFECE" filter="url(#f1id6kfiptapxw)" height="53.9375" id="View" style="stroke:#A80036;stroke-width:1.5;" width="200" x="804" y="7"/><ellipse cx="819" cy="25.9688" fill="#A9DCDF" rx="11" ry="11" style="stroke:#A80036;stroke-width:1.0;"/><path d="M821.0781,27.7813 L821.4688,28.7656 L821.0781,28.7656 C820.625,28.7656 820.5156,28.7813 820.3594,28.8906 C820.1094,29.0469 819.9531,29.3281 819.9531,29.625 C819.9531,29.8906 820.0938,30.1406 820.3125,30.2969 C820.4531,30.4219 820.6563,30.4688 821.0781,30.4688 L823.4375,30.4688 C823.7969,30.4688 824.0156,30.4375 824.1563,30.3438 C824.4063,30.2031 824.5625,29.9063 824.5625,29.625 C824.5625,29.3438 824.4219,29.0938 824.2031,28.9375 C824.0313,28.7969 823.875,28.7656 823.4063,28.7656 L820.0156,20.5625 L816.3438,20.5625 C815.8906,20.5625 815.7656,20.5781 815.6094,20.6719 C815.3594,20.8438 815.2031,21.125 815.2031,21.4063 C815.2031,21.6875 815.3438,21.9375 815.5625,22.1094 C815.7344,22.2188 815.9063,22.25 816.3438,22.25 L817.4219,22.25 L814.7813,28.7656 C814.3594,28.7656 814.2031,28.7813 814.0469,28.8906 C813.7969,29.0469 813.6406,29.3281 813.6406,29.625 C813.6406,30.1875 814.0156,30.4688 814.7656,30.4688 L817.0313,30.4688 C817.3906,30.4688 817.6094,30.4375 817.7344,30.3438 C818,30.2031 818.1406,29.9063 818.1406,29.625 C818.1406,29.3438 818.0156,29.0938 817.7969,28.9219 C817.625,28.7969 817.4844,28.7656 817.0313,28.7656 L816.6406,28.7656 L817.0313,27.7813 L821.0781,27.7813 Z M820.375,26.0781 L817.7031,26.0781 L819.0469,22.8125 L820.375,26.0781 Z " fill="#000000"/><text fill="#000000" font-family="sans-serif" font-size="12" font-style="italic" lengthAdjust="spacingAndGlyphs" textLength="168" x="833" y="23.1387">usantatecla.tictactoe.views.</text><text fill="#000000" font-family="sans-serif" font-size="12" font-style="italic" lengthAdjust="spacingAndGlyphs" textLength="28" x="903" y="37.1074">View</text><line style="stroke:#A80036;stroke-width:1.5;" x1="805" x2="1003" y1="44.9375" y2="44.9375"/><line style="stroke:#A80036;stroke-width:1.5;" x1="805" x2="1003" y1="52.9375" y2="52.9375"/><!--MD5=[8c7d7abc12e214c3cc12c9ab70edee11]
class Coordinate--><rect codeLine="2" fill="#FEFECE" filter="url(#f1id6kfiptapxw)" height="53.9375" id="Coordinate" style="stroke:#A80036;stroke-width:1.5;" width="206" x="444" y="602"/><ellipse cx="459" cy="620.9688" fill="#ADD1B2" rx="11" ry="11" style="stroke:#A80036;stroke-width:1.0;"/><path d="M461.3438,616.6406 C460.4063,616.2031 459.8125,616.0625 458.9375,616.0625 C456.3125,616.0625 454.3125,618.1406 454.3125,620.8594 L454.3125,621.9844 C454.3125,624.5625 456.4219,626.4531 459.3125,626.4531 C460.5313,626.4531 461.6875,626.1563 462.4375,625.6094 C463.0156,625.2031 463.3438,624.75 463.3438,624.3594 C463.3438,623.9063 462.9531,623.5156 462.4844,623.5156 C462.2656,623.5156 462.0625,623.5938 461.875,623.7813 C461.4219,624.2656 461.4219,624.2656 461.2344,624.3594 C460.8125,624.625 460.125,624.75 459.3594,624.75 C457.3125,624.75 456.0156,623.6563 456.0156,621.9531 L456.0156,620.8594 C456.0156,619.0781 457.2656,617.7656 459,617.7656 C459.5781,617.7656 460.1875,617.9219 460.6563,618.1719 C461.1406,618.4531 461.3125,618.6719 461.4063,619.0781 C461.4688,619.4844 461.5,619.6094 461.6406,619.7344 C461.7813,619.875 462.0156,619.9844 462.2344,619.9844 C462.5,619.9844 462.7656,619.8438 462.9375,619.625 C463.0469,619.4688 463.0781,619.2813 463.0781,618.8594 L463.0781,617.4375 C463.0781,617 463.0625,616.875 462.9688,616.7188 C462.8125,616.4531 462.5313,616.3125 462.2344,616.3125 C461.9375,616.3125 461.7344,616.4063 461.5156,616.7188 L461.3438,616.6406 Z " fill="#000000"/><text fill="#000000" font-family="sans-serif" font-size="12" lengthAdjust="spacingAndGlyphs" textLength="174" x="473" y="618.1387">usantatecla.tictactoe.models.</text><text fill="#000000" font-family="sans-serif" font-size="12" lengthAdjust="spacingAndGlyphs" textLength="66" x="527" y="632.1074">Coordinate</text><line style="stroke:#A80036;stroke-width:1.5;" x1="445" x2="649" y1="639.9375" y2="639.9375"/><line style="stroke:#A80036;stroke-width:1.5;" x1="445" x2="649" y1="647.9375" y2="647.9375"/><!--MD5=[b8cfd8c4119a3b0a7a46bfc5fc780f85]
class Error--><rect codeLine="3" fill="#FEFECE" filter="url(#f1id6kfiptapxw)" height="53.9375" id="Error" style="stroke:#A80036;stroke-width:1.5;" width="195" x="1083.5" y="732"/><ellipse cx="1098.5" cy="750.9688" fill="#ADD1B2" rx="11" ry="11" style="stroke:#A80036;stroke-width:1.0;"/><path d="M1100.8438,746.6406 C1099.9063,746.2031 1099.3125,746.0625 1098.4375,746.0625 C1095.8125,746.0625 1093.8125,748.1406 1093.8125,750.8594 L1093.8125,751.9844 C1093.8125,754.5625 1095.9219,756.4531 1098.8125,756.4531 C1100.0313,756.4531 1101.1875,756.1563 1101.9375,755.6094 C1102.5156,755.2031 1102.8438,754.75 1102.8438,754.3594 C1102.8438,753.9063 1102.4531,753.5156 1101.9844,753.5156 C1101.7656,753.5156 1101.5625,753.5938 1101.375,753.7813 C1100.9219,754.2656 1100.9219,754.2656 1100.7344,754.3594 C1100.3125,754.625 1099.625,754.75 1098.8594,754.75 C1096.8125,754.75 1095.5156,753.6563 1095.5156,751.9531 L1095.5156,750.8594 C1095.5156,749.0781 1096.7656,747.7656 1098.5,747.7656 C1099.0781,747.7656 1099.6875,747.9219 1100.1563,748.1719 C1100.6406,748.4531 1100.8125,748.6719 1100.9063,749.0781 C1100.9688,749.4844 1101,749.6094 1101.1406,749.7344 C1101.2813,749.875 1101.5156,749.9844 1101.7344,749.9844 C1102,749.9844 1102.2656,749.8438 1102.4375,749.625 C1102.5469,749.4688 1102.5781,749.2813 1102.5781,748.8594 L1102.5781,747.4375 C1102.5781,747 1102.5625,746.875 1102.4688,746.7188 C1102.3125,746.4531 1102.0313,746.3125 1101.7344,746.3125 C1101.4375,746.3125 1101.2344,746.4063 1101.0156,746.7188 L1100.8438,746.6406 Z " fill="#000000"/><text fill="#000000" font-family="sans-serif" font-size="12" lengthAdjust="spacingAndGlyphs" textLength="163" x="1112.5" y="748.1387">usantatecla.tictactoe.types.</text><text fill="#000000" font-family="sans-serif" font-size="12" lengthAdjust="spacingAndGlyphs" textLength="30" x="1179" y="762.1074">Error</text><line style="stroke:#A80036;stroke-width:1.5;" x1="1084.5" x2="1277.5" y1="769.9375" y2="769.9375"/><line style="stroke:#A80036;stroke-width:1.5;" x1="1084.5" x2="1277.5" y1="777.9375" y2="777.9375"/><!--MD5=[d8c8cfd5ca149094f5b67f9f607a5ec7]
class Token--><rect codeLine="4" fill="#FEFECE" filter="url(#f1id6kfiptapxw)" height="53.9375" id="Token" style="stroke:#A80036;stroke-width:1.5;" width="195" x="1288.5" y="462"/><ellipse cx="1303.5" cy="480.9688" fill="#ADD1B2" rx="11" ry="11" style="stroke:#A80036;stroke-width:1.0;"/><path d="M1305.8438,476.6406 C1304.9063,476.2031 1304.3125,476.0625 1303.4375,476.0625 C1300.8125,476.0625 1298.8125,478.1406 1298.8125,480.8594 L1298.8125,481.9844 C1298.8125,484.5625 1300.9219,486.4531 1303.8125,486.4531 C1305.0313,486.4531 1306.1875,486.1563 1306.9375,485.6094 C1307.5156,485.2031 1307.8438,484.75 1307.8438,484.3594 C1307.8438,483.9063 1307.4531,483.5156 1306.9844,483.5156 C1306.7656,483.5156 1306.5625,483.5938 1306.375,483.7813 C1305.9219,484.2656 1305.9219,484.2656 1305.7344,484.3594 C1305.3125,484.625 1304.625,484.75 1303.8594,484.75 C1301.8125,484.75 1300.5156,483.6563 1300.5156,481.9531 L1300.5156,480.8594 C1300.5156,479.0781 1301.7656,477.7656 1303.5,477.7656 C1304.0781,477.7656 1304.6875,477.9219 1305.1563,478.1719 C1305.6406,478.4531 1305.8125,478.6719 1305.9063,479.0781 C1305.9688,479.4844 1306,479.6094 1306.1406,479.7344 C1306.2813,479.875 1306.5156,479.9844 1306.7344,479.9844 C1307,479.9844 1307.2656,479.8438 1307.4375,479.625 C1307.5469,479.4688 1307.5781,479.2813 1307.5781,478.8594 L1307.5781,477.4375 C1307.5781,477 1307.5625,476.875 1307.4688,476.7188 C1307.3125,476.4531 1307.0313,476.3125 1306.7344,476.3125 C1306.4375,476.3125 1306.2344,476.4063 1306.0156,476.7188 L1305.8438,476.6406 Z " fill="#000000"/><text fill="#000000" font-family="sans-serif" font-size="12" lengthAdjust="spacingAndGlyphs" textLength="163" x="1317.5" y="478.1387">usantatecla.tictactoe.types.</text><text fill="#000000" font-family="sans-serif" font-size="12" lengthAdjust="spacingAndGlyphs" textLength="37" x="1380.5" y="492.1074">Token</text><line style="stroke:#A80036;stroke-width:1.5;" x1="1289.5" x2="1482.5" y1="499.9375" y2="499.9375"/><line style="stroke:#A80036;stroke-width:1.5;" x1="1289.5" x2="1482.5" y1="507.9375" y2="507.9375"/><!--MD5=[bea5b0d46523efab5ea1c1d339f396f0]
class Message--><rect codeLine="5" fill="#FEFECE" filter="url(#f1id6kfiptapxw)" height="53.9375" id="Message" style="stroke:#A80036;stroke-width:1.5;" width="196" x="142" y="602"/><ellipse cx="157" cy="620.9688" fill="#ADD1B2" rx="11" ry="11" style="stroke:#A80036;stroke-width:1.0;"/><path d="M159.3438,616.6406 C158.4063,616.2031 157.8125,616.0625 156.9375,616.0625 C154.3125,616.0625 152.3125,618.1406 152.3125,620.8594 L152.3125,621.9844 C152.3125,624.5625 154.4219,626.4531 157.3125,626.4531 C158.5313,626.4531 159.6875,626.1563 160.4375,625.6094 C161.0156,625.2031 161.3438,624.75 161.3438,624.3594 C161.3438,623.9063 160.9531,623.5156 160.4844,623.5156 C160.2656,623.5156 160.0625,623.5938 159.875,623.7813 C159.4219,624.2656 159.4219,624.2656 159.2344,624.3594 C158.8125,624.625 158.125,624.75 157.3594,624.75 C155.3125,624.75 154.0156,623.6563 154.0156,621.9531 L154.0156,620.8594 C154.0156,619.0781 155.2656,617.7656 157,617.7656 C157.5781,617.7656 158.1875,617.9219 158.6563,618.1719 C159.1406,618.4531 159.3125,618.6719 159.4063,619.0781 C159.4688,619.4844 159.5,619.6094 159.6406,619.7344 C159.7813,619.875 160.0156,619.9844 160.2344,619.9844 C160.5,619.9844 160.7656,619.8438 160.9375,619.625 C161.0469,619.4688 161.0781,619.2813 161.0781,618.8594 L161.0781,617.4375 C161.0781,617 161.0625,616.875 160.9688,616.7188 C160.8125,616.4531 160.5313,616.3125 160.2344,616.3125 C159.9375,616.3125 159.7344,616.4063 159.5156,616.7188 L159.3438,616.6406 Z " fill="#000000"/><text fill="#000000" font-family="sans-serif" font-size="12" lengthAdjust="spacingAndGlyphs" textLength="164" x="171" y="618.1387">usantatecla.tictactoe.views.</text><text fill="#000000" font-family="sans-serif" font-size="12" lengthAdjust="spacingAndGlyphs" textLength="55" x="225.5" y="632.1074">Message</text><line style="stroke:#A80036;stroke-width:1.5;" x1="143" x2="337" y1="639.9375" y2="639.9375"/><line style="stroke:#A80036;stroke-width:1.5;" x1="143" x2="337" y1="647.9375" y2="647.9375"/><!--MD5=[86cec68673cafdfc1c204348d5b2cca6]
class ErrorView--><rect codeLine="6" fill="#FEFECE" filter="url(#f1id6kfiptapxw)" height="53.9375" id="ErrorView" style="stroke:#A80036;stroke-width:1.5;" width="196" x="1849" y="462"/><ellipse cx="1864" cy="480.9688" fill="#ADD1B2" rx="11" ry="11" style="stroke:#A80036;stroke-width:1.0;"/><path d="M1866.3438,476.6406 C1865.4063,476.2031 1864.8125,476.0625 1863.9375,476.0625 C1861.3125,476.0625 1859.3125,478.1406 1859.3125,480.8594 L1859.3125,481.9844 C1859.3125,484.5625 1861.4219,486.4531 1864.3125,486.4531 C1865.5313,486.4531 1866.6875,486.1563 1867.4375,485.6094 C1868.0156,485.2031 1868.3438,484.75 1868.3438,484.3594 C1868.3438,483.9063 1867.9531,483.5156 1867.4844,483.5156 C1867.2656,483.5156 1867.0625,483.5938 1866.875,483.7813 C1866.4219,484.2656 1866.4219,484.2656 1866.2344,484.3594 C1865.8125,484.625 1865.125,484.75 1864.3594,484.75 C1862.3125,484.75 1861.0156,483.6563 1861.0156,481.9531 L1861.0156,480.8594 C1861.0156,479.0781 1862.2656,477.7656 1864,477.7656 C1864.5781,477.7656 1865.1875,477.9219 1865.6563,478.1719 C1866.1406,478.4531 1866.3125,478.6719 1866.4063,479.0781 C1866.4688,479.4844 1866.5,479.6094 1866.6406,479.7344 C1866.7813,479.875 1867.0156,479.9844 1867.2344,479.9844 C1867.5,479.9844 1867.7656,479.8438 1867.9375,479.625 C1868.0469,479.4688 1868.0781,479.2813 1868.0781,478.8594 L1868.0781,477.4375 C1868.0781,477 1868.0625,476.875 1867.9688,476.7188 C1867.8125,476.4531 1867.5313,476.3125 1867.2344,476.3125 C1866.9375,476.3125 1866.7344,476.4063 1866.5156,476.7188 L1866.3438,476.6406 Z " fill="#000000"/><text fill="#000000" font-family="sans-serif" font-size="12" lengthAdjust="spacingAndGlyphs" textLength="164" x="1878" y="478.1387">usantatecla.tictactoe.views.</text><text fill="#000000" font-family="sans-serif" font-size="12" lengthAdjust="spacingAndGlyphs" textLength="59" x="1930.5" y="492.1074">ErrorView</text><line style="stroke:#A80036;stroke-width:1.5;" x1="1850" x2="2044" y1="499.9375" y2="499.9375"/><line style="stroke:#A80036;stroke-width:1.5;" x1="1850" x2="2044" y1="507.9375" y2="507.9375"/><!--MD5=[42fa18dda7351a0ae87d9497de925436]
class Logic--><rect codeLine="7" fill="#FEFECE" filter="url(#f1id6kfiptapxw)" height="53.9375" id="Logic" style="stroke:#A80036;stroke-width:1.5;" width="226" x="1589" y="602"/><ellipse cx="1604" cy="620.9688" fill="#ADD1B2" rx="11" ry="11" style="stroke:#A80036;stroke-width:1.0;"/><path d="M1606.3438,616.6406 C1605.4063,616.2031 1604.8125,616.0625 1603.9375,616.0625 C1601.3125,616.0625 1599.3125,618.1406 1599.3125,620.8594 L1599.3125,621.9844 C1599.3125,624.5625 1601.4219,626.4531 1604.3125,626.4531 C1605.5313,626.4531 1606.6875,626.1563 1607.4375,625.6094 C1608.0156,625.2031 1608.3438,624.75 1608.3438,624.3594 C1608.3438,623.9063 1607.9531,623.5156 1607.4844,623.5156 C1607.2656,623.5156 1607.0625,623.5938 1606.875,623.7813 C1606.4219,624.2656 1606.4219,624.2656 1606.2344,624.3594 C1605.8125,624.625 1605.125,624.75 1604.3594,624.75 C1602.3125,624.75 1601.0156,623.6563 1601.0156,621.9531 L1601.0156,620.8594 C1601.0156,619.0781 1602.2656,617.7656 1604,617.7656 C1604.5781,617.7656 1605.1875,617.9219 1605.6563,618.1719 C1606.1406,618.4531 1606.3125,618.6719 1606.4063,619.0781 C1606.4688,619.4844 1606.5,619.6094 1606.6406,619.7344 C1606.7813,619.875 1607.0156,619.9844 1607.2344,619.9844 C1607.5,619.9844 1607.7656,619.8438 1607.9375,619.625 C1608.0469,619.4688 1608.0781,619.2813 1608.0781,618.8594 L1608.0781,617.4375 C1608.0781,617 1608.0625,616.875 1607.9688,616.7188 C1607.8125,616.4531 1607.5313,616.3125 1607.2344,616.3125 C1606.9375,616.3125 1606.7344,616.4063 1606.5156,616.7188 L1606.3438,616.6406 Z " fill="#000000"/><text fill="#000000" font-family="sans-serif" font-size="12" lengthAdjust="spacingAndGlyphs" textLength="194" x="1618" y="618.1387">usantatecla.tictactoe.controllers.</text><text fill="#000000" font-family="sans-serif" font-size="12" lengthAdjust="spacingAndGlyphs" textLength="32" x="1699" y="632.1074">Logic</text><line style="stroke:#A80036;stroke-width:1.5;" x1="1590" x2="1814" y1="639.9375" y2="639.9375"/><line style="stroke:#A80036;stroke-width:1.5;" x1="1590" x2="1814" y1="647.9375" y2="647.9375"/><!--MD5=[315b61b427ec618d6861d47eee00cca3]
class Console--><rect codeLine="8" fill="#FEFECE" filter="url(#f1id6kfiptapxw)" height="53.9375" id="Console" style="stroke:#A80036;stroke-width:1.5;" width="130" x="7" y="732"/><ellipse cx="22" cy="750.9688" fill="#ADD1B2" rx="11" ry="11" style="stroke:#A80036;stroke-width:1.0;"/><path d="M24.3438,746.6406 C23.4063,746.2031 22.8125,746.0625 21.9375,746.0625 C19.3125,746.0625 17.3125,748.1406 17.3125,750.8594 L17.3125,751.9844 C17.3125,754.5625 19.4219,756.4531 22.3125,756.4531 C23.5313,756.4531 24.6875,756.1563 25.4375,755.6094 C26.0156,755.2031 26.3438,754.75 26.3438,754.3594 C26.3438,753.9063 25.9531,753.5156 25.4844,753.5156 C25.2656,753.5156 25.0625,753.5938 24.875,753.7813 C24.4219,754.2656 24.4219,754.2656 24.2344,754.3594 C23.8125,754.625 23.125,754.75 22.3594,754.75 C20.3125,754.75 19.0156,753.6563 19.0156,751.9531 L19.0156,750.8594 C19.0156,749.0781 20.2656,747.7656 22,747.7656 C22.5781,747.7656 23.1875,747.9219 23.6563,748.1719 C24.1406,748.4531 24.3125,748.6719 24.4063,749.0781 C24.4688,749.4844 24.5,749.6094 24.6406,749.7344 C24.7813,749.875 25.0156,749.9844 25.2344,749.9844 C25.5,749.9844 25.7656,749.8438 25.9375,749.625 C26.0469,749.4688 26.0781,749.2813 26.0781,748.8594 L26.0781,747.4375 C26.0781,747 26.0625,746.875 25.9688,746.7188 C25.8125,746.4531 25.5313,746.3125 25.2344,746.3125 C24.9375,746.3125 24.7344,746.4063 24.5156,746.7188 L24.3438,746.6406 Z " fill="#000000"/><text fill="#000000" font-family="sans-serif" font-size="12" lengthAdjust="spacingAndGlyphs" textLength="98" x="36" y="748.1387">usantatecla.utils.</text><text fill="#000000" font-family="sans-serif" font-size="12" lengthAdjust="spacingAndGlyphs" textLength="49" x="60.5" y="762.1074">Console</text><line style="stroke:#A80036;stroke-width:1.5;" x1="8" x2="136" y1="769.9375" y2="769.9375"/><line style="stroke:#A80036;stroke-width:1.5;" x1="8" x2="136" y1="777.9375" y2="777.9375"/><!--MD5=[d93cf99d2b92276f27fe8dbf15140505]
class YesNoDialog--><rect codeLine="9" fill="#FEFECE" filter="url(#f1id6kfiptapxw)" height="53.9375" id="YesNoDialog" style="stroke:#A80036;stroke-width:1.5;" width="130" x="1684" y="462"/><ellipse cx="1699" cy="480.9688" fill="#ADD1B2" rx="11" ry="11" style="stroke:#A80036;stroke-width:1.0;"/><path d="M1701.3438,476.6406 C1700.4063,476.2031 1699.8125,476.0625 1698.9375,476.0625 C1696.3125,476.0625 1694.3125,478.1406 1694.3125,480.8594 L1694.3125,481.9844 C1694.3125,484.5625 1696.4219,486.4531 1699.3125,486.4531 C1700.5313,486.4531 1701.6875,486.1563 1702.4375,485.6094 C1703.0156,485.2031 1703.3438,484.75 1703.3438,484.3594 C1703.3438,483.9063 1702.9531,483.5156 1702.4844,483.5156 C1702.2656,483.5156 1702.0625,483.5938 1701.875,483.7813 C1701.4219,484.2656 1701.4219,484.2656 1701.2344,484.3594 C1700.8125,484.625 1700.125,484.75 1699.3594,484.75 C1697.3125,484.75 1696.0156,483.6563 1696.0156,481.9531 L1696.0156,480.8594 C1696.0156,479.0781 1697.2656,477.7656 1699,477.7656 C1699.5781,477.7656 1700.1875,477.9219 1700.6563,478.1719 C1701.1406,478.4531 1701.3125,478.6719 1701.4063,479.0781 C1701.4688,479.4844 1701.5,479.6094 1701.6406,479.7344 C1701.7813,479.875 1702.0156,479.9844 1702.2344,479.9844 C1702.5,479.9844 1702.7656,479.8438 1702.9375,479.625 C1703.0469,479.4688 1703.0781,479.2813 1703.0781,478.8594 L1703.0781,477.4375 C1703.0781,477 1703.0625,476.875 1702.9688,476.7188 C1702.8125,476.4531 1702.5313,476.3125 1702.2344,476.3125 C1701.9375,476.3125 1701.7344,476.4063 1701.5156,476.7188 L1701.3438,476.6406 Z " fill="#000000"/><text fill="#000000" font-family="sans-serif" font-size="12" lengthAdjust="spacingAndGlyphs" textLength="98" x="1713" y="478.1387">usantatecla.utils.</text><text fill="#000000" font-family="sans-serif" font-size="12" lengthAdjust="spacingAndGlyphs" textLength="76" x="1724" y="492.1074">YesNoDialog</text><line style="stroke:#A80036;stroke-width:1.5;" x1="1685" x2="1813" y1="499.9375" y2="499.9375"/><line style="stroke:#A80036;stroke-width:1.5;" x1="1685" x2="1813" y1="507.9375" y2="507.9375"/><!--MD5=[58767b3ac92ed88fc68bd4b9dc66dad3]
class LimitedIntDialog--><rect codeLine="10" fill="#FEFECE" filter="url(#f1id6kfiptapxw)" height="53.9375" id="LimitedIntDialog" style="stroke:#A80036;stroke-width:1.5;" width="130" x="1519" y="462"/><ellipse cx="1534" cy="480.9688" fill="#ADD1B2" rx="11" ry="11" style="stroke:#A80036;stroke-width:1.0;"/><path d="M1536.3438,476.6406 C1535.4063,476.2031 1534.8125,476.0625 1533.9375,476.0625 C1531.3125,476.0625 1529.3125,478.1406 1529.3125,480.8594 L1529.3125,481.9844 C1529.3125,484.5625 1531.4219,486.4531 1534.3125,486.4531 C1535.5313,486.4531 1536.6875,486.1563 1537.4375,485.6094 C1538.0156,485.2031 1538.3438,484.75 1538.3438,484.3594 C1538.3438,483.9063 1537.9531,483.5156 1537.4844,483.5156 C1537.2656,483.5156 1537.0625,483.5938 1536.875,483.7813 C1536.4219,484.2656 1536.4219,484.2656 1536.2344,484.3594 C1535.8125,484.625 1535.125,484.75 1534.3594,484.75 C1532.3125,484.75 1531.0156,483.6563 1531.0156,481.9531 L1531.0156,480.8594 C1531.0156,479.0781 1532.2656,477.7656 1534,477.7656 C1534.5781,477.7656 1535.1875,477.9219 1535.6563,478.1719 C1536.1406,478.4531 1536.3125,478.6719 1536.4063,479.0781 C1536.4688,479.4844 1536.5,479.6094 1536.6406,479.7344 C1536.7813,479.875 1537.0156,479.9844 1537.2344,479.9844 C1537.5,479.9844 1537.7656,479.8438 1537.9375,479.625 C1538.0469,479.4688 1538.0781,479.2813 1538.0781,478.8594 L1538.0781,477.4375 C1538.0781,477 1538.0625,476.875 1537.9688,476.7188 C1537.8125,476.4531 1537.5313,476.3125 1537.2344,476.3125 C1536.9375,476.3125 1536.7344,476.4063 1536.5156,476.7188 L1536.3438,476.6406 Z " fill="#000000"/><text fill="#000000" font-family="sans-serif" font-size="12" lengthAdjust="spacingAndGlyphs" textLength="98" x="1548" y="478.1387">usantatecla.utils.</text><text fill="#000000" font-family="sans-serif" font-size="12" lengthAdjust="spacingAndGlyphs" textLength="95" x="1549.5" y="492.1074">LimitedIntDialog</text><line style="stroke:#A80036;stroke-width:1.5;" x1="1520" x2="1648" y1="499.9375" y2="499.9375"/><line style="stroke:#A80036;stroke-width:1.5;" x1="1520" x2="1648" y1="507.9375" y2="507.9375"/><!--MD5=[574d2af93f9ea817b36d7b7e70662d67]
link View to tictactoe.views.console.ConsoleView--><path codeLine="18" d="M904,81.358 C904,87.657 904,108.991 904,108.991 " fill="none" id="View-tictactoe.views.console.ConsoleView" style="stroke:#A80036;stroke-width:1.0;"/><polygon fill="#A80036" points="904,120.991,908,114.991,904,108.991,900,114.991,904,120.991" style="stroke:#A80036;stroke-width:1.0;"/><polygon fill="none" points="897,81.252,904,61.252,911,81.252,897,81.252" style="stroke:#A80036;stroke-width:1.0;"/><!--MD5=[9113815f8bbc012213d6467f94b3dc5b]
link tictactoe.views.console.ConsoleView to tictactoe.views.console.StartView--><path codeLine="19" d="M847.0639,228.6115 C847.0639,228.6115 804.984,270.82 786.477,289.384 " fill="none" id="tictactoe.views.console.ConsoleView-tictactoe.views.console.StartView" style="stroke:#A80036;stroke-width:1.0;"/><polygon fill="#A80036" points="777.109,298.781,786.2962,295.2319,780.6393,295.2403,780.631,289.5834,777.109,298.781" style="stroke:#A80036;stroke-width:1.0;"/><line style="stroke:#A80036;stroke-width:1.0;" x1="780.6393" x2="786.287" y1="295.2403" y2="289.5745"/><polygon fill="#A80036" points="855.536,220.113,848.4671,221.5382,847.0639,228.6115,854.1328,227.1863,855.536,220.113" style="stroke:#A80036;stroke-width:1.0;"/><!--MD5=[1735144fa38f1aa47117a26d071db586]
link tictactoe.views.console.ConsoleView to tictactoe.views.console.PlayView--><path codeLine="20" d="M981.5418,227.1061 C981.5418,227.1061 1024.21,257.703 1044.69,272.391 " fill="none" id="tictactoe.views.console.ConsoleView-tictactoe.views.console.PlayView" style="stroke:#A80036;stroke-width:1.0;"/><polygon fill="#A80036" points="1055.28,279.981,1050.2949,271.4869,1051.216,277.0683,1045.6346,277.9894,1055.28,279.981" style="stroke:#A80036;stroke-width:1.0;"/><line style="stroke:#A80036;stroke-width:1.0;" x1="1051.216" x2="1044.71" y1="277.0683" y2="272.4055"/><polygon fill="#A80036" points="971.79,220.113,974.3349,226.8601,981.5418,227.1061,978.9969,220.3589,971.79,220.113" style="stroke:#A80036;stroke-width:1.0;"/><!--MD5=[a983e760d9bef84c565434062749d875]
link tictactoe.views.console.ConsoleView to tictactoe.views.console.ResumeView--><path codeLine="21" d="M904,232.113 C904,232.113 904,269.032 904,285.506 " fill="none" id="tictactoe.views.console.ConsoleView-tictactoe.views.console.ResumeView" style="stroke:#A80036;stroke-width:1.0;"/><polygon fill="#A80036" points="904,298.781,908,289.781,904,293.781,900,289.781,904,298.781" style="stroke:#A80036;stroke-width:1.0;"/><line style="stroke:#A80036;stroke-width:1.0;" x1="904" x2="904" y1="293.781" y2="285.781"/><polygon fill="#A80036" points="904,220.113,900,226.113,904,232.113,908,226.113,904,220.113" style="stroke:#A80036;stroke-width:1.0;"/><!--MD5=[5bedb15a5a2dcb2a8d3f661076b447a4]
link tictactoe.views.console.SubView to Logic--><path codeLine="27" d="M1169.7088,180.8749 C1169.7088,180.8749 1953.12,305.509 2063,452 C2132.77,545.023 1958.43,591.539 1828.42,612.664 " fill="none" id="tictactoe.views.console.SubView-Logic" style="stroke:#A80036;stroke-width:1.0;"/><polygon fill="#A80036" points="1815.2,614.751,1824.7139,617.2977,1820.1388,613.9708,1823.4656,609.3957,1815.2,614.751" style="stroke:#A80036;stroke-width:1.0;"/><line style="stroke:#A80036;stroke-width:1.0;" x1="1820.1388" x2="1828.04" y1="613.9708" y2="612.7245"/><polygon fill="#A80036" points="1157.83,179.174,1163.2024,183.9841,1169.7088,180.8749,1164.3364,176.0649,1157.83,179.174" style="stroke:#A80036;stroke-width:1.0;"/><!--MD5=[7673bd27460f3a4a9a8df0bc75b145a4]
reverse link tictactoe.views.console.SubView to tictactoe.views.console.StartView--><path codeLine="33" d="M1025.99,207.35 C1015.98,211.78 1005.79,216.112 996,220 C918.02,250.972 891.619,241.631 817,280 C806.571,285.362 795.997,292.059 786.184,298.915 " fill="none" id="tictactoe.views.console.SubView-backto-tictactoe.views.console.StartView" style="stroke:#A80036;stroke-width:1.0;"/><polygon fill="none" points="1023.17,200.944,1044.27,199.077,1028.94,213.699,1023.17,200.944" style="stroke:#A80036;stroke-width:1.0;"/><!--MD5=[f61c5bd14fbcc9ba89615e843b6dda72]
link tictactoe.views.console.StartView to tictactoe.views.console.GameView--><path codeLine="34" d="M741.958,373.168 C742.545,395.313 743.297,423.72 743.907,446.74 " fill="none" id="tictactoe.views.console.StartView-to-tictactoe.views.console.GameView" style="stroke:#A80036;stroke-width:1.0;stroke-dasharray:7.0,7.0;"/><polygon fill="#A80036" points="744.043,451.865,747.8025,442.7619,743.9102,446.8668,739.8053,442.9745,744.043,451.865" style="stroke:#A80036;stroke-width:1.0;"/><!--MD5=[cbe56104a70ea1577228555875c75924]
link tictactoe.views.console.StartView to Message--><path codeLine="35" d="M681.821,341.355 C599.751,350.081 450.191,375.973 350,452 C300.075,489.884 267.213,557.532 251.274,597.013 " fill="none" id="tictactoe.views.console.StartView-to-Message" style="stroke:#A80036;stroke-width:1.0;stroke-dasharray:7.0,7.0;"/><polygon fill="#A80036" points="249.414,601.684,256.4598,594.8024,251.2638,597.0388,249.0275,591.8427,249.414,601.684" style="stroke:#A80036;stroke-width:1.0;"/><!--MD5=[e5fc69a5d7b9edfb586c1b6276c53e05]
link tictactoe.views.console.StartView to Console--><path codeLine="36" d="M681.844,341.718 C587.746,351.696 401.86,380.224 263,452 C181.805,493.969 156.887,509.415 107,586 C78.3561,629.973 64.9031,690.4281 63.8692,726.7142 " fill="none" id="tictactoe.views.console.StartView-to-Console" style="stroke:#A80036;stroke-width:1.0;stroke-dasharray:7.0,7.0;"/><polygon fill="#A80036" points="63.8065,731.8877,67.9155,722.9369,63.8672,726.8881,59.9161,722.8398,63.8065,731.8877" style="stroke:#A80036;stroke-width:1.0;"/><!--MD5=[e5fc69a5d7b9edfb586c1b6276c53e05]
link tictactoe.views.console.StartView to Console--><path codeLine="95" d="M681.758,344.449 C593.612,356.483 425.868,385.905 298,452 C216.805,493.969 191.887,509.415 142,586 C113.356,629.973 99.9031,690.4281 88.9373,726.7142 " fill="none" id="tictactoe.views.console.StartView-to-Console-1" style="stroke:#A80036;stroke-width:1.0;stroke-dasharray:7.0,7.0;"/><polygon fill="#A80036" points="87.336,731.8877,93.8185,724.4731,88.8146,727.1113,86.1763,722.1074,87.336,731.8877" style="stroke:#A80036;stroke-width:1.0;"/><!--MD5=[f18569398a34687a26f0429a50bef928]
link tictactoe.views.console.StartView to LimitedIntDialog--><path codeLine="37" d="M782.465,373.072 C793.092,380.545 804.944,387.504 817,392 C1102.93,498.637 1205.2,376.982 1501,452 C1509.2,454.078 1517.61,456.874 1525.8,459.994 " fill="none" id="tictactoe.views.console.StartView-to-LimitedIntDialog" style="stroke:#A80036;stroke-width:1.0;stroke-dasharray:7.0,7.0;"/><polygon fill="#A80036" points="1530.86,461.975,1523.9259,454.9809,1526.2011,460.16,1521.0219,462.4352,1530.86,461.975" style="stroke:#A80036;stroke-width:1.0;"/><!--MD5=[11fd0b4de8b90a11bd82623cfccc451d]
reverse link tictactoe.views.console.SubView to tictactoe.views.console.PlayView--><path codeLine="46" d="M1111.65,227.691 C1114.85,244.562 1118.36,263.047 1121.54,279.849 " fill="none" id="tictactoe.views.console.SubView-backto-tictactoe.views.console.PlayView" style="stroke:#A80036;stroke-width:1.0;"/><polygon fill="none" points="1104.73,228.74,1107.88,207.786,1118.48,226.132,1104.73,228.74" style="stroke:#A80036;stroke-width:1.0;"/><!--MD5=[1d94d73bec449a448ed14c1a89f503c1]
link tictactoe.views.console.PlayView to tictactoe.views.console.GameView--><path codeLine="47" d="M1007.76,385.291 C1001.761,387.57 995.816,389.816 990,392 C916.947,419.426 897.295,422.636 825,452 C821.045,453.607 816.996,455.293 812.923,457.022 " fill="none" id="tictactoe.views.console.PlayView-to-tictactoe.views.console.GameView" style="stroke:#A80036;stroke-width:1.0;stroke-dasharray:7.0,7.0;"/><polygon fill="#A80036" points="808.133,459.07,817.9809,459.2105,812.7306,457.1047,814.8364,451.8544,808.133,459.07" style="stroke:#A80036;stroke-width:1.0;"/><!--MD5=[79c70b9791342a198a7a508e5eca16c0]
link tictactoe.views.console.PlayView to tictactoe.views.console.TokenView--><path codeLine="48" d="M1111.37,392.077 C1090.92,446.668 1059.93,529.397 1040.61,580.988 " fill="none" id="tictactoe.views.console.PlayView-to-tictactoe.views.console.TokenView" style="stroke:#A80036;stroke-width:1.0;stroke-dasharray:7.0,7.0;"/><polygon fill="#A80036" points="1038.78,585.882,1045.6817,578.8558,1040.5331,581.1994,1038.1895,576.0509,1038.78,585.882" style="stroke:#A80036;stroke-width:1.0;"/><!--MD5=[62ef53832a268c8eeef898be5bf89785]
link tictactoe.views.console.PlayView to tictactoe.views.console.CoordinateView--><path codeLine="49" d="M1056.02,392.155 C1026.84,413.34 994.481,436.834 969.1,455.259 " fill="none" id="tictactoe.views.console.PlayView-to-tictactoe.views.console.CoordinateView" style="stroke:#A80036;stroke-width:1.0;stroke-dasharray:7.0,7.0;"/><polygon fill="#A80036" points="964.768,458.404,974.401,456.3535,968.8142,455.4665,969.7011,449.8797,964.768,458.404" style="stroke:#A80036;stroke-width:1.0;"/><!--MD5=[e071d848ecb5a4df5f49ec11249b339d]
link tictactoe.views.console.PlayView to tictactoe.views.console.ErrorView--><path codeLine="50" d="M1141.27,392.077 C1150.82,448.789 1165.49,535.865 1174.07,586.855 " fill="none" id="tictactoe.views.console.PlayView-to-tictactoe.views.console.ErrorView" style="stroke:#A80036;stroke-width:1.0;stroke-dasharray:7.0,7.0;"/><polygon fill="#A80036" points="1174.93,591.978,1177.3799,582.4387,1174.0997,587.0474,1169.4909,583.7672,1174.93,591.978" style="stroke:#A80036;stroke-width:1.0;"/><!--MD5=[3b49bdf6c7f6ce83eed251a9af28dbf3]
link tictactoe.views.console.PlayView to Coordinate--><path codeLine="51" d="M1007.77,386.633 C1001.797,388.542 995.851,390.344 990,392 C848.244,432.114 786.982,370.887 664,452 C610.285,487.427 575.258,556.91 558.522,597.164 " fill="none" id="tictactoe.views.console.PlayView-to-Coordinate" style="stroke:#A80036;stroke-width:1.0;stroke-dasharray:7.0,7.0;"/><polygon fill="#A80036" points="556.572,601.924,563.6861,595.1131,558.4681,597.2974,556.2837,592.0794,556.572,601.924" style="stroke:#A80036;stroke-width:1.0;"/><!--MD5=[f335b251d0d5a458b635239e43cc0bb5]
link tictactoe.views.console.PlayView to Message--><path codeLine="52" d="M1007.84,386.875 C1001.845,388.719 995.877,390.441 990,392 C816.239,438.077 761.339,397.604 590,452 C574.64,456.876 390.143,551.021 295.399,599.567 " fill="none" id="tictactoe.views.console.PlayView-to-Message" style="stroke:#A80036;stroke-width:1.0;stroke-dasharray:7.0,7.0;"/><polygon fill="#A80036" points="290.678,601.986,300.5118,601.442,295.1279,599.706,296.8639,594.3221,290.678,601.986" style="stroke:#A80036;stroke-width:1.0;"/><!--MD5=[b8eae5493de689ae966fe038f1428b07]
link tictactoe.views.console.PlayView to Error--><path codeLine="53" d="M1256.43,343.345 C1497.76,356.928 2010.41,392.518 2063,452 C2286.88,705.2312 1560.7,748.9513 1283.77,756.4586 " fill="none" id="tictactoe.views.console.PlayView-to-Error" style="stroke:#A80036;stroke-width:1.0;stroke-dasharray:7.0,7.0;"/><polygon fill="#A80036" points="1278.52,756.598,1287.6306,760.3392,1283.518,756.4552,1287.402,752.3425,1278.52,756.598" style="stroke:#A80036;stroke-width:1.0;"/><!--MD5=[4e0d38e8c19130cebcd44920f1a5db01]
reverse link tictactoe.views.console.SubView to tictactoe.views.console.ResumeView--><path codeLine="59" d="M1041.62,220.78 C1011.37,245.886 975.246,275.869 947.598,298.815 " fill="none" id="tictactoe.views.console.SubView-backto-tictactoe.views.console.ResumeView" style="stroke:#A80036;stroke-width:1.0;"/><polygon fill="none" points="1037.42,215.172,1057.28,207.786,1046.36,225.945,1037.42,215.172" style="stroke:#A80036;stroke-width:1.0;"/><!--MD5=[45d6b98411685f94cdacdaac3bc1e164]
link tictactoe.views.console.ResumeView to Message--><path codeLine="60" d="M854.251,373.109 C842.494,380.3 829.676,387.127 817,392 C670.094,448.473 612.102,388.713 468,452 C387.055,487.549 309.17,557.94 268.724,598.092 " fill="none" id="tictactoe.views.console.ResumeView-to-Message" style="stroke:#A80036;stroke-width:1.0;stroke-dasharray:7.0,7.0;"/><polygon fill="#A80036" points="264.928,601.882,274.124,598.3558,268.4671,598.35,268.4728,592.6932,264.928,601.882" style="stroke:#A80036;stroke-width:1.0;"/><!--MD5=[8fe1c1d6283f66daa4ac51944081ccb1]
link tictactoe.views.console.ResumeView to YesNoDialog--><path codeLine="61" d="M951.481,373.038 C963.486,380.513 976.749,387.48 990,392 C1275.9,489.508 1374.4,376.962 1667,452 C1675.11,454.079 1683.43,456.875 1691.52,459.995 " fill="none" id="tictactoe.views.console.ResumeView-to-YesNoDialog" style="stroke:#A80036;stroke-width:1.0;stroke-dasharray:7.0,7.0;"/><polygon fill="#A80036" points="1696.52,461.976,1689.6269,454.9415,1691.8717,460.1338,1686.6794,462.3787,1696.52,461.976" style="stroke:#A80036;stroke-width:1.0;"/><!--MD5=[b44a7c032619397c63802a117d0c01c0]
link tictactoe.views.console.CoordinateView to tictactoe.views.console.ErrorView--><path codeLine="66" d="M981.168,519.686 C1017.12,538.471 1064.41,563.393 1106,586 C1110.33,588.352 1114.78,590.796 1119.27,593.268 " fill="none" id="tictactoe.views.console.CoordinateView-to-tictactoe.views.console.ErrorView" style="stroke:#A80036;stroke-width:1.0;stroke-dasharray:7.0,7.0;"/><polygon fill="#A80036" points="1123.75,595.748,1117.8022,587.8979,1119.3722,593.3325,1113.9375,594.9024,1123.75,595.748" style="stroke:#A80036;stroke-width:1.0;"/><!--MD5=[a06a410d0f6c1be87ea9d2d5c8f79243]
link tictactoe.views.console.CoordinateView to Console--><path codeLine="67" d="M897.893,519.851 C855.002,566.609 764.589,655.913 667,696 C573.574,734.3769 278.654,750.228 142.344,755.6291 " fill="none" id="tictactoe.views.console.CoordinateView-to-Console" style="stroke:#A80036;stroke-width:1.0;stroke-dasharray:7.0,7.0;"/><polygon fill="#A80036" points="137.166,755.8323,146.3157,759.4769,142.1622,755.6366,146.0025,751.4831,137.166,755.8323" style="stroke:#A80036;stroke-width:1.0;"/><!--MD5=[3ea4caf7e48eaae8f655dde5cd3263f2]
link tictactoe.views.console.CoordinateView to Error--><path codeLine="68" d="M916.389,519.862 C907.109,563.846 897.37,646.206 939,696 C957.329,717.923 1020.91,733.704 1078.3,743.8575 " fill="none" id="tictactoe.views.console.CoordinateView-to-Error" style="stroke:#A80036;stroke-width:1.0;stroke-dasharray:7.0,7.0;"/><polygon fill="#A80036" points="1083.47,744.7614,1075.289,739.2776,1078.544,743.9042,1073.9175,747.1592,1083.47,744.7614" style="stroke:#A80036;stroke-width:1.0;"/><!--MD5=[6e79601aef612c06e9891b4875f898f3]
link tictactoe.views.console.CoordinateView to Coordinate--><path codeLine="69" d="M843.124,519.604 C777.967,543.455 687.01,576.75 623.146,600.127 " fill="none" id="tictactoe.views.console.CoordinateView-to-Coordinate" style="stroke:#A80036;stroke-width:1.0;stroke-dasharray:7.0,7.0;"/><polygon fill="#A80036" points="618.21,601.934,628.0366,602.5961,622.9052,600.2151,625.2863,595.0837,618.21,601.934" style="stroke:#A80036;stroke-width:1.0;"/><!--MD5=[5e3154eeb00ff673e3597b7a5033dd40]
link tictactoe.views.console.ErrorView to Error--><path codeLine="75" d="M1181,666.337 C1181,685.389 1181,708.4905 1181,726.7351 " fill="none" id="tictactoe.views.console.ErrorView-to-Error" style="stroke:#A80036;stroke-width:1.0;stroke-dasharray:7.0,7.0;"/><polygon fill="#A80036" points="1181,731.7449,1185,722.7449,1181,726.7449,1177,722.7449,1181,731.7449" style="stroke:#A80036;stroke-width:1.0;"/><!--MD5=[8ec17c1eeb1fabb729f4f45734e470f6]
link tictactoe.views.console.ErrorView to Console--><path codeLine="76" d="M1149.26,666.296 C1136.99,677.877 1122.04,689.3934 1106,696 C1017.48,732.4674 360.761,751.1658 142.383,756.4235 " fill="none" id="tictactoe.views.console.ErrorView-to-Console" style="stroke:#A80036;stroke-width:1.0;stroke-dasharray:7.0,7.0;"/><polygon fill="#A80036" points="137.306,756.5452,146.3994,760.328,142.3046,756.4252,146.2074,752.3304,137.306,756.5452" style="stroke:#A80036;stroke-width:1.0;"/><!--MD5=[09df14cf147ebf3fa601d40955ce3c27]
reverse link ErrorView to tictactoe.views.console.ErrorView--><path codeLine="77" d="M1849.92,521.495 C1843.88,523.11 1837.87,524.629 1832,526 C1615.32,576.597 1352.11,609.189 1238.15,621.928 " fill="none" id="ErrorView-backto-tictactoe.views.console.ErrorView" style="stroke:#A80036;stroke-width:1.0;"/><polygon fill="none" points="1848.03,514.755,1869.17,516.067,1851.82,528.23,1848.03,514.755" style="stroke:#A80036;stroke-width:1.0;"/><!--MD5=[fb1cd3aaaaf87739f303d1e76524f386]
link tictactoe.views.console.GameView to Logic--><path codeLine="83" d="M819.4675,524.3446 C819.4675,524.3446 823.518,525.591 825,526 C895.625,545.494 1349.92,592.763 1575.42,615.447 " fill="none" id="tictactoe.views.console.GameView-Logic" style="stroke:#A80036;stroke-width:1.0;"/><polygon fill="#A80036" points="1588.62,616.773,1580.0651,611.893,1583.6451,616.273,1579.2651,619.8529,1588.62,616.773" style="stroke:#A80036;stroke-width:1.0;"/><line style="stroke:#A80036;stroke-width:1.0;" x1="1583.6451" x2="1575.685" y1="616.273" y2="615.473"/><polygon fill="#A80036" points="808.098,520.506,812.5032,526.2151,819.4675,524.3446,815.0623,518.6355,808.098,520.506" style="stroke:#A80036;stroke-width:1.0;"/><!--MD5=[3ac3af79272becd7c39264f50d90da00]
link tictactoe.views.console.GameView to tictactoe.views.console.TokenView--><path codeLine="84" d="M808.083,521.314 C850.984,542.611 907.804,570.816 952.245,592.877 " fill="none" id="tictactoe.views.console.GameView-to-tictactoe.views.console.TokenView" style="stroke:#A80036;stroke-width:1.0;stroke-dasharray:7.0,7.0;"/><polygon fill="#A80036" points="956.779,595.128,950.4976,587.5422,952.3009,592.9039,946.9391,594.7072,956.779,595.128" style="stroke:#A80036;stroke-width:1.0;"/><!--MD5=[0e43d69a696b22bc5281d1cc9667df5e]
link tictactoe.views.console.GameView to Coordinate--><path codeLine="85" d="M693.236,526.078 C660.692,548.76 619.252,577.643 588.801,598.866 " fill="none" id="tictactoe.views.console.GameView-to-Coordinate" style="stroke:#A80036;stroke-width:1.0;stroke-dasharray:7.0,7.0;"/><polygon fill="#A80036" points="584.39,601.94,594.0611,600.077,588.4925,599.0817,589.4878,593.5131,584.39,601.94" style="stroke:#A80036;stroke-width:1.0;"/><!--MD5=[08b09d3eac180f3c67266adaed935b89]
link tictactoe.views.console.GameView to Message--><path codeLine="86" d="M681.731,504.415 C605.983,522.034 475.494,553.532 365,586 C350.199,590.349 334.53,595.319 319.475,600.28 " fill="none" id="tictactoe.views.console.GameView-to-Message" style="stroke:#A80036;stroke-width:1.0;stroke-dasharray:7.0,7.0;"/><polygon fill="#A80036" points="314.395,601.962,324.1961,602.9311,319.1417,600.3907,321.682,595.3363,314.395,601.962" style="stroke:#A80036;stroke-width:1.0;"/><!--MD5=[56c5cc60119d6db09c18002fe1979e6d]
link tictactoe.views.console.GameView to Console--><path codeLine="87" d="M681.953,495.978 C613.069,505.263 502.374,528.544 426,586 C379.501,620.981 402.805,662.826 355,696 C291.898,739.7892 203.379,753.3981 142.22,757.2511 " fill="none" id="tictactoe.views.console.GameView-to-Console" style="stroke:#A80036;stroke-width:1.0;stroke-dasharray:7.0,7.0;"/><polygon fill="#A80036" points="137.128,757.5534,146.3498,761.0115,142.1192,757.2563,145.8744,753.0256,137.128,757.5534" style="stroke:#A80036;stroke-width:1.0;"/><!--MD5=[6ea791314a7012eef494e5b69e119c48]
link tictactoe.views.console.StartView to Token--><path codeLine="94" d="M793.454,379.8441 C793.454,379.8441 809.353,388.957 817,392 C1006.515,467.426 1072.88,407.787 1272,452 C1280.21,453.822 1288.67,455.969 1297.11,458.293 " fill="none" id="tictactoe.views.console.StartView-Token" style="stroke:#A80036;stroke-width:1.0;"/><polygon fill="#A80036" points="1309.85,461.935,1302.2954,455.6162,1305.0424,460.5612,1300.0974,463.3083,1309.85,461.935" style="stroke:#A80036;stroke-width:1.0;"/><line style="stroke:#A80036;stroke-width:1.0;" x1="1305.0424" x2="1297.35" y1="460.5612" y2="458.3615"/><polygon fill="#A80036" points="783.419,373.264,786.2431,379.8991,793.454,379.8441,790.6299,373.2091,783.419,373.264" style="stroke:#A80036;stroke-width:1.0;"/><!--MD5=[fa59b11567d182bffc0e21091cc14c7f]
@startuml
abstract class View as "usantatecla.tictactoe.views.\nView" {}
class Coordinate as "usantatecla.tictactoe.models.\nCoordinate" {}
class Error as "usantatecla.tictactoe.types.\nError" {}
class Token as "usantatecla.tictactoe.types.\nToken" {}
class Message as "usantatecla.tictactoe.views.\nMessage" {}
class ErrorView as "usantatecla.tictactoe.views.\nErrorView" {}
class Logic as "usantatecla.tictactoe.controllers.\nLogic" {}
class Console as "usantatecla.utils.\nConsole" {}
class YesNoDialog as "usantatecla.utils.\nYesNoDialog" {}
class LimitedIntDialog as "usantatecla.utils.\nLimitedIntDialog" {}

class tictactoe.views.console.ConsoleView{
  + ConsoleView(Logic)
  # start()
  # play()
  # isResumed(): boolean
}
tictactoe.views.console.ConsoleView *-up-|> View
tictactoe.views.console.ConsoleView *-down-> tictactoe.views.console.StartView
tictactoe.views.console.ConsoleView *-down-> tictactoe.views.console.PlayView
tictactoe.views.console.ConsoleView *-down-> tictactoe.views.console.ResumeView

class tictactoe.views.console.SubView {
  # logic: Logic
  ~ SubView(Logic)
}
tictactoe.views.console.SubView *-down-> Logic

class tictactoe.views.console.StartView {
  ~ StartView(Logic)
  ~ interact(): void
}
tictactoe.views.console.StartView -up-|> tictactoe.views.console.SubView
tictactoe.views.console.StartView .down.> tictactoe.views.console.GameView
tictactoe.views.console.StartView .down.> Message
tictactoe.views.console.StartView .down.> Console
tictactoe.views.console.StartView .down.> LimitedIntDialog

class tictactoe.views.console.PlayView {
  ~ PlayView(Logic)
  ~ interact()
  - put()
  - move()
  + createRandomCoordinate(): Coordinate
}
tictactoe.views.console.PlayView -up-|> tictactoe.views.console.SubView
tictactoe.views.console.PlayView .down.> tictactoe.views.console.GameView
tictactoe.views.console.PlayView .down.> tictactoe.views.console.TokenView
tictactoe.views.console.PlayView .down.> tictactoe.views.console.CoordinateView
tictactoe.views.console.PlayView .down.> tictactoe.views.console.ErrorView
tictactoe.views.console.PlayView .down.> Coordinate
tictactoe.views.console.PlayView .down.> Message
tictactoe.views.console.PlayView .down.> Error

class  tictactoe.views.console.ResumeView {
  + ResumeView(Logic)
  ~ interact(): boolean
}
tictactoe.views.console.ResumeView -up-|> tictactoe.views.console.SubView
tictactoe.views.console.ResumeView .down.> Message
tictactoe.views.console.ResumeView .down.> YesNoDialog

class tictactoe.views.console.CoordinateView {
  + read(String): Coordinate
}
tictactoe.views.console.CoordinateView .down.> tictactoe.views.console.ErrorView
tictactoe.views.console.CoordinateView .down.> Console
tictactoe.views.console.CoordinateView .down.> Error
tictactoe.views.console.CoordinateView .down.> Coordinate

class tictactoe.views.console.ErrorView {
  ~ ErrorView(Error)
  ~ writeln()
}
tictactoe.views.console.ErrorView .down.> Error
tictactoe.views.console.ErrorView .down.> Console
ErrorView <|-down- tictactoe.views.console.ErrorView

class tictactoe.views.console.GameView {
  ~ GameView(Logic)
  ~ write()
}
tictactoe.views.console.GameView *-down-> Logic
tictactoe.views.console.GameView .down.> tictactoe.views.console.TokenView
tictactoe.views.console.GameView .down.> Coordinate
tictactoe.views.console.GameView .down.> Message
tictactoe.views.console.GameView .down.> Console

class tictactoe.views.console.TokenView {
  + {static} SYMBOLS: char[]
  ~ TokenView(Token)
  ~ write()
}
tictactoe.views.console.StartView *-down-> Token
tictactoe.views.console.StartView .down.> Console
@enduml

PlantUML version 1.2020.21(Mon Nov 30 16:40:11 UTC 2020)
(GPL source distribution)
Java Runtime: Java(TM) SE Runtime Environment
JVM: Java HotSpot(TM) 64-Bit Server VM
Default Encoding: UTF-8
Language: en
Country: US
--></g></svg>