<?xml version="1.0" encoding="UTF-8" standalone="no"?><svg xmlns="http://www.w3.org/2000/svg" xmlns:xlink="http://www.w3.org/1999/xlink" contentScriptType="application/ecmascript" contentStyleType="text/css" height="568px" preserveAspectRatio="none" style="width:994px;height:568px;" version="1.1" viewBox="0 0 994 568" width="994px" zoomAndPan="magnify"><defs><filter height="300%" id="frprek47qvbc0" width="300%" x="-1" y="-1"><feGaussianBlur result="blurOut" stdDeviation="2.0"/><feColorMatrix in="blurOut" result="blurOut2" type="matrix" values="0 0 0 0 0 0 0 0 0 0 0 0 0 0 0 0 0 0 .4 0"/><feOffset dx="4.0" dy="4.0" in="blurOut2" result="blurOut3"/><feBlend in="SourceGraphic" in2="blurOut3" mode="normal"/></filter></defs><g><!--MD5=[ee7e9a007a7c4d40c0679a27f272732d]
cluster tictactoe.controllers--><polygon fill="#FFFFFF" filter="url(#frprek47qvbc0)" points="107.512,6,283.512,6,290.512,28.2969,759.5119,28.2969,759.5119,457,107.512,457,107.512,6" style="stroke:#000000;stroke-width:1.5;"/><line style="stroke:#000000;stroke-width:1.5;" x1="107.512" x2="290.512" y1="28.2969" y2="28.2969"/><text fill="#000000" font-family="sans-serif" font-size="14" font-weight="bold" lengthAdjust="spacingAndGlyphs" textLength="170" x="111.512" y="20.9951">tictactoe.controllers</text><!--MD5=[957eef6538bab7382edbc29d98579a60]
class tictactoe.controllers.Controller--><rect codeLine="6" fill="#FEFECE" filter="url(#frprek47qvbc0)" height="73.6094" id="tictactoe.controllers.Controller" style="stroke:#A80036;stroke-width:1.5;" width="192" x="123.5119" y="105"/><ellipse cx="185.7619" cy="121" fill="#ADD1B2" rx="11" ry="11" style="stroke:#A80036;stroke-width:1.0;"/><path d="M188.1057,116.6719 C187.1682,116.2344 186.5744,116.0938 185.6994,116.0938 C183.0744,116.0938 181.0744,118.1719 181.0744,120.8906 L181.0744,122.0156 C181.0744,124.5938 183.1838,126.4844 186.0744,126.4844 C187.2932,126.4844 188.4494,126.1875 189.1994,125.6406 C189.7775,125.2344 190.1057,124.7813 190.1057,124.3906 C190.1057,123.9375 189.715,123.5469 189.2463,123.5469 C189.0275,123.5469 188.8244,123.625 188.6369,123.8125 C188.1838,124.2969 188.1838,124.2969 187.9963,124.3906 C187.5744,124.6563 186.8869,124.7813 186.1213,124.7813 C184.0744,124.7813 182.7775,123.6875 182.7775,121.9844 L182.7775,120.8906 C182.7775,119.1094 184.0275,117.7969 185.7619,117.7969 C186.34,117.7969 186.9494,117.9531 187.4182,118.2031 C187.9025,118.4844 188.0744,118.7031 188.1682,119.1094 C188.2307,119.5156 188.2619,119.6406 188.4025,119.7656 C188.5432,119.9063 188.7775,120.0156 188.9963,120.0156 C189.2619,120.0156 189.5275,119.875 189.6994,119.6563 C189.8088,119.5 189.84,119.3125 189.84,118.8906 L189.84,117.4688 C189.84,117.0313 189.8244,116.9063 189.7307,116.75 C189.5744,116.4844 189.2932,116.3438 188.9963,116.3438 C188.6994,116.3438 188.4963,116.4375 188.2775,116.75 L188.1057,116.6719 Z " fill="#000000"/><text fill="#000000" font-family="sans-serif" font-size="12" lengthAdjust="spacingAndGlyphs" textLength="59" x="206.2619" y="125.1543">Controller</text><line style="stroke:#A80036;stroke-width:1.5;" x1="124.5119" x2="314.5119" y1="137" y2="137"/><line style="stroke:#A80036;stroke-width:1.5;" x1="124.5119" x2="314.5119" y1="145" y2="145"/><polygon fill="#4177AF" points="134.5119,152,130.5119,158,138.5119,158" style="stroke:#1963A0;stroke-width:1.0;"/><text fill="#000000" font-family="sans-serif" font-size="11" lengthAdjust="spacingAndGlyphs" textLength="98" x="143.5119" y="159.2104">Controller(Game)</text><ellipse cx="134.5119" cy="168.8047" fill="#84BE84" rx="3" ry="3" style="stroke:#038048;stroke-width:1.0;"/><text fill="#000000" font-family="sans-serif" font-size="11" lengthAdjust="spacingAndGlyphs" textLength="166" x="143.5119" y="172.0151">getToken(Coordinate): Token</text><!--MD5=[3b8962fd5847b9038b2e29740dae8054]
class tictactoe.controllers.Logic--><rect codeLine="12" fill="#FEFECE" filter="url(#frprek47qvbc0)" height="201.6563" id="tictactoe.controllers.Logic" style="stroke:#A80036;stroke-width:1.5;" width="231" x="351.0119" y="41"/><ellipse cx="446.2619" cy="57" fill="#ADD1B2" rx="11" ry="11" style="stroke:#A80036;stroke-width:1.0;"/><path d="M448.6056,52.6719 C447.6681,52.2344 447.0744,52.0938 446.1994,52.0938 C443.5744,52.0938 441.5744,54.1719 441.5744,56.8906 L441.5744,58.0156 C441.5744,60.5938 443.6838,62.4844 446.5744,62.4844 C447.7931,62.4844 448.9494,62.1875 449.6994,61.6406 C450.2775,61.2344 450.6056,60.7813 450.6056,60.3906 C450.6056,59.9375 450.215,59.5469 449.7463,59.5469 C449.5275,59.5469 449.3244,59.625 449.1369,59.8125 C448.6838,60.2969 448.6838,60.2969 448.4963,60.3906 C448.0744,60.6563 447.3869,60.7813 446.6213,60.7813 C444.5744,60.7813 443.2775,59.6875 443.2775,57.9844 L443.2775,56.8906 C443.2775,55.1094 444.5275,53.7969 446.2619,53.7969 C446.84,53.7969 447.4494,53.9531 447.9181,54.2031 C448.4025,54.4844 448.5744,54.7031 448.6681,55.1094 C448.7306,55.5156 448.7619,55.6406 448.9025,55.7656 C449.0431,55.9063 449.2775,56.0156 449.4963,56.0156 C449.7619,56.0156 450.0275,55.875 450.1994,55.6563 C450.3088,55.5 450.34,55.3125 450.34,54.8906 L450.34,53.4688 C450.34,53.0313 450.3244,52.9063 450.2306,52.75 C450.0744,52.4844 449.7931,52.3438 449.4963,52.3438 C449.1994,52.3438 448.9963,52.4375 448.7775,52.75 L448.6056,52.6719 Z " fill="#000000"/><text fill="#000000" font-family="sans-serif" font-size="12" lengthAdjust="spacingAndGlyphs" textLength="32" x="466.7619" y="61.1543">Logic</text><line style="stroke:#A80036;stroke-width:1.5;" x1="352.0119" x2="581.0119" y1="73" y2="73"/><line style="stroke:#A80036;stroke-width:1.5;" x1="352.0119" x2="581.0119" y1="81" y2="81"/><ellipse cx="362.0119" cy="92" fill="#84BE84" rx="3" ry="3" style="stroke:#038048;stroke-width:1.0;"/><text fill="#000000" font-family="sans-serif" font-size="11" lengthAdjust="spacingAndGlyphs" textLength="37" x="371.0119" y="95.2104">Logic()</text><ellipse cx="362.0119" cy="104.8047" fill="#84BE84" rx="3" ry="3" style="stroke:#038048;stroke-width:1.0;"/><text fill="#000000" font-family="sans-serif" font-size="11" lengthAdjust="spacingAndGlyphs" textLength="112" x="371.0119" y="108.0151">getMaxPlayers(): int</text><ellipse cx="362.0119" cy="117.6094" fill="#84BE84" rx="3" ry="3" style="stroke:#038048;stroke-width:1.0;"/><text fill="#000000" font-family="sans-serif" font-size="11" lengthAdjust="spacingAndGlyphs" textLength="72" x="371.0119" y="120.8198">setUsers(int)</text><ellipse cx="362.0119" cy="130.4141" fill="#84BE84" rx="3" ry="3" style="stroke:#038048;stroke-width:1.0;"/><text fill="#000000" font-family="sans-serif" font-size="11" lengthAdjust="spacingAndGlyphs" textLength="104" x="371.0119" y="133.6245">getToken(): Token</text><ellipse cx="362.0119" cy="143.2188" fill="#84BE84" rx="3" ry="3" style="stroke:#038048;stroke-width:1.0;"/><text fill="#000000" font-family="sans-serif" font-size="11" lengthAdjust="spacingAndGlyphs" textLength="34" x="371.0119" y="146.4292">next()</text><ellipse cx="362.0119" cy="156.0234" fill="#84BE84" rx="3" ry="3" style="stroke:#038048;stroke-width:1.0;"/><text fill="#000000" font-family="sans-serif" font-size="11" lengthAdjust="spacingAndGlyphs" textLength="159" x="371.0119" y="159.2339">isBoardComplete(): boolean</text><ellipse cx="362.0119" cy="168.8281" fill="#84BE84" rx="3" ry="3" style="stroke:#038048;stroke-width:1.0;"/><text fill="#000000" font-family="sans-serif" font-size="11" lengthAdjust="spacingAndGlyphs" textLength="128" x="371.0119" y="172.0386">isTicTacToe(): boolean</text><ellipse cx="362.0119" cy="181.6328" fill="#84BE84" rx="3" ry="3" style="stroke:#038048;stroke-width:1.0;"/><text fill="#000000" font-family="sans-serif" font-size="11" lengthAdjust="spacingAndGlyphs" textLength="96" x="371.0119" y="184.8433">isUser(): boolean</text><ellipse cx="362.0119" cy="194.4375" fill="#84BE84" rx="3" ry="3" style="stroke:#038048;stroke-width:1.0;"/><text fill="#000000" font-family="sans-serif" font-size="11" lengthAdjust="spacingAndGlyphs" textLength="121" x="371.0119" y="197.6479">put(Coordinate): Error</text><ellipse cx="362.0119" cy="207.2422" fill="#84BE84" rx="3" ry="3" style="stroke:#038048;stroke-width:1.0;"/><text fill="#000000" font-family="sans-serif" font-size="11" lengthAdjust="spacingAndGlyphs" textLength="205" x="371.0119" y="210.4526">move(Coordinate, Coordinate): Error</text><ellipse cx="362.0119" cy="220.0469" fill="#84BE84" rx="3" ry="3" style="stroke:#038048;stroke-width:1.0;"/><text fill="#000000" font-family="sans-serif" font-size="11" lengthAdjust="spacingAndGlyphs" textLength="166" x="371.0119" y="223.2573">getToken(Coordinate): Token</text><ellipse cx="362.0119" cy="232.8516" fill="#84BE84" rx="3" ry="3" style="stroke:#038048;stroke-width:1.0;"/><text fill="#000000" font-family="sans-serif" font-size="11" lengthAdjust="spacingAndGlyphs" textLength="52" x="371.0119" y="236.062">resume()</text><!--MD5=[8ede4dbfb3b498095887802b64b699f0]
class tictactoe.controllers.StartController--><rect codeLine="31" fill="#FEFECE" filter="url(#frprek47qvbc0)" height="86.4141" id="tictactoe.controllers.StartController" style="stroke:#A80036;stroke-width:1.5;" width="151" x="124.0119" y="329"/><ellipse cx="153.4119" cy="345" fill="#ADD1B2" rx="11" ry="11" style="stroke:#A80036;stroke-width:1.0;"/><path d="M155.7557,340.6719 C154.8182,340.2344 154.2244,340.0938 153.3494,340.0938 C150.7244,340.0938 148.7244,342.1719 148.7244,344.8906 L148.7244,346.0156 C148.7244,348.5938 150.8338,350.4844 153.7244,350.4844 C154.9432,350.4844 156.0994,350.1875 156.8494,349.6406 C157.4275,349.2344 157.7557,348.7813 157.7557,348.3906 C157.7557,347.9375 157.365,347.5469 156.8963,347.5469 C156.6775,347.5469 156.4744,347.625 156.2869,347.8125 C155.8338,348.2969 155.8338,348.2969 155.6463,348.3906 C155.2244,348.6563 154.5369,348.7813 153.7713,348.7813 C151.7244,348.7813 150.4275,347.6875 150.4275,345.9844 L150.4275,344.8906 C150.4275,343.1094 151.6775,341.7969 153.4119,341.7969 C153.99,341.7969 154.5994,341.9531 155.0682,342.2031 C155.5525,342.4844 155.7244,342.7031 155.8182,343.1094 C155.8807,343.5156 155.9119,343.6406 156.0525,343.7656 C156.1932,343.9063 156.4275,344.0156 156.6463,344.0156 C156.9119,344.0156 157.1775,343.875 157.3494,343.6563 C157.4588,343.5 157.49,343.3125 157.49,342.8906 L157.49,341.4688 C157.49,341.0313 157.4744,340.9063 157.3807,340.75 C157.2244,340.4844 156.9432,340.3438 156.6463,340.3438 C156.3494,340.3438 156.1463,340.4375 155.9275,340.75 L155.7557,340.6719 Z " fill="#000000"/><text fill="#000000" font-family="sans-serif" font-size="12" lengthAdjust="spacingAndGlyphs" textLength="87" x="170.6119" y="349.1543">StartController</text><line style="stroke:#A80036;stroke-width:1.5;" x1="125.0119" x2="274.0119" y1="361" y2="361"/><line style="stroke:#A80036;stroke-width:1.5;" x1="125.0119" x2="274.0119" y1="369" y2="369"/><ellipse cx="135.0119" cy="380" fill="#84BE84" rx="3" ry="3" style="stroke:#038048;stroke-width:1.0;"/><text fill="#000000" font-family="sans-serif" font-size="11" lengthAdjust="spacingAndGlyphs" textLength="125" x="144.0119" y="383.2104">StartController(Game)</text><ellipse cx="135.0119" cy="392.8047" fill="#84BE84" rx="3" ry="3" style="stroke:#038048;stroke-width:1.0;"/><text fill="#000000" font-family="sans-serif" font-size="11" lengthAdjust="spacingAndGlyphs" textLength="72" x="144.0119" y="396.0151">setUsers(int)</text><ellipse cx="135.0119" cy="405.6094" fill="#84BE84" rx="3" ry="3" style="stroke:#038048;stroke-width:1.0;"/><text fill="#000000" font-family="sans-serif" font-size="11" lengthAdjust="spacingAndGlyphs" textLength="112" x="144.0119" y="408.8198">getMaxPlayers(): int</text><!--MD5=[b574e60c06c50037ff1b014277a67d62]
class tictactoe.controllers.PlayController--><rect codeLine="39" fill="#FEFECE" filter="url(#frprek47qvbc0)" height="137.6328" id="tictactoe.controllers.PlayController" style="stroke:#A80036;stroke-width:1.5;" width="227" x="516.0119" y="303"/><ellipse cx="584.2619" cy="319" fill="#ADD1B2" rx="11" ry="11" style="stroke:#A80036;stroke-width:1.0;"/><path d="M586.6057,314.6719 C585.6682,314.2344 585.0744,314.0938 584.1994,314.0938 C581.5744,314.0938 579.5744,316.1719 579.5744,318.8906 L579.5744,320.0156 C579.5744,322.5938 581.6838,324.4844 584.5744,324.4844 C585.7932,324.4844 586.9494,324.1875 587.6994,323.6406 C588.2775,323.2344 588.6057,322.7813 588.6057,322.3906 C588.6057,321.9375 588.215,321.5469 587.7463,321.5469 C587.5275,321.5469 587.3244,321.625 587.1369,321.8125 C586.6838,322.2969 586.6838,322.2969 586.4963,322.3906 C586.0744,322.6563 585.3869,322.7813 584.6213,322.7813 C582.5744,322.7813 581.2775,321.6875 581.2775,319.9844 L581.2775,318.8906 C581.2775,317.1094 582.5275,315.7969 584.2619,315.7969 C584.84,315.7969 585.4494,315.9531 585.9182,316.2031 C586.4025,316.4844 586.5744,316.7031 586.6682,317.1094 C586.7307,317.5156 586.7619,317.6406 586.9025,317.7656 C587.0432,317.9063 587.2775,318.0156 587.4963,318.0156 C587.7619,318.0156 588.0275,317.875 588.1994,317.6563 C588.3088,317.5 588.34,317.3125 588.34,316.8906 L588.34,315.4688 C588.34,315.0313 588.3244,314.9063 588.2307,314.75 C588.0744,314.4844 587.7932,314.3438 587.4963,314.3438 C587.1994,314.3438 586.9963,314.4375 586.7775,314.75 L586.6057,314.6719 Z " fill="#000000"/><text fill="#000000" font-family="sans-serif" font-size="12" lengthAdjust="spacingAndGlyphs" textLength="82" x="604.7619" y="323.1543">PlayController</text><line style="stroke:#A80036;stroke-width:1.5;" x1="517.0119" x2="742.0119" y1="335" y2="335"/><line style="stroke:#A80036;stroke-width:1.5;" x1="517.0119" x2="742.0119" y1="343" y2="343"/><ellipse cx="527.0119" cy="354" fill="#84BE84" rx="3" ry="3" style="stroke:#038048;stroke-width:1.0;"/><text fill="#000000" font-family="sans-serif" font-size="11" lengthAdjust="spacingAndGlyphs" textLength="121" x="536.0119" y="357.2104">PlayController(Game)</text><ellipse cx="527.0119" cy="366.8047" fill="#84BE84" rx="3" ry="3" style="stroke:#038048;stroke-width:1.0;"/><text fill="#000000" font-family="sans-serif" font-size="11" lengthAdjust="spacingAndGlyphs" textLength="159" x="536.0119" y="370.0151">isBoardComplete(): boolean</text><ellipse cx="527.0119" cy="379.6094" fill="#84BE84" rx="3" ry="3" style="stroke:#038048;stroke-width:1.0;"/><text fill="#000000" font-family="sans-serif" font-size="11" lengthAdjust="spacingAndGlyphs" textLength="128" x="536.0119" y="382.8198">isTicTacToe(): boolean</text><ellipse cx="527.0119" cy="392.4141" fill="#84BE84" rx="3" ry="3" style="stroke:#038048;stroke-width:1.0;"/><text fill="#000000" font-family="sans-serif" font-size="11" lengthAdjust="spacingAndGlyphs" textLength="104" x="536.0119" y="395.6245">getToken(): Token</text><ellipse cx="527.0119" cy="405.2188" fill="#84BE84" rx="3" ry="3" style="stroke:#038048;stroke-width:1.0;"/><text fill="#000000" font-family="sans-serif" font-size="11" lengthAdjust="spacingAndGlyphs" textLength="96" x="536.0119" y="408.4292">isUser(): boolean</text><ellipse cx="527.0119" cy="418.0234" fill="#84BE84" rx="3" ry="3" style="stroke:#038048;stroke-width:1.0;"/><text fill="#000000" font-family="sans-serif" font-size="11" lengthAdjust="spacingAndGlyphs" textLength="121" x="536.0119" y="421.2339">put(Coordinate): Error</text><ellipse cx="527.0119" cy="430.8281" fill="#84BE84" rx="3" ry="3" style="stroke:#038048;stroke-width:1.0;"/><text fill="#000000" font-family="sans-serif" font-size="11" lengthAdjust="spacingAndGlyphs" textLength="201" x="536.0119" y="434.0386">move(Coordinate,Coordinate): Error</text><!--MD5=[d75e1ad11e6a17be2ba08b218e20e3d7]
class tictactoe.controllers.ResumeController--><rect codeLine="54" fill="#FEFECE" filter="url(#frprek47qvbc0)" height="73.6094" id="tictactoe.controllers.ResumeController" style="stroke:#A80036;stroke-width:1.5;" width="171" x="310.0119" y="335"/><ellipse cx="339.4119" cy="351" fill="#ADD1B2" rx="11" ry="11" style="stroke:#A80036;stroke-width:1.0;"/><path d="M341.7556,346.6719 C340.8181,346.2344 340.2244,346.0938 339.3494,346.0938 C336.7244,346.0938 334.7244,348.1719 334.7244,350.8906 L334.7244,352.0156 C334.7244,354.5938 336.8338,356.4844 339.7244,356.4844 C340.9431,356.4844 342.0994,356.1875 342.8494,355.6406 C343.4275,355.2344 343.7556,354.7813 343.7556,354.3906 C343.7556,353.9375 343.365,353.5469 342.8963,353.5469 C342.6775,353.5469 342.4744,353.625 342.2869,353.8125 C341.8338,354.2969 341.8338,354.2969 341.6463,354.3906 C341.2244,354.6563 340.5369,354.7813 339.7713,354.7813 C337.7244,354.7813 336.4275,353.6875 336.4275,351.9844 L336.4275,350.8906 C336.4275,349.1094 337.6775,347.7969 339.4119,347.7969 C339.99,347.7969 340.5994,347.9531 341.0681,348.2031 C341.5525,348.4844 341.7244,348.7031 341.8181,349.1094 C341.8806,349.5156 341.9119,349.6406 342.0525,349.7656 C342.1931,349.9063 342.4275,350.0156 342.6463,350.0156 C342.9119,350.0156 343.1775,349.875 343.3494,349.6563 C343.4588,349.5 343.49,349.3125 343.49,348.8906 L343.49,347.4688 C343.49,347.0313 343.4744,346.9063 343.3806,346.75 C343.2244,346.4844 342.9431,346.3438 342.6463,346.3438 C342.3494,346.3438 342.1463,346.4375 341.9275,346.75 L341.7556,346.6719 Z " fill="#000000"/><text fill="#000000" font-family="sans-serif" font-size="12" lengthAdjust="spacingAndGlyphs" textLength="107" x="356.6119" y="355.1543">ResumeController</text><line style="stroke:#A80036;stroke-width:1.5;" x1="311.0119" x2="480.0119" y1="367" y2="367"/><line style="stroke:#A80036;stroke-width:1.5;" x1="311.0119" x2="480.0119" y1="375" y2="375"/><ellipse cx="321.0119" cy="386" fill="#84BE84" rx="3" ry="3" style="stroke:#038048;stroke-width:1.0;"/><text fill="#000000" font-family="sans-serif" font-size="11" lengthAdjust="spacingAndGlyphs" textLength="145" x="330.0119" y="389.2104">ResumeController(Game)</text><ellipse cx="321.0119" cy="398.8047" fill="#84BE84" rx="3" ry="3" style="stroke:#038048;stroke-width:1.0;"/><text fill="#000000" font-family="sans-serif" font-size="11" lengthAdjust="spacingAndGlyphs" textLength="52" x="330.0119" y="402.0151">resume()</text><!--MD5=[b6dcce5e5ef3c84b0b048d11301373dd]
class Game--><rect codeLine="1" fill="#FEFECE" filter="url(#frprek47qvbc0)" height="53.9375" id="Game" style="stroke:#A80036;stroke-width:1.5;" width="206" x="72.512" y="501"/><ellipse cx="87.512" cy="519.9688" fill="#ADD1B2" rx="11" ry="11" style="stroke:#A80036;stroke-width:1.0;"/><path d="M89.8558,515.6406 C88.9183,515.2031 88.3245,515.0625 87.4495,515.0625 C84.8245,515.0625 82.8245,517.1406 82.8245,519.8594 L82.8245,520.9844 C82.8245,523.5625 84.9339,525.4531 87.8245,525.4531 C89.0433,525.4531 90.1995,525.1563 90.9495,524.6094 C91.5276,524.2031 91.8558,523.75 91.8558,523.3594 C91.8558,522.9063 91.4651,522.5156 90.9964,522.5156 C90.7776,522.5156 90.5745,522.5938 90.387,522.7813 C89.9339,523.2656 89.9339,523.2656 89.7464,523.3594 C89.3245,523.625 88.637,523.75 87.8714,523.75 C85.8245,523.75 84.5276,522.6563 84.5276,520.9531 L84.5276,519.8594 C84.5276,518.0781 85.7776,516.7656 87.512,516.7656 C88.0901,516.7656 88.6995,516.9219 89.1683,517.1719 C89.6526,517.4531 89.8245,517.6719 89.9183,518.0781 C89.9808,518.4844 90.012,518.6094 90.1526,518.7344 C90.2933,518.875 90.5276,518.9844 90.7464,518.9844 C91.012,518.9844 91.2776,518.8438 91.4495,518.625 C91.5589,518.4688 91.5901,518.2813 91.5901,517.8594 L91.5901,516.4375 C91.5901,516 91.5745,515.875 91.4808,515.7188 C91.3245,515.4531 91.0433,515.3125 90.7464,515.3125 C90.4495,515.3125 90.2464,515.4063 90.0276,515.7188 L89.8558,515.6406 Z " fill="#000000"/><text fill="#000000" font-family="sans-serif" font-size="12" lengthAdjust="spacingAndGlyphs" textLength="174" x="101.512" y="517.1387">usantatecla.tictactoe.models.</text><text fill="#000000" font-family="sans-serif" font-size="12" lengthAdjust="spacingAndGlyphs" textLength="35" x="171.012" y="531.1074">Game</text><line style="stroke:#A80036;stroke-width:1.5;" x1="73.512" x2="277.512" y1="538.9375" y2="538.9375"/><line style="stroke:#A80036;stroke-width:1.5;" x1="73.512" x2="277.512" y1="546.9375" y2="546.9375"/><!--MD5=[8c7d7abc12e214c3cc12c9ab70edee11]
class Coordinate--><rect codeLine="2" fill="#FEFECE" filter="url(#frprek47qvbc0)" height="53.9375" id="Coordinate" style="stroke:#A80036;stroke-width:1.5;" width="206" x="313.5119" y="501"/><ellipse cx="328.5119" cy="519.9688" fill="#ADD1B2" rx="11" ry="11" style="stroke:#A80036;stroke-width:1.0;"/><path d="M330.8556,515.6406 C329.9181,515.2031 329.3244,515.0625 328.4494,515.0625 C325.8244,515.0625 323.8244,517.1406 323.8244,519.8594 L323.8244,520.9844 C323.8244,523.5625 325.9338,525.4531 328.8244,525.4531 C330.0431,525.4531 331.1994,525.1563 331.9494,524.6094 C332.5275,524.2031 332.8556,523.75 332.8556,523.3594 C332.8556,522.9063 332.465,522.5156 331.9963,522.5156 C331.7775,522.5156 331.5744,522.5938 331.3869,522.7813 C330.9338,523.2656 330.9338,523.2656 330.7463,523.3594 C330.3244,523.625 329.6369,523.75 328.8713,523.75 C326.8244,523.75 325.5275,522.6563 325.5275,520.9531 L325.5275,519.8594 C325.5275,518.0781 326.7775,516.7656 328.5119,516.7656 C329.09,516.7656 329.6994,516.9219 330.1681,517.1719 C330.6525,517.4531 330.8244,517.6719 330.9181,518.0781 C330.9806,518.4844 331.0119,518.6094 331.1525,518.7344 C331.2931,518.875 331.5275,518.9844 331.7463,518.9844 C332.0119,518.9844 332.2775,518.8438 332.4494,518.625 C332.5588,518.4688 332.59,518.2813 332.59,517.8594 L332.59,516.4375 C332.59,516 332.5744,515.875 332.4806,515.7188 C332.3244,515.4531 332.0431,515.3125 331.7463,515.3125 C331.4494,515.3125 331.2463,515.4063 331.0275,515.7188 L330.8556,515.6406 Z " fill="#000000"/><text fill="#000000" font-family="sans-serif" font-size="12" lengthAdjust="spacingAndGlyphs" textLength="174" x="342.5119" y="517.1387">usantatecla.tictactoe.models.</text><text fill="#000000" font-family="sans-serif" font-size="12" lengthAdjust="spacingAndGlyphs" textLength="66" x="396.5119" y="531.1074">Coordinate</text><line style="stroke:#A80036;stroke-width:1.5;" x1="314.5119" x2="518.5119" y1="538.9375" y2="538.9375"/><line style="stroke:#A80036;stroke-width:1.5;" x1="314.5119" x2="518.5119" y1="546.9375" y2="546.9375"/><!--MD5=[b8cfd8c4119a3b0a7a46bfc5fc780f85]
class Error--><rect codeLine="3" fill="#FEFECE" filter="url(#frprek47qvbc0)" height="53.9375" id="Error" style="stroke:#A80036;stroke-width:1.5;" width="195" x="555.0119" y="501"/><ellipse cx="570.0119" cy="519.9688" fill="#ADD1B2" rx="11" ry="11" style="stroke:#A80036;stroke-width:1.0;"/><path d="M572.3557,515.6406 C571.4182,515.2031 570.8244,515.0625 569.9494,515.0625 C567.3244,515.0625 565.3244,517.1406 565.3244,519.8594 L565.3244,520.9844 C565.3244,523.5625 567.4338,525.4531 570.3244,525.4531 C571.5432,525.4531 572.6994,525.1563 573.4494,524.6094 C574.0275,524.2031 574.3557,523.75 574.3557,523.3594 C574.3557,522.9063 573.965,522.5156 573.4963,522.5156 C573.2775,522.5156 573.0744,522.5938 572.8869,522.7813 C572.4338,523.2656 572.4338,523.2656 572.2463,523.3594 C571.8244,523.625 571.1369,523.75 570.3713,523.75 C568.3244,523.75 567.0275,522.6563 567.0275,520.9531 L567.0275,519.8594 C567.0275,518.0781 568.2775,516.7656 570.0119,516.7656 C570.59,516.7656 571.1994,516.9219 571.6682,517.1719 C572.1525,517.4531 572.3244,517.6719 572.4182,518.0781 C572.4807,518.4844 572.5119,518.6094 572.6525,518.7344 C572.7932,518.875 573.0275,518.9844 573.2463,518.9844 C573.5119,518.9844 573.7775,518.8438 573.9494,518.625 C574.0588,518.4688 574.09,518.2813 574.09,517.8594 L574.09,516.4375 C574.09,516 574.0744,515.875 573.9807,515.7188 C573.8244,515.4531 573.5432,515.3125 573.2463,515.3125 C572.9494,515.3125 572.7463,515.4063 572.5275,515.7188 L572.3557,515.6406 Z " fill="#000000"/><text fill="#000000" font-family="sans-serif" font-size="12" lengthAdjust="spacingAndGlyphs" textLength="163" x="584.0119" y="517.1387">usantatecla.tictactoe.types.</text><text fill="#000000" font-family="sans-serif" font-size="12" lengthAdjust="spacingAndGlyphs" textLength="30" x="650.5119" y="531.1074">Error</text><line style="stroke:#A80036;stroke-width:1.5;" x1="556.0119" x2="749.0119" y1="538.9375" y2="538.9375"/><line style="stroke:#A80036;stroke-width:1.5;" x1="556.0119" x2="749.0119" y1="546.9375" y2="546.9375"/><!--MD5=[d8c8cfd5ca149094f5b67f9f607a5ec7]
class Token--><rect codeLine="4" fill="#FEFECE" filter="url(#frprek47qvbc0)" height="53.9375" id="Token" style="stroke:#A80036;stroke-width:1.5;" width="195" x="785.0119" y="501"/><ellipse cx="800.0119" cy="519.9688" fill="#ADD1B2" rx="11" ry="11" style="stroke:#A80036;stroke-width:1.0;"/><path d="M802.3557,515.6406 C801.4182,515.2031 800.8244,515.0625 799.9494,515.0625 C797.3244,515.0625 795.3244,517.1406 795.3244,519.8594 L795.3244,520.9844 C795.3244,523.5625 797.4338,525.4531 800.3244,525.4531 C801.5432,525.4531 802.6994,525.1563 803.4494,524.6094 C804.0275,524.2031 804.3557,523.75 804.3557,523.3594 C804.3557,522.9063 803.965,522.5156 803.4963,522.5156 C803.2775,522.5156 803.0744,522.5938 802.8869,522.7813 C802.4338,523.2656 802.4338,523.2656 802.2463,523.3594 C801.8244,523.625 801.1369,523.75 800.3713,523.75 C798.3244,523.75 797.0275,522.6563 797.0275,520.9531 L797.0275,519.8594 C797.0275,518.0781 798.2775,516.7656 800.0119,516.7656 C800.59,516.7656 801.1994,516.9219 801.6682,517.1719 C802.1525,517.4531 802.3244,517.6719 802.4182,518.0781 C802.4807,518.4844 802.5119,518.6094 802.6525,518.7344 C802.7932,518.875 803.0275,518.9844 803.2463,518.9844 C803.5119,518.9844 803.7775,518.8438 803.9494,518.625 C804.0588,518.4688 804.09,518.2813 804.09,517.8594 L804.09,516.4375 C804.09,516 804.0744,515.875 803.9807,515.7188 C803.8244,515.4531 803.5432,515.3125 803.2463,515.3125 C802.9494,515.3125 802.7463,515.4063 802.5275,515.7188 L802.3557,515.6406 Z " fill="#000000"/><text fill="#000000" font-family="sans-serif" font-size="12" lengthAdjust="spacingAndGlyphs" textLength="163" x="814.0119" y="517.1387">usantatecla.tictactoe.types.</text><text fill="#000000" font-family="sans-serif" font-size="12" lengthAdjust="spacingAndGlyphs" textLength="37" x="877.0119" y="531.1074">Token</text><line style="stroke:#A80036;stroke-width:1.5;" x1="786.0119" x2="979.0119" y1="538.9375" y2="538.9375"/><line style="stroke:#A80036;stroke-width:1.5;" x1="786.0119" x2="979.0119" y1="546.9375" y2="546.9375"/><!--MD5=[6068204d1fdba78d641ceb3415898910]
link tictactoe.controllers.Controller to Game--><path codeLine="10" d="M148.8025,186.2316 C148.8025,186.2316 65.7555,254.793 44.512,303 C15.4775,368.886 6,404.166 44.512,465 C51.9063,476.6803 62.1606,486.2028 73.7067,493.9557 " fill="none" id="tictactoe.controllers.Controller-Game" style="stroke:#A80036;stroke-width:1.0;"/><polygon fill="#A80036" points="85.1212,500.8593,79.4902,492.779,80.8428,498.2717,75.3501,499.6243,85.1212,500.8593" style="stroke:#A80036;stroke-width:1.0;"/><line style="stroke:#A80036;stroke-width:1.0;" x1="80.8428" x2="73.9975" y1="498.2717" y2="494.1315"/><polygon fill="#A80036" points="158.5959,179.297,151.3877,179.4998,148.8025,186.2316,156.0107,186.0288,158.5959,179.297" style="stroke:#A80036;stroke-width:1.0;"/><!--MD5=[44e666a769b5edea767f63d227a49329]
link tictactoe.controllers.Logic to Game--><path codeLine="26" d="M340.3552,239.0282 C340.3552,239.0282 334.8149,241.887 332.5119,243 C238.9479,288.232 169.8719,220.624 106.512,303 C62.6155,360.071 77.1932,399.24 106.512,465 C110.9411,474.9343 117.8359,483.9422 125.5869,491.8211 " fill="none" id="tictactoe.controllers.Logic-Game" style="stroke:#A80036;stroke-width:1.0;"/><polygon fill="#A80036" points="135.3579,500.8579,131.4666,491.8104,131.6872,497.4629,126.0346,497.6835,135.3579,500.8579" style="stroke:#A80036;stroke-width:1.0;"/><line style="stroke:#A80036;stroke-width:1.0;" x1="131.6872" x2="125.8144" y1="497.4629" y2="492.0311"/><polygon fill="#A80036" points="350.8889,233.28,343.706,232.6429,340.3552,239.0282,347.5381,239.6653,350.8889,233.28" style="stroke:#A80036;stroke-width:1.0;"/><!--MD5=[19457e990bfffed372bd4754e4caf1bd]
link tictactoe.controllers.Logic to tictactoe.controllers.StartController--><path codeLine="27" d="M341.8299,249.4712 C341.8299,249.4712 283.2209,299.518 258.9459,320.247 " fill="none" id="tictactoe.controllers.Logic-tictactoe.controllers.StartController" style="stroke:#A80036;stroke-width:1.0;"/><polygon fill="#A80036" points="248.8509,328.868,258.2924,326.0648,252.653,325.6208,253.0969,319.9814,248.8509,328.868" style="stroke:#A80036;stroke-width:1.0;"/><line style="stroke:#A80036;stroke-width:1.0;" x1="252.653" x2="258.7369" y1="325.6208" y2="320.426"/><polygon fill="#A80036" points="350.9549,241.678,343.7947,242.5329,341.8299,249.4712,348.9901,248.6163,350.9549,241.678" style="stroke:#A80036;stroke-width:1.0;"/><!--MD5=[600c1fe4dddc39bb8e79c6dad4949c4a]
link tictactoe.controllers.Logic to tictactoe.controllers.PlayController--><path codeLine="28" d="M544.9852,252.7656 C544.9852,252.7656 564.3289,279.824 573.1609,292.177 " fill="none" id="tictactoe.controllers.Logic-tictactoe.controllers.PlayController" style="stroke:#A80036;stroke-width:1.0;"/><polygon fill="#A80036" points="580.7969,302.859,578.8171,293.2112,577.8892,298.7914,572.309,297.8635,580.7969,302.859" style="stroke:#A80036;stroke-width:1.0;"/><line style="stroke:#A80036;stroke-width:1.0;" x1="577.8892" x2="573.2364" y1="298.7914" y2="292.284"/><polygon fill="#A80036" points="538.0059,243.004,538.2417,250.2112,544.9852,252.7656,544.7494,245.5583,538.0059,243.004" style="stroke:#A80036;stroke-width:1.0;"/><!--MD5=[920ecdfcfa8e9a979fd863e951ddfb99]
link tictactoe.controllers.Logic to tictactoe.controllers.ResumeController--><path codeLine="29" d="M431.8014,254.4611 C431.8014,254.4611 416.7649,302.751 410.6509,322.385 " fill="none" id="tictactoe.controllers.Logic-tictactoe.controllers.ResumeController" style="stroke:#A80036;stroke-width:1.0;"/><polygon fill="#A80036" points="406.7249,334.993,413.2195,327.589,408.2113,330.219,405.5812,325.2108,406.7249,334.993" style="stroke:#A80036;stroke-width:1.0;"/><line style="stroke:#A80036;stroke-width:1.0;" x1="408.2113" x2="410.5899" y1="330.219" y2="322.5805"/><polygon fill="#A80036" points="435.3699,243.004,429.7666,247.5431,431.8014,254.4611,437.4047,249.9221,435.3699,243.004" style="stroke:#A80036;stroke-width:1.0;"/><!--MD5=[5deb1e5c7bf9906a35de112138d88f9c]
reverse link tictactoe.controllers.Controller to tictactoe.controllers.StartController--><path codeLine="36" d="M214.5719,199.315 C211.0559,239.395 206.4079,292.391 203.2099,328.845 " fill="none" id="tictactoe.controllers.Controller-backto-tictactoe.controllers.StartController" style="stroke:#A80036;stroke-width:1.0;"/><polygon fill="none" points="207.6219,198.439,216.3429,179.127,221.5679,199.662,207.6219,198.439" style="stroke:#A80036;stroke-width:1.0;"/><!--MD5=[479e7112b5bc5a94513afe00b27faaff]
link tictactoe.controllers.StartController to Game--><path codeLine="37" d="M192.9539,415.081 C188.9799,440.582 183.9949,472.5648 180.3739,495.8036 " fill="none" id="tictactoe.controllers.StartController-to-Game" style="stroke:#A80036;stroke-width:1.0;stroke-dasharray:7.0,7.0;"/><polygon fill="#A80036" points="179.5769,500.9196,184.9149,492.6428,180.3467,495.9792,177.0103,491.411,179.5769,500.9196" style="stroke:#A80036;stroke-width:1.0;"/><!--MD5=[5700b97431232c099330215bddfcc855]
reverse link tictactoe.controllers.Controller to tictactoe.controllers.PlayController--><path codeLine="48" d="M268.5129,193.14 C287.5789,210.643 310.3869,229.313 333.5119,243 C400.6629,282.745 427.0659,271.625 498.5119,303 C504.2599,305.524 510.1079,308.188 515.9839,310.942 " fill="none" id="tictactoe.controllers.Controller-backto-tictactoe.controllers.PlayController" style="stroke:#A80036;stroke-width:1.0;"/><polygon fill="none" points="263.4659,198.001,253.7709,179.159,273.0999,187.843,263.4659,198.001" style="stroke:#A80036;stroke-width:1.0;"/><!--MD5=[fe83eea10e25d043c5deb7f71d3efefa]
link tictactoe.controllers.PlayController to Coordinate--><path codeLine="49" d="M535.1569,441.219 C507.6059,461.1386 478.9569,481.8524 456.7139,497.9341 " fill="none" id="tictactoe.controllers.PlayController-to-Coordinate" style="stroke:#A80036;stroke-width:1.0;stroke-dasharray:7.0,7.0;"/><polygon fill="#A80036" points="452.6369,500.8818,462.2738,498.8495,456.6886,497.952,457.5861,492.3668,452.6369,500.8818" style="stroke:#A80036;stroke-width:1.0;"/><!--MD5=[17f566e5019e25cb4796a68af68f3905]
link tictactoe.controllers.PlayController to Error--><path codeLine="50" d="M639.7339,441.443 C642.5579,460.3527 645.4859,479.9589 647.8259,495.6244 " fill="none" id="tictactoe.controllers.PlayController-to-Error" style="stroke:#A80036;stroke-width:1.0;stroke-dasharray:7.0,7.0;"/><polygon fill="#A80036" points="648.5959,500.7792,651.2221,491.2869,647.8571,495.8341,643.3099,492.4691,648.5959,500.7792" style="stroke:#A80036;stroke-width:1.0;"/><!--MD5=[ba4453740163cde41a3c637e3b1e755a]
link tictactoe.controllers.PlayController to Game--><path codeLine="51" d="M543.4419,441.184 C529.0299,450.288 513.7819,458.6538 498.5119,465 C413.8989,500.1659 385.4149,483.2954 295.5119,501 C291.6149,501.7674 287.6499,502.5609 283.6459,503.3726 " fill="none" id="tictactoe.controllers.PlayController-to-Game" style="stroke:#A80036;stroke-width:1.0;stroke-dasharray:7.0,7.0;"/><polygon fill="#A80036" points="278.5569,504.4097,288.1744,506.5317,283.4562,503.4111,286.5767,498.6929,278.5569,504.4097" style="stroke:#A80036;stroke-width:1.0;"/><!--MD5=[2ada365b675ffc8168b7291fcf650ab7]
link tictactoe.controllers.PlayController to Token--><path codeLine="52" d="M741.5859,441.219 C774.4469,461.2213 808.6229,482.0243 835.0889,498.1341 " fill="none" id="tictactoe.controllers.PlayController-to-Token" style="stroke:#A80036;stroke-width:1.0;stroke-dasharray:7.0,7.0;"/><polygon fill="#A80036" points="839.6039,500.8818,833.9943,492.7866,835.3324,498.2829,829.8361,499.621,839.6039,500.8818" style="stroke:#A80036;stroke-width:1.0;"/><!--MD5=[549c2b0fc6f493adecd03b65ab276634]
reverse link tictactoe.controllers.Controller to tictactoe.controllers.ResumeController--><path codeLine="58" d="M259.7649,195.146 C292.6869,237.794 338.3949,297.007 367.4639,334.665 " fill="none" id="tictactoe.controllers.Controller-backto-tictactoe.controllers.ResumeController" style="stroke:#A80036;stroke-width:1.0;"/><polygon fill="none" points="254.0799,199.236,247.3999,179.127,265.1619,190.682,254.0799,199.236" style="stroke:#A80036;stroke-width:1.0;"/><!--MD5=[a35ef516318c5bb82096013ec88f75bf]
link tictactoe.controllers.ResumeController to Game--><path codeLine="59" d="M359.1829,409.388 C340.2329,427.318 316.1249,448.561 292.5119,465 C274.9459,477.2296 254.6799,488.7648 236.0029,498.4929 " fill="none" id="tictactoe.controllers.ResumeController-to-Game" style="stroke:#A80036;stroke-width:1.0;stroke-dasharray:7.0,7.0;"/><polygon fill="#A80036" points="231.2909,500.9266,241.1228,500.3483,235.7328,498.6311,237.45,493.2412,231.2909,500.9266" style="stroke:#A80036;stroke-width:1.0;"/><!--MD5=[f80f37b4909803a035ad646ade0d4865]
@startuml
class Game as "usantatecla.tictactoe.models.\nGame" {}
class Coordinate as "usantatecla.tictactoe.models.\nCoordinate" {}
class Error as "usantatecla.tictactoe.types.\nError" {}
class Token as "usantatecla.tictactoe.types.\nToken" {}

class tictactoe.controllers.Controller {
  ~ Controller(Game)
  + getToken(Coordinate): Token
}
tictactoe.controllers.Controller *-down-> Game

class tictactoe.controllers.Logic {
  + Logic()
  + getMaxPlayers(): int
  + setUsers(int)
  + getToken(): Token
  + next()
  + isBoardComplete(): boolean
  + isTicTacToe(): boolean
  + isUser(): boolean
  + put(Coordinate): Error
  + move(Coordinate, Coordinate): Error
  + getToken(Coordinate): Token
  + resume()
}
tictactoe.controllers.Logic *-down-> Game
tictactoe.controllers.Logic *-down-> tictactoe.controllers.StartController
tictactoe.controllers.Logic *-down-> tictactoe.controllers.PlayController
tictactoe.controllers.Logic *-down-> tictactoe.controllers.ResumeController

class  tictactoe.controllers.StartController{
  + StartController(Game)
  + setUsers(int)
  + getMaxPlayers(): int
}
tictactoe.controllers.Controller <|-down- tictactoe.controllers.StartController
tictactoe.controllers.StartController .down.> Game

class tictactoe.controllers.PlayController {
  + PlayController(Game)
  + isBoardComplete(): boolean
  + isTicTacToe(): boolean
  + getToken(): Token
  + isUser(): boolean
  + put(Coordinate): Error
  + move(Coordinate,Coordinate): Error
}
tictactoe.controllers.Controller <|-down- tictactoe.controllers.PlayController
tictactoe.controllers.PlayController .down.> Coordinate
tictactoe.controllers.PlayController .down.> Error
tictactoe.controllers.PlayController .down.> Game
tictactoe.controllers.PlayController .down.> Token

class  tictactoe.controllers.ResumeController{
  + ResumeController(Game)
  + resume()
}
tictactoe.controllers.Controller <|-down- tictactoe.controllers.ResumeController
tictactoe.controllers.ResumeController .down.> Game
@enduml

PlantUML version 1.2020.21beta7(Unknown compile time)
(GPL source distribution)
Java Runtime: Java(TM) SE Runtime Environment
JVM: Java HotSpot(TM) 64-Bit Server VM
Default Encoding: UTF-8
Language: en
Country: US
--></g></svg>