<?xml version="1.0" encoding="UTF-8" standalone="no"?><svg xmlns="http://www.w3.org/2000/svg" xmlns:xlink="http://www.w3.org/1999/xlink" contentScriptType="application/ecmascript" contentStyleType="text/css" height="421px" preserveAspectRatio="none" style="width:650px;height:421px;" version="1.1" viewBox="0 0 650 421" width="650px" zoomAndPan="magnify"><defs><filter height="300%" id="f1a28mozhgq1sc" width="300%" x="-1" y="-1"><feGaussianBlur result="blurOut" stdDeviation="2.0"/><feColorMatrix in="blurOut" result="blurOut2" type="matrix" values="0 0 0 0 0 0 0 0 0 0 0 0 0 0 0 0 0 0 .4 0"/><feOffset dx="4.0" dy="4.0" in="blurOut2" result="blurOut3"/><feBlend in="SourceGraphic" in2="blurOut3" mode="normal"/></filter></defs><g><!--MD5=[f4e83a21a957c5b9ba9691e6361db36b]
cluster tictactoe.views--><polygon fill="#FFFFFF" filter="url(#f1a28mozhgq1sc)" points="16,6,148,6,155,28.2969,624,28.2969,624,310,16,310,16,6" style="stroke:#000000;stroke-width:1.5;"/><line style="stroke:#000000;stroke-width:1.5;" x1="16" x2="155" y1="28.2969" y2="28.2969"/><text fill="#000000" font-family="sans-serif" font-size="14" font-weight="bold" lengthAdjust="spacingAndGlyphs" textLength="126" x="20" y="20.9951">tictactoe.views</text><!--MD5=[17799e03bfee0ccb3aa03b93da9c26d6]
class tictactoe.views.ErrorView--><rect codeLine="3" fill="#FEFECE" filter="url(#f1a28mozhgq1sc)" height="86.4141" id="tictactoe.views.ErrorView" style="stroke:#A80036;stroke-width:1.5;" width="138" x="470" y="124.5"/><ellipse cx="506.15" cy="140.5" fill="#ADD1B2" rx="11" ry="11" style="stroke:#A80036;stroke-width:1.0;"/><path d="M508.4938,136.1719 C507.5563,135.7344 506.9625,135.5938 506.0875,135.5938 C503.4625,135.5938 501.4625,137.6719 501.4625,140.3906 L501.4625,141.5156 C501.4625,144.0938 503.5719,145.9844 506.4625,145.9844 C507.6813,145.9844 508.8375,145.6875 509.5875,145.1406 C510.1656,144.7344 510.4938,144.2813 510.4938,143.8906 C510.4938,143.4375 510.1031,143.0469 509.6344,143.0469 C509.4156,143.0469 509.2125,143.125 509.025,143.3125 C508.5719,143.7969 508.5719,143.7969 508.3844,143.8906 C507.9625,144.1563 507.275,144.2813 506.5094,144.2813 C504.4625,144.2813 503.1656,143.1875 503.1656,141.4844 L503.1656,140.3906 C503.1656,138.6094 504.4156,137.2969 506.15,137.2969 C506.7281,137.2969 507.3375,137.4531 507.8063,137.7031 C508.2906,137.9844 508.4625,138.2031 508.5563,138.6094 C508.6188,139.0156 508.65,139.1406 508.7906,139.2656 C508.9313,139.4063 509.1656,139.5156 509.3844,139.5156 C509.65,139.5156 509.9156,139.375 510.0875,139.1563 C510.1969,139 510.2281,138.8125 510.2281,138.3906 L510.2281,136.9688 C510.2281,136.5313 510.2125,136.4063 510.1188,136.25 C509.9625,135.9844 509.6813,135.8438 509.3844,135.8438 C509.0875,135.8438 508.8844,135.9375 508.6656,136.25 L508.4938,136.1719 Z " fill="#000000"/><text fill="#000000" font-family="sans-serif" font-size="12" lengthAdjust="spacingAndGlyphs" textLength="59" x="524.85" y="144.6543">ErrorView</text><line style="stroke:#A80036;stroke-width:1.5;" x1="471" x2="607" y1="156.5" y2="156.5"/><ellipse cx="481" cy="167.5" fill="none" rx="3" ry="3" style="stroke:#038048;stroke-width:1.0;"/><text fill="#000000" font-family="sans-serif" font-size="11" lengthAdjust="spacingAndGlyphs" text-decoration="underline" textLength="112" x="490" y="170.7104">MESSAGES: String[]</text><polygon fill="none" points="481,175.3047,485,179.3047,481,183.3047,477,179.3047" style="stroke:#B38D22;stroke-width:1.0;"/><text fill="#000000" font-family="sans-serif" font-size="11" lengthAdjust="spacingAndGlyphs" textLength="60" x="490" y="183.5151">error: Error</text><line style="stroke:#A80036;stroke-width:1.5;" x1="471" x2="607" y1="190.1094" y2="190.1094"/><ellipse cx="481" cy="201.1094" fill="#84BE84" rx="3" ry="3" style="stroke:#038048;stroke-width:1.0;"/><text fill="#000000" font-family="sans-serif" font-size="11" lengthAdjust="spacingAndGlyphs" textLength="88" x="490" y="204.3198">ErrorView(Error)</text><!--MD5=[8b95091471898ea6b0cbbbb1cd164db3]
class tictactoe.views.Message--><rect codeLine="10" fill="#FEFECE" filter="url(#f1a28mozhgq1sc)" height="252.875" id="tictactoe.views.Message" style="stroke:#A80036;stroke-width:1.5;" width="218" x="217" y="41"/><ellipse cx="294.25" cy="57" fill="#EB937F" rx="11" ry="11" style="stroke:#A80036;stroke-width:1.0;"/><path d="M293.0469,57.875 L294.5,57.875 L294.5,57.9844 C294.5,58.3906 294.5313,58.5469 294.6094,58.7031 C294.7656,58.9531 295.0469,59.1094 295.3438,59.1094 C295.5938,59.1094 295.8594,58.9688 296.0156,58.75 C296.1406,58.5938 296.1719,58.4375 296.1719,57.9844 L296.1719,56.0625 C296.1719,55.9063 296.1719,55.8594 296.1563,55.7031 C296.0938,55.2344 295.7813,54.9219 295.3281,54.9219 C295.0781,54.9219 294.8125,55.0625 294.6406,55.2813 C294.5313,55.4531 294.5,55.6094 294.5,56.0625 L294.5,56.1875 L293.0469,56.1875 L293.0469,53.7813 L297.0313,53.7813 L297.0313,54.6406 C297.0313,55.0469 297.0625,55.2188 297.1406,55.375 C297.3125,55.625 297.5938,55.7813 297.875,55.7813 C298.1406,55.7813 298.4063,55.6406 298.5781,55.4219 C298.6875,55.25 298.7188,55.1094 298.7188,54.6406 L298.7188,52.0938 L291.0938,52.0938 C290.6563,52.0938 290.5313,52.1094 290.375,52.2031 C290.125,52.3594 289.9688,52.6563 289.9688,52.9375 C289.9688,53.2188 290.1094,53.4688 290.3281,53.6406 C290.4844,53.75 290.6719,53.7813 291.0938,53.7813 L291.3438,53.7813 L291.3438,60.2969 L291.0938,60.2969 C290.6875,60.2969 290.5313,60.3125 290.375,60.4219 C290.125,60.5938 289.9688,60.8594 289.9688,61.1563 C289.9688,61.4219 290.1094,61.6719 290.3281,61.8281 C290.4688,61.9531 290.7031,62 291.0938,62 L299.0938,62 L299.0938,59.4219 C299.0938,58.9844 299.0625,58.8438 298.9844,58.6875 C298.8125,58.4375 298.5313,58.2813 298.25,58.2813 C297.9844,58.2813 297.7188,58.3906 297.5469,58.6406 C297.4375,58.7969 297.4063,58.9375 297.4063,59.4219 L297.4063,60.2969 L293.0469,60.2969 L293.0469,57.875 Z " fill="#000000"/><text fill="#000000" font-family="sans-serif" font-size="12" lengthAdjust="spacingAndGlyphs" textLength="55" x="314.75" y="61.1543">Message</text><line style="stroke:#A80036;stroke-width:1.5;" x1="218" x2="434" y1="73" y2="73"/><ellipse cx="228" cy="84" fill="none" rx="3" ry="3" style="stroke:#038048;stroke-width:1.0;"/><text fill="#000000" font-family="sans-serif" font-size="11" lengthAdjust="spacingAndGlyphs" textLength="37" x="237" y="87.2104">TITTLE</text><ellipse cx="228" cy="96.8047" fill="none" rx="3" ry="3" style="stroke:#038048;stroke-width:1.0;"/><text fill="#000000" font-family="sans-serif" font-size="11" lengthAdjust="spacingAndGlyphs" textLength="102" x="237" y="100.0151">NUMBER_PLAYERS</text><ellipse cx="228" cy="109.6094" fill="none" rx="3" ry="3" style="stroke:#038048;stroke-width:1.0;"/><text fill="#000000" font-family="sans-serif" font-size="11" lengthAdjust="spacingAndGlyphs" textLength="67" x="237" y="112.8198">SEPARATOR</text><ellipse cx="228" cy="122.4141" fill="none" rx="3" ry="3" style="stroke:#038048;stroke-width:1.0;"/><text fill="#000000" font-family="sans-serif" font-size="11" lengthAdjust="spacingAndGlyphs" textLength="116" x="237" y="125.6245">VERTICAL_LINE_LEFT</text><ellipse cx="228" cy="135.2188" fill="none" rx="3" ry="3" style="stroke:#038048;stroke-width:1.0;"/><text fill="#000000" font-family="sans-serif" font-size="11" lengthAdjust="spacingAndGlyphs" textLength="150" x="237" y="138.4292">VERTICAL_LINE_CENTERED</text><ellipse cx="228" cy="148.0234" fill="none" rx="3" ry="3" style="stroke:#038048;stroke-width:1.0;"/><text fill="#000000" font-family="sans-serif" font-size="11" lengthAdjust="spacingAndGlyphs" textLength="124" x="237" y="151.2339">VERTICAL_LINE_RIGHT</text><ellipse cx="228" cy="160.8281" fill="none" rx="3" ry="3" style="stroke:#038048;stroke-width:1.0;"/><text fill="#000000" font-family="sans-serif" font-size="11" lengthAdjust="spacingAndGlyphs" textLength="166" x="237" y="164.0386">ENTER_COORDINATE_TO_PUT</text><ellipse cx="228" cy="173.6328" fill="none" rx="3" ry="3" style="stroke:#038048;stroke-width:1.0;"/><text fill="#000000" font-family="sans-serif" font-size="11" lengthAdjust="spacingAndGlyphs" textLength="192" x="237" y="176.8433">ENTER_COORDINATE_TO_REMOVE</text><ellipse cx="228" cy="186.4375" fill="none" rx="3" ry="3" style="stroke:#038048;stroke-width:1.0;"/><text fill="#000000" font-family="sans-serif" font-size="11" lengthAdjust="spacingAndGlyphs" textLength="124" x="237" y="189.6479">COORDINATE_TO_PUT</text><ellipse cx="228" cy="199.2422" fill="none" rx="3" ry="3" style="stroke:#038048;stroke-width:1.0;"/><text fill="#000000" font-family="sans-serif" font-size="11" lengthAdjust="spacingAndGlyphs" textLength="150" x="237" y="202.4526">COORDINATE_TO_REMOVE</text><ellipse cx="228" cy="212.0469" fill="none" rx="3" ry="3" style="stroke:#038048;stroke-width:1.0;"/><text fill="#000000" font-family="sans-serif" font-size="11" lengthAdjust="spacingAndGlyphs" textLength="136" x="237" y="215.2573">COORDINATE_TO_MOVE</text><ellipse cx="228" cy="224.8516" fill="none" rx="3" ry="3" style="stroke:#038048;stroke-width:1.0;"/><text fill="#000000" font-family="sans-serif" font-size="11" lengthAdjust="spacingAndGlyphs" textLength="69" x="237" y="228.062">PLAYER_WIN</text><ellipse cx="228" cy="237.6563" fill="none" rx="3" ry="3" style="stroke:#038048;stroke-width:1.0;"/><text fill="#000000" font-family="sans-serif" font-size="11" lengthAdjust="spacingAndGlyphs" textLength="46" x="237" y="240.8667">RESUME</text><rect fill="none" height="6" style="stroke:#C82930;stroke-width:1.0;" width="6" x="225" y="247.4609"/><text fill="#000000" font-family="sans-serif" font-size="11" lengthAdjust="spacingAndGlyphs" textLength="93" x="237" y="253.6714">message: String</text><line style="stroke:#A80036;stroke-width:1.5;" x1="218" x2="434" y1="260.2656" y2="260.2656"/><rect fill="#F24D5C" height="6" style="stroke:#C82930;stroke-width:1.0;" width="6" x="225" y="268.2656"/><text fill="#000000" font-family="sans-serif" font-size="11" lengthAdjust="spacingAndGlyphs" textLength="92" x="237" y="274.4761">Message(String)</text><ellipse cx="228" cy="284.0703" fill="#84BE84" rx="3" ry="3" style="stroke:#038048;stroke-width:1.0;"/><text fill="#000000" font-family="sans-serif" font-size="11" lengthAdjust="spacingAndGlyphs" textLength="118" x="237" y="287.2808">getMessage(): String</text><!--MD5=[015754420c4cdd9bacda884b3fa8c6ca]
class tictactoe.views.View--><rect codeLine="29" fill="#FEFECE" filter="url(#f1a28mozhgq1sc)" height="99.2188" id="tictactoe.views.View" style="stroke:#A80036;stroke-width:1.5;" width="149" x="32.5" y="118"/><ellipse cx="88.75" cy="134" fill="#A9DCDF" rx="11" ry="11" style="stroke:#A80036;stroke-width:1.0;"/><path d="M90.8281,135.8125 L91.2188,136.7969 L90.8281,136.7969 C90.375,136.7969 90.2656,136.8125 90.1094,136.9219 C89.8594,137.0781 89.7031,137.3594 89.7031,137.6563 C89.7031,137.9219 89.8438,138.1719 90.0625,138.3281 C90.2031,138.4531 90.4063,138.5 90.8281,138.5 L93.1875,138.5 C93.5469,138.5 93.7656,138.4688 93.9063,138.375 C94.1563,138.2344 94.3125,137.9375 94.3125,137.6563 C94.3125,137.375 94.1719,137.125 93.9531,136.9688 C93.7813,136.8281 93.625,136.7969 93.1563,136.7969 L89.7656,128.5938 L86.0938,128.5938 C85.6406,128.5938 85.5156,128.6094 85.3594,128.7031 C85.1094,128.875 84.9531,129.1563 84.9531,129.4375 C84.9531,129.7188 85.0938,129.9688 85.3125,130.1406 C85.4844,130.25 85.6563,130.2813 86.0938,130.2813 L87.1719,130.2813 L84.5313,136.7969 C84.1094,136.7969 83.9531,136.8125 83.7969,136.9219 C83.5469,137.0781 83.3906,137.3594 83.3906,137.6563 C83.3906,138.2188 83.7656,138.5 84.5156,138.5 L86.7813,138.5 C87.1406,138.5 87.3594,138.4688 87.4844,138.375 C87.75,138.2344 87.8906,137.9375 87.8906,137.6563 C87.8906,137.375 87.7656,137.125 87.5469,136.9531 C87.375,136.8281 87.2344,136.7969 86.7813,136.7969 L86.3906,136.7969 L86.7813,135.8125 L90.8281,135.8125 Z M90.125,134.1094 L87.4531,134.1094 L88.7969,130.8438 L90.125,134.1094 Z " fill="#000000"/><text fill="#000000" font-family="sans-serif" font-size="12" font-style="italic" lengthAdjust="spacingAndGlyphs" textLength="28" x="109.25" y="138.1543">View</text><line style="stroke:#A80036;stroke-width:1.5;" x1="33.5" x2="180.5" y1="150" y2="150"/><line style="stroke:#A80036;stroke-width:1.5;" x1="33.5" x2="180.5" y1="158" y2="158"/><ellipse cx="43.5" cy="169" fill="#84BE84" rx="3" ry="3" style="stroke:#038048;stroke-width:1.0;"/><text fill="#000000" font-family="sans-serif" font-size="11" lengthAdjust="spacingAndGlyphs" textLength="51" x="52.5" y="172.2104">interact()</text><polygon fill="#FFFF44" points="43.5,176.8047,47.5,180.8047,43.5,184.8047,39.5,180.8047" style="stroke:#B38D22;stroke-width:1.0;"/><text fill="#000000" font-family="sans-serif" font-size="11" font-style="italic" lengthAdjust="spacingAndGlyphs" textLength="34" x="52.5" y="185.0151">start()</text><polygon fill="#FFFF44" points="43.5,189.6094,47.5,193.6094,43.5,197.6094,39.5,193.6094" style="stroke:#B38D22;stroke-width:1.0;"/><text fill="#000000" font-family="sans-serif" font-size="11" font-style="italic" lengthAdjust="spacingAndGlyphs" textLength="32" x="52.5" y="197.8198">play()</text><polygon fill="#FFFF44" points="43.5,202.4141,47.5,206.4141,43.5,210.4141,39.5,206.4141" style="stroke:#B38D22;stroke-width:1.0;"/><text fill="#000000" font-family="sans-serif" font-size="11" font-style="italic" lengthAdjust="spacingAndGlyphs" textLength="123" x="52.5" y="210.6245">isResumed(): boolean</text><!--MD5=[b8cfd8c4119a3b0a7a46bfc5fc780f85]
class Error--><rect codeLine="1" fill="#FEFECE" filter="url(#f1a28mozhgq1sc)" height="53.9375" id="Error" style="stroke:#A80036;stroke-width:1.5;" width="195" x="441.5" y="354"/><ellipse cx="456.5" cy="372.9688" fill="#EB937F" rx="11" ry="11" style="stroke:#A80036;stroke-width:1.0;"/><path d="M455.2969,373.8438 L456.75,373.8438 L456.75,373.9531 C456.75,374.3594 456.7813,374.5156 456.8594,374.6719 C457.0156,374.9219 457.2969,375.0781 457.5938,375.0781 C457.8438,375.0781 458.1094,374.9375 458.2656,374.7188 C458.3906,374.5625 458.4219,374.4063 458.4219,373.9531 L458.4219,372.0313 C458.4219,371.875 458.4219,371.8281 458.4063,371.6719 C458.3438,371.2031 458.0313,370.8906 457.5781,370.8906 C457.3281,370.8906 457.0625,371.0313 456.8906,371.25 C456.7813,371.4219 456.75,371.5781 456.75,372.0313 L456.75,372.1563 L455.2969,372.1563 L455.2969,369.75 L459.2813,369.75 L459.2813,370.6094 C459.2813,371.0156 459.3125,371.1875 459.3906,371.3438 C459.5625,371.5938 459.8438,371.75 460.125,371.75 C460.3906,371.75 460.6563,371.6094 460.8281,371.3906 C460.9375,371.2188 460.9688,371.0781 460.9688,370.6094 L460.9688,368.0625 L453.3438,368.0625 C452.9063,368.0625 452.7813,368.0781 452.625,368.1719 C452.375,368.3281 452.2188,368.625 452.2188,368.9063 C452.2188,369.1875 452.3594,369.4375 452.5781,369.6094 C452.7344,369.7188 452.9219,369.75 453.3438,369.75 L453.5938,369.75 L453.5938,376.2656 L453.3438,376.2656 C452.9375,376.2656 452.7813,376.2813 452.625,376.3906 C452.375,376.5625 452.2188,376.8281 452.2188,377.125 C452.2188,377.3906 452.3594,377.6406 452.5781,377.7969 C452.7188,377.9219 452.9531,377.9688 453.3438,377.9688 L461.3438,377.9688 L461.3438,375.3906 C461.3438,374.9531 461.3125,374.8125 461.2344,374.6563 C461.0625,374.4063 460.7813,374.25 460.5,374.25 C460.2344,374.25 459.9688,374.3594 459.7969,374.6094 C459.6875,374.7656 459.6563,374.9063 459.6563,375.3906 L459.6563,376.2656 L455.2969,376.2656 L455.2969,373.8438 Z " fill="#000000"/><text fill="#000000" font-family="sans-serif" font-size="12" lengthAdjust="spacingAndGlyphs" textLength="163" x="470.5" y="370.1387">usantatecla.tictactoe.types.</text><text fill="#000000" font-family="sans-serif" font-size="12" lengthAdjust="spacingAndGlyphs" textLength="30" x="537" y="384.1074">Error</text><line style="stroke:#A80036;stroke-width:1.5;" x1="442.5" x2="635.5" y1="391.9375" y2="391.9375"/><line style="stroke:#A80036;stroke-width:1.5;" x1="442.5" x2="635.5" y1="399.9375" y2="399.9375"/><!--MD5=[6b5fb949459e9919da652f12454cf9c5]
link tictactoe.views.ErrorView to Error--><path codeLine="8" d="M539,222.538 C539,222.538 539,307.631 539,340.5682 " fill="none" id="tictactoe.views.ErrorView-Error" style="stroke:#A80036;stroke-width:1.0;"/><polygon fill="#A80036" points="539,353.73,543,344.73,539,348.73,535,344.73,539,353.73" style="stroke:#A80036;stroke-width:1.0;"/><line style="stroke:#A80036;stroke-width:1.0;" x1="539" x2="539" y1="348.73" y2="340.7301"/><polygon fill="#A80036" points="539,210.538,535,216.538,539,222.538,543,216.538,539,210.538" style="stroke:#A80036;stroke-width:1.0;"/><!--MD5=[58d798b73535e993f87df64b38a47ba8]
@startuml
enum Error as "usantatecla.tictactoe.types.\nError" {}

class tictactoe.views.ErrorView{
  + {static} MESSAGES: String[]
  # error: Error
  + ErrorView(Error)
}
tictactoe.views.ErrorView *-down-> Error

enum tictactoe.views.Message{
  + TITTLE
  + NUMBER_PLAYERS
  + SEPARATOR
  + VERTICAL_LINE_LEFT
  + VERTICAL_LINE_CENTERED
  + VERTICAL_LINE_RIGHT
  + ENTER_COORDINATE_TO_PUT
  + ENTER_COORDINATE_TO_REMOVE
  + COORDINATE_TO_PUT
  + COORDINATE_TO_REMOVE
  + COORDINATE_TO_MOVE
  + PLAYER_WIN
  + RESUME
  - message: String
  - Message(String)
  + getMessage(): String
}

abstract class tictactoe.views.View {
  + interact()
  # {abstract} start()
  # {abstract} play()
  # {abstract} isResumed(): boolean
}
@enduml

PlantUML version 1.2020.21(Mon Nov 30 16:40:11 UTC 2020)
(GPL source distribution)
Java Runtime: Java(TM) SE Runtime Environment
JVM: Java HotSpot(TM) 64-Bit Server VM
Default Encoding: UTF-8
Language: en
Country: US
--></g></svg>