<?xml version="1.0" encoding="UTF-8" standalone="no"?><svg xmlns="http://www.w3.org/2000/svg" xmlns:xlink="http://www.w3.org/1999/xlink" contentScriptType="application/ecmascript" contentStyleType="text/css" height="786px" preserveAspectRatio="none" style="width:1646px;height:786px;" version="1.1" viewBox="0 0 1646 786" width="1646px" zoomAndPan="magnify"><defs><filter height="300%" id="fvhva6ymgkbgv" width="300%" x="-1" y="-1"><feGaussianBlur result="blurOut" stdDeviation="2.0"/><feColorMatrix in="blurOut" result="blurOut2" type="matrix" values="0 0 0 0 0 0 0 0 0 0 0 0 0 0 0 0 0 0 .4 0"/><feOffset dx="4.0" dy="4.0" in="blurOut2" result="blurOut3"/><feBlend in="SourceGraphic" in2="blurOut3" mode="normal"/></filter></defs><g><!--MD5=[64182ab34c08ac367bbf699869515711]
cluster tictactoe.views.console--><polygon fill="#FFFFFF" filter="url(#fvhva6ymgkbgv)" points="409.0975,86,608.0975,86,615.0975,108.2969,881.0975,108.2969,881.0975,675,409.0975,675,409.0975,86" style="stroke:#000000;stroke-width:1.5;"/><line style="stroke:#000000;stroke-width:1.5;" x1="409.0975" x2="615.0975" y1="108.2969" y2="108.2969"/><text fill="#000000" font-family="sans-serif" font-size="14" font-weight="bold" lengthAdjust="spacingAndGlyphs" textLength="193" x="413.0975" y="100.9951">tictactoe.views.console</text><!--MD5=[bde0c8ed193d8d2dbac1dee471354ab0]
class tictactoe.views.console.ConsoleView--><rect codeLine="12" fill="#FEFECE" filter="url(#fvhva6ymgkbgv)" height="99.2188" id="tictactoe.views.console.ConsoleView" style="stroke:#A80036;stroke-width:1.5;" width="150" x="566.0975" y="121"/><ellipse cx="599.0975" cy="137" fill="#ADD1B2" rx="11" ry="11" style="stroke:#A80036;stroke-width:1.0;"/><path d="M601.4413,132.6719 C600.5038,132.2344 599.91,132.0938 599.035,132.0938 C596.41,132.0938 594.41,134.1719 594.41,136.8906 L594.41,138.0156 C594.41,140.5938 596.5194,142.4844 599.41,142.4844 C600.6288,142.4844 601.785,142.1875 602.535,141.6406 C603.1131,141.2344 603.4413,140.7813 603.4413,140.3906 C603.4413,139.9375 603.0506,139.5469 602.5819,139.5469 C602.3631,139.5469 602.16,139.625 601.9725,139.8125 C601.5194,140.2969 601.5194,140.2969 601.3319,140.3906 C600.91,140.6563 600.2225,140.7813 599.4569,140.7813 C597.41,140.7813 596.1131,139.6875 596.1131,137.9844 L596.1131,136.8906 C596.1131,135.1094 597.3631,133.7969 599.0975,133.7969 C599.6756,133.7969 600.285,133.9531 600.7538,134.2031 C601.2381,134.4844 601.41,134.7031 601.5038,135.1094 C601.5663,135.5156 601.5975,135.6406 601.7381,135.7656 C601.8788,135.9063 602.1131,136.0156 602.3319,136.0156 C602.5975,136.0156 602.8631,135.875 603.035,135.6563 C603.1444,135.5 603.1756,135.3125 603.1756,134.8906 L603.1756,133.4688 C603.1756,133.0313 603.16,132.9063 603.0663,132.75 C602.91,132.4844 602.6288,132.3438 602.3319,132.3438 C602.035,132.3438 601.8319,132.4375 601.6131,132.75 L601.4413,132.6719 Z " fill="#000000"/><text fill="#000000" font-family="sans-serif" font-size="12" lengthAdjust="spacingAndGlyphs" textLength="78" x="617.0975" y="141.1543">ConsoleView</text><line style="stroke:#A80036;stroke-width:1.5;" x1="567.0975" x2="715.0975" y1="153" y2="153"/><line style="stroke:#A80036;stroke-width:1.5;" x1="567.0975" x2="715.0975" y1="161" y2="161"/><ellipse cx="577.0975" cy="172" fill="#84BE84" rx="3" ry="3" style="stroke:#038048;stroke-width:1.0;"/><text fill="#000000" font-family="sans-serif" font-size="11" lengthAdjust="spacingAndGlyphs" textLength="111" x="586.0975" y="175.2104">ConsoleView(Logic)</text><polygon fill="#FFFF44" points="577.0975,179.8047,581.0975,183.8047,577.0975,187.8047,573.0975,183.8047" style="stroke:#B38D22;stroke-width:1.0;"/><text fill="#000000" font-family="sans-serif" font-size="11" lengthAdjust="spacingAndGlyphs" textLength="33" x="586.0975" y="188.0151">start()</text><polygon fill="#FFFF44" points="577.0975,192.6094,581.0975,196.6094,577.0975,200.6094,573.0975,196.6094" style="stroke:#B38D22;stroke-width:1.0;"/><text fill="#000000" font-family="sans-serif" font-size="11" lengthAdjust="spacingAndGlyphs" textLength="32" x="586.0975" y="200.8198">play()</text><polygon fill="#FFFF44" points="577.0975,205.4141,581.0975,209.4141,577.0975,213.4141,573.0975,209.4141" style="stroke:#B38D22;stroke-width:1.0;"/><text fill="#000000" font-family="sans-serif" font-size="11" lengthAdjust="spacingAndGlyphs" textLength="124" x="586.0975" y="213.6245">isResumed(): boolean</text><!--MD5=[54aa299435631381f3c0c028f26a058f]
class tictactoe.views.console.StartView--><rect codeLine="29" fill="#FEFECE" filter="url(#fvhva6ymgkbgv)" height="73.6094" id="tictactoe.views.console.StartView" style="stroke:#A80036;stroke-width:1.5;" width="118" x="425.0975" y="292.5"/><ellipse cx="453.1475" cy="308.5" fill="#ADD1B2" rx="11" ry="11" style="stroke:#A80036;stroke-width:1.0;"/><path d="M455.4913,304.1719 C454.5538,303.7344 453.96,303.5938 453.085,303.5938 C450.46,303.5938 448.46,305.6719 448.46,308.3906 L448.46,309.5156 C448.46,312.0938 450.5694,313.9844 453.46,313.9844 C454.6788,313.9844 455.835,313.6875 456.585,313.1406 C457.1631,312.7344 457.4913,312.2813 457.4913,311.8906 C457.4913,311.4375 457.1006,311.0469 456.6319,311.0469 C456.4131,311.0469 456.21,311.125 456.0225,311.3125 C455.5694,311.7969 455.5694,311.7969 455.3819,311.8906 C454.96,312.1563 454.2725,312.2813 453.5069,312.2813 C451.46,312.2813 450.1631,311.1875 450.1631,309.4844 L450.1631,308.3906 C450.1631,306.6094 451.4131,305.2969 453.1475,305.2969 C453.7256,305.2969 454.335,305.4531 454.8038,305.7031 C455.2881,305.9844 455.46,306.2031 455.5538,306.6094 C455.6163,307.0156 455.6475,307.1406 455.7881,307.2656 C455.9288,307.4063 456.1631,307.5156 456.3819,307.5156 C456.6475,307.5156 456.9131,307.375 457.085,307.1563 C457.1944,307 457.2256,306.8125 457.2256,306.3906 L457.2256,304.9688 C457.2256,304.5313 457.21,304.4063 457.1163,304.25 C456.96,303.9844 456.6788,303.8438 456.3819,303.8438 C456.085,303.8438 455.8819,303.9375 455.6631,304.25 L455.4913,304.1719 Z " fill="#000000"/><text fill="#000000" font-family="sans-serif" font-size="12" lengthAdjust="spacingAndGlyphs" textLength="57" x="470.0475" y="312.6543">StartView</text><line style="stroke:#A80036;stroke-width:1.5;" x1="426.0975" x2="542.0975" y1="324.5" y2="324.5"/><line style="stroke:#A80036;stroke-width:1.5;" x1="426.0975" x2="542.0975" y1="332.5" y2="332.5"/><polygon fill="#4177AF" points="436.0975,339.5,432.0975,345.5,440.0975,345.5" style="stroke:#1963A0;stroke-width:1.0;"/><text fill="#000000" font-family="sans-serif" font-size="11" lengthAdjust="spacingAndGlyphs" textLength="92" x="445.0975" y="346.7104">StartView(Logic)</text><polygon fill="#4177AF" points="436.0975,352.3047,432.0975,358.3047,440.0975,358.3047" style="stroke:#1963A0;stroke-width:1.0;"/><text fill="#000000" font-family="sans-serif" font-size="11" lengthAdjust="spacingAndGlyphs" textLength="82" x="445.0975" y="359.5151">interact(): void</text><!--MD5=[0158df0baddf48f83142f472e341eacc]
class tictactoe.views.console.PlayView--><rect codeLine="38" fill="#FEFECE" filter="url(#fvhva6ymgkbgv)" height="99.2188" id="tictactoe.views.console.PlayView" style="stroke:#A80036;stroke-width:1.5;" width="114" x="751.0975" y="280"/><ellipse cx="779.5975" cy="296" fill="#ADD1B2" rx="11" ry="11" style="stroke:#A80036;stroke-width:1.0;"/><path d="M781.9413,291.6719 C781.0038,291.2344 780.41,291.0938 779.535,291.0938 C776.91,291.0938 774.91,293.1719 774.91,295.8906 L774.91,297.0156 C774.91,299.5938 777.0194,301.4844 779.91,301.4844 C781.1288,301.4844 782.285,301.1875 783.035,300.6406 C783.6131,300.2344 783.9413,299.7813 783.9413,299.3906 C783.9413,298.9375 783.5506,298.5469 783.0819,298.5469 C782.8631,298.5469 782.66,298.625 782.4725,298.8125 C782.0194,299.2969 782.0194,299.2969 781.8319,299.3906 C781.41,299.6563 780.7225,299.7813 779.9569,299.7813 C777.91,299.7813 776.6131,298.6875 776.6131,296.9844 L776.6131,295.8906 C776.6131,294.1094 777.8631,292.7969 779.5975,292.7969 C780.1756,292.7969 780.785,292.9531 781.2538,293.2031 C781.7381,293.4844 781.91,293.7031 782.0038,294.1094 C782.0663,294.5156 782.0975,294.6406 782.2381,294.7656 C782.3788,294.9063 782.6131,295.0156 782.8319,295.0156 C783.0975,295.0156 783.3631,294.875 783.535,294.6563 C783.6444,294.5 783.6756,294.3125 783.6756,293.8906 L783.6756,292.4688 C783.6756,292.0313 783.66,291.9063 783.5663,291.75 C783.41,291.4844 783.1288,291.3438 782.8319,291.3438 C782.535,291.3438 782.3319,291.4375 782.1131,291.75 L781.9413,291.6719 Z " fill="#000000"/><text fill="#000000" font-family="sans-serif" font-size="12" lengthAdjust="spacingAndGlyphs" textLength="52" x="796.5975" y="300.1543">PlayView</text><line style="stroke:#A80036;stroke-width:1.5;" x1="752.0975" x2="864.0975" y1="312" y2="312"/><line style="stroke:#A80036;stroke-width:1.5;" x1="752.0975" x2="864.0975" y1="320" y2="320"/><polygon fill="#4177AF" points="762.0975,327,758.0975,333,766.0975,333" style="stroke:#1963A0;stroke-width:1.0;"/><text fill="#000000" font-family="sans-serif" font-size="11" lengthAdjust="spacingAndGlyphs" textLength="88" x="771.0975" y="334.2104">PlayView(Logic)</text><polygon fill="#4177AF" points="762.0975,339.8047,758.0975,345.8047,766.0975,345.8047" style="stroke:#1963A0;stroke-width:1.0;"/><text fill="#000000" font-family="sans-serif" font-size="11" lengthAdjust="spacingAndGlyphs" textLength="51" x="771.0975" y="347.0151">interact()</text><rect fill="#F24D5C" height="6" style="stroke:#C82930;stroke-width:1.0;" width="6" x="759.0975" y="353.6094"/><text fill="#000000" font-family="sans-serif" font-size="11" lengthAdjust="spacingAndGlyphs" textLength="26" x="771.0975" y="359.8198">put()</text><rect fill="#F24D5C" height="6" style="stroke:#C82930;stroke-width:1.0;" width="6" x="759.0975" y="366.4141"/><text fill="#000000" font-family="sans-serif" font-size="11" lengthAdjust="spacingAndGlyphs" textLength="41" x="771.0975" y="372.6245">move()</text><!--MD5=[863eeac66a77264bd74e28cbddefcd23]
class tictactoe.views.console.ResumeView--><rect codeLine="53" fill="#FEFECE" filter="url(#fvhva6ymgkbgv)" height="73.6094" id="tictactoe.views.console.ResumeView" style="stroke:#A80036;stroke-width:1.5;" width="138" x="578.0975" y="292.5"/><ellipse cx="606.1475" cy="308.5" fill="#ADD1B2" rx="11" ry="11" style="stroke:#A80036;stroke-width:1.0;"/><path d="M608.4912,304.1719 C607.5537,303.7344 606.96,303.5938 606.085,303.5938 C603.46,303.5938 601.46,305.6719 601.46,308.3906 L601.46,309.5156 C601.46,312.0938 603.5694,313.9844 606.46,313.9844 C607.6787,313.9844 608.835,313.6875 609.585,313.1406 C610.1631,312.7344 610.4912,312.2813 610.4912,311.8906 C610.4912,311.4375 610.1006,311.0469 609.6319,311.0469 C609.4131,311.0469 609.21,311.125 609.0225,311.3125 C608.5694,311.7969 608.5694,311.7969 608.3819,311.8906 C607.96,312.1563 607.2725,312.2813 606.5069,312.2813 C604.46,312.2813 603.1631,311.1875 603.1631,309.4844 L603.1631,308.3906 C603.1631,306.6094 604.4131,305.2969 606.1475,305.2969 C606.7256,305.2969 607.335,305.4531 607.8037,305.7031 C608.2881,305.9844 608.46,306.2031 608.5537,306.6094 C608.6162,307.0156 608.6475,307.1406 608.7881,307.2656 C608.9287,307.4063 609.1631,307.5156 609.3819,307.5156 C609.6475,307.5156 609.9131,307.375 610.085,307.1563 C610.1944,307 610.2256,306.8125 610.2256,306.3906 L610.2256,304.9688 C610.2256,304.5313 610.21,304.4063 610.1162,304.25 C609.96,303.9844 609.6787,303.8438 609.3819,303.8438 C609.085,303.8438 608.8819,303.9375 608.6631,304.25 L608.4912,304.1719 Z " fill="#000000"/><text fill="#000000" font-family="sans-serif" font-size="12" lengthAdjust="spacingAndGlyphs" textLength="77" x="623.0475" y="312.6543">ResumeView</text><line style="stroke:#A80036;stroke-width:1.5;" x1="579.0975" x2="715.0975" y1="324.5" y2="324.5"/><line style="stroke:#A80036;stroke-width:1.5;" x1="579.0975" x2="715.0975" y1="332.5" y2="332.5"/><ellipse cx="589.0975" cy="343.5" fill="#84BE84" rx="3" ry="3" style="stroke:#038048;stroke-width:1.0;"/><text fill="#000000" font-family="sans-serif" font-size="11" lengthAdjust="spacingAndGlyphs" textLength="112" x="598.0975" y="346.7104">ResumeView(Logic)</text><polygon fill="#4177AF" points="589.0975,352.3047,585.0975,358.3047,593.0975,358.3047" style="stroke:#1963A0;stroke-width:1.0;"/><text fill="#000000" font-family="sans-serif" font-size="11" lengthAdjust="spacingAndGlyphs" textLength="104" x="598.0975" y="359.5151">interact(): boolean</text><!--MD5=[2d78dc9f6799219010ec4b46c4600efc]
class tictactoe.views.console.SubView--><rect codeLine="23" fill="#FEFECE" filter="url(#fvhva6ymgkbgv)" height="73.6094" id="tictactoe.views.console.SubView" style="stroke:#A80036;stroke-width:1.5;" width="113" x="751.5975" y="133.5"/><ellipse cx="779.6475" cy="149.5" fill="#ADD1B2" rx="11" ry="11" style="stroke:#A80036;stroke-width:1.0;"/><path d="M781.9912,145.1719 C781.0537,144.7344 780.46,144.5938 779.585,144.5938 C776.96,144.5938 774.96,146.6719 774.96,149.3906 L774.96,150.5156 C774.96,153.0938 777.0694,154.9844 779.96,154.9844 C781.1787,154.9844 782.335,154.6875 783.085,154.1406 C783.6631,153.7344 783.9912,153.2813 783.9912,152.8906 C783.9912,152.4375 783.6006,152.0469 783.1319,152.0469 C782.9131,152.0469 782.71,152.125 782.5225,152.3125 C782.0694,152.7969 782.0694,152.7969 781.8819,152.8906 C781.46,153.1563 780.7725,153.2813 780.0069,153.2813 C777.96,153.2813 776.6631,152.1875 776.6631,150.4844 L776.6631,149.3906 C776.6631,147.6094 777.9131,146.2969 779.6475,146.2969 C780.2256,146.2969 780.835,146.4531 781.3037,146.7031 C781.7881,146.9844 781.96,147.2031 782.0537,147.6094 C782.1162,148.0156 782.1475,148.1406 782.2881,148.2656 C782.4287,148.4063 782.6631,148.5156 782.8819,148.5156 C783.1475,148.5156 783.4131,148.375 783.585,148.1563 C783.6944,148 783.7256,147.8125 783.7256,147.3906 L783.7256,145.9688 C783.7256,145.5313 783.71,145.4063 783.6162,145.25 C783.46,144.9844 783.1787,144.8438 782.8819,144.8438 C782.585,144.8438 782.3819,144.9375 782.1631,145.25 L781.9912,145.1719 Z " fill="#000000"/><text fill="#000000" font-family="sans-serif" font-size="12" lengthAdjust="spacingAndGlyphs" textLength="52" x="796.5475" y="153.6543">SubView</text><line style="stroke:#A80036;stroke-width:1.5;" x1="752.5975" x2="863.5975" y1="165.5" y2="165.5"/><polygon fill="none" points="762.5975,171.5,766.5975,175.5,762.5975,179.5,758.5975,175.5" style="stroke:#B38D22;stroke-width:1.0;"/><text fill="#000000" font-family="sans-serif" font-size="11" lengthAdjust="spacingAndGlyphs" textLength="62" x="771.5975" y="179.7104">logic: Logic</text><line style="stroke:#A80036;stroke-width:1.5;" x1="752.5975" x2="863.5975" y1="186.3047" y2="186.3047"/><polygon fill="#4177AF" points="762.5975,193.3047,758.5975,199.3047,766.5975,199.3047" style="stroke:#1963A0;stroke-width:1.0;"/><text fill="#000000" font-family="sans-serif" font-size="11" lengthAdjust="spacingAndGlyphs" textLength="87" x="771.5975" y="200.5151">SubView(Logic)</text><!--MD5=[e933b4291156428da126c4c01236555b]
class tictactoe.views.console.GameView--><rect codeLine="77" fill="#FEFECE" filter="url(#fvhva6ymgkbgv)" height="73.6094" id="tictactoe.views.console.GameView" style="stroke:#A80036;stroke-width:1.5;" width="126" x="425.0975" y="439"/><ellipse cx="453.5975" cy="455" fill="#ADD1B2" rx="11" ry="11" style="stroke:#A80036;stroke-width:1.0;"/><path d="M455.9413,450.6719 C455.0038,450.2344 454.41,450.0938 453.535,450.0938 C450.91,450.0938 448.91,452.1719 448.91,454.8906 L448.91,456.0156 C448.91,458.5938 451.0194,460.4844 453.91,460.4844 C455.1288,460.4844 456.285,460.1875 457.035,459.6406 C457.6131,459.2344 457.9413,458.7813 457.9413,458.3906 C457.9413,457.9375 457.5506,457.5469 457.0819,457.5469 C456.8631,457.5469 456.66,457.625 456.4725,457.8125 C456.0194,458.2969 456.0194,458.2969 455.8319,458.3906 C455.41,458.6563 454.7225,458.7813 453.9569,458.7813 C451.91,458.7813 450.6131,457.6875 450.6131,455.9844 L450.6131,454.8906 C450.6131,453.1094 451.8631,451.7969 453.5975,451.7969 C454.1756,451.7969 454.785,451.9531 455.2538,452.2031 C455.7381,452.4844 455.91,452.7031 456.0038,453.1094 C456.0663,453.5156 456.0975,453.6406 456.2381,453.7656 C456.3788,453.9063 456.6131,454.0156 456.8319,454.0156 C457.0975,454.0156 457.3631,453.875 457.535,453.6563 C457.6444,453.5 457.6756,453.3125 457.6756,452.8906 L457.6756,451.4688 C457.6756,451.0313 457.66,450.9063 457.5663,450.75 C457.41,450.4844 457.1288,450.3438 456.8319,450.3438 C456.535,450.3438 456.3319,450.4375 456.1131,450.75 L455.9413,450.6719 Z " fill="#000000"/><text fill="#000000" font-family="sans-serif" font-size="12" lengthAdjust="spacingAndGlyphs" textLength="64" x="470.5975" y="459.1543">GameView</text><line style="stroke:#A80036;stroke-width:1.5;" x1="426.0975" x2="550.0975" y1="471" y2="471"/><line style="stroke:#A80036;stroke-width:1.5;" x1="426.0975" x2="550.0975" y1="479" y2="479"/><polygon fill="#4177AF" points="436.0975,486,432.0975,492,440.0975,492" style="stroke:#1963A0;stroke-width:1.0;"/><text fill="#000000" font-family="sans-serif" font-size="11" lengthAdjust="spacingAndGlyphs" textLength="100" x="445.0975" y="493.2104">GameView(Logic)</text><polygon fill="#4177AF" points="436.0975,498.8047,432.0975,504.8047,440.0975,504.8047" style="stroke:#1963A0;stroke-width:1.0;"/><text fill="#000000" font-family="sans-serif" font-size="11" lengthAdjust="spacingAndGlyphs" textLength="36" x="445.0975" y="506.0151">write()</text><!--MD5=[85374d0a3ee4b3ef5b557089b06e5446]
class tictactoe.views.console.TokenView--><rect codeLine="86" fill="#FEFECE" filter="url(#fvhva6ymgkbgv)" height="86.4141" id="tictactoe.views.console.TokenView" style="stroke:#A80036;stroke-width:1.5;" width="132" x="584.0975" y="573"/><ellipse cx="614.3975" cy="589" fill="#ADD1B2" rx="11" ry="11" style="stroke:#A80036;stroke-width:1.0;"/><path d="M616.7412,584.6719 C615.8037,584.2344 615.21,584.0938 614.335,584.0938 C611.71,584.0938 609.71,586.1719 609.71,588.8906 L609.71,590.0156 C609.71,592.5938 611.8194,594.4844 614.71,594.4844 C615.9287,594.4844 617.085,594.1875 617.835,593.6406 C618.4131,593.2344 618.7412,592.7813 618.7412,592.3906 C618.7412,591.9375 618.3506,591.5469 617.8819,591.5469 C617.6631,591.5469 617.46,591.625 617.2725,591.8125 C616.8194,592.2969 616.8194,592.2969 616.6319,592.3906 C616.21,592.6563 615.5225,592.7813 614.7569,592.7813 C612.71,592.7813 611.4131,591.6875 611.4131,589.9844 L611.4131,588.8906 C611.4131,587.1094 612.6631,585.7969 614.3975,585.7969 C614.9756,585.7969 615.585,585.9531 616.0537,586.2031 C616.5381,586.4844 616.71,586.7031 616.8037,587.1094 C616.8662,587.5156 616.8975,587.6406 617.0381,587.7656 C617.1787,587.9063 617.4131,588.0156 617.6319,588.0156 C617.8975,588.0156 618.1631,587.875 618.335,587.6563 C618.4444,587.5 618.4756,587.3125 618.4756,586.8906 L618.4756,585.4688 C618.4756,585.0313 618.46,584.9063 618.3662,584.75 C618.21,584.4844 617.9287,584.3438 617.6319,584.3438 C617.335,584.3438 617.1319,584.4375 616.9131,584.75 L616.7412,584.6719 Z " fill="#000000"/><text fill="#000000" font-family="sans-serif" font-size="12" lengthAdjust="spacingAndGlyphs" textLength="66" x="631.7975" y="593.1543">TokenView</text><line style="stroke:#A80036;stroke-width:1.5;" x1="585.0975" x2="715.0975" y1="605" y2="605"/><ellipse cx="595.0975" cy="616" fill="none" rx="3" ry="3" style="stroke:#038048;stroke-width:1.0;"/><text fill="#000000" font-family="sans-serif" font-size="11" lengthAdjust="spacingAndGlyphs" text-decoration="underline" textLength="94" x="604.0975" y="619.2104">SYMBOLS: char[]</text><line style="stroke:#A80036;stroke-width:1.5;" x1="585.0975" x2="715.0975" y1="625.8047" y2="625.8047"/><polygon fill="#4177AF" points="595.0975,632.8047,591.0975,638.8047,599.0975,638.8047" style="stroke:#1963A0;stroke-width:1.0;"/><text fill="#000000" font-family="sans-serif" font-size="11" lengthAdjust="spacingAndGlyphs" textLength="106" x="604.0975" y="640.0151">TokenView(Token)</text><polygon fill="#4177AF" points="595.0975,645.6094,591.0975,651.6094,599.0975,651.6094" style="stroke:#1963A0;stroke-width:1.0;"/><text fill="#000000" font-family="sans-serif" font-size="11" lengthAdjust="spacingAndGlyphs" textLength="36" x="604.0975" y="652.8198">write()</text><!--MD5=[8830b246a550294711e6eb5af1606829]
class tictactoe.views.console.CoordinateView--><rect codeLine="61" fill="#FEFECE" filter="url(#fvhva6ymgkbgv)" height="60.8047" id="tictactoe.views.console.CoordinateView" style="stroke:#A80036;stroke-width:1.5;" width="162" x="586.0975" y="445.5"/><ellipse cx="616.8475" cy="461.5" fill="#ADD1B2" rx="11" ry="11" style="stroke:#A80036;stroke-width:1.0;"/><path d="M619.1913,457.1719 C618.2538,456.7344 617.66,456.5938 616.785,456.5938 C614.16,456.5938 612.16,458.6719 612.16,461.3906 L612.16,462.5156 C612.16,465.0938 614.2694,466.9844 617.16,466.9844 C618.3788,466.9844 619.535,466.6875 620.285,466.1406 C620.8631,465.7344 621.1913,465.2813 621.1913,464.8906 C621.1913,464.4375 620.8006,464.0469 620.3319,464.0469 C620.1131,464.0469 619.91,464.125 619.7225,464.3125 C619.2694,464.7969 619.2694,464.7969 619.0819,464.8906 C618.66,465.1563 617.9725,465.2813 617.2069,465.2813 C615.16,465.2813 613.8631,464.1875 613.8631,462.4844 L613.8631,461.3906 C613.8631,459.6094 615.1131,458.2969 616.8475,458.2969 C617.4256,458.2969 618.035,458.4531 618.5038,458.7031 C618.9881,458.9844 619.16,459.2031 619.2538,459.6094 C619.3163,460.0156 619.3475,460.1406 619.4881,460.2656 C619.6288,460.4063 619.8631,460.5156 620.0819,460.5156 C620.3475,460.5156 620.6131,460.375 620.785,460.1563 C620.8944,460 620.9256,459.8125 620.9256,459.3906 L620.9256,457.9688 C620.9256,457.5313 620.91,457.4063 620.8163,457.25 C620.66,456.9844 620.3788,456.8438 620.0819,456.8438 C619.785,456.8438 619.5819,456.9375 619.3631,457.25 L619.1913,457.1719 Z " fill="#000000"/><text fill="#000000" font-family="sans-serif" font-size="12" lengthAdjust="spacingAndGlyphs" textLength="95" x="634.3475" y="465.6543">CoordinateView</text><line style="stroke:#A80036;stroke-width:1.5;" x1="587.0975" x2="747.0975" y1="477.5" y2="477.5"/><line style="stroke:#A80036;stroke-width:1.5;" x1="587.0975" x2="747.0975" y1="485.5" y2="485.5"/><ellipse cx="597.0975" cy="496.5" fill="#84BE84" rx="3" ry="3" style="stroke:#038048;stroke-width:1.0;"/><text fill="#000000" font-family="sans-serif" font-size="11" lengthAdjust="spacingAndGlyphs" textLength="136" x="606.0975" y="499.7104">read(String): Coordinate</text><!--MD5=[1ca4e66fd27a79cb5d7093d90b3139a4]
class tictactoe.views.console.ErrorView--><rect codeLine="69" fill="#FEFECE" filter="url(#fvhva6ymgkbgv)" height="73.6094" id="tictactoe.views.console.ErrorView" style="stroke:#A80036;stroke-width:1.5;" width="114" x="751.0975" y="579"/><ellipse cx="776.4475" cy="595" fill="#ADD1B2" rx="11" ry="11" style="stroke:#A80036;stroke-width:1.0;"/><path d="M778.7913,590.6719 C777.8538,590.2344 777.26,590.0938 776.385,590.0938 C773.76,590.0938 771.76,592.1719 771.76,594.8906 L771.76,596.0156 C771.76,598.5938 773.8694,600.4844 776.76,600.4844 C777.9788,600.4844 779.135,600.1875 779.885,599.6406 C780.4631,599.2344 780.7913,598.7813 780.7913,598.3906 C780.7913,597.9375 780.4006,597.5469 779.9319,597.5469 C779.7131,597.5469 779.51,597.625 779.3225,597.8125 C778.8694,598.2969 778.8694,598.2969 778.6819,598.3906 C778.26,598.6563 777.5725,598.7813 776.8069,598.7813 C774.76,598.7813 773.4631,597.6875 773.4631,595.9844 L773.4631,594.8906 C773.4631,593.1094 774.7131,591.7969 776.4475,591.7969 C777.0256,591.7969 777.635,591.9531 778.1038,592.2031 C778.5881,592.4844 778.76,592.7031 778.8538,593.1094 C778.9163,593.5156 778.9475,593.6406 779.0881,593.7656 C779.2288,593.9063 779.4631,594.0156 779.6819,594.0156 C779.9475,594.0156 780.2131,593.875 780.385,593.6563 C780.4944,593.5 780.5256,593.3125 780.5256,592.8906 L780.5256,591.4688 C780.5256,591.0313 780.51,590.9063 780.4163,590.75 C780.26,590.4844 779.9788,590.3438 779.6819,590.3438 C779.385,590.3438 779.1819,590.4375 778.9631,590.75 L778.7913,590.6719 Z " fill="#000000"/><text fill="#000000" font-family="sans-serif" font-size="12" lengthAdjust="spacingAndGlyphs" textLength="59" x="792.7475" y="599.1543">ErrorView</text><line style="stroke:#A80036;stroke-width:1.5;" x1="752.0975" x2="864.0975" y1="611" y2="611"/><line style="stroke:#A80036;stroke-width:1.5;" x1="752.0975" x2="864.0975" y1="619" y2="619"/><polygon fill="#4177AF" points="762.0975,626,758.0975,632,766.0975,632" style="stroke:#1963A0;stroke-width:1.0;"/><text fill="#000000" font-family="sans-serif" font-size="11" lengthAdjust="spacingAndGlyphs" textLength="88" x="771.0975" y="633.2104">ErrorView(Error)</text><polygon fill="#4177AF" points="762.0975,638.8047,758.0975,644.8047,766.0975,644.8047" style="stroke:#1963A0;stroke-width:1.0;"/><text fill="#000000" font-family="sans-serif" font-size="11" lengthAdjust="spacingAndGlyphs" textLength="46" x="771.0975" y="646.0151">writeln()</text><!--MD5=[c045e12321b83266d36d22b9096c24ea]
class View--><rect codeLine="1" fill="#FEFECE" filter="url(#fvhva6ymgkbgv)" height="53.9375" id="View" style="stroke:#A80036;stroke-width:1.5;" width="126" x="578.0975" y="7"/><ellipse cx="593.0975" cy="25.9688" fill="#A9DCDF" rx="11" ry="11" style="stroke:#A80036;stroke-width:1.0;"/><path d="M595.1756,27.7813 L595.5663,28.7656 L595.1756,28.7656 C594.7225,28.7656 594.6131,28.7813 594.4569,28.8906 C594.2069,29.0469 594.0506,29.3281 594.0506,29.625 C594.0506,29.8906 594.1913,30.1406 594.41,30.2969 C594.5506,30.4219 594.7538,30.4688 595.1756,30.4688 L597.535,30.4688 C597.8944,30.4688 598.1131,30.4375 598.2538,30.3438 C598.5038,30.2031 598.66,29.9063 598.66,29.625 C598.66,29.3438 598.5194,29.0938 598.3006,28.9375 C598.1288,28.7969 597.9725,28.7656 597.5038,28.7656 L594.1131,20.5625 L590.4413,20.5625 C589.9881,20.5625 589.8631,20.5781 589.7069,20.6719 C589.4569,20.8438 589.3006,21.125 589.3006,21.4063 C589.3006,21.6875 589.4413,21.9375 589.66,22.1094 C589.8319,22.2188 590.0038,22.25 590.4413,22.25 L591.5194,22.25 L588.8788,28.7656 C588.4569,28.7656 588.3006,28.7813 588.1444,28.8906 C587.8944,29.0469 587.7381,29.3281 587.7381,29.625 C587.7381,30.1875 588.1131,30.4688 588.8631,30.4688 L591.1288,30.4688 C591.4881,30.4688 591.7069,30.4375 591.8319,30.3438 C592.0975,30.2031 592.2381,29.9063 592.2381,29.625 C592.2381,29.3438 592.1131,29.0938 591.8944,28.9219 C591.7225,28.7969 591.5819,28.7656 591.1288,28.7656 L590.7381,28.7656 L591.1288,27.7813 L595.1756,27.7813 Z M594.4725,26.0781 L591.8006,26.0781 L593.1444,22.8125 L594.4725,26.0781 Z " fill="#000000"/><text fill="#000000" font-family="sans-serif" font-size="12" font-style="italic" lengthAdjust="spacingAndGlyphs" textLength="94" x="607.0975" y="23.1387">tictactoe.views.</text><text fill="#000000" font-family="sans-serif" font-size="12" font-style="italic" lengthAdjust="spacingAndGlyphs" textLength="28" x="640.0975" y="37.1074">View</text><line style="stroke:#A80036;stroke-width:1.5;" x1="579.0975" x2="703.0975" y1="44.9375" y2="44.9375"/><line style="stroke:#A80036;stroke-width:1.5;" x1="579.0975" x2="703.0975" y1="52.9375" y2="52.9375"/><!--MD5=[8c7d7abc12e214c3cc12c9ab70edee11]
class Coordinate--><rect codeLine="2" fill="#FEFECE" filter="url(#fvhva6ymgkbgv)" height="53.9375" id="Coordinate" style="stroke:#A80036;stroke-width:1.5;" width="135" x="257.5975" y="589"/><ellipse cx="272.5975" cy="607.9688" fill="#ADD1B2" rx="11" ry="11" style="stroke:#A80036;stroke-width:1.0;"/><path d="M274.9413,603.6406 C274.0038,603.2031 273.41,603.0625 272.535,603.0625 C269.91,603.0625 267.91,605.1406 267.91,607.8594 L267.91,608.9844 C267.91,611.5625 270.0194,613.4531 272.91,613.4531 C274.1288,613.4531 275.285,613.1563 276.035,612.6094 C276.6131,612.2031 276.9413,611.75 276.9413,611.3594 C276.9413,610.9063 276.5506,610.5156 276.0819,610.5156 C275.8631,610.5156 275.66,610.5938 275.4725,610.7813 C275.0194,611.2656 275.0194,611.2656 274.8319,611.3594 C274.41,611.625 273.7225,611.75 272.9569,611.75 C270.91,611.75 269.6131,610.6563 269.6131,608.9531 L269.6131,607.8594 C269.6131,606.0781 270.8631,604.7656 272.5975,604.7656 C273.1756,604.7656 273.785,604.9219 274.2538,605.1719 C274.7381,605.4531 274.91,605.6719 275.0038,606.0781 C275.0663,606.4844 275.0975,606.6094 275.2381,606.7344 C275.3788,606.875 275.6131,606.9844 275.8319,606.9844 C276.0975,606.9844 276.3631,606.8438 276.535,606.625 C276.6444,606.4688 276.6756,606.2813 276.6756,605.8594 L276.6756,604.4375 C276.6756,604 276.66,603.875 276.5663,603.7188 C276.41,603.4531 276.1288,603.3125 275.8319,603.3125 C275.535,603.3125 275.3319,603.4063 275.1131,603.7188 L274.9413,603.6406 Z " fill="#000000"/><text fill="#000000" font-family="sans-serif" font-size="12" lengthAdjust="spacingAndGlyphs" textLength="103" x="286.5975" y="605.1387">tictactoe.models.</text><text fill="#000000" font-family="sans-serif" font-size="12" lengthAdjust="spacingAndGlyphs" textLength="66" x="305.0975" y="619.1074">Coordinate</text><line style="stroke:#A80036;stroke-width:1.5;" x1="258.5975" x2="391.5975" y1="626.9375" y2="626.9375"/><line style="stroke:#A80036;stroke-width:1.5;" x1="258.5975" x2="391.5975" y1="634.9375" y2="634.9375"/><!--MD5=[b8cfd8c4119a3b0a7a46bfc5fc780f85]
class Error--><rect codeLine="3" fill="#FEFECE" filter="url(#fvhva6ymgkbgv)" height="53.9375" id="Error" style="stroke:#A80036;stroke-width:1.5;" width="124" x="746.0975" y="719"/><ellipse cx="761.0975" cy="737.9688" fill="#ADD1B2" rx="11" ry="11" style="stroke:#A80036;stroke-width:1.0;"/><path d="M763.4413,733.6406 C762.5038,733.2031 761.91,733.0625 761.035,733.0625 C758.41,733.0625 756.41,735.1406 756.41,737.8594 L756.41,738.9844 C756.41,741.5625 758.5194,743.4531 761.41,743.4531 C762.6288,743.4531 763.785,743.1563 764.535,742.6094 C765.1131,742.2031 765.4413,741.75 765.4413,741.3594 C765.4413,740.9063 765.0506,740.5156 764.5819,740.5156 C764.3631,740.5156 764.16,740.5938 763.9725,740.7813 C763.5194,741.2656 763.5194,741.2656 763.3319,741.3594 C762.91,741.625 762.2225,741.75 761.4569,741.75 C759.41,741.75 758.1131,740.6563 758.1131,738.9531 L758.1131,737.8594 C758.1131,736.0781 759.3631,734.7656 761.0975,734.7656 C761.6756,734.7656 762.285,734.9219 762.7538,735.1719 C763.2381,735.4531 763.41,735.6719 763.5038,736.0781 C763.5663,736.4844 763.5975,736.6094 763.7381,736.7344 C763.8788,736.875 764.1131,736.9844 764.3319,736.9844 C764.5975,736.9844 764.8631,736.8438 765.035,736.625 C765.1444,736.4688 765.1756,736.2813 765.1756,735.8594 L765.1756,734.4375 C765.1756,734 765.16,733.875 765.0663,733.7188 C764.91,733.4531 764.6288,733.3125 764.3319,733.3125 C764.035,733.3125 763.8319,733.4063 763.6131,733.7188 L763.4413,733.6406 Z " fill="#000000"/><text fill="#000000" font-family="sans-serif" font-size="12" lengthAdjust="spacingAndGlyphs" textLength="92" x="775.0975" y="735.1387">tictactoe.types.</text><text fill="#000000" font-family="sans-serif" font-size="12" lengthAdjust="spacingAndGlyphs" textLength="30" x="806.0975" y="749.1074">Error</text><line style="stroke:#A80036;stroke-width:1.5;" x1="747.0975" x2="869.0975" y1="756.9375" y2="756.9375"/><line style="stroke:#A80036;stroke-width:1.5;" x1="747.0975" x2="869.0975" y1="764.9375" y2="764.9375"/><!--MD5=[d8c8cfd5ca149094f5b67f9f607a5ec7]
class Token--><rect codeLine="4" fill="#FEFECE" filter="url(#fvhva6ymgkbgv)" height="53.9375" id="Token" style="stroke:#A80036;stroke-width:1.5;" width="124" x="897.0975" y="449"/><ellipse cx="912.0975" cy="467.9688" fill="#ADD1B2" rx="11" ry="11" style="stroke:#A80036;stroke-width:1.0;"/><path d="M914.4413,463.6406 C913.5038,463.2031 912.91,463.0625 912.035,463.0625 C909.41,463.0625 907.41,465.1406 907.41,467.8594 L907.41,468.9844 C907.41,471.5625 909.5194,473.4531 912.41,473.4531 C913.6288,473.4531 914.785,473.1563 915.535,472.6094 C916.1131,472.2031 916.4413,471.75 916.4413,471.3594 C916.4413,470.9063 916.0506,470.5156 915.5819,470.5156 C915.3631,470.5156 915.16,470.5938 914.9725,470.7813 C914.5194,471.2656 914.5194,471.2656 914.3319,471.3594 C913.91,471.625 913.2225,471.75 912.4569,471.75 C910.41,471.75 909.1131,470.6563 909.1131,468.9531 L909.1131,467.8594 C909.1131,466.0781 910.3631,464.7656 912.0975,464.7656 C912.6756,464.7656 913.285,464.9219 913.7538,465.1719 C914.2381,465.4531 914.41,465.6719 914.5038,466.0781 C914.5663,466.4844 914.5975,466.6094 914.7381,466.7344 C914.8788,466.875 915.1131,466.9844 915.3319,466.9844 C915.5975,466.9844 915.8631,466.8438 916.035,466.625 C916.1444,466.4688 916.1756,466.2813 916.1756,465.8594 L916.1756,464.4375 C916.1756,464 916.16,463.875 916.0663,463.7188 C915.91,463.4531 915.6288,463.3125 915.3319,463.3125 C915.035,463.3125 914.8319,463.4063 914.6131,463.7188 L914.4413,463.6406 Z " fill="#000000"/><text fill="#000000" font-family="sans-serif" font-size="12" lengthAdjust="spacingAndGlyphs" textLength="92" x="926.0975" y="465.1387">tictactoe.types.</text><text fill="#000000" font-family="sans-serif" font-size="12" lengthAdjust="spacingAndGlyphs" textLength="37" x="953.5975" y="479.1074">Token</text><line style="stroke:#A80036;stroke-width:1.5;" x1="898.0975" x2="1020.0975" y1="486.9375" y2="486.9375"/><line style="stroke:#A80036;stroke-width:1.5;" x1="898.0975" x2="1020.0975" y1="494.9375" y2="494.9375"/><!--MD5=[bea5b0d46523efab5ea1c1d339f396f0]
class Message--><rect codeLine="5" fill="#FEFECE" filter="url(#fvhva6ymgkbgv)" height="53.9375" id="Message" style="stroke:#A80036;stroke-width:1.5;" width="125" x="97.5972" y="589"/><ellipse cx="112.5972" cy="607.9688" fill="#ADD1B2" rx="11" ry="11" style="stroke:#A80036;stroke-width:1.0;"/><path d="M114.941,603.6406 C114.0035,603.2031 113.4097,603.0625 112.5347,603.0625 C109.9097,603.0625 107.9097,605.1406 107.9097,607.8594 L107.9097,608.9844 C107.9097,611.5625 110.0191,613.4531 112.9097,613.4531 C114.1285,613.4531 115.2847,613.1563 116.0347,612.6094 C116.6128,612.2031 116.941,611.75 116.941,611.3594 C116.941,610.9063 116.5503,610.5156 116.0816,610.5156 C115.8628,610.5156 115.6597,610.5938 115.4722,610.7813 C115.0191,611.2656 115.0191,611.2656 114.8316,611.3594 C114.4097,611.625 113.7222,611.75 112.9566,611.75 C110.9097,611.75 109.6128,610.6563 109.6128,608.9531 L109.6128,607.8594 C109.6128,606.0781 110.8628,604.7656 112.5972,604.7656 C113.1753,604.7656 113.7847,604.9219 114.2535,605.1719 C114.7378,605.4531 114.9097,605.6719 115.0035,606.0781 C115.066,606.4844 115.0972,606.6094 115.2378,606.7344 C115.3785,606.875 115.6128,606.9844 115.8316,606.9844 C116.0972,606.9844 116.3628,606.8438 116.5347,606.625 C116.6441,606.4688 116.6753,606.2813 116.6753,605.8594 L116.6753,604.4375 C116.6753,604 116.6597,603.875 116.566,603.7188 C116.4097,603.4531 116.1285,603.3125 115.8316,603.3125 C115.5347,603.3125 115.3316,603.4063 115.1128,603.7188 L114.941,603.6406 Z " fill="#000000"/><text fill="#000000" font-family="sans-serif" font-size="12" lengthAdjust="spacingAndGlyphs" textLength="93" x="126.5972" y="605.1387">tictactoe.views.</text><text fill="#000000" font-family="sans-serif" font-size="12" lengthAdjust="spacingAndGlyphs" textLength="55" x="145.5972" y="619.1074">Message</text><line style="stroke:#A80036;stroke-width:1.5;" x1="98.5972" x2="221.5972" y1="626.9375" y2="626.9375"/><line style="stroke:#A80036;stroke-width:1.5;" x1="98.5972" x2="221.5972" y1="634.9375" y2="634.9375"/><!--MD5=[86cec68673cafdfc1c204348d5b2cca6]
class ErrorView--><rect codeLine="6" fill="#FEFECE" filter="url(#fvhva6ymgkbgv)" height="53.9375" id="ErrorView" style="stroke:#A80036;stroke-width:1.5;" width="125" x="1386.5965" y="449"/><ellipse cx="1401.5965" cy="467.9688" fill="#ADD1B2" rx="11" ry="11" style="stroke:#A80036;stroke-width:1.0;"/><path d="M1403.9403,463.6406 C1403.0028,463.2031 1402.409,463.0625 1401.534,463.0625 C1398.909,463.0625 1396.909,465.1406 1396.909,467.8594 L1396.909,468.9844 C1396.909,471.5625 1399.0184,473.4531 1401.909,473.4531 C1403.1278,473.4531 1404.284,473.1563 1405.034,472.6094 C1405.6121,472.2031 1405.9403,471.75 1405.9403,471.3594 C1405.9403,470.9063 1405.5496,470.5156 1405.0809,470.5156 C1404.8621,470.5156 1404.659,470.5938 1404.4715,470.7813 C1404.0184,471.2656 1404.0184,471.2656 1403.8309,471.3594 C1403.409,471.625 1402.7215,471.75 1401.9559,471.75 C1399.909,471.75 1398.6121,470.6563 1398.6121,468.9531 L1398.6121,467.8594 C1398.6121,466.0781 1399.8621,464.7656 1401.5965,464.7656 C1402.1746,464.7656 1402.784,464.9219 1403.2528,465.1719 C1403.7371,465.4531 1403.909,465.6719 1404.0028,466.0781 C1404.0653,466.4844 1404.0965,466.6094 1404.2371,466.7344 C1404.3778,466.875 1404.6121,466.9844 1404.8309,466.9844 C1405.0965,466.9844 1405.3621,466.8438 1405.534,466.625 C1405.6434,466.4688 1405.6746,466.2813 1405.6746,465.8594 L1405.6746,464.4375 C1405.6746,464 1405.659,463.875 1405.5653,463.7188 C1405.409,463.4531 1405.1278,463.3125 1404.8309,463.3125 C1404.534,463.3125 1404.3309,463.4063 1404.1121,463.7188 L1403.9403,463.6406 Z " fill="#000000"/><text fill="#000000" font-family="sans-serif" font-size="12" lengthAdjust="spacingAndGlyphs" textLength="93" x="1415.5965" y="465.1387">tictactoe.views.</text><text fill="#000000" font-family="sans-serif" font-size="12" lengthAdjust="spacingAndGlyphs" textLength="59" x="1432.5965" y="479.1074">ErrorView</text><line style="stroke:#A80036;stroke-width:1.5;" x1="1387.5965" x2="1510.5965" y1="486.9375" y2="486.9375"/><line style="stroke:#A80036;stroke-width:1.5;" x1="1387.5965" x2="1510.5965" y1="494.9375" y2="494.9375"/><!--MD5=[42fa18dda7351a0ae87d9497de925436]
class Logic--><rect codeLine="7" fill="#FEFECE" filter="url(#fvhva6ymgkbgv)" height="53.9375" id="Logic" style="stroke:#A80036;stroke-width:1.5;" width="155" x="1164.5965" y="589"/><ellipse cx="1179.5965" cy="607.9688" fill="#ADD1B2" rx="11" ry="11" style="stroke:#A80036;stroke-width:1.0;"/><path d="M1181.9403,603.6406 C1181.0028,603.2031 1180.409,603.0625 1179.534,603.0625 C1176.909,603.0625 1174.909,605.1406 1174.909,607.8594 L1174.909,608.9844 C1174.909,611.5625 1177.0184,613.4531 1179.909,613.4531 C1181.1278,613.4531 1182.284,613.1563 1183.034,612.6094 C1183.6121,612.2031 1183.9403,611.75 1183.9403,611.3594 C1183.9403,610.9063 1183.5496,610.5156 1183.0809,610.5156 C1182.8621,610.5156 1182.659,610.5938 1182.4715,610.7813 C1182.0184,611.2656 1182.0184,611.2656 1181.8309,611.3594 C1181.409,611.625 1180.7215,611.75 1179.9559,611.75 C1177.909,611.75 1176.6121,610.6563 1176.6121,608.9531 L1176.6121,607.8594 C1176.6121,606.0781 1177.8621,604.7656 1179.5965,604.7656 C1180.1746,604.7656 1180.784,604.9219 1181.2528,605.1719 C1181.7371,605.4531 1181.909,605.6719 1182.0028,606.0781 C1182.0653,606.4844 1182.0965,606.6094 1182.2371,606.7344 C1182.3778,606.875 1182.6121,606.9844 1182.8309,606.9844 C1183.0965,606.9844 1183.3621,606.8438 1183.534,606.625 C1183.6434,606.4688 1183.6746,606.2813 1183.6746,605.8594 L1183.6746,604.4375 C1183.6746,604 1183.659,603.875 1183.5653,603.7188 C1183.409,603.4531 1183.1278,603.3125 1182.8309,603.3125 C1182.534,603.3125 1182.3309,603.4063 1182.1121,603.7188 L1181.9403,603.6406 Z " fill="#000000"/><text fill="#000000" font-family="sans-serif" font-size="12" lengthAdjust="spacingAndGlyphs" textLength="123" x="1193.5965" y="605.1387">tictactoe.controllers.</text><text fill="#000000" font-family="sans-serif" font-size="12" lengthAdjust="spacingAndGlyphs" textLength="32" x="1239.0965" y="619.1074">Logic</text><line style="stroke:#A80036;stroke-width:1.5;" x1="1165.5965" x2="1318.5965" y1="626.9375" y2="626.9375"/><line style="stroke:#A80036;stroke-width:1.5;" x1="1165.5965" x2="1318.5965" y1="634.9375" y2="634.9375"/><!--MD5=[315b61b427ec618d6861d47eee00cca3]
class Console--><rect codeLine="8" fill="#FEFECE" filter="url(#fvhva6ymgkbgv)" height="53.9375" id="Console" style="stroke:#A80036;stroke-width:1.5;" width="130" x="395.0975" y="719"/><ellipse cx="410.0975" cy="737.9688" fill="#ADD1B2" rx="11" ry="11" style="stroke:#A80036;stroke-width:1.0;"/><path d="M412.4413,733.6406 C411.5038,733.2031 410.91,733.0625 410.035,733.0625 C407.41,733.0625 405.41,735.1406 405.41,737.8594 L405.41,738.9844 C405.41,741.5625 407.5194,743.4531 410.41,743.4531 C411.6288,743.4531 412.785,743.1563 413.535,742.6094 C414.1131,742.2031 414.4413,741.75 414.4413,741.3594 C414.4413,740.9063 414.0506,740.5156 413.5819,740.5156 C413.3631,740.5156 413.16,740.5938 412.9725,740.7813 C412.5194,741.2656 412.5194,741.2656 412.3319,741.3594 C411.91,741.625 411.2225,741.75 410.4569,741.75 C408.41,741.75 407.1131,740.6563 407.1131,738.9531 L407.1131,737.8594 C407.1131,736.0781 408.3631,734.7656 410.0975,734.7656 C410.6756,734.7656 411.285,734.9219 411.7538,735.1719 C412.2381,735.4531 412.41,735.6719 412.5038,736.0781 C412.5663,736.4844 412.5975,736.6094 412.7381,736.7344 C412.8788,736.875 413.1131,736.9844 413.3319,736.9844 C413.5975,736.9844 413.8631,736.8438 414.035,736.625 C414.1444,736.4688 414.1756,736.2813 414.1756,735.8594 L414.1756,734.4375 C414.1756,734 414.16,733.875 414.0663,733.7188 C413.91,733.4531 413.6288,733.3125 413.3319,733.3125 C413.035,733.3125 412.8319,733.4063 412.6131,733.7188 L412.4413,733.6406 Z " fill="#000000"/><text fill="#000000" font-family="sans-serif" font-size="12" lengthAdjust="spacingAndGlyphs" textLength="98" x="424.0975" y="735.1387">usantatecla.utils.</text><text fill="#000000" font-family="sans-serif" font-size="12" lengthAdjust="spacingAndGlyphs" textLength="49" x="448.5975" y="749.1074">Console</text><line style="stroke:#A80036;stroke-width:1.5;" x1="396.0975" x2="524.0975" y1="756.9375" y2="756.9375"/><line style="stroke:#A80036;stroke-width:1.5;" x1="396.0975" x2="524.0975" y1="764.9375" y2="764.9375"/><!--MD5=[d93cf99d2b92276f27fe8dbf15140505]
class YesNoDialog--><rect codeLine="9" fill="#FEFECE" filter="url(#fvhva6ymgkbgv)" height="53.9375" id="YesNoDialog" style="stroke:#A80036;stroke-width:1.5;" width="130" x="1221.0965" y="449"/><ellipse cx="1236.0965" cy="467.9688" fill="#ADD1B2" rx="11" ry="11" style="stroke:#A80036;stroke-width:1.0;"/><path d="M1238.4403,463.6406 C1237.5028,463.2031 1236.909,463.0625 1236.034,463.0625 C1233.409,463.0625 1231.409,465.1406 1231.409,467.8594 L1231.409,468.9844 C1231.409,471.5625 1233.5184,473.4531 1236.409,473.4531 C1237.6278,473.4531 1238.784,473.1563 1239.534,472.6094 C1240.1121,472.2031 1240.4403,471.75 1240.4403,471.3594 C1240.4403,470.9063 1240.0496,470.5156 1239.5809,470.5156 C1239.3621,470.5156 1239.159,470.5938 1238.9715,470.7813 C1238.5184,471.2656 1238.5184,471.2656 1238.3309,471.3594 C1237.909,471.625 1237.2215,471.75 1236.4559,471.75 C1234.409,471.75 1233.1121,470.6563 1233.1121,468.9531 L1233.1121,467.8594 C1233.1121,466.0781 1234.3621,464.7656 1236.0965,464.7656 C1236.6746,464.7656 1237.284,464.9219 1237.7528,465.1719 C1238.2371,465.4531 1238.409,465.6719 1238.5028,466.0781 C1238.5653,466.4844 1238.5965,466.6094 1238.7371,466.7344 C1238.8778,466.875 1239.1121,466.9844 1239.3309,466.9844 C1239.5965,466.9844 1239.8621,466.8438 1240.034,466.625 C1240.1434,466.4688 1240.1746,466.2813 1240.1746,465.8594 L1240.1746,464.4375 C1240.1746,464 1240.159,463.875 1240.0653,463.7188 C1239.909,463.4531 1239.6278,463.3125 1239.3309,463.3125 C1239.034,463.3125 1238.8309,463.4063 1238.6121,463.7188 L1238.4403,463.6406 Z " fill="#000000"/><text fill="#000000" font-family="sans-serif" font-size="12" lengthAdjust="spacingAndGlyphs" textLength="98" x="1250.0965" y="465.1387">usantatecla.utils.</text><text fill="#000000" font-family="sans-serif" font-size="12" lengthAdjust="spacingAndGlyphs" textLength="76" x="1261.0965" y="479.1074">YesNoDialog</text><line style="stroke:#A80036;stroke-width:1.5;" x1="1222.0965" x2="1350.0965" y1="486.9375" y2="486.9375"/><line style="stroke:#A80036;stroke-width:1.5;" x1="1222.0965" x2="1350.0965" y1="494.9375" y2="494.9375"/><!--MD5=[58767b3ac92ed88fc68bd4b9dc66dad3]
class LimitedIntDialog--><rect codeLine="10" fill="#FEFECE" filter="url(#fvhva6ymgkbgv)" height="53.9375" id="LimitedIntDialog" style="stroke:#A80036;stroke-width:1.5;" width="130" x="1056.0965" y="449"/><ellipse cx="1071.0965" cy="467.9688" fill="#ADD1B2" rx="11" ry="11" style="stroke:#A80036;stroke-width:1.0;"/><path d="M1073.4402,463.6406 C1072.5027,463.2031 1071.909,463.0625 1071.034,463.0625 C1068.409,463.0625 1066.409,465.1406 1066.409,467.8594 L1066.409,468.9844 C1066.409,471.5625 1068.5184,473.4531 1071.409,473.4531 C1072.6277,473.4531 1073.784,473.1563 1074.534,472.6094 C1075.1121,472.2031 1075.4402,471.75 1075.4402,471.3594 C1075.4402,470.9063 1075.0496,470.5156 1074.5809,470.5156 C1074.3621,470.5156 1074.159,470.5938 1073.9715,470.7813 C1073.5184,471.2656 1073.5184,471.2656 1073.3309,471.3594 C1072.909,471.625 1072.2215,471.75 1071.4559,471.75 C1069.409,471.75 1068.1121,470.6563 1068.1121,468.9531 L1068.1121,467.8594 C1068.1121,466.0781 1069.3621,464.7656 1071.0965,464.7656 C1071.6746,464.7656 1072.284,464.9219 1072.7527,465.1719 C1073.2371,465.4531 1073.409,465.6719 1073.5027,466.0781 C1073.5652,466.4844 1073.5965,466.6094 1073.7371,466.7344 C1073.8777,466.875 1074.1121,466.9844 1074.3309,466.9844 C1074.5965,466.9844 1074.8621,466.8438 1075.034,466.625 C1075.1434,466.4688 1075.1746,466.2813 1075.1746,465.8594 L1075.1746,464.4375 C1075.1746,464 1075.159,463.875 1075.0652,463.7188 C1074.909,463.4531 1074.6277,463.3125 1074.3309,463.3125 C1074.034,463.3125 1073.8309,463.4063 1073.6121,463.7188 L1073.4402,463.6406 Z " fill="#000000"/><text fill="#000000" font-family="sans-serif" font-size="12" lengthAdjust="spacingAndGlyphs" textLength="98" x="1085.0965" y="465.1387">usantatecla.utils.</text><text fill="#000000" font-family="sans-serif" font-size="12" lengthAdjust="spacingAndGlyphs" textLength="95" x="1086.5965" y="479.1074">LimitedIntDialog</text><line style="stroke:#A80036;stroke-width:1.5;" x1="1057.0965" x2="1185.0965" y1="486.9375" y2="486.9375"/><line style="stroke:#A80036;stroke-width:1.5;" x1="1057.0965" x2="1185.0965" y1="494.9375" y2="494.9375"/><!--MD5=[574d2af93f9ea817b36d7b7e70662d67]
link View to tictactoe.views.console.ConsoleView--><path codeLine="18" d="M641.0975,81.358 C641.0975,87.657 641.0975,108.991 641.0975,108.991 " fill="none" id="View-tictactoe.views.console.ConsoleView" style="stroke:#A80036;stroke-width:1.0;"/><polygon fill="#A80036" points="641.0975,120.991,645.0975,114.991,641.0975,108.991,637.0975,114.991,641.0975,120.991" style="stroke:#A80036;stroke-width:1.0;"/><polygon fill="none" points="634.0975,81.252,641.0975,61.252,648.0975,81.252,634.0975,81.252" style="stroke:#A80036;stroke-width:1.0;"/><!--MD5=[9113815f8bbc012213d6467f94b3dc5b]
link tictactoe.views.console.ConsoleView to tictactoe.views.console.StartView--><path codeLine="19" d="M583.7966,228.7996 C583.7966,228.7996 546.4175,266.179 529.8575,282.74 " fill="none" id="tictactoe.views.console.ConsoleView-tictactoe.views.console.StartView" style="stroke:#A80036;stroke-width:1.0;"/><polygon fill="#A80036" points="520.4085,292.188,529.6006,288.6518,523.9438,288.6522,523.9433,282.9953,520.4085,292.188" style="stroke:#A80036;stroke-width:1.0;"/><line style="stroke:#A80036;stroke-width:1.0;" x1="523.9438" x2="529.601" y1="288.6522" y2="282.996"/><polygon fill="#A80036" points="592.2825,220.315,585.2113,221.7287,583.7966,228.7996,590.8677,227.386,592.2825,220.315" style="stroke:#A80036;stroke-width:1.0;"/><!--MD5=[1735144fa38f1aa47117a26d071db586]
link tictactoe.views.console.ConsoleView to tictactoe.views.console.PlayView--><path codeLine="20" d="M701.7645,228.5345 C701.7645,228.5345 732.3585,257.296 746.7215,270.8 " fill="none" id="tictactoe.views.console.ConsoleView-tictactoe.views.console.PlayView" style="stroke:#A80036;stroke-width:1.0;"/><polygon fill="#A80036" points="756.4915,279.985,752.6741,270.9061,752.8486,276.5602,747.1944,276.7347,756.4915,279.985" style="stroke:#A80036;stroke-width:1.0;"/><line style="stroke:#A80036;stroke-width:1.0;" x1="752.8486" x2="747.02" y1="276.5602" y2="271.08"/><polygon fill="#A80036" points="693.0215,220.315,694.6532,227.3391,701.7645,228.5345,700.1328,221.5104,693.0215,220.315" style="stroke:#A80036;stroke-width:1.0;"/><!--MD5=[a983e760d9bef84c565434062749d875]
link tictactoe.views.console.ConsoleView to tictactoe.views.console.ResumeView--><path codeLine="21" d="M643.4201,232.3063 C643.4201,232.3063 644.6505,264.476 645.2015,278.9 " fill="none" id="tictactoe.views.console.ConsoleView-tictactoe.views.console.ResumeView" style="stroke:#A80036;stroke-width:1.0;"/><polygon fill="#A80036" points="645.7095,292.188,649.3624,283.0416,645.5183,287.1917,641.3682,283.3476,645.7095,292.188" style="stroke:#A80036;stroke-width:1.0;"/><line style="stroke:#A80036;stroke-width:1.0;" x1="645.5183" x2="645.213" y1="287.1917" y2="279.198"/><polygon fill="#A80036" points="642.9625,220.315,639.1942,226.4632,643.4201,232.3063,647.1884,226.1581,642.9625,220.315" style="stroke:#A80036;stroke-width:1.0;"/><!--MD5=[5bedb15a5a2dcb2a8d3f661076b447a4]
link tictactoe.views.console.SubView to Logic--><path codeLine="27" d="M876.6944,172.9374 C876.6944,172.9374 1377.8165,221.515 1529.0965,439 C1547.8765,465.999 1548.0665,486.131 1529.0965,513 C1484.9965,575.473 1399.1465,599.913 1332.7765,609.355 " fill="none" id="tictactoe.views.console.SubView-Logic" style="stroke:#A80036;stroke-width:1.0;"/><polygon fill="#A80036" points="1319.7765,611.05,1329.2161,613.8595,1324.735,610.407,1328.1874,605.9259,1319.7765,611.05" style="stroke:#A80036;stroke-width:1.0;"/><line style="stroke:#A80036;stroke-width:1.0;" x1="1324.735" x2="1332.6715" y1="610.407" y2="609.3685"/><polygon fill="#A80036" points="864.7065,172.398,870.5206,176.6637,876.6944,172.9374,870.8802,168.6717,864.7065,172.398" style="stroke:#A80036;stroke-width:1.0;"/><!--MD5=[7673bd27460f3a4a9a8df0bc75b145a4]
reverse link tictactoe.views.console.SubView to tictactoe.views.console.StartView--><path codeLine="33" d="M738.0545,217.507 C736.3975,218.364 734.7435,219.197 733.0975,220 C659.9565,255.686 633.3445,244.534 560.0975,280 C552.4895,283.683 544.7105,287.971 537.1695,292.444 " fill="none" id="tictactoe.views.console.SubView-backto-tictactoe.views.console.StartView" style="stroke:#A80036;stroke-width:1.0;"/><polygon fill="none" points="734.8895,211.257,755.7565,207.578,741.7375,223.467,734.8895,211.257" style="stroke:#A80036;stroke-width:1.0;"/><!--MD5=[f61c5bd14fbcc9ba89615e843b6dda72]
link tictactoe.views.console.StartView to tictactoe.views.console.GameView--><path codeLine="34" d="M485.0965,366.591 C485.6615,387.021 486.3715,412.65 486.9585,433.858 " fill="none" id="tictactoe.views.console.StartView-to-tictactoe.views.console.GameView" style="stroke:#A80036;stroke-width:1.0;stroke-dasharray:7.0,7.0;"/><polygon fill="#A80036" points="487.0975,438.869,490.8465,429.7616,486.9589,433.8709,482.8496,429.9833,487.0975,438.869" style="stroke:#A80036;stroke-width:1.0;"/><!--MD5=[cbe56104a70ea1577228555875c75924]
link tictactoe.views.console.StartView to Message--><path codeLine="35" d="M424.9755,337.385 C361.1815,347.993 261.1005,374.405 204.0975,439 C168.1975,479.681 160.6885,545.308 159.6175,583.886 " fill="none" id="tictactoe.views.console.StartView-to-Message" style="stroke:#A80036;stroke-width:1.0;stroke-dasharray:7.0,7.0;"/><polygon fill="#A80036" points="159.5105,588.914,163.7024,580.0018,159.6176,583.9151,155.7043,579.8303,159.5105,588.914" style="stroke:#A80036;stroke-width:1.0;"/><!--MD5=[f18569398a34687a26f0429a50bef928]
link tictactoe.views.console.StartView to LimitedIntDialog--><path codeLine="36" d="M533.9955,366.649 C542.3965,371.453 551.2635,375.811 560.0975,379 C761.4875,451.701 831.5755,382.497 1038.0975,439 C1046.0015,441.162 1054.1265,443.939 1062.0665,446.989 " fill="none" id="tictactoe.views.console.StartView-to-LimitedIntDialog" style="stroke:#A80036;stroke-width:1.0;stroke-dasharray:7.0,7.0;"/><polygon fill="#A80036" points="1066.9765,448.92,1060.0632,441.9053,1062.323,447.0912,1057.1371,449.3509,1066.9765,448.92" style="stroke:#A80036;stroke-width:1.0;"/><!--MD5=[11fd0b4de8b90a11bd82623cfccc451d]
reverse link tictactoe.views.console.SubView to tictactoe.views.console.PlayView--><path codeLine="44" d="M808.0975,227.68 C808.0975,244.741 808.0975,263.335 808.0975,279.857 " fill="none" id="tictactoe.views.console.SubView-backto-tictactoe.views.console.PlayView" style="stroke:#A80036;stroke-width:1.0;"/><polygon fill="none" points="801.0975,227.519,808.0975,207.519,815.0975,227.519,801.0975,227.519" style="stroke:#A80036;stroke-width:1.0;"/><!--MD5=[1d94d73bec449a448ed14c1a89f503c1]
link tictactoe.views.console.PlayView to tictactoe.views.console.GameView--><path codeLine="45" d="M750.7165,369.434 C744.8655,372.847 738.9285,376.101 733.0975,379 C663.2255,413.74 640.3925,409.636 568.0975,439 C564.1415,440.607 560.0935,442.293 556.0195,444.022 " fill="none" id="tictactoe.views.console.PlayView-to-tictactoe.views.console.GameView" style="stroke:#A80036;stroke-width:1.0;stroke-dasharray:7.0,7.0;"/><polygon fill="#A80036" points="551.2305,446.07,561.0784,446.2105,555.8281,444.1047,557.9339,438.8544,551.2305,446.07" style="stroke:#A80036;stroke-width:1.0;"/><!--MD5=[79c70b9791342a198a7a508e5eca16c0]
link tictactoe.views.console.PlayView to tictactoe.views.console.TokenView--><path codeLine="46" d="M804.6915,379.238 C800.1665,417.84 789.6295,471.916 765.0975,513 C752.4405,534.195 733.9155,553.391 715.4155,569.265 " fill="none" id="tictactoe.views.console.PlayView-to-tictactoe.views.console.TokenView" style="stroke:#A80036;stroke-width:1.0;stroke-dasharray:7.0,7.0;"/><polygon fill="#A80036" points="711.2205,572.809,720.6769,570.0565,715.04,569.5823,715.5142,563.9454,711.2205,572.809" style="stroke:#A80036;stroke-width:1.0;"/><!--MD5=[62ef53832a268c8eeef898be5bf89785]
link tictactoe.views.console.PlayView to tictactoe.views.console.CoordinateView--><path codeLine="47" d="M760.7535,379.018 C740.6535,399.618 717.7265,423.114 699.5885,441.702 " fill="none" id="tictactoe.views.console.PlayView-to-tictactoe.views.console.CoordinateView" style="stroke:#A80036;stroke-width:1.0;stroke-dasharray:7.0,7.0;"/><polygon fill="#A80036" points="696.0265,445.352,705.1754,441.7053,699.5189,441.7739,699.4504,436.1174,696.0265,445.352" style="stroke:#A80036;stroke-width:1.0;"/><!--MD5=[e071d848ecb5a4df5f49ec11249b339d]
link tictactoe.views.console.PlayView to tictactoe.views.console.ErrorView--><path codeLine="48" d="M808.0975,379.084 C808.0975,433.86 808.0975,521.993 808.0975,573.618 " fill="none" id="tictactoe.views.console.PlayView-to-tictactoe.views.console.ErrorView" style="stroke:#A80036;stroke-width:1.0;stroke-dasharray:7.0,7.0;"/><polygon fill="#A80036" points="808.0975,578.805,812.0975,569.805,808.0975,573.805,804.0975,569.805,808.0975,578.805" style="stroke:#A80036;stroke-width:1.0;"/><!--MD5=[3b49bdf6c7f6ce83eed251a9af28dbf3]
link tictactoe.views.console.PlayView to Coordinate--><path codeLine="49" d="M750.7555,370.701 C744.9455,373.815 739.0055,376.654 733.0975,379 C596.1765,433.374 523.6245,348.86 407.0975,439 C360.6555,474.925 339.4505,543.439 330.6395,583.566 " fill="none" id="tictactoe.views.console.PlayView-to-Coordinate" style="stroke:#A80036;stroke-width:1.0;stroke-dasharray:7.0,7.0;"/><polygon fill="#A80036" points="329.5265,588.793,335.3112,580.822,330.5666,583.9024,327.4862,579.1578,329.5265,588.793" style="stroke:#A80036;stroke-width:1.0;"/><!--MD5=[f335b251d0d5a458b635239e43cc0bb5]
link tictactoe.views.console.PlayView to Message--><path codeLine="50" d="M750.8225,370.876 C744.9995,373.953 739.0375,376.736 733.0975,379 C570.8635,440.829 501.9035,360.402 347.0975,439 C305.6245,460.056 306.8155,480.962 273.0975,513 C246.8355,537.952 216.3015,565.426 193.5985,585.568 " fill="none" id="tictactoe.views.console.PlayView-to-Message" style="stroke:#A80036;stroke-width:1.0;stroke-dasharray:7.0,7.0;"/><polygon fill="#A80036" points="189.7385,588.988,199.1271,586.0124,193.4805,585.6718,193.8211,580.0252,189.7385,588.988" style="stroke:#A80036;stroke-width:1.0;"/><!--MD5=[b8eae5493de689ae966fe038f1428b07]
link tictactoe.views.console.PlayView to Error--><path codeLine="51" d="M865.2975,329.99 C1020.4105,329.947 1443.1665,339.166 1529.0965,439 C1639.1965,566.913 1438.0365,637.841 1337.0965,683 C1256.0265,719.2689 998.7855,736.0165 875.3915,742.1182 " fill="none" id="tictactoe.views.console.PlayView-to-Error" style="stroke:#A80036;stroke-width:1.0;stroke-dasharray:7.0,7.0;"/><polygon fill="#A80036" points="870.3385,742.3658,879.5242,745.9187,875.3325,742.1201,879.1311,737.9284,870.3385,742.3658" style="stroke:#A80036;stroke-width:1.0;"/><!--MD5=[4e0d38e8c19130cebcd44920f1a5db01]
reverse link tictactoe.views.console.SubView to tictactoe.views.console.ResumeView--><path codeLine="57" d="M756.6885,221.631 C733.1005,244.634 705.6615,271.391 684.1405,292.377 " fill="none" id="tictactoe.views.console.SubView-backto-tictactoe.views.console.ResumeView" style="stroke:#A80036;stroke-width:1.0;"/><polygon fill="none" points="751.9545,216.471,771.1605,207.519,761.7285,226.494,751.9545,216.471" style="stroke:#A80036;stroke-width:1.0;"/><!--MD5=[45d6b98411685f94cdacdaac3bc1e164]
link tictactoe.views.console.ResumeView to Message--><path codeLine="58" d="M587.8515,366.596 C578.7625,371.226 569.3285,375.546 560.0975,379 C438.8625,424.361 381.9485,365.936 275.0975,439 C247.6425,457.773 200.9985,539.01 176.3985,584.263 " fill="none" id="tictactoe.views.console.ResumeView-to-Message" style="stroke:#A80036;stroke-width:1.0;stroke-dasharray:7.0,7.0;"/><polygon fill="#A80036" points="173.9435,588.794,181.7468,582.785,176.3246,584.3974,174.7123,578.9752,173.9435,588.794" style="stroke:#A80036;stroke-width:1.0;"/><!--MD5=[8fe1c1d6283f66daa4ac51944081ccb1]
link tictactoe.views.console.ResumeView to YesNoDialog--><path codeLine="59" d="M703.9715,366.565 C713.4245,371.38 723.3345,375.764 733.0975,379 C933.4025,445.401 1000.7285,382.673 1204.0965,439 C1211.9165,441.165 1219.9465,443.943 1227.7965,446.994 " fill="none" id="tictactoe.views.console.ResumeView-to-YesNoDialog" style="stroke:#A80036;stroke-width:1.0;stroke-dasharray:7.0,7.0;"/><polygon fill="#A80036" points="1232.6465,448.926,1225.7556,441.8893,1227.9988,447.0824,1222.8058,449.3256,1232.6465,448.926" style="stroke:#A80036;stroke-width:1.0;"/><!--MD5=[b44a7c032619397c63802a117d0c01c0]
link tictactoe.views.console.CoordinateView to tictactoe.views.console.ErrorView--><path codeLine="64" d="M697.3455,506.604 C717.7695,526.594 744.9705,553.217 767.3045,575.075 " fill="none" id="tictactoe.views.console.CoordinateView-to-tictactoe.views.console.ErrorView" style="stroke:#A80036;stroke-width:1.0;stroke-dasharray:7.0,7.0;"/><polygon fill="#A80036" points="771.1295,578.819,767.4957,569.665,767.5563,575.3215,761.8998,575.3821,771.1295,578.819" style="stroke:#A80036;stroke-width:1.0;"/><!--MD5=[a06a410d0f6c1be87ea9d2d5c8f79243]
link tictactoe.views.console.CoordinateView to Console--><path codeLine="65" d="M616.8635,506.604 C591.3665,523.548 561.3725,546.661 540.0975,573 C505.0435,616.398 481.3515,677.6724 469.3345,714.1641 " fill="none" id="tictactoe.views.console.CoordinateView-to-Console" style="stroke:#A80036;stroke-width:1.0;stroke-dasharray:7.0,7.0;"/><polygon fill="#A80036" points="467.7865,718.9256,474.373,711.6031,469.3323,714.1705,466.7649,709.1299,467.7865,718.9256" style="stroke:#A80036;stroke-width:1.0;"/><!--MD5=[3ea4caf7e48eaae8f655dde5cd3263f2]
link tictactoe.views.console.CoordinateView to Error--><path codeLine="66" d="M621.8265,506.699 C600.6445,523.372 577.5935,546.212 566.0975,573 C546.8165,617.926 536.1225,644.378 566.0975,683 C587.3705,710.4105 676.5855,727.7768 740.5035,736.9468 " fill="none" id="tictactoe.views.console.CoordinateView-to-Error" style="stroke:#A80036;stroke-width:1.0;stroke-dasharray:7.0,7.0;"/><polygon fill="#A80036" points="745.8325,737.7008,737.4811,732.4802,740.8817,737.0008,736.3611,740.4014,745.8325,737.7008" style="stroke:#A80036;stroke-width:1.0;"/><!--MD5=[6e79601aef612c06e9891b4875f898f3]
link tictactoe.views.console.CoordinateView to Coordinate--><path codeLine="67" d="M586.2395,506.591 C517.0805,531.983 426.0825,565.619 409.0975,573 C399.5875,577.132 389.6185,581.804 380.0065,586.491 " fill="none" id="tictactoe.views.console.CoordinateView-to-Coordinate" style="stroke:#A80036;stroke-width:1.0;stroke-dasharray:7.0,7.0;"/><polygon fill="#A80036" points="375.3195,588.791,385.1612,588.4167,379.8081,586.5881,381.6367,581.235,375.3195,588.791" style="stroke:#A80036;stroke-width:1.0;"/><!--MD5=[5e3154eeb00ff673e3597b7a5033dd40]
link tictactoe.views.console.ErrorView to Error--><path codeLine="73" d="M808.0975,653.337 C808.0975,672.389 808.0975,695.4905 808.0975,713.7351 " fill="none" id="tictactoe.views.console.ErrorView-to-Error" style="stroke:#A80036;stroke-width:1.0;stroke-dasharray:7.0,7.0;"/><polygon fill="#A80036" points="808.0975,718.7449,812.0975,709.7449,808.0975,713.7449,804.0975,709.7449,808.0975,718.7449" style="stroke:#A80036;stroke-width:1.0;"/><!--MD5=[8ec17c1eeb1fabb729f4f45734e470f6]
link tictactoe.views.console.ErrorView to Console--><path codeLine="74" d="M774.2025,653.237 C762.1775,664.246 747.9235,675.4222 733.0975,683 C668.9275,715.7972 587.5075,731.4014 530.3475,738.7265 " fill="none" id="tictactoe.views.console.ErrorView-to-Console" style="stroke:#A80036;stroke-width:1.0;stroke-dasharray:7.0,7.0;"/><polygon fill="#A80036" points="525.2395,739.3673,534.6669,742.2177,530.2007,738.7459,533.6726,734.2797,525.2395,739.3673" style="stroke:#A80036;stroke-width:1.0;"/><!--MD5=[09df14cf147ebf3fa601d40955ce3c27]
reverse link ErrorView to tictactoe.views.console.ErrorView--><path codeLine="75" d="M1377.0665,510.364 C1374.3965,511.298 1371.7265,512.181 1369.0965,513 C1189.7265,568.753 968.0475,597.895 865.3255,609.244 " fill="none" id="ErrorView-backto-tictactoe.views.console.ErrorView" style="stroke:#A80036;stroke-width:1.0;"/><polygon fill="none" points="1374.8265,503.726,1396.0065,503.042,1379.8765,516.784,1374.8265,503.726" style="stroke:#A80036;stroke-width:1.0;"/><!--MD5=[fb1cd3aaaaf87739f303d1e76524f386]
link tictactoe.views.console.GameView to Logic--><path codeLine="81" d="M562.5824,511.2594 C562.5824,511.2594 566.6225,512.566 568.0975,513 C675.6465,544.687 993.2195,585.345 1151.0065,604.336 " fill="none" id="tictactoe.views.console.GameView-Logic" style="stroke:#A80036;stroke-width:1.0;"/><polygon fill="#A80036" points="1164.3865,605.941,1155.9249,600.9011,1159.4218,605.3475,1154.9754,608.8445,1164.3865,605.941" style="stroke:#A80036;stroke-width:1.0;"/><line style="stroke:#A80036;stroke-width:1.0;" x1="1159.4218" x2="1151.4765" y1="605.3475" y2="604.3925"/><polygon fill="#A80036" points="551.2555,507.297,555.5981,513.0539,562.5824,511.2594,558.2398,505.5026,551.2555,507.297" style="stroke:#A80036;stroke-width:1.0;"/><!--MD5=[3ac3af79272becd7c39264f50d90da00]
link tictactoe.views.console.GameView to tictactoe.views.console.TokenView--><path codeLine="82" d="M530.6605,513.258 C550.8705,530.474 575.2365,551.23 596.6755,569.492 " fill="none" id="tictactoe.views.console.GameView-to-tictactoe.views.console.TokenView" style="stroke:#A80036;stroke-width:1.0;stroke-dasharray:7.0,7.0;"/><polygon fill="#A80036" points="600.6425,572.872,596.3848,563.991,596.8362,569.6298,591.1973,570.0812,600.6425,572.872" style="stroke:#A80036;stroke-width:1.0;"/><!--MD5=[0e43d69a696b22bc5281d1cc9667df5e]
link tictactoe.views.console.GameView to Coordinate--><path codeLine="83" d="M445.2705,513.258 C418.6795,535.771 384.9365,564.338 359.9805,585.467 " fill="none" id="tictactoe.views.console.GameView-to-Coordinate" style="stroke:#A80036;stroke-width:1.0;stroke-dasharray:7.0,7.0;"/><polygon fill="#A80036" points="356.0525,588.792,365.5062,586.0302,359.8688,585.5615,360.3374,579.9241,356.0525,588.792" style="stroke:#A80036;stroke-width:1.0;"/><!--MD5=[08b09d3eac180f3c67266adaed935b89]
link tictactoe.views.console.GameView to Message--><path codeLine="84" d="M424.8515,499.218 C374.2415,517.537 301.7835,544.978 240.0975,573 C230.8915,577.182 221.2505,581.92 211.9765,586.669 " fill="none" id="tictactoe.views.console.GameView-to-Message" style="stroke:#A80036;stroke-width:1.0;stroke-dasharray:7.0,7.0;"/><polygon fill="#A80036" points="207.4575,589,217.2899,588.4309,211.9016,586.7087,213.6238,581.3204,207.4575,589" style="stroke:#A80036;stroke-width:1.0;"/><!--MD5=[6ea791314a7012eef494e5b69e119c48]
link tictactoe.views.console.StartView to Token--><path codeLine="91" d="M545.5713,372.3673 C545.5713,372.3673 555.6115,377.227 560.0975,379 C695.0745,432.348 742.8155,394.919 881.0975,439 C885.7025,440.468 890.3915,442.141 895.0685,443.944 " fill="none" id="tictactoe.views.console.StartView-Token" style="stroke:#A80036;stroke-width:1.0;"/><polygon fill="#A80036" points="907.3605,448.968,900.5431,441.86,902.7322,447.0761,897.5161,449.2653,907.3605,448.968" style="stroke:#A80036;stroke-width:1.0;"/><line style="stroke:#A80036;stroke-width:1.0;" x1="902.7322" x2="895.327" y1="447.0761" y2="444.0495"/><polygon fill="#A80036" points="535.0095,366.671,538.3917,373.0398,545.5713,372.3673,542.1892,365.9985,535.0095,366.671" style="stroke:#A80036;stroke-width:1.0;"/><!--MD5=[e5fc69a5d7b9edfb586c1b6276c53e05]
link tictactoe.views.console.StartView to Console--><path codeLine="92" d="M424.8105,338.036 C355.3995,349.46 240.0335,376.831 162.0975,439 C72.6612,510.341 6,595.833 80.0972,683 C119.0677,728.8442 291.1535,740.8714 389.8585,743.9724 " fill="none" id="tictactoe.views.console.StartView-to-Console" style="stroke:#A80036;stroke-width:1.0;stroke-dasharray:7.0,7.0;"/><polygon fill="#A80036" points="395.0855,744.1304,386.2108,739.8597,390.0878,743.979,385.9685,747.856,395.0855,744.1304" style="stroke:#A80036;stroke-width:1.0;"/><!--MD5=[c16563255af8cb6b7151728b7a6ec603]
@startuml
abstract class View as "tictactoe.views.\nView" {}
class Coordinate as "tictactoe.models.\nCoordinate" {}
class Error as "tictactoe.types.\nError" {}
class Token as "tictactoe.types.\nToken" {}
class Message as "tictactoe.views.\nMessage" {}
class ErrorView as "tictactoe.views.\nErrorView" {}
class Logic as "tictactoe.controllers.\nLogic" {}
class Console as "usantatecla.utils.\nConsole" {}
class YesNoDialog as "usantatecla.utils.\nYesNoDialog" {}
class LimitedIntDialog as "usantatecla.utils.\nLimitedIntDialog" {}

class tictactoe.views.console.ConsoleView{
  + ConsoleView(Logic)
  # start()
  # play()
  # isResumed(): boolean
}
tictactoe.views.console.ConsoleView *-up-|> View
tictactoe.views.console.ConsoleView *-down-> tictactoe.views.console.StartView
tictactoe.views.console.ConsoleView *-down-> tictactoe.views.console.PlayView
tictactoe.views.console.ConsoleView *-down-> tictactoe.views.console.ResumeView

class tictactoe.views.console.SubView {
  # logic: Logic
  ~ SubView(Logic)
}
tictactoe.views.console.SubView *-down-> Logic

class tictactoe.views.console.StartView {
  ~ StartView(Logic)
  ~ interact(): void
}
tictactoe.views.console.StartView -up-|> tictactoe.views.console.SubView
tictactoe.views.console.StartView .down.> tictactoe.views.console.GameView
tictactoe.views.console.StartView .down.> Message
tictactoe.views.console.StartView .down.> LimitedIntDialog

class tictactoe.views.console.PlayView {
  ~ PlayView(Logic)
  ~ interact()
  - put()
  - move()
}
tictactoe.views.console.PlayView -up-|> tictactoe.views.console.SubView
tictactoe.views.console.PlayView .down.> tictactoe.views.console.GameView
tictactoe.views.console.PlayView .down.> tictactoe.views.console.TokenView
tictactoe.views.console.PlayView .down.> tictactoe.views.console.CoordinateView
tictactoe.views.console.PlayView .down.> tictactoe.views.console.ErrorView
tictactoe.views.console.PlayView .down.> Coordinate
tictactoe.views.console.PlayView .down.> Message
tictactoe.views.console.PlayView .down.> Error

class  tictactoe.views.console.ResumeView {
  + ResumeView(Logic)
  ~ interact(): boolean
}
tictactoe.views.console.ResumeView -up-|> tictactoe.views.console.SubView
tictactoe.views.console.ResumeView .down.> Message
tictactoe.views.console.ResumeView .down.> YesNoDialog

class tictactoe.views.console.CoordinateView {
  + read(String): Coordinate
}
tictactoe.views.console.CoordinateView .down.> tictactoe.views.console.ErrorView
tictactoe.views.console.CoordinateView .down.> Console
tictactoe.views.console.CoordinateView .down.> Error
tictactoe.views.console.CoordinateView .down.> Coordinate

class tictactoe.views.console.ErrorView {
  ~ ErrorView(Error)
  ~ writeln()
}
tictactoe.views.console.ErrorView .down.> Error
tictactoe.views.console.ErrorView .down.> Console
ErrorView <|-down- tictactoe.views.console.ErrorView

class tictactoe.views.console.GameView {
  ~ GameView(Logic)
  ~ write()
}
tictactoe.views.console.GameView *-down-> Logic
tictactoe.views.console.GameView .down.> tictactoe.views.console.TokenView
tictactoe.views.console.GameView .down.> Coordinate
tictactoe.views.console.GameView .down.> Message

class tictactoe.views.console.TokenView {
  + {static} SYMBOLS: char[]
  ~ TokenView(Token)
  ~ write()
}
tictactoe.views.console.StartView *-down-> Token
tictactoe.views.console.StartView .down.> Console
@enduml

PlantUML version 1.2020.21beta7(Unknown compile time)
(GPL source distribution)
Java Runtime: Java(TM) SE Runtime Environment
JVM: Java HotSpot(TM) 64-Bit Server VM
Default Encoding: UTF-8
Language: en
Country: US
--></g></svg>