<?xml version="1.0" encoding="UTF-8" standalone="no"?><svg xmlns="http://www.w3.org/2000/svg" xmlns:xlink="http://www.w3.org/1999/xlink" contentScriptType="application/ecmascript" contentStyleType="text/css" height="786px" preserveAspectRatio="none" style="width:2049px;height:786px;" version="1.1" viewBox="0 0 2049 786" width="2049px" zoomAndPan="magnify"><defs><filter height="300%" id="fd4laawnn2n82" width="300%" x="-1" y="-1"><feGaussianBlur result="blurOut" stdDeviation="2.0"/><feColorMatrix in="blurOut" result="blurOut2" type="matrix" values="0 0 0 0 0 0 0 0 0 0 0 0 0 0 0 0 0 0 .4 0"/><feOffset dx="4.0" dy="4.0" in="blurOut2" result="blurOut3"/><feBlend in="SourceGraphic" in2="blurOut3" mode="normal"/></filter></defs><g><!--MD5=[64182ab34c08ac367bbf699869515711]
cluster tictactoe.views.console--><polygon fill="#FFFFFF" filter="url(#fd4laawnn2n82)" points="560.9263,86,759.9263,86,766.9263,108.2969,1032.9263,108.2969,1032.9263,675,560.9263,675,560.9263,86" style="stroke:#000000;stroke-width:1.5;"/><line style="stroke:#000000;stroke-width:1.5;" x1="560.9263" x2="766.9263" y1="108.2969" y2="108.2969"/><text fill="#000000" font-family="sans-serif" font-size="14" font-weight="bold" lengthAdjust="spacingAndGlyphs" textLength="193" x="564.9263" y="100.9951">tictactoe.views.console</text><!--MD5=[bde0c8ed193d8d2dbac1dee471354ab0]
class tictactoe.views.console.ConsoleView--><rect codeLine="12" fill="#FEFECE" filter="url(#fd4laawnn2n82)" height="99.2188" id="tictactoe.views.console.ConsoleView" style="stroke:#A80036;stroke-width:1.5;" width="150" x="717.9263" y="121"/><ellipse cx="750.9263" cy="137" fill="#ADD1B2" rx="11" ry="11" style="stroke:#A80036;stroke-width:1.0;"/><path d="M753.2701,132.6719 C752.3326,132.2344 751.7388,132.0938 750.8638,132.0938 C748.2388,132.0938 746.2388,134.1719 746.2388,136.8906 L746.2388,138.0156 C746.2388,140.5938 748.3482,142.4844 751.2388,142.4844 C752.4576,142.4844 753.6138,142.1875 754.3638,141.6406 C754.9419,141.2344 755.2701,140.7813 755.2701,140.3906 C755.2701,139.9375 754.8794,139.5469 754.4107,139.5469 C754.1919,139.5469 753.9888,139.625 753.8013,139.8125 C753.3482,140.2969 753.3482,140.2969 753.1607,140.3906 C752.7388,140.6563 752.0513,140.7813 751.2857,140.7813 C749.2388,140.7813 747.9419,139.6875 747.9419,137.9844 L747.9419,136.8906 C747.9419,135.1094 749.1919,133.7969 750.9263,133.7969 C751.5044,133.7969 752.1138,133.9531 752.5826,134.2031 C753.0669,134.4844 753.2388,134.7031 753.3326,135.1094 C753.3951,135.5156 753.4263,135.6406 753.5669,135.7656 C753.7076,135.9063 753.9419,136.0156 754.1607,136.0156 C754.4263,136.0156 754.6919,135.875 754.8638,135.6563 C754.9732,135.5 755.0044,135.3125 755.0044,134.8906 L755.0044,133.4688 C755.0044,133.0313 754.9888,132.9063 754.8951,132.75 C754.7388,132.4844 754.4576,132.3438 754.1607,132.3438 C753.8638,132.3438 753.6607,132.4375 753.4419,132.75 L753.2701,132.6719 Z " fill="#000000"/><text fill="#000000" font-family="sans-serif" font-size="12" lengthAdjust="spacingAndGlyphs" textLength="78" x="768.9263" y="141.1543">ConsoleView</text><line style="stroke:#A80036;stroke-width:1.5;" x1="718.9263" x2="866.9263" y1="153" y2="153"/><line style="stroke:#A80036;stroke-width:1.5;" x1="718.9263" x2="866.9263" y1="161" y2="161"/><ellipse cx="728.9263" cy="172" fill="#84BE84" rx="3" ry="3" style="stroke:#038048;stroke-width:1.0;"/><text fill="#000000" font-family="sans-serif" font-size="11" lengthAdjust="spacingAndGlyphs" textLength="111" x="737.9263" y="175.2104">ConsoleView(Logic)</text><polygon fill="#FFFF44" points="728.9263,179.8047,732.9263,183.8047,728.9263,187.8047,724.9263,183.8047" style="stroke:#B38D22;stroke-width:1.0;"/><text fill="#000000" font-family="sans-serif" font-size="11" lengthAdjust="spacingAndGlyphs" textLength="33" x="737.9263" y="188.0151">start()</text><polygon fill="#FFFF44" points="728.9263,192.6094,732.9263,196.6094,728.9263,200.6094,724.9263,196.6094" style="stroke:#B38D22;stroke-width:1.0;"/><text fill="#000000" font-family="sans-serif" font-size="11" lengthAdjust="spacingAndGlyphs" textLength="32" x="737.9263" y="200.8198">play()</text><polygon fill="#FFFF44" points="728.9263,205.4141,732.9263,209.4141,728.9263,213.4141,724.9263,209.4141" style="stroke:#B38D22;stroke-width:1.0;"/><text fill="#000000" font-family="sans-serif" font-size="11" lengthAdjust="spacingAndGlyphs" textLength="124" x="737.9263" y="213.6245">isResumed(): boolean</text><!--MD5=[54aa299435631381f3c0c028f26a058f]
class tictactoe.views.console.StartView--><rect codeLine="29" fill="#FEFECE" filter="url(#fd4laawnn2n82)" height="73.6094" id="tictactoe.views.console.StartView" style="stroke:#A80036;stroke-width:1.5;" width="118" x="576.9263" y="292.5"/><ellipse cx="604.9763" cy="308.5" fill="#ADD1B2" rx="11" ry="11" style="stroke:#A80036;stroke-width:1.0;"/><path d="M607.32,304.1719 C606.3825,303.7344 605.7888,303.5938 604.9138,303.5938 C602.2888,303.5938 600.2888,305.6719 600.2888,308.3906 L600.2888,309.5156 C600.2888,312.0938 602.3982,313.9844 605.2888,313.9844 C606.5075,313.9844 607.6638,313.6875 608.4138,313.1406 C608.9919,312.7344 609.32,312.2813 609.32,311.8906 C609.32,311.4375 608.9294,311.0469 608.4607,311.0469 C608.2419,311.0469 608.0388,311.125 607.8513,311.3125 C607.3982,311.7969 607.3982,311.7969 607.2107,311.8906 C606.7888,312.1563 606.1013,312.2813 605.3357,312.2813 C603.2888,312.2813 601.9919,311.1875 601.9919,309.4844 L601.9919,308.3906 C601.9919,306.6094 603.2419,305.2969 604.9763,305.2969 C605.5544,305.2969 606.1638,305.4531 606.6325,305.7031 C607.1169,305.9844 607.2888,306.2031 607.3825,306.6094 C607.445,307.0156 607.4763,307.1406 607.6169,307.2656 C607.7575,307.4063 607.9919,307.5156 608.2107,307.5156 C608.4763,307.5156 608.7419,307.375 608.9138,307.1563 C609.0232,307 609.0544,306.8125 609.0544,306.3906 L609.0544,304.9688 C609.0544,304.5313 609.0388,304.4063 608.945,304.25 C608.7888,303.9844 608.5075,303.8438 608.2107,303.8438 C607.9138,303.8438 607.7107,303.9375 607.4919,304.25 L607.32,304.1719 Z " fill="#000000"/><text fill="#000000" font-family="sans-serif" font-size="12" lengthAdjust="spacingAndGlyphs" textLength="57" x="621.8763" y="312.6543">StartView</text><line style="stroke:#A80036;stroke-width:1.5;" x1="577.9263" x2="693.9263" y1="324.5" y2="324.5"/><line style="stroke:#A80036;stroke-width:1.5;" x1="577.9263" x2="693.9263" y1="332.5" y2="332.5"/><polygon fill="#4177AF" points="587.9263,339.5,583.9263,345.5,591.9263,345.5" style="stroke:#1963A0;stroke-width:1.0;"/><text fill="#000000" font-family="sans-serif" font-size="11" lengthAdjust="spacingAndGlyphs" textLength="92" x="596.9263" y="346.7104">StartView(Logic)</text><polygon fill="#4177AF" points="587.9263,352.3047,583.9263,358.3047,591.9263,358.3047" style="stroke:#1963A0;stroke-width:1.0;"/><text fill="#000000" font-family="sans-serif" font-size="11" lengthAdjust="spacingAndGlyphs" textLength="82" x="596.9263" y="359.5151">interact(): void</text><!--MD5=[0158df0baddf48f83142f472e341eacc]
class tictactoe.views.console.PlayView--><rect codeLine="38" fill="#FEFECE" filter="url(#fd4laawnn2n82)" height="99.2188" id="tictactoe.views.console.PlayView" style="stroke:#A80036;stroke-width:1.5;" width="114" x="902.9263" y="280"/><ellipse cx="931.4263" cy="296" fill="#ADD1B2" rx="11" ry="11" style="stroke:#A80036;stroke-width:1.0;"/><path d="M933.7701,291.6719 C932.8326,291.2344 932.2388,291.0938 931.3638,291.0938 C928.7388,291.0938 926.7388,293.1719 926.7388,295.8906 L926.7388,297.0156 C926.7388,299.5938 928.8482,301.4844 931.7388,301.4844 C932.9576,301.4844 934.1138,301.1875 934.8638,300.6406 C935.4419,300.2344 935.7701,299.7813 935.7701,299.3906 C935.7701,298.9375 935.3794,298.5469 934.9107,298.5469 C934.6919,298.5469 934.4888,298.625 934.3013,298.8125 C933.8482,299.2969 933.8482,299.2969 933.6607,299.3906 C933.2388,299.6563 932.5513,299.7813 931.7857,299.7813 C929.7388,299.7813 928.4419,298.6875 928.4419,296.9844 L928.4419,295.8906 C928.4419,294.1094 929.6919,292.7969 931.4263,292.7969 C932.0044,292.7969 932.6138,292.9531 933.0826,293.2031 C933.5669,293.4844 933.7388,293.7031 933.8326,294.1094 C933.8951,294.5156 933.9263,294.6406 934.0669,294.7656 C934.2076,294.9063 934.4419,295.0156 934.6607,295.0156 C934.9263,295.0156 935.1919,294.875 935.3638,294.6563 C935.4732,294.5 935.5044,294.3125 935.5044,293.8906 L935.5044,292.4688 C935.5044,292.0313 935.4888,291.9063 935.3951,291.75 C935.2388,291.4844 934.9576,291.3438 934.6607,291.3438 C934.3638,291.3438 934.1607,291.4375 933.9419,291.75 L933.7701,291.6719 Z " fill="#000000"/><text fill="#000000" font-family="sans-serif" font-size="12" lengthAdjust="spacingAndGlyphs" textLength="52" x="948.4263" y="300.1543">PlayView</text><line style="stroke:#A80036;stroke-width:1.5;" x1="903.9263" x2="1015.9263" y1="312" y2="312"/><line style="stroke:#A80036;stroke-width:1.5;" x1="903.9263" x2="1015.9263" y1="320" y2="320"/><polygon fill="#4177AF" points="913.9263,327,909.9263,333,917.9263,333" style="stroke:#1963A0;stroke-width:1.0;"/><text fill="#000000" font-family="sans-serif" font-size="11" lengthAdjust="spacingAndGlyphs" textLength="88" x="922.9263" y="334.2104">PlayView(Logic)</text><polygon fill="#4177AF" points="913.9263,339.8047,909.9263,345.8047,917.9263,345.8047" style="stroke:#1963A0;stroke-width:1.0;"/><text fill="#000000" font-family="sans-serif" font-size="11" lengthAdjust="spacingAndGlyphs" textLength="51" x="922.9263" y="347.0151">interact()</text><rect fill="#F24D5C" height="6" style="stroke:#C82930;stroke-width:1.0;" width="6" x="910.9263" y="353.6094"/><text fill="#000000" font-family="sans-serif" font-size="11" lengthAdjust="spacingAndGlyphs" textLength="26" x="922.9263" y="359.8198">put()</text><rect fill="#F24D5C" height="6" style="stroke:#C82930;stroke-width:1.0;" width="6" x="910.9263" y="366.4141"/><text fill="#000000" font-family="sans-serif" font-size="11" lengthAdjust="spacingAndGlyphs" textLength="41" x="922.9263" y="372.6245">move()</text><!--MD5=[863eeac66a77264bd74e28cbddefcd23]
class tictactoe.views.console.ResumeView--><rect codeLine="53" fill="#FEFECE" filter="url(#fd4laawnn2n82)" height="73.6094" id="tictactoe.views.console.ResumeView" style="stroke:#A80036;stroke-width:1.5;" width="138" x="729.9263" y="292.5"/><ellipse cx="757.9763" cy="308.5" fill="#ADD1B2" rx="11" ry="11" style="stroke:#A80036;stroke-width:1.0;"/><path d="M760.32,304.1719 C759.3825,303.7344 758.7888,303.5938 757.9138,303.5938 C755.2888,303.5938 753.2888,305.6719 753.2888,308.3906 L753.2888,309.5156 C753.2888,312.0938 755.3982,313.9844 758.2888,313.9844 C759.5075,313.9844 760.6638,313.6875 761.4138,313.1406 C761.9919,312.7344 762.32,312.2813 762.32,311.8906 C762.32,311.4375 761.9294,311.0469 761.4607,311.0469 C761.2419,311.0469 761.0388,311.125 760.8513,311.3125 C760.3982,311.7969 760.3982,311.7969 760.2107,311.8906 C759.7888,312.1563 759.1013,312.2813 758.3357,312.2813 C756.2888,312.2813 754.9919,311.1875 754.9919,309.4844 L754.9919,308.3906 C754.9919,306.6094 756.2419,305.2969 757.9763,305.2969 C758.5544,305.2969 759.1638,305.4531 759.6325,305.7031 C760.1169,305.9844 760.2888,306.2031 760.3825,306.6094 C760.445,307.0156 760.4763,307.1406 760.6169,307.2656 C760.7575,307.4063 760.9919,307.5156 761.2107,307.5156 C761.4763,307.5156 761.7419,307.375 761.9138,307.1563 C762.0232,307 762.0544,306.8125 762.0544,306.3906 L762.0544,304.9688 C762.0544,304.5313 762.0388,304.4063 761.945,304.25 C761.7888,303.9844 761.5075,303.8438 761.2107,303.8438 C760.9138,303.8438 760.7107,303.9375 760.4919,304.25 L760.32,304.1719 Z " fill="#000000"/><text fill="#000000" font-family="sans-serif" font-size="12" lengthAdjust="spacingAndGlyphs" textLength="77" x="774.8763" y="312.6543">ResumeView</text><line style="stroke:#A80036;stroke-width:1.5;" x1="730.9263" x2="866.9263" y1="324.5" y2="324.5"/><line style="stroke:#A80036;stroke-width:1.5;" x1="730.9263" x2="866.9263" y1="332.5" y2="332.5"/><ellipse cx="740.9263" cy="343.5" fill="#84BE84" rx="3" ry="3" style="stroke:#038048;stroke-width:1.0;"/><text fill="#000000" font-family="sans-serif" font-size="11" lengthAdjust="spacingAndGlyphs" textLength="112" x="749.9263" y="346.7104">ResumeView(Logic)</text><polygon fill="#4177AF" points="740.9263,352.3047,736.9263,358.3047,744.9263,358.3047" style="stroke:#1963A0;stroke-width:1.0;"/><text fill="#000000" font-family="sans-serif" font-size="11" lengthAdjust="spacingAndGlyphs" textLength="104" x="749.9263" y="359.5151">interact(): boolean</text><!--MD5=[2d78dc9f6799219010ec4b46c4600efc]
class tictactoe.views.console.SubView--><rect codeLine="23" fill="#FEFECE" filter="url(#fd4laawnn2n82)" height="73.6094" id="tictactoe.views.console.SubView" style="stroke:#A80036;stroke-width:1.5;" width="113" x="903.4263" y="133.5"/><ellipse cx="931.4763" cy="149.5" fill="#ADD1B2" rx="11" ry="11" style="stroke:#A80036;stroke-width:1.0;"/><path d="M933.82,145.1719 C932.8825,144.7344 932.2888,144.5938 931.4138,144.5938 C928.7888,144.5938 926.7888,146.6719 926.7888,149.3906 L926.7888,150.5156 C926.7888,153.0938 928.8982,154.9844 931.7888,154.9844 C933.0075,154.9844 934.1638,154.6875 934.9138,154.1406 C935.4919,153.7344 935.82,153.2813 935.82,152.8906 C935.82,152.4375 935.4294,152.0469 934.9607,152.0469 C934.7419,152.0469 934.5388,152.125 934.3513,152.3125 C933.8982,152.7969 933.8982,152.7969 933.7107,152.8906 C933.2888,153.1563 932.6013,153.2813 931.8357,153.2813 C929.7888,153.2813 928.4919,152.1875 928.4919,150.4844 L928.4919,149.3906 C928.4919,147.6094 929.7419,146.2969 931.4763,146.2969 C932.0544,146.2969 932.6638,146.4531 933.1325,146.7031 C933.6169,146.9844 933.7888,147.2031 933.8825,147.6094 C933.945,148.0156 933.9763,148.1406 934.1169,148.2656 C934.2575,148.4063 934.4919,148.5156 934.7107,148.5156 C934.9763,148.5156 935.2419,148.375 935.4138,148.1563 C935.5232,148 935.5544,147.8125 935.5544,147.3906 L935.5544,145.9688 C935.5544,145.5313 935.5388,145.4063 935.445,145.25 C935.2888,144.9844 935.0075,144.8438 934.7107,144.8438 C934.4138,144.8438 934.2107,144.9375 933.9919,145.25 L933.82,145.1719 Z " fill="#000000"/><text fill="#000000" font-family="sans-serif" font-size="12" lengthAdjust="spacingAndGlyphs" textLength="52" x="948.3763" y="153.6543">SubView</text><line style="stroke:#A80036;stroke-width:1.5;" x1="904.4263" x2="1015.4263" y1="165.5" y2="165.5"/><polygon fill="none" points="914.4263,171.5,918.4263,175.5,914.4263,179.5,910.4263,175.5" style="stroke:#B38D22;stroke-width:1.0;"/><text fill="#000000" font-family="sans-serif" font-size="11" lengthAdjust="spacingAndGlyphs" textLength="62" x="923.4263" y="179.7104">logic: Logic</text><line style="stroke:#A80036;stroke-width:1.5;" x1="904.4263" x2="1015.4263" y1="186.3047" y2="186.3047"/><polygon fill="#4177AF" points="914.4263,193.3047,910.4263,199.3047,918.4263,199.3047" style="stroke:#1963A0;stroke-width:1.0;"/><text fill="#000000" font-family="sans-serif" font-size="11" lengthAdjust="spacingAndGlyphs" textLength="87" x="923.4263" y="200.5151">SubView(Logic)</text><!--MD5=[e933b4291156428da126c4c01236555b]
class tictactoe.views.console.GameView--><rect codeLine="77" fill="#FEFECE" filter="url(#fd4laawnn2n82)" height="73.6094" id="tictactoe.views.console.GameView" style="stroke:#A80036;stroke-width:1.5;" width="126" x="576.9263" y="439"/><ellipse cx="605.4263" cy="455" fill="#ADD1B2" rx="11" ry="11" style="stroke:#A80036;stroke-width:1.0;"/><path d="M607.7701,450.6719 C606.8326,450.2344 606.2388,450.0938 605.3638,450.0938 C602.7388,450.0938 600.7388,452.1719 600.7388,454.8906 L600.7388,456.0156 C600.7388,458.5938 602.8482,460.4844 605.7388,460.4844 C606.9576,460.4844 608.1138,460.1875 608.8638,459.6406 C609.4419,459.2344 609.7701,458.7813 609.7701,458.3906 C609.7701,457.9375 609.3794,457.5469 608.9107,457.5469 C608.6919,457.5469 608.4888,457.625 608.3013,457.8125 C607.8482,458.2969 607.8482,458.2969 607.6607,458.3906 C607.2388,458.6563 606.5513,458.7813 605.7857,458.7813 C603.7388,458.7813 602.4419,457.6875 602.4419,455.9844 L602.4419,454.8906 C602.4419,453.1094 603.6919,451.7969 605.4263,451.7969 C606.0044,451.7969 606.6138,451.9531 607.0826,452.2031 C607.5669,452.4844 607.7388,452.7031 607.8326,453.1094 C607.8951,453.5156 607.9263,453.6406 608.0669,453.7656 C608.2076,453.9063 608.4419,454.0156 608.6607,454.0156 C608.9263,454.0156 609.1919,453.875 609.3638,453.6563 C609.4732,453.5 609.5044,453.3125 609.5044,452.8906 L609.5044,451.4688 C609.5044,451.0313 609.4888,450.9063 609.3951,450.75 C609.2388,450.4844 608.9576,450.3438 608.6607,450.3438 C608.3638,450.3438 608.1607,450.4375 607.9419,450.75 L607.7701,450.6719 Z " fill="#000000"/><text fill="#000000" font-family="sans-serif" font-size="12" lengthAdjust="spacingAndGlyphs" textLength="64" x="622.4263" y="459.1543">GameView</text><line style="stroke:#A80036;stroke-width:1.5;" x1="577.9263" x2="701.9263" y1="471" y2="471"/><line style="stroke:#A80036;stroke-width:1.5;" x1="577.9263" x2="701.9263" y1="479" y2="479"/><polygon fill="#4177AF" points="587.9263,486,583.9263,492,591.9263,492" style="stroke:#1963A0;stroke-width:1.0;"/><text fill="#000000" font-family="sans-serif" font-size="11" lengthAdjust="spacingAndGlyphs" textLength="100" x="596.9263" y="493.2104">GameView(Logic)</text><polygon fill="#4177AF" points="587.9263,498.8047,583.9263,504.8047,591.9263,504.8047" style="stroke:#1963A0;stroke-width:1.0;"/><text fill="#000000" font-family="sans-serif" font-size="11" lengthAdjust="spacingAndGlyphs" textLength="36" x="596.9263" y="506.0151">write()</text><!--MD5=[85374d0a3ee4b3ef5b557089b06e5446]
class tictactoe.views.console.TokenView--><rect codeLine="86" fill="#FEFECE" filter="url(#fd4laawnn2n82)" height="86.4141" id="tictactoe.views.console.TokenView" style="stroke:#A80036;stroke-width:1.5;" width="132" x="735.9263" y="573"/><ellipse cx="766.2263" cy="589" fill="#ADD1B2" rx="11" ry="11" style="stroke:#A80036;stroke-width:1.0;"/><path d="M768.57,584.6719 C767.6325,584.2344 767.0388,584.0938 766.1638,584.0938 C763.5388,584.0938 761.5388,586.1719 761.5388,588.8906 L761.5388,590.0156 C761.5388,592.5938 763.6482,594.4844 766.5388,594.4844 C767.7575,594.4844 768.9138,594.1875 769.6638,593.6406 C770.2419,593.2344 770.57,592.7813 770.57,592.3906 C770.57,591.9375 770.1794,591.5469 769.7107,591.5469 C769.4919,591.5469 769.2888,591.625 769.1013,591.8125 C768.6482,592.2969 768.6482,592.2969 768.4607,592.3906 C768.0388,592.6563 767.3513,592.7813 766.5857,592.7813 C764.5388,592.7813 763.2419,591.6875 763.2419,589.9844 L763.2419,588.8906 C763.2419,587.1094 764.4919,585.7969 766.2263,585.7969 C766.8044,585.7969 767.4138,585.9531 767.8825,586.2031 C768.3669,586.4844 768.5388,586.7031 768.6325,587.1094 C768.695,587.5156 768.7263,587.6406 768.8669,587.7656 C769.0075,587.9063 769.2419,588.0156 769.4607,588.0156 C769.7263,588.0156 769.9919,587.875 770.1638,587.6563 C770.2732,587.5 770.3044,587.3125 770.3044,586.8906 L770.3044,585.4688 C770.3044,585.0313 770.2888,584.9063 770.195,584.75 C770.0388,584.4844 769.7575,584.3438 769.4607,584.3438 C769.1638,584.3438 768.9607,584.4375 768.7419,584.75 L768.57,584.6719 Z " fill="#000000"/><text fill="#000000" font-family="sans-serif" font-size="12" lengthAdjust="spacingAndGlyphs" textLength="66" x="783.6263" y="593.1543">TokenView</text><line style="stroke:#A80036;stroke-width:1.5;" x1="736.9263" x2="866.9263" y1="605" y2="605"/><ellipse cx="746.9263" cy="616" fill="none" rx="3" ry="3" style="stroke:#038048;stroke-width:1.0;"/><text fill="#000000" font-family="sans-serif" font-size="11" lengthAdjust="spacingAndGlyphs" text-decoration="underline" textLength="94" x="755.9263" y="619.2104">SYMBOLS: char[]</text><line style="stroke:#A80036;stroke-width:1.5;" x1="736.9263" x2="866.9263" y1="625.8047" y2="625.8047"/><polygon fill="#4177AF" points="746.9263,632.8047,742.9263,638.8047,750.9263,638.8047" style="stroke:#1963A0;stroke-width:1.0;"/><text fill="#000000" font-family="sans-serif" font-size="11" lengthAdjust="spacingAndGlyphs" textLength="106" x="755.9263" y="640.0151">TokenView(Token)</text><polygon fill="#4177AF" points="746.9263,645.6094,742.9263,651.6094,750.9263,651.6094" style="stroke:#1963A0;stroke-width:1.0;"/><text fill="#000000" font-family="sans-serif" font-size="11" lengthAdjust="spacingAndGlyphs" textLength="36" x="755.9263" y="652.8198">write()</text><!--MD5=[8830b246a550294711e6eb5af1606829]
class tictactoe.views.console.CoordinateView--><rect codeLine="61" fill="#FEFECE" filter="url(#fd4laawnn2n82)" height="60.8047" id="tictactoe.views.console.CoordinateView" style="stroke:#A80036;stroke-width:1.5;" width="162" x="737.9263" y="445.5"/><ellipse cx="768.6763" cy="461.5" fill="#ADD1B2" rx="11" ry="11" style="stroke:#A80036;stroke-width:1.0;"/><path d="M771.0201,457.1719 C770.0826,456.7344 769.4888,456.5938 768.6138,456.5938 C765.9888,456.5938 763.9888,458.6719 763.9888,461.3906 L763.9888,462.5156 C763.9888,465.0938 766.0982,466.9844 768.9888,466.9844 C770.2076,466.9844 771.3638,466.6875 772.1138,466.1406 C772.6919,465.7344 773.0201,465.2813 773.0201,464.8906 C773.0201,464.4375 772.6294,464.0469 772.1607,464.0469 C771.9419,464.0469 771.7388,464.125 771.5513,464.3125 C771.0982,464.7969 771.0982,464.7969 770.9107,464.8906 C770.4888,465.1563 769.8013,465.2813 769.0357,465.2813 C766.9888,465.2813 765.6919,464.1875 765.6919,462.4844 L765.6919,461.3906 C765.6919,459.6094 766.9419,458.2969 768.6763,458.2969 C769.2544,458.2969 769.8638,458.4531 770.3326,458.7031 C770.8169,458.9844 770.9888,459.2031 771.0826,459.6094 C771.1451,460.0156 771.1763,460.1406 771.3169,460.2656 C771.4576,460.4063 771.6919,460.5156 771.9107,460.5156 C772.1763,460.5156 772.4419,460.375 772.6138,460.1563 C772.7232,460 772.7544,459.8125 772.7544,459.3906 L772.7544,457.9688 C772.7544,457.5313 772.7388,457.4063 772.6451,457.25 C772.4888,456.9844 772.2076,456.8438 771.9107,456.8438 C771.6138,456.8438 771.4107,456.9375 771.1919,457.25 L771.0201,457.1719 Z " fill="#000000"/><text fill="#000000" font-family="sans-serif" font-size="12" lengthAdjust="spacingAndGlyphs" textLength="95" x="786.1763" y="465.6543">CoordinateView</text><line style="stroke:#A80036;stroke-width:1.5;" x1="738.9263" x2="898.9263" y1="477.5" y2="477.5"/><line style="stroke:#A80036;stroke-width:1.5;" x1="738.9263" x2="898.9263" y1="485.5" y2="485.5"/><ellipse cx="748.9263" cy="496.5" fill="#84BE84" rx="3" ry="3" style="stroke:#038048;stroke-width:1.0;"/><text fill="#000000" font-family="sans-serif" font-size="11" lengthAdjust="spacingAndGlyphs" textLength="136" x="757.9263" y="499.7104">read(String): Coordinate</text><!--MD5=[1ca4e66fd27a79cb5d7093d90b3139a4]
class tictactoe.views.console.ErrorView--><rect codeLine="69" fill="#FEFECE" filter="url(#fd4laawnn2n82)" height="73.6094" id="tictactoe.views.console.ErrorView" style="stroke:#A80036;stroke-width:1.5;" width="114" x="902.9263" y="579"/><ellipse cx="928.2763" cy="595" fill="#ADD1B2" rx="11" ry="11" style="stroke:#A80036;stroke-width:1.0;"/><path d="M930.6201,590.6719 C929.6826,590.2344 929.0888,590.0938 928.2138,590.0938 C925.5888,590.0938 923.5888,592.1719 923.5888,594.8906 L923.5888,596.0156 C923.5888,598.5938 925.6982,600.4844 928.5888,600.4844 C929.8076,600.4844 930.9638,600.1875 931.7138,599.6406 C932.2919,599.2344 932.6201,598.7813 932.6201,598.3906 C932.6201,597.9375 932.2294,597.5469 931.7607,597.5469 C931.5419,597.5469 931.3388,597.625 931.1513,597.8125 C930.6982,598.2969 930.6982,598.2969 930.5107,598.3906 C930.0888,598.6563 929.4013,598.7813 928.6357,598.7813 C926.5888,598.7813 925.2919,597.6875 925.2919,595.9844 L925.2919,594.8906 C925.2919,593.1094 926.5419,591.7969 928.2763,591.7969 C928.8544,591.7969 929.4638,591.9531 929.9326,592.2031 C930.4169,592.4844 930.5888,592.7031 930.6826,593.1094 C930.7451,593.5156 930.7763,593.6406 930.9169,593.7656 C931.0576,593.9063 931.2919,594.0156 931.5107,594.0156 C931.7763,594.0156 932.0419,593.875 932.2138,593.6563 C932.3232,593.5 932.3544,593.3125 932.3544,592.8906 L932.3544,591.4688 C932.3544,591.0313 932.3388,590.9063 932.2451,590.75 C932.0888,590.4844 931.8076,590.3438 931.5107,590.3438 C931.2138,590.3438 931.0107,590.4375 930.7919,590.75 L930.6201,590.6719 Z " fill="#000000"/><text fill="#000000" font-family="sans-serif" font-size="12" lengthAdjust="spacingAndGlyphs" textLength="59" x="944.5763" y="599.1543">ErrorView</text><line style="stroke:#A80036;stroke-width:1.5;" x1="903.9263" x2="1015.9263" y1="611" y2="611"/><line style="stroke:#A80036;stroke-width:1.5;" x1="903.9263" x2="1015.9263" y1="619" y2="619"/><polygon fill="#4177AF" points="913.9263,626,909.9263,632,917.9263,632" style="stroke:#1963A0;stroke-width:1.0;"/><text fill="#000000" font-family="sans-serif" font-size="11" lengthAdjust="spacingAndGlyphs" textLength="88" x="922.9263" y="633.2104">ErrorView(Error)</text><polygon fill="#4177AF" points="913.9263,638.8047,909.9263,644.8047,917.9263,644.8047" style="stroke:#1963A0;stroke-width:1.0;"/><text fill="#000000" font-family="sans-serif" font-size="11" lengthAdjust="spacingAndGlyphs" textLength="46" x="922.9263" y="646.0151">writeln()</text><!--MD5=[c045e12321b83266d36d22b9096c24ea]
class View--><rect codeLine="1" fill="#FEFECE" filter="url(#fd4laawnn2n82)" height="53.9375" id="View" style="stroke:#A80036;stroke-width:1.5;" width="200" x="692.9263" y="7"/><ellipse cx="707.9263" cy="25.9688" fill="#A9DCDF" rx="11" ry="11" style="stroke:#A80036;stroke-width:1.0;"/><path d="M710.0044,27.7813 L710.3951,28.7656 L710.0044,28.7656 C709.5513,28.7656 709.4419,28.7813 709.2857,28.8906 C709.0357,29.0469 708.8794,29.3281 708.8794,29.625 C708.8794,29.8906 709.0201,30.1406 709.2388,30.2969 C709.3794,30.4219 709.5826,30.4688 710.0044,30.4688 L712.3638,30.4688 C712.7232,30.4688 712.9419,30.4375 713.0826,30.3438 C713.3326,30.2031 713.4888,29.9063 713.4888,29.625 C713.4888,29.3438 713.3482,29.0938 713.1294,28.9375 C712.9576,28.7969 712.8013,28.7656 712.3326,28.7656 L708.9419,20.5625 L705.2701,20.5625 C704.8169,20.5625 704.6919,20.5781 704.5357,20.6719 C704.2857,20.8438 704.1294,21.125 704.1294,21.4063 C704.1294,21.6875 704.2701,21.9375 704.4888,22.1094 C704.6607,22.2188 704.8326,22.25 705.2701,22.25 L706.3482,22.25 L703.7076,28.7656 C703.2857,28.7656 703.1294,28.7813 702.9732,28.8906 C702.7232,29.0469 702.5669,29.3281 702.5669,29.625 C702.5669,30.1875 702.9419,30.4688 703.6919,30.4688 L705.9576,30.4688 C706.3169,30.4688 706.5357,30.4375 706.6607,30.3438 C706.9263,30.2031 707.0669,29.9063 707.0669,29.625 C707.0669,29.3438 706.9419,29.0938 706.7232,28.9219 C706.5513,28.7969 706.4107,28.7656 705.9576,28.7656 L705.5669,28.7656 L705.9576,27.7813 L710.0044,27.7813 Z M709.3013,26.0781 L706.6294,26.0781 L707.9732,22.8125 L709.3013,26.0781 Z " fill="#000000"/><text fill="#000000" font-family="sans-serif" font-size="12" font-style="italic" lengthAdjust="spacingAndGlyphs" textLength="168" x="721.9263" y="23.1387">usantatecla.tictactoe.views.</text><text fill="#000000" font-family="sans-serif" font-size="12" font-style="italic" lengthAdjust="spacingAndGlyphs" textLength="28" x="791.9263" y="37.1074">View</text><line style="stroke:#A80036;stroke-width:1.5;" x1="693.9263" x2="891.9263" y1="44.9375" y2="44.9375"/><line style="stroke:#A80036;stroke-width:1.5;" x1="693.9263" x2="891.9263" y1="52.9375" y2="52.9375"/><!--MD5=[8c7d7abc12e214c3cc12c9ab70edee11]
class Coordinate--><rect codeLine="2" fill="#FEFECE" filter="url(#fd4laawnn2n82)" height="53.9375" id="Coordinate" style="stroke:#A80036;stroke-width:1.5;" width="206" x="338.9263" y="589"/><ellipse cx="353.9263" cy="607.9688" fill="#ADD1B2" rx="11" ry="11" style="stroke:#A80036;stroke-width:1.0;"/><path d="M356.2701,603.6406 C355.3326,603.2031 354.7388,603.0625 353.8638,603.0625 C351.2388,603.0625 349.2388,605.1406 349.2388,607.8594 L349.2388,608.9844 C349.2388,611.5625 351.3482,613.4531 354.2388,613.4531 C355.4576,613.4531 356.6138,613.1563 357.3638,612.6094 C357.9419,612.2031 358.2701,611.75 358.2701,611.3594 C358.2701,610.9063 357.8794,610.5156 357.4107,610.5156 C357.1919,610.5156 356.9888,610.5938 356.8013,610.7813 C356.3482,611.2656 356.3482,611.2656 356.1607,611.3594 C355.7388,611.625 355.0513,611.75 354.2857,611.75 C352.2388,611.75 350.9419,610.6563 350.9419,608.9531 L350.9419,607.8594 C350.9419,606.0781 352.1919,604.7656 353.9263,604.7656 C354.5044,604.7656 355.1138,604.9219 355.5826,605.1719 C356.0669,605.4531 356.2388,605.6719 356.3326,606.0781 C356.3951,606.4844 356.4263,606.6094 356.5669,606.7344 C356.7076,606.875 356.9419,606.9844 357.1607,606.9844 C357.4263,606.9844 357.6919,606.8438 357.8638,606.625 C357.9732,606.4688 358.0044,606.2813 358.0044,605.8594 L358.0044,604.4375 C358.0044,604 357.9888,603.875 357.8951,603.7188 C357.7388,603.4531 357.4576,603.3125 357.1607,603.3125 C356.8638,603.3125 356.6607,603.4063 356.4419,603.7188 L356.2701,603.6406 Z " fill="#000000"/><text fill="#000000" font-family="sans-serif" font-size="12" lengthAdjust="spacingAndGlyphs" textLength="174" x="367.9263" y="605.1387">usantatecla.tictactoe.models.</text><text fill="#000000" font-family="sans-serif" font-size="12" lengthAdjust="spacingAndGlyphs" textLength="66" x="421.9263" y="619.1074">Coordinate</text><line style="stroke:#A80036;stroke-width:1.5;" x1="339.9263" x2="543.9263" y1="626.9375" y2="626.9375"/><line style="stroke:#A80036;stroke-width:1.5;" x1="339.9263" x2="543.9263" y1="634.9375" y2="634.9375"/><!--MD5=[b8cfd8c4119a3b0a7a46bfc5fc780f85]
class Error--><rect codeLine="3" fill="#FEFECE" filter="url(#fd4laawnn2n82)" height="53.9375" id="Error" style="stroke:#A80036;stroke-width:1.5;" width="195" x="862.4263" y="719"/><ellipse cx="877.4263" cy="737.9688" fill="#ADD1B2" rx="11" ry="11" style="stroke:#A80036;stroke-width:1.0;"/><path d="M879.7701,733.6406 C878.8326,733.2031 878.2388,733.0625 877.3638,733.0625 C874.7388,733.0625 872.7388,735.1406 872.7388,737.8594 L872.7388,738.9844 C872.7388,741.5625 874.8482,743.4531 877.7388,743.4531 C878.9576,743.4531 880.1138,743.1563 880.8638,742.6094 C881.4419,742.2031 881.7701,741.75 881.7701,741.3594 C881.7701,740.9063 881.3794,740.5156 880.9107,740.5156 C880.6919,740.5156 880.4888,740.5938 880.3013,740.7813 C879.8482,741.2656 879.8482,741.2656 879.6607,741.3594 C879.2388,741.625 878.5513,741.75 877.7857,741.75 C875.7388,741.75 874.4419,740.6563 874.4419,738.9531 L874.4419,737.8594 C874.4419,736.0781 875.6919,734.7656 877.4263,734.7656 C878.0044,734.7656 878.6138,734.9219 879.0826,735.1719 C879.5669,735.4531 879.7388,735.6719 879.8326,736.0781 C879.8951,736.4844 879.9263,736.6094 880.0669,736.7344 C880.2076,736.875 880.4419,736.9844 880.6607,736.9844 C880.9263,736.9844 881.1919,736.8438 881.3638,736.625 C881.4732,736.4688 881.5044,736.2813 881.5044,735.8594 L881.5044,734.4375 C881.5044,734 881.4888,733.875 881.3951,733.7188 C881.2388,733.4531 880.9576,733.3125 880.6607,733.3125 C880.3638,733.3125 880.1607,733.4063 879.9419,733.7188 L879.7701,733.6406 Z " fill="#000000"/><text fill="#000000" font-family="sans-serif" font-size="12" lengthAdjust="spacingAndGlyphs" textLength="163" x="891.4263" y="735.1387">usantatecla.tictactoe.types.</text><text fill="#000000" font-family="sans-serif" font-size="12" lengthAdjust="spacingAndGlyphs" textLength="30" x="957.9263" y="749.1074">Error</text><line style="stroke:#A80036;stroke-width:1.5;" x1="863.4263" x2="1056.4263" y1="756.9375" y2="756.9375"/><line style="stroke:#A80036;stroke-width:1.5;" x1="863.4263" x2="1056.4263" y1="764.9375" y2="764.9375"/><!--MD5=[d8c8cfd5ca149094f5b67f9f607a5ec7]
class Token--><rect codeLine="4" fill="#FEFECE" filter="url(#fd4laawnn2n82)" height="53.9375" id="Token" style="stroke:#A80036;stroke-width:1.5;" width="195" x="1049.4263" y="449"/><ellipse cx="1064.4263" cy="467.9688" fill="#ADD1B2" rx="11" ry="11" style="stroke:#A80036;stroke-width:1.0;"/><path d="M1066.77,463.6406 C1065.8325,463.2031 1065.2388,463.0625 1064.3638,463.0625 C1061.7388,463.0625 1059.7388,465.1406 1059.7388,467.8594 L1059.7388,468.9844 C1059.7388,471.5625 1061.8482,473.4531 1064.7388,473.4531 C1065.9575,473.4531 1067.1138,473.1563 1067.8638,472.6094 C1068.4419,472.2031 1068.77,471.75 1068.77,471.3594 C1068.77,470.9063 1068.3794,470.5156 1067.9107,470.5156 C1067.6919,470.5156 1067.4888,470.5938 1067.3013,470.7813 C1066.8482,471.2656 1066.8482,471.2656 1066.6607,471.3594 C1066.2388,471.625 1065.5513,471.75 1064.7857,471.75 C1062.7388,471.75 1061.4419,470.6563 1061.4419,468.9531 L1061.4419,467.8594 C1061.4419,466.0781 1062.6919,464.7656 1064.4263,464.7656 C1065.0044,464.7656 1065.6138,464.9219 1066.0825,465.1719 C1066.5669,465.4531 1066.7388,465.6719 1066.8325,466.0781 C1066.895,466.4844 1066.9263,466.6094 1067.0669,466.7344 C1067.2075,466.875 1067.4419,466.9844 1067.6607,466.9844 C1067.9263,466.9844 1068.1919,466.8438 1068.3638,466.625 C1068.4732,466.4688 1068.5044,466.2813 1068.5044,465.8594 L1068.5044,464.4375 C1068.5044,464 1068.4888,463.875 1068.395,463.7188 C1068.2388,463.4531 1067.9575,463.3125 1067.6607,463.3125 C1067.3638,463.3125 1067.1607,463.4063 1066.9419,463.7188 L1066.77,463.6406 Z " fill="#000000"/><text fill="#000000" font-family="sans-serif" font-size="12" lengthAdjust="spacingAndGlyphs" textLength="163" x="1078.4263" y="465.1387">usantatecla.tictactoe.types.</text><text fill="#000000" font-family="sans-serif" font-size="12" lengthAdjust="spacingAndGlyphs" textLength="37" x="1141.4263" y="479.1074">Token</text><line style="stroke:#A80036;stroke-width:1.5;" x1="1050.4263" x2="1243.4263" y1="486.9375" y2="486.9375"/><line style="stroke:#A80036;stroke-width:1.5;" x1="1050.4263" x2="1243.4263" y1="494.9375" y2="494.9375"/><!--MD5=[bea5b0d46523efab5ea1c1d339f396f0]
class Message--><rect codeLine="5" fill="#FEFECE" filter="url(#fd4laawnn2n82)" height="53.9375" id="Message" style="stroke:#A80036;stroke-width:1.5;" width="196" x="107.9259" y="589"/><ellipse cx="122.9259" cy="607.9688" fill="#ADD1B2" rx="11" ry="11" style="stroke:#A80036;stroke-width:1.0;"/><path d="M125.2697,603.6406 C124.3322,603.2031 123.7384,603.0625 122.8634,603.0625 C120.2384,603.0625 118.2384,605.1406 118.2384,607.8594 L118.2384,608.9844 C118.2384,611.5625 120.3478,613.4531 123.2384,613.4531 C124.4572,613.4531 125.6134,613.1563 126.3634,612.6094 C126.9415,612.2031 127.2697,611.75 127.2697,611.3594 C127.2697,610.9063 126.879,610.5156 126.4103,610.5156 C126.1915,610.5156 125.9884,610.5938 125.8009,610.7813 C125.3478,611.2656 125.3478,611.2656 125.1603,611.3594 C124.7384,611.625 124.0509,611.75 123.2853,611.75 C121.2384,611.75 119.9415,610.6563 119.9415,608.9531 L119.9415,607.8594 C119.9415,606.0781 121.1915,604.7656 122.9259,604.7656 C123.504,604.7656 124.1134,604.9219 124.5822,605.1719 C125.0665,605.4531 125.2384,605.6719 125.3322,606.0781 C125.3947,606.4844 125.4259,606.6094 125.5665,606.7344 C125.7072,606.875 125.9415,606.9844 126.1603,606.9844 C126.4259,606.9844 126.6915,606.8438 126.8634,606.625 C126.9728,606.4688 127.004,606.2813 127.004,605.8594 L127.004,604.4375 C127.004,604 126.9884,603.875 126.8947,603.7188 C126.7384,603.4531 126.4572,603.3125 126.1603,603.3125 C125.8634,603.3125 125.6603,603.4063 125.4415,603.7188 L125.2697,603.6406 Z " fill="#000000"/><text fill="#000000" font-family="sans-serif" font-size="12" lengthAdjust="spacingAndGlyphs" textLength="164" x="136.9259" y="605.1387">usantatecla.tictactoe.views.</text><text fill="#000000" font-family="sans-serif" font-size="12" lengthAdjust="spacingAndGlyphs" textLength="55" x="191.4259" y="619.1074">Message</text><line style="stroke:#A80036;stroke-width:1.5;" x1="108.9259" x2="302.9259" y1="626.9375" y2="626.9375"/><line style="stroke:#A80036;stroke-width:1.5;" x1="108.9259" x2="302.9259" y1="634.9375" y2="634.9375"/><!--MD5=[86cec68673cafdfc1c204348d5b2cca6]
class ErrorView--><rect codeLine="6" fill="#FEFECE" filter="url(#fd4laawnn2n82)" height="53.9375" id="ErrorView" style="stroke:#A80036;stroke-width:1.5;" width="196" x="1609.9213" y="449"/><ellipse cx="1624.9213" cy="467.9688" fill="#ADD1B2" rx="11" ry="11" style="stroke:#A80036;stroke-width:1.0;"/><path d="M1627.2651,463.6406 C1626.3276,463.2031 1625.7338,463.0625 1624.8588,463.0625 C1622.2338,463.0625 1620.2338,465.1406 1620.2338,467.8594 L1620.2338,468.9844 C1620.2338,471.5625 1622.3432,473.4531 1625.2338,473.4531 C1626.4526,473.4531 1627.6088,473.1563 1628.3588,472.6094 C1628.9369,472.2031 1629.2651,471.75 1629.2651,471.3594 C1629.2651,470.9063 1628.8744,470.5156 1628.4057,470.5156 C1628.1869,470.5156 1627.9838,470.5938 1627.7963,470.7813 C1627.3432,471.2656 1627.3432,471.2656 1627.1557,471.3594 C1626.7338,471.625 1626.0463,471.75 1625.2807,471.75 C1623.2338,471.75 1621.9369,470.6563 1621.9369,468.9531 L1621.9369,467.8594 C1621.9369,466.0781 1623.1869,464.7656 1624.9213,464.7656 C1625.4994,464.7656 1626.1088,464.9219 1626.5776,465.1719 C1627.0619,465.4531 1627.2338,465.6719 1627.3276,466.0781 C1627.3901,466.4844 1627.4213,466.6094 1627.5619,466.7344 C1627.7026,466.875 1627.9369,466.9844 1628.1557,466.9844 C1628.4213,466.9844 1628.6869,466.8438 1628.8588,466.625 C1628.9682,466.4688 1628.9994,466.2813 1628.9994,465.8594 L1628.9994,464.4375 C1628.9994,464 1628.9838,463.875 1628.8901,463.7188 C1628.7338,463.4531 1628.4526,463.3125 1628.1557,463.3125 C1627.8588,463.3125 1627.6557,463.4063 1627.4369,463.7188 L1627.2651,463.6406 Z " fill="#000000"/><text fill="#000000" font-family="sans-serif" font-size="12" lengthAdjust="spacingAndGlyphs" textLength="164" x="1638.9213" y="465.1387">usantatecla.tictactoe.views.</text><text fill="#000000" font-family="sans-serif" font-size="12" lengthAdjust="spacingAndGlyphs" textLength="59" x="1691.4213" y="479.1074">ErrorView</text><line style="stroke:#A80036;stroke-width:1.5;" x1="1610.9213" x2="1804.9213" y1="486.9375" y2="486.9375"/><line style="stroke:#A80036;stroke-width:1.5;" x1="1610.9213" x2="1804.9213" y1="494.9375" y2="494.9375"/><!--MD5=[42fa18dda7351a0ae87d9497de925436]
class Logic--><rect codeLine="7" fill="#FEFECE" filter="url(#fd4laawnn2n82)" height="53.9375" id="Logic" style="stroke:#A80036;stroke-width:1.5;" width="226" x="1351.9213" y="589"/><ellipse cx="1366.9213" cy="607.9688" fill="#ADD1B2" rx="11" ry="11" style="stroke:#A80036;stroke-width:1.0;"/><path d="M1369.2651,603.6406 C1368.3276,603.2031 1367.7338,603.0625 1366.8588,603.0625 C1364.2338,603.0625 1362.2338,605.1406 1362.2338,607.8594 L1362.2338,608.9844 C1362.2338,611.5625 1364.3432,613.4531 1367.2338,613.4531 C1368.4526,613.4531 1369.6088,613.1563 1370.3588,612.6094 C1370.9369,612.2031 1371.2651,611.75 1371.2651,611.3594 C1371.2651,610.9063 1370.8744,610.5156 1370.4057,610.5156 C1370.1869,610.5156 1369.9838,610.5938 1369.7963,610.7813 C1369.3432,611.2656 1369.3432,611.2656 1369.1557,611.3594 C1368.7338,611.625 1368.0463,611.75 1367.2807,611.75 C1365.2338,611.75 1363.9369,610.6563 1363.9369,608.9531 L1363.9369,607.8594 C1363.9369,606.0781 1365.1869,604.7656 1366.9213,604.7656 C1367.4994,604.7656 1368.1088,604.9219 1368.5776,605.1719 C1369.0619,605.4531 1369.2338,605.6719 1369.3276,606.0781 C1369.3901,606.4844 1369.4213,606.6094 1369.5619,606.7344 C1369.7026,606.875 1369.9369,606.9844 1370.1557,606.9844 C1370.4213,606.9844 1370.6869,606.8438 1370.8588,606.625 C1370.9682,606.4688 1370.9994,606.2813 1370.9994,605.8594 L1370.9994,604.4375 C1370.9994,604 1370.9838,603.875 1370.8901,603.7188 C1370.7338,603.4531 1370.4526,603.3125 1370.1557,603.3125 C1369.8588,603.3125 1369.6557,603.4063 1369.4369,603.7188 L1369.2651,603.6406 Z " fill="#000000"/><text fill="#000000" font-family="sans-serif" font-size="12" lengthAdjust="spacingAndGlyphs" textLength="194" x="1380.9213" y="605.1387">usantatecla.tictactoe.controllers.</text><text fill="#000000" font-family="sans-serif" font-size="12" lengthAdjust="spacingAndGlyphs" textLength="32" x="1461.9213" y="619.1074">Logic</text><line style="stroke:#A80036;stroke-width:1.5;" x1="1352.9213" x2="1576.9213" y1="626.9375" y2="626.9375"/><line style="stroke:#A80036;stroke-width:1.5;" x1="1352.9213" x2="1576.9213" y1="634.9375" y2="634.9375"/><!--MD5=[315b61b427ec618d6861d47eee00cca3]
class Console--><rect codeLine="8" fill="#FEFECE" filter="url(#fd4laawnn2n82)" height="53.9375" id="Console" style="stroke:#A80036;stroke-width:1.5;" width="130" x="546.9263" y="719"/><ellipse cx="561.9263" cy="737.9688" fill="#ADD1B2" rx="11" ry="11" style="stroke:#A80036;stroke-width:1.0;"/><path d="M564.2701,733.6406 C563.3326,733.2031 562.7388,733.0625 561.8638,733.0625 C559.2388,733.0625 557.2388,735.1406 557.2388,737.8594 L557.2388,738.9844 C557.2388,741.5625 559.3482,743.4531 562.2388,743.4531 C563.4576,743.4531 564.6138,743.1563 565.3638,742.6094 C565.9419,742.2031 566.2701,741.75 566.2701,741.3594 C566.2701,740.9063 565.8794,740.5156 565.4107,740.5156 C565.1919,740.5156 564.9888,740.5938 564.8013,740.7813 C564.3482,741.2656 564.3482,741.2656 564.1607,741.3594 C563.7388,741.625 563.0513,741.75 562.2857,741.75 C560.2388,741.75 558.9419,740.6563 558.9419,738.9531 L558.9419,737.8594 C558.9419,736.0781 560.1919,734.7656 561.9263,734.7656 C562.5044,734.7656 563.1138,734.9219 563.5826,735.1719 C564.0669,735.4531 564.2388,735.6719 564.3326,736.0781 C564.3951,736.4844 564.4263,736.6094 564.5669,736.7344 C564.7076,736.875 564.9419,736.9844 565.1607,736.9844 C565.4263,736.9844 565.6919,736.8438 565.8638,736.625 C565.9732,736.4688 566.0044,736.2813 566.0044,735.8594 L566.0044,734.4375 C566.0044,734 565.9888,733.875 565.8951,733.7188 C565.7388,733.4531 565.4576,733.3125 565.1607,733.3125 C564.8638,733.3125 564.6607,733.4063 564.4419,733.7188 L564.2701,733.6406 Z " fill="#000000"/><text fill="#000000" font-family="sans-serif" font-size="12" lengthAdjust="spacingAndGlyphs" textLength="98" x="575.9263" y="735.1387">usantatecla.utils.</text><text fill="#000000" font-family="sans-serif" font-size="12" lengthAdjust="spacingAndGlyphs" textLength="49" x="600.4263" y="749.1074">Console</text><line style="stroke:#A80036;stroke-width:1.5;" x1="547.9263" x2="675.9263" y1="756.9375" y2="756.9375"/><line style="stroke:#A80036;stroke-width:1.5;" x1="547.9263" x2="675.9263" y1="764.9375" y2="764.9375"/><!--MD5=[d93cf99d2b92276f27fe8dbf15140505]
class YesNoDialog--><rect codeLine="9" fill="#FEFECE" filter="url(#fd4laawnn2n82)" height="53.9375" id="YesNoDialog" style="stroke:#A80036;stroke-width:1.5;" width="130" x="1444.9213" y="449"/><ellipse cx="1459.9213" cy="467.9688" fill="#ADD1B2" rx="11" ry="11" style="stroke:#A80036;stroke-width:1.0;"/><path d="M1462.2651,463.6406 C1461.3276,463.2031 1460.7338,463.0625 1459.8588,463.0625 C1457.2338,463.0625 1455.2338,465.1406 1455.2338,467.8594 L1455.2338,468.9844 C1455.2338,471.5625 1457.3432,473.4531 1460.2338,473.4531 C1461.4526,473.4531 1462.6088,473.1563 1463.3588,472.6094 C1463.9369,472.2031 1464.2651,471.75 1464.2651,471.3594 C1464.2651,470.9063 1463.8744,470.5156 1463.4057,470.5156 C1463.1869,470.5156 1462.9838,470.5938 1462.7963,470.7813 C1462.3432,471.2656 1462.3432,471.2656 1462.1557,471.3594 C1461.7338,471.625 1461.0463,471.75 1460.2807,471.75 C1458.2338,471.75 1456.9369,470.6563 1456.9369,468.9531 L1456.9369,467.8594 C1456.9369,466.0781 1458.1869,464.7656 1459.9213,464.7656 C1460.4994,464.7656 1461.1088,464.9219 1461.5776,465.1719 C1462.0619,465.4531 1462.2338,465.6719 1462.3276,466.0781 C1462.3901,466.4844 1462.4213,466.6094 1462.5619,466.7344 C1462.7026,466.875 1462.9369,466.9844 1463.1557,466.9844 C1463.4213,466.9844 1463.6869,466.8438 1463.8588,466.625 C1463.9682,466.4688 1463.9994,466.2813 1463.9994,465.8594 L1463.9994,464.4375 C1463.9994,464 1463.9838,463.875 1463.8901,463.7188 C1463.7338,463.4531 1463.4526,463.3125 1463.1557,463.3125 C1462.8588,463.3125 1462.6557,463.4063 1462.4369,463.7188 L1462.2651,463.6406 Z " fill="#000000"/><text fill="#000000" font-family="sans-serif" font-size="12" lengthAdjust="spacingAndGlyphs" textLength="98" x="1473.9213" y="465.1387">usantatecla.utils.</text><text fill="#000000" font-family="sans-serif" font-size="12" lengthAdjust="spacingAndGlyphs" textLength="76" x="1484.9213" y="479.1074">YesNoDialog</text><line style="stroke:#A80036;stroke-width:1.5;" x1="1445.9213" x2="1573.9213" y1="486.9375" y2="486.9375"/><line style="stroke:#A80036;stroke-width:1.5;" x1="1445.9213" x2="1573.9213" y1="494.9375" y2="494.9375"/><!--MD5=[58767b3ac92ed88fc68bd4b9dc66dad3]
class LimitedIntDialog--><rect codeLine="10" fill="#FEFECE" filter="url(#fd4laawnn2n82)" height="53.9375" id="LimitedIntDialog" style="stroke:#A80036;stroke-width:1.5;" width="130" x="1279.9213" y="449"/><ellipse cx="1294.9213" cy="467.9688" fill="#ADD1B2" rx="11" ry="11" style="stroke:#A80036;stroke-width:1.0;"/><path d="M1297.2651,463.6406 C1296.3276,463.2031 1295.7338,463.0625 1294.8588,463.0625 C1292.2338,463.0625 1290.2338,465.1406 1290.2338,467.8594 L1290.2338,468.9844 C1290.2338,471.5625 1292.3432,473.4531 1295.2338,473.4531 C1296.4526,473.4531 1297.6088,473.1563 1298.3588,472.6094 C1298.9369,472.2031 1299.2651,471.75 1299.2651,471.3594 C1299.2651,470.9063 1298.8744,470.5156 1298.4057,470.5156 C1298.1869,470.5156 1297.9838,470.5938 1297.7963,470.7813 C1297.3432,471.2656 1297.3432,471.2656 1297.1557,471.3594 C1296.7338,471.625 1296.0463,471.75 1295.2807,471.75 C1293.2338,471.75 1291.9369,470.6563 1291.9369,468.9531 L1291.9369,467.8594 C1291.9369,466.0781 1293.1869,464.7656 1294.9213,464.7656 C1295.4994,464.7656 1296.1088,464.9219 1296.5776,465.1719 C1297.0619,465.4531 1297.2338,465.6719 1297.3276,466.0781 C1297.3901,466.4844 1297.4213,466.6094 1297.5619,466.7344 C1297.7026,466.875 1297.9369,466.9844 1298.1557,466.9844 C1298.4213,466.9844 1298.6869,466.8438 1298.8588,466.625 C1298.9682,466.4688 1298.9994,466.2813 1298.9994,465.8594 L1298.9994,464.4375 C1298.9994,464 1298.9838,463.875 1298.8901,463.7188 C1298.7338,463.4531 1298.4526,463.3125 1298.1557,463.3125 C1297.8588,463.3125 1297.6557,463.4063 1297.4369,463.7188 L1297.2651,463.6406 Z " fill="#000000"/><text fill="#000000" font-family="sans-serif" font-size="12" lengthAdjust="spacingAndGlyphs" textLength="98" x="1308.9213" y="465.1387">usantatecla.utils.</text><text fill="#000000" font-family="sans-serif" font-size="12" lengthAdjust="spacingAndGlyphs" textLength="95" x="1310.4213" y="479.1074">LimitedIntDialog</text><line style="stroke:#A80036;stroke-width:1.5;" x1="1280.9213" x2="1408.9213" y1="486.9375" y2="486.9375"/><line style="stroke:#A80036;stroke-width:1.5;" x1="1280.9213" x2="1408.9213" y1="494.9375" y2="494.9375"/><!--MD5=[574d2af93f9ea817b36d7b7e70662d67]
link View to tictactoe.views.console.ConsoleView--><path codeLine="18" d="M792.9263,81.358 C792.9263,87.657 792.9263,108.991 792.9263,108.991 " fill="none" id="View-tictactoe.views.console.ConsoleView" style="stroke:#A80036;stroke-width:1.0;"/><polygon fill="#A80036" points="792.9263,120.991,796.9263,114.991,792.9263,108.991,788.9263,114.991,792.9263,120.991" style="stroke:#A80036;stroke-width:1.0;"/><polygon fill="none" points="785.9263,81.252,792.9263,61.252,799.9263,81.252,785.9263,81.252" style="stroke:#A80036;stroke-width:1.0;"/><!--MD5=[9113815f8bbc012213d6467f94b3dc5b]
link tictactoe.views.console.ConsoleView to tictactoe.views.console.StartView--><path codeLine="19" d="M735.6244,228.7996 C735.6244,228.7996 698.2463,266.179 681.6853,282.74 " fill="none" id="tictactoe.views.console.ConsoleView-tictactoe.views.console.StartView" style="stroke:#A80036;stroke-width:1.0;"/><polygon fill="#A80036" points="672.2373,292.188,681.4294,288.6518,675.7726,288.6522,675.7721,282.9953,672.2373,292.188" style="stroke:#A80036;stroke-width:1.0;"/><line style="stroke:#A80036;stroke-width:1.0;" x1="675.7726" x2="681.4298" y1="288.6522" y2="282.996"/><polygon fill="#A80036" points="744.1103,220.315,737.0391,221.7287,735.6244,228.7996,742.6955,227.386,744.1103,220.315" style="stroke:#A80036;stroke-width:1.0;"/><!--MD5=[1735144fa38f1aa47117a26d071db586]
link tictactoe.views.console.ConsoleView to tictactoe.views.console.PlayView--><path codeLine="20" d="M853.5933,228.5345 C853.5933,228.5345 884.1873,257.296 898.5503,270.8 " fill="none" id="tictactoe.views.console.ConsoleView-tictactoe.views.console.PlayView" style="stroke:#A80036;stroke-width:1.0;"/><polygon fill="#A80036" points="908.3203,279.985,904.5029,270.9061,904.6774,276.5602,899.0232,276.7347,908.3203,279.985" style="stroke:#A80036;stroke-width:1.0;"/><line style="stroke:#A80036;stroke-width:1.0;" x1="904.6774" x2="898.8488" y1="276.5602" y2="271.08"/><polygon fill="#A80036" points="844.8503,220.315,846.482,227.3391,853.5933,228.5345,851.9616,221.5104,844.8503,220.315" style="stroke:#A80036;stroke-width:1.0;"/><!--MD5=[a983e760d9bef84c565434062749d875]
link tictactoe.views.console.ConsoleView to tictactoe.views.console.ResumeView--><path codeLine="21" d="M795.2489,232.3063 C795.2489,232.3063 796.4793,264.476 797.0303,278.9 " fill="none" id="tictactoe.views.console.ConsoleView-tictactoe.views.console.ResumeView" style="stroke:#A80036;stroke-width:1.0;"/><polygon fill="#A80036" points="797.5383,292.188,801.1912,283.0416,797.3471,287.1917,793.197,283.3476,797.5383,292.188" style="stroke:#A80036;stroke-width:1.0;"/><line style="stroke:#A80036;stroke-width:1.0;" x1="797.3471" x2="797.0418" y1="287.1917" y2="279.198"/><polygon fill="#A80036" points="794.7913,220.315,791.023,226.4632,795.2489,232.3063,799.0172,226.1581,794.7913,220.315" style="stroke:#A80036;stroke-width:1.0;"/><!--MD5=[5bedb15a5a2dcb2a8d3f661076b447a4]
link tictactoe.views.console.SubView to Logic--><path codeLine="27" d="M1028.3116,182.1396 C1028.3116,182.1396 1727.0213,307.549 1823.9213,439 C1892.4713,531.976 1720.2013,578.445 1591.2413,599.582 " fill="none" id="tictactoe.views.console.SubView-Logic" style="stroke:#A80036;stroke-width:1.0;"/><polygon fill="#A80036" points="1578.1213,601.671,1587.6381,604.207,1583.0592,600.8853,1586.3809,596.3064,1578.1213,601.671" style="stroke:#A80036;stroke-width:1.0;"/><line style="stroke:#A80036;stroke-width:1.0;" x1="1583.0592" x2="1590.9563" y1="600.8853" y2="599.6275"/><polygon fill="#A80036" points="1016.4673,180.213,1021.7473,185.1244,1028.3116,182.1396,1023.0317,177.2282,1016.4673,180.213" style="stroke:#A80036;stroke-width:1.0;"/><!--MD5=[7673bd27460f3a4a9a8df0bc75b145a4]
reverse link tictactoe.views.console.SubView to tictactoe.views.console.StartView--><path codeLine="33" d="M889.8833,217.507 C888.2263,218.364 886.5723,219.197 884.9263,220 C811.7853,255.686 785.1733,244.534 711.9263,280 C704.3183,283.683 696.5393,287.971 688.9983,292.444 " fill="none" id="tictactoe.views.console.SubView-backto-tictactoe.views.console.StartView" style="stroke:#A80036;stroke-width:1.0;"/><polygon fill="none" points="886.7173,211.257,907.5853,207.578,893.5663,223.467,886.7173,211.257" style="stroke:#A80036;stroke-width:1.0;"/><!--MD5=[f61c5bd14fbcc9ba89615e843b6dda72]
link tictactoe.views.console.StartView to tictactoe.views.console.GameView--><path codeLine="34" d="M636.9253,366.591 C637.4903,387.021 638.2003,412.65 638.7873,433.858 " fill="none" id="tictactoe.views.console.StartView-to-tictactoe.views.console.GameView" style="stroke:#A80036;stroke-width:1.0;stroke-dasharray:7.0,7.0;"/><polygon fill="#A80036" points="638.9253,438.869,642.6743,429.7616,638.7867,433.8709,634.6774,429.9833,638.9253,438.869" style="stroke:#A80036;stroke-width:1.0;"/><!--MD5=[cbe56104a70ea1577228555875c75924]
link tictactoe.views.console.StartView to Message--><path codeLine="35" d="M576.8243,335.825 C503.7163,345.213 379.0103,370.721 297.9263,439 C252.2413,477.47 226.2593,544.461 214.2323,583.762 " fill="none" id="tictactoe.views.console.StartView-to-Message" style="stroke:#A80036;stroke-width:1.0;stroke-dasharray:7.0,7.0;"/><polygon fill="#A80036" points="212.6963,588.883,219.1146,581.4127,214.1336,584.094,211.4522,579.113,212.6963,588.883" style="stroke:#A80036;stroke-width:1.0;"/><!--MD5=[f18569398a34687a26f0429a50bef928]
link tictactoe.views.console.StartView to LimitedIntDialog--><path codeLine="36" d="M685.3593,366.535 C693.8893,371.418 702.9193,375.831 711.9263,379 C943.8803,460.616 1024.2293,376.034 1261.9213,439 C1269.9713,441.132 1278.2413,443.924 1286.3013,447.011 " fill="none" id="tictactoe.views.console.StartView-to-LimitedIntDialog" style="stroke:#A80036;stroke-width:1.0;stroke-dasharray:7.0,7.0;"/><polygon fill="#A80036" points="1291.2913,448.969,1284.3773,441.955,1286.6376,447.1406,1281.4519,449.4009,1291.2913,448.969" style="stroke:#A80036;stroke-width:1.0;"/><!--MD5=[11fd0b4de8b90a11bd82623cfccc451d]
reverse link tictactoe.views.console.SubView to tictactoe.views.console.PlayView--><path codeLine="44" d="M959.9263,227.68 C959.9263,244.741 959.9263,263.335 959.9263,279.857 " fill="none" id="tictactoe.views.console.SubView-backto-tictactoe.views.console.PlayView" style="stroke:#A80036;stroke-width:1.0;"/><polygon fill="none" points="952.9263,227.519,959.9263,207.519,966.9263,227.519,952.9263,227.519" style="stroke:#A80036;stroke-width:1.0;"/><!--MD5=[1d94d73bec449a448ed14c1a89f503c1]
link tictactoe.views.console.PlayView to tictactoe.views.console.GameView--><path codeLine="45" d="M902.5453,369.434 C896.6943,372.847 890.7573,376.101 884.9263,379 C815.0543,413.74 792.2213,409.636 719.9263,439 C715.9703,440.607 711.9223,442.293 707.8483,444.022 " fill="none" id="tictactoe.views.console.PlayView-to-tictactoe.views.console.GameView" style="stroke:#A80036;stroke-width:1.0;stroke-dasharray:7.0,7.0;"/><polygon fill="#A80036" points="703.0593,446.07,712.9072,446.2105,707.6569,444.1047,709.7627,438.8544,703.0593,446.07" style="stroke:#A80036;stroke-width:1.0;"/><!--MD5=[79c70b9791342a198a7a508e5eca16c0]
link tictactoe.views.console.PlayView to tictactoe.views.console.TokenView--><path codeLine="46" d="M956.5203,379.238 C951.9953,417.84 941.4583,471.916 916.9263,513 C904.2693,534.195 885.7443,553.391 867.2443,569.265 " fill="none" id="tictactoe.views.console.PlayView-to-tictactoe.views.console.TokenView" style="stroke:#A80036;stroke-width:1.0;stroke-dasharray:7.0,7.0;"/><polygon fill="#A80036" points="863.0493,572.809,872.5057,570.0565,866.8688,569.5823,867.343,563.9454,863.0493,572.809" style="stroke:#A80036;stroke-width:1.0;"/><!--MD5=[62ef53832a268c8eeef898be5bf89785]
link tictactoe.views.console.PlayView to tictactoe.views.console.CoordinateView--><path codeLine="47" d="M912.5823,379.018 C892.4813,399.618 869.5553,423.114 851.4173,441.702 " fill="none" id="tictactoe.views.console.PlayView-to-tictactoe.views.console.CoordinateView" style="stroke:#A80036;stroke-width:1.0;stroke-dasharray:7.0,7.0;"/><polygon fill="#A80036" points="847.8553,445.352,857.0042,441.7053,851.3477,441.7739,851.2792,436.1174,847.8553,445.352" style="stroke:#A80036;stroke-width:1.0;"/><!--MD5=[e071d848ecb5a4df5f49ec11249b339d]
link tictactoe.views.console.PlayView to tictactoe.views.console.ErrorView--><path codeLine="48" d="M959.9263,379.084 C959.9263,433.86 959.9263,521.993 959.9263,573.618 " fill="none" id="tictactoe.views.console.PlayView-to-tictactoe.views.console.ErrorView" style="stroke:#A80036;stroke-width:1.0;stroke-dasharray:7.0,7.0;"/><polygon fill="#A80036" points="959.9263,578.805,963.9263,569.805,959.9263,573.805,955.9263,569.805,959.9263,578.805" style="stroke:#A80036;stroke-width:1.0;"/><!--MD5=[3b49bdf6c7f6ce83eed251a9af28dbf3]
link tictactoe.views.console.PlayView to Coordinate--><path codeLine="49" d="M902.5833,370.701 C896.7743,373.815 890.8343,376.654 884.9263,379 C748.0053,433.374 681.9083,357.887 558.9263,439 C505.2113,474.427 470.1843,543.91 453.4483,584.164 " fill="none" id="tictactoe.views.console.PlayView-to-Coordinate" style="stroke:#A80036;stroke-width:1.0;stroke-dasharray:7.0,7.0;"/><polygon fill="#A80036" points="451.4983,588.924,458.6117,582.1123,453.3939,584.2972,451.2089,579.0794,451.4983,588.924" style="stroke:#A80036;stroke-width:1.0;"/><!--MD5=[f335b251d0d5a458b635239e43cc0bb5]
link tictactoe.views.console.PlayView to Message--><path codeLine="50" d="M902.6643,370.909 C896.8383,373.98 890.8723,376.752 884.9263,379 C716.7753,442.573 653.3943,376.275 484.9263,439 C427.2653,460.469 419.9593,480.164 367.9263,513 C328.7873,537.698 284.2963,565.707 251.8553,586.116 " fill="none" id="tictactoe.views.console.PlayView-to-Message" style="stroke:#A80036;stroke-width:1.0;stroke-dasharray:7.0,7.0;"/><polygon fill="#A80036" points="247.5603,588.819,257.308,587.4109,251.7921,586.1559,253.047,580.64,247.5603,588.819" style="stroke:#A80036;stroke-width:1.0;"/><!--MD5=[b8eae5493de689ae966fe038f1428b07]
link tictactoe.views.console.PlayView to Error--><path codeLine="51" d="M1017.0953,333.371 C1201.2813,343.199 1770.3513,378.28 1823.9213,439 C2042.8213,687.1049 1336.2013,734.0468 1063.0613,742.9279 " fill="none" id="tictactoe.views.console.PlayView-to-Error" style="stroke:#A80036;stroke-width:1.0;stroke-dasharray:7.0,7.0;"/><polygon fill="#A80036" points="1057.8823,743.0935,1067.0036,746.8087,1062.8798,742.9364,1066.7521,738.8126,1057.8823,743.0935" style="stroke:#A80036;stroke-width:1.0;"/><!--MD5=[4e0d38e8c19130cebcd44920f1a5db01]
reverse link tictactoe.views.console.SubView to tictactoe.views.console.ResumeView--><path codeLine="57" d="M908.5173,221.631 C884.9293,244.634 857.4903,271.391 835.9693,292.377 " fill="none" id="tictactoe.views.console.SubView-backto-tictactoe.views.console.ResumeView" style="stroke:#A80036;stroke-width:1.0;"/><polygon fill="none" points="903.7833,216.471,922.9893,207.519,913.5573,226.494,903.7833,216.471" style="stroke:#A80036;stroke-width:1.0;"/><!--MD5=[45d6b98411685f94cdacdaac3bc1e164]
link tictactoe.views.console.ResumeView to Message--><path codeLine="58" d="M740.2463,366.595 C730.9993,371.283 721.3693,375.62 711.9263,379 C570.7483,429.524 512.5823,369.1 379.9263,439 C362.2243,448.327 278.1683,537.254 233.6863,585.011 " fill="none" id="tictactoe.views.console.ResumeView-to-Message" style="stroke:#A80036;stroke-width:1.0;stroke-dasharray:7.0,7.0;"/><polygon fill="#A80036" points="230.0313,588.938,239.0914,585.076,233.4382,585.2783,233.2359,579.6251,230.0313,588.938" style="stroke:#A80036;stroke-width:1.0;"/><!--MD5=[8fe1c1d6283f66daa4ac51944081ccb1]
link tictactoe.views.console.ResumeView to YesNoDialog--><path codeLine="59" d="M855.7533,366.708 C865.2123,371.505 875.1373,375.845 884.9263,379 C1116.0213,453.478 1193.4013,376.142 1427.9213,439 C1435.8813,441.133 1444.0613,443.926 1452.0313,447.014 " fill="none" id="tictactoe.views.console.ResumeView-to-YesNoDialog" style="stroke:#A80036;stroke-width:1.0;stroke-dasharray:7.0,7.0;"/><polygon fill="#A80036" points="1456.9613,448.972,1450.0883,441.9178,1452.3183,447.1165,1447.1196,449.3465,1456.9613,448.972" style="stroke:#A80036;stroke-width:1.0;"/><!--MD5=[b44a7c032619397c63802a117d0c01c0]
link tictactoe.views.console.CoordinateView to tictactoe.views.console.ErrorView--><path codeLine="64" d="M849.1743,506.604 C869.5973,526.594 896.7993,553.217 919.1333,575.075 " fill="none" id="tictactoe.views.console.CoordinateView-to-tictactoe.views.console.ErrorView" style="stroke:#A80036;stroke-width:1.0;stroke-dasharray:7.0,7.0;"/><polygon fill="#A80036" points="922.9583,578.819,919.3264,569.6643,919.3858,575.3208,913.7293,575.3802,922.9583,578.819" style="stroke:#A80036;stroke-width:1.0;"/><!--MD5=[a06a410d0f6c1be87ea9d2d5c8f79243]
link tictactoe.views.console.CoordinateView to Console--><path codeLine="65" d="M768.6923,506.604 C743.1953,523.548 713.2003,546.661 691.9263,573 C656.8723,616.398 633.1803,677.6724 621.1633,714.1641 " fill="none" id="tictactoe.views.console.CoordinateView-to-Console" style="stroke:#A80036;stroke-width:1.0;stroke-dasharray:7.0,7.0;"/><polygon fill="#A80036" points="619.6153,718.9256,626.2018,711.6031,621.1611,714.1705,618.5937,709.1299,619.6153,718.9256" style="stroke:#A80036;stroke-width:1.0;"/><!--MD5=[3ea4caf7e48eaae8f655dde5cd3263f2]
link tictactoe.views.console.CoordinateView to Error--><path codeLine="66" d="M773.6553,506.699 C752.4733,523.372 729.4223,546.212 717.9263,573 C698.6453,617.926 687.9513,644.378 717.9263,683 C735.4783,705.6161 799.2833,721.3943 856.9693,731.3728 " fill="none" id="tictactoe.views.console.CoordinateView-to-Error" style="stroke:#A80036;stroke-width:1.0;stroke-dasharray:7.0,7.0;"/><polygon fill="#A80036" points="862.1743,732.2605,853.9742,726.8053,857.2454,731.4205,852.6302,734.6916,862.1743,732.2605" style="stroke:#A80036;stroke-width:1.0;"/><!--MD5=[6e79601aef612c06e9891b4875f898f3]
link tictactoe.views.console.CoordinateView to Coordinate--><path codeLine="67" d="M738.0503,506.604 C672.8933,530.455 581.9353,563.75 518.0713,587.127 " fill="none" id="tictactoe.views.console.CoordinateView-to-Coordinate" style="stroke:#A80036;stroke-width:1.0;stroke-dasharray:7.0,7.0;"/><polygon fill="#A80036" points="513.1363,588.934,522.9629,589.5961,517.8315,587.2151,520.2126,582.0837,513.1363,588.934" style="stroke:#A80036;stroke-width:1.0;"/><!--MD5=[5e3154eeb00ff673e3597b7a5033dd40]
link tictactoe.views.console.ErrorView to Error--><path codeLine="73" d="M959.9263,653.337 C959.9263,672.389 959.9263,695.4905 959.9263,713.7351 " fill="none" id="tictactoe.views.console.ErrorView-to-Error" style="stroke:#A80036;stroke-width:1.0;stroke-dasharray:7.0,7.0;"/><polygon fill="#A80036" points="959.9263,718.7449,963.9263,709.7449,959.9263,713.7449,955.9263,709.7449,959.9263,718.7449" style="stroke:#A80036;stroke-width:1.0;"/><!--MD5=[8ec17c1eeb1fabb729f4f45734e470f6]
link tictactoe.views.console.ErrorView to Console--><path codeLine="74" d="M926.0313,653.237 C914.0063,664.246 899.7523,675.4222 884.9263,683 C820.7553,715.7972 739.3363,731.4014 682.1763,738.7265 " fill="none" id="tictactoe.views.console.ErrorView-to-Console" style="stroke:#A80036;stroke-width:1.0;stroke-dasharray:7.0,7.0;"/><polygon fill="#A80036" points="677.0683,739.3673,686.4957,742.2177,682.0295,738.7459,685.5014,734.2797,677.0683,739.3673" style="stroke:#A80036;stroke-width:1.0;"/><!--MD5=[09df14cf147ebf3fa601d40955ce3c27]
reverse link ErrorView to tictactoe.views.console.ErrorView--><path codeLine="75" d="M1610.8313,508.465 C1604.8013,510.088 1598.7913,511.616 1592.9213,513 C1383.2813,562.434 1128.9113,595.413 1017.2053,608.569 " fill="none" id="ErrorView-backto-tictactoe.views.console.ErrorView" style="stroke:#A80036;stroke-width:1.0;"/><polygon fill="none" points="1608.9413,501.726,1630.0913,503.02,1612.7513,515.198,1608.9413,501.726" style="stroke:#A80036;stroke-width:1.0;"/><!--MD5=[fb1cd3aaaaf87739f303d1e76524f386]
link tictactoe.views.console.GameView to Logic--><path codeLine="81" d="M714.404,511.2942 C714.404,511.2942 718.4483,512.576 719.9263,513 C833.2203,545.512 1157.3513,582.907 1338.5213,602.121 " fill="none" id="tictactoe.views.console.GameView-Logic" style="stroke:#A80036;stroke-width:1.0;"/><polygon fill="#A80036" points="1351.5813,603.501,1343.0535,598.5739,1346.6092,602.9736,1342.2096,606.5293,1351.5813,603.501" style="stroke:#A80036;stroke-width:1.0;"/><line style="stroke:#A80036;stroke-width:1.0;" x1="1346.6092" x2="1338.6513" y1="602.9736" y2="602.135"/><polygon fill="#A80036" points="703.0593,507.383,707.4279,513.1202,714.404,511.2942,710.0354,505.5571,703.0593,507.383" style="stroke:#A80036;stroke-width:1.0;"/><!--MD5=[3ac3af79272becd7c39264f50d90da00]
link tictactoe.views.console.GameView to tictactoe.views.console.TokenView--><path codeLine="82" d="M682.4893,513.258 C702.6993,530.474 727.0653,551.23 748.5043,569.492 " fill="none" id="tictactoe.views.console.GameView-to-tictactoe.views.console.TokenView" style="stroke:#A80036;stroke-width:1.0;stroke-dasharray:7.0,7.0;"/><polygon fill="#A80036" points="752.4713,572.872,748.2136,563.991,748.665,569.6298,743.0261,570.0812,752.4713,572.872" style="stroke:#A80036;stroke-width:1.0;"/><!--MD5=[0e43d69a696b22bc5281d1cc9667df5e]
link tictactoe.views.console.GameView to Coordinate--><path codeLine="83" d="M588.1623,513.078 C555.6173,535.76 514.1773,564.643 483.7273,585.866 " fill="none" id="tictactoe.views.console.GameView-to-Coordinate" style="stroke:#A80036;stroke-width:1.0;stroke-dasharray:7.0,7.0;"/><polygon fill="#A80036" points="479.3163,588.94,488.9869,587.0748,483.4181,586.0807,484.4121,580.5119,479.3163,588.94" style="stroke:#A80036;stroke-width:1.0;"/><!--MD5=[08b09d3eac180f3c67266adaed935b89]
link tictactoe.views.console.GameView to Message--><path codeLine="84" d="M576.6393,494.875 C512.0293,513.398 409.0033,543.691 320.9263,573 C307.7243,577.393 293.7543,582.286 280.2723,587.135 " fill="none" id="tictactoe.views.console.GameView-to-Message" style="stroke:#A80036;stroke-width:1.0;stroke-dasharray:7.0,7.0;"/><polygon fill="#A80036" points="275.3303,588.919,285.1537,589.6265,280.0334,587.2218,282.4381,582.1015,275.3303,588.919" style="stroke:#A80036;stroke-width:1.0;"/><!--MD5=[6ea791314a7012eef494e5b69e119c48]
link tictactoe.views.console.StartView to Token--><path codeLine="91" d="M697.4007,372.3663 C697.4007,372.3663 707.4403,377.227 711.9263,379 C846.9033,432.348 892.1343,403.749 1032.9263,439 C1040.4983,440.896 1048.3053,443.012 1056.1163,445.242 " fill="none" id="tictactoe.views.console.StartView-Token" style="stroke:#A80036;stroke-width:1.0;"/><polygon fill="#A80036" points="1068.7813,448.953,1061.2686,442.5844,1063.9829,447.5475,1059.0198,450.2618,1068.7813,448.953" style="stroke:#A80036;stroke-width:1.0;"/><line style="stroke:#A80036;stroke-width:1.0;" x1="1063.9829" x2="1056.3103" y1="447.5475" y2="445.2985"/><polygon fill="#A80036" points="686.8383,366.671,690.2211,373.0394,697.4007,372.3663,694.0179,365.9978,686.8383,366.671" style="stroke:#A80036;stroke-width:1.0;"/><!--MD5=[e5fc69a5d7b9edfb586c1b6276c53e05]
link tictactoe.views.console.StartView to Console--><path codeLine="92" d="M576.6813,337.607 C495.5643,349.271 347.3073,377.612 235.9263,439 C125.2472,500 6,588.516 89.9259,683 C119.4333,716.2195 406.1303,734.7768 541.6393,741.7554 " fill="none" id="tictactoe.views.console.StartView-to-Console" style="stroke:#A80036;stroke-width:1.0;stroke-dasharray:7.0,7.0;"/><polygon fill="#A80036" points="546.7903,742.0189,538.0067,737.5638,541.7968,741.7632,537.5975,745.5534,546.7903,742.0189" style="stroke:#A80036;stroke-width:1.0;"/><!--MD5=[ee4a60d4e158778ef7d7479cc25307a0]
@startuml
abstract class View as "usantatecla.tictactoe.views.\nView" {}
class Coordinate as "usantatecla.tictactoe.models.\nCoordinate" {}
class Error as "usantatecla.tictactoe.types.\nError" {}
class Token as "usantatecla.tictactoe.types.\nToken" {}
class Message as "usantatecla.tictactoe.views.\nMessage" {}
class ErrorView as "usantatecla.tictactoe.views.\nErrorView" {}
class Logic as "usantatecla.tictactoe.controllers.\nLogic" {}
class Console as "usantatecla.utils.\nConsole" {}
class YesNoDialog as "usantatecla.utils.\nYesNoDialog" {}
class LimitedIntDialog as "usantatecla.utils.\nLimitedIntDialog" {}

class tictactoe.views.console.ConsoleView{
  + ConsoleView(Logic)
  # start()
  # play()
  # isResumed(): boolean
}
tictactoe.views.console.ConsoleView *-up-|> View
tictactoe.views.console.ConsoleView *-down-> tictactoe.views.console.StartView
tictactoe.views.console.ConsoleView *-down-> tictactoe.views.console.PlayView
tictactoe.views.console.ConsoleView *-down-> tictactoe.views.console.ResumeView

class tictactoe.views.console.SubView {
  # logic: Logic
  ~ SubView(Logic)
}
tictactoe.views.console.SubView *-down-> Logic

class tictactoe.views.console.StartView {
  ~ StartView(Logic)
  ~ interact(): void
}
tictactoe.views.console.StartView -up-|> tictactoe.views.console.SubView
tictactoe.views.console.StartView .down.> tictactoe.views.console.GameView
tictactoe.views.console.StartView .down.> Message
tictactoe.views.console.StartView .down.> LimitedIntDialog

class tictactoe.views.console.PlayView {
  ~ PlayView(Logic)
  ~ interact()
  - put()
  - move()
}
tictactoe.views.console.PlayView -up-|> tictactoe.views.console.SubView
tictactoe.views.console.PlayView .down.> tictactoe.views.console.GameView
tictactoe.views.console.PlayView .down.> tictactoe.views.console.TokenView
tictactoe.views.console.PlayView .down.> tictactoe.views.console.CoordinateView
tictactoe.views.console.PlayView .down.> tictactoe.views.console.ErrorView
tictactoe.views.console.PlayView .down.> Coordinate
tictactoe.views.console.PlayView .down.> Message
tictactoe.views.console.PlayView .down.> Error

class  tictactoe.views.console.ResumeView {
  + ResumeView(Logic)
  ~ interact(): boolean
}
tictactoe.views.console.ResumeView -up-|> tictactoe.views.console.SubView
tictactoe.views.console.ResumeView .down.> Message
tictactoe.views.console.ResumeView .down.> YesNoDialog

class tictactoe.views.console.CoordinateView {
  + read(String): Coordinate
}
tictactoe.views.console.CoordinateView .down.> tictactoe.views.console.ErrorView
tictactoe.views.console.CoordinateView .down.> Console
tictactoe.views.console.CoordinateView .down.> Error
tictactoe.views.console.CoordinateView .down.> Coordinate

class tictactoe.views.console.ErrorView {
  ~ ErrorView(Error)
  ~ writeln()
}
tictactoe.views.console.ErrorView .down.> Error
tictactoe.views.console.ErrorView .down.> Console
ErrorView <|-down- tictactoe.views.console.ErrorView

class tictactoe.views.console.GameView {
  ~ GameView(Logic)
  ~ write()
}
tictactoe.views.console.GameView *-down-> Logic
tictactoe.views.console.GameView .down.> tictactoe.views.console.TokenView
tictactoe.views.console.GameView .down.> Coordinate
tictactoe.views.console.GameView .down.> Message

class tictactoe.views.console.TokenView {
  + {static} SYMBOLS: char[]
  ~ TokenView(Token)
  ~ write()
}
tictactoe.views.console.StartView *-down-> Token
tictactoe.views.console.StartView .down.> Console
@enduml

PlantUML version 1.2020.21beta7(Unknown compile time)
(GPL source distribution)
Java Runtime: Java(TM) SE Runtime Environment
JVM: Java HotSpot(TM) 64-Bit Server VM
Default Encoding: UTF-8
Language: en
Country: US
--></g></svg>