<?xml version="1.0" encoding="UTF-8" standalone="no"?><svg xmlns="http://www.w3.org/2000/svg" xmlns:xlink="http://www.w3.org/1999/xlink" contentScriptType="application/ecmascript" contentStyleType="text/css" height="243px" preserveAspectRatio="none" style="width:250px;height:243px;" version="1.1" viewBox="0 0 250 243" width="250px" zoomAndPan="magnify"><defs><filter height="300%" id="f1i1nsdcy11c5n" width="300%" x="-1" y="-1"><feGaussianBlur result="blurOut" stdDeviation="2.0"/><feColorMatrix in="blurOut" result="blurOut2" type="matrix" values="0 0 0 0 0 0 0 0 0 0 0 0 0 0 0 0 0 0 .4 0"/><feOffset dx="4.0" dy="4.0" in="blurOut2" result="blurOut3"/><feBlend in="SourceGraphic" in2="blurOut3" mode="normal"/></filter></defs><g><!--MD5=[c6efd01a6f310cf3950d2522b9f474d7]
cluster tictactoe.views.graphics--><polygon fill="#FFFFFF" filter="url(#f1i1nsdcy11c5n)" points="16,86,223,86,230,108.2969,233,108.2969,233,236,16,236,16,86" style="stroke:#000000;stroke-width:1.5;"/><line style="stroke:#000000;stroke-width:1.5;" x1="16" x2="230" y1="108.2969" y2="108.2969"/><text fill="#000000" font-family="sans-serif" font-size="14" font-weight="bold" lengthAdjust="spacingAndGlyphs" textLength="201" x="20" y="100.9951">tictactoe.views.graphics</text><!--MD5=[772dd3201fd937c98b35c61c5b2a37e1]
class tictactoe.views.graphics.GraphicsView--><rect codeLine="3" fill="#FEFECE" filter="url(#f1i1nsdcy11c5n)" height="99.2188" id="tictactoe.views.graphics.GraphicsView" style="stroke:#A80036;stroke-width:1.5;" width="150" x="49" y="121"/><ellipse cx="80.2" cy="137" fill="#ADD1B2" rx="11" ry="11" style="stroke:#A80036;stroke-width:1.0;"/><path d="M82.5438,132.6719 C81.6063,132.2344 81.0125,132.0938 80.1375,132.0938 C77.5125,132.0938 75.5125,134.1719 75.5125,136.8906 L75.5125,138.0156 C75.5125,140.5938 77.6219,142.4844 80.5125,142.4844 C81.7313,142.4844 82.8875,142.1875 83.6375,141.6406 C84.2156,141.2344 84.5438,140.7813 84.5438,140.3906 C84.5438,139.9375 84.1531,139.5469 83.6844,139.5469 C83.4656,139.5469 83.2625,139.625 83.075,139.8125 C82.6219,140.2969 82.6219,140.2969 82.4344,140.3906 C82.0125,140.6563 81.325,140.7813 80.5594,140.7813 C78.5125,140.7813 77.2156,139.6875 77.2156,137.9844 L77.2156,136.8906 C77.2156,135.1094 78.4656,133.7969 80.2,133.7969 C80.7781,133.7969 81.3875,133.9531 81.8563,134.2031 C82.3406,134.4844 82.5125,134.7031 82.6063,135.1094 C82.6688,135.5156 82.7,135.6406 82.8406,135.7656 C82.9813,135.9063 83.2156,136.0156 83.4344,136.0156 C83.7,136.0156 83.9656,135.875 84.1375,135.6563 C84.2469,135.5 84.2781,135.3125 84.2781,134.8906 L84.2781,133.4688 C84.2781,133.0313 84.2625,132.9063 84.1688,132.75 C84.0125,132.4844 83.7313,132.3438 83.4344,132.3438 C83.1375,132.3438 82.9344,132.4375 82.7156,132.75 L82.5438,132.6719 Z " fill="#000000"/><text fill="#000000" font-family="sans-serif" font-size="12" lengthAdjust="spacingAndGlyphs" textLength="82" x="97.8" y="141.1543">GraphicsView</text><line style="stroke:#A80036;stroke-width:1.5;" x1="50" x2="198" y1="153" y2="153"/><line style="stroke:#A80036;stroke-width:1.5;" x1="50" x2="198" y1="161" y2="161"/><ellipse cx="60" cy="172" fill="#84BE84" rx="3" ry="3" style="stroke:#038048;stroke-width:1.0;"/><text fill="#000000" font-family="sans-serif" font-size="11" lengthAdjust="spacingAndGlyphs" textLength="114" x="69" y="175.2104">GraphicsView(Logic)</text><polygon fill="#FFFF44" points="60,179.8047,64,183.8047,60,187.8047,56,183.8047" style="stroke:#B38D22;stroke-width:1.0;"/><text fill="#000000" font-family="sans-serif" font-size="11" lengthAdjust="spacingAndGlyphs" textLength="33" x="69" y="188.0151">start()</text><polygon fill="#FFFF44" points="60,192.6094,64,196.6094,60,200.6094,56,196.6094" style="stroke:#B38D22;stroke-width:1.0;"/><text fill="#000000" font-family="sans-serif" font-size="11" lengthAdjust="spacingAndGlyphs" textLength="32" x="69" y="200.8198">play()</text><polygon fill="#FFFF44" points="60,205.4141,64,209.4141,60,213.4141,56,209.4141" style="stroke:#B38D22;stroke-width:1.0;"/><text fill="#000000" font-family="sans-serif" font-size="11" lengthAdjust="spacingAndGlyphs" textLength="124" x="69" y="213.6245">isResumed(): boolean</text><!--MD5=[c045e12321b83266d36d22b9096c24ea]
class View--><rect codeLine="1" fill="#FEFECE" filter="url(#f1i1nsdcy11c5n)" height="53.9375" id="View" style="stroke:#A80036;stroke-width:1.5;" width="143" x="52.5" y="7"/><ellipse cx="67.5" cy="25.9688" fill="#A9DCDF" rx="11" ry="11" style="stroke:#A80036;stroke-width:1.0;"/><path d="M69.5781,27.7813 L69.9688,28.7656 L69.5781,28.7656 C69.125,28.7656 69.0156,28.7813 68.8594,28.8906 C68.6094,29.0469 68.4531,29.3281 68.4531,29.625 C68.4531,29.8906 68.5938,30.1406 68.8125,30.2969 C68.9531,30.4219 69.1563,30.4688 69.5781,30.4688 L71.9375,30.4688 C72.2969,30.4688 72.5156,30.4375 72.6563,30.3438 C72.9063,30.2031 73.0625,29.9063 73.0625,29.625 C73.0625,29.3438 72.9219,29.0938 72.7031,28.9375 C72.5313,28.7969 72.375,28.7656 71.9063,28.7656 L68.5156,20.5625 L64.8438,20.5625 C64.3906,20.5625 64.2656,20.5781 64.1094,20.6719 C63.8594,20.8438 63.7031,21.125 63.7031,21.4063 C63.7031,21.6875 63.8438,21.9375 64.0625,22.1094 C64.2344,22.2188 64.4063,22.25 64.8438,22.25 L65.9219,22.25 L63.2813,28.7656 C62.8594,28.7656 62.7031,28.7813 62.5469,28.8906 C62.2969,29.0469 62.1406,29.3281 62.1406,29.625 C62.1406,30.1875 62.5156,30.4688 63.2656,30.4688 L65.5313,30.4688 C65.8906,30.4688 66.1094,30.4375 66.2344,30.3438 C66.5,30.2031 66.6406,29.9063 66.6406,29.625 C66.6406,29.3438 66.5156,29.0938 66.2969,28.9219 C66.125,28.7969 65.9844,28.7656 65.5313,28.7656 L65.1406,28.7656 L65.5313,27.7813 L69.5781,27.7813 Z M68.875,26.0781 L66.2031,26.0781 L67.5469,22.8125 L68.875,26.0781 Z " fill="#000000"/><text fill="#000000" font-family="sans-serif" font-size="12" font-style="italic" lengthAdjust="spacingAndGlyphs" textLength="111" x="81.5" y="23.1387">usantatecla.views.</text><text fill="#000000" font-family="sans-serif" font-size="12" font-style="italic" lengthAdjust="spacingAndGlyphs" textLength="28" x="123" y="37.1074">View</text><line style="stroke:#A80036;stroke-width:1.5;" x1="53.5" x2="194.5" y1="44.9375" y2="44.9375"/><line style="stroke:#A80036;stroke-width:1.5;" x1="53.5" x2="194.5" y1="52.9375" y2="52.9375"/><!--MD5=[dd49f0cbe1ae6e82d2a046a768a45f47]
reverse link View to tictactoe.views.graphics.GraphicsView--><path codeLine="9" d="M124,81.358 C124,94.156 124,108.075 124,120.991 " fill="none" id="View-backto-tictactoe.views.graphics.GraphicsView" style="stroke:#A80036;stroke-width:1.0;"/><polygon fill="none" points="117,81.252,124,61.252,131,81.252,117,81.252" style="stroke:#A80036;stroke-width:1.0;"/><!--MD5=[0c055ac221ee019b72702b1bf73aece0]
@startuml
abstract class View as "usantatecla.views.\nView"

class tictactoe.views.graphics.GraphicsView {
  + GraphicsView(Logic)
  # start()
  # play()
  # isResumed(): boolean
}
tictactoe.views.graphics.GraphicsView -up-|> View
@enduml

PlantUML version 1.2020.21beta7(Unknown compile time)
(GPL source distribution)
Java Runtime: Java(TM) SE Runtime Environment
JVM: Java HotSpot(TM) 64-Bit Server VM
Default Encoding: UTF-8
Language: en
Country: US
--></g></svg>