<?xml version="1.0" encoding="UTF-8" standalone="no"?><svg xmlns="http://www.w3.org/2000/svg" xmlns:xlink="http://www.w3.org/1999/xlink" contentScriptType="application/ecmascript" contentStyleType="text/css" height="630px" preserveAspectRatio="none" style="width:850px;height:630px;" version="1.1" viewBox="0 0 850 630" width="850px" zoomAndPan="magnify"><defs><filter height="300%" id="f172ki37r6yud1" width="300%" x="-1" y="-1"><feGaussianBlur result="blurOut" stdDeviation="2.0"/><feColorMatrix in="blurOut" result="blurOut2" type="matrix" values="0 0 0 0 0 0 0 0 0 0 0 0 0 0 0 0 0 0 .4 0"/><feOffset dx="4.0" dy="4.0" in="blurOut2" result="blurOut3"/><feBlend in="SourceGraphic" in2="blurOut3" mode="normal"/></filter></defs><g><polygon fill="#DDDDDD" filter="url(#f172ki37r6yud1)" points="92.952,6,174.952,6,181.952,28.2969,188.952,28.2969,188.952,58.5938,92.952,58.5938,92.952,6" style="stroke: #000000; stroke-width: 1.5;"/><line style="stroke: #000000; stroke-width: 1.5;" x1="92.952" x2="181.952" y1="28.2969" y2="28.2969"/><text fill="#000000" font-family="sans-serif" font-size="14" font-weight="bold" lengthAdjust="spacingAndGlyphs" textLength="76" x="96.952" y="20.9951">tictactoe</text><polygon fill="#DDDDDD" filter="url(#f172ki37r6yud1)" points="105.452,345,250.452,345,257.452,367.2969,264.452,367.2969,264.452,397.5938,105.452,397.5938,105.452,345" style="stroke: #000000; stroke-width: 1.5;"/><line style="stroke: #000000; stroke-width: 1.5;" x1="105.452" x2="257.452" y1="367.2969" y2="367.2969"/><text fill="#000000" font-family="sans-serif" font-size="14" font-weight="bold" lengthAdjust="spacingAndGlyphs" textLength="139" x="109.452" y="359.9951">tictactoe.models</text><polygon fill="#DDDDDD" filter="url(#f172ki37r6yud1)" points="175.9522,232,307.9522,232,314.9522,254.2969,321.9522,254.2969,321.9522,284.5938,175.9522,284.5938,175.9522,232" style="stroke: #000000; stroke-width: 1.5;"/><line style="stroke: #000000; stroke-width: 1.5;" x1="175.9522" x2="314.9522" y1="254.2969" y2="254.2969"/><text fill="#000000" font-family="sans-serif" font-size="14" font-weight="bold" lengthAdjust="spacingAndGlyphs" textLength="126" x="179.9522" y="246.9951">tictactoe.views</text><polygon fill="#DDDDDD" filter="url(#f172ki37r6yud1)" points="34.452,119,233.452,119,240.452,141.2969,247.452,141.2969,247.452,171.5938,34.452,171.5938,34.452,119" style="stroke: #000000; stroke-width: 1.5;"/><line style="stroke: #000000; stroke-width: 1.5;" x1="34.452" x2="240.452" y1="141.2969" y2="141.2969"/><text fill="#000000" font-family="sans-serif" font-size="14" font-weight="bold" lengthAdjust="spacingAndGlyphs" textLength="193" x="38.452" y="133.9951">tictactoe.views.console</text><polygon fill="#DDDDDD" filter="url(#f172ki37r6yud1)" points="322.4522,119,529.4522,119,536.4522,141.2969,543.4522,141.2969,543.4522,171.5938,322.4522,171.5938,322.4522,119" style="stroke: #000000; stroke-width: 1.5;"/><line style="stroke: #000000; stroke-width: 1.5;" x1="322.4522" x2="536.4522" y1="141.2969" y2="141.2969"/><text fill="#000000" font-family="sans-serif" font-size="14" font-weight="bold" lengthAdjust="spacingAndGlyphs" textLength="201" x="326.4522" y="133.9951">tictactoe.views.graphics</text><polygon fill="#FFFFFF" filter="url(#f172ki37r6yud1)" points="141.4522,458,214.4522,458,221.4522,480.2969,228.4522,480.2969,228.4522,510.5938,141.4522,510.5938,141.4522,458" style="stroke: #000000; stroke-width: 1.5;"/><line style="stroke: #000000; stroke-width: 1.5;" x1="141.4522" x2="221.4522" y1="480.2969" y2="480.2969"/><text fill="#000000" font-family="sans-serif" font-size="14" font-weight="bold" lengthAdjust="spacingAndGlyphs" textLength="67" x="145.4522" y="472.9951">java.util</text><polygon fill="#FFFFFF" filter="url(#f172ki37r6yud1)" points="427.9522,232,503.9522,232,510.9522,254.2969,517.9522,254.2969,517.9522,284.5938,427.9522,284.5938,427.9522,232" style="stroke: #000000; stroke-width: 1.5;"/><line style="stroke: #000000; stroke-width: 1.5;" x1="427.9522" x2="510.9522" y1="254.2969" y2="254.2969"/><text fill="#000000" font-family="sans-serif" font-size="14" font-weight="bold" lengthAdjust="spacingAndGlyphs" textLength="70" x="431.9522" y="246.9951">java.awt</text><polygon fill="#FFFFFF" filter="url(#f172ki37r6yud1)" points="552.9522,232,678.9522,232,685.9522,254.2969,692.9522,254.2969,692.9522,284.5938,552.9522,284.5938,552.9522,232" style="stroke: #000000; stroke-width: 1.5;"/><line style="stroke: #000000; stroke-width: 1.5;" x1="552.9522" x2="685.9522" y1="254.2969" y2="254.2969"/><text fill="#000000" font-family="sans-serif" font-size="14" font-weight="bold" lengthAdjust="spacingAndGlyphs" textLength="120" x="556.9522" y="246.9951">java.awt.event</text><polygon fill="#FFFFFF" filter="url(#f172ki37r6yud1)" points="727.9522,232,819.9522,232,826.9522,254.2969,833.9522,254.2969,833.9522,284.5938,727.9522,284.5938,727.9522,232" style="stroke: #000000; stroke-width: 1.5;"/><line style="stroke: #000000; stroke-width: 1.5;" x1="727.9522" x2="826.9522" y1="254.2969" y2="254.2969"/><text fill="#000000" font-family="sans-serif" font-size="14" font-weight="bold" lengthAdjust="spacingAndGlyphs" textLength="86" x="731.9522" y="246.9951">java.swing</text><polygon fill="#DDDDDD" filter="url(#f172ki37r6yud1)" points="36.452,458,79.452,458,86.452,480.2969,93.452,480.2969,93.452,510.5938,36.452,510.5938,36.452,458" style="stroke: #000000; stroke-width: 1.5;"/><line style="stroke: #000000; stroke-width: 1.5;" x1="36.452" x2="86.452" y1="480.2969" y2="480.2969"/><text fill="#000000" font-family="sans-serif" font-size="14" font-weight="bold" lengthAdjust="spacingAndGlyphs" textLength="37" x="40.452" y="472.9951">utils</text><polygon fill="#FFFFFF" filter="url(#f172ki37r6yud1)" points="27.952,571,87.952,571,94.952,593.2969,101.952,593.2969,101.952,623.5938,27.952,623.5938,27.952,571" style="stroke: #000000; stroke-width: 1.5;"/><line style="stroke: #000000; stroke-width: 1.5;" x1="27.952" x2="94.952" y1="593.2969" y2="593.2969"/><text fill="#000000" font-family="sans-serif" font-size="14" font-weight="bold" lengthAdjust="spacingAndGlyphs" textLength="54" x="31.952" y="585.9951">java.io</text><!--MD5=[a65998a409184a650758a5d227ee8afa]
link tictactoe to tictactoe.models--><path d="M92.8383,52.896 C65.221,66.829 32.9397,88.556 16.952,119 C6,139.855 8.8486,149.882 16.952,172 C43.0567,243.252 107.3019,306.508 148.3522,341.554 " fill="none" id="tictactoe-to-tictactoe.models" style="stroke: #A80036; stroke-width: 1.0; stroke-dasharray: 7.0,7.0;"/><polygon fill="#A80036" points="152.2502,344.857,147.9688,335.9874,148.4352,341.625,142.7976,342.0914,152.2502,344.857" style="stroke: #A80036; stroke-width: 1.0;"/><!--MD5=[14e8060986a8fc6b4a58b3b27491f648]
link tictactoe to tictactoe.views.console--><path d="M140.9522,59.245 C140.9522,75.496 140.9522,96.579 140.9522,113.714 " fill="none" id="tictactoe-to-tictactoe.views.console" style="stroke: #A80036; stroke-width: 1.0; stroke-dasharray: 7.0,7.0;"/><polygon fill="#A80036" points="140.9522,118.895,144.9522,109.895,140.9522,113.895,136.9522,109.895,140.9522,118.895" style="stroke: #A80036; stroke-width: 1.0;"/><!--MD5=[e75f446ce7e4e6233c0f378e4a80c309]
link tictactoe to tictactoe.views.graphics--><path d="M189.1702,51.829 C235.9482,69.612 307.5122,96.816 361.0212,117.156 " fill="none" id="tictactoe-to-tictactoe.views.graphics" style="stroke: #A80036; stroke-width: 1.0; stroke-dasharray: 7.0,7.0;"/><polygon fill="#A80036" points="365.8152,118.979,358.8224,112.0436,361.1411,117.2034,355.9813,119.5221,365.8152,118.979" style="stroke: #A80036; stroke-width: 1.0;"/><!--MD5=[d9231b12cc9710bcc39738b6493510f9]
link tictactoe.views.console to tictactoe.views--><path d="M166.0012,172.245 C182.2222,188.916 203.3912,210.673 220.2832,228.035 " fill="none" id="tictactoe.views.console-to-tictactoe.views" style="stroke: #A80036; stroke-width: 1.0; stroke-dasharray: 7.0,7.0;"/><polygon fill="#A80036" points="224.0392,231.895,220.6284,222.6556,220.5519,228.3119,214.8955,228.2354,224.0392,231.895" style="stroke: #A80036; stroke-width: 1.0;"/><!--MD5=[36236f1ad998eba9fea5e75bc6a115c4]
link tictactoe.views.graphics to tictactoe.views--><path d="M390.2762,172.245 C362.0602,189.266 325.0552,211.59 295.9902,229.124 " fill="none" id="tictactoe.views.graphics-to-tictactoe.views" style="stroke: #A80036; stroke-width: 1.0; stroke-dasharray: 7.0,7.0;"/><polygon fill="#A80036" points="291.3962,231.895,301.1687,230.671,295.6775,229.3122,297.0363,223.821,291.3962,231.895" style="stroke: #A80036; stroke-width: 1.0;"/><!--MD5=[c7abc341df818e9399752b73ea287ffa]
link tictactoe.views.graphics to java.awt--><path d="M442.2292,172.245 C448.1362,188.636 455.8142,209.943 462.0172,227.156 " fill="none" id="tictactoe.views.graphics-to-java.awt" style="stroke: #A80036; stroke-width: 1.0; stroke-dasharray: 7.0,7.0;"/><polygon fill="#A80036" points="463.7252,231.895,464.4389,222.072,462.0309,227.1908,456.9122,224.7828,463.7252,231.895" style="stroke: #A80036; stroke-width: 1.0;"/><!--MD5=[1c28faa5b8dc6ea7b3ae1a3bac7bae3d]
link tictactoe.views.graphics to java.awt.event--><path d="M477.0192,172.245 C506.2752,189.336 544.6812,211.773 574.7502,229.34 " fill="none" id="tictactoe.views.graphics-to-java.awt.event" style="stroke: #A80036; stroke-width: 1.0; stroke-dasharray: 7.0,7.0;"/><polygon fill="#A80036" points="579.1232,231.895,573.3709,223.9005,574.8063,229.3723,569.3346,230.8076,579.1232,231.895" style="stroke: #A80036; stroke-width: 1.0;"/><!--MD5=[b3fa49d8d706ad72eb6f3b98a9639d58]
link tictactoe.views.graphics to java.swing--><path d="M520.0292,172.038 C575.0092,188.469 647.4042,210.669 710.9522,232 C714.9182,233.331 718.9992,234.733 723.1032,236.167 " fill="none" id="tictactoe.views.graphics-to-java.swing" style="stroke: #A80036; stroke-width: 1.0; stroke-dasharray: 7.0,7.0;"/><polygon fill="#A80036" points="727.9252,237.862,720.7615,231.1032,723.2083,236.2035,718.1079,238.6502,727.9252,237.862" style="stroke: #A80036; stroke-width: 1.0;"/><!--MD5=[e6c0f23e74b5161a168046a341518387]
link tictactoe.models to java.util--><path d="M184.9522,398.245 C184.9522,414.496 184.9522,435.579 184.9522,452.714 " fill="none" id="tictactoe.models-to-java.util" style="stroke: #A80036; stroke-width: 1.0; stroke-dasharray: 7.0,7.0;"/><polygon fill="#A80036" points="184.9522,457.895,188.9522,448.895,184.9522,452.895,180.9522,448.895,184.9522,457.895" style="stroke: #A80036; stroke-width: 1.0;"/><!--MD5=[592d3e5213f5052c5b4a8146f8a66fb9]
link tictactoe.models to utils--><path codeLine="19" d="M157.1202,398.245 C138.9452,415.056 115.1802,437.039 96.3336,454.472 " fill="none" id="tictactoe.models-to-utils" style="stroke: #A80036; stroke-width: 1.0; stroke-dasharray: 7.0,7.0;"/><polygon fill="#A80036" points="92.6331,457.895,101.9559,454.7193,96.3033,454.4995,96.5231,448.8469,92.6331,457.895" style="stroke: #A80036; stroke-width: 1.0;"/><!--MD5=[b62e8057ebb64db4cc41eb56011c03b5]
link tictactoe.views.console to utils--><path codeLine="20" d="M133.2962,172.004 C122.2032,209.603 101.508,282.243 87.952,345 C80.0065,381.783 73.2792,424.574 69.1907,452.748 " fill="none" id="tictactoe.views.console-to-utils" style="stroke: #A80036; stroke-width: 1.0; stroke-dasharray: 7.0,7.0;"/><polygon fill="#A80036" points="68.4582,457.833,73.7005,449.4952,69.171,452.8841,65.7822,448.3547,68.4582,457.833" style="stroke: #A80036; stroke-width: 1.0;"/><!--MD5=[a8e8bb12a36f69c578c87cb37fa844dd]
link tictactoe.views to tictactoe.models--><path d="M234.1082,285.245 C224.6572,301.636 212.3722,322.943 202.4472,340.156 " fill="none" id="tictactoe.views-to-tictactoe.models" style="stroke: #A80036; stroke-width: 1.0; stroke-dasharray: 7.0,7.0;"/><polygon fill="#A80036" points="199.7152,344.895,207.6771,339.0978,202.2136,340.5639,200.7474,335.1004,199.7152,344.895" style="stroke: #A80036; stroke-width: 1.0;"/><!--MD5=[80483aaa9089531285484c66ce349ef6]
link tictactoe.views.console to tictactoe.models--><path d="M142.6712,172.008 C144.8822,199.975 149.4882,246.058 157.9522,285 C161.9662,303.472 168.2482,323.659 173.7422,339.776 " fill="none" id="tictactoe.views.console-to-tictactoe.models" style="stroke: #A80036; stroke-width: 1.0; stroke-dasharray: 7.0,7.0;"/><polygon fill="#A80036" points="175.4192,344.641,176.2695,334.8289,173.7906,339.9137,168.7058,337.4347,175.4192,344.641" style="stroke: #A80036; stroke-width: 1.0;"/><!--MD5=[d973cf3d61ef526a2a47f28d28cab619]
link tictactoe.views.graphics to tictactoe.models--><path d="M420.3202,172.133 C404.5532,202.116 375.1972,251.86 338.9522,285 C313.1372,308.602 279.6482,328.182 250.4952,342.622 " fill="none" id="tictactoe.views.graphics-to-tictactoe.models" style="stroke: #A80036; stroke-width: 1.0; stroke-dasharray: 7.0,7.0;"/><polygon fill="#A80036" points="245.8552,344.895,255.6972,344.527,250.3452,342.695,252.1772,337.343,245.8552,344.895" style="stroke: #A80036; stroke-width: 1.0;"/><!--MD5=[e79504c030c2940e8dd8427e90ad9823]
link utils to java.io--><path d="M64.952,511.245 C64.952,527.4958 64.952,548.5795 64.952,565.7139 " fill="none" id="utils-to-java.io" style="stroke: #A80036; stroke-width: 1.0; stroke-dasharray: 7.0,7.0;"/><polygon fill="#A80036" points="64.952,570.895,68.952,561.895,64.952,565.895,60.952,561.895,64.952,570.895" style="stroke: #A80036; stroke-width: 1.0;"/><!--MD5=[52bbc3938dbf52f4405dab7725002a69]
@startuml
package tictactoe #DDDDDD { }
package tictactoe.models #DDDDDD { }
package tictactoe.views #DDDDDD { } 
package tictactoe.views.console #DDDDDD { } 
package tictactoe.views.graphics #DDDDDD { } 
package java.util{ }
package java.awt{ }
package java.awt.event{ }
package java.swing{ }
tictactoe .down.> tictactoe.models
tictactoe .down.> tictactoe.views.console
tictactoe .down.> tictactoe.views.graphics
tictactoe.views.console .down.> tictactoe.views
tictactoe.views.graphics .down.> tictactoe.views
tictactoe.views.graphics .down.> java.awt
tictactoe.views.graphics .down.> java.awt.event
tictactoe.views.graphics .down.> java.swing
tictactoe.models .down.> java.util
tictactoe.models .down.> utils
tictactoe.views.console .down.> utils
tictactoe.views .down.> tictactoe.models
tictactoe.views.console .down.> tictactoe.models
tictactoe.views.graphics .down.> tictactoe.models

package utils #DDDDDD { } 
package java.io{ }
utils .down.> java.io
@enduml

PlantUML version 1.2020.20beta4(Unknown compile time)
(GPL source distribution)
Java Runtime: Java(TM) SE Runtime Environment
JVM: Java HotSpot(TM) 64-Bit Server VM
Default Encoding: UTF-8
Language: en
Country: US
--></g></svg>