<?xml version="1.0" encoding="UTF-8" standalone="no"?><svg xmlns="http://www.w3.org/2000/svg" xmlns:xlink="http://www.w3.org/1999/xlink" contentScriptType="application/ecmascript" contentStyleType="text/css" height="630px" preserveAspectRatio="none" style="width:1058px;height:630px;" version="1.1" viewBox="0 0 1058 630" width="1058px" zoomAndPan="magnify"><defs><filter height="300%" id="feub8snjd85qr" width="300%" x="-1" y="-1"><feGaussianBlur result="blurOut" stdDeviation="2.0"/><feColorMatrix in="blurOut" result="blurOut2" type="matrix" values="0 0 0 0 0 0 0 0 0 0 0 0 0 0 0 0 0 0 .4 0"/><feOffset dx="4.0" dy="4.0" in="blurOut2" result="blurOut3"/><feBlend in="SourceGraphic" in2="blurOut3" mode="normal"/></filter></defs><g><polygon fill="#DDDDDD" filter="url(#feub8snjd85qr)" points="317.7322,6,399.7322,6,406.7322,28.2969,413.7322,28.2969,413.7322,58.5938,317.7322,58.5938,317.7322,6" style="stroke:#000000;stroke-width:1.5;"/><line style="stroke:#000000;stroke-width:1.5;" x1="317.7322" x2="406.7322" y1="28.2969" y2="28.2969"/><text fill="#000000" font-family="sans-serif" font-size="14" font-weight="bold" lengthAdjust="spacingAndGlyphs" textLength="76" x="321.7322" y="20.9951">tictactoe</text><polygon fill="#DDDDDD" filter="url(#feub8snjd85qr)" points="258.7322,232,390.7322,232,397.7322,254.2969,404.7322,254.2969,404.7322,284.5938,258.7322,284.5938,258.7322,232" style="stroke:#000000;stroke-width:1.5;"/><line style="stroke:#000000;stroke-width:1.5;" x1="258.7322" x2="397.7322" y1="254.2969" y2="254.2969"/><text fill="#000000" font-family="sans-serif" font-size="14" font-weight="bold" lengthAdjust="spacingAndGlyphs" textLength="126" x="262.7322" y="246.9951">tictactoe.views</text><polygon fill="#DDDDDD" filter="url(#feub8snjd85qr)" points="236.7322,345,412.7322,345,419.7322,367.2969,426.7322,367.2969,426.7322,397.5938,236.7322,397.5938,236.7322,345" style="stroke:#000000;stroke-width:1.5;"/><line style="stroke:#000000;stroke-width:1.5;" x1="236.7322" x2="419.7322" y1="367.2969" y2="367.2969"/><text fill="#000000" font-family="sans-serif" font-size="14" font-weight="bold" lengthAdjust="spacingAndGlyphs" textLength="170" x="240.7322" y="359.9951">tictactoe.controllers</text><polygon fill="#DDDDDD" filter="url(#feub8snjd85qr)" points="107.2324,458,252.2324,458,259.2324,480.2969,266.2324,480.2969,266.2324,510.5938,107.2324,510.5938,107.2324,458" style="stroke:#000000;stroke-width:1.5;"/><line style="stroke:#000000;stroke-width:1.5;" x1="107.2324" x2="259.2324" y1="480.2969" y2="480.2969"/><text fill="#000000" font-family="sans-serif" font-size="14" font-weight="bold" lengthAdjust="spacingAndGlyphs" textLength="139" x="111.2324" y="472.9951">tictactoe.models</text><polygon fill="#FFFFFF" filter="url(#feub8snjd85qr)" points="143.2322,571,216.2322,571,223.2322,593.2969,230.2322,593.2969,230.2322,623.5938,143.2322,623.5938,143.2322,571" style="stroke:#000000;stroke-width:1.5;"/><line style="stroke:#000000;stroke-width:1.5;" x1="143.2322" x2="223.2322" y1="593.2969" y2="593.2969"/><text fill="#000000" font-family="sans-serif" font-size="14" font-weight="bold" lengthAdjust="spacingAndGlyphs" textLength="67" x="147.2322" y="585.9951">java.util</text><polygon fill="#DDDDDD" filter="url(#feub8snjd85qr)" points="95.2324,232,138.2324,232,145.2324,254.2969,152.2324,254.2969,152.2324,284.5938,95.2324,284.5938,95.2324,232" style="stroke:#000000;stroke-width:1.5;"/><line style="stroke:#000000;stroke-width:1.5;" x1="95.2324" x2="145.2324" y1="254.2969" y2="254.2969"/><text fill="#000000" font-family="sans-serif" font-size="14" font-weight="bold" lengthAdjust="spacingAndGlyphs" textLength="37" x="99.2324" y="246.9951">utils</text><polygon fill="#FFFFFF" filter="url(#feub8snjd85qr)" points="94.7324,345,154.7324,345,161.7324,367.2969,168.7324,367.2969,168.7324,397.5938,94.7324,397.5938,94.7324,345" style="stroke:#000000;stroke-width:1.5;"/><line style="stroke:#000000;stroke-width:1.5;" x1="94.7324" x2="161.7324" y1="367.2969" y2="367.2969"/><text fill="#000000" font-family="sans-serif" font-size="14" font-weight="bold" lengthAdjust="spacingAndGlyphs" textLength="54" x="98.7324" y="359.9951">java.io</text><polygon fill="#DDDDDD" filter="url(#feub8snjd85qr)" points="99.2324,119,298.2324,119,305.2324,141.2969,312.2324,141.2969,312.2324,171.5938,99.2324,171.5938,99.2324,119" style="stroke:#000000;stroke-width:1.5;"/><line style="stroke:#000000;stroke-width:1.5;" x1="99.2324" x2="305.2324" y1="141.2969" y2="141.2969"/><text fill="#000000" font-family="sans-serif" font-size="14" font-weight="bold" lengthAdjust="spacingAndGlyphs" textLength="193" x="103.2324" y="133.9951">tictactoe.views.console</text><polygon fill="#DDDDDD" filter="url(#feub8snjd85qr)" points="471.2322,119,678.2322,119,685.2322,141.2969,692.2322,141.2969,692.2322,171.5938,471.2322,171.5938,471.2322,119" style="stroke:#000000;stroke-width:1.5;"/><line style="stroke:#000000;stroke-width:1.5;" x1="471.2322" x2="685.2322" y1="141.2969" y2="141.2969"/><text fill="#000000" font-family="sans-serif" font-size="14" font-weight="bold" lengthAdjust="spacingAndGlyphs" textLength="201" x="475.2322" y="133.9951">tictactoe.views.graphics</text><polygon fill="#FFFFFF" filter="url(#feub8snjd85qr)" points="439.7322,232,515.7322,232,522.7322,254.2969,529.7322,254.2969,529.7322,284.5938,439.7322,284.5938,439.7322,232" style="stroke:#000000;stroke-width:1.5;"/><line style="stroke:#000000;stroke-width:1.5;" x1="439.7322" x2="522.7322" y1="254.2969" y2="254.2969"/><text fill="#000000" font-family="sans-serif" font-size="14" font-weight="bold" lengthAdjust="spacingAndGlyphs" textLength="70" x="443.7322" y="246.9951">java.awt</text><polygon fill="#FFFFFF" filter="url(#feub8snjd85qr)" points="564.7322,232,690.7322,232,697.7322,254.2969,704.7322,254.2969,704.7322,284.5938,564.7322,284.5938,564.7322,232" style="stroke:#000000;stroke-width:1.5;"/><line style="stroke:#000000;stroke-width:1.5;" x1="564.7322" x2="697.7322" y1="254.2969" y2="254.2969"/><text fill="#000000" font-family="sans-serif" font-size="14" font-weight="bold" lengthAdjust="spacingAndGlyphs" textLength="120" x="568.7322" y="246.9951">java.awt.event</text><polygon fill="#FFFFFF" filter="url(#feub8snjd85qr)" points="740.2322,232,841.2322,232,848.2322,254.2969,855.2322,254.2969,855.2322,284.5938,740.2322,284.5938,740.2322,232" style="stroke:#000000;stroke-width:1.5;"/><line style="stroke:#000000;stroke-width:1.5;" x1="740.2322" x2="848.2322" y1="254.2969" y2="254.2969"/><text fill="#000000" font-family="sans-serif" font-size="14" font-weight="bold" lengthAdjust="spacingAndGlyphs" textLength="95" x="744.2322" y="246.9951">javax.swing</text><!--MD5=[e75f446ce7e4e6233c0f378e4a80c309]
link tictactoe to tictactoe.views.graphics--><path codeLine="2" d="M413.9382,58.272 C447.4942,75.517 492.2962,98.54 527.1642,116.458 " fill="none" id="tictactoe-to-tictactoe.views.graphics" style="stroke:#A80036;stroke-width:1.0;stroke-dasharray:7.0,7.0;"/><polygon fill="#A80036" points="531.7992,118.84,525.6231,111.1682,527.3522,116.5544,521.9661,118.2834,531.7992,118.84" style="stroke:#A80036;stroke-width:1.0;"/><!--MD5=[a65998a409184a650758a5d227ee8afa]
link tictactoe to tictactoe.models--><path codeLine="3" d="M317.5402,41.135 C244.3552,53.804 110.6207,81.537 81.7324,119 C6,217.212 22.2265,286.6 76.7324,398 C88.4423,421.933 110.4419,441.1 131.7082,455.172 " fill="none" id="tictactoe-to-tictactoe.models" style="stroke:#A80036;stroke-width:1.0;stroke-dasharray:7.0,7.0;"/><polygon fill="#A80036" points="135.9482,457.918,130.5669,449.6692,131.751,455.2008,126.2194,456.3848,135.9482,457.918" style="stroke:#A80036;stroke-width:1.0;"/><!--MD5=[14e8060986a8fc6b4a58b3b27491f648]
link tictactoe to tictactoe.views.console--><path codeLine="4" d="M328.6232,59.245 C304.1882,76.196 272.1742,98.406 246.9482,115.907 " fill="none" id="tictactoe-to-tictactoe.views.console" style="stroke:#A80036;stroke-width:1.0;stroke-dasharray:7.0,7.0;"/><polygon fill="#A80036" points="242.6402,118.895,252.3151,117.052,246.7485,116.0452,247.7553,110.4786,242.6402,118.895" style="stroke:#A80036;stroke-width:1.0;"/><!--MD5=[4c8e626184b37a51cac3aeda5d7a8756]
link tictactoe to tictactoe.controllers--><path codeLine="5" d="M413.7462,37.8 C570.7962,53.591 1051.0022,116.492 905.7322,285 C845.7562,354.571 580.0212,368.412 432.0592,370.617 " fill="none" id="tictactoe-to-tictactoe.controllers" style="stroke:#A80036;stroke-width:1.0;stroke-dasharray:7.0,7.0;"/><polygon fill="#A80036" points="426.8462,370.691,435.9013,374.5646,431.8457,370.621,435.7893,366.5654,426.8462,370.691" style="stroke:#A80036;stroke-width:1.0;"/><!--MD5=[8fe1157dabbcf20ee852fc992046f19b]
link tictactoe to tictactoe.views--><path d="M361.8322,59.196 C355.5342,100.69 343.1482,182.287 336.3942,226.785 " fill="none" id="tictactoe-to-tictactoe.views" style="stroke:#A80036;stroke-width:1.0;stroke-dasharray:7.0,7.0;"/><polygon fill="#A80036" points="335.6392,231.76,340.9437,223.4617,336.3891,226.8166,333.0342,222.2619,335.6392,231.76" style="stroke:#A80036;stroke-width:1.0;"/><!--MD5=[f6dfdd433beafcf2daacaf58db85d2a6]
link tictactoe.controllers to tictactoe.models--><path codeLine="9" d="M298.1022,398.245 C276.0492,415.126 247.1852,437.223 224.3672,454.69 " fill="none" id="tictactoe.controllers-to-tictactoe.models" style="stroke:#A80036;stroke-width:1.0;stroke-dasharray:7.0,7.0;"/><polygon fill="#A80036" points="220.1802,457.895,229.7582,455.6013,224.1507,454.8561,224.8959,449.2485,220.1802,457.895" style="stroke:#A80036;stroke-width:1.0;"/><!--MD5=[e6c0f23e74b5161a168046a341518387]
link tictactoe.models to java.util--><path d="M186.7322,511.245 C186.7322,527.4958 186.7322,548.5795 186.7322,565.7139 " fill="none" id="tictactoe.models-to-java.util" style="stroke:#A80036;stroke-width:1.0;stroke-dasharray:7.0,7.0;"/><polygon fill="#A80036" points="186.7322,570.895,190.7322,561.895,186.7322,565.895,182.7322,561.895,186.7322,570.895" style="stroke:#A80036;stroke-width:1.0;"/><!--MD5=[e79504c030c2940e8dd8427e90ad9823]
link utils to java.io--><path d="M125.5878,285.245 C126.7591,301.496 128.2786,322.579 129.5135,339.714 " fill="none" id="utils-to-java.io" style="stroke:#A80036;stroke-width:1.0;stroke-dasharray:7.0,7.0;"/><polygon fill="#A80036" points="129.887,344.895,133.2287,335.6304,129.527,339.908,125.2494,336.2063,129.887,344.895" style="stroke:#A80036;stroke-width:1.0;"/><!--MD5=[6ba7a600a15b805df477e9f81c752d07]
link tictactoe.views to tictactoe.controllers--><path d="M331.7322,285.245 C331.7322,301.496 331.7322,322.579 331.7322,339.714 " fill="none" id="tictactoe.views-to-tictactoe.controllers" style="stroke:#A80036;stroke-width:1.0;stroke-dasharray:7.0,7.0;"/><polygon fill="#A80036" points="331.7322,344.895,335.7322,335.895,331.7322,339.895,327.7322,335.895,331.7322,344.895" style="stroke:#A80036;stroke-width:1.0;"/><!--MD5=[d9231b12cc9710bcc39738b6493510f9]
link tictactoe.views.console to tictactoe.views--><path d="M234.9562,172.245 C254.0392,189.056 278.9932,211.039 298.7812,228.472 " fill="none" id="tictactoe.views.console-to-tictactoe.views" style="stroke:#A80036;stroke-width:1.0;stroke-dasharray:7.0,7.0;"/><polygon fill="#A80036" points="302.6672,231.895,298.5593,222.9437,298.9158,228.5893,293.2702,228.9459,302.6672,231.895" style="stroke:#A80036;stroke-width:1.0;"/><!--MD5=[ae85e2051aac6338671b2c0e494e498c]
link tictactoe.views.console to tictactoe.controllers--><path d="M207.8632,172.138 C211.2292,201.243 219.7212,249.307 240.7322,285 C253.6142,306.884 273.7612,326.642 291.8262,341.638 " fill="none" id="tictactoe.views.console-to-tictactoe.controllers" style="stroke:#A80036;stroke-width:1.0;stroke-dasharray:7.0,7.0;"/><polygon fill="#A80036" points="295.8852,344.958,291.4517,336.1635,292.0151,341.7922,286.3864,342.3556,295.8852,344.958" style="stroke:#A80036;stroke-width:1.0;"/><!--MD5=[b62e8057ebb64db4cc41eb56011c03b5]
link tictactoe.views.console to utils--><path d="M186.7142,172.245 C174.5012,188.776 158.5952,210.308 145.8232,227.597 " fill="none" id="tictactoe.views.console-to-utils" style="stroke:#A80036;stroke-width:1.0;stroke-dasharray:7.0,7.0;"/><polygon fill="#A80036" points="142.6482,231.895,151.2137,227.0337,145.6196,227.8737,144.7796,222.2795,142.6482,231.895" style="stroke:#A80036;stroke-width:1.0;"/><!--MD5=[c7abc341df818e9399752b73ea287ffa]
link tictactoe.views.graphics to java.awt--><path d="M559.2352,172.245 C544.6662,188.916 525.6532,210.673 510.4812,228.035 " fill="none" id="tictactoe.views.graphics-to-java.awt" style="stroke:#A80036;stroke-width:1.0;stroke-dasharray:7.0,7.0;"/><polygon fill="#A80036" points="507.1082,231.895,516.0428,227.751,510.3987,228.1303,510.0194,222.4862,507.1082,231.895" style="stroke:#A80036;stroke-width:1.0;"/><!--MD5=[1c28faa5b8dc6ea7b3ae1a3bac7bae3d]
link tictactoe.views.graphics to java.awt.event--><path d="M594.0252,172.245 C601.8512,188.636 612.0252,209.943 620.2442,227.156 " fill="none" id="tictactoe.views.graphics-to-java.awt.event" style="stroke:#A80036;stroke-width:1.0;stroke-dasharray:7.0,7.0;"/><polygon fill="#A80036" points="622.5062,231.895,622.2376,222.0498,620.3517,227.383,615.0184,225.4971,622.5062,231.895" style="stroke:#A80036;stroke-width:1.0;"/><!--MD5=[36236f1ad998eba9fea5e75bc6a115c4]
link tictactoe.views.graphics to tictactoe.views--><path d="M524.0632,172.105 C485.2642,189.332 434.1292,212.036 394.3382,229.703 " fill="none" id="tictactoe.views.graphics-to-tictactoe.views" style="stroke:#A80036;stroke-width:1.0;stroke-dasharray:7.0,7.0;"/><polygon fill="#A80036" points="389.5442,231.832,399.3931,231.834,394.1137,229.8022,396.1454,224.5228,389.5442,231.832" style="stroke:#A80036;stroke-width:1.0;"/><!--MD5=[e76a6be31849206907fd12c2469d4e43]
link tictactoe.views.graphics to tictactoe.controllers--><path d="M692.4972,160.602 C797.8002,178.471 931.9742,215.661 872.7322,285 C817.1992,349.999 572.7722,365.87 432.2042,369.56 " fill="none" id="tictactoe.views.graphics-to-tictactoe.controllers" style="stroke:#A80036;stroke-width:1.0;stroke-dasharray:7.0,7.0;"/><polygon fill="#A80036" points="426.8342,369.696,435.933,373.4659,431.8326,369.5689,435.7296,365.4684,426.8342,369.696" style="stroke:#A80036;stroke-width:1.0;"/><!--MD5=[b630ab80351c1f98f91c87ac09bf7168]
link tictactoe.views.graphics to javax.swing--><path d="M631.5582,172.105 C664.9442,189.262 708.9022,211.851 743.2212,229.487 " fill="none" id="tictactoe.views.graphics-to-javax.swing" style="stroke:#A80036;stroke-width:1.0;stroke-dasharray:7.0,7.0;"/><polygon fill="#A80036" points="747.7832,231.832,741.6071,224.1602,743.3362,229.5464,737.9501,231.2754,747.7832,231.832" style="stroke:#A80036;stroke-width:1.0;"/><!--MD5=[6fdd4a39097c9de4cf386af07747f7f8]
@startuml
package tictactoe #DDDDDD { }
tictactoe .down.> tictactoe.views.graphics
tictactoe .down.> tictactoe.models
tictactoe .down.> tictactoe.views.console
tictactoe .down.> tictactoe.controllers
tictactoe .down.> tictactoe.views

package tictactoe.controllers #DDDDDD { }
tictactoe.controllers .down.> tictactoe.models

package tictactoe.models #DDDDDD { }
package java.util{ }
tictactoe.models .down.> java.util

package utils #DDDDDD { }
package java.io{ }
utils .down.> java.io

package tictactoe.views #DDDDDD { }
tictactoe.views .down.> tictactoe.controllers

package tictactoe.views.console #DDDDDD { }
tictactoe.views.console .down.> tictactoe.views
tictactoe.views.console .down.> tictactoe.controllers
tictactoe.views.console .down.> utils

package tictactoe.views.graphics #DDDDDD { }
package java.awt{ }
tictactoe.views.graphics .down.> java.awt
package java.awt.event{ }
tictactoe.views.graphics .down.> java.awt.event
tictactoe.views.graphics .down.> tictactoe.views
tictactoe.views.graphics .down.> tictactoe.controllers
package javax.swing{ }
tictactoe.views.graphics .down.> javax.swing
@enduml

PlantUML version 1.2020.22(Sun Dec 06 09:36:27 UTC 2020)
(GPL source distribution)
Java Runtime: Java(TM) SE Runtime Environment
JVM: Java HotSpot(TM) 64-Bit Server VM
Default Encoding: UTF-8
Language: en
Country: US
--></g></svg>