<?xml version="1.0" encoding="UTF-8" standalone="no"?><svg xmlns="http://www.w3.org/2000/svg" xmlns:xlink="http://www.w3.org/1999/xlink" contentScriptType="application/ecmascript" contentStyleType="text/css" height="630px" preserveAspectRatio="none" style="width:677px;height:630px;" version="1.1" viewBox="0 0 677 630" width="677px" zoomAndPan="magnify"><defs><filter height="300%" id="fhds2pb3cappn" width="300%" x="-1" y="-1"><feGaussianBlur result="blurOut" stdDeviation="2.0"/><feColorMatrix in="blurOut" result="blurOut2" type="matrix" values="0 0 0 0 0 0 0 0 0 0 0 0 0 0 0 0 0 0 .4 0"/><feOffset dx="4.0" dy="4.0" in="blurOut2" result="blurOut3"/><feBlend in="SourceGraphic" in2="blurOut3" mode="normal"/></filter></defs><g><polygon fill="#DDDDDD" filter="url(#fhds2pb3cappn)" points="89.5,6,171.5,6,178.5,28.2969,185.5,28.2969,185.5,58.5938,89.5,58.5938,89.5,6" style="stroke:#000000;stroke-width:1.5;"/><line style="stroke:#000000;stroke-width:1.5;" x1="89.5" x2="178.5" y1="28.2969" y2="28.2969"/><text fill="#000000" font-family="sans-serif" font-size="14" font-weight="bold" lengthAdjust="spacingAndGlyphs" textLength="76" x="93.5" y="20.9951">tictactoe</text><polygon fill="#DDDDDD" filter="url(#fhds2pb3cappn)" points="174.5,232,306.5,232,313.5,254.2969,320.5,254.2969,320.5,284.5938,174.5,284.5938,174.5,232" style="stroke:#000000;stroke-width:1.5;"/><line style="stroke:#000000;stroke-width:1.5;" x1="174.5" x2="313.5" y1="254.2969" y2="254.2969"/><text fill="#000000" font-family="sans-serif" font-size="14" font-weight="bold" lengthAdjust="spacingAndGlyphs" textLength="126" x="178.5" y="246.9951">tictactoe.views</text><polygon fill="#DDDDDD" filter="url(#fhds2pb3cappn)" points="100.5,345,276.5,345,283.5,367.2969,290.5,367.2969,290.5,397.5938,100.5,397.5938,100.5,345" style="stroke:#000000;stroke-width:1.5;"/><line style="stroke:#000000;stroke-width:1.5;" x1="100.5" x2="283.5" y1="367.2969" y2="367.2969"/><text fill="#000000" font-family="sans-serif" font-size="14" font-weight="bold" lengthAdjust="spacingAndGlyphs" textLength="170" x="104.5" y="359.9951">tictactoe.controllers</text><polygon fill="#DDDDDD" filter="url(#fhds2pb3cappn)" points="16,458,161,458,168,480.2969,175,480.2969,175,510.5938,16,510.5938,16,458" style="stroke:#000000;stroke-width:1.5;"/><line style="stroke:#000000;stroke-width:1.5;" x1="16" x2="168" y1="480.2969" y2="480.2969"/><text fill="#000000" font-family="sans-serif" font-size="14" font-weight="bold" lengthAdjust="spacingAndGlyphs" textLength="139" x="20" y="472.9951">tictactoe.models</text><polygon fill="#FFFFFF" filter="url(#fhds2pb3cappn)" points="52,571,125,571,132,593.2969,139,593.2969,139,623.5938,52,623.5938,52,571" style="stroke:#000000;stroke-width:1.5;"/><line style="stroke:#000000;stroke-width:1.5;" x1="52" x2="132" y1="593.2969" y2="593.2969"/><text fill="#000000" font-family="sans-serif" font-size="14" font-weight="bold" lengthAdjust="spacingAndGlyphs" textLength="67" x="56" y="585.9951">java.util</text><polygon fill="#DDDDDD" filter="url(#fhds2pb3cappn)" points="525,232,568,232,575,254.2969,582,254.2969,582,284.5938,525,284.5938,525,232" style="stroke:#000000;stroke-width:1.5;"/><line style="stroke:#000000;stroke-width:1.5;" x1="525" x2="575" y1="254.2969" y2="254.2969"/><text fill="#000000" font-family="sans-serif" font-size="14" font-weight="bold" lengthAdjust="spacingAndGlyphs" textLength="37" x="529" y="246.9951">utils</text><polygon fill="#FFFFFF" filter="url(#fhds2pb3cappn)" points="516.5,345,576.5,345,583.5,367.2969,590.5,367.2969,590.5,397.5938,516.5,397.5938,516.5,345" style="stroke:#000000;stroke-width:1.5;"/><line style="stroke:#000000;stroke-width:1.5;" x1="516.5" x2="583.5" y1="367.2969" y2="367.2969"/><text fill="#000000" font-family="sans-serif" font-size="14" font-weight="bold" lengthAdjust="spacingAndGlyphs" textLength="54" x="520.5" y="359.9951">java.io</text><polygon fill="#DDDDDD" filter="url(#fhds2pb3cappn)" points="447,119,646,119,653,141.2969,660,141.2969,660,171.5938,447,171.5938,447,119" style="stroke:#000000;stroke-width:1.5;"/><line style="stroke:#000000;stroke-width:1.5;" x1="447" x2="653" y1="141.2969" y2="141.2969"/><text fill="#000000" font-family="sans-serif" font-size="14" font-weight="bold" lengthAdjust="spacingAndGlyphs" textLength="193" x="451" y="133.9951">tictactoe.views.console</text><polygon fill="#DDDDDD" filter="url(#fhds2pb3cappn)" points="191,119,398,119,405,141.2969,412,141.2969,412,171.5938,191,171.5938,191,119" style="stroke:#000000;stroke-width:1.5;"/><line style="stroke:#000000;stroke-width:1.5;" x1="191" x2="405" y1="141.2969" y2="141.2969"/><text fill="#000000" font-family="sans-serif" font-size="14" font-weight="bold" lengthAdjust="spacingAndGlyphs" textLength="201" x="195" y="133.9951">tictactoe.views.graphics</text><!--MD5=[e75f446ce7e4e6233c0f378e4a80c309]
link tictactoe to tictactoe.views.graphics--><path codeLine="2" d="M175.537,59.245 C200.583,76.196 233.397,98.406 259.254,115.907 " fill="none" id="tictactoe-to-tictactoe.views.graphics" style="stroke:#A80036;stroke-width:1.0;stroke-dasharray:7.0,7.0;"/><polygon fill="#A80036" points="263.669,118.895,258.4555,110.5392,259.5275,116.0935,253.9732,117.1656,263.669,118.895" style="stroke:#A80036;stroke-width:1.0;"/><!--MD5=[a65998a409184a650758a5d227ee8afa]
link tictactoe to tictactoe.models--><path codeLine="3" d="M129.502,59.426 C112.0438,118.935 72.8284,270.05 82.5,398 C83.8726,416.159 86.8627,436.303 89.6295,452.476 " fill="none" id="tictactoe-to-tictactoe.models" style="stroke:#A80036;stroke-width:1.0;stroke-dasharray:7.0,7.0;"/><polygon fill="#A80036" points="90.5566,457.799,92.9518,448.2458,89.698,452.8733,85.0706,449.6195,90.5566,457.799" style="stroke:#A80036;stroke-width:1.0;"/><!--MD5=[14e8060986a8fc6b4a58b3b27491f648]
link tictactoe to tictactoe.views.console--><path codeLine="4" d="M185.627,46.342 C250.633,63.687 368.101,95.031 452.835,117.64 " fill="none" id="tictactoe-to-tictactoe.views.console" style="stroke:#A80036;stroke-width:1.0;stroke-dasharray:7.0,7.0;"/><polygon fill="#A80036" points="457.859,118.98,450.1959,112.7931,453.0283,117.6898,448.1316,120.5222,457.859,118.98" style="stroke:#A80036;stroke-width:1.0;"/><!--MD5=[4c8e626184b37a51cac3aeda5d7a8756]
link tictactoe to tictactoe.controllers--><path codeLine="5" d="M136.393,59.354 C135.085,105.51 135.32,204.771 156.5,285 C161.519,304.013 170.458,324.076 178.512,339.985 " fill="none" id="tictactoe-to-tictactoe.controllers" style="stroke:#A80036;stroke-width:1.0;stroke-dasharray:7.0,7.0;"/><polygon fill="#A80036" points="180.978,344.783,180.4214,334.9499,178.6924,340.336,173.3062,338.6069,180.978,344.783" style="stroke:#A80036;stroke-width:1.0;"/><!--MD5=[8fe1157dabbcf20ee852fc992046f19b]
link tictactoe to tictactoe.views--><path d="M140.568,59.022 C144.816,87.81 154.257,135.383 173.5,172 C184.361,192.666 201.1,212.582 215.912,227.986 " fill="none" id="tictactoe-to-tictactoe.views" style="stroke:#A80036;stroke-width:1.0;stroke-dasharray:7.0,7.0;"/><polygon fill="#A80036" points="219.632,231.802,216.2138,222.5654,216.1418,228.2217,210.4854,228.1497,219.632,231.802" style="stroke:#A80036;stroke-width:1.0;"/><!--MD5=[f6dfdd433beafcf2daacaf58db85d2a6]
link tictactoe.controllers to tictactoe.models--><path codeLine="9" d="M172.307,398.245 C157.287,414.916 137.686,436.673 122.045,454.035 " fill="none" id="tictactoe.controllers-to-tictactoe.models" style="stroke:#A80036;stroke-width:1.0;stroke-dasharray:7.0,7.0;"/><polygon fill="#A80036" points="118.568,457.895,127.5636,453.885,121.9144,454.18,121.6195,448.5308,118.568,457.895" style="stroke:#A80036;stroke-width:1.0;"/><!--MD5=[e6c0f23e74b5161a168046a341518387]
link tictactoe.models to java.util--><path d="M95.5,511.245 C95.5,527.4958 95.5,548.5795 95.5,565.7139 " fill="none" id="tictactoe.models-to-java.util" style="stroke:#A80036;stroke-width:1.0;stroke-dasharray:7.0,7.0;"/><polygon fill="#A80036" points="95.5,570.895,99.5,561.895,95.5,565.895,91.5,561.895,95.5,570.895" style="stroke:#A80036;stroke-width:1.0;"/><!--MD5=[e79504c030c2940e8dd8427e90ad9823]
link utils to java.io--><path d="M553.5,285.245 C553.5,301.496 553.5,322.579 553.5,339.714 " fill="none" id="utils-to-java.io" style="stroke:#A80036;stroke-width:1.0;stroke-dasharray:7.0,7.0;"/><polygon fill="#A80036" points="553.5,344.895,557.5,335.895,553.5,339.895,549.5,335.895,553.5,344.895" style="stroke:#A80036;stroke-width:1.0;"/><!--MD5=[6ba7a600a15b805df477e9f81c752d07]
link tictactoe.views to tictactoe.controllers--><path d="M235.439,285.245 C227.761,301.636 217.779,322.943 209.715,340.156 " fill="none" id="tictactoe.views-to-tictactoe.controllers" style="stroke:#A80036;stroke-width:1.0;stroke-dasharray:7.0,7.0;"/><polygon fill="#A80036" points="207.495,344.895,214.936,338.4427,209.6166,340.3674,207.6919,335.0481,207.495,344.895" style="stroke:#A80036;stroke-width:1.0;"/><!--MD5=[d9231b12cc9710bcc39738b6493510f9]
link tictactoe.views.console to tictactoe.views--><path d="M482.913,172.105 C435.048,189.468 371.845,212.395 322.979,230.12 " fill="none" id="tictactoe.views.console-to-tictactoe.views" style="stroke:#A80036;stroke-width:1.0;stroke-dasharray:7.0,7.0;"/><polygon fill="#A80036" points="317.996,231.928,327.8205,232.6204,322.6965,230.2235,325.0933,225.0995,317.996,231.928" style="stroke:#A80036;stroke-width:1.0;"/><!--MD5=[ae85e2051aac6338671b2c0e494e498c]
link tictactoe.views.console to tictactoe.controllers--><path d="M514.296,172.108 C471.179,200.162 399.739,246.319 337.5,285 C306.18,304.465 270.635,325.866 242.943,342.388 " fill="none" id="tictactoe.views.console-to-tictactoe.controllers" style="stroke:#A80036;stroke-width:1.0;stroke-dasharray:7.0,7.0;"/><polygon fill="#A80036" points="238.568,344.997,248.3468,343.8243,242.8628,342.4367,244.2503,336.9527,238.568,344.997" style="stroke:#A80036;stroke-width:1.0;"/><!--MD5=[b62e8057ebb64db4cc41eb56011c03b5]
link tictactoe.views.console to utils--><path d="M553.5,172.245 C553.5,188.496 553.5,209.579 553.5,226.714 " fill="none" id="tictactoe.views.console-to-utils" style="stroke:#A80036;stroke-width:1.0;stroke-dasharray:7.0,7.0;"/><polygon fill="#A80036" points="553.5,231.895,557.5,222.895,553.5,226.895,549.5,222.895,553.5,231.895" style="stroke:#A80036;stroke-width:1.0;"/><!--MD5=[36236f1ad998eba9fea5e75bc6a115c4]
link tictactoe.views.graphics to tictactoe.views--><path d="M288.976,172.245 C281.001,188.636 270.636,209.943 262.262,227.156 " fill="none" id="tictactoe.views.graphics-to-tictactoe.views" style="stroke:#A80036;stroke-width:1.0;stroke-dasharray:7.0,7.0;"/><polygon fill="#A80036" points="259.956,231.895,267.4894,225.5509,262.1428,227.3986,260.2951,222.052,259.956,231.895" style="stroke:#A80036;stroke-width:1.0;"/><!--MD5=[62a1083f5370a9c6baaa8079aa1a7f55]
@startuml
package tictactoe #DDDDDD { }
tictactoe .down.> tictactoe.views.graphics
tictactoe .down.> tictactoe.models
tictactoe .down.> tictactoe.views.console
tictactoe .down.> tictactoe.controllers
tictactoe .down.> tictactoe.views

package tictactoe.controllers #DDDDDD { }
tictactoe.controllers .down.> tictactoe.models

package tictactoe.models #DDDDDD { }
package java.util{ }
tictactoe.models .down.> java.util

package utils #DDDDDD { }
package java.io{ }
utils .down.> java.io

package tictactoe.views #DDDDDD { }
tictactoe.views .down.> tictactoe.controllers

package tictactoe.views.console #DDDDDD { }
tictactoe.views.console .down.> tictactoe.views
tictactoe.views.console .down.> tictactoe.controllers
tictactoe.views.console .down.> utils

package tictactoe.views.graphics #DDDDDD { }
tictactoe.views.graphics .down.> tictactoe.views
@enduml

PlantUML version 1.2020.27beta2(Unknown compile time)
(GPL source distribution)
Java Runtime: Java(TM) SE Runtime Environment
JVM: Java HotSpot(TM) 64-Bit Server VM
Default Encoding: UTF-8
Language: en
Country: US
--></g></svg>