<?xml version="1.0" encoding="UTF-8" standalone="no"?><svg xmlns="http://www.w3.org/2000/svg" xmlns:xlink="http://www.w3.org/1999/xlink" contentScriptType="application/ecmascript" contentStyleType="text/css" height="630px" preserveAspectRatio="none" style="width:468px;height:630px;" version="1.1" viewBox="0 0 468 630" width="468px" zoomAndPan="magnify"><defs><filter height="300%" id="fjdgltcla6gmf" width="300%" x="-1" y="-1"><feGaussianBlur result="blurOut" stdDeviation="2.0"/><feColorMatrix in="blurOut" result="blurOut2" type="matrix" values="0 0 0 0 0 0 0 0 0 0 0 0 0 0 0 0 0 0 .4 0"/><feOffset dx="4.0" dy="4.0" in="blurOut2" result="blurOut3"/><feBlend in="SourceGraphic" in2="blurOut3" mode="normal"/></filter></defs><g><polygon fill="#DDDDDD" filter="url(#fjdgltcla6gmf)" points="72.5,6,154.5,6,161.5,28.2969,168.5,28.2969,168.5,58.5938,72.5,58.5938,72.5,6" style="stroke:#000000;stroke-width:1.5;"/><line style="stroke:#000000;stroke-width:1.5;" x1="72.5" x2="161.5" y1="28.2969" y2="28.2969"/><text fill="#000000" font-family="sans-serif" font-size="14" font-weight="bold" lengthAdjust="spacingAndGlyphs" textLength="76" x="76.5" y="20.9951">tictactoe</text><polygon fill="#DDDDDD" filter="url(#fjdgltcla6gmf)" points="133.5,232,265.5,232,272.5,254.2969,279.5,254.2969,279.5,284.5938,133.5,284.5938,133.5,232" style="stroke:#000000;stroke-width:1.5;"/><line style="stroke:#000000;stroke-width:1.5;" x1="133.5" x2="272.5" y1="254.2969" y2="254.2969"/><text fill="#000000" font-family="sans-serif" font-size="14" font-weight="bold" lengthAdjust="spacingAndGlyphs" textLength="126" x="137.5" y="246.9951">tictactoe.views</text><polygon fill="#DDDDDD" filter="url(#fjdgltcla6gmf)" points="86.5,345,262.5,345,269.5,367.2969,276.5,367.2969,276.5,397.5938,86.5,397.5938,86.5,345" style="stroke:#000000;stroke-width:1.5;"/><line style="stroke:#000000;stroke-width:1.5;" x1="86.5" x2="269.5" y1="367.2969" y2="367.2969"/><text fill="#000000" font-family="sans-serif" font-size="14" font-weight="bold" lengthAdjust="spacingAndGlyphs" textLength="170" x="90.5" y="359.9951">tictactoe.controllers</text><polygon fill="#DDDDDD" filter="url(#fjdgltcla6gmf)" points="16,458,161,458,168,480.2969,175,480.2969,175,510.5938,16,510.5938,16,458" style="stroke:#000000;stroke-width:1.5;"/><line style="stroke:#000000;stroke-width:1.5;" x1="16" x2="168" y1="480.2969" y2="480.2969"/><text fill="#000000" font-family="sans-serif" font-size="14" font-weight="bold" lengthAdjust="spacingAndGlyphs" textLength="139" x="20" y="472.9951">tictactoe.models</text><polygon fill="#FFFFFF" filter="url(#fjdgltcla6gmf)" points="52,571,125,571,132,593.2969,139,593.2969,139,623.5938,52,623.5938,52,571" style="stroke:#000000;stroke-width:1.5;"/><line style="stroke:#000000;stroke-width:1.5;" x1="52" x2="132" y1="593.2969" y2="593.2969"/><text fill="#000000" font-family="sans-serif" font-size="14" font-weight="bold" lengthAdjust="spacingAndGlyphs" textLength="67" x="56" y="585.9951">java.util</text><polygon fill="#DDDDDD" filter="url(#fjdgltcla6gmf)" points="386,232,429,232,436,254.2969,443,254.2969,443,284.5938,386,284.5938,386,232" style="stroke:#000000;stroke-width:1.5;"/><line style="stroke:#000000;stroke-width:1.5;" x1="386" x2="436" y1="254.2969" y2="254.2969"/><text fill="#000000" font-family="sans-serif" font-size="14" font-weight="bold" lengthAdjust="spacingAndGlyphs" textLength="37" x="390" y="246.9951">utils</text><polygon fill="#FFFFFF" filter="url(#fjdgltcla6gmf)" points="377.5,345,437.5,345,444.5,367.2969,451.5,367.2969,451.5,397.5938,377.5,397.5938,377.5,345" style="stroke:#000000;stroke-width:1.5;"/><line style="stroke:#000000;stroke-width:1.5;" x1="377.5" x2="444.5" y1="367.2969" y2="367.2969"/><text fill="#000000" font-family="sans-serif" font-size="14" font-weight="bold" lengthAdjust="spacingAndGlyphs" textLength="54" x="381.5" y="359.9951">java.io</text><polygon fill="#DDDDDD" filter="url(#fjdgltcla6gmf)" points="220,119,419,119,426,141.2969,433,141.2969,433,171.5938,220,171.5938,220,119" style="stroke:#000000;stroke-width:1.5;"/><line style="stroke:#000000;stroke-width:1.5;" x1="220" x2="426" y1="141.2969" y2="141.2969"/><text fill="#000000" font-family="sans-serif" font-size="14" font-weight="bold" lengthAdjust="spacingAndGlyphs" textLength="193" x="224" y="133.9951">tictactoe.views.console</text><!--MD5=[a65998a409184a650758a5d227ee8afa]
link tictactoe to tictactoe.models--><path codeLine="2" d="M110.8837,59.341 C105.0036,76.122 97.8079,98.591 93.5,119 C67.7879,240.813 49.5337,274.956 68.5,398 C71.3798,416.683 77.6031,436.88 83.3497,452.951 " fill="none" id="tictactoe-to-tictactoe.models" style="stroke:#A80036;stroke-width:1.0;stroke-dasharray:7.0,7.0;"/><polygon fill="#A80036" points="85.1136,457.8,85.7972,447.9749,83.4049,453.101,78.2788,450.7088,85.1136,457.8" style="stroke:#A80036;stroke-width:1.0;"/><!--MD5=[14e8060986a8fc6b4a58b3b27491f648]
link tictactoe to tictactoe.views.console--><path codeLine="3" d="M168.019,59.105 C199.73,76.192 241.441,98.667 274.111,116.271 " fill="none" id="tictactoe-to-tictactoe.views.console" style="stroke:#A80036;stroke-width:1.0;stroke-dasharray:7.0,7.0;"/><polygon fill="#A80036" points="278.863,118.832,272.8361,111.0425,274.4609,116.461,269.0424,118.0858,278.863,118.832" style="stroke:#A80036;stroke-width:1.0;"/><!--MD5=[4c8e626184b37a51cac3aeda5d7a8756]
link tictactoe to tictactoe.controllers--><path codeLine="4" d="M114.4112,59.003 C104.526,105.44 88.6441,206.259 115.5,285 C122.643,305.943 137.223,325.744 150.868,341.007 " fill="none" id="tictactoe-to-tictactoe.controllers" style="stroke:#A80036;stroke-width:1.0;stroke-dasharray:7.0,7.0;"/><polygon fill="#A80036" points="154.311,344.788,151.2083,335.4406,150.9443,341.0913,145.2936,340.8274,154.311,344.788" style="stroke:#A80036;stroke-width:1.0;"/><!--MD5=[8fe1157dabbcf20ee852fc992046f19b]
link tictactoe to tictactoe.views--><path d="M130.365,59.196 C146.329,100.775 177.751,182.619 194.811,227.055 " fill="none" id="tictactoe-to-tictactoe.views" style="stroke:#A80036;stroke-width:1.0;stroke-dasharray:7.0,7.0;"/><polygon fill="#A80036" points="196.618,231.76,197.1272,221.9243,194.8263,227.0921,189.6585,224.7911,196.618,231.76" style="stroke:#A80036;stroke-width:1.0;"/><!--MD5=[f6dfdd433beafcf2daacaf58db85d2a6]
link tictactoe.controllers to tictactoe.models--><path codeLine="8" d="M161.554,398.245 C148.746,414.776 132.063,436.308 118.668,453.597 " fill="none" id="tictactoe.controllers-to-tictactoe.models" style="stroke:#A80036;stroke-width:1.0;stroke-dasharray:7.0,7.0;"/><polygon fill="#A80036" points="115.3381,457.895,124.0114,453.2288,118.3997,453.9419,117.6865,448.3302,115.3381,457.895" style="stroke:#A80036;stroke-width:1.0;"/><!--MD5=[e6c0f23e74b5161a168046a341518387]
link tictactoe.models to java.util--><path d="M95.5,511.245 C95.5,527.4958 95.5,548.5795 95.5,565.7139 " fill="none" id="tictactoe.models-to-java.util" style="stroke:#A80036;stroke-width:1.0;stroke-dasharray:7.0,7.0;"/><polygon fill="#A80036" points="95.5,570.895,99.5,561.895,95.5,565.895,91.5,561.895,95.5,570.895" style="stroke:#A80036;stroke-width:1.0;"/><!--MD5=[e79504c030c2940e8dd8427e90ad9823]
link utils to java.io--><path d="M414.5,285.245 C414.5,301.496 414.5,322.579 414.5,339.714 " fill="none" id="utils-to-java.io" style="stroke:#A80036;stroke-width:1.0;stroke-dasharray:7.0,7.0;"/><polygon fill="#A80036" points="414.5,344.895,418.5,335.895,414.5,339.895,410.5,335.895,414.5,344.895" style="stroke:#A80036;stroke-width:1.0;"/><!--MD5=[6ba7a600a15b805df477e9f81c752d07]
link tictactoe.views to tictactoe.controllers--><path d="M200.702,285.245 C197.041,301.496 192.293,322.579 188.434,339.714 " fill="none" id="tictactoe.views-to-tictactoe.controllers" style="stroke:#A80036;stroke-width:1.0;stroke-dasharray:7.0,7.0;"/><polygon fill="#A80036" points="187.267,344.895,193.1464,336.9936,188.3654,340.0171,185.3419,335.2361,187.267,344.895" style="stroke:#A80036;stroke-width:1.0;"/><!--MD5=[d9231b12cc9710bcc39738b6493510f9]
link tictactoe.views.console to tictactoe.views--><path d="M298.668,172.245 C280.493,189.056 256.728,211.039 237.882,228.472 " fill="none" id="tictactoe.views.console-to-tictactoe.views" style="stroke:#A80036;stroke-width:1.0;stroke-dasharray:7.0,7.0;"/><polygon fill="#A80036" points="234.181,231.895,243.5036,228.7187,237.851,228.4993,238.0704,222.8467,234.181,231.895" style="stroke:#A80036;stroke-width:1.0;"/><!--MD5=[ae85e2051aac6338671b2c0e494e498c]
link tictactoe.views.console to tictactoe.controllers--><path d="M326.239,172.029 C324.811,201.466 318.888,250.256 296.5,285 C281.34,308.527 257.296,327.888 235.103,342.201 " fill="none" id="tictactoe.views.console-to-tictactoe.controllers" style="stroke:#A80036;stroke-width:1.0;stroke-dasharray:7.0,7.0;"/><polygon fill="#A80036" points="230.692,344.996,240.4353,343.5578,234.9155,342.3199,236.1534,336.8001,230.692,344.996" style="stroke:#A80036;stroke-width:1.0;"/><!--MD5=[b62e8057ebb64db4cc41eb56011c03b5]
link tictactoe.views.console to utils--><path d="M346.91,172.245 C360.016,188.776 377.086,210.308 390.793,227.597 " fill="none" id="tictactoe.views.console-to-utils" style="stroke:#A80036;stroke-width:1.0;stroke-dasharray:7.0,7.0;"/><polygon fill="#A80036" points="394.201,231.895,391.7456,222.3571,391.0953,227.9765,385.476,227.3262,394.201,231.895" style="stroke:#A80036;stroke-width:1.0;"/><!--MD5=[bb7ae598ab53c37854c4d139f7516610]
@startuml
package tictactoe #DDDDDD { }
tictactoe .down.> tictactoe.models
tictactoe .down.> tictactoe.views.console
tictactoe .down.> tictactoe.controllers
tictactoe .down.> tictactoe.views

package tictactoe.controllers #DDDDDD { }
tictactoe.controllers .down.> tictactoe.models

package tictactoe.models #DDDDDD { }
package java.util{ }
tictactoe.models .down.> java.util

package utils #DDDDDD { }
package java.io{ }
utils .down.> java.io

package tictactoe.views #DDDDDD { }
tictactoe.views .down.> tictactoe.controllers

package tictactoe.views.console #DDDDDD { }
tictactoe.views.console .down.> tictactoe.views
tictactoe.views.console .down.> tictactoe.controllers
tictactoe.views.console .down.> utils
@enduml

PlantUML version 1.2020.21beta7(Unknown compile time)
(GPL source distribution)
Java Runtime: Java(TM) SE Runtime Environment
JVM: Java HotSpot(TM) 64-Bit Server VM
Default Encoding: UTF-8
Language: en
Country: US
--></g></svg>