<?xml version="1.0" encoding="UTF-8" standalone="no"?><svg xmlns="http://www.w3.org/2000/svg" xmlns:xlink="http://www.w3.org/1999/xlink" contentScriptType="application/ecmascript" contentStyleType="text/css" height="421px" preserveAspectRatio="none" style="width:937px;height:421px;" version="1.1" viewBox="0 0 937 421" width="937px" zoomAndPan="magnify"><defs><filter height="300%" id="f1u0gpvm1cv6aj" width="300%" x="-1" y="-1"><feGaussianBlur result="blurOut" stdDeviation="2.0"/><feColorMatrix in="blurOut" result="blurOut2" type="matrix" values="0 0 0 0 0 0 0 0 0 0 0 0 0 0 0 0 0 0 .4 0"/><feOffset dx="4.0" dy="4.0" in="blurOut2" result="blurOut3"/><feBlend in="SourceGraphic" in2="blurOut3" mode="normal"/></filter></defs><g><!--MD5=[f4e83a21a957c5b9ba9691e6361db36b]
cluster tictactoe.views--><polygon fill="#FFFFFF" filter="url(#f1u0gpvm1cv6aj)" points="16,6,148,6,155,28.2969,812,28.2969,812,310,16,310,16,6" style="stroke:#000000;stroke-width:1.5;"/><line style="stroke:#000000;stroke-width:1.5;" x1="16" x2="155" y1="28.2969" y2="28.2969"/><text fill="#000000" font-family="sans-serif" font-size="14" font-weight="bold" lengthAdjust="spacingAndGlyphs" textLength="126" x="20" y="20.9951">tictactoe.views</text><!--MD5=[17799e03bfee0ccb3aa03b93da9c26d6]
class tictactoe.views.ErrorView--><rect codeLine="7" fill="#FEFECE" filter="url(#f1u0gpvm1cv6aj)" height="73.6094" id="tictactoe.views.ErrorView" style="stroke:#A80036;stroke-width:1.5;" width="138" x="32" y="130.5"/><ellipse cx="68.6" cy="146.5" fill="#A9DCDF" rx="11" ry="11" style="stroke:#A80036;stroke-width:1.0;"/><path d="M70.6781,148.3125 L71.0688,149.2969 L70.6781,149.2969 C70.225,149.2969 70.1156,149.3125 69.9594,149.4219 C69.7094,149.5781 69.5531,149.8594 69.5531,150.1563 C69.5531,150.4219 69.6938,150.6719 69.9125,150.8281 C70.0531,150.9531 70.2563,151 70.6781,151 L73.0375,151 C73.3969,151 73.6156,150.9688 73.7563,150.875 C74.0063,150.7344 74.1625,150.4375 74.1625,150.1563 C74.1625,149.875 74.0219,149.625 73.8031,149.4688 C73.6313,149.3281 73.475,149.2969 73.0063,149.2969 L69.6156,141.0938 L65.9438,141.0938 C65.4906,141.0938 65.3656,141.1094 65.2094,141.2031 C64.9594,141.375 64.8031,141.6563 64.8031,141.9375 C64.8031,142.2188 64.9438,142.4688 65.1625,142.6406 C65.3344,142.75 65.5063,142.7813 65.9438,142.7813 L67.0219,142.7813 L64.3813,149.2969 C63.9594,149.2969 63.8031,149.3125 63.6469,149.4219 C63.3969,149.5781 63.2406,149.8594 63.2406,150.1563 C63.2406,150.7188 63.6156,151 64.3656,151 L66.6313,151 C66.9906,151 67.2094,150.9688 67.3344,150.875 C67.6,150.7344 67.7406,150.4375 67.7406,150.1563 C67.7406,149.875 67.6156,149.625 67.3969,149.4531 C67.225,149.3281 67.0844,149.2969 66.6313,149.2969 L66.2406,149.2969 L66.6313,148.3125 L70.6781,148.3125 Z M69.975,146.6094 L67.3031,146.6094 L68.6469,143.3438 L69.975,146.6094 Z " fill="#000000"/><text fill="#000000" font-family="sans-serif" font-size="12" font-style="italic" lengthAdjust="spacingAndGlyphs" textLength="58" x="87.4" y="150.6543">ErrorView</text><line style="stroke:#A80036;stroke-width:1.5;" x1="33" x2="169" y1="162.5" y2="162.5"/><ellipse cx="43" cy="173.5" fill="none" rx="3" ry="3" style="stroke:#038048;stroke-width:1.0;"/><text fill="#000000" font-family="sans-serif" font-size="11" lengthAdjust="spacingAndGlyphs" text-decoration="underline" textLength="112" x="52" y="176.7104">MESSAGES: String[]</text><line style="stroke:#A80036;stroke-width:1.5;" x1="33" x2="169" y1="183.3047" y2="183.3047"/><ellipse cx="43" cy="194.3047" fill="#84BE84" rx="3" ry="3" style="stroke:#038048;stroke-width:1.0;"/><text fill="#000000" font-family="sans-serif" font-size="11" lengthAdjust="spacingAndGlyphs" textLength="88" x="52" y="197.5151">ErrorView(Error)</text><!--MD5=[8b95091471898ea6b0cbbbb1cd164db3]
class tictactoe.views.Message--><rect codeLine="13" fill="#FEFECE" filter="url(#f1u0gpvm1cv6aj)" height="252.875" id="tictactoe.views.Message" style="stroke:#A80036;stroke-width:1.5;" width="218" x="205" y="41"/><ellipse cx="282.25" cy="57" fill="#EB937F" rx="11" ry="11" style="stroke:#A80036;stroke-width:1.0;"/><path d="M281.0469,57.875 L282.5,57.875 L282.5,57.9844 C282.5,58.3906 282.5313,58.5469 282.6094,58.7031 C282.7656,58.9531 283.0469,59.1094 283.3438,59.1094 C283.5938,59.1094 283.8594,58.9688 284.0156,58.75 C284.1406,58.5938 284.1719,58.4375 284.1719,57.9844 L284.1719,56.0625 C284.1719,55.9063 284.1719,55.8594 284.1563,55.7031 C284.0938,55.2344 283.7813,54.9219 283.3281,54.9219 C283.0781,54.9219 282.8125,55.0625 282.6406,55.2813 C282.5313,55.4531 282.5,55.6094 282.5,56.0625 L282.5,56.1875 L281.0469,56.1875 L281.0469,53.7813 L285.0313,53.7813 L285.0313,54.6406 C285.0313,55.0469 285.0625,55.2188 285.1406,55.375 C285.3125,55.625 285.5938,55.7813 285.875,55.7813 C286.1406,55.7813 286.4063,55.6406 286.5781,55.4219 C286.6875,55.25 286.7188,55.1094 286.7188,54.6406 L286.7188,52.0938 L279.0938,52.0938 C278.6563,52.0938 278.5313,52.1094 278.375,52.2031 C278.125,52.3594 277.9688,52.6563 277.9688,52.9375 C277.9688,53.2188 278.1094,53.4688 278.3281,53.6406 C278.4844,53.75 278.6719,53.7813 279.0938,53.7813 L279.3438,53.7813 L279.3438,60.2969 L279.0938,60.2969 C278.6875,60.2969 278.5313,60.3125 278.375,60.4219 C278.125,60.5938 277.9688,60.8594 277.9688,61.1563 C277.9688,61.4219 278.1094,61.6719 278.3281,61.8281 C278.4688,61.9531 278.7031,62 279.0938,62 L287.0938,62 L287.0938,59.4219 C287.0938,58.9844 287.0625,58.8438 286.9844,58.6875 C286.8125,58.4375 286.5313,58.2813 286.25,58.2813 C285.9844,58.2813 285.7188,58.3906 285.5469,58.6406 C285.4375,58.7969 285.4063,58.9375 285.4063,59.4219 L285.4063,60.2969 L281.0469,60.2969 L281.0469,57.875 Z " fill="#000000"/><text fill="#000000" font-family="sans-serif" font-size="12" lengthAdjust="spacingAndGlyphs" textLength="55" x="302.75" y="61.1543">Message</text><line style="stroke:#A80036;stroke-width:1.5;" x1="206" x2="422" y1="73" y2="73"/><ellipse cx="216" cy="84" fill="none" rx="3" ry="3" style="stroke:#038048;stroke-width:1.0;"/><text fill="#000000" font-family="sans-serif" font-size="11" lengthAdjust="spacingAndGlyphs" textLength="37" x="225" y="87.2104">TITTLE</text><ellipse cx="216" cy="96.8047" fill="none" rx="3" ry="3" style="stroke:#038048;stroke-width:1.0;"/><text fill="#000000" font-family="sans-serif" font-size="11" lengthAdjust="spacingAndGlyphs" textLength="102" x="225" y="100.0151">NUMBER_PLAYERS</text><ellipse cx="216" cy="109.6094" fill="none" rx="3" ry="3" style="stroke:#038048;stroke-width:1.0;"/><text fill="#000000" font-family="sans-serif" font-size="11" lengthAdjust="spacingAndGlyphs" textLength="67" x="225" y="112.8198">SEPARATOR</text><ellipse cx="216" cy="122.4141" fill="none" rx="3" ry="3" style="stroke:#038048;stroke-width:1.0;"/><text fill="#000000" font-family="sans-serif" font-size="11" lengthAdjust="spacingAndGlyphs" textLength="116" x="225" y="125.6245">VERTICAL_LINE_LEFT</text><ellipse cx="216" cy="135.2188" fill="none" rx="3" ry="3" style="stroke:#038048;stroke-width:1.0;"/><text fill="#000000" font-family="sans-serif" font-size="11" lengthAdjust="spacingAndGlyphs" textLength="150" x="225" y="138.4292">VERTICAL_LINE_CENTERED</text><ellipse cx="216" cy="148.0234" fill="none" rx="3" ry="3" style="stroke:#038048;stroke-width:1.0;"/><text fill="#000000" font-family="sans-serif" font-size="11" lengthAdjust="spacingAndGlyphs" textLength="124" x="225" y="151.2339">VERTICAL_LINE_RIGHT</text><ellipse cx="216" cy="160.8281" fill="none" rx="3" ry="3" style="stroke:#038048;stroke-width:1.0;"/><text fill="#000000" font-family="sans-serif" font-size="11" lengthAdjust="spacingAndGlyphs" textLength="166" x="225" y="164.0386">ENTER_COORDINATE_TO_PUT</text><ellipse cx="216" cy="173.6328" fill="none" rx="3" ry="3" style="stroke:#038048;stroke-width:1.0;"/><text fill="#000000" font-family="sans-serif" font-size="11" lengthAdjust="spacingAndGlyphs" textLength="192" x="225" y="176.8433">ENTER_COORDINATE_TO_REMOVE</text><ellipse cx="216" cy="186.4375" fill="none" rx="3" ry="3" style="stroke:#038048;stroke-width:1.0;"/><text fill="#000000" font-family="sans-serif" font-size="11" lengthAdjust="spacingAndGlyphs" textLength="124" x="225" y="189.6479">COORDINATE_TO_PUT</text><ellipse cx="216" cy="199.2422" fill="none" rx="3" ry="3" style="stroke:#038048;stroke-width:1.0;"/><text fill="#000000" font-family="sans-serif" font-size="11" lengthAdjust="spacingAndGlyphs" textLength="150" x="225" y="202.4526">COORDINATE_TO_REMOVE</text><ellipse cx="216" cy="212.0469" fill="none" rx="3" ry="3" style="stroke:#038048;stroke-width:1.0;"/><text fill="#000000" font-family="sans-serif" font-size="11" lengthAdjust="spacingAndGlyphs" textLength="136" x="225" y="215.2573">COORDINATE_TO_MOVE</text><ellipse cx="216" cy="224.8516" fill="none" rx="3" ry="3" style="stroke:#038048;stroke-width:1.0;"/><text fill="#000000" font-family="sans-serif" font-size="11" lengthAdjust="spacingAndGlyphs" textLength="69" x="225" y="228.062">PLAYER_WIN</text><ellipse cx="216" cy="237.6563" fill="none" rx="3" ry="3" style="stroke:#038048;stroke-width:1.0;"/><text fill="#000000" font-family="sans-serif" font-size="11" lengthAdjust="spacingAndGlyphs" textLength="46" x="225" y="240.8667">RESUME</text><rect fill="none" height="6" style="stroke:#C82930;stroke-width:1.0;" width="6" x="213" y="247.4609"/><text fill="#000000" font-family="sans-serif" font-size="11" lengthAdjust="spacingAndGlyphs" textLength="93" x="225" y="253.6714">message: String</text><line style="stroke:#A80036;stroke-width:1.5;" x1="206" x2="422" y1="260.2656" y2="260.2656"/><rect fill="#F24D5C" height="6" style="stroke:#C82930;stroke-width:1.0;" width="6" x="213" y="268.2656"/><text fill="#000000" font-family="sans-serif" font-size="11" lengthAdjust="spacingAndGlyphs" textLength="92" x="225" y="274.4761">Message(String)</text><ellipse cx="216" cy="284.0703" fill="#84BE84" rx="3" ry="3" style="stroke:#038048;stroke-width:1.0;"/><text fill="#000000" font-family="sans-serif" font-size="11" lengthAdjust="spacingAndGlyphs" textLength="118" x="225" y="287.2808">getMessage(): String</text><!--MD5=[015754420c4cdd9bacda884b3fa8c6ca]
class tictactoe.views.View--><rect codeLine="34" fill="#FEFECE" filter="url(#f1u0gpvm1cv6aj)" height="112.0234" id="tictactoe.views.View" style="stroke:#A80036;stroke-width:1.5;" width="338" x="458" y="111.5"/><ellipse cx="608.75" cy="127.5" fill="#A9DCDF" rx="11" ry="11" style="stroke:#A80036;stroke-width:1.0;"/><path d="M610.8281,129.3125 L611.2188,130.2969 L610.8281,130.2969 C610.375,130.2969 610.2656,130.3125 610.1094,130.4219 C609.8594,130.5781 609.7031,130.8594 609.7031,131.1563 C609.7031,131.4219 609.8438,131.6719 610.0625,131.8281 C610.2031,131.9531 610.4063,132 610.8281,132 L613.1875,132 C613.5469,132 613.7656,131.9688 613.9063,131.875 C614.1563,131.7344 614.3125,131.4375 614.3125,131.1563 C614.3125,130.875 614.1719,130.625 613.9531,130.4688 C613.7813,130.3281 613.625,130.2969 613.1563,130.2969 L609.7656,122.0938 L606.0938,122.0938 C605.6406,122.0938 605.5156,122.1094 605.3594,122.2031 C605.1094,122.375 604.9531,122.6563 604.9531,122.9375 C604.9531,123.2188 605.0938,123.4688 605.3125,123.6406 C605.4844,123.75 605.6563,123.7813 606.0938,123.7813 L607.1719,123.7813 L604.5313,130.2969 C604.1094,130.2969 603.9531,130.3125 603.7969,130.4219 C603.5469,130.5781 603.3906,130.8594 603.3906,131.1563 C603.3906,131.7188 603.7656,132 604.5156,132 L606.7813,132 C607.1406,132 607.3594,131.9688 607.4844,131.875 C607.75,131.7344 607.8906,131.4375 607.8906,131.1563 C607.8906,130.875 607.7656,130.625 607.5469,130.4531 C607.375,130.3281 607.2344,130.2969 606.7813,130.2969 L606.3906,130.2969 L606.7813,129.3125 L610.8281,129.3125 Z M610.125,127.6094 L607.4531,127.6094 L608.7969,124.3438 L610.125,127.6094 Z " fill="#000000"/><text fill="#000000" font-family="sans-serif" font-size="12" font-style="italic" lengthAdjust="spacingAndGlyphs" textLength="28" x="629.25" y="131.6543">View</text><line style="stroke:#A80036;stroke-width:1.5;" x1="459" x2="795" y1="143.5" y2="143.5"/><line style="stroke:#A80036;stroke-width:1.5;" x1="459" x2="795" y1="151.5" y2="151.5"/><ellipse cx="469" cy="162.5" fill="#84BE84" rx="3" ry="3" style="stroke:#038048;stroke-width:1.0;"/><text fill="#000000" font-family="sans-serif" font-size="11" lengthAdjust="spacingAndGlyphs" textLength="312" x="478" y="165.7104">View(StartController, PlayController, ResumeController)</text><ellipse cx="469" cy="175.3047" fill="#84BE84" rx="3" ry="3" style="stroke:#038048;stroke-width:1.0;"/><text fill="#000000" font-family="sans-serif" font-size="11" lengthAdjust="spacingAndGlyphs" textLength="51" x="478" y="178.5151">interact()</text><polygon fill="#FFFF44" points="469,183.1094,473,187.1094,469,191.1094,465,187.1094" style="stroke:#B38D22;stroke-width:1.0;"/><text fill="#000000" font-family="sans-serif" font-size="11" font-style="italic" lengthAdjust="spacingAndGlyphs" textLength="34" x="478" y="191.3198">start()</text><polygon fill="#FFFF44" points="469,195.9141,473,199.9141,469,203.9141,465,199.9141" style="stroke:#B38D22;stroke-width:1.0;"/><text fill="#000000" font-family="sans-serif" font-size="11" font-style="italic" lengthAdjust="spacingAndGlyphs" textLength="32" x="478" y="204.1245">play()</text><polygon fill="#FFFF44" points="469,208.7188,473,212.7188,469,216.7188,465,212.7188" style="stroke:#B38D22;stroke-width:1.0;"/><text fill="#000000" font-family="sans-serif" font-size="11" font-style="italic" lengthAdjust="spacingAndGlyphs" textLength="123" x="478" y="216.9292">isResumed(): boolean</text><!--MD5=[b8cfd8c4119a3b0a7a46bfc5fc780f85]
class Error--><rect codeLine="1" fill="#FEFECE" filter="url(#f1u0gpvm1cv6aj)" height="53.9375" id="Error" style="stroke:#A80036;stroke-width:1.5;" width="124" x="39" y="354"/><ellipse cx="54" cy="372.9688" fill="#ADD1B2" rx="11" ry="11" style="stroke:#A80036;stroke-width:1.0;"/><path d="M56.3438,368.6406 C55.4063,368.2031 54.8125,368.0625 53.9375,368.0625 C51.3125,368.0625 49.3125,370.1406 49.3125,372.8594 L49.3125,373.9844 C49.3125,376.5625 51.4219,378.4531 54.3125,378.4531 C55.5313,378.4531 56.6875,378.1563 57.4375,377.6094 C58.0156,377.2031 58.3438,376.75 58.3438,376.3594 C58.3438,375.9063 57.9531,375.5156 57.4844,375.5156 C57.2656,375.5156 57.0625,375.5938 56.875,375.7813 C56.4219,376.2656 56.4219,376.2656 56.2344,376.3594 C55.8125,376.625 55.125,376.75 54.3594,376.75 C52.3125,376.75 51.0156,375.6563 51.0156,373.9531 L51.0156,372.8594 C51.0156,371.0781 52.2656,369.7656 54,369.7656 C54.5781,369.7656 55.1875,369.9219 55.6563,370.1719 C56.1406,370.4531 56.3125,370.6719 56.4063,371.0781 C56.4688,371.4844 56.5,371.6094 56.6406,371.7344 C56.7813,371.875 57.0156,371.9844 57.2344,371.9844 C57.5,371.9844 57.7656,371.8438 57.9375,371.625 C58.0469,371.4688 58.0781,371.2813 58.0781,370.8594 L58.0781,369.4375 C58.0781,369 58.0625,368.875 57.9688,368.7188 C57.8125,368.4531 57.5313,368.3125 57.2344,368.3125 C56.9375,368.3125 56.7344,368.4063 56.5156,368.7188 L56.3438,368.6406 Z " fill="#000000"/><text fill="#000000" font-family="sans-serif" font-size="12" lengthAdjust="spacingAndGlyphs" textLength="92" x="68" y="370.1387">tictactoe.types.</text><text fill="#000000" font-family="sans-serif" font-size="12" lengthAdjust="spacingAndGlyphs" textLength="30" x="99" y="384.1074">Error</text><line style="stroke:#A80036;stroke-width:1.5;" x1="40" x2="162" y1="391.9375" y2="391.9375"/><line style="stroke:#A80036;stroke-width:1.5;" x1="40" x2="162" y1="399.9375" y2="399.9375"/><!--MD5=[47c371471411cfedeee61b1a5bdaee47]
class StartController--><rect codeLine="2" fill="#FEFECE" filter="url(#f1u0gpvm1cv6aj)" height="53.9375" id="StartController" style="stroke:#A80036;stroke-width:1.5;" width="155" x="388.5" y="354"/><ellipse cx="403.5" cy="372.9688" fill="#ADD1B2" rx="11" ry="11" style="stroke:#A80036;stroke-width:1.0;"/><path d="M405.8438,368.6406 C404.9063,368.2031 404.3125,368.0625 403.4375,368.0625 C400.8125,368.0625 398.8125,370.1406 398.8125,372.8594 L398.8125,373.9844 C398.8125,376.5625 400.9219,378.4531 403.8125,378.4531 C405.0313,378.4531 406.1875,378.1563 406.9375,377.6094 C407.5156,377.2031 407.8438,376.75 407.8438,376.3594 C407.8438,375.9063 407.4531,375.5156 406.9844,375.5156 C406.7656,375.5156 406.5625,375.5938 406.375,375.7813 C405.9219,376.2656 405.9219,376.2656 405.7344,376.3594 C405.3125,376.625 404.625,376.75 403.8594,376.75 C401.8125,376.75 400.5156,375.6563 400.5156,373.9531 L400.5156,372.8594 C400.5156,371.0781 401.7656,369.7656 403.5,369.7656 C404.0781,369.7656 404.6875,369.9219 405.1563,370.1719 C405.6406,370.4531 405.8125,370.6719 405.9063,371.0781 C405.9688,371.4844 406,371.6094 406.1406,371.7344 C406.2813,371.875 406.5156,371.9844 406.7344,371.9844 C407,371.9844 407.2656,371.8438 407.4375,371.625 C407.5469,371.4688 407.5781,371.2813 407.5781,370.8594 L407.5781,369.4375 C407.5781,369 407.5625,368.875 407.4688,368.7188 C407.3125,368.4531 407.0313,368.3125 406.7344,368.3125 C406.4375,368.3125 406.2344,368.4063 406.0156,368.7188 L405.8438,368.6406 Z " fill="#000000"/><text fill="#000000" font-family="sans-serif" font-size="12" lengthAdjust="spacingAndGlyphs" textLength="123" x="417.5" y="370.1387">tictactoe.controllers.</text><text fill="#000000" font-family="sans-serif" font-size="12" lengthAdjust="spacingAndGlyphs" textLength="87" x="435.5" y="384.1074">StartController</text><line style="stroke:#A80036;stroke-width:1.5;" x1="389.5" x2="542.5" y1="391.9375" y2="391.9375"/><line style="stroke:#A80036;stroke-width:1.5;" x1="389.5" x2="542.5" y1="399.9375" y2="399.9375"/><!--MD5=[cc8600b868f8dfab2c8d497bce62f90a]
class PlayController--><rect codeLine="3" fill="#FEFECE" filter="url(#f1u0gpvm1cv6aj)" height="53.9375" id="PlayController" style="stroke:#A80036;stroke-width:1.5;" width="155" x="578.5" y="354"/><ellipse cx="593.5" cy="372.9688" fill="#ADD1B2" rx="11" ry="11" style="stroke:#A80036;stroke-width:1.0;"/><path d="M595.8438,368.6406 C594.9063,368.2031 594.3125,368.0625 593.4375,368.0625 C590.8125,368.0625 588.8125,370.1406 588.8125,372.8594 L588.8125,373.9844 C588.8125,376.5625 590.9219,378.4531 593.8125,378.4531 C595.0313,378.4531 596.1875,378.1563 596.9375,377.6094 C597.5156,377.2031 597.8438,376.75 597.8438,376.3594 C597.8438,375.9063 597.4531,375.5156 596.9844,375.5156 C596.7656,375.5156 596.5625,375.5938 596.375,375.7813 C595.9219,376.2656 595.9219,376.2656 595.7344,376.3594 C595.3125,376.625 594.625,376.75 593.8594,376.75 C591.8125,376.75 590.5156,375.6563 590.5156,373.9531 L590.5156,372.8594 C590.5156,371.0781 591.7656,369.7656 593.5,369.7656 C594.0781,369.7656 594.6875,369.9219 595.1563,370.1719 C595.6406,370.4531 595.8125,370.6719 595.9063,371.0781 C595.9688,371.4844 596,371.6094 596.1406,371.7344 C596.2813,371.875 596.5156,371.9844 596.7344,371.9844 C597,371.9844 597.2656,371.8438 597.4375,371.625 C597.5469,371.4688 597.5781,371.2813 597.5781,370.8594 L597.5781,369.4375 C597.5781,369 597.5625,368.875 597.4688,368.7188 C597.3125,368.4531 597.0313,368.3125 596.7344,368.3125 C596.4375,368.3125 596.2344,368.4063 596.0156,368.7188 L595.8438,368.6406 Z " fill="#000000"/><text fill="#000000" font-family="sans-serif" font-size="12" lengthAdjust="spacingAndGlyphs" textLength="123" x="607.5" y="370.1387">tictactoe.controllers.</text><text fill="#000000" font-family="sans-serif" font-size="12" lengthAdjust="spacingAndGlyphs" textLength="82" x="628" y="384.1074">PlayController</text><line style="stroke:#A80036;stroke-width:1.5;" x1="579.5" x2="732.5" y1="391.9375" y2="391.9375"/><line style="stroke:#A80036;stroke-width:1.5;" x1="579.5" x2="732.5" y1="399.9375" y2="399.9375"/><!--MD5=[1a47bbf44ccee225df9b18c5b6629853]
class ResumeController--><rect codeLine="4" fill="#FEFECE" filter="url(#f1u0gpvm1cv6aj)" height="53.9375" id="ResumeController" style="stroke:#A80036;stroke-width:1.5;" width="155" x="768.5" y="354"/><ellipse cx="783.5" cy="372.9688" fill="#ADD1B2" rx="11" ry="11" style="stroke:#A80036;stroke-width:1.0;"/><path d="M785.8438,368.6406 C784.9063,368.2031 784.3125,368.0625 783.4375,368.0625 C780.8125,368.0625 778.8125,370.1406 778.8125,372.8594 L778.8125,373.9844 C778.8125,376.5625 780.9219,378.4531 783.8125,378.4531 C785.0313,378.4531 786.1875,378.1563 786.9375,377.6094 C787.5156,377.2031 787.8438,376.75 787.8438,376.3594 C787.8438,375.9063 787.4531,375.5156 786.9844,375.5156 C786.7656,375.5156 786.5625,375.5938 786.375,375.7813 C785.9219,376.2656 785.9219,376.2656 785.7344,376.3594 C785.3125,376.625 784.625,376.75 783.8594,376.75 C781.8125,376.75 780.5156,375.6563 780.5156,373.9531 L780.5156,372.8594 C780.5156,371.0781 781.7656,369.7656 783.5,369.7656 C784.0781,369.7656 784.6875,369.9219 785.1563,370.1719 C785.6406,370.4531 785.8125,370.6719 785.9063,371.0781 C785.9688,371.4844 786,371.6094 786.1406,371.7344 C786.2813,371.875 786.5156,371.9844 786.7344,371.9844 C787,371.9844 787.2656,371.8438 787.4375,371.625 C787.5469,371.4688 787.5781,371.2813 787.5781,370.8594 L787.5781,369.4375 C787.5781,369 787.5625,368.875 787.4688,368.7188 C787.3125,368.4531 787.0313,368.3125 786.7344,368.3125 C786.4375,368.3125 786.2344,368.4063 786.0156,368.7188 L785.8438,368.6406 Z " fill="#000000"/><text fill="#000000" font-family="sans-serif" font-size="12" lengthAdjust="spacingAndGlyphs" textLength="123" x="797.5" y="370.1387">tictactoe.controllers.</text><text fill="#000000" font-family="sans-serif" font-size="12" lengthAdjust="spacingAndGlyphs" textLength="107" x="805.5" y="384.1074">ResumeController</text><line style="stroke:#A80036;stroke-width:1.5;" x1="769.5" x2="922.5" y1="391.9375" y2="391.9375"/><line style="stroke:#A80036;stroke-width:1.5;" x1="769.5" x2="922.5" y1="399.9375" y2="399.9375"/><!--MD5=[315b61b427ec618d6861d47eee00cca3]
class Console--><rect codeLine="5" fill="#FEFECE" filter="url(#f1u0gpvm1cv6aj)" height="53.9375" id="Console" style="stroke:#A80036;stroke-width:1.5;" width="130" x="223" y="354"/><ellipse cx="238" cy="372.9688" fill="#ADD1B2" rx="11" ry="11" style="stroke:#A80036;stroke-width:1.0;"/><path d="M240.3438,368.6406 C239.4063,368.2031 238.8125,368.0625 237.9375,368.0625 C235.3125,368.0625 233.3125,370.1406 233.3125,372.8594 L233.3125,373.9844 C233.3125,376.5625 235.4219,378.4531 238.3125,378.4531 C239.5313,378.4531 240.6875,378.1563 241.4375,377.6094 C242.0156,377.2031 242.3438,376.75 242.3438,376.3594 C242.3438,375.9063 241.9531,375.5156 241.4844,375.5156 C241.2656,375.5156 241.0625,375.5938 240.875,375.7813 C240.4219,376.2656 240.4219,376.2656 240.2344,376.3594 C239.8125,376.625 239.125,376.75 238.3594,376.75 C236.3125,376.75 235.0156,375.6563 235.0156,373.9531 L235.0156,372.8594 C235.0156,371.0781 236.2656,369.7656 238,369.7656 C238.5781,369.7656 239.1875,369.9219 239.6563,370.1719 C240.1406,370.4531 240.3125,370.6719 240.4063,371.0781 C240.4688,371.4844 240.5,371.6094 240.6406,371.7344 C240.7813,371.875 241.0156,371.9844 241.2344,371.9844 C241.5,371.9844 241.7656,371.8438 241.9375,371.625 C242.0469,371.4688 242.0781,371.2813 242.0781,370.8594 L242.0781,369.4375 C242.0781,369 242.0625,368.875 241.9688,368.7188 C241.8125,368.4531 241.5313,368.3125 241.2344,368.3125 C240.9375,368.3125 240.7344,368.4063 240.5156,368.7188 L240.3438,368.6406 Z " fill="#000000"/><text fill="#000000" font-family="sans-serif" font-size="12" lengthAdjust="spacingAndGlyphs" textLength="98" x="252" y="370.1387">usantatecla.utils.</text><text fill="#000000" font-family="sans-serif" font-size="12" lengthAdjust="spacingAndGlyphs" textLength="49" x="276.5" y="384.1074">Console</text><line style="stroke:#A80036;stroke-width:1.5;" x1="224" x2="352" y1="391.9375" y2="391.9375"/><line style="stroke:#A80036;stroke-width:1.5;" x1="224" x2="352" y1="399.9375" y2="399.9375"/><!--MD5=[6b5fb949459e9919da652f12454cf9c5]
link tictactoe.views.ErrorView to Error--><path codeLine="11" d="M101,216.858 C101,216.858 101,305.801 101,340.4456 " fill="none" id="tictactoe.views.ErrorView-Error" style="stroke:#A80036;stroke-width:1.0;"/><polygon fill="#A80036" points="101,353.7866,105,344.7866,101,348.7866,97,344.7866,101,353.7866" style="stroke:#A80036;stroke-width:1.0;"/><line style="stroke:#A80036;stroke-width:1.0;" x1="101" x2="101.0001" y1="348.7866" y2="340.7866"/><polygon fill="#A80036" points="101,204.858,97,210.858,101,216.858,105,210.858,101,204.858" style="stroke:#A80036;stroke-width:1.0;"/><!--MD5=[c07da26758a9269fd0b37bd7c33bafaa]
link tictactoe.views.Message to Console--><path codeLine="32" d="M298.538,294.28 C296.071,314.3471 293.727,333.4156 291.878,348.4505 " fill="none" id="tictactoe.views.Message-to-Console" style="stroke:#A80036;stroke-width:1.0;stroke-dasharray:7.0,7.0;"/><polygon fill="#A80036" points="291.221,353.8015,296.2893,345.3568,291.8311,348.8389,288.3491,344.3807,291.221,353.8015" style="stroke:#A80036;stroke-width:1.0;"/><!--MD5=[646139165c03b5c9a3c49cb7bf54d1c9]
link tictactoe.views.View to StartController--><path codeLine="41" d="M577.8506,233.0653 C577.8506,233.0653 516.716,313.3767 493.858,343.4043 " fill="none" id="tictactoe.views.View-StartController" style="stroke:#A80036;stroke-width:1.0;"/><polygon fill="#A80036" points="485.922,353.8297,494.556,349.0912,488.9505,349.8512,488.1904,344.2456,485.922,353.8297" style="stroke:#A80036;stroke-width:1.0;"/><line style="stroke:#A80036;stroke-width:1.0;" x1="488.9505" x2="493.7955" y1="349.8512" y2="343.4858"/><polygon fill="#A80036" points="585.119,223.517,578.302,225.8684,577.8506,233.0653,584.6676,230.714,585.119,223.517" style="stroke:#A80036;stroke-width:1.0;"/><!--MD5=[20fa82ef4c6e07a5f190c4c089f636df]
link tictactoe.views.View to PlayController--><path codeLine="42" d="M636.1751,235.4056 C636.1751,235.4056 646.627,311.6405 650.635,340.8732 " fill="none" id="tictactoe.views.View-PlayController" style="stroke:#A80036;stroke-width:1.0;"/><polygon fill="#A80036" points="652.412,353.8297,655.1521,344.3697,651.7327,348.8761,647.2263,345.4566,652.412,353.8297" style="stroke:#A80036;stroke-width:1.0;"/><line style="stroke:#A80036;stroke-width:1.0;" x1="651.7327" x2="650.6455" y1="348.8761" y2="340.9503"/><polygon fill="#A80036" points="634.544,223.517,631.3967,230.005,636.1751,235.4056,639.3224,228.9176,634.544,223.517" style="stroke:#A80036;stroke-width:1.0;"/><!--MD5=[177f840d28fd65e2ff6aa8b07f0e221d]
link tictactoe.views.View to ResumeController--><path codeLine="43" d="M692.5997,231.8533 C692.5997,231.8533 777.628,313.9695 809.198,344.458 " fill="none" id="tictactoe.views.View-ResumeController" style="stroke:#A80036;stroke-width:1.0;"/><polygon fill="#A80036" points="818.902,353.8297,815.2064,344.7005,815.3052,350.3565,809.6493,350.4553,818.902,353.8297" style="stroke:#A80036;stroke-width:1.0;"/><line style="stroke:#A80036;stroke-width:1.0;" x1="815.3052" x2="809.5505" y1="350.3565" y2="344.7988"/><polygon fill="#A80036" points="683.968,223.517,685.5051,230.5624,692.5997,231.8533,691.0626,224.8079,683.968,223.517" style="stroke:#A80036;stroke-width:1.0;"/><!--MD5=[2c7cf0c3168faba47345b7f4f83238cb]
@startuml
class Error as "tictactoe.types.\nError"
class StartController as "tictactoe.controllers.\nStartController"
class PlayController as "tictactoe.controllers.\nPlayController"
class ResumeController as "tictactoe.controllers.\nResumeController"
class Console as "usantatecla.utils.\nConsole"

abstract class  tictactoe.views.ErrorView{
  + {static} MESSAGES: String[]
  + ErrorView(Error)
}
tictactoe.views.ErrorView *-down-> Error

enum  tictactoe.views.Message{
  + TITTLE
  + NUMBER_PLAYERS
  + SEPARATOR
  + VERTICAL_LINE_LEFT
  + VERTICAL_LINE_CENTERED
  + VERTICAL_LINE_RIGHT
  + ENTER_COORDINATE_TO_PUT
  + ENTER_COORDINATE_TO_REMOVE
  + COORDINATE_TO_PUT
  + COORDINATE_TO_REMOVE
  + COORDINATE_TO_MOVE
  + PLAYER_WIN
  + RESUME
  - message: String
  - Message(String)
  + getMessage(): String
}

tictactoe.views.Message .down.> Console

abstract class tictactoe.views.View {
  + View(StartController, PlayController, ResumeController)
  + interact()
  # {abstract} start()
  # {abstract} play()
  # {abstract} isResumed(): boolean
}
tictactoe.views.View *-down-> StartController
tictactoe.views.View *-down-> PlayController
tictactoe.views.View *-down-> ResumeController
@enduml

PlantUML version 1.2020.27beta2(Unknown compile time)
(GPL source distribution)
Java Runtime: Java(TM) SE Runtime Environment
JVM: Java HotSpot(TM) 64-Bit Server VM
Default Encoding: UTF-8
Language: en
Country: US
--></g></svg>