<?xml version="1.0" encoding="UTF-8" standalone="no"?><svg xmlns="http://www.w3.org/2000/svg" xmlns:xlink="http://www.w3.org/1999/xlink" contentScriptType="application/ecmascript" contentStyleType="text/css" height="347px" preserveAspectRatio="none" style="width:556px;height:347px;" version="1.1" viewBox="0 0 556 347" width="556px" zoomAndPan="magnify"><defs><filter height="300%" id="f1tp4qmtvdbeed" width="300%" x="-1" y="-1"><feGaussianBlur result="blurOut" stdDeviation="2.0"/><feColorMatrix in="blurOut" result="blurOut2" type="matrix" values="0 0 0 0 0 0 0 0 0 0 0 0 0 0 0 0 0 0 .4 0"/><feOffset dx="4.0" dy="4.0" in="blurOut2" result="blurOut3"/><feBlend in="SourceGraphic" in2="blurOut3" mode="normal"/></filter></defs><g><!--MD5=[c6efd01a6f310cf3950d2522b9f474d7]
cluster tictactoe.views.graphics--><polygon fill="#FFFFFF" filter="url(#f1tp4qmtvdbeed)" points="64.5,86,271.5,86,278.5,108.2969,484.5,108.2969,484.5,236,64.5,236,64.5,86" style="stroke:#000000;stroke-width:1.5;"/><line style="stroke:#000000;stroke-width:1.5;" x1="64.5" x2="278.5" y1="108.2969" y2="108.2969"/><text fill="#000000" font-family="sans-serif" font-size="14" font-weight="bold" lengthAdjust="spacingAndGlyphs" textLength="201" x="68.5" y="100.9951">tictactoe.views.graphics</text><!--MD5=[772dd3201fd937c98b35c61c5b2a37e1]
class tictactoe.views.graphics.GraphicsView--><rect codeLine="6" fill="#FEFECE" filter="url(#f1tp4qmtvdbeed)" height="99.2188" id="tictactoe.views.graphics.GraphicsView" style="stroke:#A80036;stroke-width:1.5;" width="387" x="81" y="121"/><ellipse cx="229.25" cy="137" fill="#ADD1B2" rx="11" ry="11" style="stroke:#A80036;stroke-width:1.0;"/><path d="M231.5938,132.6719 C230.6563,132.2344 230.0625,132.0938 229.1875,132.0938 C226.5625,132.0938 224.5625,134.1719 224.5625,136.8906 L224.5625,138.0156 C224.5625,140.5938 226.6719,142.4844 229.5625,142.4844 C230.7813,142.4844 231.9375,142.1875 232.6875,141.6406 C233.2656,141.2344 233.5938,140.7813 233.5938,140.3906 C233.5938,139.9375 233.2031,139.5469 232.7344,139.5469 C232.5156,139.5469 232.3125,139.625 232.125,139.8125 C231.6719,140.2969 231.6719,140.2969 231.4844,140.3906 C231.0625,140.6563 230.375,140.7813 229.6094,140.7813 C227.5625,140.7813 226.2656,139.6875 226.2656,137.9844 L226.2656,136.8906 C226.2656,135.1094 227.5156,133.7969 229.25,133.7969 C229.8281,133.7969 230.4375,133.9531 230.9063,134.2031 C231.3906,134.4844 231.5625,134.7031 231.6563,135.1094 C231.7188,135.5156 231.75,135.6406 231.8906,135.7656 C232.0313,135.9063 232.2656,136.0156 232.4844,136.0156 C232.75,136.0156 233.0156,135.875 233.1875,135.6563 C233.2969,135.5 233.3281,135.3125 233.3281,134.8906 L233.3281,133.4688 C233.3281,133.0313 233.3125,132.9063 233.2188,132.75 C233.0625,132.4844 232.7813,132.3438 232.4844,132.3438 C232.1875,132.3438 231.9844,132.4375 231.7656,132.75 L231.5938,132.6719 Z " fill="#000000"/><text fill="#000000" font-family="sans-serif" font-size="12" lengthAdjust="spacingAndGlyphs" textLength="82" x="249.75" y="141.1543">GraphicsView</text><line style="stroke:#A80036;stroke-width:1.5;" x1="82" x2="467" y1="153" y2="153"/><line style="stroke:#A80036;stroke-width:1.5;" x1="82" x2="467" y1="161" y2="161"/><ellipse cx="92" cy="172" fill="#84BE84" rx="3" ry="3" style="stroke:#038048;stroke-width:1.0;"/><text fill="#000000" font-family="sans-serif" font-size="11" lengthAdjust="spacingAndGlyphs" textLength="361" x="101" y="175.2104">GraphicsView(StartController, PlayController, ResumeController)</text><polygon fill="#FFFF44" points="92,179.8047,96,183.8047,92,187.8047,88,183.8047" style="stroke:#B38D22;stroke-width:1.0;"/><text fill="#000000" font-family="sans-serif" font-size="11" lengthAdjust="spacingAndGlyphs" textLength="33" x="101" y="188.0151">start()</text><polygon fill="#FFFF44" points="92,192.6094,96,196.6094,92,200.6094,88,196.6094" style="stroke:#B38D22;stroke-width:1.0;"/><text fill="#000000" font-family="sans-serif" font-size="11" lengthAdjust="spacingAndGlyphs" textLength="32" x="101" y="200.8198">play()</text><polygon fill="#FFFF44" points="92,205.4141,96,209.4141,92,213.4141,88,209.4141" style="stroke:#B38D22;stroke-width:1.0;"/><text fill="#000000" font-family="sans-serif" font-size="11" lengthAdjust="spacingAndGlyphs" textLength="124" x="101" y="213.6245">isResumed(): boolean</text><!--MD5=[47c371471411cfedeee61b1a5bdaee47]
class StartController--><rect codeLine="1" fill="#FEFECE" filter="url(#f1tp4qmtvdbeed)" height="53.9375" id="StartController" style="stroke:#A80036;stroke-width:1.5;" width="155" x="7" y="280"/><ellipse cx="22" cy="298.9688" fill="#ADD1B2" rx="11" ry="11" style="stroke:#A80036;stroke-width:1.0;"/><path d="M24.3438,294.6406 C23.4063,294.2031 22.8125,294.0625 21.9375,294.0625 C19.3125,294.0625 17.3125,296.1406 17.3125,298.8594 L17.3125,299.9844 C17.3125,302.5625 19.4219,304.4531 22.3125,304.4531 C23.5313,304.4531 24.6875,304.1563 25.4375,303.6094 C26.0156,303.2031 26.3438,302.75 26.3438,302.3594 C26.3438,301.9063 25.9531,301.5156 25.4844,301.5156 C25.2656,301.5156 25.0625,301.5938 24.875,301.7813 C24.4219,302.2656 24.4219,302.2656 24.2344,302.3594 C23.8125,302.625 23.125,302.75 22.3594,302.75 C20.3125,302.75 19.0156,301.6563 19.0156,299.9531 L19.0156,298.8594 C19.0156,297.0781 20.2656,295.7656 22,295.7656 C22.5781,295.7656 23.1875,295.9219 23.6563,296.1719 C24.1406,296.4531 24.3125,296.6719 24.4063,297.0781 C24.4688,297.4844 24.5,297.6094 24.6406,297.7344 C24.7813,297.875 25.0156,297.9844 25.2344,297.9844 C25.5,297.9844 25.7656,297.8438 25.9375,297.625 C26.0469,297.4688 26.0781,297.2813 26.0781,296.8594 L26.0781,295.4375 C26.0781,295 26.0625,294.875 25.9688,294.7188 C25.8125,294.4531 25.5313,294.3125 25.2344,294.3125 C24.9375,294.3125 24.7344,294.4063 24.5156,294.7188 L24.3438,294.6406 Z " fill="#000000"/><text fill="#000000" font-family="sans-serif" font-size="12" lengthAdjust="spacingAndGlyphs" textLength="123" x="36" y="296.1387">tictactoe.controllers.</text><text fill="#000000" font-family="sans-serif" font-size="12" lengthAdjust="spacingAndGlyphs" textLength="87" x="54" y="310.1074">StartController</text><line style="stroke:#A80036;stroke-width:1.5;" x1="8" x2="161" y1="317.9375" y2="317.9375"/><line style="stroke:#A80036;stroke-width:1.5;" x1="8" x2="161" y1="325.9375" y2="325.9375"/><!--MD5=[cc8600b868f8dfab2c8d497bce62f90a]
class PlayController--><rect codeLine="2" fill="#FEFECE" filter="url(#f1tp4qmtvdbeed)" height="53.9375" id="PlayController" style="stroke:#A80036;stroke-width:1.5;" width="155" x="197" y="280"/><ellipse cx="212" cy="298.9688" fill="#ADD1B2" rx="11" ry="11" style="stroke:#A80036;stroke-width:1.0;"/><path d="M214.3438,294.6406 C213.4063,294.2031 212.8125,294.0625 211.9375,294.0625 C209.3125,294.0625 207.3125,296.1406 207.3125,298.8594 L207.3125,299.9844 C207.3125,302.5625 209.4219,304.4531 212.3125,304.4531 C213.5313,304.4531 214.6875,304.1563 215.4375,303.6094 C216.0156,303.2031 216.3438,302.75 216.3438,302.3594 C216.3438,301.9063 215.9531,301.5156 215.4844,301.5156 C215.2656,301.5156 215.0625,301.5938 214.875,301.7813 C214.4219,302.2656 214.4219,302.2656 214.2344,302.3594 C213.8125,302.625 213.125,302.75 212.3594,302.75 C210.3125,302.75 209.0156,301.6563 209.0156,299.9531 L209.0156,298.8594 C209.0156,297.0781 210.2656,295.7656 212,295.7656 C212.5781,295.7656 213.1875,295.9219 213.6563,296.1719 C214.1406,296.4531 214.3125,296.6719 214.4063,297.0781 C214.4688,297.4844 214.5,297.6094 214.6406,297.7344 C214.7813,297.875 215.0156,297.9844 215.2344,297.9844 C215.5,297.9844 215.7656,297.8438 215.9375,297.625 C216.0469,297.4688 216.0781,297.2813 216.0781,296.8594 L216.0781,295.4375 C216.0781,295 216.0625,294.875 215.9688,294.7188 C215.8125,294.4531 215.5313,294.3125 215.2344,294.3125 C214.9375,294.3125 214.7344,294.4063 214.5156,294.7188 L214.3438,294.6406 Z " fill="#000000"/><text fill="#000000" font-family="sans-serif" font-size="12" lengthAdjust="spacingAndGlyphs" textLength="123" x="226" y="296.1387">tictactoe.controllers.</text><text fill="#000000" font-family="sans-serif" font-size="12" lengthAdjust="spacingAndGlyphs" textLength="82" x="246.5" y="310.1074">PlayController</text><line style="stroke:#A80036;stroke-width:1.5;" x1="198" x2="351" y1="317.9375" y2="317.9375"/><line style="stroke:#A80036;stroke-width:1.5;" x1="198" x2="351" y1="325.9375" y2="325.9375"/><!--MD5=[1a47bbf44ccee225df9b18c5b6629853]
class ResumeController--><rect codeLine="3" fill="#FEFECE" filter="url(#f1tp4qmtvdbeed)" height="53.9375" id="ResumeController" style="stroke:#A80036;stroke-width:1.5;" width="155" x="387" y="280"/><ellipse cx="402" cy="298.9688" fill="#ADD1B2" rx="11" ry="11" style="stroke:#A80036;stroke-width:1.0;"/><path d="M404.3438,294.6406 C403.4063,294.2031 402.8125,294.0625 401.9375,294.0625 C399.3125,294.0625 397.3125,296.1406 397.3125,298.8594 L397.3125,299.9844 C397.3125,302.5625 399.4219,304.4531 402.3125,304.4531 C403.5313,304.4531 404.6875,304.1563 405.4375,303.6094 C406.0156,303.2031 406.3438,302.75 406.3438,302.3594 C406.3438,301.9063 405.9531,301.5156 405.4844,301.5156 C405.2656,301.5156 405.0625,301.5938 404.875,301.7813 C404.4219,302.2656 404.4219,302.2656 404.2344,302.3594 C403.8125,302.625 403.125,302.75 402.3594,302.75 C400.3125,302.75 399.0156,301.6563 399.0156,299.9531 L399.0156,298.8594 C399.0156,297.0781 400.2656,295.7656 402,295.7656 C402.5781,295.7656 403.1875,295.9219 403.6563,296.1719 C404.1406,296.4531 404.3125,296.6719 404.4063,297.0781 C404.4688,297.4844 404.5,297.6094 404.6406,297.7344 C404.7813,297.875 405.0156,297.9844 405.2344,297.9844 C405.5,297.9844 405.7656,297.8438 405.9375,297.625 C406.0469,297.4688 406.0781,297.2813 406.0781,296.8594 L406.0781,295.4375 C406.0781,295 406.0625,294.875 405.9688,294.7188 C405.8125,294.4531 405.5313,294.3125 405.2344,294.3125 C404.9375,294.3125 404.7344,294.4063 404.5156,294.7188 L404.3438,294.6406 Z " fill="#000000"/><text fill="#000000" font-family="sans-serif" font-size="12" lengthAdjust="spacingAndGlyphs" textLength="123" x="416" y="296.1387">tictactoe.controllers.</text><text fill="#000000" font-family="sans-serif" font-size="12" lengthAdjust="spacingAndGlyphs" textLength="107" x="424" y="310.1074">ResumeController</text><line style="stroke:#A80036;stroke-width:1.5;" x1="388" x2="541" y1="317.9375" y2="317.9375"/><line style="stroke:#A80036;stroke-width:1.5;" x1="388" x2="541" y1="325.9375" y2="325.9375"/><!--MD5=[c045e12321b83266d36d22b9096c24ea]
class View--><rect codeLine="4" fill="#FEFECE" filter="url(#f1tp4qmtvdbeed)" height="53.9375" id="View" style="stroke:#A80036;stroke-width:1.5;" width="126" x="211.5" y="7"/><ellipse cx="226.5" cy="25.9688" fill="#A9DCDF" rx="11" ry="11" style="stroke:#A80036;stroke-width:1.0;"/><path d="M228.5781,27.7813 L228.9688,28.7656 L228.5781,28.7656 C228.125,28.7656 228.0156,28.7813 227.8594,28.8906 C227.6094,29.0469 227.4531,29.3281 227.4531,29.625 C227.4531,29.8906 227.5938,30.1406 227.8125,30.2969 C227.9531,30.4219 228.1563,30.4688 228.5781,30.4688 L230.9375,30.4688 C231.2969,30.4688 231.5156,30.4375 231.6563,30.3438 C231.9063,30.2031 232.0625,29.9063 232.0625,29.625 C232.0625,29.3438 231.9219,29.0938 231.7031,28.9375 C231.5313,28.7969 231.375,28.7656 230.9063,28.7656 L227.5156,20.5625 L223.8438,20.5625 C223.3906,20.5625 223.2656,20.5781 223.1094,20.6719 C222.8594,20.8438 222.7031,21.125 222.7031,21.4063 C222.7031,21.6875 222.8438,21.9375 223.0625,22.1094 C223.2344,22.2188 223.4063,22.25 223.8438,22.25 L224.9219,22.25 L222.2813,28.7656 C221.8594,28.7656 221.7031,28.7813 221.5469,28.8906 C221.2969,29.0469 221.1406,29.3281 221.1406,29.625 C221.1406,30.1875 221.5156,30.4688 222.2656,30.4688 L224.5313,30.4688 C224.8906,30.4688 225.1094,30.4375 225.2344,30.3438 C225.5,30.2031 225.6406,29.9063 225.6406,29.625 C225.6406,29.3438 225.5156,29.0938 225.2969,28.9219 C225.125,28.7969 224.9844,28.7656 224.5313,28.7656 L224.1406,28.7656 L224.5313,27.7813 L228.5781,27.7813 Z M227.875,26.0781 L225.2031,26.0781 L226.5469,22.8125 L227.875,26.0781 Z " fill="#000000"/><text fill="#000000" font-family="sans-serif" font-size="12" font-style="italic" lengthAdjust="spacingAndGlyphs" textLength="94" x="240.5" y="23.1387">tictactoe.views.</text><text fill="#000000" font-family="sans-serif" font-size="12" font-style="italic" lengthAdjust="spacingAndGlyphs" textLength="28" x="273.5" y="37.1074">View</text><line style="stroke:#A80036;stroke-width:1.5;" x1="212.5" x2="336.5" y1="44.9375" y2="44.9375"/><line style="stroke:#A80036;stroke-width:1.5;" x1="212.5" x2="336.5" y1="52.9375" y2="52.9375"/><!--MD5=[dd49f0cbe1ae6e82d2a046a768a45f47]
reverse link View to tictactoe.views.graphics.GraphicsView--><path codeLine="12" d="M274.5,81.358 C274.5,94.156 274.5,108.075 274.5,120.991 " fill="none" id="View-backto-tictactoe.views.graphics.GraphicsView" style="stroke:#A80036;stroke-width:1.0;"/><polygon fill="none" points="267.5,81.252,274.5,61.252,281.5,81.252,267.5,81.252" style="stroke:#A80036;stroke-width:1.0;"/><!--MD5=[0db36e31be561cd0cbdab8f689c30700]
link tictactoe.views.graphics.GraphicsView to StartController--><path codeLine="13" d="M205.906,220.058 C178.988,239.1127 148.997,260.3428 125.559,276.9348 " fill="none" id="tictactoe.views.graphics.GraphicsView-to-StartController" style="stroke:#A80036;stroke-width:1.0;stroke-dasharray:7.0,7.0;"/><polygon fill="#A80036" points="121.261,279.9774,130.9175,278.0405,125.3415,277.0878,126.2941,271.5117,121.261,279.9774" style="stroke:#A80036;stroke-width:1.0;"/><!--MD5=[72f7856ffc55acc0f0f43c8a09b21d70]
link tictactoe.views.graphics.GraphicsView to PlayController--><path codeLine="14" d="M274.5,220.058 C274.5,238.1754 274.5,258.2594 274.5,274.4534 " fill="none" id="tictactoe.views.graphics.GraphicsView-to-PlayController" style="stroke:#A80036;stroke-width:1.0;stroke-dasharray:7.0,7.0;"/><polygon fill="#A80036" points="274.5,279.7877,278.5,270.7877,274.5,274.7877,270.5,270.7877,274.5,279.7877" style="stroke:#A80036;stroke-width:1.0;"/><!--MD5=[0fd5a399c03e8117044e221fa1efaf9c]
link tictactoe.views.graphics.GraphicsView to ResumeController--><path codeLine="15" d="M343.094,220.058 C370.012,239.1127 400.003,260.3428 423.441,276.9348 " fill="none" id="tictactoe.views.graphics.GraphicsView-to-ResumeController" style="stroke:#A80036;stroke-width:1.0;stroke-dasharray:7.0,7.0;"/><polygon fill="#A80036" points="427.739,279.9774,422.7059,271.5117,423.6585,277.0878,418.0825,278.0405,427.739,279.9774" style="stroke:#A80036;stroke-width:1.0;"/><!--MD5=[bbffba0ad756ce3c225a2f2d928b2e18]
@startuml
class StartController as "tictactoe.controllers.\nStartController"
class PlayController as "tictactoe.controllers.\nPlayController"
class ResumeController as "tictactoe.controllers.\nResumeController"
abstract class View as "tictactoe.views.\nView"

class  tictactoe.views.graphics.GraphicsView{
  + GraphicsView(StartController, PlayController, ResumeController)
  # start()
  # play()
  # isResumed(): boolean
}
View <|-down- tictactoe.views.graphics.GraphicsView
tictactoe.views.graphics.GraphicsView .down.> StartController
tictactoe.views.graphics.GraphicsView .down.> PlayController
tictactoe.views.graphics.GraphicsView .down.> ResumeController
@enduml

PlantUML version 1.2020.27beta2(Unknown compile time)
(GPL source distribution)
Java Runtime: Java(TM) SE Runtime Environment
JVM: Java HotSpot(TM) 64-Bit Server VM
Default Encoding: UTF-8
Language: en
Country: US
--></g></svg>