<?xml version="1.0" encoding="UTF-8" standalone="no"?><svg xmlns="http://www.w3.org/2000/svg" xmlns:xlink="http://www.w3.org/1999/xlink" contentScriptType="application/ecmascript" contentStyleType="text/css" height="1250px" preserveAspectRatio="none" style="width:954px;height:1250px;" version="1.1" viewBox="0 0 954 1250" width="954px" zoomAndPan="magnify"><defs><filter height="300%" id="f10ol56iqpnz0p" width="300%" x="-1" y="-1"><feGaussianBlur result="blurOut" stdDeviation="2.0"/><feColorMatrix in="blurOut" result="blurOut2" type="matrix" values="0 0 0 0 0 0 0 0 0 0 0 0 0 0 0 0 0 0 .4 0"/><feOffset dx="4.0" dy="4.0" in="blurOut2" result="blurOut3"/><feBlend in="SourceGraphic" in2="blurOut3" mode="normal"/></filter></defs><g><!--MD5=[51cd642fcc96b47682a93d9084d46dec]
cluster tictactoe.models--><polygon fill="#FFFFFF" filter="url(#f10ol56iqpnz0p)" points="377.7214,6,522.7214,6,529.7214,28.2969,789.7214,28.2969,789.7214,1139,377.7214,1139,377.7214,6" style="stroke:#000000;stroke-width:1.5;"/><line style="stroke:#000000;stroke-width:1.5;" x1="377.7214" x2="529.7214" y1="28.2969" y2="28.2969"/><text fill="#000000" font-family="sans-serif" font-size="14" font-weight="bold" lengthAdjust="spacingAndGlyphs" textLength="139" x="381.7214" y="20.9951">tictactoe.models</text><!--MD5=[f2254b5fdbf93effa50eb20dc057829b]
class tictactoe.models.Board--><rect codeLine="8" fill="#FEFECE" filter="url(#f10ol56iqpnz0p)" height="188.8516" id="tictactoe.models.Board" style="stroke:#A80036;stroke-width:1.5;" width="262" x="507.7214" y="711"/><ellipse cx="616.4714" cy="727" fill="#ADD1B2" rx="11" ry="11" style="stroke:#A80036;stroke-width:1.0;"/><path d="M618.8152,722.6719 C617.8777,722.2344 617.2839,722.0938 616.4089,722.0938 C613.7839,722.0938 611.7839,724.1719 611.7839,726.8906 L611.7839,728.0156 C611.7839,730.5938 613.8933,732.4844 616.7839,732.4844 C618.0027,732.4844 619.1589,732.1875 619.9089,731.6406 C620.4871,731.2344 620.8152,730.7813 620.8152,730.3906 C620.8152,729.9375 620.4246,729.5469 619.9558,729.5469 C619.7371,729.5469 619.5339,729.625 619.3464,729.8125 C618.8933,730.2969 618.8933,730.2969 618.7058,730.3906 C618.2839,730.6563 617.5964,730.7813 616.8308,730.7813 C614.7839,730.7813 613.4871,729.6875 613.4871,727.9844 L613.4871,726.8906 C613.4871,725.1094 614.7371,723.7969 616.4714,723.7969 C617.0496,723.7969 617.6589,723.9531 618.1277,724.2031 C618.6121,724.4844 618.7839,724.7031 618.8777,725.1094 C618.9402,725.5156 618.9714,725.6406 619.1121,725.7656 C619.2527,725.9063 619.4871,726.0156 619.7058,726.0156 C619.9714,726.0156 620.2371,725.875 620.4089,725.6563 C620.5183,725.5 620.5496,725.3125 620.5496,724.8906 L620.5496,723.4688 C620.5496,723.0313 620.5339,722.9063 620.4402,722.75 C620.2839,722.4844 620.0027,722.3438 619.7058,722.3438 C619.4089,722.3438 619.2058,722.4375 618.9871,722.75 L618.8152,722.6719 Z " fill="#000000"/><text fill="#000000" font-family="sans-serif" font-size="12" lengthAdjust="spacingAndGlyphs" textLength="36" x="636.9714" y="731.1543">Board</text><line style="stroke:#A80036;stroke-width:1.5;" x1="508.7214" x2="768.7214" y1="743" y2="743"/><line style="stroke:#A80036;stroke-width:1.5;" x1="508.7214" x2="768.7214" y1="751" y2="751"/><ellipse cx="518.7214" cy="762" fill="#84BE84" rx="3" ry="3" style="stroke:#038048;stroke-width:1.0;"/><text fill="#000000" font-family="sans-serif" font-size="11" lengthAdjust="spacingAndGlyphs" textLength="41" x="527.7214" y="765.2104">Board()</text><polygon fill="#4177AF" points="518.7214,770.8047,514.7214,776.8047,522.7214,776.8047" style="stroke:#1963A0;stroke-width:1.0;"/><text fill="#000000" font-family="sans-serif" font-size="11" lengthAdjust="spacingAndGlyphs" textLength="38" x="527.7214" y="778.0151">reset()</text><polygon fill="#4177AF" points="518.7214,783.6094,514.7214,789.6094,522.7214,789.6094" style="stroke:#1963A0;stroke-width:1.0;"/><text fill="#000000" font-family="sans-serif" font-size="11" lengthAdjust="spacingAndGlyphs" textLength="166" x="527.7214" y="790.8198">getToken(Coordinate): Token</text><polygon fill="#4177AF" points="518.7214,796.4141,514.7214,802.4141,522.7214,802.4141" style="stroke:#1963A0;stroke-width:1.0;"/><text fill="#000000" font-family="sans-serif" font-size="11" lengthAdjust="spacingAndGlyphs" textLength="133" x="527.7214" y="803.6245">isCompleted(): boolean</text><polygon fill="#4177AF" points="518.7214,809.2188,514.7214,815.2188,522.7214,815.2188" style="stroke:#1963A0;stroke-width:1.0;"/><text fill="#000000" font-family="sans-serif" font-size="11" lengthAdjust="spacingAndGlyphs" textLength="130" x="527.7214" y="816.4292">put(Coordinate, Token)</text><polygon fill="#4177AF" points="518.7214,822.0234,514.7214,828.0234,522.7214,828.0234" style="stroke:#1963A0;stroke-width:1.0;"/><text fill="#000000" font-family="sans-serif" font-size="11" lengthAdjust="spacingAndGlyphs" textLength="172" x="527.7214" y="829.2339">move(Coordinate, Coordinate)</text><rect fill="#F24D5C" height="6" style="stroke:#C82930;stroke-width:1.0;" width="6" x="515.7214" y="835.8281"/><text fill="#000000" font-family="sans-serif" font-size="11" lengthAdjust="spacingAndGlyphs" textLength="115" x="527.7214" y="842.0386">remove(Coordinate)</text><polygon fill="#4177AF" points="518.7214,847.6328,514.7214,853.6328,522.7214,853.6328" style="stroke:#1963A0;stroke-width:1.0;"/><text fill="#000000" font-family="sans-serif" font-size="11" lengthAdjust="spacingAndGlyphs" textLength="227" x="527.7214" y="854.8433">isOccupied(Coordinate, Token): boolean</text><polygon fill="#4177AF" points="518.7214,860.4375,514.7214,866.4375,522.7214,866.4375" style="stroke:#1963A0;stroke-width:1.0;"/><text fill="#000000" font-family="sans-serif" font-size="11" lengthAdjust="spacingAndGlyphs" textLength="168" x="527.7214" y="867.6479">isEmpty(Coordinate): boolean</text><polygon fill="#4177AF" points="518.7214,873.2422,514.7214,879.2422,522.7214,879.2422" style="stroke:#1963A0;stroke-width:1.0;"/><text fill="#000000" font-family="sans-serif" font-size="11" lengthAdjust="spacingAndGlyphs" textLength="163" x="527.7214" y="880.4526">isTicTacToe(Token): boolean</text><rect fill="#F24D5C" height="6" style="stroke:#C82930;stroke-width:1.0;" width="6" x="515.7214" y="887.0469"/><text fill="#000000" font-family="sans-serif" font-size="11" lengthAdjust="spacingAndGlyphs" textLength="236" x="527.7214" y="893.2573">getCoordinates(Token): List&lt;Coordinate&gt;</text><!--MD5=[55d70ecb9e3ba4786ec1f15d0b7dce13]
class tictactoe.models.Coordinate--><rect codeLine="26" fill="#FEFECE" filter="url(#f10ol56iqpnz0p)" height="163.2422" id="tictactoe.models.Coordinate" style="stroke:#A80036;stroke-width:1.5;" width="224" x="393.7214" y="960"/><ellipse cx="468.4714" cy="976" fill="#ADD1B2" rx="11" ry="11" style="stroke:#A80036;stroke-width:1.0;"/><path d="M470.8152,971.6719 C469.8777,971.2344 469.2839,971.0938 468.4089,971.0938 C465.7839,971.0938 463.7839,973.1719 463.7839,975.8906 L463.7839,977.0156 C463.7839,979.5938 465.8933,981.4844 468.7839,981.4844 C470.0027,981.4844 471.1589,981.1875 471.9089,980.6406 C472.4871,980.2344 472.8152,979.7813 472.8152,979.3906 C472.8152,978.9375 472.4246,978.5469 471.9558,978.5469 C471.7371,978.5469 471.5339,978.625 471.3464,978.8125 C470.8933,979.2969 470.8933,979.2969 470.7058,979.3906 C470.2839,979.6563 469.5964,979.7813 468.8308,979.7813 C466.7839,979.7813 465.4871,978.6875 465.4871,976.9844 L465.4871,975.8906 C465.4871,974.1094 466.7371,972.7969 468.4714,972.7969 C469.0496,972.7969 469.6589,972.9531 470.1277,973.2031 C470.6121,973.4844 470.7839,973.7031 470.8777,974.1094 C470.9402,974.5156 470.9714,974.6406 471.1121,974.7656 C471.2527,974.9063 471.4871,975.0156 471.7058,975.0156 C471.9714,975.0156 472.2371,974.875 472.4089,974.6563 C472.5183,974.5 472.5496,974.3125 472.5496,973.8906 L472.5496,972.4688 C472.5496,972.0313 472.5339,971.9063 472.4402,971.75 C472.2839,971.4844 472.0027,971.3438 471.7058,971.3438 C471.4089,971.3438 471.2058,971.4375 470.9871,971.75 L470.8152,971.6719 Z " fill="#000000"/><text fill="#000000" font-family="sans-serif" font-size="12" lengthAdjust="spacingAndGlyphs" textLength="66" x="488.9714" y="980.1543">Coordinate</text><line style="stroke:#A80036;stroke-width:1.5;" x1="394.7214" x2="616.7214" y1="992" y2="992"/><polygon fill="none" points="404.7214,999,400.7214,1005,408.7214,1005" style="stroke:#1963A0;stroke-width:1.0;"/><text fill="#000000" font-family="sans-serif" font-size="11" lengthAdjust="spacingAndGlyphs" text-decoration="underline" textLength="178" x="413.7214" y="1006.2104">NULL_COORDINATE: Coordinate</text><ellipse cx="404.7214" cy="1015.8047" fill="none" rx="3" ry="3" style="stroke:#038048;stroke-width:1.0;"/><text fill="#000000" font-family="sans-serif" font-size="11" lengthAdjust="spacingAndGlyphs" text-decoration="underline" textLength="85" x="413.7214" y="1019.0151">DIMENSION: int</text><line style="stroke:#A80036;stroke-width:1.5;" x1="394.7214" x2="616.7214" y1="1025.6094" y2="1025.6094"/><ellipse cx="404.7214" cy="1036.6094" fill="#84BE84" rx="3" ry="3" style="stroke:#038048;stroke-width:1.0;"/><text fill="#000000" font-family="sans-serif" font-size="11" lengthAdjust="spacingAndGlyphs" textLength="70" x="413.7214" y="1039.8198">Coordinate()</text><ellipse cx="404.7214" cy="1049.4141" fill="#84BE84" rx="3" ry="3" style="stroke:#038048;stroke-width:1.0;"/><text fill="#000000" font-family="sans-serif" font-size="11" lengthAdjust="spacingAndGlyphs" textLength="105" x="413.7214" y="1052.6245">Coordinate(int, int)</text><ellipse cx="404.7214" cy="1062.2188" fill="#84BE84" rx="3" ry="3" style="stroke:#038048;stroke-width:1.0;"/><text fill="#000000" font-family="sans-serif" font-size="11" lengthAdjust="spacingAndGlyphs" textLength="91" x="413.7214" y="1065.4292">isNull(): boolean</text><ellipse cx="404.7214" cy="1075.0234" fill="#84BE84" rx="3" ry="3" style="stroke:#038048;stroke-width:1.0;"/><text fill="#000000" font-family="sans-serif" font-size="11" lengthAdjust="spacingAndGlyphs" textLength="198" x="413.7214" y="1078.2339">getDirection(Coordinate): Direction</text><polygon fill="#4177AF" points="404.7214,1083.8281,400.7214,1089.8281,408.7214,1089.8281" style="stroke:#1963A0;stroke-width:1.0;"/><text fill="#000000" font-family="sans-serif" font-size="11" lengthAdjust="spacingAndGlyphs" textLength="164" x="413.7214" y="1091.0386">inInverseDiagonal(): boolean</text><ellipse cx="404.7214" cy="1100.6328" fill="#84BE84" rx="3" ry="3" style="stroke:#038048;stroke-width:1.0;"/><text fill="#000000" font-family="sans-serif" font-size="11" lengthAdjust="spacingAndGlyphs" textLength="51" x="413.7214" y="1103.8433">random()</text><ellipse cx="404.7214" cy="1113.4375" fill="#84BE84" rx="3" ry="3" style="stroke:#038048;stroke-width:1.0;"/><text fill="#000000" font-family="sans-serif" font-size="11" lengthAdjust="spacingAndGlyphs" textLength="136" x="413.7214" y="1116.6479">equals(Object): boolean</text><!--MD5=[8d3188f3c370ea7d5d91d12bca83b67a]
class tictactoe.models.Game--><rect codeLine="43" fill="#FEFECE" filter="url(#f10ol56iqpnz0p)" height="201.6563" id="tictactoe.models.Game" style="stroke:#A80036;stroke-width:1.5;" width="231" x="468.2214" y="41"/><ellipse cx="561.9714" cy="57" fill="#ADD1B2" rx="11" ry="11" style="stroke:#A80036;stroke-width:1.0;"/><path d="M564.3152,52.6719 C563.3777,52.2344 562.7839,52.0938 561.9089,52.0938 C559.2839,52.0938 557.2839,54.1719 557.2839,56.8906 L557.2839,58.0156 C557.2839,60.5938 559.3933,62.4844 562.2839,62.4844 C563.5027,62.4844 564.6589,62.1875 565.4089,61.6406 C565.9871,61.2344 566.3152,60.7813 566.3152,60.3906 C566.3152,59.9375 565.9246,59.5469 565.4558,59.5469 C565.2371,59.5469 565.0339,59.625 564.8464,59.8125 C564.3933,60.2969 564.3933,60.2969 564.2058,60.3906 C563.7839,60.6563 563.0964,60.7813 562.3308,60.7813 C560.2839,60.7813 558.9871,59.6875 558.9871,57.9844 L558.9871,56.8906 C558.9871,55.1094 560.2371,53.7969 561.9714,53.7969 C562.5496,53.7969 563.1589,53.9531 563.6277,54.2031 C564.1121,54.4844 564.2839,54.7031 564.3777,55.1094 C564.4402,55.5156 564.4714,55.6406 564.6121,55.7656 C564.7527,55.9063 564.9871,56.0156 565.2058,56.0156 C565.4714,56.0156 565.7371,55.875 565.9089,55.6563 C566.0183,55.5 566.0496,55.3125 566.0496,54.8906 L566.0496,53.4688 C566.0496,53.0313 566.0339,52.9063 565.9402,52.75 C565.7839,52.4844 565.5027,52.3438 565.2058,52.3438 C564.9089,52.3438 564.7058,52.4375 564.4871,52.75 L564.3152,52.6719 Z " fill="#000000"/><text fill="#000000" font-family="sans-serif" font-size="12" lengthAdjust="spacingAndGlyphs" textLength="35" x="582.4714" y="61.1543">Game</text><line style="stroke:#A80036;stroke-width:1.5;" x1="469.2214" x2="698.2214" y1="73" y2="73"/><line style="stroke:#A80036;stroke-width:1.5;" x1="469.2214" x2="698.2214" y1="81" y2="81"/><ellipse cx="479.2214" cy="92" fill="#84BE84" rx="3" ry="3" style="stroke:#038048;stroke-width:1.0;"/><text fill="#000000" font-family="sans-serif" font-size="11" lengthAdjust="spacingAndGlyphs" textLength="43" x="488.2214" y="95.2104">Game()</text><ellipse cx="479.2214" cy="104.8047" fill="#84BE84" rx="3" ry="3" style="stroke:#038048;stroke-width:1.0;"/><text fill="#000000" font-family="sans-serif" font-size="11" lengthAdjust="spacingAndGlyphs" textLength="38" x="488.2214" y="108.0151">reset()</text><ellipse cx="479.2214" cy="117.6094" fill="#84BE84" rx="3" ry="3" style="stroke:#038048;stroke-width:1.0;"/><text fill="#000000" font-family="sans-serif" font-size="11" lengthAdjust="spacingAndGlyphs" textLength="72" x="488.2214" y="120.8198">setUsers(int)</text><ellipse cx="479.2214" cy="130.4141" fill="#84BE84" rx="3" ry="3" style="stroke:#038048;stroke-width:1.0;"/><text fill="#000000" font-family="sans-serif" font-size="11" lengthAdjust="spacingAndGlyphs" textLength="159" x="488.2214" y="133.6245">isBoardComplete(): boolean</text><ellipse cx="479.2214" cy="143.2188" fill="#84BE84" rx="3" ry="3" style="stroke:#038048;stroke-width:1.0;"/><text fill="#000000" font-family="sans-serif" font-size="11" lengthAdjust="spacingAndGlyphs" textLength="96" x="488.2214" y="146.4292">isUser(): boolean</text><ellipse cx="479.2214" cy="156.0234" fill="#84BE84" rx="3" ry="3" style="stroke:#038048;stroke-width:1.0;"/><text fill="#000000" font-family="sans-serif" font-size="11" lengthAdjust="spacingAndGlyphs" textLength="121" x="488.2214" y="159.2339">put(Coordinate): Error</text><ellipse cx="479.2214" cy="168.8281" fill="#84BE84" rx="3" ry="3" style="stroke:#038048;stroke-width:1.0;"/><text fill="#000000" font-family="sans-serif" font-size="11" lengthAdjust="spacingAndGlyphs" textLength="205" x="488.2214" y="172.0386">move(Coordinate, Coordinate): Error</text><ellipse cx="479.2214" cy="181.6328" fill="#84BE84" rx="3" ry="3" style="stroke:#038048;stroke-width:1.0;"/><text fill="#000000" font-family="sans-serif" font-size="11" lengthAdjust="spacingAndGlyphs" textLength="60" x="488.2214" y="184.8433">next(Error)</text><ellipse cx="479.2214" cy="194.4375" fill="#84BE84" rx="3" ry="3" style="stroke:#038048;stroke-width:1.0;"/><text fill="#000000" font-family="sans-serif" font-size="11" lengthAdjust="spacingAndGlyphs" textLength="128" x="488.2214" y="197.6479">isTicTacToe(): boolean</text><ellipse cx="479.2214" cy="207.2422" fill="#84BE84" rx="3" ry="3" style="stroke:#038048;stroke-width:1.0;"/><text fill="#000000" font-family="sans-serif" font-size="11" lengthAdjust="spacingAndGlyphs" textLength="166" x="488.2214" y="210.4526">getToken(Coordinate): Token</text><ellipse cx="479.2214" cy="220.0469" fill="#84BE84" rx="3" ry="3" style="stroke:#038048;stroke-width:1.0;"/><text fill="#000000" font-family="sans-serif" font-size="11" lengthAdjust="spacingAndGlyphs" textLength="104" x="488.2214" y="223.2573">getToken(): Token</text><ellipse cx="479.2214" cy="232.8516" fill="#84BE84" rx="3" ry="3" style="stroke:#038048;stroke-width:1.0;"/><text fill="#000000" font-family="sans-serif" font-size="11" lengthAdjust="spacingAndGlyphs" textLength="112" x="488.2214" y="236.062">getMaxPlayers(): int</text><!--MD5=[b42b9147ed7462532394f7fe6f96703d]
class tictactoe.models.Turn--><rect codeLine="74" fill="#FEFECE" filter="url(#f10ol56iqpnz0p)" height="188.8516" id="tictactoe.models.Turn" style="stroke:#A80036;stroke-width:1.5;" width="231" x="468.2214" y="303"/><ellipse cx="566.4714" cy="319" fill="#ADD1B2" rx="11" ry="11" style="stroke:#A80036;stroke-width:1.0;"/><path d="M568.8152,314.6719 C567.8777,314.2344 567.2839,314.0938 566.4089,314.0938 C563.7839,314.0938 561.7839,316.1719 561.7839,318.8906 L561.7839,320.0156 C561.7839,322.5938 563.8933,324.4844 566.7839,324.4844 C568.0027,324.4844 569.1589,324.1875 569.9089,323.6406 C570.4871,323.2344 570.8152,322.7813 570.8152,322.3906 C570.8152,321.9375 570.4246,321.5469 569.9558,321.5469 C569.7371,321.5469 569.5339,321.625 569.3464,321.8125 C568.8933,322.2969 568.8933,322.2969 568.7058,322.3906 C568.2839,322.6563 567.5964,322.7813 566.8308,322.7813 C564.7839,322.7813 563.4871,321.6875 563.4871,319.9844 L563.4871,318.8906 C563.4871,317.1094 564.7371,315.7969 566.4714,315.7969 C567.0496,315.7969 567.6589,315.9531 568.1277,316.2031 C568.6121,316.4844 568.7839,316.7031 568.8777,317.1094 C568.9402,317.5156 568.9714,317.6406 569.1121,317.7656 C569.2527,317.9063 569.4871,318.0156 569.7058,318.0156 C569.9714,318.0156 570.2371,317.875 570.4089,317.6563 C570.5183,317.5 570.5496,317.3125 570.5496,316.8906 L570.5496,315.4688 C570.5496,315.0313 570.5339,314.9063 570.4402,314.75 C570.2839,314.4844 570.0027,314.3438 569.7058,314.3438 C569.4089,314.3438 569.2058,314.4375 568.9871,314.75 L568.8152,314.6719 Z " fill="#000000"/><text fill="#000000" font-family="sans-serif" font-size="12" lengthAdjust="spacingAndGlyphs" textLength="26" x="586.9714" y="323.1543">Turn</text><line style="stroke:#A80036;stroke-width:1.5;" x1="469.2214" x2="698.2214" y1="335" y2="335"/><ellipse cx="479.2214" cy="346" fill="none" rx="3" ry="3" style="stroke:#038048;stroke-width:1.0;"/><text fill="#000000" font-family="sans-serif" font-size="11" lengthAdjust="spacingAndGlyphs" text-decoration="underline" textLength="123" x="488.2214" y="349.2104">NUMBER_PLAYERS: int</text><rect fill="none" height="6" style="stroke:#C82930;stroke-width:1.0;" width="6" x="476.2214" y="355.8047"/><text fill="#000000" font-family="sans-serif" font-size="11" lengthAdjust="spacingAndGlyphs" textLength="91" x="488.2214" y="362.0151">activePlayer: int</text><rect fill="none" height="6" style="stroke:#C82930;stroke-width:1.0;" width="6" x="476.2214" y="368.6094"/><text fill="#000000" font-family="sans-serif" font-size="11" lengthAdjust="spacingAndGlyphs" textLength="52" x="488.2214" y="374.8198">users: int</text><line style="stroke:#A80036;stroke-width:1.5;" x1="469.2214" x2="698.2214" y1="381.4141" y2="381.4141"/><polygon fill="#4177AF" points="479.2214,388.4141,475.2214,394.4141,483.2214,394.4141" style="stroke:#1963A0;stroke-width:1.0;"/><text fill="#000000" font-family="sans-serif" font-size="11" lengthAdjust="spacingAndGlyphs" textLength="66" x="488.2214" y="395.6245">Turn(Board)</text><polygon fill="#4177AF" points="479.2214,401.2188,475.2214,407.2188,483.2214,407.2188" style="stroke:#1963A0;stroke-width:1.0;"/><text fill="#000000" font-family="sans-serif" font-size="11" lengthAdjust="spacingAndGlyphs" textLength="72" x="488.2214" y="408.4292">setUsers(int)</text><polygon fill="#4177AF" points="479.2214,414.0234,475.2214,420.0234,483.2214,420.0234" style="stroke:#1963A0;stroke-width:1.0;"/><text fill="#000000" font-family="sans-serif" font-size="11" lengthAdjust="spacingAndGlyphs" textLength="34" x="488.2214" y="421.2339">next()</text><polygon fill="#4177AF" points="479.2214,426.8281,475.2214,432.8281,483.2214,432.8281" style="stroke:#1963A0;stroke-width:1.0;"/><text fill="#000000" font-family="sans-serif" font-size="11" lengthAdjust="spacingAndGlyphs" textLength="96" x="488.2214" y="434.0386">isUser(): boolean</text><polygon fill="#4177AF" points="479.2214,439.6328,475.2214,445.6328,483.2214,445.6328" style="stroke:#1963A0;stroke-width:1.0;"/><text fill="#000000" font-family="sans-serif" font-size="11" lengthAdjust="spacingAndGlyphs" textLength="121" x="488.2214" y="446.8433">put(Coordinate): Error</text><polygon fill="#4177AF" points="479.2214,452.4375,475.2214,458.4375,483.2214,458.4375" style="stroke:#1963A0;stroke-width:1.0;"/><text fill="#000000" font-family="sans-serif" font-size="11" lengthAdjust="spacingAndGlyphs" textLength="104" x="488.2214" y="459.6479">getPlayer(): Player</text><polygon fill="#4177AF" points="479.2214,465.2422,475.2214,471.2422,483.2214,471.2422" style="stroke:#1963A0;stroke-width:1.0;"/><text fill="#000000" font-family="sans-serif" font-size="11" lengthAdjust="spacingAndGlyphs" textLength="205" x="488.2214" y="472.4526">move(Coordinate, Coordinate): Error</text><polygon fill="#4177AF" points="479.2214,478.0469,475.2214,484.0469,483.2214,484.0469" style="stroke:#1963A0;stroke-width:1.0;"/><text fill="#000000" font-family="sans-serif" font-size="11" lengthAdjust="spacingAndGlyphs" textLength="104" x="488.2214" y="485.2573">getToken(): Token</text><!--MD5=[3b54484399e9c5d8797124604fd4af65]
class tictactoe.models.Player--><rect codeLine="63" fill="#FEFECE" filter="url(#f10ol56iqpnz0p)" height="99.2188" id="tictactoe.models.Player" style="stroke:#A80036;stroke-width:1.5;" width="231" x="468.2214" y="552"/><ellipse cx="561.4714" cy="568" fill="#ADD1B2" rx="11" ry="11" style="stroke:#A80036;stroke-width:1.0;"/><path d="M563.8152,563.6719 C562.8777,563.2344 562.2839,563.0938 561.4089,563.0938 C558.7839,563.0938 556.7839,565.1719 556.7839,567.8906 L556.7839,569.0156 C556.7839,571.5938 558.8933,573.4844 561.7839,573.4844 C563.0027,573.4844 564.1589,573.1875 564.9089,572.6406 C565.4871,572.2344 565.8152,571.7813 565.8152,571.3906 C565.8152,570.9375 565.4246,570.5469 564.9558,570.5469 C564.7371,570.5469 564.5339,570.625 564.3464,570.8125 C563.8933,571.2969 563.8933,571.2969 563.7058,571.3906 C563.2839,571.6563 562.5964,571.7813 561.8308,571.7813 C559.7839,571.7813 558.4871,570.6875 558.4871,568.9844 L558.4871,567.8906 C558.4871,566.1094 559.7371,564.7969 561.4714,564.7969 C562.0496,564.7969 562.6589,564.9531 563.1277,565.2031 C563.6121,565.4844 563.7839,565.7031 563.8777,566.1094 C563.9402,566.5156 563.9714,566.6406 564.1121,566.7656 C564.2527,566.9063 564.4871,567.0156 564.7058,567.0156 C564.9714,567.0156 565.2371,566.875 565.4089,566.6563 C565.5183,566.5 565.5496,566.3125 565.5496,565.8906 L565.5496,564.4688 C565.5496,564.0313 565.5339,563.9063 565.4402,563.75 C565.2839,563.4844 565.0027,563.3438 564.7058,563.3438 C564.4089,563.3438 564.2058,563.4375 563.9871,563.75 L563.8152,563.6719 Z " fill="#000000"/><text fill="#000000" font-family="sans-serif" font-size="12" lengthAdjust="spacingAndGlyphs" textLength="36" x="581.9714" y="572.1543">Player</text><line style="stroke:#A80036;stroke-width:1.5;" x1="469.2214" x2="698.2214" y1="584" y2="584"/><line style="stroke:#A80036;stroke-width:1.5;" x1="469.2214" x2="698.2214" y1="592" y2="592"/><polygon fill="#4177AF" points="479.2214,599,475.2214,605,483.2214,605" style="stroke:#1963A0;stroke-width:1.0;"/><text fill="#000000" font-family="sans-serif" font-size="11" lengthAdjust="spacingAndGlyphs" textLength="118" x="488.2214" y="606.2104">Player(Token, Board)</text><polygon fill="#4177AF" points="479.2214,611.8047,475.2214,617.8047,483.2214,617.8047" style="stroke:#1963A0;stroke-width:1.0;"/><text fill="#000000" font-family="sans-serif" font-size="11" lengthAdjust="spacingAndGlyphs" textLength="121" x="488.2214" y="619.0151">put(Coordinate): Error</text><polygon fill="#4177AF" points="479.2214,624.6094,475.2214,630.6094,483.2214,630.6094" style="stroke:#1963A0;stroke-width:1.0;"/><text fill="#000000" font-family="sans-serif" font-size="11" lengthAdjust="spacingAndGlyphs" textLength="205" x="488.2214" y="631.8198">move(Coordinate, Coordinate): Error</text><polygon fill="#4177AF" points="479.2214,637.4141,475.2214,643.4141,483.2214,643.4141" style="stroke:#1963A0;stroke-width:1.0;"/><text fill="#000000" font-family="sans-serif" font-size="11" lengthAdjust="spacingAndGlyphs" textLength="104" x="488.2214" y="644.6245">getToken(): Token</text><!--MD5=[d8c8cfd5ca149094f5b67f9f607a5ec7]
class Token--><rect codeLine="1" fill="#FEFECE" filter="url(#f10ol56iqpnz0p)" height="53.9375" id="Token" style="stroke:#A80036;stroke-width:1.5;" width="124" x="816.7214" y="1014.5"/><ellipse cx="831.7214" cy="1033.4688" fill="#ADD1B2" rx="11" ry="11" style="stroke:#A80036;stroke-width:1.0;"/><path d="M834.0652,1029.1406 C833.1277,1028.7031 832.5339,1028.5625 831.6589,1028.5625 C829.0339,1028.5625 827.0339,1030.6406 827.0339,1033.3594 L827.0339,1034.4844 C827.0339,1037.0625 829.1433,1038.9531 832.0339,1038.9531 C833.2527,1038.9531 834.4089,1038.6563 835.1589,1038.1094 C835.7371,1037.7031 836.0652,1037.25 836.0652,1036.8594 C836.0652,1036.4063 835.6746,1036.0156 835.2058,1036.0156 C834.9871,1036.0156 834.7839,1036.0938 834.5964,1036.2813 C834.1433,1036.7656 834.1433,1036.7656 833.9558,1036.8594 C833.5339,1037.125 832.8464,1037.25 832.0808,1037.25 C830.0339,1037.25 828.7371,1036.1563 828.7371,1034.4531 L828.7371,1033.3594 C828.7371,1031.5781 829.9871,1030.2656 831.7214,1030.2656 C832.2996,1030.2656 832.9089,1030.4219 833.3777,1030.6719 C833.8621,1030.9531 834.0339,1031.1719 834.1277,1031.5781 C834.1902,1031.9844 834.2214,1032.1094 834.3621,1032.2344 C834.5027,1032.375 834.7371,1032.4844 834.9558,1032.4844 C835.2214,1032.4844 835.4871,1032.3438 835.6589,1032.125 C835.7683,1031.9688 835.7996,1031.7813 835.7996,1031.3594 L835.7996,1029.9375 C835.7996,1029.5 835.7839,1029.375 835.6902,1029.2188 C835.5339,1028.9531 835.2527,1028.8125 834.9558,1028.8125 C834.6589,1028.8125 834.4558,1028.9063 834.2371,1029.2188 L834.0652,1029.1406 Z " fill="#000000"/><text fill="#000000" font-family="sans-serif" font-size="12" lengthAdjust="spacingAndGlyphs" textLength="92" x="845.7214" y="1030.6387">tictactoe.types.</text><text fill="#000000" font-family="sans-serif" font-size="12" lengthAdjust="spacingAndGlyphs" textLength="37" x="873.2214" y="1044.6074">Token</text><line style="stroke:#A80036;stroke-width:1.5;" x1="817.7214" x2="939.7214" y1="1052.4375" y2="1052.4375"/><line style="stroke:#A80036;stroke-width:1.5;" x1="817.7214" x2="939.7214" y1="1060.4375" y2="1060.4375"/><!--MD5=[b8cfd8c4119a3b0a7a46bfc5fc780f85]
class Error--><rect codeLine="2" fill="#FEFECE" filter="url(#f10ol56iqpnz0p)" height="53.9375" id="Error" style="stroke:#A80036;stroke-width:1.5;" width="124" x="53.721" y="1183"/><ellipse cx="68.721" cy="1201.9688" fill="#ADD1B2" rx="11" ry="11" style="stroke:#A80036;stroke-width:1.0;"/><path d="M71.0648,1197.6406 C70.1273,1197.2031 69.5335,1197.0625 68.6585,1197.0625 C66.0335,1197.0625 64.0335,1199.1406 64.0335,1201.8594 L64.0335,1202.9844 C64.0335,1205.5625 66.1429,1207.4531 69.0335,1207.4531 C70.2523,1207.4531 71.4085,1207.1563 72.1585,1206.6094 C72.7367,1206.2031 73.0648,1205.75 73.0648,1205.3594 C73.0648,1204.9063 72.6742,1204.5156 72.2054,1204.5156 C71.9867,1204.5156 71.7835,1204.5938 71.596,1204.7813 C71.1429,1205.2656 71.1429,1205.2656 70.9554,1205.3594 C70.5335,1205.625 69.846,1205.75 69.0804,1205.75 C67.0335,1205.75 65.7367,1204.6563 65.7367,1202.9531 L65.7367,1201.8594 C65.7367,1200.0781 66.9867,1198.7656 68.721,1198.7656 C69.2992,1198.7656 69.9085,1198.9219 70.3773,1199.1719 C70.8617,1199.4531 71.0335,1199.6719 71.1273,1200.0781 C71.1898,1200.4844 71.221,1200.6094 71.3617,1200.7344 C71.5023,1200.875 71.7367,1200.9844 71.9554,1200.9844 C72.221,1200.9844 72.4867,1200.8438 72.6585,1200.625 C72.7679,1200.4688 72.7992,1200.2813 72.7992,1199.8594 L72.7992,1198.4375 C72.7992,1198 72.7835,1197.875 72.6898,1197.7188 C72.5335,1197.4531 72.2523,1197.3125 71.9554,1197.3125 C71.6585,1197.3125 71.4554,1197.4063 71.2367,1197.7188 L71.0648,1197.6406 Z " fill="#000000"/><text fill="#000000" font-family="sans-serif" font-size="12" lengthAdjust="spacingAndGlyphs" textLength="92" x="82.721" y="1199.1387">tictactoe.types.</text><text fill="#000000" font-family="sans-serif" font-size="12" lengthAdjust="spacingAndGlyphs" textLength="30" x="113.721" y="1213.1074">Error</text><line style="stroke:#A80036;stroke-width:1.5;" x1="54.721" x2="176.721" y1="1220.9375" y2="1220.9375"/><line style="stroke:#A80036;stroke-width:1.5;" x1="54.721" x2="176.721" y1="1228.9375" y2="1228.9375"/><!--MD5=[f0e50675208408ddbf1ed7a91f4eb071]
class ClosedInterval--><rect codeLine="3" fill="#FEFECE" filter="url(#f10ol56iqpnz0p)" height="53.9375" id="ClosedInterval" style="stroke:#A80036;stroke-width:1.5;" width="130" x="440.7214" y="1183"/><ellipse cx="455.7214" cy="1201.9688" fill="#ADD1B2" rx="11" ry="11" style="stroke:#A80036;stroke-width:1.0;"/><path d="M458.0652,1197.6406 C457.1277,1197.2031 456.5339,1197.0625 455.6589,1197.0625 C453.0339,1197.0625 451.0339,1199.1406 451.0339,1201.8594 L451.0339,1202.9844 C451.0339,1205.5625 453.1433,1207.4531 456.0339,1207.4531 C457.2527,1207.4531 458.4089,1207.1563 459.1589,1206.6094 C459.7371,1206.2031 460.0652,1205.75 460.0652,1205.3594 C460.0652,1204.9063 459.6746,1204.5156 459.2058,1204.5156 C458.9871,1204.5156 458.7839,1204.5938 458.5964,1204.7813 C458.1433,1205.2656 458.1433,1205.2656 457.9558,1205.3594 C457.5339,1205.625 456.8464,1205.75 456.0808,1205.75 C454.0339,1205.75 452.7371,1204.6563 452.7371,1202.9531 L452.7371,1201.8594 C452.7371,1200.0781 453.9871,1198.7656 455.7214,1198.7656 C456.2996,1198.7656 456.9089,1198.9219 457.3777,1199.1719 C457.8621,1199.4531 458.0339,1199.6719 458.1277,1200.0781 C458.1902,1200.4844 458.2214,1200.6094 458.3621,1200.7344 C458.5027,1200.875 458.7371,1200.9844 458.9558,1200.9844 C459.2214,1200.9844 459.4871,1200.8438 459.6589,1200.625 C459.7683,1200.4688 459.7996,1200.2813 459.7996,1199.8594 L459.7996,1198.4375 C459.7996,1198 459.7839,1197.875 459.6902,1197.7188 C459.5339,1197.4531 459.2527,1197.3125 458.9558,1197.3125 C458.6589,1197.3125 458.4558,1197.4063 458.2371,1197.7188 L458.0652,1197.6406 Z " fill="#000000"/><text fill="#000000" font-family="sans-serif" font-size="12" lengthAdjust="spacingAndGlyphs" textLength="98" x="469.7214" y="1199.1387">usantatecla.utils.</text><text fill="#000000" font-family="sans-serif" font-size="12" lengthAdjust="spacingAndGlyphs" textLength="86" x="475.7214" y="1213.1074">ClosedInterval</text><line style="stroke:#A80036;stroke-width:1.5;" x1="441.7214" x2="569.7214" y1="1220.9375" y2="1220.9375"/><line style="stroke:#A80036;stroke-width:1.5;" x1="441.7214" x2="569.7214" y1="1228.9375" y2="1228.9375"/><!--MD5=[4ac948797cb0d646e058fac8f0726737]
class ConcreteCoordinate--><rect codeLine="4" fill="#FEFECE" filter="url(#f10ol56iqpnz0p)" height="53.9375" id="ConcreteCoordinate" style="stroke:#A80036;stroke-width:1.5;" width="153" x="205.2214" y="778.5"/><ellipse cx="220.2214" cy="797.4688" fill="#ADD1B2" rx="11" ry="11" style="stroke:#A80036;stroke-width:1.0;"/><path d="M222.5652,793.1406 C221.6277,792.7031 221.0339,792.5625 220.1589,792.5625 C217.5339,792.5625 215.5339,794.6406 215.5339,797.3594 L215.5339,798.4844 C215.5339,801.0625 217.6433,802.9531 220.5339,802.9531 C221.7527,802.9531 222.9089,802.6563 223.6589,802.1094 C224.2371,801.7031 224.5652,801.25 224.5652,800.8594 C224.5652,800.4063 224.1746,800.0156 223.7058,800.0156 C223.4871,800.0156 223.2839,800.0938 223.0964,800.2813 C222.6433,800.7656 222.6433,800.7656 222.4558,800.8594 C222.0339,801.125 221.3464,801.25 220.5808,801.25 C218.5339,801.25 217.2371,800.1563 217.2371,798.4531 L217.2371,797.3594 C217.2371,795.5781 218.4871,794.2656 220.2214,794.2656 C220.7996,794.2656 221.4089,794.4219 221.8777,794.6719 C222.3621,794.9531 222.5339,795.1719 222.6277,795.5781 C222.6902,795.9844 222.7214,796.1094 222.8621,796.2344 C223.0027,796.375 223.2371,796.4844 223.4558,796.4844 C223.7214,796.4844 223.9871,796.3438 224.1589,796.125 C224.2683,795.9688 224.2996,795.7813 224.2996,795.3594 L224.2996,793.9375 C224.2996,793.5 224.2839,793.375 224.1902,793.2188 C224.0339,792.9531 223.7527,792.8125 223.4558,792.8125 C223.1589,792.8125 222.9558,792.9063 222.7371,793.2188 L222.5652,793.1406 Z " fill="#000000"/><text fill="#000000" font-family="sans-serif" font-size="12" lengthAdjust="spacingAndGlyphs" textLength="98" x="245.7214" y="794.6387">usantatecla.utils.</text><text fill="#000000" font-family="sans-serif" font-size="12" lengthAdjust="spacingAndGlyphs" textLength="121" x="234.2214" y="808.6074">ConcreteCoordinate</text><line style="stroke:#A80036;stroke-width:1.5;" x1="206.2214" x2="357.2214" y1="816.4375" y2="816.4375"/><line style="stroke:#A80036;stroke-width:1.5;" x1="206.2214" x2="357.2214" y1="824.4375" y2="824.4375"/><!--MD5=[02f7077ed79257124e28b791f351f1d7]
class Direction--><rect codeLine="5" fill="#FEFECE" filter="url(#f10ol56iqpnz0p)" height="53.9375" id="Direction" style="stroke:#A80036;stroke-width:1.5;" width="130" x="605.7214" y="1183"/><ellipse cx="620.7214" cy="1201.9688" fill="#ADD1B2" rx="11" ry="11" style="stroke:#A80036;stroke-width:1.0;"/><path d="M623.0652,1197.6406 C622.1277,1197.2031 621.5339,1197.0625 620.6589,1197.0625 C618.0339,1197.0625 616.0339,1199.1406 616.0339,1201.8594 L616.0339,1202.9844 C616.0339,1205.5625 618.1433,1207.4531 621.0339,1207.4531 C622.2527,1207.4531 623.4089,1207.1563 624.1589,1206.6094 C624.7371,1206.2031 625.0652,1205.75 625.0652,1205.3594 C625.0652,1204.9063 624.6746,1204.5156 624.2058,1204.5156 C623.9871,1204.5156 623.7839,1204.5938 623.5964,1204.7813 C623.1433,1205.2656 623.1433,1205.2656 622.9558,1205.3594 C622.5339,1205.625 621.8464,1205.75 621.0808,1205.75 C619.0339,1205.75 617.7371,1204.6563 617.7371,1202.9531 L617.7371,1201.8594 C617.7371,1200.0781 618.9871,1198.7656 620.7214,1198.7656 C621.2996,1198.7656 621.9089,1198.9219 622.3777,1199.1719 C622.8621,1199.4531 623.0339,1199.6719 623.1277,1200.0781 C623.1902,1200.4844 623.2214,1200.6094 623.3621,1200.7344 C623.5027,1200.875 623.7371,1200.9844 623.9558,1200.9844 C624.2214,1200.9844 624.4871,1200.8438 624.6589,1200.625 C624.7683,1200.4688 624.7996,1200.2813 624.7996,1199.8594 L624.7996,1198.4375 C624.7996,1198 624.7839,1197.875 624.6902,1197.7188 C624.5339,1197.4531 624.2527,1197.3125 623.9558,1197.3125 C623.6589,1197.3125 623.4558,1197.4063 623.2371,1197.7188 L623.0652,1197.6406 Z " fill="#000000"/><text fill="#000000" font-family="sans-serif" font-size="12" lengthAdjust="spacingAndGlyphs" textLength="98" x="634.7214" y="1199.1387">usantatecla.utils.</text><text fill="#000000" font-family="sans-serif" font-size="12" lengthAdjust="spacingAndGlyphs" textLength="54" x="656.7214" y="1213.1074">Direction</text><line style="stroke:#A80036;stroke-width:1.5;" x1="606.7214" x2="734.7214" y1="1220.9375" y2="1220.9375"/><line style="stroke:#A80036;stroke-width:1.5;" x1="606.7214" x2="734.7214" y1="1228.9375" y2="1228.9375"/><!--MD5=[8c7d7abc12e214c3cc12c9ab70edee11]
class Coordinate--><rect codeLine="6" fill="#FEFECE" filter="url(#f10ol56iqpnz0p)" height="53.9375" id="Coordinate" style="stroke:#A80036;stroke-width:1.5;" width="135" x="270.2214" y="1183"/><ellipse cx="285.2214" cy="1201.9688" fill="#B4A7E5" rx="11" ry="11" style="stroke:#A80036;stroke-width:1.0;"/><path d="M286.1746,1198.75 L287.8933,1198.75 C288.2839,1198.75 288.4714,1198.7188 288.5964,1198.6406 C288.8621,1198.4844 289.0027,1198.2031 289.0027,1197.9063 C289.0027,1197.6406 288.8933,1197.375 288.6589,1197.2031 C288.4871,1197.0938 288.3464,1197.0625 287.8933,1197.0625 L282.7527,1197.0625 C282.3152,1197.0625 282.1902,1197.0781 282.0339,1197.1719 C281.7839,1197.3281 281.6277,1197.625 281.6277,1197.9063 C281.6277,1198.1875 281.7683,1198.4375 281.9871,1198.6094 C282.1433,1198.7188 282.3308,1198.75 282.7527,1198.75 L284.4714,1198.75 L284.4714,1205.2656 L282.7527,1205.2656 C282.3152,1205.2656 282.1902,1205.2813 282.0339,1205.3906 C281.7839,1205.5469 281.6277,1205.8281 281.6277,1206.125 C281.6277,1206.375 281.7683,1206.6406 281.9871,1206.7969 C282.1433,1206.9219 282.3464,1206.9688 282.7527,1206.9688 L287.8933,1206.9688 C288.6433,1206.9688 289.0027,1206.6875 289.0027,1206.125 C289.0027,1205.8438 288.8933,1205.5938 288.6589,1205.4219 C288.4871,1205.2969 288.3464,1205.2656 287.8933,1205.2656 L286.1746,1205.2656 L286.1746,1198.75 Z " fill="#000000"/><text fill="#000000" font-family="sans-serif" font-size="12" font-style="italic" lengthAdjust="spacingAndGlyphs" textLength="103" x="299.2214" y="1199.1387">usantatecla.utils.</text><text fill="#000000" font-family="sans-serif" font-size="12" font-style="italic" lengthAdjust="spacingAndGlyphs" textLength="65" x="318.2214" y="1213.1074">Coordinate</text><line style="stroke:#A80036;stroke-width:1.5;" x1="271.2214" x2="404.2214" y1="1220.9375" y2="1220.9375"/><line style="stroke:#A80036;stroke-width:1.5;" x1="271.2214" x2="404.2214" y1="1228.9375" y2="1228.9375"/><!--MD5=[715d8bc148b7807b721da6bea55ba6f0]
link tictactoe.models.Board to Token--><path codeLine="22" d="M743.5482,908.7045 C743.5482,908.7045 816.2454,979.586 842.4104,1005.098 " fill="none" id="tictactoe.models.Board-Token" style="stroke:#A80036;stroke-width:1.0;"/><polygon fill="#A80036" points="851.8954,1014.345,848.2438,1005.1981,848.3154,1010.8545,842.659,1010.9262,851.8954,1014.345" style="stroke:#A80036;stroke-width:1.0;"/><line style="stroke:#A80036;stroke-width:1.0;" x1="848.3154" x2="842.5879" y1="1010.8545" y2="1005.27"/><polygon fill="#A80036" points="734.9554,900.328,736.4597,907.3805,743.5482,908.7045,742.044,901.652,734.9554,900.328" style="stroke:#A80036;stroke-width:1.0;"/><text fill="#000000" font-family="sans-serif" font-size="13" lengthAdjust="spacingAndGlyphs" textLength="7" x="837.8826" y="1003.4205">*</text><!--MD5=[9415c0c61774263745e2cedb44e639c6]
link tictactoe.models.Board to tictactoe.models.Coordinate--><path codeLine="23" d="M585.3914,900.328 C575.0644,918.497 564.2964,937.442 554.1384,955.315 " fill="none" id="tictactoe.models.Board-to-tictactoe.models.Coordinate" style="stroke:#A80036;stroke-width:1.0;stroke-dasharray:7.0,7.0;"/><polygon fill="#A80036" points="551.5694,959.835,559.4948,953.9879,554.0406,955.4883,552.5402,950.0341,551.5694,959.835" style="stroke:#A80036;stroke-width:1.0;"/><!--MD5=[95371b819337377421bee880416b6571]
link tictactoe.models.Board to Direction--><path codeLine="24" d="M646.1634,900.107 C653.2614,989.389 663.5434,1118.722 668.2274,1177.6419 " fill="none" id="tictactoe.models.Board-to-Direction" style="stroke:#A80036;stroke-width:1.0;stroke-dasharray:7.0,7.0;"/><polygon fill="#A80036" points="668.6364,1182.7812,671.9103,1173.4924,668.24,1177.7969,663.9355,1174.1267,668.6364,1182.7812" style="stroke:#A80036;stroke-width:1.0;"/><!--MD5=[4ae82c12558cb4b2e8949f940e9da2cf]
reverse link ConcreteCoordinate to tictactoe.models.Coordinate--><path codeLine="37" d="M320.9054,847.434 C350.5764,878.429 392.2814,921.996 428.5674,959.902 " fill="none" id="ConcreteCoordinate-backto-tictactoe.models.Coordinate" style="stroke:#A80036;stroke-width:1.0;"/><polygon fill="none" points="315.7544,852.176,306.9814,832.888,325.8674,842.495,315.7544,852.176" style="stroke:#A80036;stroke-width:1.0;"/><!--MD5=[0dc3277290a75d87b382fb6ce6bec75b]
link tictactoe.models.Coordinate to Error--><path codeLine="38" d="M393.7014,1090.324 C325.0754,1119.622 239.5934,1156.116 181.6744,1180.843 " fill="none" id="tictactoe.models.Coordinate-to-Error" style="stroke:#A80036;stroke-width:1.0;stroke-dasharray:7.0,7.0;"/><polygon fill="#A80036" points="176.8554,1182.9001,186.7032,1183.0457,181.454,1180.9372,183.5625,1175.688,176.8554,1182.9001" style="stroke:#A80036;stroke-width:1.0;"/><!--MD5=[787386d7ca2e6f5e643967cb883a78fa]
link tictactoe.models.Coordinate to Direction--><path codeLine="39" d="M585.8044,1123.311 C605.4844,1143.1707 625.3484,1163.2152 640.9114,1178.9193 " fill="none" id="tictactoe.models.Coordinate-to-Direction" style="stroke:#A80036;stroke-width:1.0;stroke-dasharray:7.0,7.0;"/><polygon fill="#A80036" points="644.7724,1182.8155,641.2802,1173.6066,641.2536,1179.2634,635.5968,1179.2367,644.7724,1182.8155" style="stroke:#A80036;stroke-width:1.0;"/><!--MD5=[8973272b7c46d1465f556eec95539838]
link tictactoe.models.Coordinate to Coordinate--><path codeLine="40" d="M424.1814,1123.311 C404.1434,1143.1707 383.9184,1163.2152 368.0724,1178.9193 " fill="none" id="tictactoe.models.Coordinate-to-Coordinate" style="stroke:#A80036;stroke-width:1.0;stroke-dasharray:7.0,7.0;"/><polygon fill="#A80036" points="364.1414,1182.8155,373.3495,1179.3209,367.6927,1179.2957,367.7178,1173.6389,364.1414,1182.8155" style="stroke:#A80036;stroke-width:1.0;"/><!--MD5=[ba6e042f6a8c44c789ccd24fbb2adc9a]
link tictactoe.models.Coordinate to ClosedInterval--><path codeLine="41" d="M505.7214,1123.311 C505.7214,1142.6658 505.7214,1162.1961 505.7214,1177.7131 " fill="none" id="tictactoe.models.Coordinate-to-ClosedInterval" style="stroke:#A80036;stroke-width:1.0;stroke-dasharray:7.0,7.0;"/><polygon fill="#A80036" points="505.7214,1182.8155,509.7214,1173.8155,505.7214,1177.8155,501.7214,1173.8155,505.7214,1182.8155" style="stroke:#A80036;stroke-width:1.0;"/><!--MD5=[b634369fa6e65a8dead148f8efc150f7]
link tictactoe.models.Game to tictactoe.models.Board--><path codeLine="57" d="M689.5499,252.8516 C689.5499,252.8516 710.0054,285.931 716.7214,303 C773.3934,447.044 772.0044,501.815 730.7214,651 C726.2304,667.226 719.5194,683.46 711.7284,698.972 " fill="none" id="tictactoe.models.Game-tictactoe.models.Board" style="stroke:#A80036;stroke-width:1.0;"/><polygon fill="#A80036" points="705.5794,710.681,713.3052,704.5726,707.9041,706.2543,706.2224,700.8532,705.5794,710.681" style="stroke:#A80036;stroke-width:1.0;"/><line style="stroke:#A80036;stroke-width:1.0;" x1="707.9041" x2="711.6239" y1="706.2543" y2="699.1725"/><polygon fill="#A80036" points="682.6424,243.039,682.8253,250.2478,689.5499,252.8516,689.367,245.6428,682.6424,243.039" style="stroke:#A80036;stroke-width:1.0;"/><!--MD5=[aa5c2eaa34da3707c874f29e1edc60f9]
link tictactoe.models.Game to tictactoe.models.Turn--><path codeLine="58" d="M583.7214,255.19 C583.7214,255.19 583.7214,278.49 583.7214,289.504 " fill="none" id="tictactoe.models.Game-tictactoe.models.Turn" style="stroke:#A80036;stroke-width:1.0;"/><polygon fill="#A80036" points="583.7214,302.815,587.7214,293.815,583.7214,297.815,579.7214,293.815,583.7214,302.815" style="stroke:#A80036;stroke-width:1.0;"/><line style="stroke:#A80036;stroke-width:1.0;" x1="583.7214" x2="583.7214" y1="297.815" y2="289.815"/><polygon fill="#A80036" points="583.7214,243.19,579.7214,249.19,583.7214,255.19,587.7214,249.19,583.7214,243.19" style="stroke:#A80036;stroke-width:1.0;"/><!--MD5=[3af71857b9ad654b2037bc7ee0d85849]
link tictactoe.models.Game to tictactoe.models.Coordinate--><path codeLine="59" d="M486.1294,243.001 C472.2244,261.743 459.6404,282.064 450.7214,303 C346.5854,547.433 347.6674,644.266 419.7214,900 C425.0474,918.906 433.7064,937.78 443.5254,955.278 " fill="none" id="tictactoe.models.Game-to-tictactoe.models.Coordinate" style="stroke:#A80036;stroke-width:1.0;stroke-dasharray:7.0,7.0;"/><polygon fill="#A80036" points="446.0454,959.697,445.0622,949.8973,443.5687,955.3535,438.1126,953.8601,446.0454,959.697" style="stroke:#A80036;stroke-width:1.0;"/><!--MD5=[1e1952a5c407ff6ca98def89eca250c2]
link tictactoe.models.Game to Error--><path codeLine="60" d="M467.9094,177.33 C300.2374,235 9.721,368.411 9.721,600.5 C9.721,600.5 9.721,600.5 9.721,806.5 C9.721,960.013 6,1006.441 67.721,1147 C72.6536,1158.2332 80.0622,1169.2413 87.5922,1178.7906 " fill="none" id="tictactoe.models.Game-to-Error" style="stroke:#A80036;stroke-width:1.0;stroke-dasharray:7.0,7.0;"/><polygon fill="#A80036" points="90.8199,1182.7903,88.2805,1173.2745,87.6798,1178.8993,82.0549,1178.2986,90.8199,1182.7903" style="stroke:#A80036;stroke-width:1.0;"/><!--MD5=[f108930b09104f9d68882eaac6c296c4]
link tictactoe.models.Game to Token--><path codeLine="61" d="M699.2694,242.319 C717.0744,261.211 734.0524,281.759 747.7214,303 C852.0204,465.086 861.5594,521.13 894.7214,711 C913.6114,819.162 895.2354,950.114 884.8144,1009.063 " fill="none" id="tictactoe.models.Game-to-Token" style="stroke:#A80036;stroke-width:1.0;stroke-dasharray:7.0,7.0;"/><polygon fill="#A80036" points="883.8944,1014.201,889.4207,1006.0487,884.7773,1009.2796,881.5464,1004.6361,883.8944,1014.201" style="stroke:#A80036;stroke-width:1.0;"/><!--MD5=[ddcf232c751077f9b10d6064c369d290]
link tictactoe.models.Player to Token--><path codeLine="69" d="M709.969,649.7784 C709.969,649.7784 766.6654,686.001 786.7214,711 C856.4634,797.934 873.3944,934.465 877.4634,1001.171 " fill="none" id="tictactoe.models.Player-Token" style="stroke:#A80036;stroke-width:1.0;"/><polygon fill="#A80036" points="878.1504,1014.302,881.6742,1005.1051,877.8889,1009.3088,873.6851,1005.5236,878.1504,1014.302" style="stroke:#A80036;stroke-width:1.0;"/><line style="stroke:#A80036;stroke-width:1.0;" x1="877.8889" x2="877.4709" y1="1009.3088" y2="1001.32"/><polygon fill="#A80036" points="699.3804,644.132,702.7926,650.4847,709.969,649.7784,706.5569,643.4257,699.3804,644.132" style="stroke:#A80036;stroke-width:1.0;"/><!--MD5=[4d61797189bd4e3921b05d5b1c2f3641]
link tictactoe.models.Player to tictactoe.models.Board--><path codeLine="70" d="M600.1175,662.7194 C600.1175,662.7194 606.5434,686.321 609.7374,698.05 " fill="none" id="tictactoe.models.Player-tictactoe.models.Board" style="stroke:#A80036;stroke-width:1.0;"/><polygon fill="#A80036" points="613.2054,710.787,614.7001,701.0522,611.8917,705.9627,606.9812,703.1543,613.2054,710.787" style="stroke:#A80036;stroke-width:1.0;"/><line style="stroke:#A80036;stroke-width:1.0;" x1="611.8917" x2="609.7894" y1="705.9627" y2="698.2435"/><polygon fill="#A80036" points="596.9644,651.141,594.6815,657.9812,600.1175,662.7194,602.4004,655.8792,596.9644,651.141" style="stroke:#A80036;stroke-width:1.0;"/><!--MD5=[8c8274b143d2ce23d56b10c65f754674]
link tictactoe.models.Player to tictactoe.models.Coordinate--><path codeLine="71" d="M528.5174,651.214 C512.9134,668.372 497.9504,688.933 489.7214,711 C460.3674,789.711 469.9034,886.395 483.4004,954.617 " fill="none" id="tictactoe.models.Player-to-tictactoe.models.Coordinate" style="stroke:#A80036;stroke-width:1.0;stroke-dasharray:7.0,7.0;"/><polygon fill="#A80036" points="484.4634,959.891,486.6051,950.2778,483.4749,954.9897,478.763,951.8595,484.4634,959.891" style="stroke:#A80036;stroke-width:1.0;"/><!--MD5=[5f38bb10c8a4955eb5b1e5512962abb2]
link tictactoe.models.Player to Error--><path codeLine="72" d="M467.9854,619.898 C364.8654,637.853 224.7054,669.126 187.7214,711 C126.0784,780.792 117.1714,1079.699 115.9164,1177.7275 " fill="none" id="tictactoe.models.Player-to-Error" style="stroke:#A80036;stroke-width:1.0;stroke-dasharray:7.0,7.0;"/><polygon fill="#A80036" points="115.8564,1182.7941,119.9634,1173.8424,115.916,1177.7945,111.9639,1173.7471,115.8564,1182.7941" style="stroke:#A80036;stroke-width:1.0;"/><!--MD5=[445ca9be6ac7acaf2fbd96fa00e05ee8]
link tictactoe.models.Turn to tictactoe.models.Player--><path codeLine="88" d="M583.7214,504.108 C583.7214,504.108 583.7214,528.02 583.7214,538.693 " fill="none" id="tictactoe.models.Turn-tictactoe.models.Player" style="stroke:#A80036;stroke-width:1.0;"/><polygon fill="#A80036" points="583.7214,551.799,587.7214,542.799,583.7214,546.799,579.7214,542.799,583.7214,551.799" style="stroke:#A80036;stroke-width:1.0;"/><line style="stroke:#A80036;stroke-width:1.0;" x1="583.7214" x2="583.7214" y1="546.799" y2="538.799"/><polygon fill="#A80036" points="583.7214,492.108,579.7214,498.108,583.7214,504.108,587.7214,498.108,583.7214,492.108" style="stroke:#A80036;stroke-width:1.0;"/><text fill="#000000" font-family="sans-serif" font-size="13" lengthAdjust="spacingAndGlyphs" textLength="7" x="576.2293" y="540.816">*</text><!--MD5=[11aca849becf2c66e9fb721656f4b409]
link tictactoe.models.Turn to tictactoe.models.Board--><path codeLine="89" d="M689.6852,502.0427 C689.6852,502.0427 710.3754,534.985 716.7214,552 C734.4554,599.551 722.3014,653.152 702.7774,698.697 " fill="none" id="tictactoe.models.Turn-tictactoe.models.Board" style="stroke:#A80036;stroke-width:1.0;"/><polygon fill="#A80036" points="697.3824,710.703,704.7201,704.1335,699.432,706.1424,697.4231,700.8542,697.3824,710.703" style="stroke:#A80036;stroke-width:1.0;"/><line style="stroke:#A80036;stroke-width:1.0;" x1="699.432" x2="702.7104" y1="706.1424" y2="698.845"/><polygon fill="#A80036" points="682.6324,492.334,682.9226,499.5393,689.6852,502.0427,689.395,494.8374,682.6324,492.334" style="stroke:#A80036;stroke-width:1.0;"/><!--MD5=[2ce67dc7b8904d2487e2a382b8293df9]
link tictactoe.models.Turn to Token--><path codeLine="90" d="M694.5364,492.019 C753.0134,548.675 819.2244,626.247 851.7214,711 C891.3144,814.264 886.6024,948.748 881.8494,1008.953 " fill="none" id="tictactoe.models.Turn-to-Token" style="stroke:#A80036;stroke-width:1.0;stroke-dasharray:7.0,7.0;"/><polygon fill="#A80036" points="881.4194,1014.199,886.1391,1005.5546,881.8266,1009.2156,878.1657,1004.9031,881.4194,1014.199" style="stroke:#A80036;stroke-width:1.0;"/><!--MD5=[448c7c6490121f34126ed8904289109a]
link tictactoe.models.Turn to Error--><path codeLine="91" d="M468.1204,442.595 C359.4774,490.734 202.5684,579.018 126.7214,711 C37.7558,865.809 85.1383,1094.837 106.805,1177.6697 " fill="none" id="tictactoe.models.Turn-to-Error" style="stroke:#A80036;stroke-width:1.0;stroke-dasharray:7.0,7.0;"/><polygon fill="#A80036" points="108.1933,1182.912,109.7561,1173.1879,106.9134,1178.0786,102.0227,1175.2359,108.1933,1182.912" style="stroke:#A80036;stroke-width:1.0;"/><!--MD5=[48951ad2288b716169f812a2c734d472]
link tictactoe.models.Turn to tictactoe.models.Coordinate--><path codeLine="92" d="M484.8104,492.334 C470.8624,510.69 458.6074,530.856 450.7214,552 C400.5694,686.469 440.0364,855.061 473.0254,954.925 " fill="none" id="tictactoe.models.Turn-to-tictactoe.models.Coordinate" style="stroke:#A80036;stroke-width:1.0;stroke-dasharray:7.0,7.0;"/><polygon fill="#A80036" points="474.6904,959.923,475.6418,950.1202,473.1106,955.1792,468.0516,952.648,474.6904,959.923" style="stroke:#A80036;stroke-width:1.0;"/><!--MD5=[225f581a7edb734d93e5384a260889dc]
@startuml
class Token as "tictactoe.types.\nToken"
class Error as "tictactoe.types.\nError"
class ClosedInterval as "usantatecla.utils.\nClosedInterval"
class ConcreteCoordinate as "usantatecla.utils.\nConcreteCoordinate"
class Direction as "usantatecla.utils.\nDirection"
interface Coordinate as "usantatecla.utils.\nCoordinate" 

class  tictactoe.models.Board{
  + Board()
  ~ reset()
  ~ getToken(Coordinate): Token
  ~ isCompleted(): boolean
  ~ put(Coordinate, Token)
  ~ move(Coordinate, Coordinate)
  - remove(Coordinate)
  ~ isOccupied(Coordinate, Token): boolean
  ~ isEmpty(Coordinate): boolean
  ~ isTicTacToe(Token): boolean
  - getCoordinates(Token): List<Coordinate>
}

tictactoe.models.Board *-down-> "*" Token
tictactoe.models.Board .down.> tictactoe.models.Coordinate
tictactoe.models.Board .down.> Direction

class  tictactoe.models.Coordinate{
  ~ {static} NULL_COORDINATE: Coordinate
  + {static} DIMENSION: int
  + Coordinate()
  + Coordinate(int, int)
  + isNull(): boolean
  + getDirection(Coordinate): Direction
  ~ inInverseDiagonal(): boolean
  + random()
  + equals(Object): boolean
}
ConcreteCoordinate <|-down- tictactoe.models.Coordinate
tictactoe.models.Coordinate .down.> Error
tictactoe.models.Coordinate .down.> Direction
tictactoe.models.Coordinate .down.> Coordinate
tictactoe.models.Coordinate .down.> ClosedInterval

class  tictactoe.models.Game{
  + Game()
  + reset()
  + setUsers(int)
  + isBoardComplete(): boolean
  + isUser(): boolean
  + put(Coordinate): Error
  + move(Coordinate, Coordinate): Error
  + next(Error)
  + isTicTacToe(): boolean
  + getToken(Coordinate): Token
  + getToken(): Token
  + getMaxPlayers(): int
}
tictactoe.models.Game *-down-> tictactoe.models.Board
tictactoe.models.Game *-down-> tictactoe.models.Turn
tictactoe.models.Game .down.> tictactoe.models.Coordinate
tictactoe.models.Game .down.> Error
tictactoe.models.Game .down.> Token

class  tictactoe.models.Player{
  ~ Player(Token, Board)
  ~ put(Coordinate): Error
  ~ move(Coordinate, Coordinate): Error
  ~ getToken(): Token
}
tictactoe.models.Player *-down-> Token
tictactoe.models.Player *-down-> tictactoe.models.Board
tictactoe.models.Player .down.> tictactoe.models.Coordinate
tictactoe.models.Player .down.> Error

class  tictactoe.models.Turn{
  + {static} NUMBER_PLAYERS: int
  - activePlayer: int
  - users: int
  ~ Turn(Board)
  ~ setUsers(int)
  ~ next()
  ~ isUser(): boolean
  ~ put(Coordinate): Error
  ~ getPlayer(): Player
  ~ move(Coordinate, Coordinate): Error
  ~ getToken(): Token
}

tictactoe.models.Turn *-down-> "*" tictactoe.models.Player
tictactoe.models.Turn *-down-> tictactoe.models.Board
tictactoe.models.Turn .down.-> Token
tictactoe.models.Turn .down.-> Error
tictactoe.models.Turn .down.-> tictactoe.models.Coordinate
@enduml

PlantUML version 1.2020.27beta2(Unknown compile time)
(GPL source distribution)
Java Runtime: Java(TM) SE Runtime Environment
JVM: Java HotSpot(TM) 64-Bit Server VM
Default Encoding: UTF-8
Language: en
Country: US
--></g></svg>