<?xml version="1.0" encoding="UTF-8" standalone="no"?><svg xmlns="http://www.w3.org/2000/svg" xmlns:xlink="http://www.w3.org/1999/xlink" contentScriptType="application/ecmascript" contentStyleType="text/css" height="284px" preserveAspectRatio="none" style="width:1698px;height:284px;" version="1.1" viewBox="0 0 1698 284" width="1698px" zoomAndPan="magnify"><defs><filter height="300%" id="fbp0lxixp7eev" width="300%" x="-1" y="-1"><feGaussianBlur result="blurOut" stdDeviation="2.0"/><feColorMatrix in="blurOut" result="blurOut2" type="matrix" values="0 0 0 0 0 0 0 0 0 0 0 0 0 0 0 0 0 0 .4 0"/><feOffset dx="4.0" dy="4.0" in="blurOut2" result="blurOut3"/><feBlend in="SourceGraphic" in2="blurOut3" mode="normal"/></filter></defs><g><!--MD5=[807bc46d8103c809ff053af9e140e1f5]
cluster tictactoe--><polygon fill="#FFFFFF" filter="url(#fbp0lxixp7eev)" points="16,6,98,6,105,28.2969,462,28.2969,462,277,16,277,16,6" style="stroke:#000000;stroke-width:1.5;"/><line style="stroke:#000000;stroke-width:1.5;" x1="16" x2="105" y1="28.2969" y2="28.2969"/><text fill="#000000" font-family="sans-serif" font-size="14" font-weight="bold" lengthAdjust="spacingAndGlyphs" textLength="76" x="20" y="20.9951">tictactoe</text><!--MD5=[d26da01265d646b7f841c2729736529c]
class tictactoe.ConsoleTicTacToe--><rect codeLine="7" fill="#FEFECE" filter="url(#fbp0lxixp7eev)" height="73.6094" id="tictactoe.ConsoleTicTacToe" style="stroke:#A80036;stroke-width:1.5;" width="410" x="33" y="187"/><ellipse cx="178.75" cy="203" fill="#ADD1B2" rx="11" ry="11" style="stroke:#A80036;stroke-width:1.0;"/><path d="M181.0938,198.6719 C180.1563,198.2344 179.5625,198.0938 178.6875,198.0938 C176.0625,198.0938 174.0625,200.1719 174.0625,202.8906 L174.0625,204.0156 C174.0625,206.5938 176.1719,208.4844 179.0625,208.4844 C180.2813,208.4844 181.4375,208.1875 182.1875,207.6406 C182.7656,207.2344 183.0938,206.7813 183.0938,206.3906 C183.0938,205.9375 182.7031,205.5469 182.2344,205.5469 C182.0156,205.5469 181.8125,205.625 181.625,205.8125 C181.1719,206.2969 181.1719,206.2969 180.9844,206.3906 C180.5625,206.6563 179.875,206.7813 179.1094,206.7813 C177.0625,206.7813 175.7656,205.6875 175.7656,203.9844 L175.7656,202.8906 C175.7656,201.1094 177.0156,199.7969 178.75,199.7969 C179.3281,199.7969 179.9375,199.9531 180.4063,200.2031 C180.8906,200.4844 181.0625,200.7031 181.1563,201.1094 C181.2188,201.5156 181.25,201.6406 181.3906,201.7656 C181.5313,201.9063 181.7656,202.0156 181.9844,202.0156 C182.25,202.0156 182.5156,201.875 182.6875,201.6563 C182.7969,201.5 182.8281,201.3125 182.8281,200.8906 L182.8281,199.4688 C182.8281,199.0313 182.8125,198.9063 182.7188,198.75 C182.5625,198.4844 182.2813,198.3438 181.9844,198.3438 C181.6875,198.3438 181.4844,198.4375 181.2656,198.75 L181.0938,198.6719 Z " fill="#000000"/><text fill="#000000" font-family="sans-serif" font-size="12" lengthAdjust="spacingAndGlyphs" textLength="110" x="199.25" y="207.1543">ConsoleTicTacToe</text><line style="stroke:#A80036;stroke-width:1.5;" x1="34" x2="442" y1="219" y2="219"/><line style="stroke:#A80036;stroke-width:1.5;" x1="34" x2="442" y1="227" y2="227"/><ellipse cx="44" cy="238" fill="#84BE84" rx="3" ry="3" style="stroke:#038048;stroke-width:1.0;"/><text fill="#000000" font-family="sans-serif" font-size="11" lengthAdjust="spacingAndGlyphs" text-decoration="underline" textLength="77" x="53" y="241.2104">main(String[])</text><polygon fill="#FFFF44" points="44,245.8047,48,249.8047,44,253.8047,40,249.8047" style="stroke:#B38D22;stroke-width:1.0;"/><text fill="#000000" font-family="sans-serif" font-size="11" lengthAdjust="spacingAndGlyphs" textLength="384" x="53" y="254.0151">createView(StartController, PlayController, ResumeController): View</text><!--MD5=[dcfee6ff2a733e6a859ce2b7bcbe021e]
class tictactoe.TicTacToe--><rect codeLine="13" fill="#FEFECE" filter="url(#fbp0lxixp7eev)" height="86.4141" id="tictactoe.TicTacToe" style="stroke:#A80036;stroke-width:1.5;" width="413" x="32.5" y="41"/><ellipse cx="205.25" cy="57" fill="#A9DCDF" rx="11" ry="11" style="stroke:#A80036;stroke-width:1.0;"/><path d="M207.3281,58.8125 L207.7188,59.7969 L207.3281,59.7969 C206.875,59.7969 206.7656,59.8125 206.6094,59.9219 C206.3594,60.0781 206.2031,60.3594 206.2031,60.6563 C206.2031,60.9219 206.3438,61.1719 206.5625,61.3281 C206.7031,61.4531 206.9063,61.5 207.3281,61.5 L209.6875,61.5 C210.0469,61.5 210.2656,61.4688 210.4063,61.375 C210.6563,61.2344 210.8125,60.9375 210.8125,60.6563 C210.8125,60.375 210.6719,60.125 210.4531,59.9688 C210.2813,59.8281 210.125,59.7969 209.6563,59.7969 L206.2656,51.5938 L202.5938,51.5938 C202.1406,51.5938 202.0156,51.6094 201.8594,51.7031 C201.6094,51.875 201.4531,52.1563 201.4531,52.4375 C201.4531,52.7188 201.5938,52.9688 201.8125,53.1406 C201.9844,53.25 202.1563,53.2813 202.5938,53.2813 L203.6719,53.2813 L201.0313,59.7969 C200.6094,59.7969 200.4531,59.8125 200.2969,59.9219 C200.0469,60.0781 199.8906,60.3594 199.8906,60.6563 C199.8906,61.2188 200.2656,61.5 201.0156,61.5 L203.2813,61.5 C203.6406,61.5 203.8594,61.4688 203.9844,61.375 C204.25,61.2344 204.3906,60.9375 204.3906,60.6563 C204.3906,60.375 204.2656,60.125 204.0469,59.9531 C203.875,59.8281 203.7344,59.7969 203.2813,59.7969 L202.8906,59.7969 L203.2813,58.8125 L207.3281,58.8125 Z M206.625,57.1094 L203.9531,57.1094 L205.2969,53.8438 L206.625,57.1094 Z " fill="#000000"/><text fill="#000000" font-family="sans-serif" font-size="12" font-style="italic" lengthAdjust="spacingAndGlyphs" textLength="59" x="225.75" y="61.1543">TicTacToe</text><line style="stroke:#A80036;stroke-width:1.5;" x1="33.5" x2="444.5" y1="73" y2="73"/><line style="stroke:#A80036;stroke-width:1.5;" x1="33.5" x2="444.5" y1="81" y2="81"/><polygon fill="#FFFF44" points="43.5,87,47.5,91,43.5,95,39.5,91" style="stroke:#B38D22;stroke-width:1.0;"/><text fill="#000000" font-family="sans-serif" font-size="11" lengthAdjust="spacingAndGlyphs" textLength="66" x="52.5" y="95.2104">TicTacToe()</text><polygon fill="#FFFF44" points="43.5,99.8047,47.5,103.8047,43.5,107.8047,39.5,103.8047" style="stroke:#B38D22;stroke-width:1.0;"/><text fill="#000000" font-family="sans-serif" font-size="11" font-style="italic" lengthAdjust="spacingAndGlyphs" textLength="387" x="52.5" y="108.0151">createView(StartController, PlayController, ResumeController): View</text><polygon fill="#FFFF44" points="43.5,112.6094,47.5,116.6094,43.5,120.6094,39.5,116.6094" style="stroke:#B38D22;stroke-width:1.0;"/><text fill="#000000" font-family="sans-serif" font-size="11" lengthAdjust="spacingAndGlyphs" textLength="32" x="52.5" y="120.8198">play()</text><!--MD5=[c045e12321b83266d36d22b9096c24ea]
class View--><rect codeLine="1" fill="#FEFECE" filter="url(#fbp0lxixp7eev)" height="48" id="View" style="stroke:#A80036;stroke-width:1.5;" width="154" x="478" y="200"/><ellipse cx="493" cy="216" fill="#ADD1B2" rx="11" ry="11" style="stroke:#A80036;stroke-width:1.0;"/><path d="M495.3438,211.6719 C494.4063,211.2344 493.8125,211.0938 492.9375,211.0938 C490.3125,211.0938 488.3125,213.1719 488.3125,215.8906 L488.3125,217.0156 C488.3125,219.5938 490.4219,221.4844 493.3125,221.4844 C494.5313,221.4844 495.6875,221.1875 496.4375,220.6406 C497.0156,220.2344 497.3438,219.7813 497.3438,219.3906 C497.3438,218.9375 496.9531,218.5469 496.4844,218.5469 C496.2656,218.5469 496.0625,218.625 495.875,218.8125 C495.4219,219.2969 495.4219,219.2969 495.2344,219.3906 C494.8125,219.6563 494.125,219.7813 493.3594,219.7813 C491.3125,219.7813 490.0156,218.6875 490.0156,216.9844 L490.0156,215.8906 C490.0156,214.1094 491.2656,212.7969 493,212.7969 C493.5781,212.7969 494.1875,212.9531 494.6563,213.2031 C495.1406,213.4844 495.3125,213.7031 495.4063,214.1094 C495.4688,214.5156 495.5,214.6406 495.6406,214.7656 C495.7813,214.9063 496.0156,215.0156 496.2344,215.0156 C496.5,215.0156 496.7656,214.875 496.9375,214.6563 C497.0469,214.5 497.0781,214.3125 497.0781,213.8906 L497.0781,212.4688 C497.0781,212.0313 497.0625,211.9063 496.9688,211.75 C496.8125,211.4844 496.5313,211.3438 496.2344,211.3438 C495.9375,211.3438 495.7344,211.4375 495.5156,211.75 L495.3438,211.6719 Z " fill="#000000"/><text fill="#000000" font-family="sans-serif" font-size="12" lengthAdjust="spacingAndGlyphs" textLength="122" x="507" y="220.1543">tictactoe.views.View</text><line style="stroke:#A80036;stroke-width:1.5;" x1="479" x2="631" y1="232" y2="232"/><line style="stroke:#A80036;stroke-width:1.5;" x1="479" x2="631" y1="240" y2="240"/><!--MD5=[b6dcce5e5ef3c84b0b048d11301373dd]
class Game--><rect codeLine="2" fill="#FEFECE" filter="url(#fbp0lxixp7eev)" height="48" id="Game" style="stroke:#A80036;stroke-width:1.5;" width="170" x="667" y="200"/><ellipse cx="682" cy="216" fill="#ADD1B2" rx="11" ry="11" style="stroke:#A80036;stroke-width:1.0;"/><path d="M684.3438,211.6719 C683.4063,211.2344 682.8125,211.0938 681.9375,211.0938 C679.3125,211.0938 677.3125,213.1719 677.3125,215.8906 L677.3125,217.0156 C677.3125,219.5938 679.4219,221.4844 682.3125,221.4844 C683.5313,221.4844 684.6875,221.1875 685.4375,220.6406 C686.0156,220.2344 686.3438,219.7813 686.3438,219.3906 C686.3438,218.9375 685.9531,218.5469 685.4844,218.5469 C685.2656,218.5469 685.0625,218.625 684.875,218.8125 C684.4219,219.2969 684.4219,219.2969 684.2344,219.3906 C683.8125,219.6563 683.125,219.7813 682.3594,219.7813 C680.3125,219.7813 679.0156,218.6875 679.0156,216.9844 L679.0156,215.8906 C679.0156,214.1094 680.2656,212.7969 682,212.7969 C682.5781,212.7969 683.1875,212.9531 683.6563,213.2031 C684.1406,213.4844 684.3125,213.7031 684.4063,214.1094 C684.4688,214.5156 684.5,214.6406 684.6406,214.7656 C684.7813,214.9063 685.0156,215.0156 685.2344,215.0156 C685.5,215.0156 685.7656,214.875 685.9375,214.6563 C686.0469,214.5 686.0781,214.3125 686.0781,213.8906 L686.0781,212.4688 C686.0781,212.0313 686.0625,211.9063 685.9688,211.75 C685.8125,211.4844 685.5313,211.3438 685.2344,211.3438 C684.9375,211.3438 684.7344,211.4375 684.5156,211.75 L684.3438,211.6719 Z " fill="#000000"/><text fill="#000000" font-family="sans-serif" font-size="12" lengthAdjust="spacingAndGlyphs" textLength="138" x="696" y="220.1543">tictactoe.models.Game</text><line style="stroke:#A80036;stroke-width:1.5;" x1="668" x2="836" y1="232" y2="232"/><line style="stroke:#A80036;stroke-width:1.5;" x1="668" x2="836" y1="240" y2="240"/><!--MD5=[47c371471411cfedeee61b1a5bdaee47]
class StartController--><rect codeLine="3" fill="#FEFECE" filter="url(#fbp0lxixp7eev)" height="48" id="StartController" style="stroke:#A80036;stroke-width:1.5;" width="242" x="872" y="200"/><ellipse cx="887" cy="216" fill="#ADD1B2" rx="11" ry="11" style="stroke:#A80036;stroke-width:1.0;"/><path d="M889.3438,211.6719 C888.4063,211.2344 887.8125,211.0938 886.9375,211.0938 C884.3125,211.0938 882.3125,213.1719 882.3125,215.8906 L882.3125,217.0156 C882.3125,219.5938 884.4219,221.4844 887.3125,221.4844 C888.5313,221.4844 889.6875,221.1875 890.4375,220.6406 C891.0156,220.2344 891.3438,219.7813 891.3438,219.3906 C891.3438,218.9375 890.9531,218.5469 890.4844,218.5469 C890.2656,218.5469 890.0625,218.625 889.875,218.8125 C889.4219,219.2969 889.4219,219.2969 889.2344,219.3906 C888.8125,219.6563 888.125,219.7813 887.3594,219.7813 C885.3125,219.7813 884.0156,218.6875 884.0156,216.9844 L884.0156,215.8906 C884.0156,214.1094 885.2656,212.7969 887,212.7969 C887.5781,212.7969 888.1875,212.9531 888.6563,213.2031 C889.1406,213.4844 889.3125,213.7031 889.4063,214.1094 C889.4688,214.5156 889.5,214.6406 889.6406,214.7656 C889.7813,214.9063 890.0156,215.0156 890.2344,215.0156 C890.5,215.0156 890.7656,214.875 890.9375,214.6563 C891.0469,214.5 891.0781,214.3125 891.0781,213.8906 L891.0781,212.4688 C891.0781,212.0313 891.0625,211.9063 890.9688,211.75 C890.8125,211.4844 890.5313,211.3438 890.2344,211.3438 C889.9375,211.3438 889.7344,211.4375 889.5156,211.75 L889.3438,211.6719 Z " fill="#000000"/><text fill="#000000" font-family="sans-serif" font-size="12" lengthAdjust="spacingAndGlyphs" textLength="210" x="901" y="220.1543">tictactoe.controllers.StartController</text><line style="stroke:#A80036;stroke-width:1.5;" x1="873" x2="1113" y1="232" y2="232"/><line style="stroke:#A80036;stroke-width:1.5;" x1="873" x2="1113" y1="240" y2="240"/><!--MD5=[cc8600b868f8dfab2c8d497bce62f90a]
class PlayController--><rect codeLine="4" fill="#FEFECE" filter="url(#fbp0lxixp7eev)" height="48" id="PlayController" style="stroke:#A80036;stroke-width:1.5;" width="237" x="1149.5" y="200"/><ellipse cx="1164.5" cy="216" fill="#ADD1B2" rx="11" ry="11" style="stroke:#A80036;stroke-width:1.0;"/><path d="M1166.8438,211.6719 C1165.9063,211.2344 1165.3125,211.0938 1164.4375,211.0938 C1161.8125,211.0938 1159.8125,213.1719 1159.8125,215.8906 L1159.8125,217.0156 C1159.8125,219.5938 1161.9219,221.4844 1164.8125,221.4844 C1166.0313,221.4844 1167.1875,221.1875 1167.9375,220.6406 C1168.5156,220.2344 1168.8438,219.7813 1168.8438,219.3906 C1168.8438,218.9375 1168.4531,218.5469 1167.9844,218.5469 C1167.7656,218.5469 1167.5625,218.625 1167.375,218.8125 C1166.9219,219.2969 1166.9219,219.2969 1166.7344,219.3906 C1166.3125,219.6563 1165.625,219.7813 1164.8594,219.7813 C1162.8125,219.7813 1161.5156,218.6875 1161.5156,216.9844 L1161.5156,215.8906 C1161.5156,214.1094 1162.7656,212.7969 1164.5,212.7969 C1165.0781,212.7969 1165.6875,212.9531 1166.1563,213.2031 C1166.6406,213.4844 1166.8125,213.7031 1166.9063,214.1094 C1166.9688,214.5156 1167,214.6406 1167.1406,214.7656 C1167.2813,214.9063 1167.5156,215.0156 1167.7344,215.0156 C1168,215.0156 1168.2656,214.875 1168.4375,214.6563 C1168.5469,214.5 1168.5781,214.3125 1168.5781,213.8906 L1168.5781,212.4688 C1168.5781,212.0313 1168.5625,211.9063 1168.4688,211.75 C1168.3125,211.4844 1168.0313,211.3438 1167.7344,211.3438 C1167.4375,211.3438 1167.2344,211.4375 1167.0156,211.75 L1166.8438,211.6719 Z " fill="#000000"/><text fill="#000000" font-family="sans-serif" font-size="12" lengthAdjust="spacingAndGlyphs" textLength="205" x="1178.5" y="220.1543">tictactoe.controllers.PlayController</text><line style="stroke:#A80036;stroke-width:1.5;" x1="1150.5" x2="1385.5" y1="232" y2="232"/><line style="stroke:#A80036;stroke-width:1.5;" x1="1150.5" x2="1385.5" y1="240" y2="240"/><!--MD5=[1a47bbf44ccee225df9b18c5b6629853]
class ResumeController--><rect codeLine="5" fill="#FEFECE" filter="url(#fbp0lxixp7eev)" height="48" id="ResumeController" style="stroke:#A80036;stroke-width:1.5;" width="262" x="1422" y="200"/><ellipse cx="1437" cy="216" fill="#ADD1B2" rx="11" ry="11" style="stroke:#A80036;stroke-width:1.0;"/><path d="M1439.3438,211.6719 C1438.4063,211.2344 1437.8125,211.0938 1436.9375,211.0938 C1434.3125,211.0938 1432.3125,213.1719 1432.3125,215.8906 L1432.3125,217.0156 C1432.3125,219.5938 1434.4219,221.4844 1437.3125,221.4844 C1438.5313,221.4844 1439.6875,221.1875 1440.4375,220.6406 C1441.0156,220.2344 1441.3438,219.7813 1441.3438,219.3906 C1441.3438,218.9375 1440.9531,218.5469 1440.4844,218.5469 C1440.2656,218.5469 1440.0625,218.625 1439.875,218.8125 C1439.4219,219.2969 1439.4219,219.2969 1439.2344,219.3906 C1438.8125,219.6563 1438.125,219.7813 1437.3594,219.7813 C1435.3125,219.7813 1434.0156,218.6875 1434.0156,216.9844 L1434.0156,215.8906 C1434.0156,214.1094 1435.2656,212.7969 1437,212.7969 C1437.5781,212.7969 1438.1875,212.9531 1438.6563,213.2031 C1439.1406,213.4844 1439.3125,213.7031 1439.4063,214.1094 C1439.4688,214.5156 1439.5,214.6406 1439.6406,214.7656 C1439.7813,214.9063 1440.0156,215.0156 1440.2344,215.0156 C1440.5,215.0156 1440.7656,214.875 1440.9375,214.6563 C1441.0469,214.5 1441.0781,214.3125 1441.0781,213.8906 L1441.0781,212.4688 C1441.0781,212.0313 1441.0625,211.9063 1440.9688,211.75 C1440.8125,211.4844 1440.5313,211.3438 1440.2344,211.3438 C1439.9375,211.3438 1439.7344,211.4375 1439.5156,211.75 L1439.3438,211.6719 Z " fill="#000000"/><text fill="#000000" font-family="sans-serif" font-size="12" lengthAdjust="spacingAndGlyphs" textLength="230" x="1451" y="220.1543">tictactoe.controllers.ResumeController</text><line style="stroke:#A80036;stroke-width:1.5;" x1="1423" x2="1683" y1="232" y2="232"/><line style="stroke:#A80036;stroke-width:1.5;" x1="1423" x2="1683" y1="240" y2="240"/><!--MD5=[4e0ca678de8db9099731dcdc2b6658ba]
reverse link tictactoe.TicTacToe to tictactoe.ConsoleTicTacToe--><path codeLine="11" d="M238.546,147.623 C238.449,161.004 238.35,174.707 238.263,186.697 " fill="none" id="tictactoe.TicTacToe-backto-tictactoe.ConsoleTicTacToe" style="stroke:#A80036;stroke-width:1.0;"/><polygon fill="none" points="231.55,147.103,238.695,127.154,245.549,147.205,231.55,147.103" style="stroke:#A80036;stroke-width:1.0;"/><!--MD5=[8c425d580a9b92d738a930527fd635fb]
link tictactoe.TicTacToe to Game--><path codeLine="18" d="M436.0792,129.8422 C436.0792,129.8422 581.278,166.397 650,187 C658.904,189.669 668.178,192.653 677.347,195.7282 " fill="none" id="tictactoe.TicTacToe-Game" style="stroke:#A80036;stroke-width:1.0;"/><polygon fill="#A80036" points="689.739,199.9588,682.5141,193.2655,685.0072,198.3433,679.9293,200.8364,689.739,199.9588" style="stroke:#A80036;stroke-width:1.0;"/><line style="stroke:#A80036;stroke-width:1.0;" x1="685.0072" x2="677.436" y1="198.3433" y2="195.7588"/><polygon fill="#A80036" points="424.417,127.015,429.3057,132.316,436.0792,129.8422,431.1905,124.5412,424.417,127.015" style="stroke:#A80036;stroke-width:1.0;"/><!--MD5=[4244f9edb3d450aa4423a2442cdf3765]
link tictactoe.TicTacToe to View--><path codeLine="19" d="M346.5242,131.9564 C346.5242,131.9564 449.126,176.764 490.163,194.6852 " fill="none" id="tictactoe.TicTacToe-View" style="stroke:#A80036;stroke-width:1.0;"/><polygon fill="#A80036" points="502.187,199.9359,495.54,192.6684,497.6049,197.9349,492.3383,199.9998,502.187,199.9359" style="stroke:#A80036;stroke-width:1.0;"/><line style="stroke:#A80036;stroke-width:1.0;" x1="497.6049" x2="490.273" y1="197.9349" y2="194.7329"/><polygon fill="#A80036" points="335.527,127.154,339.4248,133.2209,346.5242,131.9564,342.6264,125.8895,335.527,127.154" style="stroke:#A80036;stroke-width:1.0;"/><!--MD5=[418e617e5427b1769da1183790bb0c75]
link tictactoe.TicTacToe to StartController--><path codeLine="20" d="M457.428,116.2114 C457.428,116.2114 724.317,159.195 855,187 C868.628,189.9 882.933,193.264 896.959,196.7487 " fill="none" id="tictactoe.TicTacToe-StartController" style="stroke:#A80036;stroke-width:1.0;"/><polygon fill="#A80036" points="909.734,199.9728,901.9866,193.8919,904.886,198.7492,900.0288,201.6486,909.734,199.9728" style="stroke:#A80036;stroke-width:1.0;"/><line style="stroke:#A80036;stroke-width:1.0;" x1="904.886" x2="897.1285" y1="198.7492" y2="196.7916"/><polygon fill="#A80036" points="445.566,114.397,450.8922,119.2582,457.428,116.2114,452.1018,111.3502,445.566,114.397" style="stroke:#A80036;stroke-width:1.0;"/><!--MD5=[82634a372df6adadfd51c0b03e6d50ba]
link tictactoe.TicTacToe to PlayController--><path codeLine="21" d="M457.4993,101.0524 C457.4993,101.0524 904.307,144.095 1132,187 C1146.29,189.694 1161.3,193.0821 1175.91,196.6966 " fill="none" id="tictactoe.TicTacToe-PlayController" style="stroke:#A80036;stroke-width:1.0;"/><polygon fill="#A80036" points="1188.62,199.9194,1180.875,193.8354,1183.7725,198.6938,1178.9141,201.5914,1188.62,199.9194" style="stroke:#A80036;stroke-width:1.0;"/><line style="stroke:#A80036;stroke-width:1.0;" x1="1183.7725" x2="1176.015" y1="198.6938" y2="196.7242"/><polygon fill="#A80036" points="445.542,100.041,451.1835,104.5325,457.4993,101.0524,451.8578,96.5609,445.542,100.041" style="stroke:#A80036;stroke-width:1.0;"/><!--MD5=[6c91c4b7f7877b97f28656e3787a7627]
link tictactoe.TicTacToe to ResumeController--><path codeLine="22" d="M457.5908,94.3588 C457.5908,94.3588 1077.2,133.523 1404,187 C1420.43,189.688 1437.73,193.2124 1454.48,197.0032 " fill="none" id="tictactoe.TicTacToe-ResumeController" style="stroke:#A80036;stroke-width:1.0;"/><polygon fill="#A80036" points="1467.17,199.9447,1459.3089,194.0114,1462.2998,198.813,1457.4982,201.8038,1467.17,199.9447" style="stroke:#A80036;stroke-width:1.0;"/><line style="stroke:#A80036;stroke-width:1.0;" x1="1462.2998" x2="1454.51" y1="198.813" y2="197.0086"/><polygon fill="#A80036" points="445.607,93.735,451.391,98.0415,457.5908,94.3588,451.8068,90.0523,445.607,93.735" style="stroke:#A80036;stroke-width:1.0;"/><!--MD5=[5a21d5f2ccb88d3f87a927dd70a3c0f1]
@startuml
class View as "tictactoe.views.View" {}
class Game as "tictactoe.models.Game" {}
class StartController as "tictactoe.controllers.StartController" {}
class PlayController as "tictactoe.controllers.PlayController" {}
class ResumeController as "tictactoe.controllers.ResumeController" {}

class  tictactoe.ConsoleTicTacToe{
+ {static} main(String[])
# createView(StartController, PlayController, ResumeController): View
}
tictactoe.TicTacToe <|-down- tictactoe.ConsoleTicTacToe

abstract class  tictactoe.TicTacToe{
# TicTacToe()
# {abstract} createView(StartController, PlayController, ResumeController): View
# play()
}
tictactoe.TicTacToe *-down-> Game
tictactoe.TicTacToe *-down-> View
tictactoe.TicTacToe *-down-> StartController
tictactoe.TicTacToe *-down-> PlayController
tictactoe.TicTacToe *-down-> ResumeController
@enduml

PlantUML version 1.2020.22(Sun Dec 06 09:36:27 UTC 2020)
(GPL source distribution)
Java Runtime: Java(TM) SE Runtime Environment
JVM: Java HotSpot(TM) 64-Bit Server VM
Default Encoding: UTF-8
Language: en
Country: US
--></g></svg>