<?xml version="1.0" encoding="UTF-8" standalone="no"?><svg xmlns="http://www.w3.org/2000/svg" xmlns:xlink="http://www.w3.org/1999/xlink" contentScriptType="application/ecmascript" contentStyleType="text/css" height="787px" preserveAspectRatio="none" style="width:2254px;height:787px;" version="1.1" viewBox="0 0 2254 787" width="2254px" zoomAndPan="magnify"><defs><filter height="300%" id="fplj7viw0pku0" width="300%" x="-1" y="-1"><feGaussianBlur result="blurOut" stdDeviation="2.0"/><feColorMatrix in="blurOut" result="blurOut2" type="matrix" values="0 0 0 0 0 0 0 0 0 0 0 0 0 0 0 0 0 0 .4 0"/><feOffset dx="4.0" dy="4.0" in="blurOut2" result="blurOut3"/><feBlend in="SourceGraphic" in2="blurOut3" mode="normal"/></filter></defs><g><!--MD5=[64182ab34c08ac367bbf699869515711]
cluster tictactoe.views.console--><polygon fill="#FFFFFF" filter="url(#fplj7viw0pku0)" points="183.6198,86,382.6198,86,389.6198,108.2969,916.6198,108.2969,916.6198,676,183.6198,676,183.6198,86" style="stroke:#000000;stroke-width:1.5;"/><line style="stroke:#000000;stroke-width:1.5;" x1="183.6198" x2="389.6198" y1="108.2969" y2="108.2969"/><text fill="#000000" font-family="sans-serif" font-size="14" font-weight="bold" lengthAdjust="spacingAndGlyphs" textLength="193" x="187.6198" y="100.9951">tictactoe.views.console</text><!--MD5=[bde0c8ed193d8d2dbac1dee471354ab0]
class tictactoe.views.console.ConsoleView--><rect codeLine="15" fill="#FEFECE" filter="url(#fplj7viw0pku0)" height="99.2188" id="tictactoe.views.console.ConsoleView" style="stroke:#A80036;stroke-width:1.5;" width="384" x="376.6198" y="121"/><ellipse cx="525.3698" cy="137" fill="#ADD1B2" rx="11" ry="11" style="stroke:#A80036;stroke-width:1.0;"/><path d="M527.7135,132.6719 C526.776,132.2344 526.1823,132.0938 525.3073,132.0938 C522.6823,132.0938 520.6823,134.1719 520.6823,136.8906 L520.6823,138.0156 C520.6823,140.5938 522.7916,142.4844 525.6823,142.4844 C526.901,142.4844 528.0573,142.1875 528.8073,141.6406 C529.3854,141.2344 529.7135,140.7813 529.7135,140.3906 C529.7135,139.9375 529.3229,139.5469 528.8541,139.5469 C528.6354,139.5469 528.4323,139.625 528.2448,139.8125 C527.7916,140.2969 527.7916,140.2969 527.6041,140.3906 C527.1823,140.6563 526.4948,140.7813 525.7291,140.7813 C523.6823,140.7813 522.3854,139.6875 522.3854,137.9844 L522.3854,136.8906 C522.3854,135.1094 523.6354,133.7969 525.3698,133.7969 C525.9479,133.7969 526.5573,133.9531 527.026,134.2031 C527.5104,134.4844 527.6823,134.7031 527.776,135.1094 C527.8385,135.5156 527.8698,135.6406 528.0104,135.7656 C528.151,135.9063 528.3854,136.0156 528.6041,136.0156 C528.8698,136.0156 529.1354,135.875 529.3073,135.6563 C529.4166,135.5 529.4479,135.3125 529.4479,134.8906 L529.4479,133.4688 C529.4479,133.0313 529.4323,132.9063 529.3385,132.75 C529.1823,132.4844 528.901,132.3438 528.6041,132.3438 C528.3073,132.3438 528.1041,132.4375 527.8854,132.75 L527.7135,132.6719 Z " fill="#000000"/><text fill="#000000" font-family="sans-serif" font-size="12" lengthAdjust="spacingAndGlyphs" textLength="78" x="545.8698" y="141.1543">ConsoleView</text><line style="stroke:#A80036;stroke-width:1.5;" x1="377.6198" x2="759.6198" y1="153" y2="153"/><line style="stroke:#A80036;stroke-width:1.5;" x1="377.6198" x2="759.6198" y1="161" y2="161"/><ellipse cx="387.6198" cy="172" fill="#84BE84" rx="3" ry="3" style="stroke:#038048;stroke-width:1.0;"/><text fill="#000000" font-family="sans-serif" font-size="11" lengthAdjust="spacingAndGlyphs" textLength="358" x="396.6198" y="175.2104">ConsoleView(StartController, PlayController, ResumeController)</text><polygon fill="#FFFF44" points="387.6198,179.8047,391.6198,183.8047,387.6198,187.8047,383.6198,183.8047" style="stroke:#B38D22;stroke-width:1.0;"/><text fill="#000000" font-family="sans-serif" font-size="11" lengthAdjust="spacingAndGlyphs" textLength="33" x="396.6198" y="188.0151">start()</text><polygon fill="#FFFF44" points="387.6198,192.6094,391.6198,196.6094,387.6198,200.6094,383.6198,196.6094" style="stroke:#B38D22;stroke-width:1.0;"/><text fill="#000000" font-family="sans-serif" font-size="11" lengthAdjust="spacingAndGlyphs" textLength="32" x="396.6198" y="200.8198">play()</text><polygon fill="#FFFF44" points="387.6198,205.4141,391.6198,209.4141,387.6198,213.4141,383.6198,209.4141" style="stroke:#B38D22;stroke-width:1.0;"/><text fill="#000000" font-family="sans-serif" font-size="11" lengthAdjust="spacingAndGlyphs" textLength="124" x="396.6198" y="213.6245">isResumed(): boolean</text><!--MD5=[54aa299435631381f3c0c028f26a058f]
class tictactoe.views.console.StartView--><rect codeLine="79" fill="#FEFECE" filter="url(#fplj7viw0pku0)" height="73.6094" id="tictactoe.views.console.StartView" style="stroke:#A80036;stroke-width:1.5;" width="171" x="483.1198" y="299"/><ellipse cx="535.8698" cy="315" fill="#ADD1B2" rx="11" ry="11" style="stroke:#A80036;stroke-width:1.0;"/><path d="M538.2135,310.6719 C537.276,310.2344 536.6823,310.0938 535.8073,310.0938 C533.1823,310.0938 531.1823,312.1719 531.1823,314.8906 L531.1823,316.0156 C531.1823,318.5938 533.2916,320.4844 536.1823,320.4844 C537.401,320.4844 538.5573,320.1875 539.3073,319.6406 C539.8854,319.2344 540.2135,318.7813 540.2135,318.3906 C540.2135,317.9375 539.8229,317.5469 539.3541,317.5469 C539.1354,317.5469 538.9323,317.625 538.7448,317.8125 C538.2916,318.2969 538.2916,318.2969 538.1041,318.3906 C537.6823,318.6563 536.9948,318.7813 536.2291,318.7813 C534.1823,318.7813 532.8854,317.6875 532.8854,315.9844 L532.8854,314.8906 C532.8854,313.1094 534.1354,311.7969 535.8698,311.7969 C536.4479,311.7969 537.0573,311.9531 537.526,312.2031 C538.0104,312.4844 538.1823,312.7031 538.276,313.1094 C538.3385,313.5156 538.3698,313.6406 538.5104,313.7656 C538.651,313.9063 538.8854,314.0156 539.1041,314.0156 C539.3698,314.0156 539.6354,313.875 539.8073,313.6563 C539.9166,313.5 539.9479,313.3125 539.9479,312.8906 L539.9479,311.4688 C539.9479,311.0313 539.9323,310.9063 539.8385,310.75 C539.6823,310.4844 539.401,310.3438 539.1041,310.3438 C538.8073,310.3438 538.6041,310.4375 538.3854,310.75 L538.2135,310.6719 Z " fill="#000000"/><text fill="#000000" font-family="sans-serif" font-size="12" lengthAdjust="spacingAndGlyphs" textLength="57" x="556.3698" y="319.1543">StartView</text><line style="stroke:#A80036;stroke-width:1.5;" x1="484.1198" x2="653.1198" y1="331" y2="331"/><line style="stroke:#A80036;stroke-width:1.5;" x1="484.1198" x2="653.1198" y1="339" y2="339"/><polygon fill="#4177AF" points="494.1198,346,490.1198,352,498.1198,352" style="stroke:#1963A0;stroke-width:1.0;"/><text fill="#000000" font-family="sans-serif" font-size="11" lengthAdjust="spacingAndGlyphs" textLength="145" x="503.1198" y="353.2104">StartView(StartController)</text><polygon fill="#4177AF" points="494.1198,358.8047,490.1198,364.8047,498.1198,364.8047" style="stroke:#1963A0;stroke-width:1.0;"/><text fill="#000000" font-family="sans-serif" font-size="11" lengthAdjust="spacingAndGlyphs" textLength="51" x="503.1198" y="366.0151">interact()</text><!--MD5=[0158df0baddf48f83142f472e341eacc]
class tictactoe.views.console.PlayView--><rect codeLine="54" fill="#FEFECE" filter="url(#fplj7viw0pku0)" height="112.0234" id="tictactoe.views.console.PlayView" style="stroke:#A80036;stroke-width:1.5;" width="248" x="199.6198" y="280"/><ellipse cx="293.3698" cy="296" fill="#ADD1B2" rx="11" ry="11" style="stroke:#A80036;stroke-width:1.0;"/><path d="M295.7135,291.6719 C294.776,291.2344 294.1823,291.0938 293.3073,291.0938 C290.6823,291.0938 288.6823,293.1719 288.6823,295.8906 L288.6823,297.0156 C288.6823,299.5938 290.7916,301.4844 293.6823,301.4844 C294.901,301.4844 296.0573,301.1875 296.8073,300.6406 C297.3854,300.2344 297.7135,299.7813 297.7135,299.3906 C297.7135,298.9375 297.3229,298.5469 296.8541,298.5469 C296.6354,298.5469 296.4323,298.625 296.2448,298.8125 C295.7916,299.2969 295.7916,299.2969 295.6041,299.3906 C295.1823,299.6563 294.4948,299.7813 293.7291,299.7813 C291.6823,299.7813 290.3854,298.6875 290.3854,296.9844 L290.3854,295.8906 C290.3854,294.1094 291.6354,292.7969 293.3698,292.7969 C293.9479,292.7969 294.5573,292.9531 295.026,293.2031 C295.5104,293.4844 295.6823,293.7031 295.776,294.1094 C295.8385,294.5156 295.8698,294.6406 296.0104,294.7656 C296.151,294.9063 296.3854,295.0156 296.6041,295.0156 C296.8698,295.0156 297.1354,294.875 297.3073,294.6563 C297.4166,294.5 297.4479,294.3125 297.4479,293.8906 L297.4479,292.4688 C297.4479,292.0313 297.4323,291.9063 297.3385,291.75 C297.1823,291.4844 296.901,291.3438 296.6041,291.3438 C296.3073,291.3438 296.1041,291.4375 295.8854,291.75 L295.7135,291.6719 Z " fill="#000000"/><text fill="#000000" font-family="sans-serif" font-size="12" lengthAdjust="spacingAndGlyphs" textLength="52" x="313.8698" y="300.1543">PlayView</text><line style="stroke:#A80036;stroke-width:1.5;" x1="200.6198" x2="446.6198" y1="312" y2="312"/><line style="stroke:#A80036;stroke-width:1.5;" x1="200.6198" x2="446.6198" y1="320" y2="320"/><polygon fill="#4177AF" points="210.6198,327,206.6198,333,214.6198,333" style="stroke:#1963A0;stroke-width:1.0;"/><text fill="#000000" font-family="sans-serif" font-size="11" lengthAdjust="spacingAndGlyphs" textLength="137" x="219.6198" y="334.2104">PlayView(PlayController)</text><polygon fill="#4177AF" points="210.6198,339.8047,206.6198,345.8047,214.6198,345.8047" style="stroke:#1963A0;stroke-width:1.0;"/><text fill="#000000" font-family="sans-serif" font-size="11" lengthAdjust="spacingAndGlyphs" textLength="51" x="219.6198" y="347.0151">interact()</text><rect fill="#F24D5C" height="6" style="stroke:#C82930;stroke-width:1.0;" width="6" x="207.6198" y="353.6094"/><text fill="#000000" font-family="sans-serif" font-size="11" lengthAdjust="spacingAndGlyphs" textLength="26" x="219.6198" y="359.8198">put()</text><rect fill="#F24D5C" height="6" style="stroke:#C82930;stroke-width:1.0;" width="6" x="207.6198" y="366.4141"/><text fill="#000000" font-family="sans-serif" font-size="11" lengthAdjust="spacingAndGlyphs" textLength="41" x="219.6198" y="372.6245">move()</text><ellipse cx="210.6198" cy="382.2188" fill="#84BE84" rx="3" ry="3" style="stroke:#038048;stroke-width:1.0;"/><text fill="#000000" font-family="sans-serif" font-size="11" lengthAdjust="spacingAndGlyphs" textLength="222" x="219.6198" y="385.4292">createRandomCoordinate(): Coordinate</text><!--MD5=[863eeac66a77264bd74e28cbddefcd23]
class tictactoe.views.console.ResumeView--><rect codeLine="71" fill="#FEFECE" filter="url(#fplj7viw0pku0)" height="73.6094" id="tictactoe.views.console.ResumeView" style="stroke:#A80036;stroke-width:1.5;" width="211" x="689.1198" y="299"/><ellipse cx="751.8698" cy="315" fill="#ADD1B2" rx="11" ry="11" style="stroke:#A80036;stroke-width:1.0;"/><path d="M754.2135,310.6719 C753.276,310.2344 752.6823,310.0938 751.8073,310.0938 C749.1823,310.0938 747.1823,312.1719 747.1823,314.8906 L747.1823,316.0156 C747.1823,318.5938 749.2916,320.4844 752.1823,320.4844 C753.401,320.4844 754.5573,320.1875 755.3073,319.6406 C755.8854,319.2344 756.2135,318.7813 756.2135,318.3906 C756.2135,317.9375 755.8229,317.5469 755.3541,317.5469 C755.1354,317.5469 754.9323,317.625 754.7448,317.8125 C754.2916,318.2969 754.2916,318.2969 754.1041,318.3906 C753.6823,318.6563 752.9948,318.7813 752.2291,318.7813 C750.1823,318.7813 748.8854,317.6875 748.8854,315.9844 L748.8854,314.8906 C748.8854,313.1094 750.1354,311.7969 751.8698,311.7969 C752.4479,311.7969 753.0573,311.9531 753.526,312.2031 C754.0104,312.4844 754.1823,312.7031 754.276,313.1094 C754.3385,313.5156 754.3698,313.6406 754.5104,313.7656 C754.651,313.9063 754.8854,314.0156 755.1041,314.0156 C755.3698,314.0156 755.6354,313.875 755.8073,313.6563 C755.9166,313.5 755.9479,313.3125 755.9479,312.8906 L755.9479,311.4688 C755.9479,311.0313 755.9323,310.9063 755.8385,310.75 C755.6823,310.4844 755.401,310.3438 755.1041,310.3438 C754.8073,310.3438 754.6041,310.4375 754.3854,310.75 L754.2135,310.6719 Z " fill="#000000"/><text fill="#000000" font-family="sans-serif" font-size="12" lengthAdjust="spacingAndGlyphs" textLength="77" x="772.3698" y="319.1543">ResumeView</text><line style="stroke:#A80036;stroke-width:1.5;" x1="690.1198" x2="899.1198" y1="331" y2="331"/><line style="stroke:#A80036;stroke-width:1.5;" x1="690.1198" x2="899.1198" y1="339" y2="339"/><ellipse cx="700.1198" cy="350" fill="#84BE84" rx="3" ry="3" style="stroke:#038048;stroke-width:1.0;"/><text fill="#000000" font-family="sans-serif" font-size="11" lengthAdjust="spacingAndGlyphs" textLength="185" x="709.1198" y="353.2104">ResumeView(ResumeController)</text><polygon fill="#4177AF" points="700.1198,358.8047,696.1198,364.8047,704.1198,364.8047" style="stroke:#1963A0;stroke-width:1.0;"/><text fill="#000000" font-family="sans-serif" font-size="11" lengthAdjust="spacingAndGlyphs" textLength="104" x="709.1198" y="366.0151">interact(): boolean</text><!--MD5=[8830b246a550294711e6eb5af1606829]
class tictactoe.views.console.CoordinateView--><rect codeLine="26" fill="#FEFECE" filter="url(#fplj7viw0pku0)" height="73.6094" id="tictactoe.views.console.CoordinateView" style="stroke:#A80036;stroke-width:1.5;" width="202" x="490.6198" y="452"/><ellipse cx="539.8698" cy="468" fill="#ADD1B2" rx="11" ry="11" style="stroke:#A80036;stroke-width:1.0;"/><path d="M542.2135,463.6719 C541.276,463.2344 540.6823,463.0938 539.8073,463.0938 C537.1823,463.0938 535.1823,465.1719 535.1823,467.8906 L535.1823,469.0156 C535.1823,471.5938 537.2916,473.4844 540.1823,473.4844 C541.401,473.4844 542.5573,473.1875 543.3073,472.6406 C543.8854,472.2344 544.2135,471.7813 544.2135,471.3906 C544.2135,470.9375 543.8229,470.5469 543.3541,470.5469 C543.1354,470.5469 542.9323,470.625 542.7448,470.8125 C542.2916,471.2969 542.2916,471.2969 542.1041,471.3906 C541.6823,471.6563 540.9948,471.7813 540.2291,471.7813 C538.1823,471.7813 536.8854,470.6875 536.8854,468.9844 L536.8854,467.8906 C536.8854,466.1094 538.1354,464.7969 539.8698,464.7969 C540.4479,464.7969 541.0573,464.9531 541.526,465.2031 C542.0104,465.4844 542.1823,465.7031 542.276,466.1094 C542.3385,466.5156 542.3698,466.6406 542.5104,466.7656 C542.651,466.9063 542.8854,467.0156 543.1041,467.0156 C543.3698,467.0156 543.6354,466.875 543.8073,466.6563 C543.9166,466.5 543.9479,466.3125 543.9479,465.8906 L543.9479,464.4688 C543.9479,464.0313 543.9323,463.9063 543.8385,463.75 C543.6823,463.4844 543.401,463.3438 543.1041,463.3438 C542.8073,463.3438 542.6041,463.4375 542.3854,463.75 L542.2135,463.6719 Z " fill="#000000"/><text fill="#000000" font-family="sans-serif" font-size="12" lengthAdjust="spacingAndGlyphs" textLength="95" x="560.3698" y="472.1543">CoordinateView</text><line style="stroke:#A80036;stroke-width:1.5;" x1="491.6198" x2="691.6198" y1="484" y2="484"/><line style="stroke:#A80036;stroke-width:1.5;" x1="491.6198" x2="691.6198" y1="492" y2="492"/><ellipse cx="501.6198" cy="503" fill="#84BE84" rx="3" ry="3" style="stroke:#038048;stroke-width:1.0;"/><text fill="#000000" font-family="sans-serif" font-size="11" lengthAdjust="spacingAndGlyphs" textLength="176" x="510.6198" y="506.2104">CoordinateView(PlayController)</text><ellipse cx="501.6198" cy="515.8047" fill="#84BE84" rx="3" ry="3" style="stroke:#038048;stroke-width:1.0;"/><text fill="#000000" font-family="sans-serif" font-size="11" lengthAdjust="spacingAndGlyphs" textLength="136" x="510.6198" y="519.0151">read(String): Coordinate</text><!--MD5=[1ca4e66fd27a79cb5d7093d90b3139a4]
class tictactoe.views.console.ErrorView--><rect codeLine="36" fill="#FEFECE" filter="url(#fplj7viw0pku0)" height="73.6094" id="tictactoe.views.console.ErrorView" style="stroke:#A80036;stroke-width:1.5;" width="114" x="394.6198" y="586"/><ellipse cx="419.9698" cy="602" fill="#ADD1B2" rx="11" ry="11" style="stroke:#A80036;stroke-width:1.0;"/><path d="M422.3135,597.6719 C421.376,597.2344 420.7823,597.0938 419.9073,597.0938 C417.2823,597.0938 415.2823,599.1719 415.2823,601.8906 L415.2823,603.0156 C415.2823,605.5938 417.3916,607.4844 420.2823,607.4844 C421.501,607.4844 422.6573,607.1875 423.4073,606.6406 C423.9854,606.2344 424.3135,605.7813 424.3135,605.3906 C424.3135,604.9375 423.9229,604.5469 423.4541,604.5469 C423.2354,604.5469 423.0323,604.625 422.8448,604.8125 C422.3916,605.2969 422.3916,605.2969 422.2041,605.3906 C421.7823,605.6563 421.0948,605.7813 420.3291,605.7813 C418.2823,605.7813 416.9854,604.6875 416.9854,602.9844 L416.9854,601.8906 C416.9854,600.1094 418.2354,598.7969 419.9698,598.7969 C420.5479,598.7969 421.1573,598.9531 421.626,599.2031 C422.1104,599.4844 422.2823,599.7031 422.376,600.1094 C422.4385,600.5156 422.4698,600.6406 422.6104,600.7656 C422.751,600.9063 422.9854,601.0156 423.2041,601.0156 C423.4698,601.0156 423.7354,600.875 423.9073,600.6563 C424.0166,600.5 424.0479,600.3125 424.0479,599.8906 L424.0479,598.4688 C424.0479,598.0313 424.0323,597.9063 423.9385,597.75 C423.7823,597.4844 423.501,597.3438 423.2041,597.3438 C422.9073,597.3438 422.7041,597.4375 422.4854,597.75 L422.3135,597.6719 Z " fill="#000000"/><text fill="#000000" font-family="sans-serif" font-size="12" lengthAdjust="spacingAndGlyphs" textLength="59" x="436.2698" y="606.1543">ErrorView</text><line style="stroke:#A80036;stroke-width:1.5;" x1="395.6198" x2="507.6198" y1="618" y2="618"/><line style="stroke:#A80036;stroke-width:1.5;" x1="395.6198" x2="507.6198" y1="626" y2="626"/><polygon fill="#4177AF" points="405.6198,633,401.6198,639,409.6198,639" style="stroke:#1963A0;stroke-width:1.0;"/><text fill="#000000" font-family="sans-serif" font-size="11" lengthAdjust="spacingAndGlyphs" textLength="88" x="414.6198" y="640.2104">ErrorView(Error)</text><polygon fill="#4177AF" points="405.6198,645.8047,401.6198,651.8047,409.6198,651.8047" style="stroke:#1963A0;stroke-width:1.0;"/><text fill="#000000" font-family="sans-serif" font-size="11" lengthAdjust="spacingAndGlyphs" textLength="46" x="414.6198" y="653.0151">writeln()</text><!--MD5=[270aad5bca7cd81b5a24665b2403b70b]
class tictactoe.views.console.BoardView--><rect codeLine="44" fill="#FEFECE" filter="url(#fplj7viw0pku0)" height="73.6094" id="tictactoe.views.console.BoardView" style="stroke:#A80036;stroke-width:1.5;" width="150" x="742.6198" y="452"/><ellipse cx="781.4698" cy="468" fill="#ADD1B2" rx="11" ry="11" style="stroke:#A80036;stroke-width:1.0;"/><path d="M783.8135,463.6719 C782.876,463.2344 782.2823,463.0938 781.4073,463.0938 C778.7823,463.0938 776.7823,465.1719 776.7823,467.8906 L776.7823,469.0156 C776.7823,471.5938 778.8916,473.4844 781.7823,473.4844 C783.001,473.4844 784.1573,473.1875 784.9073,472.6406 C785.4854,472.2344 785.8135,471.7813 785.8135,471.3906 C785.8135,470.9375 785.4229,470.5469 784.9541,470.5469 C784.7354,470.5469 784.5323,470.625 784.3448,470.8125 C783.8916,471.2969 783.8916,471.2969 783.7041,471.3906 C783.2823,471.6563 782.5948,471.7813 781.8291,471.7813 C779.7823,471.7813 778.4854,470.6875 778.4854,468.9844 L778.4854,467.8906 C778.4854,466.1094 779.7354,464.7969 781.4698,464.7969 C782.0479,464.7969 782.6573,464.9531 783.126,465.2031 C783.6104,465.4844 783.7823,465.7031 783.876,466.1094 C783.9385,466.5156 783.9698,466.6406 784.1104,466.7656 C784.251,466.9063 784.4854,467.0156 784.7041,467.0156 C784.9698,467.0156 785.2354,466.875 785.4073,466.6563 C785.5166,466.5 785.5479,466.3125 785.5479,465.8906 L785.5479,464.4688 C785.5479,464.0313 785.5323,463.9063 785.4385,463.75 C785.2823,463.4844 785.001,463.3438 784.7041,463.3438 C784.4073,463.3438 784.2041,463.4375 783.9854,463.75 L783.8135,463.6719 Z " fill="#000000"/><text fill="#000000" font-family="sans-serif" font-size="12" lengthAdjust="spacingAndGlyphs" textLength="65" x="800.7698" y="472.1543">BoardView</text><line style="stroke:#A80036;stroke-width:1.5;" x1="743.6198" x2="891.6198" y1="484" y2="484"/><line style="stroke:#A80036;stroke-width:1.5;" x1="743.6198" x2="891.6198" y1="492" y2="492"/><polygon fill="#4177AF" points="753.6198,499,749.6198,505,757.6198,505" style="stroke:#1963A0;stroke-width:1.0;"/><text fill="#000000" font-family="sans-serif" font-size="11" lengthAdjust="spacingAndGlyphs" textLength="124" x="762.6198" y="506.2104">BoardView(Controller)</text><polygon fill="#4177AF" points="753.6198,511.8047,749.6198,517.8047,757.6198,517.8047" style="stroke:#1963A0;stroke-width:1.0;"/><text fill="#000000" font-family="sans-serif" font-size="11" lengthAdjust="spacingAndGlyphs" textLength="36" x="762.6198" y="519.0151">write()</text><!--MD5=[85374d0a3ee4b3ef5b557089b06e5446]
class tictactoe.views.console.TokenView--><rect codeLine="89" fill="#FEFECE" filter="url(#fplj7viw0pku0)" height="73.6094" id="tictactoe.views.console.TokenView" style="stroke:#A80036;stroke-width:1.5;" width="132" x="561.6198" y="586"/><ellipse cx="591.9198" cy="602" fill="#ADD1B2" rx="11" ry="11" style="stroke:#A80036;stroke-width:1.0;"/><path d="M594.2635,597.6719 C593.326,597.2344 592.7323,597.0938 591.8573,597.0938 C589.2323,597.0938 587.2323,599.1719 587.2323,601.8906 L587.2323,603.0156 C587.2323,605.5938 589.3416,607.4844 592.2323,607.4844 C593.451,607.4844 594.6073,607.1875 595.3573,606.6406 C595.9354,606.2344 596.2635,605.7813 596.2635,605.3906 C596.2635,604.9375 595.8729,604.5469 595.4041,604.5469 C595.1854,604.5469 594.9823,604.625 594.7948,604.8125 C594.3416,605.2969 594.3416,605.2969 594.1541,605.3906 C593.7323,605.6563 593.0448,605.7813 592.2791,605.7813 C590.2323,605.7813 588.9354,604.6875 588.9354,602.9844 L588.9354,601.8906 C588.9354,600.1094 590.1854,598.7969 591.9198,598.7969 C592.4979,598.7969 593.1073,598.9531 593.576,599.2031 C594.0604,599.4844 594.2323,599.7031 594.326,600.1094 C594.3885,600.5156 594.4198,600.6406 594.5604,600.7656 C594.701,600.9063 594.9354,601.0156 595.1541,601.0156 C595.4198,601.0156 595.6854,600.875 595.8573,600.6563 C595.9666,600.5 595.9979,600.3125 595.9979,599.8906 L595.9979,598.4688 C595.9979,598.0313 595.9823,597.9063 595.8885,597.75 C595.7323,597.4844 595.451,597.3438 595.1541,597.3438 C594.8573,597.3438 594.6541,597.4375 594.4354,597.75 L594.2635,597.6719 Z " fill="#000000"/><text fill="#000000" font-family="sans-serif" font-size="12" lengthAdjust="spacingAndGlyphs" textLength="66" x="609.3198" y="606.1543">TokenView</text><line style="stroke:#A80036;stroke-width:1.5;" x1="562.6198" x2="692.6198" y1="618" y2="618"/><line style="stroke:#A80036;stroke-width:1.5;" x1="562.6198" x2="692.6198" y1="626" y2="626"/><polygon fill="#4177AF" points="572.6198,633,568.6198,639,576.6198,639" style="stroke:#1963A0;stroke-width:1.0;"/><text fill="#000000" font-family="sans-serif" font-size="11" lengthAdjust="spacingAndGlyphs" textLength="106" x="581.6198" y="640.2104">TokenView(Token)</text><polygon fill="#4177AF" points="572.6198,645.8047,568.6198,651.8047,576.6198,651.8047" style="stroke:#1963A0;stroke-width:1.0;"/><text fill="#000000" font-family="sans-serif" font-size="11" lengthAdjust="spacingAndGlyphs" textLength="36" x="581.6198" y="653.0151">write()</text><!--MD5=[8c7d7abc12e214c3cc12c9ab70edee11]
class Coordinate--><rect codeLine="1" fill="#FEFECE" filter="url(#fplj7viw0pku0)" height="53.9375" id="Coordinate" style="stroke:#A80036;stroke-width:1.5;" width="135" x="933.1198" y="596"/><ellipse cx="948.1198" cy="614.9688" fill="#ADD1B2" rx="11" ry="11" style="stroke:#A80036;stroke-width:1.0;"/><path d="M950.4635,610.6406 C949.526,610.2031 948.9323,610.0625 948.0573,610.0625 C945.4323,610.0625 943.4323,612.1406 943.4323,614.8594 L943.4323,615.9844 C943.4323,618.5625 945.5416,620.4531 948.4323,620.4531 C949.651,620.4531 950.8073,620.1563 951.5573,619.6094 C952.1354,619.2031 952.4635,618.75 952.4635,618.3594 C952.4635,617.9063 952.0729,617.5156 951.6041,617.5156 C951.3854,617.5156 951.1823,617.5938 950.9948,617.7813 C950.5416,618.2656 950.5416,618.2656 950.3541,618.3594 C949.9323,618.625 949.2448,618.75 948.4791,618.75 C946.4323,618.75 945.1354,617.6563 945.1354,615.9531 L945.1354,614.8594 C945.1354,613.0781 946.3854,611.7656 948.1198,611.7656 C948.6979,611.7656 949.3073,611.9219 949.776,612.1719 C950.2604,612.4531 950.4323,612.6719 950.526,613.0781 C950.5885,613.4844 950.6198,613.6094 950.7604,613.7344 C950.901,613.875 951.1354,613.9844 951.3541,613.9844 C951.6198,613.9844 951.8854,613.8438 952.0573,613.625 C952.1666,613.4688 952.1979,613.2813 952.1979,612.8594 L952.1979,611.4375 C952.1979,611 952.1823,610.875 952.0885,610.7188 C951.9323,610.4531 951.651,610.3125 951.3541,610.3125 C951.0573,610.3125 950.8541,610.4063 950.6354,610.7188 L950.4635,610.6406 Z " fill="#000000"/><text fill="#000000" font-family="sans-serif" font-size="12" lengthAdjust="spacingAndGlyphs" textLength="103" x="962.1198" y="612.1387">tictactoe.models.</text><text fill="#000000" font-family="sans-serif" font-size="12" lengthAdjust="spacingAndGlyphs" textLength="66" x="980.6198" y="626.1074">Coordinate</text><line style="stroke:#A80036;stroke-width:1.5;" x1="934.1198" x2="1067.1198" y1="633.9375" y2="633.9375"/><line style="stroke:#A80036;stroke-width:1.5;" x1="934.1198" x2="1067.1198" y1="641.9375" y2="641.9375"/><!--MD5=[d8c8cfd5ca149094f5b67f9f607a5ec7]
class Token--><rect codeLine="2" fill="#FEFECE" filter="url(#fplj7viw0pku0)" height="53.9375" id="Token" style="stroke:#A80036;stroke-width:1.5;" width="124" x="565.6198" y="720"/><ellipse cx="580.6198" cy="738.9688" fill="#ADD1B2" rx="11" ry="11" style="stroke:#A80036;stroke-width:1.0;"/><path d="M582.9635,734.6406 C582.026,734.2031 581.4323,734.0625 580.5573,734.0625 C577.9323,734.0625 575.9323,736.1406 575.9323,738.8594 L575.9323,739.9844 C575.9323,742.5625 578.0416,744.4531 580.9323,744.4531 C582.151,744.4531 583.3073,744.1563 584.0573,743.6094 C584.6354,743.2031 584.9635,742.75 584.9635,742.3594 C584.9635,741.9063 584.5729,741.5156 584.1041,741.5156 C583.8854,741.5156 583.6823,741.5938 583.4948,741.7813 C583.0416,742.2656 583.0416,742.2656 582.8541,742.3594 C582.4323,742.625 581.7448,742.75 580.9791,742.75 C578.9323,742.75 577.6354,741.6563 577.6354,739.9531 L577.6354,738.8594 C577.6354,737.0781 578.8854,735.7656 580.6198,735.7656 C581.1979,735.7656 581.8073,735.9219 582.276,736.1719 C582.7604,736.4531 582.9323,736.6719 583.026,737.0781 C583.0885,737.4844 583.1198,737.6094 583.2604,737.7344 C583.401,737.875 583.6354,737.9844 583.8541,737.9844 C584.1198,737.9844 584.3854,737.8438 584.5573,737.625 C584.6666,737.4688 584.6979,737.2813 584.6979,736.8594 L584.6979,735.4375 C584.6979,735 584.6823,734.875 584.5885,734.7188 C584.4323,734.4531 584.151,734.3125 583.8541,734.3125 C583.5573,734.3125 583.3541,734.4063 583.1354,734.7188 L582.9635,734.6406 Z " fill="#000000"/><text fill="#000000" font-family="sans-serif" font-size="12" lengthAdjust="spacingAndGlyphs" textLength="92" x="594.6198" y="736.1387">tictactoe.types.</text><text fill="#000000" font-family="sans-serif" font-size="12" lengthAdjust="spacingAndGlyphs" textLength="37" x="622.1198" y="750.1074">Token</text><line style="stroke:#A80036;stroke-width:1.5;" x1="566.6198" x2="688.6198" y1="757.9375" y2="757.9375"/><line style="stroke:#A80036;stroke-width:1.5;" x1="566.6198" x2="688.6198" y1="765.9375" y2="765.9375"/><!--MD5=[b8cfd8c4119a3b0a7a46bfc5fc780f85]
class Error--><rect codeLine="3" fill="#FEFECE" filter="url(#fplj7viw0pku0)" height="53.9375" id="Error" style="stroke:#A80036;stroke-width:1.5;" width="124" x="279.6198" y="720"/><ellipse cx="294.6198" cy="738.9688" fill="#ADD1B2" rx="11" ry="11" style="stroke:#A80036;stroke-width:1.0;"/><path d="M296.9635,734.6406 C296.026,734.2031 295.4323,734.0625 294.5573,734.0625 C291.9323,734.0625 289.9323,736.1406 289.9323,738.8594 L289.9323,739.9844 C289.9323,742.5625 292.0416,744.4531 294.9323,744.4531 C296.151,744.4531 297.3073,744.1563 298.0573,743.6094 C298.6354,743.2031 298.9635,742.75 298.9635,742.3594 C298.9635,741.9063 298.5729,741.5156 298.1041,741.5156 C297.8854,741.5156 297.6823,741.5938 297.4948,741.7813 C297.0416,742.2656 297.0416,742.2656 296.8541,742.3594 C296.4323,742.625 295.7448,742.75 294.9791,742.75 C292.9323,742.75 291.6354,741.6563 291.6354,739.9531 L291.6354,738.8594 C291.6354,737.0781 292.8854,735.7656 294.6198,735.7656 C295.1979,735.7656 295.8073,735.9219 296.276,736.1719 C296.7604,736.4531 296.9323,736.6719 297.026,737.0781 C297.0885,737.4844 297.1198,737.6094 297.2604,737.7344 C297.401,737.875 297.6354,737.9844 297.8541,737.9844 C298.1198,737.9844 298.3854,737.8438 298.5573,737.625 C298.6666,737.4688 298.6979,737.2813 298.6979,736.8594 L298.6979,735.4375 C298.6979,735 298.6823,734.875 298.5885,734.7188 C298.4323,734.4531 298.151,734.3125 297.8541,734.3125 C297.5573,734.3125 297.3541,734.4063 297.1354,734.7188 L296.9635,734.6406 Z " fill="#000000"/><text fill="#000000" font-family="sans-serif" font-size="12" lengthAdjust="spacingAndGlyphs" textLength="92" x="308.6198" y="736.1387">tictactoe.types.</text><text fill="#000000" font-family="sans-serif" font-size="12" lengthAdjust="spacingAndGlyphs" textLength="30" x="339.6198" y="750.1074">Error</text><line style="stroke:#A80036;stroke-width:1.5;" x1="280.6198" x2="402.6198" y1="757.9375" y2="757.9375"/><line style="stroke:#A80036;stroke-width:1.5;" x1="280.6198" x2="402.6198" y1="765.9375" y2="765.9375"/><!--MD5=[1d7ba1c7002d54515419844fbd155368]
class Controller--><rect codeLine="4" fill="#FEFECE" filter="url(#fplj7viw0pku0)" height="53.9375" id="Controller" style="stroke:#A80036;stroke-width:1.5;" width="156" x="1103.6188" y="596"/><ellipse cx="1118.6188" cy="614.9688" fill="#A9DCDF" rx="11" ry="11" style="stroke:#A80036;stroke-width:1.0;"/><path d="M1120.6969,616.7813 L1121.0875,617.7656 L1120.6969,617.7656 C1120.2438,617.7656 1120.1344,617.7813 1119.9781,617.8906 C1119.7281,618.0469 1119.5719,618.3281 1119.5719,618.625 C1119.5719,618.8906 1119.7125,619.1406 1119.9313,619.2969 C1120.0719,619.4219 1120.275,619.4688 1120.6969,619.4688 L1123.0563,619.4688 C1123.4156,619.4688 1123.6344,619.4375 1123.775,619.3438 C1124.025,619.2031 1124.1813,618.9063 1124.1813,618.625 C1124.1813,618.3438 1124.0406,618.0938 1123.8219,617.9375 C1123.65,617.7969 1123.4938,617.7656 1123.025,617.7656 L1119.6344,609.5625 L1115.9625,609.5625 C1115.5094,609.5625 1115.3844,609.5781 1115.2281,609.6719 C1114.9781,609.8438 1114.8219,610.125 1114.8219,610.4063 C1114.8219,610.6875 1114.9625,610.9375 1115.1813,611.1094 C1115.3531,611.2188 1115.525,611.25 1115.9625,611.25 L1117.0406,611.25 L1114.4,617.7656 C1113.9781,617.7656 1113.8219,617.7813 1113.6656,617.8906 C1113.4156,618.0469 1113.2594,618.3281 1113.2594,618.625 C1113.2594,619.1875 1113.6344,619.4688 1114.3844,619.4688 L1116.65,619.4688 C1117.0094,619.4688 1117.2281,619.4375 1117.3531,619.3438 C1117.6188,619.2031 1117.7594,618.9063 1117.7594,618.625 C1117.7594,618.3438 1117.6344,618.0938 1117.4156,617.9219 C1117.2438,617.7969 1117.1031,617.7656 1116.65,617.7656 L1116.2594,617.7656 L1116.65,616.7813 L1120.6969,616.7813 Z M1119.9938,615.0781 L1117.3219,615.0781 L1118.6656,611.8125 L1119.9938,615.0781 Z " fill="#000000"/><text fill="#000000" font-family="sans-serif" font-size="12" font-style="italic" lengthAdjust="spacingAndGlyphs" textLength="124" x="1132.6188" y="612.1387">tictactoe.controllers.</text><text fill="#000000" font-family="sans-serif" font-size="12" font-style="italic" lengthAdjust="spacingAndGlyphs" textLength="58" x="1165.6188" y="626.1074">Controller</text><line style="stroke:#A80036;stroke-width:1.5;" x1="1104.6188" x2="1258.6188" y1="633.9375" y2="633.9375"/><line style="stroke:#A80036;stroke-width:1.5;" x1="1104.6188" x2="1258.6188" y1="641.9375" y2="641.9375"/><!--MD5=[47c371471411cfedeee61b1a5bdaee47]
class StartController--><rect codeLine="5" fill="#FEFECE" filter="url(#fplj7viw0pku0)" height="53.9375" id="StartController" style="stroke:#A80036;stroke-width:1.5;" width="155" x="1355.1188" y="462"/><ellipse cx="1370.1188" cy="480.9688" fill="#ADD1B2" rx="11" ry="11" style="stroke:#A80036;stroke-width:1.0;"/><path d="M1372.4625,476.6406 C1371.525,476.2031 1370.9313,476.0625 1370.0563,476.0625 C1367.4313,476.0625 1365.4313,478.1406 1365.4313,480.8594 L1365.4313,481.9844 C1365.4313,484.5625 1367.5406,486.4531 1370.4313,486.4531 C1371.65,486.4531 1372.8063,486.1563 1373.5563,485.6094 C1374.1344,485.2031 1374.4625,484.75 1374.4625,484.3594 C1374.4625,483.9063 1374.0719,483.5156 1373.6031,483.5156 C1373.3844,483.5156 1373.1813,483.5938 1372.9938,483.7813 C1372.5406,484.2656 1372.5406,484.2656 1372.3531,484.3594 C1371.9313,484.625 1371.2438,484.75 1370.4781,484.75 C1368.4313,484.75 1367.1344,483.6563 1367.1344,481.9531 L1367.1344,480.8594 C1367.1344,479.0781 1368.3844,477.7656 1370.1188,477.7656 C1370.6969,477.7656 1371.3063,477.9219 1371.775,478.1719 C1372.2594,478.4531 1372.4313,478.6719 1372.525,479.0781 C1372.5875,479.4844 1372.6188,479.6094 1372.7594,479.7344 C1372.9,479.875 1373.1344,479.9844 1373.3531,479.9844 C1373.6188,479.9844 1373.8844,479.8438 1374.0563,479.625 C1374.1656,479.4688 1374.1969,479.2813 1374.1969,478.8594 L1374.1969,477.4375 C1374.1969,477 1374.1813,476.875 1374.0875,476.7188 C1373.9313,476.4531 1373.65,476.3125 1373.3531,476.3125 C1373.0563,476.3125 1372.8531,476.4063 1372.6344,476.7188 L1372.4625,476.6406 Z " fill="#000000"/><text fill="#000000" font-family="sans-serif" font-size="12" lengthAdjust="spacingAndGlyphs" textLength="123" x="1384.1188" y="478.1387">tictactoe.controllers.</text><text fill="#000000" font-family="sans-serif" font-size="12" lengthAdjust="spacingAndGlyphs" textLength="87" x="1402.1188" y="492.1074">StartController</text><line style="stroke:#A80036;stroke-width:1.5;" x1="1356.1188" x2="1509.1188" y1="499.9375" y2="499.9375"/><line style="stroke:#A80036;stroke-width:1.5;" x1="1356.1188" x2="1509.1188" y1="507.9375" y2="507.9375"/><!--MD5=[cc8600b868f8dfab2c8d497bce62f90a]
class PlayController--><rect codeLine="6" fill="#FEFECE" filter="url(#fplj7viw0pku0)" height="53.9375" id="PlayController" style="stroke:#A80036;stroke-width:1.5;" width="155" x="1295.1188" y="596"/><ellipse cx="1310.1188" cy="614.9688" fill="#ADD1B2" rx="11" ry="11" style="stroke:#A80036;stroke-width:1.0;"/><path d="M1312.4625,610.6406 C1311.525,610.2031 1310.9313,610.0625 1310.0563,610.0625 C1307.4313,610.0625 1305.4313,612.1406 1305.4313,614.8594 L1305.4313,615.9844 C1305.4313,618.5625 1307.5406,620.4531 1310.4313,620.4531 C1311.65,620.4531 1312.8063,620.1563 1313.5563,619.6094 C1314.1344,619.2031 1314.4625,618.75 1314.4625,618.3594 C1314.4625,617.9063 1314.0719,617.5156 1313.6031,617.5156 C1313.3844,617.5156 1313.1813,617.5938 1312.9938,617.7813 C1312.5406,618.2656 1312.5406,618.2656 1312.3531,618.3594 C1311.9313,618.625 1311.2438,618.75 1310.4781,618.75 C1308.4313,618.75 1307.1344,617.6563 1307.1344,615.9531 L1307.1344,614.8594 C1307.1344,613.0781 1308.3844,611.7656 1310.1188,611.7656 C1310.6969,611.7656 1311.3063,611.9219 1311.775,612.1719 C1312.2594,612.4531 1312.4313,612.6719 1312.525,613.0781 C1312.5875,613.4844 1312.6188,613.6094 1312.7594,613.7344 C1312.9,613.875 1313.1344,613.9844 1313.3531,613.9844 C1313.6188,613.9844 1313.8844,613.8438 1314.0563,613.625 C1314.1656,613.4688 1314.1969,613.2813 1314.1969,612.8594 L1314.1969,611.4375 C1314.1969,611 1314.1813,610.875 1314.0875,610.7188 C1313.9313,610.4531 1313.65,610.3125 1313.3531,610.3125 C1313.0563,610.3125 1312.8531,610.4063 1312.6344,610.7188 L1312.4625,610.6406 Z " fill="#000000"/><text fill="#000000" font-family="sans-serif" font-size="12" lengthAdjust="spacingAndGlyphs" textLength="123" x="1324.1188" y="612.1387">tictactoe.controllers.</text><text fill="#000000" font-family="sans-serif" font-size="12" lengthAdjust="spacingAndGlyphs" textLength="82" x="1344.6188" y="626.1074">PlayController</text><line style="stroke:#A80036;stroke-width:1.5;" x1="1296.1188" x2="1449.1188" y1="633.9375" y2="633.9375"/><line style="stroke:#A80036;stroke-width:1.5;" x1="1296.1188" x2="1449.1188" y1="641.9375" y2="641.9375"/><!--MD5=[1a47bbf44ccee225df9b18c5b6629853]
class ResumeController--><rect codeLine="7" fill="#FEFECE" filter="url(#fplj7viw0pku0)" height="53.9375" id="ResumeController" style="stroke:#A80036;stroke-width:1.5;" width="155" x="1782.1188" y="462"/><ellipse cx="1797.1188" cy="480.9688" fill="#ADD1B2" rx="11" ry="11" style="stroke:#A80036;stroke-width:1.0;"/><path d="M1799.4625,476.6406 C1798.525,476.2031 1797.9313,476.0625 1797.0563,476.0625 C1794.4313,476.0625 1792.4313,478.1406 1792.4313,480.8594 L1792.4313,481.9844 C1792.4313,484.5625 1794.5406,486.4531 1797.4313,486.4531 C1798.65,486.4531 1799.8063,486.1563 1800.5563,485.6094 C1801.1344,485.2031 1801.4625,484.75 1801.4625,484.3594 C1801.4625,483.9063 1801.0719,483.5156 1800.6031,483.5156 C1800.3844,483.5156 1800.1813,483.5938 1799.9938,483.7813 C1799.5406,484.2656 1799.5406,484.2656 1799.3531,484.3594 C1798.9313,484.625 1798.2438,484.75 1797.4781,484.75 C1795.4313,484.75 1794.1344,483.6563 1794.1344,481.9531 L1794.1344,480.8594 C1794.1344,479.0781 1795.3844,477.7656 1797.1188,477.7656 C1797.6969,477.7656 1798.3063,477.9219 1798.775,478.1719 C1799.2594,478.4531 1799.4313,478.6719 1799.525,479.0781 C1799.5875,479.4844 1799.6188,479.6094 1799.7594,479.7344 C1799.9,479.875 1800.1344,479.9844 1800.3531,479.9844 C1800.6188,479.9844 1800.8844,479.8438 1801.0563,479.625 C1801.1656,479.4688 1801.1969,479.2813 1801.1969,478.8594 L1801.1969,477.4375 C1801.1969,477 1801.1813,476.875 1801.0875,476.7188 C1800.9313,476.4531 1800.65,476.3125 1800.3531,476.3125 C1800.0563,476.3125 1799.8531,476.4063 1799.6344,476.7188 L1799.4625,476.6406 Z " fill="#000000"/><text fill="#000000" font-family="sans-serif" font-size="12" lengthAdjust="spacingAndGlyphs" textLength="123" x="1811.1188" y="478.1387">tictactoe.controllers.</text><text fill="#000000" font-family="sans-serif" font-size="12" lengthAdjust="spacingAndGlyphs" textLength="107" x="1819.1188" y="492.1074">ResumeController</text><line style="stroke:#A80036;stroke-width:1.5;" x1="1783.1188" x2="1936.1188" y1="499.9375" y2="499.9375"/><line style="stroke:#A80036;stroke-width:1.5;" x1="1783.1188" x2="1936.1188" y1="507.9375" y2="507.9375"/><!--MD5=[c045e12321b83266d36d22b9096c24ea]
class View--><rect codeLine="8" fill="#FEFECE" filter="url(#fplj7viw0pku0)" height="53.9375" id="View" style="stroke:#A80036;stroke-width:1.5;" width="126" x="505.6198" y="7"/><ellipse cx="520.6198" cy="25.9688" fill="#A9DCDF" rx="11" ry="11" style="stroke:#A80036;stroke-width:1.0;"/><path d="M522.6979,27.7813 L523.0885,28.7656 L522.6979,28.7656 C522.2448,28.7656 522.1354,28.7813 521.9791,28.8906 C521.7291,29.0469 521.5729,29.3281 521.5729,29.625 C521.5729,29.8906 521.7135,30.1406 521.9323,30.2969 C522.0729,30.4219 522.276,30.4688 522.6979,30.4688 L525.0573,30.4688 C525.4166,30.4688 525.6354,30.4375 525.776,30.3438 C526.026,30.2031 526.1823,29.9063 526.1823,29.625 C526.1823,29.3438 526.0416,29.0938 525.8229,28.9375 C525.651,28.7969 525.4948,28.7656 525.026,28.7656 L521.6354,20.5625 L517.9635,20.5625 C517.5104,20.5625 517.3854,20.5781 517.2291,20.6719 C516.9791,20.8438 516.8229,21.125 516.8229,21.4063 C516.8229,21.6875 516.9635,21.9375 517.1823,22.1094 C517.3541,22.2188 517.526,22.25 517.9635,22.25 L519.0416,22.25 L516.401,28.7656 C515.9791,28.7656 515.8229,28.7813 515.6666,28.8906 C515.4166,29.0469 515.2604,29.3281 515.2604,29.625 C515.2604,30.1875 515.6354,30.4688 516.3854,30.4688 L518.651,30.4688 C519.0104,30.4688 519.2291,30.4375 519.3541,30.3438 C519.6198,30.2031 519.7604,29.9063 519.7604,29.625 C519.7604,29.3438 519.6354,29.0938 519.4166,28.9219 C519.2448,28.7969 519.1041,28.7656 518.651,28.7656 L518.2604,28.7656 L518.651,27.7813 L522.6979,27.7813 Z M521.9948,26.0781 L519.3229,26.0781 L520.6666,22.8125 L521.9948,26.0781 Z " fill="#000000"/><text fill="#000000" font-family="sans-serif" font-size="12" font-style="italic" lengthAdjust="spacingAndGlyphs" textLength="94" x="534.6198" y="23.1387">tictactoe.views.</text><text fill="#000000" font-family="sans-serif" font-size="12" font-style="italic" lengthAdjust="spacingAndGlyphs" textLength="28" x="567.6198" y="37.1074">View</text><line style="stroke:#A80036;stroke-width:1.5;" x1="506.6198" x2="630.6198" y1="44.9375" y2="44.9375"/><line style="stroke:#A80036;stroke-width:1.5;" x1="506.6198" x2="630.6198" y1="52.9375" y2="52.9375"/><!--MD5=[bea5b0d46523efab5ea1c1d339f396f0]
class Message--><rect codeLine="9" fill="#FEFECE" filter="url(#fplj7viw0pku0)" height="53.9375" id="Message" style="stroke:#A80036;stroke-width:1.5;" width="125" x="1557.1188" y="596"/><ellipse cx="1572.1188" cy="614.9688" fill="#ADD1B2" rx="11" ry="11" style="stroke:#A80036;stroke-width:1.0;"/><path d="M1574.4625,610.6406 C1573.525,610.2031 1572.9313,610.0625 1572.0563,610.0625 C1569.4313,610.0625 1567.4313,612.1406 1567.4313,614.8594 L1567.4313,615.9844 C1567.4313,618.5625 1569.5406,620.4531 1572.4313,620.4531 C1573.65,620.4531 1574.8063,620.1563 1575.5563,619.6094 C1576.1344,619.2031 1576.4625,618.75 1576.4625,618.3594 C1576.4625,617.9063 1576.0719,617.5156 1575.6031,617.5156 C1575.3844,617.5156 1575.1813,617.5938 1574.9938,617.7813 C1574.5406,618.2656 1574.5406,618.2656 1574.3531,618.3594 C1573.9313,618.625 1573.2438,618.75 1572.4781,618.75 C1570.4313,618.75 1569.1344,617.6563 1569.1344,615.9531 L1569.1344,614.8594 C1569.1344,613.0781 1570.3844,611.7656 1572.1188,611.7656 C1572.6969,611.7656 1573.3063,611.9219 1573.775,612.1719 C1574.2594,612.4531 1574.4313,612.6719 1574.525,613.0781 C1574.5875,613.4844 1574.6188,613.6094 1574.7594,613.7344 C1574.9,613.875 1575.1344,613.9844 1575.3531,613.9844 C1575.6188,613.9844 1575.8844,613.8438 1576.0563,613.625 C1576.1656,613.4688 1576.1969,613.2813 1576.1969,612.8594 L1576.1969,611.4375 C1576.1969,611 1576.1813,610.875 1576.0875,610.7188 C1575.9313,610.4531 1575.65,610.3125 1575.3531,610.3125 C1575.0563,610.3125 1574.8531,610.4063 1574.6344,610.7188 L1574.4625,610.6406 Z " fill="#000000"/><text fill="#000000" font-family="sans-serif" font-size="12" lengthAdjust="spacingAndGlyphs" textLength="93" x="1586.1188" y="612.1387">tictactoe.views.</text><text fill="#000000" font-family="sans-serif" font-size="12" lengthAdjust="spacingAndGlyphs" textLength="55" x="1605.1188" y="626.1074">Message</text><line style="stroke:#A80036;stroke-width:1.5;" x1="1558.1188" x2="1681.1188" y1="633.9375" y2="633.9375"/><line style="stroke:#A80036;stroke-width:1.5;" x1="1558.1188" x2="1681.1188" y1="641.9375" y2="641.9375"/><!--MD5=[86cec68673cafdfc1c204348d5b2cca6]
class ErrorView--><rect codeLine="10" fill="#FEFECE" filter="url(#fplj7viw0pku0)" height="53.9375" id="ErrorView" style="stroke:#A80036;stroke-width:1.5;" width="125" x="42.1196" y="462"/><ellipse cx="57.1196" cy="480.9688" fill="#ADD1B2" rx="11" ry="11" style="stroke:#A80036;stroke-width:1.0;"/><path d="M59.4633,476.6406 C58.5258,476.2031 57.9321,476.0625 57.0571,476.0625 C54.4321,476.0625 52.4321,478.1406 52.4321,480.8594 L52.4321,481.9844 C52.4321,484.5625 54.5414,486.4531 57.4321,486.4531 C58.6508,486.4531 59.8071,486.1563 60.5571,485.6094 C61.1352,485.2031 61.4633,484.75 61.4633,484.3594 C61.4633,483.9063 61.0727,483.5156 60.6039,483.5156 C60.3852,483.5156 60.1821,483.5938 59.9946,483.7813 C59.5414,484.2656 59.5414,484.2656 59.3539,484.3594 C58.9321,484.625 58.2446,484.75 57.4789,484.75 C55.4321,484.75 54.1352,483.6563 54.1352,481.9531 L54.1352,480.8594 C54.1352,479.0781 55.3852,477.7656 57.1196,477.7656 C57.6977,477.7656 58.3071,477.9219 58.7758,478.1719 C59.2602,478.4531 59.4321,478.6719 59.5258,479.0781 C59.5883,479.4844 59.6196,479.6094 59.7602,479.7344 C59.9008,479.875 60.1352,479.9844 60.3539,479.9844 C60.6196,479.9844 60.8852,479.8438 61.0571,479.625 C61.1664,479.4688 61.1977,479.2813 61.1977,478.8594 L61.1977,477.4375 C61.1977,477 61.1821,476.875 61.0883,476.7188 C60.9321,476.4531 60.6508,476.3125 60.3539,476.3125 C60.0571,476.3125 59.8539,476.4063 59.6352,476.7188 L59.4633,476.6406 Z " fill="#000000"/><text fill="#000000" font-family="sans-serif" font-size="12" lengthAdjust="spacingAndGlyphs" textLength="93" x="71.1196" y="478.1387">tictactoe.views.</text><text fill="#000000" font-family="sans-serif" font-size="12" lengthAdjust="spacingAndGlyphs" textLength="59" x="88.1196" y="492.1074">ErrorView</text><line style="stroke:#A80036;stroke-width:1.5;" x1="43.1196" x2="166.1196" y1="499.9375" y2="499.9375"/><line style="stroke:#A80036;stroke-width:1.5;" x1="43.1196" x2="166.1196" y1="507.9375" y2="507.9375"/><!--MD5=[315b61b427ec618d6861d47eee00cca3]
class Console--><rect codeLine="11" fill="#FEFECE" filter="url(#fplj7viw0pku0)" height="53.9375" id="Console" style="stroke:#A80036;stroke-width:1.5;" width="130" x="738.6198" y="720"/><ellipse cx="753.6198" cy="738.9688" fill="#ADD1B2" rx="11" ry="11" style="stroke:#A80036;stroke-width:1.0;"/><path d="M755.9635,734.6406 C755.026,734.2031 754.4323,734.0625 753.5573,734.0625 C750.9323,734.0625 748.9323,736.1406 748.9323,738.8594 L748.9323,739.9844 C748.9323,742.5625 751.0416,744.4531 753.9323,744.4531 C755.151,744.4531 756.3073,744.1563 757.0573,743.6094 C757.6354,743.2031 757.9635,742.75 757.9635,742.3594 C757.9635,741.9063 757.5729,741.5156 757.1041,741.5156 C756.8854,741.5156 756.6823,741.5938 756.4948,741.7813 C756.0416,742.2656 756.0416,742.2656 755.8541,742.3594 C755.4323,742.625 754.7448,742.75 753.9791,742.75 C751.9323,742.75 750.6354,741.6563 750.6354,739.9531 L750.6354,738.8594 C750.6354,737.0781 751.8854,735.7656 753.6198,735.7656 C754.1979,735.7656 754.8073,735.9219 755.276,736.1719 C755.7604,736.4531 755.9323,736.6719 756.026,737.0781 C756.0885,737.4844 756.1198,737.6094 756.2604,737.7344 C756.401,737.875 756.6354,737.9844 756.8541,737.9844 C757.1198,737.9844 757.3854,737.8438 757.5573,737.625 C757.6666,737.4688 757.6979,737.2813 757.6979,736.8594 L757.6979,735.4375 C757.6979,735 757.6823,734.875 757.5885,734.7188 C757.4323,734.4531 757.151,734.3125 756.8541,734.3125 C756.5573,734.3125 756.3541,734.4063 756.1354,734.7188 L755.9635,734.6406 Z " fill="#000000"/><text fill="#000000" font-family="sans-serif" font-size="12" lengthAdjust="spacingAndGlyphs" textLength="98" x="767.6198" y="736.1387">usantatecla.utils.</text><text fill="#000000" font-family="sans-serif" font-size="12" lengthAdjust="spacingAndGlyphs" textLength="49" x="792.1198" y="750.1074">Console</text><line style="stroke:#A80036;stroke-width:1.5;" x1="739.6198" x2="867.6198" y1="757.9375" y2="757.9375"/><line style="stroke:#A80036;stroke-width:1.5;" x1="739.6198" x2="867.6198" y1="765.9375" y2="765.9375"/><!--MD5=[d93cf99d2b92276f27fe8dbf15140505]
class YesNoDialog--><rect codeLine="12" fill="#FEFECE" filter="url(#fplj7viw0pku0)" height="53.9375" id="YesNoDialog" style="stroke:#A80036;stroke-width:1.5;" width="130" x="1972.6188" y="462"/><ellipse cx="1987.6188" cy="480.9688" fill="#ADD1B2" rx="11" ry="11" style="stroke:#A80036;stroke-width:1.0;"/><path d="M1989.9625,476.6406 C1989.025,476.2031 1988.4313,476.0625 1987.5563,476.0625 C1984.9313,476.0625 1982.9313,478.1406 1982.9313,480.8594 L1982.9313,481.9844 C1982.9313,484.5625 1985.0406,486.4531 1987.9313,486.4531 C1989.15,486.4531 1990.3063,486.1563 1991.0563,485.6094 C1991.6344,485.2031 1991.9625,484.75 1991.9625,484.3594 C1991.9625,483.9063 1991.5719,483.5156 1991.1031,483.5156 C1990.8844,483.5156 1990.6813,483.5938 1990.4938,483.7813 C1990.0406,484.2656 1990.0406,484.2656 1989.8531,484.3594 C1989.4313,484.625 1988.7438,484.75 1987.9781,484.75 C1985.9313,484.75 1984.6344,483.6563 1984.6344,481.9531 L1984.6344,480.8594 C1984.6344,479.0781 1985.8844,477.7656 1987.6188,477.7656 C1988.1969,477.7656 1988.8063,477.9219 1989.275,478.1719 C1989.7594,478.4531 1989.9313,478.6719 1990.025,479.0781 C1990.0875,479.4844 1990.1188,479.6094 1990.2594,479.7344 C1990.4,479.875 1990.6344,479.9844 1990.8531,479.9844 C1991.1188,479.9844 1991.3844,479.8438 1991.5563,479.625 C1991.6656,479.4688 1991.6969,479.2813 1991.6969,478.8594 L1991.6969,477.4375 C1991.6969,477 1991.6813,476.875 1991.5875,476.7188 C1991.4313,476.4531 1991.15,476.3125 1990.8531,476.3125 C1990.5563,476.3125 1990.3531,476.4063 1990.1344,476.7188 L1989.9625,476.6406 Z " fill="#000000"/><text fill="#000000" font-family="sans-serif" font-size="12" lengthAdjust="spacingAndGlyphs" textLength="98" x="2001.6188" y="478.1387">usantatecla.utils.</text><text fill="#000000" font-family="sans-serif" font-size="12" lengthAdjust="spacingAndGlyphs" textLength="76" x="2012.6188" y="492.1074">YesNoDialog</text><line style="stroke:#A80036;stroke-width:1.5;" x1="1973.6188" x2="2101.6188" y1="499.9375" y2="499.9375"/><line style="stroke:#A80036;stroke-width:1.5;" x1="1973.6188" x2="2101.6188" y1="507.9375" y2="507.9375"/><!--MD5=[58767b3ac92ed88fc68bd4b9dc66dad3]
class LimitedIntDialog--><rect codeLine="13" fill="#FEFECE" filter="url(#fplj7viw0pku0)" height="53.9375" id="LimitedIntDialog" style="stroke:#A80036;stroke-width:1.5;" width="130" x="1545.6188" y="462"/><ellipse cx="1560.6188" cy="480.9688" fill="#ADD1B2" rx="11" ry="11" style="stroke:#A80036;stroke-width:1.0;"/><path d="M1562.9625,476.6406 C1562.025,476.2031 1561.4313,476.0625 1560.5563,476.0625 C1557.9313,476.0625 1555.9313,478.1406 1555.9313,480.8594 L1555.9313,481.9844 C1555.9313,484.5625 1558.0406,486.4531 1560.9313,486.4531 C1562.15,486.4531 1563.3063,486.1563 1564.0563,485.6094 C1564.6344,485.2031 1564.9625,484.75 1564.9625,484.3594 C1564.9625,483.9063 1564.5719,483.5156 1564.1031,483.5156 C1563.8844,483.5156 1563.6813,483.5938 1563.4938,483.7813 C1563.0406,484.2656 1563.0406,484.2656 1562.8531,484.3594 C1562.4313,484.625 1561.7438,484.75 1560.9781,484.75 C1558.9313,484.75 1557.6344,483.6563 1557.6344,481.9531 L1557.6344,480.8594 C1557.6344,479.0781 1558.8844,477.7656 1560.6188,477.7656 C1561.1969,477.7656 1561.8063,477.9219 1562.275,478.1719 C1562.7594,478.4531 1562.9313,478.6719 1563.025,479.0781 C1563.0875,479.4844 1563.1188,479.6094 1563.2594,479.7344 C1563.4,479.875 1563.6344,479.9844 1563.8531,479.9844 C1564.1188,479.9844 1564.3844,479.8438 1564.5563,479.625 C1564.6656,479.4688 1564.6969,479.2813 1564.6969,478.8594 L1564.6969,477.4375 C1564.6969,477 1564.6813,476.875 1564.5875,476.7188 C1564.4313,476.4531 1564.15,476.3125 1563.8531,476.3125 C1563.5563,476.3125 1563.3531,476.4063 1563.1344,476.7188 L1562.9625,476.6406 Z " fill="#000000"/><text fill="#000000" font-family="sans-serif" font-size="12" lengthAdjust="spacingAndGlyphs" textLength="98" x="1574.6188" y="478.1387">usantatecla.utils.</text><text fill="#000000" font-family="sans-serif" font-size="12" lengthAdjust="spacingAndGlyphs" textLength="95" x="1576.1188" y="492.1074">LimitedIntDialog</text><line style="stroke:#A80036;stroke-width:1.5;" x1="1546.6188" x2="1674.6188" y1="499.9375" y2="499.9375"/><line style="stroke:#A80036;stroke-width:1.5;" x1="1546.6188" x2="1674.6188" y1="507.9375" y2="507.9375"/><!--MD5=[bc6be58974f609ef180a6a51a8ed92f1]
reverse link View to tictactoe.views.console.ConsoleView--><path codeLine="21" d="M568.6198,81.358 C568.6198,94.156 568.6198,108.075 568.6198,120.991 " fill="none" id="View-backto-tictactoe.views.console.ConsoleView" style="stroke:#A80036;stroke-width:1.0;"/><polygon fill="none" points="561.6198,81.252,568.6198,61.252,575.6198,81.252,561.6198,81.252" style="stroke:#A80036;stroke-width:1.0;"/><!--MD5=[9113815f8bbc012213d6467f94b3dc5b]
link tictactoe.views.console.ConsoleView to tictactoe.views.console.StartView--><path codeLine="22" d="M568.6198,232.113 C568.6198,232.113 568.6198,269.032 568.6198,285.506 " fill="none" id="tictactoe.views.console.ConsoleView-tictactoe.views.console.StartView" style="stroke:#A80036;stroke-width:1.0;"/><polygon fill="#A80036" points="568.6198,298.781,572.6198,289.781,568.6198,293.781,564.6198,289.781,568.6198,298.781" style="stroke:#A80036;stroke-width:1.0;"/><line style="stroke:#A80036;stroke-width:1.0;" x1="568.6198" x2="568.6198" y1="293.781" y2="285.781"/><polygon fill="#A80036" points="568.6198,220.113,564.6198,226.113,568.6198,232.113,572.6198,226.113,568.6198,220.113" style="stroke:#A80036;stroke-width:1.0;"/><!--MD5=[1735144fa38f1aa47117a26d071db586]
link tictactoe.views.console.ConsoleView to tictactoe.views.console.PlayView--><path codeLine="23" d="M485.7934,226.7743 C485.7934,226.7743 439.1708,257.888 416.8818,272.762 " fill="none" id="tictactoe.views.console.ConsoleView-tictactoe.views.console.PlayView" style="stroke:#A80036;stroke-width:1.0;"/><polygon fill="#A80036" points="406.0638,279.981,415.7703,278.3125,410.2227,277.2056,411.3296,271.6581,406.0638,279.981" style="stroke:#A80036;stroke-width:1.0;"/><line style="stroke:#A80036;stroke-width:1.0;" x1="410.2227" x2="416.8773" y1="277.2056" y2="272.7645"/><polygon fill="#A80036" points="495.7748,220.113,488.5637,220.1165,485.7934,226.7743,493.0045,226.7708,495.7748,220.113" style="stroke:#A80036;stroke-width:1.0;"/><!--MD5=[a983e760d9bef84c565434062749d875]
link tictactoe.views.console.ConsoleView to tictactoe.views.console.ResumeView--><path codeLine="24" d="M645.5372,227.1467 C645.5372,227.1467 706.9798,271.597 733.7838,290.988 " fill="none" id="tictactoe.views.console.ConsoleView-tictactoe.views.console.ResumeView" style="stroke:#A80036;stroke-width:1.0;"/><polygon fill="#A80036" points="744.5548,298.781,739.6075,290.2649,740.5037,295.8503,734.9183,296.7465,744.5548,298.781" style="stroke:#A80036;stroke-width:1.0;"/><line style="stroke:#A80036;stroke-width:1.0;" x1="740.5037" x2="734.0218" y1="295.8503" y2="291.1605"/><polygon fill="#A80036" points="635.8148,220.113,638.3314,226.8707,645.5372,227.1467,643.0206,220.389,635.8148,220.113" style="stroke:#A80036;stroke-width:1.0;"/><!--MD5=[8bc203def35d21ee3eb171618a7b817d]
link tictactoe.views.console.CoordinateView to PlayController--><path codeLine="30" d="M704.5984,521.8539 C704.5984,521.8539 718.4788,524.842 724.6198,526 C967.1278,571.711 1036.5388,528.894 1276.6188,586 C1283.4888,587.635 1290.5388,589.628 1297.5488,591.829 " fill="none" id="tictactoe.views.console.CoordinateView-PlayController" style="stroke:#A80036;stroke-width:1.0;"/><polygon fill="#A80036" points="1310.0588,595.983,1302.7793,589.349,1305.3139,594.4063,1300.2566,596.9409,1310.0588,595.983" style="stroke:#A80036;stroke-width:1.0;"/><line style="stroke:#A80036;stroke-width:1.0;" x1="1305.3139" x2="1297.7238" y1="594.4063" y2="591.8875"/><polygon fill="#A80036" points="692.9038,519.164,697.8544,524.4072,704.5984,521.8539,699.6477,516.6108,692.9038,519.164" style="stroke:#A80036;stroke-width:1.0;"/><!--MD5=[b44a7c032619397c63802a117d0c01c0]
link tictactoe.views.console.CoordinateView to tictactoe.views.console.ErrorView--><path codeLine="31" d="M553.3638,526.07 C534.8448,543.531 512.5638,564.538 493.5798,582.438 " fill="none" id="tictactoe.views.console.CoordinateView-to-tictactoe.views.console.ErrorView" style="stroke:#A80036;stroke-width:1.0;stroke-dasharray:7.0,7.0;"/><polygon fill="#A80036" points="489.8288,585.974,499.1208,582.7093,493.4664,582.5436,493.6321,576.8891,489.8288,585.974" style="stroke:#A80036;stroke-width:1.0;"/><!--MD5=[a06a410d0f6c1be87ea9d2d5c8f79243]
link tictactoe.views.console.CoordinateView to Console--><path codeLine="32" d="M644.7338,526.212 C666.7338,542.812 691.5168,563.742 710.6198,586 C745.1218,626.203 773.7608,680.9952 789.7758,714.9039 " fill="none" id="tictactoe.views.console.CoordinateView-to-Console" style="stroke:#A80036;stroke-width:1.0;stroke-dasharray:7.0,7.0;"/><polygon fill="#A80036" points="792.0468,719.751,791.8521,709.9041,789.9262,715.223,784.6073,713.297,792.0468,719.751" style="stroke:#A80036;stroke-width:1.0;"/><!--MD5=[3ea4caf7e48eaae8f655dde5cd3263f2]
link tictactoe.views.console.CoordinateView to Error--><path codeLine="33" d="M490.3948,513.634 C449.4848,528.084 405.2608,550.806 376.6198,586 C346.5978,622.891 340.8658,679.8836 340.4988,714.9579 " fill="none" id="tictactoe.views.console.CoordinateView-to-Error" style="stroke:#A80036;stroke-width:1.0;stroke-dasharray:7.0,7.0;"/><polygon fill="#A80036" points="340.4818,719.9688,344.5131,710.9828,340.4992,714.9688,336.5132,710.9549,340.4818,719.9688" style="stroke:#A80036;stroke-width:1.0;"/><!--MD5=[6e79601aef612c06e9891b4875f898f3]
link tictactoe.views.console.CoordinateView to Coordinate--><path codeLine="34" d="M692.8788,518.502 C772.0548,541.051 875.3868,571.133 916.6198,586 C923.4108,588.449 930.4418,591.164 937.4118,593.974 " fill="none" id="tictactoe.views.console.CoordinateView-to-Coordinate" style="stroke:#A80036;stroke-width:1.0;stroke-dasharray:7.0,7.0;"/><polygon fill="#A80036" points="942.2238,595.933,935.3947,588.8362,937.5924,594.0487,932.3799,596.2464,942.2238,595.933" style="stroke:#A80036;stroke-width:1.0;"/><!--MD5=[5e3154eeb00ff673e3597b7a5033dd40]
link tictactoe.views.console.ErrorView to Error--><path codeLine="40" d="M418.9138,660.274 C402.8988,678.0354 383.8488,699.1637 368.6688,716.0005 " fill="none" id="tictactoe.views.console.ErrorView-to-Error" style="stroke:#A80036;stroke-width:1.0;stroke-dasharray:7.0,7.0;"/><polygon fill="#A80036" points="365.2938,719.7436,374.2909,715.7371,368.6416,716.0298,368.3488,710.3806,365.2938,719.7436" style="stroke:#A80036;stroke-width:1.0;"/><!--MD5=[8ec17c1eeb1fabb729f4f45734e470f6]
link tictactoe.views.console.ErrorView to Console--><path codeLine="41" d="M499.9238,660.147 C513.5128,669 528.6758,677.7234 543.6198,684 C612.0218,712.7294 634.5488,702.3916 706.6198,720 C715.3368,722.1298 724.4698,724.4541 733.4988,726.8087 " fill="none" id="tictactoe.views.console.ErrorView-to-Console" style="stroke:#A80036;stroke-width:1.0;stroke-dasharray:7.0,7.0;"/><polygon fill="#A80036" points="738.5008,728.1188,730.8083,721.9686,733.664,726.8517,728.7809,729.7074,738.5008,728.1188" style="stroke:#A80036;stroke-width:1.0;"/><!--MD5=[09df14cf147ebf3fa601d40955ce3c27]
reverse link ErrorView to tictactoe.views.console.ErrorView--><path codeLine="42" d="M178.9868,524.098 C180.5428,524.743 182.0878,525.378 183.6198,526 C255.3968,555.15 339.7528,584.595 394.3728,603.044 " fill="none" id="ErrorView-backto-tictactoe.views.console.ErrorView" style="stroke:#A80036;stroke-width:1.0;"/><polygon fill="none" points="176.0888,530.471,160.4718,516.15,181.6118,517.607,176.0888,530.471" style="stroke:#A80036;stroke-width:1.0;"/><!--MD5=[66e6d915eb383ad26ff502bcb5bc69cc]
link tictactoe.views.console.BoardView to Controller--><path codeLine="48" d="M904.1217,520.6201 C904.1217,520.6201 1025.4788,563.953 1085.6188,586 C1090.3688,587.742 1095.2488,589.542 1100.1788,591.364 " fill="none" id="tictactoe.views.console.BoardView-Controller" style="stroke:#A80036;stroke-width:1.0;"/><polygon fill="#A80036" points="1112.4488,595.922,1105.4056,589.0376,1107.7619,594.1804,1102.6191,596.5367,1112.4488,595.922" style="stroke:#A80036;stroke-width:1.0;"/><line style="stroke:#A80036;stroke-width:1.0;" x1="1107.7619" x2="1100.2638" y1="594.1804" y2="591.3955"/><polygon fill="#A80036" points="892.8148,516.601,897.1285,522.3795,904.1217,520.6201,899.8079,514.8416,892.8148,516.601" style="stroke:#A80036;stroke-width:1.0;"/><!--MD5=[8407cabd396d0f607abdd74c0bf30cbc]
link tictactoe.views.console.BoardView to tictactoe.views.console.TokenView--><path codeLine="49" d="M765.7018,526.07 C740.2538,543.749 709.5728,565.064 683.6018,583.107 " fill="none" id="tictactoe.views.console.BoardView-to-tictactoe.views.console.TokenView" style="stroke:#A80036;stroke-width:1.0;stroke-dasharray:7.0,7.0;"/><polygon fill="#A80036" points="679.4748,585.974,689.1482,584.1233,683.5808,583.1209,684.5832,577.5536,679.4748,585.974" style="stroke:#A80036;stroke-width:1.0;"/><!--MD5=[b309a865775dd4647c3ec58d59c6e25c]
link tictactoe.views.console.BoardView to Coordinate--><path codeLine="50" d="M867.6248,526.07 C896.6558,547.01 932.7568,573.05 960.0178,592.713 " fill="none" id="tictactoe.views.console.BoardView-to-Coordinate" style="stroke:#A80036;stroke-width:1.0;stroke-dasharray:7.0,7.0;"/><polygon fill="#A80036" points="964.3148,595.813,959.3539,587.3048,960.2591,592.8887,954.6751,593.7939,964.3148,595.813" style="stroke:#A80036;stroke-width:1.0;"/><!--MD5=[2d7e8e41c2972c72a028fdb87a58cca9]
link tictactoe.views.console.BoardView to Message--><path codeLine="51" d="M893.0398,499.001 C1014.5488,513.98 1260.9288,546.336 1467.6188,586 C1495.3388,591.318 1525.6288,598.262 1551.8388,604.63 " fill="none" id="tictactoe.views.console.BoardView-to-Message" style="stroke:#A80036;stroke-width:1.0;stroke-dasharray:7.0,7.0;"/><polygon fill="#A80036" points="1557.0188,605.895,1549.2237,599.8753,1552.1613,604.7096,1547.327,607.6472,1557.0188,605.895" style="stroke:#A80036;stroke-width:1.0;"/><!--MD5=[48a58e5377fdc772b08702066c6591bf]
link tictactoe.views.console.BoardView to Console--><path codeLine="52" d="M815.6438,526.136 C812.8868,576.535 807.9348,667.095 805.3288,714.7407 " fill="none" id="tictactoe.views.console.BoardView-to-Console" style="stroke:#A80036;stroke-width:1.0;stroke-dasharray:7.0,7.0;"/><polygon fill="#A80036" points="805.0538,719.774,809.5394,711.0059,805.3269,714.7815,801.5514,710.5689,805.0538,719.774" style="stroke:#A80036;stroke-width:1.0;"/><!--MD5=[a10986738d33eef60265d57fa5080b93]
link tictactoe.views.console.PlayView to PlayController--><path codeLine="61" d="M459.2757,390.342 C459.2757,390.342 463.8678,391.563 465.6198,392 C682.7808,446.175 749.7438,392.912 965.6198,452 C1044.3188,473.54 1058.4188,494.346 1133.6188,526 C1186.8688,548.414 1247.2488,572.657 1293.9988,591.173 " fill="none" id="tictactoe.views.console.PlayView-PlayController" style="stroke:#A80036;stroke-width:1.0;"/><polygon fill="#A80036" points="1306.1888,595.995,1299.293,588.963,1301.5398,594.1545,1296.3483,596.4013,1306.1888,595.995" style="stroke:#A80036;stroke-width:1.0;"/><line style="stroke:#A80036;stroke-width:1.0;" x1="1301.5398" x2="1294.0938" y1="594.1545" y2="591.214"/><polygon fill="#A80036" points="447.7248,387.09,452.4162,392.5663,459.2757,390.342,454.5842,384.8657,447.7248,387.09" style="stroke:#A80036;stroke-width:1.0;"/><!--MD5=[9623adb787708e117decab727ca41eb7]
link tictactoe.views.console.PlayView to tictactoe.views.console.BoardView--><path codeLine="62" d="M447.9748,386.205 C453.9168,388.229 459.8198,390.172 465.6198,392 C572.1298,425.57 602.3378,420.984 709.6198,452 C718.6738,454.618 728.1028,457.509 737.4518,460.482 " fill="none" id="tictactoe.views.console.PlayView-to-tictactoe.views.console.BoardView" style="stroke:#A80036;stroke-width:1.0;stroke-dasharray:7.0,7.0;"/><polygon fill="#A80036" points="742.3318,462.043,734.978,455.4914,737.5694,460.5198,732.541,463.1112,742.3318,462.043" style="stroke:#A80036;stroke-width:1.0;"/><!--MD5=[79c70b9791342a198a7a508e5eca16c0]
link tictactoe.views.console.PlayView to tictactoe.views.console.TokenView--><path codeLine="63" d="M359.3238,392.126 C387.0698,432.275 428.2058,486.345 472.6198,526 C497.9448,548.612 529.2588,569.129 557.0978,585.337 " fill="none" id="tictactoe.views.console.PlayView-to-tictactoe.views.console.TokenView" style="stroke:#A80036;stroke-width:1.0;stroke-dasharray:7.0,7.0;"/><polygon fill="#A80036" points="561.5338,587.901,555.7447,579.9331,557.2053,585.3982,551.7402,586.8587,561.5338,587.901" style="stroke:#A80036;stroke-width:1.0;"/><!--MD5=[62ef53832a268c8eeef898be5bf89785]
link tictactoe.views.console.PlayView to tictactoe.views.console.CoordinateView--><path codeLine="64" d="M421.5118,392.155 C455.1458,411.106 492.0598,431.905 522.8798,449.27 " fill="none" id="tictactoe.views.console.PlayView-to-tictactoe.views.console.CoordinateView" style="stroke:#A80036;stroke-width:1.0;stroke-dasharray:7.0,7.0;"/><polygon fill="#A80036" points="527.3818,451.806,521.5044,443.903,523.0257,449.3515,517.5772,450.8728,527.3818,451.806" style="stroke:#A80036;stroke-width:1.0;"/><!--MD5=[e071d848ecb5a4df5f49ec11249b339d]
link tictactoe.views.console.PlayView to tictactoe.views.console.ErrorView--><path codeLine="65" d="M348.4508,392.289 C373.3128,447.645 410.9878,531.53 433.2688,581.14 " fill="none" id="tictactoe.views.console.PlayView-to-tictactoe.views.console.ErrorView" style="stroke:#A80036;stroke-width:1.0;stroke-dasharray:7.0,7.0;"/><polygon fill="#A80036" points="435.3758,585.832,435.3375,575.9832,433.3273,581.2709,428.0397,579.2607,435.3758,585.832" style="stroke:#A80036;stroke-width:1.0;"/><!--MD5=[3b49bdf6c7f6ce83eed251a9af28dbf3]
link tictactoe.views.console.PlayView to Coordinate--><path codeLine="66" d="M447.7528,386.981 C453.7538,388.797 459.7308,390.484 465.6198,392 C658.4608,441.636 746.0438,338.447 909.6198,452 C957.3868,485.16 982.2278,551.587 993.2628,590.869 " fill="none" id="tictactoe.views.console.PlayView-to-Coordinate" style="stroke:#A80036;stroke-width:1.0;stroke-dasharray:7.0,7.0;"/><polygon fill="#A80036" points="994.6658,595.991,996.1446,586.2538,993.3441,591.1688,988.4291,588.3684,994.6658,595.991" style="stroke:#A80036;stroke-width:1.0;"/><!--MD5=[f335b251d0d5a458b635239e43cc0bb5]
link tictactoe.views.console.PlayView to Message--><path codeLine="67" d="M447.6608,387.357 C453.6868,389.072 459.6938,390.635 465.6198,392 C622.0798,428.03 1041.6888,380.856 1185.6188,452 C1225.3888,471.66 1214.2088,503.795 1252.6188,526 C1361.6788,589.044 1409.1688,549.147 1529.6188,586 C1537.3488,588.365 1545.3488,591.11 1553.2388,594.008 " fill="none" id="tictactoe.views.console.PlayView-to-Message" style="stroke:#A80036;stroke-width:1.0;stroke-dasharray:7.0,7.0;"/><polygon fill="#A80036" points="1558.1388,595.831,1551.0978,588.9444,1553.4524,594.0879,1548.3089,596.4425,1558.1388,595.831" style="stroke:#A80036;stroke-width:1.0;"/><!--MD5=[b8eae5493de689ae966fe038f1428b07]
link tictactoe.views.console.PlayView to Error--><path codeLine="68" d="M199.4018,351.589 C135.8988,366.047 63.8993,394.808 24.6196,452 C6,479.111 9.3724,496.859 24.6196,526 C77.0409,626.189 198.1478,689.9025 274.5748,721.6839 " fill="none" id="tictactoe.views.console.PlayView-to-Error" style="stroke:#A80036;stroke-width:1.0;stroke-dasharray:7.0,7.0;"/><polygon fill="#A80036" points="279.5428,723.7312,272.7447,716.6048,274.9196,721.8268,269.6976,724.0018,279.5428,723.7312" style="stroke:#A80036;stroke-width:1.0;"/><!--MD5=[8b10c11746b26304038cab5745b0b163]
link tictactoe.views.console.PlayView to Console--><path codeLine="69" d="M447.6868,387.247 C453.7058,388.992 459.7048,390.591 465.6198,392 C730.6278,455.11 820.0688,357.629 1075.6188,452 C1129.5188,471.904 1128.8788,503.197 1181.6188,526 C1300.8288,577.547 1385.7488,485.174 1467.6188,586 C1495.0788,619.813 1496.9488,651.802 1467.6188,684 C1428.2088,727.261 1036.8988,740.8611 874.0988,744.6675 " fill="none" id="tictactoe.views.console.PlayView-to-Console" style="stroke:#A80036;stroke-width:1.0;stroke-dasharray:7.0,7.0;"/><polygon fill="#A80036" points="868.8768,744.7881,877.9669,748.5787,873.8754,744.6724,877.7818,740.5809,868.8768,744.7881" style="stroke:#A80036;stroke-width:1.0;"/><!--MD5=[248c182d20997509763909b55503e1c8]
link tictactoe.views.console.ResumeView to ResumeController--><path codeLine="75" d="M912.2507,343.0829 C912.2507,343.0829 1456.3388,383.806 1754.6188,452 C1762.2288,453.741 1770.0688,455.832 1777.8588,458.12 " fill="none" id="tictactoe.views.console.ResumeView-ResumeController" style="stroke:#A80036;stroke-width:1.0;"/><polygon fill="#A80036" points="1790.4588,461.99,1783.0286,455.5253,1785.6788,460.5229,1780.6812,463.1731,1790.4588,461.99" style="stroke:#A80036;stroke-width:1.0;"/><line style="stroke:#A80036;stroke-width:1.0;" x1="1785.6788" x2="1778.0338" y1="460.5229" y2="458.1735"/><polygon fill="#A80036" points="900.2728,342.355,906.0191,346.7116,912.2507,343.0829,906.5044,338.7263,900.2728,342.355" style="stroke:#A80036;stroke-width:1.0;"/><!--MD5=[45d6b98411685f94cdacdaac3bc1e164]
link tictactoe.views.console.ResumeView to Message--><path codeLine="76" d="M900.2668,338.152 C1199.8688,342.507 2038.6788,362.643 2120.6188,452 C2247.5888,590.457 1851.8788,616.188 1687.6288,620.938 " fill="none" id="tictactoe.views.console.ResumeView-to-Message" style="stroke:#A80036;stroke-width:1.0;stroke-dasharray:7.0,7.0;"/><polygon fill="#A80036" points="1682.3588,621.086,1691.4694,624.8273,1687.3567,620.9432,1691.2408,616.8305,1682.3588,621.086" style="stroke:#A80036;stroke-width:1.0;"/><!--MD5=[8fe1c1d6283f66daa4ac51944081ccb1]
link tictactoe.views.console.ResumeView to YesNoDialog--><path codeLine="77" d="M900.5078,336.619 C1106.8088,338.245 1575.5888,353.589 1954.6188,452 C1962.6788,454.092 1970.9588,456.861 1979.0188,459.937 " fill="none" id="tictactoe.views.console.ResumeView-to-YesNoDialog" style="stroke:#A80036;stroke-width:1.0;stroke-dasharray:7.0,7.0;"/><polygon fill="#A80036" points="1984.0088,461.888,1977.094,454.8747,1979.3548,460.0601,1974.1694,462.321,1984.0088,461.888" style="stroke:#A80036;stroke-width:1.0;"/><!--MD5=[05cc99d857866a96ee1f197cb8d1830a]
link tictactoe.views.console.StartView to StartController--><path codeLine="83" d="M637.2664,378.4114 C637.2664,378.4114 660.5428,388.685 671.6198,392 C952.0968,475.953 1041.3288,390.753 1327.6188,452 C1335.5388,453.693 1343.6788,455.8 1351.7588,458.139 " fill="none" id="tictactoe.views.console.StartView-StartController" style="stroke:#A80036;stroke-width:1.0;"/><polygon fill="#A80036" points="1364.3788,461.979,1356.9336,455.5316,1359.5954,460.523,1354.604,463.1849,1364.3788,461.979" style="stroke:#A80036;stroke-width:1.0;"/><line style="stroke:#A80036;stroke-width:1.0;" x1="1359.5954" x2="1351.9438" y1="460.523" y2="458.193"/><polygon fill="#A80036" points="626.5178,373.076,630.1136,379.3266,637.2664,378.4114,633.6706,372.1608,626.5178,373.076" style="stroke:#A80036;stroke-width:1.0;"/><!--MD5=[dd55afc3b677549d38339353518552e1]
link tictactoe.views.console.StartView to tictactoe.views.console.BoardView--><path codeLine="84" d="M628.2618,373.168 C666.0048,396.057 714.7828,425.637 753.3788,449.043 " fill="none" id="tictactoe.views.console.StartView-to-tictactoe.views.console.BoardView" style="stroke:#A80036;stroke-width:1.0;stroke-dasharray:7.0,7.0;"/><polygon fill="#A80036" points="758.0338,451.865,752.4123,443.778,753.7584,449.2724,748.2641,450.6185,758.0338,451.865" style="stroke:#A80036;stroke-width:1.0;"/><!--MD5=[cbe56104a70ea1577228555875c75924]
link tictactoe.views.console.StartView to Message--><path codeLine="85" d="M626.8268,373.097 C641.0278,380.473 656.4968,387.383 671.6198,392 C921.5918,468.322 1018.0988,345.131 1256.6188,452 C1301.1188,471.938 1295.3388,501.705 1337.6188,526 C1415.1388,570.545 1445.3888,556.042 1529.6188,586 C1536.9688,588.615 1544.6188,591.464 1552.1988,594.376 " fill="none" id="tictactoe.views.console.StartView-to-Message" style="stroke:#A80036;stroke-width:1.0;stroke-dasharray:7.0,7.0;"/><polygon fill="#A80036" points="1556.9088,596.197,1549.9524,589.225,1552.2441,594.3968,1547.0722,596.6885,1556.9088,596.197" style="stroke:#A80036;stroke-width:1.0;"/><!--MD5=[e5fc69a5d7b9edfb586c1b6276c53e05]
link tictactoe.views.console.StartView to Console--><path codeLine="86" d="M625.5958,373.009 C640.0978,380.583 656.0098,387.603 671.6198,392 C781.1108,422.84 1613.7488,371.009 1693.6188,452 C1766.0488,525.44 1769.9888,608.59 1699.6188,684 C1643.7288,743.8887 1075.8788,747.2335 874.2078,746.5097 " fill="none" id="tictactoe.views.console.StartView-to-Console" style="stroke:#A80036;stroke-width:1.0;stroke-dasharray:7.0,7.0;"/><polygon fill="#A80036" points="868.9308,746.4895,877.9158,750.5229,873.9307,746.5081,877.9456,742.523,868.9308,746.4895" style="stroke:#A80036;stroke-width:1.0;"/><!--MD5=[f18569398a34687a26f0429a50bef928]
link tictactoe.views.console.StartView to LimitedIntDialog--><path codeLine="87" d="M625.9038,373.026 C640.3308,380.55 656.1318,387.543 671.6198,392 C1038.1188,497.477 1157.1388,361.489 1527.6188,452 C1535.8288,454.007 1544.2588,456.761 1552.4488,459.86 " fill="none" id="tictactoe.views.console.StartView-to-LimitedIntDialog" style="stroke:#A80036;stroke-width:1.0;stroke-dasharray:7.0,7.0;"/><polygon fill="#A80036" points="1557.5188,461.83,1550.5832,454.8373,1552.8594,460.016,1547.6808,462.2922,1557.5188,461.83" style="stroke:#A80036;stroke-width:1.0;"/><!--MD5=[5cc3be8a170e5cc12bfcd2ebadd91b3c]
link tictactoe.views.console.TokenView to Token--><path codeLine="93" d="M627.6198,672.274 C627.6198,672.274 627.6198,696.1709 627.6198,706.6531 " fill="none" id="tictactoe.views.console.TokenView-Token" style="stroke:#A80036;stroke-width:1.0;"/><polygon fill="#A80036" points="627.6198,719.7436,631.6198,710.7436,627.6198,714.7436,623.6198,710.7436,627.6198,719.7436" style="stroke:#A80036;stroke-width:1.0;"/><line style="stroke:#A80036;stroke-width:1.0;" x1="627.6198" x2="627.6198" y1="714.7436" y2="706.7437"/><polygon fill="#A80036" points="627.6198,660.274,623.6198,666.274,627.6198,672.274,631.6198,666.274,627.6198,660.274" style="stroke:#A80036;stroke-width:1.0;"/><!--MD5=[16663f6c30a757bb90c76c611193dbff]
link tictactoe.views.console.TokenView to Console--><path codeLine="94" d="M679.9488,660.274 C706.0988,678.4003 737.3068,700.0333 761.8308,717.0327 " fill="none" id="tictactoe.views.console.TokenView-to-Console" style="stroke:#A80036;stroke-width:1.0;stroke-dasharray:7.0,7.0;"/><polygon fill="#A80036" points="766.0178,719.9349,760.898,711.5213,761.9079,717.0873,756.3419,718.0972,766.0178,719.9349" style="stroke:#A80036;stroke-width:1.0;"/><!--MD5=[538f88c9dde3c98b71f5b7ae99a49663]
@startuml
class Coordinate as "tictactoe.models.\nCoordinate"
class Token as "tictactoe.types.\nToken"
class Error as "tictactoe.types.\nError"
abstract class Controller as "tictactoe.controllers.\nController"
class StartController as "tictactoe.controllers.\nStartController"
class PlayController as "tictactoe.controllers.\nPlayController"
class ResumeController as "tictactoe.controllers.\nResumeController"
abstract class View as "tictactoe.views.\nView"
class Message as "tictactoe.views.\nMessage"
class ErrorView as "tictactoe.views.\nErrorView"
class Console as "usantatecla.utils.\nConsole"
class YesNoDialog as "usantatecla.utils.\nYesNoDialog"
class LimitedIntDialog as "usantatecla.utils.\nLimitedIntDialog"

class tictactoe.views.console.ConsoleView{
  + ConsoleView(StartController, PlayController, ResumeController)
  # start()
  # play()
  # isResumed(): boolean
}
tictactoe.views.console.ConsoleView -up-|> View
tictactoe.views.console.ConsoleView *-down-> tictactoe.views.console.StartView
tictactoe.views.console.ConsoleView *-down-> tictactoe.views.console.PlayView
tictactoe.views.console.ConsoleView *-down-> tictactoe.views.console.ResumeView

class tictactoe.views.console.CoordinateView {
  + CoordinateView(PlayController)
  + read(String): Coordinate
}
tictactoe.views.console.CoordinateView *-down-> PlayController
tictactoe.views.console.CoordinateView .down.> tictactoe.views.console.ErrorView
tictactoe.views.console.CoordinateView .down.> Console
tictactoe.views.console.CoordinateView .down.> Error
tictactoe.views.console.CoordinateView .down.> Coordinate

class  tictactoe.views.console.ErrorView{
  ~ ErrorView(Error)
  ~ writeln()
}
tictactoe.views.console.ErrorView .down.> Error
tictactoe.views.console.ErrorView .down.> Console
ErrorView <|-down- tictactoe.views.console.ErrorView

class  tictactoe.views.console.BoardView{
  ~ BoardView(Controller)
  ~ write()
}
tictactoe.views.console.BoardView *-down-> Controller
tictactoe.views.console.BoardView .down.> tictactoe.views.console.TokenView
tictactoe.views.console.BoardView .down.> Coordinate
tictactoe.views.console.BoardView .down.> Message
tictactoe.views.console.BoardView .down.> Console

class  tictactoe.views.console.PlayView{
  ~ PlayView(PlayController)
  ~ interact()
  - put()
  - move()
  + createRandomCoordinate(): Coordinate
}
tictactoe.views.console.PlayView *-down-> PlayController
tictactoe.views.console.PlayView .down.> tictactoe.views.console.BoardView
tictactoe.views.console.PlayView .down.> tictactoe.views.console.TokenView
tictactoe.views.console.PlayView .down.> tictactoe.views.console.CoordinateView
tictactoe.views.console.PlayView .down.> tictactoe.views.console.ErrorView
tictactoe.views.console.PlayView .down.> Coordinate
tictactoe.views.console.PlayView .down.> Message
tictactoe.views.console.PlayView .down.> Error
tictactoe.views.console.PlayView .down.> Console

class  tictactoe.views.console.ResumeView{
  + ResumeView(ResumeController)
  ~ interact(): boolean
}
tictactoe.views.console.ResumeView *-down-> ResumeController
tictactoe.views.console.ResumeView .down.> Message
tictactoe.views.console.ResumeView .down.> YesNoDialog

class tictactoe.views.console.StartView{
  ~ StartView(StartController)
  ~ interact()
}
tictactoe.views.console.StartView *-down-> StartController
tictactoe.views.console.StartView .down.> tictactoe.views.console.BoardView
tictactoe.views.console.StartView .down.> Message
tictactoe.views.console.StartView .down.> Console
tictactoe.views.console.StartView .down.> LimitedIntDialog

class tictactoe.views.console.TokenView{
  ~ TokenView(Token)
  ~ write()
}
tictactoe.views.console.TokenView *-down-> Token
tictactoe.views.console.TokenView .down.> Console
@enduml

PlantUML version 1.2020.27beta2(Unknown compile time)
(GPL source distribution)
Java Runtime: Java(TM) SE Runtime Environment
JVM: Java HotSpot(TM) 64-Bit Server VM
Default Encoding: UTF-8
Language: en
Country: US
--></g></svg>