<?xml version="1.0" encoding="UTF-8" standalone="no"?><svg xmlns="http://www.w3.org/2000/svg" xmlns:xlink="http://www.w3.org/1999/xlink" contentScriptType="application/ecmascript" contentStyleType="text/css" height="348px" preserveAspectRatio="none" style="width:1698px;height:348px;" version="1.1" viewBox="0 0 1698 348" width="1698px" zoomAndPan="magnify"><defs><filter height="300%" id="fh1nhd9bwiaaj" width="300%" x="-1" y="-1"><feGaussianBlur result="blurOut" stdDeviation="2.0"/><feColorMatrix in="blurOut" result="blurOut2" type="matrix" values="0 0 0 0 0 0 0 0 0 0 0 0 0 0 0 0 0 0 .4 0"/><feOffset dx="4.0" dy="4.0" in="blurOut2" result="blurOut3"/><feBlend in="SourceGraphic" in2="blurOut3" mode="normal"/></filter></defs><g><!--MD5=[807bc46d8103c809ff053af9e140e1f5]
cluster tictactoe--><polygon fill="#FFFFFF" filter="url(#fh1nhd9bwiaaj)" points="16,6,98,6,105,28.2969,462,28.2969,462,341,16,341,16,6" style="stroke:#000000;stroke-width:1.5;"/><line style="stroke:#000000;stroke-width:1.5;" x1="16" x2="105" y1="28.2969" y2="28.2969"/><text fill="#000000" font-family="sans-serif" font-size="14" font-weight="bold" lengthAdjust="spacingAndGlyphs" textLength="76" x="20" y="20.9951">tictactoe</text><!--MD5=[d26da01265d646b7f841c2729736529c]
class tictactoe.ConsoleTicTacToe--><rect codeLine="7" fill="#FEFECE" filter="url(#fh1nhd9bwiaaj)" height="73.6094" id="tictactoe.ConsoleTicTacToe" style="stroke:#A80036;stroke-width:1.5;" width="410" x="33" y="251"/><ellipse cx="178.75" cy="267" fill="#ADD1B2" rx="11" ry="11" style="stroke:#A80036;stroke-width:1.0;"/><path d="M181.0938,262.6719 C180.1563,262.2344 179.5625,262.0938 178.6875,262.0938 C176.0625,262.0938 174.0625,264.1719 174.0625,266.8906 L174.0625,268.0156 C174.0625,270.5938 176.1719,272.4844 179.0625,272.4844 C180.2813,272.4844 181.4375,272.1875 182.1875,271.6406 C182.7656,271.2344 183.0938,270.7813 183.0938,270.3906 C183.0938,269.9375 182.7031,269.5469 182.2344,269.5469 C182.0156,269.5469 181.8125,269.625 181.625,269.8125 C181.1719,270.2969 181.1719,270.2969 180.9844,270.3906 C180.5625,270.6563 179.875,270.7813 179.1094,270.7813 C177.0625,270.7813 175.7656,269.6875 175.7656,267.9844 L175.7656,266.8906 C175.7656,265.1094 177.0156,263.7969 178.75,263.7969 C179.3281,263.7969 179.9375,263.9531 180.4063,264.2031 C180.8906,264.4844 181.0625,264.7031 181.1563,265.1094 C181.2188,265.5156 181.25,265.6406 181.3906,265.7656 C181.5313,265.9063 181.7656,266.0156 181.9844,266.0156 C182.25,266.0156 182.5156,265.875 182.6875,265.6563 C182.7969,265.5 182.8281,265.3125 182.8281,264.8906 L182.8281,263.4688 C182.8281,263.0313 182.8125,262.9063 182.7188,262.75 C182.5625,262.4844 182.2813,262.3438 181.9844,262.3438 C181.6875,262.3438 181.4844,262.4375 181.2656,262.75 L181.0938,262.6719 Z " fill="#000000"/><text fill="#000000" font-family="sans-serif" font-size="12" lengthAdjust="spacingAndGlyphs" textLength="110" x="199.25" y="271.1543">ConsoleTicTacToe</text><line style="stroke:#A80036;stroke-width:1.5;" x1="34" x2="442" y1="283" y2="283"/><line style="stroke:#A80036;stroke-width:1.5;" x1="34" x2="442" y1="291" y2="291"/><ellipse cx="44" cy="302" fill="#84BE84" rx="3" ry="3" style="stroke:#038048;stroke-width:1.0;"/><text fill="#000000" font-family="sans-serif" font-size="11" lengthAdjust="spacingAndGlyphs" text-decoration="underline" textLength="77" x="53" y="305.2104">main(String[])</text><polygon fill="#FFFF44" points="44,309.8047,48,313.8047,44,317.8047,40,313.8047" style="stroke:#B38D22;stroke-width:1.0;"/><text fill="#000000" font-family="sans-serif" font-size="11" lengthAdjust="spacingAndGlyphs" textLength="384" x="53" y="318.0151">createView(StartController, PlayController, ResumeController): View</text><!--MD5=[dcfee6ff2a733e6a859ce2b7bcbe021e]
class tictactoe.TicTacToe--><rect codeLine="13" fill="#FEFECE" filter="url(#fh1nhd9bwiaaj)" height="150.4375" id="tictactoe.TicTacToe" style="stroke:#A80036;stroke-width:1.5;" width="413" x="32.5" y="41"/><ellipse cx="204.25" cy="57" fill="#ADD1B2" rx="11" ry="11" style="stroke:#A80036;stroke-width:1.0;"/><path d="M206.5938,52.6719 C205.6563,52.2344 205.0625,52.0938 204.1875,52.0938 C201.5625,52.0938 199.5625,54.1719 199.5625,56.8906 L199.5625,58.0156 C199.5625,60.5938 201.6719,62.4844 204.5625,62.4844 C205.7813,62.4844 206.9375,62.1875 207.6875,61.6406 C208.2656,61.2344 208.5938,60.7813 208.5938,60.3906 C208.5938,59.9375 208.2031,59.5469 207.7344,59.5469 C207.5156,59.5469 207.3125,59.625 207.125,59.8125 C206.6719,60.2969 206.6719,60.2969 206.4844,60.3906 C206.0625,60.6563 205.375,60.7813 204.6094,60.7813 C202.5625,60.7813 201.2656,59.6875 201.2656,57.9844 L201.2656,56.8906 C201.2656,55.1094 202.5156,53.7969 204.25,53.7969 C204.8281,53.7969 205.4375,53.9531 205.9063,54.2031 C206.3906,54.4844 206.5625,54.7031 206.6563,55.1094 C206.7188,55.5156 206.75,55.6406 206.8906,55.7656 C207.0313,55.9063 207.2656,56.0156 207.4844,56.0156 C207.75,56.0156 208.0156,55.875 208.1875,55.6563 C208.2969,55.5 208.3281,55.3125 208.3281,54.8906 L208.3281,53.4688 C208.3281,53.0313 208.3125,52.9063 208.2188,52.75 C208.0625,52.4844 207.7813,52.3438 207.4844,52.3438 C207.1875,52.3438 206.9844,52.4375 206.7656,52.75 L206.5938,52.6719 Z " fill="#000000"/><text fill="#000000" font-family="sans-serif" font-size="12" lengthAdjust="spacingAndGlyphs" textLength="61" x="224.75" y="61.1543">TicTacToe</text><line style="stroke:#A80036;stroke-width:1.5;" x1="33.5" x2="444.5" y1="73" y2="73"/><rect fill="none" height="6" style="stroke:#C82930;stroke-width:1.0;" width="6" x="40.5" y="81"/><text fill="#000000" font-family="sans-serif" font-size="11" lengthAdjust="spacingAndGlyphs" textLength="75" x="52.5" y="87.2104">game: Game</text><rect fill="none" height="6" style="stroke:#C82930;stroke-width:1.0;" width="6" x="40.5" y="93.8047"/><text fill="#000000" font-family="sans-serif" font-size="11" lengthAdjust="spacingAndGlyphs" textLength="169" x="52.5" y="100.0151">startController: StartController</text><rect fill="none" height="6" style="stroke:#C82930;stroke-width:1.0;" width="6" x="40.5" y="106.6094"/><text fill="#000000" font-family="sans-serif" font-size="11" lengthAdjust="spacingAndGlyphs" textLength="164" x="52.5" y="112.8198">playController: PlayController</text><rect fill="none" height="6" style="stroke:#C82930;stroke-width:1.0;" width="6" x="40.5" y="119.4141"/><text fill="#000000" font-family="sans-serif" font-size="11" lengthAdjust="spacingAndGlyphs" textLength="208" x="52.5" y="125.6245">resumeController: ResumeController</text><rect fill="none" height="6" style="stroke:#C82930;stroke-width:1.0;" width="6" x="40.5" y="132.2188"/><text fill="#000000" font-family="sans-serif" font-size="11" lengthAdjust="spacingAndGlyphs" textLength="62" x="52.5" y="138.4292">view: View</text><line style="stroke:#A80036;stroke-width:1.5;" x1="33.5" x2="444.5" y1="145.0234" y2="145.0234"/><polygon fill="#FFFF44" points="43.5,151.0234,47.5,155.0234,43.5,159.0234,39.5,155.0234" style="stroke:#B38D22;stroke-width:1.0;"/><text fill="#000000" font-family="sans-serif" font-size="11" lengthAdjust="spacingAndGlyphs" textLength="66" x="52.5" y="159.2339">TicTacToe()</text><polygon fill="#FFFF44" points="43.5,163.8281,47.5,167.8281,43.5,171.8281,39.5,167.8281" style="stroke:#B38D22;stroke-width:1.0;"/><text fill="#000000" font-family="sans-serif" font-size="11" font-style="italic" lengthAdjust="spacingAndGlyphs" textLength="387" x="52.5" y="172.0386">createView(StartController, PlayController, ResumeController): View</text><polygon fill="#FFFF44" points="43.5,176.6328,47.5,180.6328,43.5,184.6328,39.5,180.6328" style="stroke:#B38D22;stroke-width:1.0;"/><text fill="#000000" font-family="sans-serif" font-size="11" lengthAdjust="spacingAndGlyphs" textLength="32" x="52.5" y="184.8433">play()</text><!--MD5=[c045e12321b83266d36d22b9096c24ea]
class View--><rect codeLine="1" fill="#FEFECE" filter="url(#fh1nhd9bwiaaj)" height="48" id="View" style="stroke:#A80036;stroke-width:1.5;" width="154" x="478" y="264"/><ellipse cx="493" cy="280" fill="#ADD1B2" rx="11" ry="11" style="stroke:#A80036;stroke-width:1.0;"/><path d="M495.3438,275.6719 C494.4063,275.2344 493.8125,275.0938 492.9375,275.0938 C490.3125,275.0938 488.3125,277.1719 488.3125,279.8906 L488.3125,281.0156 C488.3125,283.5938 490.4219,285.4844 493.3125,285.4844 C494.5313,285.4844 495.6875,285.1875 496.4375,284.6406 C497.0156,284.2344 497.3438,283.7813 497.3438,283.3906 C497.3438,282.9375 496.9531,282.5469 496.4844,282.5469 C496.2656,282.5469 496.0625,282.625 495.875,282.8125 C495.4219,283.2969 495.4219,283.2969 495.2344,283.3906 C494.8125,283.6563 494.125,283.7813 493.3594,283.7813 C491.3125,283.7813 490.0156,282.6875 490.0156,280.9844 L490.0156,279.8906 C490.0156,278.1094 491.2656,276.7969 493,276.7969 C493.5781,276.7969 494.1875,276.9531 494.6563,277.2031 C495.1406,277.4844 495.3125,277.7031 495.4063,278.1094 C495.4688,278.5156 495.5,278.6406 495.6406,278.7656 C495.7813,278.9063 496.0156,279.0156 496.2344,279.0156 C496.5,279.0156 496.7656,278.875 496.9375,278.6563 C497.0469,278.5 497.0781,278.3125 497.0781,277.8906 L497.0781,276.4688 C497.0781,276.0313 497.0625,275.9063 496.9688,275.75 C496.8125,275.4844 496.5313,275.3438 496.2344,275.3438 C495.9375,275.3438 495.7344,275.4375 495.5156,275.75 L495.3438,275.6719 Z " fill="#000000"/><text fill="#000000" font-family="sans-serif" font-size="12" lengthAdjust="spacingAndGlyphs" textLength="122" x="507" y="284.1543">tictactoe.views.View</text><line style="stroke:#A80036;stroke-width:1.5;" x1="479" x2="631" y1="296" y2="296"/><line style="stroke:#A80036;stroke-width:1.5;" x1="479" x2="631" y1="304" y2="304"/><!--MD5=[b6dcce5e5ef3c84b0b048d11301373dd]
class Game--><rect codeLine="2" fill="#FEFECE" filter="url(#fh1nhd9bwiaaj)" height="48" id="Game" style="stroke:#A80036;stroke-width:1.5;" width="170" x="667" y="264"/><ellipse cx="682" cy="280" fill="#ADD1B2" rx="11" ry="11" style="stroke:#A80036;stroke-width:1.0;"/><path d="M684.3438,275.6719 C683.4063,275.2344 682.8125,275.0938 681.9375,275.0938 C679.3125,275.0938 677.3125,277.1719 677.3125,279.8906 L677.3125,281.0156 C677.3125,283.5938 679.4219,285.4844 682.3125,285.4844 C683.5313,285.4844 684.6875,285.1875 685.4375,284.6406 C686.0156,284.2344 686.3438,283.7813 686.3438,283.3906 C686.3438,282.9375 685.9531,282.5469 685.4844,282.5469 C685.2656,282.5469 685.0625,282.625 684.875,282.8125 C684.4219,283.2969 684.4219,283.2969 684.2344,283.3906 C683.8125,283.6563 683.125,283.7813 682.3594,283.7813 C680.3125,283.7813 679.0156,282.6875 679.0156,280.9844 L679.0156,279.8906 C679.0156,278.1094 680.2656,276.7969 682,276.7969 C682.5781,276.7969 683.1875,276.9531 683.6563,277.2031 C684.1406,277.4844 684.3125,277.7031 684.4063,278.1094 C684.4688,278.5156 684.5,278.6406 684.6406,278.7656 C684.7813,278.9063 685.0156,279.0156 685.2344,279.0156 C685.5,279.0156 685.7656,278.875 685.9375,278.6563 C686.0469,278.5 686.0781,278.3125 686.0781,277.8906 L686.0781,276.4688 C686.0781,276.0313 686.0625,275.9063 685.9688,275.75 C685.8125,275.4844 685.5313,275.3438 685.2344,275.3438 C684.9375,275.3438 684.7344,275.4375 684.5156,275.75 L684.3438,275.6719 Z " fill="#000000"/><text fill="#000000" font-family="sans-serif" font-size="12" lengthAdjust="spacingAndGlyphs" textLength="138" x="696" y="284.1543">tictactoe.models.Game</text><line style="stroke:#A80036;stroke-width:1.5;" x1="668" x2="836" y1="296" y2="296"/><line style="stroke:#A80036;stroke-width:1.5;" x1="668" x2="836" y1="304" y2="304"/><!--MD5=[47c371471411cfedeee61b1a5bdaee47]
class StartController--><rect codeLine="3" fill="#FEFECE" filter="url(#fh1nhd9bwiaaj)" height="48" id="StartController" style="stroke:#A80036;stroke-width:1.5;" width="242" x="872" y="264"/><ellipse cx="887" cy="280" fill="#ADD1B2" rx="11" ry="11" style="stroke:#A80036;stroke-width:1.0;"/><path d="M889.3438,275.6719 C888.4063,275.2344 887.8125,275.0938 886.9375,275.0938 C884.3125,275.0938 882.3125,277.1719 882.3125,279.8906 L882.3125,281.0156 C882.3125,283.5938 884.4219,285.4844 887.3125,285.4844 C888.5313,285.4844 889.6875,285.1875 890.4375,284.6406 C891.0156,284.2344 891.3438,283.7813 891.3438,283.3906 C891.3438,282.9375 890.9531,282.5469 890.4844,282.5469 C890.2656,282.5469 890.0625,282.625 889.875,282.8125 C889.4219,283.2969 889.4219,283.2969 889.2344,283.3906 C888.8125,283.6563 888.125,283.7813 887.3594,283.7813 C885.3125,283.7813 884.0156,282.6875 884.0156,280.9844 L884.0156,279.8906 C884.0156,278.1094 885.2656,276.7969 887,276.7969 C887.5781,276.7969 888.1875,276.9531 888.6563,277.2031 C889.1406,277.4844 889.3125,277.7031 889.4063,278.1094 C889.4688,278.5156 889.5,278.6406 889.6406,278.7656 C889.7813,278.9063 890.0156,279.0156 890.2344,279.0156 C890.5,279.0156 890.7656,278.875 890.9375,278.6563 C891.0469,278.5 891.0781,278.3125 891.0781,277.8906 L891.0781,276.4688 C891.0781,276.0313 891.0625,275.9063 890.9688,275.75 C890.8125,275.4844 890.5313,275.3438 890.2344,275.3438 C889.9375,275.3438 889.7344,275.4375 889.5156,275.75 L889.3438,275.6719 Z " fill="#000000"/><text fill="#000000" font-family="sans-serif" font-size="12" lengthAdjust="spacingAndGlyphs" textLength="210" x="901" y="284.1543">tictactoe.controllers.StartController</text><line style="stroke:#A80036;stroke-width:1.5;" x1="873" x2="1113" y1="296" y2="296"/><line style="stroke:#A80036;stroke-width:1.5;" x1="873" x2="1113" y1="304" y2="304"/><!--MD5=[cc8600b868f8dfab2c8d497bce62f90a]
class PlayController--><rect codeLine="4" fill="#FEFECE" filter="url(#fh1nhd9bwiaaj)" height="48" id="PlayController" style="stroke:#A80036;stroke-width:1.5;" width="237" x="1149.5" y="264"/><ellipse cx="1164.5" cy="280" fill="#ADD1B2" rx="11" ry="11" style="stroke:#A80036;stroke-width:1.0;"/><path d="M1166.8438,275.6719 C1165.9063,275.2344 1165.3125,275.0938 1164.4375,275.0938 C1161.8125,275.0938 1159.8125,277.1719 1159.8125,279.8906 L1159.8125,281.0156 C1159.8125,283.5938 1161.9219,285.4844 1164.8125,285.4844 C1166.0313,285.4844 1167.1875,285.1875 1167.9375,284.6406 C1168.5156,284.2344 1168.8438,283.7813 1168.8438,283.3906 C1168.8438,282.9375 1168.4531,282.5469 1167.9844,282.5469 C1167.7656,282.5469 1167.5625,282.625 1167.375,282.8125 C1166.9219,283.2969 1166.9219,283.2969 1166.7344,283.3906 C1166.3125,283.6563 1165.625,283.7813 1164.8594,283.7813 C1162.8125,283.7813 1161.5156,282.6875 1161.5156,280.9844 L1161.5156,279.8906 C1161.5156,278.1094 1162.7656,276.7969 1164.5,276.7969 C1165.0781,276.7969 1165.6875,276.9531 1166.1563,277.2031 C1166.6406,277.4844 1166.8125,277.7031 1166.9063,278.1094 C1166.9688,278.5156 1167,278.6406 1167.1406,278.7656 C1167.2813,278.9063 1167.5156,279.0156 1167.7344,279.0156 C1168,279.0156 1168.2656,278.875 1168.4375,278.6563 C1168.5469,278.5 1168.5781,278.3125 1168.5781,277.8906 L1168.5781,276.4688 C1168.5781,276.0313 1168.5625,275.9063 1168.4688,275.75 C1168.3125,275.4844 1168.0313,275.3438 1167.7344,275.3438 C1167.4375,275.3438 1167.2344,275.4375 1167.0156,275.75 L1166.8438,275.6719 Z " fill="#000000"/><text fill="#000000" font-family="sans-serif" font-size="12" lengthAdjust="spacingAndGlyphs" textLength="205" x="1178.5" y="284.1543">tictactoe.controllers.PlayController</text><line style="stroke:#A80036;stroke-width:1.5;" x1="1150.5" x2="1385.5" y1="296" y2="296"/><line style="stroke:#A80036;stroke-width:1.5;" x1="1150.5" x2="1385.5" y1="304" y2="304"/><!--MD5=[1a47bbf44ccee225df9b18c5b6629853]
class ResumeController--><rect codeLine="5" fill="#FEFECE" filter="url(#fh1nhd9bwiaaj)" height="48" id="ResumeController" style="stroke:#A80036;stroke-width:1.5;" width="262" x="1422" y="264"/><ellipse cx="1437" cy="280" fill="#ADD1B2" rx="11" ry="11" style="stroke:#A80036;stroke-width:1.0;"/><path d="M1439.3438,275.6719 C1438.4063,275.2344 1437.8125,275.0938 1436.9375,275.0938 C1434.3125,275.0938 1432.3125,277.1719 1432.3125,279.8906 L1432.3125,281.0156 C1432.3125,283.5938 1434.4219,285.4844 1437.3125,285.4844 C1438.5313,285.4844 1439.6875,285.1875 1440.4375,284.6406 C1441.0156,284.2344 1441.3438,283.7813 1441.3438,283.3906 C1441.3438,282.9375 1440.9531,282.5469 1440.4844,282.5469 C1440.2656,282.5469 1440.0625,282.625 1439.875,282.8125 C1439.4219,283.2969 1439.4219,283.2969 1439.2344,283.3906 C1438.8125,283.6563 1438.125,283.7813 1437.3594,283.7813 C1435.3125,283.7813 1434.0156,282.6875 1434.0156,280.9844 L1434.0156,279.8906 C1434.0156,278.1094 1435.2656,276.7969 1437,276.7969 C1437.5781,276.7969 1438.1875,276.9531 1438.6563,277.2031 C1439.1406,277.4844 1439.3125,277.7031 1439.4063,278.1094 C1439.4688,278.5156 1439.5,278.6406 1439.6406,278.7656 C1439.7813,278.9063 1440.0156,279.0156 1440.2344,279.0156 C1440.5,279.0156 1440.7656,278.875 1440.9375,278.6563 C1441.0469,278.5 1441.0781,278.3125 1441.0781,277.8906 L1441.0781,276.4688 C1441.0781,276.0313 1441.0625,275.9063 1440.9688,275.75 C1440.8125,275.4844 1440.5313,275.3438 1440.2344,275.3438 C1439.9375,275.3438 1439.7344,275.4375 1439.5156,275.75 L1439.3438,275.6719 Z " fill="#000000"/><text fill="#000000" font-family="sans-serif" font-size="12" lengthAdjust="spacingAndGlyphs" textLength="230" x="1451" y="284.1543">tictactoe.controllers.ResumeController</text><line style="stroke:#A80036;stroke-width:1.5;" x1="1423" x2="1683" y1="296" y2="296"/><line style="stroke:#A80036;stroke-width:1.5;" x1="1423" x2="1683" y1="304" y2="304"/><!--MD5=[4e0ca678de8db9099731dcdc2b6658ba]
reverse link tictactoe.TicTacToe to tictactoe.ConsoleTicTacToe--><path codeLine="11" d="M238.446,211.123 C238.363,225.264 238.282,239.065 238.212,250.934 " fill="none" id="tictactoe.TicTacToe-backto-tictactoe.ConsoleTicTacToe" style="stroke:#A80036;stroke-width:1.0;"/><polygon fill="none" points="231.447,211.028,238.564,191.07,245.446,211.111,231.447,211.028" style="stroke:#A80036;stroke-width:1.0;"/><!--MD5=[4244f9edb3d450aa4423a2442cdf3765]
link tictactoe.TicTacToe to View--><path codeLine="23" d="M376.683,191.07 C423.48,216.245 472.694,242.722 507.537,261.466 " fill="none" id="tictactoe.TicTacToe-to-View" style="stroke:#A80036;stroke-width:1.0;"/><polygon fill="#A80036" points="512.141,263.9432,506.1098,256.157,507.7376,261.5746,502.32,263.2024,512.141,263.9432" style="stroke:#A80036;stroke-width:1.0;"/><!--MD5=[8c425d580a9b92d738a930527fd635fb]
link tictactoe.TicTacToe to Game--><path codeLine="24" d="M445.512,183.253 C511.01,204.555 583.64,228.475 650,251 C660.486,254.559 671.553,258.389 682.378,262.1757 " fill="none" id="tictactoe.TicTacToe-to-Game" style="stroke:#A80036;stroke-width:1.0;"/><polygon fill="#A80036" points="687.331,263.9114,680.1593,257.161,682.6121,262.2585,677.5147,264.7113,687.331,263.9114" style="stroke:#A80036;stroke-width:1.0;"/><!--MD5=[418e617e5427b1769da1183790bb0c75]
link tictactoe.TicTacToe to StartController--><path codeLine="25" d="M445.516,159.716 C565.352,185.054 719.016,218.487 855,251 C870.277,254.653 886.456,258.7055 902.153,262.7361 " fill="none" id="tictactoe.TicTacToe-to-StartController" style="stroke:#A80036;stroke-width:1.0;"/><polygon fill="#A80036" points="907.007,263.9858,899.2891,257.8674,902.165,262.7387,897.2938,265.6146,907.007,263.9858" style="stroke:#A80036;stroke-width:1.0;"/><!--MD5=[82634a372df6adadfd51c0b03e6d50ba]
link tictactoe.TicTacToe to PlayController--><path codeLine="26" d="M445.855,141.492 C627.58,164.563 898.643,202.758 1132,251 C1148.15,254.338 1165.24,258.4199 1181.65,262.6204 " fill="none" id="tictactoe.TicTacToe-to-PlayController" style="stroke:#A80036;stroke-width:1.0;"/><polygon fill="#A80036" points="1186.72,263.9271,1179.0141,257.7937,1181.8805,262.6706,1177.0036,265.537,1186.72,263.9271" style="stroke:#A80036;stroke-width:1.0;"/><!--MD5=[6c91c4b7f7877b97f28656e3787a7627]
link tictactoe.TicTacToe to ResumeController--><path codeLine="27" d="M445.554,133.057 C679.302,153.011 1070.87,191.828 1404,251 C1422.32,254.254 1441.75,258.417 1460.32,262.7487 " fill="none" id="tictactoe.TicTacToe-to-ResumeController" style="stroke:#A80036;stroke-width:1.0;"/><polygon fill="#A80036" points="1465.53,263.9743,1457.6826,258.0229,1460.6624,262.8314,1455.8539,265.8111,1465.53,263.9743" style="stroke:#A80036;stroke-width:1.0;"/><!--MD5=[5309b80411b0ab7178d61f1a3a66cac8]
@startuml
class View as "tictactoe.views.View" {}
class Game as "tictactoe.models.Game" {}
class StartController as "tictactoe.controllers.StartController" {}
class PlayController as "tictactoe.controllers.PlayController" {}
class ResumeController as "tictactoe.controllers.ResumeController" {}

class  tictactoe.ConsoleTicTacToe{
+ {static} main(String[])
# createView(StartController, PlayController, ResumeController): View
}
tictactoe.TicTacToe <|-down- tictactoe.ConsoleTicTacToe

class  tictactoe.TicTacToe{
- game: Game
- startController: StartController
- playController: PlayController
- resumeController: ResumeController
- view: View
# TicTacToe()
# {abstract} createView(StartController, PlayController, ResumeController): View
# play()
}
tictactoe.TicTacToe - -> View
tictactoe.TicTacToe - -> Game
tictactoe.TicTacToe - -> StartController
tictactoe.TicTacToe - -> PlayController
tictactoe.TicTacToe - -> ResumeController
@enduml

PlantUML version 1.2020.21beta7(Unknown compile time)
(GPL source distribution)
Java Runtime: Java(TM) SE Runtime Environment
JVM: Java HotSpot(TM) 64-Bit Server VM
Default Encoding: UTF-8
Language: en
Country: US
--></g></svg>