<?xml version="1.0" encoding="UTF-8" standalone="no"?><svg xmlns="http://www.w3.org/2000/svg" xmlns:xlink="http://www.w3.org/1999/xlink" contentScriptType="application/ecmascript" contentStyleType="text/css" height="440px" preserveAspectRatio="none" style="width:815px;height:440px;" version="1.1" viewBox="0 0 815 440" width="815px" zoomAndPan="magnify"><defs><filter height="300%" id="fpxp41vvqozw9" width="300%" x="-1" y="-1"><feGaussianBlur result="blurOut" stdDeviation="2.0"/><feColorMatrix in="blurOut" result="blurOut2" type="matrix" values="0 0 0 0 0 0 0 0 0 0 0 0 0 0 0 0 0 0 .4 0"/><feOffset dx="4.0" dy="4.0" in="blurOut2" result="blurOut3"/><feBlend in="SourceGraphic" in2="blurOut3" mode="normal"/></filter></defs><g><!--MD5=[ee7e9a007a7c4d40c0679a27f272732d]
cluster tictactoe.controllers--><polygon fill="#FFFFFF" filter="url(#fpxp41vvqozw9)" points="46.6604,6,222.6604,6,229.6604,28.2969,698.6607,28.2969,698.6607,329,46.6604,329,46.6604,6" style="stroke:#000000;stroke-width:1.5;"/><line style="stroke:#000000;stroke-width:1.5;" x1="46.6604" x2="229.6604" y1="28.2969" y2="28.2969"/><text fill="#000000" font-family="sans-serif" font-size="14" font-weight="bold" lengthAdjust="spacingAndGlyphs" textLength="170" x="50.6604" y="20.9951">tictactoe.controllers</text><!--MD5=[957eef6538bab7382edbc29d98579a60]
class tictactoe.controllers.Controller--><rect codeLine="6" fill="#FEFECE" filter="url(#fpxp41vvqozw9)" height="73.6094" id="tictactoe.controllers.Controller" style="stroke:#A80036;stroke-width:1.5;" width="192" x="155.6607" y="41"/><ellipse cx="217.9107" cy="57" fill="#ADD1B2" rx="11" ry="11" style="stroke:#A80036;stroke-width:1.0;"/><path d="M220.2545,52.6719 C219.317,52.2344 218.7232,52.0938 217.8482,52.0938 C215.2232,52.0938 213.2232,54.1719 213.2232,56.8906 L213.2232,58.0156 C213.2232,60.5938 215.3326,62.4844 218.2232,62.4844 C219.442,62.4844 220.5982,62.1875 221.3482,61.6406 C221.9263,61.2344 222.2545,60.7813 222.2545,60.3906 C222.2545,59.9375 221.8638,59.5469 221.3951,59.5469 C221.1763,59.5469 220.9732,59.625 220.7857,59.8125 C220.3326,60.2969 220.3326,60.2969 220.1451,60.3906 C219.7232,60.6563 219.0357,60.7813 218.2701,60.7813 C216.2232,60.7813 214.9263,59.6875 214.9263,57.9844 L214.9263,56.8906 C214.9263,55.1094 216.1763,53.7969 217.9107,53.7969 C218.4888,53.7969 219.0982,53.9531 219.567,54.2031 C220.0513,54.4844 220.2232,54.7031 220.317,55.1094 C220.3795,55.5156 220.4107,55.6406 220.5513,55.7656 C220.692,55.9063 220.9263,56.0156 221.1451,56.0156 C221.4107,56.0156 221.6763,55.875 221.8482,55.6563 C221.9576,55.5 221.9888,55.3125 221.9888,54.8906 L221.9888,53.4688 C221.9888,53.0313 221.9732,52.9063 221.8795,52.75 C221.7232,52.4844 221.442,52.3438 221.1451,52.3438 C220.8482,52.3438 220.6451,52.4375 220.4263,52.75 L220.2545,52.6719 Z " fill="#000000"/><text fill="#000000" font-family="sans-serif" font-size="12" lengthAdjust="spacingAndGlyphs" textLength="59" x="238.4107" y="61.1543">Controller</text><line style="stroke:#A80036;stroke-width:1.5;" x1="156.6607" x2="346.6607" y1="73" y2="73"/><line style="stroke:#A80036;stroke-width:1.5;" x1="156.6607" x2="346.6607" y1="81" y2="81"/><polygon fill="#4177AF" points="166.6607,88,162.6607,94,170.6607,94" style="stroke:#1963A0;stroke-width:1.0;"/><text fill="#000000" font-family="sans-serif" font-size="11" lengthAdjust="spacingAndGlyphs" textLength="98" x="175.6607" y="95.2104">Controller(Game)</text><ellipse cx="166.6607" cy="104.8047" fill="#84BE84" rx="3" ry="3" style="stroke:#038048;stroke-width:1.0;"/><text fill="#000000" font-family="sans-serif" font-size="11" lengthAdjust="spacingAndGlyphs" textLength="166" x="175.6607" y="108.0151">getToken(Coordinate): Token</text><!--MD5=[b574e60c06c50037ff1b014277a67d62]
class tictactoe.controllers.PlayController--><rect codeLine="12" fill="#FEFECE" filter="url(#fpxp41vvqozw9)" height="137.6328" id="tictactoe.controllers.PlayController" style="stroke:#A80036;stroke-width:1.5;" width="227" x="455.1607" y="175"/><ellipse cx="523.4107" cy="191" fill="#ADD1B2" rx="11" ry="11" style="stroke:#A80036;stroke-width:1.0;"/><path d="M525.7545,186.6719 C524.817,186.2344 524.2232,186.0938 523.3482,186.0938 C520.7232,186.0938 518.7232,188.1719 518.7232,190.8906 L518.7232,192.0156 C518.7232,194.5938 520.8326,196.4844 523.7232,196.4844 C524.942,196.4844 526.0982,196.1875 526.8482,195.6406 C527.4263,195.2344 527.7545,194.7813 527.7545,194.3906 C527.7545,193.9375 527.3638,193.5469 526.8951,193.5469 C526.6763,193.5469 526.4732,193.625 526.2857,193.8125 C525.8326,194.2969 525.8326,194.2969 525.6451,194.3906 C525.2232,194.6563 524.5357,194.7813 523.7701,194.7813 C521.7232,194.7813 520.4263,193.6875 520.4263,191.9844 L520.4263,190.8906 C520.4263,189.1094 521.6763,187.7969 523.4107,187.7969 C523.9888,187.7969 524.5982,187.9531 525.067,188.2031 C525.5513,188.4844 525.7232,188.7031 525.817,189.1094 C525.8795,189.5156 525.9107,189.6406 526.0513,189.7656 C526.192,189.9063 526.4263,190.0156 526.6451,190.0156 C526.9107,190.0156 527.1763,189.875 527.3482,189.6563 C527.4576,189.5 527.4888,189.3125 527.4888,188.8906 L527.4888,187.4688 C527.4888,187.0313 527.4732,186.9063 527.3795,186.75 C527.2232,186.4844 526.942,186.3438 526.6451,186.3438 C526.3482,186.3438 526.1451,186.4375 525.9263,186.75 L525.7545,186.6719 Z " fill="#000000"/><text fill="#000000" font-family="sans-serif" font-size="12" lengthAdjust="spacingAndGlyphs" textLength="82" x="543.9107" y="195.1543">PlayController</text><line style="stroke:#A80036;stroke-width:1.5;" x1="456.1607" x2="681.1607" y1="207" y2="207"/><line style="stroke:#A80036;stroke-width:1.5;" x1="456.1607" x2="681.1607" y1="215" y2="215"/><ellipse cx="466.1607" cy="226" fill="#84BE84" rx="3" ry="3" style="stroke:#038048;stroke-width:1.0;"/><text fill="#000000" font-family="sans-serif" font-size="11" lengthAdjust="spacingAndGlyphs" textLength="121" x="475.1607" y="229.2104">PlayController(Game)</text><ellipse cx="466.1607" cy="238.8047" fill="#84BE84" rx="3" ry="3" style="stroke:#038048;stroke-width:1.0;"/><text fill="#000000" font-family="sans-serif" font-size="11" lengthAdjust="spacingAndGlyphs" textLength="159" x="475.1607" y="242.0151">isBoardComplete(): boolean</text><ellipse cx="466.1607" cy="251.6094" fill="#84BE84" rx="3" ry="3" style="stroke:#038048;stroke-width:1.0;"/><text fill="#000000" font-family="sans-serif" font-size="11" lengthAdjust="spacingAndGlyphs" textLength="128" x="475.1607" y="254.8198">isTicTacToe(): boolean</text><ellipse cx="466.1607" cy="264.4141" fill="#84BE84" rx="3" ry="3" style="stroke:#038048;stroke-width:1.0;"/><text fill="#000000" font-family="sans-serif" font-size="11" lengthAdjust="spacingAndGlyphs" textLength="104" x="475.1607" y="267.6245">getToken(): Token</text><ellipse cx="466.1607" cy="277.2188" fill="#84BE84" rx="3" ry="3" style="stroke:#038048;stroke-width:1.0;"/><text fill="#000000" font-family="sans-serif" font-size="11" lengthAdjust="spacingAndGlyphs" textLength="96" x="475.1607" y="280.4292">isUser(): boolean</text><ellipse cx="466.1607" cy="290.0234" fill="#84BE84" rx="3" ry="3" style="stroke:#038048;stroke-width:1.0;"/><text fill="#000000" font-family="sans-serif" font-size="11" lengthAdjust="spacingAndGlyphs" textLength="121" x="475.1607" y="293.2339">put(Coordinate): Error</text><ellipse cx="466.1607" cy="302.8281" fill="#84BE84" rx="3" ry="3" style="stroke:#038048;stroke-width:1.0;"/><text fill="#000000" font-family="sans-serif" font-size="11" lengthAdjust="spacingAndGlyphs" textLength="201" x="475.1607" y="306.0386">move(Coordinate,Coordinate): Error</text><!--MD5=[d75e1ad11e6a17be2ba08b218e20e3d7]
class tictactoe.controllers.ResumeController--><rect codeLine="27" fill="#FEFECE" filter="url(#fpxp41vvqozw9)" height="73.6094" id="tictactoe.controllers.ResumeController" style="stroke:#A80036;stroke-width:1.5;" width="171" x="63.1604" y="207"/><ellipse cx="92.5604" cy="223" fill="#ADD1B2" rx="11" ry="11" style="stroke:#A80036;stroke-width:1.0;"/><path d="M94.9042,218.6719 C93.9667,218.2344 93.3729,218.0938 92.4979,218.0938 C89.8729,218.0938 87.8729,220.1719 87.8729,222.8906 L87.8729,224.0156 C87.8729,226.5938 89.9823,228.4844 92.8729,228.4844 C94.0917,228.4844 95.2479,228.1875 95.9979,227.6406 C96.576,227.2344 96.9042,226.7813 96.9042,226.3906 C96.9042,225.9375 96.5135,225.5469 96.0448,225.5469 C95.826,225.5469 95.6229,225.625 95.4354,225.8125 C94.9823,226.2969 94.9823,226.2969 94.7948,226.3906 C94.3729,226.6563 93.6854,226.7813 92.9198,226.7813 C90.8729,226.7813 89.576,225.6875 89.576,223.9844 L89.576,222.8906 C89.576,221.1094 90.826,219.7969 92.5604,219.7969 C93.1385,219.7969 93.7479,219.9531 94.2167,220.2031 C94.701,220.4844 94.8729,220.7031 94.9667,221.1094 C95.0292,221.5156 95.0604,221.6406 95.201,221.7656 C95.3417,221.9063 95.576,222.0156 95.7948,222.0156 C96.0604,222.0156 96.326,221.875 96.4979,221.6563 C96.6073,221.5 96.6385,221.3125 96.6385,220.8906 L96.6385,219.4688 C96.6385,219.0313 96.6229,218.9063 96.5292,218.75 C96.3729,218.4844 96.0917,218.3438 95.7948,218.3438 C95.4979,218.3438 95.2948,218.4375 95.076,218.75 L94.9042,218.6719 Z " fill="#000000"/><text fill="#000000" font-family="sans-serif" font-size="12" lengthAdjust="spacingAndGlyphs" textLength="107" x="109.7604" y="227.1543">ResumeController</text><line style="stroke:#A80036;stroke-width:1.5;" x1="64.1604" x2="233.1604" y1="239" y2="239"/><line style="stroke:#A80036;stroke-width:1.5;" x1="64.1604" x2="233.1604" y1="247" y2="247"/><ellipse cx="74.1604" cy="258" fill="#84BE84" rx="3" ry="3" style="stroke:#038048;stroke-width:1.0;"/><text fill="#000000" font-family="sans-serif" font-size="11" lengthAdjust="spacingAndGlyphs" textLength="145" x="83.1604" y="261.2104">ResumeController(Game)</text><ellipse cx="74.1604" cy="270.8047" fill="#84BE84" rx="3" ry="3" style="stroke:#038048;stroke-width:1.0;"/><text fill="#000000" font-family="sans-serif" font-size="11" lengthAdjust="spacingAndGlyphs" textLength="52" x="83.1604" y="274.0151">resume()</text><!--MD5=[8ede4dbfb3b498095887802b64b699f0]
class tictactoe.controllers.StartController--><rect codeLine="34" fill="#FEFECE" filter="url(#fpxp41vvqozw9)" height="86.4141" id="tictactoe.controllers.StartController" style="stroke:#A80036;stroke-width:1.5;" width="151" x="269.1607" y="201"/><ellipse cx="298.5607" cy="217" fill="#ADD1B2" rx="11" ry="11" style="stroke:#A80036;stroke-width:1.0;"/><path d="M300.9045,212.6719 C299.967,212.2344 299.3732,212.0938 298.4982,212.0938 C295.8732,212.0938 293.8732,214.1719 293.8732,216.8906 L293.8732,218.0156 C293.8732,220.5938 295.9826,222.4844 298.8732,222.4844 C300.092,222.4844 301.2482,222.1875 301.9982,221.6406 C302.5763,221.2344 302.9045,220.7813 302.9045,220.3906 C302.9045,219.9375 302.5138,219.5469 302.0451,219.5469 C301.8263,219.5469 301.6232,219.625 301.4357,219.8125 C300.9826,220.2969 300.9826,220.2969 300.7951,220.3906 C300.3732,220.6563 299.6857,220.7813 298.9201,220.7813 C296.8732,220.7813 295.5763,219.6875 295.5763,217.9844 L295.5763,216.8906 C295.5763,215.1094 296.8263,213.7969 298.5607,213.7969 C299.1388,213.7969 299.7482,213.9531 300.217,214.2031 C300.7013,214.4844 300.8732,214.7031 300.967,215.1094 C301.0295,215.5156 301.0607,215.6406 301.2013,215.7656 C301.342,215.9063 301.5763,216.0156 301.7951,216.0156 C302.0607,216.0156 302.3263,215.875 302.4982,215.6563 C302.6076,215.5 302.6388,215.3125 302.6388,214.8906 L302.6388,213.4688 C302.6388,213.0313 302.6232,212.9063 302.5295,212.75 C302.3732,212.4844 302.092,212.3438 301.7951,212.3438 C301.4982,212.3438 301.2951,212.4375 301.0763,212.75 L300.9045,212.6719 Z " fill="#000000"/><text fill="#000000" font-family="sans-serif" font-size="12" lengthAdjust="spacingAndGlyphs" textLength="87" x="315.7607" y="221.1543">StartController</text><line style="stroke:#A80036;stroke-width:1.5;" x1="270.1607" x2="419.1607" y1="233" y2="233"/><line style="stroke:#A80036;stroke-width:1.5;" x1="270.1607" x2="419.1607" y1="241" y2="241"/><ellipse cx="280.1607" cy="252" fill="#84BE84" rx="3" ry="3" style="stroke:#038048;stroke-width:1.0;"/><text fill="#000000" font-family="sans-serif" font-size="11" lengthAdjust="spacingAndGlyphs" textLength="125" x="289.1607" y="255.2104">StartController(Game)</text><ellipse cx="280.1607" cy="264.8047" fill="#84BE84" rx="3" ry="3" style="stroke:#038048;stroke-width:1.0;"/><text fill="#000000" font-family="sans-serif" font-size="11" lengthAdjust="spacingAndGlyphs" textLength="72" x="289.1607" y="268.0151">setUsers(int)</text><ellipse cx="280.1607" cy="277.6094" fill="#84BE84" rx="3" ry="3" style="stroke:#038048;stroke-width:1.0;"/><text fill="#000000" font-family="sans-serif" font-size="11" lengthAdjust="spacingAndGlyphs" textLength="112" x="289.1607" y="280.8198">getMaxPlayers(): int</text><!--MD5=[b6dcce5e5ef3c84b0b048d11301373dd]
class Game--><rect codeLine="1" fill="#FEFECE" filter="url(#fpxp41vvqozw9)" height="53.9375" id="Game" style="stroke:#A80036;stroke-width:1.5;" width="135" x="123.1607" y="373"/><ellipse cx="138.1607" cy="391.9688" fill="#ADD1B2" rx="11" ry="11" style="stroke:#A80036;stroke-width:1.0;"/><path d="M140.5045,387.6406 C139.567,387.2031 138.9732,387.0625 138.0982,387.0625 C135.4732,387.0625 133.4732,389.1406 133.4732,391.8594 L133.4732,392.9844 C133.4732,395.5625 135.5826,397.4531 138.4732,397.4531 C139.692,397.4531 140.8482,397.1563 141.5982,396.6094 C142.1763,396.2031 142.5045,395.75 142.5045,395.3594 C142.5045,394.9063 142.1138,394.5156 141.6451,394.5156 C141.4263,394.5156 141.2232,394.5938 141.0357,394.7813 C140.5826,395.2656 140.5826,395.2656 140.3951,395.3594 C139.9732,395.625 139.2857,395.75 138.5201,395.75 C136.4732,395.75 135.1763,394.6563 135.1763,392.9531 L135.1763,391.8594 C135.1763,390.0781 136.4263,388.7656 138.1607,388.7656 C138.7388,388.7656 139.3482,388.9219 139.817,389.1719 C140.3013,389.4531 140.4732,389.6719 140.567,390.0781 C140.6295,390.4844 140.6607,390.6094 140.8013,390.7344 C140.942,390.875 141.1763,390.9844 141.3951,390.9844 C141.6607,390.9844 141.9263,390.8438 142.0982,390.625 C142.2076,390.4688 142.2388,390.2813 142.2388,389.8594 L142.2388,388.4375 C142.2388,388 142.2232,387.875 142.1295,387.7188 C141.9732,387.4531 141.692,387.3125 141.3951,387.3125 C141.0982,387.3125 140.8951,387.4063 140.6763,387.7188 L140.5045,387.6406 Z " fill="#000000"/><text fill="#000000" font-family="sans-serif" font-size="12" lengthAdjust="spacingAndGlyphs" textLength="103" x="152.1607" y="389.1387">tictactoe.models.</text><text fill="#000000" font-family="sans-serif" font-size="12" lengthAdjust="spacingAndGlyphs" textLength="35" x="186.1607" y="403.1074">Game</text><line style="stroke:#A80036;stroke-width:1.5;" x1="124.1607" x2="257.1607" y1="410.9375" y2="410.9375"/><line style="stroke:#A80036;stroke-width:1.5;" x1="124.1607" x2="257.1607" y1="418.9375" y2="418.9375"/><!--MD5=[8c7d7abc12e214c3cc12c9ab70edee11]
class Coordinate--><rect codeLine="2" fill="#FEFECE" filter="url(#fpxp41vvqozw9)" height="53.9375" id="Coordinate" style="stroke:#A80036;stroke-width:1.5;" width="135" x="336.1607" y="373"/><ellipse cx="351.1607" cy="391.9688" fill="#ADD1B2" rx="11" ry="11" style="stroke:#A80036;stroke-width:1.0;"/><path d="M353.5045,387.6406 C352.567,387.2031 351.9732,387.0625 351.0982,387.0625 C348.4732,387.0625 346.4732,389.1406 346.4732,391.8594 L346.4732,392.9844 C346.4732,395.5625 348.5826,397.4531 351.4732,397.4531 C352.692,397.4531 353.8482,397.1563 354.5982,396.6094 C355.1763,396.2031 355.5045,395.75 355.5045,395.3594 C355.5045,394.9063 355.1138,394.5156 354.6451,394.5156 C354.4263,394.5156 354.2232,394.5938 354.0357,394.7813 C353.5826,395.2656 353.5826,395.2656 353.3951,395.3594 C352.9732,395.625 352.2857,395.75 351.5201,395.75 C349.4732,395.75 348.1763,394.6563 348.1763,392.9531 L348.1763,391.8594 C348.1763,390.0781 349.4263,388.7656 351.1607,388.7656 C351.7388,388.7656 352.3482,388.9219 352.817,389.1719 C353.3013,389.4531 353.4732,389.6719 353.567,390.0781 C353.6295,390.4844 353.6607,390.6094 353.8013,390.7344 C353.942,390.875 354.1763,390.9844 354.3951,390.9844 C354.6607,390.9844 354.9263,390.8438 355.0982,390.625 C355.2076,390.4688 355.2388,390.2813 355.2388,389.8594 L355.2388,388.4375 C355.2388,388 355.2232,387.875 355.1295,387.7188 C354.9732,387.4531 354.692,387.3125 354.3951,387.3125 C354.0982,387.3125 353.8951,387.4063 353.6763,387.7188 L353.5045,387.6406 Z " fill="#000000"/><text fill="#000000" font-family="sans-serif" font-size="12" lengthAdjust="spacingAndGlyphs" textLength="103" x="365.1607" y="389.1387">tictactoe.models.</text><text fill="#000000" font-family="sans-serif" font-size="12" lengthAdjust="spacingAndGlyphs" textLength="66" x="383.6607" y="403.1074">Coordinate</text><line style="stroke:#A80036;stroke-width:1.5;" x1="337.1607" x2="470.1607" y1="410.9375" y2="410.9375"/><line style="stroke:#A80036;stroke-width:1.5;" x1="337.1607" x2="470.1607" y1="418.9375" y2="418.9375"/><!--MD5=[b8cfd8c4119a3b0a7a46bfc5fc780f85]
class Error--><rect codeLine="3" fill="#FEFECE" filter="url(#fpxp41vvqozw9)" height="53.9375" id="Error" style="stroke:#A80036;stroke-width:1.5;" width="124" x="506.6607" y="373"/><ellipse cx="521.6607" cy="391.9688" fill="#ADD1B2" rx="11" ry="11" style="stroke:#A80036;stroke-width:1.0;"/><path d="M524.0045,387.6406 C523.067,387.2031 522.4732,387.0625 521.5982,387.0625 C518.9732,387.0625 516.9732,389.1406 516.9732,391.8594 L516.9732,392.9844 C516.9732,395.5625 519.0826,397.4531 521.9732,397.4531 C523.192,397.4531 524.3482,397.1563 525.0982,396.6094 C525.6763,396.2031 526.0045,395.75 526.0045,395.3594 C526.0045,394.9063 525.6138,394.5156 525.1451,394.5156 C524.9263,394.5156 524.7232,394.5938 524.5357,394.7813 C524.0826,395.2656 524.0826,395.2656 523.8951,395.3594 C523.4732,395.625 522.7857,395.75 522.0201,395.75 C519.9732,395.75 518.6763,394.6563 518.6763,392.9531 L518.6763,391.8594 C518.6763,390.0781 519.9263,388.7656 521.6607,388.7656 C522.2388,388.7656 522.8482,388.9219 523.317,389.1719 C523.8013,389.4531 523.9732,389.6719 524.067,390.0781 C524.1295,390.4844 524.1607,390.6094 524.3013,390.7344 C524.442,390.875 524.6763,390.9844 524.8951,390.9844 C525.1607,390.9844 525.4263,390.8438 525.5982,390.625 C525.7076,390.4688 525.7388,390.2813 525.7388,389.8594 L525.7388,388.4375 C525.7388,388 525.7232,387.875 525.6295,387.7188 C525.4732,387.4531 525.192,387.3125 524.8951,387.3125 C524.5982,387.3125 524.3951,387.4063 524.1763,387.7188 L524.0045,387.6406 Z " fill="#000000"/><text fill="#000000" font-family="sans-serif" font-size="12" lengthAdjust="spacingAndGlyphs" textLength="92" x="535.6607" y="389.1387">tictactoe.types.</text><text fill="#000000" font-family="sans-serif" font-size="12" lengthAdjust="spacingAndGlyphs" textLength="30" x="566.6607" y="403.1074">Error</text><line style="stroke:#A80036;stroke-width:1.5;" x1="507.6607" x2="629.6607" y1="410.9375" y2="410.9375"/><line style="stroke:#A80036;stroke-width:1.5;" x1="507.6607" x2="629.6607" y1="418.9375" y2="418.9375"/><!--MD5=[d8c8cfd5ca149094f5b67f9f607a5ec7]
class Token--><rect codeLine="4" fill="#FEFECE" filter="url(#fpxp41vvqozw9)" height="53.9375" id="Token" style="stroke:#A80036;stroke-width:1.5;" width="135" x="666.1607" y="373"/><ellipse cx="681.1607" cy="391.9688" fill="#ADD1B2" rx="11" ry="11" style="stroke:#A80036;stroke-width:1.0;"/><path d="M683.5045,387.6406 C682.567,387.2031 681.9732,387.0625 681.0982,387.0625 C678.4732,387.0625 676.4732,389.1406 676.4732,391.8594 L676.4732,392.9844 C676.4732,395.5625 678.5826,397.4531 681.4732,397.4531 C682.692,397.4531 683.8482,397.1563 684.5982,396.6094 C685.1763,396.2031 685.5045,395.75 685.5045,395.3594 C685.5045,394.9063 685.1138,394.5156 684.6451,394.5156 C684.4263,394.5156 684.2232,394.5938 684.0357,394.7813 C683.5826,395.2656 683.5826,395.2656 683.3951,395.3594 C682.9732,395.625 682.2857,395.75 681.5201,395.75 C679.4732,395.75 678.1763,394.6563 678.1763,392.9531 L678.1763,391.8594 C678.1763,390.0781 679.4263,388.7656 681.1607,388.7656 C681.7388,388.7656 682.3482,388.9219 682.817,389.1719 C683.3013,389.4531 683.4732,389.6719 683.567,390.0781 C683.6295,390.4844 683.6607,390.6094 683.8013,390.7344 C683.942,390.875 684.1763,390.9844 684.3951,390.9844 C684.6607,390.9844 684.9263,390.8438 685.0982,390.625 C685.2076,390.4688 685.2388,390.2813 685.2388,389.8594 L685.2388,388.4375 C685.2388,388 685.2232,387.875 685.1295,387.7188 C684.9732,387.4531 684.692,387.3125 684.3951,387.3125 C684.0982,387.3125 683.8951,387.4063 683.6763,387.7188 L683.5045,387.6406 Z " fill="#000000"/><text fill="#000000" font-family="sans-serif" font-size="12" lengthAdjust="spacingAndGlyphs" textLength="103" x="695.1607" y="389.1387">tictactoe.models.</text><text fill="#000000" font-family="sans-serif" font-size="12" lengthAdjust="spacingAndGlyphs" textLength="37" x="728.1607" y="403.1074">Token</text><line style="stroke:#A80036;stroke-width:1.5;" x1="667.1607" x2="800.1607" y1="410.9375" y2="410.9375"/><line style="stroke:#A80036;stroke-width:1.5;" x1="667.1607" x2="800.1607" y1="418.9375" y2="418.9375"/><!--MD5=[6068204d1fdba78d641ceb3415898910]
link tictactoe.controllers.Controller to Game--><path codeLine="10" d="M144.1966,103.4482 C144.1966,103.4482 67.6161,140.545 45.6604,175 C6.9676,235.72 6,276.908 45.6604,337 C60.4969,359.4798 85.344,373.8382 110.3167,382.9973 " fill="none" id="tictactoe.controllers.Controller-Game" style="stroke:#A80036;stroke-width:1.0;"/><polygon fill="#A80036" points="122.9367,387.2085,115.6656,380.5654,118.1938,385.6259,113.1333,388.1541,122.9367,387.2085" style="stroke:#A80036;stroke-width:1.0;"/><line style="stroke:#A80036;stroke-width:1.0;" x1="118.1938" x2="110.6055" y1="385.6259" y2="383.0937"/><polygon fill="#A80036" points="155.4827,99.371,148.4806,97.6476,144.1966,103.4482,151.1987,105.1716,155.4827,99.371" style="stroke:#A80036;stroke-width:1.0;"/><!--MD5=[5700b97431232c099330215bddfcc855]
reverse link tictactoe.controllers.Controller to tictactoe.controllers.PlayController--><path codeLine="21" d="M340.0547,124.57 C370.9417,140.507 405.8417,158.53 437.6607,175 C443.3497,177.945 449.1767,180.963 455.0607,184.012 " fill="none" id="tictactoe.controllers.Controller-backto-tictactoe.controllers.PlayController" style="stroke:#A80036;stroke-width:1.0;"/><polygon fill="none" points="336.4627,130.593,321.8977,115.203,342.8807,118.151,336.4627,130.593" style="stroke:#A80036;stroke-width:1.0;"/><!--MD5=[fe83eea10e25d043c5deb7f71d3efefa]
link tictactoe.controllers.PlayController to Coordinate--><path codeLine="22" d="M495.3277,313.443 C474.3637,333.0104 452.5997,353.3236 435.5417,369.2445 " fill="none" id="tictactoe.controllers.PlayController-to-Coordinate" style="stroke:#A80036;stroke-width:1.0;stroke-dasharray:7.0,7.0;"/><polygon fill="#A80036" points="431.7537,372.7792,441.0626,369.563,435.4091,369.3678,435.6043,363.7143,431.7537,372.7792" style="stroke:#A80036;stroke-width:1.0;"/><!--MD5=[17f566e5019e25cb4796a68af68f3905]
link tictactoe.controllers.PlayController to Error--><path codeLine="23" d="M568.6607,313.443 C568.6607,332.3527 568.6607,351.9589 568.6607,367.6244 " fill="none" id="tictactoe.controllers.PlayController-to-Error" style="stroke:#A80036;stroke-width:1.0;stroke-dasharray:7.0,7.0;"/><polygon fill="#A80036" points="568.6607,372.7792,572.6607,363.7792,568.6607,367.7792,564.6607,363.7792,568.6607,372.7792" style="stroke:#A80036;stroke-width:1.0;"/><!--MD5=[ba4453740163cde41a3c637e3b1e755a]
link tictactoe.controllers.PlayController to Game--><path codeLine="24" d="M480.7277,313.169 C466.8037,322.048 452.1917,330.3515 437.6607,337 C406.9147,351.0672 324.7377,370.4567 263.5617,383.7874 " fill="none" id="tictactoe.controllers.PlayController-to-Game" style="stroke:#A80036;stroke-width:1.0;stroke-dasharray:7.0,7.0;"/><polygon fill="#A80036" points="258.4537,384.897,268.0977,386.8952,263.3397,383.8356,266.3994,379.0776,258.4537,384.897" style="stroke:#A80036;stroke-width:1.0;"/><!--MD5=[2ada365b675ffc8168b7291fcf650ab7]
link tictactoe.controllers.PlayController to Token--><path codeLine="25" d="M641.9927,313.443 C662.9577,333.0104 684.7217,353.3236 701.7797,369.2445 " fill="none" id="tictactoe.controllers.PlayController-to-Token" style="stroke:#A80036;stroke-width:1.0;stroke-dasharray:7.0,7.0;"/><polygon fill="#A80036" points="705.5667,372.7792,701.7161,363.7143,701.9113,369.3678,696.2578,369.563,705.5667,372.7792" style="stroke:#A80036;stroke-width:1.0;"/><!--MD5=[549c2b0fc6f493adecd03b65ab276634]
reverse link tictactoe.controllers.Controller to tictactoe.controllers.ResumeController--><path codeLine="31" d="M218.1487,132.358 C202.8007,156.797 185.0137,185.117 171.2777,206.987 " fill="none" id="tictactoe.controllers.Controller-backto-tictactoe.controllers.ResumeController" style="stroke:#A80036;stroke-width:1.0;"/><polygon fill="none" points="212.2367,128.611,228.8017,115.397,224.0917,136.057,212.2367,128.611" style="stroke:#A80036;stroke-width:1.0;"/><!--MD5=[a35ef516318c5bb82096013ec88f75bf]
link tictactoe.controllers.ResumeController to Game--><path codeLine="32" d="M158.5077,281.106 C165.6907,307.443 175.3257,342.7725 182.1707,367.8704 " fill="none" id="tictactoe.controllers.ResumeController-to-Game" style="stroke:#A80036;stroke-width:1.0;stroke-dasharray:7.0,7.0;"/><polygon fill="#A80036" points="183.5007,372.7478,184.9917,363.0125,182.1851,367.924,177.2736,365.1174,183.5007,372.7478" style="stroke:#A80036;stroke-width:1.0;"/><!--MD5=[5deb1e5c7bf9906a35de112138d88f9c]
reverse link tictactoe.controllers.Controller to tictactoe.controllers.StartController--><path codeLine="39" d="M282.3087,133.046 C294.8227,155.114 309.0757,180.249 320.7937,200.912 " fill="none" id="tictactoe.controllers.Controller-backto-tictactoe.controllers.StartController" style="stroke:#A80036;stroke-width:1.0;"/><polygon fill="none" points="276.0767,136.247,272.2997,115.397,288.2547,129.341,276.0767,136.247" style="stroke:#A80036;stroke-width:1.0;"/><!--MD5=[479e7112b5bc5a94513afe00b27faaff]
link tictactoe.controllers.StartController to Game--><path codeLine="40" d="M302.5787,287.081 C276.5427,313.117 243.7487,345.9115 220.4037,369.2565 " fill="none" id="tictactoe.controllers.StartController-to-Game" style="stroke:#A80036;stroke-width:1.0;stroke-dasharray:7.0,7.0;"/><polygon fill="#A80036" points="216.7407,372.9196,225.933,369.3839,220.2762,369.384,220.276,363.7271,216.7407,372.9196" style="stroke:#A80036;stroke-width:1.0;"/><!--MD5=[73cd687a3e1e3b88ece481e0497d40c3]
@startuml
class Game as "tictactoe.models.\nGame" {}
class Coordinate as "tictactoe.models.\nCoordinate" {}
class Error as "tictactoe.types.\nError" {}
class Token as "tictactoe.models.\nToken" {}

class  tictactoe.controllers.Controller{
~ Controller(Game)
+ getToken(Coordinate): Token
}
tictactoe.controllers.Controller *-down-> Game

class  tictactoe.controllers.PlayController{
+ PlayController(Game)
+ isBoardComplete(): boolean
+ isTicTacToe(): boolean
+ getToken(): Token
+ isUser(): boolean
+ put(Coordinate): Error
+ move(Coordinate,Coordinate): Error
}
tictactoe.controllers.Controller <|-down- tictactoe.controllers.PlayController
tictactoe.controllers.PlayController .down.> Coordinate
tictactoe.controllers.PlayController .down.> Error
tictactoe.controllers.PlayController .down.> Game
tictactoe.controllers.PlayController .down.> Token

class  tictactoe.controllers.ResumeController{
+ ResumeController(Game)
+ resume()
}
tictactoe.controllers.Controller <|-down- tictactoe.controllers.ResumeController
tictactoe.controllers.ResumeController .down.> Game

class  tictactoe.controllers.StartController{
+ StartController(Game)
+ setUsers(int)
+ getMaxPlayers(): int
}
tictactoe.controllers.Controller <|-down- tictactoe.controllers.StartController
tictactoe.controllers.StartController .down.> Game
@enduml

PlantUML version 1.2020.21beta7(Unknown compile time)
(GPL source distribution)
Java Runtime: Java(TM) SE Runtime Environment
JVM: Java HotSpot(TM) 64-Bit Server VM
Default Encoding: UTF-8
Language: en
Country: US
--></g></svg>