<?xml version="1.0" encoding="UTF-8" standalone="no"?><svg xmlns="http://www.w3.org/2000/svg" xmlns:xlink="http://www.w3.org/1999/xlink" contentScriptType="application/ecmascript" contentStyleType="text/css" height="519px" preserveAspectRatio="none" style="width:1723px;height:519px;" version="1.1" viewBox="0 0 1723 519" width="1723px" zoomAndPan="magnify"><defs><filter height="300%" id="f13zu0hsldvrbv" width="300%" x="-1" y="-1"><feGaussianBlur result="blurOut" stdDeviation="2.0"/><feColorMatrix in="blurOut" result="blurOut2" type="matrix" values="0 0 0 0 0 0 0 0 0 0 0 0 0 0 0 0 0 0 .4 0"/><feOffset dx="4.0" dy="4.0" in="blurOut2" result="blurOut3"/><feBlend in="SourceGraphic" in2="blurOut3" mode="normal"/></filter></defs><g><!--MD5=[64182ab34c08ac367bbf699869515711]
cluster tictactoe.views.console--><polygon fill="#FFFFFF" filter="url(#f13zu0hsldvrbv)" points="122.5,86,321.5,86,328.5,108.2969,1192.5,108.2969,1192.5,408,122.5,408,122.5,86" style="stroke:#000000;stroke-width:1.5;"/><line style="stroke:#000000;stroke-width:1.5;" x1="122.5" x2="328.5" y1="108.2969" y2="108.2969"/><text fill="#000000" font-family="sans-serif" font-size="14" font-weight="bold" lengthAdjust="spacingAndGlyphs" textLength="193" x="126.5" y="100.9951">tictactoe.views.console</text><!--MD5=[8830b246a550294711e6eb5af1606829]
class tictactoe.views.console.CoordinateView--><rect codeLine="14" fill="#FEFECE" filter="url(#f13zu0hsldvrbv)" height="60.8047" id="tictactoe.views.console.CoordinateView" style="stroke:#A80036;stroke-width:1.5;" width="162" x="138.5" y="146.5"/><ellipse cx="169.25" cy="162.5" fill="#ADD1B2" rx="11" ry="11" style="stroke:#A80036;stroke-width:1.0;"/><path d="M171.5938,158.1719 C170.6563,157.7344 170.0625,157.5938 169.1875,157.5938 C166.5625,157.5938 164.5625,159.6719 164.5625,162.3906 L164.5625,163.5156 C164.5625,166.0938 166.6719,167.9844 169.5625,167.9844 C170.7813,167.9844 171.9375,167.6875 172.6875,167.1406 C173.2656,166.7344 173.5938,166.2813 173.5938,165.8906 C173.5938,165.4375 173.2031,165.0469 172.7344,165.0469 C172.5156,165.0469 172.3125,165.125 172.125,165.3125 C171.6719,165.7969 171.6719,165.7969 171.4844,165.8906 C171.0625,166.1563 170.375,166.2813 169.6094,166.2813 C167.5625,166.2813 166.2656,165.1875 166.2656,163.4844 L166.2656,162.3906 C166.2656,160.6094 167.5156,159.2969 169.25,159.2969 C169.8281,159.2969 170.4375,159.4531 170.9063,159.7031 C171.3906,159.9844 171.5625,160.2031 171.6563,160.6094 C171.7188,161.0156 171.75,161.1406 171.8906,161.2656 C172.0313,161.4063 172.2656,161.5156 172.4844,161.5156 C172.75,161.5156 173.0156,161.375 173.1875,161.1563 C173.2969,161 173.3281,160.8125 173.3281,160.3906 L173.3281,158.9688 C173.3281,158.5313 173.3125,158.4063 173.2188,158.25 C173.0625,157.9844 172.7813,157.8438 172.4844,157.8438 C172.1875,157.8438 171.9844,157.9375 171.7656,158.25 L171.5938,158.1719 Z " fill="#000000"/><text fill="#000000" font-family="sans-serif" font-size="12" lengthAdjust="spacingAndGlyphs" textLength="95" x="186.75" y="166.6543">CoordinateView</text><line style="stroke:#A80036;stroke-width:1.5;" x1="139.5" x2="299.5" y1="178.5" y2="178.5"/><line style="stroke:#A80036;stroke-width:1.5;" x1="139.5" x2="299.5" y1="186.5" y2="186.5"/><ellipse cx="149.5" cy="197.5" fill="#84BE84" rx="3" ry="3" style="stroke:#038048;stroke-width:1.0;"/><text fill="#000000" font-family="sans-serif" font-size="11" lengthAdjust="spacingAndGlyphs" textLength="136" x="158.5" y="200.7104">read(String): Coordinate</text><!--MD5=[1ca4e66fd27a79cb5d7093d90b3139a4]
class tictactoe.views.console.ErrorView--><rect codeLine="22" fill="#FEFECE" filter="url(#f13zu0hsldvrbv)" height="73.6094" id="tictactoe.views.console.ErrorView" style="stroke:#A80036;stroke-width:1.5;" width="114" x="502.5" y="140"/><ellipse cx="527.85" cy="156" fill="#ADD1B2" rx="11" ry="11" style="stroke:#A80036;stroke-width:1.0;"/><path d="M530.1938,151.6719 C529.2563,151.2344 528.6625,151.0938 527.7875,151.0938 C525.1625,151.0938 523.1625,153.1719 523.1625,155.8906 L523.1625,157.0156 C523.1625,159.5938 525.2719,161.4844 528.1625,161.4844 C529.3813,161.4844 530.5375,161.1875 531.2875,160.6406 C531.8656,160.2344 532.1938,159.7813 532.1938,159.3906 C532.1938,158.9375 531.8031,158.5469 531.3344,158.5469 C531.1156,158.5469 530.9125,158.625 530.725,158.8125 C530.2719,159.2969 530.2719,159.2969 530.0844,159.3906 C529.6625,159.6563 528.975,159.7813 528.2094,159.7813 C526.1625,159.7813 524.8656,158.6875 524.8656,156.9844 L524.8656,155.8906 C524.8656,154.1094 526.1156,152.7969 527.85,152.7969 C528.4281,152.7969 529.0375,152.9531 529.5063,153.2031 C529.9906,153.4844 530.1625,153.7031 530.2563,154.1094 C530.3188,154.5156 530.35,154.6406 530.4906,154.7656 C530.6313,154.9063 530.8656,155.0156 531.0844,155.0156 C531.35,155.0156 531.6156,154.875 531.7875,154.6563 C531.8969,154.5 531.9281,154.3125 531.9281,153.8906 L531.9281,152.4688 C531.9281,152.0313 531.9125,151.9063 531.8188,151.75 C531.6625,151.4844 531.3813,151.3438 531.0844,151.3438 C530.7875,151.3438 530.5844,151.4375 530.3656,151.75 L530.1938,151.6719 Z " fill="#000000"/><text fill="#000000" font-family="sans-serif" font-size="12" lengthAdjust="spacingAndGlyphs" textLength="59" x="544.15" y="160.1543">ErrorView</text><line style="stroke:#A80036;stroke-width:1.5;" x1="503.5" x2="615.5" y1="172" y2="172"/><line style="stroke:#A80036;stroke-width:1.5;" x1="503.5" x2="615.5" y1="180" y2="180"/><polygon fill="#4177AF" points="513.5,187,509.5,193,517.5,193" style="stroke:#1963A0;stroke-width:1.0;"/><text fill="#000000" font-family="sans-serif" font-size="11" lengthAdjust="spacingAndGlyphs" textLength="88" x="522.5" y="194.2104">ErrorView(Error)</text><polygon fill="#4177AF" points="513.5,199.8047,509.5,205.8047,517.5,205.8047" style="stroke:#1963A0;stroke-width:1.0;"/><text fill="#000000" font-family="sans-serif" font-size="11" lengthAdjust="spacingAndGlyphs" textLength="46" x="522.5" y="207.0151">writeln()</text><!--MD5=[e933b4291156428da126c4c01236555b]
class tictactoe.views.console.GameView--><rect codeLine="30" fill="#FEFECE" filter="url(#f13zu0hsldvrbv)" height="73.6094" id="tictactoe.views.console.GameView" style="stroke:#A80036;stroke-width:1.5;" width="152" x="1024.5" y="140"/><ellipse cx="1064.7" cy="156" fill="#ADD1B2" rx="11" ry="11" style="stroke:#A80036;stroke-width:1.0;"/><path d="M1067.0438,151.6719 C1066.1063,151.2344 1065.5125,151.0938 1064.6375,151.0938 C1062.0125,151.0938 1060.0125,153.1719 1060.0125,155.8906 L1060.0125,157.0156 C1060.0125,159.5938 1062.1219,161.4844 1065.0125,161.4844 C1066.2313,161.4844 1067.3875,161.1875 1068.1375,160.6406 C1068.7156,160.2344 1069.0438,159.7813 1069.0438,159.3906 C1069.0438,158.9375 1068.6531,158.5469 1068.1844,158.5469 C1067.9656,158.5469 1067.7625,158.625 1067.575,158.8125 C1067.1219,159.2969 1067.1219,159.2969 1066.9344,159.3906 C1066.5125,159.6563 1065.825,159.7813 1065.0594,159.7813 C1063.0125,159.7813 1061.7156,158.6875 1061.7156,156.9844 L1061.7156,155.8906 C1061.7156,154.1094 1062.9656,152.7969 1064.7,152.7969 C1065.2781,152.7969 1065.8875,152.9531 1066.3563,153.2031 C1066.8406,153.4844 1067.0125,153.7031 1067.1063,154.1094 C1067.1688,154.5156 1067.2,154.6406 1067.3406,154.7656 C1067.4813,154.9063 1067.7156,155.0156 1067.9344,155.0156 C1068.2,155.0156 1068.4656,154.875 1068.6375,154.6563 C1068.7469,154.5 1068.7781,154.3125 1068.7781,153.8906 L1068.7781,152.4688 C1068.7781,152.0313 1068.7625,151.9063 1068.6688,151.75 C1068.5125,151.4844 1068.2313,151.3438 1067.9344,151.3438 C1067.6375,151.3438 1067.4344,151.4375 1067.2156,151.75 L1067.0438,151.6719 Z " fill="#000000"/><text fill="#000000" font-family="sans-serif" font-size="12" lengthAdjust="spacingAndGlyphs" textLength="64" x="1084.3" y="160.1543">GameView</text><line style="stroke:#A80036;stroke-width:1.5;" x1="1025.5" x2="1175.5" y1="172" y2="172"/><line style="stroke:#A80036;stroke-width:1.5;" x1="1025.5" x2="1175.5" y1="180" y2="180"/><polygon fill="#4177AF" points="1035.5,187,1031.5,193,1039.5,193" style="stroke:#1963A0;stroke-width:1.0;"/><text fill="#000000" font-family="sans-serif" font-size="11" lengthAdjust="spacingAndGlyphs" textLength="126" x="1044.5" y="194.2104">GameView(Controller)</text><polygon fill="#4177AF" points="1035.5,199.8047,1031.5,205.8047,1039.5,205.8047" style="stroke:#1963A0;stroke-width:1.0;"/><text fill="#000000" font-family="sans-serif" font-size="11" lengthAdjust="spacingAndGlyphs" textLength="36" x="1044.5" y="207.0151">write()</text><!--MD5=[0158df0baddf48f83142f472e341eacc]
class tictactoe.views.console.PlayView--><rect codeLine="39" fill="#FEFECE" filter="url(#f13zu0hsldvrbv)" height="99.2188" id="tictactoe.views.console.PlayView" style="stroke:#A80036;stroke-width:1.5;" width="163" x="415" y="293"/><ellipse cx="466.25" cy="309" fill="#ADD1B2" rx="11" ry="11" style="stroke:#A80036;stroke-width:1.0;"/><path d="M468.5938,304.6719 C467.6563,304.2344 467.0625,304.0938 466.1875,304.0938 C463.5625,304.0938 461.5625,306.1719 461.5625,308.8906 L461.5625,310.0156 C461.5625,312.5938 463.6719,314.4844 466.5625,314.4844 C467.7813,314.4844 468.9375,314.1875 469.6875,313.6406 C470.2656,313.2344 470.5938,312.7813 470.5938,312.3906 C470.5938,311.9375 470.2031,311.5469 469.7344,311.5469 C469.5156,311.5469 469.3125,311.625 469.125,311.8125 C468.6719,312.2969 468.6719,312.2969 468.4844,312.3906 C468.0625,312.6563 467.375,312.7813 466.6094,312.7813 C464.5625,312.7813 463.2656,311.6875 463.2656,309.9844 L463.2656,308.8906 C463.2656,307.1094 464.5156,305.7969 466.25,305.7969 C466.8281,305.7969 467.4375,305.9531 467.9063,306.2031 C468.3906,306.4844 468.5625,306.7031 468.6563,307.1094 C468.7188,307.5156 468.75,307.6406 468.8906,307.7656 C469.0313,307.9063 469.2656,308.0156 469.4844,308.0156 C469.75,308.0156 470.0156,307.875 470.1875,307.6563 C470.2969,307.5 470.3281,307.3125 470.3281,306.8906 L470.3281,305.4688 C470.3281,305.0313 470.3125,304.9063 470.2188,304.75 C470.0625,304.4844 469.7813,304.3438 469.4844,304.3438 C469.1875,304.3438 468.9844,304.4375 468.7656,304.75 L468.5938,304.6719 Z " fill="#000000"/><text fill="#000000" font-family="sans-serif" font-size="12" lengthAdjust="spacingAndGlyphs" textLength="52" x="486.75" y="313.1543">PlayView</text><line style="stroke:#A80036;stroke-width:1.5;" x1="416" x2="577" y1="325" y2="325"/><line style="stroke:#A80036;stroke-width:1.5;" x1="416" x2="577" y1="333" y2="333"/><polygon fill="#4177AF" points="426,340,422,346,430,346" style="stroke:#1963A0;stroke-width:1.0;"/><text fill="#000000" font-family="sans-serif" font-size="11" lengthAdjust="spacingAndGlyphs" textLength="137" x="435" y="347.2104">PlayView(PlayController)</text><polygon fill="#4177AF" points="426,352.8047,422,358.8047,430,358.8047" style="stroke:#1963A0;stroke-width:1.0;"/><text fill="#000000" font-family="sans-serif" font-size="11" lengthAdjust="spacingAndGlyphs" textLength="51" x="435" y="360.0151">interact()</text><rect fill="#F24D5C" height="6" style="stroke:#C82930;stroke-width:1.0;" width="6" x="423" y="366.6094"/><text fill="#000000" font-family="sans-serif" font-size="11" lengthAdjust="spacingAndGlyphs" textLength="26" x="435" y="372.8198">put()</text><rect fill="#F24D5C" height="6" style="stroke:#C82930;stroke-width:1.0;" width="6" x="423" y="379.4141"/><text fill="#000000" font-family="sans-serif" font-size="11" lengthAdjust="spacingAndGlyphs" textLength="41" x="435" y="385.6245">move()</text><!--MD5=[863eeac66a77264bd74e28cbddefcd23]
class tictactoe.views.console.ResumeView--><rect codeLine="51" fill="#FEFECE" filter="url(#f13zu0hsldvrbv)" height="73.6094" id="tictactoe.views.console.ResumeView" style="stroke:#A80036;stroke-width:1.5;" width="211" x="687" y="305.5"/><ellipse cx="749.75" cy="321.5" fill="#ADD1B2" rx="11" ry="11" style="stroke:#A80036;stroke-width:1.0;"/><path d="M752.0938,317.1719 C751.1563,316.7344 750.5625,316.5938 749.6875,316.5938 C747.0625,316.5938 745.0625,318.6719 745.0625,321.3906 L745.0625,322.5156 C745.0625,325.0938 747.1719,326.9844 750.0625,326.9844 C751.2813,326.9844 752.4375,326.6875 753.1875,326.1406 C753.7656,325.7344 754.0938,325.2813 754.0938,324.8906 C754.0938,324.4375 753.7031,324.0469 753.2344,324.0469 C753.0156,324.0469 752.8125,324.125 752.625,324.3125 C752.1719,324.7969 752.1719,324.7969 751.9844,324.8906 C751.5625,325.1563 750.875,325.2813 750.1094,325.2813 C748.0625,325.2813 746.7656,324.1875 746.7656,322.4844 L746.7656,321.3906 C746.7656,319.6094 748.0156,318.2969 749.75,318.2969 C750.3281,318.2969 750.9375,318.4531 751.4063,318.7031 C751.8906,318.9844 752.0625,319.2031 752.1563,319.6094 C752.2188,320.0156 752.25,320.1406 752.3906,320.2656 C752.5313,320.4063 752.7656,320.5156 752.9844,320.5156 C753.25,320.5156 753.5156,320.375 753.6875,320.1563 C753.7969,320 753.8281,319.8125 753.8281,319.3906 L753.8281,317.9688 C753.8281,317.5313 753.8125,317.4063 753.7188,317.25 C753.5625,316.9844 753.2813,316.8438 752.9844,316.8438 C752.6875,316.8438 752.4844,316.9375 752.2656,317.25 L752.0938,317.1719 Z " fill="#000000"/><text fill="#000000" font-family="sans-serif" font-size="12" lengthAdjust="spacingAndGlyphs" textLength="77" x="770.25" y="325.6543">ResumeView</text><line style="stroke:#A80036;stroke-width:1.5;" x1="688" x2="897" y1="337.5" y2="337.5"/><line style="stroke:#A80036;stroke-width:1.5;" x1="688" x2="897" y1="345.5" y2="345.5"/><ellipse cx="698" cy="356.5" fill="#84BE84" rx="3" ry="3" style="stroke:#038048;stroke-width:1.0;"/><text fill="#000000" font-family="sans-serif" font-size="11" lengthAdjust="spacingAndGlyphs" textLength="185" x="707" y="359.7104">ResumeView(ResumeController)</text><polygon fill="#4177AF" points="698,365.3047,694,371.3047,702,371.3047" style="stroke:#1963A0;stroke-width:1.0;"/><text fill="#000000" font-family="sans-serif" font-size="11" lengthAdjust="spacingAndGlyphs" textLength="104" x="707" y="372.5151">interact(): boolean</text><!--MD5=[54aa299435631381f3c0c028f26a058f]
class tictactoe.views.console.StartView--><rect codeLine="59" fill="#FEFECE" filter="url(#f13zu0hsldvrbv)" height="73.6094" id="tictactoe.views.console.StartView" style="stroke:#A80036;stroke-width:1.5;" width="171" x="933" y="305.5"/><ellipse cx="985.75" cy="321.5" fill="#ADD1B2" rx="11" ry="11" style="stroke:#A80036;stroke-width:1.0;"/><path d="M988.0938,317.1719 C987.1563,316.7344 986.5625,316.5938 985.6875,316.5938 C983.0625,316.5938 981.0625,318.6719 981.0625,321.3906 L981.0625,322.5156 C981.0625,325.0938 983.1719,326.9844 986.0625,326.9844 C987.2813,326.9844 988.4375,326.6875 989.1875,326.1406 C989.7656,325.7344 990.0938,325.2813 990.0938,324.8906 C990.0938,324.4375 989.7031,324.0469 989.2344,324.0469 C989.0156,324.0469 988.8125,324.125 988.625,324.3125 C988.1719,324.7969 988.1719,324.7969 987.9844,324.8906 C987.5625,325.1563 986.875,325.2813 986.1094,325.2813 C984.0625,325.2813 982.7656,324.1875 982.7656,322.4844 L982.7656,321.3906 C982.7656,319.6094 984.0156,318.2969 985.75,318.2969 C986.3281,318.2969 986.9375,318.4531 987.4063,318.7031 C987.8906,318.9844 988.0625,319.2031 988.1563,319.6094 C988.2188,320.0156 988.25,320.1406 988.3906,320.2656 C988.5313,320.4063 988.7656,320.5156 988.9844,320.5156 C989.25,320.5156 989.5156,320.375 989.6875,320.1563 C989.7969,320 989.8281,319.8125 989.8281,319.3906 L989.8281,317.9688 C989.8281,317.5313 989.8125,317.4063 989.7188,317.25 C989.5625,316.9844 989.2813,316.8438 988.9844,316.8438 C988.6875,316.8438 988.4844,316.9375 988.2656,317.25 L988.0938,317.1719 Z " fill="#000000"/><text fill="#000000" font-family="sans-serif" font-size="12" lengthAdjust="spacingAndGlyphs" textLength="57" x="1006.25" y="325.6543">StartView</text><line style="stroke:#A80036;stroke-width:1.5;" x1="934" x2="1103" y1="337.5" y2="337.5"/><line style="stroke:#A80036;stroke-width:1.5;" x1="934" x2="1103" y1="345.5" y2="345.5"/><polygon fill="#4177AF" points="944,352.5,940,358.5,948,358.5" style="stroke:#1963A0;stroke-width:1.0;"/><text fill="#000000" font-family="sans-serif" font-size="11" lengthAdjust="spacingAndGlyphs" textLength="145" x="953" y="359.7104">StartView(StartController)</text><polygon fill="#4177AF" points="944,365.3047,940,371.3047,948,371.3047" style="stroke:#1963A0;stroke-width:1.0;"/><text fill="#000000" font-family="sans-serif" font-size="11" lengthAdjust="spacingAndGlyphs" textLength="82" x="953" y="372.5151">interact(): void</text><!--MD5=[85374d0a3ee4b3ef5b557089b06e5446]
class tictactoe.views.console.TokenView--><rect codeLine="67" fill="#FEFECE" filter="url(#f13zu0hsldvrbv)" height="86.4141" id="tictactoe.views.console.TokenView" style="stroke:#A80036;stroke-width:1.5;" width="132" x="335.5" y="134"/><ellipse cx="365.8" cy="150" fill="#ADD1B2" rx="11" ry="11" style="stroke:#A80036;stroke-width:1.0;"/><path d="M368.1438,145.6719 C367.2063,145.2344 366.6125,145.0938 365.7375,145.0938 C363.1125,145.0938 361.1125,147.1719 361.1125,149.8906 L361.1125,151.0156 C361.1125,153.5938 363.2219,155.4844 366.1125,155.4844 C367.3313,155.4844 368.4875,155.1875 369.2375,154.6406 C369.8156,154.2344 370.1438,153.7813 370.1438,153.3906 C370.1438,152.9375 369.7531,152.5469 369.2844,152.5469 C369.0656,152.5469 368.8625,152.625 368.675,152.8125 C368.2219,153.2969 368.2219,153.2969 368.0344,153.3906 C367.6125,153.6563 366.925,153.7813 366.1594,153.7813 C364.1125,153.7813 362.8156,152.6875 362.8156,150.9844 L362.8156,149.8906 C362.8156,148.1094 364.0656,146.7969 365.8,146.7969 C366.3781,146.7969 366.9875,146.9531 367.4563,147.2031 C367.9406,147.4844 368.1125,147.7031 368.2063,148.1094 C368.2688,148.5156 368.3,148.6406 368.4406,148.7656 C368.5813,148.9063 368.8156,149.0156 369.0344,149.0156 C369.3,149.0156 369.5656,148.875 369.7375,148.6563 C369.8469,148.5 369.8781,148.3125 369.8781,147.8906 L369.8781,146.4688 C369.8781,146.0313 369.8625,145.9063 369.7688,145.75 C369.6125,145.4844 369.3313,145.3438 369.0344,145.3438 C368.7375,145.3438 368.5344,145.4375 368.3156,145.75 L368.1438,145.6719 Z " fill="#000000"/><text fill="#000000" font-family="sans-serif" font-size="12" lengthAdjust="spacingAndGlyphs" textLength="66" x="383.2" y="154.1543">TokenView</text><line style="stroke:#A80036;stroke-width:1.5;" x1="336.5" x2="466.5" y1="166" y2="166"/><ellipse cx="346.5" cy="177" fill="none" rx="3" ry="3" style="stroke:#038048;stroke-width:1.0;"/><text fill="#000000" font-family="sans-serif" font-size="11" lengthAdjust="spacingAndGlyphs" text-decoration="underline" textLength="94" x="355.5" y="180.2104">SYMBOLS: char[]</text><line style="stroke:#A80036;stroke-width:1.5;" x1="336.5" x2="466.5" y1="186.8047" y2="186.8047"/><polygon fill="#4177AF" points="346.5,193.8047,342.5,199.8047,350.5,199.8047" style="stroke:#1963A0;stroke-width:1.0;"/><text fill="#000000" font-family="sans-serif" font-size="11" lengthAdjust="spacingAndGlyphs" textLength="106" x="355.5" y="201.0151">TokenView(Token)</text><polygon fill="#4177AF" points="346.5,206.6094,342.5,212.6094,350.5,212.6094" style="stroke:#1963A0;stroke-width:1.0;"/><text fill="#000000" font-family="sans-serif" font-size="11" lengthAdjust="spacingAndGlyphs" textLength="36" x="355.5" y="213.8198">write()</text><!--MD5=[62bf64bd19da87144fa184c41d76c76c]
class tictactoe.views.console.View--><rect codeLine="75" fill="#FEFECE" filter="url(#f13zu0hsldvrbv)" height="112.0234" id="tictactoe.views.console.View" style="stroke:#A80036;stroke-width:1.5;" width="338" x="651.5" y="121"/><ellipse cx="801.75" cy="137" fill="#ADD1B2" rx="11" ry="11" style="stroke:#A80036;stroke-width:1.0;"/><path d="M804.0938,132.6719 C803.1563,132.2344 802.5625,132.0938 801.6875,132.0938 C799.0625,132.0938 797.0625,134.1719 797.0625,136.8906 L797.0625,138.0156 C797.0625,140.5938 799.1719,142.4844 802.0625,142.4844 C803.2813,142.4844 804.4375,142.1875 805.1875,141.6406 C805.7656,141.2344 806.0938,140.7813 806.0938,140.3906 C806.0938,139.9375 805.7031,139.5469 805.2344,139.5469 C805.0156,139.5469 804.8125,139.625 804.625,139.8125 C804.1719,140.2969 804.1719,140.2969 803.9844,140.3906 C803.5625,140.6563 802.875,140.7813 802.1094,140.7813 C800.0625,140.7813 798.7656,139.6875 798.7656,137.9844 L798.7656,136.8906 C798.7656,135.1094 800.0156,133.7969 801.75,133.7969 C802.3281,133.7969 802.9375,133.9531 803.4063,134.2031 C803.8906,134.4844 804.0625,134.7031 804.1563,135.1094 C804.2188,135.5156 804.25,135.6406 804.3906,135.7656 C804.5313,135.9063 804.7656,136.0156 804.9844,136.0156 C805.25,136.0156 805.5156,135.875 805.6875,135.6563 C805.7969,135.5 805.8281,135.3125 805.8281,134.8906 L805.8281,133.4688 C805.8281,133.0313 805.8125,132.9063 805.7188,132.75 C805.5625,132.4844 805.2813,132.3438 804.9844,132.3438 C804.6875,132.3438 804.4844,132.4375 804.2656,132.75 L804.0938,132.6719 Z " fill="#000000"/><text fill="#000000" font-family="sans-serif" font-size="12" lengthAdjust="spacingAndGlyphs" textLength="29" x="822.25" y="141.1543">View</text><line style="stroke:#A80036;stroke-width:1.5;" x1="652.5" x2="988.5" y1="153" y2="153"/><line style="stroke:#A80036;stroke-width:1.5;" x1="652.5" x2="988.5" y1="161" y2="161"/><ellipse cx="662.5" cy="172" fill="#84BE84" rx="3" ry="3" style="stroke:#038048;stroke-width:1.0;"/><text fill="#000000" font-family="sans-serif" font-size="11" lengthAdjust="spacingAndGlyphs" textLength="312" x="671.5" y="175.2104">View(StartController, PlayController, ResumeController)</text><ellipse cx="662.5" cy="184.8047" fill="#84BE84" rx="3" ry="3" style="stroke:#038048;stroke-width:1.0;"/><text fill="#000000" font-family="sans-serif" font-size="11" lengthAdjust="spacingAndGlyphs" textLength="51" x="671.5" y="188.0151">interact()</text><polygon fill="#FFFF44" points="662.5,192.6094,666.5,196.6094,662.5,200.6094,658.5,196.6094" style="stroke:#B38D22;stroke-width:1.0;"/><text fill="#000000" font-family="sans-serif" font-size="11" lengthAdjust="spacingAndGlyphs" textLength="33" x="671.5" y="200.8198">start()</text><polygon fill="#FFFF44" points="662.5,205.4141,666.5,209.4141,662.5,213.4141,658.5,209.4141" style="stroke:#B38D22;stroke-width:1.0;"/><text fill="#000000" font-family="sans-serif" font-size="11" lengthAdjust="spacingAndGlyphs" textLength="32" x="671.5" y="213.6245">play()</text><polygon fill="#FFFF44" points="662.5,218.2188,666.5,222.2188,662.5,226.2188,658.5,222.2188" style="stroke:#B38D22;stroke-width:1.0;"/><text fill="#000000" font-family="sans-serif" font-size="11" lengthAdjust="spacingAndGlyphs" textLength="124" x="671.5" y="226.4292">isResumed(): boolean</text><!--MD5=[b8cfd8c4119a3b0a7a46bfc5fc780f85]
class Error--><rect codeLine="1" fill="#FEFECE" filter="url(#f13zu0hsldvrbv)" height="53.9375" id="Error" style="stroke:#A80036;stroke-width:1.5;" width="135" x="7" y="452"/><ellipse cx="22" cy="470.9688" fill="#ADD1B2" rx="11" ry="11" style="stroke:#A80036;stroke-width:1.0;"/><path d="M24.3438,466.6406 C23.4063,466.2031 22.8125,466.0625 21.9375,466.0625 C19.3125,466.0625 17.3125,468.1406 17.3125,470.8594 L17.3125,471.9844 C17.3125,474.5625 19.4219,476.4531 22.3125,476.4531 C23.5313,476.4531 24.6875,476.1563 25.4375,475.6094 C26.0156,475.2031 26.3438,474.75 26.3438,474.3594 C26.3438,473.9063 25.9531,473.5156 25.4844,473.5156 C25.2656,473.5156 25.0625,473.5938 24.875,473.7813 C24.4219,474.2656 24.4219,474.2656 24.2344,474.3594 C23.8125,474.625 23.125,474.75 22.3594,474.75 C20.3125,474.75 19.0156,473.6563 19.0156,471.9531 L19.0156,470.8594 C19.0156,469.0781 20.2656,467.7656 22,467.7656 C22.5781,467.7656 23.1875,467.9219 23.6563,468.1719 C24.1406,468.4531 24.3125,468.6719 24.4063,469.0781 C24.4688,469.4844 24.5,469.6094 24.6406,469.7344 C24.7813,469.875 25.0156,469.9844 25.2344,469.9844 C25.5,469.9844 25.7656,469.8438 25.9375,469.625 C26.0469,469.4688 26.0781,469.2813 26.0781,468.8594 L26.0781,467.4375 C26.0781,467 26.0625,466.875 25.9688,466.7188 C25.8125,466.4531 25.5313,466.3125 25.2344,466.3125 C24.9375,466.3125 24.7344,466.4063 24.5156,466.7188 L24.3438,466.6406 Z " fill="#000000"/><text fill="#000000" font-family="sans-serif" font-size="12" lengthAdjust="spacingAndGlyphs" textLength="103" x="36" y="468.1387">tictactoe.models.</text><text fill="#000000" font-family="sans-serif" font-size="12" lengthAdjust="spacingAndGlyphs" textLength="30" x="72.5" y="482.1074">Error</text><line style="stroke:#A80036;stroke-width:1.5;" x1="8" x2="141" y1="489.9375" y2="489.9375"/><line style="stroke:#A80036;stroke-width:1.5;" x1="8" x2="141" y1="497.9375" y2="497.9375"/><!--MD5=[8c7d7abc12e214c3cc12c9ab70edee11]
class Coordinate--><rect codeLine="2" fill="#FEFECE" filter="url(#f13zu0hsldvrbv)" height="53.9375" id="Coordinate" style="stroke:#A80036;stroke-width:1.5;" width="135" x="177" y="452"/><ellipse cx="192" cy="470.9688" fill="#ADD1B2" rx="11" ry="11" style="stroke:#A80036;stroke-width:1.0;"/><path d="M194.3438,466.6406 C193.4063,466.2031 192.8125,466.0625 191.9375,466.0625 C189.3125,466.0625 187.3125,468.1406 187.3125,470.8594 L187.3125,471.9844 C187.3125,474.5625 189.4219,476.4531 192.3125,476.4531 C193.5313,476.4531 194.6875,476.1563 195.4375,475.6094 C196.0156,475.2031 196.3438,474.75 196.3438,474.3594 C196.3438,473.9063 195.9531,473.5156 195.4844,473.5156 C195.2656,473.5156 195.0625,473.5938 194.875,473.7813 C194.4219,474.2656 194.4219,474.2656 194.2344,474.3594 C193.8125,474.625 193.125,474.75 192.3594,474.75 C190.3125,474.75 189.0156,473.6563 189.0156,471.9531 L189.0156,470.8594 C189.0156,469.0781 190.2656,467.7656 192,467.7656 C192.5781,467.7656 193.1875,467.9219 193.6563,468.1719 C194.1406,468.4531 194.3125,468.6719 194.4063,469.0781 C194.4688,469.4844 194.5,469.6094 194.6406,469.7344 C194.7813,469.875 195.0156,469.9844 195.2344,469.9844 C195.5,469.9844 195.7656,469.8438 195.9375,469.625 C196.0469,469.4688 196.0781,469.2813 196.0781,468.8594 L196.0781,467.4375 C196.0781,467 196.0625,466.875 195.9688,466.7188 C195.8125,466.4531 195.5313,466.3125 195.2344,466.3125 C194.9375,466.3125 194.7344,466.4063 194.5156,466.7188 L194.3438,466.6406 Z " fill="#000000"/><text fill="#000000" font-family="sans-serif" font-size="12" lengthAdjust="spacingAndGlyphs" textLength="103" x="206" y="468.1387">tictactoe.models.</text><text fill="#000000" font-family="sans-serif" font-size="12" lengthAdjust="spacingAndGlyphs" textLength="66" x="224.5" y="482.1074">Coordinate</text><line style="stroke:#A80036;stroke-width:1.5;" x1="178" x2="311" y1="489.9375" y2="489.9375"/><line style="stroke:#A80036;stroke-width:1.5;" x1="178" x2="311" y1="497.9375" y2="497.9375"/><!--MD5=[315b61b427ec618d6861d47eee00cca3]
class Console--><rect codeLine="3" fill="#FEFECE" filter="url(#f13zu0hsldvrbv)" height="53.9375" id="Console" style="stroke:#A80036;stroke-width:1.5;" width="130" x="1579.5" y="452"/><ellipse cx="1594.5" cy="470.9688" fill="#ADD1B2" rx="11" ry="11" style="stroke:#A80036;stroke-width:1.0;"/><path d="M1596.8438,466.6406 C1595.9063,466.2031 1595.3125,466.0625 1594.4375,466.0625 C1591.8125,466.0625 1589.8125,468.1406 1589.8125,470.8594 L1589.8125,471.9844 C1589.8125,474.5625 1591.9219,476.4531 1594.8125,476.4531 C1596.0313,476.4531 1597.1875,476.1563 1597.9375,475.6094 C1598.5156,475.2031 1598.8438,474.75 1598.8438,474.3594 C1598.8438,473.9063 1598.4531,473.5156 1597.9844,473.5156 C1597.7656,473.5156 1597.5625,473.5938 1597.375,473.7813 C1596.9219,474.2656 1596.9219,474.2656 1596.7344,474.3594 C1596.3125,474.625 1595.625,474.75 1594.8594,474.75 C1592.8125,474.75 1591.5156,473.6563 1591.5156,471.9531 L1591.5156,470.8594 C1591.5156,469.0781 1592.7656,467.7656 1594.5,467.7656 C1595.0781,467.7656 1595.6875,467.9219 1596.1563,468.1719 C1596.6406,468.4531 1596.8125,468.6719 1596.9063,469.0781 C1596.9688,469.4844 1597,469.6094 1597.1406,469.7344 C1597.2813,469.875 1597.5156,469.9844 1597.7344,469.9844 C1598,469.9844 1598.2656,469.8438 1598.4375,469.625 C1598.5469,469.4688 1598.5781,469.2813 1598.5781,468.8594 L1598.5781,467.4375 C1598.5781,467 1598.5625,466.875 1598.4688,466.7188 C1598.3125,466.4531 1598.0313,466.3125 1597.7344,466.3125 C1597.4375,466.3125 1597.2344,466.4063 1597.0156,466.7188 L1596.8438,466.6406 Z " fill="#000000"/><text fill="#000000" font-family="sans-serif" font-size="12" lengthAdjust="spacingAndGlyphs" textLength="98" x="1608.5" y="468.1387">usantatecla.utils.</text><text fill="#000000" font-family="sans-serif" font-size="12" lengthAdjust="spacingAndGlyphs" textLength="49" x="1633" y="482.1074">Console</text><line style="stroke:#A80036;stroke-width:1.5;" x1="1580.5" x2="1708.5" y1="489.9375" y2="489.9375"/><line style="stroke:#A80036;stroke-width:1.5;" x1="1580.5" x2="1708.5" y1="497.9375" y2="497.9375"/><!--MD5=[1d7ba1c7002d54515419844fbd155368]
class Controller--><rect codeLine="4" fill="#FEFECE" filter="url(#f13zu0hsldvrbv)" height="53.9375" id="Controller" style="stroke:#A80036;stroke-width:1.5;" width="155" x="1353" y="315.5"/><ellipse cx="1368" cy="334.4688" fill="#ADD1B2" rx="11" ry="11" style="stroke:#A80036;stroke-width:1.0;"/><path d="M1370.3438,330.1406 C1369.4063,329.7031 1368.8125,329.5625 1367.9375,329.5625 C1365.3125,329.5625 1363.3125,331.6406 1363.3125,334.3594 L1363.3125,335.4844 C1363.3125,338.0625 1365.4219,339.9531 1368.3125,339.9531 C1369.5313,339.9531 1370.6875,339.6563 1371.4375,339.1094 C1372.0156,338.7031 1372.3438,338.25 1372.3438,337.8594 C1372.3438,337.4063 1371.9531,337.0156 1371.4844,337.0156 C1371.2656,337.0156 1371.0625,337.0938 1370.875,337.2813 C1370.4219,337.7656 1370.4219,337.7656 1370.2344,337.8594 C1369.8125,338.125 1369.125,338.25 1368.3594,338.25 C1366.3125,338.25 1365.0156,337.1563 1365.0156,335.4531 L1365.0156,334.3594 C1365.0156,332.5781 1366.2656,331.2656 1368,331.2656 C1368.5781,331.2656 1369.1875,331.4219 1369.6563,331.6719 C1370.1406,331.9531 1370.3125,332.1719 1370.4063,332.5781 C1370.4688,332.9844 1370.5,333.1094 1370.6406,333.2344 C1370.7813,333.375 1371.0156,333.4844 1371.2344,333.4844 C1371.5,333.4844 1371.7656,333.3438 1371.9375,333.125 C1372.0469,332.9688 1372.0781,332.7813 1372.0781,332.3594 L1372.0781,330.9375 C1372.0781,330.5 1372.0625,330.375 1371.9688,330.2188 C1371.8125,329.9531 1371.5313,329.8125 1371.2344,329.8125 C1370.9375,329.8125 1370.7344,329.9063 1370.5156,330.2188 L1370.3438,330.1406 Z " fill="#000000"/><text fill="#000000" font-family="sans-serif" font-size="12" lengthAdjust="spacingAndGlyphs" textLength="123" x="1382" y="331.6387">tictactoe.controllers.</text><text fill="#000000" font-family="sans-serif" font-size="12" lengthAdjust="spacingAndGlyphs" textLength="59" x="1414" y="345.6074">Controller</text><line style="stroke:#A80036;stroke-width:1.5;" x1="1354" x2="1507" y1="353.4375" y2="353.4375"/><line style="stroke:#A80036;stroke-width:1.5;" x1="1354" x2="1507" y1="361.4375" y2="361.4375"/><!--MD5=[cc8600b868f8dfab2c8d497bce62f90a]
class PlayController--><rect codeLine="5" fill="#FEFECE" filter="url(#f13zu0hsldvrbv)" height="53.9375" id="PlayController" style="stroke:#A80036;stroke-width:1.5;" width="155" x="347" y="452"/><ellipse cx="362" cy="470.9688" fill="#ADD1B2" rx="11" ry="11" style="stroke:#A80036;stroke-width:1.0;"/><path d="M364.3438,466.6406 C363.4063,466.2031 362.8125,466.0625 361.9375,466.0625 C359.3125,466.0625 357.3125,468.1406 357.3125,470.8594 L357.3125,471.9844 C357.3125,474.5625 359.4219,476.4531 362.3125,476.4531 C363.5313,476.4531 364.6875,476.1563 365.4375,475.6094 C366.0156,475.2031 366.3438,474.75 366.3438,474.3594 C366.3438,473.9063 365.9531,473.5156 365.4844,473.5156 C365.2656,473.5156 365.0625,473.5938 364.875,473.7813 C364.4219,474.2656 364.4219,474.2656 364.2344,474.3594 C363.8125,474.625 363.125,474.75 362.3594,474.75 C360.3125,474.75 359.0156,473.6563 359.0156,471.9531 L359.0156,470.8594 C359.0156,469.0781 360.2656,467.7656 362,467.7656 C362.5781,467.7656 363.1875,467.9219 363.6563,468.1719 C364.1406,468.4531 364.3125,468.6719 364.4063,469.0781 C364.4688,469.4844 364.5,469.6094 364.6406,469.7344 C364.7813,469.875 365.0156,469.9844 365.2344,469.9844 C365.5,469.9844 365.7656,469.8438 365.9375,469.625 C366.0469,469.4688 366.0781,469.2813 366.0781,468.8594 L366.0781,467.4375 C366.0781,467 366.0625,466.875 365.9688,466.7188 C365.8125,466.4531 365.5313,466.3125 365.2344,466.3125 C364.9375,466.3125 364.7344,466.4063 364.5156,466.7188 L364.3438,466.6406 Z " fill="#000000"/><text fill="#000000" font-family="sans-serif" font-size="12" lengthAdjust="spacingAndGlyphs" textLength="123" x="376" y="468.1387">tictactoe.controllers.</text><text fill="#000000" font-family="sans-serif" font-size="12" lengthAdjust="spacingAndGlyphs" textLength="82" x="396.5" y="482.1074">PlayController</text><line style="stroke:#A80036;stroke-width:1.5;" x1="348" x2="501" y1="489.9375" y2="489.9375"/><line style="stroke:#A80036;stroke-width:1.5;" x1="348" x2="501" y1="497.9375" y2="497.9375"/><!--MD5=[1a47bbf44ccee225df9b18c5b6629853]
class ResumeController--><rect codeLine="6" fill="#FEFECE" filter="url(#f13zu0hsldvrbv)" height="53.9375" id="ResumeController" style="stroke:#A80036;stroke-width:1.5;" width="155" x="537" y="452"/><ellipse cx="552" cy="470.9688" fill="#ADD1B2" rx="11" ry="11" style="stroke:#A80036;stroke-width:1.0;"/><path d="M554.3438,466.6406 C553.4063,466.2031 552.8125,466.0625 551.9375,466.0625 C549.3125,466.0625 547.3125,468.1406 547.3125,470.8594 L547.3125,471.9844 C547.3125,474.5625 549.4219,476.4531 552.3125,476.4531 C553.5313,476.4531 554.6875,476.1563 555.4375,475.6094 C556.0156,475.2031 556.3438,474.75 556.3438,474.3594 C556.3438,473.9063 555.9531,473.5156 555.4844,473.5156 C555.2656,473.5156 555.0625,473.5938 554.875,473.7813 C554.4219,474.2656 554.4219,474.2656 554.2344,474.3594 C553.8125,474.625 553.125,474.75 552.3594,474.75 C550.3125,474.75 549.0156,473.6563 549.0156,471.9531 L549.0156,470.8594 C549.0156,469.0781 550.2656,467.7656 552,467.7656 C552.5781,467.7656 553.1875,467.9219 553.6563,468.1719 C554.1406,468.4531 554.3125,468.6719 554.4063,469.0781 C554.4688,469.4844 554.5,469.6094 554.6406,469.7344 C554.7813,469.875 555.0156,469.9844 555.2344,469.9844 C555.5,469.9844 555.7656,469.8438 555.9375,469.625 C556.0469,469.4688 556.0781,469.2813 556.0781,468.8594 L556.0781,467.4375 C556.0781,467 556.0625,466.875 555.9688,466.7188 C555.8125,466.4531 555.5313,466.3125 555.2344,466.3125 C554.9375,466.3125 554.7344,466.4063 554.5156,466.7188 L554.3438,466.6406 Z " fill="#000000"/><text fill="#000000" font-family="sans-serif" font-size="12" lengthAdjust="spacingAndGlyphs" textLength="123" x="566" y="468.1387">tictactoe.controllers.</text><text fill="#000000" font-family="sans-serif" font-size="12" lengthAdjust="spacingAndGlyphs" textLength="107" x="574" y="482.1074">ResumeController</text><line style="stroke:#A80036;stroke-width:1.5;" x1="538" x2="691" y1="489.9375" y2="489.9375"/><line style="stroke:#A80036;stroke-width:1.5;" x1="538" x2="691" y1="497.9375" y2="497.9375"/><!--MD5=[d93cf99d2b92276f27fe8dbf15140505]
class YesNoDialog--><rect codeLine="7" fill="#FEFECE" filter="url(#f13zu0hsldvrbv)" height="53.9375" id="YesNoDialog" style="stroke:#A80036;stroke-width:1.5;" width="130" x="727.5" y="452"/><ellipse cx="742.5" cy="470.9688" fill="#ADD1B2" rx="11" ry="11" style="stroke:#A80036;stroke-width:1.0;"/><path d="M744.8438,466.6406 C743.9063,466.2031 743.3125,466.0625 742.4375,466.0625 C739.8125,466.0625 737.8125,468.1406 737.8125,470.8594 L737.8125,471.9844 C737.8125,474.5625 739.9219,476.4531 742.8125,476.4531 C744.0313,476.4531 745.1875,476.1563 745.9375,475.6094 C746.5156,475.2031 746.8438,474.75 746.8438,474.3594 C746.8438,473.9063 746.4531,473.5156 745.9844,473.5156 C745.7656,473.5156 745.5625,473.5938 745.375,473.7813 C744.9219,474.2656 744.9219,474.2656 744.7344,474.3594 C744.3125,474.625 743.625,474.75 742.8594,474.75 C740.8125,474.75 739.5156,473.6563 739.5156,471.9531 L739.5156,470.8594 C739.5156,469.0781 740.7656,467.7656 742.5,467.7656 C743.0781,467.7656 743.6875,467.9219 744.1563,468.1719 C744.6406,468.4531 744.8125,468.6719 744.9063,469.0781 C744.9688,469.4844 745,469.6094 745.1406,469.7344 C745.2813,469.875 745.5156,469.9844 745.7344,469.9844 C746,469.9844 746.2656,469.8438 746.4375,469.625 C746.5469,469.4688 746.5781,469.2813 746.5781,468.8594 L746.5781,467.4375 C746.5781,467 746.5625,466.875 746.4688,466.7188 C746.3125,466.4531 746.0313,466.3125 745.7344,466.3125 C745.4375,466.3125 745.2344,466.4063 745.0156,466.7188 L744.8438,466.6406 Z " fill="#000000"/><text fill="#000000" font-family="sans-serif" font-size="12" lengthAdjust="spacingAndGlyphs" textLength="98" x="756.5" y="468.1387">usantatecla.utils.</text><text fill="#000000" font-family="sans-serif" font-size="12" lengthAdjust="spacingAndGlyphs" textLength="76" x="767.5" y="482.1074">YesNoDialog</text><line style="stroke:#A80036;stroke-width:1.5;" x1="728.5" x2="856.5" y1="489.9375" y2="489.9375"/><line style="stroke:#A80036;stroke-width:1.5;" x1="728.5" x2="856.5" y1="497.9375" y2="497.9375"/><!--MD5=[47c371471411cfedeee61b1a5bdaee47]
class StartController--><rect codeLine="8" fill="#FEFECE" filter="url(#f13zu0hsldvrbv)" height="53.9375" id="StartController" style="stroke:#A80036;stroke-width:1.5;" width="155" x="1053" y="452"/><ellipse cx="1068" cy="470.9688" fill="#ADD1B2" rx="11" ry="11" style="stroke:#A80036;stroke-width:1.0;"/><path d="M1070.3438,466.6406 C1069.4063,466.2031 1068.8125,466.0625 1067.9375,466.0625 C1065.3125,466.0625 1063.3125,468.1406 1063.3125,470.8594 L1063.3125,471.9844 C1063.3125,474.5625 1065.4219,476.4531 1068.3125,476.4531 C1069.5313,476.4531 1070.6875,476.1563 1071.4375,475.6094 C1072.0156,475.2031 1072.3438,474.75 1072.3438,474.3594 C1072.3438,473.9063 1071.9531,473.5156 1071.4844,473.5156 C1071.2656,473.5156 1071.0625,473.5938 1070.875,473.7813 C1070.4219,474.2656 1070.4219,474.2656 1070.2344,474.3594 C1069.8125,474.625 1069.125,474.75 1068.3594,474.75 C1066.3125,474.75 1065.0156,473.6563 1065.0156,471.9531 L1065.0156,470.8594 C1065.0156,469.0781 1066.2656,467.7656 1068,467.7656 C1068.5781,467.7656 1069.1875,467.9219 1069.6563,468.1719 C1070.1406,468.4531 1070.3125,468.6719 1070.4063,469.0781 C1070.4688,469.4844 1070.5,469.6094 1070.6406,469.7344 C1070.7813,469.875 1071.0156,469.9844 1071.2344,469.9844 C1071.5,469.9844 1071.7656,469.8438 1071.9375,469.625 C1072.0469,469.4688 1072.0781,469.2813 1072.0781,468.8594 L1072.0781,467.4375 C1072.0781,467 1072.0625,466.875 1071.9688,466.7188 C1071.8125,466.4531 1071.5313,466.3125 1071.2344,466.3125 C1070.9375,466.3125 1070.7344,466.4063 1070.5156,466.7188 L1070.3438,466.6406 Z " fill="#000000"/><text fill="#000000" font-family="sans-serif" font-size="12" lengthAdjust="spacingAndGlyphs" textLength="123" x="1082" y="468.1387">tictactoe.controllers.</text><text fill="#000000" font-family="sans-serif" font-size="12" lengthAdjust="spacingAndGlyphs" textLength="87" x="1100" y="482.1074">StartController</text><line style="stroke:#A80036;stroke-width:1.5;" x1="1054" x2="1207" y1="489.9375" y2="489.9375"/><line style="stroke:#A80036;stroke-width:1.5;" x1="1054" x2="1207" y1="497.9375" y2="497.9375"/><!--MD5=[58767b3ac92ed88fc68bd4b9dc66dad3]
class LimitedIntDialog--><rect codeLine="9" fill="#FEFECE" filter="url(#f13zu0hsldvrbv)" height="53.9375" id="LimitedIntDialog" style="stroke:#A80036;stroke-width:1.5;" width="130" x="1243.5" y="452"/><ellipse cx="1258.5" cy="470.9688" fill="#ADD1B2" rx="11" ry="11" style="stroke:#A80036;stroke-width:1.0;"/><path d="M1260.8438,466.6406 C1259.9063,466.2031 1259.3125,466.0625 1258.4375,466.0625 C1255.8125,466.0625 1253.8125,468.1406 1253.8125,470.8594 L1253.8125,471.9844 C1253.8125,474.5625 1255.9219,476.4531 1258.8125,476.4531 C1260.0313,476.4531 1261.1875,476.1563 1261.9375,475.6094 C1262.5156,475.2031 1262.8438,474.75 1262.8438,474.3594 C1262.8438,473.9063 1262.4531,473.5156 1261.9844,473.5156 C1261.7656,473.5156 1261.5625,473.5938 1261.375,473.7813 C1260.9219,474.2656 1260.9219,474.2656 1260.7344,474.3594 C1260.3125,474.625 1259.625,474.75 1258.8594,474.75 C1256.8125,474.75 1255.5156,473.6563 1255.5156,471.9531 L1255.5156,470.8594 C1255.5156,469.0781 1256.7656,467.7656 1258.5,467.7656 C1259.0781,467.7656 1259.6875,467.9219 1260.1563,468.1719 C1260.6406,468.4531 1260.8125,468.6719 1260.9063,469.0781 C1260.9688,469.4844 1261,469.6094 1261.1406,469.7344 C1261.2813,469.875 1261.5156,469.9844 1261.7344,469.9844 C1262,469.9844 1262.2656,469.8438 1262.4375,469.625 C1262.5469,469.4688 1262.5781,469.2813 1262.5781,468.8594 L1262.5781,467.4375 C1262.5781,467 1262.5625,466.875 1262.4688,466.7188 C1262.3125,466.4531 1262.0313,466.3125 1261.7344,466.3125 C1261.4375,466.3125 1261.2344,466.4063 1261.0156,466.7188 L1260.8438,466.6406 Z " fill="#000000"/><text fill="#000000" font-family="sans-serif" font-size="12" lengthAdjust="spacingAndGlyphs" textLength="98" x="1272.5" y="468.1387">usantatecla.utils.</text><text fill="#000000" font-family="sans-serif" font-size="12" lengthAdjust="spacingAndGlyphs" textLength="95" x="1274" y="482.1074">LimitedIntDialog</text><line style="stroke:#A80036;stroke-width:1.5;" x1="1244.5" x2="1372.5" y1="489.9375" y2="489.9375"/><line style="stroke:#A80036;stroke-width:1.5;" x1="1244.5" x2="1372.5" y1="497.9375" y2="497.9375"/><!--MD5=[d8c8cfd5ca149094f5b67f9f607a5ec7]
class Token--><rect codeLine="10" fill="#FEFECE" filter="url(#f13zu0hsldvrbv)" height="53.9375" id="Token" style="stroke:#A80036;stroke-width:1.5;" width="135" x="1409" y="452"/><ellipse cx="1424" cy="470.9688" fill="#ADD1B2" rx="11" ry="11" style="stroke:#A80036;stroke-width:1.0;"/><path d="M1426.3438,466.6406 C1425.4063,466.2031 1424.8125,466.0625 1423.9375,466.0625 C1421.3125,466.0625 1419.3125,468.1406 1419.3125,470.8594 L1419.3125,471.9844 C1419.3125,474.5625 1421.4219,476.4531 1424.3125,476.4531 C1425.5313,476.4531 1426.6875,476.1563 1427.4375,475.6094 C1428.0156,475.2031 1428.3438,474.75 1428.3438,474.3594 C1428.3438,473.9063 1427.9531,473.5156 1427.4844,473.5156 C1427.2656,473.5156 1427.0625,473.5938 1426.875,473.7813 C1426.4219,474.2656 1426.4219,474.2656 1426.2344,474.3594 C1425.8125,474.625 1425.125,474.75 1424.3594,474.75 C1422.3125,474.75 1421.0156,473.6563 1421.0156,471.9531 L1421.0156,470.8594 C1421.0156,469.0781 1422.2656,467.7656 1424,467.7656 C1424.5781,467.7656 1425.1875,467.9219 1425.6563,468.1719 C1426.1406,468.4531 1426.3125,468.6719 1426.4063,469.0781 C1426.4688,469.4844 1426.5,469.6094 1426.6406,469.7344 C1426.7813,469.875 1427.0156,469.9844 1427.2344,469.9844 C1427.5,469.9844 1427.7656,469.8438 1427.9375,469.625 C1428.0469,469.4688 1428.0781,469.2813 1428.0781,468.8594 L1428.0781,467.4375 C1428.0781,467 1428.0625,466.875 1427.9688,466.7188 C1427.8125,466.4531 1427.5313,466.3125 1427.2344,466.3125 C1426.9375,466.3125 1426.7344,466.4063 1426.5156,466.7188 L1426.3438,466.6406 Z " fill="#000000"/><text fill="#000000" font-family="sans-serif" font-size="12" lengthAdjust="spacingAndGlyphs" textLength="103" x="1438" y="468.1387">tictactoe.models.</text><text fill="#000000" font-family="sans-serif" font-size="12" lengthAdjust="spacingAndGlyphs" textLength="37" x="1471" y="482.1074">Token</text><line style="stroke:#A80036;stroke-width:1.5;" x1="1410" x2="1543" y1="489.9375" y2="489.9375"/><line style="stroke:#A80036;stroke-width:1.5;" x1="1410" x2="1543" y1="497.9375" y2="497.9375"/><!--MD5=[bea5b0d46523efab5ea1c1d339f396f0]
class Message--><rect codeLine="11" fill="#FEFECE" filter="url(#f13zu0hsldvrbv)" height="53.9375" id="Message" style="stroke:#A80036;stroke-width:1.5;" width="125" x="893" y="452"/><ellipse cx="908" cy="470.9688" fill="#ADD1B2" rx="11" ry="11" style="stroke:#A80036;stroke-width:1.0;"/><path d="M910.3438,466.6406 C909.4063,466.2031 908.8125,466.0625 907.9375,466.0625 C905.3125,466.0625 903.3125,468.1406 903.3125,470.8594 L903.3125,471.9844 C903.3125,474.5625 905.4219,476.4531 908.3125,476.4531 C909.5313,476.4531 910.6875,476.1563 911.4375,475.6094 C912.0156,475.2031 912.3438,474.75 912.3438,474.3594 C912.3438,473.9063 911.9531,473.5156 911.4844,473.5156 C911.2656,473.5156 911.0625,473.5938 910.875,473.7813 C910.4219,474.2656 910.4219,474.2656 910.2344,474.3594 C909.8125,474.625 909.125,474.75 908.3594,474.75 C906.3125,474.75 905.0156,473.6563 905.0156,471.9531 L905.0156,470.8594 C905.0156,469.0781 906.2656,467.7656 908,467.7656 C908.5781,467.7656 909.1875,467.9219 909.6563,468.1719 C910.1406,468.4531 910.3125,468.6719 910.4063,469.0781 C910.4688,469.4844 910.5,469.6094 910.6406,469.7344 C910.7813,469.875 911.0156,469.9844 911.2344,469.9844 C911.5,469.9844 911.7656,469.8438 911.9375,469.625 C912.0469,469.4688 912.0781,469.2813 912.0781,468.8594 L912.0781,467.4375 C912.0781,467 912.0625,466.875 911.9688,466.7188 C911.8125,466.4531 911.5313,466.3125 911.2344,466.3125 C910.9375,466.3125 910.7344,466.4063 910.5156,466.7188 L910.3438,466.6406 Z " fill="#000000"/><text fill="#000000" font-family="sans-serif" font-size="12" lengthAdjust="spacingAndGlyphs" textLength="93" x="922" y="468.1387">tictactoe.views.</text><text fill="#000000" font-family="sans-serif" font-size="12" lengthAdjust="spacingAndGlyphs" textLength="55" x="941" y="482.1074">Message</text><line style="stroke:#A80036;stroke-width:1.5;" x1="894" x2="1017" y1="489.9375" y2="489.9375"/><line style="stroke:#A80036;stroke-width:1.5;" x1="894" x2="1017" y1="497.9375" y2="497.9375"/><!--MD5=[86cec68673cafdfc1c204348d5b2cca6]
class ErrorView--><rect codeLine="12" fill="#FEFECE" filter="url(#f13zu0hsldvrbv)" height="53.9375" id="ErrorView" style="stroke:#A80036;stroke-width:1.5;" width="125" x="497" y="7"/><ellipse cx="512" cy="25.9688" fill="#ADD1B2" rx="11" ry="11" style="stroke:#A80036;stroke-width:1.0;"/><path d="M514.3438,21.6406 C513.4063,21.2031 512.8125,21.0625 511.9375,21.0625 C509.3125,21.0625 507.3125,23.1406 507.3125,25.8594 L507.3125,26.9844 C507.3125,29.5625 509.4219,31.4531 512.3125,31.4531 C513.5313,31.4531 514.6875,31.1563 515.4375,30.6094 C516.0156,30.2031 516.3438,29.75 516.3438,29.3594 C516.3438,28.9063 515.9531,28.5156 515.4844,28.5156 C515.2656,28.5156 515.0625,28.5938 514.875,28.7813 C514.4219,29.2656 514.4219,29.2656 514.2344,29.3594 C513.8125,29.625 513.125,29.75 512.3594,29.75 C510.3125,29.75 509.0156,28.6563 509.0156,26.9531 L509.0156,25.8594 C509.0156,24.0781 510.2656,22.7656 512,22.7656 C512.5781,22.7656 513.1875,22.9219 513.6563,23.1719 C514.1406,23.4531 514.3125,23.6719 514.4063,24.0781 C514.4688,24.4844 514.5,24.6094 514.6406,24.7344 C514.7813,24.875 515.0156,24.9844 515.2344,24.9844 C515.5,24.9844 515.7656,24.8438 515.9375,24.625 C516.0469,24.4688 516.0781,24.2813 516.0781,23.8594 L516.0781,22.4375 C516.0781,22 516.0625,21.875 515.9688,21.7188 C515.8125,21.4531 515.5313,21.3125 515.2344,21.3125 C514.9375,21.3125 514.7344,21.4063 514.5156,21.7188 L514.3438,21.6406 Z " fill="#000000"/><text fill="#000000" font-family="sans-serif" font-size="12" lengthAdjust="spacingAndGlyphs" textLength="93" x="526" y="23.1387">tictactoe.views.</text><text fill="#000000" font-family="sans-serif" font-size="12" lengthAdjust="spacingAndGlyphs" textLength="59" x="543" y="37.1074">ErrorView</text><line style="stroke:#A80036;stroke-width:1.5;" x1="498" x2="621" y1="44.9375" y2="44.9375"/><line style="stroke:#A80036;stroke-width:1.5;" x1="498" x2="621" y1="52.9375" y2="52.9375"/><!--MD5=[a06a410d0f6c1be87ea9d2d5c8f79243]
link tictactoe.views.console.CoordinateView to Console--><path codeLine="18" d="M262.54,207.525 C279.02,217.354 298.447,227.253 317.5,233 C489.03,284.739 973.866,191.492 1121.5,293 C1171.3,327.243 1130.03,381.274 1179.5,416 C1249.29,464.9899 1477.91,435.1635 1561.5,452 C1565.65,452.8358 1569.89,453.8003 1574.14,454.8553 " fill="none" id="tictactoe.views.console.CoordinateView-to-Console" style="stroke:#A80036;stroke-width:1.0;stroke-dasharray:7.0,7.0;"/><polygon fill="#A80036" points="1579.14,456.133,1571.4164,450.0219,1574.2969,454.8904,1569.4283,457.7709,1579.14,456.133" style="stroke:#A80036;stroke-width:1.0;"/><!--MD5=[3ea4caf7e48eaae8f655dde5cd3263f2]
link tictactoe.views.console.CoordinateView to Error--><path codeLine="19" d="M205.2,207.586 C177.68,264.523 117.598,388.832 89.5205,446.9232 " fill="none" id="tictactoe.views.console.CoordinateView-to-Error" style="stroke:#A80036;stroke-width:1.0;stroke-dasharray:7.0,7.0;"/><polygon fill="#A80036" points="87.2298,451.6625,94.7477,445.3001,89.4057,447.1608,87.545,441.8187,87.2298,451.6625" style="stroke:#A80036;stroke-width:1.0;"/><!--MD5=[6e79601aef612c06e9891b4875f898f3]
link tictactoe.views.console.CoordinateView to Coordinate--><path codeLine="20" d="M221.966,207.586 C226.701,264.409 237.028,388.333 241.881,446.5724 " fill="none" id="tictactoe.views.console.CoordinateView-to-Coordinate" style="stroke:#A80036;stroke-width:1.0;stroke-dasharray:7.0,7.0;"/><polygon fill="#A80036" points="242.305,451.6625,245.5437,442.3614,241.8897,446.6798,237.5713,443.0258,242.305,451.6625" style="stroke:#A80036;stroke-width:1.0;"/><!--MD5=[5e3154eeb00ff673e3597b7a5033dd40]
link tictactoe.views.console.ErrorView to Error--><path codeLine="26" d="M513.898,214.208 C504.46,220.902 494.377,227.504 484.5,233 C422.118,267.713 398.16,258.792 335.5,293 C312.543,305.533 182.065,399.781 114.722,448.7075 " fill="none" id="tictactoe.views.console.ErrorView-to-Error" style="stroke:#A80036;stroke-width:1.0;stroke-dasharray:7.0,7.0;"/><polygon fill="#A80036" points="110.379,451.8633,120.0114,449.8096,114.4242,448.9245,115.3093,443.3373,110.379,451.8633" style="stroke:#A80036;stroke-width:1.0;"/><!--MD5=[8ec17c1eeb1fabb729f4f45734e470f6]
link tictactoe.views.console.ErrorView to Console--><path codeLine="27" d="M600.219,214.179 C610.467,221.552 621.877,228.44 633.5,233 C862.405,322.815 956.492,198.492 1183.5,293 C1263.73,326.401 1256.12,380.632 1335.5,416 C1428.41,457.3945 1462.49,428.7362 1561.5,452 C1565.62,452.9681 1569.83,454.036 1574.07,455.1701 " fill="none" id="tictactoe.views.console.ErrorView-to-Console" style="stroke:#A80036;stroke-width:1.0;stroke-dasharray:7.0,7.0;"/><polygon fill="#A80036" points="1579.05,456.5299,1571.4182,450.3045,1574.2259,455.2154,1569.315,458.0231,1579.05,456.5299" style="stroke:#A80036;stroke-width:1.0;"/><!--MD5=[09df14cf147ebf3fa601d40955ce3c27]
reverse link ErrorView to tictactoe.views.console.ErrorView--><path codeLine="28" d="M559.5,81.201 C559.5,100.25 559.5,121.995 559.5,139.851 " fill="none" id="ErrorView-backto-tictactoe.views.console.ErrorView" style="stroke:#A80036;stroke-width:1.0;"/><polygon fill="none" points="552.5,81.191,559.5,61.191,566.5,81.191,552.5,81.191" style="stroke:#A80036;stroke-width:1.0;"/><!--MD5=[cd0d4672137ef597b8c17bafce16f393]
link tictactoe.views.console.GameView to Controller--><path codeLine="35" d="M1184.0826,219.4105 C1184.0826,219.4105 1314.54,284.047 1366.18,309.631 " fill="none" id="tictactoe.views.console.GameView-Controller" style="stroke:#A80036;stroke-width:1.0;"/><polygon fill="#A80036" points="1377.84,315.409,1371.5514,307.8292,1373.3598,313.1892,1367.9997,314.9976,1377.84,315.409" style="stroke:#A80036;stroke-width:1.0;"/><line style="stroke:#A80036;stroke-width:1.0;" x1="1373.3598" x2="1366.19" y1="313.1892" y2="309.637"/><polygon fill="#A80036" points="1173.33,214.083,1176.9305,220.3309,1184.0826,219.4105,1180.4821,213.1626,1173.33,214.083" style="stroke:#A80036;stroke-width:1.0;"/><!--MD5=[0e43d69a696b22bc5281d1cc9667df5e]
link tictactoe.views.console.GameView to Coordinate--><path codeLine="36" d="M1047.71,214.191 C1034.73,221.563 1020.53,228.448 1006.5,233 C747.804,316.953 637.602,165.241 397.5,293 C331.646,328.041 283.089,404.511 259.832,447.3539 " fill="none" id="tictactoe.views.console.GameView-to-Coordinate" style="stroke:#A80036;stroke-width:1.0;stroke-dasharray:7.0,7.0;"/><polygon fill="#A80036" points="257.391,451.8995,265.1728,445.8626,259.7564,447.4944,258.1246,442.078,257.391,451.8995" style="stroke:#A80036;stroke-width:1.0;"/><!--MD5=[08b09d3eac180f3c67266adaed935b89]
link tictactoe.views.console.GameView to Message--><path codeLine="37" d="M1117.05,214.349 C1137.15,264.486 1163.48,355.512 1121.5,416 C1118.39,420.4808 1067.77,439.0276 1023.24,454.6789 " fill="none" id="tictactoe.views.console.GameView-to-Message" style="stroke:#A80036;stroke-width:1.0;stroke-dasharray:7.0,7.0;"/><polygon fill="#A80036" points="1018.4,456.3774,1028.217,457.1689,1023.1175,454.7204,1025.5659,449.6209,1018.4,456.3774" style="stroke:#A80036;stroke-width:1.0;"/><!--MD5=[a10986738d33eef60265d57fa5080b93]
link tictactoe.views.console.PlayView to PlayController--><path codeLine="46" d="M464.8419,402.6371 C464.8419,402.6371 450.865,428.7492 444.789,440.0984 " fill="none" id="tictactoe.views.console.PlayView-PlayController" style="stroke:#A80036;stroke-width:1.0;"/><polygon fill="#A80036" points="438.532,451.7877,446.306,445.7408,440.8917,447.3796,439.253,441.9653,438.532,451.7877" style="stroke:#A80036;stroke-width:1.0;"/><line style="stroke:#A80036;stroke-width:1.0;" x1="440.8917" x2="444.6675" y1="447.3796" y2="440.3266"/><polygon fill="#A80036" points="470.506,392.058,464.1476,395.4595,464.8419,402.6371,471.2003,399.2356,470.506,392.058" style="stroke:#A80036;stroke-width:1.0;"/><!--MD5=[3b49bdf6c7f6ce83eed251a9af28dbf3]
link tictactoe.views.console.PlayView to Coordinate--><path codeLine="47" d="M427.276,392.187 C414.306,400.545 400.678,408.8346 387.5,416 C364.768,428.3605 339.065,440.1376 315.784,450.0425 " fill="none" id="tictactoe.views.console.PlayView-to-Coordinate" style="stroke:#A80036;stroke-width:1.0;stroke-dasharray:7.0,7.0;"/><polygon fill="#A80036" points="311.161,451.9981,321.0083,452.1746,315.7657,450.0496,317.8907,444.807,311.161,451.9981" style="stroke:#A80036;stroke-width:1.0;"/><!--MD5=[f335b251d0d5a458b635239e43cc0bb5]
link tictactoe.views.console.PlayView to Message--><path codeLine="48" d="M578.294,382.183 C606.678,394.416 639.032,407.0625 669.5,416 C758.265,442.0387 784.695,429.812 874.5,452 C878.922,453.0926 883.455,454.2994 888.007,455.5769 " fill="none" id="tictactoe.views.console.PlayView-to-Message" style="stroke:#A80036;stroke-width:1.0;stroke-dasharray:7.0,7.0;"/><polygon fill="#A80036" points="892.95,456.9889,885.396,450.6693,888.1426,455.6147,883.1972,458.3612,892.95,456.9889" style="stroke:#A80036;stroke-width:1.0;"/><!--MD5=[b8eae5493de689ae966fe038f1428b07]
link tictactoe.views.console.PlayView to Error--><path codeLine="49" d="M414.6,379.656 C384.176,392.242 349.125,405.759 316.5,416 C248.197,437.4396 228.662,433.5182 159.5,452 C155.428,453.0881 151.257,454.24 147.056,455.4297 " fill="none" id="tictactoe.views.console.PlayView-to-Error" style="stroke:#A80036;stroke-width:1.0;stroke-dasharray:7.0,7.0;"/><polygon fill="#A80036" points="142.113,456.842,151.8658,458.2143,146.9204,455.4678,149.667,450.5224,142.113,456.842" style="stroke:#A80036;stroke-width:1.0;"/><!--MD5=[248c182d20997509763909b55503e1c8]
link tictactoe.views.console.ResumeView to ResumeController--><path codeLine="55" d="M735.225,386.7786 C735.225,386.7786 682.378,426.7105 659.736,443.8188 " fill="none" id="tictactoe.views.console.ResumeView-ResumeController" style="stroke:#A80036;stroke-width:1.0;"/><polygon fill="#A80036" points="649.063,451.8839,658.6551,449.6496,653.0522,448.8696,653.8322,443.2668,649.063,451.8839" style="stroke:#A80036;stroke-width:1.0;"/><line style="stroke:#A80036;stroke-width:1.0;" x1="653.0522" x2="659.435" y1="448.8696" y2="444.0466"/><polygon fill="#A80036" points="744.799,379.544,737.6005,379.97,735.225,386.7786,742.4235,386.3526,744.799,379.544" style="stroke:#A80036;stroke-width:1.0;"/><!--MD5=[45d6b98411685f94cdacdaac3bc1e164]
link tictactoe.views.console.ResumeView to Message--><path codeLine="56" d="M836.181,379.544 C862.408,401.185 895.35,428.3668 919.972,448.6839 " fill="none" id="tictactoe.views.console.ResumeView-to-Message" style="stroke:#A80036;stroke-width:1.0;stroke-dasharray:7.0,7.0;"/><polygon fill="#A80036" points="923.85,451.8839,919.4528,443.0711,919.993,448.7021,914.362,449.2423,923.85,451.8839" style="stroke:#A80036;stroke-width:1.0;"/><!--MD5=[8fe1c1d6283f66daa4ac51944081ccb1]
link tictactoe.views.console.ResumeView to YesNoDialog--><path codeLine="57" d="M792.5,379.544 C792.5,400.401 792.5,426.4049 792.5,446.4497 " fill="none" id="tictactoe.views.console.ResumeView-to-YesNoDialog" style="stroke:#A80036;stroke-width:1.0;stroke-dasharray:7.0,7.0;"/><polygon fill="#A80036" points="792.5,451.6727,796.5,442.6727,792.5,446.6727,788.5,442.6727,792.5,451.6727" style="stroke:#A80036;stroke-width:1.0;"/><!--MD5=[05cc99d857866a96ee1f197cb8d1830a]
link tictactoe.views.console.StartView to StartController--><path codeLine="63" d="M1056.1907,388.764 C1056.1907,388.764 1086.92,425.6668 1100.23,441.65 " fill="none" id="tictactoe.views.console.StartView-StartController" style="stroke:#A80036;stroke-width:1.0;"/><polygon fill="#A80036" points="1108.58,451.6727,1105.8927,442.1976,1105.3797,447.8311,1099.7461,447.3181,1108.58,451.6727" style="stroke:#A80036;stroke-width:1.0;"/><line style="stroke:#A80036;stroke-width:1.0;" x1="1105.3797" x2="1100.255" y1="447.8311" y2="441.6828"/><polygon fill="#A80036" points="1048.51,379.544,1049.277,386.7142,1056.1907,388.764,1055.4236,381.5938,1048.51,379.544" style="stroke:#A80036;stroke-width:1.0;"/><!--MD5=[cbe56104a70ea1577228555875c75924]
link tictactoe.views.console.StartView to Message--><path codeLine="64" d="M1001.617,379.544 C991.764,400.579 979.46,426.8479 970.039,446.9602 " fill="none" id="tictactoe.views.console.StartView-to-Message" style="stroke:#A80036;stroke-width:1.0;stroke-dasharray:7.0,7.0;"/><polygon fill="#A80036" points="967.832,451.6727,975.2723,445.2196,969.9532,447.1449,968.0279,441.8258,967.832,451.6727" style="stroke:#A80036;stroke-width:1.0;"/><!--MD5=[f18569398a34687a26f0429a50bef928]
link tictactoe.views.console.StartView to LimitedIntDialog--><path codeLine="65" d="M1069.06,379.516 C1088.07,392.087 1110.23,405.631 1131.5,416 C1150.9,425.4619 1197.7,441.7576 1238.3,455.2683 " fill="none" id="tictactoe.views.console.StartView-to-LimitedIntDialog" style="stroke:#A80036;stroke-width:1.0;stroke-dasharray:7.0,7.0;"/><polygon fill="#A80036" points="1243.22,456.9015,1235.9517,450.2553,1238.4778,455.3168,1233.4162,457.8428,1243.22,456.9015" style="stroke:#A80036;stroke-width:1.0;"/><!--MD5=[6ea791314a7012eef494e5b69e119c48]
link tictactoe.views.console.StartView to Token--><path codeLine="72" d="M1074.7028,386.289 C1074.7028,386.289 1112.22,408.8745 1131.5,416 C1240.92,456.4414 1277.58,426.8589 1391.5,452 C1392.89,452.3076 1394.3,452.627 1395.71,452.9568 " fill="none" id="tictactoe.views.console.StartView-Token" style="stroke:#A80036;stroke-width:1.0;"/><polygon fill="#A80036" points="1408.55,456.174,1400.7909,450.108,1403.6997,454.9597,1398.848,457.8685,1408.55,456.174" style="stroke:#A80036;stroke-width:1.0;"/><line style="stroke:#A80036;stroke-width:1.0;" x1="1403.6997" x2="1395.945" y1="454.9597" y2="453.0154"/><polygon fill="#A80036" points="1064.73,379.615,1067.4917,386.2763,1074.7028,386.289,1071.9411,379.6278,1064.73,379.615" style="stroke:#A80036;stroke-width:1.0;"/><!--MD5=[e5fc69a5d7b9edfb586c1b6276c53e05]
link tictactoe.views.console.StartView to Console--><path codeLine="73" d="M1063.42,379.5 C1083.16,393.353 1107.33,407.8023 1131.5,416 C1313.12,477.5974 1373.3,415.1127 1561.5,452 C1565.65,452.8141 1569.89,453.7617 1574.15,454.8038 " fill="none" id="tictactoe.views.console.StartView-to-Console" style="stroke:#A80036;stroke-width:1.0;stroke-dasharray:7.0,7.0;"/><polygon fill="#A80036" points="1579.15,456.0681,1571.4086,449.9796,1574.3032,454.8397,1569.4431,457.7344,1579.15,456.0681" style="stroke:#A80036;stroke-width:1.0;"/><!--MD5=[e33ddbb73f4633037967697537dd6d15]
link tictactoe.views.console.View to tictactoe.views.console.StartView--><path codeLine="82" d="M896.5113,240.7665 C896.5113,240.7665 943.927,279.921 964.577,296.972 " fill="none" id="tictactoe.views.console.View-tictactoe.views.console.StartView" style="stroke:#A80036;stroke-width:1.0;"/><polygon fill="#A80036" points="974.734,305.36,970.3409,296.5452,970.8785,302.1765,965.2472,302.714,974.734,305.36" style="stroke:#A80036;stroke-width:1.0;"/><line style="stroke:#A80036;stroke-width:1.0;" x1="970.8785" x2="964.71" y1="302.1765" y2="297.0825"/><polygon fill="#A80036" points="887.258,233.126,889.3378,240.0307,896.5113,240.7665,894.4315,233.8618,887.258,233.126" style="stroke:#A80036;stroke-width:1.0;"/><!--MD5=[22151b8577f68478464723ad5671195d]
link tictactoe.views.console.View to tictactoe.views.console.PlayView--><path codeLine="83" d="M700.5467,238.5321 C700.5467,238.5321 624.109,277.105 589.982,294.326 " fill="none" id="tictactoe.views.console.View-tictactoe.views.console.PlayView" style="stroke:#A80036;stroke-width:1.0;"/><polygon fill="#A80036" points="578.131,300.307,587.968,299.824,582.595,298.0547,584.3643,292.6816,578.131,300.307" style="stroke:#A80036;stroke-width:1.0;"/><line style="stroke:#A80036;stroke-width:1.0;" x1="582.595" x2="589.7365" y1="298.0547" y2="294.45"/><polygon fill="#A80036" points="711.26,233.126,704.1013,232.258,700.5467,238.5321,707.7054,239.4001,711.26,233.126" style="stroke:#A80036;stroke-width:1.0;"/><!--MD5=[efa28b0e883dc8aee53441ffaa59c110]
link tictactoe.views.console.View to tictactoe.views.console.ResumeView--><path codeLine="84" d="M808.9946,245.1818 C808.9946,245.1818 803.435,277.645 800.976,292.004 " fill="none" id="tictactoe.views.console.View-tictactoe.views.console.ResumeView" style="stroke:#A80036;stroke-width:1.0;"/><polygon fill="#A80036" points="798.714,305.214,804.1758,297.0183,799.558,300.2857,796.2906,295.6679,798.714,305.214" style="stroke:#A80036;stroke-width:1.0;"/><line style="stroke:#A80036;stroke-width:1.0;" x1="799.558" x2="800.9085" y1="300.2857" y2="292.401"/><polygon fill="#A80036" points="811.02,233.354,806.0647,238.5928,808.9946,245.1818,813.9499,239.943,811.02,233.354" style="stroke:#A80036;stroke-width:1.0;"/><!--MD5=[ce62a1ab575d7e6685f496d77fc537d0]
@startuml
class Error as "tictactoe.models.\nError" {}
class Coordinate as "tictactoe.models.\nCoordinate" {}
class Console as "usantatecla.utils.\nConsole" {}
class Controller as "tictactoe.controllers.\nController" {}
class PlayController as "tictactoe.controllers.\nPlayController" {}
class ResumeController as "tictactoe.controllers.\nResumeController" {}
class YesNoDialog as "usantatecla.utils.\nYesNoDialog" {}
class StartController as "tictactoe.controllers.\nStartController" {}
class LimitedIntDialog as "usantatecla.utils.\nLimitedIntDialog" {}
class Token as "tictactoe.models.\nToken" {}
class Message as "tictactoe.views.\nMessage" {}
class ErrorView as "tictactoe.views.\nErrorView" {}

class tictactoe.views.console.CoordinateView {
+ read(String): Coordinate
}

tictactoe.views.console.CoordinateView .down.> Console
tictactoe.views.console.CoordinateView .down.> Error
tictactoe.views.console.CoordinateView .down.> Coordinate

class  tictactoe.views.console.ErrorView{
~ ErrorView(Error)
~ writeln()
}
tictactoe.views.console.ErrorView .down.> Error
tictactoe.views.console.ErrorView .down.> Console
ErrorView <|-down- tictactoe.views.console.ErrorView

class  tictactoe.views.console.GameView{
~ GameView(Controller)
~ write()
}

tictactoe.views.console.GameView *-down-> Controller
tictactoe.views.console.GameView .down.> Coordinate
tictactoe.views.console.GameView .down.> Message

class  tictactoe.views.console.PlayView{
~ PlayView(PlayController)
~ interact()
- put()
- move()
}

tictactoe.views.console.PlayView *-down-> PlayController
tictactoe.views.console.PlayView .down.> Coordinate
tictactoe.views.console.PlayView .down.> Message
tictactoe.views.console.PlayView .down.> Error

class  tictactoe.views.console.ResumeView{
+ ResumeView(ResumeController)
~ interact(): boolean
}
tictactoe.views.console.ResumeView *-down-> ResumeController
tictactoe.views.console.ResumeView .down.> Message
tictactoe.views.console.ResumeView .down.> YesNoDialog

class tictactoe.views.console.StartView{
~ StartView(StartController)
~ interact(): void
}
tictactoe.views.console.StartView *-down-> StartController
tictactoe.views.console.StartView .down.> Message
tictactoe.views.console.StartView .down.> LimitedIntDialog

class tictactoe.views.console.TokenView{
+ {static} SYMBOLS: char[]
~ TokenView(Token)
~ write()
}
tictactoe.views.console.StartView *-down-> Token
tictactoe.views.console.StartView .down.> Console

class tictactoe.views.console.View{
+ View(StartController, PlayController, ResumeController)
+ interact()
# start()
# play()
# isResumed(): boolean
}
tictactoe.views.console.View *-down-> tictactoe.views.console.StartView
tictactoe.views.console.View *-down-> tictactoe.views.console.PlayView
tictactoe.views.console.View *-down-> tictactoe.views.console.ResumeView
@enduml

PlantUML version 1.2020.21beta7(Unknown compile time)
(GPL source distribution)
Java Runtime: Java(TM) SE Runtime Environment
JVM: Java HotSpot(TM) 64-Bit Server VM
Default Encoding: UTF-8
Language: en
Country: US
--></g></svg>