<?xml version="1.0" encoding="UTF-8" standalone="no"?><svg xmlns="http://www.w3.org/2000/svg" xmlns:xlink="http://www.w3.org/1999/xlink" contentScriptType="application/ecmascript" contentStyleType="text/css" height="519px" preserveAspectRatio="none" style="width:1724px;height:519px;" version="1.1" viewBox="0 0 1724 519" width="1724px" zoomAndPan="magnify"><defs><filter height="300%" id="f1bfg76w89qqkm" width="300%" x="-1" y="-1"><feGaussianBlur result="blurOut" stdDeviation="2.0"/><feColorMatrix in="blurOut" result="blurOut2" type="matrix" values="0 0 0 0 0 0 0 0 0 0 0 0 0 0 0 0 0 0 .4 0"/><feOffset dx="4.0" dy="4.0" in="blurOut2" result="blurOut3"/><feBlend in="SourceGraphic" in2="blurOut3" mode="normal"/></filter></defs><g><!--MD5=[64182ab34c08ac367bbf699869515711]
cluster tictactoe.views.console--><polygon fill="#FFFFFF" filter="url(#f1bfg76w89qqkm)" points="24.5,86,223.5,86,230.5,108.2969,1140.5,108.2969,1140.5,408,24.5,408,24.5,86" style="stroke:#000000;stroke-width:1.5;"/><line style="stroke:#000000;stroke-width:1.5;" x1="24.5" x2="230.5" y1="108.2969" y2="108.2969"/><text fill="#000000" font-family="sans-serif" font-size="14" font-weight="bold" lengthAdjust="spacingAndGlyphs" textLength="193" x="28.5" y="100.9951">tictactoe.views.console</text><!--MD5=[bde0c8ed193d8d2dbac1dee471354ab0]
class tictactoe.views.console.ConsoleView--><rect codeLine="14" fill="#FEFECE" filter="url(#f1bfg76w89qqkm)" height="112.0234" id="tictactoe.views.console.ConsoleView" style="stroke:#A80036;stroke-width:1.5;" width="384" x="553.5" y="121"/><ellipse cx="702.25" cy="137" fill="#ADD1B2" rx="11" ry="11" style="stroke:#A80036;stroke-width:1.0;"/><path d="M704.5938,132.6719 C703.6563,132.2344 703.0625,132.0938 702.1875,132.0938 C699.5625,132.0938 697.5625,134.1719 697.5625,136.8906 L697.5625,138.0156 C697.5625,140.5938 699.6719,142.4844 702.5625,142.4844 C703.7813,142.4844 704.9375,142.1875 705.6875,141.6406 C706.2656,141.2344 706.5938,140.7813 706.5938,140.3906 C706.5938,139.9375 706.2031,139.5469 705.7344,139.5469 C705.5156,139.5469 705.3125,139.625 705.125,139.8125 C704.6719,140.2969 704.6719,140.2969 704.4844,140.3906 C704.0625,140.6563 703.375,140.7813 702.6094,140.7813 C700.5625,140.7813 699.2656,139.6875 699.2656,137.9844 L699.2656,136.8906 C699.2656,135.1094 700.5156,133.7969 702.25,133.7969 C702.8281,133.7969 703.4375,133.9531 703.9063,134.2031 C704.3906,134.4844 704.5625,134.7031 704.6563,135.1094 C704.7188,135.5156 704.75,135.6406 704.8906,135.7656 C705.0313,135.9063 705.2656,136.0156 705.4844,136.0156 C705.75,136.0156 706.0156,135.875 706.1875,135.6563 C706.2969,135.5 706.3281,135.3125 706.3281,134.8906 L706.3281,133.4688 C706.3281,133.0313 706.3125,132.9063 706.2188,132.75 C706.0625,132.4844 705.7813,132.3438 705.4844,132.3438 C705.1875,132.3438 704.9844,132.4375 704.7656,132.75 L704.5938,132.6719 Z " fill="#000000"/><text fill="#000000" font-family="sans-serif" font-size="12" lengthAdjust="spacingAndGlyphs" textLength="78" x="722.75" y="141.1543">ConsoleView</text><line style="stroke:#A80036;stroke-width:1.5;" x1="554.5" x2="936.5" y1="153" y2="153"/><line style="stroke:#A80036;stroke-width:1.5;" x1="554.5" x2="936.5" y1="161" y2="161"/><ellipse cx="564.5" cy="172" fill="#84BE84" rx="3" ry="3" style="stroke:#038048;stroke-width:1.0;"/><text fill="#000000" font-family="sans-serif" font-size="11" lengthAdjust="spacingAndGlyphs" textLength="358" x="573.5" y="175.2104">ConsoleView(StartController, PlayController, ResumeController)</text><ellipse cx="564.5" cy="184.8047" fill="#84BE84" rx="3" ry="3" style="stroke:#038048;stroke-width:1.0;"/><text fill="#000000" font-family="sans-serif" font-size="11" lengthAdjust="spacingAndGlyphs" textLength="51" x="573.5" y="188.0151">interact()</text><polygon fill="#FFFF44" points="564.5,192.6094,568.5,196.6094,564.5,200.6094,560.5,196.6094" style="stroke:#B38D22;stroke-width:1.0;"/><text fill="#000000" font-family="sans-serif" font-size="11" lengthAdjust="spacingAndGlyphs" textLength="33" x="573.5" y="200.8198">start()</text><polygon fill="#FFFF44" points="564.5,205.4141,568.5,209.4141,564.5,213.4141,560.5,209.4141" style="stroke:#B38D22;stroke-width:1.0;"/><text fill="#000000" font-family="sans-serif" font-size="11" lengthAdjust="spacingAndGlyphs" textLength="32" x="573.5" y="213.6245">play()</text><polygon fill="#FFFF44" points="564.5,218.2188,568.5,222.2188,564.5,226.2188,560.5,222.2188" style="stroke:#B38D22;stroke-width:1.0;"/><text fill="#000000" font-family="sans-serif" font-size="11" lengthAdjust="spacingAndGlyphs" textLength="124" x="573.5" y="226.4292">isResumed(): boolean</text><!--MD5=[54aa299435631381f3c0c028f26a058f]
class tictactoe.views.console.StartView--><rect codeLine="70" fill="#FEFECE" filter="url(#f1bfg76w89qqkm)" height="73.6094" id="tictactoe.views.console.StartView" style="stroke:#A80036;stroke-width:1.5;" width="171" x="707" y="305.5"/><ellipse cx="759.75" cy="321.5" fill="#ADD1B2" rx="11" ry="11" style="stroke:#A80036;stroke-width:1.0;"/><path d="M762.0938,317.1719 C761.1563,316.7344 760.5625,316.5938 759.6875,316.5938 C757.0625,316.5938 755.0625,318.6719 755.0625,321.3906 L755.0625,322.5156 C755.0625,325.0938 757.1719,326.9844 760.0625,326.9844 C761.2813,326.9844 762.4375,326.6875 763.1875,326.1406 C763.7656,325.7344 764.0938,325.2813 764.0938,324.8906 C764.0938,324.4375 763.7031,324.0469 763.2344,324.0469 C763.0156,324.0469 762.8125,324.125 762.625,324.3125 C762.1719,324.7969 762.1719,324.7969 761.9844,324.8906 C761.5625,325.1563 760.875,325.2813 760.1094,325.2813 C758.0625,325.2813 756.7656,324.1875 756.7656,322.4844 L756.7656,321.3906 C756.7656,319.6094 758.0156,318.2969 759.75,318.2969 C760.3281,318.2969 760.9375,318.4531 761.4063,318.7031 C761.8906,318.9844 762.0625,319.2031 762.1563,319.6094 C762.2188,320.0156 762.25,320.1406 762.3906,320.2656 C762.5313,320.4063 762.7656,320.5156 762.9844,320.5156 C763.25,320.5156 763.5156,320.375 763.6875,320.1563 C763.7969,320 763.8281,319.8125 763.8281,319.3906 L763.8281,317.9688 C763.8281,317.5313 763.8125,317.4063 763.7188,317.25 C763.5625,316.9844 763.2813,316.8438 762.9844,316.8438 C762.6875,316.8438 762.4844,316.9375 762.2656,317.25 L762.0938,317.1719 Z " fill="#000000"/><text fill="#000000" font-family="sans-serif" font-size="12" lengthAdjust="spacingAndGlyphs" textLength="57" x="780.25" y="325.6543">StartView</text><line style="stroke:#A80036;stroke-width:1.5;" x1="708" x2="877" y1="337.5" y2="337.5"/><line style="stroke:#A80036;stroke-width:1.5;" x1="708" x2="877" y1="345.5" y2="345.5"/><polygon fill="#4177AF" points="718,352.5,714,358.5,722,358.5" style="stroke:#1963A0;stroke-width:1.0;"/><text fill="#000000" font-family="sans-serif" font-size="11" lengthAdjust="spacingAndGlyphs" textLength="145" x="727" y="359.7104">StartView(StartController)</text><polygon fill="#4177AF" points="718,365.3047,714,371.3047,722,371.3047" style="stroke:#1963A0;stroke-width:1.0;"/><text fill="#000000" font-family="sans-serif" font-size="11" lengthAdjust="spacingAndGlyphs" textLength="82" x="727" y="372.5151">interact(): void</text><!--MD5=[0158df0baddf48f83142f472e341eacc]
class tictactoe.views.console.PlayView--><rect codeLine="50" fill="#FEFECE" filter="url(#f1bfg76w89qqkm)" height="99.2188" id="tictactoe.views.console.PlayView" style="stroke:#A80036;stroke-width:1.5;" width="163" x="509" y="293"/><ellipse cx="560.25" cy="309" fill="#ADD1B2" rx="11" ry="11" style="stroke:#A80036;stroke-width:1.0;"/><path d="M562.5938,304.6719 C561.6563,304.2344 561.0625,304.0938 560.1875,304.0938 C557.5625,304.0938 555.5625,306.1719 555.5625,308.8906 L555.5625,310.0156 C555.5625,312.5938 557.6719,314.4844 560.5625,314.4844 C561.7813,314.4844 562.9375,314.1875 563.6875,313.6406 C564.2656,313.2344 564.5938,312.7813 564.5938,312.3906 C564.5938,311.9375 564.2031,311.5469 563.7344,311.5469 C563.5156,311.5469 563.3125,311.625 563.125,311.8125 C562.6719,312.2969 562.6719,312.2969 562.4844,312.3906 C562.0625,312.6563 561.375,312.7813 560.6094,312.7813 C558.5625,312.7813 557.2656,311.6875 557.2656,309.9844 L557.2656,308.8906 C557.2656,307.1094 558.5156,305.7969 560.25,305.7969 C560.8281,305.7969 561.4375,305.9531 561.9063,306.2031 C562.3906,306.4844 562.5625,306.7031 562.6563,307.1094 C562.7188,307.5156 562.75,307.6406 562.8906,307.7656 C563.0313,307.9063 563.2656,308.0156 563.4844,308.0156 C563.75,308.0156 564.0156,307.875 564.1875,307.6563 C564.2969,307.5 564.3281,307.3125 564.3281,306.8906 L564.3281,305.4688 C564.3281,305.0313 564.3125,304.9063 564.2188,304.75 C564.0625,304.4844 563.7813,304.3438 563.4844,304.3438 C563.1875,304.3438 562.9844,304.4375 562.7656,304.75 L562.5938,304.6719 Z " fill="#000000"/><text fill="#000000" font-family="sans-serif" font-size="12" lengthAdjust="spacingAndGlyphs" textLength="52" x="580.75" y="313.1543">PlayView</text><line style="stroke:#A80036;stroke-width:1.5;" x1="510" x2="671" y1="325" y2="325"/><line style="stroke:#A80036;stroke-width:1.5;" x1="510" x2="671" y1="333" y2="333"/><polygon fill="#4177AF" points="520,340,516,346,524,346" style="stroke:#1963A0;stroke-width:1.0;"/><text fill="#000000" font-family="sans-serif" font-size="11" lengthAdjust="spacingAndGlyphs" textLength="137" x="529" y="347.2104">PlayView(PlayController)</text><polygon fill="#4177AF" points="520,352.8047,516,358.8047,524,358.8047" style="stroke:#1963A0;stroke-width:1.0;"/><text fill="#000000" font-family="sans-serif" font-size="11" lengthAdjust="spacingAndGlyphs" textLength="51" x="529" y="360.0151">interact()</text><rect fill="#F24D5C" height="6" style="stroke:#C82930;stroke-width:1.0;" width="6" x="517" y="366.6094"/><text fill="#000000" font-family="sans-serif" font-size="11" lengthAdjust="spacingAndGlyphs" textLength="26" x="529" y="372.8198">put()</text><rect fill="#F24D5C" height="6" style="stroke:#C82930;stroke-width:1.0;" width="6" x="517" y="379.4141"/><text fill="#000000" font-family="sans-serif" font-size="11" lengthAdjust="spacingAndGlyphs" textLength="41" x="529" y="385.6245">move()</text><!--MD5=[863eeac66a77264bd74e28cbddefcd23]
class tictactoe.views.console.ResumeView--><rect codeLine="62" fill="#FEFECE" filter="url(#f1bfg76w89qqkm)" height="73.6094" id="tictactoe.views.console.ResumeView" style="stroke:#A80036;stroke-width:1.5;" width="211" x="913" y="305.5"/><ellipse cx="975.75" cy="321.5" fill="#ADD1B2" rx="11" ry="11" style="stroke:#A80036;stroke-width:1.0;"/><path d="M978.0938,317.1719 C977.1563,316.7344 976.5625,316.5938 975.6875,316.5938 C973.0625,316.5938 971.0625,318.6719 971.0625,321.3906 L971.0625,322.5156 C971.0625,325.0938 973.1719,326.9844 976.0625,326.9844 C977.2813,326.9844 978.4375,326.6875 979.1875,326.1406 C979.7656,325.7344 980.0938,325.2813 980.0938,324.8906 C980.0938,324.4375 979.7031,324.0469 979.2344,324.0469 C979.0156,324.0469 978.8125,324.125 978.625,324.3125 C978.1719,324.7969 978.1719,324.7969 977.9844,324.8906 C977.5625,325.1563 976.875,325.2813 976.1094,325.2813 C974.0625,325.2813 972.7656,324.1875 972.7656,322.4844 L972.7656,321.3906 C972.7656,319.6094 974.0156,318.2969 975.75,318.2969 C976.3281,318.2969 976.9375,318.4531 977.4063,318.7031 C977.8906,318.9844 978.0625,319.2031 978.1563,319.6094 C978.2188,320.0156 978.25,320.1406 978.3906,320.2656 C978.5313,320.4063 978.7656,320.5156 978.9844,320.5156 C979.25,320.5156 979.5156,320.375 979.6875,320.1563 C979.7969,320 979.8281,319.8125 979.8281,319.3906 L979.8281,317.9688 C979.8281,317.5313 979.8125,317.4063 979.7188,317.25 C979.5625,316.9844 979.2813,316.8438 978.9844,316.8438 C978.6875,316.8438 978.4844,316.9375 978.2656,317.25 L978.0938,317.1719 Z " fill="#000000"/><text fill="#000000" font-family="sans-serif" font-size="12" lengthAdjust="spacingAndGlyphs" textLength="77" x="996.25" y="325.6543">ResumeView</text><line style="stroke:#A80036;stroke-width:1.5;" x1="914" x2="1123" y1="337.5" y2="337.5"/><line style="stroke:#A80036;stroke-width:1.5;" x1="914" x2="1123" y1="345.5" y2="345.5"/><ellipse cx="924" cy="356.5" fill="#84BE84" rx="3" ry="3" style="stroke:#038048;stroke-width:1.0;"/><text fill="#000000" font-family="sans-serif" font-size="11" lengthAdjust="spacingAndGlyphs" textLength="185" x="933" y="359.7104">ResumeView(ResumeController)</text><polygon fill="#4177AF" points="924,365.3047,920,371.3047,928,371.3047" style="stroke:#1963A0;stroke-width:1.0;"/><text fill="#000000" font-family="sans-serif" font-size="11" lengthAdjust="spacingAndGlyphs" textLength="104" x="933" y="372.5151">interact(): boolean</text><!--MD5=[8830b246a550294711e6eb5af1606829]
class tictactoe.views.console.CoordinateView--><rect codeLine="25" fill="#FEFECE" filter="url(#f1bfg76w89qqkm)" height="60.8047" id="tictactoe.views.console.CoordinateView" style="stroke:#A80036;stroke-width:1.5;" width="162" x="356.5" y="146.5"/><ellipse cx="387.25" cy="162.5" fill="#ADD1B2" rx="11" ry="11" style="stroke:#A80036;stroke-width:1.0;"/><path d="M389.5938,158.1719 C388.6563,157.7344 388.0625,157.5938 387.1875,157.5938 C384.5625,157.5938 382.5625,159.6719 382.5625,162.3906 L382.5625,163.5156 C382.5625,166.0938 384.6719,167.9844 387.5625,167.9844 C388.7813,167.9844 389.9375,167.6875 390.6875,167.1406 C391.2656,166.7344 391.5938,166.2813 391.5938,165.8906 C391.5938,165.4375 391.2031,165.0469 390.7344,165.0469 C390.5156,165.0469 390.3125,165.125 390.125,165.3125 C389.6719,165.7969 389.6719,165.7969 389.4844,165.8906 C389.0625,166.1563 388.375,166.2813 387.6094,166.2813 C385.5625,166.2813 384.2656,165.1875 384.2656,163.4844 L384.2656,162.3906 C384.2656,160.6094 385.5156,159.2969 387.25,159.2969 C387.8281,159.2969 388.4375,159.4531 388.9063,159.7031 C389.3906,159.9844 389.5625,160.2031 389.6563,160.6094 C389.7188,161.0156 389.75,161.1406 389.8906,161.2656 C390.0313,161.4063 390.2656,161.5156 390.4844,161.5156 C390.75,161.5156 391.0156,161.375 391.1875,161.1563 C391.2969,161 391.3281,160.8125 391.3281,160.3906 L391.3281,158.9688 C391.3281,158.5313 391.3125,158.4063 391.2188,158.25 C391.0625,157.9844 390.7813,157.8438 390.4844,157.8438 C390.1875,157.8438 389.9844,157.9375 389.7656,158.25 L389.5938,158.1719 Z " fill="#000000"/><text fill="#000000" font-family="sans-serif" font-size="12" lengthAdjust="spacingAndGlyphs" textLength="95" x="404.75" y="166.6543">CoordinateView</text><line style="stroke:#A80036;stroke-width:1.5;" x1="357.5" x2="517.5" y1="178.5" y2="178.5"/><line style="stroke:#A80036;stroke-width:1.5;" x1="357.5" x2="517.5" y1="186.5" y2="186.5"/><ellipse cx="367.5" cy="197.5" fill="#84BE84" rx="3" ry="3" style="stroke:#038048;stroke-width:1.0;"/><text fill="#000000" font-family="sans-serif" font-size="11" lengthAdjust="spacingAndGlyphs" textLength="136" x="376.5" y="200.7104">read(String): Coordinate</text><!--MD5=[1ca4e66fd27a79cb5d7093d90b3139a4]
class tictactoe.views.console.ErrorView--><rect codeLine="33" fill="#FEFECE" filter="url(#f1bfg76w89qqkm)" height="73.6094" id="tictactoe.views.console.ErrorView" style="stroke:#A80036;stroke-width:1.5;" width="114" x="207.5" y="140"/><ellipse cx="232.85" cy="156" fill="#ADD1B2" rx="11" ry="11" style="stroke:#A80036;stroke-width:1.0;"/><path d="M235.1938,151.6719 C234.2563,151.2344 233.6625,151.0938 232.7875,151.0938 C230.1625,151.0938 228.1625,153.1719 228.1625,155.8906 L228.1625,157.0156 C228.1625,159.5938 230.2719,161.4844 233.1625,161.4844 C234.3813,161.4844 235.5375,161.1875 236.2875,160.6406 C236.8656,160.2344 237.1938,159.7813 237.1938,159.3906 C237.1938,158.9375 236.8031,158.5469 236.3344,158.5469 C236.1156,158.5469 235.9125,158.625 235.725,158.8125 C235.2719,159.2969 235.2719,159.2969 235.0844,159.3906 C234.6625,159.6563 233.975,159.7813 233.2094,159.7813 C231.1625,159.7813 229.8656,158.6875 229.8656,156.9844 L229.8656,155.8906 C229.8656,154.1094 231.1156,152.7969 232.85,152.7969 C233.4281,152.7969 234.0375,152.9531 234.5063,153.2031 C234.9906,153.4844 235.1625,153.7031 235.2563,154.1094 C235.3188,154.5156 235.35,154.6406 235.4906,154.7656 C235.6313,154.9063 235.8656,155.0156 236.0844,155.0156 C236.35,155.0156 236.6156,154.875 236.7875,154.6563 C236.8969,154.5 236.9281,154.3125 236.9281,153.8906 L236.9281,152.4688 C236.9281,152.0313 236.9125,151.9063 236.8188,151.75 C236.6625,151.4844 236.3813,151.3438 236.0844,151.3438 C235.7875,151.3438 235.5844,151.4375 235.3656,151.75 L235.1938,151.6719 Z " fill="#000000"/><text fill="#000000" font-family="sans-serif" font-size="12" lengthAdjust="spacingAndGlyphs" textLength="59" x="249.15" y="160.1543">ErrorView</text><line style="stroke:#A80036;stroke-width:1.5;" x1="208.5" x2="320.5" y1="172" y2="172"/><line style="stroke:#A80036;stroke-width:1.5;" x1="208.5" x2="320.5" y1="180" y2="180"/><polygon fill="#4177AF" points="218.5,187,214.5,193,222.5,193" style="stroke:#1963A0;stroke-width:1.0;"/><text fill="#000000" font-family="sans-serif" font-size="11" lengthAdjust="spacingAndGlyphs" textLength="88" x="227.5" y="194.2104">ErrorView(Error)</text><polygon fill="#4177AF" points="218.5,199.8047,214.5,205.8047,222.5,205.8047" style="stroke:#1963A0;stroke-width:1.0;"/><text fill="#000000" font-family="sans-serif" font-size="11" lengthAdjust="spacingAndGlyphs" textLength="46" x="227.5" y="207.0151">writeln()</text><!--MD5=[e933b4291156428da126c4c01236555b]
class tictactoe.views.console.GameView--><rect codeLine="41" fill="#FEFECE" filter="url(#f1bfg76w89qqkm)" height="73.6094" id="tictactoe.views.console.GameView" style="stroke:#A80036;stroke-width:1.5;" width="152" x="972.5" y="140"/><ellipse cx="1012.7" cy="156" fill="#ADD1B2" rx="11" ry="11" style="stroke:#A80036;stroke-width:1.0;"/><path d="M1015.0438,151.6719 C1014.1063,151.2344 1013.5125,151.0938 1012.6375,151.0938 C1010.0125,151.0938 1008.0125,153.1719 1008.0125,155.8906 L1008.0125,157.0156 C1008.0125,159.5938 1010.1219,161.4844 1013.0125,161.4844 C1014.2313,161.4844 1015.3875,161.1875 1016.1375,160.6406 C1016.7156,160.2344 1017.0438,159.7813 1017.0438,159.3906 C1017.0438,158.9375 1016.6531,158.5469 1016.1844,158.5469 C1015.9656,158.5469 1015.7625,158.625 1015.575,158.8125 C1015.1219,159.2969 1015.1219,159.2969 1014.9344,159.3906 C1014.5125,159.6563 1013.825,159.7813 1013.0594,159.7813 C1011.0125,159.7813 1009.7156,158.6875 1009.7156,156.9844 L1009.7156,155.8906 C1009.7156,154.1094 1010.9656,152.7969 1012.7,152.7969 C1013.2781,152.7969 1013.8875,152.9531 1014.3563,153.2031 C1014.8406,153.4844 1015.0125,153.7031 1015.1063,154.1094 C1015.1688,154.5156 1015.2,154.6406 1015.3406,154.7656 C1015.4813,154.9063 1015.7156,155.0156 1015.9344,155.0156 C1016.2,155.0156 1016.4656,154.875 1016.6375,154.6563 C1016.7469,154.5 1016.7781,154.3125 1016.7781,153.8906 L1016.7781,152.4688 C1016.7781,152.0313 1016.7625,151.9063 1016.6688,151.75 C1016.5125,151.4844 1016.2313,151.3438 1015.9344,151.3438 C1015.6375,151.3438 1015.4344,151.4375 1015.2156,151.75 L1015.0438,151.6719 Z " fill="#000000"/><text fill="#000000" font-family="sans-serif" font-size="12" lengthAdjust="spacingAndGlyphs" textLength="64" x="1032.3" y="160.1543">GameView</text><line style="stroke:#A80036;stroke-width:1.5;" x1="973.5" x2="1123.5" y1="172" y2="172"/><line style="stroke:#A80036;stroke-width:1.5;" x1="973.5" x2="1123.5" y1="180" y2="180"/><polygon fill="#4177AF" points="983.5,187,979.5,193,987.5,193" style="stroke:#1963A0;stroke-width:1.0;"/><text fill="#000000" font-family="sans-serif" font-size="11" lengthAdjust="spacingAndGlyphs" textLength="126" x="992.5" y="194.2104">GameView(Controller)</text><polygon fill="#4177AF" points="983.5,199.8047,979.5,205.8047,987.5,205.8047" style="stroke:#1963A0;stroke-width:1.0;"/><text fill="#000000" font-family="sans-serif" font-size="11" lengthAdjust="spacingAndGlyphs" textLength="36" x="992.5" y="207.0151">write()</text><!--MD5=[85374d0a3ee4b3ef5b557089b06e5446]
class tictactoe.views.console.TokenView--><rect codeLine="78" fill="#FEFECE" filter="url(#f1bfg76w89qqkm)" height="86.4141" id="tictactoe.views.console.TokenView" style="stroke:#A80036;stroke-width:1.5;" width="132" x="40.5" y="134"/><ellipse cx="70.8" cy="150" fill="#ADD1B2" rx="11" ry="11" style="stroke:#A80036;stroke-width:1.0;"/><path d="M73.1438,145.6719 C72.2063,145.2344 71.6125,145.0938 70.7375,145.0938 C68.1125,145.0938 66.1125,147.1719 66.1125,149.8906 L66.1125,151.0156 C66.1125,153.5938 68.2219,155.4844 71.1125,155.4844 C72.3313,155.4844 73.4875,155.1875 74.2375,154.6406 C74.8156,154.2344 75.1438,153.7813 75.1438,153.3906 C75.1438,152.9375 74.7531,152.5469 74.2844,152.5469 C74.0656,152.5469 73.8625,152.625 73.675,152.8125 C73.2219,153.2969 73.2219,153.2969 73.0344,153.3906 C72.6125,153.6563 71.925,153.7813 71.1594,153.7813 C69.1125,153.7813 67.8156,152.6875 67.8156,150.9844 L67.8156,149.8906 C67.8156,148.1094 69.0656,146.7969 70.8,146.7969 C71.3781,146.7969 71.9875,146.9531 72.4563,147.2031 C72.9406,147.4844 73.1125,147.7031 73.2063,148.1094 C73.2688,148.5156 73.3,148.6406 73.4406,148.7656 C73.5813,148.9063 73.8156,149.0156 74.0344,149.0156 C74.3,149.0156 74.5656,148.875 74.7375,148.6563 C74.8469,148.5 74.8781,148.3125 74.8781,147.8906 L74.8781,146.4688 C74.8781,146.0313 74.8625,145.9063 74.7688,145.75 C74.6125,145.4844 74.3313,145.3438 74.0344,145.3438 C73.7375,145.3438 73.5344,145.4375 73.3156,145.75 L73.1438,145.6719 Z " fill="#000000"/><text fill="#000000" font-family="sans-serif" font-size="12" lengthAdjust="spacingAndGlyphs" textLength="66" x="88.2" y="154.1543">TokenView</text><line style="stroke:#A80036;stroke-width:1.5;" x1="41.5" x2="171.5" y1="166" y2="166"/><ellipse cx="51.5" cy="177" fill="none" rx="3" ry="3" style="stroke:#038048;stroke-width:1.0;"/><text fill="#000000" font-family="sans-serif" font-size="11" lengthAdjust="spacingAndGlyphs" text-decoration="underline" textLength="94" x="60.5" y="180.2104">SYMBOLS: char[]</text><line style="stroke:#A80036;stroke-width:1.5;" x1="41.5" x2="171.5" y1="186.8047" y2="186.8047"/><polygon fill="#4177AF" points="51.5,193.8047,47.5,199.8047,55.5,199.8047" style="stroke:#1963A0;stroke-width:1.0;"/><text fill="#000000" font-family="sans-serif" font-size="11" lengthAdjust="spacingAndGlyphs" textLength="106" x="60.5" y="201.0151">TokenView(Token)</text><polygon fill="#4177AF" points="51.5,206.6094,47.5,212.6094,55.5,212.6094" style="stroke:#1963A0;stroke-width:1.0;"/><text fill="#000000" font-family="sans-serif" font-size="11" lengthAdjust="spacingAndGlyphs" textLength="36" x="60.5" y="213.8198">write()</text><!--MD5=[b8cfd8c4119a3b0a7a46bfc5fc780f85]
class Error--><rect codeLine="1" fill="#FEFECE" filter="url(#f1bfg76w89qqkm)" height="53.9375" id="Error" style="stroke:#A80036;stroke-width:1.5;" width="135" x="7" y="452"/><ellipse cx="22" cy="470.9688" fill="#ADD1B2" rx="11" ry="11" style="stroke:#A80036;stroke-width:1.0;"/><path d="M24.3438,466.6406 C23.4063,466.2031 22.8125,466.0625 21.9375,466.0625 C19.3125,466.0625 17.3125,468.1406 17.3125,470.8594 L17.3125,471.9844 C17.3125,474.5625 19.4219,476.4531 22.3125,476.4531 C23.5313,476.4531 24.6875,476.1563 25.4375,475.6094 C26.0156,475.2031 26.3438,474.75 26.3438,474.3594 C26.3438,473.9063 25.9531,473.5156 25.4844,473.5156 C25.2656,473.5156 25.0625,473.5938 24.875,473.7813 C24.4219,474.2656 24.4219,474.2656 24.2344,474.3594 C23.8125,474.625 23.125,474.75 22.3594,474.75 C20.3125,474.75 19.0156,473.6563 19.0156,471.9531 L19.0156,470.8594 C19.0156,469.0781 20.2656,467.7656 22,467.7656 C22.5781,467.7656 23.1875,467.9219 23.6563,468.1719 C24.1406,468.4531 24.3125,468.6719 24.4063,469.0781 C24.4688,469.4844 24.5,469.6094 24.6406,469.7344 C24.7813,469.875 25.0156,469.9844 25.2344,469.9844 C25.5,469.9844 25.7656,469.8438 25.9375,469.625 C26.0469,469.4688 26.0781,469.2813 26.0781,468.8594 L26.0781,467.4375 C26.0781,467 26.0625,466.875 25.9688,466.7188 C25.8125,466.4531 25.5313,466.3125 25.2344,466.3125 C24.9375,466.3125 24.7344,466.4063 24.5156,466.7188 L24.3438,466.6406 Z " fill="#000000"/><text fill="#000000" font-family="sans-serif" font-size="12" lengthAdjust="spacingAndGlyphs" textLength="103" x="36" y="468.1387">tictactoe.models.</text><text fill="#000000" font-family="sans-serif" font-size="12" lengthAdjust="spacingAndGlyphs" textLength="30" x="72.5" y="482.1074">Error</text><line style="stroke:#A80036;stroke-width:1.5;" x1="8" x2="141" y1="489.9375" y2="489.9375"/><line style="stroke:#A80036;stroke-width:1.5;" x1="8" x2="141" y1="497.9375" y2="497.9375"/><!--MD5=[8c7d7abc12e214c3cc12c9ab70edee11]
class Coordinate--><rect codeLine="2" fill="#FEFECE" filter="url(#f1bfg76w89qqkm)" height="53.9375" id="Coordinate" style="stroke:#A80036;stroke-width:1.5;" width="135" x="343" y="452"/><ellipse cx="358" cy="470.9688" fill="#ADD1B2" rx="11" ry="11" style="stroke:#A80036;stroke-width:1.0;"/><path d="M360.3438,466.6406 C359.4063,466.2031 358.8125,466.0625 357.9375,466.0625 C355.3125,466.0625 353.3125,468.1406 353.3125,470.8594 L353.3125,471.9844 C353.3125,474.5625 355.4219,476.4531 358.3125,476.4531 C359.5313,476.4531 360.6875,476.1563 361.4375,475.6094 C362.0156,475.2031 362.3438,474.75 362.3438,474.3594 C362.3438,473.9063 361.9531,473.5156 361.4844,473.5156 C361.2656,473.5156 361.0625,473.5938 360.875,473.7813 C360.4219,474.2656 360.4219,474.2656 360.2344,474.3594 C359.8125,474.625 359.125,474.75 358.3594,474.75 C356.3125,474.75 355.0156,473.6563 355.0156,471.9531 L355.0156,470.8594 C355.0156,469.0781 356.2656,467.7656 358,467.7656 C358.5781,467.7656 359.1875,467.9219 359.6563,468.1719 C360.1406,468.4531 360.3125,468.6719 360.4063,469.0781 C360.4688,469.4844 360.5,469.6094 360.6406,469.7344 C360.7813,469.875 361.0156,469.9844 361.2344,469.9844 C361.5,469.9844 361.7656,469.8438 361.9375,469.625 C362.0469,469.4688 362.0781,469.2813 362.0781,468.8594 L362.0781,467.4375 C362.0781,467 362.0625,466.875 361.9688,466.7188 C361.8125,466.4531 361.5313,466.3125 361.2344,466.3125 C360.9375,466.3125 360.7344,466.4063 360.5156,466.7188 L360.3438,466.6406 Z " fill="#000000"/><text fill="#000000" font-family="sans-serif" font-size="12" lengthAdjust="spacingAndGlyphs" textLength="103" x="372" y="468.1387">tictactoe.models.</text><text fill="#000000" font-family="sans-serif" font-size="12" lengthAdjust="spacingAndGlyphs" textLength="66" x="390.5" y="482.1074">Coordinate</text><line style="stroke:#A80036;stroke-width:1.5;" x1="344" x2="477" y1="489.9375" y2="489.9375"/><line style="stroke:#A80036;stroke-width:1.5;" x1="344" x2="477" y1="497.9375" y2="497.9375"/><!--MD5=[315b61b427ec618d6861d47eee00cca3]
class Console--><rect codeLine="3" fill="#FEFECE" filter="url(#f1bfg76w89qqkm)" height="53.9375" id="Console" style="stroke:#A80036;stroke-width:1.5;" width="130" x="177.5" y="452"/><ellipse cx="192.5" cy="470.9688" fill="#ADD1B2" rx="11" ry="11" style="stroke:#A80036;stroke-width:1.0;"/><path d="M194.8438,466.6406 C193.9063,466.2031 193.3125,466.0625 192.4375,466.0625 C189.8125,466.0625 187.8125,468.1406 187.8125,470.8594 L187.8125,471.9844 C187.8125,474.5625 189.9219,476.4531 192.8125,476.4531 C194.0313,476.4531 195.1875,476.1563 195.9375,475.6094 C196.5156,475.2031 196.8438,474.75 196.8438,474.3594 C196.8438,473.9063 196.4531,473.5156 195.9844,473.5156 C195.7656,473.5156 195.5625,473.5938 195.375,473.7813 C194.9219,474.2656 194.9219,474.2656 194.7344,474.3594 C194.3125,474.625 193.625,474.75 192.8594,474.75 C190.8125,474.75 189.5156,473.6563 189.5156,471.9531 L189.5156,470.8594 C189.5156,469.0781 190.7656,467.7656 192.5,467.7656 C193.0781,467.7656 193.6875,467.9219 194.1563,468.1719 C194.6406,468.4531 194.8125,468.6719 194.9063,469.0781 C194.9688,469.4844 195,469.6094 195.1406,469.7344 C195.2813,469.875 195.5156,469.9844 195.7344,469.9844 C196,469.9844 196.2656,469.8438 196.4375,469.625 C196.5469,469.4688 196.5781,469.2813 196.5781,468.8594 L196.5781,467.4375 C196.5781,467 196.5625,466.875 196.4688,466.7188 C196.3125,466.4531 196.0313,466.3125 195.7344,466.3125 C195.4375,466.3125 195.2344,466.4063 195.0156,466.7188 L194.8438,466.6406 Z " fill="#000000"/><text fill="#000000" font-family="sans-serif" font-size="12" lengthAdjust="spacingAndGlyphs" textLength="98" x="206.5" y="468.1387">usantatecla.utils.</text><text fill="#000000" font-family="sans-serif" font-size="12" lengthAdjust="spacingAndGlyphs" textLength="49" x="231" y="482.1074">Console</text><line style="stroke:#A80036;stroke-width:1.5;" x1="178.5" x2="306.5" y1="489.9375" y2="489.9375"/><line style="stroke:#A80036;stroke-width:1.5;" x1="178.5" x2="306.5" y1="497.9375" y2="497.9375"/><!--MD5=[1d7ba1c7002d54515419844fbd155368]
class Controller--><rect codeLine="4" fill="#FEFECE" filter="url(#f1bfg76w89qqkm)" height="53.9375" id="Controller" style="stroke:#A80036;stroke-width:1.5;" width="155" x="1159" y="315.5"/><ellipse cx="1174" cy="334.4688" fill="#ADD1B2" rx="11" ry="11" style="stroke:#A80036;stroke-width:1.0;"/><path d="M1176.3438,330.1406 C1175.4063,329.7031 1174.8125,329.5625 1173.9375,329.5625 C1171.3125,329.5625 1169.3125,331.6406 1169.3125,334.3594 L1169.3125,335.4844 C1169.3125,338.0625 1171.4219,339.9531 1174.3125,339.9531 C1175.5313,339.9531 1176.6875,339.6563 1177.4375,339.1094 C1178.0156,338.7031 1178.3438,338.25 1178.3438,337.8594 C1178.3438,337.4063 1177.9531,337.0156 1177.4844,337.0156 C1177.2656,337.0156 1177.0625,337.0938 1176.875,337.2813 C1176.4219,337.7656 1176.4219,337.7656 1176.2344,337.8594 C1175.8125,338.125 1175.125,338.25 1174.3594,338.25 C1172.3125,338.25 1171.0156,337.1563 1171.0156,335.4531 L1171.0156,334.3594 C1171.0156,332.5781 1172.2656,331.2656 1174,331.2656 C1174.5781,331.2656 1175.1875,331.4219 1175.6563,331.6719 C1176.1406,331.9531 1176.3125,332.1719 1176.4063,332.5781 C1176.4688,332.9844 1176.5,333.1094 1176.6406,333.2344 C1176.7813,333.375 1177.0156,333.4844 1177.2344,333.4844 C1177.5,333.4844 1177.7656,333.3438 1177.9375,333.125 C1178.0469,332.9688 1178.0781,332.7813 1178.0781,332.3594 L1178.0781,330.9375 C1178.0781,330.5 1178.0625,330.375 1177.9688,330.2188 C1177.8125,329.9531 1177.5313,329.8125 1177.2344,329.8125 C1176.9375,329.8125 1176.7344,329.9063 1176.5156,330.2188 L1176.3438,330.1406 Z " fill="#000000"/><text fill="#000000" font-family="sans-serif" font-size="12" lengthAdjust="spacingAndGlyphs" textLength="123" x="1188" y="331.6387">tictactoe.controllers.</text><text fill="#000000" font-family="sans-serif" font-size="12" lengthAdjust="spacingAndGlyphs" textLength="59" x="1220" y="345.6074">Controller</text><line style="stroke:#A80036;stroke-width:1.5;" x1="1160" x2="1313" y1="353.4375" y2="353.4375"/><line style="stroke:#A80036;stroke-width:1.5;" x1="1160" x2="1313" y1="361.4375" y2="361.4375"/><!--MD5=[cc8600b868f8dfab2c8d497bce62f90a]
class PlayController--><rect codeLine="5" fill="#FEFECE" filter="url(#f1bfg76w89qqkm)" height="53.9375" id="PlayController" style="stroke:#A80036;stroke-width:1.5;" width="155" x="513" y="452"/><ellipse cx="528" cy="470.9688" fill="#ADD1B2" rx="11" ry="11" style="stroke:#A80036;stroke-width:1.0;"/><path d="M530.3438,466.6406 C529.4063,466.2031 528.8125,466.0625 527.9375,466.0625 C525.3125,466.0625 523.3125,468.1406 523.3125,470.8594 L523.3125,471.9844 C523.3125,474.5625 525.4219,476.4531 528.3125,476.4531 C529.5313,476.4531 530.6875,476.1563 531.4375,475.6094 C532.0156,475.2031 532.3438,474.75 532.3438,474.3594 C532.3438,473.9063 531.9531,473.5156 531.4844,473.5156 C531.2656,473.5156 531.0625,473.5938 530.875,473.7813 C530.4219,474.2656 530.4219,474.2656 530.2344,474.3594 C529.8125,474.625 529.125,474.75 528.3594,474.75 C526.3125,474.75 525.0156,473.6563 525.0156,471.9531 L525.0156,470.8594 C525.0156,469.0781 526.2656,467.7656 528,467.7656 C528.5781,467.7656 529.1875,467.9219 529.6563,468.1719 C530.1406,468.4531 530.3125,468.6719 530.4063,469.0781 C530.4688,469.4844 530.5,469.6094 530.6406,469.7344 C530.7813,469.875 531.0156,469.9844 531.2344,469.9844 C531.5,469.9844 531.7656,469.8438 531.9375,469.625 C532.0469,469.4688 532.0781,469.2813 532.0781,468.8594 L532.0781,467.4375 C532.0781,467 532.0625,466.875 531.9688,466.7188 C531.8125,466.4531 531.5313,466.3125 531.2344,466.3125 C530.9375,466.3125 530.7344,466.4063 530.5156,466.7188 L530.3438,466.6406 Z " fill="#000000"/><text fill="#000000" font-family="sans-serif" font-size="12" lengthAdjust="spacingAndGlyphs" textLength="123" x="542" y="468.1387">tictactoe.controllers.</text><text fill="#000000" font-family="sans-serif" font-size="12" lengthAdjust="spacingAndGlyphs" textLength="82" x="562.5" y="482.1074">PlayController</text><line style="stroke:#A80036;stroke-width:1.5;" x1="514" x2="667" y1="489.9375" y2="489.9375"/><line style="stroke:#A80036;stroke-width:1.5;" x1="514" x2="667" y1="497.9375" y2="497.9375"/><!--MD5=[1a47bbf44ccee225df9b18c5b6629853]
class ResumeController--><rect codeLine="6" fill="#FEFECE" filter="url(#f1bfg76w89qqkm)" height="53.9375" id="ResumeController" style="stroke:#A80036;stroke-width:1.5;" width="155" x="1555" y="452"/><ellipse cx="1570" cy="470.9688" fill="#ADD1B2" rx="11" ry="11" style="stroke:#A80036;stroke-width:1.0;"/><path d="M1572.3438,466.6406 C1571.4063,466.2031 1570.8125,466.0625 1569.9375,466.0625 C1567.3125,466.0625 1565.3125,468.1406 1565.3125,470.8594 L1565.3125,471.9844 C1565.3125,474.5625 1567.4219,476.4531 1570.3125,476.4531 C1571.5313,476.4531 1572.6875,476.1563 1573.4375,475.6094 C1574.0156,475.2031 1574.3438,474.75 1574.3438,474.3594 C1574.3438,473.9063 1573.9531,473.5156 1573.4844,473.5156 C1573.2656,473.5156 1573.0625,473.5938 1572.875,473.7813 C1572.4219,474.2656 1572.4219,474.2656 1572.2344,474.3594 C1571.8125,474.625 1571.125,474.75 1570.3594,474.75 C1568.3125,474.75 1567.0156,473.6563 1567.0156,471.9531 L1567.0156,470.8594 C1567.0156,469.0781 1568.2656,467.7656 1570,467.7656 C1570.5781,467.7656 1571.1875,467.9219 1571.6563,468.1719 C1572.1406,468.4531 1572.3125,468.6719 1572.4063,469.0781 C1572.4688,469.4844 1572.5,469.6094 1572.6406,469.7344 C1572.7813,469.875 1573.0156,469.9844 1573.2344,469.9844 C1573.5,469.9844 1573.7656,469.8438 1573.9375,469.625 C1574.0469,469.4688 1574.0781,469.2813 1574.0781,468.8594 L1574.0781,467.4375 C1574.0781,467 1574.0625,466.875 1573.9688,466.7188 C1573.8125,466.4531 1573.5313,466.3125 1573.2344,466.3125 C1572.9375,466.3125 1572.7344,466.4063 1572.5156,466.7188 L1572.3438,466.6406 Z " fill="#000000"/><text fill="#000000" font-family="sans-serif" font-size="12" lengthAdjust="spacingAndGlyphs" textLength="123" x="1584" y="468.1387">tictactoe.controllers.</text><text fill="#000000" font-family="sans-serif" font-size="12" lengthAdjust="spacingAndGlyphs" textLength="107" x="1592" y="482.1074">ResumeController</text><line style="stroke:#A80036;stroke-width:1.5;" x1="1556" x2="1709" y1="489.9375" y2="489.9375"/><line style="stroke:#A80036;stroke-width:1.5;" x1="1556" x2="1709" y1="497.9375" y2="497.9375"/><!--MD5=[d93cf99d2b92276f27fe8dbf15140505]
class YesNoDialog--><rect codeLine="7" fill="#FEFECE" filter="url(#f1bfg76w89qqkm)" height="53.9375" id="YesNoDialog" style="stroke:#A80036;stroke-width:1.5;" width="130" x="1389.5" y="452"/><ellipse cx="1404.5" cy="470.9688" fill="#ADD1B2" rx="11" ry="11" style="stroke:#A80036;stroke-width:1.0;"/><path d="M1406.8438,466.6406 C1405.9063,466.2031 1405.3125,466.0625 1404.4375,466.0625 C1401.8125,466.0625 1399.8125,468.1406 1399.8125,470.8594 L1399.8125,471.9844 C1399.8125,474.5625 1401.9219,476.4531 1404.8125,476.4531 C1406.0313,476.4531 1407.1875,476.1563 1407.9375,475.6094 C1408.5156,475.2031 1408.8438,474.75 1408.8438,474.3594 C1408.8438,473.9063 1408.4531,473.5156 1407.9844,473.5156 C1407.7656,473.5156 1407.5625,473.5938 1407.375,473.7813 C1406.9219,474.2656 1406.9219,474.2656 1406.7344,474.3594 C1406.3125,474.625 1405.625,474.75 1404.8594,474.75 C1402.8125,474.75 1401.5156,473.6563 1401.5156,471.9531 L1401.5156,470.8594 C1401.5156,469.0781 1402.7656,467.7656 1404.5,467.7656 C1405.0781,467.7656 1405.6875,467.9219 1406.1563,468.1719 C1406.6406,468.4531 1406.8125,468.6719 1406.9063,469.0781 C1406.9688,469.4844 1407,469.6094 1407.1406,469.7344 C1407.2813,469.875 1407.5156,469.9844 1407.7344,469.9844 C1408,469.9844 1408.2656,469.8438 1408.4375,469.625 C1408.5469,469.4688 1408.5781,469.2813 1408.5781,468.8594 L1408.5781,467.4375 C1408.5781,467 1408.5625,466.875 1408.4688,466.7188 C1408.3125,466.4531 1408.0313,466.3125 1407.7344,466.3125 C1407.4375,466.3125 1407.2344,466.4063 1407.0156,466.7188 L1406.8438,466.6406 Z " fill="#000000"/><text fill="#000000" font-family="sans-serif" font-size="12" lengthAdjust="spacingAndGlyphs" textLength="98" x="1418.5" y="468.1387">usantatecla.utils.</text><text fill="#000000" font-family="sans-serif" font-size="12" lengthAdjust="spacingAndGlyphs" textLength="76" x="1429.5" y="482.1074">YesNoDialog</text><line style="stroke:#A80036;stroke-width:1.5;" x1="1390.5" x2="1518.5" y1="489.9375" y2="489.9375"/><line style="stroke:#A80036;stroke-width:1.5;" x1="1390.5" x2="1518.5" y1="497.9375" y2="497.9375"/><!--MD5=[47c371471411cfedeee61b1a5bdaee47]
class StartController--><rect codeLine="8" fill="#FEFECE" filter="url(#f1bfg76w89qqkm)" height="53.9375" id="StartController" style="stroke:#A80036;stroke-width:1.5;" width="155" x="873" y="452"/><ellipse cx="888" cy="470.9688" fill="#ADD1B2" rx="11" ry="11" style="stroke:#A80036;stroke-width:1.0;"/><path d="M890.3438,466.6406 C889.4063,466.2031 888.8125,466.0625 887.9375,466.0625 C885.3125,466.0625 883.3125,468.1406 883.3125,470.8594 L883.3125,471.9844 C883.3125,474.5625 885.4219,476.4531 888.3125,476.4531 C889.5313,476.4531 890.6875,476.1563 891.4375,475.6094 C892.0156,475.2031 892.3438,474.75 892.3438,474.3594 C892.3438,473.9063 891.9531,473.5156 891.4844,473.5156 C891.2656,473.5156 891.0625,473.5938 890.875,473.7813 C890.4219,474.2656 890.4219,474.2656 890.2344,474.3594 C889.8125,474.625 889.125,474.75 888.3594,474.75 C886.3125,474.75 885.0156,473.6563 885.0156,471.9531 L885.0156,470.8594 C885.0156,469.0781 886.2656,467.7656 888,467.7656 C888.5781,467.7656 889.1875,467.9219 889.6563,468.1719 C890.1406,468.4531 890.3125,468.6719 890.4063,469.0781 C890.4688,469.4844 890.5,469.6094 890.6406,469.7344 C890.7813,469.875 891.0156,469.9844 891.2344,469.9844 C891.5,469.9844 891.7656,469.8438 891.9375,469.625 C892.0469,469.4688 892.0781,469.2813 892.0781,468.8594 L892.0781,467.4375 C892.0781,467 892.0625,466.875 891.9688,466.7188 C891.8125,466.4531 891.5313,466.3125 891.2344,466.3125 C890.9375,466.3125 890.7344,466.4063 890.5156,466.7188 L890.3438,466.6406 Z " fill="#000000"/><text fill="#000000" font-family="sans-serif" font-size="12" lengthAdjust="spacingAndGlyphs" textLength="123" x="902" y="468.1387">tictactoe.controllers.</text><text fill="#000000" font-family="sans-serif" font-size="12" lengthAdjust="spacingAndGlyphs" textLength="87" x="920" y="482.1074">StartController</text><line style="stroke:#A80036;stroke-width:1.5;" x1="874" x2="1027" y1="489.9375" y2="489.9375"/><line style="stroke:#A80036;stroke-width:1.5;" x1="874" x2="1027" y1="497.9375" y2="497.9375"/><!--MD5=[58767b3ac92ed88fc68bd4b9dc66dad3]
class LimitedIntDialog--><rect codeLine="9" fill="#FEFECE" filter="url(#f1bfg76w89qqkm)" height="53.9375" id="LimitedIntDialog" style="stroke:#A80036;stroke-width:1.5;" width="130" x="1063.5" y="452"/><ellipse cx="1078.5" cy="470.9688" fill="#ADD1B2" rx="11" ry="11" style="stroke:#A80036;stroke-width:1.0;"/><path d="M1080.8438,466.6406 C1079.9063,466.2031 1079.3125,466.0625 1078.4375,466.0625 C1075.8125,466.0625 1073.8125,468.1406 1073.8125,470.8594 L1073.8125,471.9844 C1073.8125,474.5625 1075.9219,476.4531 1078.8125,476.4531 C1080.0313,476.4531 1081.1875,476.1563 1081.9375,475.6094 C1082.5156,475.2031 1082.8438,474.75 1082.8438,474.3594 C1082.8438,473.9063 1082.4531,473.5156 1081.9844,473.5156 C1081.7656,473.5156 1081.5625,473.5938 1081.375,473.7813 C1080.9219,474.2656 1080.9219,474.2656 1080.7344,474.3594 C1080.3125,474.625 1079.625,474.75 1078.8594,474.75 C1076.8125,474.75 1075.5156,473.6563 1075.5156,471.9531 L1075.5156,470.8594 C1075.5156,469.0781 1076.7656,467.7656 1078.5,467.7656 C1079.0781,467.7656 1079.6875,467.9219 1080.1563,468.1719 C1080.6406,468.4531 1080.8125,468.6719 1080.9063,469.0781 C1080.9688,469.4844 1081,469.6094 1081.1406,469.7344 C1081.2813,469.875 1081.5156,469.9844 1081.7344,469.9844 C1082,469.9844 1082.2656,469.8438 1082.4375,469.625 C1082.5469,469.4688 1082.5781,469.2813 1082.5781,468.8594 L1082.5781,467.4375 C1082.5781,467 1082.5625,466.875 1082.4688,466.7188 C1082.3125,466.4531 1082.0313,466.3125 1081.7344,466.3125 C1081.4375,466.3125 1081.2344,466.4063 1081.0156,466.7188 L1080.8438,466.6406 Z " fill="#000000"/><text fill="#000000" font-family="sans-serif" font-size="12" lengthAdjust="spacingAndGlyphs" textLength="98" x="1092.5" y="468.1387">usantatecla.utils.</text><text fill="#000000" font-family="sans-serif" font-size="12" lengthAdjust="spacingAndGlyphs" textLength="95" x="1094" y="482.1074">LimitedIntDialog</text><line style="stroke:#A80036;stroke-width:1.5;" x1="1064.5" x2="1192.5" y1="489.9375" y2="489.9375"/><line style="stroke:#A80036;stroke-width:1.5;" x1="1064.5" x2="1192.5" y1="497.9375" y2="497.9375"/><!--MD5=[d8c8cfd5ca149094f5b67f9f607a5ec7]
class Token--><rect codeLine="10" fill="#FEFECE" filter="url(#f1bfg76w89qqkm)" height="53.9375" id="Token" style="stroke:#A80036;stroke-width:1.5;" width="135" x="703" y="452"/><ellipse cx="718" cy="470.9688" fill="#ADD1B2" rx="11" ry="11" style="stroke:#A80036;stroke-width:1.0;"/><path d="M720.3438,466.6406 C719.4063,466.2031 718.8125,466.0625 717.9375,466.0625 C715.3125,466.0625 713.3125,468.1406 713.3125,470.8594 L713.3125,471.9844 C713.3125,474.5625 715.4219,476.4531 718.3125,476.4531 C719.5313,476.4531 720.6875,476.1563 721.4375,475.6094 C722.0156,475.2031 722.3438,474.75 722.3438,474.3594 C722.3438,473.9063 721.9531,473.5156 721.4844,473.5156 C721.2656,473.5156 721.0625,473.5938 720.875,473.7813 C720.4219,474.2656 720.4219,474.2656 720.2344,474.3594 C719.8125,474.625 719.125,474.75 718.3594,474.75 C716.3125,474.75 715.0156,473.6563 715.0156,471.9531 L715.0156,470.8594 C715.0156,469.0781 716.2656,467.7656 718,467.7656 C718.5781,467.7656 719.1875,467.9219 719.6563,468.1719 C720.1406,468.4531 720.3125,468.6719 720.4063,469.0781 C720.4688,469.4844 720.5,469.6094 720.6406,469.7344 C720.7813,469.875 721.0156,469.9844 721.2344,469.9844 C721.5,469.9844 721.7656,469.8438 721.9375,469.625 C722.0469,469.4688 722.0781,469.2813 722.0781,468.8594 L722.0781,467.4375 C722.0781,467 722.0625,466.875 721.9688,466.7188 C721.8125,466.4531 721.5313,466.3125 721.2344,466.3125 C720.9375,466.3125 720.7344,466.4063 720.5156,466.7188 L720.3438,466.6406 Z " fill="#000000"/><text fill="#000000" font-family="sans-serif" font-size="12" lengthAdjust="spacingAndGlyphs" textLength="103" x="732" y="468.1387">tictactoe.models.</text><text fill="#000000" font-family="sans-serif" font-size="12" lengthAdjust="spacingAndGlyphs" textLength="37" x="765" y="482.1074">Token</text><line style="stroke:#A80036;stroke-width:1.5;" x1="704" x2="837" y1="489.9375" y2="489.9375"/><line style="stroke:#A80036;stroke-width:1.5;" x1="704" x2="837" y1="497.9375" y2="497.9375"/><!--MD5=[bea5b0d46523efab5ea1c1d339f396f0]
class Message--><rect codeLine="11" fill="#FEFECE" filter="url(#f1bfg76w89qqkm)" height="53.9375" id="Message" style="stroke:#A80036;stroke-width:1.5;" width="125" x="1229" y="452"/><ellipse cx="1244" cy="470.9688" fill="#ADD1B2" rx="11" ry="11" style="stroke:#A80036;stroke-width:1.0;"/><path d="M1246.3438,466.6406 C1245.4063,466.2031 1244.8125,466.0625 1243.9375,466.0625 C1241.3125,466.0625 1239.3125,468.1406 1239.3125,470.8594 L1239.3125,471.9844 C1239.3125,474.5625 1241.4219,476.4531 1244.3125,476.4531 C1245.5313,476.4531 1246.6875,476.1563 1247.4375,475.6094 C1248.0156,475.2031 1248.3438,474.75 1248.3438,474.3594 C1248.3438,473.9063 1247.9531,473.5156 1247.4844,473.5156 C1247.2656,473.5156 1247.0625,473.5938 1246.875,473.7813 C1246.4219,474.2656 1246.4219,474.2656 1246.2344,474.3594 C1245.8125,474.625 1245.125,474.75 1244.3594,474.75 C1242.3125,474.75 1241.0156,473.6563 1241.0156,471.9531 L1241.0156,470.8594 C1241.0156,469.0781 1242.2656,467.7656 1244,467.7656 C1244.5781,467.7656 1245.1875,467.9219 1245.6563,468.1719 C1246.1406,468.4531 1246.3125,468.6719 1246.4063,469.0781 C1246.4688,469.4844 1246.5,469.6094 1246.6406,469.7344 C1246.7813,469.875 1247.0156,469.9844 1247.2344,469.9844 C1247.5,469.9844 1247.7656,469.8438 1247.9375,469.625 C1248.0469,469.4688 1248.0781,469.2813 1248.0781,468.8594 L1248.0781,467.4375 C1248.0781,467 1248.0625,466.875 1247.9688,466.7188 C1247.8125,466.4531 1247.5313,466.3125 1247.2344,466.3125 C1246.9375,466.3125 1246.7344,466.4063 1246.5156,466.7188 L1246.3438,466.6406 Z " fill="#000000"/><text fill="#000000" font-family="sans-serif" font-size="12" lengthAdjust="spacingAndGlyphs" textLength="93" x="1258" y="468.1387">tictactoe.views.</text><text fill="#000000" font-family="sans-serif" font-size="12" lengthAdjust="spacingAndGlyphs" textLength="55" x="1277" y="482.1074">Message</text><line style="stroke:#A80036;stroke-width:1.5;" x1="1230" x2="1353" y1="489.9375" y2="489.9375"/><line style="stroke:#A80036;stroke-width:1.5;" x1="1230" x2="1353" y1="497.9375" y2="497.9375"/><!--MD5=[86cec68673cafdfc1c204348d5b2cca6]
class ErrorView--><rect codeLine="12" fill="#FEFECE" filter="url(#f1bfg76w89qqkm)" height="53.9375" id="ErrorView" style="stroke:#A80036;stroke-width:1.5;" width="125" x="202" y="7"/><ellipse cx="217" cy="25.9688" fill="#ADD1B2" rx="11" ry="11" style="stroke:#A80036;stroke-width:1.0;"/><path d="M219.3438,21.6406 C218.4063,21.2031 217.8125,21.0625 216.9375,21.0625 C214.3125,21.0625 212.3125,23.1406 212.3125,25.8594 L212.3125,26.9844 C212.3125,29.5625 214.4219,31.4531 217.3125,31.4531 C218.5313,31.4531 219.6875,31.1563 220.4375,30.6094 C221.0156,30.2031 221.3438,29.75 221.3438,29.3594 C221.3438,28.9063 220.9531,28.5156 220.4844,28.5156 C220.2656,28.5156 220.0625,28.5938 219.875,28.7813 C219.4219,29.2656 219.4219,29.2656 219.2344,29.3594 C218.8125,29.625 218.125,29.75 217.3594,29.75 C215.3125,29.75 214.0156,28.6563 214.0156,26.9531 L214.0156,25.8594 C214.0156,24.0781 215.2656,22.7656 217,22.7656 C217.5781,22.7656 218.1875,22.9219 218.6563,23.1719 C219.1406,23.4531 219.3125,23.6719 219.4063,24.0781 C219.4688,24.4844 219.5,24.6094 219.6406,24.7344 C219.7813,24.875 220.0156,24.9844 220.2344,24.9844 C220.5,24.9844 220.7656,24.8438 220.9375,24.625 C221.0469,24.4688 221.0781,24.2813 221.0781,23.8594 L221.0781,22.4375 C221.0781,22 221.0625,21.875 220.9688,21.7188 C220.8125,21.4531 220.5313,21.3125 220.2344,21.3125 C219.9375,21.3125 219.7344,21.4063 219.5156,21.7188 L219.3438,21.6406 Z " fill="#000000"/><text fill="#000000" font-family="sans-serif" font-size="12" lengthAdjust="spacingAndGlyphs" textLength="93" x="231" y="23.1387">tictactoe.views.</text><text fill="#000000" font-family="sans-serif" font-size="12" lengthAdjust="spacingAndGlyphs" textLength="59" x="248" y="37.1074">ErrorView</text><line style="stroke:#A80036;stroke-width:1.5;" x1="203" x2="326" y1="44.9375" y2="44.9375"/><line style="stroke:#A80036;stroke-width:1.5;" x1="203" x2="326" y1="52.9375" y2="52.9375"/><!--MD5=[9113815f8bbc012213d6467f94b3dc5b]
link tictactoe.views.console.ConsoleView to tictactoe.views.console.StartView--><path codeLine="21" d="M764.7271,244.887 C764.7271,244.887 774.199,277.837 778.381,292.385 " fill="none" id="tictactoe.views.console.ConsoleView-tictactoe.views.console.StartView" style="stroke:#A80036;stroke-width:1.0;"/><polygon fill="#A80036" points="782.069,305.214,783.4267,295.4592,780.6876,300.4086,775.7381,297.6695,782.069,305.214" style="stroke:#A80036;stroke-width:1.0;"/><line style="stroke:#A80036;stroke-width:1.0;" x1="780.6876" x2="778.4775" y1="300.4086" y2="292.72"/><polygon fill="#A80036" points="761.412,233.354,759.2252,240.2255,764.7271,244.887,766.9139,238.0155,761.412,233.354" style="stroke:#A80036;stroke-width:1.0;"/><!--MD5=[1735144fa38f1aa47117a26d071db586]
link tictactoe.views.console.ConsoleView to tictactoe.views.console.PlayView--><path codeLine="22" d="M684.7686,242.0631 C684.7686,242.0631 658.229,270.057 645.921,283.04 " fill="none" id="tictactoe.views.console.ConsoleView-tictactoe.views.console.PlayView" style="stroke:#A80036;stroke-width:1.0;"/><polygon fill="#A80036" points="636.69,292.777,645.7849,288.9977,640.13,289.1485,639.9793,283.4936,636.69,292.777" style="stroke:#A80036;stroke-width:1.0;"/><line style="stroke:#A80036;stroke-width:1.0;" x1="640.13" x2="645.634" y1="289.1485" y2="283.3425"/><polygon fill="#A80036" points="693.024,233.354,685.9933,234.9567,684.7686,242.0631,691.7993,240.4603,693.024,233.354" style="stroke:#A80036;stroke-width:1.0;"/><!--MD5=[a983e760d9bef84c565434062749d875]
link tictactoe.views.console.ConsoleView to tictactoe.views.console.ResumeView--><path codeLine="23" d="M847.8403,239.291 C847.8403,239.291 916.991,280.706 946.956,298.652 " fill="none" id="tictactoe.views.console.ConsoleView-tictactoe.views.console.ResumeView" style="stroke:#A80036;stroke-width:1.0;"/><polygon fill="#A80036" points="958.157,305.36,952.4913,297.3039,953.8675,302.7908,948.3807,304.1671,958.157,305.36" style="stroke:#A80036;stroke-width:1.0;"/><line style="stroke:#A80036;stroke-width:1.0;" x1="953.8675" x2="947.004" y1="302.7908" y2="298.6805"/><polygon fill="#A80036" points="837.545,233.126,840.6376,239.6403,847.8403,239.291,844.7476,232.7768,837.545,233.126" style="stroke:#A80036;stroke-width:1.0;"/><!--MD5=[a06a410d0f6c1be87ea9d2d5c8f79243]
link tictactoe.views.console.CoordinateView to Console--><path codeLine="29" d="M418.269,207.586 C381.185,264.638 300.135,389.331 262.473,447.2723 " fill="none" id="tictactoe.views.console.CoordinateView-to-Console" style="stroke:#A80036;stroke-width:1.0;stroke-dasharray:7.0,7.0;"/><polygon fill="#A80036" points="259.619,451.6625,267.8773,446.296,262.3437,447.4701,261.1695,441.9365,259.619,451.6625" style="stroke:#A80036;stroke-width:1.0;"/><!--MD5=[3ea4caf7e48eaae8f655dde5cd3263f2]
link tictactoe.views.console.CoordinateView to Error--><path codeLine="30" d="M389.473,207.672 C356.303,229.29 312.107,260.391 277.5,293 C226.224,341.316 230.699,369.809 177.5,416 C163.239,428.3829 146.189,439.7585 130.106,449.2916 " fill="none" id="tictactoe.views.console.CoordinateView-to-Error" style="stroke:#A80036;stroke-width:1.0;stroke-dasharray:7.0,7.0;"/><polygon fill="#A80036" points="125.598,451.9309,135.3856,450.834,129.9125,449.404,131.3425,443.9309,125.598,451.9309" style="stroke:#A80036;stroke-width:1.0;"/><!--MD5=[6e79601aef612c06e9891b4875f898f3]
link tictactoe.views.console.CoordinateView to Coordinate--><path codeLine="31" d="M434.837,207.586 C429.723,264.409 418.57,388.333 413.328,446.5724 " fill="none" id="tictactoe.views.console.CoordinateView-to-Coordinate" style="stroke:#A80036;stroke-width:1.0;stroke-dasharray:7.0,7.0;"/><polygon fill="#A80036" points="412.87,451.6625,417.6608,443.0574,413.3183,446.6826,409.693,442.3401,412.87,451.6625" style="stroke:#A80036;stroke-width:1.0;"/><!--MD5=[5e3154eeb00ff673e3597b7a5033dd40]
link tictactoe.views.console.ErrorView to Error--><path codeLine="37" d="M241.582,214.187 C203.853,273.758 129.329,391.427 93.9821,447.2389 " fill="none" id="tictactoe.views.console.ErrorView-to-Error" style="stroke:#A80036;stroke-width:1.0;stroke-dasharray:7.0,7.0;"/><polygon fill="#A80036" points="91.0955,451.7966,99.2902,446.3334,93.7708,447.5725,92.5317,442.053,91.0955,451.7966" style="stroke:#A80036;stroke-width:1.0;"/><!--MD5=[8ec17c1eeb1fabb729f4f45734e470f6]
link tictactoe.views.console.ErrorView to Console--><path codeLine="38" d="M261.846,214.187 C257.495,273.519 248.918,390.483 244.805,446.5635 " fill="none" id="tictactoe.views.console.ErrorView-to-Console" style="stroke:#A80036;stroke-width:1.0;stroke-dasharray:7.0,7.0;"/><polygon fill="#A80036" points="244.422,451.7966,249.0698,443.1134,244.7878,446.81,241.0912,442.5281,244.422,451.7966" style="stroke:#A80036;stroke-width:1.0;"/><!--MD5=[09df14cf147ebf3fa601d40955ce3c27]
reverse link ErrorView to tictactoe.views.console.ErrorView--><path codeLine="39" d="M264.5,81.201 C264.5,100.25 264.5,121.995 264.5,139.851 " fill="none" id="ErrorView-backto-tictactoe.views.console.ErrorView" style="stroke:#A80036;stroke-width:1.0;"/><polygon fill="none" points="257.5,81.191,264.5,61.191,271.5,81.191,257.5,81.191" style="stroke:#A80036;stroke-width:1.0;"/><!--MD5=[cd0d4672137ef597b8c17bafce16f393]
link tictactoe.views.console.GameView to Controller--><path codeLine="46" d="M1099.2756,222.1598 C1099.2756,222.1598 1168.52,282.383 1196.68,306.869 " fill="none" id="tictactoe.views.console.GameView-Controller" style="stroke:#A80036;stroke-width:1.0;"/><polygon fill="#A80036" points="1206.57,315.474,1202.4023,306.5504,1202.7966,312.1935,1197.1535,312.5878,1206.57,315.474" style="stroke:#A80036;stroke-width:1.0;"/><line style="stroke:#A80036;stroke-width:1.0;" x1="1202.7966" x2="1196.765" y1="312.1935" y2="306.9435"/><polygon fill="#A80036" points="1090.22,214.286,1092.1232,221.2414,1099.2756,222.1598,1097.3724,215.2044,1090.22,214.286" style="stroke:#A80036;stroke-width:1.0;"/><!--MD5=[0e43d69a696b22bc5281d1cc9667df5e]
link tictactoe.views.console.GameView to Coordinate--><path codeLine="47" d="M995.104,214.164 C982.271,221.443 968.277,228.294 954.5,233 C758.14,300.068 657.501,168.503 491.5,293 C478.389,302.833 441.223,396.983 422.133,447.044 " fill="none" id="tictactoe.views.console.GameView-to-Coordinate" style="stroke:#A80036;stroke-width:1.0;stroke-dasharray:7.0,7.0;"/><polygon fill="#A80036" points="420.343,451.7466,427.2827,444.758,422.1215,447.0736,419.8059,441.9124,420.343,451.7466" style="stroke:#A80036;stroke-width:1.0;"/><!--MD5=[08b09d3eac180f3c67266adaed935b89]
link tictactoe.views.console.GameView to Message--><path codeLine="48" d="M1124.78,185.787 C1191.84,197.122 1285.68,224.915 1331.5,293 C1362.02,338.351 1346.95,363.561 1331.5,416 C1328.24,427.0818 1322.31,438.0505 1316,447.6102 " fill="none" id="tictactoe.views.console.GameView-to-Message" style="stroke:#A80036;stroke-width:1.0;stroke-dasharray:7.0,7.0;"/><polygon fill="#A80036" points="1313.08,451.8988,1321.4448,446.6998,1315.8886,447.7622,1314.8262,442.206,1313.08,451.8988" style="stroke:#A80036;stroke-width:1.0;"/><!--MD5=[a10986738d33eef60265d57fa5080b93]
link tictactoe.views.console.PlayView to PlayController--><path codeLine="57" d="M590.5,404.058 C590.5,404.058 590.5,428.1499 590.5,438.6879 " fill="none" id="tictactoe.views.console.PlayView-PlayController" style="stroke:#A80036;stroke-width:1.0;"/><polygon fill="#A80036" points="590.5,451.7877,594.5,442.7877,590.5,446.7877,586.5,442.7877,590.5,451.7877" style="stroke:#A80036;stroke-width:1.0;"/><line style="stroke:#A80036;stroke-width:1.0;" x1="590.5" x2="590.5" y1="446.7877" y2="438.7877"/><polygon fill="#A80036" points="590.5,392.058,586.5,398.058,590.5,404.058,594.5,398.058,590.5,392.058" style="stroke:#A80036;stroke-width:1.0;"/><!--MD5=[3b49bdf6c7f6ce83eed251a9af28dbf3]
link tictactoe.views.console.PlayView to Coordinate--><path codeLine="58" d="M525.516,392.058 C500.015,411.1127 471.603,432.3428 449.398,448.9348 " fill="none" id="tictactoe.views.console.PlayView-to-Coordinate" style="stroke:#A80036;stroke-width:1.0;stroke-dasharray:7.0,7.0;"/><polygon fill="#A80036" points="445.326,451.9774,454.9299,449.7945,449.3313,448.9845,450.1413,443.3859,445.326,451.9774" style="stroke:#A80036;stroke-width:1.0;"/><!--MD5=[f335b251d0d5a458b635239e43cc0bb5]
link tictactoe.views.console.PlayView to Message--><path codeLine="59" d="M645.422,392.006 C658.999,401.563 674.094,410.3669 689.5,416 C907.493,495.7069 982.56,408.2115 1210.5,452 C1214.87,452.8389 1219.33,453.8402 1223.8,454.954 " fill="none" id="tictactoe.views.console.PlayView-to-Message" style="stroke:#A80036;stroke-width:1.0;stroke-dasharray:7.0,7.0;"/><polygon fill="#A80036" points="1228.65,456.2044,1220.9441,450.071,1223.8105,454.9479,1218.9336,457.8143,1228.65,456.2044" style="stroke:#A80036;stroke-width:1.0;"/><!--MD5=[b8eae5493de689ae966fe038f1428b07]
link tictactoe.views.console.PlayView to Error--><path codeLine="60" d="M508.754,362.784 C421.826,383.593 280.472,418.2947 159.5,452 C155.44,453.1313 151.278,454.3171 147.084,455.5329 " fill="none" id="tictactoe.views.console.PlayView-to-Error" style="stroke:#A80036;stroke-width:1.0;stroke-dasharray:7.0,7.0;"/><polygon fill="#A80036" points="142.148,456.9726,151.908,458.2926,146.948,455.5726,149.668,450.6126,142.148,456.9726" style="stroke:#A80036;stroke-width:1.0;"/><!--MD5=[248c182d20997509763909b55503e1c8]
link tictactoe.views.console.ResumeView to ResumeController--><path codeLine="66" d="M1078.3448,385.8967 C1078.3448,385.8967 1120.1,409.1072 1141.5,416 C1309.71,470.187 1363.59,420.5519 1537.5,452 C1539.02,452.2748 1540.55,452.5626 1542.09,452.8621 " fill="none" id="tictactoe.views.console.ResumeView-ResumeController" style="stroke:#A80036;stroke-width:1.0;"/><polygon fill="#A80036" points="1554.99,455.5881,1547.0106,449.815,1550.0979,454.5551,1545.3578,457.6424,1554.99,455.5881" style="stroke:#A80036;stroke-width:1.0;"/><line style="stroke:#A80036;stroke-width:1.0;" x1="1550.0979" x2="1542.27" y1="454.5551" y2="452.9002"/><polygon fill="#A80036" points="1068.15,379.567,1071.1375,386.1301,1078.3448,385.8967,1075.3573,379.3336,1068.15,379.567" style="stroke:#A80036;stroke-width:1.0;"/><!--MD5=[45d6b98411685f94cdacdaac3bc1e164]
link tictactoe.views.console.ResumeView to Message--><path codeLine="67" d="M1075.76,379.509 C1096.16,391.733 1119.54,405.056 1141.5,416 C1167.97,429.1915 1197.96,441.9889 1224.12,452.4975 " fill="none" id="tictactoe.views.console.ResumeView-to-Message" style="stroke:#A80036;stroke-width:1.0;stroke-dasharray:7.0,7.0;"/><polygon fill="#A80036" points="1228.96,454.4326,1222.0894,447.376,1224.3177,452.5755,1219.1181,454.8038,1228.96,454.4326" style="stroke:#A80036;stroke-width:1.0;"/><!--MD5=[8fe1c1d6283f66daa4ac51944081ccb1]
link tictactoe.views.console.ResumeView to YesNoDialog--><path codeLine="68" d="M1069.62,379.502 C1090.95,392.924 1116.53,407.0566 1141.5,416 C1238.91,450.8886 1270.74,428.4707 1371.5,452 C1375.62,452.9626 1379.84,454.0261 1384.07,455.1569 " fill="none" id="tictactoe.views.console.ResumeView-to-YesNoDialog" style="stroke:#A80036;stroke-width:1.0;stroke-dasharray:7.0,7.0;"/><polygon fill="#A80036" points="1389.05,456.5132,1381.4179,450.2882,1384.2258,455.1989,1379.3151,458.0069,1389.05,456.5132" style="stroke:#A80036;stroke-width:1.0;"/><!--MD5=[05cc99d857866a96ee1f197cb8d1830a]
link tictactoe.views.console.StartView to StartController--><path codeLine="74" d="M843.9782,387.3229 C843.9782,387.3229 889.883,426.3984 909.654,443.2289 " fill="none" id="tictactoe.views.console.StartView-StartController" style="stroke:#A80036;stroke-width:1.0;"/><polygon fill="#A80036" points="919.573,451.6727,915.3128,442.7929,915.7657,448.4316,910.1271,448.8845,919.573,451.6727" style="stroke:#A80036;stroke-width:1.0;"/><line style="stroke:#A80036;stroke-width:1.0;" x1="915.7657" x2="909.6735" y1="448.4316" y2="443.246"/><polygon fill="#A80036" points="834.841,379.544,836.8166,386.4792,843.9782,387.3229,842.0026,380.3877,834.841,379.544" style="stroke:#A80036;stroke-width:1.0;"/><!--MD5=[cbe56104a70ea1577228555875c75924]
link tictactoe.views.console.StartView to Message--><path codeLine="75" d="M833.839,379.756 C851.646,393.386 873.427,407.6017 895.5,416 C1027.2,466.1086 1072.75,422.3232 1210.5,452 C1214.85,452.9365 1219.29,454.0125 1223.75,455.182 " fill="none" id="tictactoe.views.console.StartView-to-Message" style="stroke:#A80036;stroke-width:1.0;stroke-dasharray:7.0,7.0;"/><polygon fill="#A80036" points="1228.59,456.4856,1220.9395,450.2831,1223.762,455.1856,1218.8595,458.008,1228.59,456.4856" style="stroke:#A80036;stroke-width:1.0;"/><!--MD5=[f18569398a34687a26f0429a50bef928]
link tictactoe.views.console.StartView to LimitedIntDialog--><path codeLine="76" d="M835.892,379.546 C853.489,392.649 874.576,406.5445 895.5,416 C957.977,444.2334 979.416,433.7422 1045.5,452 C1049.78,453.1812 1054.16,454.4337 1058.58,455.7256 " fill="none" id="tictactoe.views.console.StartView-to-LimitedIntDialog" style="stroke:#A80036;stroke-width:1.0;stroke-dasharray:7.0,7.0;"/><polygon fill="#A80036" points="1063.38,457.1413,1055.879,450.7589,1058.5842,455.727,1053.6161,458.4322,1063.38,457.1413" style="stroke:#A80036;stroke-width:1.0;"/><!--MD5=[6ea791314a7012eef494e5b69e119c48]
link tictactoe.views.console.StartView to Token--><path codeLine="83" d="M784.6669,391.3866 C784.6669,391.3866 779.299,424.2062 776.943,438.6092 " fill="none" id="tictactoe.views.console.StartView-Token" style="stroke:#A80036;stroke-width:1.0;"/><polygon fill="#A80036" points="774.806,451.6727,780.2065,443.4365,775.6132,446.7383,772.3114,442.145,774.806,451.6727" style="stroke:#A80036;stroke-width:1.0;"/><line style="stroke:#A80036;stroke-width:1.0;" x1="775.6132" x2="776.905" y1="446.7383" y2="438.8432"/><polygon fill="#A80036" points="786.604,379.544,781.6879,384.8196,784.6669,391.3866,789.583,386.111,786.604,379.544" style="stroke:#A80036;stroke-width:1.0;"/><!--MD5=[e5fc69a5d7b9edfb586c1b6276c53e05]
link tictactoe.views.console.StartView to Console--><path codeLine="84" d="M751.717,379.546 C733.831,393.317 711.842,407.6936 689.5,416 C537.124,472.6521 484.792,419.5316 325.5,452 C321.353,452.8454 317.118,453.8174 312.866,454.8781 " fill="none" id="tictactoe.views.console.StartView-to-Console" style="stroke:#A80036;stroke-width:1.0;stroke-dasharray:7.0,7.0;"/><polygon fill="#A80036" points="307.869,456.1618,317.5813,457.7963,312.7117,454.9175,315.5904,450.0479,307.869,456.1618" style="stroke:#A80036;stroke-width:1.0;"/><!--MD5=[eed789786e30a8e7391ecd21973d4a93]
@startuml
class Error as "tictactoe.models.\nError" {}
class Coordinate as "tictactoe.models.\nCoordinate" {}
class Console as "usantatecla.utils.\nConsole" {}
class Controller as "tictactoe.controllers.\nController" {}
class PlayController as "tictactoe.controllers.\nPlayController" {}
class ResumeController as "tictactoe.controllers.\nResumeController" {}
class YesNoDialog as "usantatecla.utils.\nYesNoDialog" {}
class StartController as "tictactoe.controllers.\nStartController" {}
class LimitedIntDialog as "usantatecla.utils.\nLimitedIntDialog" {}
class Token as "tictactoe.models.\nToken" {}
class Message as "tictactoe.views.\nMessage" {}
class ErrorView as "tictactoe.views.\nErrorView" {}

class tictactoe.views.console.ConsoleView{
+ ConsoleView(StartController, PlayController, ResumeController)
+ interact()
# start()
# play()
# isResumed(): boolean
}
tictactoe.views.console.ConsoleView *-down-> tictactoe.views.console.StartView
tictactoe.views.console.ConsoleView *-down-> tictactoe.views.console.PlayView
tictactoe.views.console.ConsoleView *-down-> tictactoe.views.console.ResumeView

class tictactoe.views.console.CoordinateView {
+ read(String): Coordinate
}

tictactoe.views.console.CoordinateView .down.> Console
tictactoe.views.console.CoordinateView .down.> Error
tictactoe.views.console.CoordinateView .down.> Coordinate

class  tictactoe.views.console.ErrorView{
~ ErrorView(Error)
~ writeln()
}
tictactoe.views.console.ErrorView .down.> Error
tictactoe.views.console.ErrorView .down.> Console
ErrorView <|-down- tictactoe.views.console.ErrorView

class  tictactoe.views.console.GameView{
~ GameView(Controller)
~ write()
}

tictactoe.views.console.GameView *-down-> Controller
tictactoe.views.console.GameView .down.> Coordinate
tictactoe.views.console.GameView .down.> Message

class  tictactoe.views.console.PlayView{
~ PlayView(PlayController)
~ interact()
- put()
- move()
}

tictactoe.views.console.PlayView *-down-> PlayController
tictactoe.views.console.PlayView .down.> Coordinate
tictactoe.views.console.PlayView .down.> Message
tictactoe.views.console.PlayView .down.> Error

class  tictactoe.views.console.ResumeView{
+ ResumeView(ResumeController)
~ interact(): boolean
}
tictactoe.views.console.ResumeView *-down-> ResumeController
tictactoe.views.console.ResumeView .down.> Message
tictactoe.views.console.ResumeView .down.> YesNoDialog

class tictactoe.views.console.StartView{
~ StartView(StartController)
~ interact(): void
}
tictactoe.views.console.StartView *-down-> StartController
tictactoe.views.console.StartView .down.> Message
tictactoe.views.console.StartView .down.> LimitedIntDialog

class tictactoe.views.console.TokenView{
+ {static} SYMBOLS: char[]
~ TokenView(Token)
~ write()
}
tictactoe.views.console.StartView *-down-> Token
tictactoe.views.console.StartView .down.> Console
@enduml

PlantUML version 1.2020.22(Sun Dec 06 09:36:27 UTC 2020)
(GPL source distribution)
Java Runtime: Java(TM) SE Runtime Environment
JVM: Java HotSpot(TM) 64-Bit Server VM
Default Encoding: UTF-8
Language: en
Country: US
--></g></svg>