<?xml version="1.0" encoding="UTF-8" standalone="no"?><svg xmlns="http://www.w3.org/2000/svg" xmlns:xlink="http://www.w3.org/1999/xlink" contentScriptType="application/ecmascript" contentStyleType="text/css" height="189px" preserveAspectRatio="none" style="width:213px;height:189px;" version="1.1" viewBox="0 0 213 189" width="213px" zoomAndPan="magnify"><defs><filter height="300%" id="f1i6h1e5b14jrk" width="300%" x="-1" y="-1"><feGaussianBlur result="blurOut" stdDeviation="2.0"/><feColorMatrix in="blurOut" result="blurOut2" type="matrix" values="0 0 0 0 0 0 0 0 0 0 0 0 0 0 0 0 0 0 .4 0"/><feOffset dx="4.0" dy="4.0" in="blurOut2" result="blurOut3"/><feBlend in="SourceGraphic" in2="blurOut3" mode="normal"/></filter></defs><g><!--MD5=[2d083dca3cab6023baf6a9cac5f9557f]
cluster tictactoe.types--><polygon fill="#FFFFFF" filter="url(#f1i6h1e5b14jrk)" points="16,6,148,6,155,28.2969,196,28.2969,196,182,16,182,16,6" style="stroke:#000000;stroke-width:1.5;"/><line style="stroke:#000000;stroke-width:1.5;" x1="16" x2="155" y1="28.2969" y2="28.2969"/><text fill="#000000" font-family="sans-serif" font-size="14" font-weight="bold" lengthAdjust="spacingAndGlyphs" textLength="126" x="20" y="20.9951">tictactoe.types</text><!--MD5=[1aab8645402f9730c5a520f7fa330421]
class tictactoe.types.Error--><rect codeLine="1" fill="#FEFECE" filter="url(#f1i6h1e5b14jrk)" height="124.8281" id="tictactoe.types.Error" style="stroke:#A80036;stroke-width:1.5;" width="147" x="32.5" y="41"/><ellipse cx="86.75" cy="57" fill="#EB937F" rx="11" ry="11" style="stroke:#A80036;stroke-width:1.0;"/><path d="M85.5469,57.875 L87,57.875 L87,57.9844 C87,58.3906 87.0313,58.5469 87.1094,58.7031 C87.2656,58.9531 87.5469,59.1094 87.8438,59.1094 C88.0938,59.1094 88.3594,58.9688 88.5156,58.75 C88.6406,58.5938 88.6719,58.4375 88.6719,57.9844 L88.6719,56.0625 C88.6719,55.9063 88.6719,55.8594 88.6563,55.7031 C88.5938,55.2344 88.2813,54.9219 87.8281,54.9219 C87.5781,54.9219 87.3125,55.0625 87.1406,55.2813 C87.0313,55.4531 87,55.6094 87,56.0625 L87,56.1875 L85.5469,56.1875 L85.5469,53.7813 L89.5313,53.7813 L89.5313,54.6406 C89.5313,55.0469 89.5625,55.2188 89.6406,55.375 C89.8125,55.625 90.0938,55.7813 90.375,55.7813 C90.6406,55.7813 90.9063,55.6406 91.0781,55.4219 C91.1875,55.25 91.2188,55.1094 91.2188,54.6406 L91.2188,52.0938 L83.5938,52.0938 C83.1563,52.0938 83.0313,52.1094 82.875,52.2031 C82.625,52.3594 82.4688,52.6563 82.4688,52.9375 C82.4688,53.2188 82.6094,53.4688 82.8281,53.6406 C82.9844,53.75 83.1719,53.7813 83.5938,53.7813 L83.8438,53.7813 L83.8438,60.2969 L83.5938,60.2969 C83.1875,60.2969 83.0313,60.3125 82.875,60.4219 C82.625,60.5938 82.4688,60.8594 82.4688,61.1563 C82.4688,61.4219 82.6094,61.6719 82.8281,61.8281 C82.9688,61.9531 83.2031,62 83.5938,62 L91.5938,62 L91.5938,59.4219 C91.5938,58.9844 91.5625,58.8438 91.4844,58.6875 C91.3125,58.4375 91.0313,58.2813 90.75,58.2813 C90.4844,58.2813 90.2188,58.3906 90.0469,58.6406 C89.9375,58.7969 89.9063,58.9375 89.9063,59.4219 L89.9063,60.2969 L85.5469,60.2969 L85.5469,57.875 Z " fill="#000000"/><text fill="#000000" font-family="sans-serif" font-size="12" lengthAdjust="spacingAndGlyphs" textLength="30" x="107.25" y="61.1543">Error</text><line style="stroke:#A80036;stroke-width:1.5;" x1="33.5" x2="178.5" y1="73" y2="73"/><ellipse cx="43.5" cy="84" fill="none" rx="3" ry="3" style="stroke:#038048;stroke-width:1.0;"/><text fill="#000000" font-family="sans-serif" font-size="11" lengthAdjust="spacingAndGlyphs" textLength="66" x="52.5" y="87.2104">NOT_EMPTY</text><ellipse cx="43.5" cy="96.8047" fill="none" rx="3" ry="3" style="stroke:#038048;stroke-width:1.0;"/><text fill="#000000" font-family="sans-serif" font-size="11" lengthAdjust="spacingAndGlyphs" textLength="72" x="52.5" y="100.0151">NOT_OWNER</text><ellipse cx="43.5" cy="109.6094" fill="none" rx="3" ry="3" style="stroke:#038048;stroke-width:1.0;"/><text fill="#000000" font-family="sans-serif" font-size="11" lengthAdjust="spacingAndGlyphs" textLength="121" x="52.5" y="112.8198">SAME_COORDINATES</text><ellipse cx="43.5" cy="122.4141" fill="none" rx="3" ry="3" style="stroke:#038048;stroke-width:1.0;"/><text fill="#000000" font-family="sans-serif" font-size="11" lengthAdjust="spacingAndGlyphs" textLength="64" x="52.5" y="125.6245">NOT_VALID</text><ellipse cx="43.5" cy="135.2188" fill="none" rx="3" ry="3" style="stroke:#038048;stroke-width:1.0;"/><text fill="#000000" font-family="sans-serif" font-size="11" lengthAdjust="spacingAndGlyphs" textLength="71" x="52.5" y="138.4292">NULL_ERROR</text><line style="stroke:#A80036;stroke-width:1.5;" x1="33.5" x2="178.5" y1="145.0234" y2="145.0234"/><ellipse cx="43.5" cy="156.0234" fill="#84BE84" rx="3" ry="3" style="stroke:#038048;stroke-width:1.0;"/><text fill="#000000" font-family="sans-serif" font-size="11" lengthAdjust="spacingAndGlyphs" textLength="91" x="52.5" y="159.2339">isNull(): boolean</text><!--MD5=[e94747a1438a7715d9d612fea0fa1c94]
@startuml
enum  tictactoe.types.Error{
+ NOT_EMPTY
+ NOT_OWNER
+ SAME_COORDINATES
+ NOT_VALID
+ NULL_ERROR
+ isNull(): boolean
}
@enduml

PlantUML version 1.2020.21beta7(Unknown compile time)
(GPL source distribution)
Java Runtime: Java(TM) SE Runtime Environment
JVM: Java HotSpot(TM) 64-Bit Server VM
Default Encoding: UTF-8
Language: en
Country: US
--></g></svg>