<?xml version="1.0" encoding="UTF-8" standalone="no"?><svg xmlns="http://www.w3.org/2000/svg" xmlns:xlink="http://www.w3.org/1999/xlink" contentScriptType="application/ecmascript" contentStyleType="text/css" height="388px" preserveAspectRatio="none" style="width:1490px;height:388px;" version="1.1" viewBox="0 0 1490 388" width="1490px" zoomAndPan="magnify"><defs><filter height="300%" id="f16xtj87e3ep3w" width="300%" x="-1" y="-1"><feGaussianBlur result="blurOut" stdDeviation="2.0"/><feColorMatrix in="blurOut" result="blurOut2" type="matrix" values="0 0 0 0 0 0 0 0 0 0 0 0 0 0 0 0 0 0 .4 0"/><feOffset dx="4.0" dy="4.0" in="blurOut2" result="blurOut3"/><feBlend in="SourceGraphic" in2="blurOut3" mode="normal"/></filter></defs><g><!--MD5=[807bc46d8103c809ff053af9e140e1f5]
cluster tictactoe--><polygon fill="#FFFFFF" filter="url(#f16xtj87e3ep3w)" points="268.3218,6,350.3218,6,357.3218,28.2969,1251.3198,28.2969,1251.3198,277,268.3218,277,268.3218,6" style="stroke:#000000;stroke-width:1.5;"/><line style="stroke:#000000;stroke-width:1.5;" x1="268.3218" x2="357.3218" y1="28.2969" y2="28.2969"/><text fill="#000000" font-family="sans-serif" font-size="14" font-weight="bold" lengthAdjust="spacingAndGlyphs" textLength="76" x="272.3218" y="20.9951">tictactoe</text><!--MD5=[d26da01265d646b7f841c2729736529c]
class tictactoe.ConsoleTicTacToe--><rect codeLine="9" fill="#FEFECE" filter="url(#f16xtj87e3ep3w)" height="73.6094" id="tictactoe.ConsoleTicTacToe" style="stroke:#A80036;stroke-width:1.5;" width="456" x="779.3218" y="187"/><ellipse cx="948.0718" cy="203" fill="#ADD1B2" rx="11" ry="11" style="stroke:#A80036;stroke-width:1.0;"/><path d="M950.4156,198.6719 C949.4781,198.2344 948.8843,198.0938 948.0093,198.0938 C945.3843,198.0938 943.3843,200.1719 943.3843,202.8906 L943.3843,204.0156 C943.3843,206.5938 945.4937,208.4844 948.3843,208.4844 C949.6031,208.4844 950.7593,208.1875 951.5093,207.6406 C952.0874,207.2344 952.4156,206.7813 952.4156,206.3906 C952.4156,205.9375 952.0249,205.5469 951.5562,205.5469 C951.3374,205.5469 951.1343,205.625 950.9468,205.8125 C950.4937,206.2969 950.4937,206.2969 950.3062,206.3906 C949.8843,206.6563 949.1968,206.7813 948.4312,206.7813 C946.3843,206.7813 945.0874,205.6875 945.0874,203.9844 L945.0874,202.8906 C945.0874,201.1094 946.3374,199.7969 948.0718,199.7969 C948.6499,199.7969 949.2593,199.9531 949.7281,200.2031 C950.2124,200.4844 950.3843,200.7031 950.4781,201.1094 C950.5406,201.5156 950.5718,201.6406 950.7124,201.7656 C950.8531,201.9063 951.0874,202.0156 951.3062,202.0156 C951.5718,202.0156 951.8374,201.875 952.0093,201.6563 C952.1187,201.5 952.1499,201.3125 952.1499,200.8906 L952.1499,199.4688 C952.1499,199.0313 952.1343,198.9063 952.0406,198.75 C951.8843,198.4844 951.6031,198.3438 951.3062,198.3438 C951.0093,198.3438 950.8062,198.4375 950.5874,198.75 L950.4156,198.6719 Z " fill="#000000"/><text fill="#000000" font-family="sans-serif" font-size="12" lengthAdjust="spacingAndGlyphs" textLength="110" x="968.5718" y="207.1543">ConsoleTicTacToe</text><line style="stroke:#A80036;stroke-width:1.5;" x1="780.3218" x2="1234.3218" y1="219" y2="219"/><line style="stroke:#A80036;stroke-width:1.5;" x1="780.3218" x2="1234.3218" y1="227" y2="227"/><ellipse cx="790.3218" cy="238" fill="#84BE84" rx="3" ry="3" style="stroke:#038048;stroke-width:1.0;"/><text fill="#000000" font-family="sans-serif" font-size="11" lengthAdjust="spacingAndGlyphs" text-decoration="underline" textLength="77" x="799.3218" y="241.2104">main(String[])</text><polygon fill="#FFFF44" points="790.3218,245.8047,794.3218,249.8047,790.3218,253.8047,786.3218,249.8047" style="stroke:#B38D22;stroke-width:1.0;"/><text fill="#000000" font-family="sans-serif" font-size="11" lengthAdjust="spacingAndGlyphs" textLength="430" x="799.3218" y="254.0151">createView(StartController, PlayController, ResumeController): ConsoleView</text><!--MD5=[dcfee6ff2a733e6a859ce2b7bcbe021e]
class tictactoe.TicTacToe--><rect codeLine="29" fill="#FEFECE" filter="url(#f16xtj87e3ep3w)" height="86.4141" id="tictactoe.TicTacToe" style="stroke:#A80036;stroke-width:1.5;" width="413" x="307.8218" y="41"/><ellipse cx="480.5718" cy="57" fill="#A9DCDF" rx="11" ry="11" style="stroke:#A80036;stroke-width:1.0;"/><path d="M482.6499,58.8125 L483.0406,59.7969 L482.6499,59.7969 C482.1968,59.7969 482.0874,59.8125 481.9312,59.9219 C481.6812,60.0781 481.5249,60.3594 481.5249,60.6563 C481.5249,60.9219 481.6656,61.1719 481.8843,61.3281 C482.0249,61.4531 482.2281,61.5 482.6499,61.5 L485.0093,61.5 C485.3687,61.5 485.5874,61.4688 485.7281,61.375 C485.9781,61.2344 486.1343,60.9375 486.1343,60.6563 C486.1343,60.375 485.9937,60.125 485.7749,59.9688 C485.6031,59.8281 485.4468,59.7969 484.9781,59.7969 L481.5874,51.5938 L477.9156,51.5938 C477.4624,51.5938 477.3374,51.6094 477.1812,51.7031 C476.9312,51.875 476.7749,52.1563 476.7749,52.4375 C476.7749,52.7188 476.9156,52.9688 477.1343,53.1406 C477.3062,53.25 477.4781,53.2813 477.9156,53.2813 L478.9937,53.2813 L476.3531,59.7969 C475.9312,59.7969 475.7749,59.8125 475.6187,59.9219 C475.3687,60.0781 475.2124,60.3594 475.2124,60.6563 C475.2124,61.2188 475.5874,61.5 476.3374,61.5 L478.6031,61.5 C478.9624,61.5 479.1812,61.4688 479.3062,61.375 C479.5718,61.2344 479.7124,60.9375 479.7124,60.6563 C479.7124,60.375 479.5874,60.125 479.3687,59.9531 C479.1968,59.8281 479.0562,59.7969 478.6031,59.7969 L478.2124,59.7969 L478.6031,58.8125 L482.6499,58.8125 Z M481.9468,57.1094 L479.2749,57.1094 L480.6187,53.8438 L481.9468,57.1094 Z " fill="#000000"/><text fill="#000000" font-family="sans-serif" font-size="12" font-style="italic" lengthAdjust="spacingAndGlyphs" textLength="59" x="501.0718" y="61.1543">TicTacToe</text><line style="stroke:#A80036;stroke-width:1.5;" x1="308.8218" x2="719.8218" y1="73" y2="73"/><line style="stroke:#A80036;stroke-width:1.5;" x1="308.8218" x2="719.8218" y1="81" y2="81"/><polygon fill="#FFFF44" points="318.8218,87,322.8218,91,318.8218,95,314.8218,91" style="stroke:#B38D22;stroke-width:1.0;"/><text fill="#000000" font-family="sans-serif" font-size="11" lengthAdjust="spacingAndGlyphs" textLength="66" x="327.8218" y="95.2104">TicTacToe()</text><polygon fill="#FFFF44" points="318.8218,99.8047,322.8218,103.8047,318.8218,107.8047,314.8218,103.8047" style="stroke:#B38D22;stroke-width:1.0;"/><text fill="#000000" font-family="sans-serif" font-size="11" font-style="italic" lengthAdjust="spacingAndGlyphs" textLength="387" x="327.8218" y="108.0151">createView(StartController, PlayController, ResumeController): View</text><polygon fill="#FFFF44" points="318.8218,112.6094,322.8218,116.6094,318.8218,120.6094,314.8218,116.6094" style="stroke:#B38D22;stroke-width:1.0;"/><text fill="#000000" font-family="sans-serif" font-size="11" lengthAdjust="spacingAndGlyphs" textLength="32" x="327.8218" y="120.8198">play()</text><!--MD5=[288019f38859c158505575d95d6bbed7]
class tictactoe.GraphicsTicTacToe--><rect codeLine="19" fill="#FEFECE" filter="url(#f16xtj87e3ep3w)" height="73.6094" id="tictactoe.GraphicsTicTacToe" style="stroke:#A80036;stroke-width:1.5;" width="459" x="284.8218" y="187"/><ellipse cx="453.0718" cy="203" fill="#ADD1B2" rx="11" ry="11" style="stroke:#A80036;stroke-width:1.0;"/><path d="M455.4156,198.6719 C454.4781,198.2344 453.8843,198.0938 453.0093,198.0938 C450.3843,198.0938 448.3843,200.1719 448.3843,202.8906 L448.3843,204.0156 C448.3843,206.5938 450.4937,208.4844 453.3843,208.4844 C454.6031,208.4844 455.7593,208.1875 456.5093,207.6406 C457.0874,207.2344 457.4156,206.7813 457.4156,206.3906 C457.4156,205.9375 457.0249,205.5469 456.5562,205.5469 C456.3374,205.5469 456.1343,205.625 455.9468,205.8125 C455.4937,206.2969 455.4937,206.2969 455.3062,206.3906 C454.8843,206.6563 454.1968,206.7813 453.4312,206.7813 C451.3843,206.7813 450.0874,205.6875 450.0874,203.9844 L450.0874,202.8906 C450.0874,201.1094 451.3374,199.7969 453.0718,199.7969 C453.6499,199.7969 454.2593,199.9531 454.7281,200.2031 C455.2124,200.4844 455.3843,200.7031 455.4781,201.1094 C455.5406,201.5156 455.5718,201.6406 455.7124,201.7656 C455.8531,201.9063 456.0874,202.0156 456.3062,202.0156 C456.5718,202.0156 456.8374,201.875 457.0093,201.6563 C457.1187,201.5 457.1499,201.3125 457.1499,200.8906 L457.1499,199.4688 C457.1499,199.0313 457.1343,198.9063 457.0406,198.75 C456.8843,198.4844 456.6031,198.3438 456.3062,198.3438 C456.0093,198.3438 455.8062,198.4375 455.5874,198.75 L455.4156,198.6719 Z " fill="#000000"/><text fill="#000000" font-family="sans-serif" font-size="12" lengthAdjust="spacingAndGlyphs" textLength="114" x="473.5718" y="207.1543">GraphicsTicTacToe</text><line style="stroke:#A80036;stroke-width:1.5;" x1="285.8218" x2="742.8218" y1="219" y2="219"/><line style="stroke:#A80036;stroke-width:1.5;" x1="285.8218" x2="742.8218" y1="227" y2="227"/><ellipse cx="295.8218" cy="238" fill="#84BE84" rx="3" ry="3" style="stroke:#038048;stroke-width:1.0;"/><text fill="#000000" font-family="sans-serif" font-size="11" lengthAdjust="spacingAndGlyphs" text-decoration="underline" textLength="77" x="304.8218" y="241.2104">main(String[])</text><polygon fill="#FFFF44" points="295.8218,245.8047,299.8218,249.8047,295.8218,253.8047,291.8218,249.8047" style="stroke:#B38D22;stroke-width:1.0;"/><text fill="#000000" font-family="sans-serif" font-size="11" lengthAdjust="spacingAndGlyphs" textLength="433" x="304.8218" y="254.0151">createView(StartController, PlayController, ResumeController): GraphicsView</text><!--MD5=[c045e12321b83266d36d22b9096c24ea]
class View--><rect codeLine="1" fill="#FEFECE" filter="url(#f16xtj87e3ep3w)" height="53.9375" id="View" style="stroke:#A80036;stroke-width:1.5;" width="125" x="52.8219" y="197"/><ellipse cx="67.8219" cy="215.9688" fill="#ADD1B2" rx="11" ry="11" style="stroke:#A80036;stroke-width:1.0;"/><path d="M70.1657,211.6406 C69.2282,211.2031 68.6344,211.0625 67.7594,211.0625 C65.1344,211.0625 63.1344,213.1406 63.1344,215.8594 L63.1344,216.9844 C63.1344,219.5625 65.2438,221.4531 68.1344,221.4531 C69.3532,221.4531 70.5094,221.1563 71.2594,220.6094 C71.8375,220.2031 72.1657,219.75 72.1657,219.3594 C72.1657,218.9063 71.775,218.5156 71.3063,218.5156 C71.0875,218.5156 70.8844,218.5938 70.6969,218.7813 C70.2438,219.2656 70.2438,219.2656 70.0563,219.3594 C69.6344,219.625 68.9469,219.75 68.1813,219.75 C66.1344,219.75 64.8375,218.6563 64.8375,216.9531 L64.8375,215.8594 C64.8375,214.0781 66.0875,212.7656 67.8219,212.7656 C68.4,212.7656 69.0094,212.9219 69.4782,213.1719 C69.9625,213.4531 70.1344,213.6719 70.2282,214.0781 C70.2907,214.4844 70.3219,214.6094 70.4625,214.7344 C70.6032,214.875 70.8375,214.9844 71.0563,214.9844 C71.3219,214.9844 71.5875,214.8438 71.7594,214.625 C71.8688,214.4688 71.9,214.2813 71.9,213.8594 L71.9,212.4375 C71.9,212 71.8844,211.875 71.7907,211.7188 C71.6344,211.4531 71.3532,211.3125 71.0563,211.3125 C70.7594,211.3125 70.5563,211.4063 70.3375,211.7188 L70.1657,211.6406 Z " fill="#000000"/><text fill="#000000" font-family="sans-serif" font-size="12" lengthAdjust="spacingAndGlyphs" textLength="93" x="81.8219" y="213.1387">tictactoe.views.</text><text fill="#000000" font-family="sans-serif" font-size="12" lengthAdjust="spacingAndGlyphs" textLength="29" x="113.8219" y="227.1074">View</text><line style="stroke:#A80036;stroke-width:1.5;" x1="53.8219" x2="176.8219" y1="234.9375" y2="234.9375"/><line style="stroke:#A80036;stroke-width:1.5;" x1="53.8219" x2="176.8219" y1="242.9375" y2="242.9375"/><!--MD5=[b6dcce5e5ef3c84b0b048d11301373dd]
class Game--><rect codeLine="2" fill="#FEFECE" filter="url(#f16xtj87e3ep3w)" height="53.9375" id="Game" style="stroke:#A80036;stroke-width:1.5;" width="135" x="1341.8198" y="197"/><ellipse cx="1356.8198" cy="215.9688" fill="#ADD1B2" rx="11" ry="11" style="stroke:#A80036;stroke-width:1.0;"/><path d="M1359.1636,211.6406 C1358.2261,211.2031 1357.6323,211.0625 1356.7573,211.0625 C1354.1323,211.0625 1352.1323,213.1406 1352.1323,215.8594 L1352.1323,216.9844 C1352.1323,219.5625 1354.2417,221.4531 1357.1323,221.4531 C1358.3511,221.4531 1359.5073,221.1563 1360.2573,220.6094 C1360.8354,220.2031 1361.1636,219.75 1361.1636,219.3594 C1361.1636,218.9063 1360.7729,218.5156 1360.3042,218.5156 C1360.0854,218.5156 1359.8823,218.5938 1359.6948,218.7813 C1359.2417,219.2656 1359.2417,219.2656 1359.0542,219.3594 C1358.6323,219.625 1357.9448,219.75 1357.1792,219.75 C1355.1323,219.75 1353.8354,218.6563 1353.8354,216.9531 L1353.8354,215.8594 C1353.8354,214.0781 1355.0854,212.7656 1356.8198,212.7656 C1357.3979,212.7656 1358.0073,212.9219 1358.4761,213.1719 C1358.9604,213.4531 1359.1323,213.6719 1359.2261,214.0781 C1359.2886,214.4844 1359.3198,214.6094 1359.4604,214.7344 C1359.6011,214.875 1359.8354,214.9844 1360.0542,214.9844 C1360.3198,214.9844 1360.5854,214.8438 1360.7573,214.625 C1360.8667,214.4688 1360.8979,214.2813 1360.8979,213.8594 L1360.8979,212.4375 C1360.8979,212 1360.8823,211.875 1360.7886,211.7188 C1360.6323,211.4531 1360.3511,211.3125 1360.0542,211.3125 C1359.7573,211.3125 1359.5542,211.4063 1359.3354,211.7188 L1359.1636,211.6406 Z " fill="#000000"/><text fill="#000000" font-family="sans-serif" font-size="12" lengthAdjust="spacingAndGlyphs" textLength="103" x="1370.8198" y="213.1387">tictactoe.models.</text><text fill="#000000" font-family="sans-serif" font-size="12" lengthAdjust="spacingAndGlyphs" textLength="35" x="1404.8198" y="227.1074">Game</text><line style="stroke:#A80036;stroke-width:1.5;" x1="1342.8198" x2="1475.8198" y1="234.9375" y2="234.9375"/><line style="stroke:#A80036;stroke-width:1.5;" x1="1342.8198" x2="1475.8198" y1="242.9375" y2="242.9375"/><!--MD5=[47c371471411cfedeee61b1a5bdaee47]
class StartController--><rect codeLine="3" fill="#FEFECE" filter="url(#f16xtj87e3ep3w)" height="53.9375" id="StartController" style="stroke:#A80036;stroke-width:1.5;" width="155" x="626.8218" y="321"/><ellipse cx="641.8218" cy="339.9688" fill="#ADD1B2" rx="11" ry="11" style="stroke:#A80036;stroke-width:1.0;"/><path d="M644.1656,335.6406 C643.2281,335.2031 642.6343,335.0625 641.7593,335.0625 C639.1343,335.0625 637.1343,337.1406 637.1343,339.8594 L637.1343,340.9844 C637.1343,343.5625 639.2437,345.4531 642.1343,345.4531 C643.3531,345.4531 644.5093,345.1563 645.2593,344.6094 C645.8374,344.2031 646.1656,343.75 646.1656,343.3594 C646.1656,342.9063 645.7749,342.5156 645.3062,342.5156 C645.0874,342.5156 644.8843,342.5938 644.6968,342.7813 C644.2437,343.2656 644.2437,343.2656 644.0562,343.3594 C643.6343,343.625 642.9468,343.75 642.1812,343.75 C640.1343,343.75 638.8374,342.6563 638.8374,340.9531 L638.8374,339.8594 C638.8374,338.0781 640.0874,336.7656 641.8218,336.7656 C642.3999,336.7656 643.0093,336.9219 643.4781,337.1719 C643.9624,337.4531 644.1343,337.6719 644.2281,338.0781 C644.2906,338.4844 644.3218,338.6094 644.4624,338.7344 C644.6031,338.875 644.8374,338.9844 645.0562,338.9844 C645.3218,338.9844 645.5874,338.8438 645.7593,338.625 C645.8687,338.4688 645.8999,338.2813 645.8999,337.8594 L645.8999,336.4375 C645.8999,336 645.8843,335.875 645.7906,335.7188 C645.6343,335.4531 645.3531,335.3125 645.0562,335.3125 C644.7593,335.3125 644.5562,335.4063 644.3374,335.7188 L644.1656,335.6406 Z " fill="#000000"/><text fill="#000000" font-family="sans-serif" font-size="12" lengthAdjust="spacingAndGlyphs" textLength="123" x="655.8218" y="337.1387">tictactoe.controllers.</text><text fill="#000000" font-family="sans-serif" font-size="12" lengthAdjust="spacingAndGlyphs" textLength="87" x="673.8218" y="351.1074">StartController</text><line style="stroke:#A80036;stroke-width:1.5;" x1="627.8218" x2="780.8218" y1="358.9375" y2="358.9375"/><line style="stroke:#A80036;stroke-width:1.5;" x1="627.8218" x2="780.8218" y1="366.9375" y2="366.9375"/><!--MD5=[cc8600b868f8dfab2c8d497bce62f90a]
class PlayController--><rect codeLine="4" fill="#FEFECE" filter="url(#f16xtj87e3ep3w)" height="53.9375" id="PlayController" style="stroke:#A80036;stroke-width:1.5;" width="155" x="436.8218" y="321"/><ellipse cx="451.8218" cy="339.9688" fill="#ADD1B2" rx="11" ry="11" style="stroke:#A80036;stroke-width:1.0;"/><path d="M454.1656,335.6406 C453.2281,335.2031 452.6343,335.0625 451.7593,335.0625 C449.1343,335.0625 447.1343,337.1406 447.1343,339.8594 L447.1343,340.9844 C447.1343,343.5625 449.2437,345.4531 452.1343,345.4531 C453.3531,345.4531 454.5093,345.1563 455.2593,344.6094 C455.8374,344.2031 456.1656,343.75 456.1656,343.3594 C456.1656,342.9063 455.7749,342.5156 455.3062,342.5156 C455.0874,342.5156 454.8843,342.5938 454.6968,342.7813 C454.2437,343.2656 454.2437,343.2656 454.0562,343.3594 C453.6343,343.625 452.9468,343.75 452.1812,343.75 C450.1343,343.75 448.8374,342.6563 448.8374,340.9531 L448.8374,339.8594 C448.8374,338.0781 450.0874,336.7656 451.8218,336.7656 C452.3999,336.7656 453.0093,336.9219 453.4781,337.1719 C453.9624,337.4531 454.1343,337.6719 454.2281,338.0781 C454.2906,338.4844 454.3218,338.6094 454.4624,338.7344 C454.6031,338.875 454.8374,338.9844 455.0562,338.9844 C455.3218,338.9844 455.5874,338.8438 455.7593,338.625 C455.8687,338.4688 455.8999,338.2813 455.8999,337.8594 L455.8999,336.4375 C455.8999,336 455.8843,335.875 455.7906,335.7188 C455.6343,335.4531 455.3531,335.3125 455.0562,335.3125 C454.7593,335.3125 454.5562,335.4063 454.3374,335.7188 L454.1656,335.6406 Z " fill="#000000"/><text fill="#000000" font-family="sans-serif" font-size="12" lengthAdjust="spacingAndGlyphs" textLength="123" x="465.8218" y="337.1387">tictactoe.controllers.</text><text fill="#000000" font-family="sans-serif" font-size="12" lengthAdjust="spacingAndGlyphs" textLength="82" x="486.3218" y="351.1074">PlayController</text><line style="stroke:#A80036;stroke-width:1.5;" x1="437.8218" x2="590.8218" y1="358.9375" y2="358.9375"/><line style="stroke:#A80036;stroke-width:1.5;" x1="437.8218" x2="590.8218" y1="366.9375" y2="366.9375"/><!--MD5=[1a47bbf44ccee225df9b18c5b6629853]
class ResumeController--><rect codeLine="5" fill="#FEFECE" filter="url(#f16xtj87e3ep3w)" height="53.9375" id="ResumeController" style="stroke:#A80036;stroke-width:1.5;" width="155" x="873.8218" y="321"/><ellipse cx="888.8218" cy="339.9688" fill="#ADD1B2" rx="11" ry="11" style="stroke:#A80036;stroke-width:1.0;"/><path d="M891.1656,335.6406 C890.2281,335.2031 889.6343,335.0625 888.7593,335.0625 C886.1343,335.0625 884.1343,337.1406 884.1343,339.8594 L884.1343,340.9844 C884.1343,343.5625 886.2437,345.4531 889.1343,345.4531 C890.3531,345.4531 891.5093,345.1563 892.2593,344.6094 C892.8374,344.2031 893.1656,343.75 893.1656,343.3594 C893.1656,342.9063 892.7749,342.5156 892.3062,342.5156 C892.0874,342.5156 891.8843,342.5938 891.6968,342.7813 C891.2437,343.2656 891.2437,343.2656 891.0562,343.3594 C890.6343,343.625 889.9468,343.75 889.1812,343.75 C887.1343,343.75 885.8374,342.6563 885.8374,340.9531 L885.8374,339.8594 C885.8374,338.0781 887.0874,336.7656 888.8218,336.7656 C889.3999,336.7656 890.0093,336.9219 890.4781,337.1719 C890.9624,337.4531 891.1343,337.6719 891.2281,338.0781 C891.2906,338.4844 891.3218,338.6094 891.4624,338.7344 C891.6031,338.875 891.8374,338.9844 892.0562,338.9844 C892.3218,338.9844 892.5874,338.8438 892.7593,338.625 C892.8687,338.4688 892.8999,338.2813 892.8999,337.8594 L892.8999,336.4375 C892.8999,336 892.8843,335.875 892.7906,335.7188 C892.6343,335.4531 892.3531,335.3125 892.0562,335.3125 C891.7593,335.3125 891.5562,335.4063 891.3374,335.7188 L891.1656,335.6406 Z " fill="#000000"/><text fill="#000000" font-family="sans-serif" font-size="12" lengthAdjust="spacingAndGlyphs" textLength="123" x="902.8218" y="337.1387">tictactoe.controllers.</text><text fill="#000000" font-family="sans-serif" font-size="12" lengthAdjust="spacingAndGlyphs" textLength="107" x="910.8218" y="351.1074">ResumeController</text><line style="stroke:#A80036;stroke-width:1.5;" x1="874.8218" x2="1027.8218" y1="358.9375" y2="358.9375"/><line style="stroke:#A80036;stroke-width:1.5;" x1="874.8218" x2="1027.8218" y1="366.9375" y2="366.9375"/><!--MD5=[51d729737bd84a4c43136dd336c2eea1]
class ConsoleView--><rect codeLine="6" fill="#FEFECE" filter="url(#f16xtj87e3ep3w)" height="53.9375" id="ConsoleView" style="stroke:#A80036;stroke-width:1.5;" width="176" x="1064.3198" y="321"/><ellipse cx="1079.3198" cy="339.9688" fill="#ADD1B2" rx="11" ry="11" style="stroke:#A80036;stroke-width:1.0;"/><path d="M1081.6636,335.6406 C1080.7261,335.2031 1080.1323,335.0625 1079.2573,335.0625 C1076.6323,335.0625 1074.6323,337.1406 1074.6323,339.8594 L1074.6323,340.9844 C1074.6323,343.5625 1076.7417,345.4531 1079.6323,345.4531 C1080.8511,345.4531 1082.0073,345.1563 1082.7573,344.6094 C1083.3354,344.2031 1083.6636,343.75 1083.6636,343.3594 C1083.6636,342.9063 1083.2729,342.5156 1082.8042,342.5156 C1082.5854,342.5156 1082.3823,342.5938 1082.1948,342.7813 C1081.7417,343.2656 1081.7417,343.2656 1081.5542,343.3594 C1081.1323,343.625 1080.4448,343.75 1079.6792,343.75 C1077.6323,343.75 1076.3354,342.6563 1076.3354,340.9531 L1076.3354,339.8594 C1076.3354,338.0781 1077.5854,336.7656 1079.3198,336.7656 C1079.8979,336.7656 1080.5073,336.9219 1080.9761,337.1719 C1081.4604,337.4531 1081.6323,337.6719 1081.7261,338.0781 C1081.7886,338.4844 1081.8198,338.6094 1081.9604,338.7344 C1082.1011,338.875 1082.3354,338.9844 1082.5542,338.9844 C1082.8198,338.9844 1083.0854,338.8438 1083.2573,338.625 C1083.3667,338.4688 1083.3979,338.2813 1083.3979,337.8594 L1083.3979,336.4375 C1083.3979,336 1083.3823,335.875 1083.2886,335.7188 C1083.1323,335.4531 1082.8511,335.3125 1082.5542,335.3125 C1082.2573,335.3125 1082.0542,335.4063 1081.8354,335.7188 L1081.6636,335.6406 Z " fill="#000000"/><text fill="#000000" font-family="sans-serif" font-size="12" lengthAdjust="spacingAndGlyphs" textLength="144" x="1093.3198" y="337.1387">tictactoe.views.console.</text><text fill="#000000" font-family="sans-serif" font-size="12" lengthAdjust="spacingAndGlyphs" textLength="78" x="1126.3198" y="351.1074">ConsoleView</text><line style="stroke:#A80036;stroke-width:1.5;" x1="1065.3198" x2="1239.3198" y1="358.9375" y2="358.9375"/><line style="stroke:#A80036;stroke-width:1.5;" x1="1065.3198" x2="1239.3198" y1="366.9375" y2="366.9375"/><!--MD5=[10250df365dc999637be629d910c1f35]
class GraphicsView--><rect codeLine="7" fill="#FEFECE" filter="url(#f16xtj87e3ep3w)" height="53.9375" id="GraphicsView" style="stroke:#A80036;stroke-width:1.5;" width="180" x="221.3218" y="321"/><ellipse cx="236.3218" cy="339.9688" fill="#ADD1B2" rx="11" ry="11" style="stroke:#A80036;stroke-width:1.0;"/><path d="M238.6656,335.6406 C237.7281,335.2031 237.1343,335.0625 236.2593,335.0625 C233.6343,335.0625 231.6343,337.1406 231.6343,339.8594 L231.6343,340.9844 C231.6343,343.5625 233.7437,345.4531 236.6343,345.4531 C237.8531,345.4531 239.0093,345.1563 239.7593,344.6094 C240.3374,344.2031 240.6656,343.75 240.6656,343.3594 C240.6656,342.9063 240.2749,342.5156 239.8062,342.5156 C239.5874,342.5156 239.3843,342.5938 239.1968,342.7813 C238.7437,343.2656 238.7437,343.2656 238.5562,343.3594 C238.1343,343.625 237.4468,343.75 236.6812,343.75 C234.6343,343.75 233.3374,342.6563 233.3374,340.9531 L233.3374,339.8594 C233.3374,338.0781 234.5874,336.7656 236.3218,336.7656 C236.8999,336.7656 237.5093,336.9219 237.9781,337.1719 C238.4624,337.4531 238.6343,337.6719 238.7281,338.0781 C238.7906,338.4844 238.8218,338.6094 238.9624,338.7344 C239.1031,338.875 239.3374,338.9844 239.5562,338.9844 C239.8218,338.9844 240.0874,338.8438 240.2593,338.625 C240.3687,338.4688 240.3999,338.2813 240.3999,337.8594 L240.3999,336.4375 C240.3999,336 240.3843,335.875 240.2906,335.7188 C240.1343,335.4531 239.8531,335.3125 239.5562,335.3125 C239.2593,335.3125 239.0562,335.4063 238.8374,335.7188 L238.6656,335.6406 Z " fill="#000000"/><text fill="#000000" font-family="sans-serif" font-size="12" lengthAdjust="spacingAndGlyphs" textLength="148" x="250.3218" y="337.1387">tictactoe.views.graphics.</text><text fill="#000000" font-family="sans-serif" font-size="12" lengthAdjust="spacingAndGlyphs" textLength="82" x="283.3218" y="351.1074">GraphicsView</text><line style="stroke:#A80036;stroke-width:1.5;" x1="222.3218" x2="400.3218" y1="358.9375" y2="358.9375"/><line style="stroke:#A80036;stroke-width:1.5;" x1="222.3218" x2="400.3218" y1="366.9375" y2="366.9375"/><!--MD5=[4e0ca678de8db9099731dcdc2b6658ba]
reverse link tictactoe.TicTacToe to tictactoe.ConsoleTicTacToe--><path codeLine="13" d="M684.1068,132.526 C747.8768,150.377 819.2568,170.357 878.6828,186.992 " fill="none" id="tictactoe.TicTacToe-backto-tictactoe.ConsoleTicTacToe" style="stroke:#A80036;stroke-width:1.0;"/><polygon fill="none" points="681.9538,139.193,664.5818,127.06,685.7278,125.711,681.9538,139.193" style="stroke:#A80036;stroke-width:1.0;"/><!--MD5=[ee7507eb18030f94a5778181d38e626d]
link tictactoe.ConsoleTicTacToe to StartController--><path codeLine="14" d="M917.6418,261.109 C871.7698,279.5789 816.7698,301.7239 774.1068,318.9016 " fill="none" id="tictactoe.ConsoleTicTacToe-to-StartController" style="stroke:#A80036;stroke-width:1.0;stroke-dasharray:7.0,7.0;"/><polygon fill="#A80036" points="769.2308,320.8651,779.0735,321.2122,773.8686,318.9967,776.0841,313.7917,769.2308,320.8651" style="stroke:#A80036;stroke-width:1.0;"/><!--MD5=[556f2dc837af0fd3aeec7c3aac34e5da]
link tictactoe.ConsoleTicTacToe to PlayController--><path codeLine="15" d="M860.3688,261.012 C827.7668,268.954 793.3788,277.2944 761.3218,285 C693.8198,301.2254 676.5908,303.8342 609.3218,321 C605.2728,322.0332 601.1318,323.1061 596.9518,324.2017 " fill="none" id="tictactoe.ConsoleTicTacToe-to-PlayController" style="stroke:#A80036;stroke-width:1.0;stroke-dasharray:7.0,7.0;"/><polygon fill="#A80036" points="592.0308,325.4972,601.7526,327.0743,596.8661,324.2243,599.716,319.3378,592.0308,325.4972" style="stroke:#A80036;stroke-width:1.0;"/><!--MD5=[62b7873d3fcec11fe75d9649a3eab307]
link tictactoe.ConsoleTicTacToe to ResumeController--><path codeLine="16" d="M990.6718,261.274 C982.6558,278.7368 973.1458,299.4545 965.4838,316.148 " fill="none" id="tictactoe.ConsoleTicTacToe-to-ResumeController" style="stroke:#A80036;stroke-width:1.0;stroke-dasharray:7.0,7.0;"/><polygon fill="#A80036" points="963.3738,320.7436,970.7636,314.2327,965.4596,316.1994,963.4929,310.8955,963.3738,320.7436" style="stroke:#A80036;stroke-width:1.0;"/><!--MD5=[7602e6d0f8953e68b5279ddd3ea64ff8]
link tictactoe.ConsoleTicTacToe to ConsoleView--><path codeLine="17" d="M1050.4298,261.274 C1071.7198,279.1846 1097.0798,300.519 1117.1698,317.424 " fill="none" id="tictactoe.ConsoleTicTacToe-to-ConsoleView" style="stroke:#A80036;stroke-width:1.0;stroke-dasharray:7.0,7.0;"/><polygon fill="#A80036" points="1121.1198,320.7436,1116.8213,311.8823,1117.2986,317.519,1111.6619,317.9962,1121.1198,320.7436" style="stroke:#A80036;stroke-width:1.0;"/><!--MD5=[39aff454823c6178e2615bf7f449e13a]
reverse link tictactoe.TicTacToe to tictactoe.GraphicsTicTacToe--><path codeLine="23" d="M514.3218,147.623 C514.3218,161.004 514.3218,174.707 514.3218,186.697 " fill="none" id="tictactoe.TicTacToe-backto-tictactoe.GraphicsTicTacToe" style="stroke:#A80036;stroke-width:1.0;"/><polygon fill="none" points="507.3218,147.154,514.3218,127.154,521.3218,147.154,507.3218,147.154" style="stroke:#A80036;stroke-width:1.0;"/><!--MD5=[0f4a465183b27c941ba889803717f4d6]
link tictactoe.GraphicsTicTacToe to StartController--><path codeLine="24" d="M570.5568,261.109 C598.7968,279.2417 632.5528,300.9166 659.0898,317.956 " fill="none" id="tictactoe.GraphicsTicTacToe-to-StartController" style="stroke:#A80036;stroke-width:1.0;stroke-dasharray:7.0,7.0;"/><polygon fill="#A80036" points="663.6198,320.8651,658.2076,312.6366,659.4124,318.1637,653.8853,319.3685,663.6198,320.8651" style="stroke:#A80036;stroke-width:1.0;"/><!--MD5=[ac5d2161fbf4b3141beb88c12467bf2e]
link tictactoe.GraphicsTicTacToe to PlayController--><path codeLine="25" d="M514.3218,261.274 C514.3218,278.5876 514.3218,299.1005 514.3218,315.7191 " fill="none" id="tictactoe.GraphicsTicTacToe-to-PlayController" style="stroke:#A80036;stroke-width:1.0;stroke-dasharray:7.0,7.0;"/><polygon fill="#A80036" points="514.3218,320.7436,518.3218,311.7436,514.3218,315.7436,510.3218,311.7436,514.3218,320.7436" style="stroke:#A80036;stroke-width:1.0;"/><!--MD5=[0d4d1ae977e3725f93dc9332de39350f]
link tictactoe.GraphicsTicTacToe to ResumeController--><path codeLine="26" d="M643.3678,261.026 C716.2318,281.3683 805.1368,306.1885 868.6568,323.9217 " fill="none" id="tictactoe.GraphicsTicTacToe-to-ResumeController" style="stroke:#A80036;stroke-width:1.0;stroke-dasharray:7.0,7.0;"/><polygon fill="#A80036" points="873.5688,325.2931,865.9756,319.0206,868.7529,323.9488,863.8247,326.7261,873.5688,325.2931" style="stroke:#A80036;stroke-width:1.0;"/><!--MD5=[d2cbd16a8534ff84dc35ecc8a61427e0]
link tictactoe.GraphicsTicTacToe to GraphicsView--><path codeLine="27" d="M454.2388,261.109 C423.9428,279.3167 387.7038,301.0958 359.2978,318.167 " fill="none" id="tictactoe.GraphicsTicTacToe-to-GraphicsView" style="stroke:#A80036;stroke-width:1.0;stroke-dasharray:7.0,7.0;"/><polygon fill="#A80036" points="354.8088,320.8651,364.5833,319.6573,359.0943,318.2894,360.4622,312.8004,354.8088,320.8651" style="stroke:#A80036;stroke-width:1.0;"/><!--MD5=[4244f9edb3d450aa4423a2442cdf3765]
link tictactoe.TicTacToe to View--><path codeLine="34" d="M369.5892,130.7357 C369.5892,130.7357 258.1538,167.735 205.3218,187 C200.4798,188.766 195.5088,190.624 190.5078,192.528 " fill="none" id="tictactoe.TicTacToe-View" style="stroke:#A80036;stroke-width:1.0;"/><polygon fill="#A80036" points="178.0748,197.326,187.9114,197.8175,182.7395,195.5258,185.0311,190.354,178.0748,197.326" style="stroke:#A80036;stroke-width:1.0;"/><line style="stroke:#A80036;stroke-width:1.0;" x1="182.7395" x2="190.2028" y1="195.5258" y2="192.6455"/><polygon fill="#A80036" points="380.9998,127.021,374.0563,125.0748,369.5892,130.7357,376.5328,132.6819,380.9998,127.021" style="stroke:#A80036;stroke-width:1.0;"/><!--MD5=[8c425d580a9b92d738a930527fd635fb]
link tictactoe.TicTacToe to Game--><path codeLine="35" d="M721.0638,97.936 C884.0678,111.34 1116.1498,137.554 1314.3198,187 C1323.4298,189.273 1332.8598,192.156 1342.0798,195.299 " fill="none" id="tictactoe.TicTacToe-to-Game" style="stroke:#A80036;stroke-width:1.0;stroke-dasharray:7.0,7.0;"/><polygon fill="#A80036" points="1346.8798,196.964,1339.6936,190.2292,1342.1574,195.3213,1337.0652,197.7851,1346.8798,196.964" style="stroke:#A80036;stroke-width:1.0;"/><!--MD5=[418e617e5427b1769da1183790bb0c75]
link tictactoe.TicTacToe to StartController--><path codeLine="36" d="M338.1048,127.128 C310.1368,141.577 284.7348,160.971 267.3218,187 C243.1048,223.202 238.1798,252.63 267.3218,285 C318.4528,341.7951 534.2198,306.867 609.3218,321 C613.4288,321.7728 617.6168,322.635 621.8338,323.5625 " fill="none" id="tictactoe.TicTacToe-to-StartController" style="stroke:#A80036;stroke-width:1.0;stroke-dasharray:7.0,7.0;"/><polygon fill="#A80036" points="626.7938,324.6798,618.8926,318.8001,621.916,323.5812,617.1349,326.6046,626.7938,324.6798" style="stroke:#A80036;stroke-width:1.0;"/><!--MD5=[82634a372df6adadfd51c0b03e6d50ba]
link tictactoe.TicTacToe to PlayController--><path codeLine="37" d="M307.6538,103.331 C194.4938,118.117 70.2945,143.796 35.3219,187 C7.9178,220.854 6,252.793 35.3219,285 C64.097,316.6065 376.2628,313.3854 418.3218,321 C422.7518,321.8019 427.2748,322.7102 431.8258,323.6948 " fill="none" id="tictactoe.TicTacToe-to-PlayController" style="stroke:#A80036;stroke-width:1.0;stroke-dasharray:7.0,7.0;"/><polygon fill="#A80036" points="436.7728,324.7917,428.851,318.9397,431.8912,323.7102,427.1207,326.7504,436.7728,324.7917" style="stroke:#A80036;stroke-width:1.0;"/><!--MD5=[6c91c4b7f7877b97f28656e3787a7627]
link tictactoe.TicTacToe to ResumeController--><path codeLine="38" d="M720.8958,99.734 C927.1938,116.599 1218.5698,147.12 1253.3198,187 C1281.9398,219.837 1281.3598,251.667 1253.3198,285 C1223.2698,320.7318 1091.8898,310.8259 1046.3198,321 C1042.2398,321.9106 1038.0798,322.8842 1033.8798,323.9006 " fill="none" id="tictactoe.TicTacToe-to-ResumeController" style="stroke:#A80036;stroke-width:1.0;stroke-dasharray:7.0,7.0;"/><polygon fill="#A80036" points="1028.9398,325.1121,1038.6317,326.8631,1033.7971,323.9261,1036.7342,319.0915,1028.9398,325.1121" style="stroke:#A80036;stroke-width:1.0;"/><!--MD5=[80f1cad31e572572e2270dbb43492cbe]
@startuml
class View as "tictactoe.views.\nView"
class Game as "tictactoe.models.\nGame"
class StartController as "tictactoe.controllers.\nStartController"
class PlayController as "tictactoe.controllers.\nPlayController"
class ResumeController as "tictactoe.controllers.\nResumeController"
class ConsoleView as "tictactoe.views.console.\nConsoleView"
class GraphicsView as "tictactoe.views.graphics.\nGraphicsView"

class  tictactoe.ConsoleTicTacToe{
  + {static} main(String[])
  # createView(StartController, PlayController, ResumeController): ConsoleView
}
tictactoe.TicTacToe <|-down- tictactoe.ConsoleTicTacToe
tictactoe.ConsoleTicTacToe .down.> StartController
tictactoe.ConsoleTicTacToe .down.> PlayController
tictactoe.ConsoleTicTacToe .down.> ResumeController
tictactoe.ConsoleTicTacToe .down.> ConsoleView

class  tictactoe.GraphicsTicTacToe{
  + {static} main(String[])
  # createView(StartController, PlayController, ResumeController): GraphicsView
}
tictactoe.TicTacToe <|-down- tictactoe.GraphicsTicTacToe
tictactoe.GraphicsTicTacToe .down.> StartController
tictactoe.GraphicsTicTacToe .down.> PlayController
tictactoe.GraphicsTicTacToe .down.> ResumeController
tictactoe.GraphicsTicTacToe .down.> GraphicsView

abstract class  tictactoe.TicTacToe{
  # TicTacToe()
  # {abstract} createView(StartController, PlayController, ResumeController): View
  # play()
}
tictactoe.TicTacToe *-down-> View
tictactoe.TicTacToe .down.> Game
tictactoe.TicTacToe .down.> StartController
tictactoe.TicTacToe .down.> PlayController
tictactoe.TicTacToe .down.> ResumeController
@enduml

PlantUML version 1.2020.27beta2(Unknown compile time)
(GPL source distribution)
Java Runtime: Java(TM) SE Runtime Environment
JVM: Java HotSpot(TM) 64-Bit Server VM
Default Encoding: UTF-8
Language: en
Country: US
--></g></svg>