<?xml version="1.0" encoding="UTF-8" standalone="no"?><svg xmlns="http://www.w3.org/2000/svg" xmlns:xlink="http://www.w3.org/1999/xlink" contentScriptType="application/ecmascript" contentStyleType="text/css" height="1276px" preserveAspectRatio="none" style="width:884px;height:1276px;" version="1.1" viewBox="0 0 884 1276" width="884px" zoomAndPan="magnify"><defs><filter height="300%" id="fdf1cozy31l2o" width="300%" x="-1" y="-1"><feGaussianBlur result="blurOut" stdDeviation="2.0"/><feColorMatrix in="blurOut" result="blurOut2" type="matrix" values="0 0 0 0 0 0 0 0 0 0 0 0 0 0 0 0 0 0 .4 0"/><feOffset dx="4.0" dy="4.0" in="blurOut2" result="blurOut3"/><feBlend in="SourceGraphic" in2="blurOut3" mode="normal"/></filter></defs><g><!--MD5=[51cd642fcc96b47682a93d9084d46dec]
cluster tictactoe.models--><polygon fill="#FFFFFF" filter="url(#fdf1cozy31l2o)" points="16,6,161,6,168,28.2969,495,28.2969,495,1165,16,1165,16,6" style="stroke:#000000;stroke-width:1.5;"/><line style="stroke:#000000;stroke-width:1.5;" x1="16" x2="168" y1="28.2969" y2="28.2969"/><text fill="#000000" font-family="sans-serif" font-size="14" font-weight="bold" lengthAdjust="spacingAndGlyphs" textLength="139" x="20" y="20.9951">tictactoe.models</text><!--MD5=[f2254b5fdbf93effa50eb20dc057829b]
class tictactoe.models.Board--><rect codeLine="6" fill="#FEFECE" filter="url(#fdf1cozy31l2o)" height="188.8516" id="tictactoe.models.Board" style="stroke:#A80036;stroke-width:1.5;" width="262" x="32" y="711"/><ellipse cx="140.75" cy="727" fill="#ADD1B2" rx="11" ry="11" style="stroke:#A80036;stroke-width:1.0;"/><path d="M143.0938,722.6719 C142.1563,722.2344 141.5625,722.0938 140.6875,722.0938 C138.0625,722.0938 136.0625,724.1719 136.0625,726.8906 L136.0625,728.0156 C136.0625,730.5938 138.1719,732.4844 141.0625,732.4844 C142.2813,732.4844 143.4375,732.1875 144.1875,731.6406 C144.7656,731.2344 145.0938,730.7813 145.0938,730.3906 C145.0938,729.9375 144.7031,729.5469 144.2344,729.5469 C144.0156,729.5469 143.8125,729.625 143.625,729.8125 C143.1719,730.2969 143.1719,730.2969 142.9844,730.3906 C142.5625,730.6563 141.875,730.7813 141.1094,730.7813 C139.0625,730.7813 137.7656,729.6875 137.7656,727.9844 L137.7656,726.8906 C137.7656,725.1094 139.0156,723.7969 140.75,723.7969 C141.3281,723.7969 141.9375,723.9531 142.4063,724.2031 C142.8906,724.4844 143.0625,724.7031 143.1563,725.1094 C143.2188,725.5156 143.25,725.6406 143.3906,725.7656 C143.5313,725.9063 143.7656,726.0156 143.9844,726.0156 C144.25,726.0156 144.5156,725.875 144.6875,725.6563 C144.7969,725.5 144.8281,725.3125 144.8281,724.8906 L144.8281,723.4688 C144.8281,723.0313 144.8125,722.9063 144.7188,722.75 C144.5625,722.4844 144.2813,722.3438 143.9844,722.3438 C143.6875,722.3438 143.4844,722.4375 143.2656,722.75 L143.0938,722.6719 Z " fill="#000000"/><text fill="#000000" font-family="sans-serif" font-size="12" lengthAdjust="spacingAndGlyphs" textLength="36" x="161.25" y="731.1543">Board</text><line style="stroke:#A80036;stroke-width:1.5;" x1="33" x2="293" y1="743" y2="743"/><line style="stroke:#A80036;stroke-width:1.5;" x1="33" x2="293" y1="751" y2="751"/><ellipse cx="43" cy="762" fill="#84BE84" rx="3" ry="3" style="stroke:#038048;stroke-width:1.0;"/><text fill="#000000" font-family="sans-serif" font-size="11" lengthAdjust="spacingAndGlyphs" textLength="41" x="52" y="765.2104">Board()</text><polygon fill="#4177AF" points="43,770.8047,39,776.8047,47,776.8047" style="stroke:#1963A0;stroke-width:1.0;"/><text fill="#000000" font-family="sans-serif" font-size="11" lengthAdjust="spacingAndGlyphs" textLength="38" x="52" y="778.0151">reset()</text><polygon fill="#4177AF" points="43,783.6094,39,789.6094,47,789.6094" style="stroke:#1963A0;stroke-width:1.0;"/><text fill="#000000" font-family="sans-serif" font-size="11" lengthAdjust="spacingAndGlyphs" textLength="166" x="52" y="790.8198">getToken(Coordinate): Token</text><polygon fill="#4177AF" points="43,796.4141,39,802.4141,47,802.4141" style="stroke:#1963A0;stroke-width:1.0;"/><text fill="#000000" font-family="sans-serif" font-size="11" lengthAdjust="spacingAndGlyphs" textLength="130" x="52" y="803.6245">boolean isCompleted()</text><polygon fill="#4177AF" points="43,809.2188,39,815.2188,47,815.2188" style="stroke:#1963A0;stroke-width:1.0;"/><text fill="#000000" font-family="sans-serif" font-size="11" lengthAdjust="spacingAndGlyphs" textLength="130" x="52" y="816.4292">put(Coordinate, Token)</text><polygon fill="#4177AF" points="43,822.0234,39,828.0234,47,828.0234" style="stroke:#1963A0;stroke-width:1.0;"/><text fill="#000000" font-family="sans-serif" font-size="11" lengthAdjust="spacingAndGlyphs" textLength="172" x="52" y="829.2339">move(Coordinate, Coordinate)</text><rect fill="#F24D5C" height="6" style="stroke:#C82930;stroke-width:1.0;" width="6" x="40" y="835.8281"/><text fill="#000000" font-family="sans-serif" font-size="11" lengthAdjust="spacingAndGlyphs" textLength="115" x="52" y="842.0386">remove(Coordinate)</text><polygon fill="#4177AF" points="43,847.6328,39,853.6328,47,853.6328" style="stroke:#1963A0;stroke-width:1.0;"/><text fill="#000000" font-family="sans-serif" font-size="11" lengthAdjust="spacingAndGlyphs" textLength="227" x="52" y="854.8433">isOccupied(Coordinate, Token): boolean</text><polygon fill="#4177AF" points="43,860.4375,39,866.4375,47,866.4375" style="stroke:#1963A0;stroke-width:1.0;"/><text fill="#000000" font-family="sans-serif" font-size="11" lengthAdjust="spacingAndGlyphs" textLength="168" x="52" y="867.6479">isEmpty(Coordinate): boolean</text><polygon fill="#4177AF" points="43,873.2422,39,879.2422,47,879.2422" style="stroke:#1963A0;stroke-width:1.0;"/><text fill="#000000" font-family="sans-serif" font-size="11" lengthAdjust="spacingAndGlyphs" textLength="163" x="52" y="880.4526">isTicTacToe(Token): boolean</text><rect fill="#F24D5C" height="6" style="stroke:#C82930;stroke-width:1.0;" width="6" x="40" y="887.0469"/><text fill="#000000" font-family="sans-serif" font-size="11" lengthAdjust="spacingAndGlyphs" textLength="236" x="52" y="893.2573">getCoordinates(Token): List&lt;Coordinate&gt;</text><!--MD5=[f99d6ba965ae285bf04848666e285ab1]
class tictactoe.models.Token--><rect codeLine="72" fill="#FEFECE" filter="url(#fdf1cozy31l2o)" height="112.0234" id="tictactoe.models.Token" style="stroke:#A80036;stroke-width:1.5;" width="117" x="102.5" y="998.5"/><ellipse cx="139.1" cy="1014.5" fill="#EB937F" rx="11" ry="11" style="stroke:#A80036;stroke-width:1.0;"/><path d="M137.8969,1015.375 L139.35,1015.375 L139.35,1015.4844 C139.35,1015.8906 139.3813,1016.0469 139.4594,1016.2031 C139.6156,1016.4531 139.8969,1016.6094 140.1938,1016.6094 C140.4438,1016.6094 140.7094,1016.4688 140.8656,1016.25 C140.9906,1016.0938 141.0219,1015.9375 141.0219,1015.4844 L141.0219,1013.5625 C141.0219,1013.4063 141.0219,1013.3594 141.0063,1013.2031 C140.9438,1012.7344 140.6313,1012.4219 140.1781,1012.4219 C139.9281,1012.4219 139.6625,1012.5625 139.4906,1012.7813 C139.3813,1012.9531 139.35,1013.1094 139.35,1013.5625 L139.35,1013.6875 L137.8969,1013.6875 L137.8969,1011.2813 L141.8813,1011.2813 L141.8813,1012.1406 C141.8813,1012.5469 141.9125,1012.7188 141.9906,1012.875 C142.1625,1013.125 142.4438,1013.2813 142.725,1013.2813 C142.9906,1013.2813 143.2563,1013.1406 143.4281,1012.9219 C143.5375,1012.75 143.5688,1012.6094 143.5688,1012.1406 L143.5688,1009.5938 L135.9438,1009.5938 C135.5063,1009.5938 135.3813,1009.6094 135.225,1009.7031 C134.975,1009.8594 134.8188,1010.1563 134.8188,1010.4375 C134.8188,1010.7188 134.9594,1010.9688 135.1781,1011.1406 C135.3344,1011.25 135.5219,1011.2813 135.9438,1011.2813 L136.1938,1011.2813 L136.1938,1017.7969 L135.9438,1017.7969 C135.5375,1017.7969 135.3813,1017.8125 135.225,1017.9219 C134.975,1018.0938 134.8188,1018.3594 134.8188,1018.6563 C134.8188,1018.9219 134.9594,1019.1719 135.1781,1019.3281 C135.3188,1019.4531 135.5531,1019.5 135.9438,1019.5 L143.9438,1019.5 L143.9438,1016.9219 C143.9438,1016.4844 143.9125,1016.3438 143.8344,1016.1875 C143.6625,1015.9375 143.3813,1015.7813 143.1,1015.7813 C142.8344,1015.7813 142.5688,1015.8906 142.3969,1016.1406 C142.2875,1016.2969 142.2563,1016.4375 142.2563,1016.9219 L142.2563,1017.7969 L137.8969,1017.7969 L137.8969,1015.375 Z " fill="#000000"/><text fill="#000000" font-family="sans-serif" font-size="12" lengthAdjust="spacingAndGlyphs" textLength="37" x="157.9" y="1018.6543">Token</text><line style="stroke:#A80036;stroke-width:1.5;" x1="103.5" x2="218.5" y1="1030.5" y2="1030.5"/><ellipse cx="113.5" cy="1041.5" fill="none" rx="3" ry="3" style="stroke:#038048;stroke-width:1.0;"/><text fill="#000000" font-family="sans-serif" font-size="11" lengthAdjust="spacingAndGlyphs" textLength="8" x="122.5" y="1044.7104">X</text><ellipse cx="113.5" cy="1054.3047" fill="none" rx="3" ry="3" style="stroke:#038048;stroke-width:1.0;"/><text fill="#000000" font-family="sans-serif" font-size="11" lengthAdjust="spacingAndGlyphs" textLength="9" x="122.5" y="1057.5151">O</text><ellipse cx="113.5" cy="1067.1094" fill="none" rx="3" ry="3" style="stroke:#038048;stroke-width:1.0;"/><text fill="#000000" font-family="sans-serif" font-size="11" lengthAdjust="spacingAndGlyphs" textLength="28" x="122.5" y="1070.3198">NULL</text><line style="stroke:#A80036;stroke-width:1.5;" x1="103.5" x2="218.5" y1="1076.9141" y2="1076.9141"/><ellipse cx="113.5" cy="1087.9141" fill="#84BE84" rx="3" ry="3" style="stroke:#038048;stroke-width:1.0;"/><text fill="#000000" font-family="sans-serif" font-size="11" lengthAdjust="spacingAndGlyphs" textLength="91" x="122.5" y="1091.1245">isNull(): boolean</text><ellipse cx="113.5" cy="1100.7188" fill="#84BE84" rx="3" ry="3" style="stroke:#038048;stroke-width:1.0;"/><text fill="#000000" font-family="sans-serif" font-size="11" lengthAdjust="spacingAndGlyphs" text-decoration="underline" textLength="83" x="122.5" y="1103.9292">get(int): Token</text><!--MD5=[55d70ecb9e3ba4786ec1f15d0b7dce13]
class tictactoe.models.Coordinate--><rect codeLine="24" fill="#FEFECE" filter="url(#fdf1cozy31l2o)" height="188.8516" id="tictactoe.models.Coordinate" style="stroke:#A80036;stroke-width:1.5;" width="224" x="255" y="960"/><ellipse cx="329.75" cy="976" fill="#ADD1B2" rx="11" ry="11" style="stroke:#A80036;stroke-width:1.0;"/><path d="M332.0938,971.6719 C331.1563,971.2344 330.5625,971.0938 329.6875,971.0938 C327.0625,971.0938 325.0625,973.1719 325.0625,975.8906 L325.0625,977.0156 C325.0625,979.5938 327.1719,981.4844 330.0625,981.4844 C331.2813,981.4844 332.4375,981.1875 333.1875,980.6406 C333.7656,980.2344 334.0938,979.7813 334.0938,979.3906 C334.0938,978.9375 333.7031,978.5469 333.2344,978.5469 C333.0156,978.5469 332.8125,978.625 332.625,978.8125 C332.1719,979.2969 332.1719,979.2969 331.9844,979.3906 C331.5625,979.6563 330.875,979.7813 330.1094,979.7813 C328.0625,979.7813 326.7656,978.6875 326.7656,976.9844 L326.7656,975.8906 C326.7656,974.1094 328.0156,972.7969 329.75,972.7969 C330.3281,972.7969 330.9375,972.9531 331.4063,973.2031 C331.8906,973.4844 332.0625,973.7031 332.1563,974.1094 C332.2188,974.5156 332.25,974.6406 332.3906,974.7656 C332.5313,974.9063 332.7656,975.0156 332.9844,975.0156 C333.25,975.0156 333.5156,974.875 333.6875,974.6563 C333.7969,974.5 333.8281,974.3125 333.8281,973.8906 L333.8281,972.4688 C333.8281,972.0313 333.8125,971.9063 333.7188,971.75 C333.5625,971.4844 333.2813,971.3438 332.9844,971.3438 C332.6875,971.3438 332.4844,971.4375 332.2656,971.75 L332.0938,971.6719 Z " fill="#000000"/><text fill="#000000" font-family="sans-serif" font-size="12" lengthAdjust="spacingAndGlyphs" textLength="66" x="350.25" y="980.1543">Coordinate</text><line style="stroke:#A80036;stroke-width:1.5;" x1="256" x2="478" y1="992" y2="992"/><rect fill="none" height="6" style="stroke:#C82930;stroke-width:1.0;" width="6" x="263" y="1000"/><text fill="#000000" font-family="sans-serif" font-size="11" lengthAdjust="spacingAndGlyphs" text-decoration="underline" textLength="178" x="275" y="1006.2104">NULL_COORDINATE: Coordinate</text><ellipse cx="266" cy="1015.8047" fill="none" rx="3" ry="3" style="stroke:#038048;stroke-width:1.0;"/><text fill="#000000" font-family="sans-serif" font-size="11" lengthAdjust="spacingAndGlyphs" text-decoration="underline" textLength="85" x="275" y="1019.0151">DIMENSION: int</text><rect fill="none" height="6" style="stroke:#C82930;stroke-width:1.0;" width="6" x="263" y="1025.6094"/><text fill="#000000" font-family="sans-serif" font-size="11" lengthAdjust="spacingAndGlyphs" text-decoration="underline" textLength="125" x="275" y="1031.8198">LIMITS: ClosedInterval</text><line style="stroke:#A80036;stroke-width:1.5;" x1="256" x2="478" y1="1038.4141" y2="1038.4141"/><ellipse cx="266" cy="1049.4141" fill="#84BE84" rx="3" ry="3" style="stroke:#038048;stroke-width:1.0;"/><text fill="#000000" font-family="sans-serif" font-size="11" lengthAdjust="spacingAndGlyphs" textLength="70" x="275" y="1052.6245">Coordinate()</text><ellipse cx="266" cy="1062.2188" fill="#84BE84" rx="3" ry="3" style="stroke:#038048;stroke-width:1.0;"/><text fill="#000000" font-family="sans-serif" font-size="11" lengthAdjust="spacingAndGlyphs" textLength="105" x="275" y="1065.4292">Coordinate(int, int)</text><ellipse cx="266" cy="1075.0234" fill="#84BE84" rx="3" ry="3" style="stroke:#038048;stroke-width:1.0;"/><text fill="#000000" font-family="sans-serif" font-size="11" lengthAdjust="spacingAndGlyphs" textLength="91" x="275" y="1078.2339">isNull(): boolean</text><ellipse cx="266" cy="1087.8281" fill="#84BE84" rx="3" ry="3" style="stroke:#038048;stroke-width:1.0;"/><text fill="#000000" font-family="sans-serif" font-size="11" lengthAdjust="spacingAndGlyphs" textLength="78" x="275" y="1091.0386">isValid(): Error</text><ellipse cx="266" cy="1100.6328" fill="#84BE84" rx="3" ry="3" style="stroke:#038048;stroke-width:1.0;"/><text fill="#000000" font-family="sans-serif" font-size="11" lengthAdjust="spacingAndGlyphs" textLength="198" x="275" y="1103.8433">getDirection(Coordinate): Direction</text><rect fill="#F24D5C" height="6" style="stroke:#C82930;stroke-width:1.0;" width="6" x="263" y="1110.4375"/><text fill="#000000" font-family="sans-serif" font-size="11" lengthAdjust="spacingAndGlyphs" textLength="164" x="275" y="1116.6479">inInverseDiagonal(): boolean</text><ellipse cx="266" cy="1126.2422" fill="#84BE84" rx="3" ry="3" style="stroke:#038048;stroke-width:1.0;"/><text fill="#000000" font-family="sans-serif" font-size="11" lengthAdjust="spacingAndGlyphs" textLength="51" x="275" y="1129.4526">random()</text><ellipse cx="266" cy="1139.0469" fill="#84BE84" rx="3" ry="3" style="stroke:#038048;stroke-width:1.0;"/><text fill="#000000" font-family="sans-serif" font-size="11" lengthAdjust="spacingAndGlyphs" textLength="136" x="275" y="1142.2573">equals(Object): boolean</text><!--MD5=[8d3188f3c370ea7d5d91d12bca83b67a]
class tictactoe.models.Game--><rect codeLine="42" fill="#FEFECE" filter="url(#fdf1cozy31l2o)" height="201.6563" id="tictactoe.models.Game" style="stroke:#A80036;stroke-width:1.5;" width="231" x="228.5" y="41"/><ellipse cx="322.25" cy="57" fill="#ADD1B2" rx="11" ry="11" style="stroke:#A80036;stroke-width:1.0;"/><path d="M324.5938,52.6719 C323.6563,52.2344 323.0625,52.0938 322.1875,52.0938 C319.5625,52.0938 317.5625,54.1719 317.5625,56.8906 L317.5625,58.0156 C317.5625,60.5938 319.6719,62.4844 322.5625,62.4844 C323.7813,62.4844 324.9375,62.1875 325.6875,61.6406 C326.2656,61.2344 326.5938,60.7813 326.5938,60.3906 C326.5938,59.9375 326.2031,59.5469 325.7344,59.5469 C325.5156,59.5469 325.3125,59.625 325.125,59.8125 C324.6719,60.2969 324.6719,60.2969 324.4844,60.3906 C324.0625,60.6563 323.375,60.7813 322.6094,60.7813 C320.5625,60.7813 319.2656,59.6875 319.2656,57.9844 L319.2656,56.8906 C319.2656,55.1094 320.5156,53.7969 322.25,53.7969 C322.8281,53.7969 323.4375,53.9531 323.9063,54.2031 C324.3906,54.4844 324.5625,54.7031 324.6563,55.1094 C324.7188,55.5156 324.75,55.6406 324.8906,55.7656 C325.0313,55.9063 325.2656,56.0156 325.4844,56.0156 C325.75,56.0156 326.0156,55.875 326.1875,55.6563 C326.2969,55.5 326.3281,55.3125 326.3281,54.8906 L326.3281,53.4688 C326.3281,53.0313 326.3125,52.9063 326.2188,52.75 C326.0625,52.4844 325.7813,52.3438 325.4844,52.3438 C325.1875,52.3438 324.9844,52.4375 324.7656,52.75 L324.5938,52.6719 Z " fill="#000000"/><text fill="#000000" font-family="sans-serif" font-size="12" lengthAdjust="spacingAndGlyphs" textLength="35" x="342.75" y="61.1543">Game</text><line style="stroke:#A80036;stroke-width:1.5;" x1="229.5" x2="458.5" y1="73" y2="73"/><line style="stroke:#A80036;stroke-width:1.5;" x1="229.5" x2="458.5" y1="81" y2="81"/><ellipse cx="239.5" cy="92" fill="#84BE84" rx="3" ry="3" style="stroke:#038048;stroke-width:1.0;"/><text fill="#000000" font-family="sans-serif" font-size="11" lengthAdjust="spacingAndGlyphs" textLength="43" x="248.5" y="95.2104">Game()</text><ellipse cx="239.5" cy="104.8047" fill="#84BE84" rx="3" ry="3" style="stroke:#038048;stroke-width:1.0;"/><text fill="#000000" font-family="sans-serif" font-size="11" lengthAdjust="spacingAndGlyphs" textLength="38" x="248.5" y="108.0151">reset()</text><ellipse cx="239.5" cy="117.6094" fill="#84BE84" rx="3" ry="3" style="stroke:#038048;stroke-width:1.0;"/><text fill="#000000" font-family="sans-serif" font-size="11" lengthAdjust="spacingAndGlyphs" textLength="72" x="248.5" y="120.8198">setUsers(int)</text><ellipse cx="239.5" cy="130.4141" fill="#84BE84" rx="3" ry="3" style="stroke:#038048;stroke-width:1.0;"/><text fill="#000000" font-family="sans-serif" font-size="11" lengthAdjust="spacingAndGlyphs" textLength="159" x="248.5" y="133.6245">isBoardComplete(): boolean</text><ellipse cx="239.5" cy="143.2188" fill="#84BE84" rx="3" ry="3" style="stroke:#038048;stroke-width:1.0;"/><text fill="#000000" font-family="sans-serif" font-size="11" lengthAdjust="spacingAndGlyphs" textLength="96" x="248.5" y="146.4292">isUser(): boolean</text><ellipse cx="239.5" cy="156.0234" fill="#84BE84" rx="3" ry="3" style="stroke:#038048;stroke-width:1.0;"/><text fill="#000000" font-family="sans-serif" font-size="11" lengthAdjust="spacingAndGlyphs" textLength="121" x="248.5" y="159.2339">put(Coordinate): Error</text><ellipse cx="239.5" cy="168.8281" fill="#84BE84" rx="3" ry="3" style="stroke:#038048;stroke-width:1.0;"/><text fill="#000000" font-family="sans-serif" font-size="11" lengthAdjust="spacingAndGlyphs" textLength="205" x="248.5" y="172.0386">move(Coordinate, Coordinate): Error</text><ellipse cx="239.5" cy="181.6328" fill="#84BE84" rx="3" ry="3" style="stroke:#038048;stroke-width:1.0;"/><text fill="#000000" font-family="sans-serif" font-size="11" lengthAdjust="spacingAndGlyphs" textLength="60" x="248.5" y="184.8433">next(Error)</text><ellipse cx="239.5" cy="194.4375" fill="#84BE84" rx="3" ry="3" style="stroke:#038048;stroke-width:1.0;"/><text fill="#000000" font-family="sans-serif" font-size="11" lengthAdjust="spacingAndGlyphs" textLength="128" x="248.5" y="197.6479">isTicTacToe(): boolean</text><ellipse cx="239.5" cy="207.2422" fill="#84BE84" rx="3" ry="3" style="stroke:#038048;stroke-width:1.0;"/><text fill="#000000" font-family="sans-serif" font-size="11" lengthAdjust="spacingAndGlyphs" textLength="166" x="248.5" y="210.4526">getToken(Coordinate): Token</text><ellipse cx="239.5" cy="220.0469" fill="#84BE84" rx="3" ry="3" style="stroke:#038048;stroke-width:1.0;"/><text fill="#000000" font-family="sans-serif" font-size="11" lengthAdjust="spacingAndGlyphs" textLength="104" x="248.5" y="223.2573">getToken(): Token</text><ellipse cx="239.5" cy="232.8516" fill="#84BE84" rx="3" ry="3" style="stroke:#038048;stroke-width:1.0;"/><text fill="#000000" font-family="sans-serif" font-size="11" lengthAdjust="spacingAndGlyphs" textLength="112" x="248.5" y="236.062">getMaxPlayers(): int</text><!--MD5=[b42b9147ed7462532394f7fe6f96703d]
class tictactoe.models.Turn--><rect codeLine="82" fill="#FEFECE" filter="url(#fdf1cozy31l2o)" height="188.8516" id="tictactoe.models.Turn" style="stroke:#A80036;stroke-width:1.5;" width="231" x="191.5" y="303"/><ellipse cx="289.75" cy="319" fill="#ADD1B2" rx="11" ry="11" style="stroke:#A80036;stroke-width:1.0;"/><path d="M292.0938,314.6719 C291.1563,314.2344 290.5625,314.0938 289.6875,314.0938 C287.0625,314.0938 285.0625,316.1719 285.0625,318.8906 L285.0625,320.0156 C285.0625,322.5938 287.1719,324.4844 290.0625,324.4844 C291.2813,324.4844 292.4375,324.1875 293.1875,323.6406 C293.7656,323.2344 294.0938,322.7813 294.0938,322.3906 C294.0938,321.9375 293.7031,321.5469 293.2344,321.5469 C293.0156,321.5469 292.8125,321.625 292.625,321.8125 C292.1719,322.2969 292.1719,322.2969 291.9844,322.3906 C291.5625,322.6563 290.875,322.7813 290.1094,322.7813 C288.0625,322.7813 286.7656,321.6875 286.7656,319.9844 L286.7656,318.8906 C286.7656,317.1094 288.0156,315.7969 289.75,315.7969 C290.3281,315.7969 290.9375,315.9531 291.4063,316.2031 C291.8906,316.4844 292.0625,316.7031 292.1563,317.1094 C292.2188,317.5156 292.25,317.6406 292.3906,317.7656 C292.5313,317.9063 292.7656,318.0156 292.9844,318.0156 C293.25,318.0156 293.5156,317.875 293.6875,317.6563 C293.7969,317.5 293.8281,317.3125 293.8281,316.8906 L293.8281,315.4688 C293.8281,315.0313 293.8125,314.9063 293.7188,314.75 C293.5625,314.4844 293.2813,314.3438 292.9844,314.3438 C292.6875,314.3438 292.4844,314.4375 292.2656,314.75 L292.0938,314.6719 Z " fill="#000000"/><text fill="#000000" font-family="sans-serif" font-size="12" lengthAdjust="spacingAndGlyphs" textLength="26" x="310.25" y="323.1543">Turn</text><line style="stroke:#A80036;stroke-width:1.5;" x1="192.5" x2="421.5" y1="335" y2="335"/><ellipse cx="202.5" cy="346" fill="none" rx="3" ry="3" style="stroke:#038048;stroke-width:1.0;"/><text fill="#000000" font-family="sans-serif" font-size="11" lengthAdjust="spacingAndGlyphs" text-decoration="underline" textLength="101" x="211.5" y="349.2104">NUM_PLAYERS: int</text><rect fill="none" height="6" style="stroke:#C82930;stroke-width:1.0;" width="6" x="199.5" y="355.8047"/><text fill="#000000" font-family="sans-serif" font-size="11" lengthAdjust="spacingAndGlyphs" textLength="56" x="211.5" y="362.0151">active: int</text><rect fill="none" height="6" style="stroke:#C82930;stroke-width:1.0;" width="6" x="199.5" y="368.6094"/><text fill="#000000" font-family="sans-serif" font-size="11" lengthAdjust="spacingAndGlyphs" textLength="52" x="211.5" y="374.8198">users: int</text><line style="stroke:#A80036;stroke-width:1.5;" x1="192.5" x2="421.5" y1="381.4141" y2="381.4141"/><polygon fill="#4177AF" points="202.5,388.4141,198.5,394.4141,206.5,394.4141" style="stroke:#1963A0;stroke-width:1.0;"/><text fill="#000000" font-family="sans-serif" font-size="11" lengthAdjust="spacingAndGlyphs" textLength="66" x="211.5" y="395.6245">Turn(Board)</text><polygon fill="#4177AF" points="202.5,401.2188,198.5,407.2188,206.5,407.2188" style="stroke:#1963A0;stroke-width:1.0;"/><text fill="#000000" font-family="sans-serif" font-size="11" lengthAdjust="spacingAndGlyphs" textLength="72" x="211.5" y="408.4292">setUsers(int)</text><polygon fill="#4177AF" points="202.5,414.0234,198.5,420.0234,206.5,420.0234" style="stroke:#1963A0;stroke-width:1.0;"/><text fill="#000000" font-family="sans-serif" font-size="11" lengthAdjust="spacingAndGlyphs" textLength="34" x="211.5" y="421.2339">next()</text><polygon fill="#4177AF" points="202.5,426.8281,198.5,432.8281,206.5,432.8281" style="stroke:#1963A0;stroke-width:1.0;"/><text fill="#000000" font-family="sans-serif" font-size="11" lengthAdjust="spacingAndGlyphs" textLength="96" x="211.5" y="434.0386">isUser(): boolean</text><polygon fill="#4177AF" points="202.5,439.6328,198.5,445.6328,206.5,445.6328" style="stroke:#1963A0;stroke-width:1.0;"/><text fill="#000000" font-family="sans-serif" font-size="11" lengthAdjust="spacingAndGlyphs" textLength="121" x="211.5" y="446.8433">put(Coordinate): Error</text><polygon fill="#4177AF" points="202.5,452.4375,198.5,458.4375,206.5,458.4375" style="stroke:#1963A0;stroke-width:1.0;"/><text fill="#000000" font-family="sans-serif" font-size="11" lengthAdjust="spacingAndGlyphs" textLength="104" x="211.5" y="459.6479">getPlayer(): Player</text><polygon fill="#4177AF" points="202.5,465.2422,198.5,471.2422,206.5,471.2422" style="stroke:#1963A0;stroke-width:1.0;"/><text fill="#000000" font-family="sans-serif" font-size="11" lengthAdjust="spacingAndGlyphs" textLength="205" x="211.5" y="472.4526">move(Coordinate, Coordinate): Error</text><polygon fill="#4177AF" points="202.5,478.0469,198.5,484.0469,206.5,484.0469" style="stroke:#1963A0;stroke-width:1.0;"/><text fill="#000000" font-family="sans-serif" font-size="11" lengthAdjust="spacingAndGlyphs" textLength="104" x="211.5" y="485.2573">getToken(): Token</text><!--MD5=[3b54484399e9c5d8797124604fd4af65]
class tictactoe.models.Player--><rect codeLine="61" fill="#FEFECE" filter="url(#fdf1cozy31l2o)" height="99.2188" id="tictactoe.models.Player" style="stroke:#A80036;stroke-width:1.5;" width="231" x="173.5" y="552"/><ellipse cx="266.75" cy="568" fill="#ADD1B2" rx="11" ry="11" style="stroke:#A80036;stroke-width:1.0;"/><path d="M269.0938,563.6719 C268.1563,563.2344 267.5625,563.0938 266.6875,563.0938 C264.0625,563.0938 262.0625,565.1719 262.0625,567.8906 L262.0625,569.0156 C262.0625,571.5938 264.1719,573.4844 267.0625,573.4844 C268.2813,573.4844 269.4375,573.1875 270.1875,572.6406 C270.7656,572.2344 271.0938,571.7813 271.0938,571.3906 C271.0938,570.9375 270.7031,570.5469 270.2344,570.5469 C270.0156,570.5469 269.8125,570.625 269.625,570.8125 C269.1719,571.2969 269.1719,571.2969 268.9844,571.3906 C268.5625,571.6563 267.875,571.7813 267.1094,571.7813 C265.0625,571.7813 263.7656,570.6875 263.7656,568.9844 L263.7656,567.8906 C263.7656,566.1094 265.0156,564.7969 266.75,564.7969 C267.3281,564.7969 267.9375,564.9531 268.4063,565.2031 C268.8906,565.4844 269.0625,565.7031 269.1563,566.1094 C269.2188,566.5156 269.25,566.6406 269.3906,566.7656 C269.5313,566.9063 269.7656,567.0156 269.9844,567.0156 C270.25,567.0156 270.5156,566.875 270.6875,566.6563 C270.7969,566.5 270.8281,566.3125 270.8281,565.8906 L270.8281,564.4688 C270.8281,564.0313 270.8125,563.9063 270.7188,563.75 C270.5625,563.4844 270.2813,563.3438 269.9844,563.3438 C269.6875,563.3438 269.4844,563.4375 269.2656,563.75 L269.0938,563.6719 Z " fill="#000000"/><text fill="#000000" font-family="sans-serif" font-size="12" lengthAdjust="spacingAndGlyphs" textLength="36" x="287.25" y="572.1543">Player</text><line style="stroke:#A80036;stroke-width:1.5;" x1="174.5" x2="403.5" y1="584" y2="584"/><line style="stroke:#A80036;stroke-width:1.5;" x1="174.5" x2="403.5" y1="592" y2="592"/><polygon fill="#4177AF" points="184.5,599,180.5,605,188.5,605" style="stroke:#1963A0;stroke-width:1.0;"/><text fill="#000000" font-family="sans-serif" font-size="11" lengthAdjust="spacingAndGlyphs" textLength="118" x="193.5" y="606.2104">Player(Token, Board)</text><polygon fill="#4177AF" points="184.5,611.8047,180.5,617.8047,188.5,617.8047" style="stroke:#1963A0;stroke-width:1.0;"/><text fill="#000000" font-family="sans-serif" font-size="11" lengthAdjust="spacingAndGlyphs" textLength="121" x="193.5" y="619.0151">put(Coordinate): Error</text><polygon fill="#4177AF" points="184.5,624.6094,180.5,630.6094,188.5,630.6094" style="stroke:#1963A0;stroke-width:1.0;"/><text fill="#000000" font-family="sans-serif" font-size="11" lengthAdjust="spacingAndGlyphs" textLength="205" x="193.5" y="631.8198">move(Coordinate, Coordinate): Error</text><polygon fill="#4177AF" points="184.5,637.4141,180.5,643.4141,188.5,643.4141" style="stroke:#1963A0;stroke-width:1.0;"/><text fill="#000000" font-family="sans-serif" font-size="11" lengthAdjust="spacingAndGlyphs" textLength="104" x="193.5" y="644.6245">getToken(): Token</text><!--MD5=[f0e50675208408ddbf1ed7a91f4eb071]
class ClosedInterval--><rect codeLine="1" fill="#FEFECE" filter="url(#fdf1cozy31l2o)" height="53.9375" id="ClosedInterval" style="stroke:#A80036;stroke-width:1.5;" width="130" x="226" y="1209"/><ellipse cx="241" cy="1227.9688" fill="#ADD1B2" rx="11" ry="11" style="stroke:#A80036;stroke-width:1.0;"/><path d="M243.3438,1223.6406 C242.4063,1223.2031 241.8125,1223.0625 240.9375,1223.0625 C238.3125,1223.0625 236.3125,1225.1406 236.3125,1227.8594 L236.3125,1228.9844 C236.3125,1231.5625 238.4219,1233.4531 241.3125,1233.4531 C242.5313,1233.4531 243.6875,1233.1563 244.4375,1232.6094 C245.0156,1232.2031 245.3438,1231.75 245.3438,1231.3594 C245.3438,1230.9063 244.9531,1230.5156 244.4844,1230.5156 C244.2656,1230.5156 244.0625,1230.5938 243.875,1230.7813 C243.4219,1231.2656 243.4219,1231.2656 243.2344,1231.3594 C242.8125,1231.625 242.125,1231.75 241.3594,1231.75 C239.3125,1231.75 238.0156,1230.6563 238.0156,1228.9531 L238.0156,1227.8594 C238.0156,1226.0781 239.2656,1224.7656 241,1224.7656 C241.5781,1224.7656 242.1875,1224.9219 242.6563,1225.1719 C243.1406,1225.4531 243.3125,1225.6719 243.4063,1226.0781 C243.4688,1226.4844 243.5,1226.6094 243.6406,1226.7344 C243.7813,1226.875 244.0156,1226.9844 244.2344,1226.9844 C244.5,1226.9844 244.7656,1226.8438 244.9375,1226.625 C245.0469,1226.4688 245.0781,1226.2813 245.0781,1225.8594 L245.0781,1224.4375 C245.0781,1224 245.0625,1223.875 244.9688,1223.7188 C244.8125,1223.4531 244.5313,1223.3125 244.2344,1223.3125 C243.9375,1223.3125 243.7344,1223.4063 243.5156,1223.7188 L243.3438,1223.6406 Z " fill="#000000"/><text fill="#000000" font-family="sans-serif" font-size="12" lengthAdjust="spacingAndGlyphs" textLength="98" x="255" y="1225.1387">usantatecla.utils.</text><text fill="#000000" font-family="sans-serif" font-size="12" lengthAdjust="spacingAndGlyphs" textLength="86" x="261" y="1239.1074">ClosedInterval</text><line style="stroke:#A80036;stroke-width:1.5;" x1="227" x2="355" y1="1246.9375" y2="1246.9375"/><line style="stroke:#A80036;stroke-width:1.5;" x1="227" x2="355" y1="1254.9375" y2="1254.9375"/><!--MD5=[4ac948797cb0d646e058fac8f0726737]
class ConcreteCoordinate--><rect codeLine="2" fill="#FEFECE" filter="url(#fdf1cozy31l2o)" height="53.9375" id="ConcreteCoordinate" style="stroke:#A80036;stroke-width:1.5;" width="153" x="514.5" y="778.5"/><ellipse cx="529.5" cy="797.4688" fill="#ADD1B2" rx="11" ry="11" style="stroke:#A80036;stroke-width:1.0;"/><path d="M531.8438,793.1406 C530.9063,792.7031 530.3125,792.5625 529.4375,792.5625 C526.8125,792.5625 524.8125,794.6406 524.8125,797.3594 L524.8125,798.4844 C524.8125,801.0625 526.9219,802.9531 529.8125,802.9531 C531.0313,802.9531 532.1875,802.6563 532.9375,802.1094 C533.5156,801.7031 533.8438,801.25 533.8438,800.8594 C533.8438,800.4063 533.4531,800.0156 532.9844,800.0156 C532.7656,800.0156 532.5625,800.0938 532.375,800.2813 C531.9219,800.7656 531.9219,800.7656 531.7344,800.8594 C531.3125,801.125 530.625,801.25 529.8594,801.25 C527.8125,801.25 526.5156,800.1563 526.5156,798.4531 L526.5156,797.3594 C526.5156,795.5781 527.7656,794.2656 529.5,794.2656 C530.0781,794.2656 530.6875,794.4219 531.1563,794.6719 C531.6406,794.9531 531.8125,795.1719 531.9063,795.5781 C531.9688,795.9844 532,796.1094 532.1406,796.2344 C532.2813,796.375 532.5156,796.4844 532.7344,796.4844 C533,796.4844 533.2656,796.3438 533.4375,796.125 C533.5469,795.9688 533.5781,795.7813 533.5781,795.3594 L533.5781,793.9375 C533.5781,793.5 533.5625,793.375 533.4688,793.2188 C533.3125,792.9531 533.0313,792.8125 532.7344,792.8125 C532.4375,792.8125 532.2344,792.9063 532.0156,793.2188 L531.8438,793.1406 Z " fill="#000000"/><text fill="#000000" font-family="sans-serif" font-size="12" lengthAdjust="spacingAndGlyphs" textLength="98" x="555" y="794.6387">usantatecla.utils.</text><text fill="#000000" font-family="sans-serif" font-size="12" lengthAdjust="spacingAndGlyphs" textLength="121" x="543.5" y="808.6074">ConcreteCoordinate</text><line style="stroke:#A80036;stroke-width:1.5;" x1="515.5" x2="666.5" y1="816.4375" y2="816.4375"/><line style="stroke:#A80036;stroke-width:1.5;" x1="515.5" x2="666.5" y1="824.4375" y2="824.4375"/><!--MD5=[02f7077ed79257124e28b791f351f1d7]
class Direction--><rect codeLine="3" fill="#FEFECE" filter="url(#fdf1cozy31l2o)" height="53.9375" id="Direction" style="stroke:#A80036;stroke-width:1.5;" width="130" x="23" y="1209"/><ellipse cx="38" cy="1227.9688" fill="#ADD1B2" rx="11" ry="11" style="stroke:#A80036;stroke-width:1.0;"/><path d="M40.3438,1223.6406 C39.4063,1223.2031 38.8125,1223.0625 37.9375,1223.0625 C35.3125,1223.0625 33.3125,1225.1406 33.3125,1227.8594 L33.3125,1228.9844 C33.3125,1231.5625 35.4219,1233.4531 38.3125,1233.4531 C39.5313,1233.4531 40.6875,1233.1563 41.4375,1232.6094 C42.0156,1232.2031 42.3438,1231.75 42.3438,1231.3594 C42.3438,1230.9063 41.9531,1230.5156 41.4844,1230.5156 C41.2656,1230.5156 41.0625,1230.5938 40.875,1230.7813 C40.4219,1231.2656 40.4219,1231.2656 40.2344,1231.3594 C39.8125,1231.625 39.125,1231.75 38.3594,1231.75 C36.3125,1231.75 35.0156,1230.6563 35.0156,1228.9531 L35.0156,1227.8594 C35.0156,1226.0781 36.2656,1224.7656 38,1224.7656 C38.5781,1224.7656 39.1875,1224.9219 39.6563,1225.1719 C40.1406,1225.4531 40.3125,1225.6719 40.4063,1226.0781 C40.4688,1226.4844 40.5,1226.6094 40.6406,1226.7344 C40.7813,1226.875 41.0156,1226.9844 41.2344,1226.9844 C41.5,1226.9844 41.7656,1226.8438 41.9375,1226.625 C42.0469,1226.4688 42.0781,1226.2813 42.0781,1225.8594 L42.0781,1224.4375 C42.0781,1224 42.0625,1223.875 41.9688,1223.7188 C41.8125,1223.4531 41.5313,1223.3125 41.2344,1223.3125 C40.9375,1223.3125 40.7344,1223.4063 40.5156,1223.7188 L40.3438,1223.6406 Z " fill="#000000"/><text fill="#000000" font-family="sans-serif" font-size="12" lengthAdjust="spacingAndGlyphs" textLength="98" x="52" y="1225.1387">usantatecla.utils.</text><text fill="#000000" font-family="sans-serif" font-size="12" lengthAdjust="spacingAndGlyphs" textLength="54" x="74" y="1239.1074">Direction</text><line style="stroke:#A80036;stroke-width:1.5;" x1="24" x2="152" y1="1246.9375" y2="1246.9375"/><line style="stroke:#A80036;stroke-width:1.5;" x1="24" x2="152" y1="1254.9375" y2="1254.9375"/><!--MD5=[b8cfd8c4119a3b0a7a46bfc5fc780f85]
class Error--><rect codeLine="4" fill="#FEFECE" filter="url(#fdf1cozy31l2o)" height="48" id="Error" style="stroke:#A80036;stroke-width:1.5;" width="154" x="679" y="1212"/><ellipse cx="694" cy="1228" fill="#ADD1B2" rx="11" ry="11" style="stroke:#A80036;stroke-width:1.0;"/><path d="M696.3438,1223.6719 C695.4063,1223.2344 694.8125,1223.0938 693.9375,1223.0938 C691.3125,1223.0938 689.3125,1225.1719 689.3125,1227.8906 L689.3125,1229.0156 C689.3125,1231.5938 691.4219,1233.4844 694.3125,1233.4844 C695.5313,1233.4844 696.6875,1233.1875 697.4375,1232.6406 C698.0156,1232.2344 698.3438,1231.7813 698.3438,1231.3906 C698.3438,1230.9375 697.9531,1230.5469 697.4844,1230.5469 C697.2656,1230.5469 697.0625,1230.625 696.875,1230.8125 C696.4219,1231.2969 696.4219,1231.2969 696.2344,1231.3906 C695.8125,1231.6563 695.125,1231.7813 694.3594,1231.7813 C692.3125,1231.7813 691.0156,1230.6875 691.0156,1228.9844 L691.0156,1227.8906 C691.0156,1226.1094 692.2656,1224.7969 694,1224.7969 C694.5781,1224.7969 695.1875,1224.9531 695.6563,1225.2031 C696.1406,1225.4844 696.3125,1225.7031 696.4063,1226.1094 C696.4688,1226.5156 696.5,1226.6406 696.6406,1226.7656 C696.7813,1226.9063 697.0156,1227.0156 697.2344,1227.0156 C697.5,1227.0156 697.7656,1226.875 697.9375,1226.6563 C698.0469,1226.5 698.0781,1226.3125 698.0781,1225.8906 L698.0781,1224.4688 C698.0781,1224.0313 698.0625,1223.9063 697.9688,1223.75 C697.8125,1223.4844 697.5313,1223.3438 697.2344,1223.3438 C696.9375,1223.3438 696.7344,1223.4375 696.5156,1223.75 L696.3438,1223.6719 Z " fill="#000000"/><text fill="#000000" font-family="sans-serif" font-size="12" lengthAdjust="spacingAndGlyphs" textLength="122" x="708" y="1232.1543">tictactoe.types.Error</text><line style="stroke:#A80036;stroke-width:1.5;" x1="680" x2="832" y1="1244" y2="1244"/><line style="stroke:#A80036;stroke-width:1.5;" x1="680" x2="832" y1="1252" y2="1252"/><!--MD5=[4d767eb7856a0f3ee1c42783f4735c13]
link tictactoe.models.Board to tictactoe.models.Token--><path codeLine="20" d="M162.1434,912.2316 C162.1434,912.2316 161.731,963.211 161.551,985.437 " fill="none" id="tictactoe.models.Board-tictactoe.models.Token" style="stroke:#A80036;stroke-width:1.0;"/><polygon fill="#A80036" points="161.445,998.496,165.5181,989.5288,161.4857,993.4962,157.5183,989.4638,161.445,998.496" style="stroke:#A80036;stroke-width:1.0;"/><line style="stroke:#A80036;stroke-width:1.0;" x1="161.4857" x2="161.551" y1="993.4962" y2="985.497"/><polygon fill="#A80036" points="162.241,900.232,158.1923,906.1993,162.1434,912.2316,166.1921,906.2643,162.241,900.232" style="stroke:#A80036;stroke-width:1.0;"/><text fill="#000000" font-family="sans-serif" font-size="13" lengthAdjust="spacingAndGlyphs" textLength="7" x="154.0536" y="987.4335">*</text><!--MD5=[9415c0c61774263745e2cedb44e639c6]
link tictactoe.models.Board to tictactoe.models.Coordinate--><path codeLine="21" d="M240.415,900.232 C255.399,918.376 271.137,937.431 286.226,955.701 " fill="none" id="tictactoe.models.Board-to-tictactoe.models.Coordinate" style="stroke:#A80036;stroke-width:1.0;stroke-dasharray:7.0,7.0;"/><polygon fill="#A80036" points="289.638,959.832,286.9912,950.3455,286.4541,955.9768,280.8228,955.4397,289.638,959.832" style="stroke:#A80036;stroke-width:1.0;"/><!--MD5=[95371b819337377421bee880416b6571]
link tictactoe.models.Board to Direction--><path codeLine="22" d="M106.83,900.034 C97.7992,919.249 89.8388,939.796 85,960 C64.3574,1046.191 75.2279,1151.974 82.7646,1203.6204 " fill="none" id="tictactoe.models.Board-to-Direction" style="stroke:#A80036;stroke-width:1.0;stroke-dasharray:7.0,7.0;"/><polygon fill="#A80036" points="83.5278,1208.7471,86.1586,1199.2561,82.7914,1203.8016,78.2459,1200.4344,83.5278,1208.7471" style="stroke:#A80036;stroke-width:1.0;"/><!--MD5=[4ae82c12558cb4b2e8949f940e9da2cf]
reverse link ConcreteCoordinate to tictactoe.models.Coordinate--><path codeLine="37" d="M553.255,848.121 C525.571,878.648 486.87,921.322 451.914,959.867 " fill="none" id="ConcreteCoordinate-backto-tictactoe.models.Coordinate" style="stroke:#A80036;stroke-width:1.0;"/><polygon fill="none" points="548.407,843.046,567.028,832.933,558.778,852.451,548.407,843.046" style="stroke:#A80036;stroke-width:1.0;"/><!--MD5=[0dc3277290a75d87b382fb6ce6bec75b]
link tictactoe.models.Coordinate to Error--><path codeLine="38" d="M479.254,1107.298 C552.16,1140.94 643.965,1183.3026 701.334,1209.7749 " fill="none" id="tictactoe.models.Coordinate-to-Error" style="stroke:#A80036;stroke-width:1.0;stroke-dasharray:7.0,7.0;"/><polygon fill="#A80036" points="706.089,1211.9693,699.594,1204.5656,701.5493,1209.8737,696.2411,1211.829,706.089,1211.9693" style="stroke:#A80036;stroke-width:1.0;"/><!--MD5=[787386d7ca2e6f5e643967cb883a78fa]
link tictactoe.models.Coordinate to Direction--><path codeLine="39" d="M270.466,1149.044 C259.569,1157.666 248.308,1165.8373 237,1173 C212.601,1188.4549 183.692,1201.5162 157.861,1211.6057 " fill="none" id="tictactoe.models.Coordinate-to-Direction" style="stroke:#A80036;stroke-width:1.0;stroke-dasharray:7.0,7.0;"/><polygon fill="#A80036" points="153.075,1213.455,162.9119,1213.9409,157.7387,1211.6522,160.0274,1206.479,153.075,1213.455" style="stroke:#A80036;stroke-width:1.0;"/><!--MD5=[ba6e042f6a8c44c789ccd24fbb2adc9a]
link tictactoe.models.Coordinate to ClosedInterval--><path codeLine="40" d="M327.331,1149.193 C318.915,1169.0684 310.61,1188.6854 304.068,1204.1352 " fill="none" id="tictactoe.models.Coordinate-to-ClosedInterval" style="stroke:#A80036;stroke-width:1.0;stroke-dasharray:7.0,7.0;"/><polygon fill="#A80036" points="302.096,1208.7918,309.2879,1202.063,304.045,1204.1873,301.9207,1198.9445,302.096,1208.7918" style="stroke:#A80036;stroke-width:1.0;"/><!--MD5=[b634369fa6e65a8dead148f8efc150f7]
link tictactoe.models.Game to tictactoe.models.Board--><path codeLine="56" d="M219.9927,243.7755 C219.9927,243.7755 186.331,282.482 174,303 C92.8221,438.075 78.1311,495.892 106,651 C108.816,666.675 113.13,682.841 118.15,698.532 " fill="none" id="tictactoe.models.Game-tictactoe.models.Board" style="stroke:#A80036;stroke-width:1.0;"/><polygon fill="#A80036" points="122.313,710.995,123.2556,701.1913,120.7289,706.2526,115.6677,703.7259,122.313,710.995" style="stroke:#A80036;stroke-width:1.0;"/><line style="stroke:#A80036;stroke-width:1.0;" x1="120.7289" x2="118.1945" y1="706.2526" y2="698.6645"/><polygon fill="#A80036" points="228.325,235.14,221.2803,236.6803,219.9927,243.7755,227.0374,242.2352,228.325,235.14" style="stroke:#A80036;stroke-width:1.0;"/><!--MD5=[aa5c2eaa34da3707c874f29e1edc60f9]
link tictactoe.models.Game to tictactoe.models.Turn--><path codeLine="57" d="M327.6493,255.065 C327.6493,255.065 324.188,278.737 322.564,289.867 " fill="none" id="tictactoe.models.Game-tictactoe.models.Turn" style="stroke:#A80036;stroke-width:1.0;"/><polygon fill="#A80036" points="320.674,302.815,325.9316,294.4869,321.3959,297.8674,318.0154,293.3318,320.674,302.815" style="stroke:#A80036;stroke-width:1.0;"/><line style="stroke:#A80036;stroke-width:1.0;" x1="321.3959" x2="322.5515" y1="297.8674" y2="289.951"/><polygon fill="#A80036" points="329.377,243.19,324.5548,248.5516,327.6493,255.065,332.4715,249.7034,329.377,243.19" style="stroke:#A80036;stroke-width:1.0;"/><!--MD5=[3af71857b9ad654b2037bc7ee0d85849]
link tictactoe.models.Game to tictactoe.models.Coordinate--><path codeLine="58" d="M415.122,243.42 C425.363,262.42 434.339,282.719 440,303 C511.34,558.563 498.93,641.293 440,900 C435.836,918.278 429.244,936.938 421.684,954.663 " fill="none" id="tictactoe.models.Game-to-tictactoe.models.Coordinate" style="stroke:#A80036;stroke-width:1.0;stroke-dasharray:7.0,7.0;"/><polygon fill="#A80036" points="419.528,959.637,426.7794,952.9724,421.5179,955.05,419.4403,949.7885,419.528,959.637" style="stroke:#A80036;stroke-width:1.0;"/><!--MD5=[1e1952a5c407ff6ca98def89eca250c2]
link tictactoe.models.Game to Error--><path codeLine="59" d="M459.505,185.12 C612.437,249.22 863,386.847 863,600.5 C863,600.5 863,600.5 863,806.5 C863,971.147 877.156,1023.122 809,1173 C803.204,1185.7455 793.979,1197.8944 784.838,1208.0062 " fill="none" id="tictactoe.models.Game-to-Error" style="stroke:#A80036;stroke-width:1.0;stroke-dasharray:7.0,7.0;"/><polygon fill="#A80036" points="781.211,1211.922,790.2613,1208.0372,784.6086,1208.2537,784.392,1202.601,781.211,1211.922" style="stroke:#A80036;stroke-width:1.0;"/><!--MD5=[deb900ba4dab24d2621c91432ed3d5e7]
link tictactoe.models.Player to tictactoe.models.Token--><path codeLine="67" d="M320.6243,662.109 C320.6243,662.109 381.173,826.265 339,900 C312.888,945.655 276.886,925.717 237,960 C227.244,968.386 217.789,978.139 209.054,988.118 " fill="none" id="tictactoe.models.Player-tictactoe.models.Token" style="stroke:#A80036;stroke-width:1.0;"/><polygon fill="#A80036" points="200.574,998.13,209.4429,993.8472,203.8054,994.3145,203.3381,988.677,200.574,998.13" style="stroke:#A80036;stroke-width:1.0;"/><line style="stroke:#A80036;stroke-width:1.0;" x1="203.8054" x2="208.976" y1="994.3145" y2="988.2095"/><polygon fill="#A80036" points="315.545,651.237,314.4607,658.3661,320.6243,662.109,321.7087,654.9799,315.545,651.237" style="stroke:#A80036;stroke-width:1.0;"/><!--MD5=[4d61797189bd4e3921b05d5b1c2f3641]
link tictactoe.models.Player to tictactoe.models.Board--><path codeLine="68" d="M252.3091,661.3227 C252.3091,661.3227 236.381,686.858 228.437,699.593 " fill="none" id="tictactoe.models.Player-tictactoe.models.Board" style="stroke:#A80036;stroke-width:1.0;"/><polygon fill="#A80036" points="221.455,710.787,229.6126,705.2685,224.1016,706.5449,222.8252,701.0339,221.455,710.787" style="stroke:#A80036;stroke-width:1.0;"/><line style="stroke:#A80036;stroke-width:1.0;" x1="224.1016" x2="228.3355" y1="706.5449" y2="699.7565"/><polygon fill="#A80036" points="258.66,651.141,252.0907,654.1149,252.3091,661.3227,258.8785,658.3488,258.66,651.141" style="stroke:#A80036;stroke-width:1.0;"/><!--MD5=[8c8274b143d2ce23d56b10c65f754674]
link tictactoe.models.Player to tictactoe.models.Coordinate--><path codeLine="69" d="M339.467,651.044 C354.16,668.407 368.315,689.132 376,711 C403.636,789.642 398.318,884.818 387.845,954.86 " fill="none" id="tictactoe.models.Player-to-tictactoe.models.Coordinate" style="stroke:#A80036;stroke-width:1.0;stroke-dasharray:7.0,7.0;"/><polygon fill="#A80036" points="387.082,959.859,392.3916,951.5639,387.8349,954.916,384.4828,950.3593,387.082,959.859" style="stroke:#A80036;stroke-width:1.0;"/><!--MD5=[5f38bb10c8a4955eb5b1e5512962abb2]
link tictactoe.models.Player to Error--><path codeLine="70" d="M404.82,619.824 C508,637.725 648.202,668.962 685,711 C750.492,785.819 755.985,1109.218 756.126,1206.9331 " fill="none" id="tictactoe.models.Player-to-Error" style="stroke:#A80036;stroke-width:1.0;stroke-dasharray:7.0,7.0;"/><polygon fill="#A80036" points="756.129,1211.9588,760.129,1202.9588,756.129,1206.9588,752.129,1202.9588,756.129,1211.9588" style="stroke:#A80036;stroke-width:1.0;"/><!--MD5=[6ce0da5fb43f3a222e50909c1d288d66]
link tictactoe.models.Token to ClosedInterval--><path codeLine="80" d="M194.426,1110.708 C207.151,1130.75 222.168,1153.3 237,1173 C245.11,1183.772 254.587,1195.0359 263.318,1204.9621 " fill="none" id="tictactoe.models.Token-to-ClosedInterval" style="stroke:#A80036;stroke-width:1.0;stroke-dasharray:7.0,7.0;"/><polygon fill="#A80036" points="266.751,1208.8401,263.7794,1199.4502,263.4364,1205.0967,257.7899,1204.7537,266.751,1208.8401" style="stroke:#A80036;stroke-width:1.0;"/><!--MD5=[445ca9be6ac7acaf2fbd96fa00e05ee8]
link tictactoe.models.Turn to tictactoe.models.Player--><path codeLine="96" d="M297.5935,504.0606 C297.5935,504.0606 295.459,528.02 294.508,538.693 " fill="none" id="tictactoe.models.Turn-tictactoe.models.Player" style="stroke:#A80036;stroke-width:1.0;"/><polygon fill="#A80036" points="293.34,551.799,298.1233,543.1897,293.784,546.8187,290.1549,542.4794,293.34,551.799" style="stroke:#A80036;stroke-width:1.0;"/><line style="stroke:#A80036;stroke-width:1.0;" x1="293.784" x2="294.494" y1="546.8187" y2="538.85"/><polygon fill="#A80036" points="298.659,492.108,294.142,497.7291,297.5935,504.0606,302.1105,498.4395,298.659,492.108" style="stroke:#A80036;stroke-width:1.0;"/><text fill="#000000" font-family="sans-serif" font-size="13" lengthAdjust="spacingAndGlyphs" textLength="7" x="286.4581" y="540.816">*</text><!--MD5=[11aca849becf2c66e9fb721656f4b409]
link tictactoe.models.Turn to tictactoe.models.Board--><path codeLine="97" d="M182.3414,480.2278 C182.3414,480.2278 140.29,525.27 128,552 C107.17,597.304 111.454,651.64 122.782,698.282 " fill="none" id="tictactoe.models.Turn-tictactoe.models.Board" style="stroke:#A80036;stroke-width:1.0;"/><polygon fill="#A80036" points="126.061,710.904,127.6684,701.1872,124.8033,706.0648,119.9257,703.1996,126.061,710.904" style="stroke:#A80036;stroke-width:1.0;"/><line style="stroke:#A80036;stroke-width:1.0;" x1="124.8033" x2="122.7925" y1="706.0648" y2="698.3215"/><polygon fill="#A80036" points="191.23,472.166,184.0984,473.2341,182.3414,480.2278,189.473,479.1598,191.23,472.166" style="stroke:#A80036;stroke-width:1.0;"/><!--MD5=[870db85c9eb6b495f5a4d2610449cf10]
link tictactoe.models.Turn to tictactoe.models.Token--><path codeLine="98" d="M193.41,492.397 C178.166,510.488 164.781,530.551 156,552 C139.329,592.719 131.129,614.703 156,651 C197.755,711.937 269.245,650.063 311,711 C334.74,745.647 329.07,862.086 311,900 C292.783,938.222 266.958,930.078 237,960 C226.362,970.625 215.707,982.654 205.882,994.462 " fill="none" id="tictactoe.models.Turn-to-tictactoe.models.Token" style="stroke:#A80036;stroke-width:1.0;stroke-dasharray:7.0,7.0;"/><polygon fill="#A80036" points="202.583,998.455,211.399,994.0643,205.7676,994.6003,205.2315,988.9689,202.583,998.455" style="stroke:#A80036;stroke-width:1.0;"/><!--MD5=[48951ad2288b716169f812a2c734d472]
link tictactoe.models.Turn to tictactoe.models.Coordinate--><path codeLine="99" d="M391.534,492.196 C404.048,510.846 415.056,531.149 422,552 C466.884,686.769 432.827,852.048 401.835,955.096 " fill="none" id="tictactoe.models.Turn-to-tictactoe.models.Coordinate" style="stroke:#A80036;stroke-width:1.0;stroke-dasharray:7.0,7.0;"/><polygon fill="#A80036" points="400.362,959.956,406.8005,952.5031,401.8122,955.1709,399.1444,950.1827,400.362,959.956" style="stroke:#A80036;stroke-width:1.0;"/><!--MD5=[448c7c6490121f34126ed8904289109a]
link tictactoe.models.Turn to Error--><path codeLine="100" d="M422.765,449.641 C523.453,500.606 664.291,588.889 737,711 C834.98,875.553 784.752,1123.533 763.739,1206.6874 " fill="none" id="tictactoe.models.Turn-to-Error" style="stroke:#A80036;stroke-width:1.0;stroke-dasharray:7.0,7.0;"/><polygon fill="#A80036" points="762.399,1211.9237,768.5052,1204.1962,763.6385,1207.0798,760.7549,1202.213,762.399,1211.9237" style="stroke:#A80036;stroke-width:1.0;"/><!--MD5=[d306cc2ca8157d4268afd37ba1a8fe11]
@startuml
class ClosedInterval as "usantatecla.utils.\nClosedInterval" {}
class ConcreteCoordinate as "usantatecla.utils.\nConcreteCoordinate" {}
class Direction as "usantatecla.utils.\nDirection" {}
class Error as "tictactoe.types.Error" {}

class  tictactoe.models.Board{
+ Board()
~ reset()
~ getToken(Coordinate): Token
~ boolean isCompleted()
~ put(Coordinate, Token)
~ move(Coordinate, Coordinate)
- remove(Coordinate)
~ isOccupied(Coordinate, Token): boolean
~ isEmpty(Coordinate): boolean
~ isTicTacToe(Token): boolean
- getCoordinates(Token): List<Coordinate>
}

tictactoe.models.Board *-down-> "*" tictactoe.models.Token
tictactoe.models.Board .down.> tictactoe.models.Coordinate
tictactoe.models.Board .down.> Direction

class  tictactoe.models.Coordinate{
- {static} NULL_COORDINATE: Coordinate
+ {static} DIMENSION: int
- {static} LIMITS: ClosedInterval
+ Coordinate()
+ Coordinate(int, int)
+ isNull(): boolean
+ isValid(): Error
+ getDirection(Coordinate): Direction
- inInverseDiagonal(): boolean
+ random()
+ equals(Object): boolean
}
ConcreteCoordinate <|-down- tictactoe.models.Coordinate
tictactoe.models.Coordinate .down.> Error
tictactoe.models.Coordinate .down.> Direction
tictactoe.models.Coordinate .down.> ClosedInterval

class  tictactoe.models.Game{
+ Game()
+ reset()
+ setUsers(int)
+ isBoardComplete(): boolean
+ isUser(): boolean
+ put(Coordinate): Error
+ move(Coordinate, Coordinate): Error
+ next(Error)
+ isTicTacToe(): boolean
+ getToken(Coordinate): Token
+ getToken(): Token
+ getMaxPlayers(): int
}
tictactoe.models.Game *-down-> tictactoe.models.Board
tictactoe.models.Game *-down-> tictactoe.models.Turn
tictactoe.models.Game .down.> tictactoe.models.Coordinate
tictactoe.models.Game .down.> Error

class  tictactoe.models.Player{
~ Player(Token, Board)
~ put(Coordinate): Error
~ move(Coordinate, Coordinate): Error
~ getToken(): Token
}
tictactoe.models.Player *-down-> tictactoe.models.Token
tictactoe.models.Player *-down-> tictactoe.models.Board
tictactoe.models.Player .down.> tictactoe.models.Coordinate
tictactoe.models.Player .down.> Error

enum  tictactoe.models.Token{
+ X
+ O
+ NULL
+ isNull(): boolean
+ {static} get(int): Token
}

tictactoe.models.Token .down.> ClosedInterval

class  tictactoe.models.Turn{
+ {static} NUM_PLAYERS: int
- active: int
- users: int
~ Turn(Board)
~ setUsers(int)
~ next()
~ isUser(): boolean
~ put(Coordinate): Error
~ getPlayer(): Player
~ move(Coordinate, Coordinate): Error
~ getToken(): Token
}

tictactoe.models.Turn *-down-> "*" tictactoe.models.Player
tictactoe.models.Turn *-down-> tictactoe.models.Board
tictactoe.models.Turn .down.-> tictactoe.models.Token
tictactoe.models.Turn .down.-> tictactoe.models.Coordinate
tictactoe.models.Turn .down.-> Error
@enduml

PlantUML version 1.2020.21beta7(Unknown compile time)
(GPL source distribution)
Java Runtime: Java(TM) SE Runtime Environment
JVM: Java HotSpot(TM) 64-Bit Server VM
Default Encoding: UTF-8
Language: en
Country: US
--></g></svg>