<?xml version="1.0" encoding="UTF-8" standalone="no"?><svg xmlns="http://www.w3.org/2000/svg" xmlns:xlink="http://www.w3.org/1999/xlink" contentScriptType="application/ecmascript" contentStyleType="text/css" height="452px" preserveAspectRatio="none" style="width:865px;height:452px;" version="1.1" viewBox="0 0 865 452" width="865px" zoomAndPan="magnify"><defs><filter height="300%" id="f79fikqgxg0n4" width="300%" x="-1" y="-1"><feGaussianBlur result="blurOut" stdDeviation="2.0"/><feColorMatrix in="blurOut" result="blurOut2" type="matrix" values="0 0 0 0 0 0 0 0 0 0 0 0 0 0 0 0 0 0 .4 0"/><feOffset dx="4.0" dy="4.0" in="blurOut2" result="blurOut3"/><feBlend in="SourceGraphic" in2="blurOut3" mode="normal"/></filter></defs><g><!--MD5=[ee7e9a007a7c4d40c0679a27f272732d]
cluster tictactoe.controllers--><polygon fill="#FFFFFF" filter="url(#f79fikqgxg0n4)" points="52.5644,6,228.5644,6,235.5644,28.2969,705.5648,28.2969,705.5648,341,52.5644,341,52.5644,6" style="stroke:#000000;stroke-width:1.5;"/><line style="stroke:#000000;stroke-width:1.5;" x1="52.5644" x2="235.5644" y1="28.2969" y2="28.2969"/><text fill="#000000" font-family="sans-serif" font-size="14" font-weight="bold" lengthAdjust="spacingAndGlyphs" textLength="170" x="56.5644" y="20.9951">tictactoe.controllers</text><!--MD5=[957eef6538bab7382edbc29d98579a60]
class tictactoe.controllers.Controller--><rect codeLine="7" fill="#FEFECE" filter="url(#f79fikqgxg0n4)" height="73.6094" id="tictactoe.controllers.Controller" style="stroke:#A80036;stroke-width:1.5;" width="192" x="254.5648" y="41"/><ellipse cx="317.3148" cy="57" fill="#A9DCDF" rx="11" ry="11" style="stroke:#A80036;stroke-width:1.0;"/><path d="M319.3929,58.8125 L319.7836,59.7969 L319.3929,59.7969 C318.9398,59.7969 318.8304,59.8125 318.6742,59.9219 C318.4242,60.0781 318.2679,60.3594 318.2679,60.6563 C318.2679,60.9219 318.4086,61.1719 318.6273,61.3281 C318.7679,61.4531 318.9711,61.5 319.3929,61.5 L321.7523,61.5 C322.1117,61.5 322.3304,61.4688 322.4711,61.375 C322.7211,61.2344 322.8773,60.9375 322.8773,60.6563 C322.8773,60.375 322.7367,60.125 322.5179,59.9688 C322.3461,59.8281 322.1898,59.7969 321.7211,59.7969 L318.3304,51.5938 L314.6586,51.5938 C314.2054,51.5938 314.0804,51.6094 313.9242,51.7031 C313.6742,51.875 313.5179,52.1563 313.5179,52.4375 C313.5179,52.7188 313.6586,52.9688 313.8773,53.1406 C314.0492,53.25 314.2211,53.2813 314.6586,53.2813 L315.7367,53.2813 L313.0961,59.7969 C312.6742,59.7969 312.5179,59.8125 312.3617,59.9219 C312.1117,60.0781 311.9554,60.3594 311.9554,60.6563 C311.9554,61.2188 312.3304,61.5 313.0804,61.5 L315.3461,61.5 C315.7054,61.5 315.9242,61.4688 316.0492,61.375 C316.3148,61.2344 316.4554,60.9375 316.4554,60.6563 C316.4554,60.375 316.3304,60.125 316.1117,59.9531 C315.9398,59.8281 315.7992,59.7969 315.3461,59.7969 L314.9554,59.7969 L315.3461,58.8125 L319.3929,58.8125 Z M318.6898,57.1094 L316.0179,57.1094 L317.3617,53.8438 L318.6898,57.1094 Z " fill="#000000"/><text fill="#000000" font-family="sans-serif" font-size="12" font-style="italic" lengthAdjust="spacingAndGlyphs" textLength="58" x="337.8148" y="61.1543">Controller</text><line style="stroke:#A80036;stroke-width:1.5;" x1="255.5648" x2="445.5648" y1="73" y2="73"/><line style="stroke:#A80036;stroke-width:1.5;" x1="255.5648" x2="445.5648" y1="81" y2="81"/><polygon fill="#4177AF" points="265.5648,88,261.5648,94,269.5648,94" style="stroke:#1963A0;stroke-width:1.0;"/><text fill="#000000" font-family="sans-serif" font-size="11" lengthAdjust="spacingAndGlyphs" textLength="98" x="274.5648" y="95.2104">Controller(Game)</text><ellipse cx="265.5648" cy="104.8047" fill="#84BE84" rx="3" ry="3" style="stroke:#038048;stroke-width:1.0;"/><text fill="#000000" font-family="sans-serif" font-size="11" lengthAdjust="spacingAndGlyphs" textLength="166" x="274.5648" y="108.0151">getToken(Coordinate): Token</text><!--MD5=[b574e60c06c50037ff1b014277a67d62]
class tictactoe.controllers.PlayController--><rect codeLine="14" fill="#FEFECE" filter="url(#f79fikqgxg0n4)" height="150.4375" id="tictactoe.controllers.PlayController" style="stroke:#A80036;stroke-width:1.5;" width="228" x="461.5648" y="175"/><ellipse cx="530.3148" cy="191" fill="#ADD1B2" rx="11" ry="11" style="stroke:#A80036;stroke-width:1.0;"/><path d="M532.6586,186.6719 C531.7211,186.2344 531.1273,186.0938 530.2523,186.0938 C527.6273,186.0938 525.6273,188.1719 525.6273,190.8906 L525.6273,192.0156 C525.6273,194.5938 527.7367,196.4844 530.6273,196.4844 C531.8461,196.4844 533.0023,196.1875 533.7523,195.6406 C534.3304,195.2344 534.6586,194.7813 534.6586,194.3906 C534.6586,193.9375 534.2679,193.5469 533.7992,193.5469 C533.5804,193.5469 533.3773,193.625 533.1898,193.8125 C532.7367,194.2969 532.7367,194.2969 532.5492,194.3906 C532.1273,194.6563 531.4398,194.7813 530.6742,194.7813 C528.6273,194.7813 527.3304,193.6875 527.3304,191.9844 L527.3304,190.8906 C527.3304,189.1094 528.5804,187.7969 530.3148,187.7969 C530.8929,187.7969 531.5023,187.9531 531.9711,188.2031 C532.4554,188.4844 532.6273,188.7031 532.7211,189.1094 C532.7836,189.5156 532.8148,189.6406 532.9554,189.7656 C533.0961,189.9063 533.3304,190.0156 533.5492,190.0156 C533.8148,190.0156 534.0804,189.875 534.2523,189.6563 C534.3617,189.5 534.3929,189.3125 534.3929,188.8906 L534.3929,187.4688 C534.3929,187.0313 534.3773,186.9063 534.2836,186.75 C534.1273,186.4844 533.8461,186.3438 533.5492,186.3438 C533.2523,186.3438 533.0492,186.4375 532.8304,186.75 L532.6586,186.6719 Z " fill="#000000"/><text fill="#000000" font-family="sans-serif" font-size="12" lengthAdjust="spacingAndGlyphs" textLength="82" x="550.8148" y="195.1543">PlayController</text><line style="stroke:#A80036;stroke-width:1.5;" x1="462.5648" x2="688.5648" y1="207" y2="207"/><line style="stroke:#A80036;stroke-width:1.5;" x1="462.5648" x2="688.5648" y1="215" y2="215"/><ellipse cx="472.5648" cy="226" fill="#84BE84" rx="3" ry="3" style="stroke:#038048;stroke-width:1.0;"/><text fill="#000000" font-family="sans-serif" font-size="11" lengthAdjust="spacingAndGlyphs" textLength="121" x="481.5648" y="229.2104">PlayController(Game)</text><ellipse cx="472.5648" cy="238.8047" fill="#84BE84" rx="3" ry="3" style="stroke:#038048;stroke-width:1.0;"/><text fill="#000000" font-family="sans-serif" font-size="11" lengthAdjust="spacingAndGlyphs" textLength="159" x="481.5648" y="242.0151">isBoardComplete(): boolean</text><ellipse cx="472.5648" cy="251.6094" fill="#84BE84" rx="3" ry="3" style="stroke:#038048;stroke-width:1.0;"/><text fill="#000000" font-family="sans-serif" font-size="11" lengthAdjust="spacingAndGlyphs" textLength="128" x="481.5648" y="254.8198">isTicTacToe(): boolean</text><ellipse cx="472.5648" cy="264.4141" fill="#84BE84" rx="3" ry="3" style="stroke:#038048;stroke-width:1.0;"/><text fill="#000000" font-family="sans-serif" font-size="11" lengthAdjust="spacingAndGlyphs" textLength="104" x="481.5648" y="267.6245">getToken(): Token</text><ellipse cx="472.5648" cy="277.2188" fill="#84BE84" rx="3" ry="3" style="stroke:#038048;stroke-width:1.0;"/><text fill="#000000" font-family="sans-serif" font-size="11" lengthAdjust="spacingAndGlyphs" textLength="96" x="481.5648" y="280.4292">isUser(): boolean</text><ellipse cx="472.5648" cy="290.0234" fill="#84BE84" rx="3" ry="3" style="stroke:#038048;stroke-width:1.0;"/><text fill="#000000" font-family="sans-serif" font-size="11" lengthAdjust="spacingAndGlyphs" textLength="202" x="481.5648" y="293.2339">isValidCoordiante(Coordinate): Error</text><ellipse cx="472.5648" cy="302.8281" fill="#84BE84" rx="3" ry="3" style="stroke:#038048;stroke-width:1.0;"/><text fill="#000000" font-family="sans-serif" font-size="11" lengthAdjust="spacingAndGlyphs" textLength="121" x="481.5648" y="306.0386">put(Coordinate): Error</text><ellipse cx="472.5648" cy="315.6328" fill="#84BE84" rx="3" ry="3" style="stroke:#038048;stroke-width:1.0;"/><text fill="#000000" font-family="sans-serif" font-size="11" lengthAdjust="spacingAndGlyphs" textLength="201" x="481.5648" y="318.8433">move(Coordinate,Coordinate): Error</text><!--MD5=[d75e1ad11e6a17be2ba08b218e20e3d7]
class tictactoe.controllers.ResumeController--><rect codeLine="30" fill="#FEFECE" filter="url(#f79fikqgxg0n4)" height="73.6094" id="tictactoe.controllers.ResumeController" style="stroke:#A80036;stroke-width:1.5;" width="171" x="69.0644" y="213"/><ellipse cx="98.4644" cy="229" fill="#ADD1B2" rx="11" ry="11" style="stroke:#A80036;stroke-width:1.0;"/><path d="M100.8082,224.6719 C99.8707,224.2344 99.2769,224.0938 98.4019,224.0938 C95.7769,224.0938 93.7769,226.1719 93.7769,228.8906 L93.7769,230.0156 C93.7769,232.5938 95.8863,234.4844 98.7769,234.4844 C99.9957,234.4844 101.1519,234.1875 101.9019,233.6406 C102.48,233.2344 102.8082,232.7813 102.8082,232.3906 C102.8082,231.9375 102.4175,231.5469 101.9488,231.5469 C101.73,231.5469 101.5269,231.625 101.3394,231.8125 C100.8863,232.2969 100.8863,232.2969 100.6988,232.3906 C100.2769,232.6563 99.5894,232.7813 98.8238,232.7813 C96.7769,232.7813 95.48,231.6875 95.48,229.9844 L95.48,228.8906 C95.48,227.1094 96.73,225.7969 98.4644,225.7969 C99.0425,225.7969 99.6519,225.9531 100.1207,226.2031 C100.605,226.4844 100.7769,226.7031 100.8707,227.1094 C100.9332,227.5156 100.9644,227.6406 101.105,227.7656 C101.2457,227.9063 101.48,228.0156 101.6988,228.0156 C101.9644,228.0156 102.23,227.875 102.4019,227.6563 C102.5113,227.5 102.5425,227.3125 102.5425,226.8906 L102.5425,225.4688 C102.5425,225.0313 102.5269,224.9063 102.4332,224.75 C102.2769,224.4844 101.9957,224.3438 101.6988,224.3438 C101.4019,224.3438 101.1988,224.4375 100.98,224.75 L100.8082,224.6719 Z " fill="#000000"/><text fill="#000000" font-family="sans-serif" font-size="12" lengthAdjust="spacingAndGlyphs" textLength="107" x="115.6644" y="233.1543">ResumeController</text><line style="stroke:#A80036;stroke-width:1.5;" x1="70.0644" x2="239.0644" y1="245" y2="245"/><line style="stroke:#A80036;stroke-width:1.5;" x1="70.0644" x2="239.0644" y1="253" y2="253"/><ellipse cx="80.0644" cy="264" fill="#84BE84" rx="3" ry="3" style="stroke:#038048;stroke-width:1.0;"/><text fill="#000000" font-family="sans-serif" font-size="11" lengthAdjust="spacingAndGlyphs" textLength="145" x="89.0644" y="267.2104">ResumeController(Game)</text><ellipse cx="80.0644" cy="276.8047" fill="#84BE84" rx="3" ry="3" style="stroke:#038048;stroke-width:1.0;"/><text fill="#000000" font-family="sans-serif" font-size="11" lengthAdjust="spacingAndGlyphs" textLength="52" x="89.0644" y="280.0151">resume()</text><!--MD5=[8ede4dbfb3b498095887802b64b699f0]
class tictactoe.controllers.StartController--><rect codeLine="37" fill="#FEFECE" filter="url(#f79fikqgxg0n4)" height="86.4141" id="tictactoe.controllers.StartController" style="stroke:#A80036;stroke-width:1.5;" width="151" x="275.0648" y="207"/><ellipse cx="304.4648" cy="223" fill="#ADD1B2" rx="11" ry="11" style="stroke:#A80036;stroke-width:1.0;"/><path d="M306.8085,218.6719 C305.871,218.2344 305.2773,218.0938 304.4023,218.0938 C301.7773,218.0938 299.7773,220.1719 299.7773,222.8906 L299.7773,224.0156 C299.7773,226.5938 301.8867,228.4844 304.7773,228.4844 C305.996,228.4844 307.1523,228.1875 307.9023,227.6406 C308.4804,227.2344 308.8085,226.7813 308.8085,226.3906 C308.8085,225.9375 308.4179,225.5469 307.9492,225.5469 C307.7304,225.5469 307.5273,225.625 307.3398,225.8125 C306.8867,226.2969 306.8867,226.2969 306.6992,226.3906 C306.2773,226.6563 305.5898,226.7813 304.8242,226.7813 C302.7773,226.7813 301.4804,225.6875 301.4804,223.9844 L301.4804,222.8906 C301.4804,221.1094 302.7304,219.7969 304.4648,219.7969 C305.0429,219.7969 305.6523,219.9531 306.121,220.2031 C306.6054,220.4844 306.7773,220.7031 306.871,221.1094 C306.9335,221.5156 306.9648,221.6406 307.1054,221.7656 C307.246,221.9063 307.4804,222.0156 307.6992,222.0156 C307.9648,222.0156 308.2304,221.875 308.4023,221.6563 C308.5117,221.5 308.5429,221.3125 308.5429,220.8906 L308.5429,219.4688 C308.5429,219.0313 308.5273,218.9063 308.4335,218.75 C308.2773,218.4844 307.996,218.3438 307.6992,218.3438 C307.4023,218.3438 307.1992,218.4375 306.9804,218.75 L306.8085,218.6719 Z " fill="#000000"/><text fill="#000000" font-family="sans-serif" font-size="12" lengthAdjust="spacingAndGlyphs" textLength="87" x="321.6648" y="227.1543">StartController</text><line style="stroke:#A80036;stroke-width:1.5;" x1="276.0648" x2="425.0648" y1="239" y2="239"/><line style="stroke:#A80036;stroke-width:1.5;" x1="276.0648" x2="425.0648" y1="247" y2="247"/><ellipse cx="286.0648" cy="258" fill="#84BE84" rx="3" ry="3" style="stroke:#038048;stroke-width:1.0;"/><text fill="#000000" font-family="sans-serif" font-size="11" lengthAdjust="spacingAndGlyphs" textLength="125" x="295.0648" y="261.2104">StartController(Game)</text><ellipse cx="286.0648" cy="270.8047" fill="#84BE84" rx="3" ry="3" style="stroke:#038048;stroke-width:1.0;"/><text fill="#000000" font-family="sans-serif" font-size="11" lengthAdjust="spacingAndGlyphs" textLength="72" x="295.0648" y="274.0151">setUsers(int)</text><ellipse cx="286.0648" cy="283.6094" fill="#84BE84" rx="3" ry="3" style="stroke:#038048;stroke-width:1.0;"/><text fill="#000000" font-family="sans-serif" font-size="11" lengthAdjust="spacingAndGlyphs" textLength="112" x="295.0648" y="286.8198">getMaxPlayers(): int</text><!--MD5=[b6dcce5e5ef3c84b0b048d11301373dd]
class Game--><rect codeLine="1" fill="#FEFECE" filter="url(#f79fikqgxg0n4)" height="53.9375" id="Game" style="stroke:#A80036;stroke-width:1.5;" width="135" x="135.0648" y="385"/><ellipse cx="150.0648" cy="403.9688" fill="#ADD1B2" rx="11" ry="11" style="stroke:#A80036;stroke-width:1.0;"/><path d="M152.4086,399.6406 C151.4711,399.2031 150.8773,399.0625 150.0023,399.0625 C147.3773,399.0625 145.3773,401.1406 145.3773,403.8594 L145.3773,404.9844 C145.3773,407.5625 147.4867,409.4531 150.3773,409.4531 C151.5961,409.4531 152.7523,409.1563 153.5023,408.6094 C154.0804,408.2031 154.4086,407.75 154.4086,407.3594 C154.4086,406.9063 154.0179,406.5156 153.5492,406.5156 C153.3304,406.5156 153.1273,406.5938 152.9398,406.7813 C152.4867,407.2656 152.4867,407.2656 152.2992,407.3594 C151.8773,407.625 151.1898,407.75 150.4242,407.75 C148.3773,407.75 147.0804,406.6563 147.0804,404.9531 L147.0804,403.8594 C147.0804,402.0781 148.3304,400.7656 150.0648,400.7656 C150.6429,400.7656 151.2523,400.9219 151.7211,401.1719 C152.2054,401.4531 152.3773,401.6719 152.4711,402.0781 C152.5336,402.4844 152.5648,402.6094 152.7054,402.7344 C152.8461,402.875 153.0804,402.9844 153.2992,402.9844 C153.5648,402.9844 153.8304,402.8438 154.0023,402.625 C154.1117,402.4688 154.1429,402.2813 154.1429,401.8594 L154.1429,400.4375 C154.1429,400 154.1273,399.875 154.0336,399.7188 C153.8773,399.4531 153.5961,399.3125 153.2992,399.3125 C153.0023,399.3125 152.7992,399.4063 152.5804,399.7188 L152.4086,399.6406 Z " fill="#000000"/><text fill="#000000" font-family="sans-serif" font-size="12" lengthAdjust="spacingAndGlyphs" textLength="103" x="164.0648" y="401.1387">tictactoe.models.</text><text fill="#000000" font-family="sans-serif" font-size="12" lengthAdjust="spacingAndGlyphs" textLength="35" x="198.0648" y="415.1074">Game</text><line style="stroke:#A80036;stroke-width:1.5;" x1="136.0648" x2="269.0648" y1="422.9375" y2="422.9375"/><line style="stroke:#A80036;stroke-width:1.5;" x1="136.0648" x2="269.0648" y1="430.9375" y2="430.9375"/><!--MD5=[8c7d7abc12e214c3cc12c9ab70edee11]
class Coordinate--><rect codeLine="2" fill="#FEFECE" filter="url(#f79fikqgxg0n4)" height="53.9375" id="Coordinate" style="stroke:#A80036;stroke-width:1.5;" width="135" x="674.0648" y="385"/><ellipse cx="689.0648" cy="403.9688" fill="#ADD1B2" rx="11" ry="11" style="stroke:#A80036;stroke-width:1.0;"/><path d="M691.4086,399.6406 C690.4711,399.2031 689.8773,399.0625 689.0023,399.0625 C686.3773,399.0625 684.3773,401.1406 684.3773,403.8594 L684.3773,404.9844 C684.3773,407.5625 686.4867,409.4531 689.3773,409.4531 C690.5961,409.4531 691.7523,409.1563 692.5023,408.6094 C693.0804,408.2031 693.4086,407.75 693.4086,407.3594 C693.4086,406.9063 693.0179,406.5156 692.5492,406.5156 C692.3304,406.5156 692.1273,406.5938 691.9398,406.7813 C691.4867,407.2656 691.4867,407.2656 691.2992,407.3594 C690.8773,407.625 690.1898,407.75 689.4242,407.75 C687.3773,407.75 686.0804,406.6563 686.0804,404.9531 L686.0804,403.8594 C686.0804,402.0781 687.3304,400.7656 689.0648,400.7656 C689.6429,400.7656 690.2523,400.9219 690.7211,401.1719 C691.2054,401.4531 691.3773,401.6719 691.4711,402.0781 C691.5336,402.4844 691.5648,402.6094 691.7054,402.7344 C691.8461,402.875 692.0804,402.9844 692.2992,402.9844 C692.5648,402.9844 692.8304,402.8438 693.0023,402.625 C693.1117,402.4688 693.1429,402.2813 693.1429,401.8594 L693.1429,400.4375 C693.1429,400 693.1273,399.875 693.0336,399.7188 C692.8773,399.4531 692.5961,399.3125 692.2992,399.3125 C692.0023,399.3125 691.7992,399.4063 691.5804,399.7188 L691.4086,399.6406 Z " fill="#000000"/><text fill="#000000" font-family="sans-serif" font-size="12" lengthAdjust="spacingAndGlyphs" textLength="103" x="703.0648" y="401.1387">tictactoe.models.</text><text fill="#000000" font-family="sans-serif" font-size="12" lengthAdjust="spacingAndGlyphs" textLength="66" x="721.5648" y="415.1074">Coordinate</text><line style="stroke:#A80036;stroke-width:1.5;" x1="675.0648" x2="808.0648" y1="422.9375" y2="422.9375"/><line style="stroke:#A80036;stroke-width:1.5;" x1="675.0648" x2="808.0648" y1="430.9375" y2="430.9375"/><!--MD5=[b8cfd8c4119a3b0a7a46bfc5fc780f85]
class Error--><rect codeLine="3" fill="#FEFECE" filter="url(#f79fikqgxg0n4)" height="53.9375" id="Error" style="stroke:#A80036;stroke-width:1.5;" width="124" x="354.5648" y="385"/><ellipse cx="369.5648" cy="403.9688" fill="#ADD1B2" rx="11" ry="11" style="stroke:#A80036;stroke-width:1.0;"/><path d="M371.9086,399.6406 C370.9711,399.2031 370.3773,399.0625 369.5023,399.0625 C366.8773,399.0625 364.8773,401.1406 364.8773,403.8594 L364.8773,404.9844 C364.8773,407.5625 366.9867,409.4531 369.8773,409.4531 C371.0961,409.4531 372.2523,409.1563 373.0023,408.6094 C373.5804,408.2031 373.9086,407.75 373.9086,407.3594 C373.9086,406.9063 373.5179,406.5156 373.0492,406.5156 C372.8304,406.5156 372.6273,406.5938 372.4398,406.7813 C371.9867,407.2656 371.9867,407.2656 371.7992,407.3594 C371.3773,407.625 370.6898,407.75 369.9242,407.75 C367.8773,407.75 366.5804,406.6563 366.5804,404.9531 L366.5804,403.8594 C366.5804,402.0781 367.8304,400.7656 369.5648,400.7656 C370.1429,400.7656 370.7523,400.9219 371.2211,401.1719 C371.7054,401.4531 371.8773,401.6719 371.9711,402.0781 C372.0336,402.4844 372.0648,402.6094 372.2054,402.7344 C372.3461,402.875 372.5804,402.9844 372.7992,402.9844 C373.0648,402.9844 373.3304,402.8438 373.5023,402.625 C373.6117,402.4688 373.6429,402.2813 373.6429,401.8594 L373.6429,400.4375 C373.6429,400 373.6273,399.875 373.5336,399.7188 C373.3773,399.4531 373.0961,399.3125 372.7992,399.3125 C372.5023,399.3125 372.2992,399.4063 372.0804,399.7188 L371.9086,399.6406 Z " fill="#000000"/><text fill="#000000" font-family="sans-serif" font-size="12" lengthAdjust="spacingAndGlyphs" textLength="92" x="383.5648" y="401.1387">tictactoe.types.</text><text fill="#000000" font-family="sans-serif" font-size="12" lengthAdjust="spacingAndGlyphs" textLength="30" x="414.5648" y="415.1074">Error</text><line style="stroke:#A80036;stroke-width:1.5;" x1="355.5648" x2="477.5648" y1="422.9375" y2="422.9375"/><line style="stroke:#A80036;stroke-width:1.5;" x1="355.5648" x2="477.5648" y1="430.9375" y2="430.9375"/><!--MD5=[d8c8cfd5ca149094f5b67f9f607a5ec7]
class Token--><rect codeLine="4" fill="#FEFECE" filter="url(#f79fikqgxg0n4)" height="53.9375" id="Token" style="stroke:#A80036;stroke-width:1.5;" width="124" x="513.5648" y="385"/><ellipse cx="528.5648" cy="403.9688" fill="#ADD1B2" rx="11" ry="11" style="stroke:#A80036;stroke-width:1.0;"/><path d="M530.9086,399.6406 C529.9711,399.2031 529.3773,399.0625 528.5023,399.0625 C525.8773,399.0625 523.8773,401.1406 523.8773,403.8594 L523.8773,404.9844 C523.8773,407.5625 525.9867,409.4531 528.8773,409.4531 C530.0961,409.4531 531.2523,409.1563 532.0023,408.6094 C532.5804,408.2031 532.9086,407.75 532.9086,407.3594 C532.9086,406.9063 532.5179,406.5156 532.0492,406.5156 C531.8304,406.5156 531.6273,406.5938 531.4398,406.7813 C530.9867,407.2656 530.9867,407.2656 530.7992,407.3594 C530.3773,407.625 529.6898,407.75 528.9242,407.75 C526.8773,407.75 525.5804,406.6563 525.5804,404.9531 L525.5804,403.8594 C525.5804,402.0781 526.8304,400.7656 528.5648,400.7656 C529.1429,400.7656 529.7523,400.9219 530.2211,401.1719 C530.7054,401.4531 530.8773,401.6719 530.9711,402.0781 C531.0336,402.4844 531.0648,402.6094 531.2054,402.7344 C531.3461,402.875 531.5804,402.9844 531.7992,402.9844 C532.0648,402.9844 532.3304,402.8438 532.5023,402.625 C532.6117,402.4688 532.6429,402.2813 532.6429,401.8594 L532.6429,400.4375 C532.6429,400 532.6273,399.875 532.5336,399.7188 C532.3773,399.4531 532.0961,399.3125 531.7992,399.3125 C531.5023,399.3125 531.2992,399.4063 531.0804,399.7188 L530.9086,399.6406 Z " fill="#000000"/><text fill="#000000" font-family="sans-serif" font-size="12" lengthAdjust="spacingAndGlyphs" textLength="92" x="542.5648" y="401.1387">tictactoe.types.</text><text fill="#000000" font-family="sans-serif" font-size="12" lengthAdjust="spacingAndGlyphs" textLength="37" x="570.0648" y="415.1074">Token</text><line style="stroke:#A80036;stroke-width:1.5;" x1="514.5648" x2="636.5648" y1="422.9375" y2="422.9375"/><line style="stroke:#A80036;stroke-width:1.5;" x1="514.5648" x2="636.5648" y1="430.9375" y2="430.9375"/><!--MD5=[f0e50675208408ddbf1ed7a91f4eb071]
class ClosedInterval--><rect codeLine="5" fill="#FEFECE" filter="url(#f79fikqgxg0n4)" height="53.9375" id="ClosedInterval" style="stroke:#A80036;stroke-width:1.5;" width="130" x="721.5648" y="51"/><ellipse cx="736.5648" cy="69.9688" fill="#ADD1B2" rx="11" ry="11" style="stroke:#A80036;stroke-width:1.0;"/><path d="M738.9086,65.6406 C737.9711,65.2031 737.3773,65.0625 736.5023,65.0625 C733.8773,65.0625 731.8773,67.1406 731.8773,69.8594 L731.8773,70.9844 C731.8773,73.5625 733.9867,75.4531 736.8773,75.4531 C738.0961,75.4531 739.2523,75.1563 740.0023,74.6094 C740.5804,74.2031 740.9086,73.75 740.9086,73.3594 C740.9086,72.9063 740.5179,72.5156 740.0492,72.5156 C739.8304,72.5156 739.6273,72.5938 739.4398,72.7813 C738.9867,73.2656 738.9867,73.2656 738.7992,73.3594 C738.3773,73.625 737.6898,73.75 736.9242,73.75 C734.8773,73.75 733.5804,72.6563 733.5804,70.9531 L733.5804,69.8594 C733.5804,68.0781 734.8304,66.7656 736.5648,66.7656 C737.1429,66.7656 737.7523,66.9219 738.2211,67.1719 C738.7054,67.4531 738.8773,67.6719 738.9711,68.0781 C739.0336,68.4844 739.0648,68.6094 739.2054,68.7344 C739.3461,68.875 739.5804,68.9844 739.7992,68.9844 C740.0648,68.9844 740.3304,68.8438 740.5023,68.625 C740.6117,68.4688 740.6429,68.2813 740.6429,67.8594 L740.6429,66.4375 C740.6429,66 740.6273,65.875 740.5336,65.7188 C740.3773,65.4531 740.0961,65.3125 739.7992,65.3125 C739.5023,65.3125 739.2992,65.4063 739.0804,65.7188 L738.9086,65.6406 Z " fill="#000000"/><text fill="#000000" font-family="sans-serif" font-size="12" lengthAdjust="spacingAndGlyphs" textLength="98" x="750.5648" y="67.1387">usantatecla.utils.</text><text fill="#000000" font-family="sans-serif" font-size="12" lengthAdjust="spacingAndGlyphs" textLength="86" x="756.5648" y="81.1074">ClosedInterval</text><line style="stroke:#A80036;stroke-width:1.5;" x1="722.5648" x2="850.5648" y1="88.9375" y2="88.9375"/><line style="stroke:#A80036;stroke-width:1.5;" x1="722.5648" x2="850.5648" y1="96.9375" y2="96.9375"/><!--MD5=[6068204d1fdba78d641ceb3415898910]
link tictactoe.controllers.Controller to Game--><path codeLine="11" d="M242.5234,83.2036 C242.5234,83.2036 94.7042,115.84 51.5644,175 C6,237.485 8.5009,284.766 51.5644,349 C67.7079,373.0798 95.0616,387.8152 122.0888,396.8292 " fill="none" id="tictactoe.controllers.Controller-Game" style="stroke:#A80036;stroke-width:1.0;"/><polygon fill="#A80036" points="134.8588,400.6957,127.4041,394.2593,130.0733,399.2468,125.0858,401.916,134.8588,400.6957" style="stroke:#A80036;stroke-width:1.0;"/><line style="stroke:#A80036;stroke-width:1.0;" x1="130.0733" x2="122.4163" y1="399.2468" y2="396.9285"/><polygon fill="#A80036" points="254.4338,81.74,247.9907,78.5017,242.5234,83.2036,248.9665,86.4419,254.4338,81.74" style="stroke:#A80036;stroke-width:1.0;"/><!--MD5=[342bd2846cb7233760b6e78f5d6e228f]
link tictactoe.controllers.Controller to Coordinate--><path codeLine="12" d="M446.9648,92.809 C540.5058,108.256 673.2268,136.289 707.5648,175 C758.4208,232.335 753.5008,330.175 746.8808,379.9448 " fill="none" id="tictactoe.controllers.Controller-to-Coordinate" style="stroke:#A80036;stroke-width:1.0;stroke-dasharray:7.0,7.0;"/><polygon fill="#A80036" points="746.1948,384.899,751.3913,376.5326,746.8805,379.9462,743.4669,375.4355,746.1948,384.899" style="stroke:#A80036;stroke-width:1.0;"/><!--MD5=[5700b97431232c099330215bddfcc855]
reverse link tictactoe.controllers.Controller to tictactoe.controllers.PlayController--><path codeLine="24" d="M414.4528,127.271 C434.0558,142.083 456.0978,158.737 477.4388,174.861 " fill="none" id="tictactoe.controllers.Controller-backto-tictactoe.controllers.PlayController" style="stroke:#A80036;stroke-width:1.0;"/><polygon fill="none" points="410.0188,132.694,398.2808,115.053,418.4588,121.524,410.0188,132.694" style="stroke:#A80036;stroke-width:1.0;"/><!--MD5=[fe83eea10e25d043c5deb7f71d3efefa]
link tictactoe.controllers.PlayController to Coordinate--><path codeLine="25" d="M652.7328,325.379 C673.3558,345.2569 694.4618,365.5998 710.9228,381.4663 " fill="none" id="tictactoe.controllers.PlayController-to-Coordinate" style="stroke:#A80036;stroke-width:1.0;stroke-dasharray:7.0,7.0;"/><polygon fill="#A80036" points="714.5758,384.9873,710.8719,375.8615,710.9759,381.5174,705.32,381.6214,714.5758,384.9873" style="stroke:#A80036;stroke-width:1.0;"/><!--MD5=[17f566e5019e25cb4796a68af68f3905]
link tictactoe.controllers.PlayController to Error--><path codeLine="26" d="M501.6498,325.379 C482.0628,345.0899 462.0208,365.2579 446.3118,381.0654 " fill="none" id="tictactoe.controllers.PlayController-to-Error" style="stroke:#A80036;stroke-width:1.0;stroke-dasharray:7.0,7.0;"/><polygon fill="#A80036" points="442.4148,384.9873,451.5966,381.4243,445.9397,381.4412,445.9228,375.7844,442.4148,384.9873" style="stroke:#A80036;stroke-width:1.0;"/><!--MD5=[ba4453740163cde41a3c637e3b1e755a]
link tictactoe.controllers.PlayController to Game--><path codeLine="27" d="M485.0578,325.115 C471.6478,334.013 457.6038,342.301 443.5648,349 C413.9828,363.1154 334.8028,382.2792 275.2118,395.548 " fill="none" id="tictactoe.controllers.PlayController-to-Game" style="stroke:#A80036;stroke-width:1.0;stroke-dasharray:7.0,7.0;"/><polygon fill="#A80036" points="270.2338,396.6528,279.887,398.606,275.1148,395.5685,278.1522,390.7963,270.2338,396.6528" style="stroke:#A80036;stroke-width:1.0;"/><!--MD5=[2ada365b675ffc8168b7291fcf650ab7]
link tictactoe.controllers.PlayController to Token--><path codeLine="28" d="M575.5648,325.379 C575.5648,344.5887 575.5648,364.2327 575.5648,379.8513 " fill="none" id="tictactoe.controllers.PlayController-to-Token" style="stroke:#A80036;stroke-width:1.0;stroke-dasharray:7.0,7.0;"/><polygon fill="#A80036" points="575.5648,384.9873,579.5648,375.9873,575.5648,379.9873,571.5648,375.9873,575.5648,384.9873" style="stroke:#A80036;stroke-width:1.0;"/><!--MD5=[549c2b0fc6f493adecd03b65ab276634]
reverse link tictactoe.controllers.Controller to tictactoe.controllers.ResumeController--><path codeLine="34" d="M293.8308,128.208 C262.5928,155.302 224.5118,188.331 196.0708,212.999 " fill="none" id="tictactoe.controllers.Controller-backto-tictactoe.controllers.ResumeController" style="stroke:#A80036;stroke-width:1.0;"/><polygon fill="none" points="289.3028,122.869,308.9978,115.053,298.4758,133.445,289.3028,122.869" style="stroke:#A80036;stroke-width:1.0;"/><!--MD5=[a35ef516318c5bb82096013ec88f75bf]
link tictactoe.controllers.ResumeController to Game--><path codeLine="35" d="M165.4568,287.306 C173.8408,315.256 185.3048,353.4681 193.2628,379.9941 " fill="none" id="tictactoe.controllers.ResumeController-to-Game" style="stroke:#A80036;stroke-width:1.0;stroke-dasharray:7.0,7.0;"/><polygon fill="#A80036" points="194.7058,384.8059,195.9512,375.0361,193.2692,380.0167,188.2886,377.3347,194.7058,384.8059" style="stroke:#A80036;stroke-width:1.0;"/><!--MD5=[5deb1e5c7bf9906a35de112138d88f9c]
reverse link tictactoe.controllers.Controller to tictactoe.controllers.StartController--><path codeLine="42" d="M350.5648,135.286 C350.5648,158.572 350.5648,185.115 350.5648,206.698 " fill="none" id="tictactoe.controllers.Controller-backto-tictactoe.controllers.StartController" style="stroke:#A80036;stroke-width:1.0;"/><polygon fill="none" points="343.5648,135.053,350.5648,115.053,357.5648,135.053,343.5648,135.053" style="stroke:#A80036;stroke-width:1.0;"/><!--MD5=[479e7112b5bc5a94513afe00b27faaff]
link tictactoe.controllers.StartController to Game--><path codeLine="43" d="M311.6788,293.038 C286.1528,320.635 253.3688,356.0766 230.4278,380.8778 " fill="none" id="tictactoe.controllers.StartController-to-Game" style="stroke:#A80036;stroke-width:1.0;stroke-dasharray:7.0,7.0;"/><polygon fill="#A80036" points="226.8328,384.764,235.88,380.872,230.2275,381.093,230.0065,375.4405,226.8328,384.764" style="stroke:#A80036;stroke-width:1.0;"/><!--MD5=[146006e99ee63ec5b9bf86b6ad076fd1]
@startuml
class Game as "tictactoe.models.\nGame"
class Coordinate as "tictactoe.models.\nCoordinate"
class Error as "tictactoe.types.\nError"
class Token as "tictactoe.types.\nToken"
class ClosedInterval as "usantatecla.utils.\nClosedInterval"

abstract class  tictactoe.controllers.Controller{
  ~ Controller(Game)
  + getToken(Coordinate): Token
}
tictactoe.controllers.Controller *-down-> Game
tictactoe.controllers.Controller .down.> Coordinate

class  tictactoe.controllers.PlayController{
  + PlayController(Game)
  + isBoardComplete(): boolean
  + isTicTacToe(): boolean
  + getToken(): Token
  + isUser(): boolean
  + isValidCoordiante(Coordinate): Error
  + put(Coordinate): Error
  + move(Coordinate,Coordinate): Error
}
tictactoe.controllers.Controller <|-down- tictactoe.controllers.PlayController
tictactoe.controllers.PlayController .down.> Coordinate
tictactoe.controllers.PlayController .down.> Error
tictactoe.controllers.PlayController .down.> Game
tictactoe.controllers.PlayController .down.> Token

class  tictactoe.controllers.ResumeController{
  + ResumeController(Game)
  + resume()
}
tictactoe.controllers.Controller <|-down- tictactoe.controllers.ResumeController
tictactoe.controllers.ResumeController .down.> Game

class  tictactoe.controllers.StartController{
  + StartController(Game)
  + setUsers(int)
  + getMaxPlayers(): int
}
tictactoe.controllers.Controller <|-down- tictactoe.controllers.StartController
tictactoe.controllers.StartController .down.> Game
@enduml

PlantUML version 1.2020.27beta2(Unknown compile time)
(GPL source distribution)
Java Runtime: Java(TM) SE Runtime Environment
JVM: Java HotSpot(TM) 64-Bit Server VM
Default Encoding: UTF-8
Language: en
Country: US
--></g></svg>