<?xml version="1.0" encoding="UTF-8" standalone="no"?><svg xmlns="http://www.w3.org/2000/svg" xmlns:xlink="http://www.w3.org/1999/xlink" contentScriptType="application/ecmascript" contentStyleType="text/css" height="284px" preserveAspectRatio="none" style="width:1357px;height:284px;" version="1.1" viewBox="0 0 1357 284" width="1357px" zoomAndPan="magnify"><defs><filter height="300%" id="f1s7tph4d55kn3" width="300%" x="-1" y="-1"><feGaussianBlur result="blurOut" stdDeviation="2.0"/><feColorMatrix in="blurOut" result="blurOut2" type="matrix" values="0 0 0 0 0 0 0 0 0 0 0 0 0 0 0 0 0 0 .4 0"/><feOffset dx="4.0" dy="4.0" in="blurOut2" result="blurOut3"/><feBlend in="SourceGraphic" in2="blurOut3" mode="normal"/></filter></defs><g><!--MD5=[807bc46d8103c809ff053af9e140e1f5]
cluster tictactoe--><polygon fill="#FFFFFF" filter="url(#f1s7tph4d55kn3)" points="16,6,98,6,105,28.2969,462,28.2969,462,277,16,277,16,6" style="stroke:#000000;stroke-width:1.5;"/><line style="stroke:#000000;stroke-width:1.5;" x1="16" x2="105" y1="28.2969" y2="28.2969"/><text fill="#000000" font-family="sans-serif" font-size="14" font-weight="bold" lengthAdjust="spacingAndGlyphs" textLength="76" x="20" y="20.9951">tictactoe</text><!--MD5=[d26da01265d646b7f841c2729736529c]
class tictactoe.ConsoleTicTacToe--><rect codeLine="7" fill="#FEFECE" filter="url(#f1s7tph4d55kn3)" height="73.6094" id="tictactoe.ConsoleTicTacToe" style="stroke:#A80036;stroke-width:1.5;" width="410" x="33" y="187"/><ellipse cx="178.75" cy="203" fill="#ADD1B2" rx="11" ry="11" style="stroke:#A80036;stroke-width:1.0;"/><path d="M181.0938,198.6719 C180.1563,198.2344 179.5625,198.0938 178.6875,198.0938 C176.0625,198.0938 174.0625,200.1719 174.0625,202.8906 L174.0625,204.0156 C174.0625,206.5938 176.1719,208.4844 179.0625,208.4844 C180.2813,208.4844 181.4375,208.1875 182.1875,207.6406 C182.7656,207.2344 183.0938,206.7813 183.0938,206.3906 C183.0938,205.9375 182.7031,205.5469 182.2344,205.5469 C182.0156,205.5469 181.8125,205.625 181.625,205.8125 C181.1719,206.2969 181.1719,206.2969 180.9844,206.3906 C180.5625,206.6563 179.875,206.7813 179.1094,206.7813 C177.0625,206.7813 175.7656,205.6875 175.7656,203.9844 L175.7656,202.8906 C175.7656,201.1094 177.0156,199.7969 178.75,199.7969 C179.3281,199.7969 179.9375,199.9531 180.4063,200.2031 C180.8906,200.4844 181.0625,200.7031 181.1563,201.1094 C181.2188,201.5156 181.25,201.6406 181.3906,201.7656 C181.5313,201.9063 181.7656,202.0156 181.9844,202.0156 C182.25,202.0156 182.5156,201.875 182.6875,201.6563 C182.7969,201.5 182.8281,201.3125 182.8281,200.8906 L182.8281,199.4688 C182.8281,199.0313 182.8125,198.9063 182.7188,198.75 C182.5625,198.4844 182.2813,198.3438 181.9844,198.3438 C181.6875,198.3438 181.4844,198.4375 181.2656,198.75 L181.0938,198.6719 Z " fill="#000000"/><text fill="#000000" font-family="sans-serif" font-size="12" lengthAdjust="spacingAndGlyphs" textLength="110" x="199.25" y="207.1543">ConsoleTicTacToe</text><line style="stroke:#A80036;stroke-width:1.5;" x1="34" x2="442" y1="219" y2="219"/><line style="stroke:#A80036;stroke-width:1.5;" x1="34" x2="442" y1="227" y2="227"/><ellipse cx="44" cy="238" fill="#84BE84" rx="3" ry="3" style="stroke:#038048;stroke-width:1.0;"/><text fill="#000000" font-family="sans-serif" font-size="11" lengthAdjust="spacingAndGlyphs" text-decoration="underline" textLength="77" x="53" y="241.2104">main(String[])</text><polygon fill="#FFFF44" points="44,245.8047,48,249.8047,44,253.8047,40,249.8047" style="stroke:#B38D22;stroke-width:1.0;"/><text fill="#000000" font-family="sans-serif" font-size="11" lengthAdjust="spacingAndGlyphs" textLength="384" x="53" y="254.0151">createView(StartController, PlayController, ResumeController): View</text><!--MD5=[dcfee6ff2a733e6a859ce2b7bcbe021e]
class tictactoe.TicTacToe--><rect codeLine="13" fill="#FEFECE" filter="url(#f1s7tph4d55kn3)" height="86.4141" id="tictactoe.TicTacToe" style="stroke:#A80036;stroke-width:1.5;" width="413" x="32.5" y="41"/><ellipse cx="205.25" cy="57" fill="#A9DCDF" rx="11" ry="11" style="stroke:#A80036;stroke-width:1.0;"/><path d="M207.3281,58.8125 L207.7188,59.7969 L207.3281,59.7969 C206.875,59.7969 206.7656,59.8125 206.6094,59.9219 C206.3594,60.0781 206.2031,60.3594 206.2031,60.6563 C206.2031,60.9219 206.3438,61.1719 206.5625,61.3281 C206.7031,61.4531 206.9063,61.5 207.3281,61.5 L209.6875,61.5 C210.0469,61.5 210.2656,61.4688 210.4063,61.375 C210.6563,61.2344 210.8125,60.9375 210.8125,60.6563 C210.8125,60.375 210.6719,60.125 210.4531,59.9688 C210.2813,59.8281 210.125,59.7969 209.6563,59.7969 L206.2656,51.5938 L202.5938,51.5938 C202.1406,51.5938 202.0156,51.6094 201.8594,51.7031 C201.6094,51.875 201.4531,52.1563 201.4531,52.4375 C201.4531,52.7188 201.5938,52.9688 201.8125,53.1406 C201.9844,53.25 202.1563,53.2813 202.5938,53.2813 L203.6719,53.2813 L201.0313,59.7969 C200.6094,59.7969 200.4531,59.8125 200.2969,59.9219 C200.0469,60.0781 199.8906,60.3594 199.8906,60.6563 C199.8906,61.2188 200.2656,61.5 201.0156,61.5 L203.2813,61.5 C203.6406,61.5 203.8594,61.4688 203.9844,61.375 C204.25,61.2344 204.3906,60.9375 204.3906,60.6563 C204.3906,60.375 204.2656,60.125 204.0469,59.9531 C203.875,59.8281 203.7344,59.7969 203.2813,59.7969 L202.8906,59.7969 L203.2813,58.8125 L207.3281,58.8125 Z M206.625,57.1094 L203.9531,57.1094 L205.2969,53.8438 L206.625,57.1094 Z " fill="#000000"/><text fill="#000000" font-family="sans-serif" font-size="12" font-style="italic" lengthAdjust="spacingAndGlyphs" textLength="59" x="225.75" y="61.1543">TicTacToe</text><line style="stroke:#A80036;stroke-width:1.5;" x1="33.5" x2="444.5" y1="73" y2="73"/><line style="stroke:#A80036;stroke-width:1.5;" x1="33.5" x2="444.5" y1="81" y2="81"/><polygon fill="#FFFF44" points="43.5,87,47.5,91,43.5,95,39.5,91" style="stroke:#B38D22;stroke-width:1.0;"/><text fill="#000000" font-family="sans-serif" font-size="11" lengthAdjust="spacingAndGlyphs" textLength="66" x="52.5" y="95.2104">TicTacToe()</text><polygon fill="#FFFF44" points="43.5,99.8047,47.5,103.8047,43.5,107.8047,39.5,103.8047" style="stroke:#B38D22;stroke-width:1.0;"/><text fill="#000000" font-family="sans-serif" font-size="11" font-style="italic" lengthAdjust="spacingAndGlyphs" textLength="387" x="52.5" y="108.0151">createView(StartController, PlayController, ResumeController): View</text><polygon fill="#FFFF44" points="43.5,112.6094,47.5,116.6094,43.5,120.6094,39.5,116.6094" style="stroke:#B38D22;stroke-width:1.0;"/><text fill="#000000" font-family="sans-serif" font-size="11" lengthAdjust="spacingAndGlyphs" textLength="32" x="52.5" y="120.8198">play()</text><!--MD5=[c045e12321b83266d36d22b9096c24ea]
class View--><rect codeLine="1" fill="#FEFECE" filter="url(#f1s7tph4d55kn3)" height="53.9375" id="View" style="stroke:#A80036;stroke-width:1.5;" width="125" x="478.5" y="197"/><ellipse cx="493.5" cy="215.9688" fill="#ADD1B2" rx="11" ry="11" style="stroke:#A80036;stroke-width:1.0;"/><path d="M495.8438,211.6406 C494.9063,211.2031 494.3125,211.0625 493.4375,211.0625 C490.8125,211.0625 488.8125,213.1406 488.8125,215.8594 L488.8125,216.9844 C488.8125,219.5625 490.9219,221.4531 493.8125,221.4531 C495.0313,221.4531 496.1875,221.1563 496.9375,220.6094 C497.5156,220.2031 497.8438,219.75 497.8438,219.3594 C497.8438,218.9063 497.4531,218.5156 496.9844,218.5156 C496.7656,218.5156 496.5625,218.5938 496.375,218.7813 C495.9219,219.2656 495.9219,219.2656 495.7344,219.3594 C495.3125,219.625 494.625,219.75 493.8594,219.75 C491.8125,219.75 490.5156,218.6563 490.5156,216.9531 L490.5156,215.8594 C490.5156,214.0781 491.7656,212.7656 493.5,212.7656 C494.0781,212.7656 494.6875,212.9219 495.1563,213.1719 C495.6406,213.4531 495.8125,213.6719 495.9063,214.0781 C495.9688,214.4844 496,214.6094 496.1406,214.7344 C496.2813,214.875 496.5156,214.9844 496.7344,214.9844 C497,214.9844 497.2656,214.8438 497.4375,214.625 C497.5469,214.4688 497.5781,214.2813 497.5781,213.8594 L497.5781,212.4375 C497.5781,212 497.5625,211.875 497.4688,211.7188 C497.3125,211.4531 497.0313,211.3125 496.7344,211.3125 C496.4375,211.3125 496.2344,211.4063 496.0156,211.7188 L495.8438,211.6406 Z " fill="#000000"/><text fill="#000000" font-family="sans-serif" font-size="12" lengthAdjust="spacingAndGlyphs" textLength="93" x="507.5" y="213.1387">tictactoe.views.</text><text fill="#000000" font-family="sans-serif" font-size="12" lengthAdjust="spacingAndGlyphs" textLength="29" x="539.5" y="227.1074">View</text><line style="stroke:#A80036;stroke-width:1.5;" x1="479.5" x2="602.5" y1="234.9375" y2="234.9375"/><line style="stroke:#A80036;stroke-width:1.5;" x1="479.5" x2="602.5" y1="242.9375" y2="242.9375"/><!--MD5=[b6dcce5e5ef3c84b0b048d11301373dd]
class Game--><rect codeLine="2" fill="#FEFECE" filter="url(#f1s7tph4d55kn3)" height="53.9375" id="Game" style="stroke:#A80036;stroke-width:1.5;" width="135" x="638.5" y="197"/><ellipse cx="653.5" cy="215.9688" fill="#ADD1B2" rx="11" ry="11" style="stroke:#A80036;stroke-width:1.0;"/><path d="M655.8438,211.6406 C654.9063,211.2031 654.3125,211.0625 653.4375,211.0625 C650.8125,211.0625 648.8125,213.1406 648.8125,215.8594 L648.8125,216.9844 C648.8125,219.5625 650.9219,221.4531 653.8125,221.4531 C655.0313,221.4531 656.1875,221.1563 656.9375,220.6094 C657.5156,220.2031 657.8438,219.75 657.8438,219.3594 C657.8438,218.9063 657.4531,218.5156 656.9844,218.5156 C656.7656,218.5156 656.5625,218.5938 656.375,218.7813 C655.9219,219.2656 655.9219,219.2656 655.7344,219.3594 C655.3125,219.625 654.625,219.75 653.8594,219.75 C651.8125,219.75 650.5156,218.6563 650.5156,216.9531 L650.5156,215.8594 C650.5156,214.0781 651.7656,212.7656 653.5,212.7656 C654.0781,212.7656 654.6875,212.9219 655.1563,213.1719 C655.6406,213.4531 655.8125,213.6719 655.9063,214.0781 C655.9688,214.4844 656,214.6094 656.1406,214.7344 C656.2813,214.875 656.5156,214.9844 656.7344,214.9844 C657,214.9844 657.2656,214.8438 657.4375,214.625 C657.5469,214.4688 657.5781,214.2813 657.5781,213.8594 L657.5781,212.4375 C657.5781,212 657.5625,211.875 657.4688,211.7188 C657.3125,211.4531 657.0313,211.3125 656.7344,211.3125 C656.4375,211.3125 656.2344,211.4063 656.0156,211.7188 L655.8438,211.6406 Z " fill="#000000"/><text fill="#000000" font-family="sans-serif" font-size="12" lengthAdjust="spacingAndGlyphs" textLength="103" x="667.5" y="213.1387">tictactoe.models.</text><text fill="#000000" font-family="sans-serif" font-size="12" lengthAdjust="spacingAndGlyphs" textLength="35" x="701.5" y="227.1074">Game</text><line style="stroke:#A80036;stroke-width:1.5;" x1="639.5" x2="772.5" y1="234.9375" y2="234.9375"/><line style="stroke:#A80036;stroke-width:1.5;" x1="639.5" x2="772.5" y1="242.9375" y2="242.9375"/><!--MD5=[47c371471411cfedeee61b1a5bdaee47]
class StartController--><rect codeLine="3" fill="#FEFECE" filter="url(#f1s7tph4d55kn3)" height="53.9375" id="StartController" style="stroke:#A80036;stroke-width:1.5;" width="155" x="808.5" y="197"/><ellipse cx="823.5" cy="215.9688" fill="#ADD1B2" rx="11" ry="11" style="stroke:#A80036;stroke-width:1.0;"/><path d="M825.8438,211.6406 C824.9063,211.2031 824.3125,211.0625 823.4375,211.0625 C820.8125,211.0625 818.8125,213.1406 818.8125,215.8594 L818.8125,216.9844 C818.8125,219.5625 820.9219,221.4531 823.8125,221.4531 C825.0313,221.4531 826.1875,221.1563 826.9375,220.6094 C827.5156,220.2031 827.8438,219.75 827.8438,219.3594 C827.8438,218.9063 827.4531,218.5156 826.9844,218.5156 C826.7656,218.5156 826.5625,218.5938 826.375,218.7813 C825.9219,219.2656 825.9219,219.2656 825.7344,219.3594 C825.3125,219.625 824.625,219.75 823.8594,219.75 C821.8125,219.75 820.5156,218.6563 820.5156,216.9531 L820.5156,215.8594 C820.5156,214.0781 821.7656,212.7656 823.5,212.7656 C824.0781,212.7656 824.6875,212.9219 825.1563,213.1719 C825.6406,213.4531 825.8125,213.6719 825.9063,214.0781 C825.9688,214.4844 826,214.6094 826.1406,214.7344 C826.2813,214.875 826.5156,214.9844 826.7344,214.9844 C827,214.9844 827.2656,214.8438 827.4375,214.625 C827.5469,214.4688 827.5781,214.2813 827.5781,213.8594 L827.5781,212.4375 C827.5781,212 827.5625,211.875 827.4688,211.7188 C827.3125,211.4531 827.0313,211.3125 826.7344,211.3125 C826.4375,211.3125 826.2344,211.4063 826.0156,211.7188 L825.8438,211.6406 Z " fill="#000000"/><text fill="#000000" font-family="sans-serif" font-size="12" lengthAdjust="spacingAndGlyphs" textLength="123" x="837.5" y="213.1387">tictactoe.controllers.</text><text fill="#000000" font-family="sans-serif" font-size="12" lengthAdjust="spacingAndGlyphs" textLength="87" x="855.5" y="227.1074">StartController</text><line style="stroke:#A80036;stroke-width:1.5;" x1="809.5" x2="962.5" y1="234.9375" y2="234.9375"/><line style="stroke:#A80036;stroke-width:1.5;" x1="809.5" x2="962.5" y1="242.9375" y2="242.9375"/><!--MD5=[cc8600b868f8dfab2c8d497bce62f90a]
class PlayController--><rect codeLine="4" fill="#FEFECE" filter="url(#f1s7tph4d55kn3)" height="53.9375" id="PlayController" style="stroke:#A80036;stroke-width:1.5;" width="155" x="998.5" y="197"/><ellipse cx="1013.5" cy="215.9688" fill="#ADD1B2" rx="11" ry="11" style="stroke:#A80036;stroke-width:1.0;"/><path d="M1015.8438,211.6406 C1014.9063,211.2031 1014.3125,211.0625 1013.4375,211.0625 C1010.8125,211.0625 1008.8125,213.1406 1008.8125,215.8594 L1008.8125,216.9844 C1008.8125,219.5625 1010.9219,221.4531 1013.8125,221.4531 C1015.0313,221.4531 1016.1875,221.1563 1016.9375,220.6094 C1017.5156,220.2031 1017.8438,219.75 1017.8438,219.3594 C1017.8438,218.9063 1017.4531,218.5156 1016.9844,218.5156 C1016.7656,218.5156 1016.5625,218.5938 1016.375,218.7813 C1015.9219,219.2656 1015.9219,219.2656 1015.7344,219.3594 C1015.3125,219.625 1014.625,219.75 1013.8594,219.75 C1011.8125,219.75 1010.5156,218.6563 1010.5156,216.9531 L1010.5156,215.8594 C1010.5156,214.0781 1011.7656,212.7656 1013.5,212.7656 C1014.0781,212.7656 1014.6875,212.9219 1015.1563,213.1719 C1015.6406,213.4531 1015.8125,213.6719 1015.9063,214.0781 C1015.9688,214.4844 1016,214.6094 1016.1406,214.7344 C1016.2813,214.875 1016.5156,214.9844 1016.7344,214.9844 C1017,214.9844 1017.2656,214.8438 1017.4375,214.625 C1017.5469,214.4688 1017.5781,214.2813 1017.5781,213.8594 L1017.5781,212.4375 C1017.5781,212 1017.5625,211.875 1017.4688,211.7188 C1017.3125,211.4531 1017.0313,211.3125 1016.7344,211.3125 C1016.4375,211.3125 1016.2344,211.4063 1016.0156,211.7188 L1015.8438,211.6406 Z " fill="#000000"/><text fill="#000000" font-family="sans-serif" font-size="12" lengthAdjust="spacingAndGlyphs" textLength="123" x="1027.5" y="213.1387">tictactoe.controllers.</text><text fill="#000000" font-family="sans-serif" font-size="12" lengthAdjust="spacingAndGlyphs" textLength="82" x="1048" y="227.1074">PlayController</text><line style="stroke:#A80036;stroke-width:1.5;" x1="999.5" x2="1152.5" y1="234.9375" y2="234.9375"/><line style="stroke:#A80036;stroke-width:1.5;" x1="999.5" x2="1152.5" y1="242.9375" y2="242.9375"/><!--MD5=[1a47bbf44ccee225df9b18c5b6629853]
class ResumeController--><rect codeLine="5" fill="#FEFECE" filter="url(#f1s7tph4d55kn3)" height="53.9375" id="ResumeController" style="stroke:#A80036;stroke-width:1.5;" width="155" x="1188.5" y="197"/><ellipse cx="1203.5" cy="215.9688" fill="#ADD1B2" rx="11" ry="11" style="stroke:#A80036;stroke-width:1.0;"/><path d="M1205.8438,211.6406 C1204.9063,211.2031 1204.3125,211.0625 1203.4375,211.0625 C1200.8125,211.0625 1198.8125,213.1406 1198.8125,215.8594 L1198.8125,216.9844 C1198.8125,219.5625 1200.9219,221.4531 1203.8125,221.4531 C1205.0313,221.4531 1206.1875,221.1563 1206.9375,220.6094 C1207.5156,220.2031 1207.8438,219.75 1207.8438,219.3594 C1207.8438,218.9063 1207.4531,218.5156 1206.9844,218.5156 C1206.7656,218.5156 1206.5625,218.5938 1206.375,218.7813 C1205.9219,219.2656 1205.9219,219.2656 1205.7344,219.3594 C1205.3125,219.625 1204.625,219.75 1203.8594,219.75 C1201.8125,219.75 1200.5156,218.6563 1200.5156,216.9531 L1200.5156,215.8594 C1200.5156,214.0781 1201.7656,212.7656 1203.5,212.7656 C1204.0781,212.7656 1204.6875,212.9219 1205.1563,213.1719 C1205.6406,213.4531 1205.8125,213.6719 1205.9063,214.0781 C1205.9688,214.4844 1206,214.6094 1206.1406,214.7344 C1206.2813,214.875 1206.5156,214.9844 1206.7344,214.9844 C1207,214.9844 1207.2656,214.8438 1207.4375,214.625 C1207.5469,214.4688 1207.5781,214.2813 1207.5781,213.8594 L1207.5781,212.4375 C1207.5781,212 1207.5625,211.875 1207.4688,211.7188 C1207.3125,211.4531 1207.0313,211.3125 1206.7344,211.3125 C1206.4375,211.3125 1206.2344,211.4063 1206.0156,211.7188 L1205.8438,211.6406 Z " fill="#000000"/><text fill="#000000" font-family="sans-serif" font-size="12" lengthAdjust="spacingAndGlyphs" textLength="123" x="1217.5" y="213.1387">tictactoe.controllers.</text><text fill="#000000" font-family="sans-serif" font-size="12" lengthAdjust="spacingAndGlyphs" textLength="107" x="1225.5" y="227.1074">ResumeController</text><line style="stroke:#A80036;stroke-width:1.5;" x1="1189.5" x2="1342.5" y1="234.9375" y2="234.9375"/><line style="stroke:#A80036;stroke-width:1.5;" x1="1189.5" x2="1342.5" y1="242.9375" y2="242.9375"/><!--MD5=[4e0ca678de8db9099731dcdc2b6658ba]
reverse link tictactoe.TicTacToe to tictactoe.ConsoleTicTacToe--><path codeLine="11" d="M238.546,147.623 C238.449,161.004 238.35,174.707 238.263,186.697 " fill="none" id="tictactoe.TicTacToe-backto-tictactoe.ConsoleTicTacToe" style="stroke:#A80036;stroke-width:1.0;"/><polygon fill="none" points="231.55,147.103,238.695,127.154,245.549,147.205,231.55,147.103" style="stroke:#A80036;stroke-width:1.0;"/><!--MD5=[8c425d580a9b92d738a930527fd635fb]
link tictactoe.TicTacToe to Game--><path codeLine="18" d="M428.5568,130.0298 C428.5568,130.0298 559.503,165.883 621,187 C625.59,188.576 630.283,190.283 634.991,192.068 " fill="none" id="tictactoe.TicTacToe-Game" style="stroke:#A80036;stroke-width:1.0;"/><polygon fill="#A80036" points="647.427,196.9375,640.5052,189.9312,642.7712,195.1143,637.5881,197.3804,647.427,196.9375" style="stroke:#A80036;stroke-width:1.0;"/><line style="stroke:#A80036;stroke-width:1.0;" x1="642.7712" x2="635.322" y1="195.1143" y2="192.1976"/><polygon fill="#A80036" points="416.943,127.01,421.7433,132.3912,428.5568,130.0298,423.7565,124.6486,416.943,127.01" style="stroke:#A80036;stroke-width:1.0;"/><!--MD5=[4244f9edb3d450aa4423a2442cdf3765]
link tictactoe.TicTacToe to View--><path codeLine="19" d="M342.1656,132.1412 C342.1656,132.1412 433.793,174.011 471.917,191.432 " fill="none" id="tictactoe.TicTacToe-View" style="stroke:#A80036;stroke-width:1.0;"/><polygon fill="#A80036" points="483.924,196.9191,477.4007,189.5403,479.3763,194.841,474.0757,196.8166,483.924,196.9191" style="stroke:#A80036;stroke-width:1.0;"/><line style="stroke:#A80036;stroke-width:1.0;" x1="479.3763" x2="472.1" y1="194.841" y2="191.5162"/><polygon fill="#A80036" points="331.251,127.154,335.0459,133.2858,342.1656,132.1412,338.3707,126.0094,331.251,127.154" style="stroke:#A80036;stroke-width:1.0;"/><!--MD5=[418e617e5427b1769da1183790bb0c75]
link tictactoe.TicTacToe to StartController--><path codeLine="20" d="M457.6463,116.1262 C457.6463,116.1262 683.1,156.85 791,187 C797.001,188.677 803.155,190.576 809.306,192.605 " fill="none" id="tictactoe.TicTacToe-StartController" style="stroke:#A80036;stroke-width:1.0;"/><polygon fill="#A80036" points="821.875,196.922,814.6623,190.2155,817.1461,195.2979,812.0637,197.7817,821.875,196.922" style="stroke:#A80036;stroke-width:1.0;"/><line style="stroke:#A80036;stroke-width:1.0;" x1="817.1461" x2="809.58" y1="195.2979" y2="192.6995"/><polygon fill="#A80036" points="445.805,114.181,451.0772,119.1007,457.6463,116.1262,452.374,111.2065,445.805,114.181" style="stroke:#A80036;stroke-width:1.0;"/><!--MD5=[82634a372df6adadfd51c0b03e6d50ba]
link tictactoe.TicTacToe to PlayController--><path codeLine="21" d="M457.6579,101.9906 C457.6579,101.9906 808.382,143.03 981,187 C987.54,188.666 994.248,190.638 1000.93,192.788 " fill="none" id="tictactoe.TicTacToe-PlayController" style="stroke:#A80036;stroke-width:1.0;"/><polygon fill="#A80036" points="1013.27,196.9623,1006.0277,190.2878,1008.534,195.3591,1003.4626,197.8654,1013.27,196.9623" style="stroke:#A80036;stroke-width:1.0;"/><line style="stroke:#A80036;stroke-width:1.0;" x1="1008.534" x2="1000.961" y1="195.3591" y2="192.7991"/><polygon fill="#A80036" points="445.715,100.821,451.2966,105.3868,457.6579,101.9906,452.0763,97.4249,445.715,100.821" style="stroke:#A80036;stroke-width:1.0;"/><!--MD5=[6c91c4b7f7877b97f28656e3787a7627]
link tictactoe.TicTacToe to ResumeController--><path codeLine="22" d="M457.626,93.3001 C457.626,93.3001 931.378,129.472 1171,187 C1177.81,188.634 1184.79,190.627 1191.72,192.827 " fill="none" id="tictactoe.TicTacToe-ResumeController" style="stroke:#A80036;stroke-width:1.0;"/><polygon fill="#A80036" points="1204.11,196.9811,1196.8464,190.3298,1199.3689,195.3931,1194.3056,197.9156,1204.11,196.9811" style="stroke:#A80036;stroke-width:1.0;"/><line style="stroke:#A80036;stroke-width:1.0;" x1="1199.3689" x2="1191.785" y1="195.3931" y2="192.8482"/><polygon fill="#A80036" points="445.645,92.625,451.4105,96.9562,457.626,93.3001,451.8605,88.9689,445.645,92.625" style="stroke:#A80036;stroke-width:1.0;"/><!--MD5=[58a52aec2c700f81cf3eb9ac9e2d0601]
@startuml
class View as "tictactoe.views.\nView" {}
class Game as "tictactoe.models.\nGame" {}
class StartController as "tictactoe.controllers.\nStartController" {}
class PlayController as "tictactoe.controllers.\nPlayController" {}
class ResumeController as "tictactoe.controllers.\nResumeController" {}

class  tictactoe.ConsoleTicTacToe{
+ {static} main(String[])
# createView(StartController, PlayController, ResumeController): View
}
tictactoe.TicTacToe <|-down- tictactoe.ConsoleTicTacToe

abstract class  tictactoe.TicTacToe{
# TicTacToe()
# {abstract} createView(StartController, PlayController, ResumeController): View
# play()
}
tictactoe.TicTacToe *-down-> Game
tictactoe.TicTacToe *-down-> View
tictactoe.TicTacToe *-down-> StartController
tictactoe.TicTacToe *-down-> PlayController
tictactoe.TicTacToe *-down-> ResumeController
@enduml

PlantUML version 1.2020.22(Sun Dec 06 09:36:27 UTC 2020)
(GPL source distribution)
Java Runtime: Java(TM) SE Runtime Environment
JVM: Java HotSpot(TM) 64-Bit Server VM
Default Encoding: UTF-8
Language: en
Country: US
--></g></svg>