<?xml version="1.0" encoding="UTF-8" standalone="no"?><svg xmlns="http://www.w3.org/2000/svg" xmlns:xlink="http://www.w3.org/1999/xlink" contentScriptType="application/ecmascript" contentStyleType="text/css" height="421px" preserveAspectRatio="none" style="width:936px;height:421px;" version="1.1" viewBox="0 0 936 421" width="936px" zoomAndPan="magnify"><defs><filter height="300%" id="f1nvyoe1f0cjog" width="300%" x="-1" y="-1"><feGaussianBlur result="blurOut" stdDeviation="2.0"/><feColorMatrix in="blurOut" result="blurOut2" type="matrix" values="0 0 0 0 0 0 0 0 0 0 0 0 0 0 0 0 0 0 .4 0"/><feOffset dx="4.0" dy="4.0" in="blurOut2" result="blurOut3"/><feBlend in="SourceGraphic" in2="blurOut3" mode="normal"/></filter></defs><g><!--MD5=[b59da53bc4cb019b9115ab51e8207bb0]
cluster usantatecla.tictactoe--><polygon fill="#FFFFFF" filter="url(#f1nvyoe1f0cjog)" points="283.5,6,468.5,6,475.5,28.2969,638.5,28.2969,638.5,315,283.5,315,283.5,6" style="stroke:#000000;stroke-width:1.5;"/><line style="stroke:#000000;stroke-width:1.5;" x1="283.5" x2="475.5" y1="28.2969" y2="28.2969"/><text fill="#000000" font-family="sans-serif" font-size="14" font-weight="bold" lengthAdjust="spacingAndGlyphs" textLength="179" x="287.5" y="20.9951">usantatecla.tictactoe</text><!--MD5=[03c339352ae0a66a83a9809d2d9c2b7e]
class usantatecla.tictactoe.ConsoleTicTacToe--><rect codeLine="1" fill="#FEFECE" filter="url(#f1nvyoe1f0cjog)" height="86.4141" id="usantatecla.tictactoe.ConsoleTicTacToe" style="stroke:#A80036;stroke-width:1.5;" width="142" x="299.5" y="213"/><ellipse cx="314.5" cy="229" fill="#ADD1B2" rx="11" ry="11" style="stroke:#A80036;stroke-width:1.0;"/><path d="M316.8438,224.6719 C315.9063,224.2344 315.3125,224.0938 314.4375,224.0938 C311.8125,224.0938 309.8125,226.1719 309.8125,228.8906 L309.8125,230.0156 C309.8125,232.5938 311.9219,234.4844 314.8125,234.4844 C316.0313,234.4844 317.1875,234.1875 317.9375,233.6406 C318.5156,233.2344 318.8438,232.7813 318.8438,232.3906 C318.8438,231.9375 318.4531,231.5469 317.9844,231.5469 C317.7656,231.5469 317.5625,231.625 317.375,231.8125 C316.9219,232.2969 316.9219,232.2969 316.7344,232.3906 C316.3125,232.6563 315.625,232.7813 314.8594,232.7813 C312.8125,232.7813 311.5156,231.6875 311.5156,229.9844 L311.5156,228.8906 C311.5156,227.1094 312.7656,225.7969 314.5,225.7969 C315.0781,225.7969 315.6875,225.9531 316.1563,226.2031 C316.6406,226.4844 316.8125,226.7031 316.9063,227.1094 C316.9688,227.5156 317,227.6406 317.1406,227.7656 C317.2813,227.9063 317.5156,228.0156 317.7344,228.0156 C318,228.0156 318.2656,227.875 318.4375,227.6563 C318.5469,227.5 318.5781,227.3125 318.5781,226.8906 L318.5781,225.4688 C318.5781,225.0313 318.5625,224.9063 318.4688,224.75 C318.3125,224.4844 318.0313,224.3438 317.7344,224.3438 C317.4375,224.3438 317.2344,224.4375 317.0156,224.75 L316.8438,224.6719 Z " fill="#000000"/><text fill="#000000" font-family="sans-serif" font-size="12" lengthAdjust="spacingAndGlyphs" textLength="110" x="328.5" y="233.1543">ConsoleTicTacToe</text><line style="stroke:#A80036;stroke-width:1.5;" x1="300.5" x2="440.5" y1="245" y2="245"/><line style="stroke:#A80036;stroke-width:1.5;" x1="300.5" x2="440.5" y1="253" y2="253"/><polygon fill="#4177AF" points="310.5,260,306.5,266,314.5,266" style="stroke:#1963A0;stroke-width:1.0;"/><text fill="#000000" font-family="sans-serif" font-size="11" lengthAdjust="spacingAndGlyphs" textLength="112" x="319.5" y="267.2104">ConsoleTicTacToe()</text><rect fill="#F24D5C" height="6" style="stroke:#C82930;stroke-width:1.0;" width="6" x="307.5" y="273.8047"/><text fill="#000000" font-family="sans-serif" font-size="11" lengthAdjust="spacingAndGlyphs" textLength="32" x="319.5" y="280.0151">play()</text><ellipse cx="310.5" cy="289.6094" fill="#84BE84" rx="3" ry="3" style="stroke:#038048;stroke-width:1.0;"/><text fill="#000000" font-family="sans-serif" font-size="11" lengthAdjust="spacingAndGlyphs" text-decoration="underline" textLength="77" x="319.5" y="292.8198">main(String[])</text><!--MD5=[44e3097ba2e6697655acc7ad5ebd4556]
class usantatecla.tictactoe.GraphicsTicTacToe--><rect codeLine="9" fill="#FEFECE" filter="url(#f1nvyoe1f0cjog)" height="86.4141" id="usantatecla.tictactoe.GraphicsTicTacToe" style="stroke:#A80036;stroke-width:1.5;" width="146" x="476.5" y="213"/><ellipse cx="491.5" cy="229" fill="#ADD1B2" rx="11" ry="11" style="stroke:#A80036;stroke-width:1.0;"/><path d="M493.8438,224.6719 C492.9063,224.2344 492.3125,224.0938 491.4375,224.0938 C488.8125,224.0938 486.8125,226.1719 486.8125,228.8906 L486.8125,230.0156 C486.8125,232.5938 488.9219,234.4844 491.8125,234.4844 C493.0313,234.4844 494.1875,234.1875 494.9375,233.6406 C495.5156,233.2344 495.8438,232.7813 495.8438,232.3906 C495.8438,231.9375 495.4531,231.5469 494.9844,231.5469 C494.7656,231.5469 494.5625,231.625 494.375,231.8125 C493.9219,232.2969 493.9219,232.2969 493.7344,232.3906 C493.3125,232.6563 492.625,232.7813 491.8594,232.7813 C489.8125,232.7813 488.5156,231.6875 488.5156,229.9844 L488.5156,228.8906 C488.5156,227.1094 489.7656,225.7969 491.5,225.7969 C492.0781,225.7969 492.6875,225.9531 493.1563,226.2031 C493.6406,226.4844 493.8125,226.7031 493.9063,227.1094 C493.9688,227.5156 494,227.6406 494.1406,227.7656 C494.2813,227.9063 494.5156,228.0156 494.7344,228.0156 C495,228.0156 495.2656,227.875 495.4375,227.6563 C495.5469,227.5 495.5781,227.3125 495.5781,226.8906 L495.5781,225.4688 C495.5781,225.0313 495.5625,224.9063 495.4688,224.75 C495.3125,224.4844 495.0313,224.3438 494.7344,224.3438 C494.4375,224.3438 494.2344,224.4375 494.0156,224.75 L493.8438,224.6719 Z " fill="#000000"/><text fill="#000000" font-family="sans-serif" font-size="12" lengthAdjust="spacingAndGlyphs" textLength="114" x="505.5" y="233.1543">GraphicsTicTacToe</text><line style="stroke:#A80036;stroke-width:1.5;" x1="477.5" x2="621.5" y1="245" y2="245"/><line style="stroke:#A80036;stroke-width:1.5;" x1="477.5" x2="621.5" y1="253" y2="253"/><rect fill="#F24D5C" height="6" style="stroke:#C82930;stroke-width:1.0;" width="6" x="484.5" y="261"/><text fill="#000000" font-family="sans-serif" font-size="11" lengthAdjust="spacingAndGlyphs" textLength="115" x="496.5" y="267.2104">GraphicsTicTacToe()</text><rect fill="#F24D5C" height="6" style="stroke:#C82930;stroke-width:1.0;" width="6" x="484.5" y="273.8047"/><text fill="#000000" font-family="sans-serif" font-size="11" lengthAdjust="spacingAndGlyphs" textLength="32" x="496.5" y="280.0151">play()</text><ellipse cx="487.5" cy="289.6094" fill="#84BE84" rx="3" ry="3" style="stroke:#038048;stroke-width:1.0;"/><text fill="#000000" font-family="sans-serif" font-size="11" lengthAdjust="spacingAndGlyphs" text-decoration="underline" textLength="77" x="496.5" y="292.8198">main(String[])</text><!--MD5=[4b5d579ecc4748d1b21f2fd6d497d353]
class usantatecla.tictactoe.TicTacToe--><rect codeLine="17" fill="#FEFECE" filter="url(#f1nvyoe1f0cjog)" height="112.0234" id="usantatecla.tictactoe.TicTacToe" style="stroke:#A80036;stroke-width:1.5;" width="166" x="377.5" y="41"/><ellipse cx="425.75" cy="57" fill="#ADD1B2" rx="11" ry="11" style="stroke:#A80036;stroke-width:1.0;"/><path d="M428.0938,52.6719 C427.1563,52.2344 426.5625,52.0938 425.6875,52.0938 C423.0625,52.0938 421.0625,54.1719 421.0625,56.8906 L421.0625,58.0156 C421.0625,60.5938 423.1719,62.4844 426.0625,62.4844 C427.2813,62.4844 428.4375,62.1875 429.1875,61.6406 C429.7656,61.2344 430.0938,60.7813 430.0938,60.3906 C430.0938,59.9375 429.7031,59.5469 429.2344,59.5469 C429.0156,59.5469 428.8125,59.625 428.625,59.8125 C428.1719,60.2969 428.1719,60.2969 427.9844,60.3906 C427.5625,60.6563 426.875,60.7813 426.1094,60.7813 C424.0625,60.7813 422.7656,59.6875 422.7656,57.9844 L422.7656,56.8906 C422.7656,55.1094 424.0156,53.7969 425.75,53.7969 C426.3281,53.7969 426.9375,53.9531 427.4063,54.2031 C427.8906,54.4844 428.0625,54.7031 428.1563,55.1094 C428.2188,55.5156 428.25,55.6406 428.3906,55.7656 C428.5313,55.9063 428.7656,56.0156 428.9844,56.0156 C429.25,56.0156 429.5156,55.875 429.6875,55.6563 C429.7969,55.5 429.8281,55.3125 429.8281,54.8906 L429.8281,53.4688 C429.8281,53.0313 429.8125,52.9063 429.7188,52.75 C429.5625,52.4844 429.2813,52.3438 428.9844,52.3438 C428.6875,52.3438 428.4844,52.4375 428.2656,52.75 L428.0938,52.6719 Z " fill="#000000"/><text fill="#000000" font-family="sans-serif" font-size="12" lengthAdjust="spacingAndGlyphs" textLength="61" x="446.25" y="61.1543">TicTacToe</text><line style="stroke:#A80036;stroke-width:1.5;" x1="378.5" x2="542.5" y1="73" y2="73"/><rect fill="none" height="6" style="stroke:#C82930;stroke-width:1.0;" width="6" x="385.5" y="81"/><text fill="#000000" font-family="sans-serif" font-size="11" lengthAdjust="spacingAndGlyphs" textLength="75" x="397.5" y="87.2104">game: Game</text><rect fill="none" height="6" style="stroke:#C82930;stroke-width:1.0;" width="6" x="385.5" y="93.8047"/><text fill="#000000" font-family="sans-serif" font-size="11" lengthAdjust="spacingAndGlyphs" textLength="62" x="397.5" y="100.0151">view: View</text><line style="stroke:#A80036;stroke-width:1.5;" x1="378.5" x2="542.5" y1="106.6094" y2="106.6094"/><polygon fill="#FFFF44" points="388.5,112.6094,392.5,116.6094,388.5,120.6094,384.5,116.6094" style="stroke:#B38D22;stroke-width:1.0;"/><text fill="#000000" font-family="sans-serif" font-size="11" lengthAdjust="spacingAndGlyphs" textLength="66" x="397.5" y="120.8198">TicTacToe()</text><polygon fill="#FFFF44" points="388.5,125.4141,392.5,129.4141,388.5,133.4141,384.5,129.4141" style="stroke:#B38D22;stroke-width:1.0;"/><text fill="#000000" font-family="sans-serif" font-size="11" font-style="italic" lengthAdjust="spacingAndGlyphs" textLength="140" x="397.5" y="133.6245">createView(Game): View</text><polygon fill="#FFFF44" points="388.5,138.2188,392.5,142.2188,388.5,146.2188,384.5,142.2188" style="stroke:#B38D22;stroke-width:1.0;"/><text fill="#000000" font-family="sans-serif" font-size="11" lengthAdjust="spacingAndGlyphs" textLength="32" x="397.5" y="146.4292">play()</text><!--MD5=[b6dcce5e5ef3c84b0b048d11301373dd]
class Game--><rect codeLine="28" fill="#FEFECE" filter="url(#f1nvyoe1f0cjog)" height="48" id="Game" style="stroke:#A80036;stroke-width:1.5;" width="186" x="367.5" y="359"/><ellipse cx="382.5" cy="375" fill="#ADD1B2" rx="11" ry="11" style="stroke:#A80036;stroke-width:1.0;"/><path d="M384.8438,370.6719 C383.9063,370.2344 383.3125,370.0938 382.4375,370.0938 C379.8125,370.0938 377.8125,372.1719 377.8125,374.8906 L377.8125,376.0156 C377.8125,378.5938 379.9219,380.4844 382.8125,380.4844 C384.0313,380.4844 385.1875,380.1875 385.9375,379.6406 C386.5156,379.2344 386.8438,378.7813 386.8438,378.3906 C386.8438,377.9375 386.4531,377.5469 385.9844,377.5469 C385.7656,377.5469 385.5625,377.625 385.375,377.8125 C384.9219,378.2969 384.9219,378.2969 384.7344,378.3906 C384.3125,378.6563 383.625,378.7813 382.8594,378.7813 C380.8125,378.7813 379.5156,377.6875 379.5156,375.9844 L379.5156,374.8906 C379.5156,373.1094 380.7656,371.7969 382.5,371.7969 C383.0781,371.7969 383.6875,371.9531 384.1563,372.2031 C384.6406,372.4844 384.8125,372.7031 384.9063,373.1094 C384.9688,373.5156 385,373.6406 385.1406,373.7656 C385.2813,373.9063 385.5156,374.0156 385.7344,374.0156 C386,374.0156 386.2656,373.875 386.4375,373.6563 C386.5469,373.5 386.5781,373.3125 386.5781,372.8906 L386.5781,371.4688 C386.5781,371.0313 386.5625,370.9063 386.4688,370.75 C386.3125,370.4844 386.0313,370.3438 385.7344,370.3438 C385.4375,370.3438 385.2344,370.4375 385.0156,370.75 L384.8438,370.6719 Z " fill="#000000"/><text fill="#000000" font-family="sans-serif" font-size="12" lengthAdjust="spacingAndGlyphs" textLength="154" x="396.5" y="379.1543">usantatecla.models.Game</text><line style="stroke:#A80036;stroke-width:1.5;" x1="368.5" x2="552.5" y1="391" y2="391"/><line style="stroke:#A80036;stroke-width:1.5;" x1="368.5" x2="552.5" y1="399" y2="399"/><!--MD5=[748e3791006be7c767b2778e01d447c5]
class consoleView--><rect codeLine="29" fill="#FEFECE" filter="url(#f1nvyoe1f0cjog)" height="48" id="consoleView" style="stroke:#A80036;stroke-width:1.5;" width="325" x="7" y="359"/><ellipse cx="22" cy="375" fill="#ADD1B2" rx="11" ry="11" style="stroke:#A80036;stroke-width:1.0;"/><path d="M24.3438,370.6719 C23.4063,370.2344 22.8125,370.0938 21.9375,370.0938 C19.3125,370.0938 17.3125,372.1719 17.3125,374.8906 L17.3125,376.0156 C17.3125,378.5938 19.4219,380.4844 22.3125,380.4844 C23.5313,380.4844 24.6875,380.1875 25.4375,379.6406 C26.0156,379.2344 26.3438,378.7813 26.3438,378.3906 C26.3438,377.9375 25.9531,377.5469 25.4844,377.5469 C25.2656,377.5469 25.0625,377.625 24.875,377.8125 C24.4219,378.2969 24.4219,378.2969 24.2344,378.3906 C23.8125,378.6563 23.125,378.7813 22.3594,378.7813 C20.3125,378.7813 19.0156,377.6875 19.0156,375.9844 L19.0156,374.8906 C19.0156,373.1094 20.2656,371.7969 22,371.7969 C22.5781,371.7969 23.1875,371.9531 23.6563,372.2031 C24.1406,372.4844 24.3125,372.7031 24.4063,373.1094 C24.4688,373.5156 24.5,373.6406 24.6406,373.7656 C24.7813,373.9063 25.0156,374.0156 25.2344,374.0156 C25.5,374.0156 25.7656,373.875 25.9375,373.6563 C26.0469,373.5 26.0781,373.3125 26.0781,372.8906 L26.0781,371.4688 C26.0781,371.0313 26.0625,370.9063 25.9688,370.75 C25.8125,370.4844 25.5313,370.3438 25.2344,370.3438 C24.9375,370.3438 24.7344,370.4375 24.5156,370.75 L24.3438,370.6719 Z " fill="#000000"/><text fill="#000000" font-family="sans-serif" font-size="12" lengthAdjust="spacingAndGlyphs" textLength="293" x="36" y="379.1543">usantatecla.tictactoe.views.console.ConsoleView</text><line style="stroke:#A80036;stroke-width:1.5;" x1="8" x2="331" y1="391" y2="391"/><line style="stroke:#A80036;stroke-width:1.5;" x1="8" x2="331" y1="399" y2="399"/><!--MD5=[059db5ba063e7a61d0f274c02868b83b]
class graphicsView--><rect codeLine="30" fill="#FEFECE" filter="url(#f1nvyoe1f0cjog)" height="48" id="graphicsView" style="stroke:#A80036;stroke-width:1.5;" width="333" x="589" y="359"/><ellipse cx="604" cy="375" fill="#ADD1B2" rx="11" ry="11" style="stroke:#A80036;stroke-width:1.0;"/><path d="M606.3438,370.6719 C605.4063,370.2344 604.8125,370.0938 603.9375,370.0938 C601.3125,370.0938 599.3125,372.1719 599.3125,374.8906 L599.3125,376.0156 C599.3125,378.5938 601.4219,380.4844 604.3125,380.4844 C605.5313,380.4844 606.6875,380.1875 607.4375,379.6406 C608.0156,379.2344 608.3438,378.7813 608.3438,378.3906 C608.3438,377.9375 607.9531,377.5469 607.4844,377.5469 C607.2656,377.5469 607.0625,377.625 606.875,377.8125 C606.4219,378.2969 606.4219,378.2969 606.2344,378.3906 C605.8125,378.6563 605.125,378.7813 604.3594,378.7813 C602.3125,378.7813 601.0156,377.6875 601.0156,375.9844 L601.0156,374.8906 C601.0156,373.1094 602.2656,371.7969 604,371.7969 C604.5781,371.7969 605.1875,371.9531 605.6563,372.2031 C606.1406,372.4844 606.3125,372.7031 606.4063,373.1094 C606.4688,373.5156 606.5,373.6406 606.6406,373.7656 C606.7813,373.9063 607.0156,374.0156 607.2344,374.0156 C607.5,374.0156 607.7656,373.875 607.9375,373.6563 C608.0469,373.5 608.0781,373.3125 608.0781,372.8906 L608.0781,371.4688 C608.0781,371.0313 608.0625,370.9063 607.9688,370.75 C607.8125,370.4844 607.5313,370.3438 607.2344,370.3438 C606.9375,370.3438 606.7344,370.4375 606.5156,370.75 L606.3438,370.6719 Z " fill="#000000"/><text fill="#000000" font-family="sans-serif" font-size="12" lengthAdjust="spacingAndGlyphs" textLength="301" x="618" y="379.1543">usantatecla.tictactoe.views.graphics.GraphicsView</text><line style="stroke:#A80036;stroke-width:1.5;" x1="590" x2="921" y1="391" y2="391"/><line style="stroke:#A80036;stroke-width:1.5;" x1="590" x2="921" y1="399" y2="399"/><!--MD5=[63fc05718b658ffc84b20ac5511973fa]
reverse link usantatecla.tictactoe.TicTacToe to usantatecla.tictactoe.ConsoleTicTacToe--><path codeLine="25" d="M418.799,170.745 C410.501,185.22 402.053,199.957 394.592,212.974 " fill="none" id="usantatecla.tictactoe.TicTacToe-backto-usantatecla.tictactoe.ConsoleTicTacToe" style="stroke:#A80036;stroke-width:1.0;"/><polygon fill="none" points="412.75,167.222,428.769,153.352,424.896,174.185,412.75,167.222" style="stroke:#A80036;stroke-width:1.0;"/><!--MD5=[e9d4c2bf3af7f87e2d4905db04830b2f]
reverse link usantatecla.tictactoe.TicTacToe to usantatecla.tictactoe.GraphicsTicTacToe--><path codeLine="26" d="M502.008,171.222 C510.127,185.543 518.378,200.1 525.676,212.974 " fill="none" id="usantatecla.tictactoe.TicTacToe-backto-usantatecla.tictactoe.GraphicsTicTacToe" style="stroke:#A80036;stroke-width:1.0;"/><polygon fill="none" points="495.652,174.203,491.878,153.352,507.831,167.299,495.652,174.203" style="stroke:#A80036;stroke-width:1.0;"/><!--MD5=[dee294772fe5daf7cc0f08db86d7f647]
link usantatecla.tictactoe.ConsoleTicTacToe to Game--><path codeLine="32" d="M407.9817,309.0574 C407.9817,309.0574 427.685,336.423 436.08,348.0832 " fill="none" id="usantatecla.tictactoe.ConsoleTicTacToe-Game" style="stroke:#A80036;stroke-width:1.0;"/><polygon fill="#A80036" points="443.704,358.6717,441.6914,349.0307,440.7825,354.614,435.1991,353.7051,443.704,358.6717" style="stroke:#A80036;stroke-width:1.0;"/><line style="stroke:#A80036;stroke-width:1.0;" x1="440.7825" x2="436.1075" y1="354.614" y2="348.1217"/><polygon fill="#A80036" points="400.97,299.319,401.2297,306.5254,407.9817,309.0574,407.722,301.851,400.97,299.319" style="stroke:#A80036;stroke-width:1.0;"/><!--MD5=[1e93a494ab703947dc307a8569c83675]
link usantatecla.tictactoe.GraphicsTicTacToe to Game--><path codeLine="33" d="M512.409,309.0944 C512.409,309.0944 493.147,336.1477 484.906,347.722 " fill="none" id="usantatecla.tictactoe.GraphicsTicTacToe-Game" style="stroke:#A80036;stroke-width:1.0;"/><polygon fill="#A80036" points="477.11,358.6717,485.5885,353.6602,480.01,354.5986,479.0715,349.0202,477.11,358.6717" style="stroke:#A80036;stroke-width:1.0;"/><line style="stroke:#A80036;stroke-width:1.0;" x1="480.01" x2="484.6495" y1="354.5986" y2="348.0817"/><polygon fill="#A80036" points="519.369,299.319,512.6305,301.8867,512.409,309.0944,519.1475,306.5267,519.369,299.319" style="stroke:#A80036;stroke-width:1.0;"/><!--MD5=[512b992d03a4b7bedfc8cf304e76948a]
link usantatecla.tictactoe.ConsoleTicTacToe to consoleView--><path codeLine="34" d="M292.5405,305.4817 C292.5405,305.4817 239.81,338.2752 217.663,352.0481 " fill="none" id="usantatecla.tictactoe.ConsoleTicTacToe-consoleView" style="stroke:#A80036;stroke-width:1.0;"/><polygon fill="#A80036" points="206.545,358.9621,216.3,357.6057,210.7908,356.3215,212.075,350.8123,206.545,358.9621" style="stroke:#A80036;stroke-width:1.0;"/><line style="stroke:#A80036;stroke-width:1.0;" x1="210.7908" x2="217.584" y1="356.3215" y2="352.0968"/><polygon fill="#A80036" points="302.731,299.145,295.5235,298.9165,292.5405,305.4817,299.748,305.7102,302.731,299.145" style="stroke:#A80036;stroke-width:1.0;"/><!--MD5=[e77cae99886e5ae8d7b3ef18799ed259]
link usantatecla.tictactoe.GraphicsTicTacToe to graphicsView--><path codeLine="35" d="M629.2145,305.3694 C629.2145,305.3694 683.441,338.2752 706.139,352.0481 " fill="none" id="usantatecla.tictactoe.GraphicsTicTacToe-graphicsView" style="stroke:#A80036;stroke-width:1.0;"/><polygon fill="#A80036" points="717.534,358.9621,711.915,350.8734,713.2595,356.3682,707.7647,357.7127,717.534,358.9621" style="stroke:#A80036;stroke-width:1.0;"/><line style="stroke:#A80036;stroke-width:1.0;" x1="713.2595" x2="706.4195" y1="356.3682" y2="352.2182"/><polygon fill="#A80036" points="618.955,299.145,622.01,305.677,629.2145,305.3694,626.1595,298.8373,618.955,299.145" style="stroke:#A80036;stroke-width:1.0;"/><!--MD5=[7f3580f75de4100f5e50115291f3776a]
@startuml
class usantatecla.tictactoe.ConsoleTicTacToe {

	~ ConsoleTicTacToe()
	- play()
	+ {static} main(String[])

}

class usantatecla.tictactoe.GraphicsTicTacToe {

	- GraphicsTicTacToe()
	- play()
	+ {static} main(String[])

}

class  usantatecla.tictactoe.TicTacToe{
- game: Game
- view: View
# TicTacToe()
# {abstract} createView(Game): View
# play()
}

usantatecla.tictactoe.TicTacToe <|-down- usantatecla.tictactoe.ConsoleTicTacToe
usantatecla.tictactoe.TicTacToe <|-down- usantatecla.tictactoe.GraphicsTicTacToe

class Game as "usantatecla.models.Game"
class consoleView as "usantatecla.tictactoe.views.console.ConsoleView"
class graphicsView as "usantatecla.tictactoe.views.graphics.GraphicsView"

usantatecla.tictactoe.ConsoleTicTacToe *-down-> Game
usantatecla.tictactoe.GraphicsTicTacToe *-down-> Game
usantatecla.tictactoe.ConsoleTicTacToe *-down-> consoleView
usantatecla.tictactoe.GraphicsTicTacToe *-down-> graphicsView
@enduml

PlantUML version 1.2020.21beta7(Unknown compile time)
(GPL source distribution)
Java Runtime: Java(TM) SE Runtime Environment
JVM: Java HotSpot(TM) 64-Bit Server VM
Default Encoding: UTF-8
Language: en
Country: US
--></g></svg>