<?xml version="1.0" encoding="UTF-8" standalone="no"?><svg xmlns="http://www.w3.org/2000/svg" xmlns:xlink="http://www.w3.org/1999/xlink" contentScriptType="application/ecmascript" contentStyleType="text/css" height="724px" preserveAspectRatio="none" style="width:2139px;height:724px;" version="1.1" viewBox="0 0 2139 724" width="2139px" zoomAndPan="magnify"><defs><filter height="300%" id="fflrl5flyj1om" width="300%" x="-1" y="-1"><feGaussianBlur result="blurOut" stdDeviation="2.0"/><feColorMatrix in="blurOut" result="blurOut2" type="matrix" values="0 0 0 0 0 0 0 0 0 0 0 0 0 0 0 0 0 0 .4 0"/><feOffset dx="4.0" dy="4.0" in="blurOut2" result="blurOut3"/><feBlend in="SourceGraphic" in2="blurOut3" mode="normal"/></filter></defs><g><!--MD5=[afa086bbcd8ffca9f665fc482cfb293b]
cluster usantatecla.tictactoe.views.console--><polygon fill="#FFFFFF" filter="url(#fflrl5flyj1om)" points="1141.5,80,1443.5,80,1450.5,102.2969,1560.5,102.2969,1560.5,618,1141.5,618,1141.5,80" style="stroke: #000000; stroke-width: 1.5;"/><line style="stroke: #000000; stroke-width: 1.5;" x1="1141.5" x2="1450.5" y1="102.2969" y2="102.2969"/><text fill="#000000" font-family="sans-serif" font-size="14" font-weight="bold" lengthAdjust="spacingAndGlyphs" textLength="296" x="1145.5" y="94.9951">usantatecla.tictactoe.views.console</text><!--MD5=[2d43059fb2a276ac65e956d1d49a34b9]
class usantatecla.tictactoe.views.console.CoordinateView--><rect codeLine="1" fill="#FEFECE" filter="url(#fflrl5flyj1om)" height="60.8047" id="usantatecla.tictactoe.views.console.CoordinateView" style="stroke: #A80036; stroke-width: 1.5;" width="159" x="1195" y="388.5"/><ellipse cx="1224.4" cy="404.5" fill="#ADD1B2" rx="11" ry="11" style="stroke: #A80036; stroke-width: 1.0;"/><path d="M1226.7438,400.1719 C1225.8063,399.7344 1225.2125,399.5938 1224.3375,399.5938 C1221.7125,399.5938 1219.7125,401.6719 1219.7125,404.3906 L1219.7125,405.5156 C1219.7125,408.0938 1221.8219,409.9844 1224.7125,409.9844 C1225.9313,409.9844 1227.0875,409.6875 1227.8375,409.1406 C1228.4156,408.7344 1228.7438,408.2813 1228.7438,407.8906 C1228.7438,407.4375 1228.3531,407.0469 1227.8844,407.0469 C1227.6656,407.0469 1227.4625,407.125 1227.275,407.3125 C1226.8219,407.7969 1226.8219,407.7969 1226.6344,407.8906 C1226.2125,408.1563 1225.525,408.2813 1224.7594,408.2813 C1222.7125,408.2813 1221.4156,407.1875 1221.4156,405.4844 L1221.4156,404.3906 C1221.4156,402.6094 1222.6656,401.2969 1224.4,401.2969 C1224.9781,401.2969 1225.5875,401.4531 1226.0563,401.7031 C1226.5406,401.9844 1226.7125,402.2031 1226.8063,402.6094 C1226.8688,403.0156 1226.9,403.1406 1227.0406,403.2656 C1227.1813,403.4063 1227.4156,403.5156 1227.6344,403.5156 C1227.9,403.5156 1228.1656,403.375 1228.3375,403.1563 C1228.4469,403 1228.4781,402.8125 1228.4781,402.3906 L1228.4781,400.9688 C1228.4781,400.5313 1228.4625,400.4063 1228.3688,400.25 C1228.2125,399.9844 1227.9313,399.8438 1227.6344,399.8438 C1227.3375,399.8438 1227.1344,399.9375 1226.9156,400.25 L1226.7438,400.1719 Z " fill="#000000"/><text fill="#000000" font-family="sans-serif" font-size="12" lengthAdjust="spacingAndGlyphs" textLength="95" x="1241.6" y="408.6543">CoordinateView</text><line style="stroke: #A80036; stroke-width: 1.5;" x1="1196" x2="1353" y1="420.5" y2="420.5"/><line style="stroke: #A80036; stroke-width: 1.5;" x1="1196" x2="1353" y1="428.5" y2="428.5"/><ellipse cx="1206" cy="439.5" fill="#84BE84" rx="3" ry="3" style="stroke: #038048; stroke-width: 1.0;"/><text fill="#000000" font-family="sans-serif" font-size="11" lengthAdjust="spacingAndGlyphs" textLength="133" x="1215" y="442.7104">Coordinate read(String)</text><!--MD5=[9a803f39cb9786b0f7bee2c1e410c567]
class usantatecla.tictactoe.views.console.ErrorView--><rect codeLine="17" fill="#FEFECE" filter="url(#fflrl5flyj1om)" height="73.6094" id="usantatecla.tictactoe.views.console.ErrorView" style="stroke: #A80036; stroke-width: 1.5;" width="100" x="1176.5" y="522"/><ellipse cx="1195.55" cy="538" fill="#ADD1B2" rx="11" ry="11" style="stroke: #A80036; stroke-width: 1.0;"/><path d="M1197.8938,533.6719 C1196.9563,533.2344 1196.3625,533.0938 1195.4875,533.0938 C1192.8625,533.0938 1190.8625,535.1719 1190.8625,537.8906 L1190.8625,539.0156 C1190.8625,541.5938 1192.9719,543.4844 1195.8625,543.4844 C1197.0813,543.4844 1198.2375,543.1875 1198.9875,542.6406 C1199.5656,542.2344 1199.8938,541.7813 1199.8938,541.3906 C1199.8938,540.9375 1199.5031,540.5469 1199.0344,540.5469 C1198.8156,540.5469 1198.6125,540.625 1198.425,540.8125 C1197.9719,541.2969 1197.9719,541.2969 1197.7844,541.3906 C1197.3625,541.6563 1196.675,541.7813 1195.9094,541.7813 C1193.8625,541.7813 1192.5656,540.6875 1192.5656,538.9844 L1192.5656,537.8906 C1192.5656,536.1094 1193.8156,534.7969 1195.55,534.7969 C1196.1281,534.7969 1196.7375,534.9531 1197.2063,535.2031 C1197.6906,535.4844 1197.8625,535.7031 1197.9563,536.1094 C1198.0188,536.5156 1198.05,536.6406 1198.1906,536.7656 C1198.3313,536.9063 1198.5656,537.0156 1198.7844,537.0156 C1199.05,537.0156 1199.3156,536.875 1199.4875,536.6563 C1199.5969,536.5 1199.6281,536.3125 1199.6281,535.8906 L1199.6281,534.4688 C1199.6281,534.0313 1199.6125,533.9063 1199.5188,533.75 C1199.3625,533.4844 1199.0813,533.3438 1198.7844,533.3438 C1198.4875,533.3438 1198.2844,533.4375 1198.0656,533.75 L1197.8938,533.6719 Z " fill="#000000"/><text fill="#000000" font-family="sans-serif" font-size="12" lengthAdjust="spacingAndGlyphs" textLength="59" x="1210.45" y="542.1543">ErrorView</text><line style="stroke: #A80036; stroke-width: 1.5;" x1="1177.5" x2="1275.5" y1="554" y2="554"/><line style="stroke: #A80036; stroke-width: 1.5;" x1="1177.5" x2="1275.5" y1="562" y2="562"/><text fill="#000000" font-family="sans-serif" font-size="11" lengthAdjust="spacingAndGlyphs" textLength="88" x="1182.5" y="576.2104">ErrorView(Error)</text><text fill="#000000" font-family="sans-serif" font-size="11" lengthAdjust="spacingAndGlyphs" textLength="46" x="1182.5" y="589.0151">writeln()</text><!--MD5=[9ab417d9d18f3a7f31097f551391f5d5]
class usantatecla.tictactoe.views.console.GameView--><rect codeLine="30" fill="#FEFECE" filter="url(#fflrl5flyj1om)" height="73.6094" id="usantatecla.tictactoe.views.console.GameView" style="stroke: #A80036; stroke-width: 1.5;" width="118" x="1426.5" y="382"/><ellipse cx="1451.4" cy="398" fill="#ADD1B2" rx="11" ry="11" style="stroke: #A80036; stroke-width: 1.0;"/><path d="M1453.7438,393.6719 C1452.8063,393.2344 1452.2125,393.0938 1451.3375,393.0938 C1448.7125,393.0938 1446.7125,395.1719 1446.7125,397.8906 L1446.7125,399.0156 C1446.7125,401.5938 1448.8219,403.4844 1451.7125,403.4844 C1452.9313,403.4844 1454.0875,403.1875 1454.8375,402.6406 C1455.4156,402.2344 1455.7438,401.7813 1455.7438,401.3906 C1455.7438,400.9375 1455.3531,400.5469 1454.8844,400.5469 C1454.6656,400.5469 1454.4625,400.625 1454.275,400.8125 C1453.8219,401.2969 1453.8219,401.2969 1453.6344,401.3906 C1453.2125,401.6563 1452.525,401.7813 1451.7594,401.7813 C1449.7125,401.7813 1448.4156,400.6875 1448.4156,398.9844 L1448.4156,397.8906 C1448.4156,396.1094 1449.6656,394.7969 1451.4,394.7969 C1451.9781,394.7969 1452.5875,394.9531 1453.0563,395.2031 C1453.5406,395.4844 1453.7125,395.7031 1453.8063,396.1094 C1453.8688,396.5156 1453.9,396.6406 1454.0406,396.7656 C1454.1813,396.9063 1454.4156,397.0156 1454.6344,397.0156 C1454.9,397.0156 1455.1656,396.875 1455.3375,396.6563 C1455.4469,396.5 1455.4781,396.3125 1455.4781,395.8906 L1455.4781,394.4688 C1455.4781,394.0313 1455.4625,393.9063 1455.3688,393.75 C1455.2125,393.4844 1454.9313,393.3438 1454.6344,393.3438 C1454.3375,393.3438 1454.1344,393.4375 1453.9156,393.75 L1453.7438,393.6719 Z " fill="#000000"/><text fill="#000000" font-family="sans-serif" font-size="12" lengthAdjust="spacingAndGlyphs" textLength="64" x="1467.6" y="402.1543">GameView</text><line style="stroke: #A80036; stroke-width: 1.5;" x1="1427.5" x2="1543.5" y1="414" y2="414"/><line style="stroke: #A80036; stroke-width: 1.5;" x1="1427.5" x2="1543.5" y1="422" y2="422"/><text fill="#000000" font-family="sans-serif" font-size="11" lengthAdjust="spacingAndGlyphs" textLength="106" x="1432.5" y="436.2104">GameView(Game)</text><text fill="#000000" font-family="sans-serif" font-size="11" lengthAdjust="spacingAndGlyphs" textLength="36" x="1432.5" y="449.0151">write()</text><!--MD5=[df2cc6d85b473258aa5559b0f9d313a5]
class usantatecla.tictactoe.views.console.TokenView--><rect codeLine="95" fill="#FEFECE" filter="url(#fflrl5flyj1om)" height="86.4141" id="usantatecla.tictactoe.views.console.TokenView" style="stroke: #A80036; stroke-width: 1.5;" width="118" x="1321.5" y="516"/><ellipse cx="1345.5" cy="532" fill="#ADD1B2" rx="11" ry="11" style="stroke: #A80036; stroke-width: 1.0;"/><path d="M1347.8438,527.6719 C1346.9063,527.2344 1346.3125,527.0938 1345.4375,527.0938 C1342.8125,527.0938 1340.8125,529.1719 1340.8125,531.8906 L1340.8125,533.0156 C1340.8125,535.5938 1342.9219,537.4844 1345.8125,537.4844 C1347.0313,537.4844 1348.1875,537.1875 1348.9375,536.6406 C1349.5156,536.2344 1349.8438,535.7813 1349.8438,535.3906 C1349.8438,534.9375 1349.4531,534.5469 1348.9844,534.5469 C1348.7656,534.5469 1348.5625,534.625 1348.375,534.8125 C1347.9219,535.2969 1347.9219,535.2969 1347.7344,535.3906 C1347.3125,535.6563 1346.625,535.7813 1345.8594,535.7813 C1343.8125,535.7813 1342.5156,534.6875 1342.5156,532.9844 L1342.5156,531.8906 C1342.5156,530.1094 1343.7656,528.7969 1345.5,528.7969 C1346.0781,528.7969 1346.6875,528.9531 1347.1563,529.2031 C1347.6406,529.4844 1347.8125,529.7031 1347.9063,530.1094 C1347.9688,530.5156 1348,530.6406 1348.1406,530.7656 C1348.2813,530.9063 1348.5156,531.0156 1348.7344,531.0156 C1349,531.0156 1349.2656,530.875 1349.4375,530.6563 C1349.5469,530.5 1349.5781,530.3125 1349.5781,529.8906 L1349.5781,528.4688 C1349.5781,528.0313 1349.5625,527.9063 1349.4688,527.75 C1349.3125,527.4844 1349.0313,527.3438 1348.7344,527.3438 C1348.4375,527.3438 1348.2344,527.4375 1348.0156,527.75 L1347.8438,527.6719 Z " fill="#000000"/><text fill="#000000" font-family="sans-serif" font-size="12" lengthAdjust="spacingAndGlyphs" textLength="66" x="1361.5" y="536.1543">TokenView</text><line style="stroke: #A80036; stroke-width: 1.5;" x1="1322.5" x2="1438.5" y1="548" y2="548"/><ellipse cx="1332.5" cy="559" fill="none" rx="3" ry="3" style="stroke: #038048; stroke-width: 1.0;"/><text fill="#000000" font-family="sans-serif" font-size="11" lengthAdjust="spacingAndGlyphs" text-decoration="underline" textLength="91" x="1341.5" y="562.2104">char[] SYMBOLS</text><line style="stroke: #A80036; stroke-width: 1.5;" x1="1322.5" x2="1438.5" y1="568.8047" y2="568.8047"/><text fill="#000000" font-family="sans-serif" font-size="11" lengthAdjust="spacingAndGlyphs" textLength="106" x="1327.5" y="583.0151">TokenView(Token)</text><text fill="#000000" font-family="sans-serif" font-size="11" lengthAdjust="spacingAndGlyphs" textLength="36" x="1327.5" y="595.8198">write()</text><!--MD5=[6c8fec1979632a54c04a1848df5aa058]
class usantatecla.tictactoe.views.console.SubView--><rect codeLine="45" fill="#FEFECE" filter="url(#fflrl5flyj1om)" height="60.8047" id="usantatecla.tictactoe.views.console.SubView" style="stroke: #A80036; stroke-width: 1.5;" width="105" x="1420" y="115"/><ellipse cx="1444.45" cy="131" fill="#ADD1B2" rx="11" ry="11" style="stroke: #A80036; stroke-width: 1.0;"/><path d="M1446.7938,126.6719 C1445.8563,126.2344 1445.2625,126.0938 1444.3875,126.0938 C1441.7625,126.0938 1439.7625,128.1719 1439.7625,130.8906 L1439.7625,132.0156 C1439.7625,134.5938 1441.8719,136.4844 1444.7625,136.4844 C1445.9813,136.4844 1447.1375,136.1875 1447.8875,135.6406 C1448.4656,135.2344 1448.7938,134.7813 1448.7938,134.3906 C1448.7938,133.9375 1448.4031,133.5469 1447.9344,133.5469 C1447.7156,133.5469 1447.5125,133.625 1447.325,133.8125 C1446.8719,134.2969 1446.8719,134.2969 1446.6844,134.3906 C1446.2625,134.6563 1445.575,134.7813 1444.8094,134.7813 C1442.7625,134.7813 1441.4656,133.6875 1441.4656,131.9844 L1441.4656,130.8906 C1441.4656,129.1094 1442.7156,127.7969 1444.45,127.7969 C1445.0281,127.7969 1445.6375,127.9531 1446.1063,128.2031 C1446.5906,128.4844 1446.7625,128.7031 1446.8563,129.1094 C1446.9188,129.5156 1446.95,129.6406 1447.0906,129.7656 C1447.2313,129.9063 1447.4656,130.0156 1447.6844,130.0156 C1447.95,130.0156 1448.2156,129.875 1448.3875,129.6563 C1448.4969,129.5 1448.5281,129.3125 1448.5281,128.8906 L1448.5281,127.4688 C1448.5281,127.0313 1448.5125,126.9063 1448.4188,126.75 C1448.2625,126.4844 1447.9813,126.3438 1447.6844,126.3438 C1447.3875,126.3438 1447.1844,126.4375 1446.9656,126.75 L1446.7938,126.6719 Z " fill="#000000"/><text fill="#000000" font-family="sans-serif" font-size="12" lengthAdjust="spacingAndGlyphs" textLength="52" x="1460.55" y="135.1543">SubView</text><line style="stroke: #A80036; stroke-width: 1.5;" x1="1421" x2="1524" y1="147" y2="147"/><line style="stroke: #A80036; stroke-width: 1.5;" x1="1421" x2="1524" y1="155" y2="155"/><text fill="#000000" font-family="sans-serif" font-size="11" lengthAdjust="spacingAndGlyphs" textLength="93" x="1426" y="169.2104">SubView(Game)</text><!--MD5=[945902a616e709012a060ccc6ad7ffa9]
class usantatecla.tictactoe.views.console.PlayView--><rect codeLine="53" fill="#FEFECE" filter="url(#fflrl5flyj1om)" height="86.4141" id="usantatecla.tictactoe.views.console.PlayView" style="stroke: #A80036; stroke-width: 1.5;" width="84" x="1430.5" y="236"/><ellipse cx="1445.5" cy="252" fill="#ADD1B2" rx="11" ry="11" style="stroke: #A80036; stroke-width: 1.0;"/><path d="M1447.8438,247.6719 C1446.9063,247.2344 1446.3125,247.0938 1445.4375,247.0938 C1442.8125,247.0938 1440.8125,249.1719 1440.8125,251.8906 L1440.8125,253.0156 C1440.8125,255.5938 1442.9219,257.4844 1445.8125,257.4844 C1447.0313,257.4844 1448.1875,257.1875 1448.9375,256.6406 C1449.5156,256.2344 1449.8438,255.7813 1449.8438,255.3906 C1449.8438,254.9375 1449.4531,254.5469 1448.9844,254.5469 C1448.7656,254.5469 1448.5625,254.625 1448.375,254.8125 C1447.9219,255.2969 1447.9219,255.2969 1447.7344,255.3906 C1447.3125,255.6563 1446.625,255.7813 1445.8594,255.7813 C1443.8125,255.7813 1442.5156,254.6875 1442.5156,252.9844 L1442.5156,251.8906 C1442.5156,250.1094 1443.7656,248.7969 1445.5,248.7969 C1446.0781,248.7969 1446.6875,248.9531 1447.1563,249.2031 C1447.6406,249.4844 1447.8125,249.7031 1447.9063,250.1094 C1447.9688,250.5156 1448,250.6406 1448.1406,250.7656 C1448.2813,250.9063 1448.5156,251.0156 1448.7344,251.0156 C1449,251.0156 1449.2656,250.875 1449.4375,250.6563 C1449.5469,250.5 1449.5781,250.3125 1449.5781,249.8906 L1449.5781,248.4688 C1449.5781,248.0313 1449.5625,247.9063 1449.4688,247.75 C1449.3125,247.4844 1449.0313,247.3438 1448.7344,247.3438 C1448.4375,247.3438 1448.2344,247.4375 1448.0156,247.75 L1447.8438,247.6719 Z " fill="#000000"/><text fill="#000000" font-family="sans-serif" font-size="12" lengthAdjust="spacingAndGlyphs" textLength="52" x="1459.5" y="256.1543">PlayView</text><line style="stroke: #A80036; stroke-width: 1.5;" x1="1431.5" x2="1513.5" y1="268" y2="268"/><line style="stroke: #A80036; stroke-width: 1.5;" x1="1431.5" x2="1513.5" y1="276" y2="276"/><text fill="#000000" font-family="sans-serif" font-size="11" lengthAdjust="spacingAndGlyphs" textLength="51" x="1450.5" y="290.2104">interact()</text><rect fill="#F24D5C" height="6" style="stroke: #C82930; stroke-width: 1.0;" width="6" x="1438.5" y="296.8047"/><text fill="#000000" font-family="sans-serif" font-size="11" lengthAdjust="spacingAndGlyphs" textLength="26" x="1450.5" y="303.0151">put()</text><rect fill="#F24D5C" height="6" style="stroke: #C82930; stroke-width: 1.0;" width="6" x="1438.5" y="309.6094"/><text fill="#000000" font-family="sans-serif" font-size="11" lengthAdjust="spacingAndGlyphs" textLength="41" x="1450.5" y="315.8198">move()</text><!--MD5=[9cb446a8880c694285af1ca12af0c56a]
class usantatecla.tictactoe.views.console.ResumeView--><rect codeLine="70" fill="#FEFECE" filter="url(#fflrl5flyj1om)" height="60.8047" id="usantatecla.tictactoe.views.console.ResumeView" style="stroke: #A80036; stroke-width: 1.5;" width="113" x="1158" y="248.5"/><ellipse cx="1174.8" cy="264.5" fill="#ADD1B2" rx="11" ry="11" style="stroke: #A80036; stroke-width: 1.0;"/><path d="M1177.1438,260.1719 C1176.2063,259.7344 1175.6125,259.5938 1174.7375,259.5938 C1172.1125,259.5938 1170.1125,261.6719 1170.1125,264.3906 L1170.1125,265.5156 C1170.1125,268.0938 1172.2219,269.9844 1175.1125,269.9844 C1176.3313,269.9844 1177.4875,269.6875 1178.2375,269.1406 C1178.8156,268.7344 1179.1438,268.2813 1179.1438,267.8906 C1179.1438,267.4375 1178.7531,267.0469 1178.2844,267.0469 C1178.0656,267.0469 1177.8625,267.125 1177.675,267.3125 C1177.2219,267.7969 1177.2219,267.7969 1177.0344,267.8906 C1176.6125,268.1563 1175.925,268.2813 1175.1594,268.2813 C1173.1125,268.2813 1171.8156,267.1875 1171.8156,265.4844 L1171.8156,264.3906 C1171.8156,262.6094 1173.0656,261.2969 1174.8,261.2969 C1175.3781,261.2969 1175.9875,261.4531 1176.4563,261.7031 C1176.9406,261.9844 1177.1125,262.2031 1177.2063,262.6094 C1177.2688,263.0156 1177.3,263.1406 1177.4406,263.2656 C1177.5813,263.4063 1177.8156,263.5156 1178.0344,263.5156 C1178.3,263.5156 1178.5656,263.375 1178.7375,263.1563 C1178.8469,263 1178.8781,262.8125 1178.8781,262.3906 L1178.8781,260.9688 C1178.8781,260.5313 1178.8625,260.4063 1178.7688,260.25 C1178.6125,259.9844 1178.3313,259.8438 1178.0344,259.8438 C1177.7375,259.8438 1177.5344,259.9375 1177.3156,260.25 L1177.1438,260.1719 Z " fill="#000000"/><text fill="#000000" font-family="sans-serif" font-size="12" lengthAdjust="spacingAndGlyphs" textLength="77" x="1189.2" y="268.6543">ResumeView</text><line style="stroke: #A80036; stroke-width: 1.5;" x1="1159" x2="1270" y1="280.5" y2="280.5"/><line style="stroke: #A80036; stroke-width: 1.5;" x1="1159" x2="1270" y1="288.5" y2="288.5"/><text fill="#000000" font-family="sans-serif" font-size="11" lengthAdjust="spacingAndGlyphs" textLength="101" x="1164" y="302.7104">boolean interact()</text><!--MD5=[d369e2c39d77f9d1d0bcff12bf51fd8f]
class usantatecla.tictactoe.views.console.StartView--><rect codeLine="82" fill="#FEFECE" filter="url(#fflrl5flyj1om)" height="60.8047" id="usantatecla.tictactoe.views.console.StartView" style="stroke: #A80036; stroke-width: 1.5;" width="89" x="1306" y="248.5"/><ellipse cx="1321" cy="264.5" fill="#ADD1B2" rx="11" ry="11" style="stroke: #A80036; stroke-width: 1.0;"/><path d="M1323.3438,260.1719 C1322.4063,259.7344 1321.8125,259.5938 1320.9375,259.5938 C1318.3125,259.5938 1316.3125,261.6719 1316.3125,264.3906 L1316.3125,265.5156 C1316.3125,268.0938 1318.4219,269.9844 1321.3125,269.9844 C1322.5313,269.9844 1323.6875,269.6875 1324.4375,269.1406 C1325.0156,268.7344 1325.3438,268.2813 1325.3438,267.8906 C1325.3438,267.4375 1324.9531,267.0469 1324.4844,267.0469 C1324.2656,267.0469 1324.0625,267.125 1323.875,267.3125 C1323.4219,267.7969 1323.4219,267.7969 1323.2344,267.8906 C1322.8125,268.1563 1322.125,268.2813 1321.3594,268.2813 C1319.3125,268.2813 1318.0156,267.1875 1318.0156,265.4844 L1318.0156,264.3906 C1318.0156,262.6094 1319.2656,261.2969 1321,261.2969 C1321.5781,261.2969 1322.1875,261.4531 1322.6563,261.7031 C1323.1406,261.9844 1323.3125,262.2031 1323.4063,262.6094 C1323.4688,263.0156 1323.5,263.1406 1323.6406,263.2656 C1323.7813,263.4063 1324.0156,263.5156 1324.2344,263.5156 C1324.5,263.5156 1324.7656,263.375 1324.9375,263.1563 C1325.0469,263 1325.0781,262.8125 1325.0781,262.3906 L1325.0781,260.9688 C1325.0781,260.5313 1325.0625,260.4063 1324.9688,260.25 C1324.8125,259.9844 1324.5313,259.8438 1324.2344,259.8438 C1323.9375,259.8438 1323.7344,259.9375 1323.5156,260.25 L1323.3438,260.1719 Z " fill="#000000"/><text fill="#000000" font-family="sans-serif" font-size="12" lengthAdjust="spacingAndGlyphs" textLength="57" x="1335" y="268.6543">StartView</text><line style="stroke: #A80036; stroke-width: 1.5;" x1="1307" x2="1394" y1="280.5" y2="280.5"/><line style="stroke: #A80036; stroke-width: 1.5;" x1="1307" x2="1394" y1="288.5" y2="288.5"/><text fill="#000000" font-family="sans-serif" font-size="11" lengthAdjust="spacingAndGlyphs" textLength="51" x="1312" y="302.7104">interact()</text><!--MD5=[c4911e3e347487aad58a8f7d79253fc2]
class usantatecla.tictactoe.views.console.View--><rect codeLine="109" fill="#FEFECE" filter="url(#fflrl5flyj1om)" height="60.8047" id="usantatecla.tictactoe.views.console.View" style="stroke: #A80036; stroke-width: 1.5;" width="97" x="1288" y="115"/><ellipse cx="1319.2" cy="131" fill="#ADD1B2" rx="11" ry="11" style="stroke: #A80036; stroke-width: 1.0;"/><path d="M1321.5438,126.6719 C1320.6063,126.2344 1320.0125,126.0938 1319.1375,126.0938 C1316.5125,126.0938 1314.5125,128.1719 1314.5125,130.8906 L1314.5125,132.0156 C1314.5125,134.5938 1316.6219,136.4844 1319.5125,136.4844 C1320.7313,136.4844 1321.8875,136.1875 1322.6375,135.6406 C1323.2156,135.2344 1323.5438,134.7813 1323.5438,134.3906 C1323.5438,133.9375 1323.1531,133.5469 1322.6844,133.5469 C1322.4656,133.5469 1322.2625,133.625 1322.075,133.8125 C1321.6219,134.2969 1321.6219,134.2969 1321.4344,134.3906 C1321.0125,134.6563 1320.325,134.7813 1319.5594,134.7813 C1317.5125,134.7813 1316.2156,133.6875 1316.2156,131.9844 L1316.2156,130.8906 C1316.2156,129.1094 1317.4656,127.7969 1319.2,127.7969 C1319.7781,127.7969 1320.3875,127.9531 1320.8563,128.2031 C1321.3406,128.4844 1321.5125,128.7031 1321.6063,129.1094 C1321.6688,129.5156 1321.7,129.6406 1321.8406,129.7656 C1321.9813,129.9063 1322.2156,130.0156 1322.4344,130.0156 C1322.7,130.0156 1322.9656,129.875 1323.1375,129.6563 C1323.2469,129.5 1323.2781,129.3125 1323.2781,128.8906 L1323.2781,127.4688 C1323.2781,127.0313 1323.2625,126.9063 1323.1688,126.75 C1323.0125,126.4844 1322.7313,126.3438 1322.4344,126.3438 C1322.1375,126.3438 1321.9344,126.4375 1321.7156,126.75 L1321.5438,126.6719 Z " fill="#000000"/><text fill="#000000" font-family="sans-serif" font-size="12" lengthAdjust="spacingAndGlyphs" textLength="29" x="1336.8" y="135.1543">View</text><line style="stroke: #A80036; stroke-width: 1.5;" x1="1289" x2="1384" y1="147" y2="147"/><line style="stroke: #A80036; stroke-width: 1.5;" x1="1289" x2="1384" y1="155" y2="155"/><ellipse cx="1299" cy="166" fill="#84BE84" rx="3" ry="3" style="stroke: #038048; stroke-width: 1.0;"/><text fill="#000000" font-family="sans-serif" font-size="11" lengthAdjust="spacingAndGlyphs" textLength="71" x="1308" y="169.2104">View(Game)</text><!--MD5=[8c7d7abc12e214c3cc12c9ab70edee11]
class Coordinate--><rect codeLine="9" fill="#FEFECE" filter="url(#fflrl5flyj1om)" height="48" id="Coordinate" style="stroke: #A80036; stroke-width: 1.5;" width="272" x="1576.5" y="535"/><ellipse cx="1591.5" cy="551" fill="#ADD1B2" rx="11" ry="11" style="stroke: #A80036; stroke-width: 1.0;"/><path d="M1593.8438,546.6719 C1592.9063,546.2344 1592.3125,546.0938 1591.4375,546.0938 C1588.8125,546.0938 1586.8125,548.1719 1586.8125,550.8906 L1586.8125,552.0156 C1586.8125,554.5938 1588.9219,556.4844 1591.8125,556.4844 C1593.0313,556.4844 1594.1875,556.1875 1594.9375,555.6406 C1595.5156,555.2344 1595.8438,554.7813 1595.8438,554.3906 C1595.8438,553.9375 1595.4531,553.5469 1594.9844,553.5469 C1594.7656,553.5469 1594.5625,553.625 1594.375,553.8125 C1593.9219,554.2969 1593.9219,554.2969 1593.7344,554.3906 C1593.3125,554.6563 1592.625,554.7813 1591.8594,554.7813 C1589.8125,554.7813 1588.5156,553.6875 1588.5156,551.9844 L1588.5156,550.8906 C1588.5156,549.1094 1589.7656,547.7969 1591.5,547.7969 C1592.0781,547.7969 1592.6875,547.9531 1593.1563,548.2031 C1593.6406,548.4844 1593.8125,548.7031 1593.9063,549.1094 C1593.9688,549.5156 1594,549.6406 1594.1406,549.7656 C1594.2813,549.9063 1594.5156,550.0156 1594.7344,550.0156 C1595,550.0156 1595.2656,549.875 1595.4375,549.6563 C1595.5469,549.5 1595.5781,549.3125 1595.5781,548.8906 L1595.5781,547.4688 C1595.5781,547.0313 1595.5625,546.9063 1595.4688,546.75 C1595.3125,546.4844 1595.0313,546.3438 1594.7344,546.3438 C1594.4375,546.3438 1594.2344,546.4375 1594.0156,546.75 L1593.8438,546.6719 Z " fill="#000000"/><text fill="#000000" font-family="sans-serif" font-size="12" lengthAdjust="spacingAndGlyphs" textLength="240" x="1605.5" y="555.1543">usantatecla.tictactoe.models.Coordinate</text><line style="stroke: #A80036; stroke-width: 1.5;" x1="1577.5" x2="1847.5" y1="567" y2="567"/><line style="stroke: #A80036; stroke-width: 1.5;" x1="1577.5" x2="1847.5" y1="575" y2="575"/><!--MD5=[b8cfd8c4119a3b0a7a46bfc5fc780f85]
class Error--><rect codeLine="10" fill="#FEFECE" filter="url(#fflrl5flyj1om)" height="48" id="Error" style="stroke: #A80036; stroke-width: 1.5;" width="236" x="1005.5" y="662"/><ellipse cx="1020.5" cy="678" fill="#ADD1B2" rx="11" ry="11" style="stroke: #A80036; stroke-width: 1.0;"/><path d="M1022.8438,673.6719 C1021.9063,673.2344 1021.3125,673.0938 1020.4375,673.0938 C1017.8125,673.0938 1015.8125,675.1719 1015.8125,677.8906 L1015.8125,679.0156 C1015.8125,681.5938 1017.9219,683.4844 1020.8125,683.4844 C1022.0313,683.4844 1023.1875,683.1875 1023.9375,682.6406 C1024.5156,682.2344 1024.8438,681.7813 1024.8438,681.3906 C1024.8438,680.9375 1024.4531,680.5469 1023.9844,680.5469 C1023.7656,680.5469 1023.5625,680.625 1023.375,680.8125 C1022.9219,681.2969 1022.9219,681.2969 1022.7344,681.3906 C1022.3125,681.6563 1021.625,681.7813 1020.8594,681.7813 C1018.8125,681.7813 1017.5156,680.6875 1017.5156,678.9844 L1017.5156,677.8906 C1017.5156,676.1094 1018.7656,674.7969 1020.5,674.7969 C1021.0781,674.7969 1021.6875,674.9531 1022.1563,675.2031 C1022.6406,675.4844 1022.8125,675.7031 1022.9063,676.1094 C1022.9688,676.5156 1023,676.6406 1023.1406,676.7656 C1023.2813,676.9063 1023.5156,677.0156 1023.7344,677.0156 C1024,677.0156 1024.2656,676.875 1024.4375,676.6563 C1024.5469,676.5 1024.5781,676.3125 1024.5781,675.8906 L1024.5781,674.4688 C1024.5781,674.0313 1024.5625,673.9063 1024.4688,673.75 C1024.3125,673.4844 1024.0313,673.3438 1023.7344,673.3438 C1023.4375,673.3438 1023.2344,673.4375 1023.0156,673.75 L1022.8438,673.6719 Z " fill="#000000"/><text fill="#000000" font-family="sans-serif" font-size="12" lengthAdjust="spacingAndGlyphs" textLength="204" x="1034.5" y="682.1543">usantatecla.tictactoe.models.Error</text><line style="stroke: #A80036; stroke-width: 1.5;" x1="1006.5" x2="1240.5" y1="694" y2="694"/><line style="stroke: #A80036; stroke-width: 1.5;" x1="1006.5" x2="1240.5" y1="702" y2="702"/><!--MD5=[315b61b427ec618d6861d47eee00cca3]
class Console--><rect codeLine="11" fill="#FEFECE" filter="url(#fflrl5flyj1om)" height="48" id="Console" style="stroke: #A80036; stroke-width: 1.5;" width="179" x="1284" y="662"/><ellipse cx="1299" cy="678" fill="#ADD1B2" rx="11" ry="11" style="stroke: #A80036; stroke-width: 1.0;"/><path d="M1301.3438,673.6719 C1300.4063,673.2344 1299.8125,673.0938 1298.9375,673.0938 C1296.3125,673.0938 1294.3125,675.1719 1294.3125,677.8906 L1294.3125,679.0156 C1294.3125,681.5938 1296.4219,683.4844 1299.3125,683.4844 C1300.5313,683.4844 1301.6875,683.1875 1302.4375,682.6406 C1303.0156,682.2344 1303.3438,681.7813 1303.3438,681.3906 C1303.3438,680.9375 1302.9531,680.5469 1302.4844,680.5469 C1302.2656,680.5469 1302.0625,680.625 1301.875,680.8125 C1301.4219,681.2969 1301.4219,681.2969 1301.2344,681.3906 C1300.8125,681.6563 1300.125,681.7813 1299.3594,681.7813 C1297.3125,681.7813 1296.0156,680.6875 1296.0156,678.9844 L1296.0156,677.8906 C1296.0156,676.1094 1297.2656,674.7969 1299,674.7969 C1299.5781,674.7969 1300.1875,674.9531 1300.6563,675.2031 C1301.1406,675.4844 1301.3125,675.7031 1301.4063,676.1094 C1301.4688,676.5156 1301.5,676.6406 1301.6406,676.7656 C1301.7813,676.9063 1302.0156,677.0156 1302.2344,677.0156 C1302.5,677.0156 1302.7656,676.875 1302.9375,676.6563 C1303.0469,676.5 1303.0781,676.3125 1303.0781,675.8906 L1303.0781,674.4688 C1303.0781,674.0313 1303.0625,673.9063 1302.9688,673.75 C1302.8125,673.4844 1302.5313,673.3438 1302.2344,673.3438 C1301.9375,673.3438 1301.7344,673.4375 1301.5156,673.75 L1301.3438,673.6719 Z " fill="#000000"/><text fill="#000000" font-family="sans-serif" font-size="12" lengthAdjust="spacingAndGlyphs" textLength="147" x="1313" y="682.1543">usantatecla.utils.Console</text><line style="stroke: #A80036; stroke-width: 1.5;" x1="1285" x2="1462" y1="694" y2="694"/><line style="stroke: #A80036; stroke-width: 1.5;" x1="1285" x2="1462" y1="702" y2="702"/><!--MD5=[86cec68673cafdfc1c204348d5b2cca6]
class ErrorView--><rect codeLine="24" fill="#FEFECE" filter="url(#fflrl5flyj1om)" height="48" id="ErrorView" style="stroke: #A80036; stroke-width: 1.5;" width="255" x="365" y="395"/><ellipse cx="380" cy="411" fill="#ADD1B2" rx="11" ry="11" style="stroke: #A80036; stroke-width: 1.0;"/><path d="M382.3438,406.6719 C381.4063,406.2344 380.8125,406.0938 379.9375,406.0938 C377.3125,406.0938 375.3125,408.1719 375.3125,410.8906 L375.3125,412.0156 C375.3125,414.5938 377.4219,416.4844 380.3125,416.4844 C381.5313,416.4844 382.6875,416.1875 383.4375,415.6406 C384.0156,415.2344 384.3438,414.7813 384.3438,414.3906 C384.3438,413.9375 383.9531,413.5469 383.4844,413.5469 C383.2656,413.5469 383.0625,413.625 382.875,413.8125 C382.4219,414.2969 382.4219,414.2969 382.2344,414.3906 C381.8125,414.6563 381.125,414.7813 380.3594,414.7813 C378.3125,414.7813 377.0156,413.6875 377.0156,411.9844 L377.0156,410.8906 C377.0156,409.1094 378.2656,407.7969 380,407.7969 C380.5781,407.7969 381.1875,407.9531 381.6563,408.2031 C382.1406,408.4844 382.3125,408.7031 382.4063,409.1094 C382.4688,409.5156 382.5,409.6406 382.6406,409.7656 C382.7813,409.9063 383.0156,410.0156 383.2344,410.0156 C383.5,410.0156 383.7656,409.875 383.9375,409.6563 C384.0469,409.5 384.0781,409.3125 384.0781,408.8906 L384.0781,407.4688 C384.0781,407.0313 384.0625,406.9063 383.9688,406.75 C383.8125,406.4844 383.5313,406.3438 383.2344,406.3438 C382.9375,406.3438 382.7344,406.4375 382.5156,406.75 L382.3438,406.6719 Z " fill="#000000"/><text fill="#000000" font-family="sans-serif" font-size="12" lengthAdjust="spacingAndGlyphs" textLength="223" x="394" y="415.1543">usantatecla.tictactoe.views.ErrorView</text><line style="stroke: #A80036; stroke-width: 1.5;" x1="366" x2="619" y1="427" y2="427"/><line style="stroke: #A80036; stroke-width: 1.5;" x1="366" x2="619" y1="435" y2="435"/><!--MD5=[b6dcce5e5ef3c84b0b048d11301373dd]
class Game--><rect codeLine="37" fill="#FEFECE" filter="url(#fflrl5flyj1om)" height="48" id="Game" style="stroke: #A80036; stroke-width: 1.5;" width="241" x="1884" y="535"/><ellipse cx="1899" cy="551" fill="#ADD1B2" rx="11" ry="11" style="stroke: #A80036; stroke-width: 1.0;"/><path d="M1901.3438,546.6719 C1900.4063,546.2344 1899.8125,546.0938 1898.9375,546.0938 C1896.3125,546.0938 1894.3125,548.1719 1894.3125,550.8906 L1894.3125,552.0156 C1894.3125,554.5938 1896.4219,556.4844 1899.3125,556.4844 C1900.5313,556.4844 1901.6875,556.1875 1902.4375,555.6406 C1903.0156,555.2344 1903.3438,554.7813 1903.3438,554.3906 C1903.3438,553.9375 1902.9531,553.5469 1902.4844,553.5469 C1902.2656,553.5469 1902.0625,553.625 1901.875,553.8125 C1901.4219,554.2969 1901.4219,554.2969 1901.2344,554.3906 C1900.8125,554.6563 1900.125,554.7813 1899.3594,554.7813 C1897.3125,554.7813 1896.0156,553.6875 1896.0156,551.9844 L1896.0156,550.8906 C1896.0156,549.1094 1897.2656,547.7969 1899,547.7969 C1899.5781,547.7969 1900.1875,547.9531 1900.6563,548.2031 C1901.1406,548.4844 1901.3125,548.7031 1901.4063,549.1094 C1901.4688,549.5156 1901.5,549.6406 1901.6406,549.7656 C1901.7813,549.9063 1902.0156,550.0156 1902.2344,550.0156 C1902.5,550.0156 1902.7656,549.875 1902.9375,549.6563 C1903.0469,549.5 1903.0781,549.3125 1903.0781,548.8906 L1903.0781,547.4688 C1903.0781,547.0313 1903.0625,546.9063 1902.9688,546.75 C1902.8125,546.4844 1902.5313,546.3438 1902.2344,546.3438 C1901.9375,546.3438 1901.7344,546.4375 1901.5156,546.75 L1901.3438,546.6719 Z " fill="#000000"/><text fill="#000000" font-family="sans-serif" font-size="12" lengthAdjust="spacingAndGlyphs" textLength="209" x="1913" y="555.1543">usantatecla.tictactoe.models.Game</text><line style="stroke: #A80036; stroke-width: 1.5;" x1="1885" x2="2124" y1="567" y2="567"/><line style="stroke: #A80036; stroke-width: 1.5;" x1="1885" x2="2124" y1="575" y2="575"/><!--MD5=[bea5b0d46523efab5ea1c1d339f396f0]
class Message--><rect codeLine="38" fill="#FEFECE" filter="url(#fflrl5flyj1om)" height="48" id="Message" style="stroke: #A80036; stroke-width: 1.5;" width="251" x="7" y="535"/><ellipse cx="22" cy="551" fill="#ADD1B2" rx="11" ry="11" style="stroke: #A80036; stroke-width: 1.0;"/><path d="M24.3438,546.6719 C23.4063,546.2344 22.8125,546.0938 21.9375,546.0938 C19.3125,546.0938 17.3125,548.1719 17.3125,550.8906 L17.3125,552.0156 C17.3125,554.5938 19.4219,556.4844 22.3125,556.4844 C23.5313,556.4844 24.6875,556.1875 25.4375,555.6406 C26.0156,555.2344 26.3438,554.7813 26.3438,554.3906 C26.3438,553.9375 25.9531,553.5469 25.4844,553.5469 C25.2656,553.5469 25.0625,553.625 24.875,553.8125 C24.4219,554.2969 24.4219,554.2969 24.2344,554.3906 C23.8125,554.6563 23.125,554.7813 22.3594,554.7813 C20.3125,554.7813 19.0156,553.6875 19.0156,551.9844 L19.0156,550.8906 C19.0156,549.1094 20.2656,547.7969 22,547.7969 C22.5781,547.7969 23.1875,547.9531 23.6563,548.2031 C24.1406,548.4844 24.3125,548.7031 24.4063,549.1094 C24.4688,549.5156 24.5,549.6406 24.6406,549.7656 C24.7813,549.9063 25.0156,550.0156 25.2344,550.0156 C25.5,550.0156 25.7656,549.875 25.9375,549.6563 C26.0469,549.5 26.0781,549.3125 26.0781,548.8906 L26.0781,547.4688 C26.0781,547.0313 26.0625,546.9063 25.9688,546.75 C25.8125,546.4844 25.5313,546.3438 25.2344,546.3438 C24.9375,546.3438 24.7344,546.4375 24.5156,546.75 L24.3438,546.6719 Z " fill="#000000"/><text fill="#000000" font-family="sans-serif" font-size="12" lengthAdjust="spacingAndGlyphs" textLength="219" x="36" y="555.1543">usantatecla.tictactoe.views.Message</text><line style="stroke: #A80036; stroke-width: 1.5;" x1="8" x2="257" y1="567" y2="567"/><line style="stroke: #A80036; stroke-width: 1.5;" x1="8" x2="257" y1="575" y2="575"/><!--MD5=[d93cf99d2b92276f27fe8dbf15140505]
class YesNoDialog--><rect codeLine="76" fill="#FEFECE" filter="url(#fflrl5flyj1om)" height="48" id="YesNoDialog" style="stroke: #A80036; stroke-width: 1.5;" width="206" x="655.5" y="395"/><ellipse cx="670.5" cy="411" fill="#ADD1B2" rx="11" ry="11" style="stroke: #A80036; stroke-width: 1.0;"/><path d="M672.8438,406.6719 C671.9063,406.2344 671.3125,406.0938 670.4375,406.0938 C667.8125,406.0938 665.8125,408.1719 665.8125,410.8906 L665.8125,412.0156 C665.8125,414.5938 667.9219,416.4844 670.8125,416.4844 C672.0313,416.4844 673.1875,416.1875 673.9375,415.6406 C674.5156,415.2344 674.8438,414.7813 674.8438,414.3906 C674.8438,413.9375 674.4531,413.5469 673.9844,413.5469 C673.7656,413.5469 673.5625,413.625 673.375,413.8125 C672.9219,414.2969 672.9219,414.2969 672.7344,414.3906 C672.3125,414.6563 671.625,414.7813 670.8594,414.7813 C668.8125,414.7813 667.5156,413.6875 667.5156,411.9844 L667.5156,410.8906 C667.5156,409.1094 668.7656,407.7969 670.5,407.7969 C671.0781,407.7969 671.6875,407.9531 672.1563,408.2031 C672.6406,408.4844 672.8125,408.7031 672.9063,409.1094 C672.9688,409.5156 673,409.6406 673.1406,409.7656 C673.2813,409.9063 673.5156,410.0156 673.7344,410.0156 C674,410.0156 674.2656,409.875 674.4375,409.6563 C674.5469,409.5 674.5781,409.3125 674.5781,408.8906 L674.5781,407.4688 C674.5781,407.0313 674.5625,406.9063 674.4688,406.75 C674.3125,406.4844 674.0313,406.3438 673.7344,406.3438 C673.4375,406.3438 673.2344,406.4375 673.0156,406.75 L672.8438,406.6719 Z " fill="#000000"/><text fill="#000000" font-family="sans-serif" font-size="12" lengthAdjust="spacingAndGlyphs" textLength="174" x="684.5" y="415.1543">usantatecla.utils.YesNoDialog</text><line style="stroke: #A80036; stroke-width: 1.5;" x1="656.5" x2="860.5" y1="427" y2="427"/><line style="stroke: #A80036; stroke-width: 1.5;" x1="656.5" x2="860.5" y1="435" y2="435"/><!--MD5=[58767b3ac92ed88fc68bd4b9dc66dad3]
class LimitedIntDialog--><rect codeLine="88" fill="#FEFECE" filter="url(#fflrl5flyj1om)" height="48" id="LimitedIntDialog" style="stroke: #A80036; stroke-width: 1.5;" width="225" x="897" y="395"/><ellipse cx="912" cy="411" fill="#ADD1B2" rx="11" ry="11" style="stroke: #A80036; stroke-width: 1.0;"/><path d="M914.3438,406.6719 C913.4063,406.2344 912.8125,406.0938 911.9375,406.0938 C909.3125,406.0938 907.3125,408.1719 907.3125,410.8906 L907.3125,412.0156 C907.3125,414.5938 909.4219,416.4844 912.3125,416.4844 C913.5313,416.4844 914.6875,416.1875 915.4375,415.6406 C916.0156,415.2344 916.3438,414.7813 916.3438,414.3906 C916.3438,413.9375 915.9531,413.5469 915.4844,413.5469 C915.2656,413.5469 915.0625,413.625 914.875,413.8125 C914.4219,414.2969 914.4219,414.2969 914.2344,414.3906 C913.8125,414.6563 913.125,414.7813 912.3594,414.7813 C910.3125,414.7813 909.0156,413.6875 909.0156,411.9844 L909.0156,410.8906 C909.0156,409.1094 910.2656,407.7969 912,407.7969 C912.5781,407.7969 913.1875,407.9531 913.6563,408.2031 C914.1406,408.4844 914.3125,408.7031 914.4063,409.1094 C914.4688,409.5156 914.5,409.6406 914.6406,409.7656 C914.7813,409.9063 915.0156,410.0156 915.2344,410.0156 C915.5,410.0156 915.7656,409.875 915.9375,409.6563 C916.0469,409.5 916.0781,409.3125 916.0781,408.8906 L916.0781,407.4688 C916.0781,407.0313 916.0625,406.9063 915.9688,406.75 C915.8125,406.4844 915.5313,406.3438 915.2344,406.3438 C914.9375,406.3438 914.7344,406.4375 914.5156,406.75 L914.3438,406.6719 Z " fill="#000000"/><text fill="#000000" font-family="sans-serif" font-size="12" lengthAdjust="spacingAndGlyphs" textLength="193" x="926" y="415.1543">usantatecla.utils.LimitedIntDialog</text><line style="stroke: #A80036; stroke-width: 1.5;" x1="898" x2="1121" y1="427" y2="427"/><line style="stroke: #A80036; stroke-width: 1.5;" x1="898" x2="1121" y1="435" y2="435"/><!--MD5=[d8c8cfd5ca149094f5b67f9f607a5ec7]
class Token--><rect codeLine="104" fill="#FEFECE" filter="url(#fflrl5flyj1om)" height="48" id="Token" style="stroke: #A80036; stroke-width: 1.5;" width="243" x="1498" y="662"/><ellipse cx="1513" cy="678" fill="#ADD1B2" rx="11" ry="11" style="stroke: #A80036; stroke-width: 1.0;"/><path d="M1515.3438,673.6719 C1514.4063,673.2344 1513.8125,673.0938 1512.9375,673.0938 C1510.3125,673.0938 1508.3125,675.1719 1508.3125,677.8906 L1508.3125,679.0156 C1508.3125,681.5938 1510.4219,683.4844 1513.3125,683.4844 C1514.5313,683.4844 1515.6875,683.1875 1516.4375,682.6406 C1517.0156,682.2344 1517.3438,681.7813 1517.3438,681.3906 C1517.3438,680.9375 1516.9531,680.5469 1516.4844,680.5469 C1516.2656,680.5469 1516.0625,680.625 1515.875,680.8125 C1515.4219,681.2969 1515.4219,681.2969 1515.2344,681.3906 C1514.8125,681.6563 1514.125,681.7813 1513.3594,681.7813 C1511.3125,681.7813 1510.0156,680.6875 1510.0156,678.9844 L1510.0156,677.8906 C1510.0156,676.1094 1511.2656,674.7969 1513,674.7969 C1513.5781,674.7969 1514.1875,674.9531 1514.6563,675.2031 C1515.1406,675.4844 1515.3125,675.7031 1515.4063,676.1094 C1515.4688,676.5156 1515.5,676.6406 1515.6406,676.7656 C1515.7813,676.9063 1516.0156,677.0156 1516.2344,677.0156 C1516.5,677.0156 1516.7656,676.875 1516.9375,676.6563 C1517.0469,676.5 1517.0781,676.3125 1517.0781,675.8906 L1517.0781,674.4688 C1517.0781,674.0313 1517.0625,673.9063 1516.9688,673.75 C1516.8125,673.4844 1516.5313,673.3438 1516.2344,673.3438 C1515.9375,673.3438 1515.7344,673.4375 1515.5156,673.75 L1515.3438,673.6719 Z " fill="#000000"/><text fill="#000000" font-family="sans-serif" font-size="12" lengthAdjust="spacingAndGlyphs" textLength="211" x="1527" y="682.1543">usantatecla.tictactoe.models.Token</text><line style="stroke: #A80036; stroke-width: 1.5;" x1="1499" x2="1740" y1="694" y2="694"/><line style="stroke: #A80036; stroke-width: 1.5;" x1="1499" x2="1740" y1="702" y2="702"/><!--MD5=[c045e12321b83266d36d22b9096c24ea]
class View--><rect codeLine="115" fill="#FEFECE" filter="url(#fflrl5flyj1om)" height="48" id="View" style="stroke: #A80036; stroke-width: 1.5;" width="225" x="1224" y="7"/><ellipse cx="1239" cy="23" fill="#ADD1B2" rx="11" ry="11" style="stroke: #A80036; stroke-width: 1.0;"/><path d="M1241.3438,18.6719 C1240.4063,18.2344 1239.8125,18.0938 1238.9375,18.0938 C1236.3125,18.0938 1234.3125,20.1719 1234.3125,22.8906 L1234.3125,24.0156 C1234.3125,26.5938 1236.4219,28.4844 1239.3125,28.4844 C1240.5313,28.4844 1241.6875,28.1875 1242.4375,27.6406 C1243.0156,27.2344 1243.3438,26.7813 1243.3438,26.3906 C1243.3438,25.9375 1242.9531,25.5469 1242.4844,25.5469 C1242.2656,25.5469 1242.0625,25.625 1241.875,25.8125 C1241.4219,26.2969 1241.4219,26.2969 1241.2344,26.3906 C1240.8125,26.6563 1240.125,26.7813 1239.3594,26.7813 C1237.3125,26.7813 1236.0156,25.6875 1236.0156,23.9844 L1236.0156,22.8906 C1236.0156,21.1094 1237.2656,19.7969 1239,19.7969 C1239.5781,19.7969 1240.1875,19.9531 1240.6563,20.2031 C1241.1406,20.4844 1241.3125,20.7031 1241.4063,21.1094 C1241.4688,21.5156 1241.5,21.6406 1241.6406,21.7656 C1241.7813,21.9063 1242.0156,22.0156 1242.2344,22.0156 C1242.5,22.0156 1242.7656,21.875 1242.9375,21.6563 C1243.0469,21.5 1243.0781,21.3125 1243.0781,20.8906 L1243.0781,19.4688 C1243.0781,19.0313 1243.0625,18.9063 1242.9688,18.75 C1242.8125,18.4844 1242.5313,18.3438 1242.2344,18.3438 C1241.9375,18.3438 1241.7344,18.4375 1241.5156,18.75 L1241.3438,18.6719 Z " fill="#000000"/><text fill="#000000" font-family="sans-serif" font-size="12" lengthAdjust="spacingAndGlyphs" textLength="193" x="1253" y="27.1543">usantatecla.tictactoe.views.View</text><line style="stroke: #A80036; stroke-width: 1.5;" x1="1225" x2="1448" y1="39" y2="39"/><line style="stroke: #A80036; stroke-width: 1.5;" x1="1225" x2="1448" y1="47" y2="47"/><!--MD5=[9d981d3d6f98c1fd5d32539969eeb8b8]
link usantatecla.tictactoe.views.console.CoordinateView to usantatecla.tictactoe.views.console.ErrorView--><path codeLine="7" d="M1264.2,449.604 C1257.36,469.263 1248.3,495.338 1240.77,516.988 " fill="none" id="usantatecla.tictactoe.views.console.CoordinateView-to-usantatecla.tictactoe.views.console.ErrorView" style="stroke: #A80036; stroke-width: 1.0; stroke-dasharray: 7.0,7.0;"/><polygon fill="#A80036" points="1239.08,521.819,1245.8121,514.6302,1240.7209,517.0959,1238.2552,512.0047,1239.08,521.819" style="stroke: #A80036; stroke-width: 1.0;"/><!--MD5=[862a5802fb66204605d0b8ed5319fcd3]
link usantatecla.tictactoe.views.console.CoordinateView to Console--><path codeLine="13" d="M1354.33,441.053 C1392.3,455.515 1434.18,478.986 1456.5,516 C1481.75,557.864 1478.92,582.555 1456.5,626 C1449.65,639.2682 1438.29,650.2031 1426.14,658.9004 " fill="none" id="usantatecla.tictactoe.views.console.CoordinateView-to-Console" style="stroke: #A80036; stroke-width: 1.0; stroke-dasharray: 7.0,7.0;"/><polygon fill="#A80036" points="1421.99,661.7642,1431.6682,659.9387,1426.1035,658.9218,1427.1203,653.3571,1421.99,661.7642" style="stroke: #A80036; stroke-width: 1.0;"/><!--MD5=[bf0e7aed8fd30cd5c349e6b7f6c70315]
link usantatecla.tictactoe.views.console.CoordinateView to Error--><path codeLine="14" d="M1225.06,449.531 C1201.4,466.161 1174.74,489.012 1158.5,516 C1131.84,560.287 1125.22,621.6321 1123.73,656.9331 " fill="none" id="usantatecla.tictactoe.views.console.CoordinateView-to-Error" style="stroke: #A80036; stroke-width: 1.0; stroke-dasharray: 7.0,7.0;"/><polygon fill="#A80036" points="1123.55,661.9474,1127.8765,653.0997,1123.7329,656.9507,1119.8819,652.8071,1123.55,661.9474" style="stroke: #A80036; stroke-width: 1.0;"/><!--MD5=[a6f3525ca64a6d8fc337db5f1e59e33c]
link usantatecla.tictactoe.views.console.CoordinateView to Coordinate--><path codeLine="15" d="M1354.07,445.071 C1433.59,470.125 1555.1,508.408 1634.18,533.322 " fill="none" id="usantatecla.tictactoe.views.console.CoordinateView-to-Coordinate" style="stroke: #A80036; stroke-width: 1.0; stroke-dasharray: 7.0,7.0;"/><polygon fill="#A80036" points="1639.32,534.944,1631.935,528.4277,1634.5504,533.4437,1629.5345,536.0591,1639.32,534.944" style="stroke: #A80036; stroke-width: 1.0;"/><!--MD5=[29d7722b8c6447cca3c9a6ccb3052dae]
reverse link ErrorView to usantatecla.tictactoe.views.console.ErrorView--><path codeLine="26" d="M600.323,447.678 C612.828,450.618 625.424,453.459 637.5,456 C835.785,497.727 1074.23,535.138 1176.23,550.544 " fill="none" id="ErrorView-backto-usantatecla.tictactoe.views.console.ErrorView" style="stroke: #A80036; stroke-width: 1.0;"/><polygon fill="none" points="598.65,454.476,580.834,443.004,601.915,440.862,598.65,454.476" style="stroke: #A80036; stroke-width: 1.0;"/><!--MD5=[1f3a5fb2a5337f79e9ba3c1e9245e6f6]
link usantatecla.tictactoe.views.console.ErrorView to Console--><path codeLine="27" d="M1268.41,596.03 C1279.78,605.775 1292.1,616.3076 1303.5,626 C1316.01,636.6351 1329.83,648.2961 1341.85,658.4226 " fill="none" id="usantatecla.tictactoe.views.console.ErrorView-to-Console" style="stroke: #A80036; stroke-width: 1.0; stroke-dasharray: 7.0,7.0;"/><polygon fill="#A80036" points="1345.86,661.7943,1341.5427,652.9421,1342.0319,658.5778,1336.3963,659.067,1345.86,661.7943" style="stroke: #A80036; stroke-width: 1.0;"/><!--MD5=[3397b6822ef0e8d6daedc9ede65e9011]
link usantatecla.tictactoe.views.console.ErrorView to Error--><path codeLine="28" d="M1189.0777,605.415 C1189.0777,605.415 1162.3,637.9184 1150.83,651.8356 " fill="none" id="usantatecla.tictactoe.views.console.ErrorView-Error" style="stroke: #A80036; stroke-width: 1.0;"/><polygon fill="#A80036" points="1142.51,661.9251,1151.3212,657.5248,1145.6904,658.067,1145.1483,652.4362,1142.51,661.9251" style="stroke: #A80036; stroke-width: 1.0;"/><line style="stroke: #A80036; stroke-width: 1.0;" x1="1145.6904" x2="1150.78" y1="658.067" y2="651.8924"/><polygon fill="#A80036" points="1196.71,596.155,1189.8072,598.2409,1189.0777,605.415,1195.9805,603.3291,1196.71,596.155" style="stroke: #A80036; stroke-width: 1.0;"/><!--MD5=[2bb8c261dfb81b31bc8071da83971de9]
link usantatecla.tictactoe.views.console.GameView to Game--><path codeLine="40" d="M1556.4698,436.7925 C1556.4698,436.7925 1759.49,486.252 1866.5,516 C1883.41,520.7 1901.4,525.973 1918.61,531.154 " fill="none" id="usantatecla.tictactoe.views.console.GameView-Game" style="stroke: #A80036; stroke-width: 1.0;"/><polygon fill="#A80036" points="1931.28,534.994,1923.8274,528.5551,1926.495,533.5435,1921.5066,536.2111,1931.28,534.994" style="stroke: #A80036; stroke-width: 1.0;"/><line style="stroke: #A80036; stroke-width: 1.0;" x1="1926.495" x2="1918.84" y1="533.5435" y2="531.2245"/><polygon fill="#A80036" points="1544.8,433.997,1549.7031,439.2847,1556.4698,436.7925,1551.5668,431.5048,1544.8,433.997" style="stroke: #A80036; stroke-width: 1.0;"/><!--MD5=[a940a2a8b61929b3a427fe7ca96bf49b]
link usantatecla.tictactoe.views.console.GameView to Coordinate--><path codeLine="41" d="M1544.55,455.898 C1583.77,479.744 1634.37,510.502 1669.73,532 " fill="none" id="usantatecla.tictactoe.views.console.GameView-to-Coordinate" style="stroke: #A80036; stroke-width: 1.0; stroke-dasharray: 7.0,7.0;"/><polygon fill="#A80036" points="1674.4,534.839,1668.7908,526.7435,1670.1286,532.2399,1664.6322,533.5777,1674.4,534.839" style="stroke: #A80036; stroke-width: 1.0;"/><!--MD5=[433fbc5af8f5431c37c43faa6ac3b764]
link usantatecla.tictactoe.views.console.GameView to Message--><path codeLine="42" d="M1426.4,441.425 C1408.93,447.002 1389.63,452.439 1371.5,456 C973.045,534.289 491.046,552.596 263.519,556.801 " fill="none" id="usantatecla.tictactoe.views.console.GameView-to-Message" style="stroke: #A80036; stroke-width: 1.0; stroke-dasharray: 7.0,7.0;"/><polygon fill="#A80036" points="258.192,556.898,267.2625,560.7354,263.1912,556.808,267.1186,552.7367,258.192,556.898" style="stroke: #A80036; stroke-width: 1.0;"/><!--MD5=[e9e0fbb4740c891aabc96c02a78dd1f4]
link usantatecla.tictactoe.views.console.GameView to usantatecla.tictactoe.views.console.TokenView--><path codeLine="43" d="M1457.91,456.258 C1445.03,473.185 1429.55,493.535 1415.83,511.572 " fill="none" id="usantatecla.tictactoe.views.console.GameView-to-usantatecla.tictactoe.views.console.TokenView" style="stroke: #A80036; stroke-width: 1.0; stroke-dasharray: 7.0,7.0;"/><polygon fill="#A80036" points="1412.74,515.622,1421.3771,510.8891,1415.771,511.6455,1415.0146,506.0394,1412.74,515.622" style="stroke: #A80036; stroke-width: 1.0;"/><!--MD5=[668cfff95ea2f514d00ec09583b1c3e2]
link usantatecla.tictactoe.views.console.SubView to Game--><path codeLine="51" d="M1520.2504,183.4379 C1520.2504,183.4379 1868.08,452.476 1964.26,526.874 " fill="none" id="usantatecla.tictactoe.views.console.SubView-Game" style="stroke: #A80036; stroke-width: 1.0;"/><polygon fill="#A80036" points="1974.71,534.957,1970.0402,526.2856,1970.7557,531.897,1965.1443,532.6125,1974.71,534.957" style="stroke: #A80036; stroke-width: 1.0;"/><line style="stroke: #A80036; stroke-width: 1.0;" x1="1970.7557" x2="1964.425" y1="531.897" y2="527.003"/><polygon fill="#A80036" points="1510.76,176.094,1513.0572,182.9294,1520.2504,183.4379,1517.9532,176.6025,1510.76,176.094" style="stroke: #A80036; stroke-width: 1.0;"/><!--MD5=[29bc7c6416c1a6bc338a3c5bddb6d367]
reverse link usantatecla.tictactoe.views.console.SubView to usantatecla.tictactoe.views.console.PlayView--><path codeLine="61" d="M1472.5,196.138 C1472.5,209.225 1472.5,223.22 1472.5,235.869 " fill="none" id="usantatecla.tictactoe.views.console.SubView-backto-usantatecla.tictactoe.views.console.PlayView" style="stroke: #A80036; stroke-width: 1.0;"/><polygon fill="none" points="1465.5,196.011,1472.5,176.011,1479.5,196.011,1465.5,196.011" style="stroke: #A80036; stroke-width: 1.0;"/><!--MD5=[94178f9535031d1057f957d6f8f5bd7e]
link usantatecla.tictactoe.views.console.PlayView to Coordinate--><path codeLine="62" d="M1509.39,322.114 C1525.43,340.476 1544.43,362.272 1561.5,382 C1606.94,434.516 1659.7,496.164 1689.28,530.797 " fill="none" id="usantatecla.tictactoe.views.console.PlayView-to-Coordinate" style="stroke: #A80036; stroke-width: 1.0; stroke-dasharray: 7.0,7.0;"/><polygon fill="#A80036" points="1692.77,534.884,1689.9642,525.4433,1689.5218,531.0828,1683.8823,530.6404,1692.77,534.884" style="stroke: #A80036; stroke-width: 1.0;"/><!--MD5=[d18238c30e398c1db2697ab33123469a]
link usantatecla.tictactoe.views.console.PlayView to Message--><path codeLine="63" d="M1430.49,313.598 C1424.7,316.948 1418.63,319.887 1412.5,322 C1175.39,403.734 510.872,271.966 285.5,382 C268.195,390.449 192.104,483.551 154.164,530.812 " fill="none" id="usantatecla.tictactoe.views.console.PlayView-to-Message" style="stroke: #A80036; stroke-width: 1.0; stroke-dasharray: 7.0,7.0;"/><polygon fill="#A80036" points="150.836,534.962,159.5868,530.4427,153.9638,531.0611,153.3454,525.4382,150.836,534.962" style="stroke: #A80036; stroke-width: 1.0;"/><!--MD5=[cf7eb746ce3da1d5c74a08a3e275667f]
link usantatecla.tictactoe.views.console.PlayView to Error--><path codeLine="64" d="M1430.48,313.58 C1424.69,316.933 1418.63,319.877 1412.5,322 C1300.51,360.798 428.916,295.868 347.5,382 C148.705,592.31 734.768,658.9673 1000.208,678.0504 " fill="none" id="usantatecla.tictactoe.views.console.PlayView-to-Error" style="stroke: #A80036; stroke-width: 1.0; stroke-dasharray: 7.0,7.0;"/><polygon fill="#A80036" points="1005.256,678.4103,996.5634,673.7802,1000.2687,678.0546,995.9942,681.7599,1005.256,678.4103" style="stroke: #A80036; stroke-width: 1.0;"/><!--MD5=[b3227b6de1c8aa549b5a1aa6f2661f0c]
link usantatecla.tictactoe.views.console.PlayView to usantatecla.tictactoe.views.console.ErrorView--><path codeLine="65" d="M1430.37,312.25 C1424.55,315.871 1418.51,319.242 1412.5,322 C1314.53,366.971 1243.63,296.87 1177.5,382 C1146.93,421.355 1172.34,478.695 1196.53,517.122 " fill="none" id="usantatecla.tictactoe.views.console.PlayView-to-usantatecla.tictactoe.views.console.ErrorView" style="stroke: #A80036; stroke-width: 1.0; stroke-dasharray: 7.0,7.0;"/><polygon fill="#A80036" points="1199.47,521.712,1197.9876,511.9753,1196.7747,517.5006,1191.2494,516.2878,1199.47,521.712" style="stroke: #A80036; stroke-width: 1.0;"/><!--MD5=[d6fcf9eb57512a317d505614a79665ea]
link usantatecla.tictactoe.views.console.PlayView to usantatecla.tictactoe.views.console.CoordinateView--><path codeLine="66" d="M1430.22,309.616 C1424.28,313.777 1418.24,317.998 1412.5,322 C1382.17,343.164 1348.05,366.899 1321.33,385.473 " fill="none" id="usantatecla.tictactoe.views.console.PlayView-to-usantatecla.tictactoe.views.console.CoordinateView" style="stroke: #A80036; stroke-width: 1.0; stroke-dasharray: 7.0,7.0;"/><polygon fill="#A80036" points="1317.11,388.408,1326.7821,386.5505,1321.2141,385.552,1322.2125,379.984,1317.11,388.408" style="stroke: #A80036; stroke-width: 1.0;"/><!--MD5=[454dcd14db2aba4752709bae37bc5803]
link usantatecla.tictactoe.views.console.PlayView to usantatecla.tictactoe.views.console.GameView--><path codeLine="67" d="M1476.47,322.154 C1478.1,339.394 1479.97,359.283 1481.59,376.46 " fill="none" id="usantatecla.tictactoe.views.console.PlayView-to-usantatecla.tictactoe.views.console.GameView" style="stroke: #A80036; stroke-width: 1.0; stroke-dasharray: 7.0,7.0;"/><polygon fill="#A80036" points="1482.08,381.697,1485.2178,372.3614,1481.6108,376.7191,1477.2531,373.1121,1482.08,381.697" style="stroke: #A80036; stroke-width: 1.0;"/><!--MD5=[6a55b3479a1d2312e83ddac88541c234]
link usantatecla.tictactoe.views.console.PlayView to usantatecla.tictactoe.views.console.TokenView--><path codeLine="68" d="M1440.68,322.155 C1428.83,339.803 1416.36,361.058 1408.5,382 C1392.8,423.827 1385.9,474.465 1382.87,510.666 " fill="none" id="usantatecla.tictactoe.views.console.PlayView-to-usantatecla.tictactoe.views.console.TokenView" style="stroke: #A80036; stroke-width: 1.0; stroke-dasharray: 7.0,7.0;"/><polygon fill="#A80036" points="1382.45,515.899,1387.1545,507.2464,1382.8484,510.9149,1379.1799,506.6089,1382.45,515.899" style="stroke: #A80036; stroke-width: 1.0;"/><!--MD5=[1221526817c222d745c98108ab1dbb21]
reverse link usantatecla.tictactoe.views.console.SubView to usantatecla.tictactoe.views.console.ResumeView--><path codeLine="78" d="M1401.45,179.766 C1367.07,196.187 1325.37,216.596 1288.5,236 C1281.05,239.922 1273.25,244.179 1265.62,248.428 " fill="none" id="usantatecla.tictactoe.views.console.SubView-backto-usantatecla.tictactoe.views.console.ResumeView" style="stroke: #A80036; stroke-width: 1.0;"/><polygon fill="none" points="1398.64,173.348,1419.71,171.085,1404.65,185.993,1398.64,173.348" style="stroke: #A80036; stroke-width: 1.0;"/><!--MD5=[d8674b33fd70d87a84d5508babfd3bec]
link usantatecla.tictactoe.views.console.ResumeView to Message--><path codeLine="79" d="M1157.95,281.18 C947.009,286.14 214.583,308.566 143.5,382 C105.5964,421.157 115.086,490.955 124.387,529.85 " fill="none" id="usantatecla.tictactoe.views.console.ResumeView-to-Message" style="stroke: #A80036; stroke-width: 1.0; stroke-dasharray: 7.0,7.0;"/><polygon fill="#A80036" points="125.634,534.896,127.3573,525.1991,124.4341,530.0421,119.5911,527.1189,125.634,534.896" style="stroke: #A80036; stroke-width: 1.0;"/><!--MD5=[7c4d9a78f551922058d9e7734b6a0714]
link usantatecla.tictactoe.views.console.ResumeView to YesNoDialog--><path codeLine="80" d="M1157.67,297.199 C1077.57,321.439 931.05,365.781 839.549,393.472 " fill="none" id="usantatecla.tictactoe.views.console.ResumeView-to-YesNoDialog" style="stroke: #A80036; stroke-width: 1.0; stroke-dasharray: 7.0,7.0;"/><polygon fill="#A80036" points="834.691,394.942,844.4639,396.1631,839.4766,393.4935,842.1462,388.5062,834.691,394.942" style="stroke: #A80036; stroke-width: 1.0;"/><!--MD5=[0b61d7db577ee574ab5fc521f0c2b25a]
reverse link usantatecla.tictactoe.views.console.SubView to usantatecla.tictactoe.views.console.StartView--><path codeLine="90" d="M1431.43,190.765 C1413.92,209.646 1393.94,231.182 1378.21,248.132 " fill="none" id="usantatecla.tictactoe.views.console.SubView-backto-usantatecla.tictactoe.views.console.StartView" style="stroke: #A80036; stroke-width: 1.0;"/><polygon fill="none" points="1426.39,185.912,1445.12,176.011,1436.65,195.434,1426.39,185.912" style="stroke: #A80036; stroke-width: 1.0;"/><!--MD5=[863d81c777ca1bb7addecdbc65389e71]
link usantatecla.tictactoe.views.console.StartView to Message--><path codeLine="91" d="M1313.53,309.686 C1305.67,314.629 1297.12,319.089 1288.5,322 C1062.02,398.465 412.419,247.957 214.5,382 C164.283,416.01 144.149,489.15 136.616,529.619 " fill="none" id="usantatecla.tictactoe.views.console.StartView-to-Message" style="stroke: #A80036; stroke-width: 1.0; stroke-dasharray: 7.0,7.0;"/><polygon fill="#A80036" points="135.677,534.865,141.201,526.7111,136.5585,529.9433,133.3263,525.3008,135.677,534.865" style="stroke: #A80036; stroke-width: 1.0;"/><!--MD5=[4363c6bbafc2092f0afe760804478a10]
link usantatecla.tictactoe.views.console.StartView to LimitedIntDialog--><path codeLine="92" d="M1310.07,309.595 C1303.07,314.076 1295.71,318.397 1288.5,322 C1228.12,352.172 1155.98,376.719 1100.18,393.437 " fill="none" id="usantatecla.tictactoe.views.console.StartView-to-LimitedIntDialog" style="stroke: #A80036; stroke-width: 1.0; stroke-dasharray: 7.0,7.0;"/><polygon fill="#A80036" points="1095.17,394.929,1104.9376,396.1915,1099.9617,393.5008,1102.6524,388.5249,1095.17,394.929" style="stroke: #A80036; stroke-width: 1.0;"/><!--MD5=[60abbf9a6a038d44fe9e1b437b1f0f54]
link usantatecla.tictactoe.views.console.StartView to usantatecla.tictactoe.views.console.GameView--><path codeLine="93" d="M1379.46,309.604 C1399.02,329.594 1425.06,356.217 1446.44,378.075 " fill="none" id="usantatecla.tictactoe.views.console.StartView-to-usantatecla.tictactoe.views.console.GameView" style="stroke: #A80036; stroke-width: 1.0; stroke-dasharray: 7.0,7.0;"/><polygon fill="#A80036" points="1450.11,381.819,1446.6731,372.5893,1446.6125,378.2458,1440.956,378.1852,1450.11,381.819" style="stroke: #A80036; stroke-width: 1.0;"/><!--MD5=[a2de6f7082f1820c8a2a924733f5c26f]
link usantatecla.tictactoe.views.console.TokenView to Token--><path codeLine="106" d="M1450.2121,596.4629 C1450.2121,596.4629 1529.94,638.1591 1563.46,655.6888 " fill="none" id="usantatecla.tictactoe.views.console.TokenView-Token" style="stroke: #A80036; stroke-width: 1.0;"/><polygon fill="#A80036" points="1575.35,661.9092,1569.2307,654.1921,1570.92,659.5908,1565.5213,661.2801,1575.35,661.9092" style="stroke: #A80036; stroke-width: 1.0;"/><line style="stroke: #A80036; stroke-width: 1.0;" x1="1570.92" x2="1563.83" y1="659.5908" y2="655.8843"/><polygon fill="#A80036" points="1439.58,590.899,1443.0414,597.225,1450.2121,596.4629,1446.7507,590.1369,1439.58,590.899" style="stroke: #A80036; stroke-width: 1.0;"/><!--MD5=[4fad1cf91f5b9cfda927675b894326c0]
link usantatecla.tictactoe.views.console.TokenView to Console--><path codeLine="107" d="M1378.13,602.319 C1377.13,620.1367 1376,640.4054 1375.1,656.4152 " fill="none" id="usantatecla.tictactoe.views.console.TokenView-to-Console" style="stroke: #A80036; stroke-width: 1.0; stroke-dasharray: 7.0,7.0;"/><polygon fill="#A80036" points="1374.81,661.6717,1379.3079,652.9099,1375.0901,656.6796,1371.3204,652.4618,1374.81,661.6717" style="stroke: #A80036; stroke-width: 1.0;"/><!--MD5=[8a0a66876154112e356ed6f87aaade56]
reverse link View to usantatecla.tictactoe.views.console.View--><path codeLine="117" d="M1336.5,75.109 C1336.5,88.312 1336.5,102.537 1336.5,114.65 " fill="none" id="View-backto-usantatecla.tictactoe.views.console.View" style="stroke: #A80036; stroke-width: 1.0;"/><polygon fill="none" points="1329.5,75.038,1336.5,55.038,1343.5,75.037,1329.5,75.038" style="stroke: #A80036; stroke-width: 1.0;"/><!--MD5=[be935403e873653f88cb4d1b86291cec]
link usantatecla.tictactoe.views.console.View to usantatecla.tictactoe.views.console.ResumeView--><path codeLine="118" d="M1300.9578,184.8075 C1300.9578,184.8075 1266.86,221.56 1251.45,238.175 " fill="none" id="usantatecla.tictactoe.views.console.View-usantatecla.tictactoe.views.console.ResumeView" style="stroke: #A80036; stroke-width: 1.0;"/><polygon fill="#A80036" points="1242.21,248.132,1251.2638,244.2553,1245.6109,244.4668,1245.3995,238.8139,1242.21,248.132" style="stroke: #A80036; stroke-width: 1.0;"/><line style="stroke: #A80036; stroke-width: 1.0;" x1="1245.6109" x2="1251.055" y1="244.4668" y2="238.6025"/><polygon fill="#A80036" points="1309.12,176.011,1302.1067,177.6885,1300.9578,184.8075,1307.9711,183.13,1309.12,176.011" style="stroke: #A80036; stroke-width: 1.0;"/><!--MD5=[d8a8b599ef10faa580776ac579239e09]
link usantatecla.tictactoe.views.console.View to usantatecla.tictactoe.views.console.PlayView--><path codeLine="119" d="M1375.6439,184.3554 C1375.6439,184.3554 1406.33,214.015 1421.02,228.219 " fill="none" id="usantatecla.tictactoe.views.console.View-usantatecla.tictactoe.views.console.PlayView" style="stroke: #A80036; stroke-width: 1.0;"/><polygon fill="#A80036" points="1430.48,237.37,1426.7936,228.2371,1426.8867,233.8932,1421.2306,233.9863,1430.48,237.37" style="stroke: #A80036; stroke-width: 1.0;"/><line style="stroke: #A80036; stroke-width: 1.0;" x1="1426.8867" x2="1421.135" y1="233.8932" y2="228.333"/><polygon fill="#A80036" points="1367.02,176.011,1368.5505,183.0578,1375.6439,184.3554,1374.1134,177.3086,1367.02,176.011" style="stroke: #A80036; stroke-width: 1.0;"/><!--MD5=[3aba7ab042f7ec7c15af5fcc22d84ed9]
link usantatecla.tictactoe.views.console.View to usantatecla.tictactoe.views.console.StartView--><path codeLine="120" d="M1340.911,187.9435 C1340.911,187.9435 1344.37,220.381 1345.94,235.159 " fill="none" id="usantatecla.tictactoe.views.console.View-usantatecla.tictactoe.views.console.StartView" style="stroke: #A80036; stroke-width: 1.0;"/><polygon fill="#A80036" points="1347.32,248.132,1350.3452,238.7593,1346.7909,243.1601,1342.3902,239.6058,1347.32,248.132" style="stroke: #A80036; stroke-width: 1.0;"/><line style="stroke: #A80036; stroke-width: 1.0;" x1="1346.7909" x2="1345.945" y1="243.1601" y2="235.2055"/><polygon fill="#A80036" points="1339.64,176.011,1336.298,182.4009,1340.911,187.9435,1344.253,181.5536,1339.64,176.011" style="stroke: #A80036; stroke-width: 1.0;"/><!--MD5=[4972fb85c3eeb5c6fe759f8899aaacc2]
@startuml
class usantatecla.tictactoe.views.console.CoordinateView {

    + Coordinate read(String)

}

usantatecla.tictactoe.views.console.CoordinateView ..> usantatecla.tictactoe.views.console.ErrorView

class Coordinate as "usantatecla.tictactoe.models.Coordinate"
class Error as "usantatecla.tictactoe.models.Error"
class Console as "usantatecla.utils.Console"

usantatecla.tictactoe.views.console.CoordinateView ..> Console
usantatecla.tictactoe.views.console.CoordinateView ..> Error
usantatecla.tictactoe.views.console.CoordinateView ..> Coordinate

class usantatecla.tictactoe.views.console.ErrorView {

	ErrorView(Error)
	writeln()

}

class ErrorView as "usantatecla.tictactoe.views.ErrorView"

ErrorView <|- - usantatecla.tictactoe.views.console.ErrorView
usantatecla.tictactoe.views.console.ErrorView ..> Console
usantatecla.tictactoe.views.console.ErrorView *- -> Error

class usantatecla.tictactoe.views.console.GameView {

    GameView(Game)
	write()

}

class Game as "usantatecla.tictactoe.models.Game"
class Message as "usantatecla.tictactoe.views.Message"

usantatecla.tictactoe.views.console.GameView *- -> Game
usantatecla.tictactoe.views.console.GameView ..> Coordinate
usantatecla.tictactoe.views.console.GameView ..> Message
usantatecla.tictactoe.views.console.GameView ..> usantatecla.tictactoe.views.console.TokenView

class usantatecla.tictactoe.views.console.SubView {

	SubView(Game)

}

usantatecla.tictactoe.views.console.SubView *- -> Game

class usantatecla.tictactoe.views.console.PlayView {

    interact()
    - put()
    - move()

}

usantatecla.tictactoe.views.console.SubView <|- - usantatecla.tictactoe.views.console.PlayView
usantatecla.tictactoe.views.console.PlayView ..> Coordinate
usantatecla.tictactoe.views.console.PlayView ..> Message
usantatecla.tictactoe.views.console.PlayView ..> Error
usantatecla.tictactoe.views.console.PlayView ..> usantatecla.tictactoe.views.console.ErrorView
usantatecla.tictactoe.views.console.PlayView ..> usantatecla.tictactoe.views.console.CoordinateView
usantatecla.tictactoe.views.console.PlayView ..> usantatecla.tictactoe.views.console.GameView
usantatecla.tictactoe.views.console.PlayView ..> usantatecla.tictactoe.views.console.TokenView

class usantatecla.tictactoe.views.console.ResumeView {

	boolean interact()

}

class YesNoDialog as "usantatecla.utils.YesNoDialog"

usantatecla.tictactoe.views.console.SubView <|- - usantatecla.tictactoe.views.console.ResumeView
usantatecla.tictactoe.views.console.ResumeView ..> Message
usantatecla.tictactoe.views.console.ResumeView ..> YesNoDialog

class usantatecla.tictactoe.views.console.StartView {

	interact()

}

class LimitedIntDialog as "usantatecla.utils.LimitedIntDialog"

usantatecla.tictactoe.views.console.SubView <|- - usantatecla.tictactoe.views.console.StartView
usantatecla.tictactoe.views.console.StartView ..> Message
usantatecla.tictactoe.views.console.StartView ..> LimitedIntDialog
usantatecla.tictactoe.views.console.StartView ..> usantatecla.tictactoe.views.console.GameView

class usantatecla.tictactoe.views.console.TokenView {

	+ {static} char[] SYMBOLS

	TokenView(Token)
	write()

}

class Token as "usantatecla.tictactoe.models.Token"

usantatecla.tictactoe.views.console.TokenView *- -> Token
usantatecla.tictactoe.views.console.TokenView ..> Console

class usantatecla.tictactoe.views.console.View {

	+ View(Game)

}

class View as "usantatecla.tictactoe.views.View"

View <|- - usantatecla.tictactoe.views.console.View
usantatecla.tictactoe.views.console.View *- -> usantatecla.tictactoe.views.console.ResumeView
usantatecla.tictactoe.views.console.View *- -> usantatecla.tictactoe.views.console.PlayView
usantatecla.tictactoe.views.console.View *- -> usantatecla.tictactoe.views.console.StartView
@enduml

PlantUML version 1.2020.20beta8(Unknown compile time)
(GPL source distribution)
Java Runtime: Java(TM) SE Runtime Environment
JVM: Java HotSpot(TM) 64-Bit Server VM
Default Encoding: UTF-8
Language: en
Country: US
--></g></svg>