<?xml version="1.0" encoding="UTF-8" standalone="no"?><svg xmlns="http://www.w3.org/2000/svg" xmlns:xlink="http://www.w3.org/1999/xlink" contentScriptType="application/ecmascript" contentStyleType="text/css" height="741px" preserveAspectRatio="none" style="width:3279px;height:741px;" version="1.1" viewBox="0 0 3279 741" width="3279px" zoomAndPan="magnify"><defs><filter height="300%" id="f17ep0dtzo2x8w" width="300%" x="-1" y="-1"><feGaussianBlur result="blurOut" stdDeviation="2.0"/><feColorMatrix in="blurOut" result="blurOut2" type="matrix" values="0 0 0 0 0 0 0 0 0 0 0 0 0 0 0 0 0 0 .4 0"/><feOffset dx="4.0" dy="4.0" in="blurOut2" result="blurOut3"/><feBlend in="SourceGraphic" in2="blurOut3" mode="normal"/></filter></defs><g><!--MD5=[4a2c519a1d4e2059eb71d825c7d6555c]
cluster usantatecla.tictactoe.views.graphics--><polygon fill="#FFFFFF" filter="url(#f17ep0dtzo2x8w)" points="278.5,80,588.5,80,595.5,102.2969,1517.5,102.2969,1517.5,734,278.5,734,278.5,80" style="stroke: #000000; stroke-width: 1.5;"/><line style="stroke: #000000; stroke-width: 1.5;" x1="278.5" x2="595.5" y1="102.2969" y2="102.2969"/><text fill="#000000" font-family="sans-serif" font-size="14" font-weight="bold" lengthAdjust="spacingAndGlyphs" textLength="304" x="282.5" y="94.9951">usantatecla.tictactoe.views.graphics</text><!--MD5=[d2d029f700109abcb34e5bcc3d74e16d]
class usantatecla.tictactoe.views.graphics.ChoosePlayersView--><rect codeLine="1" fill="#FEFECE" filter="url(#f17ep0dtzo2x8w)" height="163.2422" id="usantatecla.tictactoe.views.graphics.ChoosePlayersView" style="stroke: #A80036; stroke-width: 1.5;" width="284" x="591.5" y="434"/><ellipse cx="670.25" cy="450" fill="#ADD1B2" rx="11" ry="11" style="stroke: #A80036; stroke-width: 1.0;"/><path d="M672.5938,445.6719 C671.6563,445.2344 671.0625,445.0938 670.1875,445.0938 C667.5625,445.0938 665.5625,447.1719 665.5625,449.8906 L665.5625,451.0156 C665.5625,453.5938 667.6719,455.4844 670.5625,455.4844 C671.7813,455.4844 672.9375,455.1875 673.6875,454.6406 C674.2656,454.2344 674.5938,453.7813 674.5938,453.3906 C674.5938,452.9375 674.2031,452.5469 673.7344,452.5469 C673.5156,452.5469 673.3125,452.625 673.125,452.8125 C672.6719,453.2969 672.6719,453.2969 672.4844,453.3906 C672.0625,453.6563 671.375,453.7813 670.6094,453.7813 C668.5625,453.7813 667.2656,452.6875 667.2656,450.9844 L667.2656,449.8906 C667.2656,448.1094 668.5156,446.7969 670.25,446.7969 C670.8281,446.7969 671.4375,446.9531 671.9063,447.2031 C672.3906,447.4844 672.5625,447.7031 672.6563,448.1094 C672.7188,448.5156 672.75,448.6406 672.8906,448.7656 C673.0313,448.9063 673.2656,449.0156 673.4844,449.0156 C673.75,449.0156 674.0156,448.875 674.1875,448.6563 C674.2969,448.5 674.3281,448.3125 674.3281,447.8906 L674.3281,446.4688 C674.3281,446.0313 674.3125,445.9063 674.2188,445.75 C674.0625,445.4844 673.7813,445.3438 673.4844,445.3438 C673.1875,445.3438 672.9844,445.4375 672.7656,445.75 L672.5938,445.6719 Z " fill="#000000"/><text fill="#000000" font-family="sans-serif" font-size="12" lengthAdjust="spacingAndGlyphs" textLength="118" x="690.75" y="454.1543">ChoosePlayersView</text><line style="stroke: #A80036; stroke-width: 1.5;" x1="592.5" x2="874.5" y1="466" y2="466"/><rect fill="none" height="6" style="stroke: #C82930; stroke-width: 1.0;" width="6" x="599.5" y="474"/><text fill="#000000" font-family="sans-serif" font-size="11" lengthAdjust="spacingAndGlyphs" text-decoration="underline" textLength="81" x="611.5" y="480.2104">String ACCEPT</text><rect fill="none" height="6" style="stroke: #C82930; stroke-width: 1.0;" width="6" x="599.5" y="486.8047"/><text fill="#000000" font-family="sans-serif" font-size="11" lengthAdjust="spacingAndGlyphs" textLength="124" x="611.5" y="493.0151">String playersNumber</text><line style="stroke: #A80036; stroke-width: 1.5;" x1="592.5" x2="874.5" y1="499.6094" y2="499.6094"/><text fill="#000000" font-family="sans-serif" font-size="11" lengthAdjust="spacingAndGlyphs" textLength="258" x="611.5" y="513.8198">ChoosePlayersView(final JRootPane rootPane)</text><text fill="#000000" font-family="sans-serif" font-size="11" lengthAdjust="spacingAndGlyphs" textLength="124" x="611.5" y="526.6245">resetPlayersNumber()</text><text fill="#000000" font-family="sans-serif" font-size="11" lengthAdjust="spacingAndGlyphs" textLength="150" x="611.5" y="539.4292">String getPlayersNumber()</text><ellipse cx="602.5" cy="549.0234" fill="#84BE84" rx="3" ry="3" style="stroke: #038048; stroke-width: 1.0;"/><text fill="#000000" font-family="sans-serif" font-size="11" lengthAdjust="spacingAndGlyphs" textLength="235" x="611.5" y="552.2339">actionPerformed(final ActionEvent event)</text><ellipse cx="602.5" cy="561.8281" fill="#84BE84" rx="3" ry="3" style="stroke: #038048; stroke-width: 1.0;"/><text fill="#000000" font-family="sans-serif" font-size="11" lengthAdjust="spacingAndGlyphs" textLength="132" x="611.5" y="565.0386">keyTyped(KeyEvent e)</text><ellipse cx="602.5" cy="574.6328" fill="#84BE84" rx="3" ry="3" style="stroke: #038048; stroke-width: 1.0;"/><text fill="#000000" font-family="sans-serif" font-size="11" lengthAdjust="spacingAndGlyphs" textLength="141" x="611.5" y="577.8433">keyPressed(KeyEvent e)</text><ellipse cx="602.5" cy="587.4375" fill="#84BE84" rx="3" ry="3" style="stroke: #038048; stroke-width: 1.0;"/><text fill="#000000" font-family="sans-serif" font-size="11" lengthAdjust="spacingAndGlyphs" textLength="150" x="611.5" y="590.6479">keyReleased(KeyEvent e)</text><!--MD5=[4cde9c6f00ba28f5b9399bb659019581]
class usantatecla.tictactoe.views.graphics.Constraints--><rect codeLine="25" fill="#FEFECE" filter="url(#f17ep0dtzo2x8w)" height="60.8047" id="usantatecla.tictactoe.views.graphics.Constraints" style="stroke: #A80036; stroke-width: 1.5;" width="344" x="561.5" y="657"/><ellipse cx="695.75" cy="673" fill="#ADD1B2" rx="11" ry="11" style="stroke: #A80036; stroke-width: 1.0;"/><path d="M698.0938,668.6719 C697.1563,668.2344 696.5625,668.0938 695.6875,668.0938 C693.0625,668.0938 691.0625,670.1719 691.0625,672.8906 L691.0625,674.0156 C691.0625,676.5938 693.1719,678.4844 696.0625,678.4844 C697.2813,678.4844 698.4375,678.1875 699.1875,677.6406 C699.7656,677.2344 700.0938,676.7813 700.0938,676.3906 C700.0938,675.9375 699.7031,675.5469 699.2344,675.5469 C699.0156,675.5469 698.8125,675.625 698.625,675.8125 C698.1719,676.2969 698.1719,676.2969 697.9844,676.3906 C697.5625,676.6563 696.875,676.7813 696.1094,676.7813 C694.0625,676.7813 692.7656,675.6875 692.7656,673.9844 L692.7656,672.8906 C692.7656,671.1094 694.0156,669.7969 695.75,669.7969 C696.3281,669.7969 696.9375,669.9531 697.4063,670.2031 C697.8906,670.4844 698.0625,670.7031 698.1563,671.1094 C698.2188,671.5156 698.25,671.6406 698.3906,671.7656 C698.5313,671.9063 698.7656,672.0156 698.9844,672.0156 C699.25,672.0156 699.5156,671.875 699.6875,671.6563 C699.7969,671.5 699.8281,671.3125 699.8281,670.8906 L699.8281,669.4688 C699.8281,669.0313 699.8125,668.9063 699.7188,668.75 C699.5625,668.4844 699.2813,668.3438 698.9844,668.3438 C698.6875,668.3438 698.4844,668.4375 698.2656,668.75 L698.0938,668.6719 Z " fill="#000000"/><text fill="#000000" font-family="sans-serif" font-size="12" lengthAdjust="spacingAndGlyphs" textLength="67" x="716.25" y="677.1543">Constraints</text><line style="stroke: #A80036; stroke-width: 1.5;" x1="562.5" x2="904.5" y1="689" y2="689"/><line style="stroke: #A80036; stroke-width: 1.5;" x1="562.5" x2="904.5" y1="697" y2="697"/><text fill="#000000" font-family="sans-serif" font-size="11" lengthAdjust="spacingAndGlyphs" textLength="332" x="567.5" y="711.2104">Constraints(int gridX, int gridY, int gridWidth, int gridHeight)</text><!--MD5=[60fc07c24f39175f70a0caf1948bd424]
class usantatecla.tictactoe.views.graphics.CoordinateMoveView--><rect codeLine="32" fill="#FEFECE" filter="url(#f17ep0dtzo2x8w)" height="112.0234" id="usantatecla.tictactoe.views.graphics.CoordinateMoveView" style="stroke: #A80036; stroke-width: 1.5;" width="261" x="911" y="459.5"/><ellipse cx="973.25" cy="475.5" fill="#ADD1B2" rx="11" ry="11" style="stroke: #A80036; stroke-width: 1.0;"/><path d="M975.5938,471.1719 C974.6563,470.7344 974.0625,470.5938 973.1875,470.5938 C970.5625,470.5938 968.5625,472.6719 968.5625,475.3906 L968.5625,476.5156 C968.5625,479.0938 970.6719,480.9844 973.5625,480.9844 C974.7813,480.9844 975.9375,480.6875 976.6875,480.1406 C977.2656,479.7344 977.5938,479.2813 977.5938,478.8906 C977.5938,478.4375 977.2031,478.0469 976.7344,478.0469 C976.5156,478.0469 976.3125,478.125 976.125,478.3125 C975.6719,478.7969 975.6719,478.7969 975.4844,478.8906 C975.0625,479.1563 974.375,479.2813 973.6094,479.2813 C971.5625,479.2813 970.2656,478.1875 970.2656,476.4844 L970.2656,475.3906 C970.2656,473.6094 971.5156,472.2969 973.25,472.2969 C973.8281,472.2969 974.4375,472.4531 974.9063,472.7031 C975.3906,472.9844 975.5625,473.2031 975.6563,473.6094 C975.7188,474.0156 975.75,474.1406 975.8906,474.2656 C976.0313,474.4063 976.2656,474.5156 976.4844,474.5156 C976.75,474.5156 977.0156,474.375 977.1875,474.1563 C977.2969,474 977.3281,473.8125 977.3281,473.3906 L977.3281,471.9688 C977.3281,471.5313 977.3125,471.4063 977.2188,471.25 C977.0625,470.9844 976.7813,470.8438 976.4844,470.8438 C976.1875,470.8438 975.9844,470.9375 975.7656,471.25 L975.5938,471.1719 Z " fill="#000000"/><text fill="#000000" font-family="sans-serif" font-size="12" lengthAdjust="spacingAndGlyphs" textLength="128" x="993.75" y="479.6543">CoordinateMoveView</text><line style="stroke: #A80036; stroke-width: 1.5;" x1="912" x2="1171" y1="491.5" y2="491.5"/><text fill="#000000" font-family="sans-serif" font-size="11" lengthAdjust="spacingAndGlyphs" text-decoration="underline" textLength="229" x="917" y="505.7104">String ENTER_COORDINATE_TO_REMOVE</text><line style="stroke: #A80036; stroke-width: 1.5;" x1="912" x2="1171" y1="512.3047" y2="512.3047"/><text fill="#000000" font-family="sans-serif" font-size="11" lengthAdjust="spacingAndGlyphs" textLength="129" x="931" y="526.5151">CoordinateMoveView()</text><text fill="#000000" font-family="sans-serif" font-size="11" lengthAdjust="spacingAndGlyphs" textLength="106" x="931" y="539.3198">resetCoordinates()</text><text fill="#000000" font-family="sans-serif" font-size="11" lengthAdjust="spacingAndGlyphs" textLength="169" x="931" y="552.1245">Coordinate[] getCoordinates()</text><ellipse cx="922" cy="561.7188" fill="#84BE84" rx="3" ry="3" style="stroke: #038048; stroke-width: 1.0;"/><text fill="#000000" font-family="sans-serif" font-size="11" lengthAdjust="spacingAndGlyphs" textLength="235" x="931" y="564.9292">actionPerformed(final ActionEvent event)</text><!--MD5=[fd79f5b787364979bee749ddb6283d48]
class usantatecla.tictactoe.views.graphics.CoordinateView--><rect codeLine="68" fill="#FEFECE" filter="url(#f17ep0dtzo2x8w)" height="137.6328" id="usantatecla.tictactoe.views.graphics.CoordinateView" style="stroke: #A80036; stroke-width: 1.5;" width="259" x="400" y="236"/><ellipse cx="477.75" cy="252" fill="#ADD1B2" rx="11" ry="11" style="stroke: #A80036; stroke-width: 1.0;"/><path d="M480.0938,247.6719 C479.1563,247.2344 478.5625,247.0938 477.6875,247.0938 C475.0625,247.0938 473.0625,249.1719 473.0625,251.8906 L473.0625,253.0156 C473.0625,255.5938 475.1719,257.4844 478.0625,257.4844 C479.2813,257.4844 480.4375,257.1875 481.1875,256.6406 C481.7656,256.2344 482.0938,255.7813 482.0938,255.3906 C482.0938,254.9375 481.7031,254.5469 481.2344,254.5469 C481.0156,254.5469 480.8125,254.625 480.625,254.8125 C480.1719,255.2969 480.1719,255.2969 479.9844,255.3906 C479.5625,255.6563 478.875,255.7813 478.1094,255.7813 C476.0625,255.7813 474.7656,254.6875 474.7656,252.9844 L474.7656,251.8906 C474.7656,250.1094 476.0156,248.7969 477.75,248.7969 C478.3281,248.7969 478.9375,248.9531 479.4063,249.2031 C479.8906,249.4844 480.0625,249.7031 480.1563,250.1094 C480.2188,250.5156 480.25,250.6406 480.3906,250.7656 C480.5313,250.9063 480.7656,251.0156 480.9844,251.0156 C481.25,251.0156 481.5156,250.875 481.6875,250.6563 C481.7969,250.5 481.8281,250.3125 481.8281,249.8906 L481.8281,248.4688 C481.8281,248.0313 481.8125,247.9063 481.7188,247.75 C481.5625,247.4844 481.2813,247.3438 480.9844,247.3438 C480.6875,247.3438 480.4844,247.4375 480.2656,247.75 L480.0938,247.6719 Z " fill="#000000"/><text fill="#000000" font-family="sans-serif" font-size="12" lengthAdjust="spacingAndGlyphs" textLength="95" x="498.25" y="256.1543">CoordinateView</text><line style="stroke: #A80036; stroke-width: 1.5;" x1="401" x2="658" y1="268" y2="268"/><polygon fill="none" points="411,274,415,278,411,282,407,278" style="stroke: #B38D22; stroke-width: 1.0;"/><text fill="#000000" font-family="sans-serif" font-size="11" lengthAdjust="spacingAndGlyphs" text-decoration="underline" textLength="203" x="420" y="282.2104">String ENTER_COORDINATE_TO_PUT</text><polygon fill="none" points="411,286.8047,415,290.8047,411,294.8047,407,290.8047" style="stroke: #B38D22; stroke-width: 1.0;"/><text fill="#000000" font-family="sans-serif" font-size="11" lengthAdjust="spacingAndGlyphs" text-decoration="underline" textLength="81" x="420" y="295.0151">String ACCEPT</text><line style="stroke: #A80036; stroke-width: 1.5;" x1="401" x2="658" y1="301.6094" y2="301.6094"/><text fill="#000000" font-family="sans-serif" font-size="11" lengthAdjust="spacingAndGlyphs" textLength="98" x="420" y="315.8198">CoordinateView()</text><ellipse cx="411" cy="325.4141" fill="#84BE84" rx="3" ry="3" style="stroke: #038048; stroke-width: 1.0;"/><text fill="#000000" font-family="sans-serif" font-size="11" font-style="italic" lengthAdjust="spacingAndGlyphs" textLength="233" x="420" y="328.6245">actionPerformed(final ActionEvent event)</text><ellipse cx="411" cy="338.2188" fill="#84BE84" rx="3" ry="3" style="stroke: #038048; stroke-width: 1.0;"/><text fill="#000000" font-family="sans-serif" font-size="11" lengthAdjust="spacingAndGlyphs" textLength="132" x="420" y="341.4292">keyTyped(KeyEvent e)</text><ellipse cx="411" cy="351.0234" fill="#84BE84" rx="3" ry="3" style="stroke: #038048; stroke-width: 1.0;"/><text fill="#000000" font-family="sans-serif" font-size="11" lengthAdjust="spacingAndGlyphs" textLength="141" x="420" y="354.2339">keyPressed(KeyEvent e)</text><ellipse cx="411" cy="363.8281" fill="#84BE84" rx="3" ry="3" style="stroke: #038048; stroke-width: 1.0;"/><text fill="#000000" font-family="sans-serif" font-size="11" lengthAdjust="spacingAndGlyphs" textLength="150" x="420" y="367.0386">keyReleased(KeyEvent e)</text><!--MD5=[b64db9b57815c0cb4599d086278e9abd]
class usantatecla.tictactoe.views.graphics.CoordinatePutView--><rect codeLine="51" fill="#FEFECE" filter="url(#f17ep0dtzo2x8w)" height="137.6328" id="usantatecla.tictactoe.views.graphics.CoordinatePutView" style="stroke: #A80036; stroke-width: 1.5;" width="261" x="295" y="446.5"/><ellipse cx="365.25" cy="462.5" fill="#ADD1B2" rx="11" ry="11" style="stroke: #A80036; stroke-width: 1.0;"/><path d="M367.5938,458.1719 C366.6563,457.7344 366.0625,457.5938 365.1875,457.5938 C362.5625,457.5938 360.5625,459.6719 360.5625,462.3906 L360.5625,463.5156 C360.5625,466.0938 362.6719,467.9844 365.5625,467.9844 C366.7813,467.9844 367.9375,467.6875 368.6875,467.1406 C369.2656,466.7344 369.5938,466.2813 369.5938,465.8906 C369.5938,465.4375 369.2031,465.0469 368.7344,465.0469 C368.5156,465.0469 368.3125,465.125 368.125,465.3125 C367.6719,465.7969 367.6719,465.7969 367.4844,465.8906 C367.0625,466.1563 366.375,466.2813 365.6094,466.2813 C363.5625,466.2813 362.2656,465.1875 362.2656,463.4844 L362.2656,462.3906 C362.2656,460.6094 363.5156,459.2969 365.25,459.2969 C365.8281,459.2969 366.4375,459.4531 366.9063,459.7031 C367.3906,459.9844 367.5625,460.2031 367.6563,460.6094 C367.7188,461.0156 367.75,461.1406 367.8906,461.2656 C368.0313,461.4063 368.2656,461.5156 368.4844,461.5156 C368.75,461.5156 369.0156,461.375 369.1875,461.1563 C369.2969,461 369.3281,460.8125 369.3281,460.3906 L369.3281,458.9688 C369.3281,458.5313 369.3125,458.4063 369.2188,458.25 C369.0625,457.9844 368.7813,457.8438 368.4844,457.8438 C368.1875,457.8438 367.9844,457.9375 367.7656,458.25 L367.5938,458.1719 Z " fill="#000000"/><text fill="#000000" font-family="sans-serif" font-size="12" lengthAdjust="spacingAndGlyphs" textLength="112" x="385.75" y="466.6543">CoordinatePutView</text><line style="stroke: #A80036; stroke-width: 1.5;" x1="296" x2="555" y1="478.5" y2="478.5"/><line style="stroke: #A80036; stroke-width: 1.5;" x1="296" x2="555" y1="486.5" y2="486.5"/><text fill="#000000" font-family="sans-serif" font-size="11" lengthAdjust="spacingAndGlyphs" textLength="115" x="315" y="500.7104">CoordinatePutView()</text><text fill="#000000" font-family="sans-serif" font-size="11" lengthAdjust="spacingAndGlyphs" textLength="100" x="315" y="513.5151">resetCoordinate()</text><text fill="#000000" font-family="sans-serif" font-size="11" lengthAdjust="spacingAndGlyphs" textLength="155" x="315" y="526.3198">Coordinate getCoordinate()</text><ellipse cx="306" cy="535.9141" fill="#84BE84" rx="3" ry="3" style="stroke: #038048; stroke-width: 1.0;"/><text fill="#000000" font-family="sans-serif" font-size="11" lengthAdjust="spacingAndGlyphs" textLength="235" x="315" y="539.1245">actionPerformed(final ActionEvent event)</text><ellipse cx="306" cy="548.7188" fill="#84BE84" rx="3" ry="3" style="stroke: #038048; stroke-width: 1.0;"/><text fill="#000000" font-family="sans-serif" font-size="11" lengthAdjust="spacingAndGlyphs" textLength="132" x="315" y="551.9292">keyTyped(KeyEvent e)</text><ellipse cx="306" cy="561.5234" fill="#84BE84" rx="3" ry="3" style="stroke: #038048; stroke-width: 1.0;"/><text fill="#000000" font-family="sans-serif" font-size="11" lengthAdjust="spacingAndGlyphs" textLength="141" x="315" y="564.7339">keyPressed(KeyEvent e)</text><ellipse cx="306" cy="574.3281" fill="#84BE84" rx="3" ry="3" style="stroke: #038048; stroke-width: 1.0;"/><text fill="#000000" font-family="sans-serif" font-size="11" lengthAdjust="spacingAndGlyphs" textLength="150" x="315" y="577.5386">keyReleased(KeyEvent e)</text><!--MD5=[34226cdba220114a91c4ebd6014c3336]
class usantatecla.tictactoe.views.graphics.GameView--><rect codeLine="81" fill="#FEFECE" filter="url(#f17ep0dtzo2x8w)" height="99.2188" id="usantatecla.tictactoe.views.graphics.GameView" style="stroke: #A80036; stroke-width: 1.5;" width="294" x="1207.5" y="466"/><ellipse cx="1318.25" cy="482" fill="#ADD1B2" rx="11" ry="11" style="stroke: #A80036; stroke-width: 1.0;"/><path d="M1320.5938,477.6719 C1319.6563,477.2344 1319.0625,477.0938 1318.1875,477.0938 C1315.5625,477.0938 1313.5625,479.1719 1313.5625,481.8906 L1313.5625,483.0156 C1313.5625,485.5938 1315.6719,487.4844 1318.5625,487.4844 C1319.7813,487.4844 1320.9375,487.1875 1321.6875,486.6406 C1322.2656,486.2344 1322.5938,485.7813 1322.5938,485.3906 C1322.5938,484.9375 1322.2031,484.5469 1321.7344,484.5469 C1321.5156,484.5469 1321.3125,484.625 1321.125,484.8125 C1320.6719,485.2969 1320.6719,485.2969 1320.4844,485.3906 C1320.0625,485.6563 1319.375,485.7813 1318.6094,485.7813 C1316.5625,485.7813 1315.2656,484.6875 1315.2656,482.9844 L1315.2656,481.8906 C1315.2656,480.1094 1316.5156,478.7969 1318.25,478.7969 C1318.8281,478.7969 1319.4375,478.9531 1319.9063,479.2031 C1320.3906,479.4844 1320.5625,479.7031 1320.6563,480.1094 C1320.7188,480.5156 1320.75,480.6406 1320.8906,480.7656 C1321.0313,480.9063 1321.2656,481.0156 1321.4844,481.0156 C1321.75,481.0156 1322.0156,480.875 1322.1875,480.6563 C1322.2969,480.5 1322.3281,480.3125 1322.3281,479.8906 L1322.3281,478.4688 C1322.3281,478.0313 1322.3125,477.9063 1322.2188,477.75 C1322.0625,477.4844 1321.7813,477.3438 1321.4844,477.3438 C1321.1875,477.3438 1320.9844,477.4375 1320.7656,477.75 L1320.5938,477.6719 Z " fill="#000000"/><text fill="#000000" font-family="sans-serif" font-size="12" lengthAdjust="spacingAndGlyphs" textLength="64" x="1338.75" y="486.1543">GameView</text><line style="stroke: #A80036; stroke-width: 1.5;" x1="1208.5" x2="1500.5" y1="498" y2="498"/><line style="stroke: #A80036; stroke-width: 1.5;" x1="1208.5" x2="1500.5" y1="506" y2="506"/><text fill="#000000" font-family="sans-serif" font-size="11" lengthAdjust="spacingAndGlyphs" textLength="143" x="1227.5" y="520.2104">GameView(Game game)</text><text fill="#000000" font-family="sans-serif" font-size="11" lengthAdjust="spacingAndGlyphs" textLength="36" x="1227.5" y="533.0151">write()</text><rect fill="#F24D5C" height="6" style="stroke: #C82930; stroke-width: 1.0;" width="6" x="1215.5" y="539.6094"/><text fill="#000000" font-family="sans-serif" font-size="11" lengthAdjust="spacingAndGlyphs" textLength="127" x="1227.5" y="545.8198">printRowBoard(int row)</text><rect fill="#F24D5C" height="6" style="stroke: #C82930; stroke-width: 1.0;" width="6" x="1215.5" y="552.4141"/><text fill="#000000" font-family="sans-serif" font-size="11" lengthAdjust="spacingAndGlyphs" textLength="268" x="1227.5" y="558.6245">String getSquareBoardText(int row, int column)</text><!--MD5=[cdc8048ce8edd74de0e2210c3e136b55]
class usantatecla.tictactoe.views.graphics.PlayView--><rect codeLine="102" fill="#FEFECE" filter="url(#f17ep0dtzo2x8w)" height="124.8281" id="usantatecla.tictactoe.views.graphics.PlayView" style="stroke: #A80036; stroke-width: 1.5;" width="317" x="799" y="242.5"/><ellipse cx="927.25" cy="258.5" fill="#ADD1B2" rx="11" ry="11" style="stroke: #A80036; stroke-width: 1.0;"/><path d="M929.5938,254.1719 C928.6563,253.7344 928.0625,253.5938 927.1875,253.5938 C924.5625,253.5938 922.5625,255.6719 922.5625,258.3906 L922.5625,259.5156 C922.5625,262.0938 924.6719,263.9844 927.5625,263.9844 C928.7813,263.9844 929.9375,263.6875 930.6875,263.1406 C931.2656,262.7344 931.5938,262.2813 931.5938,261.8906 C931.5938,261.4375 931.2031,261.0469 930.7344,261.0469 C930.5156,261.0469 930.3125,261.125 930.125,261.3125 C929.6719,261.7969 929.6719,261.7969 929.4844,261.8906 C929.0625,262.1563 928.375,262.2813 927.6094,262.2813 C925.5625,262.2813 924.2656,261.1875 924.2656,259.4844 L924.2656,258.3906 C924.2656,256.6094 925.5156,255.2969 927.25,255.2969 C927.8281,255.2969 928.4375,255.4531 928.9063,255.7031 C929.3906,255.9844 929.5625,256.2031 929.6563,256.6094 C929.7188,257.0156 929.75,257.1406 929.8906,257.2656 C930.0313,257.4063 930.2656,257.5156 930.4844,257.5156 C930.75,257.5156 931.0156,257.375 931.1875,257.1563 C931.2969,257 931.3281,256.8125 931.3281,256.3906 L931.3281,254.9688 C931.3281,254.5313 931.3125,254.4063 931.2188,254.25 C931.0625,253.9844 930.7813,253.8438 930.4844,253.8438 C930.1875,253.8438 929.9844,253.9375 929.7656,254.25 L929.5938,254.1719 Z " fill="#000000"/><text fill="#000000" font-family="sans-serif" font-size="12" lengthAdjust="spacingAndGlyphs" textLength="52" x="947.75" y="262.6543">PlayView</text><line style="stroke: #A80036; stroke-width: 1.5;" x1="800" x2="1115" y1="274.5" y2="274.5"/><text fill="#000000" font-family="sans-serif" font-size="11" lengthAdjust="spacingAndGlyphs" textLength="279" x="805" y="288.7104">{static final} String ENTER_COORDINATE_TO_PUT</text><text fill="#000000" font-family="sans-serif" font-size="11" lengthAdjust="spacingAndGlyphs" textLength="305" x="805" y="301.5151">{static final} String ENTER_COORDINATE_TO_REMOVE</text><line style="stroke: #A80036; stroke-width: 1.5;" x1="800" x2="1115" y1="308.1094" y2="308.1094"/><text fill="#000000" font-family="sans-serif" font-size="11" lengthAdjust="spacingAndGlyphs" textLength="131" x="819" y="322.3198">PlayView(Game game)</text><text fill="#000000" font-family="sans-serif" font-size="11" lengthAdjust="spacingAndGlyphs" textLength="51" x="819" y="335.1245">interact()</text><rect fill="#F24D5C" height="6" style="stroke: #C82930; stroke-width: 1.0;" width="6" x="807" y="341.7188"/><text fill="#000000" font-family="sans-serif" font-size="11" lengthAdjust="spacingAndGlyphs" textLength="26" x="819" y="347.9292">put()</text><rect fill="#F24D5C" height="6" style="stroke: #C82930; stroke-width: 1.0;" width="6" x="807" y="354.5234"/><text fill="#000000" font-family="sans-serif" font-size="11" lengthAdjust="spacingAndGlyphs" textLength="41" x="819" y="360.7339">move()</text><!--MD5=[e171d38dde8bc447a12b90c4f96e9a99]
class usantatecla.tictactoe.views.graphics.ResumeView--><rect codeLine="122" fill="#FEFECE" filter="url(#f17ep0dtzo2x8w)" height="86.4141" id="usantatecla.tictactoe.views.graphics.ResumeView" style="stroke: #A80036; stroke-width: 1.5;" width="168" x="1333.5" y="262"/><ellipse cx="1375.05" cy="278" fill="#ADD1B2" rx="11" ry="11" style="stroke: #A80036; stroke-width: 1.0;"/><path d="M1377.3938,273.6719 C1376.4563,273.2344 1375.8625,273.0938 1374.9875,273.0938 C1372.3625,273.0938 1370.3625,275.1719 1370.3625,277.8906 L1370.3625,279.0156 C1370.3625,281.5938 1372.4719,283.4844 1375.3625,283.4844 C1376.5813,283.4844 1377.7375,283.1875 1378.4875,282.6406 C1379.0656,282.2344 1379.3938,281.7813 1379.3938,281.3906 C1379.3938,280.9375 1379.0031,280.5469 1378.5344,280.5469 C1378.3156,280.5469 1378.1125,280.625 1377.925,280.8125 C1377.4719,281.2969 1377.4719,281.2969 1377.2844,281.3906 C1376.8625,281.6563 1376.175,281.7813 1375.4094,281.7813 C1373.3625,281.7813 1372.0656,280.6875 1372.0656,278.9844 L1372.0656,277.8906 C1372.0656,276.1094 1373.3156,274.7969 1375.05,274.7969 C1375.6281,274.7969 1376.2375,274.9531 1376.7063,275.2031 C1377.1906,275.4844 1377.3625,275.7031 1377.4563,276.1094 C1377.5188,276.5156 1377.55,276.6406 1377.6906,276.7656 C1377.8313,276.9063 1378.0656,277.0156 1378.2844,277.0156 C1378.55,277.0156 1378.8156,276.875 1378.9875,276.6563 C1379.0969,276.5 1379.1281,276.3125 1379.1281,275.8906 L1379.1281,274.4688 C1379.1281,274.0313 1379.1125,273.9063 1379.0188,273.75 C1378.8625,273.4844 1378.5813,273.3438 1378.2844,273.3438 C1377.9875,273.3438 1377.7844,273.4375 1377.5656,273.75 L1377.3938,273.6719 Z " fill="#000000"/><text fill="#000000" font-family="sans-serif" font-size="12" lengthAdjust="spacingAndGlyphs" textLength="77" x="1394.95" y="282.1543">ResumeView</text><line style="stroke: #A80036; stroke-width: 1.5;" x1="1334.5" x2="1500.5" y1="294" y2="294"/><rect fill="none" height="6" style="stroke: #C82930; stroke-width: 1.0;" width="6" x="1341.5" y="302"/><text fill="#000000" font-family="sans-serif" font-size="11" lengthAdjust="spacingAndGlyphs" textLength="112" x="1353.5" y="308.2104">boolean newGame;</text><line style="stroke: #A80036; stroke-width: 1.5;" x1="1334.5" x2="1500.5" y1="314.8047" y2="314.8047"/><text fill="#000000" font-family="sans-serif" font-size="11" lengthAdjust="spacingAndGlyphs" textLength="83" x="1339.5" y="329.0151">ResumeView()</text><text fill="#000000" font-family="sans-serif" font-size="11" lengthAdjust="spacingAndGlyphs" textLength="156" x="1339.5" y="341.8198">boolean isResumedGame()</text><!--MD5=[9ec4f2e0c7acff142894de6c884d1545]
class usantatecla.tictactoe.views.graphics.StartView--><rect codeLine="133" fill="#FEFECE" filter="url(#f17ep0dtzo2x8w)" height="73.6094" id="usantatecla.tictactoe.views.graphics.StartView" style="stroke: #A80036; stroke-width: 1.5;" width="147" x="1151" y="268"/><ellipse cx="1192.1" cy="284" fill="#ADD1B2" rx="11" ry="11" style="stroke: #A80036; stroke-width: 1.0;"/><path d="M1194.4438,279.6719 C1193.5063,279.2344 1192.9125,279.0938 1192.0375,279.0938 C1189.4125,279.0938 1187.4125,281.1719 1187.4125,283.8906 L1187.4125,285.0156 C1187.4125,287.5938 1189.5219,289.4844 1192.4125,289.4844 C1193.6313,289.4844 1194.7875,289.1875 1195.5375,288.6406 C1196.1156,288.2344 1196.4438,287.7813 1196.4438,287.3906 C1196.4438,286.9375 1196.0531,286.5469 1195.5844,286.5469 C1195.3656,286.5469 1195.1625,286.625 1194.975,286.8125 C1194.5219,287.2969 1194.5219,287.2969 1194.3344,287.3906 C1193.9125,287.6563 1193.225,287.7813 1192.4594,287.7813 C1190.4125,287.7813 1189.1156,286.6875 1189.1156,284.9844 L1189.1156,283.8906 C1189.1156,282.1094 1190.3656,280.7969 1192.1,280.7969 C1192.6781,280.7969 1193.2875,280.9531 1193.7563,281.2031 C1194.2406,281.4844 1194.4125,281.7031 1194.5063,282.1094 C1194.5688,282.5156 1194.6,282.6406 1194.7406,282.7656 C1194.8813,282.9063 1195.1156,283.0156 1195.3344,283.0156 C1195.6,283.0156 1195.8656,282.875 1196.0375,282.6563 C1196.1469,282.5 1196.1781,282.3125 1196.1781,281.8906 L1196.1781,280.4688 C1196.1781,280.0313 1196.1625,279.9063 1196.0688,279.75 C1195.9125,279.4844 1195.6313,279.3438 1195.3344,279.3438 C1195.0375,279.3438 1194.8344,279.4375 1194.6156,279.75 L1194.4438,279.6719 Z " fill="#000000"/><text fill="#000000" font-family="sans-serif" font-size="12" lengthAdjust="spacingAndGlyphs" textLength="57" x="1211.9" y="288.1543">StartView</text><line style="stroke: #A80036; stroke-width: 1.5;" x1="1152" x2="1297" y1="300" y2="300"/><line style="stroke: #A80036; stroke-width: 1.5;" x1="1152" x2="1297" y1="308" y2="308"/><text fill="#000000" font-family="sans-serif" font-size="11" lengthAdjust="spacingAndGlyphs" textLength="135" x="1157" y="322.2104">StartView(Game game)</text><text fill="#000000" font-family="sans-serif" font-size="11" lengthAdjust="spacingAndGlyphs" textLength="51" x="1157" y="335.0151">interact()</text><!--MD5=[e1cf5598b47e4cc94d223fc7e89ccad6]
class usantatecla.tictactoe.views.graphics.View--><rect codeLine="145" fill="#FEFECE" filter="url(#f17ep0dtzo2x8w)" height="60.8047" id="usantatecla.tictactoe.views.graphics.View" style="stroke: #A80036; stroke-width: 1.5;" width="134" x="1157.5" y="115"/><ellipse cx="1205.75" cy="131" fill="#ADD1B2" rx="11" ry="11" style="stroke: #A80036; stroke-width: 1.0;"/><path d="M1208.0938,126.6719 C1207.1563,126.2344 1206.5625,126.0938 1205.6875,126.0938 C1203.0625,126.0938 1201.0625,128.1719 1201.0625,130.8906 L1201.0625,132.0156 C1201.0625,134.5938 1203.1719,136.4844 1206.0625,136.4844 C1207.2813,136.4844 1208.4375,136.1875 1209.1875,135.6406 C1209.7656,135.2344 1210.0938,134.7813 1210.0938,134.3906 C1210.0938,133.9375 1209.7031,133.5469 1209.2344,133.5469 C1209.0156,133.5469 1208.8125,133.625 1208.625,133.8125 C1208.1719,134.2969 1208.1719,134.2969 1207.9844,134.3906 C1207.5625,134.6563 1206.875,134.7813 1206.1094,134.7813 C1204.0625,134.7813 1202.7656,133.6875 1202.7656,131.9844 L1202.7656,130.8906 C1202.7656,129.1094 1204.0156,127.7969 1205.75,127.7969 C1206.3281,127.7969 1206.9375,127.9531 1207.4063,128.2031 C1207.8906,128.4844 1208.0625,128.7031 1208.1563,129.1094 C1208.2188,129.5156 1208.25,129.6406 1208.3906,129.7656 C1208.5313,129.9063 1208.7656,130.0156 1208.9844,130.0156 C1209.25,130.0156 1209.5156,129.875 1209.6875,129.6563 C1209.7969,129.5 1209.8281,129.3125 1209.8281,128.8906 L1209.8281,127.4688 C1209.8281,127.0313 1209.8125,126.9063 1209.7188,126.75 C1209.5625,126.4844 1209.2813,126.3438 1208.9844,126.3438 C1208.6875,126.3438 1208.4844,126.4375 1208.2656,126.75 L1208.0938,126.6719 Z " fill="#000000"/><text fill="#000000" font-family="sans-serif" font-size="12" lengthAdjust="spacingAndGlyphs" textLength="29" x="1226.25" y="135.1543">View</text><line style="stroke: #A80036; stroke-width: 1.5;" x1="1158.5" x2="1290.5" y1="147" y2="147"/><line style="stroke: #A80036; stroke-width: 1.5;" x1="1158.5" x2="1290.5" y1="155" y2="155"/><ellipse cx="1168.5" cy="166" fill="#84BE84" rx="3" ry="3" style="stroke: #038048; stroke-width: 1.0;"/><text fill="#000000" font-family="sans-serif" font-size="11" lengthAdjust="spacingAndGlyphs" textLength="108" x="1177.5" y="169.2104">View(Game game)</text><!--MD5=[86cec68673cafdfc1c204348d5b2cca6]
class ErrorView--><rect codeLine="44" fill="#FEFECE" filter="url(#f17ep0dtzo2x8w)" height="48" id="ErrorView" style="stroke: #A80036; stroke-width: 1.5;" width="255" x="7" y="663.5"/><ellipse cx="22" cy="679.5" fill="#ADD1B2" rx="11" ry="11" style="stroke: #A80036; stroke-width: 1.0;"/><path d="M24.3438,675.1719 C23.4063,674.7344 22.8125,674.5938 21.9375,674.5938 C19.3125,674.5938 17.3125,676.6719 17.3125,679.3906 L17.3125,680.5156 C17.3125,683.0938 19.4219,684.9844 22.3125,684.9844 C23.5313,684.9844 24.6875,684.6875 25.4375,684.1406 C26.0156,683.7344 26.3438,683.2813 26.3438,682.8906 C26.3438,682.4375 25.9531,682.0469 25.4844,682.0469 C25.2656,682.0469 25.0625,682.125 24.875,682.3125 C24.4219,682.7969 24.4219,682.7969 24.2344,682.8906 C23.8125,683.1563 23.125,683.2813 22.3594,683.2813 C20.3125,683.2813 19.0156,682.1875 19.0156,680.4844 L19.0156,679.3906 C19.0156,677.6094 20.2656,676.2969 22,676.2969 C22.5781,676.2969 23.1875,676.4531 23.6563,676.7031 C24.1406,676.9844 24.3125,677.2031 24.4063,677.6094 C24.4688,678.0156 24.5,678.1406 24.6406,678.2656 C24.7813,678.4063 25.0156,678.5156 25.2344,678.5156 C25.5,678.5156 25.7656,678.375 25.9375,678.1563 C26.0469,678 26.0781,677.8125 26.0781,677.3906 L26.0781,675.9688 C26.0781,675.5313 26.0625,675.4063 25.9688,675.25 C25.8125,674.9844 25.5313,674.8438 25.2344,674.8438 C24.9375,674.8438 24.7344,674.9375 24.5156,675.25 L24.3438,675.1719 Z " fill="#000000"/><text fill="#000000" font-family="sans-serif" font-size="12" lengthAdjust="spacingAndGlyphs" textLength="223" x="36" y="683.6543">usantatecla.tictactoe.views.ErrorView</text><line style="stroke: #A80036; stroke-width: 1.5;" x1="8" x2="261" y1="695.5" y2="695.5"/><line style="stroke: #A80036; stroke-width: 1.5;" x1="8" x2="261" y1="703.5" y2="703.5"/><!--MD5=[8c7d7abc12e214c3cc12c9ab70edee11]
class Coordinate--><rect codeLine="63" fill="#FEFECE" filter="url(#f17ep0dtzo2x8w)" height="48" id="Coordinate" style="stroke: #A80036; stroke-width: 1.5;" width="272" x="1804.5" y="663.5"/><ellipse cx="1819.5" cy="679.5" fill="#ADD1B2" rx="11" ry="11" style="stroke: #A80036; stroke-width: 1.0;"/><path d="M1821.8438,675.1719 C1820.9063,674.7344 1820.3125,674.5938 1819.4375,674.5938 C1816.8125,674.5938 1814.8125,676.6719 1814.8125,679.3906 L1814.8125,680.5156 C1814.8125,683.0938 1816.9219,684.9844 1819.8125,684.9844 C1821.0313,684.9844 1822.1875,684.6875 1822.9375,684.1406 C1823.5156,683.7344 1823.8438,683.2813 1823.8438,682.8906 C1823.8438,682.4375 1823.4531,682.0469 1822.9844,682.0469 C1822.7656,682.0469 1822.5625,682.125 1822.375,682.3125 C1821.9219,682.7969 1821.9219,682.7969 1821.7344,682.8906 C1821.3125,683.1563 1820.625,683.2813 1819.8594,683.2813 C1817.8125,683.2813 1816.5156,682.1875 1816.5156,680.4844 L1816.5156,679.3906 C1816.5156,677.6094 1817.7656,676.2969 1819.5,676.2969 C1820.0781,676.2969 1820.6875,676.4531 1821.1563,676.7031 C1821.6406,676.9844 1821.8125,677.2031 1821.9063,677.6094 C1821.9688,678.0156 1822,678.1406 1822.1406,678.2656 C1822.2813,678.4063 1822.5156,678.5156 1822.7344,678.5156 C1823,678.5156 1823.2656,678.375 1823.4375,678.1563 C1823.5469,678 1823.5781,677.8125 1823.5781,677.3906 L1823.5781,675.9688 C1823.5781,675.5313 1823.5625,675.4063 1823.4688,675.25 C1823.3125,674.9844 1823.0313,674.8438 1822.7344,674.8438 C1822.4375,674.8438 1822.2344,674.9375 1822.0156,675.25 L1821.8438,675.1719 Z " fill="#000000"/><text fill="#000000" font-family="sans-serif" font-size="12" lengthAdjust="spacingAndGlyphs" textLength="240" x="1833.5" y="683.6543">usantatecla.tictactoe.models.Coordinate</text><line style="stroke: #A80036; stroke-width: 1.5;" x1="1805.5" x2="2075.5" y1="695.5" y2="695.5"/><line style="stroke: #A80036; stroke-width: 1.5;" x1="1805.5" x2="2075.5" y1="703.5" y2="703.5"/><!--MD5=[b8cfd8c4119a3b0a7a46bfc5fc780f85]
class Error--><rect codeLine="43" fill="#FEFECE" filter="url(#f17ep0dtzo2x8w)" height="48" id="Error" style="stroke: #A80036; stroke-width: 1.5;" width="236" x="1533.5" y="663.5"/><ellipse cx="1548.5" cy="679.5" fill="#ADD1B2" rx="11" ry="11" style="stroke: #A80036; stroke-width: 1.0;"/><path d="M1550.8438,675.1719 C1549.9063,674.7344 1549.3125,674.5938 1548.4375,674.5938 C1545.8125,674.5938 1543.8125,676.6719 1543.8125,679.3906 L1543.8125,680.5156 C1543.8125,683.0938 1545.9219,684.9844 1548.8125,684.9844 C1550.0313,684.9844 1551.1875,684.6875 1551.9375,684.1406 C1552.5156,683.7344 1552.8438,683.2813 1552.8438,682.8906 C1552.8438,682.4375 1552.4531,682.0469 1551.9844,682.0469 C1551.7656,682.0469 1551.5625,682.125 1551.375,682.3125 C1550.9219,682.7969 1550.9219,682.7969 1550.7344,682.8906 C1550.3125,683.1563 1549.625,683.2813 1548.8594,683.2813 C1546.8125,683.2813 1545.5156,682.1875 1545.5156,680.4844 L1545.5156,679.3906 C1545.5156,677.6094 1546.7656,676.2969 1548.5,676.2969 C1549.0781,676.2969 1549.6875,676.4531 1550.1563,676.7031 C1550.6406,676.9844 1550.8125,677.2031 1550.9063,677.6094 C1550.9688,678.0156 1551,678.1406 1551.1406,678.2656 C1551.2813,678.4063 1551.5156,678.5156 1551.7344,678.5156 C1552,678.5156 1552.2656,678.375 1552.4375,678.1563 C1552.5469,678 1552.5781,677.8125 1552.5781,677.3906 L1552.5781,675.9688 C1552.5781,675.5313 1552.5625,675.4063 1552.4688,675.25 C1552.3125,674.9844 1552.0313,674.8438 1551.7344,674.8438 C1551.4375,674.8438 1551.2344,674.9375 1551.0156,675.25 L1550.8438,675.1719 Z " fill="#000000"/><text fill="#000000" font-family="sans-serif" font-size="12" lengthAdjust="spacingAndGlyphs" textLength="204" x="1562.5" y="683.6543">usantatecla.tictactoe.models.Error</text><line style="stroke: #A80036; stroke-width: 1.5;" x1="1534.5" x2="1768.5" y1="695.5" y2="695.5"/><line style="stroke: #A80036; stroke-width: 1.5;" x1="1534.5" x2="1768.5" y1="703.5" y2="703.5"/><!--MD5=[b6dcce5e5ef3c84b0b048d11301373dd]
class Game--><rect codeLine="90" fill="#FEFECE" filter="url(#f17ep0dtzo2x8w)" height="48" id="Game" style="stroke: #A80036; stroke-width: 1.5;" width="241" x="2738" y="663.5"/><ellipse cx="2753" cy="679.5" fill="#ADD1B2" rx="11" ry="11" style="stroke: #A80036; stroke-width: 1.0;"/><path d="M2755.3438,675.1719 C2754.4063,674.7344 2753.8125,674.5938 2752.9375,674.5938 C2750.3125,674.5938 2748.3125,676.6719 2748.3125,679.3906 L2748.3125,680.5156 C2748.3125,683.0938 2750.4219,684.9844 2753.3125,684.9844 C2754.5313,684.9844 2755.6875,684.6875 2756.4375,684.1406 C2757.0156,683.7344 2757.3438,683.2813 2757.3438,682.8906 C2757.3438,682.4375 2756.9531,682.0469 2756.4844,682.0469 C2756.2656,682.0469 2756.0625,682.125 2755.875,682.3125 C2755.4219,682.7969 2755.4219,682.7969 2755.2344,682.8906 C2754.8125,683.1563 2754.125,683.2813 2753.3594,683.2813 C2751.3125,683.2813 2750.0156,682.1875 2750.0156,680.4844 L2750.0156,679.3906 C2750.0156,677.6094 2751.2656,676.2969 2753,676.2969 C2753.5781,676.2969 2754.1875,676.4531 2754.6563,676.7031 C2755.1406,676.9844 2755.3125,677.2031 2755.4063,677.6094 C2755.4688,678.0156 2755.5,678.1406 2755.6406,678.2656 C2755.7813,678.4063 2756.0156,678.5156 2756.2344,678.5156 C2756.5,678.5156 2756.7656,678.375 2756.9375,678.1563 C2757.0469,678 2757.0781,677.8125 2757.0781,677.3906 L2757.0781,675.9688 C2757.0781,675.5313 2757.0625,675.4063 2756.9688,675.25 C2756.8125,674.9844 2756.5313,674.8438 2756.2344,674.8438 C2755.9375,674.8438 2755.7344,674.9375 2755.5156,675.25 L2755.3438,675.1719 Z " fill="#000000"/><text fill="#000000" font-family="sans-serif" font-size="12" lengthAdjust="spacingAndGlyphs" textLength="209" x="2767" y="683.6543">usantatecla.tictactoe.models.Game</text><line style="stroke: #A80036; stroke-width: 1.5;" x1="2739" x2="2978" y1="695.5" y2="695.5"/><line style="stroke: #A80036; stroke-width: 1.5;" x1="2739" x2="2978" y1="703.5" y2="703.5"/><!--MD5=[d8c8cfd5ca149094f5b67f9f607a5ec7]
class Token--><rect codeLine="91" fill="#FEFECE" filter="url(#f17ep0dtzo2x8w)" height="48" id="Token" style="stroke: #A80036; stroke-width: 1.5;" width="243" x="2112" y="663.5"/><ellipse cx="2127" cy="679.5" fill="#ADD1B2" rx="11" ry="11" style="stroke: #A80036; stroke-width: 1.0;"/><path d="M2129.3438,675.1719 C2128.4063,674.7344 2127.8125,674.5938 2126.9375,674.5938 C2124.3125,674.5938 2122.3125,676.6719 2122.3125,679.3906 L2122.3125,680.5156 C2122.3125,683.0938 2124.4219,684.9844 2127.3125,684.9844 C2128.5313,684.9844 2129.6875,684.6875 2130.4375,684.1406 C2131.0156,683.7344 2131.3438,683.2813 2131.3438,682.8906 C2131.3438,682.4375 2130.9531,682.0469 2130.4844,682.0469 C2130.2656,682.0469 2130.0625,682.125 2129.875,682.3125 C2129.4219,682.7969 2129.4219,682.7969 2129.2344,682.8906 C2128.8125,683.1563 2128.125,683.2813 2127.3594,683.2813 C2125.3125,683.2813 2124.0156,682.1875 2124.0156,680.4844 L2124.0156,679.3906 C2124.0156,677.6094 2125.2656,676.2969 2127,676.2969 C2127.5781,676.2969 2128.1875,676.4531 2128.6563,676.7031 C2129.1406,676.9844 2129.3125,677.2031 2129.4063,677.6094 C2129.4688,678.0156 2129.5,678.1406 2129.6406,678.2656 C2129.7813,678.4063 2130.0156,678.5156 2130.2344,678.5156 C2130.5,678.5156 2130.7656,678.375 2130.9375,678.1563 C2131.0469,678 2131.0781,677.8125 2131.0781,677.3906 L2131.0781,675.9688 C2131.0781,675.5313 2131.0625,675.4063 2130.9688,675.25 C2130.8125,674.9844 2130.5313,674.8438 2130.2344,674.8438 C2129.9375,674.8438 2129.7344,674.9375 2129.5156,675.25 L2129.3438,675.1719 Z " fill="#000000"/><text fill="#000000" font-family="sans-serif" font-size="12" lengthAdjust="spacingAndGlyphs" textLength="211" x="2141" y="683.6543">usantatecla.tictactoe.models.Token</text><line style="stroke: #A80036; stroke-width: 1.5;" x1="2113" x2="2354" y1="695.5" y2="695.5"/><line style="stroke: #A80036; stroke-width: 1.5;" x1="2113" x2="2354" y1="703.5" y2="703.5"/><!--MD5=[bea5b0d46523efab5ea1c1d339f396f0]
class Message--><rect codeLine="92" fill="#FEFECE" filter="url(#f17ep0dtzo2x8w)" height="48" id="Message" style="stroke: #A80036; stroke-width: 1.5;" width="251" x="3014" y="663.5"/><ellipse cx="3029" cy="679.5" fill="#ADD1B2" rx="11" ry="11" style="stroke: #A80036; stroke-width: 1.0;"/><path d="M3031.3438,675.1719 C3030.4063,674.7344 3029.8125,674.5938 3028.9375,674.5938 C3026.3125,674.5938 3024.3125,676.6719 3024.3125,679.3906 L3024.3125,680.5156 C3024.3125,683.0938 3026.4219,684.9844 3029.3125,684.9844 C3030.5313,684.9844 3031.6875,684.6875 3032.4375,684.1406 C3033.0156,683.7344 3033.3438,683.2813 3033.3438,682.8906 C3033.3438,682.4375 3032.9531,682.0469 3032.4844,682.0469 C3032.2656,682.0469 3032.0625,682.125 3031.875,682.3125 C3031.4219,682.7969 3031.4219,682.7969 3031.2344,682.8906 C3030.8125,683.1563 3030.125,683.2813 3029.3594,683.2813 C3027.3125,683.2813 3026.0156,682.1875 3026.0156,680.4844 L3026.0156,679.3906 C3026.0156,677.6094 3027.2656,676.2969 3029,676.2969 C3029.5781,676.2969 3030.1875,676.4531 3030.6563,676.7031 C3031.1406,676.9844 3031.3125,677.2031 3031.4063,677.6094 C3031.4688,678.0156 3031.5,678.1406 3031.6406,678.2656 C3031.7813,678.4063 3032.0156,678.5156 3032.2344,678.5156 C3032.5,678.5156 3032.7656,678.375 3032.9375,678.1563 C3033.0469,678 3033.0781,677.8125 3033.0781,677.3906 L3033.0781,675.9688 C3033.0781,675.5313 3033.0625,675.4063 3032.9688,675.25 C3032.8125,674.9844 3032.5313,674.8438 3032.2344,674.8438 C3031.9375,674.8438 3031.7344,674.9375 3031.5156,675.25 L3031.3438,675.1719 Z " fill="#000000"/><text fill="#000000" font-family="sans-serif" font-size="12" lengthAdjust="spacingAndGlyphs" textLength="219" x="3043" y="683.6543">usantatecla.tictactoe.views.Message</text><line style="stroke: #A80036; stroke-width: 1.5;" x1="3015" x2="3264" y1="695.5" y2="695.5"/><line style="stroke: #A80036; stroke-width: 1.5;" x1="3015" x2="3264" y1="703.5" y2="703.5"/><!--MD5=[d506edff6720ca4585c5d273d13f8178]
class TokenView--><rect codeLine="93" fill="#FEFECE" filter="url(#f17ep0dtzo2x8w)" height="48" id="TokenView" style="stroke: #A80036; stroke-width: 1.5;" width="313" x="2390" y="663.5"/><ellipse cx="2405" cy="679.5" fill="#ADD1B2" rx="11" ry="11" style="stroke: #A80036; stroke-width: 1.0;"/><path d="M2407.3438,675.1719 C2406.4063,674.7344 2405.8125,674.5938 2404.9375,674.5938 C2402.3125,674.5938 2400.3125,676.6719 2400.3125,679.3906 L2400.3125,680.5156 C2400.3125,683.0938 2402.4219,684.9844 2405.3125,684.9844 C2406.5313,684.9844 2407.6875,684.6875 2408.4375,684.1406 C2409.0156,683.7344 2409.3438,683.2813 2409.3438,682.8906 C2409.3438,682.4375 2408.9531,682.0469 2408.4844,682.0469 C2408.2656,682.0469 2408.0625,682.125 2407.875,682.3125 C2407.4219,682.7969 2407.4219,682.7969 2407.2344,682.8906 C2406.8125,683.1563 2406.125,683.2813 2405.3594,683.2813 C2403.3125,683.2813 2402.0156,682.1875 2402.0156,680.4844 L2402.0156,679.3906 C2402.0156,677.6094 2403.2656,676.2969 2405,676.2969 C2405.5781,676.2969 2406.1875,676.4531 2406.6563,676.7031 C2407.1406,676.9844 2407.3125,677.2031 2407.4063,677.6094 C2407.4688,678.0156 2407.5,678.1406 2407.6406,678.2656 C2407.7813,678.4063 2408.0156,678.5156 2408.2344,678.5156 C2408.5,678.5156 2408.7656,678.375 2408.9375,678.1563 C2409.0469,678 2409.0781,677.8125 2409.0781,677.3906 L2409.0781,675.9688 C2409.0781,675.5313 2409.0625,675.4063 2408.9688,675.25 C2408.8125,674.9844 2408.5313,674.8438 2408.2344,674.8438 C2407.9375,674.8438 2407.7344,674.9375 2407.5156,675.25 L2407.3438,675.1719 Z " fill="#000000"/><text fill="#000000" font-family="sans-serif" font-size="12" lengthAdjust="spacingAndGlyphs" textLength="281" x="2419" y="683.6543">usantatecla.tictactoe.views.console.TokenView</text><line style="stroke: #A80036; stroke-width: 1.5;" x1="2391" x2="2702" y1="695.5" y2="695.5"/><line style="stroke: #A80036; stroke-width: 1.5;" x1="2391" x2="2702" y1="703.5" y2="703.5"/><!--MD5=[c045e12321b83266d36d22b9096c24ea]
class View--><rect codeLine="151" fill="#FEFECE" filter="url(#f17ep0dtzo2x8w)" height="48" id="View" style="stroke: #A80036; stroke-width: 1.5;" width="61" x="1194" y="7"/><ellipse cx="1209" cy="23" fill="#ADD1B2" rx="11" ry="11" style="stroke: #A80036; stroke-width: 1.0;"/><path d="M1211.3438,18.6719 C1210.4063,18.2344 1209.8125,18.0938 1208.9375,18.0938 C1206.3125,18.0938 1204.3125,20.1719 1204.3125,22.8906 L1204.3125,24.0156 C1204.3125,26.5938 1206.4219,28.4844 1209.3125,28.4844 C1210.5313,28.4844 1211.6875,28.1875 1212.4375,27.6406 C1213.0156,27.2344 1213.3438,26.7813 1213.3438,26.3906 C1213.3438,25.9375 1212.9531,25.5469 1212.4844,25.5469 C1212.2656,25.5469 1212.0625,25.625 1211.875,25.8125 C1211.4219,26.2969 1211.4219,26.2969 1211.2344,26.3906 C1210.8125,26.6563 1210.125,26.7813 1209.3594,26.7813 C1207.3125,26.7813 1206.0156,25.6875 1206.0156,23.9844 L1206.0156,22.8906 C1206.0156,21.1094 1207.2656,19.7969 1209,19.7969 C1209.5781,19.7969 1210.1875,19.9531 1210.6563,20.2031 C1211.1406,20.4844 1211.3125,20.7031 1211.4063,21.1094 C1211.4688,21.5156 1211.5,21.6406 1211.6406,21.7656 C1211.7813,21.9063 1212.0156,22.0156 1212.2344,22.0156 C1212.5,22.0156 1212.7656,21.875 1212.9375,21.6563 C1213.0469,21.5 1213.0781,21.3125 1213.0781,20.8906 L1213.0781,19.4688 C1213.0781,19.0313 1213.0625,18.9063 1212.9688,18.75 C1212.8125,18.4844 1212.5313,18.3438 1212.2344,18.3438 C1211.9375,18.3438 1211.7344,18.4375 1211.5156,18.75 L1211.3438,18.6719 Z " fill="#000000"/><text fill="#000000" font-family="sans-serif" font-size="12" lengthAdjust="spacingAndGlyphs" textLength="29" x="1223" y="27.1543">View</text><line style="stroke: #A80036; stroke-width: 1.5;" x1="1195" x2="1254" y1="39" y2="39"/><line style="stroke: #A80036; stroke-width: 1.5;" x1="1195" x2="1254" y1="47" y2="47"/><!--MD5=[d3c9a5757afba531d011729e12705f16]
link usantatecla.tictactoe.views.graphics.ChoosePlayersView to usantatecla.tictactoe.views.graphics.Constraints--><path codeLine="22" d="M733.5,597.019 C733.5,616.141 733.5,635.566 733.5,651.409 " fill="none" id="usantatecla.tictactoe.views.graphics.ChoosePlayersView-to-usantatecla.tictactoe.views.graphics.Constraints" style="stroke: #A80036; stroke-width: 1.0; stroke-dasharray: 7.0,7.0;"/><polygon fill="#A80036" points="733.5,656.6389,737.5,647.6389,733.5,651.6389,729.5,647.6389,733.5,656.6389" style="stroke: #A80036; stroke-width: 1.0;"/><!--MD5=[097649e5b245f3ec4f75fa600c7fc35b]
link usantatecla.tictactoe.views.graphics.ChoosePlayersView to ErrorView--><path codeLine="23" d="M591.26,590.414 C585.312,592.756 579.377,594.965 573.5,597 C447.072,640.785 409.592,630.241 278.5,657 C269.85,658.7656 260.909,660.5927 251.912,662.4325 " fill="none" id="usantatecla.tictactoe.views.graphics.ChoosePlayersView-to-ErrorView" style="stroke: #A80036; stroke-width: 1.0; stroke-dasharray: 7.0,7.0;"/><polygon fill="#A80036" points="246.91,663.4556,256.5288,665.5719,251.8087,662.4541,254.9265,657.734,246.91,663.4556" style="stroke: #A80036; stroke-width: 1.0;"/><!--MD5=[9ba02933008687e289d356350d3b06d6]
reverse link usantatecla.tictactoe.views.graphics.CoordinateView to usantatecla.tictactoe.views.graphics.CoordinateMoveView--><path d="M678.384,352.642 C744.844,374.951 823.551,403.443 892.5,434 C909.703,441.624 927.618,450.468 944.812,459.444 " fill="none" id="usantatecla.tictactoe.views.graphics.CoordinateView-backto-usantatecla.tictactoe.views.graphics.CoordinateMoveView" style="stroke: #A80036; stroke-width: 1.0;"/><polygon fill="none" points="675.849,359.176,659.082,346.22,680.269,345.892,675.849,359.176" style="stroke: #A80036; stroke-width: 1.0;"/><!--MD5=[3fddb1a8e998ae9eeb8cf10857055a78]
link usantatecla.tictactoe.views.graphics.CoordinateMoveView to Error--><path codeLine="47" d="M1132.18,571.642 C1150.66,581.202 1170.33,590.23 1189.5,597 C1329.24,646.358 1372.22,627.731 1517.5,657 C1526.07,658.7268 1534.94,660.5648 1543.84,662.4467 " fill="none" id="usantatecla.tictactoe.views.graphics.CoordinateMoveView-to-Error" style="stroke: #A80036; stroke-width: 1.0; stroke-dasharray: 7.0,7.0;"/><polygon fill="#A80036" points="1548.79,663.4962,1540.8058,657.7297,1543.897,662.4672,1539.1595,665.5585,1548.79,663.4962" style="stroke: #A80036; stroke-width: 1.0;"/><!--MD5=[9469190bf13ee434badbb380a30ac1af]
link usantatecla.tictactoe.views.graphics.CoordinateMoveView to ErrorView--><path codeLine="48" d="M953.007,571.692 C933.677,581.619 912.887,590.774 892.5,597 C630.266,677.0785 549.621,616.097 278.5,657 C267.778,658.6176 256.647,660.511 245.54,662.5441 " fill="none" id="usantatecla.tictactoe.views.graphics.CoordinateMoveView-to-ErrorView" style="stroke: #A80036; stroke-width: 1.0; stroke-dasharray: 7.0,7.0;"/><polygon fill="#A80036" points="240.44,663.4875,250.0177,665.7828,245.3565,662.5775,248.5617,657.9164,240.44,663.4875" style="stroke: #A80036; stroke-width: 1.0;"/><!--MD5=[44f9a69841386c9dbcc6511b7b58c5c0]
link usantatecla.tictactoe.views.graphics.CoordinateMoveView to Coordinate--><path codeLine="49" d="M1140.1123,577.0221 C1140.1123,577.0221 1173.35,592.02 1189.5,597 C1444.33,675.5934 1522.62,618.543 1786.5,657 C1795.29,658.2808 1804.34,659.7142 1813.44,661.2406 " fill="none" id="usantatecla.tictactoe.views.graphics.CoordinateMoveView-Coordinate" style="stroke: #A80036; stroke-width: 1.0;"/><polygon fill="#A80036" points="1826.32,663.4543,1818.1268,657.9889,1821.3921,662.6081,1816.7729,665.8735,1826.32,663.4543" style="stroke: #A80036; stroke-width: 1.0;"/><line style="stroke: #A80036; stroke-width: 1.0;" x1="1821.3921" x2="1813.51" y1="662.6081" y2="661.2523"/><polygon fill="#A80036" points="1129.38,571.654,1132.9568,577.9155,1140.1123,577.0221,1136.5355,570.7606,1129.38,571.654" style="stroke: #A80036; stroke-width: 1.0;"/><text fill="#000000" font-family="sans-serif" font-size="13" lengthAdjust="spacingAndGlyphs" textLength="8" x="1788.0364" y="652.4542">2</text><!--MD5=[c4cc2b9855b948b314184562ef1cf463]
reverse link usantatecla.tictactoe.views.graphics.CoordinateView to usantatecla.tictactoe.views.graphics.CoordinatePutView--><path d="M486.431,392.345 C477.432,410.386 468.065,429.165 459.452,446.432 " fill="none" id="usantatecla.tictactoe.views.graphics.CoordinateView-backto-usantatecla.tictactoe.views.graphics.CoordinatePutView" style="stroke: #A80036; stroke-width: 1.0;"/><polygon fill="none" points="480.255,389.043,495.447,374.271,492.783,395.292,480.255,389.043" style="stroke: #A80036; stroke-width: 1.0;"/><!--MD5=[7e8c25c40135b9bb2101f02d22fc75c5]
link usantatecla.tictactoe.views.graphics.CoordinatePutView to ErrorView--><path codeLine="65" d="M308.816,584.666 C262.964,611.453 213.134,640.563 178.541,660.7718 " fill="none" id="usantatecla.tictactoe.views.graphics.CoordinatePutView-to-ErrorView" style="stroke: #A80036; stroke-width: 1.0; stroke-dasharray: 7.0,7.0;"/><polygon fill="#A80036" points="173.975,663.439,183.7639,662.3542,178.2926,660.9174,179.7294,655.446,173.975,663.439" style="stroke: #A80036; stroke-width: 1.0;"/><!--MD5=[bea0dc8641a495cf28ff6a35a943745f]
link usantatecla.tictactoe.views.graphics.CoordinatePutView to Coordinate--><path codeLine="66" d="M550.0193,589.1108 C550.0193,589.1108 566.013,594.897 573.5,597 C833.332,669.973 1518.53,624.867 1786.5,657 C1796.48,658.1964 1806.78,659.6612 1817.1,661.292 " fill="none" id="usantatecla.tictactoe.views.graphics.CoordinatePutView-Coordinate" style="stroke: #A80036; stroke-width: 1.0;"/><polygon fill="#A80036" points="1830.17,663.4389,1821.9344,658.0375,1825.2357,662.6311,1820.642,665.9324,1830.17,663.4389" style="stroke: #A80036; stroke-width: 1.0;"/><line style="stroke: #A80036; stroke-width: 1.0;" x1="1825.2357" x2="1817.345" y1="662.6311" y2="661.3316"/><polygon fill="#A80036" points="538.897,584.606,542.9566,590.5659,550.0193,589.1108,545.9598,583.151,538.897,584.606" style="stroke: #A80036; stroke-width: 1.0;"/><!--MD5=[49f05c73929f31500fd33b015ed478c3]
link usantatecla.tictactoe.views.graphics.GameView to Game--><path codeLine="95" d="M1513.6984,527.2682 C1513.6984,527.2682 2287.08,588.59 2720.5,657 C2728.19,658.2136 2736.1,659.5805 2744.05,661.0437 " fill="none" id="usantatecla.tictactoe.views.graphics.GameView-Game" style="stroke: #A80036; stroke-width: 1.0;"/><polygon fill="#A80036" points="2756.99,663.4998,2748.8956,657.889,2752.078,662.5658,2747.4012,665.7482,2756.99,663.4998" style="stroke: #A80036; stroke-width: 1.0;"/><line style="stroke: #A80036; stroke-width: 1.0;" x1="2752.078" x2="2744.22" y1="662.5658" y2="661.0764"/><polygon fill="#A80036" points="1501.73,526.398,1507.4241,530.8226,1513.6984,527.2682,1508.0043,522.8437,1501.73,526.398" style="stroke: #A80036; stroke-width: 1.0;"/><!--MD5=[d9dc50346722c4e60ebf1972c0632d96]
link usantatecla.tictactoe.views.graphics.GameView to Coordinate--><path codeLine="96" d="M1501.62,559.179 C1613.53,591.645 1763.56,635.17 1856.05,661.9998 " fill="none" id="usantatecla.tictactoe.views.graphics.GameView-to-Coordinate" style="stroke: #A80036; stroke-width: 1.0; stroke-dasharray: 7.0,7.0;"/><polygon fill="#A80036" points="1860.95,663.4238,1853.4118,657.0854,1856.146,662.0376,1851.1938,664.7717,1860.95,663.4238" style="stroke: #A80036; stroke-width: 1.0;"/><!--MD5=[98cf87417c05d1144534cc8a81add82f]
link usantatecla.tictactoe.views.graphics.GameView to Token--><path codeLine="97" d="M1501.73,545.93 C1647.94,573.696 1878.14,616.925 2077.5,657 C2087.06,658.922 2096.98,660.9538 2106.99,663.0157 " fill="none" id="usantatecla.tictactoe.views.graphics.GameView-to-Token" style="stroke: #A80036; stroke-width: 1.0; stroke-dasharray: 7.0,7.0;"/><polygon fill="#A80036" points="2111.91,664.03,2103.9084,658.2877,2107.0139,663.0159,2102.2858,666.1214,2111.91,664.03" style="stroke: #A80036; stroke-width: 1.0;"/><!--MD5=[98cf87417c05d1144534cc8a81add82f]
link usantatecla.tictactoe.views.graphics.GameView to Token--><path codeLine="99" d="M1501.53,541.019 C1654.7,568.402 1900.97,614.477 2112.5,657 C2121.17,658.7434 2130.14,660.5773 2139.11,662.442 " fill="none" id="usantatecla.tictactoe.views.graphics.GameView-to-Token-1" style="stroke: #A80036; stroke-width: 1.0; stroke-dasharray: 7.0,7.0;"/><polygon fill="#A80036" points="2144.09,663.4807,2136.105,657.7153,2139.1969,662.4524,2134.4598,665.5443,2144.09,663.4807" style="stroke: #A80036; stroke-width: 1.0;"/><!--MD5=[5318572cb9563cc2a8eee4583b3e722d]
link usantatecla.tictactoe.views.graphics.GameView to Message--><path codeLine="98" d="M1501.52,523.247 C1789.6,537.753 2448.11,577.257 2996.5,657 C3007.38,658.5816 3018.67,660.4737 3029.93,662.5258 " fill="none" id="usantatecla.tictactoe.views.graphics.GameView-to-Message" style="stroke: #A80036; stroke-width: 1.0; stroke-dasharray: 7.0,7.0;"/><polygon fill="#A80036" points="3035.1,663.4794,3026.9829,657.9015,3030.1843,662.5653,3025.5204,665.7667,3035.1,663.4794" style="stroke: #A80036; stroke-width: 1.0;"/><!--MD5=[758c6929156f68dc2a57a56ceec73e2f]
link usantatecla.tictactoe.views.graphics.GameView to TokenView--><path codeLine="100" d="M1501.8,535.382 C1699.95,561.115 2063.24,609.455 2372.5,657 C2384.03,658.7721 2395.97,660.6694 2407.96,662.6155 " fill="none" id="usantatecla.tictactoe.views.graphics.GameView-to-TokenView" style="stroke: #A80036; stroke-width: 1.0; stroke-dasharray: 7.0,7.0;"/><polygon fill="#A80036" points="2413.1,663.4523,2404.856,658.0637,2408.1644,662.6522,2403.5759,665.9606,2413.1,663.4523" style="stroke: #A80036; stroke-width: 1.0;"/><!--MD5=[6c8d3c87249668b954d84bc523a396e8]
link usantatecla.tictactoe.views.graphics.PlayView to Coordinate--><path codeLine="114" d="M1111.41,367.609 C1118.83,369.904 1126.22,372.051 1133.5,374 C1300.78,418.796 1355.64,375.123 1518.5,434 C1675.55,490.778 1838.97,608.203 1907.34,660.4497 " fill="none" id="usantatecla.tictactoe.views.graphics.PlayView-to-Coordinate" style="stroke: #A80036; stroke-width: 1.0; stroke-dasharray: 7.0,7.0;"/><polygon fill="#A80036" points="1911.31,663.4934,1906.6015,654.843,1907.3421,660.4511,1901.7339,661.1917,1911.31,663.4934" style="stroke: #A80036; stroke-width: 1.0;"/><!--MD5=[a8673888d72c14a40b053689fc6ce082]
link usantatecla.tictactoe.views.graphics.PlayView to Game--><path codeLine="115" d="M1121.3895,370.8713 C1121.3895,370.8713 1129.84,373.114 1133.5,374 C1376.77,432.945 1447.22,389.244 1693.5,434 C1978.48,485.789 2040.71,539.006 2324.5,597 C2498.9,632.641 2545.38,625.046 2720.5,657 C2727.19,658.2214 2734.06,659.5251 2740.98,660.8787 " fill="none" id="usantatecla.tictactoe.views.graphics.PlayView-Game" style="stroke: #A80036; stroke-width: 1.0;"/><polygon fill="#A80036" points="2753.9,663.4474,2745.85,657.7731,2748.9955,662.4748,2744.2938,665.6203,2753.9,663.4474" style="stroke: #A80036; stroke-width: 1.0;"/><line style="stroke: #A80036; stroke-width: 1.0;" x1="2748.9955" x2="2741.145" y1="662.4748" y2="660.9115"/><polygon fill="#A80036" points="1109.84,367.614,1114.529,373.0925,1121.3895,370.8713,1116.7005,365.3928,1109.84,367.614" style="stroke: #A80036; stroke-width: 1.0;"/><!--MD5=[b3495437272db327a9b9b923f04dd7a8]
link usantatecla.tictactoe.views.graphics.PlayView to usantatecla.tictactoe.views.graphics.GameView--><path codeLine="116" d="M1085.3547,373.1481 C1085.3547,373.1481 1200.32,433.525 1250.53,459.898 " fill="none" id="usantatecla.tictactoe.views.graphics.PlayView-usantatecla.tictactoe.views.graphics.GameView" style="stroke: #A80036; stroke-width: 1.0;"/><polygon fill="#A80036" points="1262.07,465.956,1255.9612,458.2305,1257.6431,463.6316,1252.2421,465.3135,1262.07,465.956" style="stroke: #A80036; stroke-width: 1.0;"/><line style="stroke: #A80036; stroke-width: 1.0;" x1="1257.6431" x2="1250.555" y1="463.6316" y2="459.911"/><polygon fill="#A80036" points="1074.73,367.57,1078.183,373.9006,1085.3547,373.1481,1081.9017,366.8175,1074.73,367.57" style="stroke: #A80036; stroke-width: 1.0;"/><!--MD5=[f3d7744a6e95e1fac8426b2aebf895cf]
link usantatecla.tictactoe.views.graphics.PlayView to usantatecla.tictactoe.views.graphics.CoordinateMoveView--><path codeLine="117" d="M986.8466,378.8415 C986.8466,378.8415 1005.677,425.582 1014.31,447.02 " fill="none" id="usantatecla.tictactoe.views.graphics.PlayView-usantatecla.tictactoe.views.graphics.CoordinateMoveView" style="stroke: #A80036; stroke-width: 1.0;"/><polygon fill="#A80036" points="1019.27,459.334,1019.6173,449.4913,1017.4017,454.6962,1012.1968,452.4806,1019.27,459.334" style="stroke: #A80036; stroke-width: 1.0;"/><line style="stroke: #A80036; stroke-width: 1.0;" x1="1017.4017" x2="1014.42" y1="454.6962" y2="447.276"/><polygon fill="#A80036" points="982.362,367.711,980.8942,374.7711,986.8466,378.8415,988.3145,371.7814,982.362,367.711" style="stroke: #A80036; stroke-width: 1.0;"/><!--MD5=[0a8b17c9ad724979d7f062b72e066227]
link usantatecla.tictactoe.views.graphics.PlayView to usantatecla.tictactoe.views.graphics.CoordinatePutView--><path codeLine="118" d="M787.2346,355.638 C787.2346,355.638 641.606,404.403 573.5,434 C568.52,436.164 563.485,438.437 558.428,440.793 " fill="none" id="usantatecla.tictactoe.views.graphics.PlayView-usantatecla.tictactoe.views.graphics.CoordinatePutView" style="stroke: #A80036; stroke-width: 1.0;"/><polygon fill="#A80036" points="546.604,446.426,556.4495,446.167,551.1181,444.2758,553.0092,438.9445,546.604,446.426" style="stroke: #A80036; stroke-width: 1.0;"/><line style="stroke: #A80036; stroke-width: 1.0;" x1="551.1181" x2="558.3405" y1="444.2758" y2="440.8345"/><polygon fill="#A80036" points="798.674,352.013,791.746,350.0124,787.2346,355.638,794.1626,357.6386,798.674,352.013" style="stroke: #A80036; stroke-width: 1.0;"/><!--MD5=[584a2e294dd01d43d10c5db7e7182e37]
link usantatecla.tictactoe.views.graphics.PlayView to ErrorView--><path codeLine="119" d="M786.9856,349.8069 C786.9856,349.8069 712.08,367.034 676.5,374 C500.514,408.456 425.264,332.393 277.5,434 C200.993,486.609 160.528,594.341 143.864,650.5576 " fill="none" id="usantatecla.tictactoe.views.graphics.PlayView-ErrorView" style="stroke: #A80036; stroke-width: 1.0;"/><polygon fill="#A80036" points="140.22,663.3528,146.5317,655.7922,141.5893,658.5439,138.8376,653.6014,140.22,663.3528" style="stroke: #A80036; stroke-width: 1.0;"/><line style="stroke: #A80036; stroke-width: 1.0;" x1="141.5893" x2="143.78" y1="658.5439" y2="650.85"/><polygon fill="#A80036" points="798.658,347.022,791.8935,344.5237,786.9856,349.8069,793.7501,352.3052,798.658,347.022" style="stroke: #A80036; stroke-width: 1.0;"/><!--MD5=[2a50657cc2d2c7beda207052c8f608ce]
link usantatecla.tictactoe.views.graphics.PlayView to Message--><path codeLine="120" d="M1119.8657,370.7119 C1119.8657,370.7119 1129.34,373.081 1133.5,374 C1525.37,460.64 1637.41,375.783 2034.5,434 C2414.45,489.704 2857.22,607.202 3046.26,659.9188 " fill="none" id="usantatecla.tictactoe.views.graphics.PlayView-Message" style="stroke: #A80036; stroke-width: 1.0;"/><polygon fill="#A80036" points="3058.89,663.4486,3051.2993,657.1732,3054.0746,662.1024,3049.1454,664.8778,3058.89,663.4486" style="stroke: #A80036; stroke-width: 1.0;"/><line style="stroke: #A80036; stroke-width: 1.0;" x1="3054.0746" x2="3046.365" y1="662.1024" y2="659.9482"/><polygon fill="#A80036" points="1108.28,367.586,1113.0309,373.0109,1119.8657,370.7119,1115.1148,365.2871,1108.28,367.586" style="stroke: #A80036; stroke-width: 1.0;"/><!--MD5=[c14b38660ba676fcd822fa493a280da6]
link usantatecla.tictactoe.views.graphics.ResumeView to Message--><path codeLine="131" d="M1501.76,307.903 C1813.6,315.599 2890.76,348.219 3016.5,434 C3094.54,487.242 3124.91,604.525 3135.06,658.4153 " fill="none" id="usantatecla.tictactoe.views.graphics.ResumeView-to-Message" style="stroke: #A80036; stroke-width: 1.0; stroke-dasharray: 7.0,7.0;"/><polygon fill="#A80036" points="3135.98,663.4283,3138.2876,653.8536,3135.0764,658.5106,3130.4193,655.2994,3135.98,663.4283" style="stroke: #A80036; stroke-width: 1.0;"/><!--MD5=[26333d93fb12993633c63a7e6e2712e2]
link usantatecla.tictactoe.views.graphics.StartView to Game--><path codeLine="140" d="M1271.7771,349.3253 C1271.7771,349.3253 1300.45,368.499 1315.5,374 C1527.3,451.421 2110.11,377.798 2328.5,434 C2518.33,482.853 2722.06,600.809 2811.67,656.4699 " fill="none" id="usantatecla.tictactoe.views.graphics.StartView-Game" style="stroke: #A80036; stroke-width: 1.0;"/><polygon fill="#A80036" points="2822.79,663.4191,2817.2761,655.2584,2818.5494,660.7701,2813.0377,662.0434,2822.79,663.4191" style="stroke: #A80036; stroke-width: 1.0;"/><line style="stroke: #A80036; stroke-width: 1.0;" x1="2818.5494" x2="2811.76" y1="660.7701" y2="656.5274"/><polygon fill="#A80036" points="1262.27,342.003,1264.5828,348.8332,1271.7771,349.3253,1269.4643,342.4951,1262.27,342.003" style="stroke: #A80036; stroke-width: 1.0;"/><!--MD5=[1a580dfaf81f9d2e169be64ae6fa8616]
link usantatecla.tictactoe.views.graphics.StartView to Message--><path codeLine="141" d="M1262.2,342.212 C1277.52,354.65 1296.16,367.156 1315.5,374 C1640.87,489.164 2555.41,286.612 2867.5,434 C2955.18,475.405 2940.17,532.425 3012.5,597 C3039.03,620.69 3071.93,643.722 3097.59,660.4884 " fill="none" id="usantatecla.tictactoe.views.graphics.StartView-to-Message" style="stroke: #A80036; stroke-width: 1.0; stroke-dasharray: 7.0,7.0;"/><polygon fill="#A80036" points="3101.97,663.3342,3096.5891,655.0852,3097.7729,660.6168,3092.2413,661.8006,3101.97,663.3342" style="stroke: #A80036; stroke-width: 1.0;"/><!--MD5=[d3fe2519a526687b7797eb4ee1d741b9]
link usantatecla.tictactoe.views.graphics.StartView to usantatecla.tictactoe.views.graphics.ChoosePlayersView--><path codeLine="142" d="M1183.25,342.259 C1168.39,353.8 1150.96,365.709 1133.5,374 C1034.18,421.166 996.572,395.725 893.5,434 C889.219,435.59 884.902,437.262 880.568,439.003 " fill="none" id="usantatecla.tictactoe.views.graphics.StartView-to-usantatecla.tictactoe.views.graphics.ChoosePlayersView" style="stroke: #A80036; stroke-width: 1.0; stroke-dasharray: 7.0,7.0;"/><polygon fill="#A80036" points="875.859,440.917,885.7028,441.233,880.4909,439.034,882.6899,433.822,875.859,440.917" style="stroke: #A80036; stroke-width: 1.0;"/><!--MD5=[4dcb2f16afad519a420be42b3e5c40b5]
link usantatecla.tictactoe.views.graphics.StartView to usantatecla.tictactoe.views.graphics.GameView--><path codeLine="143" d="M1247.14,342.318 C1267.63,375.168 1298.05,423.957 1321.28,461.221 " fill="none" id="usantatecla.tictactoe.views.graphics.StartView-to-usantatecla.tictactoe.views.graphics.GameView" style="stroke: #A80036; stroke-width: 1.0; stroke-dasharray: 7.0,7.0;"/><polygon fill="#A80036" points="1324.08,465.707,1322.712,455.9536,1321.4344,461.4643,1315.9237,460.1866,1324.08,465.707" style="stroke: #A80036; stroke-width: 1.0;"/><!--MD5=[0e40d1cd135789d98866396898ecf6bf]
reverse link View to usantatecla.tictactoe.views.graphics.View--><path d="M1224.5,75.109 C1224.5,88.312 1224.5,102.537 1224.5,114.65 " fill="none" id="View-backto-usantatecla.tictactoe.views.graphics.View" style="stroke: #A80036; stroke-width: 1.0;"/><polygon fill="none" points="1217.5,75.038,1224.5,55.038,1231.5,75.037,1217.5,75.038" style="stroke: #A80036; stroke-width: 1.0;"/><!--MD5=[b72d89be80a1dc0c6bc4ba861d4dd04c]
link usantatecla.tictactoe.views.graphics.View to usantatecla.tictactoe.views.graphics.PlayView--><path codeLine="153" d="M1163.9422,182.2185 C1163.9422,182.2185 1104.02,217.569 1073.23,235.733 " fill="none" id="usantatecla.tictactoe.views.graphics.View-usantatecla.tictactoe.views.graphics.PlayView" style="stroke: #A80036; stroke-width: 1.0;"/><polygon fill="#A80036" points="1061.96,242.383,1071.7445,241.2588,1066.2674,239.8441,1067.6822,234.367,1061.96,242.383" style="stroke: #A80036; stroke-width: 1.0;"/><line style="stroke: #A80036; stroke-width: 1.0;" x1="1066.2674" x2="1073.15" y1="239.8441" y2="235.778"/><polygon fill="#A80036" points="1174.28,176.125,1167.08,175.7258,1163.9422,182.2185,1171.1423,182.6177,1174.28,176.125" style="stroke: #A80036; stroke-width: 1.0;"/><!--MD5=[103883c805dc60bf4b7ab746f5ea4d7b]
link usantatecla.tictactoe.views.graphics.View to usantatecla.tictactoe.views.graphics.StartView--><path codeLine="154" d="M1224.5,188.125 C1224.5,188.125 1224.5,233.761 1224.5,254.672 " fill="none" id="usantatecla.tictactoe.views.graphics.View-usantatecla.tictactoe.views.graphics.StartView" style="stroke: #A80036; stroke-width: 1.0;"/><polygon fill="#A80036" points="1224.5,267.872,1228.5,258.872,1224.5,262.872,1220.5,258.872,1224.5,267.872" style="stroke: #A80036; stroke-width: 1.0;"/><line style="stroke: #A80036; stroke-width: 1.0;" x1="1224.5" x2="1224.5" y1="262.872" y2="254.8725"/><polygon fill="#A80036" points="1224.5,176.125,1220.5,182.125,1224.5,188.125,1228.5,182.125,1224.5,176.125" style="stroke: #A80036; stroke-width: 1.0;"/><!--MD5=[c65659ba34af1f7a643a1a77e2b618ce]
link usantatecla.tictactoe.views.graphics.View to usantatecla.tictactoe.views.graphics.ResumeView--><path codeLine="155" d="M1260.8,176.125 C1289.24,199.33 1329.28,232.011 1361.77,258.525 " fill="none" id="usantatecla.tictactoe.views.graphics.View-to-usantatecla.tictactoe.views.graphics.ResumeView" style="stroke: #A80036; stroke-width: 1.0; stroke-dasharray: 7.0,7.0;"/><polygon fill="#A80036" points="1365.7,261.727,1361.25,252.9408,1361.824,258.5684,1356.1963,259.1424,1365.7,261.727" style="stroke: #A80036; stroke-width: 1.0;"/><!--MD5=[1ef470578e9e8de1381b6218ec19db7b]
@startuml
class usantatecla.tictactoe.views.graphics.ChoosePlayersView {

	- {static} String ACCEPT
	- String playersNumber

	ChoosePlayersView(final JRootPane rootPane)
	resetPlayersNumber()
	String getPlayersNumber()
	+ actionPerformed(final ActionEvent event)
	+ keyTyped(KeyEvent e)
	+ keyPressed(KeyEvent e)
	+ keyReleased(KeyEvent e)

}

class ErrorView as "usantatecla.tictactoe.views.ErrorView"
class Coordinate as "usantatecla.tictactoe.models.Coordinate"




usantatecla.tictactoe.views.graphics.ChoosePlayersView ..> usantatecla.tictactoe.views.graphics.Constraints
usantatecla.tictactoe.views.graphics.ChoosePlayersView ..> ErrorView

class usantatecla.tictactoe.views.graphics.Constraints {

	Constraints(int gridX, int gridY, int gridWidth, int gridHeight)

}


class usantatecla.tictactoe.views.graphics.CoordinateMoveView extends usantatecla.tictactoe.views.graphics.CoordinateView {

    {static} String ENTER_COORDINATE_TO_REMOVE

    CoordinateMoveView()
    resetCoordinates()
    Coordinate[] getCoordinates()
    + actionPerformed(final ActionEvent event)

}

class Error as "usantatecla.tictactoe.models.Error"
class ErrorView as "usantatecla.tictactoe.views.ErrorView"


usantatecla.tictactoe.views.graphics.CoordinateMoveView ..> Error
usantatecla.tictactoe.views.graphics.CoordinateMoveView ..> ErrorView
usantatecla.tictactoe.views.graphics.CoordinateMoveView *- -> "2" Coordinate

class usantatecla.tictactoe.views.graphics.CoordinatePutView extends usantatecla.tictactoe.views.graphics.CoordinateView {

	CoordinatePutView()
	resetCoordinate()
	Coordinate getCoordinate()
	+ actionPerformed(final ActionEvent event)
	+ keyTyped(KeyEvent e)
	+ keyPressed(KeyEvent e)
	+ keyReleased(KeyEvent e)

}

class Coordinate as "usantatecla.tictactoe.models.Coordinate"

usantatecla.tictactoe.views.graphics.CoordinatePutView ..> ErrorView
usantatecla.tictactoe.views.graphics.CoordinatePutView *- -> Coordinate

class usantatecla.tictactoe.views.graphics.CoordinateView  {

	# {static} String ENTER_COORDINATE_TO_PUT
	# {static} String ACCEPT

	CoordinateView()
	+ {abstract} actionPerformed(final ActionEvent event)
	+ keyTyped(KeyEvent e)
	+ keyPressed(KeyEvent e)
	+ keyReleased(KeyEvent e)
}


class usantatecla.tictactoe.views.graphics.GameView  {

    GameView(Game game)
    write()
    - printRowBoard(int row)
    - String getSquareBoardText(int row, int column)

}

class Game as "usantatecla.tictactoe.models.Game"
class Token as "usantatecla.tictactoe.models.Token"
class Message as "usantatecla.tictactoe.views.Message"
class TokenView as "usantatecla.tictactoe.views.console.TokenView"

usantatecla.tictactoe.views.graphics.GameView *- -> Game
usantatecla.tictactoe.views.graphics.GameView ..> Coordinate
usantatecla.tictactoe.views.graphics.GameView ..> Token
usantatecla.tictactoe.views.graphics.GameView ..> Message
usantatecla.tictactoe.views.graphics.GameView ..> Token
usantatecla.tictactoe.views.graphics.GameView ..> TokenView

class usantatecla.tictactoe.views.graphics.PlayView {

	{static final} String ENTER_COORDINATE_TO_PUT
	{static final} String ENTER_COORDINATE_TO_REMOVE

	PlayView(Game game)
	interact()
	- put()
	- move()

}

usantatecla.tictactoe.views.graphics.PlayView ..> Coordinate
usantatecla.tictactoe.views.graphics.PlayView *- -> Game
usantatecla.tictactoe.views.graphics.PlayView *- -> usantatecla.tictactoe.views.graphics.GameView
usantatecla.tictactoe.views.graphics.PlayView *- -> usantatecla.tictactoe.views.graphics.CoordinateMoveView
usantatecla.tictactoe.views.graphics.PlayView *- -> usantatecla.tictactoe.views.graphics.CoordinatePutView
usantatecla.tictactoe.views.graphics.PlayView *- -> ErrorView
usantatecla.tictactoe.views.graphics.PlayView *- -> Message

class usantatecla.tictactoe.views.graphics.ResumeView {

	- boolean newGame;

	ResumeView()
	boolean isResumedGame()

}

usantatecla.tictactoe.views.graphics.ResumeView ..> Message

class usantatecla.tictactoe.views.graphics.StartView  {

    StartView(Game game)
    interact()

}

usantatecla.tictactoe.views.graphics.StartView *- -> Game
usantatecla.tictactoe.views.graphics.StartView ..> Message
usantatecla.tictactoe.views.graphics.StartView ..> usantatecla.tictactoe.views.graphics.ChoosePlayersView
usantatecla.tictactoe.views.graphics.StartView ..> usantatecla.tictactoe.views.graphics.GameView

class usantatecla.tictactoe.views.graphics.View extends View {

	+ View(Game game)

}

class View as "usantatecla.tictactoe.views.View"

usantatecla.tictactoe.views.graphics.View *- -> usantatecla.tictactoe.views.graphics.PlayView
usantatecla.tictactoe.views.graphics.View *- -> usantatecla.tictactoe.views.graphics.StartView
usantatecla.tictactoe.views.graphics.View ..> usantatecla.tictactoe.views.graphics.ResumeView
@enduml

PlantUML version 1.2020.20beta8(Unknown compile time)
(GPL source distribution)
Java Runtime: Java(TM) SE Runtime Environment
JVM: Java HotSpot(TM) 64-Bit Server VM
Default Encoding: UTF-8
Language: en
Country: US
--></g></svg>