<?xml version="1.0" encoding="UTF-8" standalone="no"?><svg xmlns="http://www.w3.org/2000/svg" xmlns:xlink="http://www.w3.org/1999/xlink" contentScriptType="application/ecmascript" contentStyleType="text/css" height="920px" preserveAspectRatio="none" style="width:1194px;height:920px;" version="1.1" viewBox="0 0 1194 920" width="1194px" zoomAndPan="magnify"><defs><filter height="300%" id="f7ovc30atkgiu" width="300%" x="-1" y="-1"><feGaussianBlur result="blurOut" stdDeviation="2.0"/><feColorMatrix in="blurOut" result="blurOut2" type="matrix" values="0 0 0 0 0 0 0 0 0 0 0 0 0 0 0 0 0 0 .4 0"/><feOffset dx="4.0" dy="4.0" in="blurOut2" result="blurOut3"/><feBlend in="SourceGraphic" in2="blurOut3" mode="normal"/></filter></defs><g><!--MD5=[198f6a9fd1874ab7e84c2d286edb44b0]
cluster usantatecla.mastermind.views.graphics--><polygon fill="#FFFFFF" filter="url(#f7ovc30atkgiu)" points="16,80,348,80,355,102.2969,901,102.2969,901,913,16,913,16,80" style="stroke: #000000; stroke-width: 1.5;"/><line style="stroke: #000000; stroke-width: 1.5;" x1="16" x2="355" y1="102.2969" y2="102.2969"/><text fill="#000000" font-family="sans-serif" font-size="14" font-weight="bold" lengthAdjust="spacingAndGlyphs" textLength="326" x="20" y="94.9951">usantatecla.mastermind.views.graphics</text><!--MD5=[5f3e1853aaa8558cdc9ad3895ee81f2b]
class usantatecla.mastermind.views.graphics.AttemptsView--><rect codeLine="4" fill="#FEFECE" filter="url(#f7ovc30atkgiu)" height="60.8047" id="usantatecla.mastermind.views.graphics.AttemptsView" style="stroke: #A80036; stroke-width: 1.5;" width="128" x="757" y="140.5"/><ellipse cx="777.85" cy="156.5" fill="#ADD1B2" rx="11" ry="11" style="stroke: #A80036; stroke-width: 1.0;"/><path d="M780.1938,152.1719 C779.2563,151.7344 778.6625,151.5938 777.7875,151.5938 C775.1625,151.5938 773.1625,153.6719 773.1625,156.3906 L773.1625,157.5156 C773.1625,160.0938 775.2719,161.9844 778.1625,161.9844 C779.3813,161.9844 780.5375,161.6875 781.2875,161.1406 C781.8656,160.7344 782.1938,160.2813 782.1938,159.8906 C782.1938,159.4375 781.8031,159.0469 781.3344,159.0469 C781.1156,159.0469 780.9125,159.125 780.725,159.3125 C780.2719,159.7969 780.2719,159.7969 780.0844,159.8906 C779.6625,160.1563 778.975,160.2813 778.2094,160.2813 C776.1625,160.2813 774.8656,159.1875 774.8656,157.4844 L774.8656,156.3906 C774.8656,154.6094 776.1156,153.2969 777.85,153.2969 C778.4281,153.2969 779.0375,153.4531 779.5063,153.7031 C779.9906,153.9844 780.1625,154.2031 780.2563,154.6094 C780.3188,155.0156 780.35,155.1406 780.4906,155.2656 C780.6313,155.4063 780.8656,155.5156 781.0844,155.5156 C781.35,155.5156 781.6156,155.375 781.7875,155.1563 C781.8969,155 781.9281,154.8125 781.9281,154.3906 L781.9281,152.9688 C781.9281,152.5313 781.9125,152.4063 781.8188,152.25 C781.6625,151.9844 781.3813,151.8438 781.0844,151.8438 C780.7875,151.8438 780.5844,151.9375 780.3656,152.25 L780.1938,152.1719 Z "/><text fill="#000000" font-family="sans-serif" font-size="12" lengthAdjust="spacingAndGlyphs" textLength="83" x="793.15" y="160.6543">AttemptsView</text><line style="stroke: #A80036; stroke-width: 1.5;" x1="758" x2="884" y1="172.5" y2="172.5"/><line style="stroke: #A80036; stroke-width: 1.5;" x1="758" x2="884" y1="180.5" y2="180.5"/><polygon fill="#4177AF" points="768,187.5,764,193.5,772,193.5" style="stroke: #1963A0; stroke-width: 1.0;"/><text fill="#000000" font-family="sans-serif" font-size="11" lengthAdjust="spacingAndGlyphs" textLength="102" x="777" y="194.7104">AttemptsView(int)</text><!--MD5=[da937fb33dbbc15bcf7b23eaba624e6f]
class usantatecla.mastermind.views.graphics.ColorView--><rect codeLine="8" fill="#FEFECE" filter="url(#f7ovc30atkgiu)" height="86.4141" id="usantatecla.mastermind.views.graphics.ColorView" style="stroke: #A80036; stroke-width: 1.5;" width="156" x="566" y="128"/><ellipse cx="609.35" cy="144" fill="#ADD1B2" rx="11" ry="11" style="stroke: #A80036; stroke-width: 1.0;"/><path d="M611.6938,139.6719 C610.7563,139.2344 610.1625,139.0938 609.2875,139.0938 C606.6625,139.0938 604.6625,141.1719 604.6625,143.8906 L604.6625,145.0156 C604.6625,147.5938 606.7719,149.4844 609.6625,149.4844 C610.8813,149.4844 612.0375,149.1875 612.7875,148.6406 C613.3656,148.2344 613.6938,147.7813 613.6938,147.3906 C613.6938,146.9375 613.3031,146.5469 612.8344,146.5469 C612.6156,146.5469 612.4125,146.625 612.225,146.8125 C611.7719,147.2969 611.7719,147.2969 611.5844,147.3906 C611.1625,147.6563 610.475,147.7813 609.7094,147.7813 C607.6625,147.7813 606.3656,146.6875 606.3656,144.9844 L606.3656,143.8906 C606.3656,142.1094 607.6156,140.7969 609.35,140.7969 C609.9281,140.7969 610.5375,140.9531 611.0063,141.2031 C611.4906,141.4844 611.6625,141.7031 611.7563,142.1094 C611.8188,142.5156 611.85,142.6406 611.9906,142.7656 C612.1313,142.9063 612.3656,143.0156 612.5844,143.0156 C612.85,143.0156 613.1156,142.875 613.2875,142.6563 C613.3969,142.5 613.4281,142.3125 613.4281,141.8906 L613.4281,140.4688 C613.4281,140.0313 613.4125,139.9063 613.3188,139.75 C613.1625,139.4844 612.8813,139.3438 612.5844,139.3438 C612.2875,139.3438 612.0844,139.4375 611.8656,139.75 L611.6938,139.6719 Z "/><text fill="#000000" font-family="sans-serif" font-size="12" lengthAdjust="spacingAndGlyphs" textLength="61" x="629.65" y="148.1543">ColorView</text><line style="stroke: #A80036; stroke-width: 1.5;" x1="567" x2="721" y1="160" y2="160"/><line style="stroke: #A80036; stroke-width: 1.5;" x1="567" x2="721" y1="168" y2="168"/><polygon fill="#4177AF" points="577,175,573,181,581,181" style="stroke: #1963A0; stroke-width: 1.0;"/><text fill="#000000" font-family="sans-serif" font-size="11" lengthAdjust="spacingAndGlyphs" textLength="65" x="586" y="182.2104">ColorView()</text><polygon fill="#4177AF" points="577,187.8047,573,193.8047,581,193.8047" style="stroke: #1963A0; stroke-width: 1.0;"/><text fill="#000000" font-family="sans-serif" font-size="11" lengthAdjust="spacingAndGlyphs" textLength="94" x="586" y="195.0151">ColorView(Color)</text><polygon fill="#FFFF44" points="577,199.6094,581,203.6094,577,207.6094,573,203.6094" style="stroke: #B38D22; stroke-width: 1.0;"/><text fill="#000000" font-family="sans-serif" font-size="11" lengthAdjust="spacingAndGlyphs" textLength="130" x="586" y="207.8198">resultInitials(int): String</text><!--MD5=[673552eece3ab092884d0657ca5032f5]
class usantatecla.mastermind.views.graphics.Constraints--><rect codeLine="13" fill="#FEFECE" filter="url(#f7ovc30atkgiu)" height="60.8047" id="usantatecla.mastermind.views.graphics.Constraints" style="stroke: #A80036; stroke-width: 1.5;" width="174" x="32" y="810.5"/><ellipse cx="81.25" cy="826.5" fill="#ADD1B2" rx="11" ry="11" style="stroke: #A80036; stroke-width: 1.0;"/><path d="M83.5938,822.1719 C82.6563,821.7344 82.0625,821.5938 81.1875,821.5938 C78.5625,821.5938 76.5625,823.6719 76.5625,826.3906 L76.5625,827.5156 C76.5625,830.0938 78.6719,831.9844 81.5625,831.9844 C82.7813,831.9844 83.9375,831.6875 84.6875,831.1406 C85.2656,830.7344 85.5938,830.2813 85.5938,829.8906 C85.5938,829.4375 85.2031,829.0469 84.7344,829.0469 C84.5156,829.0469 84.3125,829.125 84.125,829.3125 C83.6719,829.7969 83.6719,829.7969 83.4844,829.8906 C83.0625,830.1563 82.375,830.2813 81.6094,830.2813 C79.5625,830.2813 78.2656,829.1875 78.2656,827.4844 L78.2656,826.3906 C78.2656,824.6094 79.5156,823.2969 81.25,823.2969 C81.8281,823.2969 82.4375,823.4531 82.9063,823.7031 C83.3906,823.9844 83.5625,824.2031 83.6563,824.6094 C83.7188,825.0156 83.75,825.1406 83.8906,825.2656 C84.0313,825.4063 84.2656,825.5156 84.4844,825.5156 C84.75,825.5156 85.0156,825.375 85.1875,825.1563 C85.2969,825 85.3281,824.8125 85.3281,824.3906 L85.3281,822.9688 C85.3281,822.5313 85.3125,822.4063 85.2188,822.25 C85.0625,821.9844 84.7813,821.8438 84.4844,821.8438 C84.1875,821.8438 83.9844,821.9375 83.7656,822.25 L83.5938,822.1719 Z "/><text fill="#000000" font-family="sans-serif" font-size="12" lengthAdjust="spacingAndGlyphs" textLength="67" x="101.75" y="830.6543">Constraints</text><line style="stroke: #A80036; stroke-width: 1.5;" x1="33" x2="205" y1="842.5" y2="842.5"/><line style="stroke: #A80036; stroke-width: 1.5;" x1="33" x2="205" y1="850.5" y2="850.5"/><polygon fill="#4177AF" points="43,857.5,39,863.5,47,863.5" style="stroke: #1963A0; stroke-width: 1.0;"/><text fill="#000000" font-family="sans-serif" font-size="11" lengthAdjust="spacingAndGlyphs" textLength="148" x="52" y="864.7104">Constraints(int, int, int, int)</text><!--MD5=[7e7dc5cbc8668901c521772882b3b4ea]
class usantatecla.mastermind.views.graphics.GameView--><rect codeLine="17" fill="#FEFECE" filter="url(#f7ovc30atkgiu)" height="176.0469" id="usantatecla.mastermind.views.graphics.GameView" style="stroke: #A80036; stroke-width: 1.5;" width="348" x="309" y="287"/><ellipse cx="446.75" cy="303" fill="#ADD1B2" rx="11" ry="11" style="stroke: #A80036; stroke-width: 1.0;"/><path d="M449.0938,298.6719 C448.1563,298.2344 447.5625,298.0938 446.6875,298.0938 C444.0625,298.0938 442.0625,300.1719 442.0625,302.8906 L442.0625,304.0156 C442.0625,306.5938 444.1719,308.4844 447.0625,308.4844 C448.2813,308.4844 449.4375,308.1875 450.1875,307.6406 C450.7656,307.2344 451.0938,306.7813 451.0938,306.3906 C451.0938,305.9375 450.7031,305.5469 450.2344,305.5469 C450.0156,305.5469 449.8125,305.625 449.625,305.8125 C449.1719,306.2969 449.1719,306.2969 448.9844,306.3906 C448.5625,306.6563 447.875,306.7813 447.1094,306.7813 C445.0625,306.7813 443.7656,305.6875 443.7656,303.9844 L443.7656,302.8906 C443.7656,301.1094 445.0156,299.7969 446.75,299.7969 C447.3281,299.7969 447.9375,299.9531 448.4063,300.2031 C448.8906,300.4844 449.0625,300.7031 449.1563,301.1094 C449.2188,301.5156 449.25,301.6406 449.3906,301.7656 C449.5313,301.9063 449.7656,302.0156 449.9844,302.0156 C450.25,302.0156 450.5156,301.875 450.6875,301.6563 C450.7969,301.5 450.8281,301.3125 450.8281,300.8906 L450.8281,299.4688 C450.8281,299.0313 450.8125,298.9063 450.7188,298.75 C450.5625,298.4844 450.2813,298.3438 449.9844,298.3438 C449.6875,298.3438 449.4844,298.4375 449.2656,298.75 L449.0938,298.6719 Z "/><text fill="#000000" font-family="sans-serif" font-size="12" lengthAdjust="spacingAndGlyphs" textLength="64" x="467.25" y="307.1543">GameView</text><line style="stroke: #A80036; stroke-width: 1.5;" x1="310" x2="656" y1="319" y2="319"/><rect fill="none" height="6" style="stroke: #C82930; stroke-width: 1.0;" width="6" x="317" y="327"/><text fill="#000000" font-family="sans-serif" font-size="11" lengthAdjust="spacingAndGlyphs" text-decoration="underline" textLength="110" x="329" y="333.2104">GAME_OVER: String</text><rect fill="none" height="6" style="stroke: #C82930; stroke-width: 1.0;" width="6" x="317" y="339.8047"/><text fill="#000000" font-family="sans-serif" font-size="11" lengthAdjust="spacingAndGlyphs" textLength="279" x="329" y="346.0151">secretCombinationView: SecretCombinationView</text><rect fill="none" height="6" style="stroke: #C82930; stroke-width: 1.0;" width="6" x="317" y="352.6094"/><text fill="#000000" font-family="sans-serif" font-size="11" lengthAdjust="spacingAndGlyphs" textLength="322" x="329" y="358.8198">proposedCombinationsView: ProposedCombinationsView</text><rect fill="none" height="6" style="stroke: #C82930; stroke-width: 1.0;" width="6" x="317" y="365.4141"/><text fill="#000000" font-family="sans-serif" font-size="11" lengthAdjust="spacingAndGlyphs" textLength="300" x="329" y="371.6245">proposalCombinationView: ProposalCombinationView</text><line style="stroke: #A80036; stroke-width: 1.5;" x1="310" x2="656" y1="378.2188" y2="378.2188"/><polygon fill="#4177AF" points="320,385.2188,316,391.2188,324,391.2188" style="stroke: #1963A0; stroke-width: 1.0;"/><text fill="#000000" font-family="sans-serif" font-size="11" lengthAdjust="spacingAndGlyphs" textLength="71" x="329" y="392.4292">GameView()</text><rect fill="#F24D5C" height="6" style="stroke: #C82930; stroke-width: 1.0;" width="6" x="317" y="399.0234"/><text fill="#000000" font-family="sans-serif" font-size="11" lengthAdjust="spacingAndGlyphs" textLength="36" x="329" y="405.2339">clear()</text><polygon fill="#4177AF" points="320,410.8281,316,416.8281,324,416.8281" style="stroke: #1963A0; stroke-width: 1.0;"/><text fill="#000000" font-family="sans-serif" font-size="11" lengthAdjust="spacingAndGlyphs" textLength="68" x="329" y="418.0386">start(Game)</text><polygon fill="#4177AF" points="320,423.6328,316,429.6328,324,429.6328" style="stroke: #1963A0; stroke-width: 1.0;"/><text fill="#000000" font-family="sans-serif" font-size="11" lengthAdjust="spacingAndGlyphs" textLength="142" x="329" y="430.8433">propose(Game): boolean</text><rect fill="#F24D5C" height="6" style="stroke: #C82930; stroke-width: 1.0;" width="6" x="317" y="437.4375"/><text fill="#000000" font-family="sans-serif" font-size="11" lengthAdjust="spacingAndGlyphs" textLength="210" x="329" y="443.6479">proposeCombination(Game, int[]): int</text><rect fill="#F24D5C" height="6" style="stroke: #C82930; stroke-width: 1.0;" width="6" x="317" y="450.2422"/><text fill="#000000" font-family="sans-serif" font-size="11" lengthAdjust="spacingAndGlyphs" textLength="186" x="329" y="456.4526">drawGameOver(Game): boolean</text><!--MD5=[bc999c10004c6ac6cce7192a23f3928f]
class usantatecla.mastermind.views.graphics.ProposedCombinationsView--><rect codeLine="67" fill="#FEFECE" filter="url(#f7ovc30atkgiu)" height="86.4141" id="usantatecla.mastermind.views.graphics.ProposedCombinationsView" style="stroke: #A80036; stroke-width: 1.5;" width="226" x="551" y="581"/><ellipse cx="577.7" cy="597" fill="#ADD1B2" rx="11" ry="11" style="stroke: #A80036; stroke-width: 1.0;"/><path d="M580.0438,592.6719 C579.1063,592.2344 578.5125,592.0938 577.6375,592.0938 C575.0125,592.0938 573.0125,594.1719 573.0125,596.8906 L573.0125,598.0156 C573.0125,600.5938 575.1219,602.4844 578.0125,602.4844 C579.2313,602.4844 580.3875,602.1875 581.1375,601.6406 C581.7156,601.2344 582.0438,600.7813 582.0438,600.3906 C582.0438,599.9375 581.6531,599.5469 581.1844,599.5469 C580.9656,599.5469 580.7625,599.625 580.575,599.8125 C580.1219,600.2969 580.1219,600.2969 579.9344,600.3906 C579.5125,600.6563 578.825,600.7813 578.0594,600.7813 C576.0125,600.7813 574.7156,599.6875 574.7156,597.9844 L574.7156,596.8906 C574.7156,595.1094 575.9656,593.7969 577.7,593.7969 C578.2781,593.7969 578.8875,593.9531 579.3563,594.2031 C579.8406,594.4844 580.0125,594.7031 580.1063,595.1094 C580.1688,595.5156 580.2,595.6406 580.3406,595.7656 C580.4813,595.9063 580.7156,596.0156 580.9344,596.0156 C581.2,596.0156 581.4656,595.875 581.6375,595.6563 C581.7469,595.5 581.7781,595.3125 581.7781,594.8906 L581.7781,593.4688 C581.7781,593.0313 581.7625,592.9063 581.6688,592.75 C581.5125,592.4844 581.2313,592.3438 580.9344,592.3438 C580.6375,592.3438 580.4344,592.4375 580.2156,592.75 L580.0438,592.6719 Z "/><text fill="#000000" font-family="sans-serif" font-size="12" lengthAdjust="spacingAndGlyphs" textLength="168" x="594.3" y="601.1543">ProposedCombinationsView</text><line style="stroke: #A80036; stroke-width: 1.5;" x1="552" x2="776" y1="613" y2="613"/><rect fill="none" height="6" style="stroke: #C82930; stroke-width: 1.0;" width="6" x="559" y="621"/><text fill="#000000" font-family="sans-serif" font-size="11" lengthAdjust="spacingAndGlyphs" textLength="75" x="571" y="627.2104">game: Game</text><line style="stroke: #A80036; stroke-width: 1.5;" x1="552" x2="776" y1="633.8047" y2="633.8047"/><polygon fill="#4177AF" points="562,640.8047,558,646.8047,566,646.8047" style="stroke: #1963A0; stroke-width: 1.0;"/><text fill="#000000" font-family="sans-serif" font-size="11" lengthAdjust="spacingAndGlyphs" textLength="200" x="571" y="648.0151">ProposedCombinationsView(Game)</text><polygon fill="#4177AF" points="562,653.6094,558,659.6094,566,659.6094" style="stroke: #1963A0; stroke-width: 1.0;"/><text fill="#000000" font-family="sans-serif" font-size="11" lengthAdjust="spacingAndGlyphs" textLength="29" x="571" y="660.8198">add()</text><!--MD5=[0a51c4a8256f6c42e2d45b907f1fde85]
class usantatecla.mastermind.views.graphics.SecretCombinationView--><rect codeLine="99" fill="#FEFECE" filter="url(#f7ovc30atkgiu)" height="99.2188" id="usantatecla.mastermind.views.graphics.SecretCombinationView" style="stroke: #A80036; stroke-width: 1.5;" width="175" x="32.5" y="574.5"/><ellipse cx="47.5" cy="590.5" fill="#ADD1B2" rx="11" ry="11" style="stroke: #A80036; stroke-width: 1.0;"/><path d="M49.8438,586.1719 C48.9063,585.7344 48.3125,585.5938 47.4375,585.5938 C44.8125,585.5938 42.8125,587.6719 42.8125,590.3906 L42.8125,591.5156 C42.8125,594.0938 44.9219,595.9844 47.8125,595.9844 C49.0313,595.9844 50.1875,595.6875 50.9375,595.1406 C51.5156,594.7344 51.8438,594.2813 51.8438,593.8906 C51.8438,593.4375 51.4531,593.0469 50.9844,593.0469 C50.7656,593.0469 50.5625,593.125 50.375,593.3125 C49.9219,593.7969 49.9219,593.7969 49.7344,593.8906 C49.3125,594.1563 48.625,594.2813 47.8594,594.2813 C45.8125,594.2813 44.5156,593.1875 44.5156,591.4844 L44.5156,590.3906 C44.5156,588.6094 45.7656,587.2969 47.5,587.2969 C48.0781,587.2969 48.6875,587.4531 49.1563,587.7031 C49.6406,587.9844 49.8125,588.2031 49.9063,588.6094 C49.9688,589.0156 50,589.1406 50.1406,589.2656 C50.2813,589.4063 50.5156,589.5156 50.7344,589.5156 C51,589.5156 51.2656,589.375 51.4375,589.1563 C51.5469,589 51.5781,588.8125 51.5781,588.3906 L51.5781,586.9688 C51.5781,586.5313 51.5625,586.4063 51.4688,586.25 C51.3125,585.9844 51.0313,585.8438 50.7344,585.8438 C50.4375,585.8438 50.2344,585.9375 50.0156,586.25 L49.8438,586.1719 Z "/><text fill="#000000" font-family="sans-serif" font-size="12" lengthAdjust="spacingAndGlyphs" textLength="143" x="61.5" y="594.6543">SecretCombinationView</text><line style="stroke: #A80036; stroke-width: 1.5;" x1="33.5" x2="206.5" y1="606.5" y2="606.5"/><rect fill="none" height="6" style="stroke: #C82930; stroke-width: 1.0;" width="6" x="40.5" y="614.5"/><text fill="#000000" font-family="sans-serif" font-size="11" lengthAdjust="spacingAndGlyphs" text-decoration="underline" textLength="70" x="52.5" y="620.7104">TITLE: String</text><rect fill="none" height="6" style="stroke: #C82930; stroke-width: 1.0;" width="6" x="40.5" y="627.3047"/><text fill="#000000" font-family="sans-serif" font-size="11" lengthAdjust="spacingAndGlyphs" textLength="63" x="52.5" y="633.5151">title: JLabel</text><rect fill="none" height="6" style="stroke: #C82930; stroke-width: 1.0;" width="6" x="40.5" y="640.1094"/><text fill="#000000" font-family="sans-serif" font-size="11" lengthAdjust="spacingAndGlyphs" textLength="148" x="52.5" y="646.3198">secretCombination: JLabel</text><line style="stroke: #A80036; stroke-width: 1.5;" x1="33.5" x2="206.5" y1="652.9141" y2="652.9141"/><polygon fill="#4177AF" points="43.5,659.9141,39.5,665.9141,47.5,665.9141" style="stroke: #1963A0; stroke-width: 1.0;"/><text fill="#000000" font-family="sans-serif" font-size="11" lengthAdjust="spacingAndGlyphs" textLength="145" x="52.5" y="667.1245">SecretCombinationView()</text><!--MD5=[a92297da4ed579d5d3387aae7a98faa1]
class usantatecla.mastermind.views.graphics.ProposalCombinationView--><rect codeLine="51" fill="#FEFECE" filter="url(#f7ovc30atkgiu)" height="201.6563" id="usantatecla.mastermind.views.graphics.ProposalCombinationView" style="stroke: #A80036; stroke-width: 1.5;" width="236" x="243" y="523"/><ellipse cx="280.05" cy="539" fill="#ADD1B2" rx="11" ry="11" style="stroke: #A80036; stroke-width: 1.0;"/><path d="M282.3938,534.6719 C281.4563,534.2344 280.8625,534.0938 279.9875,534.0938 C277.3625,534.0938 275.3625,536.1719 275.3625,538.8906 L275.3625,540.0156 C275.3625,542.5938 277.4719,544.4844 280.3625,544.4844 C281.5813,544.4844 282.7375,544.1875 283.4875,543.6406 C284.0656,543.2344 284.3938,542.7813 284.3938,542.3906 C284.3938,541.9375 284.0031,541.5469 283.5344,541.5469 C283.3156,541.5469 283.1125,541.625 282.925,541.8125 C282.4719,542.2969 282.4719,542.2969 282.2844,542.3906 C281.8625,542.6563 281.175,542.7813 280.4094,542.7813 C278.3625,542.7813 277.0656,541.6875 277.0656,539.9844 L277.0656,538.8906 C277.0656,537.1094 278.3156,535.7969 280.05,535.7969 C280.6281,535.7969 281.2375,535.9531 281.7063,536.2031 C282.1906,536.4844 282.3625,536.7031 282.4563,537.1094 C282.5188,537.5156 282.55,537.6406 282.6906,537.7656 C282.8313,537.9063 283.0656,538.0156 283.2844,538.0156 C283.55,538.0156 283.8156,537.875 283.9875,537.6563 C284.0969,537.5 284.1281,537.3125 284.1281,536.8906 L284.1281,535.4688 C284.1281,535.0313 284.1125,534.9063 284.0188,534.75 C283.8625,534.4844 283.5813,534.3438 283.2844,534.3438 C282.9875,534.3438 282.7844,534.4375 282.5656,534.75 L282.3938,534.6719 Z "/><text fill="#000000" font-family="sans-serif" font-size="12" lengthAdjust="spacingAndGlyphs" textLength="155" x="298.95" y="543.1543">ProposalCombinationView</text><line style="stroke: #A80036; stroke-width: 1.5;" x1="244" x2="478" y1="555" y2="555"/><rect fill="none" height="6" style="stroke: #C82930; stroke-width: 1.0;" width="6" x="251" y="563"/><text fill="#000000" font-family="sans-serif" font-size="11" lengthAdjust="spacingAndGlyphs" text-decoration="underline" textLength="84" x="263" y="569.2104">ACCEPT: String</text><rect fill="none" height="6" style="stroke: #C82930; stroke-width: 1.0;" width="6" x="251" y="575.8047"/><text fill="#000000" font-family="sans-serif" font-size="11" lengthAdjust="spacingAndGlyphs" textLength="69" x="263" y="582.0151">label: JLabel</text><rect fill="none" height="6" style="stroke: #C82930; stroke-width: 1.0;" width="6" x="251" y="588.6094"/><text fill="#000000" font-family="sans-serif" font-size="11" lengthAdjust="spacingAndGlyphs" textLength="113" x="263" y="594.8198">textField: JTextField</text><rect fill="none" height="6" style="stroke: #C82930; stroke-width: 1.0;" width="6" x="251" y="601.4141"/><text fill="#000000" font-family="sans-serif" font-size="11" lengthAdjust="spacingAndGlyphs" textLength="83" x="263" y="607.6245">button: JButton</text><rect fill="none" height="6" style="stroke: #C82930; stroke-width: 1.0;" width="6" x="251" y="614.2188"/><text fill="#000000" font-family="sans-serif" font-size="11" lengthAdjust="spacingAndGlyphs" textLength="99" x="263" y="620.4292">characters: String</text><line style="stroke: #A80036; stroke-width: 1.5;" x1="244" x2="478" y1="627.0234" y2="627.0234"/><polygon fill="#4177AF" points="254,634.0234,250,640.0234,258,640.0234" style="stroke: #1963A0; stroke-width: 1.0;"/><text fill="#000000" font-family="sans-serif" font-size="11" lengthAdjust="spacingAndGlyphs" textLength="210" x="263" y="641.2339">ProposalCombinationView(JRootPane)</text><ellipse cx="254" cy="650.8281" fill="#84BE84" rx="3" ry="3" style="stroke: #038048; stroke-width: 1.0;"/><text fill="#000000" font-family="sans-serif" font-size="11" lengthAdjust="spacingAndGlyphs" textLength="129" x="263" y="654.0386">keyPressed(KeyEvent)</text><ellipse cx="254" cy="663.6328" fill="#84BE84" rx="3" ry="3" style="stroke: #038048; stroke-width: 1.0;"/><text fill="#000000" font-family="sans-serif" font-size="11" lengthAdjust="spacingAndGlyphs" textLength="138" x="263" y="666.8433">keyReleased(KeyEvent)</text><ellipse cx="254" cy="676.4375" fill="#84BE84" rx="3" ry="3" style="stroke: #038048; stroke-width: 1.0;"/><text fill="#000000" font-family="sans-serif" font-size="11" lengthAdjust="spacingAndGlyphs" textLength="120" x="263" y="679.6479">keyTyped(KeyEvent)</text><polygon fill="#4177AF" points="254,685.2422,250,691.2422,258,691.2422" style="stroke: #1963A0; stroke-width: 1.0;"/><text fill="#000000" font-family="sans-serif" font-size="11" lengthAdjust="spacingAndGlyphs" textLength="99" x="263" y="692.4526">resetCharacters()</text><polygon fill="#4177AF" points="254,698.0469,250,704.0469,258,704.0469" style="stroke: #1963A0; stroke-width: 1.0;"/><text fill="#000000" font-family="sans-serif" font-size="11" lengthAdjust="spacingAndGlyphs" textLength="128" x="263" y="705.2573">getCharacters(): String</text><ellipse cx="254" cy="714.8516" fill="#84BE84" rx="3" ry="3" style="stroke: #038048; stroke-width: 1.0;"/><text fill="#000000" font-family="sans-serif" font-size="11" lengthAdjust="spacingAndGlyphs" textLength="169" x="263" y="718.062">actionPerformed(ActionEvent)</text><!--MD5=[7abc73296995ddb3ef73e08bc922f56c]
class usantatecla.mastermind.views.graphics.ProposedCombinationView--><rect codeLine="79" fill="#FEFECE" filter="url(#f7ovc30atkgiu)" height="112.0234" id="usantatecla.mastermind.views.graphics.ProposedCombinationView" style="stroke: #A80036; stroke-width: 1.5;" width="336" x="531" y="785"/><ellipse cx="614.25" cy="801" fill="#ADD1B2" rx="11" ry="11" style="stroke: #A80036; stroke-width: 1.0;"/><path d="M616.5938,796.6719 C615.6563,796.2344 615.0625,796.0938 614.1875,796.0938 C611.5625,796.0938 609.5625,798.1719 609.5625,800.8906 L609.5625,802.0156 C609.5625,804.5938 611.6719,806.4844 614.5625,806.4844 C615.7813,806.4844 616.9375,806.1875 617.6875,805.6406 C618.2656,805.2344 618.5938,804.7813 618.5938,804.3906 C618.5938,803.9375 618.2031,803.5469 617.7344,803.5469 C617.5156,803.5469 617.3125,803.625 617.125,803.8125 C616.6719,804.2969 616.6719,804.2969 616.4844,804.3906 C616.0625,804.6563 615.375,804.7813 614.6094,804.7813 C612.5625,804.7813 611.2656,803.6875 611.2656,801.9844 L611.2656,800.8906 C611.2656,799.1094 612.5156,797.7969 614.25,797.7969 C614.8281,797.7969 615.4375,797.9531 615.9063,798.2031 C616.3906,798.4844 616.5625,798.7031 616.6563,799.1094 C616.7188,799.5156 616.75,799.6406 616.8906,799.7656 C617.0313,799.9063 617.2656,800.0156 617.4844,800.0156 C617.75,800.0156 618.0156,799.875 618.1875,799.6563 C618.2969,799.5 618.3281,799.3125 618.3281,798.8906 L618.3281,797.4688 C618.3281,797.0313 618.3125,796.9063 618.2188,796.75 C618.0625,796.4844 617.7813,796.3438 617.4844,796.3438 C617.1875,796.3438 616.9844,796.4375 616.7656,796.75 L616.5938,796.6719 Z "/><text fill="#000000" font-family="sans-serif" font-size="12" lengthAdjust="spacingAndGlyphs" textLength="161" x="634.75" y="805.1543">ProposedCombinationView</text><line style="stroke: #A80036; stroke-width: 1.5;" x1="532" x2="866" y1="817" y2="817"/><rect fill="none" height="6" style="stroke: #C82930; stroke-width: 1.0;" width="6" x="539" y="825"/><text fill="#000000" font-family="sans-serif" font-size="11" lengthAdjust="spacingAndGlyphs" textLength="310" x="551" y="831.2104">proposedCombinationView: ProposedCombinationView</text><rect fill="none" height="6" style="stroke: #C82930; stroke-width: 1.0;" width="6" x="539" y="837.8047"/><text fill="#000000" font-family="sans-serif" font-size="11" lengthAdjust="spacingAndGlyphs" textLength="60" x="551" y="844.0151">error: Error</text><line style="stroke: #A80036; stroke-width: 1.5;" x1="532" x2="866" y1="850.6094" y2="850.6094"/><polygon fill="#4177AF" points="542,857.6094,538,863.6094,546,863.6094" style="stroke: #1963A0; stroke-width: 1.0;"/><text fill="#000000" font-family="sans-serif" font-size="11" lengthAdjust="spacingAndGlyphs" textLength="310" x="551" y="864.8198">ProposedCombinationView(ProposedCombinationView)</text><polygon fill="#4177AF" points="542,870.4141,538,876.4141,546,876.4141" style="stroke: #1963A0; stroke-width: 1.0;"/><text fill="#000000" font-family="sans-serif" font-size="11" lengthAdjust="spacingAndGlyphs" textLength="67" x="551" y="877.6245">read(String)</text><ellipse cx="542" cy="887.2188" fill="#84BE84" rx="3" ry="3" style="stroke: #038048; stroke-width: 1.0;"/><text fill="#000000" font-family="sans-serif" font-size="11" lengthAdjust="spacingAndGlyphs" textLength="98" x="551" y="890.4292">isValid(): boolean</text><!--MD5=[ae451f0c8a51e9325f6a8f55da885dd7]
class usantatecla.mastermind.views.graphics.GraphicsView--><rect codeLine="37" fill="#FEFECE" filter="url(#f7ovc30atkgiu)" height="112.0234" id="usantatecla.mastermind.views.graphics.GraphicsView" style="stroke: #A80036; stroke-width: 1.5;" width="157" x="373.5" y="115"/><ellipse cx="407.85" cy="131" fill="#ADD1B2" rx="11" ry="11" style="stroke: #A80036; stroke-width: 1.0;"/><path d="M410.1938,126.6719 C409.2563,126.2344 408.6625,126.0938 407.7875,126.0938 C405.1625,126.0938 403.1625,128.1719 403.1625,130.8906 L403.1625,132.0156 C403.1625,134.5938 405.2719,136.4844 408.1625,136.4844 C409.3813,136.4844 410.5375,136.1875 411.2875,135.6406 C411.8656,135.2344 412.1938,134.7813 412.1938,134.3906 C412.1938,133.9375 411.8031,133.5469 411.3344,133.5469 C411.1156,133.5469 410.9125,133.625 410.725,133.8125 C410.2719,134.2969 410.2719,134.2969 410.0844,134.3906 C409.6625,134.6563 408.975,134.7813 408.2094,134.7813 C406.1625,134.7813 404.8656,133.6875 404.8656,131.9844 L404.8656,130.8906 C404.8656,129.1094 406.1156,127.7969 407.85,127.7969 C408.4281,127.7969 409.0375,127.9531 409.5063,128.2031 C409.9906,128.4844 410.1625,128.7031 410.2563,129.1094 C410.3188,129.5156 410.35,129.6406 410.4906,129.7656 C410.6313,129.9063 410.8656,130.0156 411.0844,130.0156 C411.35,130.0156 411.6156,129.875 411.7875,129.6563 C411.8969,129.5 411.9281,129.3125 411.9281,128.8906 L411.9281,127.4688 C411.9281,127.0313 411.9125,126.9063 411.8188,126.75 C411.6625,126.4844 411.3813,126.3438 411.0844,126.3438 C410.7875,126.3438 410.5844,126.4375 410.3656,126.75 L410.1938,126.6719 Z "/><text fill="#000000" font-family="sans-serif" font-size="12" lengthAdjust="spacingAndGlyphs" textLength="82" x="426.15" y="135.1543">GraphicsView</text><line style="stroke: #A80036; stroke-width: 1.5;" x1="374.5" x2="529.5" y1="147" y2="147"/><rect fill="none" height="6" style="stroke: #C82930; stroke-width: 1.0;" width="6" x="381.5" y="155"/><text fill="#000000" font-family="sans-serif" font-size="11" lengthAdjust="spacingAndGlyphs" textLength="131" x="393.5" y="161.2104">gameView: GameView</text><line style="stroke: #A80036; stroke-width: 1.5;" x1="374.5" x2="529.5" y1="167.8047" y2="167.8047"/><ellipse cx="384.5" cy="178.8047" fill="#84BE84" rx="3" ry="3" style="stroke: #038048; stroke-width: 1.0;"/><text fill="#000000" font-family="sans-serif" font-size="11" lengthAdjust="spacingAndGlyphs" textLength="120" x="393.5" y="182.0151">GraphicsView(Game)</text><polygon fill="#FFFF44" points="384.5,186.6094,388.5,190.6094,384.5,194.6094,380.5,190.6094" style="stroke: #B38D22; stroke-width: 1.0;"/><text fill="#000000" font-family="sans-serif" font-size="11" lengthAdjust="spacingAndGlyphs" textLength="33" x="393.5" y="194.8198">start()</text><polygon fill="#FFFF44" points="384.5,199.4141,388.5,203.4141,384.5,207.4141,380.5,203.4141" style="stroke: #B38D22; stroke-width: 1.0;"/><text fill="#000000" font-family="sans-serif" font-size="11" lengthAdjust="spacingAndGlyphs" textLength="107" x="393.5" y="207.6245">propose(): boolean</text><polygon fill="#FFFF44" points="384.5,212.2188,388.5,216.2188,384.5,220.2188,380.5,216.2188" style="stroke: #B38D22; stroke-width: 1.0;"/><text fill="#000000" font-family="sans-serif" font-size="11" lengthAdjust="spacingAndGlyphs" textLength="130" x="393.5" y="220.4292">isNewGame(): boolean</text><!--MD5=[9c37dfb6f104d7b46d37d4654c0dc095]
class usantatecla.mastermind.views.graphics.ResumeDialog--><rect codeLine="93" fill="#FEFECE" filter="url(#f7ovc30atkgiu)" height="86.4141" id="usantatecla.mastermind.views.graphics.ResumeDialog" style="stroke: #A80036; stroke-width: 1.5;" width="156" x="692" y="332"/><ellipse cx="724.1" cy="348" fill="#ADD1B2" rx="11" ry="11" style="stroke: #A80036; stroke-width: 1.0;"/><path d="M726.4438,343.6719 C725.5063,343.2344 724.9125,343.0938 724.0375,343.0938 C721.4125,343.0938 719.4125,345.1719 719.4125,347.8906 L719.4125,349.0156 C719.4125,351.5938 721.5219,353.4844 724.4125,353.4844 C725.6313,353.4844 726.7875,353.1875 727.5375,352.6406 C728.1156,352.2344 728.4438,351.7813 728.4438,351.3906 C728.4438,350.9375 728.0531,350.5469 727.5844,350.5469 C727.3656,350.5469 727.1625,350.625 726.975,350.8125 C726.5219,351.2969 726.5219,351.2969 726.3344,351.3906 C725.9125,351.6563 725.225,351.7813 724.4594,351.7813 C722.4125,351.7813 721.1156,350.6875 721.1156,348.9844 L721.1156,347.8906 C721.1156,346.1094 722.3656,344.7969 724.1,344.7969 C724.6781,344.7969 725.2875,344.9531 725.7563,345.2031 C726.2406,345.4844 726.4125,345.7031 726.5063,346.1094 C726.5688,346.5156 726.6,346.6406 726.7406,346.7656 C726.8813,346.9063 727.1156,347.0156 727.3344,347.0156 C727.6,347.0156 727.8656,346.875 728.0375,346.6563 C728.1469,346.5 728.1781,346.3125 728.1781,345.8906 L728.1781,344.4688 C728.1781,344.0313 728.1625,343.9063 728.0688,343.75 C727.9125,343.4844 727.6313,343.3438 727.3344,343.3438 C727.0375,343.3438 726.8344,343.4375 726.6156,343.75 L726.4438,343.6719 Z "/><text fill="#000000" font-family="sans-serif" font-size="12" lengthAdjust="spacingAndGlyphs" textLength="86" x="741.9" y="352.1543">ResumeDialog</text><line style="stroke: #A80036; stroke-width: 1.5;" x1="693" x2="847" y1="364" y2="364"/><rect fill="none" height="6" style="stroke: #C82930; stroke-width: 1.0;" width="6" x="700" y="372"/><text fill="#000000" font-family="sans-serif" font-size="11" lengthAdjust="spacingAndGlyphs" textLength="112" x="712" y="378.2104">newGame: boolean</text><line style="stroke: #A80036; stroke-width: 1.5;" x1="693" x2="847" y1="384.8047" y2="384.8047"/><polygon fill="#4177AF" points="703,391.8047,699,397.8047,707,397.8047" style="stroke: #1963A0; stroke-width: 1.0;"/><text fill="#000000" font-family="sans-serif" font-size="11" lengthAdjust="spacingAndGlyphs" textLength="91" x="712" y="399.0151">ResumeDialog()</text><polygon fill="#4177AF" points="703,404.6094,699,410.6094,707,410.6094" style="stroke: #1963A0; stroke-width: 1.0;"/><text fill="#000000" font-family="sans-serif" font-size="11" lengthAdjust="spacingAndGlyphs" textLength="130" x="712" y="411.8198">isNewGame(): boolean</text><!--MD5=[a16c5f61f35be9f46e6187ca7704d092]
class usantatecla.mastermind.views.graphics.TurnView--><rect fill="#FEFECE" filter="url(#f7ovc30atkgiu)" height="48" id="usantatecla.mastermind.views.graphics.TurnView" style="stroke: #A80036; stroke-width: 1.5;" width="87" x="241.5" y="817"/><ellipse cx="256.5" cy="833" fill="#ADD1B2" rx="11" ry="11" style="stroke: #A80036; stroke-width: 1.0;"/><path d="M258.8438,828.6719 C257.9063,828.2344 257.3125,828.0938 256.4375,828.0938 C253.8125,828.0938 251.8125,830.1719 251.8125,832.8906 L251.8125,834.0156 C251.8125,836.5938 253.9219,838.4844 256.8125,838.4844 C258.0313,838.4844 259.1875,838.1875 259.9375,837.6406 C260.5156,837.2344 260.8438,836.7813 260.8438,836.3906 C260.8438,835.9375 260.4531,835.5469 259.9844,835.5469 C259.7656,835.5469 259.5625,835.625 259.375,835.8125 C258.9219,836.2969 258.9219,836.2969 258.7344,836.3906 C258.3125,836.6563 257.625,836.7813 256.8594,836.7813 C254.8125,836.7813 253.5156,835.6875 253.5156,833.9844 L253.5156,832.8906 C253.5156,831.1094 254.7656,829.7969 256.5,829.7969 C257.0781,829.7969 257.6875,829.9531 258.1563,830.2031 C258.6406,830.4844 258.8125,830.7031 258.9063,831.1094 C258.9688,831.5156 259,831.6406 259.1406,831.7656 C259.2813,831.9063 259.5156,832.0156 259.7344,832.0156 C260,832.0156 260.2656,831.875 260.4375,831.6563 C260.5469,831.5 260.5781,831.3125 260.5781,830.8906 L260.5781,829.4688 C260.5781,829.0313 260.5625,828.9063 260.4688,828.75 C260.3125,828.4844 260.0313,828.3438 259.7344,828.3438 C259.4375,828.3438 259.2344,828.4375 259.0156,828.75 L258.8438,828.6719 Z "/><text fill="#000000" font-family="sans-serif" font-size="12" lengthAdjust="spacingAndGlyphs" textLength="55" x="270.5" y="837.1543">TurnView</text><line style="stroke: #A80036; stroke-width: 1.5;" x1="242.5" x2="327.5" y1="849" y2="849"/><line style="stroke: #A80036; stroke-width: 1.5;" x1="242.5" x2="327.5" y1="857" y2="857"/><!--MD5=[524a1cd33cc0f551bad139f1b3197a2d]
class usantatecla.mastermind.views.graphics.ResultView--><rect codeLine="88" fill="#FEFECE" filter="url(#f7ovc30atkgiu)" height="73.6094" id="usantatecla.mastermind.views.graphics.ResultView" style="stroke: #A80036; stroke-width: 1.5;" width="132" x="364" y="804"/><ellipse cx="394.75" cy="820" fill="#ADD1B2" rx="11" ry="11" style="stroke: #A80036; stroke-width: 1.0;"/><path d="M397.0938,815.6719 C396.1563,815.2344 395.5625,815.0938 394.6875,815.0938 C392.0625,815.0938 390.0625,817.1719 390.0625,819.8906 L390.0625,821.0156 C390.0625,823.5938 392.1719,825.4844 395.0625,825.4844 C396.2813,825.4844 397.4375,825.1875 398.1875,824.6406 C398.7656,824.2344 399.0938,823.7813 399.0938,823.3906 C399.0938,822.9375 398.7031,822.5469 398.2344,822.5469 C398.0156,822.5469 397.8125,822.625 397.625,822.8125 C397.1719,823.2969 397.1719,823.2969 396.9844,823.3906 C396.5625,823.6563 395.875,823.7813 395.1094,823.7813 C393.0625,823.7813 391.7656,822.6875 391.7656,820.9844 L391.7656,819.8906 C391.7656,818.1094 393.0156,816.7969 394.75,816.7969 C395.3281,816.7969 395.9375,816.9531 396.4063,817.2031 C396.8906,817.4844 397.0625,817.7031 397.1563,818.1094 C397.2188,818.5156 397.25,818.6406 397.3906,818.7656 C397.5313,818.9063 397.7656,819.0156 397.9844,819.0156 C398.25,819.0156 398.5156,818.875 398.6875,818.6563 C398.7969,818.5 398.8281,818.3125 398.8281,817.8906 L398.8281,816.4688 C398.8281,816.0313 398.8125,815.9063 398.7188,815.75 C398.5625,815.4844 398.2813,815.3438 397.9844,815.3438 C397.6875,815.3438 397.4844,815.4375 397.2656,815.75 L397.0938,815.6719 Z "/><text fill="#000000" font-family="sans-serif" font-size="12" lengthAdjust="spacingAndGlyphs" textLength="65" x="412.25" y="824.1543">ResultView</text><line style="stroke: #A80036; stroke-width: 1.5;" x1="365" x2="495" y1="836" y2="836"/><rect fill="none" height="6" style="stroke: #C82930; stroke-width: 1.0;" width="6" x="372" y="844"/><text fill="#000000" font-family="sans-serif" font-size="11" lengthAdjust="spacingAndGlyphs" textLength="74" x="384" y="850.2104">result: Result</text><line style="stroke: #A80036; stroke-width: 1.5;" x1="365" x2="495" y1="856.8047" y2="856.8047"/><polygon fill="#4177AF" points="375,863.8047,371,869.8047,379,869.8047" style="stroke: #1963A0; stroke-width: 1.0;"/><text fill="#000000" font-family="sans-serif" font-size="11" lengthAdjust="spacingAndGlyphs" textLength="106" x="384" y="871.0151">ResultView(Result)</text><!--MD5=[b6dcce5e5ef3c84b0b048d11301373dd]
class Game--><rect codeLine="1" fill="#FEFECE" filter="url(#f7ovc30atkgiu)" height="48" id="Game" style="stroke: #A80036; stroke-width: 1.5;" width="260" x="920" y="817"/><ellipse cx="935" cy="833" fill="#ADD1B2" rx="11" ry="11" style="stroke: #A80036; stroke-width: 1.0;"/><path d="M937.3438,828.6719 C936.4063,828.2344 935.8125,828.0938 934.9375,828.0938 C932.3125,828.0938 930.3125,830.1719 930.3125,832.8906 L930.3125,834.0156 C930.3125,836.5938 932.4219,838.4844 935.3125,838.4844 C936.5313,838.4844 937.6875,838.1875 938.4375,837.6406 C939.0156,837.2344 939.3438,836.7813 939.3438,836.3906 C939.3438,835.9375 938.9531,835.5469 938.4844,835.5469 C938.2656,835.5469 938.0625,835.625 937.875,835.8125 C937.4219,836.2969 937.4219,836.2969 937.2344,836.3906 C936.8125,836.6563 936.125,836.7813 935.3594,836.7813 C933.3125,836.7813 932.0156,835.6875 932.0156,833.9844 L932.0156,832.8906 C932.0156,831.1094 933.2656,829.7969 935,829.7969 C935.5781,829.7969 936.1875,829.9531 936.6563,830.2031 C937.1406,830.4844 937.3125,830.7031 937.4063,831.1094 C937.4688,831.5156 937.5,831.6406 937.6406,831.7656 C937.7813,831.9063 938.0156,832.0156 938.2344,832.0156 C938.5,832.0156 938.7656,831.875 938.9375,831.6563 C939.0469,831.5 939.0781,831.3125 939.0781,830.8906 L939.0781,829.4688 C939.0781,829.0313 939.0625,828.9063 938.9688,828.75 C938.8125,828.4844 938.5313,828.3438 938.2344,828.3438 C937.9375,828.3438 937.7344,828.4375 937.5156,828.75 L937.3438,828.6719 Z "/><text fill="#000000" font-family="sans-serif" font-size="12" lengthAdjust="spacingAndGlyphs" textLength="228" x="949" y="837.1543">usantatecla.mastermind.models.Game</text><line style="stroke: #A80036; stroke-width: 1.5;" x1="921" x2="1179" y1="849" y2="849"/><line style="stroke: #A80036; stroke-width: 1.5;" x1="921" x2="1179" y1="857" y2="857"/><!--MD5=[c045e12321b83266d36d22b9096c24ea]
class View--><rect codeLine="44" fill="#FEFECE" filter="url(#f7ovc30atkgiu)" height="48" id="View" style="stroke: #A80036; stroke-width: 1.5;" width="244" x="330" y="7"/><ellipse cx="345" cy="23" fill="#ADD1B2" rx="11" ry="11" style="stroke: #A80036; stroke-width: 1.0;"/><path d="M347.3438,18.6719 C346.4063,18.2344 345.8125,18.0938 344.9375,18.0938 C342.3125,18.0938 340.3125,20.1719 340.3125,22.8906 L340.3125,24.0156 C340.3125,26.5938 342.4219,28.4844 345.3125,28.4844 C346.5313,28.4844 347.6875,28.1875 348.4375,27.6406 C349.0156,27.2344 349.3438,26.7813 349.3438,26.3906 C349.3438,25.9375 348.9531,25.5469 348.4844,25.5469 C348.2656,25.5469 348.0625,25.625 347.875,25.8125 C347.4219,26.2969 347.4219,26.2969 347.2344,26.3906 C346.8125,26.6563 346.125,26.7813 345.3594,26.7813 C343.3125,26.7813 342.0156,25.6875 342.0156,23.9844 L342.0156,22.8906 C342.0156,21.1094 343.2656,19.7969 345,19.7969 C345.5781,19.7969 346.1875,19.9531 346.6563,20.2031 C347.1406,20.4844 347.3125,20.7031 347.4063,21.1094 C347.4688,21.5156 347.5,21.6406 347.6406,21.7656 C347.7813,21.9063 348.0156,22.0156 348.2344,22.0156 C348.5,22.0156 348.7656,21.875 348.9375,21.6563 C349.0469,21.5 349.0781,21.3125 349.0781,20.8906 L349.0781,19.4688 C349.0781,19.0313 349.0625,18.9063 348.9688,18.75 C348.8125,18.4844 348.5313,18.3438 348.2344,18.3438 C347.9375,18.3438 347.7344,18.4375 347.5156,18.75 L347.3438,18.6719 Z "/><text fill="#000000" font-family="sans-serif" font-size="12" lengthAdjust="spacingAndGlyphs" textLength="212" x="359" y="27.1543">usantatecla.mastermind.views.View</text><line style="stroke: #A80036; stroke-width: 1.5;" x1="331" x2="573" y1="39" y2="39"/><line style="stroke: #A80036; stroke-width: 1.5;" x1="331" x2="573" y1="47" y2="47"/><!--MD5=[2cf294f0035086b20124541417c28bb0]
link usantatecla.mastermind.views.graphics.GameView to usantatecla.mastermind.views.graphics.ProposedCombinationsView--><path codeLine="30" d="M553.9064,472.7628 C553.9064,472.7628 604.756,542.153 625.29,570.175 " fill="none" id="usantatecla.mastermind.views.graphics.GameView-usantatecla.mastermind.views.graphics.ProposedCombinationsView" style="stroke: #A80036; stroke-width: 1.0;"/><polygon fill="#A80036" points="633.168,580.925,631.0751,571.3011,630.2128,576.8918,624.622,576.0295,633.168,580.925" style="stroke: #A80036; stroke-width: 1.0;"/><line style="stroke: #A80036; stroke-width: 1.0;" x1="630.2128" x2="625.4835" y1="576.8918" y2="570.4385"/><polygon fill="#A80036" points="546.814,463.083,547.1336,470.287,553.9064,472.7628,553.5868,465.5588,546.814,463.083" style="stroke: #A80036; stroke-width: 1.0;"/><!--MD5=[d471d9df9d9b6b159d6bd4f3cb7c5575]
link usantatecla.mastermind.views.graphics.GameView to usantatecla.mastermind.views.graphics.SecretCombinationView--><path codeLine="31" d="M305.8377,469.309 C305.8377,469.309 249.905,504.479 225,523 C208.181,535.508 191.196,550.458 175.931,564.938 " fill="none" id="usantatecla.mastermind.views.graphics.GameView-usantatecla.mastermind.views.graphics.SecretCombinationView" style="stroke: #A80036; stroke-width: 1.0;"/><polygon fill="#A80036" points="166.167,574.356,175.4216,570.9867,169.7657,570.8848,169.8677,565.2288,166.167,574.356" style="stroke: #A80036; stroke-width: 1.0;"/><line style="stroke: #A80036; stroke-width: 1.0;" x1="169.7657" x2="175.524" y1="570.8848" y2="565.331"/><polygon fill="#A80036" points="316.133,463.144,308.9304,462.7948,305.8377,469.309,313.0404,469.6583,316.133,463.144" style="stroke: #A80036; stroke-width: 1.0;"/><!--MD5=[c270350af9218ddec0e2ae1354e49943]
link usantatecla.mastermind.views.graphics.GameView to usantatecla.mastermind.views.graphics.ProposalCombinationView--><path codeLine="32" d="M434.6727,473.8421 C434.6727,473.8421 422.293,498.907 416.381,510.877 " fill="none" id="usantatecla.mastermind.views.graphics.GameView-usantatecla.mastermind.views.graphics.ProposalCombinationView" style="stroke: #A80036; stroke-width: 1.0;"/><polygon fill="#A80036" points="410.5,522.782,418.0721,516.4841,412.7143,518.299,410.8993,512.9412,410.5,522.782" style="stroke: #A80036; stroke-width: 1.0;"/><line style="stroke: #A80036; stroke-width: 1.0;" x1="412.7143" x2="416.2575" y1="518.299" y2="511.126"/><polygon fill="#A80036" points="439.987,463.083,433.7435,466.6911,434.6727,473.8421,440.9162,470.234,439.987,463.083" style="stroke: #A80036; stroke-width: 1.0;"/><!--MD5=[e9fc16e1808ce4fa62d1bd0d33dc1ef9]
link usantatecla.mastermind.views.graphics.GameView to Game--><path codeLine="33" d="M657.251,455.654 C662.894,458.143 668.489,460.597 674,463 C737.557,490.707 763.522,480.114 818,523 C924.542,606.872 1005.53,751.673 1036.39,812.173 " fill="none" id="usantatecla.mastermind.views.graphics.GameView-to-Game" style="stroke: #A80036; stroke-width: 1.0; stroke-dasharray: 7.0,7.0;"/><polygon fill="#A80036" points="1038.7,816.727,1038.1949,806.8911,1036.4377,812.2681,1031.0607,810.5108,1038.7,816.727" style="stroke: #A80036; stroke-width: 1.0;"/><!--MD5=[7bb065e301fc9bd49fe79119d4a0755f]
link usantatecla.mastermind.views.graphics.GameView to usantatecla.mastermind.views.graphics.ProposedCombinationView--><path codeLine="34" d="M657.327,456.106 C727.057,488.553 791.673,519.327 794,523 C842.04,598.843 824.381,640.519 794,725 C786.81,744.994 774.47,763.984 761.021,780.561 " fill="none" id="usantatecla.mastermind.views.graphics.GameView-to-usantatecla.mastermind.views.graphics.ProposedCombinationView" style="stroke: #A80036; stroke-width: 1.0; stroke-dasharray: 7.0,7.0;"/><polygon fill="#A80036" points="757.58,784.722,766.397,780.3332,760.7654,780.868,760.2306,775.2365,757.58,784.722" style="stroke: #A80036; stroke-width: 1.0;"/><!--MD5=[600b86a8148b156ae6f664ac5bd3a4ef]
link usantatecla.mastermind.views.graphics.GameView to usantatecla.mastermind.views.graphics.Constraints--><path codeLine="35" d="M498.831,463.395 C513.004,553.509 527.188,686.183 496,725 C418.463,821.505 340.298,742.573 224,785 C206.948,791.221 189.181,799.685 173.216,808.107 " fill="none" id="usantatecla.mastermind.views.graphics.GameView-to-usantatecla.mastermind.views.graphics.Constraints" style="stroke: #A80036; stroke-width: 1.0; stroke-dasharray: 7.0,7.0;"/><polygon fill="#A80036" points="168.763,810.479,178.5868,809.7767,173.1756,808.1277,174.8247,802.7165,168.763,810.479" style="stroke: #A80036; stroke-width: 1.0;"/><!--MD5=[67914d88e57407f31bdff3578020dd1d]
reverse link View to usantatecla.mastermind.views.graphics.GraphicsView--><path codeLine="47" d="M452,75.246 C452,87.822 452,101.732 452,114.931 " fill="none" id="View-backto-usantatecla.mastermind.views.graphics.GraphicsView" style="stroke: #A80036; stroke-width: 1.0;"/><polygon fill="none" points="445,75.098,452,55.098,459,75.098,445,75.098" style="stroke: #A80036; stroke-width: 1.0;"/><!--MD5=[b9e9af62091b4c82609aa1a15f8b8f5f]
link usantatecla.mastermind.views.graphics.GraphicsView to usantatecla.mastermind.views.graphics.GameView--><path codeLine="48" d="M462.2909,239.0582 C462.2909,239.0582 465.896,262.547 467.66,274.041 " fill="none" id="usantatecla.mastermind.views.graphics.GraphicsView-usantatecla.mastermind.views.graphics.GameView" style="stroke: #A80036; stroke-width: 1.0;"/><polygon fill="#A80036" points="469.645,286.978,472.2328,277.4752,468.8862,282.0359,464.3254,278.6893,469.645,286.978" style="stroke: #A80036; stroke-width: 1.0;"/><line style="stroke: #A80036; stroke-width: 1.0;" x1="468.8862" x2="467.673" y1="282.0359" y2="274.1285"/><polygon fill="#A80036" points="460.471,227.197,457.4272,233.7342,462.2909,239.0582,465.3347,232.521,460.471,227.197" style="stroke: #A80036; stroke-width: 1.0;"/><!--MD5=[9b5fd559ddcb893eaa2c60b86c53c828]
link usantatecla.mastermind.views.graphics.GraphicsView to usantatecla.mastermind.views.graphics.ResumeDialog--><path codeLine="49" d="M530.58,217.657 C536.447,220.87 542.299,224.015 548,227 C602.949,255.771 622.473,252.474 674,287 C691.743,298.888 709.531,313.927 724.889,328.143 " fill="none" id="usantatecla.mastermind.views.graphics.GraphicsView-to-usantatecla.mastermind.views.graphics.ResumeDialog" style="stroke: #A80036; stroke-width: 1.0; stroke-dasharray: 7.0,7.0;"/><polygon fill="#A80036" points="728.74,331.737,724.889,322.6722,725.0844,328.3257,719.431,328.5211,728.74,331.737" style="stroke: #A80036; stroke-width: 1.0;"/><!--MD5=[cee001e70f9e7d98a6a521cdbc26cf4b]
link usantatecla.mastermind.views.graphics.ProposalCombinationView to usantatecla.mastermind.views.graphics.Constraints--><path codeLine="65" d="M248.148,725.261 C215.047,754.669 181.128,784.803 156.363,806.806 " fill="none" id="usantatecla.mastermind.views.graphics.ProposalCombinationView-to-usantatecla.mastermind.views.graphics.Constraints" style="stroke: #A80036; stroke-width: 1.0; stroke-dasharray: 7.0,7.0;"/><polygon fill="#A80036" points="152.468,810.266,161.8529,807.2788,156.2059,806.9452,156.5396,801.2982,152.468,810.266" style="stroke: #A80036; stroke-width: 1.0;"/><!--MD5=[6c231acc0c4ffa6b625cb8e27fb8ae26]
link usantatecla.mastermind.views.graphics.ProposedCombinationsView to Game--><path codeLine="73" d="M739.801,667.221 C818.383,710.99 938.683,777.997 1003.98,814.364 " fill="none" id="usantatecla.mastermind.views.graphics.ProposedCombinationsView-to-Game" style="stroke: #A80036; stroke-width: 1.0; stroke-dasharray: 7.0,7.0;"/><polygon fill="#A80036" points="1008.58,816.929,1002.6573,809.0599,1004.2099,814.4996,998.7703,816.0521,1008.58,816.929" style="stroke: #A80036; stroke-width: 1.0;"/><!--MD5=[ea0c1334d9a085bd468c0ccb1978fd39]
link usantatecla.mastermind.views.graphics.ProposedCombinationsView to usantatecla.mastermind.views.graphics.Constraints--><path codeLine="74" d="M615.931,667.111 C590.253,687.507 557.163,710.633 524,725 C399.232,779.054 352.192,739.66 224,785 C206.798,791.084 188.917,799.551 172.89,808.021 " fill="none" id="usantatecla.mastermind.views.graphics.ProposedCombinationsView-to-usantatecla.mastermind.views.graphics.Constraints" style="stroke: #A80036; stroke-width: 1.0; stroke-dasharray: 7.0,7.0;"/><polygon fill="#A80036" points="168.421,810.408,178.2441,809.6957,172.8312,808.0522,174.4747,802.6393,168.421,810.408" style="stroke: #A80036; stroke-width: 1.0;"/><!--MD5=[bf2b51f7f70935bc6082b2af5b159995]
link usantatecla.mastermind.views.graphics.ProposedCombinationsView to usantatecla.mastermind.views.graphics.TurnView--><path codeLine="75" d="M612.845,667.108 C587.305,686.644 555.248,709.021 524,725 C449.67,763.009 418.056,742.838 346,785 C332.956,792.632 320.257,803.372 309.854,813.338 " fill="none" id="usantatecla.mastermind.views.graphics.ProposedCombinationsView-to-usantatecla.mastermind.views.graphics.TurnView" style="stroke: #A80036; stroke-width: 1.0; stroke-dasharray: 7.0,7.0;"/><polygon fill="#A80036" points="306.128,816.967,315.366,813.5525,309.7097,813.4782,309.784,807.8218,306.128,816.967" style="stroke: #A80036; stroke-width: 1.0;"/><!--MD5=[36801b42676cceff4cfbc8d2277725f3]
link usantatecla.mastermind.views.graphics.ProposedCombinationsView to usantatecla.mastermind.views.graphics.ProposedCombinationView--><path codeLine="76" d="M670.873,667.221 C676.091,699.275 683.338,743.791 689.169,779.609 " fill="none" id="usantatecla.mastermind.views.graphics.ProposedCombinationsView-to-usantatecla.mastermind.views.graphics.ProposedCombinationView" style="stroke: #A80036; stroke-width: 1.0; stroke-dasharray: 7.0,7.0;"/><polygon fill="#A80036" points="690.019,784.828,692.5217,775.3024,689.216,779.8929,684.6255,776.5872,690.019,784.828" style="stroke: #A80036; stroke-width: 1.0;"/><!--MD5=[2bceb4ac9a4ae3dfb2948e961e67c336]
link usantatecla.mastermind.views.graphics.ProposedCombinationsView to usantatecla.mastermind.views.graphics.ResultView--><path codeLine="77" d="M618.048,667.221 C576.014,705.842 514.288,762.556 473.156,800.348 " fill="none" id="usantatecla.mastermind.views.graphics.ProposedCombinationsView-to-usantatecla.mastermind.views.graphics.ResultView" style="stroke: #A80036; stroke-width: 1.0; stroke-dasharray: 7.0,7.0;"/><polygon fill="#A80036" points="469.242,803.945,478.5755,800.8008,472.9237,800.5619,473.1625,794.9101,469.242,803.945" style="stroke: #A80036; stroke-width: 1.0;"/><!--MD5=[7d12c99eeb925060d1f12e67229b11d7]
link usantatecla.mastermind.views.graphics.ProposedCombinationView to usantatecla.mastermind.views.graphics.ProposedCombinationView--><path codeLine="86" d="M867.016,805.731 C888.115,811.947 902,823.703 902,841 C902,856.9456 890.2,868.1826 871.826,874.7111 " fill="none" id="usantatecla.mastermind.views.graphics.ProposedCombinationView-to-usantatecla.mastermind.views.graphics.ProposedCombinationView" style="stroke: #A80036; stroke-width: 1.0; stroke-dasharray: 7.0,7.0;"/><polygon fill="#A80036" points="867.016,876.2694,876.8108,877.3002,871.7725,874.728,874.3446,869.6898,867.016,876.2694" style="stroke: #A80036; stroke-width: 1.0;"/><!--MD5=[c036b6c0bc4b72271f53aa8ac593775b]
link usantatecla.mastermind.views.graphics.SecretCombinationView to usantatecla.mastermind.views.graphics.Constraints--><path codeLine="105" d="M119.774,673.518 C119.588,713.536 119.329,769.347 119.162,805.081 " fill="none" id="usantatecla.mastermind.views.graphics.SecretCombinationView-to-usantatecla.mastermind.views.graphics.Constraints" style="stroke: #A80036; stroke-width: 1.0; stroke-dasharray: 7.0,7.0;"/><polygon fill="#A80036" points="119.139,810.204,123.1827,801.2235,119.1633,805.2041,115.1828,801.1847,119.139,810.204" style="stroke: #A80036; stroke-width: 1.0;"/><!--MD5=[dbfbc3acd41de6727aea94c5a49ed20d]
@startuml
class Game as "usantatecla.mastermind.models.Game"{
    
}
class usantatecla.mastermind.views.graphics.AttemptsView{
    ~AttemptsView(int)
}

class usantatecla.mastermind.views.graphics.ColorView{
    ~ColorView()
    ~ColorView(Color)
    #resultInitials(int): String
}
class  usantatecla.mastermind.views.graphics.Constraints{
~ Constraints(int, int, int, int)
}

class  usantatecla.mastermind.views.graphics.GameView{
- {static} GAME_OVER: String
- secretCombinationView: SecretCombinationView
- proposedCombinationsView: ProposedCombinationsView
- proposalCombinationView: ProposalCombinationView
~ GameView()
- clear()  
~ start(Game)  
~ propose(Game): boolean
- proposeCombination(Game, int[]): int
- drawGameOver(Game): boolean
}

usantatecla.mastermind.views.graphics.GameView *-down-> usantatecla.mastermind.views.graphics.ProposedCombinationsView
usantatecla.mastermind.views.graphics.GameView *-down-> usantatecla.mastermind.views.graphics.SecretCombinationView
usantatecla.mastermind.views.graphics.GameView *-down-> usantatecla.mastermind.views.graphics.ProposalCombinationView
usantatecla.mastermind.views.graphics.GameView ..> Game
usantatecla.mastermind.views.graphics.GameView ..> usantatecla.mastermind.views.graphics.ProposedCombinationView
usantatecla.mastermind.views.graphics.GameView ..> usantatecla.mastermind.views.graphics.Constraints

class  usantatecla.mastermind.views.graphics.GraphicsView{
- gameView: GameView
+ GraphicsView(Game)
# start()  
# propose(): boolean
# isNewGame(): boolean
}
class View as "usantatecla.mastermind.views.View"{

}
View <|-down- usantatecla.mastermind.views.graphics.GraphicsView
usantatecla.mastermind.views.graphics.GraphicsView *-down-> usantatecla.mastermind.views.graphics.GameView
usantatecla.mastermind.views.graphics.GraphicsView ..> usantatecla.mastermind.views.graphics.ResumeDialog

class  usantatecla.mastermind.views.graphics.ProposalCombinationView{
- {static} ACCEPT: String
- label: JLabel
- textField: JTextField
- button: JButton
- characters: String
~ ProposalCombinationView(JRootPane)
+ keyPressed(KeyEvent)  
+ keyReleased(KeyEvent)  
+ keyTyped(KeyEvent)  
~ resetCharacters()  
~ getCharacters(): String
+ actionPerformed(ActionEvent)  
}
usantatecla.mastermind.views.graphics.ProposalCombinationView..> usantatecla.mastermind.views.graphics.Constraints

class  usantatecla.mastermind.views.graphics.ProposedCombinationsView{
- game: Game
~ ProposedCombinationsView(Game)
~ add()  
}

usantatecla.mastermind.views.graphics.ProposedCombinationsView ..> Game
usantatecla.mastermind.views.graphics.ProposedCombinationsView..> usantatecla.mastermind.views.graphics.Constraints
usantatecla.mastermind.views.graphics.ProposedCombinationsView ..> usantatecla.mastermind.views.graphics.TurnView
usantatecla.mastermind.views.graphics.ProposedCombinationsView..> usantatecla.mastermind.views.graphics.ProposedCombinationView
usantatecla.mastermind.views.graphics.ProposedCombinationsView..> usantatecla.mastermind.views.graphics.ResultView

class  usantatecla.mastermind.views.graphics.ProposedCombinationView{
- proposedCombinationView: ProposedCombinationView
- error: Error
~ ProposedCombinationView(ProposedCombinationView)
~ read(String)
+ isValid(): boolean
}
usantatecla.mastermind.views.graphics.ProposedCombinationView..> usantatecla.mastermind.views.graphics.ProposedCombinationView

class  usantatecla.mastermind.views.graphics.ResultView{
- result: Result
~ ResultView(Result)
}

class  usantatecla.mastermind.views.graphics.ResumeDialog{
- newGame: boolean
~ ResumeDialog()
~ isNewGame(): boolean
}

class  usantatecla.mastermind.views.graphics.SecretCombinationView{
- {static} TITLE: String
- title: JLabel
- secretCombination: JLabel
~ SecretCombinationView()
} 
usantatecla.mastermind.views.graphics.SecretCombinationView..> usantatecla.mastermind.views.graphics.Constraints
@enduml

PlantUML version 1.2020.20beta7(Unknown compile time)
(GPL source distribution)
Java Runtime: Java(TM) SE Runtime Environment
JVM: Java HotSpot(TM) 64-Bit Server VM
Default Encoding: UTF-8
Language: en
Country: US
--></g></svg>