<?xml version="1.0" encoding="UTF-8" standalone="no"?><svg xmlns="http://www.w3.org/2000/svg" xmlns:xlink="http://www.w3.org/1999/xlink" contentScriptType="application/ecmascript" contentStyleType="text/css" height="601px" preserveAspectRatio="none" style="width:789px;height:601px;" version="1.1" viewBox="0 0 789 601" width="789px" zoomAndPan="magnify"><defs><filter height="300%" id="f1wnx9mpiq7bum" width="300%" x="-1" y="-1"><feGaussianBlur result="blurOut" stdDeviation="2.0"/><feColorMatrix in="blurOut" result="blurOut2" type="matrix" values="0 0 0 0 0 0 0 0 0 0 0 0 0 0 0 0 0 0 .4 0"/><feOffset dx="4.0" dy="4.0" in="blurOut2" result="blurOut3"/><feBlend in="SourceGraphic" in2="blurOut3" mode="normal"/></filter></defs><g><!--MD5=[908cbfa8709a8ec6ee3beb0409fea32c]
cluster usantatecla.utils--><polygon fill="#FFFFFF" filter="url(#f1wnx9mpiq7bum)" points="16,6,162,6,169,28.2969,772,28.2969,772,495,16,495,16,6" style="stroke: #000000; stroke-width: 1.5;"/><line style="stroke: #000000; stroke-width: 1.5;" x1="16" x2="169" y1="28.2969" y2="28.2969"/><text fill="#000000" font-family="sans-serif" font-size="14" font-weight="bold" lengthAdjust="spacingAndGlyphs" textLength="140" x="20" y="20.9951">usantatecla.utils</text><!--MD5=[5a5a2ad444bc00c1498d76ebf80a1dc4]
class usantatecla.utils.Console--><rect codeLine="1" fill="#FEFECE" filter="url(#f1wnx9mpiq7bum)" height="176.0469" id="usantatecla.utils.Console" style="stroke: #A80036; stroke-width: 1.5;" width="166" x="32" y="303"/><ellipse cx="86.25" cy="319" fill="#ADD1B2" rx="11" ry="11" style="stroke: #A80036; stroke-width: 1.0;"/><path d="M88.5938,314.6719 C87.6563,314.2344 87.0625,314.0938 86.1875,314.0938 C83.5625,314.0938 81.5625,316.1719 81.5625,318.8906 L81.5625,320.0156 C81.5625,322.5938 83.6719,324.4844 86.5625,324.4844 C87.7813,324.4844 88.9375,324.1875 89.6875,323.6406 C90.2656,323.2344 90.5938,322.7813 90.5938,322.3906 C90.5938,321.9375 90.2031,321.5469 89.7344,321.5469 C89.5156,321.5469 89.3125,321.625 89.125,321.8125 C88.6719,322.2969 88.6719,322.2969 88.4844,322.3906 C88.0625,322.6563 87.375,322.7813 86.6094,322.7813 C84.5625,322.7813 83.2656,321.6875 83.2656,319.9844 L83.2656,318.8906 C83.2656,317.1094 84.5156,315.7969 86.25,315.7969 C86.8281,315.7969 87.4375,315.9531 87.9063,316.2031 C88.3906,316.4844 88.5625,316.7031 88.6563,317.1094 C88.7188,317.5156 88.75,317.6406 88.8906,317.7656 C89.0313,317.9063 89.2656,318.0156 89.4844,318.0156 C89.75,318.0156 90.0156,317.875 90.1875,317.6563 C90.2969,317.5 90.3281,317.3125 90.3281,316.8906 L90.3281,315.4688 C90.3281,315.0313 90.3125,314.9063 90.2188,314.75 C90.0625,314.4844 89.7813,314.3438 89.4844,314.3438 C89.1875,314.3438 88.9844,314.4375 88.7656,314.75 L88.5938,314.6719 Z " fill="#000000"/><text fill="#000000" font-family="sans-serif" font-size="12" lengthAdjust="spacingAndGlyphs" textLength="49" x="106.75" y="323.1543">Console</text><line style="stroke: #A80036; stroke-width: 1.5;" x1="33" x2="197" y1="335" y2="335"/><line style="stroke: #A80036; stroke-width: 1.5;" x1="33" x2="197" y1="343" y2="343"/><ellipse cx="43" cy="354" fill="#84BE84" rx="3" ry="3" style="stroke: #038048; stroke-width: 1.0;"/><text fill="#000000" font-family="sans-serif" font-size="11" lengthAdjust="spacingAndGlyphs" textLength="54" x="52" y="357.2104">Console()</text><ellipse cx="43" cy="366.8047" fill="#84BE84" rx="3" ry="3" style="stroke: #038048; stroke-width: 1.0;"/><text fill="#000000" font-family="sans-serif" font-size="11" lengthAdjust="spacingAndGlyphs" textLength="91" x="52" y="370.0151">write(char): void</text><ellipse cx="43" cy="379.6094" fill="#84BE84" rx="3" ry="3" style="stroke: #038048; stroke-width: 1.0;"/><text fill="#000000" font-family="sans-serif" font-size="11" lengthAdjust="spacingAndGlyphs" textLength="100" x="52" y="382.8198">write(String): void</text><ellipse cx="43" cy="392.4141" fill="#84BE84" rx="3" ry="3" style="stroke: #038048; stroke-width: 1.0;"/><text fill="#000000" font-family="sans-serif" font-size="11" lengthAdjust="spacingAndGlyphs" textLength="102" x="52" y="395.6245">readInt(String): int</text><ellipse cx="43" cy="405.2188" fill="#84BE84" rx="3" ry="3" style="stroke: #038048; stroke-width: 1.0;"/><text fill="#000000" font-family="sans-serif" font-size="11" lengthAdjust="spacingAndGlyphs" textLength="124" x="52" y="408.4292">readChar(String): char</text><ellipse cx="43" cy="418.0234" fill="#84BE84" rx="3" ry="3" style="stroke: #038048; stroke-width: 1.0;"/><text fill="#000000" font-family="sans-serif" font-size="11" lengthAdjust="spacingAndGlyphs" textLength="140" x="52" y="421.2339">readString(String): String</text><ellipse cx="43" cy="430.8281" fill="#84BE84" rx="3" ry="3" style="stroke: #038048; stroke-width: 1.0;"/><text fill="#000000" font-family="sans-serif" font-size="11" lengthAdjust="spacingAndGlyphs" textLength="91" x="52" y="434.0386">writeln(int): void</text><ellipse cx="43" cy="443.6328" fill="#84BE84" rx="3" ry="3" style="stroke: #038048; stroke-width: 1.0;"/><text fill="#000000" font-family="sans-serif" font-size="11" lengthAdjust="spacingAndGlyphs" textLength="110" x="52" y="446.8433">writeln(String): void</text><ellipse cx="43" cy="456.4375" fill="#84BE84" rx="3" ry="3" style="stroke: #038048; stroke-width: 1.0;"/><text fill="#000000" font-family="sans-serif" font-size="11" lengthAdjust="spacingAndGlyphs" textLength="77" x="52" y="459.6479">writeln(): void</text><ellipse cx="43" cy="469.2422" fill="#84BE84" rx="3" ry="3" style="stroke: #038048; stroke-width: 1.0;"/><text fill="#000000" font-family="sans-serif" font-size="11" lengthAdjust="spacingAndGlyphs" textLength="126" x="52" y="472.4526">writeError(String): void</text><!--MD5=[5f018ac69b30f51f68cd34c581e50301]
class usantatecla.utils.Coordinate--><rect codeLine="18" fill="#FEFECE" filter="url(#f1wnx9mpiq7bum)" height="201.6563" id="usantatecla.utils.Coordinate" style="stroke: #A80036; stroke-width: 1.5;" width="250" x="506" y="41"/><ellipse cx="593.75" cy="57" fill="#ADD1B2" rx="11" ry="11" style="stroke: #A80036; stroke-width: 1.0;"/><path d="M596.0938,52.6719 C595.1563,52.2344 594.5625,52.0938 593.6875,52.0938 C591.0625,52.0938 589.0625,54.1719 589.0625,56.8906 L589.0625,58.0156 C589.0625,60.5938 591.1719,62.4844 594.0625,62.4844 C595.2813,62.4844 596.4375,62.1875 597.1875,61.6406 C597.7656,61.2344 598.0938,60.7813 598.0938,60.3906 C598.0938,59.9375 597.7031,59.5469 597.2344,59.5469 C597.0156,59.5469 596.8125,59.625 596.625,59.8125 C596.1719,60.2969 596.1719,60.2969 595.9844,60.3906 C595.5625,60.6563 594.875,60.7813 594.1094,60.7813 C592.0625,60.7813 590.7656,59.6875 590.7656,57.9844 L590.7656,56.8906 C590.7656,55.1094 592.0156,53.7969 593.75,53.7969 C594.3281,53.7969 594.9375,53.9531 595.4063,54.2031 C595.8906,54.4844 596.0625,54.7031 596.1563,55.1094 C596.2188,55.5156 596.25,55.6406 596.3906,55.7656 C596.5313,55.9063 596.7656,56.0156 596.9844,56.0156 C597.25,56.0156 597.5156,55.875 597.6875,55.6563 C597.7969,55.5 597.8281,55.3125 597.8281,54.8906 L597.8281,53.4688 C597.8281,53.0313 597.8125,52.9063 597.7188,52.75 C597.5625,52.4844 597.2813,52.3438 596.9844,52.3438 C596.6875,52.3438 596.4844,52.4375 596.2656,52.75 L596.0938,52.6719 Z " fill="#000000"/><text fill="#000000" font-family="sans-serif" font-size="12" lengthAdjust="spacingAndGlyphs" textLength="66" x="614.25" y="61.1543">Coordinate</text><line style="stroke: #A80036; stroke-width: 1.5;" x1="507" x2="755" y1="73" y2="73"/><polygon fill="none" points="517,79,521,83,517,87,513,83" style="stroke: #B38D22; stroke-width: 1.0;"/><text fill="#000000" font-family="sans-serif" font-size="11" lengthAdjust="spacingAndGlyphs" textLength="41" x="526" y="87.2104">row: int</text><polygon fill="none" points="517,91.8047,521,95.8047,517,99.8047,513,95.8047" style="stroke: #B38D22; stroke-width: 1.0;"/><text fill="#000000" font-family="sans-serif" font-size="11" lengthAdjust="spacingAndGlyphs" textLength="62" x="526" y="100.0151">column: int</text><line style="stroke: #A80036; stroke-width: 1.5;" x1="507" x2="755" y1="106.6094" y2="106.6094"/><polygon fill="#FFFF44" points="517,112.6094,521,116.6094,517,120.6094,513,116.6094" style="stroke: #B38D22; stroke-width: 1.0;"/><text fill="#000000" font-family="sans-serif" font-size="11" lengthAdjust="spacingAndGlyphs" textLength="70" x="526" y="120.8198">Coordinate()</text><polygon fill="#FFFF44" points="517,125.4141,521,129.4141,517,133.4141,513,129.4141" style="stroke: #B38D22; stroke-width: 1.0;"/><text fill="#000000" font-family="sans-serif" font-size="11" lengthAdjust="spacingAndGlyphs" textLength="105" x="526" y="133.6245">Coordinate(int, int)</text><polygon fill="#FFFF44" points="517,138.2188,521,142.2188,517,146.2188,513,142.2188" style="stroke: #B38D22; stroke-width: 1.0;"/><text fill="#000000" font-family="sans-serif" font-size="11" lengthAdjust="spacingAndGlyphs" textLength="224" x="526" y="146.4292">getMainDirection(Coordinate): Direction</text><rect fill="#F24D5C" height="6" style="stroke: #C82930; stroke-width: 1.0;" width="6" x="514" y="153.0234"/><text fill="#000000" font-family="sans-serif" font-size="11" lengthAdjust="spacingAndGlyphs" textLength="147" x="526" y="159.2339">inMainDiagonal(): boolean</text><rect fill="#F24D5C" height="6" style="stroke: #C82930; stroke-width: 1.0;" width="6" x="514" y="165.8281"/><text fill="#000000" font-family="sans-serif" font-size="11" lengthAdjust="spacingAndGlyphs" textLength="176" x="526" y="172.0386">inVertical(Coordinate): boolean</text><rect fill="#F24D5C" height="6" style="stroke: #C82930; stroke-width: 1.0;" width="6" x="514" y="178.6328"/><text fill="#000000" font-family="sans-serif" font-size="11" lengthAdjust="spacingAndGlyphs" textLength="190" x="526" y="184.8433">inHorizontal(Coordinate): boolean</text><ellipse cx="517" cy="194.4375" fill="#84BE84" rx="3" ry="3" style="stroke: #038048; stroke-width: 1.0;"/><text fill="#000000" font-family="sans-serif" font-size="11" lengthAdjust="spacingAndGlyphs" textLength="71" x="526" y="197.6479">getRow(): int</text><ellipse cx="517" cy="207.2422" fill="#84BE84" rx="3" ry="3" style="stroke: #038048; stroke-width: 1.0;"/><text fill="#000000" font-family="sans-serif" font-size="11" lengthAdjust="spacingAndGlyphs" textLength="91" x="526" y="210.4526">getColumn(): int</text><ellipse cx="517" cy="220.0469" fill="#84BE84" rx="3" ry="3" style="stroke: #038048; stroke-width: 1.0;"/><text fill="#000000" font-family="sans-serif" font-size="11" lengthAdjust="spacingAndGlyphs" textLength="86" x="526" y="223.2573">hashCode(): int</text><ellipse cx="517" cy="232.8516" fill="#84BE84" rx="3" ry="3" style="stroke: #038048; stroke-width: 1.0;"/><text fill="#000000" font-family="sans-serif" font-size="11" lengthAdjust="spacingAndGlyphs" textLength="136" x="526" y="236.062">equals(Object): boolean</text><!--MD5=[fa47e12b1ade8e81943ba4775d45235c]
class usantatecla.utils.Direction--><rect codeLine="34" fill="#FEFECE" filter="url(#f1wnx9mpiq7bum)" height="99.2188" id="usantatecla.utils.Direction" style="stroke: #A80036; stroke-width: 1.5;" width="126" x="630" y="341.5"/><ellipse cx="663" cy="357.5" fill="#EB937F" rx="11" ry="11" style="stroke: #A80036; stroke-width: 1.0;"/><path d="M661.7969,358.375 L663.25,358.375 L663.25,358.4844 C663.25,358.8906 663.2813,359.0469 663.3594,359.2031 C663.5156,359.4531 663.7969,359.6094 664.0938,359.6094 C664.3438,359.6094 664.6094,359.4688 664.7656,359.25 C664.8906,359.0938 664.9219,358.9375 664.9219,358.4844 L664.9219,356.5625 C664.9219,356.4063 664.9219,356.3594 664.9063,356.2031 C664.8438,355.7344 664.5313,355.4219 664.0781,355.4219 C663.8281,355.4219 663.5625,355.5625 663.3906,355.7813 C663.2813,355.9531 663.25,356.1094 663.25,356.5625 L663.25,356.6875 L661.7969,356.6875 L661.7969,354.2813 L665.7813,354.2813 L665.7813,355.1406 C665.7813,355.5469 665.8125,355.7188 665.8906,355.875 C666.0625,356.125 666.3438,356.2813 666.625,356.2813 C666.8906,356.2813 667.1563,356.1406 667.3281,355.9219 C667.4375,355.75 667.4688,355.6094 667.4688,355.1406 L667.4688,352.5938 L659.8438,352.5938 C659.4063,352.5938 659.2813,352.6094 659.125,352.7031 C658.875,352.8594 658.7188,353.1563 658.7188,353.4375 C658.7188,353.7188 658.8594,353.9688 659.0781,354.1406 C659.2344,354.25 659.4219,354.2813 659.8438,354.2813 L660.0938,354.2813 L660.0938,360.7969 L659.8438,360.7969 C659.4375,360.7969 659.2813,360.8125 659.125,360.9219 C658.875,361.0938 658.7188,361.3594 658.7188,361.6563 C658.7188,361.9219 658.8594,362.1719 659.0781,362.3281 C659.2188,362.4531 659.4531,362.5 659.8438,362.5 L667.8438,362.5 L667.8438,359.9219 C667.8438,359.4844 667.8125,359.3438 667.7344,359.1875 C667.5625,358.9375 667.2813,358.7813 667,358.7813 C666.7344,358.7813 666.4688,358.8906 666.2969,359.1406 C666.1875,359.2969 666.1563,359.4375 666.1563,359.9219 L666.1563,360.7969 L661.7969,360.7969 L661.7969,358.375 Z " fill="#000000"/><text fill="#000000" font-family="sans-serif" font-size="12" lengthAdjust="spacingAndGlyphs" textLength="54" x="681" y="361.6543">Direction</text><line style="stroke: #A80036; stroke-width: 1.5;" x1="631" x2="755" y1="373.5" y2="373.5"/><text fill="#000000" font-family="sans-serif" font-size="11" lengthAdjust="spacingAndGlyphs" textLength="54" x="636" y="387.7104">VERTICAL</text><text fill="#000000" font-family="sans-serif" font-size="11" lengthAdjust="spacingAndGlyphs" textLength="73" x="636" y="400.5151">HORIZONTAL</text><text fill="#000000" font-family="sans-serif" font-size="11" lengthAdjust="spacingAndGlyphs" textLength="94" x="636" y="413.3198">MAIN_DIAGONAL</text><text fill="#000000" font-family="sans-serif" font-size="11" lengthAdjust="spacingAndGlyphs" textLength="114" x="636" y="426.1245">INVERSE_DIAGONAL</text><line style="stroke: #A80036; stroke-width: 1.5;" x1="631" x2="755" y1="432.7188" y2="432.7188"/><!--MD5=[eee93b9c23a14b7f2f2f4871b378426c]
class usantatecla.utils.PlayersDialog--><rect codeLine="41" fill="#FEFECE" filter="url(#f1wnx9mpiq7bum)" height="73.6094" id="usantatecla.utils.PlayersDialog" style="stroke: #A80036; stroke-width: 1.5;" width="147" x="233.5" y="354"/><ellipse cx="263.8" cy="370" fill="#ADD1B2" rx="11" ry="11" style="stroke: #A80036; stroke-width: 1.0;"/><path d="M266.1438,365.6719 C265.2063,365.2344 264.6125,365.0938 263.7375,365.0938 C261.1125,365.0938 259.1125,367.1719 259.1125,369.8906 L259.1125,371.0156 C259.1125,373.5938 261.2219,375.4844 264.1125,375.4844 C265.3313,375.4844 266.4875,375.1875 267.2375,374.6406 C267.8156,374.2344 268.1438,373.7813 268.1438,373.3906 C268.1438,372.9375 267.7531,372.5469 267.2844,372.5469 C267.0656,372.5469 266.8625,372.625 266.675,372.8125 C266.2219,373.2969 266.2219,373.2969 266.0344,373.3906 C265.6125,373.6563 264.925,373.7813 264.1594,373.7813 C262.1125,373.7813 260.8156,372.6875 260.8156,370.9844 L260.8156,369.8906 C260.8156,368.1094 262.0656,366.7969 263.8,366.7969 C264.3781,366.7969 264.9875,366.9531 265.4563,367.2031 C265.9406,367.4844 266.1125,367.7031 266.2063,368.1094 C266.2688,368.5156 266.3,368.6406 266.4406,368.7656 C266.5813,368.9063 266.8156,369.0156 267.0344,369.0156 C267.3,369.0156 267.5656,368.875 267.7375,368.6563 C267.8469,368.5 267.8781,368.3125 267.8781,367.8906 L267.8781,366.4688 C267.8781,366.0313 267.8625,365.9063 267.7688,365.75 C267.6125,365.4844 267.3313,365.3438 267.0344,365.3438 C266.7375,365.3438 266.5344,365.4375 266.3156,365.75 L266.1438,365.6719 Z " fill="#000000"/><text fill="#000000" font-family="sans-serif" font-size="12" lengthAdjust="spacingAndGlyphs" textLength="81" x="281.2" y="374.1543">PlayersDialog</text><line style="stroke: #A80036; stroke-width: 1.5;" x1="234.5" x2="379.5" y1="386" y2="386"/><rect fill="none" height="6" style="stroke: #C82930; stroke-width: 1.0;" width="6" x="241.5" y="394"/><text fill="#000000" font-family="sans-serif" font-size="11" lengthAdjust="spacingAndGlyphs" text-decoration="underline" textLength="121" x="253.5" y="400.2104">USERS_ERROR: String</text><line style="stroke: #A80036; stroke-width: 1.5;" x1="234.5" x2="379.5" y1="406.8047" y2="406.8047"/><ellipse cx="244.5" cy="417.8047" fill="#84BE84" rx="3" ry="3" style="stroke: #038048; stroke-width: 1.0;"/><text fill="#000000" font-family="sans-serif" font-size="11" lengthAdjust="spacingAndGlyphs" textLength="69" x="253.5" y="421.0151">read(int): int</text><!--MD5=[ba58421efd58e7293b281009adee2615]
class usantatecla.utils.WithConsoleView--><rect codeLine="47" fill="#FEFECE" filter="url(#f1wnx9mpiq7bum)" height="73.6094" id="usantatecla.utils.WithConsoleView" style="stroke: #A80036; stroke-width: 1.5;" width="136" x="239" y="105"/><ellipse cx="254" cy="121" fill="#ADD1B2" rx="11" ry="11" style="stroke: #A80036; stroke-width: 1.0;"/><path d="M256.3438,116.6719 C255.4063,116.2344 254.8125,116.0938 253.9375,116.0938 C251.3125,116.0938 249.3125,118.1719 249.3125,120.8906 L249.3125,122.0156 C249.3125,124.5938 251.4219,126.4844 254.3125,126.4844 C255.5313,126.4844 256.6875,126.1875 257.4375,125.6406 C258.0156,125.2344 258.3438,124.7813 258.3438,124.3906 C258.3438,123.9375 257.9531,123.5469 257.4844,123.5469 C257.2656,123.5469 257.0625,123.625 256.875,123.8125 C256.4219,124.2969 256.4219,124.2969 256.2344,124.3906 C255.8125,124.6563 255.125,124.7813 254.3594,124.7813 C252.3125,124.7813 251.0156,123.6875 251.0156,121.9844 L251.0156,120.8906 C251.0156,119.1094 252.2656,117.7969 254,117.7969 C254.5781,117.7969 255.1875,117.9531 255.6563,118.2031 C256.1406,118.4844 256.3125,118.7031 256.4063,119.1094 C256.4688,119.5156 256.5,119.6406 256.6406,119.7656 C256.7813,119.9063 257.0156,120.0156 257.2344,120.0156 C257.5,120.0156 257.7656,119.875 257.9375,119.6563 C258.0469,119.5 258.0781,119.3125 258.0781,118.8906 L258.0781,117.4688 C258.0781,117.0313 258.0625,116.9063 257.9688,116.75 C257.8125,116.4844 257.5313,116.3438 257.2344,116.3438 C256.9375,116.3438 256.7344,116.4375 256.5156,116.75 L256.3438,116.6719 Z " fill="#000000"/><text fill="#000000" font-family="sans-serif" font-size="12" lengthAdjust="spacingAndGlyphs" textLength="104" x="268" y="125.1543">WithConsoleView</text><line style="stroke: #A80036; stroke-width: 1.5;" x1="240" x2="374" y1="137" y2="137"/><polygon fill="none" points="250,143,254,147,250,151,246,147" style="stroke: #B38D22; stroke-width: 1.0;"/><text fill="#000000" font-family="sans-serif" font-size="11" lengthAdjust="spacingAndGlyphs" textLength="97" x="259" y="151.2104">console: Console</text><line style="stroke: #A80036; stroke-width: 1.5;" x1="240" x2="374" y1="157.8047" y2="157.8047"/><polygon fill="#FFFF44" points="250,163.8047,254,167.8047,250,171.8047,246,167.8047" style="stroke: #B38D22; stroke-width: 1.0;"/><text fill="#000000" font-family="sans-serif" font-size="11" lengthAdjust="spacingAndGlyphs" textLength="107" x="259" y="172.0151">WithConsoleView()</text><!--MD5=[115031fed92a4467bd358dd9ee6729dd]
class usantatecla.utils.YesNoDialog--><rect codeLine="53" fill="#FEFECE" filter="url(#f1wnx9mpiq7bum)" height="150.4375" id="usantatecla.utils.YesNoDialog" style="stroke: #A80036; stroke-width: 1.5;" width="179" x="415.5" y="316"/><ellipse cx="462.75" cy="332" fill="#ADD1B2" rx="11" ry="11" style="stroke: #A80036; stroke-width: 1.0;"/><path d="M465.0938,327.6719 C464.1563,327.2344 463.5625,327.0938 462.6875,327.0938 C460.0625,327.0938 458.0625,329.1719 458.0625,331.8906 L458.0625,333.0156 C458.0625,335.5938 460.1719,337.4844 463.0625,337.4844 C464.2813,337.4844 465.4375,337.1875 466.1875,336.6406 C466.7656,336.2344 467.0938,335.7813 467.0938,335.3906 C467.0938,334.9375 466.7031,334.5469 466.2344,334.5469 C466.0156,334.5469 465.8125,334.625 465.625,334.8125 C465.1719,335.2969 465.1719,335.2969 464.9844,335.3906 C464.5625,335.6563 463.875,335.7813 463.1094,335.7813 C461.0625,335.7813 459.7656,334.6875 459.7656,332.9844 L459.7656,331.8906 C459.7656,330.1094 461.0156,328.7969 462.75,328.7969 C463.3281,328.7969 463.9375,328.9531 464.4063,329.2031 C464.8906,329.4844 465.0625,329.7031 465.1563,330.1094 C465.2188,330.5156 465.25,330.6406 465.3906,330.7656 C465.5313,330.9063 465.7656,331.0156 465.9844,331.0156 C466.25,331.0156 466.5156,330.875 466.6875,330.6563 C466.7969,330.5 466.8281,330.3125 466.8281,329.8906 L466.8281,328.4688 C466.8281,328.0313 466.8125,327.9063 466.7188,327.75 C466.5625,327.4844 466.2813,327.3438 465.9844,327.3438 C465.6875,327.3438 465.4844,327.4375 465.2656,327.75 L465.0938,327.6719 Z " fill="#000000"/><text fill="#000000" font-family="sans-serif" font-size="12" lengthAdjust="spacingAndGlyphs" textLength="76" x="483.25" y="336.1543">YesNoDialog</text><line style="stroke: #A80036; stroke-width: 1.5;" x1="416.5" x2="593.5" y1="348" y2="348"/><rect fill="none" height="6" style="stroke: #C82930; stroke-width: 1.0;" width="6" x="423.5" y="356"/><text fill="#000000" font-family="sans-serif" font-size="11" lengthAdjust="spacingAndGlyphs" text-decoration="underline" textLength="97" x="435.5" y="362.2104">AFIRMATIVE: char</text><rect fill="none" height="6" style="stroke: #C82930; stroke-width: 1.0;" width="6" x="423.5" y="368.8047"/><text fill="#000000" font-family="sans-serif" font-size="11" lengthAdjust="spacingAndGlyphs" text-decoration="underline" textLength="88" x="435.5" y="375.0151">NEGATIVE: char</text><rect fill="none" height="6" style="stroke: #C82930; stroke-width: 1.0;" width="6" x="423.5" y="381.6094"/><text fill="#000000" font-family="sans-serif" font-size="11" lengthAdjust="spacingAndGlyphs" text-decoration="underline" textLength="99" x="435.5" y="387.8198">QUESTION: String</text><rect fill="none" height="6" style="stroke: #C82930; stroke-width: 1.0;" width="6" x="423.5" y="394.4141"/><text fill="#000000" font-family="sans-serif" font-size="11" lengthAdjust="spacingAndGlyphs" text-decoration="underline" textLength="96" x="435.5" y="400.6245">MESSAGE: String</text><line style="stroke: #A80036; stroke-width: 1.5;" x1="416.5" x2="593.5" y1="407.2188" y2="407.2188"/><ellipse cx="426.5" cy="418.2188" fill="#84BE84" rx="3" ry="3" style="stroke: #038048; stroke-width: 1.0;"/><text fill="#000000" font-family="sans-serif" font-size="11" lengthAdjust="spacingAndGlyphs" textLength="80" x="435.5" y="421.4292">YesNoDialog()</text><ellipse cx="426.5" cy="431.0234" fill="#84BE84" rx="3" ry="3" style="stroke: #038048; stroke-width: 1.0;"/><text fill="#000000" font-family="sans-serif" font-size="11" lengthAdjust="spacingAndGlyphs" textLength="120" x="435.5" y="434.2339">read(String): boolean</text><rect fill="#F24D5C" height="6" style="stroke: #C82930; stroke-width: 1.0;" width="6" x="423.5" y="440.8281"/><text fill="#000000" font-family="sans-serif" font-size="11" lengthAdjust="spacingAndGlyphs" text-decoration="underline" textLength="146" x="435.5" y="447.0386">isNegative(char): boolean</text><rect fill="#F24D5C" height="6" style="stroke: #C82930; stroke-width: 1.0;" width="6" x="423.5" y="453.6328"/><text fill="#000000" font-family="sans-serif" font-size="11" lengthAdjust="spacingAndGlyphs" text-decoration="underline" textLength="153" x="435.5" y="459.8433">isAfirmative(char): boolean</text><!--MD5=[ee4f8f5c2b5eaa5df2ba8c0614cd4e83]
class BufferedReader--><rect codeLine="14" fill="#FEFECE" filter="url(#f1wnx9mpiq7bum)" height="48" id="BufferedReader" style="stroke: #A80036; stroke-width: 1.5;" width="168" x="31" y="539"/><ellipse cx="46" cy="555" fill="#ADD1B2" rx="11" ry="11" style="stroke: #A80036; stroke-width: 1.0;"/><path d="M48.3438,550.6719 C47.4063,550.2344 46.8125,550.0938 45.9375,550.0938 C43.3125,550.0938 41.3125,552.1719 41.3125,554.8906 L41.3125,556.0156 C41.3125,558.5938 43.4219,560.4844 46.3125,560.4844 C47.5313,560.4844 48.6875,560.1875 49.4375,559.6406 C50.0156,559.2344 50.3438,558.7813 50.3438,558.3906 C50.3438,557.9375 49.9531,557.5469 49.4844,557.5469 C49.2656,557.5469 49.0625,557.625 48.875,557.8125 C48.4219,558.2969 48.4219,558.2969 48.2344,558.3906 C47.8125,558.6563 47.125,558.7813 46.3594,558.7813 C44.3125,558.7813 43.0156,557.6875 43.0156,555.9844 L43.0156,554.8906 C43.0156,553.1094 44.2656,551.7969 46,551.7969 C46.5781,551.7969 47.1875,551.9531 47.6563,552.2031 C48.1406,552.4844 48.3125,552.7031 48.4063,553.1094 C48.4688,553.5156 48.5,553.6406 48.6406,553.7656 C48.7813,553.9063 49.0156,554.0156 49.2344,554.0156 C49.5,554.0156 49.7656,553.875 49.9375,553.6563 C50.0469,553.5 50.0781,553.3125 50.0781,552.8906 L50.0781,551.4688 C50.0781,551.0313 50.0625,550.9063 49.9688,550.75 C49.8125,550.4844 49.5313,550.3438 49.2344,550.3438 C48.9375,550.3438 48.7344,550.4375 48.5156,550.75 L48.3438,550.6719 Z " fill="#000000"/><text fill="#000000" font-family="sans-serif" font-size="12" lengthAdjust="spacingAndGlyphs" textLength="136" x="60" y="559.1543">java.io.BufferedReader</text><line style="stroke: #A80036; stroke-width: 1.5;" x1="32" x2="198" y1="571" y2="571"/><line style="stroke: #A80036; stroke-width: 1.5;" x1="32" x2="198" y1="579" y2="579"/><!--MD5=[14426ff67e875e6661b88179367ed759]
link usantatecla.utils.Console to BufferedReader--><path codeLine="16" d="M115,491.49 C115,491.49 115,515.694 115,525.7026 " fill="none" id="usantatecla.utils.Console-BufferedReader" style="stroke: #A80036; stroke-width: 1.0;"/><polygon fill="#A80036" points="115,538.8477,119,529.8477,115,533.8477,111,529.8477,115,538.8477" style="stroke: #A80036; stroke-width: 1.0;"/><line style="stroke: #A80036; stroke-width: 1.0;" x1="115" x2="115" y1="533.8477" y2="525.8477"/><polygon fill="#A80036" points="115,479.49,111,485.49,115,491.49,119,485.49,115,479.49" style="stroke: #A80036; stroke-width: 1.0;"/><!--MD5=[a8ffb3790df5680269bc6d65de93cdf4]
link usantatecla.utils.Coordinate to usantatecla.utils.Direction--><path codeLine="32" d="M656.128,243.108 C664.123,274.959 672.659,308.963 679.502,336.226 " fill="none" id="usantatecla.utils.Coordinate-to-usantatecla.utils.Direction" style="stroke: #A80036; stroke-width: 1.0; stroke-dasharray: 7.0,7.0;"/><polygon fill="#A80036" points="680.76,341.236,682.449,331.533,679.543,336.3864,674.6896,333.4803,680.76,341.236" style="stroke: #A80036; stroke-width: 1.0;"/><!--MD5=[69e7e512c2ac49ce66981b4fe7b2fbb3]
reverse link usantatecla.utils.WithConsoleView to usantatecla.utils.PlayersDialog--><path codeLine="45" d="M307,199.463 C307,246.849 307,313.128 307,353.723 " fill="none" id="usantatecla.utils.WithConsoleView-backto-usantatecla.utils.PlayersDialog" style="stroke: #A80036; stroke-width: 1.0;"/><polygon fill="none" points="300,199.18,307,179.18,314,199.18,300,199.18" style="stroke: #A80036; stroke-width: 1.0;"/><!--MD5=[0ea67b4831d36ae8fbc1ab9e7f0763b3]
link usantatecla.utils.WithConsoleView to usantatecla.utils.Console--><path codeLine="51" d="M271.5115,188.6544 C271.5115,188.6544 218.449,256.917 190.908,292.348 " fill="none" id="usantatecla.utils.WithConsoleView-usantatecla.utils.Console" style="stroke: #A80036; stroke-width: 1.0;"/><polygon fill="#A80036" points="182.828,302.742,191.5095,298.0911,185.8966,298.7944,185.1933,293.1814,182.828,302.742" style="stroke: #A80036; stroke-width: 1.0;"/><line style="stroke: #A80036; stroke-width: 1.0;" x1="185.8966" x2="190.8065" y1="298.7944" y2="292.4775"/><polygon fill="#A80036" points="278.876,179.18,272.0356,181.4623,271.5115,188.6544,278.3518,186.372,278.876,179.18" style="stroke: #A80036; stroke-width: 1.0;"/><!--MD5=[d8364031ab8e3812dea498ff2b39f3cd]
reverse link usantatecla.utils.WithConsoleView to usantatecla.utils.YesNoDialog--><path codeLine="63" d="M348.603,194.899 C376.754,230.016 414.363,276.932 445.645,315.957 " fill="none" id="usantatecla.utils.WithConsoleView-backto-usantatecla.utils.YesNoDialog" style="stroke: #A80036; stroke-width: 1.0;"/><polygon fill="none" points="343.051,199.164,336.003,179.18,353.974,190.407,343.051,199.164" style="stroke: #A80036; stroke-width: 1.0;"/><!--MD5=[e12cd17e9b3d7ac5baea4ec0359cf179]
@startuml
class  usantatecla.utils.Console{
+ Console()
+ write(char): void
+ write(String): void
+ readInt(String): int
+ readChar(String): char
+ readString(String): String
+ writeln(int): void
+ writeln(String): void
+ writeln(): void
+ writeError(String): void
}

class BufferedReader as "java.io.BufferedReader"

usantatecla.utils.Console *-down-> BufferedReader

class  usantatecla.utils.Coordinate{
# row: int
# column: int
# Coordinate()
# Coordinate(int, int)
# getMainDirection(Coordinate): Direction
- inMainDiagonal(): boolean
- inVertical(Coordinate): boolean
- inHorizontal(Coordinate): boolean
+ getRow(): int
+ getColumn(): int
+ hashCode(): int
+ equals(Object): boolean
}
usantatecla.utils.Coordinate ..> usantatecla.utils.Direction

enum  usantatecla.utils.Direction{
  VERTICAL
  HORIZONTAL
  MAIN_DIAGONAL
  INVERSE_DIAGONAL
}

class  usantatecla.utils.PlayersDialog{
- {static} USERS_ERROR: String
+ read(int): int
}
usantatecla.utils.WithConsoleView <|-down- usantatecla.utils.PlayersDialog

class  usantatecla.utils.WithConsoleView{
# console: Console
# WithConsoleView()
}
usantatecla.utils.WithConsoleView *-down-> usantatecla.utils.Console

class  usantatecla.utils.YesNoDialog{
- {static} AFIRMATIVE: char
- {static} NEGATIVE: char
- {static} QUESTION: String
- {static} MESSAGE: String
+ YesNoDialog()
+ read(String): boolean
- {static} isNegative(char): boolean
- {static} isAfirmative(char): boolean
}
usantatecla.utils.WithConsoleView <|-down- usantatecla.utils.YesNoDialog
@enduml

PlantUML version 1.2020.20beta8(Unknown compile time)
(GPL source distribution)
Java Runtime: Java(TM) SE Runtime Environment
JVM: Java HotSpot(TM) 64-Bit Server VM
Default Encoding: UTF-8
Language: en
Country: US
--></g></svg>