<?xml version="1.0" encoding="UTF-8" standalone="no"?><svg xmlns="http://www.w3.org/2000/svg" xmlns:xlink="http://www.w3.org/1999/xlink" contentScriptType="application/ecmascript" contentStyleType="text/css" height="159px" preserveAspectRatio="none" style="width:1648px;height:159px;" version="1.1" viewBox="0 0 1648 159" width="1648px" zoomAndPan="magnify"><defs><filter height="300%" id="f7q6es78975c9" width="300%" x="-1" y="-1"><feGaussianBlur result="blurOut" stdDeviation="2.0"/><feColorMatrix in="blurOut" result="blurOut2" type="matrix" values="0 0 0 0 0 0 0 0 0 0 0 0 0 0 0 0 0 0 .4 0"/><feOffset dx="4.0" dy="4.0" in="blurOut2" result="blurOut3"/><feBlend in="SourceGraphic" in2="blurOut3" mode="normal"/></filter></defs><g><!--MD5=[483b12a8a4a1981ac5430bdda5fd5916]
entity tictactoe--><polygon fill="#FFFFFF" filter="url(#f7q6es78975c9)" points="16,113,98,113,105,135.2969,122,135.2969,122,152.2969,16,152.2969,16,113" style="stroke:#000000;stroke-width:1.5;"/><line style="stroke:#000000;stroke-width:1.5;" x1="16" x2="105" y1="135.2969" y2="135.2969"/><text fill="#000000" font-family="sans-serif" font-size="14" font-weight="bold" lengthAdjust="spacingAndGlyphs" textLength="76" x="20" y="128.9951">tictactoe</text><!--MD5=[21ee9191f94b37e164ce8850dd375de6]
entity tictactoe.models--><polygon fill="#FFFFFF" filter="url(#f7q6es78975c9)" points="157.5,113,302.5,113,309.5,135.2969,326.5,135.2969,326.5,152.2969,157.5,152.2969,157.5,113" style="stroke:#000000;stroke-width:1.5;"/><line style="stroke:#000000;stroke-width:1.5;" x1="157.5" x2="309.5" y1="135.2969" y2="135.2969"/><text fill="#000000" font-family="sans-serif" font-size="14" font-weight="bold" lengthAdjust="spacingAndGlyphs" textLength="139" x="161.5" y="128.9951">tictactoe.models</text><!--MD5=[d35223fd8f7d7c99496ee8d9b067ffdf]
entity tictactoe.controllers--><polygon fill="#FFFFFF" filter="url(#f7q6es78975c9)" points="362,113,538,113,545,135.2969,562,135.2969,562,152.2969,362,152.2969,362,113" style="stroke:#000000;stroke-width:1.5;"/><line style="stroke:#000000;stroke-width:1.5;" x1="362" x2="545" y1="135.2969" y2="135.2969"/><text fill="#000000" font-family="sans-serif" font-size="14" font-weight="bold" lengthAdjust="spacingAndGlyphs" textLength="170" x="366" y="128.9951">tictactoe.controllers</text><!--MD5=[170e9aa8a7c5483a45070c603c759464]
entity tictactoe.views--><polygon fill="#FFFFFF" filter="url(#f7q6es78975c9)" points="597,113,729,113,736,135.2969,753,135.2969,753,152.2969,597,152.2969,597,113" style="stroke:#000000;stroke-width:1.5;"/><line style="stroke:#000000;stroke-width:1.5;" x1="597" x2="736" y1="135.2969" y2="135.2969"/><text fill="#000000" font-family="sans-serif" font-size="14" font-weight="bold" lengthAdjust="spacingAndGlyphs" textLength="126" x="601" y="128.9951">tictactoe.views</text><!--MD5=[24db386dca859e5b235897d0a3aa8c72]
entity tictactoe.views.console--><polygon fill="#FFFFFF" filter="url(#f7q6es78975c9)" points="788.5,113,987.5,113,994.5,135.2969,1011.5,135.2969,1011.5,152.2969,788.5,152.2969,788.5,113" style="stroke:#000000;stroke-width:1.5;"/><line style="stroke:#000000;stroke-width:1.5;" x1="788.5" x2="994.5" y1="135.2969" y2="135.2969"/><text fill="#000000" font-family="sans-serif" font-size="14" font-weight="bold" lengthAdjust="spacingAndGlyphs" textLength="193" x="792.5" y="128.9951">tictactoe.views.console</text><!--MD5=[af2691941f33ba1a7826daed975acade]
entity tictactoe.views.graphics--><polygon fill="#FFFFFF" filter="url(#f7q6es78975c9)" points="1046.5,113,1253.5,113,1260.5,135.2969,1277.5,135.2969,1277.5,152.2969,1046.5,152.2969,1046.5,113" style="stroke:#000000;stroke-width:1.5;"/><line style="stroke:#000000;stroke-width:1.5;" x1="1046.5" x2="1260.5" y1="135.2969" y2="135.2969"/><text fill="#000000" font-family="sans-serif" font-size="14" font-weight="bold" lengthAdjust="spacingAndGlyphs" textLength="201" x="1050.5" y="128.9951">tictactoe.views.graphics</text><!--MD5=[815e17c207bbf712f7f26918c1feb6f8]
entity utils--><polygon fill="#FFFFFF" filter="url(#f7q6es78975c9)" points="1312.5,113,1355.5,113,1362.5,135.2969,1379.5,135.2969,1379.5,152.2969,1312.5,152.2969,1312.5,113" style="stroke:#000000;stroke-width:1.5;"/><line style="stroke:#000000;stroke-width:1.5;" x1="1312.5" x2="1362.5" y1="135.2969" y2="135.2969"/><text fill="#000000" font-family="sans-serif" font-size="14" font-weight="bold" lengthAdjust="spacingAndGlyphs" textLength="37" x="1316.5" y="128.9951">utils</text><!--MD5=[48fa9072fd51d9920e6db8484beec696]
entity java.io--><polygon fill="#FFFFFF" filter="url(#f7q6es78975c9)" points="1415,113,1475,113,1482,135.2969,1499,135.2969,1499,152.2969,1415,152.2969,1415,113" style="stroke:#000000;stroke-width:1.5;"/><line style="stroke:#000000;stroke-width:1.5;" x1="1415" x2="1482" y1="135.2969" y2="135.2969"/><text fill="#000000" font-family="sans-serif" font-size="14" font-weight="bold" lengthAdjust="spacingAndGlyphs" textLength="54" x="1419" y="128.9951">java.io</text><!--MD5=[034f0f7ed136bf78fc117f7e41f76e93]
entity java.util--><polygon fill="#FFFFFF" filter="url(#f7q6es78975c9)" points="1534.5,113,1607.5,113,1614.5,135.2969,1631.5,135.2969,1631.5,152.2969,1534.5,152.2969,1534.5,113" style="stroke:#000000;stroke-width:1.5;"/><line style="stroke:#000000;stroke-width:1.5;" x1="1534.5" x2="1614.5" y1="135.2969" y2="135.2969"/><text fill="#000000" font-family="sans-serif" font-size="14" font-weight="bold" lengthAdjust="spacingAndGlyphs" textLength="67" x="1538.5" y="128.9951">java.util</text><!--MD5=[c2796faf4134bd8b5f3bc71f44d02e74]
entity jar--><rect fill="#FEFECE" filter="url(#f7q6es78975c9)" height="46.2969" style="stroke:#A80036;stroke-width:1.5;" width="130" x="835" y="7"/><rect fill="#FEFECE" height="10" style="stroke:#A80036;stroke-width:1.5;" width="15" x="945" y="12"/><rect fill="#FEFECE" height="2" style="stroke:#A80036;stroke-width:1.5;" width="4" x="943" y="14"/><rect fill="#FEFECE" height="2" style="stroke:#A80036;stroke-width:1.5;" width="4" x="943" y="18"/><text fill="#000000" font-family="sans-serif" font-size="14" lengthAdjust="spacingAndGlyphs" textLength="90" x="850" y="39.9951">tictactoe.jar</text><!--MD5=[db071693898cb010136cdcd0ecfb308f]
link jar to tictactoe--><path d="M823.0007,35.543 C823.0007,35.543 386.661,67.8125 140,113 C138.379,113.297 136.741,113.6112 135.09,113.9401 " fill="none" id="jar-tictactoe" style="stroke:#A80036;stroke-width:1.0;"/><polygon fill="#A80036" points="122.311,116.7088,131.9539,118.7123,127.1976,115.65,130.2599,110.8937,122.311,116.7088" style="stroke:#A80036;stroke-width:1.0;"/><line style="stroke:#A80036;stroke-width:1.0;" x1="127.1976" x2="135.0165" y1="115.65" y2="113.956"/><polygon fill="#A80036" points="834.976,34.773,828.7317,31.1663,823.0007,35.543,829.245,39.1498,834.976,34.773" style="stroke:#A80036;stroke-width:1.0;"/><!--MD5=[6b3133dd7dabc2019ad83d1281580956]
link jar to tictactoe.models--><path d="M822.9504,41.5457 C822.9504,41.5457 514.062,85.045 344,113 C342.49,113.2481 340.969,113.5002 339.437,113.7556 " fill="none" id="jar-tictactoe.models" style="stroke:#A80036;stroke-width:1.0;"/><polygon fill="#A80036" points="326.564,115.9406,336.1065,118.3779,331.4935,115.1038,334.7676,110.4908,326.564,115.9406" style="stroke:#A80036;stroke-width:1.0;"/><line style="stroke:#A80036;stroke-width:1.0;" x1="331.4935" x2="339.3815" y1="115.1038" y2="113.7651"/><polygon fill="#A80036" points="834.837,39.9,828.3451,36.7607,822.9504,41.5457,829.4423,44.6851,834.837,39.9" style="stroke:#A80036;stroke-width:1.0;"/><!--MD5=[a80195ddb4f09d1000c65393133bbdfd]
link jar to tictactoe.controllers--><path d="M823.2039,48.6205 C823.2039,48.6205 635.09,91.7842 555.679,110.0051 " fill="none" id="jar-tictactoe.controllers" style="stroke:#A80036;stroke-width:1.0;"/><polygon fill="#A80036" points="542.737,112.9747,552.4036,114.8608,547.6104,111.8566,550.6146,107.0634,542.737,112.9747" style="stroke:#A80036;stroke-width:1.0;"/><line style="stroke:#A80036;stroke-width:1.0;" x1="547.6104" x2="555.4075" y1="111.8566" y2="110.0673"/><polygon fill="#A80036" points="834.9,45.937,828.1574,43.3801,823.2039,48.6205,829.9465,51.1775,834.9,45.937" style="stroke:#A80036;stroke-width:1.0;"/><!--MD5=[c97a190b1fd883cd6d17f82504278168]
link jar to tictactoe.views--><path d="M839.6667,57.95 C839.6667,57.95 761.944,92.6649 728.888,107.4302 " fill="none" id="jar-tictactoe.views" style="stroke:#A80036;stroke-width:1.0;"/><polygon fill="#A80036" points="716.713,112.868,726.5618,112.849,721.2781,110.8285,723.2986,105.5448,716.713,112.868" style="stroke:#A80036;stroke-width:1.0;"/><line style="stroke:#A80036;stroke-width:1.0;" x1="721.2781" x2="728.583" y1="110.8285" y2="107.5662"/><polygon fill="#A80036" points="850.623,53.0552,843.5132,51.8505,839.6667,57.95,846.7764,59.1547,850.623,53.0552" style="stroke:#A80036;stroke-width:1.0;"/><!--MD5=[f1530ed960fc683699116a1240ff9d77]
link jar to tictactoe.views.console--><path d="M900,65.3042 C900,65.3042 900,89.2598 900,99.9085 " fill="none" id="jar-tictactoe.views.console" style="stroke:#A80036;stroke-width:1.0;"/><polygon fill="#A80036" points="900,112.9606,904,103.9606,900,107.9606,896,103.9606,900,112.9606" style="stroke:#A80036;stroke-width:1.0;"/><line style="stroke:#A80036;stroke-width:1.0;" x1="900" x2="900" y1="107.9606" y2="99.9607"/><polygon fill="#A80036" points="900,53.3042,896,59.3042,900,65.3042,904,59.3042,900,53.3042" style="stroke:#A80036;stroke-width:1.0;"/><!--MD5=[ce1a0edc1bf4393e7cbd7df974f6190c]
link jar to tictactoe.views.graphics--><path d="M968.7011,57.3528 C968.7011,57.3528 1061.92,93.1105 1101.14,108.1547 " fill="none" id="jar-tictactoe.views.graphics" style="stroke:#A80036;stroke-width:1.0;"/><polygon fill="#A80036" points="1113.43,112.868,1106.4602,105.9094,1108.7618,111.0769,1103.5944,113.3785,1113.43,112.868" style="stroke:#A80036;stroke-width:1.0;"/><line style="stroke:#A80036;stroke-width:1.0;" x1="1108.7618" x2="1101.29" y1="111.0769" y2="108.2121"/><polygon fill="#A80036" points="957.497,53.0552,961.6665,58.9387,968.7011,57.3528,964.5316,51.4693,957.497,53.0552" style="stroke:#A80036;stroke-width:1.0;"/><!--MD5=[2b24531f65345f8226c8757364dc2f7a]
link jar to utils--><path d="M977.1736,43.6446 C977.1736,43.6446 1186.65,82.2735 1295,113 C1296.61,113.4553 1298.23,113.9362 1299.87,114.437 " fill="none" id="jar-utils" style="stroke:#A80036;stroke-width:1.0;"/><polygon fill="#A80036" points="1312.48,118.5702,1305.1706,111.9693,1307.728,117.015,1302.6823,119.5724,1312.48,118.5702" style="stroke:#A80036;stroke-width:1.0;"/><line style="stroke:#A80036;stroke-width:1.0;" x1="1307.728" x2="1300.125" y1="117.015" y2="114.5204"/><polygon fill="#A80036" points="965.348,41.606,970.5812,46.5672,977.1736,43.6446,971.9403,38.6835,965.348,41.606" style="stroke:#A80036;stroke-width:1.0;"/><!--MD5=[f17a38c250a1605cd3da9b9fac2ef94b]
link jar to java.io--><path d="M977.1884,40.4348 C977.1884,40.4348 1250.72,78.548 1397,113 C1398.73,113.408 1400.49,113.8393 1402.26,114.2891 " fill="none" id="jar-java.io" style="stroke:#A80036;stroke-width:1.0;"/><polygon fill="#A80036" points="1414.91,117.7367,1407.2766,111.5133,1410.0855,116.4234,1405.1754,119.2324,1414.91,117.7367" style="stroke:#A80036;stroke-width:1.0;"/><line style="stroke:#A80036;stroke-width:1.0;" x1="1410.0855" x2="1402.365" y1="116.4234" y2="114.3194"/><polygon fill="#A80036" points="965.287,38.9,970.7261,43.6346,977.1884,40.4348,971.7493,35.7003,965.287,38.9" style="stroke:#A80036;stroke-width:1.0;"/><!--MD5=[a929e6d2b54380e4c3e4c2b17ce7cd9b]
link jar to java.util--><path d="M977.3004,37.7376 C977.3004,37.7376 1325.39,73.6185 1517,113 C1518.49,113.3055 1519.99,113.6264 1521.5,113.9605 " fill="none" id="jar-java.util" style="stroke:#A80036;stroke-width:1.0;"/><polygon fill="#A80036" points="1534.17,116.9847,1526.3428,111.0068,1529.3063,115.8253,1524.4878,118.7887,1534.17,116.9847" style="stroke:#A80036;stroke-width:1.0;"/><line style="stroke:#A80036;stroke-width:1.0;" x1="1529.3063" x2="1521.525" y1="115.8253" y2="113.9667"/><polygon fill="#A80036" points="965.352,36.626,970.9557,41.1646,977.3004,37.7376,971.6967,33.199,965.352,36.626" style="stroke:#A80036;stroke-width:1.0;"/><!--MD5=[d2ccbd79294fd4020162a7e060cbc117]
@startuml
package "  "  as tictactoe {
}
package "  "  as tictactoe.models {
}
package "  "  as tictactoe.controllers {
}
package "  "  as tictactoe.views {
}
package "  "  as tictactoe.views.console {
}
package "  "  as tictactoe.views.graphics {
}
package "  "  as utils {
}
package "  "  as java.io {
}
package "  "  as java.util {
}

[tictactoe.jar] as jar

jar *- -> tictactoe
jar *- -> tictactoe.models
jar *- -> tictactoe.controllers
jar *- -> tictactoe.views
jar *- -> tictactoe.views.console
jar *- -> tictactoe.views.graphics
jar *- -> utils
jar *- -> java.io
jar *- -> java.util
@enduml

PlantUML version 1.2020.21beta7(Unknown compile time)
(GPL source distribution)
Java Runtime: Java(TM) SE Runtime Environment
JVM: Java HotSpot(TM) 64-Bit Server VM
Default Encoding: UTF-8
Language: en
Country: US
--></g></svg>