<?xml version="1.0" encoding="UTF-8" standalone="no"?><svg xmlns="http://www.w3.org/2000/svg" xmlns:xlink="http://www.w3.org/1999/xlink" contentScriptType="application/ecmascript" contentStyleType="text/css" height="517px" preserveAspectRatio="none" style="width:311px;height:517px;" version="1.1" viewBox="0 0 311 517" width="311px" zoomAndPan="magnify"><defs><filter height="300%" id="f149p7iogqzfhc" width="300%" x="-1" y="-1"><feGaussianBlur result="blurOut" stdDeviation="2.0"/><feColorMatrix in="blurOut" result="blurOut2" type="matrix" values="0 0 0 0 0 0 0 0 0 0 0 0 0 0 0 0 0 0 .4 0"/><feOffset dx="4.0" dy="4.0" in="blurOut2" result="blurOut3"/><feBlend in="SourceGraphic" in2="blurOut3" mode="normal"/></filter></defs><g><polygon fill="#DDDDDD" filter="url(#f149p7iogqzfhc)" points="110.5,6,192.5,6,199.5,28.2969,206.5,28.2969,206.5,58.5938,110.5,58.5938,110.5,6" style="stroke: #000000; stroke-width: 1.5;"/><line style="stroke: #000000; stroke-width: 1.5;" x1="110.5" x2="199.5" y1="28.2969" y2="28.2969"/><text fill="#000000" font-family="sans-serif" font-size="14" font-weight="bold" lengthAdjust="spacingAndGlyphs" textLength="76" x="114.5" y="20.9951">tictactoe</text><polygon fill="#DDDDDD" filter="url(#f149p7iogqzfhc)" points="16,232,161,232,168,254.2969,175,254.2969,175,284.5938,16,284.5938,16,232" style="stroke: #000000; stroke-width: 1.5;"/><line style="stroke: #000000; stroke-width: 1.5;" x1="16" x2="168" y1="254.2969" y2="254.2969"/><text fill="#000000" font-family="sans-serif" font-size="14" font-weight="bold" lengthAdjust="spacingAndGlyphs" textLength="139" x="20" y="246.9951">tictactoe.models</text><polygon fill="#DDDDDD" filter="url(#f149p7iogqzfhc)" points="148.5,119,280.5,119,287.5,141.2969,294.5,141.2969,294.5,171.5938,148.5,171.5938,148.5,119" style="stroke: #000000; stroke-width: 1.5;"/><line style="stroke: #000000; stroke-width: 1.5;" x1="148.5" x2="287.5" y1="141.2969" y2="141.2969"/><text fill="#000000" font-family="sans-serif" font-size="14" font-weight="bold" lengthAdjust="spacingAndGlyphs" textLength="126" x="152.5" y="133.9951">tictactoe.views</text><polygon fill="#FFFFFF" filter="url(#f149p7iogqzfhc)" points="52,345,125,345,132,367.2969,139,367.2969,139,397.5938,52,397.5938,52,345" style="stroke: #000000; stroke-width: 1.5;"/><line style="stroke: #000000; stroke-width: 1.5;" x1="52" x2="132" y1="367.2969" y2="367.2969"/><text fill="#000000" font-family="sans-serif" font-size="14" font-weight="bold" lengthAdjust="spacingAndGlyphs" textLength="67" x="56" y="359.9951">java.util</text><polygon fill="#DDDDDD" filter="url(#f149p7iogqzfhc)" points="187,345,230,345,237,367.2969,244,367.2969,244,397.5938,187,397.5938,187,345" style="stroke: #000000; stroke-width: 1.5;"/><line style="stroke: #000000; stroke-width: 1.5;" x1="187" x2="237" y1="367.2969" y2="367.2969"/><text fill="#000000" font-family="sans-serif" font-size="14" font-weight="bold" lengthAdjust="spacingAndGlyphs" textLength="37" x="191" y="359.9951">utils</text><polygon fill="#FFFFFF" filter="url(#f149p7iogqzfhc)" points="178.5,458,238.5,458,245.5,480.2969,252.5,480.2969,252.5,510.5938,178.5,510.5938,178.5,458" style="stroke: #000000; stroke-width: 1.5;"/><line style="stroke: #000000; stroke-width: 1.5;" x1="178.5" x2="245.5" y1="480.2969" y2="480.2969"/><text fill="#000000" font-family="sans-serif" font-size="14" font-weight="bold" lengthAdjust="spacingAndGlyphs" textLength="54" x="182.5" y="472.9951">java.io</text><!--MD5=[a65998a409184a650758a5d227ee8afa]
link tictactoe to tictactoe.models--><path d="M149.58,59.173 C143.834,76.077 136.368,98.747 130.5,119 C119.845,155.778 109.3114,198.57 102.6286,226.745 " fill="none" id="tictactoe-to-tictactoe.models" style="stroke: #A80036; stroke-width: 1.0; stroke-dasharray: 7.0,7.0;"/><polygon fill="#A80036" points="101.4264,231.831,107.3892,223.9923,102.5764,226.9651,99.6037,222.1523,101.4264,231.831" style="stroke: #A80036; stroke-width: 1.0;"/><!--MD5=[8fe1157dabbcf20ee852fc992046f19b]
link tictactoe to tictactoe.views--><path d="M173.112,59.245 C182.415,75.636 194.508,96.943 204.278,114.156 " fill="none" id="tictactoe-to-tictactoe.views" style="stroke: #A80036; stroke-width: 1.0; stroke-dasharray: 7.0,7.0;"/><polygon fill="#A80036" points="206.967,118.895,206.0049,109.0932,204.4997,114.5462,199.0468,113.0409,206.967,118.895" style="stroke: #A80036; stroke-width: 1.0;"/><!--MD5=[e6c0f23e74b5161a168046a341518387]
link tictactoe.models to java.util--><path d="M95.5,285.245 C95.5,301.496 95.5,322.579 95.5,339.714 " fill="none" id="tictactoe.models-to-java.util" style="stroke: #A80036; stroke-width: 1.0; stroke-dasharray: 7.0,7.0;"/><polygon fill="#A80036" points="95.5,344.895,99.5,335.895,95.5,339.895,91.5,335.895,95.5,344.895" style="stroke: #A80036; stroke-width: 1.0;"/><!--MD5=[592d3e5213f5052c5b4a8146f8a66fb9]
link tictactoe.models to utils--><path codeLine="8" d="M123.332,285.245 C141.507,302.056 165.272,324.039 184.118,341.472 " fill="none" id="tictactoe.models-to-utils" style="stroke: #A80036; stroke-width: 1.0; stroke-dasharray: 7.0,7.0;"/><polygon fill="#A80036" points="187.819,344.895,183.9296,335.8467,184.149,341.4993,178.4964,341.7187,187.819,344.895" style="stroke: #A80036; stroke-width: 1.0;"/><!--MD5=[cd646adb6bbab9424d87d89ba9c34900]
link tictactoe.views to utils--><path codeLine="9" d="M220.812,172.196 C219.703,213.606 217.523,294.957 216.33,339.514 " fill="none" id="tictactoe.views-to-utils" style="stroke: #A80036; stroke-width: 1.0; stroke-dasharray: 7.0,7.0;"/><polygon fill="#A80036" points="216.189,344.76,220.4293,335.8707,216.3233,339.7618,212.4321,335.6558,216.189,344.76" style="stroke: #A80036; stroke-width: 1.0;"/><!--MD5=[a8e8bb12a36f69c578c87cb37fa844dd]
link tictactoe.views to tictactoe.models--><path d="M192.276,172.245 C173.193,189.056 148.239,211.039 128.451,228.472 " fill="none" id="tictactoe.views-to-tictactoe.models" style="stroke: #A80036; stroke-width: 1.0; stroke-dasharray: 7.0,7.0;"/><polygon fill="#A80036" points="124.565,231.895,133.962,228.9459,128.3164,228.5893,128.6729,222.9437,124.565,231.895" style="stroke: #A80036; stroke-width: 1.0;"/><!--MD5=[e79504c030c2940e8dd8427e90ad9823]
link utils to java.io--><path d="M215.5,398.245 C215.5,414.4958 215.5,435.5795 215.5,452.7139 " fill="none" id="utils-to-java.io" style="stroke: #A80036; stroke-width: 1.0; stroke-dasharray: 7.0,7.0;"/><polygon fill="#A80036" points="215.5,457.895,219.5,448.895,215.5,452.895,211.5,448.895,215.5,457.895" style="stroke: #A80036; stroke-width: 1.0;"/><!--MD5=[3fec01c79e9b0c0f20f4370172369614]
@startuml
package tictactoe #DDDDDD { }
package tictactoe.models #DDDDDD { }
package tictactoe.views #DDDDDD { } 
package java.util{ }
tictactoe .down.> tictactoe.models
tictactoe .down.> tictactoe.views
tictactoe.models .down.> java.util
tictactoe.models .down.> utils
tictactoe.views .down.> utils
tictactoe.views .down.> tictactoe.models

package utils #DDDDDD { } 
package java.io{ }
utils .down.> java.io
@enduml

PlantUML version 1.2020.20beta2(Unknown compile time)
(GPL source distribution)
Java Runtime: Java(TM) SE Runtime Environment
JVM: Java HotSpot(TM) 64-Bit Server VM
Default Encoding: UTF-8
Language: en
Country: US
--></g></svg>